<?xml version="1.0" encoding="utf-8" standalone="no"?>
<!DOCTYPE svg PUBLIC "-//W3C//DTD SVG 1.1//EN"
  "http://www.w3.org/Graphics/SVG/1.1/DTD/svg11.dtd">
<svg xmlns:xlink="http://www.w3.org/1999/xlink" width="460.8pt" height="345.6pt" viewBox="0 0 460.8 345.6" xmlns="http://www.w3.org/2000/svg" version="1.1">
 <metadata>
  <rdf:RDF xmlns:dc="http://purl.org/dc/elements/1.1/" xmlns:cc="http://creativecommons.org/ns#" xmlns:rdf="http://www.w3.org/1999/02/22-rdf-syntax-ns#">
   <cc:Work>
    <dc:type rdf:resource="http://purl.org/dc/dcmitype/StillImage"/>
    <dc:date>2024-06-28T18:46:19.486637</dc:date>
    <dc:format>image/svg+xml</dc:format>
    <dc:creator>
     <cc:Agent>
      <dc:title>Matplotlib v3.9.0, https://matplotlib.org/</dc:title>
     </cc:Agent>
    </dc:creator>
   </cc:Work>
  </rdf:RDF>
 </metadata>
 <defs>
  <style type="text/css">*{stroke-linejoin: round; stroke-linecap: butt}</style>
 </defs>
 <g id="figure_1">
  <g id="patch_1">
   <path d="M 0 345.6 
L 460.8 345.6 
L 460.8 0 
L 0 0 
z
" style="fill: #ffffff"/>
  </g>
  <g id="axes_1">
   <g id="patch_2">
    <path d="M 57.6 307.584 
L 414.72 307.584 
L 414.72 41.472 
L 57.6 41.472 
z
" style="fill: #ffffff"/>
   </g>
   <g id="PolyCollection_1">
    <path d="M 73.832727 106.189714 
L 73.832727 307.584 
L 75.774819 307.584 
L 76.157497 307.584 
L 76.454072 307.584 
L 77.783879 307.584 
L 78.013486 307.584 
L 78.042187 307.584 
L 78.223959 307.584 
L 81.256683 307.584 
L 83.830193 307.584 
L 85.647914 307.584 
L 87.130792 307.584 
L 88.17359 307.584 
L 90.986274 307.584 
L 91.053242 307.584 
L 91.474188 307.584 
L 93.349311 307.584 
L 94.315573 307.584 
L 94.32514 307.584 
L 95.186166 307.584 
L 95.779317 307.584 
L 95.999357 307.584 
L 97.520503 307.584 
L 97.55877 307.584 
L 98.017984 307.584 
L 99.673067 307.584 
L 100.88807 307.584 
L 101.079409 307.584 
L 101.117677 307.584 
L 103.413746 307.584 
L 104.026031 307.584 
L 104.78182 307.584 
L 105.020994 307.584 
L 106.302965 307.584 
L 106.341233 307.584 
L 106.580407 307.584 
L 108.493798 307.584 
L 108.771239 307.584 
L 108.876476 307.584 
L 109.24002 307.584 
L 110.005376 307.584 
L 111.239513 307.584 
L 111.516955 307.584 
L 111.832664 307.584 
L 112.320579 307.584 
L 112.703257 307.584 
L 114.874955 307.584 
L 116.176061 307.584 
L 116.472636 307.584 
L 116.941417 307.584 
L 117.515434 307.584 
L 117.553702 307.584 
L 119.151383 307.584 
L 119.227919 307.584 
L 119.495793 307.584 
L 119.7254 307.584 
L 120.031543 307.584 
L 122.059737 307.584 
L 122.825093 307.584 
L 123.96356 307.584 
L 124.556711 307.584 
L 125.035059 307.584 
L 125.542108 307.584 
L 125.924786 307.584 
L 126.336165 307.584 
L 127.254592 307.584 
L 127.493766 307.584 
L 127.503333 307.584 
L 129.321054 307.584 
L 130.095977 307.584 
L 130.191647 307.584 
L 130.258615 307.584 
L 130.631726 307.584 
L 132.114604 307.584 
L 132.238975 307.584 
L 132.497282 307.584 
L 132.889527 307.584 
L 132.97563 307.584 
L 133.013898 307.584 
L 133.166969 307.584 
L 133.597482 307.584 
L 134.209767 307.584 
L 134.707248 307.584 
L 134.850753 307.584 
L 135.185596 307.584 
L 135.20473 307.584 
L 135.797881 307.584 
L 136.343197 307.584 
L 136.639773 307.584 
L 137.098987 307.584 
L 138.6584 307.584 
L 138.687101 307.584 
L 138.715802 307.584 
L 138.78277 307.584 
L 138.811471 307.584 
L 140.246514 307.584 
L 140.686594 307.584 
L 141.499785 307.584 
L 142.619118 307.584 
L 144.293335 307.584 
L 144.800384 307.584 
L 146.072788 307.584 
L 147.201689 307.584 
L 149.421222 307.584 
L 152.138236 307.584 
L 152.300875 307.584 
L 153.362806 307.584 
L 154.654345 307.584 
L 154.807416 307.584 
L 155.381433 307.584 
L 155.524938 307.584 
L 156.462499 307.584 
L 156.959981 307.584 
L 157.304391 307.584 
L 157.457462 307.584 
L 157.84014 307.584 
L 158.184551 307.584 
L 160.011839 307.584 
L 160.853731 307.584 
L 160.920699 307.584 
L 161.035503 307.584 
L 163.762084 307.584 
L 164.74748 307.584 
L 164.977087 307.584 
L 165.445868 307.584 
L 165.465002 307.584 
L 166.153822 307.584 
L 167.29229 307.584 
L 168.86127 307.584 
L 169.215247 307.584 
L 169.636193 307.584 
L 171.616553 307.584 
L 171.893994 307.584 
L 172.554114 307.584 
L 172.908091 307.584 
L 173.950889 307.584 
L 173.998724 307.584 
L 174.582308 307.584 
L 177.318456 307.584 
L 177.509795 307.584 
L 177.672434 307.584 
L 178.007277 307.584 
L 178.686531 307.584 
L 178.906571 307.584 
L 179.471021 307.584 
L 180.733859 307.584 
L 181.719255 307.584 
L 181.881893 307.584 
L 182.034964 307.584 
L 183.106463 307.584 
L 183.230833 307.584 
L 183.422172 307.584 
L 185.00072 307.584 
L 186.493164 307.584 
L 188.57876 307.584 
L 188.951871 307.584 
L 189.104942 307.584 
L 189.80333 307.584 
L 190.186008 307.584 
L 192.290738 307.584 
L 192.81692 307.584 
L 194.567672 307.584 
L 198.681462 307.584 
L 199.647724 307.584 
L 200.489616 307.584 
L 200.566152 307.584 
L 203.684979 307.584 
L 204.211161 307.584 
L 205.263526 307.584 
L 207.779634 307.584 
L 208.07621 307.584 
L 209.999167 307.584 
L 210.611452 307.584 
L 211.807321 307.584 
L 215.136621 307.584 
L 215.20359 307.584 
L 216.33249 307.584 
L 216.42816 307.584 
L 216.485561 307.584 
L 217.011744 307.584 
L 217.930171 307.584 
L 218.016274 307.584 
L 218.733795 307.584 
L 219.068639 307.584 
L 219.719192 307.584 
L 221.087266 307.584 
L 222.531876 307.584 
L 224.34003 307.584 
L 225.966412 307.584 
L 229.343546 307.584 
L 230.281107 307.584 
L 232.845051 307.584 
L 234.768008 307.584 
L 235.638601 307.584 
L 236.069114 307.584 
L 236.576162 307.584 
L 236.911006 307.584 
L 238.336482 307.584 
L 240.517747 307.584 
L 248.066073 307.584 
L 248.07564 307.584 
L 250.409976 307.584 
L 252.419036 307.584 
L 254.906444 307.584 
L 256.083179 307.584 
L 256.523259 307.584 
L 261.966855 307.584 
L 264.02375 307.584 
L 264.128987 307.584 
L 268.032303 307.584 
L 275.331889 307.584 
L 275.456259 307.584 
L 291.318267 307.584 
L 303.009083 307.584 
L 320.841883 307.584 
L 326.562921 307.584 
L 332.5327 307.584 
L 332.733606 307.584 
L 338.004997 307.584 
L 346.108206 307.584 
L 370.618739 307.584 
L 398.487273 307.584 
L 398.487273 306.452571 
L 398.487273 306.452571 
L 370.618739 306.452571 
L 346.108206 306.452571 
L 338.004997 305.321143 
L 332.733606 304.189714 
L 332.5327 304.189714 
L 326.562921 304.189714 
L 320.841883 303.058286 
L 303.009083 301.926857 
L 291.318267 300.795429 
L 275.456259 299.664 
L 275.331889 298.532571 
L 268.032303 297.401143 
L 264.128987 297.401143 
L 264.02375 296.269714 
L 261.966855 295.138286 
L 256.523259 294.006857 
L 256.083179 294.006857 
L 254.906444 294.006857 
L 252.419036 292.875429 
L 250.409976 291.744 
L 248.07564 290.612571 
L 248.066073 289.481143 
L 240.517747 289.481143 
L 238.336482 289.481143 
L 236.911006 288.349714 
L 236.576162 287.218286 
L 236.069114 286.086857 
L 235.638601 286.086857 
L 234.768008 284.955429 
L 232.845051 284.955429 
L 230.281107 283.824 
L 229.343546 282.692571 
L 225.966412 281.561143 
L 224.34003 281.561143 
L 222.531876 280.429714 
L 221.087266 280.429714 
L 219.719192 279.298286 
L 219.068639 278.166857 
L 218.733795 277.035429 
L 218.016274 275.904 
L 217.930171 275.904 
L 217.011744 274.772571 
L 216.485561 273.641143 
L 216.42816 273.641143 
L 216.33249 272.509714 
L 215.20359 271.378286 
L 215.136621 270.246857 
L 211.807321 269.115429 
L 210.611452 267.984 
L 209.999167 266.852571 
L 208.07621 265.721143 
L 207.779634 264.589714 
L 205.263526 263.458286 
L 204.211161 262.326857 
L 203.684979 262.326857 
L 200.566152 262.326857 
L 200.489616 261.195429 
L 199.647724 260.064 
L 198.681462 258.932571 
L 194.567672 257.801143 
L 192.81692 256.669714 
L 192.290738 255.538286 
L 190.186008 254.406857 
L 189.80333 253.275429 
L 189.104942 252.144 
L 188.951871 251.012571 
L 188.57876 251.012571 
L 186.493164 249.881143 
L 185.00072 248.749714 
L 183.422172 248.749714 
L 183.230833 248.749714 
L 183.106463 247.618286 
L 182.034964 246.486857 
L 181.881893 245.355429 
L 181.719255 245.355429 
L 180.733859 244.224 
L 179.471021 243.092571 
L 178.906571 241.961143 
L 178.686531 240.829714 
L 178.007277 240.829714 
L 177.672434 240.829714 
L 177.509795 239.698286 
L 177.318456 238.566857 
L 174.582308 237.435429 
L 173.998724 236.304 
L 173.950889 235.172571 
L 172.908091 234.041143 
L 172.554114 232.909714 
L 171.893994 231.778286 
L 171.616553 230.646857 
L 169.636193 229.515429 
L 169.215247 228.384 
L 168.86127 227.252571 
L 167.29229 226.121143 
L 166.153822 226.121143 
L 165.465002 224.989714 
L 165.445868 223.858286 
L 164.977087 222.726857 
L 164.74748 221.595429 
L 163.762084 220.464 
L 161.035503 219.332571 
L 160.920699 218.201143 
L 160.853731 217.069714 
L 160.011839 215.938286 
L 158.184551 214.806857 
L 157.84014 213.675429 
L 157.457462 212.544 
L 157.304391 211.412571 
L 156.959981 210.281143 
L 156.462499 209.149714 
L 155.524938 209.149714 
L 155.381433 208.018286 
L 154.807416 206.886857 
L 154.654345 205.755429 
L 153.362806 204.624 
L 152.300875 203.492571 
L 152.138236 203.492571 
L 149.421222 203.492571 
L 147.201689 202.361143 
L 146.072788 201.229714 
L 144.800384 200.098286 
L 144.293335 198.966857 
L 142.619118 197.835429 
L 141.499785 196.704 
L 140.686594 195.572571 
L 140.246514 194.441143 
L 138.811471 194.441143 
L 138.78277 193.309714 
L 138.715802 192.178286 
L 138.687101 192.178286 
L 138.6584 191.046857 
L 137.098987 191.046857 
L 136.639773 189.915429 
L 136.343197 188.784 
L 135.797881 187.652571 
L 135.20473 187.652571 
L 135.185596 186.521143 
L 134.850753 185.389714 
L 134.707248 184.258286 
L 134.209767 183.126857 
L 133.597482 181.995429 
L 133.166969 180.864 
L 133.013898 179.732571 
L 132.97563 178.601143 
L 132.889527 177.469714 
L 132.497282 176.338286 
L 132.238975 175.206857 
L 132.114604 174.075429 
L 130.631726 172.944 
L 130.258615 171.812571 
L 130.191647 170.681143 
L 130.095977 169.549714 
L 129.321054 168.418286 
L 127.503333 167.286857 
L 127.493766 166.155429 
L 127.254592 165.024 
L 126.336165 163.892571 
L 125.924786 162.761143 
L 125.542108 161.629714 
L 125.035059 160.498286 
L 124.556711 159.366857 
L 123.96356 158.235429 
L 122.825093 157.104 
L 122.059737 155.972571 
L 120.031543 154.841143 
L 119.7254 153.709714 
L 119.495793 152.578286 
L 119.227919 151.446857 
L 119.151383 150.315429 
L 117.553702 149.184 
L 117.515434 148.052571 
L 116.941417 146.921143 
L 116.472636 145.789714 
L 116.176061 144.658286 
L 114.874955 143.526857 
L 112.703257 142.395429 
L 112.320579 142.395429 
L 111.832664 141.264 
L 111.516955 140.132571 
L 111.239513 139.001143 
L 110.005376 139.001143 
L 109.24002 137.869714 
L 108.876476 136.738286 
L 108.771239 135.606857 
L 108.493798 134.475429 
L 106.580407 134.475429 
L 106.341233 133.344 
L 106.302965 132.212571 
L 105.020994 131.081143 
L 104.78182 129.949714 
L 104.026031 128.818286 
L 103.413746 127.686857 
L 101.117677 126.555429 
L 101.079409 125.424 
L 100.88807 125.424 
L 99.673067 124.292571 
L 98.017984 124.292571 
L 97.55877 123.161143 
L 97.520503 123.161143 
L 95.999357 122.029714 
L 95.779317 120.898286 
L 95.186166 119.766857 
L 94.32514 117.504 
L 94.315573 117.504 
L 93.349311 116.372571 
L 91.474188 115.241143 
L 91.053242 114.109714 
L 90.986274 112.978286 
L 88.17359 111.846857 
L 87.130792 110.715429 
L 85.647914 109.584 
L 83.830193 109.584 
L 81.256683 109.584 
L 78.223959 109.584 
L 78.042187 108.452571 
L 78.013486 107.321143 
L 77.783879 107.321143 
L 76.454072 107.321143 
L 76.157497 106.189714 
L 75.774819 106.189714 
L 73.832727 106.189714 
z
" clip-path="url(#p35fbdc1f8c)" style="fill: #008000"/>
   </g>
   <g id="PolyCollection_2">
    <path d="M 73.832727 57.538286 
L 73.832727 106.189714 
L 75.774819 106.189714 
L 76.157497 106.189714 
L 76.454072 107.321143 
L 77.783879 107.321143 
L 78.013486 107.321143 
L 78.042187 108.452571 
L 78.223959 109.584 
L 81.256683 109.584 
L 83.830193 109.584 
L 85.647914 109.584 
L 87.130792 110.715429 
L 88.17359 111.846857 
L 90.986274 112.978286 
L 91.053242 114.109714 
L 91.474188 115.241143 
L 93.349311 116.372571 
L 94.315573 117.504 
L 94.32514 117.504 
L 95.186166 119.766857 
L 95.779317 120.898286 
L 95.999357 122.029714 
L 97.520503 123.161143 
L 97.55877 123.161143 
L 98.017984 124.292571 
L 99.673067 124.292571 
L 100.88807 125.424 
L 101.079409 125.424 
L 101.117677 126.555429 
L 103.413746 127.686857 
L 104.026031 128.818286 
L 104.78182 129.949714 
L 105.020994 131.081143 
L 106.302965 132.212571 
L 106.341233 133.344 
L 106.580407 134.475429 
L 108.493798 134.475429 
L 108.771239 135.606857 
L 108.876476 136.738286 
L 109.24002 137.869714 
L 110.005376 139.001143 
L 111.239513 139.001143 
L 111.516955 140.132571 
L 111.832664 141.264 
L 112.320579 142.395429 
L 112.703257 142.395429 
L 114.874955 143.526857 
L 116.176061 144.658286 
L 116.472636 145.789714 
L 116.941417 146.921143 
L 117.515434 148.052571 
L 117.553702 149.184 
L 119.151383 150.315429 
L 119.227919 151.446857 
L 119.495793 152.578286 
L 119.7254 153.709714 
L 120.031543 154.841143 
L 122.059737 155.972571 
L 122.825093 157.104 
L 123.96356 158.235429 
L 124.556711 159.366857 
L 125.035059 160.498286 
L 125.542108 161.629714 
L 125.924786 162.761143 
L 126.336165 163.892571 
L 127.254592 165.024 
L 127.493766 166.155429 
L 127.503333 167.286857 
L 129.321054 168.418286 
L 130.095977 169.549714 
L 130.191647 170.681143 
L 130.258615 171.812571 
L 130.631726 172.944 
L 132.114604 174.075429 
L 132.238975 175.206857 
L 132.497282 176.338286 
L 132.889527 177.469714 
L 132.97563 178.601143 
L 133.013898 179.732571 
L 133.166969 180.864 
L 133.597482 181.995429 
L 134.209767 183.126857 
L 134.707248 184.258286 
L 134.850753 185.389714 
L 135.185596 186.521143 
L 135.20473 187.652571 
L 135.797881 187.652571 
L 136.343197 188.784 
L 136.639773 189.915429 
L 137.098987 191.046857 
L 138.6584 191.046857 
L 138.687101 192.178286 
L 138.715802 192.178286 
L 138.78277 193.309714 
L 138.811471 194.441143 
L 140.246514 194.441143 
L 140.686594 195.572571 
L 141.499785 196.704 
L 142.619118 197.835429 
L 144.293335 198.966857 
L 144.800384 200.098286 
L 146.072788 201.229714 
L 147.201689 202.361143 
L 149.421222 203.492571 
L 152.138236 203.492571 
L 152.300875 203.492571 
L 153.362806 204.624 
L 154.654345 205.755429 
L 154.807416 206.886857 
L 155.381433 208.018286 
L 155.524938 209.149714 
L 156.462499 209.149714 
L 156.959981 210.281143 
L 157.304391 211.412571 
L 157.457462 212.544 
L 157.84014 213.675429 
L 158.184551 214.806857 
L 160.011839 215.938286 
L 160.853731 217.069714 
L 160.920699 218.201143 
L 161.035503 219.332571 
L 163.762084 220.464 
L 164.74748 221.595429 
L 164.977087 222.726857 
L 165.445868 223.858286 
L 165.465002 224.989714 
L 166.153822 226.121143 
L 167.29229 226.121143 
L 168.86127 227.252571 
L 169.215247 228.384 
L 169.636193 229.515429 
L 171.616553 230.646857 
L 171.893994 231.778286 
L 172.554114 232.909714 
L 172.908091 234.041143 
L 173.950889 235.172571 
L 173.998724 236.304 
L 174.582308 237.435429 
L 177.318456 238.566857 
L 177.509795 239.698286 
L 177.672434 240.829714 
L 178.007277 240.829714 
L 178.686531 240.829714 
L 178.906571 241.961143 
L 179.471021 243.092571 
L 180.733859 244.224 
L 181.719255 245.355429 
L 181.881893 245.355429 
L 182.034964 246.486857 
L 183.106463 247.618286 
L 183.230833 248.749714 
L 183.422172 248.749714 
L 185.00072 248.749714 
L 186.493164 249.881143 
L 188.57876 251.012571 
L 188.951871 251.012571 
L 189.104942 252.144 
L 189.80333 253.275429 
L 190.186008 254.406857 
L 192.290738 255.538286 
L 192.81692 256.669714 
L 194.567672 257.801143 
L 198.681462 258.932571 
L 199.647724 260.064 
L 200.489616 261.195429 
L 200.566152 262.326857 
L 203.684979 262.326857 
L 204.211161 262.326857 
L 205.263526 263.458286 
L 207.779634 264.589714 
L 208.07621 265.721143 
L 209.999167 266.852571 
L 210.611452 267.984 
L 211.807321 269.115429 
L 215.136621 270.246857 
L 215.20359 271.378286 
L 216.33249 272.509714 
L 216.42816 273.641143 
L 216.485561 273.641143 
L 217.011744 274.772571 
L 217.930171 275.904 
L 218.016274 275.904 
L 218.733795 277.035429 
L 219.068639 278.166857 
L 219.719192 279.298286 
L 221.087266 280.429714 
L 222.531876 280.429714 
L 224.34003 281.561143 
L 225.966412 281.561143 
L 229.343546 282.692571 
L 230.281107 283.824 
L 232.845051 284.955429 
L 234.768008 284.955429 
L 235.638601 286.086857 
L 236.069114 286.086857 
L 236.576162 287.218286 
L 236.911006 288.349714 
L 238.336482 289.481143 
L 240.517747 289.481143 
L 248.066073 289.481143 
L 248.07564 290.612571 
L 250.409976 291.744 
L 252.419036 292.875429 
L 254.906444 294.006857 
L 256.083179 294.006857 
L 256.523259 294.006857 
L 261.966855 295.138286 
L 264.02375 296.269714 
L 264.128987 297.401143 
L 268.032303 297.401143 
L 275.331889 298.532571 
L 275.456259 299.664 
L 291.318267 300.795429 
L 303.009083 301.926857 
L 320.841883 303.058286 
L 326.562921 304.189714 
L 332.5327 304.189714 
L 332.733606 304.189714 
L 338.004997 305.321143 
L 346.108206 306.452571 
L 370.618739 306.452571 
L 398.487273 306.452571 
L 398.487273 306.452571 
L 398.487273 306.452571 
L 370.618739 305.321143 
L 346.108206 304.189714 
L 338.004997 303.058286 
L 332.733606 301.926857 
L 332.5327 300.795429 
L 326.562921 299.664 
L 320.841883 298.532571 
L 303.009083 297.401143 
L 291.318267 296.269714 
L 275.456259 295.138286 
L 275.331889 294.006857 
L 268.032303 292.875429 
L 264.128987 291.744 
L 264.02375 290.612571 
L 261.966855 289.481143 
L 256.523259 288.349714 
L 256.083179 287.218286 
L 254.906444 286.086857 
L 252.419036 284.955429 
L 250.409976 283.824 
L 248.07564 282.692571 
L 248.066073 281.561143 
L 240.517747 280.429714 
L 238.336482 279.298286 
L 236.911006 278.166857 
L 236.576162 277.035429 
L 236.069114 275.904 
L 235.638601 274.772571 
L 234.768008 273.641143 
L 232.845051 272.509714 
L 230.281107 271.378286 
L 229.343546 270.246857 
L 225.966412 269.115429 
L 224.34003 267.984 
L 222.531876 266.852571 
L 221.087266 265.721143 
L 219.719192 264.589714 
L 219.068639 263.458286 
L 218.733795 262.326857 
L 218.016274 261.195429 
L 217.930171 260.064 
L 217.011744 258.932571 
L 216.485561 257.801143 
L 216.42816 256.669714 
L 216.33249 255.538286 
L 215.20359 254.406857 
L 215.136621 253.275429 
L 211.807321 252.144 
L 210.611452 251.012571 
L 209.999167 249.881143 
L 208.07621 248.749714 
L 207.779634 247.618286 
L 205.263526 246.486857 
L 204.211161 245.355429 
L 203.684979 244.224 
L 200.566152 243.092571 
L 200.489616 241.961143 
L 199.647724 240.829714 
L 198.681462 239.698286 
L 194.567672 238.566857 
L 192.81692 237.435429 
L 192.290738 236.304 
L 190.186008 235.172571 
L 189.80333 234.041143 
L 189.104942 232.909714 
L 188.951871 231.778286 
L 188.57876 230.646857 
L 186.493164 229.515429 
L 185.00072 228.384 
L 183.422172 227.252571 
L 183.230833 226.121143 
L 183.106463 224.989714 
L 182.034964 223.858286 
L 181.881893 222.726857 
L 181.719255 221.595429 
L 180.733859 220.464 
L 179.471021 219.332571 
L 178.906571 218.201143 
L 178.686531 217.069714 
L 178.007277 215.938286 
L 177.672434 214.806857 
L 177.509795 213.675429 
L 177.318456 212.544 
L 174.582308 211.412571 
L 173.998724 210.281143 
L 173.950889 209.149714 
L 172.908091 208.018286 
L 172.554114 206.886857 
L 171.893994 205.755429 
L 171.616553 204.624 
L 169.636193 203.492571 
L 169.215247 202.361143 
L 168.86127 201.229714 
L 167.29229 200.098286 
L 166.153822 198.966857 
L 165.465002 197.835429 
L 165.445868 196.704 
L 164.977087 195.572571 
L 164.74748 194.441143 
L 163.762084 193.309714 
L 161.035503 192.178286 
L 160.920699 191.046857 
L 160.853731 189.915429 
L 160.011839 188.784 
L 158.184551 187.652571 
L 157.84014 186.521143 
L 157.457462 185.389714 
L 157.304391 184.258286 
L 156.959981 183.126857 
L 156.462499 181.995429 
L 155.524938 180.864 
L 155.381433 179.732571 
L 154.807416 178.601143 
L 154.654345 176.338286 
L 153.362806 175.206857 
L 152.300875 174.075429 
L 152.138236 172.944 
L 149.421222 171.812571 
L 147.201689 170.681143 
L 146.072788 169.549714 
L 144.800384 168.418286 
L 144.293335 167.286857 
L 142.619118 166.155429 
L 141.499785 165.024 
L 140.686594 163.892571 
L 140.246514 162.761143 
L 138.811471 161.629714 
L 138.78277 160.498286 
L 138.715802 159.366857 
L 138.687101 158.235429 
L 138.6584 157.104 
L 137.098987 155.972571 
L 136.639773 154.841143 
L 136.343197 153.709714 
L 135.797881 152.578286 
L 135.20473 151.446857 
L 135.185596 150.315429 
L 134.850753 149.184 
L 134.707248 148.052571 
L 134.209767 146.921143 
L 133.597482 145.789714 
L 133.166969 144.658286 
L 133.013898 143.526857 
L 132.97563 142.395429 
L 132.889527 141.264 
L 132.497282 140.132571 
L 132.238975 139.001143 
L 132.114604 137.869714 
L 130.631726 136.738286 
L 130.258615 135.606857 
L 130.191647 134.475429 
L 130.095977 133.344 
L 129.321054 132.212571 
L 127.503333 131.081143 
L 127.493766 129.949714 
L 127.254592 128.818286 
L 126.336165 127.686857 
L 125.924786 126.555429 
L 125.542108 125.424 
L 125.035059 124.292571 
L 124.556711 123.161143 
L 123.96356 122.029714 
L 122.825093 120.898286 
L 122.059737 119.766857 
L 120.031543 118.635429 
L 119.7254 117.504 
L 119.495793 116.372571 
L 119.227919 115.241143 
L 119.151383 114.109714 
L 117.553702 112.978286 
L 117.515434 111.846857 
L 116.941417 110.715429 
L 116.472636 109.584 
L 116.176061 108.452571 
L 114.874955 107.321143 
L 112.703257 106.189714 
L 112.320579 105.058286 
L 111.832664 103.926857 
L 111.516955 102.795429 
L 111.239513 101.664 
L 110.005376 100.532571 
L 109.24002 99.401143 
L 108.876476 98.269714 
L 108.771239 97.138286 
L 108.493798 96.006857 
L 106.580407 96.006857 
L 106.341233 94.875429 
L 106.302965 93.744 
L 105.020994 92.612571 
L 104.78182 91.481143 
L 104.026031 90.349714 
L 103.413746 89.218286 
L 101.117677 88.086857 
L 101.079409 86.955429 
L 100.88807 86.955429 
L 99.673067 85.824 
L 98.017984 84.692571 
L 97.55877 83.561143 
L 97.520503 82.429714 
L 95.999357 81.298286 
L 95.779317 80.166857 
L 95.186166 79.035429 
L 94.32514 76.772571 
L 94.315573 75.641143 
L 93.349311 74.509714 
L 91.474188 73.378286 
L 91.053242 72.246857 
L 90.986274 71.115429 
L 88.17359 69.984 
L 87.130792 68.852571 
L 85.647914 67.721143 
L 83.830193 66.589714 
L 81.256683 65.458286 
L 78.223959 64.326857 
L 78.042187 63.195429 
L 78.013486 62.064 
L 77.783879 60.932571 
L 76.454072 60.932571 
L 76.157497 59.801143 
L 75.774819 58.669714 
L 73.832727 57.538286 
z
" clip-path="url(#p35fbdc1f8c)" style="fill: #7cfc00"/>
   </g>
   <g id="PolyCollection_3">
    <path d="M 73.832727 54.144 
L 73.832727 57.538286 
L 75.774819 58.669714 
L 76.157497 59.801143 
L 76.454072 60.932571 
L 77.783879 60.932571 
L 78.013486 62.064 
L 78.042187 63.195429 
L 78.223959 64.326857 
L 81.256683 65.458286 
L 83.830193 66.589714 
L 85.647914 67.721143 
L 87.130792 68.852571 
L 88.17359 69.984 
L 90.986274 71.115429 
L 91.053242 72.246857 
L 91.474188 73.378286 
L 93.349311 74.509714 
L 94.315573 75.641143 
L 94.32514 76.772571 
L 95.186166 79.035429 
L 95.779317 80.166857 
L 95.999357 81.298286 
L 97.520503 82.429714 
L 97.55877 83.561143 
L 98.017984 84.692571 
L 99.673067 85.824 
L 100.88807 86.955429 
L 101.079409 86.955429 
L 101.117677 88.086857 
L 103.413746 89.218286 
L 104.026031 90.349714 
L 104.78182 91.481143 
L 105.020994 92.612571 
L 106.302965 93.744 
L 106.341233 94.875429 
L 106.580407 96.006857 
L 108.493798 96.006857 
L 108.771239 97.138286 
L 108.876476 98.269714 
L 109.24002 99.401143 
L 110.005376 100.532571 
L 111.239513 101.664 
L 111.516955 102.795429 
L 111.832664 103.926857 
L 112.320579 105.058286 
L 112.703257 106.189714 
L 114.874955 107.321143 
L 116.176061 108.452571 
L 116.472636 109.584 
L 116.941417 110.715429 
L 117.515434 111.846857 
L 117.553702 112.978286 
L 119.151383 114.109714 
L 119.227919 115.241143 
L 119.495793 116.372571 
L 119.7254 117.504 
L 120.031543 118.635429 
L 122.059737 119.766857 
L 122.825093 120.898286 
L 123.96356 122.029714 
L 124.556711 123.161143 
L 125.035059 124.292571 
L 125.542108 125.424 
L 125.924786 126.555429 
L 126.336165 127.686857 
L 127.254592 128.818286 
L 127.493766 129.949714 
L 127.503333 131.081143 
L 129.321054 132.212571 
L 130.095977 133.344 
L 130.191647 134.475429 
L 130.258615 135.606857 
L 130.631726 136.738286 
L 132.114604 137.869714 
L 132.238975 139.001143 
L 132.497282 140.132571 
L 132.889527 141.264 
L 132.97563 142.395429 
L 133.013898 143.526857 
L 133.166969 144.658286 
L 133.597482 145.789714 
L 134.209767 146.921143 
L 134.707248 148.052571 
L 134.850753 149.184 
L 135.185596 150.315429 
L 135.20473 151.446857 
L 135.797881 152.578286 
L 136.343197 153.709714 
L 136.639773 154.841143 
L 137.098987 155.972571 
L 138.6584 157.104 
L 138.687101 158.235429 
L 138.715802 159.366857 
L 138.78277 160.498286 
L 138.811471 161.629714 
L 140.246514 162.761143 
L 140.686594 163.892571 
L 141.499785 165.024 
L 142.619118 166.155429 
L 144.293335 167.286857 
L 144.800384 168.418286 
L 146.072788 169.549714 
L 147.201689 170.681143 
L 149.421222 171.812571 
L 152.138236 172.944 
L 152.300875 174.075429 
L 153.362806 175.206857 
L 154.654345 176.338286 
L 154.807416 178.601143 
L 155.381433 179.732571 
L 155.524938 180.864 
L 156.462499 181.995429 
L 156.959981 183.126857 
L 157.304391 184.258286 
L 157.457462 185.389714 
L 157.84014 186.521143 
L 158.184551 187.652571 
L 160.011839 188.784 
L 160.853731 189.915429 
L 160.920699 191.046857 
L 161.035503 192.178286 
L 163.762084 193.309714 
L 164.74748 194.441143 
L 164.977087 195.572571 
L 165.445868 196.704 
L 165.465002 197.835429 
L 166.153822 198.966857 
L 167.29229 200.098286 
L 168.86127 201.229714 
L 169.215247 202.361143 
L 169.636193 203.492571 
L 171.616553 204.624 
L 171.893994 205.755429 
L 172.554114 206.886857 
L 172.908091 208.018286 
L 173.950889 209.149714 
L 173.998724 210.281143 
L 174.582308 211.412571 
L 177.318456 212.544 
L 177.509795 213.675429 
L 177.672434 214.806857 
L 178.007277 215.938286 
L 178.686531 217.069714 
L 178.906571 218.201143 
L 179.471021 219.332571 
L 180.733859 220.464 
L 181.719255 221.595429 
L 181.881893 222.726857 
L 182.034964 223.858286 
L 183.106463 224.989714 
L 183.230833 226.121143 
L 183.422172 227.252571 
L 185.00072 228.384 
L 186.493164 229.515429 
L 188.57876 230.646857 
L 188.951871 231.778286 
L 189.104942 232.909714 
L 189.80333 234.041143 
L 190.186008 235.172571 
L 192.290738 236.304 
L 192.81692 237.435429 
L 194.567672 238.566857 
L 198.681462 239.698286 
L 199.647724 240.829714 
L 200.489616 241.961143 
L 200.566152 243.092571 
L 203.684979 244.224 
L 204.211161 245.355429 
L 205.263526 246.486857 
L 207.779634 247.618286 
L 208.07621 248.749714 
L 209.999167 249.881143 
L 210.611452 251.012571 
L 211.807321 252.144 
L 215.136621 253.275429 
L 215.20359 254.406857 
L 216.33249 255.538286 
L 216.42816 256.669714 
L 216.485561 257.801143 
L 217.011744 258.932571 
L 217.930171 260.064 
L 218.016274 261.195429 
L 218.733795 262.326857 
L 219.068639 263.458286 
L 219.719192 264.589714 
L 221.087266 265.721143 
L 222.531876 266.852571 
L 224.34003 267.984 
L 225.966412 269.115429 
L 229.343546 270.246857 
L 230.281107 271.378286 
L 232.845051 272.509714 
L 234.768008 273.641143 
L 235.638601 274.772571 
L 236.069114 275.904 
L 236.576162 277.035429 
L 236.911006 278.166857 
L 238.336482 279.298286 
L 240.517747 280.429714 
L 248.066073 281.561143 
L 248.07564 282.692571 
L 250.409976 283.824 
L 252.419036 284.955429 
L 254.906444 286.086857 
L 256.083179 287.218286 
L 256.523259 288.349714 
L 261.966855 289.481143 
L 264.02375 290.612571 
L 264.128987 291.744 
L 268.032303 292.875429 
L 275.331889 294.006857 
L 275.456259 295.138286 
L 291.318267 296.269714 
L 303.009083 297.401143 
L 320.841883 298.532571 
L 326.562921 299.664 
L 332.5327 300.795429 
L 332.733606 301.926857 
L 338.004997 303.058286 
L 346.108206 304.189714 
L 370.618739 305.321143 
L 398.487273 306.452571 
L 398.487273 306.452571 
L 398.487273 306.452571 
L 370.618739 305.321143 
L 346.108206 304.189714 
L 338.004997 303.058286 
L 332.733606 301.926857 
L 332.5327 300.795429 
L 326.562921 299.664 
L 320.841883 298.532571 
L 303.009083 297.401143 
L 291.318267 296.269714 
L 275.456259 295.138286 
L 275.331889 294.006857 
L 268.032303 292.875429 
L 264.128987 291.744 
L 264.02375 290.612571 
L 261.966855 289.481143 
L 256.523259 288.349714 
L 256.083179 287.218286 
L 254.906444 286.086857 
L 252.419036 284.955429 
L 250.409976 283.824 
L 248.07564 282.692571 
L 248.066073 281.561143 
L 240.517747 280.429714 
L 238.336482 279.298286 
L 236.911006 278.166857 
L 236.576162 277.035429 
L 236.069114 275.904 
L 235.638601 274.772571 
L 234.768008 273.641143 
L 232.845051 272.509714 
L 230.281107 271.378286 
L 229.343546 270.246857 
L 225.966412 269.115429 
L 224.34003 267.984 
L 222.531876 266.852571 
L 221.087266 265.721143 
L 219.719192 264.589714 
L 219.068639 263.458286 
L 218.733795 262.326857 
L 218.016274 261.195429 
L 217.930171 260.064 
L 217.011744 258.932571 
L 216.485561 257.801143 
L 216.42816 256.669714 
L 216.33249 255.538286 
L 215.20359 254.406857 
L 215.136621 253.275429 
L 211.807321 252.144 
L 210.611452 251.012571 
L 209.999167 249.881143 
L 208.07621 248.749714 
L 207.779634 247.618286 
L 205.263526 246.486857 
L 204.211161 245.355429 
L 203.684979 244.224 
L 200.566152 243.092571 
L 200.489616 241.961143 
L 199.647724 240.829714 
L 198.681462 239.698286 
L 194.567672 238.566857 
L 192.81692 237.435429 
L 192.290738 236.304 
L 190.186008 235.172571 
L 189.80333 234.041143 
L 189.104942 232.909714 
L 188.951871 231.778286 
L 188.57876 230.646857 
L 186.493164 229.515429 
L 185.00072 228.384 
L 183.422172 227.252571 
L 183.230833 226.121143 
L 183.106463 224.989714 
L 182.034964 223.858286 
L 181.881893 222.726857 
L 181.719255 221.595429 
L 180.733859 220.464 
L 179.471021 219.332571 
L 178.906571 218.201143 
L 178.686531 217.069714 
L 178.007277 215.938286 
L 177.672434 214.806857 
L 177.509795 213.675429 
L 177.318456 212.544 
L 174.582308 211.412571 
L 173.998724 210.281143 
L 173.950889 209.149714 
L 172.908091 208.018286 
L 172.554114 206.886857 
L 171.893994 205.755429 
L 171.616553 204.624 
L 169.636193 203.492571 
L 169.215247 202.361143 
L 168.86127 201.229714 
L 167.29229 200.098286 
L 166.153822 198.966857 
L 165.465002 197.835429 
L 165.445868 196.704 
L 164.977087 195.572571 
L 164.74748 194.441143 
L 163.762084 193.309714 
L 161.035503 192.178286 
L 160.920699 191.046857 
L 160.853731 189.915429 
L 160.011839 188.784 
L 158.184551 187.652571 
L 157.84014 186.521143 
L 157.457462 185.389714 
L 157.304391 184.258286 
L 156.959981 183.126857 
L 156.462499 181.995429 
L 155.524938 180.864 
L 155.381433 179.732571 
L 154.807416 178.601143 
L 154.654345 176.338286 
L 153.362806 175.206857 
L 152.300875 174.075429 
L 152.138236 172.944 
L 149.421222 171.812571 
L 147.201689 170.681143 
L 146.072788 169.549714 
L 144.800384 168.418286 
L 144.293335 167.286857 
L 142.619118 166.155429 
L 141.499785 165.024 
L 140.686594 163.892571 
L 140.246514 162.761143 
L 138.811471 161.629714 
L 138.78277 160.498286 
L 138.715802 159.366857 
L 138.687101 158.235429 
L 138.6584 157.104 
L 137.098987 155.972571 
L 136.639773 154.841143 
L 136.343197 153.709714 
L 135.797881 152.578286 
L 135.20473 151.446857 
L 135.185596 150.315429 
L 134.850753 149.184 
L 134.707248 148.052571 
L 134.209767 146.921143 
L 133.597482 145.789714 
L 133.166969 144.658286 
L 133.013898 143.526857 
L 132.97563 142.395429 
L 132.889527 141.264 
L 132.497282 140.132571 
L 132.238975 139.001143 
L 132.114604 137.869714 
L 130.631726 136.738286 
L 130.258615 135.606857 
L 130.191647 134.475429 
L 130.095977 133.344 
L 129.321054 132.212571 
L 127.503333 131.081143 
L 127.493766 129.949714 
L 127.254592 128.818286 
L 126.336165 127.686857 
L 125.924786 126.555429 
L 125.542108 125.424 
L 125.035059 124.292571 
L 124.556711 123.161143 
L 123.96356 122.029714 
L 122.825093 120.898286 
L 122.059737 119.766857 
L 120.031543 118.635429 
L 119.7254 117.504 
L 119.495793 116.372571 
L 119.227919 115.241143 
L 119.151383 114.109714 
L 117.553702 112.978286 
L 117.515434 111.846857 
L 116.941417 110.715429 
L 116.472636 109.584 
L 116.176061 108.452571 
L 114.874955 107.321143 
L 112.703257 106.189714 
L 112.320579 105.058286 
L 111.832664 103.926857 
L 111.516955 102.795429 
L 111.239513 101.664 
L 110.005376 100.532571 
L 109.24002 99.401143 
L 108.876476 98.269714 
L 108.771239 97.138286 
L 108.493798 96.006857 
L 106.580407 94.875429 
L 106.341233 93.744 
L 106.302965 92.612571 
L 105.020994 91.481143 
L 104.78182 90.349714 
L 104.026031 89.218286 
L 103.413746 88.086857 
L 101.117677 86.955429 
L 101.079409 85.824 
L 100.88807 84.692571 
L 99.673067 83.561143 
L 98.017984 82.429714 
L 97.55877 81.298286 
L 97.520503 80.166857 
L 95.999357 79.035429 
L 95.779317 77.904 
L 95.186166 76.772571 
L 94.32514 74.509714 
L 94.315573 73.378286 
L 93.349311 72.246857 
L 91.474188 71.115429 
L 91.053242 69.984 
L 90.986274 68.852571 
L 88.17359 67.721143 
L 87.130792 66.589714 
L 85.647914 65.458286 
L 83.830193 64.326857 
L 81.256683 63.195429 
L 78.223959 62.064 
L 78.042187 60.932571 
L 78.013486 59.801143 
L 77.783879 58.669714 
L 76.454072 57.538286 
L 76.157497 56.406857 
L 75.774819 55.275429 
L 73.832727 54.144 
z
" clip-path="url(#p35fbdc1f8c)" style="fill: #ff0000"/>
   </g>
   <g id="matplotlib.axis_1">
    <g id="xtick_1">
     <g id="line2d_1">
      <defs>
       <path id="ma4751183e4" d="M 0 0 
L 0 3.5 
" style="stroke: #000000; stroke-width: 0.8"/>
      </defs>
      <g>
       <use xlink:href="#ma4751183e4" x="65.633849" y="307.584" style="stroke: #000000; stroke-width: 0.8"/>
      </g>
     </g>
     <g id="text_1">
      <!-- 10 -->
      <g transform="translate(59.271349 322.182437) scale(0.1 -0.1)">
       <defs>
        <path id="DejaVuSans-31" d="M 794 531 
L 1825 531 
L 1825 4091 
L 703 3866 
L 703 4441 
L 1819 4666 
L 2450 4666 
L 2450 531 
L 3481 531 
L 3481 0 
L 794 0 
L 794 531 
z
" transform="scale(0.015625)"/>
        <path id="DejaVuSans-30" d="M 2034 4250 
Q 1547 4250 1301 3770 
Q 1056 3291 1056 2328 
Q 1056 1369 1301 889 
Q 1547 409 2034 409 
Q 2525 409 2770 889 
Q 3016 1369 3016 2328 
Q 3016 3291 2770 3770 
Q 2525 4250 2034 4250 
z
M 2034 4750 
Q 2819 4750 3233 4129 
Q 3647 3509 3647 2328 
Q 3647 1150 3233 529 
Q 2819 -91 2034 -91 
Q 1250 -91 836 529 
Q 422 1150 422 2328 
Q 422 3509 836 4129 
Q 1250 4750 2034 4750 
z
" transform="scale(0.015625)"/>
       </defs>
       <use xlink:href="#DejaVuSans-31"/>
       <use xlink:href="#DejaVuSans-30" x="63.623047"/>
      </g>
     </g>
    </g>
    <g id="xtick_2">
     <g id="line2d_2">
      <g>
       <use xlink:href="#ma4751183e4" x="113.468613" y="307.584" style="stroke: #000000; stroke-width: 0.8"/>
      </g>
     </g>
     <g id="text_2">
      <!-- 15 -->
      <g transform="translate(107.106113 322.182437) scale(0.1 -0.1)">
       <defs>
        <path id="DejaVuSans-35" d="M 691 4666 
L 3169 4666 
L 3169 4134 
L 1269 4134 
L 1269 2991 
Q 1406 3038 1543 3061 
Q 1681 3084 1819 3084 
Q 2600 3084 3056 2656 
Q 3513 2228 3513 1497 
Q 3513 744 3044 326 
Q 2575 -91 1722 -91 
Q 1428 -91 1123 -41 
Q 819 9 494 109 
L 494 744 
Q 775 591 1075 516 
Q 1375 441 1709 441 
Q 2250 441 2565 725 
Q 2881 1009 2881 1497 
Q 2881 1984 2565 2268 
Q 2250 2553 1709 2553 
Q 1456 2553 1204 2497 
Q 953 2441 691 2322 
L 691 4666 
z
" transform="scale(0.015625)"/>
       </defs>
       <use xlink:href="#DejaVuSans-31"/>
       <use xlink:href="#DejaVuSans-35" x="63.623047"/>
      </g>
     </g>
    </g>
    <g id="xtick_3">
     <g id="line2d_3">
      <g>
       <use xlink:href="#ma4751183e4" x="161.303377" y="307.584" style="stroke: #000000; stroke-width: 0.8"/>
      </g>
     </g>
     <g id="text_3">
      <!-- 20 -->
      <g transform="translate(154.940877 322.182437) scale(0.1 -0.1)">
       <defs>
        <path id="DejaVuSans-32" d="M 1228 531 
L 3431 531 
L 3431 0 
L 469 0 
L 469 531 
Q 828 903 1448 1529 
Q 2069 2156 2228 2338 
Q 2531 2678 2651 2914 
Q 2772 3150 2772 3378 
Q 2772 3750 2511 3984 
Q 2250 4219 1831 4219 
Q 1534 4219 1204 4116 
Q 875 4013 500 3803 
L 500 4441 
Q 881 4594 1212 4672 
Q 1544 4750 1819 4750 
Q 2544 4750 2975 4387 
Q 3406 4025 3406 3419 
Q 3406 3131 3298 2873 
Q 3191 2616 2906 2266 
Q 2828 2175 2409 1742 
Q 1991 1309 1228 531 
z
" transform="scale(0.015625)"/>
       </defs>
       <use xlink:href="#DejaVuSans-32"/>
       <use xlink:href="#DejaVuSans-30" x="63.623047"/>
      </g>
     </g>
    </g>
    <g id="xtick_4">
     <g id="line2d_4">
      <g>
       <use xlink:href="#ma4751183e4" x="209.138142" y="307.584" style="stroke: #000000; stroke-width: 0.8"/>
      </g>
     </g>
     <g id="text_4">
      <!-- 25 -->
      <g transform="translate(202.775642 322.182437) scale(0.1 -0.1)">
       <use xlink:href="#DejaVuSans-32"/>
       <use xlink:href="#DejaVuSans-35" x="63.623047"/>
      </g>
     </g>
    </g>
    <g id="xtick_5">
     <g id="line2d_5">
      <g>
       <use xlink:href="#ma4751183e4" x="256.972906" y="307.584" style="stroke: #000000; stroke-width: 0.8"/>
      </g>
     </g>
     <g id="text_5">
      <!-- 30 -->
      <g transform="translate(250.610406 322.182437) scale(0.1 -0.1)">
       <defs>
        <path id="DejaVuSans-33" d="M 2597 2516 
Q 3050 2419 3304 2112 
Q 3559 1806 3559 1356 
Q 3559 666 3084 287 
Q 2609 -91 1734 -91 
Q 1441 -91 1130 -33 
Q 819 25 488 141 
L 488 750 
Q 750 597 1062 519 
Q 1375 441 1716 441 
Q 2309 441 2620 675 
Q 2931 909 2931 1356 
Q 2931 1769 2642 2001 
Q 2353 2234 1838 2234 
L 1294 2234 
L 1294 2753 
L 1863 2753 
Q 2328 2753 2575 2939 
Q 2822 3125 2822 3475 
Q 2822 3834 2567 4026 
Q 2313 4219 1838 4219 
Q 1578 4219 1281 4162 
Q 984 4106 628 3988 
L 628 4550 
Q 988 4650 1302 4700 
Q 1616 4750 1894 4750 
Q 2613 4750 3031 4423 
Q 3450 4097 3450 3541 
Q 3450 3153 3228 2886 
Q 3006 2619 2597 2516 
z
" transform="scale(0.015625)"/>
       </defs>
       <use xlink:href="#DejaVuSans-33"/>
       <use xlink:href="#DejaVuSans-30" x="63.623047"/>
      </g>
     </g>
    </g>
    <g id="xtick_6">
     <g id="line2d_6">
      <g>
       <use xlink:href="#ma4751183e4" x="304.80767" y="307.584" style="stroke: #000000; stroke-width: 0.8"/>
      </g>
     </g>
     <g id="text_6">
      <!-- 35 -->
      <g transform="translate(298.44517 322.182437) scale(0.1 -0.1)">
       <use xlink:href="#DejaVuSans-33"/>
       <use xlink:href="#DejaVuSans-35" x="63.623047"/>
      </g>
     </g>
    </g>
    <g id="xtick_7">
     <g id="line2d_7">
      <g>
       <use xlink:href="#ma4751183e4" x="352.642435" y="307.584" style="stroke: #000000; stroke-width: 0.8"/>
      </g>
     </g>
     <g id="text_7">
      <!-- 40 -->
      <g transform="translate(346.279935 322.182437) scale(0.1 -0.1)">
       <defs>
        <path id="DejaVuSans-34" d="M 2419 4116 
L 825 1625 
L 2419 1625 
L 2419 4116 
z
M 2253 4666 
L 3047 4666 
L 3047 1625 
L 3713 1625 
L 3713 1100 
L 3047 1100 
L 3047 0 
L 2419 0 
L 2419 1100 
L 313 1100 
L 313 1709 
L 2253 4666 
z
" transform="scale(0.015625)"/>
       </defs>
       <use xlink:href="#DejaVuSans-34"/>
       <use xlink:href="#DejaVuSans-30" x="63.623047"/>
      </g>
     </g>
    </g>
    <g id="xtick_8">
     <g id="line2d_8">
      <g>
       <use xlink:href="#ma4751183e4" x="400.477199" y="307.584" style="stroke: #000000; stroke-width: 0.8"/>
      </g>
     </g>
     <g id="text_8">
      <!-- 45 -->
      <g transform="translate(394.114699 322.182437) scale(0.1 -0.1)">
       <use xlink:href="#DejaVuSans-34"/>
       <use xlink:href="#DejaVuSans-35" x="63.623047"/>
      </g>
     </g>
    </g>
    <g id="text_9">
     <!-- Score -->
     <g transform="translate(222.157656 335.860562) scale(0.1 -0.1)">
      <defs>
       <path id="DejaVuSans-53" d="M 3425 4513 
L 3425 3897 
Q 3066 4069 2747 4153 
Q 2428 4238 2131 4238 
Q 1616 4238 1336 4038 
Q 1056 3838 1056 3469 
Q 1056 3159 1242 3001 
Q 1428 2844 1947 2747 
L 2328 2669 
Q 3034 2534 3370 2195 
Q 3706 1856 3706 1288 
Q 3706 609 3251 259 
Q 2797 -91 1919 -91 
Q 1588 -91 1214 -16 
Q 841 59 441 206 
L 441 856 
Q 825 641 1194 531 
Q 1563 422 1919 422 
Q 2459 422 2753 634 
Q 3047 847 3047 1241 
Q 3047 1584 2836 1778 
Q 2625 1972 2144 2069 
L 1759 2144 
Q 1053 2284 737 2584 
Q 422 2884 422 3419 
Q 422 4038 858 4394 
Q 1294 4750 2059 4750 
Q 2388 4750 2728 4690 
Q 3069 4631 3425 4513 
z
" transform="scale(0.015625)"/>
       <path id="DejaVuSans-63" d="M 3122 3366 
L 3122 2828 
Q 2878 2963 2633 3030 
Q 2388 3097 2138 3097 
Q 1578 3097 1268 2742 
Q 959 2388 959 1747 
Q 959 1106 1268 751 
Q 1578 397 2138 397 
Q 2388 397 2633 464 
Q 2878 531 3122 666 
L 3122 134 
Q 2881 22 2623 -34 
Q 2366 -91 2075 -91 
Q 1284 -91 818 406 
Q 353 903 353 1747 
Q 353 2603 823 3093 
Q 1294 3584 2113 3584 
Q 2378 3584 2631 3529 
Q 2884 3475 3122 3366 
z
" transform="scale(0.015625)"/>
       <path id="DejaVuSans-6f" d="M 1959 3097 
Q 1497 3097 1228 2736 
Q 959 2375 959 1747 
Q 959 1119 1226 758 
Q 1494 397 1959 397 
Q 2419 397 2687 759 
Q 2956 1122 2956 1747 
Q 2956 2369 2687 2733 
Q 2419 3097 1959 3097 
z
M 1959 3584 
Q 2709 3584 3137 3096 
Q 3566 2609 3566 1747 
Q 3566 888 3137 398 
Q 2709 -91 1959 -91 
Q 1206 -91 779 398 
Q 353 888 353 1747 
Q 353 2609 779 3096 
Q 1206 3584 1959 3584 
z
" transform="scale(0.015625)"/>
       <path id="DejaVuSans-72" d="M 2631 2963 
Q 2534 3019 2420 3045 
Q 2306 3072 2169 3072 
Q 1681 3072 1420 2755 
Q 1159 2438 1159 1844 
L 1159 0 
L 581 0 
L 581 3500 
L 1159 3500 
L 1159 2956 
Q 1341 3275 1631 3429 
Q 1922 3584 2338 3584 
Q 2397 3584 2469 3576 
Q 2541 3569 2628 3553 
L 2631 2963 
z
" transform="scale(0.015625)"/>
       <path id="DejaVuSans-65" d="M 3597 1894 
L 3597 1613 
L 953 1613 
Q 991 1019 1311 708 
Q 1631 397 2203 397 
Q 2534 397 2845 478 
Q 3156 559 3463 722 
L 3463 178 
Q 3153 47 2828 -22 
Q 2503 -91 2169 -91 
Q 1331 -91 842 396 
Q 353 884 353 1716 
Q 353 2575 817 3079 
Q 1281 3584 2069 3584 
Q 2775 3584 3186 3129 
Q 3597 2675 3597 1894 
z
M 3022 2063 
Q 3016 2534 2758 2815 
Q 2500 3097 2075 3097 
Q 1594 3097 1305 2825 
Q 1016 2553 972 2059 
L 3022 2063 
z
" transform="scale(0.015625)"/>
      </defs>
      <use xlink:href="#DejaVuSans-53"/>
      <use xlink:href="#DejaVuSans-63" x="63.476562"/>
      <use xlink:href="#DejaVuSans-6f" x="118.457031"/>
      <use xlink:href="#DejaVuSans-72" x="179.638672"/>
      <use xlink:href="#DejaVuSans-65" x="218.501953"/>
     </g>
    </g>
   </g>
   <g id="matplotlib.axis_2">
    <g id="ytick_1">
     <g id="line2d_9">
      <defs>
       <path id="m079d9d86f2" d="M 0 0 
L -3.5 0 
" style="stroke: #000000; stroke-width: 0.8"/>
      </defs>
      <g>
       <use xlink:href="#m079d9d86f2" x="57.6" y="307.584" style="stroke: #000000; stroke-width: 0.8"/>
      </g>
     </g>
     <g id="text_10">
      <!-- 0 -->
      <g transform="translate(44.2375 311.383219) scale(0.1 -0.1)">
       <use xlink:href="#DejaVuSans-30"/>
      </g>
     </g>
    </g>
    <g id="ytick_2">
     <g id="line2d_10">
      <g>
       <use xlink:href="#m079d9d86f2" x="57.6" y="251.012571" style="stroke: #000000; stroke-width: 0.8"/>
      </g>
     </g>
     <g id="text_11">
      <!-- 50 -->
      <g transform="translate(37.875 254.81179) scale(0.1 -0.1)">
       <use xlink:href="#DejaVuSans-35"/>
       <use xlink:href="#DejaVuSans-30" x="63.623047"/>
      </g>
     </g>
    </g>
    <g id="ytick_3">
     <g id="line2d_11">
      <g>
       <use xlink:href="#m079d9d86f2" x="57.6" y="194.441143" style="stroke: #000000; stroke-width: 0.8"/>
      </g>
     </g>
     <g id="text_12">
      <!-- 100 -->
      <g transform="translate(31.5125 198.240362) scale(0.1 -0.1)">
       <use xlink:href="#DejaVuSans-31"/>
       <use xlink:href="#DejaVuSans-30" x="63.623047"/>
       <use xlink:href="#DejaVuSans-30" x="127.246094"/>
      </g>
     </g>
    </g>
    <g id="ytick_4">
     <g id="line2d_12">
      <g>
       <use xlink:href="#m079d9d86f2" x="57.6" y="137.869714" style="stroke: #000000; stroke-width: 0.8"/>
      </g>
     </g>
     <g id="text_13">
      <!-- 150 -->
      <g transform="translate(31.5125 141.668933) scale(0.1 -0.1)">
       <use xlink:href="#DejaVuSans-31"/>
       <use xlink:href="#DejaVuSans-35" x="63.623047"/>
       <use xlink:href="#DejaVuSans-30" x="127.246094"/>
      </g>
     </g>
    </g>
    <g id="ytick_5">
     <g id="line2d_13">
      <g>
       <use xlink:href="#m079d9d86f2" x="57.6" y="81.298286" style="stroke: #000000; stroke-width: 0.8"/>
      </g>
     </g>
     <g id="text_14">
      <!-- 200 -->
      <g transform="translate(31.5125 85.097504) scale(0.1 -0.1)">
       <use xlink:href="#DejaVuSans-32"/>
       <use xlink:href="#DejaVuSans-30" x="63.623047"/>
       <use xlink:href="#DejaVuSans-30" x="127.246094"/>
      </g>
     </g>
    </g>
    <g id="text_15">
     <!-- Number of crosslinks -->
     <g transform="translate(25.432812 227.019406) rotate(-90) scale(0.1 -0.1)">
      <defs>
       <path id="DejaVuSans-4e" d="M 628 4666 
L 1478 4666 
L 3547 763 
L 3547 4666 
L 4159 4666 
L 4159 0 
L 3309 0 
L 1241 3903 
L 1241 0 
L 628 0 
L 628 4666 
z
" transform="scale(0.015625)"/>
       <path id="DejaVuSans-75" d="M 544 1381 
L 544 3500 
L 1119 3500 
L 1119 1403 
Q 1119 906 1312 657 
Q 1506 409 1894 409 
Q 2359 409 2629 706 
Q 2900 1003 2900 1516 
L 2900 3500 
L 3475 3500 
L 3475 0 
L 2900 0 
L 2900 538 
Q 2691 219 2414 64 
Q 2138 -91 1772 -91 
Q 1169 -91 856 284 
Q 544 659 544 1381 
z
M 1991 3584 
L 1991 3584 
z
" transform="scale(0.015625)"/>
       <path id="DejaVuSans-6d" d="M 3328 2828 
Q 3544 3216 3844 3400 
Q 4144 3584 4550 3584 
Q 5097 3584 5394 3201 
Q 5691 2819 5691 2113 
L 5691 0 
L 5113 0 
L 5113 2094 
Q 5113 2597 4934 2840 
Q 4756 3084 4391 3084 
Q 3944 3084 3684 2787 
Q 3425 2491 3425 1978 
L 3425 0 
L 2847 0 
L 2847 2094 
Q 2847 2600 2669 2842 
Q 2491 3084 2119 3084 
Q 1678 3084 1418 2786 
Q 1159 2488 1159 1978 
L 1159 0 
L 581 0 
L 581 3500 
L 1159 3500 
L 1159 2956 
Q 1356 3278 1631 3431 
Q 1906 3584 2284 3584 
Q 2666 3584 2933 3390 
Q 3200 3197 3328 2828 
z
" transform="scale(0.015625)"/>
       <path id="DejaVuSans-62" d="M 3116 1747 
Q 3116 2381 2855 2742 
Q 2594 3103 2138 3103 
Q 1681 3103 1420 2742 
Q 1159 2381 1159 1747 
Q 1159 1113 1420 752 
Q 1681 391 2138 391 
Q 2594 391 2855 752 
Q 3116 1113 3116 1747 
z
M 1159 2969 
Q 1341 3281 1617 3432 
Q 1894 3584 2278 3584 
Q 2916 3584 3314 3078 
Q 3713 2572 3713 1747 
Q 3713 922 3314 415 
Q 2916 -91 2278 -91 
Q 1894 -91 1617 61 
Q 1341 213 1159 525 
L 1159 0 
L 581 0 
L 581 4863 
L 1159 4863 
L 1159 2969 
z
" transform="scale(0.015625)"/>
       <path id="DejaVuSans-20" transform="scale(0.015625)"/>
       <path id="DejaVuSans-66" d="M 2375 4863 
L 2375 4384 
L 1825 4384 
Q 1516 4384 1395 4259 
Q 1275 4134 1275 3809 
L 1275 3500 
L 2222 3500 
L 2222 3053 
L 1275 3053 
L 1275 0 
L 697 0 
L 697 3053 
L 147 3053 
L 147 3500 
L 697 3500 
L 697 3744 
Q 697 4328 969 4595 
Q 1241 4863 1831 4863 
L 2375 4863 
z
" transform="scale(0.015625)"/>
       <path id="DejaVuSans-73" d="M 2834 3397 
L 2834 2853 
Q 2591 2978 2328 3040 
Q 2066 3103 1784 3103 
Q 1356 3103 1142 2972 
Q 928 2841 928 2578 
Q 928 2378 1081 2264 
Q 1234 2150 1697 2047 
L 1894 2003 
Q 2506 1872 2764 1633 
Q 3022 1394 3022 966 
Q 3022 478 2636 193 
Q 2250 -91 1575 -91 
Q 1294 -91 989 -36 
Q 684 19 347 128 
L 347 722 
Q 666 556 975 473 
Q 1284 391 1588 391 
Q 1994 391 2212 530 
Q 2431 669 2431 922 
Q 2431 1156 2273 1281 
Q 2116 1406 1581 1522 
L 1381 1569 
Q 847 1681 609 1914 
Q 372 2147 372 2553 
Q 372 3047 722 3315 
Q 1072 3584 1716 3584 
Q 2034 3584 2315 3537 
Q 2597 3491 2834 3397 
z
" transform="scale(0.015625)"/>
       <path id="DejaVuSans-6c" d="M 603 4863 
L 1178 4863 
L 1178 0 
L 603 0 
L 603 4863 
z
" transform="scale(0.015625)"/>
       <path id="DejaVuSans-69" d="M 603 3500 
L 1178 3500 
L 1178 0 
L 603 0 
L 603 3500 
z
M 603 4863 
L 1178 4863 
L 1178 4134 
L 603 4134 
L 603 4863 
z
" transform="scale(0.015625)"/>
       <path id="DejaVuSans-6e" d="M 3513 2113 
L 3513 0 
L 2938 0 
L 2938 2094 
Q 2938 2591 2744 2837 
Q 2550 3084 2163 3084 
Q 1697 3084 1428 2787 
Q 1159 2491 1159 1978 
L 1159 0 
L 581 0 
L 581 3500 
L 1159 3500 
L 1159 2956 
Q 1366 3272 1645 3428 
Q 1925 3584 2291 3584 
Q 2894 3584 3203 3211 
Q 3513 2838 3513 2113 
z
" transform="scale(0.015625)"/>
       <path id="DejaVuSans-6b" d="M 581 4863 
L 1159 4863 
L 1159 1991 
L 2875 3500 
L 3609 3500 
L 1753 1863 
L 3688 0 
L 2938 0 
L 1159 1709 
L 1159 0 
L 581 0 
L 581 4863 
z
" transform="scale(0.015625)"/>
      </defs>
      <use xlink:href="#DejaVuSans-4e"/>
      <use xlink:href="#DejaVuSans-75" x="74.804688"/>
      <use xlink:href="#DejaVuSans-6d" x="138.183594"/>
      <use xlink:href="#DejaVuSans-62" x="235.595703"/>
      <use xlink:href="#DejaVuSans-65" x="299.072266"/>
      <use xlink:href="#DejaVuSans-72" x="360.595703"/>
      <use xlink:href="#DejaVuSans-20" x="401.708984"/>
      <use xlink:href="#DejaVuSans-6f" x="433.496094"/>
      <use xlink:href="#DejaVuSans-66" x="494.677734"/>
      <use xlink:href="#DejaVuSans-20" x="529.882812"/>
      <use xlink:href="#DejaVuSans-63" x="561.669922"/>
      <use xlink:href="#DejaVuSans-72" x="616.650391"/>
      <use xlink:href="#DejaVuSans-6f" x="655.513672"/>
      <use xlink:href="#DejaVuSans-73" x="716.695312"/>
      <use xlink:href="#DejaVuSans-73" x="768.794922"/>
      <use xlink:href="#DejaVuSans-6c" x="820.894531"/>
      <use xlink:href="#DejaVuSans-69" x="848.677734"/>
      <use xlink:href="#DejaVuSans-6e" x="876.460938"/>
      <use xlink:href="#DejaVuSans-6b" x="939.839844"/>
      <use xlink:href="#DejaVuSans-73" x="997.75"/>
     </g>
    </g>
   </g>
   <g id="patch_3">
    <path d="M 57.6 307.584 
L 57.6 41.472 
" style="fill: none; stroke: #000000; stroke-width: 0.8; stroke-linejoin: miter; stroke-linecap: square"/>
   </g>
   <g id="patch_4">
    <path d="M 414.72 307.584 
L 414.72 41.472 
" style="fill: none; stroke: #000000; stroke-width: 0.8; stroke-linejoin: miter; stroke-linecap: square"/>
   </g>
   <g id="patch_5">
    <path d="M 57.6 307.584 
L 414.72 307.584 
" style="fill: none; stroke: #000000; stroke-width: 0.8; stroke-linejoin: miter; stroke-linecap: square"/>
   </g>
   <g id="patch_6">
    <path d="M 57.6 41.472 
L 414.72 41.472 
" style="fill: none; stroke: #000000; stroke-width: 0.8; stroke-linejoin: miter; stroke-linecap: square"/>
   </g>
   <g id="legend_1">
    <g id="patch_7">
     <path d="M 293.087188 93.506375 
L 407.72 93.506375 
Q 409.72 93.506375 409.72 91.506375 
L 409.72 48.472 
Q 409.72 46.472 407.72 46.472 
L 293.087188 46.472 
Q 291.087188 46.472 291.087188 48.472 
L 291.087188 91.506375 
Q 291.087188 93.506375 293.087188 93.506375 
z
" style="fill: #ffffff; opacity: 0.8; stroke: #cccccc; stroke-linejoin: miter"/>
    </g>
    <g id="patch_8">
     <path d="M 295.087188 58.070438 
L 315.087188 58.070438 
L 315.087188 51.070438 
L 295.087188 51.070438 
z
" style="fill: #008000"/>
    </g>
    <g id="text_16">
     <!-- true -->
     <g transform="translate(323.087188 58.070438) scale(0.1 -0.1)">
      <defs>
       <path id="DejaVuSans-74" d="M 1172 4494 
L 1172 3500 
L 2356 3500 
L 2356 3053 
L 1172 3053 
L 1172 1153 
Q 1172 725 1289 603 
Q 1406 481 1766 481 
L 2356 481 
L 2356 0 
L 1766 0 
Q 1100 0 847 248 
Q 594 497 594 1153 
L 594 3053 
L 172 3053 
L 172 3500 
L 594 3500 
L 594 4494 
L 1172 4494 
z
" transform="scale(0.015625)"/>
      </defs>
      <use xlink:href="#DejaVuSans-74"/>
      <use xlink:href="#DejaVuSans-72" x="39.208984"/>
      <use xlink:href="#DejaVuSans-75" x="80.322266"/>
      <use xlink:href="#DejaVuSans-65" x="143.701172"/>
     </g>
    </g>
    <g id="patch_9">
     <path d="M 295.087188 72.748563 
L 315.087188 72.748563 
L 315.087188 65.748563 
L 295.087188 65.748563 
z
" style="fill: #7cfc00"/>
    </g>
    <g id="text_17">
     <!-- true homeotypic -->
     <g transform="translate(323.087188 72.748563) scale(0.1 -0.1)">
      <defs>
       <path id="DejaVuSans-68" d="M 3513 2113 
L 3513 0 
L 2938 0 
L 2938 2094 
Q 2938 2591 2744 2837 
Q 2550 3084 2163 3084 
Q 1697 3084 1428 2787 
Q 1159 2491 1159 1978 
L 1159 0 
L 581 0 
L 581 4863 
L 1159 4863 
L 1159 2956 
Q 1366 3272 1645 3428 
Q 1925 3584 2291 3584 
Q 2894 3584 3203 3211 
Q 3513 2838 3513 2113 
z
" transform="scale(0.015625)"/>
       <path id="DejaVuSans-79" d="M 2059 -325 
Q 1816 -950 1584 -1140 
Q 1353 -1331 966 -1331 
L 506 -1331 
L 506 -850 
L 844 -850 
Q 1081 -850 1212 -737 
Q 1344 -625 1503 -206 
L 1606 56 
L 191 3500 
L 800 3500 
L 1894 763 
L 2988 3500 
L 3597 3500 
L 2059 -325 
z
" transform="scale(0.015625)"/>
       <path id="DejaVuSans-70" d="M 1159 525 
L 1159 -1331 
L 581 -1331 
L 581 3500 
L 1159 3500 
L 1159 2969 
Q 1341 3281 1617 3432 
Q 1894 3584 2278 3584 
Q 2916 3584 3314 3078 
Q 3713 2572 3713 1747 
Q 3713 922 3314 415 
Q 2916 -91 2278 -91 
Q 1894 -91 1617 61 
Q 1341 213 1159 525 
z
M 3116 1747 
Q 3116 2381 2855 2742 
Q 2594 3103 2138 3103 
Q 1681 3103 1420 2742 
Q 1159 2381 1159 1747 
Q 1159 1113 1420 752 
Q 1681 391 2138 391 
Q 2594 391 2855 752 
Q 3116 1113 3116 1747 
z
" transform="scale(0.015625)"/>
      </defs>
      <use xlink:href="#DejaVuSans-74"/>
      <use xlink:href="#DejaVuSans-72" x="39.208984"/>
      <use xlink:href="#DejaVuSans-75" x="80.322266"/>
      <use xlink:href="#DejaVuSans-65" x="143.701172"/>
      <use xlink:href="#DejaVuSans-20" x="205.224609"/>
      <use xlink:href="#DejaVuSans-68" x="237.011719"/>
      <use xlink:href="#DejaVuSans-6f" x="300.390625"/>
      <use xlink:href="#DejaVuSans-6d" x="361.572266"/>
      <use xlink:href="#DejaVuSans-65" x="458.984375"/>
      <use xlink:href="#DejaVuSans-6f" x="520.507812"/>
      <use xlink:href="#DejaVuSans-74" x="581.689453"/>
      <use xlink:href="#DejaVuSans-79" x="620.898438"/>
      <use xlink:href="#DejaVuSans-70" x="680.078125"/>
      <use xlink:href="#DejaVuSans-69" x="743.554688"/>
      <use xlink:href="#DejaVuSans-63" x="771.337891"/>
     </g>
    </g>
    <g id="patch_10">
     <path d="M 295.087188 87.426688 
L 315.087188 87.426688 
L 315.087188 80.426688 
L 295.087188 80.426688 
z
" style="fill: #ff0000"/>
    </g>
    <g id="text_18">
     <!-- false -->
     <g transform="translate(323.087188 87.426688) scale(0.1 -0.1)">
      <defs>
       <path id="DejaVuSans-61" d="M 2194 1759 
Q 1497 1759 1228 1600 
Q 959 1441 959 1056 
Q 959 750 1161 570 
Q 1363 391 1709 391 
Q 2188 391 2477 730 
Q 2766 1069 2766 1631 
L 2766 1759 
L 2194 1759 
z
M 3341 1997 
L 3341 0 
L 2766 0 
L 2766 531 
Q 2569 213 2275 61 
Q 1981 -91 1556 -91 
Q 1019 -91 701 211 
Q 384 513 384 1019 
Q 384 1609 779 1909 
Q 1175 2209 1959 2209 
L 2766 2209 
L 2766 2266 
Q 2766 2663 2505 2880 
Q 2244 3097 1772 3097 
Q 1472 3097 1187 3025 
Q 903 2953 641 2809 
L 641 3341 
Q 956 3463 1253 3523 
Q 1550 3584 1831 3584 
Q 2591 3584 2966 3190 
Q 3341 2797 3341 1997 
z
" transform="scale(0.015625)"/>
      </defs>
      <use xlink:href="#DejaVuSans-66"/>
      <use xlink:href="#DejaVuSans-61" x="35.205078"/>
      <use xlink:href="#DejaVuSans-6c" x="96.484375"/>
      <use xlink:href="#DejaVuSans-73" x="124.267578"/>
      <use xlink:href="#DejaVuSans-65" x="176.367188"/>
     </g>
    </g>
   </g>
  </g>
 </g>
 <defs>
  <clipPath id="p35fbdc1f8c">
   <rect x="57.6" y="41.472" width="357.12" height="266.112"/>
  </clipPath>
 </defs>
</svg>
