<?xml version="1.0" encoding="utf-8" standalone="no"?>
<!DOCTYPE svg PUBLIC "-//W3C//DTD SVG 1.1//EN"
  "http://www.w3.org/Graphics/SVG/1.1/DTD/svg11.dtd">
<svg xmlns:xlink="http://www.w3.org/1999/xlink" width="460.8pt" height="345.6pt" viewBox="0 0 460.8 345.6" xmlns="http://www.w3.org/2000/svg" version="1.1">
 <metadata>
  <rdf:RDF xmlns:dc="http://purl.org/dc/elements/1.1/" xmlns:cc="http://creativecommons.org/ns#" xmlns:rdf="http://www.w3.org/1999/02/22-rdf-syntax-ns#">
   <cc:Work>
    <dc:type rdf:resource="http://purl.org/dc/dcmitype/StillImage"/>
    <dc:date>2024-06-28T18:43:56.946628</dc:date>
    <dc:format>image/svg+xml</dc:format>
    <dc:creator>
     <cc:Agent>
      <dc:title>Matplotlib v3.9.0, https://matplotlib.org/</dc:title>
     </cc:Agent>
    </dc:creator>
   </cc:Work>
  </rdf:RDF>
 </metadata>
 <defs>
  <style type="text/css">*{stroke-linejoin: round; stroke-linecap: butt}</style>
 </defs>
 <g id="figure_1">
  <g id="patch_1">
   <path d="M 0 345.6 
L 460.8 345.6 
L 460.8 0 
L 0 0 
z
" style="fill: #ffffff"/>
  </g>
  <g id="axes_1">
   <g id="patch_2">
    <path d="M 57.6 307.584 
L 414.72 307.584 
L 414.72 41.472 
L 57.6 41.472 
z
" style="fill: #ffffff"/>
   </g>
   <g id="PolyCollection_1">
    <path d="M 73.832727 104.832 
L 73.832727 307.584 
L 74.21947 307.584 
L 74.323995 307.584 
L 74.700284 307.584 
L 76.529471 307.584 
L 76.884856 307.584 
L 77.010286 307.584 
L 80.198298 307.584 
L 80.386443 307.584 
L 81.233095 307.584 
L 81.46305 307.584 
L 81.71391 307.584 
L 82.769612 307.584 
L 83.490834 307.584 
L 84.138889 307.584 
L 86.177126 307.584 
L 86.313008 307.584 
L 89.103825 307.584 
L 89.605545 307.584 
L 90.075907 307.584 
L 92.009619 307.584 
L 93.870163 307.584 
L 94.330073 307.584 
L 94.371883 307.584 
L 94.497313 307.584 
L 96.41012 307.584 
L 96.514645 307.584 
L 96.775957 307.584 
L 100.382069 307.584 
L 102.462116 307.584 
L 103.915013 307.584 
L 104.918452 307.584 
L 105.399267 307.584 
L 106.235467 307.584 
L 106.287729 307.584 
L 108.493206 307.584 
L 110.635968 307.584 
L 111.399 307.584 
L 113.510404 307.584 
L 114.628822 307.584 
L 114.837872 307.584 
L 115.611356 307.584 
L 116.039909 307.584 
L 116.458009 307.584 
L 117.545068 307.584 
L 118.109503 307.584 
L 118.329005 307.584 
L 119.18611 307.584 
L 119.970047 307.584 
L 121.590184 307.584 
L 121.767877 307.584 
L 121.799234 307.584 
L 122.886294 307.584 
L 123.879281 307.584 
L 124.213761 307.584 
L 124.527336 307.584 
L 124.652766 307.584 
L 126.26245 307.584 
L 127.318153 307.584 
L 127.527202 307.584 
L 127.746705 307.584 
L 128.028922 307.584 
L 128.237972 307.584 
L 129.042814 307.584 
L 129.586344 307.584 
L 131.948609 307.584 
L 132.920691 307.584 
L 133.276076 307.584 
L 134.352683 307.584 
L 135.241145 307.584 
L 135.63834 307.584 
L 138.742731 307.584 
L 138.930876 307.584 
L 139.767076 307.584 
L 139.976126 307.584 
L 140.185176 307.584 
L 141.50219 307.584 
L 141.826218 307.584 
L 141.83667 307.584 
L 142.29658 307.584 
L 142.651965 307.584 
L 143.71812 307.584 
L 143.937622 307.584 
L 144.042147 307.584 
L 144.355722 307.584 
L 145.212827 307.584 
L 146.728439 307.584 
L 147.481019 307.584 
L 147.773688 307.584 
L 149.027988 307.584 
L 149.728305 307.584 
L 149.895545 307.584 
L 150.45998 307.584 
L 152.874507 307.584 
L 153.459847 307.584 
L 154.755956 307.584 
L 156.365641 307.584 
L 156.700121 307.584 
L 157.82899 307.584 
L 159.33415 307.584 
L 159.532747 307.584 
L 160.379399 307.584 
L 160.515282 307.584 
L 160.807952 307.584 
L 161.058812 307.584 
L 161.278314 307.584 
L 161.341029 307.584 
L 161.414197 307.584 
L 161.612794 307.584 
L 162.208586 307.584 
L 162.616234 307.584 
L 163.431528 307.584 
L 163.462886 307.584 
L 163.536053 307.584 
L 164.309538 307.584 
L 164.602208 307.584 
L 165.250263 307.584 
L 165.260715 307.584 
L 165.459313 307.584 
L 166.692707 307.584 
L 168.730944 307.584 
L 170.696014 307.584 
L 170.905064 307.584 
L 171.082756 307.584 
L 173.204613 307.584 
L 174.594795 307.584 
L 174.65751 307.584 
L 175.169682 307.584 
L 175.211492 307.584 
L 175.681854 307.584 
L 176.518054 307.584 
L 177.019774 307.584 
L 177.187014 307.584 
L 177.301991 307.584 
L 177.887331 307.584 
L 179.037106 307.584 
L 179.361133 307.584 
L 182.758195 307.584 
L 183.876612 307.584 
L 184.033399 307.584 
L 184.336522 307.584 
L 184.723264 307.584 
L 185.214531 307.584 
L 187.472271 307.584 
L 189.040145 307.584 
L 189.615032 307.584 
L 190.14811 307.584 
L 190.388517 307.584 
L 190.451232 307.584 
L 190.994762 307.584 
L 191.02612 307.584 
L 191.872772 307.584 
L 192.144537 307.584 
L 192.980736 307.584 
L 193.649696 307.584 
L 194.318656 307.584 
L 194.945806 307.584 
L 195.029426 307.584 
L 196.43006 307.584 
L 196.910875 307.584 
L 197.694812 307.584 
L 199.022279 307.584 
L 199.555357 307.584 
L 199.618072 307.584 
L 199.816669 307.584 
L 200.778299 307.584 
L 201.112779 307.584 
L 202.074408 307.584 
L 202.304363 307.584 
L 204.321695 307.584 
L 206.255407 307.584 
L 206.527172 307.584 
L 207.352919 307.584 
L 209.506134 307.584 
L 210.729076 307.584 
L 213.3422 307.584 
L 215.505867 307.584 
L 215.913514 307.584 
L 216.467496 307.584 
L 217.335054 307.584 
L 217.794963 307.584 
L 219.937725 307.584 
L 223.052569 307.584 
L 223.982841 307.584 
L 224.704064 307.584 
L 226.094246 307.584 
L 226.156961 307.584 
L 228.58194 307.584 
L 228.686465 307.584 
L 229.188185 307.584 
L 233.191491 307.584 
L 234.205383 307.584 
L 238.396834 307.584 
L 241.041316 307.584 
L 242.086566 307.584 
L 244.898287 307.584 
L 248.483494 307.584 
L 249.675078 307.584 
L 255.988386 307.584 
L 257.085898 307.584 
L 257.995265 307.584 
L 258.30884 307.584 
L 261.570019 307.584 
L 263.566446 307.584 
L 263.639614 307.584 
L 264.434003 307.584 
L 264.758031 307.584 
L 271.322199 307.584 
L 275.116455 307.584 
L 275.618175 307.584 
L 276.684329 307.584 
L 279.391526 307.584 
L 284.544607 307.584 
L 289.143705 307.584 
L 293.418777 307.584 
L 294.411764 307.584 
L 319.894951 307.584 
L 331.100027 307.584 
L 338.813969 307.584 
L 342.064696 307.584 
L 348.325741 307.584 
L 387.020884 307.584 
L 393.804554 307.584 
L 398.487273 307.584 
L 398.487273 307.584 
L 398.487273 307.584 
L 393.804554 306.4576 
L 387.020884 306.4576 
L 348.325741 305.3312 
L 342.064696 304.2048 
L 338.813969 304.2048 
L 331.100027 303.0784 
L 319.894951 301.952 
L 294.411764 301.952 
L 293.418777 300.8256 
L 289.143705 299.6992 
L 284.544607 298.5728 
L 279.391526 298.5728 
L 276.684329 298.5728 
L 275.618175 297.4464 
L 275.116455 296.32 
L 271.322199 295.1936 
L 264.758031 294.0672 
L 264.434003 292.9408 
L 263.639614 292.9408 
L 263.566446 291.8144 
L 261.570019 290.688 
L 258.30884 290.688 
L 257.995265 289.5616 
L 257.085898 289.5616 
L 255.988386 289.5616 
L 249.675078 288.4352 
L 248.483494 287.3088 
L 244.898287 287.3088 
L 242.086566 286.1824 
L 241.041316 285.056 
L 238.396834 283.9296 
L 234.205383 282.8032 
L 233.191491 282.8032 
L 229.188185 281.6768 
L 228.686465 280.5504 
L 228.58194 279.424 
L 226.156961 278.2976 
L 226.094246 277.1712 
L 224.704064 277.1712 
L 223.982841 276.0448 
L 223.052569 274.9184 
L 219.937725 274.9184 
L 217.794963 274.9184 
L 217.335054 273.792 
L 216.467496 272.6656 
L 215.913514 272.6656 
L 215.505867 271.5392 
L 213.3422 270.4128 
L 210.729076 269.2864 
L 209.506134 268.16 
L 207.352919 268.16 
L 206.527172 267.0336 
L 206.255407 265.9072 
L 204.321695 264.7808 
L 202.304363 264.7808 
L 202.074408 263.6544 
L 201.112779 262.528 
L 200.778299 261.4016 
L 199.816669 260.2752 
L 199.618072 259.1488 
L 199.555357 258.0224 
L 199.022279 256.896 
L 197.694812 255.7696 
L 196.910875 255.7696 
L 196.43006 254.6432 
L 195.029426 253.5168 
L 194.945806 252.3904 
L 194.318656 251.264 
L 193.649696 251.264 
L 192.980736 250.1376 
L 192.144537 249.0112 
L 191.872772 247.8848 
L 191.02612 246.7584 
L 190.994762 245.632 
L 190.451232 244.5056 
L 190.388517 244.5056 
L 190.14811 243.3792 
L 189.615032 242.2528 
L 189.040145 241.1264 
L 187.472271 240 
L 185.214531 238.8736 
L 184.723264 237.7472 
L 184.336522 237.7472 
L 184.033399 237.7472 
L 183.876612 236.6208 
L 182.758195 235.4944 
L 179.361133 234.368 
L 179.037106 233.2416 
L 177.887331 233.2416 
L 177.301991 232.1152 
L 177.187014 230.9888 
L 177.019774 230.9888 
L 176.518054 229.8624 
L 175.681854 228.736 
L 175.211492 227.6096 
L 175.169682 226.4832 
L 174.65751 225.3568 
L 174.594795 224.2304 
L 173.204613 223.104 
L 171.082756 221.9776 
L 170.905064 220.8512 
L 170.696014 219.7248 
L 168.730944 218.5984 
L 166.692707 217.472 
L 165.459313 216.3456 
L 165.260715 216.3456 
L 165.250263 215.2192 
L 164.602208 214.0928 
L 164.309538 214.0928 
L 163.536053 212.9664 
L 163.462886 211.84 
L 163.431528 210.7136 
L 162.616234 209.5872 
L 162.208586 208.4608 
L 161.612794 207.3344 
L 161.414197 206.208 
L 161.341029 205.0816 
L 161.278314 203.9552 
L 161.058812 203.9552 
L 160.807952 202.8288 
L 160.515282 201.7024 
L 160.379399 200.576 
L 159.532747 199.4496 
L 159.33415 198.3232 
L 157.82899 197.1968 
L 156.700121 196.0704 
L 156.365641 194.944 
L 154.755956 193.8176 
L 153.459847 192.6912 
L 152.874507 191.5648 
L 150.45998 190.4384 
L 149.895545 190.4384 
L 149.728305 189.312 
L 149.027988 188.1856 
L 147.773688 187.0592 
L 147.481019 185.9328 
L 146.728439 184.8064 
L 145.212827 183.68 
L 144.355722 182.5536 
L 144.042147 181.4272 
L 143.937622 180.3008 
L 143.71812 179.1744 
L 142.651965 178.048 
L 142.29658 178.048 
L 141.83667 176.9216 
L 141.826218 175.7952 
L 141.50219 174.6688 
L 140.185176 173.5424 
L 139.976126 172.416 
L 139.767076 171.2896 
L 138.930876 170.1632 
L 138.742731 169.0368 
L 135.63834 167.9104 
L 135.241145 167.9104 
L 134.352683 166.784 
L 133.276076 165.6576 
L 132.920691 164.5312 
L 131.948609 163.4048 
L 129.586344 163.4048 
L 129.042814 162.2784 
L 128.237972 161.152 
L 128.028922 160.0256 
L 127.746705 158.8992 
L 127.527202 157.7728 
L 127.318153 156.6464 
L 126.26245 155.52 
L 124.652766 154.3936 
L 124.527336 153.2672 
L 124.213761 152.1408 
L 123.879281 151.0144 
L 122.886294 149.888 
L 121.799234 148.7616 
L 121.767877 147.6352 
L 121.590184 146.5088 
L 119.970047 145.3824 
L 119.18611 144.256 
L 118.329005 143.1296 
L 118.109503 142.0032 
L 117.545068 140.8768 
L 116.458009 139.7504 
L 116.039909 139.7504 
L 115.611356 138.624 
L 114.837872 137.4976 
L 114.628822 136.3712 
L 113.510404 135.2448 
L 111.399 134.1184 
L 110.635968 132.992 
L 108.493206 131.8656 
L 106.287729 130.7392 
L 106.235467 129.6128 
L 105.399267 128.4864 
L 104.918452 127.36 
L 103.915013 127.36 
L 102.462116 126.2336 
L 100.382069 125.1072 
L 96.775957 123.9808 
L 96.514645 122.8544 
L 96.41012 122.8544 
L 94.497313 121.728 
L 94.371883 121.728 
L 94.330073 120.6016 
L 93.870163 119.4752 
L 92.009619 118.3488 
L 90.075907 117.2224 
L 89.605545 116.096 
L 89.103825 116.096 
L 86.313008 114.9696 
L 86.177126 113.8432 
L 84.138889 113.8432 
L 83.490834 112.7168 
L 82.769612 112.7168 
L 81.71391 112.7168 
L 81.46305 112.7168 
L 81.233095 111.5904 
L 80.386443 110.464 
L 80.198298 109.3376 
L 77.010286 109.3376 
L 76.884856 108.2112 
L 76.529471 107.0848 
L 74.700284 107.0848 
L 74.323995 105.9584 
L 74.21947 104.832 
L 73.832727 104.832 
z
" clip-path="url(#p0af1756d81)" style="fill: #008000"/>
   </g>
   <g id="PolyCollection_2">
    <path d="M 73.832727 55.2704 
L 73.832727 104.832 
L 74.21947 104.832 
L 74.323995 105.9584 
L 74.700284 107.0848 
L 76.529471 107.0848 
L 76.884856 108.2112 
L 77.010286 109.3376 
L 80.198298 109.3376 
L 80.386443 110.464 
L 81.233095 111.5904 
L 81.46305 112.7168 
L 81.71391 112.7168 
L 82.769612 112.7168 
L 83.490834 112.7168 
L 84.138889 113.8432 
L 86.177126 113.8432 
L 86.313008 114.9696 
L 89.103825 116.096 
L 89.605545 116.096 
L 90.075907 117.2224 
L 92.009619 118.3488 
L 93.870163 119.4752 
L 94.330073 120.6016 
L 94.371883 121.728 
L 94.497313 121.728 
L 96.41012 122.8544 
L 96.514645 122.8544 
L 96.775957 123.9808 
L 100.382069 125.1072 
L 102.462116 126.2336 
L 103.915013 127.36 
L 104.918452 127.36 
L 105.399267 128.4864 
L 106.235467 129.6128 
L 106.287729 130.7392 
L 108.493206 131.8656 
L 110.635968 132.992 
L 111.399 134.1184 
L 113.510404 135.2448 
L 114.628822 136.3712 
L 114.837872 137.4976 
L 115.611356 138.624 
L 116.039909 139.7504 
L 116.458009 139.7504 
L 117.545068 140.8768 
L 118.109503 142.0032 
L 118.329005 143.1296 
L 119.18611 144.256 
L 119.970047 145.3824 
L 121.590184 146.5088 
L 121.767877 147.6352 
L 121.799234 148.7616 
L 122.886294 149.888 
L 123.879281 151.0144 
L 124.213761 152.1408 
L 124.527336 153.2672 
L 124.652766 154.3936 
L 126.26245 155.52 
L 127.318153 156.6464 
L 127.527202 157.7728 
L 127.746705 158.8992 
L 128.028922 160.0256 
L 128.237972 161.152 
L 129.042814 162.2784 
L 129.586344 163.4048 
L 131.948609 163.4048 
L 132.920691 164.5312 
L 133.276076 165.6576 
L 134.352683 166.784 
L 135.241145 167.9104 
L 135.63834 167.9104 
L 138.742731 169.0368 
L 138.930876 170.1632 
L 139.767076 171.2896 
L 139.976126 172.416 
L 140.185176 173.5424 
L 141.50219 174.6688 
L 141.826218 175.7952 
L 141.83667 176.9216 
L 142.29658 178.048 
L 142.651965 178.048 
L 143.71812 179.1744 
L 143.937622 180.3008 
L 144.042147 181.4272 
L 144.355722 182.5536 
L 145.212827 183.68 
L 146.728439 184.8064 
L 147.481019 185.9328 
L 147.773688 187.0592 
L 149.027988 188.1856 
L 149.728305 189.312 
L 149.895545 190.4384 
L 150.45998 190.4384 
L 152.874507 191.5648 
L 153.459847 192.6912 
L 154.755956 193.8176 
L 156.365641 194.944 
L 156.700121 196.0704 
L 157.82899 197.1968 
L 159.33415 198.3232 
L 159.532747 199.4496 
L 160.379399 200.576 
L 160.515282 201.7024 
L 160.807952 202.8288 
L 161.058812 203.9552 
L 161.278314 203.9552 
L 161.341029 205.0816 
L 161.414197 206.208 
L 161.612794 207.3344 
L 162.208586 208.4608 
L 162.616234 209.5872 
L 163.431528 210.7136 
L 163.462886 211.84 
L 163.536053 212.9664 
L 164.309538 214.0928 
L 164.602208 214.0928 
L 165.250263 215.2192 
L 165.260715 216.3456 
L 165.459313 216.3456 
L 166.692707 217.472 
L 168.730944 218.5984 
L 170.696014 219.7248 
L 170.905064 220.8512 
L 171.082756 221.9776 
L 173.204613 223.104 
L 174.594795 224.2304 
L 174.65751 225.3568 
L 175.169682 226.4832 
L 175.211492 227.6096 
L 175.681854 228.736 
L 176.518054 229.8624 
L 177.019774 230.9888 
L 177.187014 230.9888 
L 177.301991 232.1152 
L 177.887331 233.2416 
L 179.037106 233.2416 
L 179.361133 234.368 
L 182.758195 235.4944 
L 183.876612 236.6208 
L 184.033399 237.7472 
L 184.336522 237.7472 
L 184.723264 237.7472 
L 185.214531 238.8736 
L 187.472271 240 
L 189.040145 241.1264 
L 189.615032 242.2528 
L 190.14811 243.3792 
L 190.388517 244.5056 
L 190.451232 244.5056 
L 190.994762 245.632 
L 191.02612 246.7584 
L 191.872772 247.8848 
L 192.144537 249.0112 
L 192.980736 250.1376 
L 193.649696 251.264 
L 194.318656 251.264 
L 194.945806 252.3904 
L 195.029426 253.5168 
L 196.43006 254.6432 
L 196.910875 255.7696 
L 197.694812 255.7696 
L 199.022279 256.896 
L 199.555357 258.0224 
L 199.618072 259.1488 
L 199.816669 260.2752 
L 200.778299 261.4016 
L 201.112779 262.528 
L 202.074408 263.6544 
L 202.304363 264.7808 
L 204.321695 264.7808 
L 206.255407 265.9072 
L 206.527172 267.0336 
L 207.352919 268.16 
L 209.506134 268.16 
L 210.729076 269.2864 
L 213.3422 270.4128 
L 215.505867 271.5392 
L 215.913514 272.6656 
L 216.467496 272.6656 
L 217.335054 273.792 
L 217.794963 274.9184 
L 219.937725 274.9184 
L 223.052569 274.9184 
L 223.982841 276.0448 
L 224.704064 277.1712 
L 226.094246 277.1712 
L 226.156961 278.2976 
L 228.58194 279.424 
L 228.686465 280.5504 
L 229.188185 281.6768 
L 233.191491 282.8032 
L 234.205383 282.8032 
L 238.396834 283.9296 
L 241.041316 285.056 
L 242.086566 286.1824 
L 244.898287 287.3088 
L 248.483494 287.3088 
L 249.675078 288.4352 
L 255.988386 289.5616 
L 257.085898 289.5616 
L 257.995265 289.5616 
L 258.30884 290.688 
L 261.570019 290.688 
L 263.566446 291.8144 
L 263.639614 292.9408 
L 264.434003 292.9408 
L 264.758031 294.0672 
L 271.322199 295.1936 
L 275.116455 296.32 
L 275.618175 297.4464 
L 276.684329 298.5728 
L 279.391526 298.5728 
L 284.544607 298.5728 
L 289.143705 299.6992 
L 293.418777 300.8256 
L 294.411764 301.952 
L 319.894951 301.952 
L 331.100027 303.0784 
L 338.813969 304.2048 
L 342.064696 304.2048 
L 348.325741 305.3312 
L 387.020884 306.4576 
L 393.804554 306.4576 
L 398.487273 307.584 
L 398.487273 306.4576 
L 398.487273 306.4576 
L 393.804554 305.3312 
L 387.020884 304.2048 
L 348.325741 303.0784 
L 342.064696 301.952 
L 338.813969 300.8256 
L 331.100027 299.6992 
L 319.894951 298.5728 
L 294.411764 297.4464 
L 293.418777 296.32 
L 289.143705 295.1936 
L 284.544607 294.0672 
L 279.391526 292.9408 
L 276.684329 291.8144 
L 275.618175 290.688 
L 275.116455 289.5616 
L 271.322199 288.4352 
L 264.758031 287.3088 
L 264.434003 286.1824 
L 263.639614 285.056 
L 263.566446 283.9296 
L 261.570019 282.8032 
L 258.30884 281.6768 
L 257.995265 280.5504 
L 257.085898 279.424 
L 255.988386 278.2976 
L 249.675078 277.1712 
L 248.483494 276.0448 
L 244.898287 274.9184 
L 242.086566 273.792 
L 241.041316 272.6656 
L 238.396834 271.5392 
L 234.205383 270.4128 
L 233.191491 269.2864 
L 229.188185 268.16 
L 228.686465 267.0336 
L 228.58194 265.9072 
L 226.156961 264.7808 
L 226.094246 263.6544 
L 224.704064 262.528 
L 223.982841 261.4016 
L 223.052569 260.2752 
L 219.937725 259.1488 
L 217.794963 258.0224 
L 217.335054 256.896 
L 216.467496 255.7696 
L 215.913514 254.6432 
L 215.505867 253.5168 
L 213.3422 252.3904 
L 210.729076 251.264 
L 209.506134 250.1376 
L 207.352919 249.0112 
L 206.527172 247.8848 
L 206.255407 246.7584 
L 204.321695 245.632 
L 202.304363 244.5056 
L 202.074408 243.3792 
L 201.112779 242.2528 
L 200.778299 241.1264 
L 199.816669 240 
L 199.618072 238.8736 
L 199.555357 237.7472 
L 199.022279 236.6208 
L 197.694812 235.4944 
L 196.910875 234.368 
L 196.43006 233.2416 
L 195.029426 232.1152 
L 194.945806 230.9888 
L 194.318656 229.8624 
L 193.649696 228.736 
L 192.980736 227.6096 
L 192.144537 226.4832 
L 191.872772 225.3568 
L 191.02612 224.2304 
L 190.994762 223.104 
L 190.451232 221.9776 
L 190.388517 220.8512 
L 190.14811 219.7248 
L 189.615032 218.5984 
L 189.040145 217.472 
L 187.472271 216.3456 
L 185.214531 215.2192 
L 184.723264 214.0928 
L 184.336522 212.9664 
L 184.033399 211.84 
L 183.876612 210.7136 
L 182.758195 209.5872 
L 179.361133 208.4608 
L 179.037106 207.3344 
L 177.887331 206.208 
L 177.301991 205.0816 
L 177.187014 203.9552 
L 177.019774 202.8288 
L 176.518054 201.7024 
L 175.681854 200.576 
L 175.211492 199.4496 
L 175.169682 198.3232 
L 174.65751 197.1968 
L 174.594795 196.0704 
L 173.204613 194.944 
L 171.082756 193.8176 
L 170.905064 192.6912 
L 170.696014 191.5648 
L 168.730944 190.4384 
L 166.692707 189.312 
L 165.459313 188.1856 
L 165.260715 187.0592 
L 165.250263 185.9328 
L 164.602208 184.8064 
L 164.309538 183.68 
L 163.536053 182.5536 
L 163.462886 181.4272 
L 163.431528 180.3008 
L 162.616234 179.1744 
L 162.208586 178.048 
L 161.612794 176.9216 
L 161.414197 175.7952 
L 161.341029 174.6688 
L 161.278314 173.5424 
L 161.058812 172.416 
L 160.807952 171.2896 
L 160.515282 170.1632 
L 160.379399 169.0368 
L 159.532747 167.9104 
L 159.33415 166.784 
L 157.82899 165.6576 
L 156.700121 164.5312 
L 156.365641 163.4048 
L 154.755956 162.2784 
L 153.459847 161.152 
L 152.874507 160.0256 
L 150.45998 158.8992 
L 149.895545 157.7728 
L 149.728305 156.6464 
L 149.027988 155.52 
L 147.773688 154.3936 
L 147.481019 153.2672 
L 146.728439 152.1408 
L 145.212827 151.0144 
L 144.355722 149.888 
L 144.042147 148.7616 
L 143.937622 147.6352 
L 143.71812 146.5088 
L 142.651965 145.3824 
L 142.29658 144.256 
L 141.83667 143.1296 
L 141.826218 142.0032 
L 141.50219 140.8768 
L 140.185176 139.7504 
L 139.976126 138.624 
L 139.767076 137.4976 
L 138.930876 136.3712 
L 138.742731 135.2448 
L 135.63834 134.1184 
L 135.241145 132.992 
L 134.352683 131.8656 
L 133.276076 130.7392 
L 132.920691 129.6128 
L 131.948609 128.4864 
L 129.586344 127.36 
L 129.042814 126.2336 
L 128.237972 125.1072 
L 128.028922 123.9808 
L 127.746705 122.8544 
L 127.527202 121.728 
L 127.318153 120.6016 
L 126.26245 119.4752 
L 124.652766 118.3488 
L 124.527336 117.2224 
L 124.213761 116.096 
L 123.879281 114.9696 
L 122.886294 113.8432 
L 121.799234 112.7168 
L 121.767877 111.5904 
L 121.590184 110.464 
L 119.970047 109.3376 
L 119.18611 108.2112 
L 118.329005 107.0848 
L 118.109503 105.9584 
L 117.545068 104.832 
L 116.458009 102.5792 
L 116.039909 101.4528 
L 115.611356 100.3264 
L 114.837872 99.2 
L 114.628822 98.0736 
L 113.510404 96.9472 
L 111.399 95.8208 
L 110.635968 94.6944 
L 108.493206 93.568 
L 106.287729 92.4416 
L 106.235467 91.3152 
L 105.399267 90.1888 
L 104.918452 89.0624 
L 103.915013 87.936 
L 102.462116 86.8096 
L 100.382069 85.6832 
L 96.775957 84.5568 
L 96.514645 83.4304 
L 96.41012 83.4304 
L 94.497313 82.304 
L 94.371883 81.1776 
L 94.330073 80.0512 
L 93.870163 78.9248 
L 92.009619 77.7984 
L 90.075907 76.672 
L 89.605545 75.5456 
L 89.103825 74.4192 
L 86.313008 73.2928 
L 86.177126 72.1664 
L 84.138889 71.04 
L 83.490834 69.9136 
L 82.769612 68.7872 
L 81.71391 67.6608 
L 81.46305 66.5344 
L 81.233095 65.408 
L 80.386443 64.2816 
L 80.198298 63.1552 
L 77.010286 62.0288 
L 76.884856 60.9024 
L 76.529471 59.776 
L 74.700284 58.6496 
L 74.323995 57.5232 
L 74.21947 56.3968 
L 73.832727 55.2704 
z
" clip-path="url(#p0af1756d81)" style="fill: #7cfc00"/>
   </g>
   <g id="PolyCollection_3">
    <path d="M 73.832727 54.144 
L 73.832727 55.2704 
L 74.21947 56.3968 
L 74.323995 57.5232 
L 74.700284 58.6496 
L 76.529471 59.776 
L 76.884856 60.9024 
L 77.010286 62.0288 
L 80.198298 63.1552 
L 80.386443 64.2816 
L 81.233095 65.408 
L 81.46305 66.5344 
L 81.71391 67.6608 
L 82.769612 68.7872 
L 83.490834 69.9136 
L 84.138889 71.04 
L 86.177126 72.1664 
L 86.313008 73.2928 
L 89.103825 74.4192 
L 89.605545 75.5456 
L 90.075907 76.672 
L 92.009619 77.7984 
L 93.870163 78.9248 
L 94.330073 80.0512 
L 94.371883 81.1776 
L 94.497313 82.304 
L 96.41012 83.4304 
L 96.514645 83.4304 
L 96.775957 84.5568 
L 100.382069 85.6832 
L 102.462116 86.8096 
L 103.915013 87.936 
L 104.918452 89.0624 
L 105.399267 90.1888 
L 106.235467 91.3152 
L 106.287729 92.4416 
L 108.493206 93.568 
L 110.635968 94.6944 
L 111.399 95.8208 
L 113.510404 96.9472 
L 114.628822 98.0736 
L 114.837872 99.2 
L 115.611356 100.3264 
L 116.039909 101.4528 
L 116.458009 102.5792 
L 117.545068 104.832 
L 118.109503 105.9584 
L 118.329005 107.0848 
L 119.18611 108.2112 
L 119.970047 109.3376 
L 121.590184 110.464 
L 121.767877 111.5904 
L 121.799234 112.7168 
L 122.886294 113.8432 
L 123.879281 114.9696 
L 124.213761 116.096 
L 124.527336 117.2224 
L 124.652766 118.3488 
L 126.26245 119.4752 
L 127.318153 120.6016 
L 127.527202 121.728 
L 127.746705 122.8544 
L 128.028922 123.9808 
L 128.237972 125.1072 
L 129.042814 126.2336 
L 129.586344 127.36 
L 131.948609 128.4864 
L 132.920691 129.6128 
L 133.276076 130.7392 
L 134.352683 131.8656 
L 135.241145 132.992 
L 135.63834 134.1184 
L 138.742731 135.2448 
L 138.930876 136.3712 
L 139.767076 137.4976 
L 139.976126 138.624 
L 140.185176 139.7504 
L 141.50219 140.8768 
L 141.826218 142.0032 
L 141.83667 143.1296 
L 142.29658 144.256 
L 142.651965 145.3824 
L 143.71812 146.5088 
L 143.937622 147.6352 
L 144.042147 148.7616 
L 144.355722 149.888 
L 145.212827 151.0144 
L 146.728439 152.1408 
L 147.481019 153.2672 
L 147.773688 154.3936 
L 149.027988 155.52 
L 149.728305 156.6464 
L 149.895545 157.7728 
L 150.45998 158.8992 
L 152.874507 160.0256 
L 153.459847 161.152 
L 154.755956 162.2784 
L 156.365641 163.4048 
L 156.700121 164.5312 
L 157.82899 165.6576 
L 159.33415 166.784 
L 159.532747 167.9104 
L 160.379399 169.0368 
L 160.515282 170.1632 
L 160.807952 171.2896 
L 161.058812 172.416 
L 161.278314 173.5424 
L 161.341029 174.6688 
L 161.414197 175.7952 
L 161.612794 176.9216 
L 162.208586 178.048 
L 162.616234 179.1744 
L 163.431528 180.3008 
L 163.462886 181.4272 
L 163.536053 182.5536 
L 164.309538 183.68 
L 164.602208 184.8064 
L 165.250263 185.9328 
L 165.260715 187.0592 
L 165.459313 188.1856 
L 166.692707 189.312 
L 168.730944 190.4384 
L 170.696014 191.5648 
L 170.905064 192.6912 
L 171.082756 193.8176 
L 173.204613 194.944 
L 174.594795 196.0704 
L 174.65751 197.1968 
L 175.169682 198.3232 
L 175.211492 199.4496 
L 175.681854 200.576 
L 176.518054 201.7024 
L 177.019774 202.8288 
L 177.187014 203.9552 
L 177.301991 205.0816 
L 177.887331 206.208 
L 179.037106 207.3344 
L 179.361133 208.4608 
L 182.758195 209.5872 
L 183.876612 210.7136 
L 184.033399 211.84 
L 184.336522 212.9664 
L 184.723264 214.0928 
L 185.214531 215.2192 
L 187.472271 216.3456 
L 189.040145 217.472 
L 189.615032 218.5984 
L 190.14811 219.7248 
L 190.388517 220.8512 
L 190.451232 221.9776 
L 190.994762 223.104 
L 191.02612 224.2304 
L 191.872772 225.3568 
L 192.144537 226.4832 
L 192.980736 227.6096 
L 193.649696 228.736 
L 194.318656 229.8624 
L 194.945806 230.9888 
L 195.029426 232.1152 
L 196.43006 233.2416 
L 196.910875 234.368 
L 197.694812 235.4944 
L 199.022279 236.6208 
L 199.555357 237.7472 
L 199.618072 238.8736 
L 199.816669 240 
L 200.778299 241.1264 
L 201.112779 242.2528 
L 202.074408 243.3792 
L 202.304363 244.5056 
L 204.321695 245.632 
L 206.255407 246.7584 
L 206.527172 247.8848 
L 207.352919 249.0112 
L 209.506134 250.1376 
L 210.729076 251.264 
L 213.3422 252.3904 
L 215.505867 253.5168 
L 215.913514 254.6432 
L 216.467496 255.7696 
L 217.335054 256.896 
L 217.794963 258.0224 
L 219.937725 259.1488 
L 223.052569 260.2752 
L 223.982841 261.4016 
L 224.704064 262.528 
L 226.094246 263.6544 
L 226.156961 264.7808 
L 228.58194 265.9072 
L 228.686465 267.0336 
L 229.188185 268.16 
L 233.191491 269.2864 
L 234.205383 270.4128 
L 238.396834 271.5392 
L 241.041316 272.6656 
L 242.086566 273.792 
L 244.898287 274.9184 
L 248.483494 276.0448 
L 249.675078 277.1712 
L 255.988386 278.2976 
L 257.085898 279.424 
L 257.995265 280.5504 
L 258.30884 281.6768 
L 261.570019 282.8032 
L 263.566446 283.9296 
L 263.639614 285.056 
L 264.434003 286.1824 
L 264.758031 287.3088 
L 271.322199 288.4352 
L 275.116455 289.5616 
L 275.618175 290.688 
L 276.684329 291.8144 
L 279.391526 292.9408 
L 284.544607 294.0672 
L 289.143705 295.1936 
L 293.418777 296.32 
L 294.411764 297.4464 
L 319.894951 298.5728 
L 331.100027 299.6992 
L 338.813969 300.8256 
L 342.064696 301.952 
L 348.325741 303.0784 
L 387.020884 304.2048 
L 393.804554 305.3312 
L 398.487273 306.4576 
L 398.487273 306.4576 
L 398.487273 306.4576 
L 393.804554 305.3312 
L 387.020884 304.2048 
L 348.325741 303.0784 
L 342.064696 301.952 
L 338.813969 300.8256 
L 331.100027 299.6992 
L 319.894951 298.5728 
L 294.411764 297.4464 
L 293.418777 296.32 
L 289.143705 295.1936 
L 284.544607 294.0672 
L 279.391526 292.9408 
L 276.684329 291.8144 
L 275.618175 290.688 
L 275.116455 289.5616 
L 271.322199 288.4352 
L 264.758031 287.3088 
L 264.434003 286.1824 
L 263.639614 285.056 
L 263.566446 283.9296 
L 261.570019 282.8032 
L 258.30884 281.6768 
L 257.995265 280.5504 
L 257.085898 279.424 
L 255.988386 278.2976 
L 249.675078 277.1712 
L 248.483494 276.0448 
L 244.898287 274.9184 
L 242.086566 273.792 
L 241.041316 272.6656 
L 238.396834 271.5392 
L 234.205383 270.4128 
L 233.191491 269.2864 
L 229.188185 268.16 
L 228.686465 267.0336 
L 228.58194 265.9072 
L 226.156961 264.7808 
L 226.094246 263.6544 
L 224.704064 262.528 
L 223.982841 261.4016 
L 223.052569 260.2752 
L 219.937725 259.1488 
L 217.794963 258.0224 
L 217.335054 256.896 
L 216.467496 255.7696 
L 215.913514 254.6432 
L 215.505867 253.5168 
L 213.3422 252.3904 
L 210.729076 251.264 
L 209.506134 250.1376 
L 207.352919 249.0112 
L 206.527172 247.8848 
L 206.255407 246.7584 
L 204.321695 245.632 
L 202.304363 244.5056 
L 202.074408 243.3792 
L 201.112779 242.2528 
L 200.778299 241.1264 
L 199.816669 240 
L 199.618072 238.8736 
L 199.555357 237.7472 
L 199.022279 236.6208 
L 197.694812 235.4944 
L 196.910875 234.368 
L 196.43006 233.2416 
L 195.029426 232.1152 
L 194.945806 230.9888 
L 194.318656 229.8624 
L 193.649696 228.736 
L 192.980736 227.6096 
L 192.144537 226.4832 
L 191.872772 225.3568 
L 191.02612 224.2304 
L 190.994762 223.104 
L 190.451232 221.9776 
L 190.388517 220.8512 
L 190.14811 219.7248 
L 189.615032 218.5984 
L 189.040145 217.472 
L 187.472271 216.3456 
L 185.214531 215.2192 
L 184.723264 214.0928 
L 184.336522 212.9664 
L 184.033399 211.84 
L 183.876612 210.7136 
L 182.758195 209.5872 
L 179.361133 208.4608 
L 179.037106 207.3344 
L 177.887331 206.208 
L 177.301991 205.0816 
L 177.187014 203.9552 
L 177.019774 202.8288 
L 176.518054 201.7024 
L 175.681854 200.576 
L 175.211492 199.4496 
L 175.169682 198.3232 
L 174.65751 197.1968 
L 174.594795 196.0704 
L 173.204613 194.944 
L 171.082756 193.8176 
L 170.905064 192.6912 
L 170.696014 191.5648 
L 168.730944 190.4384 
L 166.692707 189.312 
L 165.459313 188.1856 
L 165.260715 187.0592 
L 165.250263 185.9328 
L 164.602208 184.8064 
L 164.309538 183.68 
L 163.536053 182.5536 
L 163.462886 181.4272 
L 163.431528 180.3008 
L 162.616234 179.1744 
L 162.208586 178.048 
L 161.612794 176.9216 
L 161.414197 175.7952 
L 161.341029 174.6688 
L 161.278314 173.5424 
L 161.058812 172.416 
L 160.807952 171.2896 
L 160.515282 170.1632 
L 160.379399 169.0368 
L 159.532747 167.9104 
L 159.33415 166.784 
L 157.82899 165.6576 
L 156.700121 164.5312 
L 156.365641 163.4048 
L 154.755956 162.2784 
L 153.459847 161.152 
L 152.874507 160.0256 
L 150.45998 158.8992 
L 149.895545 157.7728 
L 149.728305 156.6464 
L 149.027988 155.52 
L 147.773688 154.3936 
L 147.481019 153.2672 
L 146.728439 152.1408 
L 145.212827 151.0144 
L 144.355722 149.888 
L 144.042147 148.7616 
L 143.937622 147.6352 
L 143.71812 146.5088 
L 142.651965 145.3824 
L 142.29658 144.256 
L 141.83667 143.1296 
L 141.826218 142.0032 
L 141.50219 140.8768 
L 140.185176 139.7504 
L 139.976126 138.624 
L 139.767076 137.4976 
L 138.930876 136.3712 
L 138.742731 135.2448 
L 135.63834 134.1184 
L 135.241145 132.992 
L 134.352683 131.8656 
L 133.276076 130.7392 
L 132.920691 129.6128 
L 131.948609 128.4864 
L 129.586344 127.36 
L 129.042814 126.2336 
L 128.237972 125.1072 
L 128.028922 123.9808 
L 127.746705 122.8544 
L 127.527202 121.728 
L 127.318153 120.6016 
L 126.26245 119.4752 
L 124.652766 118.3488 
L 124.527336 117.2224 
L 124.213761 116.096 
L 123.879281 114.9696 
L 122.886294 113.8432 
L 121.799234 112.7168 
L 121.767877 111.5904 
L 121.590184 110.464 
L 119.970047 109.3376 
L 119.18611 108.2112 
L 118.329005 107.0848 
L 118.109503 105.9584 
L 117.545068 104.832 
L 116.458009 102.5792 
L 116.039909 101.4528 
L 115.611356 100.3264 
L 114.837872 99.2 
L 114.628822 98.0736 
L 113.510404 96.9472 
L 111.399 95.8208 
L 110.635968 94.6944 
L 108.493206 93.568 
L 106.287729 92.4416 
L 106.235467 91.3152 
L 105.399267 90.1888 
L 104.918452 89.0624 
L 103.915013 87.936 
L 102.462116 86.8096 
L 100.382069 85.6832 
L 96.775957 84.5568 
L 96.514645 83.4304 
L 96.41012 82.304 
L 94.497313 81.1776 
L 94.371883 80.0512 
L 94.330073 78.9248 
L 93.870163 77.7984 
L 92.009619 76.672 
L 90.075907 75.5456 
L 89.605545 74.4192 
L 89.103825 73.2928 
L 86.313008 72.1664 
L 86.177126 71.04 
L 84.138889 69.9136 
L 83.490834 68.7872 
L 82.769612 67.6608 
L 81.71391 66.5344 
L 81.46305 65.408 
L 81.233095 64.2816 
L 80.386443 63.1552 
L 80.198298 62.0288 
L 77.010286 60.9024 
L 76.884856 59.776 
L 76.529471 58.6496 
L 74.700284 57.5232 
L 74.323995 56.3968 
L 74.21947 55.2704 
L 73.832727 54.144 
z
" clip-path="url(#p0af1756d81)" style="fill: #ff0000"/>
   </g>
   <g id="matplotlib.axis_1">
    <g id="xtick_1">
     <g id="line2d_1">
      <defs>
       <path id="m9efe5fbe84" d="M 0 0 
L 0 3.5 
" style="stroke: #000000; stroke-width: 0.8"/>
      </defs>
      <g>
       <use xlink:href="#m9efe5fbe84" x="77.815128" y="307.584" style="stroke: #000000; stroke-width: 0.8"/>
      </g>
     </g>
     <g id="text_1">
      <!-- 10 -->
      <g transform="translate(71.452628 322.182437) scale(0.1 -0.1)">
       <defs>
        <path id="DejaVuSans-31" d="M 794 531 
L 1825 531 
L 1825 4091 
L 703 3866 
L 703 4441 
L 1819 4666 
L 2450 4666 
L 2450 531 
L 3481 531 
L 3481 0 
L 794 0 
L 794 531 
z
" transform="scale(0.015625)"/>
        <path id="DejaVuSans-30" d="M 2034 4250 
Q 1547 4250 1301 3770 
Q 1056 3291 1056 2328 
Q 1056 1369 1301 889 
Q 1547 409 2034 409 
Q 2525 409 2770 889 
Q 3016 1369 3016 2328 
Q 3016 3291 2770 3770 
Q 2525 4250 2034 4250 
z
M 2034 4750 
Q 2819 4750 3233 4129 
Q 3647 3509 3647 2328 
Q 3647 1150 3233 529 
Q 2819 -91 2034 -91 
Q 1250 -91 836 529 
Q 422 1150 422 2328 
Q 422 3509 836 4129 
Q 1250 4750 2034 4750 
z
" transform="scale(0.015625)"/>
       </defs>
       <use xlink:href="#DejaVuSans-31"/>
       <use xlink:href="#DejaVuSans-30" x="63.623047"/>
      </g>
     </g>
    </g>
    <g id="xtick_2">
     <g id="line2d_2">
      <g>
       <use xlink:href="#m9efe5fbe84" x="130.077612" y="307.584" style="stroke: #000000; stroke-width: 0.8"/>
      </g>
     </g>
     <g id="text_2">
      <!-- 15 -->
      <g transform="translate(123.715112 322.182437) scale(0.1 -0.1)">
       <defs>
        <path id="DejaVuSans-35" d="M 691 4666 
L 3169 4666 
L 3169 4134 
L 1269 4134 
L 1269 2991 
Q 1406 3038 1543 3061 
Q 1681 3084 1819 3084 
Q 2600 3084 3056 2656 
Q 3513 2228 3513 1497 
Q 3513 744 3044 326 
Q 2575 -91 1722 -91 
Q 1428 -91 1123 -41 
Q 819 9 494 109 
L 494 744 
Q 775 591 1075 516 
Q 1375 441 1709 441 
Q 2250 441 2565 725 
Q 2881 1009 2881 1497 
Q 2881 1984 2565 2268 
Q 2250 2553 1709 2553 
Q 1456 2553 1204 2497 
Q 953 2441 691 2322 
L 691 4666 
z
" transform="scale(0.015625)"/>
       </defs>
       <use xlink:href="#DejaVuSans-31"/>
       <use xlink:href="#DejaVuSans-35" x="63.623047"/>
      </g>
     </g>
    </g>
    <g id="xtick_3">
     <g id="line2d_3">
      <g>
       <use xlink:href="#m9efe5fbe84" x="182.340095" y="307.584" style="stroke: #000000; stroke-width: 0.8"/>
      </g>
     </g>
     <g id="text_3">
      <!-- 20 -->
      <g transform="translate(175.977595 322.182437) scale(0.1 -0.1)">
       <defs>
        <path id="DejaVuSans-32" d="M 1228 531 
L 3431 531 
L 3431 0 
L 469 0 
L 469 531 
Q 828 903 1448 1529 
Q 2069 2156 2228 2338 
Q 2531 2678 2651 2914 
Q 2772 3150 2772 3378 
Q 2772 3750 2511 3984 
Q 2250 4219 1831 4219 
Q 1534 4219 1204 4116 
Q 875 4013 500 3803 
L 500 4441 
Q 881 4594 1212 4672 
Q 1544 4750 1819 4750 
Q 2544 4750 2975 4387 
Q 3406 4025 3406 3419 
Q 3406 3131 3298 2873 
Q 3191 2616 2906 2266 
Q 2828 2175 2409 1742 
Q 1991 1309 1228 531 
z
" transform="scale(0.015625)"/>
       </defs>
       <use xlink:href="#DejaVuSans-32"/>
       <use xlink:href="#DejaVuSans-30" x="63.623047"/>
      </g>
     </g>
    </g>
    <g id="xtick_4">
     <g id="line2d_4">
      <g>
       <use xlink:href="#m9efe5fbe84" x="234.602578" y="307.584" style="stroke: #000000; stroke-width: 0.8"/>
      </g>
     </g>
     <g id="text_4">
      <!-- 25 -->
      <g transform="translate(228.240078 322.182437) scale(0.1 -0.1)">
       <use xlink:href="#DejaVuSans-32"/>
       <use xlink:href="#DejaVuSans-35" x="63.623047"/>
      </g>
     </g>
    </g>
    <g id="xtick_5">
     <g id="line2d_5">
      <g>
       <use xlink:href="#m9efe5fbe84" x="286.865061" y="307.584" style="stroke: #000000; stroke-width: 0.8"/>
      </g>
     </g>
     <g id="text_5">
      <!-- 30 -->
      <g transform="translate(280.502561 322.182437) scale(0.1 -0.1)">
       <defs>
        <path id="DejaVuSans-33" d="M 2597 2516 
Q 3050 2419 3304 2112 
Q 3559 1806 3559 1356 
Q 3559 666 3084 287 
Q 2609 -91 1734 -91 
Q 1441 -91 1130 -33 
Q 819 25 488 141 
L 488 750 
Q 750 597 1062 519 
Q 1375 441 1716 441 
Q 2309 441 2620 675 
Q 2931 909 2931 1356 
Q 2931 1769 2642 2001 
Q 2353 2234 1838 2234 
L 1294 2234 
L 1294 2753 
L 1863 2753 
Q 2328 2753 2575 2939 
Q 2822 3125 2822 3475 
Q 2822 3834 2567 4026 
Q 2313 4219 1838 4219 
Q 1578 4219 1281 4162 
Q 984 4106 628 3988 
L 628 4550 
Q 988 4650 1302 4700 
Q 1616 4750 1894 4750 
Q 2613 4750 3031 4423 
Q 3450 4097 3450 3541 
Q 3450 3153 3228 2886 
Q 3006 2619 2597 2516 
z
" transform="scale(0.015625)"/>
       </defs>
       <use xlink:href="#DejaVuSans-33"/>
       <use xlink:href="#DejaVuSans-30" x="63.623047"/>
      </g>
     </g>
    </g>
    <g id="xtick_6">
     <g id="line2d_6">
      <g>
       <use xlink:href="#m9efe5fbe84" x="339.127544" y="307.584" style="stroke: #000000; stroke-width: 0.8"/>
      </g>
     </g>
     <g id="text_6">
      <!-- 35 -->
      <g transform="translate(332.765044 322.182437) scale(0.1 -0.1)">
       <use xlink:href="#DejaVuSans-33"/>
       <use xlink:href="#DejaVuSans-35" x="63.623047"/>
      </g>
     </g>
    </g>
    <g id="xtick_7">
     <g id="line2d_7">
      <g>
       <use xlink:href="#m9efe5fbe84" x="391.390028" y="307.584" style="stroke: #000000; stroke-width: 0.8"/>
      </g>
     </g>
     <g id="text_7">
      <!-- 40 -->
      <g transform="translate(385.027528 322.182437) scale(0.1 -0.1)">
       <defs>
        <path id="DejaVuSans-34" d="M 2419 4116 
L 825 1625 
L 2419 1625 
L 2419 4116 
z
M 2253 4666 
L 3047 4666 
L 3047 1625 
L 3713 1625 
L 3713 1100 
L 3047 1100 
L 3047 0 
L 2419 0 
L 2419 1100 
L 313 1100 
L 313 1709 
L 2253 4666 
z
" transform="scale(0.015625)"/>
       </defs>
       <use xlink:href="#DejaVuSans-34"/>
       <use xlink:href="#DejaVuSans-30" x="63.623047"/>
      </g>
     </g>
    </g>
    <g id="text_8">
     <!-- Score -->
     <g transform="translate(222.157656 335.860562) scale(0.1 -0.1)">
      <defs>
       <path id="DejaVuSans-53" d="M 3425 4513 
L 3425 3897 
Q 3066 4069 2747 4153 
Q 2428 4238 2131 4238 
Q 1616 4238 1336 4038 
Q 1056 3838 1056 3469 
Q 1056 3159 1242 3001 
Q 1428 2844 1947 2747 
L 2328 2669 
Q 3034 2534 3370 2195 
Q 3706 1856 3706 1288 
Q 3706 609 3251 259 
Q 2797 -91 1919 -91 
Q 1588 -91 1214 -16 
Q 841 59 441 206 
L 441 856 
Q 825 641 1194 531 
Q 1563 422 1919 422 
Q 2459 422 2753 634 
Q 3047 847 3047 1241 
Q 3047 1584 2836 1778 
Q 2625 1972 2144 2069 
L 1759 2144 
Q 1053 2284 737 2584 
Q 422 2884 422 3419 
Q 422 4038 858 4394 
Q 1294 4750 2059 4750 
Q 2388 4750 2728 4690 
Q 3069 4631 3425 4513 
z
" transform="scale(0.015625)"/>
       <path id="DejaVuSans-63" d="M 3122 3366 
L 3122 2828 
Q 2878 2963 2633 3030 
Q 2388 3097 2138 3097 
Q 1578 3097 1268 2742 
Q 959 2388 959 1747 
Q 959 1106 1268 751 
Q 1578 397 2138 397 
Q 2388 397 2633 464 
Q 2878 531 3122 666 
L 3122 134 
Q 2881 22 2623 -34 
Q 2366 -91 2075 -91 
Q 1284 -91 818 406 
Q 353 903 353 1747 
Q 353 2603 823 3093 
Q 1294 3584 2113 3584 
Q 2378 3584 2631 3529 
Q 2884 3475 3122 3366 
z
" transform="scale(0.015625)"/>
       <path id="DejaVuSans-6f" d="M 1959 3097 
Q 1497 3097 1228 2736 
Q 959 2375 959 1747 
Q 959 1119 1226 758 
Q 1494 397 1959 397 
Q 2419 397 2687 759 
Q 2956 1122 2956 1747 
Q 2956 2369 2687 2733 
Q 2419 3097 1959 3097 
z
M 1959 3584 
Q 2709 3584 3137 3096 
Q 3566 2609 3566 1747 
Q 3566 888 3137 398 
Q 2709 -91 1959 -91 
Q 1206 -91 779 398 
Q 353 888 353 1747 
Q 353 2609 779 3096 
Q 1206 3584 1959 3584 
z
" transform="scale(0.015625)"/>
       <path id="DejaVuSans-72" d="M 2631 2963 
Q 2534 3019 2420 3045 
Q 2306 3072 2169 3072 
Q 1681 3072 1420 2755 
Q 1159 2438 1159 1844 
L 1159 0 
L 581 0 
L 581 3500 
L 1159 3500 
L 1159 2956 
Q 1341 3275 1631 3429 
Q 1922 3584 2338 3584 
Q 2397 3584 2469 3576 
Q 2541 3569 2628 3553 
L 2631 2963 
z
" transform="scale(0.015625)"/>
       <path id="DejaVuSans-65" d="M 3597 1894 
L 3597 1613 
L 953 1613 
Q 991 1019 1311 708 
Q 1631 397 2203 397 
Q 2534 397 2845 478 
Q 3156 559 3463 722 
L 3463 178 
Q 3153 47 2828 -22 
Q 2503 -91 2169 -91 
Q 1331 -91 842 396 
Q 353 884 353 1716 
Q 353 2575 817 3079 
Q 1281 3584 2069 3584 
Q 2775 3584 3186 3129 
Q 3597 2675 3597 1894 
z
M 3022 2063 
Q 3016 2534 2758 2815 
Q 2500 3097 2075 3097 
Q 1594 3097 1305 2825 
Q 1016 2553 972 2059 
L 3022 2063 
z
" transform="scale(0.015625)"/>
      </defs>
      <use xlink:href="#DejaVuSans-53"/>
      <use xlink:href="#DejaVuSans-63" x="63.476562"/>
      <use xlink:href="#DejaVuSans-6f" x="118.457031"/>
      <use xlink:href="#DejaVuSans-72" x="179.638672"/>
      <use xlink:href="#DejaVuSans-65" x="218.501953"/>
     </g>
    </g>
   </g>
   <g id="matplotlib.axis_2">
    <g id="ytick_1">
     <g id="line2d_8">
      <defs>
       <path id="m6302b0935b" d="M 0 0 
L -3.5 0 
" style="stroke: #000000; stroke-width: 0.8"/>
      </defs>
      <g>
       <use xlink:href="#m6302b0935b" x="57.6" y="307.584" style="stroke: #000000; stroke-width: 0.8"/>
      </g>
     </g>
     <g id="text_9">
      <!-- 0 -->
      <g transform="translate(44.2375 311.383219) scale(0.1 -0.1)">
       <use xlink:href="#DejaVuSans-30"/>
      </g>
     </g>
    </g>
    <g id="ytick_2">
     <g id="line2d_9">
      <g>
       <use xlink:href="#m6302b0935b" x="57.6" y="251.264" style="stroke: #000000; stroke-width: 0.8"/>
      </g>
     </g>
     <g id="text_10">
      <!-- 50 -->
      <g transform="translate(37.875 255.063219) scale(0.1 -0.1)">
       <use xlink:href="#DejaVuSans-35"/>
       <use xlink:href="#DejaVuSans-30" x="63.623047"/>
      </g>
     </g>
    </g>
    <g id="ytick_3">
     <g id="line2d_10">
      <g>
       <use xlink:href="#m6302b0935b" x="57.6" y="194.944" style="stroke: #000000; stroke-width: 0.8"/>
      </g>
     </g>
     <g id="text_11">
      <!-- 100 -->
      <g transform="translate(31.5125 198.743219) scale(0.1 -0.1)">
       <use xlink:href="#DejaVuSans-31"/>
       <use xlink:href="#DejaVuSans-30" x="63.623047"/>
       <use xlink:href="#DejaVuSans-30" x="127.246094"/>
      </g>
     </g>
    </g>
    <g id="ytick_4">
     <g id="line2d_11">
      <g>
       <use xlink:href="#m6302b0935b" x="57.6" y="138.624" style="stroke: #000000; stroke-width: 0.8"/>
      </g>
     </g>
     <g id="text_12">
      <!-- 150 -->
      <g transform="translate(31.5125 142.423219) scale(0.1 -0.1)">
       <use xlink:href="#DejaVuSans-31"/>
       <use xlink:href="#DejaVuSans-35" x="63.623047"/>
       <use xlink:href="#DejaVuSans-30" x="127.246094"/>
      </g>
     </g>
    </g>
    <g id="ytick_5">
     <g id="line2d_12">
      <g>
       <use xlink:href="#m6302b0935b" x="57.6" y="82.304" style="stroke: #000000; stroke-width: 0.8"/>
      </g>
     </g>
     <g id="text_13">
      <!-- 200 -->
      <g transform="translate(31.5125 86.103219) scale(0.1 -0.1)">
       <use xlink:href="#DejaVuSans-32"/>
       <use xlink:href="#DejaVuSans-30" x="63.623047"/>
       <use xlink:href="#DejaVuSans-30" x="127.246094"/>
      </g>
     </g>
    </g>
    <g id="text_14">
     <!-- Number of crosslinks -->
     <g transform="translate(25.432812 227.019406) rotate(-90) scale(0.1 -0.1)">
      <defs>
       <path id="DejaVuSans-4e" d="M 628 4666 
L 1478 4666 
L 3547 763 
L 3547 4666 
L 4159 4666 
L 4159 0 
L 3309 0 
L 1241 3903 
L 1241 0 
L 628 0 
L 628 4666 
z
" transform="scale(0.015625)"/>
       <path id="DejaVuSans-75" d="M 544 1381 
L 544 3500 
L 1119 3500 
L 1119 1403 
Q 1119 906 1312 657 
Q 1506 409 1894 409 
Q 2359 409 2629 706 
Q 2900 1003 2900 1516 
L 2900 3500 
L 3475 3500 
L 3475 0 
L 2900 0 
L 2900 538 
Q 2691 219 2414 64 
Q 2138 -91 1772 -91 
Q 1169 -91 856 284 
Q 544 659 544 1381 
z
M 1991 3584 
L 1991 3584 
z
" transform="scale(0.015625)"/>
       <path id="DejaVuSans-6d" d="M 3328 2828 
Q 3544 3216 3844 3400 
Q 4144 3584 4550 3584 
Q 5097 3584 5394 3201 
Q 5691 2819 5691 2113 
L 5691 0 
L 5113 0 
L 5113 2094 
Q 5113 2597 4934 2840 
Q 4756 3084 4391 3084 
Q 3944 3084 3684 2787 
Q 3425 2491 3425 1978 
L 3425 0 
L 2847 0 
L 2847 2094 
Q 2847 2600 2669 2842 
Q 2491 3084 2119 3084 
Q 1678 3084 1418 2786 
Q 1159 2488 1159 1978 
L 1159 0 
L 581 0 
L 581 3500 
L 1159 3500 
L 1159 2956 
Q 1356 3278 1631 3431 
Q 1906 3584 2284 3584 
Q 2666 3584 2933 3390 
Q 3200 3197 3328 2828 
z
" transform="scale(0.015625)"/>
       <path id="DejaVuSans-62" d="M 3116 1747 
Q 3116 2381 2855 2742 
Q 2594 3103 2138 3103 
Q 1681 3103 1420 2742 
Q 1159 2381 1159 1747 
Q 1159 1113 1420 752 
Q 1681 391 2138 391 
Q 2594 391 2855 752 
Q 3116 1113 3116 1747 
z
M 1159 2969 
Q 1341 3281 1617 3432 
Q 1894 3584 2278 3584 
Q 2916 3584 3314 3078 
Q 3713 2572 3713 1747 
Q 3713 922 3314 415 
Q 2916 -91 2278 -91 
Q 1894 -91 1617 61 
Q 1341 213 1159 525 
L 1159 0 
L 581 0 
L 581 4863 
L 1159 4863 
L 1159 2969 
z
" transform="scale(0.015625)"/>
       <path id="DejaVuSans-20" transform="scale(0.015625)"/>
       <path id="DejaVuSans-66" d="M 2375 4863 
L 2375 4384 
L 1825 4384 
Q 1516 4384 1395 4259 
Q 1275 4134 1275 3809 
L 1275 3500 
L 2222 3500 
L 2222 3053 
L 1275 3053 
L 1275 0 
L 697 0 
L 697 3053 
L 147 3053 
L 147 3500 
L 697 3500 
L 697 3744 
Q 697 4328 969 4595 
Q 1241 4863 1831 4863 
L 2375 4863 
z
" transform="scale(0.015625)"/>
       <path id="DejaVuSans-73" d="M 2834 3397 
L 2834 2853 
Q 2591 2978 2328 3040 
Q 2066 3103 1784 3103 
Q 1356 3103 1142 2972 
Q 928 2841 928 2578 
Q 928 2378 1081 2264 
Q 1234 2150 1697 2047 
L 1894 2003 
Q 2506 1872 2764 1633 
Q 3022 1394 3022 966 
Q 3022 478 2636 193 
Q 2250 -91 1575 -91 
Q 1294 -91 989 -36 
Q 684 19 347 128 
L 347 722 
Q 666 556 975 473 
Q 1284 391 1588 391 
Q 1994 391 2212 530 
Q 2431 669 2431 922 
Q 2431 1156 2273 1281 
Q 2116 1406 1581 1522 
L 1381 1569 
Q 847 1681 609 1914 
Q 372 2147 372 2553 
Q 372 3047 722 3315 
Q 1072 3584 1716 3584 
Q 2034 3584 2315 3537 
Q 2597 3491 2834 3397 
z
" transform="scale(0.015625)"/>
       <path id="DejaVuSans-6c" d="M 603 4863 
L 1178 4863 
L 1178 0 
L 603 0 
L 603 4863 
z
" transform="scale(0.015625)"/>
       <path id="DejaVuSans-69" d="M 603 3500 
L 1178 3500 
L 1178 0 
L 603 0 
L 603 3500 
z
M 603 4863 
L 1178 4863 
L 1178 4134 
L 603 4134 
L 603 4863 
z
" transform="scale(0.015625)"/>
       <path id="DejaVuSans-6e" d="M 3513 2113 
L 3513 0 
L 2938 0 
L 2938 2094 
Q 2938 2591 2744 2837 
Q 2550 3084 2163 3084 
Q 1697 3084 1428 2787 
Q 1159 2491 1159 1978 
L 1159 0 
L 581 0 
L 581 3500 
L 1159 3500 
L 1159 2956 
Q 1366 3272 1645 3428 
Q 1925 3584 2291 3584 
Q 2894 3584 3203 3211 
Q 3513 2838 3513 2113 
z
" transform="scale(0.015625)"/>
       <path id="DejaVuSans-6b" d="M 581 4863 
L 1159 4863 
L 1159 1991 
L 2875 3500 
L 3609 3500 
L 1753 1863 
L 3688 0 
L 2938 0 
L 1159 1709 
L 1159 0 
L 581 0 
L 581 4863 
z
" transform="scale(0.015625)"/>
      </defs>
      <use xlink:href="#DejaVuSans-4e"/>
      <use xlink:href="#DejaVuSans-75" x="74.804688"/>
      <use xlink:href="#DejaVuSans-6d" x="138.183594"/>
      <use xlink:href="#DejaVuSans-62" x="235.595703"/>
      <use xlink:href="#DejaVuSans-65" x="299.072266"/>
      <use xlink:href="#DejaVuSans-72" x="360.595703"/>
      <use xlink:href="#DejaVuSans-20" x="401.708984"/>
      <use xlink:href="#DejaVuSans-6f" x="433.496094"/>
      <use xlink:href="#DejaVuSans-66" x="494.677734"/>
      <use xlink:href="#DejaVuSans-20" x="529.882812"/>
      <use xlink:href="#DejaVuSans-63" x="561.669922"/>
      <use xlink:href="#DejaVuSans-72" x="616.650391"/>
      <use xlink:href="#DejaVuSans-6f" x="655.513672"/>
      <use xlink:href="#DejaVuSans-73" x="716.695312"/>
      <use xlink:href="#DejaVuSans-73" x="768.794922"/>
      <use xlink:href="#DejaVuSans-6c" x="820.894531"/>
      <use xlink:href="#DejaVuSans-69" x="848.677734"/>
      <use xlink:href="#DejaVuSans-6e" x="876.460938"/>
      <use xlink:href="#DejaVuSans-6b" x="939.839844"/>
      <use xlink:href="#DejaVuSans-73" x="997.75"/>
     </g>
    </g>
   </g>
   <g id="patch_3">
    <path d="M 57.6 307.584 
L 57.6 41.472 
" style="fill: none; stroke: #000000; stroke-width: 0.8; stroke-linejoin: miter; stroke-linecap: square"/>
   </g>
   <g id="patch_4">
    <path d="M 414.72 307.584 
L 414.72 41.472 
" style="fill: none; stroke: #000000; stroke-width: 0.8; stroke-linejoin: miter; stroke-linecap: square"/>
   </g>
   <g id="patch_5">
    <path d="M 57.6 307.584 
L 414.72 307.584 
" style="fill: none; stroke: #000000; stroke-width: 0.8; stroke-linejoin: miter; stroke-linecap: square"/>
   </g>
   <g id="patch_6">
    <path d="M 57.6 41.472 
L 414.72 41.472 
" style="fill: none; stroke: #000000; stroke-width: 0.8; stroke-linejoin: miter; stroke-linecap: square"/>
   </g>
   <g id="legend_1">
    <g id="patch_7">
     <path d="M 293.087188 93.506375 
L 407.72 93.506375 
Q 409.72 93.506375 409.72 91.506375 
L 409.72 48.472 
Q 409.72 46.472 407.72 46.472 
L 293.087188 46.472 
Q 291.087188 46.472 291.087188 48.472 
L 291.087188 91.506375 
Q 291.087188 93.506375 293.087188 93.506375 
z
" style="fill: #ffffff; opacity: 0.8; stroke: #cccccc; stroke-linejoin: miter"/>
    </g>
    <g id="patch_8">
     <path d="M 295.087188 58.070438 
L 315.087188 58.070438 
L 315.087188 51.070438 
L 295.087188 51.070438 
z
" style="fill: #008000"/>
    </g>
    <g id="text_15">
     <!-- true -->
     <g transform="translate(323.087188 58.070438) scale(0.1 -0.1)">
      <defs>
       <path id="DejaVuSans-74" d="M 1172 4494 
L 1172 3500 
L 2356 3500 
L 2356 3053 
L 1172 3053 
L 1172 1153 
Q 1172 725 1289 603 
Q 1406 481 1766 481 
L 2356 481 
L 2356 0 
L 1766 0 
Q 1100 0 847 248 
Q 594 497 594 1153 
L 594 3053 
L 172 3053 
L 172 3500 
L 594 3500 
L 594 4494 
L 1172 4494 
z
" transform="scale(0.015625)"/>
      </defs>
      <use xlink:href="#DejaVuSans-74"/>
      <use xlink:href="#DejaVuSans-72" x="39.208984"/>
      <use xlink:href="#DejaVuSans-75" x="80.322266"/>
      <use xlink:href="#DejaVuSans-65" x="143.701172"/>
     </g>
    </g>
    <g id="patch_9">
     <path d="M 295.087188 72.748563 
L 315.087188 72.748563 
L 315.087188 65.748563 
L 295.087188 65.748563 
z
" style="fill: #7cfc00"/>
    </g>
    <g id="text_16">
     <!-- true homeotypic -->
     <g transform="translate(323.087188 72.748563) scale(0.1 -0.1)">
      <defs>
       <path id="DejaVuSans-68" d="M 3513 2113 
L 3513 0 
L 2938 0 
L 2938 2094 
Q 2938 2591 2744 2837 
Q 2550 3084 2163 3084 
Q 1697 3084 1428 2787 
Q 1159 2491 1159 1978 
L 1159 0 
L 581 0 
L 581 4863 
L 1159 4863 
L 1159 2956 
Q 1366 3272 1645 3428 
Q 1925 3584 2291 3584 
Q 2894 3584 3203 3211 
Q 3513 2838 3513 2113 
z
" transform="scale(0.015625)"/>
       <path id="DejaVuSans-79" d="M 2059 -325 
Q 1816 -950 1584 -1140 
Q 1353 -1331 966 -1331 
L 506 -1331 
L 506 -850 
L 844 -850 
Q 1081 -850 1212 -737 
Q 1344 -625 1503 -206 
L 1606 56 
L 191 3500 
L 800 3500 
L 1894 763 
L 2988 3500 
L 3597 3500 
L 2059 -325 
z
" transform="scale(0.015625)"/>
       <path id="DejaVuSans-70" d="M 1159 525 
L 1159 -1331 
L 581 -1331 
L 581 3500 
L 1159 3500 
L 1159 2969 
Q 1341 3281 1617 3432 
Q 1894 3584 2278 3584 
Q 2916 3584 3314 3078 
Q 3713 2572 3713 1747 
Q 3713 922 3314 415 
Q 2916 -91 2278 -91 
Q 1894 -91 1617 61 
Q 1341 213 1159 525 
z
M 3116 1747 
Q 3116 2381 2855 2742 
Q 2594 3103 2138 3103 
Q 1681 3103 1420 2742 
Q 1159 2381 1159 1747 
Q 1159 1113 1420 752 
Q 1681 391 2138 391 
Q 2594 391 2855 752 
Q 3116 1113 3116 1747 
z
" transform="scale(0.015625)"/>
      </defs>
      <use xlink:href="#DejaVuSans-74"/>
      <use xlink:href="#DejaVuSans-72" x="39.208984"/>
      <use xlink:href="#DejaVuSans-75" x="80.322266"/>
      <use xlink:href="#DejaVuSans-65" x="143.701172"/>
      <use xlink:href="#DejaVuSans-20" x="205.224609"/>
      <use xlink:href="#DejaVuSans-68" x="237.011719"/>
      <use xlink:href="#DejaVuSans-6f" x="300.390625"/>
      <use xlink:href="#DejaVuSans-6d" x="361.572266"/>
      <use xlink:href="#DejaVuSans-65" x="458.984375"/>
      <use xlink:href="#DejaVuSans-6f" x="520.507812"/>
      <use xlink:href="#DejaVuSans-74" x="581.689453"/>
      <use xlink:href="#DejaVuSans-79" x="620.898438"/>
      <use xlink:href="#DejaVuSans-70" x="680.078125"/>
      <use xlink:href="#DejaVuSans-69" x="743.554688"/>
      <use xlink:href="#DejaVuSans-63" x="771.337891"/>
     </g>
    </g>
    <g id="patch_10">
     <path d="M 295.087188 87.426688 
L 315.087188 87.426688 
L 315.087188 80.426688 
L 295.087188 80.426688 
z
" style="fill: #ff0000"/>
    </g>
    <g id="text_17">
     <!-- false -->
     <g transform="translate(323.087188 87.426688) scale(0.1 -0.1)">
      <defs>
       <path id="DejaVuSans-61" d="M 2194 1759 
Q 1497 1759 1228 1600 
Q 959 1441 959 1056 
Q 959 750 1161 570 
Q 1363 391 1709 391 
Q 2188 391 2477 730 
Q 2766 1069 2766 1631 
L 2766 1759 
L 2194 1759 
z
M 3341 1997 
L 3341 0 
L 2766 0 
L 2766 531 
Q 2569 213 2275 61 
Q 1981 -91 1556 -91 
Q 1019 -91 701 211 
Q 384 513 384 1019 
Q 384 1609 779 1909 
Q 1175 2209 1959 2209 
L 2766 2209 
L 2766 2266 
Q 2766 2663 2505 2880 
Q 2244 3097 1772 3097 
Q 1472 3097 1187 3025 
Q 903 2953 641 2809 
L 641 3341 
Q 956 3463 1253 3523 
Q 1550 3584 1831 3584 
Q 2591 3584 2966 3190 
Q 3341 2797 3341 1997 
z
" transform="scale(0.015625)"/>
      </defs>
      <use xlink:href="#DejaVuSans-66"/>
      <use xlink:href="#DejaVuSans-61" x="35.205078"/>
      <use xlink:href="#DejaVuSans-6c" x="96.484375"/>
      <use xlink:href="#DejaVuSans-73" x="124.267578"/>
      <use xlink:href="#DejaVuSans-65" x="176.367188"/>
     </g>
    </g>
   </g>
  </g>
 </g>
 <defs>
  <clipPath id="p0af1756d81">
   <rect x="57.6" y="41.472" width="357.12" height="266.112"/>
  </clipPath>
 </defs>
</svg>
