<?xml version="1.0" encoding="utf-8" standalone="no"?>
<!DOCTYPE svg PUBLIC "-//W3C//DTD SVG 1.1//EN"
  "http://www.w3.org/Graphics/SVG/1.1/DTD/svg11.dtd">
<svg xmlns:xlink="http://www.w3.org/1999/xlink" width="343.891875pt" height="295.630125pt" viewBox="0 0 343.891875 295.630125" xmlns="http://www.w3.org/2000/svg" version="1.1">
 <metadata>
  <rdf:RDF xmlns:dc="http://purl.org/dc/elements/1.1/" xmlns:cc="http://creativecommons.org/ns#" xmlns:rdf="http://www.w3.org/1999/02/22-rdf-syntax-ns#">
   <cc:Work>
    <dc:type rdf:resource="http://purl.org/dc/dcmitype/StillImage"/>
    <dc:date>2024-07-25T00:42:58.213032</dc:date>
    <dc:format>image/svg+xml</dc:format>
    <dc:creator>
     <cc:Agent>
      <dc:title>Matplotlib v3.9.0, https://matplotlib.org/</dc:title>
     </cc:Agent>
    </dc:creator>
   </cc:Work>
  </rdf:RDF>
 </metadata>
 <defs>
  <style type="text/css">*{stroke-linejoin: round; stroke-linecap: butt}</style>
 </defs>
 <g id="figure_1">
  <g id="patch_1">
   <path d="M 0 295.630125 
L 343.891875 295.630125 
L 343.891875 0 
L 0 0 
L 0 295.630125 
z
" style="fill: none"/>
  </g>
  <g id="axes_1">
   <g id="patch_2">
    <path d="M 166.496038 53.194381 
C 154.242703 48.397714 141.10703 46.265661 127.965615 46.940504 
C 114.8242 47.615347 101.976019 51.081731 90.278486 57.108332 
C 78.580952 63.134933 68.300193 71.58464 60.122285 81.893569 
C 51.944377 92.202499 46.055374 104.136116 42.848273 116.89804 
C 39.641172 129.659964 39.188938 142.959853 41.521749 155.910151 
C 43.85456 168.860448 48.919343 181.166525 56.378105 192.007146 
C 63.836867 202.847768 73.519915 211.976302 84.781061 218.783564 
C 96.042206 225.590826 108.625249 229.921946 121.690471 231.48789 
C 112.695455 219.178087 107.103845 204.711098 105.481751 189.5516 
C 103.859657 174.392103 106.263733 159.069561 112.450584 145.135271 
C 111.329952 126.181151 115.870535 107.315147 125.492487 90.946502 
C 135.114439 74.577858 149.389965 61.434328 166.496038 53.194381 
" clip-path="url(#p6a9de55a9a)" style="fill: #00b4d8; opacity: 0.6"/>
   </g>
   <g id="patch_3">
    <path d="M 166.496038 53.194381 
C 176.86074 57.251727 186.410116 63.14355 194.685666 70.586962 
C 202.961217 78.030374 209.828342 86.90431 214.957328 96.782702 
C 226.437277 99.977609 237.136428 105.504755 246.385371 113.018325 
C 255.634314 120.531894 263.236049 129.87185 268.714963 140.453824 
C 274.193876 151.035798 277.433269 162.634397 278.230463 174.523937 
C 279.027656 186.413477 277.365672 198.340713 273.348493 209.5594 
C 290.108254 193.945036 300.722823 172.824704 303.25221 150.058497 
C 305.781596 127.29229 300.061707 104.357156 287.137948 85.444873 
C 274.214189 66.532591 254.924983 52.870086 232.795755 46.954409 
C 210.666527 41.038733 187.1329 43.253662 166.496038 53.194381 
" clip-path="url(#p6a9de55a9a)" style="fill: #caf0f8; opacity: 0.6"/>
   </g>
   <g id="patch_4">
    <path d="M 166.496038 53.194381 
C 149.389965 61.434328 135.114439 74.577858 125.492487 90.946502 
C 115.870535 107.315147 111.329952 126.181151 112.450584 145.135271 
C 120.891797 126.123609 135.898184 110.769597 154.711585 101.895291 
C 173.524986 93.020984 194.917545 91.205564 214.957328 96.782702 
C 209.828342 86.90431 202.961217 78.030374 194.685666 70.586962 
C 186.410116 63.14355 176.86074 57.251727 166.496038 53.194381 
" clip-path="url(#p6a9de55a9a)" style="fill: #8dffff; opacity: 0.6"/>
   </g>
   <g id="patch_5">
    <path d="M 121.690471 231.48789 
C 130.984353 244.206695 143.570551 254.155909 158.091425 260.262336 
C 172.612299 266.368764 188.526267 268.404655 204.116732 266.150403 
C 219.707197 263.896152 234.392684 257.435834 246.589108 247.466307 
C 258.785533 237.49678 268.038008 224.389875 273.348493 209.5594 
C 259.241616 222.702183 241.489582 231.283963 222.427243 234.176014 
C 203.364905 237.068065 183.866313 234.13778 166.496038 225.770567 
C 159.405616 228.54617 152.000038 230.437275 144.44695 231.401071 
C 136.893861 232.364868 129.250693 232.394027 121.690471 231.48789 
" clip-path="url(#p6a9de55a9a)" style="fill: #03045e; opacity: 0.6"/>
   </g>
   <g id="patch_6">
    <path d="M 121.690471 231.48789 
C 129.250693 232.394027 136.893861 232.364868 144.44695 231.401071 
C 152.000038 230.437275 159.405616 228.54617 166.496038 225.770567 
C 151.121564 218.364726 138.002192 206.982685 128.50103 192.807042 
C 118.999867 178.631399 113.457777 162.170719 112.450584 145.135271 
C 106.263733 159.069561 103.859657 174.392103 105.481751 189.5516 
C 107.103845 204.711098 112.695455 219.178087 121.690471 231.48789 
" clip-path="url(#p6a9de55a9a)" style="fill: #0281d9; opacity: 0.6"/>
   </g>
   <g id="patch_7">
    <path d="M 214.957328 96.782702 
C 220.944857 108.31464 224.440397 120.978069 225.216383 133.948573 
C 225.992368 146.919076 224.031585 159.90894 219.461685 172.072497 
C 214.891784 184.236054 207.814137 195.30349 198.689513 204.554292 
C 189.564889 213.805094 178.595691 221.03406 166.496038 225.770567 
C 183.866313 234.13778 203.364905 237.068065 222.427243 234.176014 
C 241.489582 231.283963 259.241616 222.702183 273.348493 209.5594 
C 277.365672 198.340713 279.027656 186.413477 278.230463 174.523937 
C 277.433269 162.634397 274.193876 151.035798 268.714963 140.453824 
C 263.236049 129.87185 255.634314 120.531894 246.385371 113.018325 
C 237.136428 105.504755 226.437277 99.977609 214.957328 96.782702 
" clip-path="url(#p6a9de55a9a)" style="fill: #8fabef; opacity: 0.6"/>
   </g>
   <g id="patch_8">
    <path d="M 112.450584 145.135271 
C 113.457777 162.170719 118.999867 178.631399 128.50103 192.807042 
C 138.002192 206.982685 151.121564 218.364726 166.496038 225.770567 
C 178.595691 221.03406 189.564889 213.805094 198.689513 204.554292 
C 207.814137 195.30349 214.891784 184.236054 219.461685 172.072497 
C 224.031585 159.90894 225.992368 146.919076 225.216383 133.948573 
C 224.440397 120.978069 220.944857 108.31464 214.957328 96.782702 
C 194.917545 91.205564 173.524986 93.020984 154.711585 101.895291 
C 135.898184 110.769597 120.891797 126.123609 112.450584 145.135271 
" clip-path="url(#p6a9de55a9a)" style="fill: #52aadf; opacity: 0.6"/>
   </g>
   <g id="text_1">
    <!-- 68 -->
    <g transform="translate(65.51459 127.756373) scale(0.1 -0.1)">
     <defs>
      <path id="DejaVuSans-36" d="M 2113 2584 
Q 1688 2584 1439 2293 
Q 1191 2003 1191 1497 
Q 1191 994 1439 701 
Q 1688 409 2113 409 
Q 2538 409 2786 701 
Q 3034 994 3034 1497 
Q 3034 2003 2786 2293 
Q 2538 2584 2113 2584 
z
M 3366 4563 
L 3366 3988 
Q 3128 4100 2886 4159 
Q 2644 4219 2406 4219 
Q 1781 4219 1451 3797 
Q 1122 3375 1075 2522 
Q 1259 2794 1537 2939 
Q 1816 3084 2150 3084 
Q 2853 3084 3261 2657 
Q 3669 2231 3669 1497 
Q 3669 778 3244 343 
Q 2819 -91 2113 -91 
Q 1303 -91 875 529 
Q 447 1150 447 2328 
Q 447 3434 972 4092 
Q 1497 4750 2381 4750 
Q 2619 4750 2861 4703 
Q 3103 4656 3366 4563 
z
" transform="scale(0.015625)"/>
      <path id="DejaVuSans-38" d="M 2034 2216 
Q 1584 2216 1326 1975 
Q 1069 1734 1069 1313 
Q 1069 891 1326 650 
Q 1584 409 2034 409 
Q 2484 409 2743 651 
Q 3003 894 3003 1313 
Q 3003 1734 2745 1975 
Q 2488 2216 2034 2216 
z
M 1403 2484 
Q 997 2584 770 2862 
Q 544 3141 544 3541 
Q 544 4100 942 4425 
Q 1341 4750 2034 4750 
Q 2731 4750 3128 4425 
Q 3525 4100 3525 3541 
Q 3525 3141 3298 2862 
Q 3072 2584 2669 2484 
Q 3125 2378 3379 2068 
Q 3634 1759 3634 1313 
Q 3634 634 3220 271 
Q 2806 -91 2034 -91 
Q 1263 -91 848 271 
Q 434 634 434 1313 
Q 434 1759 690 2068 
Q 947 2378 1403 2484 
z
M 1172 3481 
Q 1172 3119 1398 2916 
Q 1625 2713 2034 2713 
Q 2441 2713 2670 2916 
Q 2900 3119 2900 3481 
Q 2900 3844 2670 4047 
Q 2441 4250 2034 4250 
Q 1625 4250 1398 4047 
Q 1172 3844 1172 3481 
z
" transform="scale(0.015625)"/>
     </defs>
     <use xlink:href="#DejaVuSans-36"/>
     <use xlink:href="#DejaVuSans-38" x="63.623047"/>
    </g>
   </g>
   <g id="text_2">
    <!-- 47 -->
    <g transform="translate(262.183167 103.526273) scale(0.1 -0.1)">
     <defs>
      <path id="DejaVuSans-34" d="M 2419 4116 
L 825 1625 
L 2419 1625 
L 2419 4116 
z
M 2253 4666 
L 3047 4666 
L 3047 1625 
L 3713 1625 
L 3713 1100 
L 3047 1100 
L 3047 0 
L 2419 0 
L 2419 1100 
L 313 1100 
L 313 1709 
L 2253 4666 
z
" transform="scale(0.015625)"/>
      <path id="DejaVuSans-37" d="M 525 4666 
L 3525 4666 
L 3525 4397 
L 1831 0 
L 1172 0 
L 2766 4134 
L 525 4134 
L 525 4666 
z
" transform="scale(0.015625)"/>
     </defs>
     <use xlink:href="#DejaVuSans-34"/>
     <use xlink:href="#DejaVuSans-37" x="63.623047"/>
    </g>
   </g>
   <g id="text_3">
    <!-- 17 -->
    <g transform="translate(146.612088 93.995052) scale(0.1 -0.1)">
     <defs>
      <path id="DejaVuSans-31" d="M 794 531 
L 1825 531 
L 1825 4091 
L 703 3866 
L 703 4441 
L 1819 4666 
L 2450 4666 
L 2450 531 
L 3481 531 
L 3481 0 
L 794 0 
L 794 531 
z
" transform="scale(0.015625)"/>
     </defs>
     <use xlink:href="#DejaVuSans-31"/>
     <use xlink:href="#DejaVuSans-37" x="63.623047"/>
    </g>
   </g>
   <g id="text_4">
    <!-- 24 -->
    <g transform="translate(195.828683 254.538212) scale(0.1 -0.1)">
     <defs>
      <path id="DejaVuSans-32" d="M 1228 531 
L 3431 531 
L 3431 0 
L 469 0 
L 469 531 
Q 828 903 1448 1529 
Q 2069 2156 2228 2338 
Q 2531 2678 2651 2914 
Q 2772 3150 2772 3378 
Q 2772 3750 2511 3984 
Q 2250 4219 1831 4219 
Q 1534 4219 1204 4116 
Q 875 4013 500 3803 
L 500 4441 
Q 881 4594 1212 4672 
Q 1544 4750 1819 4750 
Q 2544 4750 2975 4387 
Q 3406 4025 3406 3419 
Q 3406 3131 3298 2873 
Q 3191 2616 2906 2266 
Q 2828 2175 2409 1742 
Q 1991 1309 1228 531 
z
" transform="scale(0.015625)"/>
     </defs>
     <use xlink:href="#DejaVuSans-32"/>
     <use xlink:href="#DejaVuSans-34" x="63.623047"/>
    </g>
   </g>
   <g id="text_5">
    <!-- 9 -->
    <g transform="translate(119.06321 201.552766) scale(0.1 -0.1)">
     <defs>
      <path id="DejaVuSans-39" d="M 703 97 
L 703 672 
Q 941 559 1184 500 
Q 1428 441 1663 441 
Q 2288 441 2617 861 
Q 2947 1281 2994 2138 
Q 2813 1869 2534 1725 
Q 2256 1581 1919 1581 
Q 1219 1581 811 2004 
Q 403 2428 403 3163 
Q 403 3881 828 4315 
Q 1253 4750 1959 4750 
Q 2769 4750 3195 4129 
Q 3622 3509 3622 2328 
Q 3622 1225 3098 567 
Q 2575 -91 1691 -91 
Q 1453 -91 1209 -44 
Q 966 3 703 97 
z
M 1959 2075 
Q 2384 2075 2632 2365 
Q 2881 2656 2881 3163 
Q 2881 3666 2632 3958 
Q 2384 4250 1959 4250 
Q 1534 4250 1286 3958 
Q 1038 3666 1038 3163 
Q 1038 2656 1286 2365 
Q 1534 2075 1959 2075 
z
" transform="scale(0.015625)"/>
     </defs>
     <use xlink:href="#DejaVuSans-39"/>
    </g>
   </g>
   <g id="text_6">
    <!-- 41 -->
    <g transform="translate(231.796788 179.8115) scale(0.1 -0.1)">
     <use xlink:href="#DejaVuSans-34"/>
     <use xlink:href="#DejaVuSans-31" x="63.623047"/>
    </g>
   </g>
   <g id="text_7">
    <!-- 67 -->
    <g transform="translate(167.730606 156.117887) scale(0.1 -0.1)">
     <use xlink:href="#DejaVuSans-36"/>
     <use xlink:href="#DejaVuSans-37" x="63.623047"/>
    </g>
   </g>
   <g id="text_8">
    <!-- R1 -->
    <g transform="translate(70.412784 46.818565) scale(0.12 -0.12)">
     <defs>
      <path id="DejaVuSans-52" d="M 2841 2188 
Q 3044 2119 3236 1894 
Q 3428 1669 3622 1275 
L 4263 0 
L 3584 0 
L 2988 1197 
Q 2756 1666 2539 1819 
Q 2322 1972 1947 1972 
L 1259 1972 
L 1259 0 
L 628 0 
L 628 4666 
L 2053 4666 
Q 2853 4666 3247 4331 
Q 3641 3997 3641 3322 
Q 3641 2881 3436 2590 
Q 3231 2300 2841 2188 
z
M 1259 4147 
L 1259 2491 
L 2053 2491 
Q 2509 2491 2742 2702 
Q 2975 2913 2975 3322 
Q 2975 3731 2742 3939 
Q 2509 4147 2053 4147 
L 1259 4147 
z
" transform="scale(0.015625)"/>
     </defs>
     <use xlink:href="#DejaVuSans-52"/>
     <use xlink:href="#DejaVuSans-31" x="69.482422"/>
    </g>
   </g>
   <g id="text_9">
    <!-- R2 -->
    <g transform="translate(255.949346 43.705325) scale(0.12 -0.12)">
     <use xlink:href="#DejaVuSans-52"/>
     <use xlink:href="#DejaVuSans-32" x="69.482422"/>
    </g>
   </g>
   <g id="text_10">
    <!-- R3 -->
    <g transform="translate(183.720577 284.832809) scale(0.12 -0.12)">
     <defs>
      <path id="DejaVuSans-33" d="M 2597 2516 
Q 3050 2419 3304 2112 
Q 3559 1806 3559 1356 
Q 3559 666 3084 287 
Q 2609 -91 1734 -91 
Q 1441 -91 1130 -33 
Q 819 25 488 141 
L 488 750 
Q 750 597 1062 519 
Q 1375 441 1716 441 
Q 2309 441 2620 675 
Q 2931 909 2931 1356 
Q 2931 1769 2642 2001 
Q 2353 2234 1838 2234 
L 1294 2234 
L 1294 2753 
L 1863 2753 
Q 2328 2753 2575 2939 
Q 2822 3125 2822 3475 
Q 2822 3834 2567 4026 
Q 2313 4219 1838 4219 
Q 1578 4219 1281 4162 
Q 984 4106 628 3988 
L 628 4550 
Q 988 4650 1302 4700 
Q 1616 4750 1894 4750 
Q 2613 4750 3031 4423 
Q 3450 4097 3450 3541 
Q 3450 3153 3228 2886 
Q 3006 2619 2597 2516 
z
" transform="scale(0.015625)"/>
     </defs>
     <use xlink:href="#DejaVuSans-52"/>
     <use xlink:href="#DejaVuSans-33" x="69.482422"/>
    </g>
   </g>
   <g id="text_11">
    <!-- Venn diagram of crosslinks using the filtered proteome -->
    <g transform="translate(7.2 16.318125) scale(0.12 -0.12)">
     <defs>
      <path id="DejaVuSans-56" d="M 1831 0 
L 50 4666 
L 709 4666 
L 2188 738 
L 3669 4666 
L 4325 4666 
L 2547 0 
L 1831 0 
z
" transform="scale(0.015625)"/>
      <path id="DejaVuSans-65" d="M 3597 1894 
L 3597 1613 
L 953 1613 
Q 991 1019 1311 708 
Q 1631 397 2203 397 
Q 2534 397 2845 478 
Q 3156 559 3463 722 
L 3463 178 
Q 3153 47 2828 -22 
Q 2503 -91 2169 -91 
Q 1331 -91 842 396 
Q 353 884 353 1716 
Q 353 2575 817 3079 
Q 1281 3584 2069 3584 
Q 2775 3584 3186 3129 
Q 3597 2675 3597 1894 
z
M 3022 2063 
Q 3016 2534 2758 2815 
Q 2500 3097 2075 3097 
Q 1594 3097 1305 2825 
Q 1016 2553 972 2059 
L 3022 2063 
z
" transform="scale(0.015625)"/>
      <path id="DejaVuSans-6e" d="M 3513 2113 
L 3513 0 
L 2938 0 
L 2938 2094 
Q 2938 2591 2744 2837 
Q 2550 3084 2163 3084 
Q 1697 3084 1428 2787 
Q 1159 2491 1159 1978 
L 1159 0 
L 581 0 
L 581 3500 
L 1159 3500 
L 1159 2956 
Q 1366 3272 1645 3428 
Q 1925 3584 2291 3584 
Q 2894 3584 3203 3211 
Q 3513 2838 3513 2113 
z
" transform="scale(0.015625)"/>
      <path id="DejaVuSans-20" transform="scale(0.015625)"/>
      <path id="DejaVuSans-64" d="M 2906 2969 
L 2906 4863 
L 3481 4863 
L 3481 0 
L 2906 0 
L 2906 525 
Q 2725 213 2448 61 
Q 2172 -91 1784 -91 
Q 1150 -91 751 415 
Q 353 922 353 1747 
Q 353 2572 751 3078 
Q 1150 3584 1784 3584 
Q 2172 3584 2448 3432 
Q 2725 3281 2906 2969 
z
M 947 1747 
Q 947 1113 1208 752 
Q 1469 391 1925 391 
Q 2381 391 2643 752 
Q 2906 1113 2906 1747 
Q 2906 2381 2643 2742 
Q 2381 3103 1925 3103 
Q 1469 3103 1208 2742 
Q 947 2381 947 1747 
z
" transform="scale(0.015625)"/>
      <path id="DejaVuSans-69" d="M 603 3500 
L 1178 3500 
L 1178 0 
L 603 0 
L 603 3500 
z
M 603 4863 
L 1178 4863 
L 1178 4134 
L 603 4134 
L 603 4863 
z
" transform="scale(0.015625)"/>
      <path id="DejaVuSans-61" d="M 2194 1759 
Q 1497 1759 1228 1600 
Q 959 1441 959 1056 
Q 959 750 1161 570 
Q 1363 391 1709 391 
Q 2188 391 2477 730 
Q 2766 1069 2766 1631 
L 2766 1759 
L 2194 1759 
z
M 3341 1997 
L 3341 0 
L 2766 0 
L 2766 531 
Q 2569 213 2275 61 
Q 1981 -91 1556 -91 
Q 1019 -91 701 211 
Q 384 513 384 1019 
Q 384 1609 779 1909 
Q 1175 2209 1959 2209 
L 2766 2209 
L 2766 2266 
Q 2766 2663 2505 2880 
Q 2244 3097 1772 3097 
Q 1472 3097 1187 3025 
Q 903 2953 641 2809 
L 641 3341 
Q 956 3463 1253 3523 
Q 1550 3584 1831 3584 
Q 2591 3584 2966 3190 
Q 3341 2797 3341 1997 
z
" transform="scale(0.015625)"/>
      <path id="DejaVuSans-67" d="M 2906 1791 
Q 2906 2416 2648 2759 
Q 2391 3103 1925 3103 
Q 1463 3103 1205 2759 
Q 947 2416 947 1791 
Q 947 1169 1205 825 
Q 1463 481 1925 481 
Q 2391 481 2648 825 
Q 2906 1169 2906 1791 
z
M 3481 434 
Q 3481 -459 3084 -895 
Q 2688 -1331 1869 -1331 
Q 1566 -1331 1297 -1286 
Q 1028 -1241 775 -1147 
L 775 -588 
Q 1028 -725 1275 -790 
Q 1522 -856 1778 -856 
Q 2344 -856 2625 -561 
Q 2906 -266 2906 331 
L 2906 616 
Q 2728 306 2450 153 
Q 2172 0 1784 0 
Q 1141 0 747 490 
Q 353 981 353 1791 
Q 353 2603 747 3093 
Q 1141 3584 1784 3584 
Q 2172 3584 2450 3431 
Q 2728 3278 2906 2969 
L 2906 3500 
L 3481 3500 
L 3481 434 
z
" transform="scale(0.015625)"/>
      <path id="DejaVuSans-72" d="M 2631 2963 
Q 2534 3019 2420 3045 
Q 2306 3072 2169 3072 
Q 1681 3072 1420 2755 
Q 1159 2438 1159 1844 
L 1159 0 
L 581 0 
L 581 3500 
L 1159 3500 
L 1159 2956 
Q 1341 3275 1631 3429 
Q 1922 3584 2338 3584 
Q 2397 3584 2469 3576 
Q 2541 3569 2628 3553 
L 2631 2963 
z
" transform="scale(0.015625)"/>
      <path id="DejaVuSans-6d" d="M 3328 2828 
Q 3544 3216 3844 3400 
Q 4144 3584 4550 3584 
Q 5097 3584 5394 3201 
Q 5691 2819 5691 2113 
L 5691 0 
L 5113 0 
L 5113 2094 
Q 5113 2597 4934 2840 
Q 4756 3084 4391 3084 
Q 3944 3084 3684 2787 
Q 3425 2491 3425 1978 
L 3425 0 
L 2847 0 
L 2847 2094 
Q 2847 2600 2669 2842 
Q 2491 3084 2119 3084 
Q 1678 3084 1418 2786 
Q 1159 2488 1159 1978 
L 1159 0 
L 581 0 
L 581 3500 
L 1159 3500 
L 1159 2956 
Q 1356 3278 1631 3431 
Q 1906 3584 2284 3584 
Q 2666 3584 2933 3390 
Q 3200 3197 3328 2828 
z
" transform="scale(0.015625)"/>
      <path id="DejaVuSans-6f" d="M 1959 3097 
Q 1497 3097 1228 2736 
Q 959 2375 959 1747 
Q 959 1119 1226 758 
Q 1494 397 1959 397 
Q 2419 397 2687 759 
Q 2956 1122 2956 1747 
Q 2956 2369 2687 2733 
Q 2419 3097 1959 3097 
z
M 1959 3584 
Q 2709 3584 3137 3096 
Q 3566 2609 3566 1747 
Q 3566 888 3137 398 
Q 2709 -91 1959 -91 
Q 1206 -91 779 398 
Q 353 888 353 1747 
Q 353 2609 779 3096 
Q 1206 3584 1959 3584 
z
" transform="scale(0.015625)"/>
      <path id="DejaVuSans-66" d="M 2375 4863 
L 2375 4384 
L 1825 4384 
Q 1516 4384 1395 4259 
Q 1275 4134 1275 3809 
L 1275 3500 
L 2222 3500 
L 2222 3053 
L 1275 3053 
L 1275 0 
L 697 0 
L 697 3053 
L 147 3053 
L 147 3500 
L 697 3500 
L 697 3744 
Q 697 4328 969 4595 
Q 1241 4863 1831 4863 
L 2375 4863 
z
" transform="scale(0.015625)"/>
      <path id="DejaVuSans-63" d="M 3122 3366 
L 3122 2828 
Q 2878 2963 2633 3030 
Q 2388 3097 2138 3097 
Q 1578 3097 1268 2742 
Q 959 2388 959 1747 
Q 959 1106 1268 751 
Q 1578 397 2138 397 
Q 2388 397 2633 464 
Q 2878 531 3122 666 
L 3122 134 
Q 2881 22 2623 -34 
Q 2366 -91 2075 -91 
Q 1284 -91 818 406 
Q 353 903 353 1747 
Q 353 2603 823 3093 
Q 1294 3584 2113 3584 
Q 2378 3584 2631 3529 
Q 2884 3475 3122 3366 
z
" transform="scale(0.015625)"/>
      <path id="DejaVuSans-73" d="M 2834 3397 
L 2834 2853 
Q 2591 2978 2328 3040 
Q 2066 3103 1784 3103 
Q 1356 3103 1142 2972 
Q 928 2841 928 2578 
Q 928 2378 1081 2264 
Q 1234 2150 1697 2047 
L 1894 2003 
Q 2506 1872 2764 1633 
Q 3022 1394 3022 966 
Q 3022 478 2636 193 
Q 2250 -91 1575 -91 
Q 1294 -91 989 -36 
Q 684 19 347 128 
L 347 722 
Q 666 556 975 473 
Q 1284 391 1588 391 
Q 1994 391 2212 530 
Q 2431 669 2431 922 
Q 2431 1156 2273 1281 
Q 2116 1406 1581 1522 
L 1381 1569 
Q 847 1681 609 1914 
Q 372 2147 372 2553 
Q 372 3047 722 3315 
Q 1072 3584 1716 3584 
Q 2034 3584 2315 3537 
Q 2597 3491 2834 3397 
z
" transform="scale(0.015625)"/>
      <path id="DejaVuSans-6c" d="M 603 4863 
L 1178 4863 
L 1178 0 
L 603 0 
L 603 4863 
z
" transform="scale(0.015625)"/>
      <path id="DejaVuSans-6b" d="M 581 4863 
L 1159 4863 
L 1159 1991 
L 2875 3500 
L 3609 3500 
L 1753 1863 
L 3688 0 
L 2938 0 
L 1159 1709 
L 1159 0 
L 581 0 
L 581 4863 
z
" transform="scale(0.015625)"/>
      <path id="DejaVuSans-75" d="M 544 1381 
L 544 3500 
L 1119 3500 
L 1119 1403 
Q 1119 906 1312 657 
Q 1506 409 1894 409 
Q 2359 409 2629 706 
Q 2900 1003 2900 1516 
L 2900 3500 
L 3475 3500 
L 3475 0 
L 2900 0 
L 2900 538 
Q 2691 219 2414 64 
Q 2138 -91 1772 -91 
Q 1169 -91 856 284 
Q 544 659 544 1381 
z
M 1991 3584 
L 1991 3584 
z
" transform="scale(0.015625)"/>
      <path id="DejaVuSans-74" d="M 1172 4494 
L 1172 3500 
L 2356 3500 
L 2356 3053 
L 1172 3053 
L 1172 1153 
Q 1172 725 1289 603 
Q 1406 481 1766 481 
L 2356 481 
L 2356 0 
L 1766 0 
Q 1100 0 847 248 
Q 594 497 594 1153 
L 594 3053 
L 172 3053 
L 172 3500 
L 594 3500 
L 594 4494 
L 1172 4494 
z
" transform="scale(0.015625)"/>
      <path id="DejaVuSans-68" d="M 3513 2113 
L 3513 0 
L 2938 0 
L 2938 2094 
Q 2938 2591 2744 2837 
Q 2550 3084 2163 3084 
Q 1697 3084 1428 2787 
Q 1159 2491 1159 1978 
L 1159 0 
L 581 0 
L 581 4863 
L 1159 4863 
L 1159 2956 
Q 1366 3272 1645 3428 
Q 1925 3584 2291 3584 
Q 2894 3584 3203 3211 
Q 3513 2838 3513 2113 
z
" transform="scale(0.015625)"/>
      <path id="DejaVuSans-70" d="M 1159 525 
L 1159 -1331 
L 581 -1331 
L 581 3500 
L 1159 3500 
L 1159 2969 
Q 1341 3281 1617 3432 
Q 1894 3584 2278 3584 
Q 2916 3584 3314 3078 
Q 3713 2572 3713 1747 
Q 3713 922 3314 415 
Q 2916 -91 2278 -91 
Q 1894 -91 1617 61 
Q 1341 213 1159 525 
z
M 3116 1747 
Q 3116 2381 2855 2742 
Q 2594 3103 2138 3103 
Q 1681 3103 1420 2742 
Q 1159 2381 1159 1747 
Q 1159 1113 1420 752 
Q 1681 391 2138 391 
Q 2594 391 2855 752 
Q 3116 1113 3116 1747 
z
" transform="scale(0.015625)"/>
     </defs>
     <use xlink:href="#DejaVuSans-56"/>
     <use xlink:href="#DejaVuSans-65" x="60.658203"/>
     <use xlink:href="#DejaVuSans-6e" x="122.181641"/>
     <use xlink:href="#DejaVuSans-6e" x="185.560547"/>
     <use xlink:href="#DejaVuSans-20" x="248.939453"/>
     <use xlink:href="#DejaVuSans-64" x="280.726562"/>
     <use xlink:href="#DejaVuSans-69" x="344.203125"/>
     <use xlink:href="#DejaVuSans-61" x="371.986328"/>
     <use xlink:href="#DejaVuSans-67" x="433.265625"/>
     <use xlink:href="#DejaVuSans-72" x="496.742188"/>
     <use xlink:href="#DejaVuSans-61" x="537.855469"/>
     <use xlink:href="#DejaVuSans-6d" x="599.134766"/>
     <use xlink:href="#DejaVuSans-20" x="696.546875"/>
     <use xlink:href="#DejaVuSans-6f" x="728.333984"/>
     <use xlink:href="#DejaVuSans-66" x="789.515625"/>
     <use xlink:href="#DejaVuSans-20" x="824.720703"/>
     <use xlink:href="#DejaVuSans-63" x="856.507812"/>
     <use xlink:href="#DejaVuSans-72" x="911.488281"/>
     <use xlink:href="#DejaVuSans-6f" x="950.351562"/>
     <use xlink:href="#DejaVuSans-73" x="1011.533203"/>
     <use xlink:href="#DejaVuSans-73" x="1063.632812"/>
     <use xlink:href="#DejaVuSans-6c" x="1115.732422"/>
     <use xlink:href="#DejaVuSans-69" x="1143.515625"/>
     <use xlink:href="#DejaVuSans-6e" x="1171.298828"/>
     <use xlink:href="#DejaVuSans-6b" x="1234.677734"/>
     <use xlink:href="#DejaVuSans-73" x="1292.587891"/>
     <use xlink:href="#DejaVuSans-20" x="1344.6875"/>
     <use xlink:href="#DejaVuSans-75" x="1376.474609"/>
     <use xlink:href="#DejaVuSans-73" x="1439.853516"/>
     <use xlink:href="#DejaVuSans-69" x="1491.953125"/>
     <use xlink:href="#DejaVuSans-6e" x="1519.736328"/>
     <use xlink:href="#DejaVuSans-67" x="1583.115234"/>
     <use xlink:href="#DejaVuSans-20" x="1646.591797"/>
     <use xlink:href="#DejaVuSans-74" x="1678.378906"/>
     <use xlink:href="#DejaVuSans-68" x="1717.587891"/>
     <use xlink:href="#DejaVuSans-65" x="1780.966797"/>
     <use xlink:href="#DejaVuSans-20" x="1842.490234"/>
     <use xlink:href="#DejaVuSans-66" x="1874.277344"/>
     <use xlink:href="#DejaVuSans-69" x="1909.482422"/>
     <use xlink:href="#DejaVuSans-6c" x="1937.265625"/>
     <use xlink:href="#DejaVuSans-74" x="1965.048828"/>
     <use xlink:href="#DejaVuSans-65" x="2004.257812"/>
     <use xlink:href="#DejaVuSans-72" x="2065.78125"/>
     <use xlink:href="#DejaVuSans-65" x="2104.644531"/>
     <use xlink:href="#DejaVuSans-64" x="2166.167969"/>
     <use xlink:href="#DejaVuSans-20" x="2229.644531"/>
     <use xlink:href="#DejaVuSans-70" x="2261.431641"/>
     <use xlink:href="#DejaVuSans-72" x="2324.908203"/>
     <use xlink:href="#DejaVuSans-6f" x="2363.771484"/>
     <use xlink:href="#DejaVuSans-74" x="2424.953125"/>
     <use xlink:href="#DejaVuSans-65" x="2464.162109"/>
     <use xlink:href="#DejaVuSans-6f" x="2525.685547"/>
     <use xlink:href="#DejaVuSans-6d" x="2586.867188"/>
     <use xlink:href="#DejaVuSans-65" x="2684.279297"/>
    </g>
   </g>
  </g>
 </g>
 <defs>
  <clipPath id="p6a9de55a9a">
   <rect x="18.666755" y="22.318125" width="306.558366" height="266.112"/>
  </clipPath>
 </defs>
</svg>
