<?xml version="1.0" encoding="utf-8" standalone="no"?>
<!DOCTYPE svg PUBLIC "-//W3C//DTD SVG 1.1//EN"
  "http://www.w3.org/Graphics/SVG/1.1/DTD/svg11.dtd">
<svg xmlns:xlink="http://www.w3.org/1999/xlink" width="320.958366pt" height="280.512pt" viewBox="0 0 320.958366 280.512" xmlns="http://www.w3.org/2000/svg" version="1.1">
 <metadata>
  <rdf:RDF xmlns:dc="http://purl.org/dc/elements/1.1/" xmlns:cc="http://creativecommons.org/ns#" xmlns:rdf="http://www.w3.org/1999/02/22-rdf-syntax-ns#">
   <cc:Work>
    <dc:type rdf:resource="http://purl.org/dc/dcmitype/StillImage"/>
    <dc:date>2024-07-25T00:42:58.079514</dc:date>
    <dc:format>image/svg+xml</dc:format>
    <dc:creator>
     <cc:Agent>
      <dc:title>Matplotlib v3.9.0, https://matplotlib.org/</dc:title>
     </cc:Agent>
    </dc:creator>
   </cc:Work>
  </rdf:RDF>
 </metadata>
 <defs>
  <style type="text/css">*{stroke-linejoin: round; stroke-linecap: butt}</style>
 </defs>
 <g id="figure_1">
  <g id="patch_1">
   <path d="M 0 280.512 
L 320.958366 280.512 
L 320.958366 0 
L 0 0 
L 0 280.512 
z
" style="fill: none"/>
  </g>
  <g id="axes_1">
   <g id="patch_2">
    <path d="M 155.029283 38.076256 
C 142.775949 33.279589 129.640276 31.147536 116.49886 31.822379 
C 103.357445 32.497222 90.509265 35.963606 78.811731 41.990207 
C 67.114197 48.016808 56.833438 56.466515 48.65553 66.775444 
C 40.477622 77.084374 34.588619 89.017991 31.381518 101.779915 
C 28.174418 114.541839 27.722183 127.841728 30.054994 140.792026 
C 32.387805 153.742323 37.452588 166.0484 44.91135 176.889021 
C 52.370113 187.729643 62.053161 196.858177 73.314306 203.665439 
C 84.575452 210.472701 97.158494 214.803821 110.223716 216.369765 
C 101.2287 204.059962 95.63709 189.592973 94.014997 174.433475 
C 92.392903 159.273978 94.796979 143.951436 100.983829 130.017146 
C 99.863198 111.063026 104.403781 92.197022 114.025733 75.828377 
C 123.647684 59.459733 137.92321 46.316203 155.029283 38.076256 
" clip-path="url(#pe5dfa16ec9)" style="fill: #00b4d8; opacity: 0.6"/>
   </g>
   <g id="patch_3">
    <path d="M 155.029283 38.076256 
C 165.393985 42.133602 174.943361 48.025425 183.218912 55.468837 
C 191.494462 62.912249 198.361588 71.786185 203.490574 81.664577 
C 214.970523 84.859484 225.669673 90.38663 234.918616 97.9002 
C 244.167559 105.413769 251.769294 114.753725 257.248208 125.335699 
C 262.727122 135.917673 265.966514 147.516272 266.763708 159.405812 
C 267.560902 171.295352 265.898917 183.222588 261.881738 194.441275 
C 278.6415 178.826911 289.256069 157.706579 291.785455 134.940372 
C 294.314842 112.174165 288.594953 89.239031 275.671194 70.326748 
C 262.747435 51.414466 243.458229 37.751961 221.329001 31.836284 
C 199.199772 25.920608 175.666145 28.135537 155.029283 38.076256 
" clip-path="url(#pe5dfa16ec9)" style="fill: #caf0f8; opacity: 0.6"/>
   </g>
   <g id="patch_4">
    <path d="M 155.029283 38.076256 
C 137.92321 46.316203 123.647684 59.459733 114.025733 75.828377 
C 104.403781 92.197022 99.863198 111.063026 100.983829 130.017146 
C 109.425042 111.005484 124.43143 95.651472 143.244831 86.777166 
C 162.058232 77.902859 183.450791 76.087439 203.490574 81.664577 
C 198.361588 71.786185 191.494462 62.912249 183.218912 55.468837 
C 174.943361 48.025425 165.393985 42.133602 155.029283 38.076256 
" clip-path="url(#pe5dfa16ec9)" style="fill: #8dffff; opacity: 0.6"/>
   </g>
   <g id="patch_5">
    <path d="M 110.223716 216.369765 
C 119.517598 229.08857 132.103796 239.037784 146.62467 245.144211 
C 161.145544 251.250639 177.059513 253.28653 192.649977 251.032278 
C 208.240442 248.778027 222.925929 242.317709 235.122354 232.348182 
C 247.318778 222.378655 256.571253 209.27175 261.881738 194.441275 
C 247.774862 207.584058 230.022827 216.165838 210.960489 219.057889 
C 191.89815 221.94994 172.399558 219.019655 155.029283 210.652442 
C 147.938862 213.428045 140.533283 215.31915 132.980195 216.282946 
C 125.427107 217.246743 117.783938 217.275902 110.223716 216.369765 
" clip-path="url(#pe5dfa16ec9)" style="fill: #03045e; opacity: 0.6"/>
   </g>
   <g id="patch_6">
    <path d="M 110.223716 216.369765 
C 117.783938 217.275902 125.427107 217.246743 132.980195 216.282946 
C 140.533283 215.31915 147.938862 213.428045 155.029283 210.652442 
C 139.654809 203.246601 126.535438 191.86456 117.034275 177.688917 
C 107.533113 163.513274 101.991023 147.052594 100.983829 130.017146 
C 94.796979 143.951436 92.392903 159.273978 94.014997 174.433475 
C 95.63709 189.592973 101.2287 204.059962 110.223716 216.369765 
" clip-path="url(#pe5dfa16ec9)" style="fill: #0281d9; opacity: 0.6"/>
   </g>
   <g id="patch_7">
    <path d="M 203.490574 81.664577 
C 209.478102 93.196515 212.973643 105.859944 213.749628 118.830448 
C 214.525613 131.800951 212.56483 144.790815 207.99493 156.954372 
C 203.42503 169.117929 196.347383 180.185365 187.222758 189.436167 
C 178.098134 198.686969 167.128936 205.915935 155.029283 210.652442 
C 172.399558 219.019655 191.89815 221.94994 210.960489 219.057889 
C 230.022827 216.165838 247.774862 207.584058 261.881738 194.441275 
C 265.898917 183.222588 267.560902 171.295352 266.763708 159.405812 
C 265.966514 147.516272 262.727122 135.917673 257.248208 125.335699 
C 251.769294 114.753725 244.167559 105.413769 234.918616 97.9002 
C 225.669673 90.38663 214.970523 84.859484 203.490574 81.664577 
" clip-path="url(#pe5dfa16ec9)" style="fill: #8fabef; opacity: 0.6"/>
   </g>
   <g id="patch_8">
    <path d="M 100.983829 130.017146 
C 101.991023 147.052594 107.533113 163.513274 117.034275 177.688917 
C 126.535438 191.86456 139.654809 203.246601 155.029283 210.652442 
C 167.128936 205.915935 178.098134 198.686969 187.222758 189.436167 
C 196.347383 180.185365 203.42503 169.117929 207.99493 156.954372 
C 212.56483 144.790815 214.525613 131.800951 213.749628 118.830448 
C 212.973643 105.859944 209.478102 93.196515 203.490574 81.664577 
C 183.450791 76.087439 162.058232 77.902859 143.244831 86.777166 
C 124.43143 95.651472 109.425042 111.005484 100.983829 130.017146 
" clip-path="url(#pe5dfa16ec9)" style="fill: #52aadf; opacity: 0.6"/>
   </g>
   <g id="text_1">
    <!-- 68 -->
    <g transform="translate(54.047836 112.638248) scale(0.1 -0.1)">
     <defs>
      <path id="DejaVuSans-36" d="M 2113 2584 
Q 1688 2584 1439 2293 
Q 1191 2003 1191 1497 
Q 1191 994 1439 701 
Q 1688 409 2113 409 
Q 2538 409 2786 701 
Q 3034 994 3034 1497 
Q 3034 2003 2786 2293 
Q 2538 2584 2113 2584 
z
M 3366 4563 
L 3366 3988 
Q 3128 4100 2886 4159 
Q 2644 4219 2406 4219 
Q 1781 4219 1451 3797 
Q 1122 3375 1075 2522 
Q 1259 2794 1537 2939 
Q 1816 3084 2150 3084 
Q 2853 3084 3261 2657 
Q 3669 2231 3669 1497 
Q 3669 778 3244 343 
Q 2819 -91 2113 -91 
Q 1303 -91 875 529 
Q 447 1150 447 2328 
Q 447 3434 972 4092 
Q 1497 4750 2381 4750 
Q 2619 4750 2861 4703 
Q 3103 4656 3366 4563 
z
" transform="scale(0.015625)"/>
      <path id="DejaVuSans-38" d="M 2034 2216 
Q 1584 2216 1326 1975 
Q 1069 1734 1069 1313 
Q 1069 891 1326 650 
Q 1584 409 2034 409 
Q 2484 409 2743 651 
Q 3003 894 3003 1313 
Q 3003 1734 2745 1975 
Q 2488 2216 2034 2216 
z
M 1403 2484 
Q 997 2584 770 2862 
Q 544 3141 544 3541 
Q 544 4100 942 4425 
Q 1341 4750 2034 4750 
Q 2731 4750 3128 4425 
Q 3525 4100 3525 3541 
Q 3525 3141 3298 2862 
Q 3072 2584 2669 2484 
Q 3125 2378 3379 2068 
Q 3634 1759 3634 1313 
Q 3634 634 3220 271 
Q 2806 -91 2034 -91 
Q 1263 -91 848 271 
Q 434 634 434 1313 
Q 434 1759 690 2068 
Q 947 2378 1403 2484 
z
M 1172 3481 
Q 1172 3119 1398 2916 
Q 1625 2713 2034 2713 
Q 2441 2713 2670 2916 
Q 2900 3119 2900 3481 
Q 2900 3844 2670 4047 
Q 2441 4250 2034 4250 
Q 1625 4250 1398 4047 
Q 1172 3844 1172 3481 
z
" transform="scale(0.015625)"/>
     </defs>
     <use xlink:href="#DejaVuSans-36"/>
     <use xlink:href="#DejaVuSans-38" x="63.623047"/>
    </g>
   </g>
   <g id="text_2">
    <!-- 47 -->
    <g transform="translate(250.716412 88.408148) scale(0.1 -0.1)">
     <defs>
      <path id="DejaVuSans-34" d="M 2419 4116 
L 825 1625 
L 2419 1625 
L 2419 4116 
z
M 2253 4666 
L 3047 4666 
L 3047 1625 
L 3713 1625 
L 3713 1100 
L 3047 1100 
L 3047 0 
L 2419 0 
L 2419 1100 
L 313 1100 
L 313 1709 
L 2253 4666 
z
" transform="scale(0.015625)"/>
      <path id="DejaVuSans-37" d="M 525 4666 
L 3525 4666 
L 3525 4397 
L 1831 0 
L 1172 0 
L 2766 4134 
L 525 4134 
L 525 4666 
z
" transform="scale(0.015625)"/>
     </defs>
     <use xlink:href="#DejaVuSans-34"/>
     <use xlink:href="#DejaVuSans-37" x="63.623047"/>
    </g>
   </g>
   <g id="text_3">
    <!-- 17 -->
    <g transform="translate(135.145334 78.876927) scale(0.1 -0.1)">
     <defs>
      <path id="DejaVuSans-31" d="M 794 531 
L 1825 531 
L 1825 4091 
L 703 3866 
L 703 4441 
L 1819 4666 
L 2450 4666 
L 2450 531 
L 3481 531 
L 3481 0 
L 794 0 
L 794 531 
z
" transform="scale(0.015625)"/>
     </defs>
     <use xlink:href="#DejaVuSans-31"/>
     <use xlink:href="#DejaVuSans-37" x="63.623047"/>
    </g>
   </g>
   <g id="text_4">
    <!-- 24 -->
    <g transform="translate(184.361928 239.420087) scale(0.1 -0.1)">
     <defs>
      <path id="DejaVuSans-32" d="M 1228 531 
L 3431 531 
L 3431 0 
L 469 0 
L 469 531 
Q 828 903 1448 1529 
Q 2069 2156 2228 2338 
Q 2531 2678 2651 2914 
Q 2772 3150 2772 3378 
Q 2772 3750 2511 3984 
Q 2250 4219 1831 4219 
Q 1534 4219 1204 4116 
Q 875 4013 500 3803 
L 500 4441 
Q 881 4594 1212 4672 
Q 1544 4750 1819 4750 
Q 2544 4750 2975 4387 
Q 3406 4025 3406 3419 
Q 3406 3131 3298 2873 
Q 3191 2616 2906 2266 
Q 2828 2175 2409 1742 
Q 1991 1309 1228 531 
z
" transform="scale(0.015625)"/>
     </defs>
     <use xlink:href="#DejaVuSans-32"/>
     <use xlink:href="#DejaVuSans-34" x="63.623047"/>
    </g>
   </g>
   <g id="text_5">
    <!-- 9 -->
    <g transform="translate(107.596455 186.434641) scale(0.1 -0.1)">
     <defs>
      <path id="DejaVuSans-39" d="M 703 97 
L 703 672 
Q 941 559 1184 500 
Q 1428 441 1663 441 
Q 2288 441 2617 861 
Q 2947 1281 2994 2138 
Q 2813 1869 2534 1725 
Q 2256 1581 1919 1581 
Q 1219 1581 811 2004 
Q 403 2428 403 3163 
Q 403 3881 828 4315 
Q 1253 4750 1959 4750 
Q 2769 4750 3195 4129 
Q 3622 3509 3622 2328 
Q 3622 1225 3098 567 
Q 2575 -91 1691 -91 
Q 1453 -91 1209 -44 
Q 966 3 703 97 
z
M 1959 2075 
Q 2384 2075 2632 2365 
Q 2881 2656 2881 3163 
Q 2881 3666 2632 3958 
Q 2384 4250 1959 4250 
Q 1534 4250 1286 3958 
Q 1038 3666 1038 3163 
Q 1038 2656 1286 2365 
Q 1534 2075 1959 2075 
z
" transform="scale(0.015625)"/>
     </defs>
     <use xlink:href="#DejaVuSans-39"/>
    </g>
   </g>
   <g id="text_6">
    <!-- 41 -->
    <g transform="translate(220.330033 164.693375) scale(0.1 -0.1)">
     <use xlink:href="#DejaVuSans-34"/>
     <use xlink:href="#DejaVuSans-31" x="63.623047"/>
    </g>
   </g>
   <g id="text_7">
    <!-- 67 -->
    <g transform="translate(156.263851 140.999762) scale(0.1 -0.1)">
     <use xlink:href="#DejaVuSans-36"/>
     <use xlink:href="#DejaVuSans-37" x="63.623047"/>
    </g>
   </g>
   <g id="text_8">
    <!-- R1 -->
    <g transform="translate(58.94603 31.70044) scale(0.12 -0.12)">
     <defs>
      <path id="DejaVuSans-52" d="M 2841 2188 
Q 3044 2119 3236 1894 
Q 3428 1669 3622 1275 
L 4263 0 
L 3584 0 
L 2988 1197 
Q 2756 1666 2539 1819 
Q 2322 1972 1947 1972 
L 1259 1972 
L 1259 0 
L 628 0 
L 628 4666 
L 2053 4666 
Q 2853 4666 3247 4331 
Q 3641 3997 3641 3322 
Q 3641 2881 3436 2590 
Q 3231 2300 2841 2188 
z
M 1259 4147 
L 1259 2491 
L 2053 2491 
Q 2509 2491 2742 2702 
Q 2975 2913 2975 3322 
Q 2975 3731 2742 3939 
Q 2509 4147 2053 4147 
L 1259 4147 
z
" transform="scale(0.015625)"/>
     </defs>
     <use xlink:href="#DejaVuSans-52"/>
     <use xlink:href="#DejaVuSans-31" x="69.482422"/>
    </g>
   </g>
   <g id="text_9">
    <!-- R2 -->
    <g transform="translate(244.482591 28.5872) scale(0.12 -0.12)">
     <use xlink:href="#DejaVuSans-52"/>
     <use xlink:href="#DejaVuSans-32" x="69.482422"/>
    </g>
   </g>
   <g id="text_10">
    <!-- R3 -->
    <g transform="translate(172.253822 269.714684) scale(0.12 -0.12)">
     <defs>
      <path id="DejaVuSans-33" d="M 2597 2516 
Q 3050 2419 3304 2112 
Q 3559 1806 3559 1356 
Q 3559 666 3084 287 
Q 2609 -91 1734 -91 
Q 1441 -91 1130 -33 
Q 819 25 488 141 
L 488 750 
Q 750 597 1062 519 
Q 1375 441 1716 441 
Q 2309 441 2620 675 
Q 2931 909 2931 1356 
Q 2931 1769 2642 2001 
Q 2353 2234 1838 2234 
L 1294 2234 
L 1294 2753 
L 1863 2753 
Q 2328 2753 2575 2939 
Q 2822 3125 2822 3475 
Q 2822 3834 2567 4026 
Q 2313 4219 1838 4219 
Q 1578 4219 1281 4162 
Q 984 4106 628 3988 
L 628 4550 
Q 988 4650 1302 4700 
Q 1616 4750 1894 4750 
Q 2613 4750 3031 4423 
Q 3450 4097 3450 3541 
Q 3450 3153 3228 2886 
Q 3006 2619 2597 2516 
z
" transform="scale(0.015625)"/>
     </defs>
     <use xlink:href="#DejaVuSans-52"/>
     <use xlink:href="#DejaVuSans-33" x="69.482422"/>
    </g>
   </g>
  </g>
 </g>
 <defs>
  <clipPath id="pe5dfa16ec9">
   <rect x="7.2" y="7.2" width="306.558366" height="266.112"/>
  </clipPath>
 </defs>
</svg>
