<?xml version="1.0" encoding="utf-8" standalone="no"?>
<!DOCTYPE svg PUBLIC "-//W3C//DTD SVG 1.1//EN"
  "http://www.w3.org/Graphics/SVG/1.1/DTD/svg11.dtd">
<svg xmlns:xlink="http://www.w3.org/1999/xlink" width="280.532033pt" height="281.727617pt" viewBox="0 0 280.532033 281.727617" xmlns="http://www.w3.org/2000/svg" version="1.1">
 <metadata>
  <rdf:RDF xmlns:dc="http://purl.org/dc/elements/1.1/" xmlns:cc="http://creativecommons.org/ns#" xmlns:rdf="http://www.w3.org/1999/02/22-rdf-syntax-ns#">
   <cc:Work>
    <dc:type rdf:resource="http://purl.org/dc/dcmitype/StillImage"/>
    <dc:date>2024-07-25T00:42:58.831616</dc:date>
    <dc:format>image/svg+xml</dc:format>
    <dc:creator>
     <cc:Agent>
      <dc:title>Matplotlib v3.9.0, https://matplotlib.org/</dc:title>
     </cc:Agent>
    </dc:creator>
   </cc:Work>
  </rdf:RDF>
 </metadata>
 <defs>
  <style type="text/css">*{stroke-linejoin: round; stroke-linecap: butt}</style>
 </defs>
 <g id="figure_1">
  <g id="patch_1">
   <path d="M 0 281.727617 
L 280.532033 281.727617 
L 280.532033 0 
L 0 0 
L 0 281.727617 
z
" style="fill: none"/>
  </g>
  <g id="axes_1">
   <g id="patch_2">
    <path d="M 253.231346 143.543405 
C 252.805355 153.858584 250.378393 163.9933 246.085765 173.382536 
C 241.793136 182.771771 235.716124 191.237735 228.193527 198.308444 
C 220.67093 205.379153 211.845192 210.92072 202.208354 214.624199 
C 192.571516 218.327677 182.306056 220.122939 171.984283 219.909898 
C 161.662509 219.696857 151.479869 217.479547 142.004053 213.381585 
C 132.528236 209.283623 123.938672 203.382605 116.714235 196.007517 
C 109.489799 188.63243 103.767288 179.922924 99.865737 170.364562 
C 95.964186 160.806199 93.957472 150.579972 93.957472 140.256 
C 93.957472 129.932028 95.964186 119.705801 99.865737 110.147438 
C 103.767288 100.589076 109.489799 91.87957 116.714235 84.504483 
C 123.938672 77.129395 132.528236 71.228377 142.004053 67.130415 
C 151.479869 63.032453 161.662509 60.815143 171.984283 60.602102 
C 182.306056 60.389061 192.571516 62.184323 202.208354 65.887801 
C 211.845192 69.59128 220.67093 75.132847 228.193527 82.203556 
C 235.716124 89.274265 241.793136 97.740229 246.085765 107.129464 
C 250.378393 116.5187 252.805355 126.653416 253.231346 136.968595 
C 252.803671 122.271046 249.511956 107.797211 243.541147 94.36031 
C 237.570338 80.923409 229.034394 68.779895 218.412909 58.612057 
C 207.791424 48.444218 195.287119 40.446117 181.602553 35.067129 
C 167.917986 29.688141 153.314339 27.030929 138.612124 27.24479 
C 123.909908 27.45865 109.389729 30.539501 95.867405 36.314244 
C 82.345082 42.088987 70.078701 50.447406 59.757453 60.91988 
C 49.436205 71.392354 41.25708 83.779007 35.679625 97.383891 
C 30.102169 110.988776 27.232834 125.552229 27.232834 140.256 
C 27.232834 154.959771 30.102169 169.523224 35.679625 183.128109 
C 41.25708 196.732993 49.436205 209.119646 59.757453 219.59212 
C 70.078701 230.064594 82.345082 238.423013 95.867405 244.197756 
C 109.389729 249.972499 123.909908 253.05335 138.612124 253.26721 
C 153.314339 253.481071 167.917986 250.823859 181.602553 245.444871 
C 195.287119 240.065883 207.791424 232.067782 218.412909 221.899943 
C 229.034394 211.732105 237.570338 199.588591 243.541147 186.15169 
C 249.511956 172.714789 252.803671 158.240954 253.231346 143.543405 
" clip-path="url(#p7edd0c1301)" style="fill: #00b4d8; opacity: 0.6"/>
   </g>
   <g id="patch_3">
    <path d="M 253.231346 136.968595 
C 253.263224 138.064107 253.279166 139.160025 253.279166 140.256 
C 253.279166 141.351975 253.263224 142.447893 253.231346 143.543405 
C 253.276576 142.448186 253.299198 141.352152 253.299198 140.256 
C 253.299198 139.159848 253.276576 138.063814 253.231346 136.968595 
" clip-path="url(#p7edd0c1301)" style="fill: #03045e; opacity: 0.6"/>
   </g>
   <g id="patch_4">
    <path d="M 253.231346 143.543405 
C 253.263224 142.447893 253.279166 141.351975 253.279166 140.256 
C 253.279166 139.160025 253.263224 138.064107 253.231346 136.968595 
C 252.805355 126.653416 250.378393 116.5187 246.085765 107.129464 
C 241.793136 97.740229 235.716124 89.274265 228.193527 82.203556 
C 220.67093 75.132847 211.845192 69.59128 202.208354 65.887801 
C 192.571516 62.184323 182.306056 60.389061 171.984283 60.602102 
C 161.662509 60.815143 151.479869 63.032453 142.004053 67.130415 
C 132.528236 71.228377 123.938672 77.129395 116.714235 84.504483 
C 109.489799 91.87957 103.767288 100.589076 99.865737 110.147438 
C 95.964186 119.705801 93.957472 129.932028 93.957472 140.256 
C 93.957472 150.579972 95.964186 160.806199 99.865737 170.364562 
C 103.767288 179.922924 109.489799 188.63243 116.714235 196.007517 
C 123.938672 203.382605 132.528236 209.283623 142.004053 213.381585 
C 151.479869 217.479547 161.662509 219.696857 171.984283 219.909898 
C 182.306056 220.122939 192.571516 218.327677 202.208354 214.624199 
C 211.845192 210.92072 220.67093 205.379153 228.193527 198.308444 
C 235.716124 191.237735 241.793136 182.771771 246.085765 173.382536 
C 250.378393 163.9933 252.805355 153.858584 253.231346 143.543405 
" clip-path="url(#p7edd0c1301)" style="fill: #0281d9; opacity: 0.6"/>
   </g>
   <g id="text_1">
    <!-- 81 -->
    <g transform="translate(54.232653 143.015375) scale(0.1 -0.1)">
     <defs>
      <path id="DejaVuSans-38" d="M 2034 2216 
Q 1584 2216 1326 1975 
Q 1069 1734 1069 1313 
Q 1069 891 1326 650 
Q 1584 409 2034 409 
Q 2484 409 2743 651 
Q 3003 894 3003 1313 
Q 3003 1734 2745 1975 
Q 2488 2216 2034 2216 
z
M 1403 2484 
Q 997 2584 770 2862 
Q 544 3141 544 3541 
Q 544 4100 942 4425 
Q 1341 4750 2034 4750 
Q 2731 4750 3128 4425 
Q 3525 4100 3525 3541 
Q 3525 3141 3298 2862 
Q 3072 2584 2669 2484 
Q 3125 2378 3379 2068 
Q 3634 1759 3634 1313 
Q 3634 634 3220 271 
Q 2806 -91 2034 -91 
Q 1263 -91 848 271 
Q 434 634 434 1313 
Q 434 1759 690 2068 
Q 947 2378 1403 2484 
z
M 1172 3481 
Q 1172 3119 1398 2916 
Q 1625 2713 2034 2713 
Q 2441 2713 2670 2916 
Q 2900 3119 2900 3481 
Q 2900 3844 2670 4047 
Q 2441 4250 2034 4250 
Q 1625 4250 1398 4047 
Q 1172 3844 1172 3481 
z
" transform="scale(0.015625)"/>
      <path id="DejaVuSans-31" d="M 794 531 
L 1825 531 
L 1825 4091 
L 703 3866 
L 703 4441 
L 1819 4666 
L 2450 4666 
L 2450 531 
L 3481 531 
L 3481 0 
L 794 0 
L 794 531 
z
" transform="scale(0.015625)"/>
     </defs>
     <use xlink:href="#DejaVuSans-38"/>
     <use xlink:href="#DejaVuSans-31" x="63.623047"/>
    </g>
   </g>
   <g id="text_2">
    <!-- 0 -->
    <g transform="translate(250.107932 143.015375) scale(0.1 -0.1)">
     <defs>
      <path id="DejaVuSans-30" d="M 2034 4250 
Q 1547 4250 1301 3770 
Q 1056 3291 1056 2328 
Q 1056 1369 1301 889 
Q 1547 409 2034 409 
Q 2525 409 2770 889 
Q 3016 1369 3016 2328 
Q 3016 3291 2770 3770 
Q 2525 4250 2034 4250 
z
M 2034 4750 
Q 2819 4750 3233 4129 
Q 3647 3509 3647 2328 
Q 3647 1150 3233 529 
Q 2819 -91 2034 -91 
Q 1250 -91 836 529 
Q 422 1150 422 2328 
Q 422 3509 836 4129 
Q 1250 4750 2034 4750 
z
" transform="scale(0.015625)"/>
     </defs>
     <use xlink:href="#DejaVuSans-30"/>
    </g>
   </g>
   <g id="text_3">
    <!-- 80 -->
    <g transform="translate(167.255819 143.015375) scale(0.1 -0.1)">
     <use xlink:href="#DejaVuSans-38"/>
     <use xlink:href="#DejaVuSans-30" x="63.623047"/>
    </g>
   </g>
   <g id="text_4">
    <!-- Filtered Proteome -->
    <g transform="translate(34.455375 272.031992) scale(0.12 -0.12)">
     <defs>
      <path id="DejaVuSans-46" d="M 628 4666 
L 3309 4666 
L 3309 4134 
L 1259 4134 
L 1259 2759 
L 3109 2759 
L 3109 2228 
L 1259 2228 
L 1259 0 
L 628 0 
L 628 4666 
z
" transform="scale(0.015625)"/>
      <path id="DejaVuSans-69" d="M 603 3500 
L 1178 3500 
L 1178 0 
L 603 0 
L 603 3500 
z
M 603 4863 
L 1178 4863 
L 1178 4134 
L 603 4134 
L 603 4863 
z
" transform="scale(0.015625)"/>
      <path id="DejaVuSans-6c" d="M 603 4863 
L 1178 4863 
L 1178 0 
L 603 0 
L 603 4863 
z
" transform="scale(0.015625)"/>
      <path id="DejaVuSans-74" d="M 1172 4494 
L 1172 3500 
L 2356 3500 
L 2356 3053 
L 1172 3053 
L 1172 1153 
Q 1172 725 1289 603 
Q 1406 481 1766 481 
L 2356 481 
L 2356 0 
L 1766 0 
Q 1100 0 847 248 
Q 594 497 594 1153 
L 594 3053 
L 172 3053 
L 172 3500 
L 594 3500 
L 594 4494 
L 1172 4494 
z
" transform="scale(0.015625)"/>
      <path id="DejaVuSans-65" d="M 3597 1894 
L 3597 1613 
L 953 1613 
Q 991 1019 1311 708 
Q 1631 397 2203 397 
Q 2534 397 2845 478 
Q 3156 559 3463 722 
L 3463 178 
Q 3153 47 2828 -22 
Q 2503 -91 2169 -91 
Q 1331 -91 842 396 
Q 353 884 353 1716 
Q 353 2575 817 3079 
Q 1281 3584 2069 3584 
Q 2775 3584 3186 3129 
Q 3597 2675 3597 1894 
z
M 3022 2063 
Q 3016 2534 2758 2815 
Q 2500 3097 2075 3097 
Q 1594 3097 1305 2825 
Q 1016 2553 972 2059 
L 3022 2063 
z
" transform="scale(0.015625)"/>
      <path id="DejaVuSans-72" d="M 2631 2963 
Q 2534 3019 2420 3045 
Q 2306 3072 2169 3072 
Q 1681 3072 1420 2755 
Q 1159 2438 1159 1844 
L 1159 0 
L 581 0 
L 581 3500 
L 1159 3500 
L 1159 2956 
Q 1341 3275 1631 3429 
Q 1922 3584 2338 3584 
Q 2397 3584 2469 3576 
Q 2541 3569 2628 3553 
L 2631 2963 
z
" transform="scale(0.015625)"/>
      <path id="DejaVuSans-64" d="M 2906 2969 
L 2906 4863 
L 3481 4863 
L 3481 0 
L 2906 0 
L 2906 525 
Q 2725 213 2448 61 
Q 2172 -91 1784 -91 
Q 1150 -91 751 415 
Q 353 922 353 1747 
Q 353 2572 751 3078 
Q 1150 3584 1784 3584 
Q 2172 3584 2448 3432 
Q 2725 3281 2906 2969 
z
M 947 1747 
Q 947 1113 1208 752 
Q 1469 391 1925 391 
Q 2381 391 2643 752 
Q 2906 1113 2906 1747 
Q 2906 2381 2643 2742 
Q 2381 3103 1925 3103 
Q 1469 3103 1208 2742 
Q 947 2381 947 1747 
z
" transform="scale(0.015625)"/>
      <path id="DejaVuSans-20" transform="scale(0.015625)"/>
      <path id="DejaVuSans-50" d="M 1259 4147 
L 1259 2394 
L 2053 2394 
Q 2494 2394 2734 2622 
Q 2975 2850 2975 3272 
Q 2975 3691 2734 3919 
Q 2494 4147 2053 4147 
L 1259 4147 
z
M 628 4666 
L 2053 4666 
Q 2838 4666 3239 4311 
Q 3641 3956 3641 3272 
Q 3641 2581 3239 2228 
Q 2838 1875 2053 1875 
L 1259 1875 
L 1259 0 
L 628 0 
L 628 4666 
z
" transform="scale(0.015625)"/>
      <path id="DejaVuSans-6f" d="M 1959 3097 
Q 1497 3097 1228 2736 
Q 959 2375 959 1747 
Q 959 1119 1226 758 
Q 1494 397 1959 397 
Q 2419 397 2687 759 
Q 2956 1122 2956 1747 
Q 2956 2369 2687 2733 
Q 2419 3097 1959 3097 
z
M 1959 3584 
Q 2709 3584 3137 3096 
Q 3566 2609 3566 1747 
Q 3566 888 3137 398 
Q 2709 -91 1959 -91 
Q 1206 -91 779 398 
Q 353 888 353 1747 
Q 353 2609 779 3096 
Q 1206 3584 1959 3584 
z
" transform="scale(0.015625)"/>
      <path id="DejaVuSans-6d" d="M 3328 2828 
Q 3544 3216 3844 3400 
Q 4144 3584 4550 3584 
Q 5097 3584 5394 3201 
Q 5691 2819 5691 2113 
L 5691 0 
L 5113 0 
L 5113 2094 
Q 5113 2597 4934 2840 
Q 4756 3084 4391 3084 
Q 3944 3084 3684 2787 
Q 3425 2491 3425 1978 
L 3425 0 
L 2847 0 
L 2847 2094 
Q 2847 2600 2669 2842 
Q 2491 3084 2119 3084 
Q 1678 3084 1418 2786 
Q 1159 2488 1159 1978 
L 1159 0 
L 581 0 
L 581 3500 
L 1159 3500 
L 1159 2956 
Q 1356 3278 1631 3431 
Q 1906 3584 2284 3584 
Q 2666 3584 2933 3390 
Q 3200 3197 3328 2828 
z
" transform="scale(0.015625)"/>
     </defs>
     <use xlink:href="#DejaVuSans-46"/>
     <use xlink:href="#DejaVuSans-69" x="50.269531"/>
     <use xlink:href="#DejaVuSans-6c" x="78.052734"/>
     <use xlink:href="#DejaVuSans-74" x="105.835938"/>
     <use xlink:href="#DejaVuSans-65" x="145.044922"/>
     <use xlink:href="#DejaVuSans-72" x="206.568359"/>
     <use xlink:href="#DejaVuSans-65" x="245.431641"/>
     <use xlink:href="#DejaVuSans-64" x="306.955078"/>
     <use xlink:href="#DejaVuSans-20" x="370.431641"/>
     <use xlink:href="#DejaVuSans-50" x="402.21875"/>
     <use xlink:href="#DejaVuSans-72" x="460.771484"/>
     <use xlink:href="#DejaVuSans-6f" x="499.634766"/>
     <use xlink:href="#DejaVuSans-74" x="560.816406"/>
     <use xlink:href="#DejaVuSans-65" x="600.025391"/>
     <use xlink:href="#DejaVuSans-6f" x="661.548828"/>
     <use xlink:href="#DejaVuSans-6d" x="722.730469"/>
     <use xlink:href="#DejaVuSans-65" x="820.142578"/>
    </g>
   </g>
   <g id="text_5">
    <!-- Full Proteome -->
    <g transform="translate(173.628335 238.67969) scale(0.12 -0.12)">
     <defs>
      <path id="DejaVuSans-75" d="M 544 1381 
L 544 3500 
L 1119 3500 
L 1119 1403 
Q 1119 906 1312 657 
Q 1506 409 1894 409 
Q 2359 409 2629 706 
Q 2900 1003 2900 1516 
L 2900 3500 
L 3475 3500 
L 3475 0 
L 2900 0 
L 2900 538 
Q 2691 219 2414 64 
Q 2138 -91 1772 -91 
Q 1169 -91 856 284 
Q 544 659 544 1381 
z
M 1991 3584 
L 1991 3584 
z
" transform="scale(0.015625)"/>
     </defs>
     <use xlink:href="#DejaVuSans-46"/>
     <use xlink:href="#DejaVuSans-75" x="52.019531"/>
     <use xlink:href="#DejaVuSans-6c" x="115.398438"/>
     <use xlink:href="#DejaVuSans-6c" x="143.181641"/>
     <use xlink:href="#DejaVuSans-20" x="170.964844"/>
     <use xlink:href="#DejaVuSans-50" x="202.751953"/>
     <use xlink:href="#DejaVuSans-72" x="261.304688"/>
     <use xlink:href="#DejaVuSans-6f" x="300.167969"/>
     <use xlink:href="#DejaVuSans-74" x="361.349609"/>
     <use xlink:href="#DejaVuSans-65" x="400.558594"/>
     <use xlink:href="#DejaVuSans-6f" x="462.082031"/>
     <use xlink:href="#DejaVuSans-6d" x="523.263672"/>
     <use xlink:href="#DejaVuSans-65" x="620.675781"/>
    </g>
   </g>
  </g>
 </g>
 <defs>
  <clipPath id="p7edd0c1301">
   <rect x="7.2" y="7.2" width="266.132033" height="266.112"/>
  </clipPath>
 </defs>
</svg>
