<?xml version="1.0" encoding="utf-8" standalone="no"?>
<!DOCTYPE svg PUBLIC "-//W3C//DTD SVG 1.1//EN"
  "http://www.w3.org/Graphics/SVG/1.1/DTD/svg11.dtd">
<svg xmlns:xlink="http://www.w3.org/1999/xlink" width="460.8pt" height="345.6pt" viewBox="0 0 460.8 345.6" xmlns="http://www.w3.org/2000/svg" version="1.1">
 <metadata>
  <rdf:RDF xmlns:dc="http://purl.org/dc/elements/1.1/" xmlns:cc="http://creativecommons.org/ns#" xmlns:rdf="http://www.w3.org/1999/02/22-rdf-syntax-ns#">
   <cc:Work>
    <dc:type rdf:resource="http://purl.org/dc/dcmitype/StillImage"/>
    <dc:date>2024-06-28T19:06:13.721552</dc:date>
    <dc:format>image/svg+xml</dc:format>
    <dc:creator>
     <cc:Agent>
      <dc:title>Matplotlib v3.9.0, https://matplotlib.org/</dc:title>
     </cc:Agent>
    </dc:creator>
   </cc:Work>
  </rdf:RDF>
 </metadata>
 <defs>
  <style type="text/css">*{stroke-linejoin: round; stroke-linecap: butt}</style>
 </defs>
 <g id="figure_1">
  <g id="patch_1">
   <path d="M 0 345.6 
L 460.8 345.6 
L 460.8 0 
L 0 0 
z
" style="fill: #ffffff"/>
  </g>
  <g id="axes_1">
   <g id="patch_2">
    <path d="M 57.6 307.584 
L 414.72 307.584 
L 414.72 41.472 
L 57.6 41.472 
z
" style="fill: #ffffff"/>
   </g>
   <g id="PolyCollection_1">
    <path d="M 73.832727 114.900164 
L 73.832727 307.584 
L 73.990627 307.584 
L 74.714333 307.584 
L 74.780124 307.584 
L 75.227506 307.584 
L 77.174934 307.584 
L 77.609157 307.584 
L 77.964431 307.584 
L 80.293449 307.584 
L 80.938205 307.584 
L 81.97771 307.584 
L 82.425092 307.584 
L 84.964643 307.584 
L 85.504133 307.584 
L 85.569924 307.584 
L 87.109444 307.584 
L 87.162077 307.584 
L 87.504193 307.584 
L 92.135912 307.584 
L 92.76751 307.584 
L 93.307 307.584 
L 94.030706 307.584 
L 95.793917 307.584 
L 96.807106 307.584 
L 97.491337 307.584 
L 98.228201 307.584 
L 100.873018 307.584 
L 101.754623 307.584 
L 103.715209 307.584 
L 104.333649 307.584 
L 107.083732 307.584 
L 108.952209 307.584 
L 109.728549 307.584 
L 111.675976 307.584 
L 116.597177 307.584 
L 117.241934 307.584 
L 119.952542 307.584 
L 120.939414 307.584 
L 121.12363 307.584 
L 121.478904 307.584 
L 122.768416 307.584 
L 123.215798 307.584 
L 124.689527 307.584 
L 124.715844 307.584 
L 126.715904 307.584 
L 128.544907 307.584 
L 128.715964 307.584 
L 130.439701 307.584 
L 131.084457 307.584 
L 133.479266 307.584 
L 134.255605 307.584 
L 134.597721 307.584 
L 136.334616 307.584 
L 137.558337 307.584 
L 138.321518 307.584 
L 139.005749 307.584 
L 139.15049 307.584 
L 139.887355 307.584 
L 141.76899 307.584 
L 142.00584 307.584 
L 142.229531 307.584 
L 142.742704 307.584 
L 145.124355 307.584 
L 145.598053 307.584 
L 145.966486 307.584 
L 146.927041 307.584 
L 149.308692 307.584 
L 149.795549 307.584 
L 150.848212 307.584 
L 152.229833 307.584 
L 152.242991 307.584 
L 153.966727 307.584 
L 154.414109 307.584 
L 154.506217 307.584 
L 156.295745 307.584 
L 157.927373 307.584 
L 158.058956 307.584 
L 158.269489 307.584 
L 158.993195 307.584 
L 159.703743 307.584 
L 161.756436 307.584 
L 164.874952 307.584 
L 165.230225 307.584 
L 165.782874 307.584 
L 167.940834 307.584 
L 170.467226 307.584 
L 171.269882 307.584 
L 171.348831 307.584 
L 171.414623 307.584 
L 171.559364 307.584 
L 172.730452 307.584 
L 173.072568 307.584 
L 175.506852 307.584 
L 176.033183 307.584 
L 176.98058 307.584 
L 180.507003 307.584 
L 180.954385 307.584 
L 181.625458 307.584 
L 182.112314 307.584 
L 183.164978 307.584 
L 183.480777 307.584 
L 183.520252 307.584 
L 185.165038 307.584 
L 185.69137 307.584 
L 187.15194 307.584 
L 188.059863 307.584 
L 188.494086 307.584 
L 191.00732 307.584 
L 192.665265 307.584 
L 193.020539 307.584 
L 193.270546 307.584 
L 193.981094 307.584 
L 195.612722 307.584 
L 197.718049 307.584 
L 199.547052 307.584 
L 201.520796 307.584 
L 201.810278 307.584 
L 202.823467 307.584 
L 203.836655 307.584 
L 208.599957 307.584 
L 209.231555 307.584 
L 214.521188 307.584 
L 225.363621 307.584 
L 226.692609 307.584 
L 227.640006 307.584 
L 231.798026 307.584 
L 243.614173 307.584 
L 249.324871 307.584 
L 249.416979 307.584 
L 268.628086 307.584 
L 274.575634 307.584 
L 274.891433 307.584 
L 275.575665 307.584 
L 277.233609 307.584 
L 286.720738 307.584 
L 287.997092 307.584 
L 293.391992 307.584 
L 299.707973 307.584 
L 319.366461 307.584 
L 325.77455 307.584 
L 338.761784 307.584 
L 367.99951 307.584 
L 395.316124 307.584 
L 398.487273 307.584 
L 398.487273 305.84811 
L 398.487273 305.84811 
L 395.316124 305.84811 
L 367.99951 304.112219 
L 338.761784 304.112219 
L 325.77455 302.376329 
L 319.366461 300.640438 
L 299.707973 300.640438 
L 293.391992 298.904548 
L 287.997092 297.168658 
L 286.720738 295.432767 
L 277.233609 293.696877 
L 275.575665 291.960986 
L 274.891433 290.225096 
L 274.575634 290.225096 
L 268.628086 288.489205 
L 249.416979 286.753315 
L 249.324871 286.753315 
L 243.614173 285.017425 
L 231.798026 283.281534 
L 227.640006 281.545644 
L 226.692609 278.073863 
L 225.363621 276.337973 
L 214.521188 274.602082 
L 209.231555 272.866192 
L 208.599957 271.130301 
L 203.836655 269.394411 
L 202.823467 267.658521 
L 201.810278 265.92263 
L 201.520796 264.18674 
L 199.547052 262.450849 
L 197.718049 260.714959 
L 195.612722 258.979068 
L 193.981094 257.243178 
L 193.270546 255.507288 
L 193.020539 253.771397 
L 192.665265 252.035507 
L 191.00732 252.035507 
L 188.494086 250.299616 
L 188.059863 248.563726 
L 187.15194 248.563726 
L 185.69137 246.827836 
L 185.165038 245.091945 
L 183.520252 243.356055 
L 183.480777 241.620164 
L 183.164978 239.884274 
L 182.112314 239.884274 
L 181.625458 238.148384 
L 180.954385 238.148384 
L 180.507003 236.412493 
L 176.98058 234.676603 
L 176.033183 232.940712 
L 175.506852 231.204822 
L 173.072568 231.204822 
L 172.730452 229.468932 
L 171.559364 229.468932 
L 171.414623 227.733041 
L 171.348831 225.997151 
L 171.269882 225.997151 
L 170.467226 224.26126 
L 167.940834 224.26126 
L 165.782874 222.52537 
L 165.230225 220.789479 
L 164.874952 219.053589 
L 161.756436 217.317699 
L 159.703743 215.581808 
L 158.993195 213.845918 
L 158.269489 212.110027 
L 158.058956 210.374137 
L 157.927373 210.374137 
L 156.295745 208.638247 
L 154.506217 208.638247 
L 154.414109 208.638247 
L 153.966727 206.902356 
L 152.242991 205.166466 
L 152.229833 203.430575 
L 150.848212 201.694685 
L 149.795549 199.958795 
L 149.308692 198.222904 
L 146.927041 196.487014 
L 145.966486 196.487014 
L 145.598053 194.751123 
L 145.124355 194.751123 
L 142.742704 193.015233 
L 142.229531 191.279342 
L 142.00584 189.543452 
L 141.76899 187.807562 
L 139.887355 186.071671 
L 139.15049 184.335781 
L 139.005749 182.59989 
L 138.321518 180.864 
L 137.558337 179.12811 
L 136.334616 177.392219 
L 134.597721 175.656329 
L 134.255605 173.920438 
L 133.479266 172.184548 
L 131.084457 170.448658 
L 130.439701 168.712767 
L 128.715964 166.976877 
L 128.544907 165.240986 
L 126.715904 163.505096 
L 124.715844 161.769205 
L 124.689527 160.033315 
L 123.215798 158.297425 
L 122.768416 158.297425 
L 121.478904 156.561534 
L 121.12363 156.561534 
L 120.939414 156.561534 
L 119.952542 154.825644 
L 117.241934 153.089753 
L 116.597177 151.353863 
L 111.675976 151.353863 
L 109.728549 149.617973 
L 108.952209 147.882082 
L 107.083732 146.146192 
L 104.333649 146.146192 
L 103.715209 144.410301 
L 101.754623 142.674411 
L 100.873018 140.938521 
L 98.228201 140.938521 
L 97.491337 139.20263 
L 96.807106 137.46674 
L 95.793917 137.46674 
L 94.030706 135.730849 
L 93.307 135.730849 
L 92.76751 133.994959 
L 92.135912 132.259068 
L 87.504193 128.787288 
L 87.162077 127.051397 
L 87.109444 125.315507 
L 85.569924 125.315507 
L 85.504133 125.315507 
L 84.964643 123.579616 
L 82.425092 121.843726 
L 81.97771 121.843726 
L 80.938205 121.843726 
L 80.293449 120.107836 
L 77.964431 120.107836 
L 77.609157 118.371945 
L 77.174934 118.371945 
L 75.227506 118.371945 
L 74.780124 116.636055 
L 74.714333 116.636055 
L 73.990627 116.636055 
L 73.832727 114.900164 
z
" clip-path="url(#pd700733955)" style="fill: #008000"/>
   </g>
   <g id="PolyCollection_2">
    <path d="M 73.832727 78.446466 
L 73.832727 114.900164 
L 73.990627 116.636055 
L 74.714333 116.636055 
L 74.780124 116.636055 
L 75.227506 118.371945 
L 77.174934 118.371945 
L 77.609157 118.371945 
L 77.964431 120.107836 
L 80.293449 120.107836 
L 80.938205 121.843726 
L 81.97771 121.843726 
L 82.425092 121.843726 
L 84.964643 123.579616 
L 85.504133 125.315507 
L 85.569924 125.315507 
L 87.109444 125.315507 
L 87.162077 127.051397 
L 87.504193 128.787288 
L 92.135912 132.259068 
L 92.76751 133.994959 
L 93.307 135.730849 
L 94.030706 135.730849 
L 95.793917 137.46674 
L 96.807106 137.46674 
L 97.491337 139.20263 
L 98.228201 140.938521 
L 100.873018 140.938521 
L 101.754623 142.674411 
L 103.715209 144.410301 
L 104.333649 146.146192 
L 107.083732 146.146192 
L 108.952209 147.882082 
L 109.728549 149.617973 
L 111.675976 151.353863 
L 116.597177 151.353863 
L 117.241934 153.089753 
L 119.952542 154.825644 
L 120.939414 156.561534 
L 121.12363 156.561534 
L 121.478904 156.561534 
L 122.768416 158.297425 
L 123.215798 158.297425 
L 124.689527 160.033315 
L 124.715844 161.769205 
L 126.715904 163.505096 
L 128.544907 165.240986 
L 128.715964 166.976877 
L 130.439701 168.712767 
L 131.084457 170.448658 
L 133.479266 172.184548 
L 134.255605 173.920438 
L 134.597721 175.656329 
L 136.334616 177.392219 
L 137.558337 179.12811 
L 138.321518 180.864 
L 139.005749 182.59989 
L 139.15049 184.335781 
L 139.887355 186.071671 
L 141.76899 187.807562 
L 142.00584 189.543452 
L 142.229531 191.279342 
L 142.742704 193.015233 
L 145.124355 194.751123 
L 145.598053 194.751123 
L 145.966486 196.487014 
L 146.927041 196.487014 
L 149.308692 198.222904 
L 149.795549 199.958795 
L 150.848212 201.694685 
L 152.229833 203.430575 
L 152.242991 205.166466 
L 153.966727 206.902356 
L 154.414109 208.638247 
L 154.506217 208.638247 
L 156.295745 208.638247 
L 157.927373 210.374137 
L 158.058956 210.374137 
L 158.269489 212.110027 
L 158.993195 213.845918 
L 159.703743 215.581808 
L 161.756436 217.317699 
L 164.874952 219.053589 
L 165.230225 220.789479 
L 165.782874 222.52537 
L 167.940834 224.26126 
L 170.467226 224.26126 
L 171.269882 225.997151 
L 171.348831 225.997151 
L 171.414623 227.733041 
L 171.559364 229.468932 
L 172.730452 229.468932 
L 173.072568 231.204822 
L 175.506852 231.204822 
L 176.033183 232.940712 
L 176.98058 234.676603 
L 180.507003 236.412493 
L 180.954385 238.148384 
L 181.625458 238.148384 
L 182.112314 239.884274 
L 183.164978 239.884274 
L 183.480777 241.620164 
L 183.520252 243.356055 
L 185.165038 245.091945 
L 185.69137 246.827836 
L 187.15194 248.563726 
L 188.059863 248.563726 
L 188.494086 250.299616 
L 191.00732 252.035507 
L 192.665265 252.035507 
L 193.020539 253.771397 
L 193.270546 255.507288 
L 193.981094 257.243178 
L 195.612722 258.979068 
L 197.718049 260.714959 
L 199.547052 262.450849 
L 201.520796 264.18674 
L 201.810278 265.92263 
L 202.823467 267.658521 
L 203.836655 269.394411 
L 208.599957 271.130301 
L 209.231555 272.866192 
L 214.521188 274.602082 
L 225.363621 276.337973 
L 226.692609 278.073863 
L 227.640006 281.545644 
L 231.798026 283.281534 
L 243.614173 285.017425 
L 249.324871 286.753315 
L 249.416979 286.753315 
L 268.628086 288.489205 
L 274.575634 290.225096 
L 274.891433 290.225096 
L 275.575665 291.960986 
L 277.233609 293.696877 
L 286.720738 295.432767 
L 287.997092 297.168658 
L 293.391992 298.904548 
L 299.707973 300.640438 
L 319.366461 300.640438 
L 325.77455 302.376329 
L 338.761784 304.112219 
L 367.99951 304.112219 
L 395.316124 305.84811 
L 398.487273 305.84811 
L 398.487273 305.84811 
L 398.487273 305.84811 
L 395.316124 304.112219 
L 367.99951 302.376329 
L 338.761784 300.640438 
L 325.77455 298.904548 
L 319.366461 297.168658 
L 299.707973 295.432767 
L 293.391992 293.696877 
L 287.997092 291.960986 
L 286.720738 290.225096 
L 277.233609 288.489205 
L 275.575665 286.753315 
L 274.891433 285.017425 
L 274.575634 283.281534 
L 268.628086 281.545644 
L 249.416979 279.809753 
L 249.324871 278.073863 
L 243.614173 276.337973 
L 231.798026 274.602082 
L 227.640006 272.866192 
L 226.692609 269.394411 
L 225.363621 267.658521 
L 214.521188 265.92263 
L 209.231555 264.18674 
L 208.599957 262.450849 
L 203.836655 260.714959 
L 202.823467 258.979068 
L 201.810278 257.243178 
L 201.520796 255.507288 
L 199.547052 253.771397 
L 197.718049 252.035507 
L 195.612722 250.299616 
L 193.981094 248.563726 
L 193.270546 246.827836 
L 193.020539 245.091945 
L 192.665265 243.356055 
L 191.00732 241.620164 
L 188.494086 239.884274 
L 188.059863 238.148384 
L 187.15194 236.412493 
L 185.69137 234.676603 
L 185.165038 232.940712 
L 183.520252 231.204822 
L 183.480777 229.468932 
L 183.164978 227.733041 
L 182.112314 225.997151 
L 181.625458 224.26126 
L 180.954385 224.26126 
L 180.507003 222.52537 
L 176.98058 220.789479 
L 176.033183 219.053589 
L 175.506852 217.317699 
L 173.072568 215.581808 
L 172.730452 213.845918 
L 171.559364 212.110027 
L 171.414623 210.374137 
L 171.348831 208.638247 
L 171.269882 206.902356 
L 170.467226 205.166466 
L 167.940834 203.430575 
L 165.782874 201.694685 
L 165.230225 199.958795 
L 164.874952 198.222904 
L 161.756436 196.487014 
L 159.703743 194.751123 
L 158.993195 193.015233 
L 158.269489 191.279342 
L 158.058956 189.543452 
L 157.927373 189.543452 
L 156.295745 187.807562 
L 154.506217 186.071671 
L 154.414109 184.335781 
L 153.966727 182.59989 
L 152.242991 180.864 
L 152.229833 179.12811 
L 150.848212 177.392219 
L 149.795549 175.656329 
L 149.308692 173.920438 
L 146.927041 172.184548 
L 145.966486 172.184548 
L 145.598053 170.448658 
L 145.124355 168.712767 
L 142.742704 166.976877 
L 142.229531 165.240986 
L 142.00584 163.505096 
L 141.76899 161.769205 
L 139.887355 160.033315 
L 139.15049 158.297425 
L 139.005749 156.561534 
L 138.321518 154.825644 
L 137.558337 153.089753 
L 136.334616 151.353863 
L 134.597721 149.617973 
L 134.255605 147.882082 
L 133.479266 146.146192 
L 131.084457 144.410301 
L 130.439701 142.674411 
L 128.715964 140.938521 
L 128.544907 139.20263 
L 126.715904 137.46674 
L 124.715844 135.730849 
L 124.689527 133.994959 
L 123.215798 132.259068 
L 122.768416 130.523178 
L 121.478904 128.787288 
L 121.12363 127.051397 
L 120.939414 127.051397 
L 119.952542 125.315507 
L 117.241934 123.579616 
L 116.597177 121.843726 
L 111.675976 121.843726 
L 109.728549 120.107836 
L 108.952209 118.371945 
L 107.083732 116.636055 
L 104.333649 114.900164 
L 103.715209 113.164274 
L 101.754623 111.428384 
L 100.873018 109.692493 
L 98.228201 109.692493 
L 97.491337 107.956603 
L 96.807106 106.220712 
L 95.793917 106.220712 
L 94.030706 104.484822 
L 93.307 102.748932 
L 92.76751 101.013041 
L 92.135912 99.277151 
L 87.504193 95.80537 
L 87.162077 94.069479 
L 87.109444 92.333589 
L 85.569924 92.333589 
L 85.504133 90.597699 
L 84.964643 88.861808 
L 82.425092 87.125918 
L 81.97771 87.125918 
L 80.938205 85.390027 
L 80.293449 83.654137 
L 77.964431 83.654137 
L 77.609157 81.918247 
L 77.174934 81.918247 
L 75.227506 81.918247 
L 74.780124 80.182356 
L 74.714333 80.182356 
L 73.990627 80.182356 
L 73.832727 78.446466 
z
" clip-path="url(#pd700733955)" style="fill: #7cfc00"/>
   </g>
   <g id="PolyCollection_3">
    <path d="M 73.832727 54.144 
L 73.832727 78.446466 
L 73.990627 80.182356 
L 74.714333 80.182356 
L 74.780124 80.182356 
L 75.227506 81.918247 
L 77.174934 81.918247 
L 77.609157 81.918247 
L 77.964431 83.654137 
L 80.293449 83.654137 
L 80.938205 85.390027 
L 81.97771 87.125918 
L 82.425092 87.125918 
L 84.964643 88.861808 
L 85.504133 90.597699 
L 85.569924 92.333589 
L 87.109444 92.333589 
L 87.162077 94.069479 
L 87.504193 95.80537 
L 92.135912 99.277151 
L 92.76751 101.013041 
L 93.307 102.748932 
L 94.030706 104.484822 
L 95.793917 106.220712 
L 96.807106 106.220712 
L 97.491337 107.956603 
L 98.228201 109.692493 
L 100.873018 109.692493 
L 101.754623 111.428384 
L 103.715209 113.164274 
L 104.333649 114.900164 
L 107.083732 116.636055 
L 108.952209 118.371945 
L 109.728549 120.107836 
L 111.675976 121.843726 
L 116.597177 121.843726 
L 117.241934 123.579616 
L 119.952542 125.315507 
L 120.939414 127.051397 
L 121.12363 127.051397 
L 121.478904 128.787288 
L 122.768416 130.523178 
L 123.215798 132.259068 
L 124.689527 133.994959 
L 124.715844 135.730849 
L 126.715904 137.46674 
L 128.544907 139.20263 
L 128.715964 140.938521 
L 130.439701 142.674411 
L 131.084457 144.410301 
L 133.479266 146.146192 
L 134.255605 147.882082 
L 134.597721 149.617973 
L 136.334616 151.353863 
L 137.558337 153.089753 
L 138.321518 154.825644 
L 139.005749 156.561534 
L 139.15049 158.297425 
L 139.887355 160.033315 
L 141.76899 161.769205 
L 142.00584 163.505096 
L 142.229531 165.240986 
L 142.742704 166.976877 
L 145.124355 168.712767 
L 145.598053 170.448658 
L 145.966486 172.184548 
L 146.927041 172.184548 
L 149.308692 173.920438 
L 149.795549 175.656329 
L 150.848212 177.392219 
L 152.229833 179.12811 
L 152.242991 180.864 
L 153.966727 182.59989 
L 154.414109 184.335781 
L 154.506217 186.071671 
L 156.295745 187.807562 
L 157.927373 189.543452 
L 158.058956 189.543452 
L 158.269489 191.279342 
L 158.993195 193.015233 
L 159.703743 194.751123 
L 161.756436 196.487014 
L 164.874952 198.222904 
L 165.230225 199.958795 
L 165.782874 201.694685 
L 167.940834 203.430575 
L 170.467226 205.166466 
L 171.269882 206.902356 
L 171.348831 208.638247 
L 171.414623 210.374137 
L 171.559364 212.110027 
L 172.730452 213.845918 
L 173.072568 215.581808 
L 175.506852 217.317699 
L 176.033183 219.053589 
L 176.98058 220.789479 
L 180.507003 222.52537 
L 180.954385 224.26126 
L 181.625458 224.26126 
L 182.112314 225.997151 
L 183.164978 227.733041 
L 183.480777 229.468932 
L 183.520252 231.204822 
L 185.165038 232.940712 
L 185.69137 234.676603 
L 187.15194 236.412493 
L 188.059863 238.148384 
L 188.494086 239.884274 
L 191.00732 241.620164 
L 192.665265 243.356055 
L 193.020539 245.091945 
L 193.270546 246.827836 
L 193.981094 248.563726 
L 195.612722 250.299616 
L 197.718049 252.035507 
L 199.547052 253.771397 
L 201.520796 255.507288 
L 201.810278 257.243178 
L 202.823467 258.979068 
L 203.836655 260.714959 
L 208.599957 262.450849 
L 209.231555 264.18674 
L 214.521188 265.92263 
L 225.363621 267.658521 
L 226.692609 269.394411 
L 227.640006 272.866192 
L 231.798026 274.602082 
L 243.614173 276.337973 
L 249.324871 278.073863 
L 249.416979 279.809753 
L 268.628086 281.545644 
L 274.575634 283.281534 
L 274.891433 285.017425 
L 275.575665 286.753315 
L 277.233609 288.489205 
L 286.720738 290.225096 
L 287.997092 291.960986 
L 293.391992 293.696877 
L 299.707973 295.432767 
L 319.366461 297.168658 
L 325.77455 298.904548 
L 338.761784 300.640438 
L 367.99951 302.376329 
L 395.316124 304.112219 
L 398.487273 305.84811 
L 398.487273 305.84811 
L 398.487273 305.84811 
L 395.316124 304.112219 
L 367.99951 302.376329 
L 338.761784 300.640438 
L 325.77455 298.904548 
L 319.366461 297.168658 
L 299.707973 295.432767 
L 293.391992 293.696877 
L 287.997092 291.960986 
L 286.720738 290.225096 
L 277.233609 288.489205 
L 275.575665 286.753315 
L 274.891433 285.017425 
L 274.575634 283.281534 
L 268.628086 281.545644 
L 249.416979 279.809753 
L 249.324871 278.073863 
L 243.614173 276.337973 
L 231.798026 274.602082 
L 227.640006 272.866192 
L 226.692609 269.394411 
L 225.363621 267.658521 
L 214.521188 265.92263 
L 209.231555 264.18674 
L 208.599957 262.450849 
L 203.836655 260.714959 
L 202.823467 258.979068 
L 201.810278 257.243178 
L 201.520796 255.507288 
L 199.547052 253.771397 
L 197.718049 252.035507 
L 195.612722 250.299616 
L 193.981094 248.563726 
L 193.270546 246.827836 
L 193.020539 245.091945 
L 192.665265 243.356055 
L 191.00732 241.620164 
L 188.494086 239.884274 
L 188.059863 238.148384 
L 187.15194 236.412493 
L 185.69137 234.676603 
L 185.165038 232.940712 
L 183.520252 231.204822 
L 183.480777 229.468932 
L 183.164978 227.733041 
L 182.112314 225.997151 
L 181.625458 224.26126 
L 180.954385 222.52537 
L 180.507003 220.789479 
L 176.98058 219.053589 
L 176.033183 217.317699 
L 175.506852 215.581808 
L 173.072568 213.845918 
L 172.730452 212.110027 
L 171.559364 210.374137 
L 171.414623 208.638247 
L 171.348831 206.902356 
L 171.269882 205.166466 
L 170.467226 203.430575 
L 167.940834 201.694685 
L 165.782874 199.958795 
L 165.230225 198.222904 
L 164.874952 196.487014 
L 161.756436 194.751123 
L 159.703743 193.015233 
L 158.993195 191.279342 
L 158.269489 189.543452 
L 158.058956 187.807562 
L 157.927373 186.071671 
L 156.295745 184.335781 
L 154.506217 182.59989 
L 154.414109 180.864 
L 153.966727 179.12811 
L 152.242991 177.392219 
L 152.229833 175.656329 
L 150.848212 173.920438 
L 149.795549 172.184548 
L 149.308692 170.448658 
L 146.927041 168.712767 
L 145.966486 166.976877 
L 145.598053 165.240986 
L 145.124355 163.505096 
L 142.742704 161.769205 
L 142.229531 160.033315 
L 142.00584 158.297425 
L 141.76899 156.561534 
L 139.887355 154.825644 
L 139.15049 153.089753 
L 139.005749 151.353863 
L 138.321518 149.617973 
L 137.558337 147.882082 
L 136.334616 146.146192 
L 134.597721 144.410301 
L 134.255605 142.674411 
L 133.479266 140.938521 
L 131.084457 139.20263 
L 130.439701 137.46674 
L 128.715964 135.730849 
L 128.544907 133.994959 
L 126.715904 132.259068 
L 124.715844 130.523178 
L 124.689527 128.787288 
L 123.215798 127.051397 
L 122.768416 125.315507 
L 121.478904 123.579616 
L 121.12363 121.843726 
L 120.939414 120.107836 
L 119.952542 118.371945 
L 117.241934 116.636055 
L 116.597177 114.900164 
L 111.675976 113.164274 
L 109.728549 111.428384 
L 108.952209 109.692493 
L 107.083732 107.956603 
L 104.333649 106.220712 
L 103.715209 104.484822 
L 101.754623 102.748932 
L 100.873018 101.013041 
L 98.228201 99.277151 
L 97.491337 97.54126 
L 96.807106 95.80537 
L 95.793917 94.069479 
L 94.030706 92.333589 
L 93.307 90.597699 
L 92.76751 88.861808 
L 92.135912 87.125918 
L 87.504193 83.654137 
L 87.162077 81.918247 
L 87.109444 80.182356 
L 85.569924 78.446466 
L 85.504133 76.710575 
L 84.964643 74.974685 
L 82.425092 73.238795 
L 81.97771 71.502904 
L 80.938205 69.767014 
L 80.293449 68.031123 
L 77.964431 66.295233 
L 77.609157 64.559342 
L 77.174934 62.823452 
L 75.227506 61.087562 
L 74.780124 59.351671 
L 74.714333 57.615781 
L 73.990627 55.87989 
L 73.832727 54.144 
z
" clip-path="url(#pd700733955)" style="fill: #ff0000"/>
   </g>
   <g id="matplotlib.axis_1">
    <g id="xtick_1">
     <g id="line2d_1">
      <defs>
       <path id="m26c3bdb67f" d="M 0 0 
L 0 3.5 
" style="stroke: #000000; stroke-width: 0.8"/>
      </defs>
      <g>
       <use xlink:href="#m26c3bdb67f" x="58.871749" y="307.584" style="stroke: #000000; stroke-width: 0.8"/>
      </g>
     </g>
     <g id="text_1">
      <!-- 10 -->
      <g transform="translate(52.509249 322.182437) scale(0.1 -0.1)">
       <defs>
        <path id="DejaVuSans-31" d="M 794 531 
L 1825 531 
L 1825 4091 
L 703 3866 
L 703 4441 
L 1819 4666 
L 2450 4666 
L 2450 531 
L 3481 531 
L 3481 0 
L 794 0 
L 794 531 
z
" transform="scale(0.015625)"/>
        <path id="DejaVuSans-30" d="M 2034 4250 
Q 1547 4250 1301 3770 
Q 1056 3291 1056 2328 
Q 1056 1369 1301 889 
Q 1547 409 2034 409 
Q 2525 409 2770 889 
Q 3016 1369 3016 2328 
Q 3016 3291 2770 3770 
Q 2525 4250 2034 4250 
z
M 2034 4750 
Q 2819 4750 3233 4129 
Q 3647 3509 3647 2328 
Q 3647 1150 3233 529 
Q 2819 -91 2034 -91 
Q 1250 -91 836 529 
Q 422 1150 422 2328 
Q 422 3509 836 4129 
Q 1250 4750 2034 4750 
z
" transform="scale(0.015625)"/>
       </defs>
       <use xlink:href="#DejaVuSans-31"/>
       <use xlink:href="#DejaVuSans-30" x="63.623047"/>
      </g>
     </g>
    </g>
    <g id="xtick_2">
     <g id="line2d_2">
      <g>
       <use xlink:href="#m26c3bdb67f" x="124.66321" y="307.584" style="stroke: #000000; stroke-width: 0.8"/>
      </g>
     </g>
     <g id="text_2">
      <!-- 15 -->
      <g transform="translate(118.30071 322.182437) scale(0.1 -0.1)">
       <defs>
        <path id="DejaVuSans-35" d="M 691 4666 
L 3169 4666 
L 3169 4134 
L 1269 4134 
L 1269 2991 
Q 1406 3038 1543 3061 
Q 1681 3084 1819 3084 
Q 2600 3084 3056 2656 
Q 3513 2228 3513 1497 
Q 3513 744 3044 326 
Q 2575 -91 1722 -91 
Q 1428 -91 1123 -41 
Q 819 9 494 109 
L 494 744 
Q 775 591 1075 516 
Q 1375 441 1709 441 
Q 2250 441 2565 725 
Q 2881 1009 2881 1497 
Q 2881 1984 2565 2268 
Q 2250 2553 1709 2553 
Q 1456 2553 1204 2497 
Q 953 2441 691 2322 
L 691 4666 
z
" transform="scale(0.015625)"/>
       </defs>
       <use xlink:href="#DejaVuSans-31"/>
       <use xlink:href="#DejaVuSans-35" x="63.623047"/>
      </g>
     </g>
    </g>
    <g id="xtick_3">
     <g id="line2d_3">
      <g>
       <use xlink:href="#m26c3bdb67f" x="190.454672" y="307.584" style="stroke: #000000; stroke-width: 0.8"/>
      </g>
     </g>
     <g id="text_3">
      <!-- 20 -->
      <g transform="translate(184.092172 322.182437) scale(0.1 -0.1)">
       <defs>
        <path id="DejaVuSans-32" d="M 1228 531 
L 3431 531 
L 3431 0 
L 469 0 
L 469 531 
Q 828 903 1448 1529 
Q 2069 2156 2228 2338 
Q 2531 2678 2651 2914 
Q 2772 3150 2772 3378 
Q 2772 3750 2511 3984 
Q 2250 4219 1831 4219 
Q 1534 4219 1204 4116 
Q 875 4013 500 3803 
L 500 4441 
Q 881 4594 1212 4672 
Q 1544 4750 1819 4750 
Q 2544 4750 2975 4387 
Q 3406 4025 3406 3419 
Q 3406 3131 3298 2873 
Q 3191 2616 2906 2266 
Q 2828 2175 2409 1742 
Q 1991 1309 1228 531 
z
" transform="scale(0.015625)"/>
       </defs>
       <use xlink:href="#DejaVuSans-32"/>
       <use xlink:href="#DejaVuSans-30" x="63.623047"/>
      </g>
     </g>
    </g>
    <g id="xtick_4">
     <g id="line2d_4">
      <g>
       <use xlink:href="#m26c3bdb67f" x="256.246133" y="307.584" style="stroke: #000000; stroke-width: 0.8"/>
      </g>
     </g>
     <g id="text_4">
      <!-- 25 -->
      <g transform="translate(249.883633 322.182437) scale(0.1 -0.1)">
       <use xlink:href="#DejaVuSans-32"/>
       <use xlink:href="#DejaVuSans-35" x="63.623047"/>
      </g>
     </g>
    </g>
    <g id="xtick_5">
     <g id="line2d_5">
      <g>
       <use xlink:href="#m26c3bdb67f" x="322.037595" y="307.584" style="stroke: #000000; stroke-width: 0.8"/>
      </g>
     </g>
     <g id="text_5">
      <!-- 30 -->
      <g transform="translate(315.675095 322.182437) scale(0.1 -0.1)">
       <defs>
        <path id="DejaVuSans-33" d="M 2597 2516 
Q 3050 2419 3304 2112 
Q 3559 1806 3559 1356 
Q 3559 666 3084 287 
Q 2609 -91 1734 -91 
Q 1441 -91 1130 -33 
Q 819 25 488 141 
L 488 750 
Q 750 597 1062 519 
Q 1375 441 1716 441 
Q 2309 441 2620 675 
Q 2931 909 2931 1356 
Q 2931 1769 2642 2001 
Q 2353 2234 1838 2234 
L 1294 2234 
L 1294 2753 
L 1863 2753 
Q 2328 2753 2575 2939 
Q 2822 3125 2822 3475 
Q 2822 3834 2567 4026 
Q 2313 4219 1838 4219 
Q 1578 4219 1281 4162 
Q 984 4106 628 3988 
L 628 4550 
Q 988 4650 1302 4700 
Q 1616 4750 1894 4750 
Q 2613 4750 3031 4423 
Q 3450 4097 3450 3541 
Q 3450 3153 3228 2886 
Q 3006 2619 2597 2516 
z
" transform="scale(0.015625)"/>
       </defs>
       <use xlink:href="#DejaVuSans-33"/>
       <use xlink:href="#DejaVuSans-30" x="63.623047"/>
      </g>
     </g>
    </g>
    <g id="xtick_6">
     <g id="line2d_6">
      <g>
       <use xlink:href="#m26c3bdb67f" x="387.829056" y="307.584" style="stroke: #000000; stroke-width: 0.8"/>
      </g>
     </g>
     <g id="text_6">
      <!-- 35 -->
      <g transform="translate(381.466556 322.182437) scale(0.1 -0.1)">
       <use xlink:href="#DejaVuSans-33"/>
       <use xlink:href="#DejaVuSans-35" x="63.623047"/>
      </g>
     </g>
    </g>
    <g id="text_7">
     <!-- Score -->
     <g transform="translate(222.157656 335.860562) scale(0.1 -0.1)">
      <defs>
       <path id="DejaVuSans-53" d="M 3425 4513 
L 3425 3897 
Q 3066 4069 2747 4153 
Q 2428 4238 2131 4238 
Q 1616 4238 1336 4038 
Q 1056 3838 1056 3469 
Q 1056 3159 1242 3001 
Q 1428 2844 1947 2747 
L 2328 2669 
Q 3034 2534 3370 2195 
Q 3706 1856 3706 1288 
Q 3706 609 3251 259 
Q 2797 -91 1919 -91 
Q 1588 -91 1214 -16 
Q 841 59 441 206 
L 441 856 
Q 825 641 1194 531 
Q 1563 422 1919 422 
Q 2459 422 2753 634 
Q 3047 847 3047 1241 
Q 3047 1584 2836 1778 
Q 2625 1972 2144 2069 
L 1759 2144 
Q 1053 2284 737 2584 
Q 422 2884 422 3419 
Q 422 4038 858 4394 
Q 1294 4750 2059 4750 
Q 2388 4750 2728 4690 
Q 3069 4631 3425 4513 
z
" transform="scale(0.015625)"/>
       <path id="DejaVuSans-63" d="M 3122 3366 
L 3122 2828 
Q 2878 2963 2633 3030 
Q 2388 3097 2138 3097 
Q 1578 3097 1268 2742 
Q 959 2388 959 1747 
Q 959 1106 1268 751 
Q 1578 397 2138 397 
Q 2388 397 2633 464 
Q 2878 531 3122 666 
L 3122 134 
Q 2881 22 2623 -34 
Q 2366 -91 2075 -91 
Q 1284 -91 818 406 
Q 353 903 353 1747 
Q 353 2603 823 3093 
Q 1294 3584 2113 3584 
Q 2378 3584 2631 3529 
Q 2884 3475 3122 3366 
z
" transform="scale(0.015625)"/>
       <path id="DejaVuSans-6f" d="M 1959 3097 
Q 1497 3097 1228 2736 
Q 959 2375 959 1747 
Q 959 1119 1226 758 
Q 1494 397 1959 397 
Q 2419 397 2687 759 
Q 2956 1122 2956 1747 
Q 2956 2369 2687 2733 
Q 2419 3097 1959 3097 
z
M 1959 3584 
Q 2709 3584 3137 3096 
Q 3566 2609 3566 1747 
Q 3566 888 3137 398 
Q 2709 -91 1959 -91 
Q 1206 -91 779 398 
Q 353 888 353 1747 
Q 353 2609 779 3096 
Q 1206 3584 1959 3584 
z
" transform="scale(0.015625)"/>
       <path id="DejaVuSans-72" d="M 2631 2963 
Q 2534 3019 2420 3045 
Q 2306 3072 2169 3072 
Q 1681 3072 1420 2755 
Q 1159 2438 1159 1844 
L 1159 0 
L 581 0 
L 581 3500 
L 1159 3500 
L 1159 2956 
Q 1341 3275 1631 3429 
Q 1922 3584 2338 3584 
Q 2397 3584 2469 3576 
Q 2541 3569 2628 3553 
L 2631 2963 
z
" transform="scale(0.015625)"/>
       <path id="DejaVuSans-65" d="M 3597 1894 
L 3597 1613 
L 953 1613 
Q 991 1019 1311 708 
Q 1631 397 2203 397 
Q 2534 397 2845 478 
Q 3156 559 3463 722 
L 3463 178 
Q 3153 47 2828 -22 
Q 2503 -91 2169 -91 
Q 1331 -91 842 396 
Q 353 884 353 1716 
Q 353 2575 817 3079 
Q 1281 3584 2069 3584 
Q 2775 3584 3186 3129 
Q 3597 2675 3597 1894 
z
M 3022 2063 
Q 3016 2534 2758 2815 
Q 2500 3097 2075 3097 
Q 1594 3097 1305 2825 
Q 1016 2553 972 2059 
L 3022 2063 
z
" transform="scale(0.015625)"/>
      </defs>
      <use xlink:href="#DejaVuSans-53"/>
      <use xlink:href="#DejaVuSans-63" x="63.476562"/>
      <use xlink:href="#DejaVuSans-6f" x="118.457031"/>
      <use xlink:href="#DejaVuSans-72" x="179.638672"/>
      <use xlink:href="#DejaVuSans-65" x="218.501953"/>
     </g>
    </g>
   </g>
   <g id="matplotlib.axis_2">
    <g id="ytick_1">
     <g id="line2d_7">
      <defs>
       <path id="m28a5334d9d" d="M 0 0 
L -3.5 0 
" style="stroke: #000000; stroke-width: 0.8"/>
      </defs>
      <g>
       <use xlink:href="#m28a5334d9d" x="57.6" y="307.584" style="stroke: #000000; stroke-width: 0.8"/>
      </g>
     </g>
     <g id="text_8">
      <!-- 0 -->
      <g transform="translate(44.2375 311.383219) scale(0.1 -0.1)">
       <use xlink:href="#DejaVuSans-30"/>
      </g>
     </g>
    </g>
    <g id="ytick_2">
     <g id="line2d_8">
      <g>
       <use xlink:href="#m28a5334d9d" x="57.6" y="272.866192" style="stroke: #000000; stroke-width: 0.8"/>
      </g>
     </g>
     <g id="text_9">
      <!-- 20 -->
      <g transform="translate(37.875 276.665411) scale(0.1 -0.1)">
       <use xlink:href="#DejaVuSans-32"/>
       <use xlink:href="#DejaVuSans-30" x="63.623047"/>
      </g>
     </g>
    </g>
    <g id="ytick_3">
     <g id="line2d_9">
      <g>
       <use xlink:href="#m28a5334d9d" x="57.6" y="238.148384" style="stroke: #000000; stroke-width: 0.8"/>
      </g>
     </g>
     <g id="text_10">
      <!-- 40 -->
      <g transform="translate(37.875 241.947602) scale(0.1 -0.1)">
       <defs>
        <path id="DejaVuSans-34" d="M 2419 4116 
L 825 1625 
L 2419 1625 
L 2419 4116 
z
M 2253 4666 
L 3047 4666 
L 3047 1625 
L 3713 1625 
L 3713 1100 
L 3047 1100 
L 3047 0 
L 2419 0 
L 2419 1100 
L 313 1100 
L 313 1709 
L 2253 4666 
z
" transform="scale(0.015625)"/>
       </defs>
       <use xlink:href="#DejaVuSans-34"/>
       <use xlink:href="#DejaVuSans-30" x="63.623047"/>
      </g>
     </g>
    </g>
    <g id="ytick_4">
     <g id="line2d_10">
      <g>
       <use xlink:href="#m28a5334d9d" x="57.6" y="203.430575" style="stroke: #000000; stroke-width: 0.8"/>
      </g>
     </g>
     <g id="text_11">
      <!-- 60 -->
      <g transform="translate(37.875 207.229794) scale(0.1 -0.1)">
       <defs>
        <path id="DejaVuSans-36" d="M 2113 2584 
Q 1688 2584 1439 2293 
Q 1191 2003 1191 1497 
Q 1191 994 1439 701 
Q 1688 409 2113 409 
Q 2538 409 2786 701 
Q 3034 994 3034 1497 
Q 3034 2003 2786 2293 
Q 2538 2584 2113 2584 
z
M 3366 4563 
L 3366 3988 
Q 3128 4100 2886 4159 
Q 2644 4219 2406 4219 
Q 1781 4219 1451 3797 
Q 1122 3375 1075 2522 
Q 1259 2794 1537 2939 
Q 1816 3084 2150 3084 
Q 2853 3084 3261 2657 
Q 3669 2231 3669 1497 
Q 3669 778 3244 343 
Q 2819 -91 2113 -91 
Q 1303 -91 875 529 
Q 447 1150 447 2328 
Q 447 3434 972 4092 
Q 1497 4750 2381 4750 
Q 2619 4750 2861 4703 
Q 3103 4656 3366 4563 
z
" transform="scale(0.015625)"/>
       </defs>
       <use xlink:href="#DejaVuSans-36"/>
       <use xlink:href="#DejaVuSans-30" x="63.623047"/>
      </g>
     </g>
    </g>
    <g id="ytick_5">
     <g id="line2d_11">
      <g>
       <use xlink:href="#m28a5334d9d" x="57.6" y="168.712767" style="stroke: #000000; stroke-width: 0.8"/>
      </g>
     </g>
     <g id="text_12">
      <!-- 80 -->
      <g transform="translate(37.875 172.511986) scale(0.1 -0.1)">
       <defs>
        <path id="DejaVuSans-38" d="M 2034 2216 
Q 1584 2216 1326 1975 
Q 1069 1734 1069 1313 
Q 1069 891 1326 650 
Q 1584 409 2034 409 
Q 2484 409 2743 651 
Q 3003 894 3003 1313 
Q 3003 1734 2745 1975 
Q 2488 2216 2034 2216 
z
M 1403 2484 
Q 997 2584 770 2862 
Q 544 3141 544 3541 
Q 544 4100 942 4425 
Q 1341 4750 2034 4750 
Q 2731 4750 3128 4425 
Q 3525 4100 3525 3541 
Q 3525 3141 3298 2862 
Q 3072 2584 2669 2484 
Q 3125 2378 3379 2068 
Q 3634 1759 3634 1313 
Q 3634 634 3220 271 
Q 2806 -91 2034 -91 
Q 1263 -91 848 271 
Q 434 634 434 1313 
Q 434 1759 690 2068 
Q 947 2378 1403 2484 
z
M 1172 3481 
Q 1172 3119 1398 2916 
Q 1625 2713 2034 2713 
Q 2441 2713 2670 2916 
Q 2900 3119 2900 3481 
Q 2900 3844 2670 4047 
Q 2441 4250 2034 4250 
Q 1625 4250 1398 4047 
Q 1172 3844 1172 3481 
z
" transform="scale(0.015625)"/>
       </defs>
       <use xlink:href="#DejaVuSans-38"/>
       <use xlink:href="#DejaVuSans-30" x="63.623047"/>
      </g>
     </g>
    </g>
    <g id="ytick_6">
     <g id="line2d_12">
      <g>
       <use xlink:href="#m28a5334d9d" x="57.6" y="133.994959" style="stroke: #000000; stroke-width: 0.8"/>
      </g>
     </g>
     <g id="text_13">
      <!-- 100 -->
      <g transform="translate(31.5125 137.794178) scale(0.1 -0.1)">
       <use xlink:href="#DejaVuSans-31"/>
       <use xlink:href="#DejaVuSans-30" x="63.623047"/>
       <use xlink:href="#DejaVuSans-30" x="127.246094"/>
      </g>
     </g>
    </g>
    <g id="ytick_7">
     <g id="line2d_13">
      <g>
       <use xlink:href="#m28a5334d9d" x="57.6" y="99.277151" style="stroke: #000000; stroke-width: 0.8"/>
      </g>
     </g>
     <g id="text_14">
      <!-- 120 -->
      <g transform="translate(31.5125 103.076369) scale(0.1 -0.1)">
       <use xlink:href="#DejaVuSans-31"/>
       <use xlink:href="#DejaVuSans-32" x="63.623047"/>
       <use xlink:href="#DejaVuSans-30" x="127.246094"/>
      </g>
     </g>
    </g>
    <g id="ytick_8">
     <g id="line2d_14">
      <g>
       <use xlink:href="#m28a5334d9d" x="57.6" y="64.559342" style="stroke: #000000; stroke-width: 0.8"/>
      </g>
     </g>
     <g id="text_15">
      <!-- 140 -->
      <g transform="translate(31.5125 68.358561) scale(0.1 -0.1)">
       <use xlink:href="#DejaVuSans-31"/>
       <use xlink:href="#DejaVuSans-34" x="63.623047"/>
       <use xlink:href="#DejaVuSans-30" x="127.246094"/>
      </g>
     </g>
    </g>
    <g id="text_16">
     <!-- Number of crosslinks -->
     <g transform="translate(25.432812 227.019406) rotate(-90) scale(0.1 -0.1)">
      <defs>
       <path id="DejaVuSans-4e" d="M 628 4666 
L 1478 4666 
L 3547 763 
L 3547 4666 
L 4159 4666 
L 4159 0 
L 3309 0 
L 1241 3903 
L 1241 0 
L 628 0 
L 628 4666 
z
" transform="scale(0.015625)"/>
       <path id="DejaVuSans-75" d="M 544 1381 
L 544 3500 
L 1119 3500 
L 1119 1403 
Q 1119 906 1312 657 
Q 1506 409 1894 409 
Q 2359 409 2629 706 
Q 2900 1003 2900 1516 
L 2900 3500 
L 3475 3500 
L 3475 0 
L 2900 0 
L 2900 538 
Q 2691 219 2414 64 
Q 2138 -91 1772 -91 
Q 1169 -91 856 284 
Q 544 659 544 1381 
z
M 1991 3584 
L 1991 3584 
z
" transform="scale(0.015625)"/>
       <path id="DejaVuSans-6d" d="M 3328 2828 
Q 3544 3216 3844 3400 
Q 4144 3584 4550 3584 
Q 5097 3584 5394 3201 
Q 5691 2819 5691 2113 
L 5691 0 
L 5113 0 
L 5113 2094 
Q 5113 2597 4934 2840 
Q 4756 3084 4391 3084 
Q 3944 3084 3684 2787 
Q 3425 2491 3425 1978 
L 3425 0 
L 2847 0 
L 2847 2094 
Q 2847 2600 2669 2842 
Q 2491 3084 2119 3084 
Q 1678 3084 1418 2786 
Q 1159 2488 1159 1978 
L 1159 0 
L 581 0 
L 581 3500 
L 1159 3500 
L 1159 2956 
Q 1356 3278 1631 3431 
Q 1906 3584 2284 3584 
Q 2666 3584 2933 3390 
Q 3200 3197 3328 2828 
z
" transform="scale(0.015625)"/>
       <path id="DejaVuSans-62" d="M 3116 1747 
Q 3116 2381 2855 2742 
Q 2594 3103 2138 3103 
Q 1681 3103 1420 2742 
Q 1159 2381 1159 1747 
Q 1159 1113 1420 752 
Q 1681 391 2138 391 
Q 2594 391 2855 752 
Q 3116 1113 3116 1747 
z
M 1159 2969 
Q 1341 3281 1617 3432 
Q 1894 3584 2278 3584 
Q 2916 3584 3314 3078 
Q 3713 2572 3713 1747 
Q 3713 922 3314 415 
Q 2916 -91 2278 -91 
Q 1894 -91 1617 61 
Q 1341 213 1159 525 
L 1159 0 
L 581 0 
L 581 4863 
L 1159 4863 
L 1159 2969 
z
" transform="scale(0.015625)"/>
       <path id="DejaVuSans-20" transform="scale(0.015625)"/>
       <path id="DejaVuSans-66" d="M 2375 4863 
L 2375 4384 
L 1825 4384 
Q 1516 4384 1395 4259 
Q 1275 4134 1275 3809 
L 1275 3500 
L 2222 3500 
L 2222 3053 
L 1275 3053 
L 1275 0 
L 697 0 
L 697 3053 
L 147 3053 
L 147 3500 
L 697 3500 
L 697 3744 
Q 697 4328 969 4595 
Q 1241 4863 1831 4863 
L 2375 4863 
z
" transform="scale(0.015625)"/>
       <path id="DejaVuSans-73" d="M 2834 3397 
L 2834 2853 
Q 2591 2978 2328 3040 
Q 2066 3103 1784 3103 
Q 1356 3103 1142 2972 
Q 928 2841 928 2578 
Q 928 2378 1081 2264 
Q 1234 2150 1697 2047 
L 1894 2003 
Q 2506 1872 2764 1633 
Q 3022 1394 3022 966 
Q 3022 478 2636 193 
Q 2250 -91 1575 -91 
Q 1294 -91 989 -36 
Q 684 19 347 128 
L 347 722 
Q 666 556 975 473 
Q 1284 391 1588 391 
Q 1994 391 2212 530 
Q 2431 669 2431 922 
Q 2431 1156 2273 1281 
Q 2116 1406 1581 1522 
L 1381 1569 
Q 847 1681 609 1914 
Q 372 2147 372 2553 
Q 372 3047 722 3315 
Q 1072 3584 1716 3584 
Q 2034 3584 2315 3537 
Q 2597 3491 2834 3397 
z
" transform="scale(0.015625)"/>
       <path id="DejaVuSans-6c" d="M 603 4863 
L 1178 4863 
L 1178 0 
L 603 0 
L 603 4863 
z
" transform="scale(0.015625)"/>
       <path id="DejaVuSans-69" d="M 603 3500 
L 1178 3500 
L 1178 0 
L 603 0 
L 603 3500 
z
M 603 4863 
L 1178 4863 
L 1178 4134 
L 603 4134 
L 603 4863 
z
" transform="scale(0.015625)"/>
       <path id="DejaVuSans-6e" d="M 3513 2113 
L 3513 0 
L 2938 0 
L 2938 2094 
Q 2938 2591 2744 2837 
Q 2550 3084 2163 3084 
Q 1697 3084 1428 2787 
Q 1159 2491 1159 1978 
L 1159 0 
L 581 0 
L 581 3500 
L 1159 3500 
L 1159 2956 
Q 1366 3272 1645 3428 
Q 1925 3584 2291 3584 
Q 2894 3584 3203 3211 
Q 3513 2838 3513 2113 
z
" transform="scale(0.015625)"/>
       <path id="DejaVuSans-6b" d="M 581 4863 
L 1159 4863 
L 1159 1991 
L 2875 3500 
L 3609 3500 
L 1753 1863 
L 3688 0 
L 2938 0 
L 1159 1709 
L 1159 0 
L 581 0 
L 581 4863 
z
" transform="scale(0.015625)"/>
      </defs>
      <use xlink:href="#DejaVuSans-4e"/>
      <use xlink:href="#DejaVuSans-75" x="74.804688"/>
      <use xlink:href="#DejaVuSans-6d" x="138.183594"/>
      <use xlink:href="#DejaVuSans-62" x="235.595703"/>
      <use xlink:href="#DejaVuSans-65" x="299.072266"/>
      <use xlink:href="#DejaVuSans-72" x="360.595703"/>
      <use xlink:href="#DejaVuSans-20" x="401.708984"/>
      <use xlink:href="#DejaVuSans-6f" x="433.496094"/>
      <use xlink:href="#DejaVuSans-66" x="494.677734"/>
      <use xlink:href="#DejaVuSans-20" x="529.882812"/>
      <use xlink:href="#DejaVuSans-63" x="561.669922"/>
      <use xlink:href="#DejaVuSans-72" x="616.650391"/>
      <use xlink:href="#DejaVuSans-6f" x="655.513672"/>
      <use xlink:href="#DejaVuSans-73" x="716.695312"/>
      <use xlink:href="#DejaVuSans-73" x="768.794922"/>
      <use xlink:href="#DejaVuSans-6c" x="820.894531"/>
      <use xlink:href="#DejaVuSans-69" x="848.677734"/>
      <use xlink:href="#DejaVuSans-6e" x="876.460938"/>
      <use xlink:href="#DejaVuSans-6b" x="939.839844"/>
      <use xlink:href="#DejaVuSans-73" x="997.75"/>
     </g>
    </g>
   </g>
   <g id="patch_3">
    <path d="M 57.6 307.584 
L 57.6 41.472 
" style="fill: none; stroke: #000000; stroke-width: 0.8; stroke-linejoin: miter; stroke-linecap: square"/>
   </g>
   <g id="patch_4">
    <path d="M 414.72 307.584 
L 414.72 41.472 
" style="fill: none; stroke: #000000; stroke-width: 0.8; stroke-linejoin: miter; stroke-linecap: square"/>
   </g>
   <g id="patch_5">
    <path d="M 57.6 307.584 
L 414.72 307.584 
" style="fill: none; stroke: #000000; stroke-width: 0.8; stroke-linejoin: miter; stroke-linecap: square"/>
   </g>
   <g id="patch_6">
    <path d="M 57.6 41.472 
L 414.72 41.472 
" style="fill: none; stroke: #000000; stroke-width: 0.8; stroke-linejoin: miter; stroke-linecap: square"/>
   </g>
   <g id="legend_1">
    <g id="patch_7">
     <path d="M 293.087188 93.506375 
L 407.72 93.506375 
Q 409.72 93.506375 409.72 91.506375 
L 409.72 48.472 
Q 409.72 46.472 407.72 46.472 
L 293.087188 46.472 
Q 291.087188 46.472 291.087188 48.472 
L 291.087188 91.506375 
Q 291.087188 93.506375 293.087188 93.506375 
z
" style="fill: #ffffff; opacity: 0.8; stroke: #cccccc; stroke-linejoin: miter"/>
    </g>
    <g id="patch_8">
     <path d="M 295.087188 58.070438 
L 315.087188 58.070438 
L 315.087188 51.070438 
L 295.087188 51.070438 
z
" style="fill: #008000"/>
    </g>
    <g id="text_17">
     <!-- true -->
     <g transform="translate(323.087188 58.070438) scale(0.1 -0.1)">
      <defs>
       <path id="DejaVuSans-74" d="M 1172 4494 
L 1172 3500 
L 2356 3500 
L 2356 3053 
L 1172 3053 
L 1172 1153 
Q 1172 725 1289 603 
Q 1406 481 1766 481 
L 2356 481 
L 2356 0 
L 1766 0 
Q 1100 0 847 248 
Q 594 497 594 1153 
L 594 3053 
L 172 3053 
L 172 3500 
L 594 3500 
L 594 4494 
L 1172 4494 
z
" transform="scale(0.015625)"/>
      </defs>
      <use xlink:href="#DejaVuSans-74"/>
      <use xlink:href="#DejaVuSans-72" x="39.208984"/>
      <use xlink:href="#DejaVuSans-75" x="80.322266"/>
      <use xlink:href="#DejaVuSans-65" x="143.701172"/>
     </g>
    </g>
    <g id="patch_9">
     <path d="M 295.087188 72.748563 
L 315.087188 72.748563 
L 315.087188 65.748563 
L 295.087188 65.748563 
z
" style="fill: #7cfc00"/>
    </g>
    <g id="text_18">
     <!-- true homeotypic -->
     <g transform="translate(323.087188 72.748563) scale(0.1 -0.1)">
      <defs>
       <path id="DejaVuSans-68" d="M 3513 2113 
L 3513 0 
L 2938 0 
L 2938 2094 
Q 2938 2591 2744 2837 
Q 2550 3084 2163 3084 
Q 1697 3084 1428 2787 
Q 1159 2491 1159 1978 
L 1159 0 
L 581 0 
L 581 4863 
L 1159 4863 
L 1159 2956 
Q 1366 3272 1645 3428 
Q 1925 3584 2291 3584 
Q 2894 3584 3203 3211 
Q 3513 2838 3513 2113 
z
" transform="scale(0.015625)"/>
       <path id="DejaVuSans-79" d="M 2059 -325 
Q 1816 -950 1584 -1140 
Q 1353 -1331 966 -1331 
L 506 -1331 
L 506 -850 
L 844 -850 
Q 1081 -850 1212 -737 
Q 1344 -625 1503 -206 
L 1606 56 
L 191 3500 
L 800 3500 
L 1894 763 
L 2988 3500 
L 3597 3500 
L 2059 -325 
z
" transform="scale(0.015625)"/>
       <path id="DejaVuSans-70" d="M 1159 525 
L 1159 -1331 
L 581 -1331 
L 581 3500 
L 1159 3500 
L 1159 2969 
Q 1341 3281 1617 3432 
Q 1894 3584 2278 3584 
Q 2916 3584 3314 3078 
Q 3713 2572 3713 1747 
Q 3713 922 3314 415 
Q 2916 -91 2278 -91 
Q 1894 -91 1617 61 
Q 1341 213 1159 525 
z
M 3116 1747 
Q 3116 2381 2855 2742 
Q 2594 3103 2138 3103 
Q 1681 3103 1420 2742 
Q 1159 2381 1159 1747 
Q 1159 1113 1420 752 
Q 1681 391 2138 391 
Q 2594 391 2855 752 
Q 3116 1113 3116 1747 
z
" transform="scale(0.015625)"/>
      </defs>
      <use xlink:href="#DejaVuSans-74"/>
      <use xlink:href="#DejaVuSans-72" x="39.208984"/>
      <use xlink:href="#DejaVuSans-75" x="80.322266"/>
      <use xlink:href="#DejaVuSans-65" x="143.701172"/>
      <use xlink:href="#DejaVuSans-20" x="205.224609"/>
      <use xlink:href="#DejaVuSans-68" x="237.011719"/>
      <use xlink:href="#DejaVuSans-6f" x="300.390625"/>
      <use xlink:href="#DejaVuSans-6d" x="361.572266"/>
      <use xlink:href="#DejaVuSans-65" x="458.984375"/>
      <use xlink:href="#DejaVuSans-6f" x="520.507812"/>
      <use xlink:href="#DejaVuSans-74" x="581.689453"/>
      <use xlink:href="#DejaVuSans-79" x="620.898438"/>
      <use xlink:href="#DejaVuSans-70" x="680.078125"/>
      <use xlink:href="#DejaVuSans-69" x="743.554688"/>
      <use xlink:href="#DejaVuSans-63" x="771.337891"/>
     </g>
    </g>
    <g id="patch_10">
     <path d="M 295.087188 87.426688 
L 315.087188 87.426688 
L 315.087188 80.426688 
L 295.087188 80.426688 
z
" style="fill: #ff0000"/>
    </g>
    <g id="text_19">
     <!-- false -->
     <g transform="translate(323.087188 87.426688) scale(0.1 -0.1)">
      <defs>
       <path id="DejaVuSans-61" d="M 2194 1759 
Q 1497 1759 1228 1600 
Q 959 1441 959 1056 
Q 959 750 1161 570 
Q 1363 391 1709 391 
Q 2188 391 2477 730 
Q 2766 1069 2766 1631 
L 2766 1759 
L 2194 1759 
z
M 3341 1997 
L 3341 0 
L 2766 0 
L 2766 531 
Q 2569 213 2275 61 
Q 1981 -91 1556 -91 
Q 1019 -91 701 211 
Q 384 513 384 1019 
Q 384 1609 779 1909 
Q 1175 2209 1959 2209 
L 2766 2209 
L 2766 2266 
Q 2766 2663 2505 2880 
Q 2244 3097 1772 3097 
Q 1472 3097 1187 3025 
Q 903 2953 641 2809 
L 641 3341 
Q 956 3463 1253 3523 
Q 1550 3584 1831 3584 
Q 2591 3584 2966 3190 
Q 3341 2797 3341 1997 
z
" transform="scale(0.015625)"/>
      </defs>
      <use xlink:href="#DejaVuSans-66"/>
      <use xlink:href="#DejaVuSans-61" x="35.205078"/>
      <use xlink:href="#DejaVuSans-6c" x="96.484375"/>
      <use xlink:href="#DejaVuSans-73" x="124.267578"/>
      <use xlink:href="#DejaVuSans-65" x="176.367188"/>
     </g>
    </g>
   </g>
  </g>
 </g>
 <defs>
  <clipPath id="pd700733955">
   <rect x="57.6" y="41.472" width="357.12" height="266.112"/>
  </clipPath>
 </defs>
</svg>
