<?xml version="1.0" encoding="utf-8" standalone="no"?>
<!DOCTYPE svg PUBLIC "-//W3C//DTD SVG 1.1//EN"
  "http://www.w3.org/Graphics/SVG/1.1/DTD/svg11.dtd">
<svg xmlns:xlink="http://www.w3.org/1999/xlink" width="460.8pt" height="345.6pt" viewBox="0 0 460.8 345.6" xmlns="http://www.w3.org/2000/svg" version="1.1">
 <metadata>
  <rdf:RDF xmlns:dc="http://purl.org/dc/elements/1.1/" xmlns:cc="http://creativecommons.org/ns#" xmlns:rdf="http://www.w3.org/1999/02/22-rdf-syntax-ns#">
   <cc:Work>
    <dc:type rdf:resource="http://purl.org/dc/dcmitype/StillImage"/>
    <dc:date>2024-06-24T13:01:53.304973</dc:date>
    <dc:format>image/svg+xml</dc:format>
    <dc:creator>
     <cc:Agent>
      <dc:title>Matplotlib v3.9.0, https://matplotlib.org/</dc:title>
     </cc:Agent>
    </dc:creator>
   </cc:Work>
  </rdf:RDF>
 </metadata>
 <defs>
  <style type="text/css">*{stroke-linejoin: round; stroke-linecap: butt}</style>
 </defs>
 <g id="figure_1">
  <g id="patch_1">
   <path d="M 0 345.6 
L 460.8 345.6 
L 460.8 0 
L 0 0 
z
" style="fill: #ffffff"/>
  </g>
  <g id="axes_1">
   <g id="patch_2">
    <path d="M 57.6 307.584 
L 414.72 307.584 
L 414.72 41.472 
L 57.6 41.472 
z
" style="fill: #ffffff"/>
   </g>
   <g id="PolyCollection_1">
    <path d="M 73.832727 108.452571 
L 73.832727 307.584 
L 75.187923 307.584 
L 76.177946 307.584 
L 77.890199 307.584 
L 78.011923 307.584 
L 78.036268 307.584 
L 79.245395 307.584 
L 80.243533 307.584 
L 80.762889 307.584 
L 81.566268 307.584 
L 85.493901 307.584 
L 86.289166 307.584 
L 89.226775 307.584 
L 94.858546 307.584 
L 94.899121 307.584 
L 95.532086 307.584 
L 97.090155 307.584 
L 97.439098 307.584 
L 98.072064 307.584 
L 98.096408 307.584 
L 98.274937 307.584 
L 98.494041 307.584 
L 99.070202 307.584 
L 100.555236 307.584 
L 100.920409 307.584 
L 100.928524 307.584 
L 101.49657 307.584 
L 101.942892 307.584 
L 102.372984 307.584 
L 102.462248 307.584 
L 103.241283 307.584 
L 103.874248 307.584 
L 103.931053 307.584 
L 104.182616 307.584 
L 104.32057 307.584 
L 104.555903 307.584 
L 104.904846 307.584 
L 105.172639 307.584 
L 105.221329 307.584 
L 105.399858 307.584 
L 105.610846 307.584 
L 105.659536 307.584 
L 105.73257 307.584 
L 106.982272 307.584 
L 107.306869 307.584 
L 107.420479 307.584 
L 107.550318 307.584 
L 107.728846 307.584 
L 107.907375 307.584 
L 108.126479 307.584 
L 108.434846 307.584 
L 108.800019 307.584 
L 109.140847 307.584 
L 109.416755 307.584 
L 111.469835 307.584 
L 111.502295 307.584 
L 112.119031 307.584 
L 112.289445 307.584 
L 112.378709 307.584 
L 112.93864 307.584 
L 114.301951 307.584 
L 114.423675 307.584 
L 114.951146 307.584 
L 115.746411 307.584 
L 116.979882 307.584 
L 117.198985 307.584 
L 117.539813 307.584 
L 118.262043 307.584 
L 119.479285 307.584 
L 120.477423 307.584 
L 120.526112 307.584 
L 120.542342 307.584 
L 120.704641 307.584 
L 120.83448 307.584 
L 121.938112 307.584 
L 123.04986 307.584 
L 123.212159 307.584 
L 123.747745 307.584 
L 124.599814 307.584 
L 125.744021 307.584 
L 125.898205 307.584 
L 126.239033 307.584 
L 126.750274 307.584 
L 127.001837 307.584 
L 127.196596 307.584 
L 127.813332 307.584 
L 128.02432 307.584 
L 128.129814 307.584 
L 128.210964 307.584 
L 128.219079 307.584 
L 128.267768 307.584 
L 129.144182 307.584 
L 129.793378 307.584 
L 129.874527 307.584 
L 130.2397 307.584 
L 130.856435 307.584 
L 131.197263 307.584 
L 131.578665 307.584 
L 132.073677 307.584 
L 132.641723 307.584 
L 133.185424 307.584 
L 133.931999 307.584 
L 134.686689 307.584 
L 137.275356 307.584 
L 137.908321 307.584 
L 137.932666 307.584 
L 139.231057 307.584 
L 139.48262 307.584 
L 140.456414 307.584 
L 140.667402 307.584 
L 140.983885 307.584 
L 141.300368 307.584 
L 141.73046 307.584 
L 143.994529 307.584 
L 144.384046 307.584 
L 144.692414 307.584 
L 146.640001 307.584 
L 146.75361 307.584 
L 146.818529 307.584 
L 147.337886 307.584 
L 147.646254 307.584 
L 147.857242 307.584 
L 149.326047 307.584 
L 150.324185 307.584 
L 150.97338 307.584 
L 151.07076 307.584 
L 151.492737 307.584 
L 151.874139 307.584 
L 151.922829 307.584 
L 152.028323 307.584 
L 152.060783 307.584 
L 152.117587 307.584 
L 153.002116 307.584 
L 154.146323 307.584 
L 155.022737 307.584 
L 155.720622 307.584 
L 156.386048 307.584 
L 156.710645 307.584 
L 157.035243 307.584 
L 158.495933 307.584 
L 158.90168 307.584 
L 159.964738 307.584 
L 161.003451 307.584 
L 162.650784 307.584 
L 163.243175 307.584 
L 163.527198 307.584 
L 164.866164 307.584 
L 166.383658 307.584 
L 166.578417 307.584 
L 167.195152 307.584 
L 167.61713 307.584 
L 169.426762 307.584 
L 169.475452 307.584 
L 169.621521 307.584 
L 170.44113 307.584 
L 171.106555 307.584 
L 171.260739 307.584 
L 174.636556 307.584 
L 175.074763 307.584 
L 175.439935 307.584 
L 176.851935 307.584 
L 177.533591 307.584 
L 179.253959 307.584 
L 179.602901 307.584 
L 180.649729 307.584 
L 180.738993 307.584 
L 185.437546 307.584 
L 187.101109 307.584 
L 188.083017 307.584 
L 188.578029 307.584 
L 189.714121 307.584 
L 190.866443 307.584 
L 191.036857 307.584 
L 191.783431 307.584 
L 191.888926 307.584 
L 193.982581 307.584 
L 195.670489 307.584 
L 197.747915 307.584 
L 199.030076 307.584 
L 200.904628 307.584 
L 202.300398 307.584 
L 204.085686 307.584 
L 204.491433 307.584 
L 205.311042 307.584 
L 207.867249 307.584 
L 208.029548 307.584 
L 211.340445 307.584 
L 213.766813 307.584 
L 213.791158 307.584 
L 217.824285 307.584 
L 223.999757 307.584 
L 228.349367 307.584 
L 229.031022 307.584 
L 229.30693 307.584 
L 229.477344 307.584 
L 229.672103 307.584 
L 233.721459 307.584 
L 234.192126 307.584 
L 234.476149 307.584 
L 235.027965 307.584 
L 240.481207 307.584 
L 245.204105 307.584 
L 246.299622 307.584 
L 246.348312 307.584 
L 246.62422 307.584 
L 250.803416 307.584 
L 261.774819 307.584 
L 264.890958 307.584 
L 264.996452 307.584 
L 275.838016 307.584 
L 278.905465 307.584 
L 282.297511 307.584 
L 294.843214 307.584 
L 297.634755 307.584 
L 303.112342 307.584 
L 307.697285 307.584 
L 310.683584 307.584 
L 336.132047 307.584 
L 336.708208 307.584 
L 345.683335 307.584 
L 385.592627 307.584 
L 398.487273 307.584 
L 398.487273 307.584 
L 398.487273 307.584 
L 385.592627 307.584 
L 345.683335 307.584 
L 336.708208 307.584 
L 336.132047 306.452571 
L 310.683584 306.452571 
L 307.697285 306.452571 
L 303.112342 306.452571 
L 297.634755 306.452571 
L 294.843214 306.452571 
L 282.297511 305.321143 
L 278.905465 305.321143 
L 275.838016 305.321143 
L 264.996452 304.189714 
L 264.890958 303.058286 
L 261.774819 303.058286 
L 250.803416 303.058286 
L 246.62422 303.058286 
L 246.348312 301.926857 
L 246.299622 300.795429 
L 245.204105 299.664 
L 240.481207 299.664 
L 235.027965 298.532571 
L 234.476149 297.401143 
L 234.192126 296.269714 
L 233.721459 296.269714 
L 229.672103 296.269714 
L 229.477344 296.269714 
L 229.30693 296.269714 
L 229.031022 295.138286 
L 228.349367 294.006857 
L 223.999757 292.875429 
L 217.824285 292.875429 
L 213.791158 292.875429 
L 213.766813 292.875429 
L 211.340445 291.744 
L 208.029548 290.612571 
L 207.867249 290.612571 
L 205.311042 290.612571 
L 204.491433 289.481143 
L 204.085686 288.349714 
L 202.300398 288.349714 
L 200.904628 288.349714 
L 199.030076 287.218286 
L 197.747915 286.086857 
L 195.670489 284.955429 
L 193.982581 284.955429 
L 191.888926 283.824 
L 191.783431 282.692571 
L 191.036857 281.561143 
L 190.866443 280.429714 
L 189.714121 279.298286 
L 188.578029 278.166857 
L 188.083017 277.035429 
L 187.101109 275.904 
L 185.437546 274.772571 
L 180.738993 274.772571 
L 180.649729 273.641143 
L 179.602901 272.509714 
L 179.253959 271.378286 
L 177.533591 270.246857 
L 176.851935 269.115429 
L 175.439935 267.984 
L 175.074763 266.852571 
L 174.636556 265.721143 
L 171.260739 264.589714 
L 171.106555 263.458286 
L 170.44113 263.458286 
L 169.621521 262.326857 
L 169.475452 261.195429 
L 169.426762 260.064 
L 167.61713 258.932571 
L 167.195152 257.801143 
L 166.578417 256.669714 
L 166.383658 255.538286 
L 164.866164 254.406857 
L 163.527198 253.275429 
L 163.243175 253.275429 
L 162.650784 252.144 
L 161.003451 252.144 
L 159.964738 251.012571 
L 158.90168 249.881143 
L 158.495933 248.749714 
L 157.035243 247.618286 
L 156.710645 246.486857 
L 156.386048 245.355429 
L 155.720622 244.224 
L 155.022737 244.224 
L 154.146323 243.092571 
L 153.002116 241.961143 
L 152.117587 240.829714 
L 152.060783 239.698286 
L 152.028323 238.566857 
L 151.922829 237.435429 
L 151.874139 236.304 
L 151.492737 236.304 
L 151.07076 235.172571 
L 150.97338 234.041143 
L 150.324185 232.909714 
L 149.326047 231.778286 
L 147.857242 230.646857 
L 147.646254 228.384 
L 147.337886 227.252571 
L 146.818529 226.121143 
L 146.75361 224.989714 
L 146.640001 224.989714 
L 144.692414 223.858286 
L 144.384046 222.726857 
L 143.994529 221.595429 
L 141.73046 220.464 
L 141.300368 219.332571 
L 140.983885 219.332571 
L 140.667402 218.201143 
L 140.456414 217.069714 
L 139.48262 215.938286 
L 139.231057 214.806857 
L 137.932666 213.675429 
L 137.908321 212.544 
L 137.275356 212.544 
L 134.686689 211.412571 
L 133.931999 210.281143 
L 133.185424 209.149714 
L 132.641723 208.018286 
L 132.073677 206.886857 
L 131.578665 205.755429 
L 131.197263 204.624 
L 130.856435 203.492571 
L 130.2397 202.361143 
L 129.874527 201.229714 
L 129.793378 200.098286 
L 129.144182 198.966857 
L 128.267768 197.835429 
L 128.219079 196.704 
L 128.210964 195.572571 
L 128.129814 195.572571 
L 128.02432 194.441143 
L 127.813332 193.309714 
L 127.196596 192.178286 
L 127.001837 191.046857 
L 126.750274 189.915429 
L 126.239033 188.784 
L 125.898205 187.652571 
L 125.744021 187.652571 
L 124.599814 186.521143 
L 123.747745 186.521143 
L 123.212159 185.389714 
L 123.04986 184.258286 
L 121.938112 184.258286 
L 120.83448 183.126857 
L 120.704641 181.995429 
L 120.542342 181.995429 
L 120.526112 180.864 
L 120.477423 179.732571 
L 119.479285 178.601143 
L 118.262043 177.469714 
L 117.539813 176.338286 
L 117.198985 175.206857 
L 116.979882 174.075429 
L 115.746411 172.944 
L 114.951146 171.812571 
L 114.423675 170.681143 
L 114.301951 169.549714 
L 112.93864 168.418286 
L 112.378709 167.286857 
L 112.289445 167.286857 
L 112.119031 166.155429 
L 111.502295 165.024 
L 111.469835 165.024 
L 109.416755 163.892571 
L 109.140847 162.761143 
L 108.800019 162.761143 
L 108.434846 161.629714 
L 108.126479 160.498286 
L 107.907375 159.366857 
L 107.728846 158.235429 
L 107.550318 157.104 
L 107.420479 155.972571 
L 107.306869 154.841143 
L 106.982272 152.578286 
L 105.73257 152.578286 
L 105.659536 151.446857 
L 105.610846 150.315429 
L 105.399858 149.184 
L 105.221329 148.052571 
L 105.172639 146.921143 
L 104.904846 145.789714 
L 104.555903 144.658286 
L 104.32057 143.526857 
L 104.182616 142.395429 
L 103.931053 141.264 
L 103.874248 140.132571 
L 103.241283 140.132571 
L 102.462248 139.001143 
L 102.372984 137.869714 
L 101.942892 136.738286 
L 101.49657 135.606857 
L 100.928524 134.475429 
L 100.920409 133.344 
L 100.555236 132.212571 
L 99.070202 131.081143 
L 98.494041 129.949714 
L 98.274937 128.818286 
L 98.096408 127.686857 
L 98.072064 126.555429 
L 97.439098 126.555429 
L 97.090155 125.424 
L 95.532086 124.292571 
L 94.899121 123.161143 
L 94.858546 122.029714 
L 89.226775 120.898286 
L 86.289166 119.766857 
L 85.493901 118.635429 
L 81.566268 117.504 
L 80.762889 116.372571 
L 80.243533 115.241143 
L 79.245395 114.109714 
L 78.036268 112.978286 
L 78.011923 111.846857 
L 77.890199 110.715429 
L 76.177946 109.584 
L 75.187923 109.584 
L 73.832727 108.452571 
z
" clip-path="url(#pb5273a617c)" style="fill: #008000"/>
   </g>
   <g id="PolyCollection_2">
    <path d="M 73.832727 55.275429 
L 73.832727 108.452571 
L 75.187923 109.584 
L 76.177946 109.584 
L 77.890199 110.715429 
L 78.011923 111.846857 
L 78.036268 112.978286 
L 79.245395 114.109714 
L 80.243533 115.241143 
L 80.762889 116.372571 
L 81.566268 117.504 
L 85.493901 118.635429 
L 86.289166 119.766857 
L 89.226775 120.898286 
L 94.858546 122.029714 
L 94.899121 123.161143 
L 95.532086 124.292571 
L 97.090155 125.424 
L 97.439098 126.555429 
L 98.072064 126.555429 
L 98.096408 127.686857 
L 98.274937 128.818286 
L 98.494041 129.949714 
L 99.070202 131.081143 
L 100.555236 132.212571 
L 100.920409 133.344 
L 100.928524 134.475429 
L 101.49657 135.606857 
L 101.942892 136.738286 
L 102.372984 137.869714 
L 102.462248 139.001143 
L 103.241283 140.132571 
L 103.874248 140.132571 
L 103.931053 141.264 
L 104.182616 142.395429 
L 104.32057 143.526857 
L 104.555903 144.658286 
L 104.904846 145.789714 
L 105.172639 146.921143 
L 105.221329 148.052571 
L 105.399858 149.184 
L 105.610846 150.315429 
L 105.659536 151.446857 
L 105.73257 152.578286 
L 106.982272 152.578286 
L 107.306869 154.841143 
L 107.420479 155.972571 
L 107.550318 157.104 
L 107.728846 158.235429 
L 107.907375 159.366857 
L 108.126479 160.498286 
L 108.434846 161.629714 
L 108.800019 162.761143 
L 109.140847 162.761143 
L 109.416755 163.892571 
L 111.469835 165.024 
L 111.502295 165.024 
L 112.119031 166.155429 
L 112.289445 167.286857 
L 112.378709 167.286857 
L 112.93864 168.418286 
L 114.301951 169.549714 
L 114.423675 170.681143 
L 114.951146 171.812571 
L 115.746411 172.944 
L 116.979882 174.075429 
L 117.198985 175.206857 
L 117.539813 176.338286 
L 118.262043 177.469714 
L 119.479285 178.601143 
L 120.477423 179.732571 
L 120.526112 180.864 
L 120.542342 181.995429 
L 120.704641 181.995429 
L 120.83448 183.126857 
L 121.938112 184.258286 
L 123.04986 184.258286 
L 123.212159 185.389714 
L 123.747745 186.521143 
L 124.599814 186.521143 
L 125.744021 187.652571 
L 125.898205 187.652571 
L 126.239033 188.784 
L 126.750274 189.915429 
L 127.001837 191.046857 
L 127.196596 192.178286 
L 127.813332 193.309714 
L 128.02432 194.441143 
L 128.129814 195.572571 
L 128.210964 195.572571 
L 128.219079 196.704 
L 128.267768 197.835429 
L 129.144182 198.966857 
L 129.793378 200.098286 
L 129.874527 201.229714 
L 130.2397 202.361143 
L 130.856435 203.492571 
L 131.197263 204.624 
L 131.578665 205.755429 
L 132.073677 206.886857 
L 132.641723 208.018286 
L 133.185424 209.149714 
L 133.931999 210.281143 
L 134.686689 211.412571 
L 137.275356 212.544 
L 137.908321 212.544 
L 137.932666 213.675429 
L 139.231057 214.806857 
L 139.48262 215.938286 
L 140.456414 217.069714 
L 140.667402 218.201143 
L 140.983885 219.332571 
L 141.300368 219.332571 
L 141.73046 220.464 
L 143.994529 221.595429 
L 144.384046 222.726857 
L 144.692414 223.858286 
L 146.640001 224.989714 
L 146.75361 224.989714 
L 146.818529 226.121143 
L 147.337886 227.252571 
L 147.646254 228.384 
L 147.857242 230.646857 
L 149.326047 231.778286 
L 150.324185 232.909714 
L 150.97338 234.041143 
L 151.07076 235.172571 
L 151.492737 236.304 
L 151.874139 236.304 
L 151.922829 237.435429 
L 152.028323 238.566857 
L 152.060783 239.698286 
L 152.117587 240.829714 
L 153.002116 241.961143 
L 154.146323 243.092571 
L 155.022737 244.224 
L 155.720622 244.224 
L 156.386048 245.355429 
L 156.710645 246.486857 
L 157.035243 247.618286 
L 158.495933 248.749714 
L 158.90168 249.881143 
L 159.964738 251.012571 
L 161.003451 252.144 
L 162.650784 252.144 
L 163.243175 253.275429 
L 163.527198 253.275429 
L 164.866164 254.406857 
L 166.383658 255.538286 
L 166.578417 256.669714 
L 167.195152 257.801143 
L 167.61713 258.932571 
L 169.426762 260.064 
L 169.475452 261.195429 
L 169.621521 262.326857 
L 170.44113 263.458286 
L 171.106555 263.458286 
L 171.260739 264.589714 
L 174.636556 265.721143 
L 175.074763 266.852571 
L 175.439935 267.984 
L 176.851935 269.115429 
L 177.533591 270.246857 
L 179.253959 271.378286 
L 179.602901 272.509714 
L 180.649729 273.641143 
L 180.738993 274.772571 
L 185.437546 274.772571 
L 187.101109 275.904 
L 188.083017 277.035429 
L 188.578029 278.166857 
L 189.714121 279.298286 
L 190.866443 280.429714 
L 191.036857 281.561143 
L 191.783431 282.692571 
L 191.888926 283.824 
L 193.982581 284.955429 
L 195.670489 284.955429 
L 197.747915 286.086857 
L 199.030076 287.218286 
L 200.904628 288.349714 
L 202.300398 288.349714 
L 204.085686 288.349714 
L 204.491433 289.481143 
L 205.311042 290.612571 
L 207.867249 290.612571 
L 208.029548 290.612571 
L 211.340445 291.744 
L 213.766813 292.875429 
L 213.791158 292.875429 
L 217.824285 292.875429 
L 223.999757 292.875429 
L 228.349367 294.006857 
L 229.031022 295.138286 
L 229.30693 296.269714 
L 229.477344 296.269714 
L 229.672103 296.269714 
L 233.721459 296.269714 
L 234.192126 296.269714 
L 234.476149 297.401143 
L 235.027965 298.532571 
L 240.481207 299.664 
L 245.204105 299.664 
L 246.299622 300.795429 
L 246.348312 301.926857 
L 246.62422 303.058286 
L 250.803416 303.058286 
L 261.774819 303.058286 
L 264.890958 303.058286 
L 264.996452 304.189714 
L 275.838016 305.321143 
L 278.905465 305.321143 
L 282.297511 305.321143 
L 294.843214 306.452571 
L 297.634755 306.452571 
L 303.112342 306.452571 
L 307.697285 306.452571 
L 310.683584 306.452571 
L 336.132047 306.452571 
L 336.708208 307.584 
L 345.683335 307.584 
L 385.592627 307.584 
L 398.487273 307.584 
L 398.487273 306.452571 
L 398.487273 306.452571 
L 385.592627 305.321143 
L 345.683335 304.189714 
L 336.708208 303.058286 
L 336.132047 301.926857 
L 310.683584 300.795429 
L 307.697285 299.664 
L 303.112342 298.532571 
L 297.634755 297.401143 
L 294.843214 296.269714 
L 282.297511 295.138286 
L 278.905465 294.006857 
L 275.838016 292.875429 
L 264.996452 291.744 
L 264.890958 290.612571 
L 261.774819 289.481143 
L 250.803416 288.349714 
L 246.62422 287.218286 
L 246.348312 286.086857 
L 246.299622 284.955429 
L 245.204105 283.824 
L 240.481207 282.692571 
L 235.027965 281.561143 
L 234.476149 280.429714 
L 234.192126 279.298286 
L 233.721459 278.166857 
L 229.672103 277.035429 
L 229.477344 275.904 
L 229.30693 274.772571 
L 229.031022 273.641143 
L 228.349367 272.509714 
L 223.999757 271.378286 
L 217.824285 270.246857 
L 213.791158 269.115429 
L 213.766813 267.984 
L 211.340445 266.852571 
L 208.029548 265.721143 
L 207.867249 264.589714 
L 205.311042 263.458286 
L 204.491433 262.326857 
L 204.085686 261.195429 
L 202.300398 260.064 
L 200.904628 258.932571 
L 199.030076 257.801143 
L 197.747915 256.669714 
L 195.670489 255.538286 
L 193.982581 254.406857 
L 191.888926 253.275429 
L 191.783431 252.144 
L 191.036857 251.012571 
L 190.866443 249.881143 
L 189.714121 248.749714 
L 188.578029 247.618286 
L 188.083017 246.486857 
L 187.101109 245.355429 
L 185.437546 244.224 
L 180.738993 243.092571 
L 180.649729 241.961143 
L 179.602901 240.829714 
L 179.253959 239.698286 
L 177.533591 238.566857 
L 176.851935 237.435429 
L 175.439935 236.304 
L 175.074763 235.172571 
L 174.636556 234.041143 
L 171.260739 232.909714 
L 171.106555 231.778286 
L 170.44113 230.646857 
L 169.621521 229.515429 
L 169.475452 228.384 
L 169.426762 227.252571 
L 167.61713 226.121143 
L 167.195152 224.989714 
L 166.578417 223.858286 
L 166.383658 222.726857 
L 164.866164 221.595429 
L 163.527198 220.464 
L 163.243175 219.332571 
L 162.650784 218.201143 
L 161.003451 217.069714 
L 159.964738 215.938286 
L 158.90168 214.806857 
L 158.495933 213.675429 
L 157.035243 212.544 
L 156.710645 211.412571 
L 156.386048 210.281143 
L 155.720622 209.149714 
L 155.022737 208.018286 
L 154.146323 206.886857 
L 153.002116 205.755429 
L 152.117587 204.624 
L 152.060783 203.492571 
L 152.028323 202.361143 
L 151.922829 201.229714 
L 151.874139 200.098286 
L 151.492737 198.966857 
L 151.07076 197.835429 
L 150.97338 196.704 
L 150.324185 195.572571 
L 149.326047 194.441143 
L 147.857242 193.309714 
L 147.646254 191.046857 
L 147.337886 189.915429 
L 146.818529 188.784 
L 146.75361 187.652571 
L 146.640001 186.521143 
L 144.692414 185.389714 
L 144.384046 184.258286 
L 143.994529 183.126857 
L 141.73046 181.995429 
L 141.300368 180.864 
L 140.983885 179.732571 
L 140.667402 178.601143 
L 140.456414 177.469714 
L 139.48262 176.338286 
L 139.231057 175.206857 
L 137.932666 174.075429 
L 137.908321 172.944 
L 137.275356 171.812571 
L 134.686689 170.681143 
L 133.931999 169.549714 
L 133.185424 168.418286 
L 132.641723 167.286857 
L 132.073677 166.155429 
L 131.578665 165.024 
L 131.197263 163.892571 
L 130.856435 162.761143 
L 130.2397 161.629714 
L 129.874527 160.498286 
L 129.793378 159.366857 
L 129.144182 158.235429 
L 128.267768 157.104 
L 128.219079 155.972571 
L 128.210964 154.841143 
L 128.129814 153.709714 
L 128.02432 152.578286 
L 127.813332 151.446857 
L 127.196596 150.315429 
L 127.001837 149.184 
L 126.750274 148.052571 
L 126.239033 146.921143 
L 125.898205 145.789714 
L 125.744021 144.658286 
L 124.599814 143.526857 
L 123.747745 142.395429 
L 123.212159 141.264 
L 123.04986 140.132571 
L 121.938112 139.001143 
L 120.83448 137.869714 
L 120.704641 136.738286 
L 120.542342 135.606857 
L 120.526112 134.475429 
L 120.477423 133.344 
L 119.479285 132.212571 
L 118.262043 131.081143 
L 117.539813 129.949714 
L 117.198985 128.818286 
L 116.979882 127.686857 
L 115.746411 126.555429 
L 114.951146 125.424 
L 114.423675 124.292571 
L 114.301951 123.161143 
L 112.93864 122.029714 
L 112.378709 120.898286 
L 112.289445 119.766857 
L 112.119031 118.635429 
L 111.502295 117.504 
L 111.469835 116.372571 
L 109.416755 115.241143 
L 109.140847 114.109714 
L 108.800019 112.978286 
L 108.434846 111.846857 
L 108.126479 110.715429 
L 107.907375 109.584 
L 107.728846 108.452571 
L 107.550318 107.321143 
L 107.420479 106.189714 
L 107.306869 105.058286 
L 106.982272 102.795429 
L 105.73257 101.664 
L 105.659536 100.532571 
L 105.610846 99.401143 
L 105.399858 98.269714 
L 105.221329 97.138286 
L 105.172639 96.006857 
L 104.904846 94.875429 
L 104.555903 93.744 
L 104.32057 92.612571 
L 104.182616 91.481143 
L 103.931053 90.349714 
L 103.874248 89.218286 
L 103.241283 88.086857 
L 102.462248 86.955429 
L 102.372984 85.824 
L 101.942892 84.692571 
L 101.49657 83.561143 
L 100.928524 82.429714 
L 100.920409 81.298286 
L 100.555236 80.166857 
L 99.070202 79.035429 
L 98.494041 77.904 
L 98.274937 76.772571 
L 98.096408 75.641143 
L 98.072064 74.509714 
L 97.439098 73.378286 
L 97.090155 72.246857 
L 95.532086 71.115429 
L 94.899121 69.984 
L 94.858546 68.852571 
L 89.226775 67.721143 
L 86.289166 66.589714 
L 85.493901 65.458286 
L 81.566268 64.326857 
L 80.762889 63.195429 
L 80.243533 62.064 
L 79.245395 60.932571 
L 78.036268 59.801143 
L 78.011923 58.669714 
L 77.890199 57.538286 
L 76.177946 56.406857 
L 75.187923 56.406857 
L 73.832727 55.275429 
z
" clip-path="url(#pb5273a617c)" style="fill: #7cfc00"/>
   </g>
   <g id="PolyCollection_3">
    <path d="M 73.832727 54.144 
L 73.832727 55.275429 
L 75.187923 56.406857 
L 76.177946 56.406857 
L 77.890199 57.538286 
L 78.011923 58.669714 
L 78.036268 59.801143 
L 79.245395 60.932571 
L 80.243533 62.064 
L 80.762889 63.195429 
L 81.566268 64.326857 
L 85.493901 65.458286 
L 86.289166 66.589714 
L 89.226775 67.721143 
L 94.858546 68.852571 
L 94.899121 69.984 
L 95.532086 71.115429 
L 97.090155 72.246857 
L 97.439098 73.378286 
L 98.072064 74.509714 
L 98.096408 75.641143 
L 98.274937 76.772571 
L 98.494041 77.904 
L 99.070202 79.035429 
L 100.555236 80.166857 
L 100.920409 81.298286 
L 100.928524 82.429714 
L 101.49657 83.561143 
L 101.942892 84.692571 
L 102.372984 85.824 
L 102.462248 86.955429 
L 103.241283 88.086857 
L 103.874248 89.218286 
L 103.931053 90.349714 
L 104.182616 91.481143 
L 104.32057 92.612571 
L 104.555903 93.744 
L 104.904846 94.875429 
L 105.172639 96.006857 
L 105.221329 97.138286 
L 105.399858 98.269714 
L 105.610846 99.401143 
L 105.659536 100.532571 
L 105.73257 101.664 
L 106.982272 102.795429 
L 107.306869 105.058286 
L 107.420479 106.189714 
L 107.550318 107.321143 
L 107.728846 108.452571 
L 107.907375 109.584 
L 108.126479 110.715429 
L 108.434846 111.846857 
L 108.800019 112.978286 
L 109.140847 114.109714 
L 109.416755 115.241143 
L 111.469835 116.372571 
L 111.502295 117.504 
L 112.119031 118.635429 
L 112.289445 119.766857 
L 112.378709 120.898286 
L 112.93864 122.029714 
L 114.301951 123.161143 
L 114.423675 124.292571 
L 114.951146 125.424 
L 115.746411 126.555429 
L 116.979882 127.686857 
L 117.198985 128.818286 
L 117.539813 129.949714 
L 118.262043 131.081143 
L 119.479285 132.212571 
L 120.477423 133.344 
L 120.526112 134.475429 
L 120.542342 135.606857 
L 120.704641 136.738286 
L 120.83448 137.869714 
L 121.938112 139.001143 
L 123.04986 140.132571 
L 123.212159 141.264 
L 123.747745 142.395429 
L 124.599814 143.526857 
L 125.744021 144.658286 
L 125.898205 145.789714 
L 126.239033 146.921143 
L 126.750274 148.052571 
L 127.001837 149.184 
L 127.196596 150.315429 
L 127.813332 151.446857 
L 128.02432 152.578286 
L 128.129814 153.709714 
L 128.210964 154.841143 
L 128.219079 155.972571 
L 128.267768 157.104 
L 129.144182 158.235429 
L 129.793378 159.366857 
L 129.874527 160.498286 
L 130.2397 161.629714 
L 130.856435 162.761143 
L 131.197263 163.892571 
L 131.578665 165.024 
L 132.073677 166.155429 
L 132.641723 167.286857 
L 133.185424 168.418286 
L 133.931999 169.549714 
L 134.686689 170.681143 
L 137.275356 171.812571 
L 137.908321 172.944 
L 137.932666 174.075429 
L 139.231057 175.206857 
L 139.48262 176.338286 
L 140.456414 177.469714 
L 140.667402 178.601143 
L 140.983885 179.732571 
L 141.300368 180.864 
L 141.73046 181.995429 
L 143.994529 183.126857 
L 144.384046 184.258286 
L 144.692414 185.389714 
L 146.640001 186.521143 
L 146.75361 187.652571 
L 146.818529 188.784 
L 147.337886 189.915429 
L 147.646254 191.046857 
L 147.857242 193.309714 
L 149.326047 194.441143 
L 150.324185 195.572571 
L 150.97338 196.704 
L 151.07076 197.835429 
L 151.492737 198.966857 
L 151.874139 200.098286 
L 151.922829 201.229714 
L 152.028323 202.361143 
L 152.060783 203.492571 
L 152.117587 204.624 
L 153.002116 205.755429 
L 154.146323 206.886857 
L 155.022737 208.018286 
L 155.720622 209.149714 
L 156.386048 210.281143 
L 156.710645 211.412571 
L 157.035243 212.544 
L 158.495933 213.675429 
L 158.90168 214.806857 
L 159.964738 215.938286 
L 161.003451 217.069714 
L 162.650784 218.201143 
L 163.243175 219.332571 
L 163.527198 220.464 
L 164.866164 221.595429 
L 166.383658 222.726857 
L 166.578417 223.858286 
L 167.195152 224.989714 
L 167.61713 226.121143 
L 169.426762 227.252571 
L 169.475452 228.384 
L 169.621521 229.515429 
L 170.44113 230.646857 
L 171.106555 231.778286 
L 171.260739 232.909714 
L 174.636556 234.041143 
L 175.074763 235.172571 
L 175.439935 236.304 
L 176.851935 237.435429 
L 177.533591 238.566857 
L 179.253959 239.698286 
L 179.602901 240.829714 
L 180.649729 241.961143 
L 180.738993 243.092571 
L 185.437546 244.224 
L 187.101109 245.355429 
L 188.083017 246.486857 
L 188.578029 247.618286 
L 189.714121 248.749714 
L 190.866443 249.881143 
L 191.036857 251.012571 
L 191.783431 252.144 
L 191.888926 253.275429 
L 193.982581 254.406857 
L 195.670489 255.538286 
L 197.747915 256.669714 
L 199.030076 257.801143 
L 200.904628 258.932571 
L 202.300398 260.064 
L 204.085686 261.195429 
L 204.491433 262.326857 
L 205.311042 263.458286 
L 207.867249 264.589714 
L 208.029548 265.721143 
L 211.340445 266.852571 
L 213.766813 267.984 
L 213.791158 269.115429 
L 217.824285 270.246857 
L 223.999757 271.378286 
L 228.349367 272.509714 
L 229.031022 273.641143 
L 229.30693 274.772571 
L 229.477344 275.904 
L 229.672103 277.035429 
L 233.721459 278.166857 
L 234.192126 279.298286 
L 234.476149 280.429714 
L 235.027965 281.561143 
L 240.481207 282.692571 
L 245.204105 283.824 
L 246.299622 284.955429 
L 246.348312 286.086857 
L 246.62422 287.218286 
L 250.803416 288.349714 
L 261.774819 289.481143 
L 264.890958 290.612571 
L 264.996452 291.744 
L 275.838016 292.875429 
L 278.905465 294.006857 
L 282.297511 295.138286 
L 294.843214 296.269714 
L 297.634755 297.401143 
L 303.112342 298.532571 
L 307.697285 299.664 
L 310.683584 300.795429 
L 336.132047 301.926857 
L 336.708208 303.058286 
L 345.683335 304.189714 
L 385.592627 305.321143 
L 398.487273 306.452571 
L 398.487273 306.452571 
L 398.487273 306.452571 
L 385.592627 305.321143 
L 345.683335 304.189714 
L 336.708208 303.058286 
L 336.132047 301.926857 
L 310.683584 300.795429 
L 307.697285 299.664 
L 303.112342 298.532571 
L 297.634755 297.401143 
L 294.843214 296.269714 
L 282.297511 295.138286 
L 278.905465 294.006857 
L 275.838016 292.875429 
L 264.996452 291.744 
L 264.890958 290.612571 
L 261.774819 289.481143 
L 250.803416 288.349714 
L 246.62422 287.218286 
L 246.348312 286.086857 
L 246.299622 284.955429 
L 245.204105 283.824 
L 240.481207 282.692571 
L 235.027965 281.561143 
L 234.476149 280.429714 
L 234.192126 279.298286 
L 233.721459 278.166857 
L 229.672103 277.035429 
L 229.477344 275.904 
L 229.30693 274.772571 
L 229.031022 273.641143 
L 228.349367 272.509714 
L 223.999757 271.378286 
L 217.824285 270.246857 
L 213.791158 269.115429 
L 213.766813 267.984 
L 211.340445 266.852571 
L 208.029548 265.721143 
L 207.867249 264.589714 
L 205.311042 263.458286 
L 204.491433 262.326857 
L 204.085686 261.195429 
L 202.300398 260.064 
L 200.904628 258.932571 
L 199.030076 257.801143 
L 197.747915 256.669714 
L 195.670489 255.538286 
L 193.982581 254.406857 
L 191.888926 253.275429 
L 191.783431 252.144 
L 191.036857 251.012571 
L 190.866443 249.881143 
L 189.714121 248.749714 
L 188.578029 247.618286 
L 188.083017 246.486857 
L 187.101109 245.355429 
L 185.437546 244.224 
L 180.738993 243.092571 
L 180.649729 241.961143 
L 179.602901 240.829714 
L 179.253959 239.698286 
L 177.533591 238.566857 
L 176.851935 237.435429 
L 175.439935 236.304 
L 175.074763 235.172571 
L 174.636556 234.041143 
L 171.260739 232.909714 
L 171.106555 231.778286 
L 170.44113 230.646857 
L 169.621521 229.515429 
L 169.475452 228.384 
L 169.426762 227.252571 
L 167.61713 226.121143 
L 167.195152 224.989714 
L 166.578417 223.858286 
L 166.383658 222.726857 
L 164.866164 221.595429 
L 163.527198 220.464 
L 163.243175 219.332571 
L 162.650784 218.201143 
L 161.003451 217.069714 
L 159.964738 215.938286 
L 158.90168 214.806857 
L 158.495933 213.675429 
L 157.035243 212.544 
L 156.710645 211.412571 
L 156.386048 210.281143 
L 155.720622 209.149714 
L 155.022737 208.018286 
L 154.146323 206.886857 
L 153.002116 205.755429 
L 152.117587 204.624 
L 152.060783 203.492571 
L 152.028323 202.361143 
L 151.922829 201.229714 
L 151.874139 200.098286 
L 151.492737 198.966857 
L 151.07076 197.835429 
L 150.97338 196.704 
L 150.324185 195.572571 
L 149.326047 194.441143 
L 147.857242 193.309714 
L 147.646254 191.046857 
L 147.337886 189.915429 
L 146.818529 188.784 
L 146.75361 187.652571 
L 146.640001 186.521143 
L 144.692414 185.389714 
L 144.384046 184.258286 
L 143.994529 183.126857 
L 141.73046 181.995429 
L 141.300368 180.864 
L 140.983885 179.732571 
L 140.667402 178.601143 
L 140.456414 177.469714 
L 139.48262 176.338286 
L 139.231057 175.206857 
L 137.932666 174.075429 
L 137.908321 172.944 
L 137.275356 171.812571 
L 134.686689 170.681143 
L 133.931999 169.549714 
L 133.185424 168.418286 
L 132.641723 167.286857 
L 132.073677 166.155429 
L 131.578665 165.024 
L 131.197263 163.892571 
L 130.856435 162.761143 
L 130.2397 161.629714 
L 129.874527 160.498286 
L 129.793378 159.366857 
L 129.144182 158.235429 
L 128.267768 157.104 
L 128.219079 155.972571 
L 128.210964 154.841143 
L 128.129814 153.709714 
L 128.02432 152.578286 
L 127.813332 151.446857 
L 127.196596 150.315429 
L 127.001837 149.184 
L 126.750274 148.052571 
L 126.239033 146.921143 
L 125.898205 145.789714 
L 125.744021 144.658286 
L 124.599814 143.526857 
L 123.747745 142.395429 
L 123.212159 141.264 
L 123.04986 140.132571 
L 121.938112 139.001143 
L 120.83448 137.869714 
L 120.704641 136.738286 
L 120.542342 135.606857 
L 120.526112 134.475429 
L 120.477423 133.344 
L 119.479285 132.212571 
L 118.262043 131.081143 
L 117.539813 129.949714 
L 117.198985 128.818286 
L 116.979882 127.686857 
L 115.746411 126.555429 
L 114.951146 125.424 
L 114.423675 124.292571 
L 114.301951 123.161143 
L 112.93864 122.029714 
L 112.378709 120.898286 
L 112.289445 119.766857 
L 112.119031 118.635429 
L 111.502295 117.504 
L 111.469835 116.372571 
L 109.416755 115.241143 
L 109.140847 114.109714 
L 108.800019 112.978286 
L 108.434846 111.846857 
L 108.126479 110.715429 
L 107.907375 109.584 
L 107.728846 108.452571 
L 107.550318 107.321143 
L 107.420479 106.189714 
L 107.306869 105.058286 
L 106.982272 102.795429 
L 105.73257 101.664 
L 105.659536 100.532571 
L 105.610846 99.401143 
L 105.399858 98.269714 
L 105.221329 97.138286 
L 105.172639 96.006857 
L 104.904846 94.875429 
L 104.555903 93.744 
L 104.32057 92.612571 
L 104.182616 91.481143 
L 103.931053 90.349714 
L 103.874248 89.218286 
L 103.241283 88.086857 
L 102.462248 86.955429 
L 102.372984 85.824 
L 101.942892 84.692571 
L 101.49657 83.561143 
L 100.928524 82.429714 
L 100.920409 81.298286 
L 100.555236 80.166857 
L 99.070202 79.035429 
L 98.494041 77.904 
L 98.274937 76.772571 
L 98.096408 75.641143 
L 98.072064 74.509714 
L 97.439098 73.378286 
L 97.090155 72.246857 
L 95.532086 71.115429 
L 94.899121 69.984 
L 94.858546 68.852571 
L 89.226775 67.721143 
L 86.289166 66.589714 
L 85.493901 65.458286 
L 81.566268 64.326857 
L 80.762889 63.195429 
L 80.243533 62.064 
L 79.245395 60.932571 
L 78.036268 59.801143 
L 78.011923 58.669714 
L 77.890199 57.538286 
L 76.177946 56.406857 
L 75.187923 55.275429 
L 73.832727 54.144 
z
" clip-path="url(#pb5273a617c)" style="fill: #ff0000"/>
   </g>
   <g id="matplotlib.axis_1">
    <g id="xtick_1">
     <g id="line2d_1">
      <defs>
       <path id="m2cf0f262ca" d="M 0 0 
L 0 3.5 
" style="stroke: #000000; stroke-width: 0.8"/>
      </defs>
      <g>
       <use xlink:href="#m2cf0f262ca" x="71.463164" y="307.584" style="stroke: #000000; stroke-width: 0.8"/>
      </g>
     </g>
     <g id="text_1">
      <!-- 50 -->
      <g transform="translate(65.100664 322.182437) scale(0.1 -0.1)">
       <defs>
        <path id="DejaVuSans-35" d="M 691 4666 
L 3169 4666 
L 3169 4134 
L 1269 4134 
L 1269 2991 
Q 1406 3038 1543 3061 
Q 1681 3084 1819 3084 
Q 2600 3084 3056 2656 
Q 3513 2228 3513 1497 
Q 3513 744 3044 326 
Q 2575 -91 1722 -91 
Q 1428 -91 1123 -41 
Q 819 9 494 109 
L 494 744 
Q 775 591 1075 516 
Q 1375 441 1709 441 
Q 2250 441 2565 725 
Q 2881 1009 2881 1497 
Q 2881 1984 2565 2268 
Q 2250 2553 1709 2553 
Q 1456 2553 1204 2497 
Q 953 2441 691 2322 
L 691 4666 
z
" transform="scale(0.015625)"/>
        <path id="DejaVuSans-30" d="M 2034 4250 
Q 1547 4250 1301 3770 
Q 1056 3291 1056 2328 
Q 1056 1369 1301 889 
Q 1547 409 2034 409 
Q 2525 409 2770 889 
Q 3016 1369 3016 2328 
Q 3016 3291 2770 3770 
Q 2525 4250 2034 4250 
z
M 2034 4750 
Q 2819 4750 3233 4129 
Q 3647 3509 3647 2328 
Q 3647 1150 3233 529 
Q 2819 -91 2034 -91 
Q 1250 -91 836 529 
Q 422 1150 422 2328 
Q 422 3509 836 4129 
Q 1250 4750 2034 4750 
z
" transform="scale(0.015625)"/>
       </defs>
       <use xlink:href="#DejaVuSans-35"/>
       <use xlink:href="#DejaVuSans-30" x="63.623047"/>
      </g>
     </g>
    </g>
    <g id="xtick_2">
     <g id="line2d_2">
      <g>
       <use xlink:href="#m2cf0f262ca" x="112.037881" y="307.584" style="stroke: #000000; stroke-width: 0.8"/>
      </g>
     </g>
     <g id="text_2">
      <!-- 100 -->
      <g transform="translate(102.494131 322.182437) scale(0.1 -0.1)">
       <defs>
        <path id="DejaVuSans-31" d="M 794 531 
L 1825 531 
L 1825 4091 
L 703 3866 
L 703 4441 
L 1819 4666 
L 2450 4666 
L 2450 531 
L 3481 531 
L 3481 0 
L 794 0 
L 794 531 
z
" transform="scale(0.015625)"/>
       </defs>
       <use xlink:href="#DejaVuSans-31"/>
       <use xlink:href="#DejaVuSans-30" x="63.623047"/>
       <use xlink:href="#DejaVuSans-30" x="127.246094"/>
      </g>
     </g>
    </g>
    <g id="xtick_3">
     <g id="line2d_3">
      <g>
       <use xlink:href="#m2cf0f262ca" x="152.612599" y="307.584" style="stroke: #000000; stroke-width: 0.8"/>
      </g>
     </g>
     <g id="text_3">
      <!-- 150 -->
      <g transform="translate(143.068849 322.182437) scale(0.1 -0.1)">
       <use xlink:href="#DejaVuSans-31"/>
       <use xlink:href="#DejaVuSans-35" x="63.623047"/>
       <use xlink:href="#DejaVuSans-30" x="127.246094"/>
      </g>
     </g>
    </g>
    <g id="xtick_4">
     <g id="line2d_4">
      <g>
       <use xlink:href="#m2cf0f262ca" x="193.187317" y="307.584" style="stroke: #000000; stroke-width: 0.8"/>
      </g>
     </g>
     <g id="text_4">
      <!-- 200 -->
      <g transform="translate(183.643567 322.182437) scale(0.1 -0.1)">
       <defs>
        <path id="DejaVuSans-32" d="M 1228 531 
L 3431 531 
L 3431 0 
L 469 0 
L 469 531 
Q 828 903 1448 1529 
Q 2069 2156 2228 2338 
Q 2531 2678 2651 2914 
Q 2772 3150 2772 3378 
Q 2772 3750 2511 3984 
Q 2250 4219 1831 4219 
Q 1534 4219 1204 4116 
Q 875 4013 500 3803 
L 500 4441 
Q 881 4594 1212 4672 
Q 1544 4750 1819 4750 
Q 2544 4750 2975 4387 
Q 3406 4025 3406 3419 
Q 3406 3131 3298 2873 
Q 3191 2616 2906 2266 
Q 2828 2175 2409 1742 
Q 1991 1309 1228 531 
z
" transform="scale(0.015625)"/>
       </defs>
       <use xlink:href="#DejaVuSans-32"/>
       <use xlink:href="#DejaVuSans-30" x="63.623047"/>
       <use xlink:href="#DejaVuSans-30" x="127.246094"/>
      </g>
     </g>
    </g>
    <g id="xtick_5">
     <g id="line2d_5">
      <g>
       <use xlink:href="#m2cf0f262ca" x="233.762034" y="307.584" style="stroke: #000000; stroke-width: 0.8"/>
      </g>
     </g>
     <g id="text_5">
      <!-- 250 -->
      <g transform="translate(224.218284 322.182437) scale(0.1 -0.1)">
       <use xlink:href="#DejaVuSans-32"/>
       <use xlink:href="#DejaVuSans-35" x="63.623047"/>
       <use xlink:href="#DejaVuSans-30" x="127.246094"/>
      </g>
     </g>
    </g>
    <g id="xtick_6">
     <g id="line2d_6">
      <g>
       <use xlink:href="#m2cf0f262ca" x="274.336752" y="307.584" style="stroke: #000000; stroke-width: 0.8"/>
      </g>
     </g>
     <g id="text_6">
      <!-- 300 -->
      <g transform="translate(264.793002 322.182437) scale(0.1 -0.1)">
       <defs>
        <path id="DejaVuSans-33" d="M 2597 2516 
Q 3050 2419 3304 2112 
Q 3559 1806 3559 1356 
Q 3559 666 3084 287 
Q 2609 -91 1734 -91 
Q 1441 -91 1130 -33 
Q 819 25 488 141 
L 488 750 
Q 750 597 1062 519 
Q 1375 441 1716 441 
Q 2309 441 2620 675 
Q 2931 909 2931 1356 
Q 2931 1769 2642 2001 
Q 2353 2234 1838 2234 
L 1294 2234 
L 1294 2753 
L 1863 2753 
Q 2328 2753 2575 2939 
Q 2822 3125 2822 3475 
Q 2822 3834 2567 4026 
Q 2313 4219 1838 4219 
Q 1578 4219 1281 4162 
Q 984 4106 628 3988 
L 628 4550 
Q 988 4650 1302 4700 
Q 1616 4750 1894 4750 
Q 2613 4750 3031 4423 
Q 3450 4097 3450 3541 
Q 3450 3153 3228 2886 
Q 3006 2619 2597 2516 
z
" transform="scale(0.015625)"/>
       </defs>
       <use xlink:href="#DejaVuSans-33"/>
       <use xlink:href="#DejaVuSans-30" x="63.623047"/>
       <use xlink:href="#DejaVuSans-30" x="127.246094"/>
      </g>
     </g>
    </g>
    <g id="xtick_7">
     <g id="line2d_7">
      <g>
       <use xlink:href="#m2cf0f262ca" x="314.911469" y="307.584" style="stroke: #000000; stroke-width: 0.8"/>
      </g>
     </g>
     <g id="text_7">
      <!-- 350 -->
      <g transform="translate(305.367719 322.182437) scale(0.1 -0.1)">
       <use xlink:href="#DejaVuSans-33"/>
       <use xlink:href="#DejaVuSans-35" x="63.623047"/>
       <use xlink:href="#DejaVuSans-30" x="127.246094"/>
      </g>
     </g>
    </g>
    <g id="xtick_8">
     <g id="line2d_8">
      <g>
       <use xlink:href="#m2cf0f262ca" x="355.486187" y="307.584" style="stroke: #000000; stroke-width: 0.8"/>
      </g>
     </g>
     <g id="text_8">
      <!-- 400 -->
      <g transform="translate(345.942437 322.182437) scale(0.1 -0.1)">
       <defs>
        <path id="DejaVuSans-34" d="M 2419 4116 
L 825 1625 
L 2419 1625 
L 2419 4116 
z
M 2253 4666 
L 3047 4666 
L 3047 1625 
L 3713 1625 
L 3713 1100 
L 3047 1100 
L 3047 0 
L 2419 0 
L 2419 1100 
L 313 1100 
L 313 1709 
L 2253 4666 
z
" transform="scale(0.015625)"/>
       </defs>
       <use xlink:href="#DejaVuSans-34"/>
       <use xlink:href="#DejaVuSans-30" x="63.623047"/>
       <use xlink:href="#DejaVuSans-30" x="127.246094"/>
      </g>
     </g>
    </g>
    <g id="xtick_9">
     <g id="line2d_9">
      <g>
       <use xlink:href="#m2cf0f262ca" x="396.060905" y="307.584" style="stroke: #000000; stroke-width: 0.8"/>
      </g>
     </g>
     <g id="text_9">
      <!-- 450 -->
      <g transform="translate(386.517155 322.182437) scale(0.1 -0.1)">
       <use xlink:href="#DejaVuSans-34"/>
       <use xlink:href="#DejaVuSans-35" x="63.623047"/>
       <use xlink:href="#DejaVuSans-30" x="127.246094"/>
      </g>
     </g>
    </g>
    <g id="text_10">
     <!-- Score -->
     <g transform="translate(222.157656 335.860562) scale(0.1 -0.1)">
      <defs>
       <path id="DejaVuSans-53" d="M 3425 4513 
L 3425 3897 
Q 3066 4069 2747 4153 
Q 2428 4238 2131 4238 
Q 1616 4238 1336 4038 
Q 1056 3838 1056 3469 
Q 1056 3159 1242 3001 
Q 1428 2844 1947 2747 
L 2328 2669 
Q 3034 2534 3370 2195 
Q 3706 1856 3706 1288 
Q 3706 609 3251 259 
Q 2797 -91 1919 -91 
Q 1588 -91 1214 -16 
Q 841 59 441 206 
L 441 856 
Q 825 641 1194 531 
Q 1563 422 1919 422 
Q 2459 422 2753 634 
Q 3047 847 3047 1241 
Q 3047 1584 2836 1778 
Q 2625 1972 2144 2069 
L 1759 2144 
Q 1053 2284 737 2584 
Q 422 2884 422 3419 
Q 422 4038 858 4394 
Q 1294 4750 2059 4750 
Q 2388 4750 2728 4690 
Q 3069 4631 3425 4513 
z
" transform="scale(0.015625)"/>
       <path id="DejaVuSans-63" d="M 3122 3366 
L 3122 2828 
Q 2878 2963 2633 3030 
Q 2388 3097 2138 3097 
Q 1578 3097 1268 2742 
Q 959 2388 959 1747 
Q 959 1106 1268 751 
Q 1578 397 2138 397 
Q 2388 397 2633 464 
Q 2878 531 3122 666 
L 3122 134 
Q 2881 22 2623 -34 
Q 2366 -91 2075 -91 
Q 1284 -91 818 406 
Q 353 903 353 1747 
Q 353 2603 823 3093 
Q 1294 3584 2113 3584 
Q 2378 3584 2631 3529 
Q 2884 3475 3122 3366 
z
" transform="scale(0.015625)"/>
       <path id="DejaVuSans-6f" d="M 1959 3097 
Q 1497 3097 1228 2736 
Q 959 2375 959 1747 
Q 959 1119 1226 758 
Q 1494 397 1959 397 
Q 2419 397 2687 759 
Q 2956 1122 2956 1747 
Q 2956 2369 2687 2733 
Q 2419 3097 1959 3097 
z
M 1959 3584 
Q 2709 3584 3137 3096 
Q 3566 2609 3566 1747 
Q 3566 888 3137 398 
Q 2709 -91 1959 -91 
Q 1206 -91 779 398 
Q 353 888 353 1747 
Q 353 2609 779 3096 
Q 1206 3584 1959 3584 
z
" transform="scale(0.015625)"/>
       <path id="DejaVuSans-72" d="M 2631 2963 
Q 2534 3019 2420 3045 
Q 2306 3072 2169 3072 
Q 1681 3072 1420 2755 
Q 1159 2438 1159 1844 
L 1159 0 
L 581 0 
L 581 3500 
L 1159 3500 
L 1159 2956 
Q 1341 3275 1631 3429 
Q 1922 3584 2338 3584 
Q 2397 3584 2469 3576 
Q 2541 3569 2628 3553 
L 2631 2963 
z
" transform="scale(0.015625)"/>
       <path id="DejaVuSans-65" d="M 3597 1894 
L 3597 1613 
L 953 1613 
Q 991 1019 1311 708 
Q 1631 397 2203 397 
Q 2534 397 2845 478 
Q 3156 559 3463 722 
L 3463 178 
Q 3153 47 2828 -22 
Q 2503 -91 2169 -91 
Q 1331 -91 842 396 
Q 353 884 353 1716 
Q 353 2575 817 3079 
Q 1281 3584 2069 3584 
Q 2775 3584 3186 3129 
Q 3597 2675 3597 1894 
z
M 3022 2063 
Q 3016 2534 2758 2815 
Q 2500 3097 2075 3097 
Q 1594 3097 1305 2825 
Q 1016 2553 972 2059 
L 3022 2063 
z
" transform="scale(0.015625)"/>
      </defs>
      <use xlink:href="#DejaVuSans-53"/>
      <use xlink:href="#DejaVuSans-63" x="63.476562"/>
      <use xlink:href="#DejaVuSans-6f" x="118.457031"/>
      <use xlink:href="#DejaVuSans-72" x="179.638672"/>
      <use xlink:href="#DejaVuSans-65" x="218.501953"/>
     </g>
    </g>
   </g>
   <g id="matplotlib.axis_2">
    <g id="ytick_1">
     <g id="line2d_10">
      <defs>
       <path id="mdfdaf2ce83" d="M 0 0 
L -3.5 0 
" style="stroke: #000000; stroke-width: 0.8"/>
      </defs>
      <g>
       <use xlink:href="#mdfdaf2ce83" x="57.6" y="307.584" style="stroke: #000000; stroke-width: 0.8"/>
      </g>
     </g>
     <g id="text_11">
      <!-- 0 -->
      <g transform="translate(44.2375 311.383219) scale(0.1 -0.1)">
       <use xlink:href="#DejaVuSans-30"/>
      </g>
     </g>
    </g>
    <g id="ytick_2">
     <g id="line2d_11">
      <g>
       <use xlink:href="#mdfdaf2ce83" x="57.6" y="251.012571" style="stroke: #000000; stroke-width: 0.8"/>
      </g>
     </g>
     <g id="text_12">
      <!-- 50 -->
      <g transform="translate(37.875 254.81179) scale(0.1 -0.1)">
       <use xlink:href="#DejaVuSans-35"/>
       <use xlink:href="#DejaVuSans-30" x="63.623047"/>
      </g>
     </g>
    </g>
    <g id="ytick_3">
     <g id="line2d_12">
      <g>
       <use xlink:href="#mdfdaf2ce83" x="57.6" y="194.441143" style="stroke: #000000; stroke-width: 0.8"/>
      </g>
     </g>
     <g id="text_13">
      <!-- 100 -->
      <g transform="translate(31.5125 198.240362) scale(0.1 -0.1)">
       <use xlink:href="#DejaVuSans-31"/>
       <use xlink:href="#DejaVuSans-30" x="63.623047"/>
       <use xlink:href="#DejaVuSans-30" x="127.246094"/>
      </g>
     </g>
    </g>
    <g id="ytick_4">
     <g id="line2d_13">
      <g>
       <use xlink:href="#mdfdaf2ce83" x="57.6" y="137.869714" style="stroke: #000000; stroke-width: 0.8"/>
      </g>
     </g>
     <g id="text_14">
      <!-- 150 -->
      <g transform="translate(31.5125 141.668933) scale(0.1 -0.1)">
       <use xlink:href="#DejaVuSans-31"/>
       <use xlink:href="#DejaVuSans-35" x="63.623047"/>
       <use xlink:href="#DejaVuSans-30" x="127.246094"/>
      </g>
     </g>
    </g>
    <g id="ytick_5">
     <g id="line2d_14">
      <g>
       <use xlink:href="#mdfdaf2ce83" x="57.6" y="81.298286" style="stroke: #000000; stroke-width: 0.8"/>
      </g>
     </g>
     <g id="text_15">
      <!-- 200 -->
      <g transform="translate(31.5125 85.097504) scale(0.1 -0.1)">
       <use xlink:href="#DejaVuSans-32"/>
       <use xlink:href="#DejaVuSans-30" x="63.623047"/>
       <use xlink:href="#DejaVuSans-30" x="127.246094"/>
      </g>
     </g>
    </g>
    <g id="text_16">
     <!-- Number of crosslinks -->
     <g transform="translate(25.432812 227.019406) rotate(-90) scale(0.1 -0.1)">
      <defs>
       <path id="DejaVuSans-4e" d="M 628 4666 
L 1478 4666 
L 3547 763 
L 3547 4666 
L 4159 4666 
L 4159 0 
L 3309 0 
L 1241 3903 
L 1241 0 
L 628 0 
L 628 4666 
z
" transform="scale(0.015625)"/>
       <path id="DejaVuSans-75" d="M 544 1381 
L 544 3500 
L 1119 3500 
L 1119 1403 
Q 1119 906 1312 657 
Q 1506 409 1894 409 
Q 2359 409 2629 706 
Q 2900 1003 2900 1516 
L 2900 3500 
L 3475 3500 
L 3475 0 
L 2900 0 
L 2900 538 
Q 2691 219 2414 64 
Q 2138 -91 1772 -91 
Q 1169 -91 856 284 
Q 544 659 544 1381 
z
M 1991 3584 
L 1991 3584 
z
" transform="scale(0.015625)"/>
       <path id="DejaVuSans-6d" d="M 3328 2828 
Q 3544 3216 3844 3400 
Q 4144 3584 4550 3584 
Q 5097 3584 5394 3201 
Q 5691 2819 5691 2113 
L 5691 0 
L 5113 0 
L 5113 2094 
Q 5113 2597 4934 2840 
Q 4756 3084 4391 3084 
Q 3944 3084 3684 2787 
Q 3425 2491 3425 1978 
L 3425 0 
L 2847 0 
L 2847 2094 
Q 2847 2600 2669 2842 
Q 2491 3084 2119 3084 
Q 1678 3084 1418 2786 
Q 1159 2488 1159 1978 
L 1159 0 
L 581 0 
L 581 3500 
L 1159 3500 
L 1159 2956 
Q 1356 3278 1631 3431 
Q 1906 3584 2284 3584 
Q 2666 3584 2933 3390 
Q 3200 3197 3328 2828 
z
" transform="scale(0.015625)"/>
       <path id="DejaVuSans-62" d="M 3116 1747 
Q 3116 2381 2855 2742 
Q 2594 3103 2138 3103 
Q 1681 3103 1420 2742 
Q 1159 2381 1159 1747 
Q 1159 1113 1420 752 
Q 1681 391 2138 391 
Q 2594 391 2855 752 
Q 3116 1113 3116 1747 
z
M 1159 2969 
Q 1341 3281 1617 3432 
Q 1894 3584 2278 3584 
Q 2916 3584 3314 3078 
Q 3713 2572 3713 1747 
Q 3713 922 3314 415 
Q 2916 -91 2278 -91 
Q 1894 -91 1617 61 
Q 1341 213 1159 525 
L 1159 0 
L 581 0 
L 581 4863 
L 1159 4863 
L 1159 2969 
z
" transform="scale(0.015625)"/>
       <path id="DejaVuSans-20" transform="scale(0.015625)"/>
       <path id="DejaVuSans-66" d="M 2375 4863 
L 2375 4384 
L 1825 4384 
Q 1516 4384 1395 4259 
Q 1275 4134 1275 3809 
L 1275 3500 
L 2222 3500 
L 2222 3053 
L 1275 3053 
L 1275 0 
L 697 0 
L 697 3053 
L 147 3053 
L 147 3500 
L 697 3500 
L 697 3744 
Q 697 4328 969 4595 
Q 1241 4863 1831 4863 
L 2375 4863 
z
" transform="scale(0.015625)"/>
       <path id="DejaVuSans-73" d="M 2834 3397 
L 2834 2853 
Q 2591 2978 2328 3040 
Q 2066 3103 1784 3103 
Q 1356 3103 1142 2972 
Q 928 2841 928 2578 
Q 928 2378 1081 2264 
Q 1234 2150 1697 2047 
L 1894 2003 
Q 2506 1872 2764 1633 
Q 3022 1394 3022 966 
Q 3022 478 2636 193 
Q 2250 -91 1575 -91 
Q 1294 -91 989 -36 
Q 684 19 347 128 
L 347 722 
Q 666 556 975 473 
Q 1284 391 1588 391 
Q 1994 391 2212 530 
Q 2431 669 2431 922 
Q 2431 1156 2273 1281 
Q 2116 1406 1581 1522 
L 1381 1569 
Q 847 1681 609 1914 
Q 372 2147 372 2553 
Q 372 3047 722 3315 
Q 1072 3584 1716 3584 
Q 2034 3584 2315 3537 
Q 2597 3491 2834 3397 
z
" transform="scale(0.015625)"/>
       <path id="DejaVuSans-6c" d="M 603 4863 
L 1178 4863 
L 1178 0 
L 603 0 
L 603 4863 
z
" transform="scale(0.015625)"/>
       <path id="DejaVuSans-69" d="M 603 3500 
L 1178 3500 
L 1178 0 
L 603 0 
L 603 3500 
z
M 603 4863 
L 1178 4863 
L 1178 4134 
L 603 4134 
L 603 4863 
z
" transform="scale(0.015625)"/>
       <path id="DejaVuSans-6e" d="M 3513 2113 
L 3513 0 
L 2938 0 
L 2938 2094 
Q 2938 2591 2744 2837 
Q 2550 3084 2163 3084 
Q 1697 3084 1428 2787 
Q 1159 2491 1159 1978 
L 1159 0 
L 581 0 
L 581 3500 
L 1159 3500 
L 1159 2956 
Q 1366 3272 1645 3428 
Q 1925 3584 2291 3584 
Q 2894 3584 3203 3211 
Q 3513 2838 3513 2113 
z
" transform="scale(0.015625)"/>
       <path id="DejaVuSans-6b" d="M 581 4863 
L 1159 4863 
L 1159 1991 
L 2875 3500 
L 3609 3500 
L 1753 1863 
L 3688 0 
L 2938 0 
L 1159 1709 
L 1159 0 
L 581 0 
L 581 4863 
z
" transform="scale(0.015625)"/>
      </defs>
      <use xlink:href="#DejaVuSans-4e"/>
      <use xlink:href="#DejaVuSans-75" x="74.804688"/>
      <use xlink:href="#DejaVuSans-6d" x="138.183594"/>
      <use xlink:href="#DejaVuSans-62" x="235.595703"/>
      <use xlink:href="#DejaVuSans-65" x="299.072266"/>
      <use xlink:href="#DejaVuSans-72" x="360.595703"/>
      <use xlink:href="#DejaVuSans-20" x="401.708984"/>
      <use xlink:href="#DejaVuSans-6f" x="433.496094"/>
      <use xlink:href="#DejaVuSans-66" x="494.677734"/>
      <use xlink:href="#DejaVuSans-20" x="529.882812"/>
      <use xlink:href="#DejaVuSans-63" x="561.669922"/>
      <use xlink:href="#DejaVuSans-72" x="616.650391"/>
      <use xlink:href="#DejaVuSans-6f" x="655.513672"/>
      <use xlink:href="#DejaVuSans-73" x="716.695312"/>
      <use xlink:href="#DejaVuSans-73" x="768.794922"/>
      <use xlink:href="#DejaVuSans-6c" x="820.894531"/>
      <use xlink:href="#DejaVuSans-69" x="848.677734"/>
      <use xlink:href="#DejaVuSans-6e" x="876.460938"/>
      <use xlink:href="#DejaVuSans-6b" x="939.839844"/>
      <use xlink:href="#DejaVuSans-73" x="997.75"/>
     </g>
    </g>
   </g>
   <g id="patch_3">
    <path d="M 57.6 307.584 
L 57.6 41.472 
" style="fill: none; stroke: #000000; stroke-width: 0.8; stroke-linejoin: miter; stroke-linecap: square"/>
   </g>
   <g id="patch_4">
    <path d="M 414.72 307.584 
L 414.72 41.472 
" style="fill: none; stroke: #000000; stroke-width: 0.8; stroke-linejoin: miter; stroke-linecap: square"/>
   </g>
   <g id="patch_5">
    <path d="M 57.6 307.584 
L 414.72 307.584 
" style="fill: none; stroke: #000000; stroke-width: 0.8; stroke-linejoin: miter; stroke-linecap: square"/>
   </g>
   <g id="patch_6">
    <path d="M 57.6 41.472 
L 414.72 41.472 
" style="fill: none; stroke: #000000; stroke-width: 0.8; stroke-linejoin: miter; stroke-linecap: square"/>
   </g>
   <g id="legend_1">
    <g id="patch_7">
     <path d="M 293.087188 93.506375 
L 407.72 93.506375 
Q 409.72 93.506375 409.72 91.506375 
L 409.72 48.472 
Q 409.72 46.472 407.72 46.472 
L 293.087188 46.472 
Q 291.087188 46.472 291.087188 48.472 
L 291.087188 91.506375 
Q 291.087188 93.506375 293.087188 93.506375 
z
" style="fill: #ffffff; opacity: 0.8; stroke: #cccccc; stroke-linejoin: miter"/>
    </g>
    <g id="patch_8">
     <path d="M 295.087188 58.070438 
L 315.087188 58.070438 
L 315.087188 51.070438 
L 295.087188 51.070438 
z
" style="fill: #008000"/>
    </g>
    <g id="text_17">
     <!-- true -->
     <g transform="translate(323.087188 58.070438) scale(0.1 -0.1)">
      <defs>
       <path id="DejaVuSans-74" d="M 1172 4494 
L 1172 3500 
L 2356 3500 
L 2356 3053 
L 1172 3053 
L 1172 1153 
Q 1172 725 1289 603 
Q 1406 481 1766 481 
L 2356 481 
L 2356 0 
L 1766 0 
Q 1100 0 847 248 
Q 594 497 594 1153 
L 594 3053 
L 172 3053 
L 172 3500 
L 594 3500 
L 594 4494 
L 1172 4494 
z
" transform="scale(0.015625)"/>
      </defs>
      <use xlink:href="#DejaVuSans-74"/>
      <use xlink:href="#DejaVuSans-72" x="39.208984"/>
      <use xlink:href="#DejaVuSans-75" x="80.322266"/>
      <use xlink:href="#DejaVuSans-65" x="143.701172"/>
     </g>
    </g>
    <g id="patch_9">
     <path d="M 295.087188 72.748563 
L 315.087188 72.748563 
L 315.087188 65.748563 
L 295.087188 65.748563 
z
" style="fill: #7cfc00"/>
    </g>
    <g id="text_18">
     <!-- true homeotypic -->
     <g transform="translate(323.087188 72.748563) scale(0.1 -0.1)">
      <defs>
       <path id="DejaVuSans-68" d="M 3513 2113 
L 3513 0 
L 2938 0 
L 2938 2094 
Q 2938 2591 2744 2837 
Q 2550 3084 2163 3084 
Q 1697 3084 1428 2787 
Q 1159 2491 1159 1978 
L 1159 0 
L 581 0 
L 581 4863 
L 1159 4863 
L 1159 2956 
Q 1366 3272 1645 3428 
Q 1925 3584 2291 3584 
Q 2894 3584 3203 3211 
Q 3513 2838 3513 2113 
z
" transform="scale(0.015625)"/>
       <path id="DejaVuSans-79" d="M 2059 -325 
Q 1816 -950 1584 -1140 
Q 1353 -1331 966 -1331 
L 506 -1331 
L 506 -850 
L 844 -850 
Q 1081 -850 1212 -737 
Q 1344 -625 1503 -206 
L 1606 56 
L 191 3500 
L 800 3500 
L 1894 763 
L 2988 3500 
L 3597 3500 
L 2059 -325 
z
" transform="scale(0.015625)"/>
       <path id="DejaVuSans-70" d="M 1159 525 
L 1159 -1331 
L 581 -1331 
L 581 3500 
L 1159 3500 
L 1159 2969 
Q 1341 3281 1617 3432 
Q 1894 3584 2278 3584 
Q 2916 3584 3314 3078 
Q 3713 2572 3713 1747 
Q 3713 922 3314 415 
Q 2916 -91 2278 -91 
Q 1894 -91 1617 61 
Q 1341 213 1159 525 
z
M 3116 1747 
Q 3116 2381 2855 2742 
Q 2594 3103 2138 3103 
Q 1681 3103 1420 2742 
Q 1159 2381 1159 1747 
Q 1159 1113 1420 752 
Q 1681 391 2138 391 
Q 2594 391 2855 752 
Q 3116 1113 3116 1747 
z
" transform="scale(0.015625)"/>
      </defs>
      <use xlink:href="#DejaVuSans-74"/>
      <use xlink:href="#DejaVuSans-72" x="39.208984"/>
      <use xlink:href="#DejaVuSans-75" x="80.322266"/>
      <use xlink:href="#DejaVuSans-65" x="143.701172"/>
      <use xlink:href="#DejaVuSans-20" x="205.224609"/>
      <use xlink:href="#DejaVuSans-68" x="237.011719"/>
      <use xlink:href="#DejaVuSans-6f" x="300.390625"/>
      <use xlink:href="#DejaVuSans-6d" x="361.572266"/>
      <use xlink:href="#DejaVuSans-65" x="458.984375"/>
      <use xlink:href="#DejaVuSans-6f" x="520.507812"/>
      <use xlink:href="#DejaVuSans-74" x="581.689453"/>
      <use xlink:href="#DejaVuSans-79" x="620.898438"/>
      <use xlink:href="#DejaVuSans-70" x="680.078125"/>
      <use xlink:href="#DejaVuSans-69" x="743.554688"/>
      <use xlink:href="#DejaVuSans-63" x="771.337891"/>
     </g>
    </g>
    <g id="patch_10">
     <path d="M 295.087188 87.426688 
L 315.087188 87.426688 
L 315.087188 80.426688 
L 295.087188 80.426688 
z
" style="fill: #ff0000"/>
    </g>
    <g id="text_19">
     <!-- false -->
     <g transform="translate(323.087188 87.426688) scale(0.1 -0.1)">
      <defs>
       <path id="DejaVuSans-61" d="M 2194 1759 
Q 1497 1759 1228 1600 
Q 959 1441 959 1056 
Q 959 750 1161 570 
Q 1363 391 1709 391 
Q 2188 391 2477 730 
Q 2766 1069 2766 1631 
L 2766 1759 
L 2194 1759 
z
M 3341 1997 
L 3341 0 
L 2766 0 
L 2766 531 
Q 2569 213 2275 61 
Q 1981 -91 1556 -91 
Q 1019 -91 701 211 
Q 384 513 384 1019 
Q 384 1609 779 1909 
Q 1175 2209 1959 2209 
L 2766 2209 
L 2766 2266 
Q 2766 2663 2505 2880 
Q 2244 3097 1772 3097 
Q 1472 3097 1187 3025 
Q 903 2953 641 2809 
L 641 3341 
Q 956 3463 1253 3523 
Q 1550 3584 1831 3584 
Q 2591 3584 2966 3190 
Q 3341 2797 3341 1997 
z
" transform="scale(0.015625)"/>
      </defs>
      <use xlink:href="#DejaVuSans-66"/>
      <use xlink:href="#DejaVuSans-61" x="35.205078"/>
      <use xlink:href="#DejaVuSans-6c" x="96.484375"/>
      <use xlink:href="#DejaVuSans-73" x="124.267578"/>
      <use xlink:href="#DejaVuSans-65" x="176.367188"/>
     </g>
    </g>
   </g>
  </g>
 </g>
 <defs>
  <clipPath id="pb5273a617c">
   <rect x="57.6" y="41.472" width="357.12" height="266.112"/>
  </clipPath>
 </defs>
</svg>
