<?xml version="1.0" encoding="utf-8" standalone="no"?>
<!DOCTYPE svg PUBLIC "-//W3C//DTD SVG 1.1//EN"
  "http://www.w3.org/Graphics/SVG/1.1/DTD/svg11.dtd">
<svg xmlns:xlink="http://www.w3.org/1999/xlink" width="460.8pt" height="345.6pt" viewBox="0 0 460.8 345.6" xmlns="http://www.w3.org/2000/svg" version="1.1">
 <metadata>
  <rdf:RDF xmlns:dc="http://purl.org/dc/elements/1.1/" xmlns:cc="http://creativecommons.org/ns#" xmlns:rdf="http://www.w3.org/1999/02/22-rdf-syntax-ns#">
   <cc:Work>
    <dc:type rdf:resource="http://purl.org/dc/dcmitype/StillImage"/>
    <dc:date>2024-06-24T13:01:58.794640</dc:date>
    <dc:format>image/svg+xml</dc:format>
    <dc:creator>
     <cc:Agent>
      <dc:title>Matplotlib v3.9.0, https://matplotlib.org/</dc:title>
     </cc:Agent>
    </dc:creator>
   </cc:Work>
  </rdf:RDF>
 </metadata>
 <defs>
  <style type="text/css">*{stroke-linejoin: round; stroke-linecap: butt}</style>
 </defs>
 <g id="figure_1">
  <g id="patch_1">
   <path d="M 0 345.6 
L 460.8 345.6 
L 460.8 0 
L 0 0 
z
" style="fill: #ffffff"/>
  </g>
  <g id="axes_1">
   <g id="patch_2">
    <path d="M 57.6 307.584 
L 414.72 307.584 
L 414.72 41.472 
L 57.6 41.472 
z
" style="fill: #ffffff"/>
   </g>
   <g id="PolyCollection_1">
    <path d="M 73.832727 118.899595 
L 73.832727 307.584 
L 74.789136 307.584 
L 75.065687 307.584 
L 75.434423 307.584 
L 75.99905 307.584 
L 77.128303 307.584 
L 78.073188 307.584 
L 78.683907 307.584 
L 78.781852 307.584 
L 80.268318 307.584 
L 80.297126 307.584 
L 80.567916 307.584 
L 82.192658 307.584 
L 82.31365 307.584 
L 82.388549 307.584 
L 82.521063 307.584 
L 83.333434 307.584 
L 84.180374 307.584 
L 84.358981 307.584 
L 84.802616 307.584 
L 84.837185 307.584 
L 86.410073 307.584 
L 87.061122 307.584 
L 87.233967 307.584 
L 87.47595 307.584 
L 87.510519 307.584 
L 87.602703 307.584 
L 87.850447 307.584 
L 88.086669 307.584 
L 88.351698 307.584 
L 88.755002 307.584 
L 88.78381 307.584 
L 89.388767 307.584 
L 89.624988 307.584 
L 89.653796 307.584 
L 89.936109 307.584 
L 90.604443 307.584 
L 90.932848 307.584 
L 91.128739 307.584 
L 91.618466 307.584 
L 92.113954 307.584 
L 92.718912 307.584 
L 92.874472 307.584 
L 93.225923 307.584 
L 93.721412 307.584 
L 95.029272 307.584 
L 95.069602 307.584 
L 95.081125 307.584 
L 95.709128 307.584 
L 97.132218 307.584 
L 97.650752 307.584 
L 97.702606 307.584 
L 97.765982 307.584 
L 98.192333 307.584 
L 98.261471 307.584 
L 98.347893 307.584 
L 98.549546 307.584 
L 98.854905 307.584 
L 99.379201 307.584 
L 99.753698 307.584 
L 100.03025 307.584 
L 100.14548 307.584 
L 100.439316 307.584 
L 100.957851 307.584 
L 101.891213 307.584 
L 101.902736 307.584 
L 102.213857 307.584 
L 102.421271 307.584 
L 102.599877 307.584 
L 102.790007 307.584 
L 103.049274 307.584 
L 103.337349 307.584 
L 103.383441 307.584 
L 104.092105 307.584 
L 104.489648 307.584 
L 104.558786 307.584 
L 104.599117 307.584 
L 104.639447 307.584 
L 104.674016 307.584 
L 104.99666 307.584 
L 105.031229 307.584 
L 105.388442 307.584 
L 105.722608 307.584 
L 106.46008 307.584 
L 106.713586 307.584 
L 106.921 307.584 
L 107.145698 307.584 
L 107.485626 307.584 
L 107.669994 307.584 
L 107.883169 307.584 
L 108.171244 307.584 
L 108.246144 307.584 
L 109.087322 307.584 
L 109.42725 307.584 
L 109.496388 307.584 
L 109.96307 307.584 
L 111.011662 307.584 
L 111.109607 307.584 
L 111.92774 307.584 
L 112.135154 307.584 
L 112.23886 307.584 
L 112.77468 307.584 
L 113.880887 307.584 
L 114.439752 307.584 
L 114.710542 307.584 
L 115.252123 307.584 
L 116.346807 307.584 
L 116.415945 307.584 
L 116.773158 307.584 
L 117.274408 307.584 
L 117.614336 307.584 
L 118.230816 307.584 
L 118.789682 307.584 
L 119.354308 307.584 
L 119.59053 307.584 
L 120.218533 307.584 
L 120.397139 307.584 
L 121.36507 307.584 
L 121.428447 307.584 
L 121.762614 307.584 
L 122.010358 307.584 
L 122.154395 307.584 
L 122.344525 307.584 
L 123.185703 307.584 
L 123.992313 307.584 
L 124.355287 307.584 
L 124.435948 307.584 
L 124.845014 307.584 
L 125.092758 307.584 
L 127.126566 307.584 
L 127.17842 307.584 
L 127.443449 307.584 
L 127.673909 307.584 
L 129.120044 307.584 
L 129.75957 307.584 
L 130.168636 307.584 
L 131.286367 307.584 
L 132.012315 307.584 
L 132.121784 307.584 
L 132.409858 307.584 
L 133.095476 307.584 
L 133.446928 307.584 
L 133.464212 307.584 
L 133.838709 307.584 
L 133.965462 307.584 
L 134.115261 307.584 
L 134.22473 307.584 
L 135.175377 307.584 
L 136.005032 307.584 
L 136.506282 307.584 
L 136.880779 307.584 
L 137.595205 307.584 
L 138.620751 307.584 
L 138.626513 307.584 
L 138.966441 307.584 
L 139.012533 307.584 
L 139.536829 307.584 
L 140.343439 307.584 
L 140.395292 307.584 
L 140.723697 307.584 
L 141.294085 307.584 
L 142.769028 307.584 
L 143.471931 307.584 
L 144.272779 307.584 
L 145.649777 307.584 
L 145.770768 307.584 
L 146.035797 307.584 
L 146.467909 307.584 
L 147.464648 307.584 
L 147.556832 307.584 
L 147.574116 307.584 
L 148.340395 307.584 
L 149.072105 307.584 
L 149.118197 307.584 
L 150.276258 307.584 
L 153.145483 307.584 
L 154.21136 307.584 
L 154.268975 307.584 
L 155.09863 307.584 
L 155.818817 307.584 
L 156.740657 307.584 
L 157.172769 307.584 
L 159.655974 307.584 
L 160.825557 307.584 
L 160.877411 307.584 
L 161.349853 307.584 
L 162.167986 307.584 
L 163.475846 307.584 
L 164.461061 307.584 
L 165.987858 307.584 
L 166.610099 307.584 
L 167.393663 307.584 
L 175.995577 307.584 
L 176.174183 307.584 
L 178.12733 307.584 
L 179.481282 307.584 
L 180.840995 307.584 
L 183.888826 307.584 
L 185.006557 307.584 
L 187.898828 307.584 
L 189.667607 307.584 
L 189.90959 307.584 
L 193.959922 307.584 
L 194.622494 307.584 
L 195.463672 307.584 
L 199.704133 307.584 
L 200.758487 307.584 
L 203.483675 307.584 
L 205.062325 307.584 
L 208.012211 307.584 
L 213.128419 307.584 
L 219.373881 307.584 
L 220.825778 307.584 
L 221.926224 307.584 
L 228.436714 307.584 
L 234.106027 307.584 
L 236.998298 307.584 
L 239.268327 307.584 
L 240.558902 307.584 
L 240.996776 307.584 
L 244.47672 307.584 
L 262.99993 307.584 
L 267.666742 307.584 
L 274.764905 307.584 
L 279.44324 307.584 
L 398.487273 307.584 
L 398.487273 307.584 
L 398.487273 307.584 
L 279.44324 307.584 
L 274.764905 307.584 
L 267.666742 307.584 
L 262.99993 307.584 
L 244.47672 307.584 
L 240.996776 306.467524 
L 240.558902 306.467524 
L 239.268327 306.467524 
L 236.998298 306.467524 
L 234.106027 306.467524 
L 228.436714 306.467524 
L 221.926224 306.467524 
L 220.825778 306.467524 
L 219.373881 305.351048 
L 213.128419 305.351048 
L 208.012211 305.351048 
L 205.062325 305.351048 
L 203.483675 305.351048 
L 200.758487 304.234573 
L 199.704133 303.118097 
L 195.463672 302.001621 
L 194.622494 302.001621 
L 193.959922 300.885145 
L 189.90959 300.885145 
L 189.667607 300.885145 
L 187.898828 300.885145 
L 185.006557 300.885145 
L 183.888826 299.76867 
L 180.840995 298.652194 
L 179.481282 297.535718 
L 178.12733 296.419242 
L 176.174183 295.302767 
L 175.995577 295.302767 
L 167.393663 295.302767 
L 166.610099 294.186291 
L 165.987858 294.186291 
L 164.461061 293.069815 
L 163.475846 291.953339 
L 162.167986 290.836863 
L 161.349853 289.720388 
L 160.877411 289.720388 
L 160.825557 288.603912 
L 159.655974 287.487436 
L 157.172769 286.37096 
L 156.740657 286.37096 
L 155.818817 285.254485 
L 155.09863 284.138009 
L 154.268975 283.021533 
L 154.21136 281.905057 
L 153.145483 280.788581 
L 150.276258 279.672106 
L 149.118197 278.55563 
L 149.072105 278.55563 
L 148.340395 278.55563 
L 147.574116 277.439154 
L 147.556832 276.322678 
L 147.464648 275.206203 
L 146.467909 274.089727 
L 146.035797 272.973251 
L 145.770768 271.856775 
L 145.649777 270.7403 
L 144.272779 269.623824 
L 143.471931 269.623824 
L 142.769028 268.507348 
L 141.294085 267.390872 
L 140.723697 266.274396 
L 140.395292 265.157921 
L 140.343439 265.157921 
L 139.536829 264.041445 
L 139.012533 262.924969 
L 138.966441 261.808493 
L 138.626513 261.808493 
L 138.620751 260.692018 
L 137.595205 259.575542 
L 136.880779 258.459066 
L 136.506282 257.34259 
L 136.005032 256.226115 
L 135.175377 255.109639 
L 134.22473 253.993163 
L 134.115261 252.876687 
L 133.965462 251.760211 
L 133.838709 251.760211 
L 133.464212 250.643736 
L 133.446928 249.52726 
L 133.095476 248.410784 
L 132.409858 247.294308 
L 132.121784 247.294308 
L 132.012315 246.177833 
L 131.286367 245.061357 
L 130.168636 243.944881 
L 129.75957 242.828405 
L 129.120044 241.71193 
L 127.673909 240.595454 
L 127.443449 239.478978 
L 127.17842 238.362502 
L 127.126566 237.246026 
L 125.092758 236.129551 
L 124.845014 235.013075 
L 124.435948 233.896599 
L 124.355287 233.896599 
L 123.992313 232.780123 
L 123.185703 232.780123 
L 122.344525 231.663648 
L 122.154395 230.547172 
L 122.010358 229.430696 
L 121.762614 228.31422 
L 121.428447 227.197744 
L 121.36507 226.081269 
L 120.397139 224.964793 
L 120.218533 224.964793 
L 119.59053 223.848317 
L 119.354308 222.731841 
L 118.789682 222.731841 
L 118.230816 221.615366 
L 117.614336 220.49889 
L 117.274408 219.382414 
L 116.773158 219.382414 
L 116.415945 219.382414 
L 116.346807 218.265938 
L 115.252123 217.149463 
L 114.710542 216.032987 
L 114.439752 216.032987 
L 113.880887 216.032987 
L 112.77468 214.916511 
L 112.23886 214.916511 
L 112.135154 214.916511 
L 111.92774 213.800035 
L 111.109607 212.683559 
L 111.011662 212.683559 
L 109.96307 211.567084 
L 109.496388 210.450608 
L 109.42725 210.450608 
L 109.087322 209.334132 
L 108.246144 209.334132 
L 108.171244 208.217656 
L 107.883169 207.101181 
L 107.669994 205.984705 
L 107.485626 205.984705 
L 107.145698 205.984705 
L 106.921 204.868229 
L 106.713586 203.751753 
L 106.46008 202.635278 
L 105.722608 201.518802 
L 105.388442 200.402326 
L 105.031229 199.28585 
L 104.99666 198.169374 
L 104.674016 197.052899 
L 104.639447 194.819947 
L 104.599117 193.703471 
L 104.558786 193.703471 
L 104.489648 192.586996 
L 104.092105 191.47052 
L 103.383441 190.354044 
L 103.337349 189.237568 
L 103.049274 188.121093 
L 102.790007 187.004617 
L 102.599877 185.888141 
L 102.421271 184.771665 
L 102.213857 183.655189 
L 101.902736 182.538714 
L 101.891213 181.422238 
L 100.957851 180.305762 
L 100.439316 180.305762 
L 100.14548 179.189286 
L 100.03025 179.189286 
L 99.753698 179.189286 
L 99.379201 178.072811 
L 98.854905 176.956335 
L 98.549546 175.839859 
L 98.347893 174.723383 
L 98.261471 173.606907 
L 98.192333 172.490432 
L 97.765982 171.373956 
L 97.702606 170.25748 
L 97.650752 169.141004 
L 97.132218 168.024529 
L 95.709128 166.908053 
L 95.081125 165.791577 
L 95.069602 164.675101 
L 95.029272 164.675101 
L 93.721412 163.558626 
L 93.225923 163.558626 
L 92.874472 163.558626 
L 92.718912 162.44215 
L 92.113954 161.325674 
L 91.618466 160.209198 
L 91.128739 159.092722 
L 90.932848 157.976247 
L 90.604443 156.859771 
L 89.936109 155.743295 
L 89.653796 154.626819 
L 89.624988 153.510344 
L 89.388767 152.393868 
L 88.78381 151.277392 
L 88.755002 150.160916 
L 88.351698 149.044441 
L 88.086669 147.927965 
L 87.850447 146.811489 
L 87.602703 145.695013 
L 87.510519 144.578537 
L 87.47595 143.462062 
L 87.233967 142.345586 
L 87.061122 141.22911 
L 86.410073 140.112634 
L 84.837185 138.996159 
L 84.802616 137.879683 
L 84.358981 136.763207 
L 84.180374 135.646731 
L 83.333434 135.646731 
L 82.521063 134.530256 
L 82.388549 133.41378 
L 82.31365 132.297304 
L 82.192658 131.180828 
L 80.567916 130.064352 
L 80.297126 128.947877 
L 80.268318 127.831401 
L 78.781852 126.714925 
L 78.683907 125.598449 
L 78.073188 124.481974 
L 77.128303 123.365498 
L 75.99905 122.249022 
L 75.434423 122.249022 
L 75.065687 121.132546 
L 74.789136 120.01607 
L 73.832727 118.899595 
z
" clip-path="url(#pcca02a48e4)" style="fill: #008000"/>
   </g>
   <g id="PolyCollection_2">
    <path d="M 73.832727 58.609903 
L 73.832727 118.899595 
L 74.789136 120.01607 
L 75.065687 121.132546 
L 75.434423 122.249022 
L 75.99905 122.249022 
L 77.128303 123.365498 
L 78.073188 124.481974 
L 78.683907 125.598449 
L 78.781852 126.714925 
L 80.268318 127.831401 
L 80.297126 128.947877 
L 80.567916 130.064352 
L 82.192658 131.180828 
L 82.31365 132.297304 
L 82.388549 133.41378 
L 82.521063 134.530256 
L 83.333434 135.646731 
L 84.180374 135.646731 
L 84.358981 136.763207 
L 84.802616 137.879683 
L 84.837185 138.996159 
L 86.410073 140.112634 
L 87.061122 141.22911 
L 87.233967 142.345586 
L 87.47595 143.462062 
L 87.510519 144.578537 
L 87.602703 145.695013 
L 87.850447 146.811489 
L 88.086669 147.927965 
L 88.351698 149.044441 
L 88.755002 150.160916 
L 88.78381 151.277392 
L 89.388767 152.393868 
L 89.624988 153.510344 
L 89.653796 154.626819 
L 89.936109 155.743295 
L 90.604443 156.859771 
L 90.932848 157.976247 
L 91.128739 159.092722 
L 91.618466 160.209198 
L 92.113954 161.325674 
L 92.718912 162.44215 
L 92.874472 163.558626 
L 93.225923 163.558626 
L 93.721412 163.558626 
L 95.029272 164.675101 
L 95.069602 164.675101 
L 95.081125 165.791577 
L 95.709128 166.908053 
L 97.132218 168.024529 
L 97.650752 169.141004 
L 97.702606 170.25748 
L 97.765982 171.373956 
L 98.192333 172.490432 
L 98.261471 173.606907 
L 98.347893 174.723383 
L 98.549546 175.839859 
L 98.854905 176.956335 
L 99.379201 178.072811 
L 99.753698 179.189286 
L 100.03025 179.189286 
L 100.14548 179.189286 
L 100.439316 180.305762 
L 100.957851 180.305762 
L 101.891213 181.422238 
L 101.902736 182.538714 
L 102.213857 183.655189 
L 102.421271 184.771665 
L 102.599877 185.888141 
L 102.790007 187.004617 
L 103.049274 188.121093 
L 103.337349 189.237568 
L 103.383441 190.354044 
L 104.092105 191.47052 
L 104.489648 192.586996 
L 104.558786 193.703471 
L 104.599117 193.703471 
L 104.639447 194.819947 
L 104.674016 197.052899 
L 104.99666 198.169374 
L 105.031229 199.28585 
L 105.388442 200.402326 
L 105.722608 201.518802 
L 106.46008 202.635278 
L 106.713586 203.751753 
L 106.921 204.868229 
L 107.145698 205.984705 
L 107.485626 205.984705 
L 107.669994 205.984705 
L 107.883169 207.101181 
L 108.171244 208.217656 
L 108.246144 209.334132 
L 109.087322 209.334132 
L 109.42725 210.450608 
L 109.496388 210.450608 
L 109.96307 211.567084 
L 111.011662 212.683559 
L 111.109607 212.683559 
L 111.92774 213.800035 
L 112.135154 214.916511 
L 112.23886 214.916511 
L 112.77468 214.916511 
L 113.880887 216.032987 
L 114.439752 216.032987 
L 114.710542 216.032987 
L 115.252123 217.149463 
L 116.346807 218.265938 
L 116.415945 219.382414 
L 116.773158 219.382414 
L 117.274408 219.382414 
L 117.614336 220.49889 
L 118.230816 221.615366 
L 118.789682 222.731841 
L 119.354308 222.731841 
L 119.59053 223.848317 
L 120.218533 224.964793 
L 120.397139 224.964793 
L 121.36507 226.081269 
L 121.428447 227.197744 
L 121.762614 228.31422 
L 122.010358 229.430696 
L 122.154395 230.547172 
L 122.344525 231.663648 
L 123.185703 232.780123 
L 123.992313 232.780123 
L 124.355287 233.896599 
L 124.435948 233.896599 
L 124.845014 235.013075 
L 125.092758 236.129551 
L 127.126566 237.246026 
L 127.17842 238.362502 
L 127.443449 239.478978 
L 127.673909 240.595454 
L 129.120044 241.71193 
L 129.75957 242.828405 
L 130.168636 243.944881 
L 131.286367 245.061357 
L 132.012315 246.177833 
L 132.121784 247.294308 
L 132.409858 247.294308 
L 133.095476 248.410784 
L 133.446928 249.52726 
L 133.464212 250.643736 
L 133.838709 251.760211 
L 133.965462 251.760211 
L 134.115261 252.876687 
L 134.22473 253.993163 
L 135.175377 255.109639 
L 136.005032 256.226115 
L 136.506282 257.34259 
L 136.880779 258.459066 
L 137.595205 259.575542 
L 138.620751 260.692018 
L 138.626513 261.808493 
L 138.966441 261.808493 
L 139.012533 262.924969 
L 139.536829 264.041445 
L 140.343439 265.157921 
L 140.395292 265.157921 
L 140.723697 266.274396 
L 141.294085 267.390872 
L 142.769028 268.507348 
L 143.471931 269.623824 
L 144.272779 269.623824 
L 145.649777 270.7403 
L 145.770768 271.856775 
L 146.035797 272.973251 
L 146.467909 274.089727 
L 147.464648 275.206203 
L 147.556832 276.322678 
L 147.574116 277.439154 
L 148.340395 278.55563 
L 149.072105 278.55563 
L 149.118197 278.55563 
L 150.276258 279.672106 
L 153.145483 280.788581 
L 154.21136 281.905057 
L 154.268975 283.021533 
L 155.09863 284.138009 
L 155.818817 285.254485 
L 156.740657 286.37096 
L 157.172769 286.37096 
L 159.655974 287.487436 
L 160.825557 288.603912 
L 160.877411 289.720388 
L 161.349853 289.720388 
L 162.167986 290.836863 
L 163.475846 291.953339 
L 164.461061 293.069815 
L 165.987858 294.186291 
L 166.610099 294.186291 
L 167.393663 295.302767 
L 175.995577 295.302767 
L 176.174183 295.302767 
L 178.12733 296.419242 
L 179.481282 297.535718 
L 180.840995 298.652194 
L 183.888826 299.76867 
L 185.006557 300.885145 
L 187.898828 300.885145 
L 189.667607 300.885145 
L 189.90959 300.885145 
L 193.959922 300.885145 
L 194.622494 302.001621 
L 195.463672 302.001621 
L 199.704133 303.118097 
L 200.758487 304.234573 
L 203.483675 305.351048 
L 205.062325 305.351048 
L 208.012211 305.351048 
L 213.128419 305.351048 
L 219.373881 305.351048 
L 220.825778 306.467524 
L 221.926224 306.467524 
L 228.436714 306.467524 
L 234.106027 306.467524 
L 236.998298 306.467524 
L 239.268327 306.467524 
L 240.558902 306.467524 
L 240.996776 306.467524 
L 244.47672 307.584 
L 262.99993 307.584 
L 267.666742 307.584 
L 274.764905 307.584 
L 279.44324 307.584 
L 398.487273 307.584 
L 398.487273 306.467524 
L 398.487273 306.467524 
L 279.44324 305.351048 
L 274.764905 304.234573 
L 267.666742 303.118097 
L 262.99993 302.001621 
L 244.47672 300.885145 
L 240.996776 299.76867 
L 240.558902 298.652194 
L 239.268327 297.535718 
L 236.998298 296.419242 
L 234.106027 295.302767 
L 228.436714 294.186291 
L 221.926224 293.069815 
L 220.825778 291.953339 
L 219.373881 290.836863 
L 213.128419 289.720388 
L 208.012211 288.603912 
L 205.062325 287.487436 
L 203.483675 286.37096 
L 200.758487 285.254485 
L 199.704133 284.138009 
L 195.463672 283.021533 
L 194.622494 281.905057 
L 193.959922 280.788581 
L 189.90959 279.672106 
L 189.667607 278.55563 
L 187.898828 277.439154 
L 185.006557 276.322678 
L 183.888826 275.206203 
L 180.840995 274.089727 
L 179.481282 272.973251 
L 178.12733 271.856775 
L 176.174183 270.7403 
L 175.995577 269.623824 
L 167.393663 268.507348 
L 166.610099 267.390872 
L 165.987858 266.274396 
L 164.461061 265.157921 
L 163.475846 264.041445 
L 162.167986 262.924969 
L 161.349853 261.808493 
L 160.877411 260.692018 
L 160.825557 259.575542 
L 159.655974 258.459066 
L 157.172769 257.34259 
L 156.740657 256.226115 
L 155.818817 255.109639 
L 155.09863 253.993163 
L 154.268975 252.876687 
L 154.21136 251.760211 
L 153.145483 250.643736 
L 150.276258 249.52726 
L 149.118197 248.410784 
L 149.072105 247.294308 
L 148.340395 246.177833 
L 147.574116 245.061357 
L 147.556832 243.944881 
L 147.464648 242.828405 
L 146.467909 241.71193 
L 146.035797 240.595454 
L 145.770768 239.478978 
L 145.649777 238.362502 
L 144.272779 237.246026 
L 143.471931 236.129551 
L 142.769028 235.013075 
L 141.294085 233.896599 
L 140.723697 232.780123 
L 140.395292 231.663648 
L 140.343439 230.547172 
L 139.536829 229.430696 
L 139.012533 228.31422 
L 138.966441 227.197744 
L 138.626513 226.081269 
L 138.620751 224.964793 
L 137.595205 223.848317 
L 136.880779 222.731841 
L 136.506282 221.615366 
L 136.005032 220.49889 
L 135.175377 219.382414 
L 134.22473 218.265938 
L 134.115261 217.149463 
L 133.965462 216.032987 
L 133.838709 214.916511 
L 133.464212 213.800035 
L 133.446928 212.683559 
L 133.095476 211.567084 
L 132.409858 210.450608 
L 132.121784 209.334132 
L 132.012315 208.217656 
L 131.286367 207.101181 
L 130.168636 205.984705 
L 129.75957 204.868229 
L 129.120044 203.751753 
L 127.673909 202.635278 
L 127.443449 201.518802 
L 127.17842 200.402326 
L 127.126566 199.28585 
L 125.092758 198.169374 
L 124.845014 197.052899 
L 124.435948 195.936423 
L 124.355287 194.819947 
L 123.992313 193.703471 
L 123.185703 192.586996 
L 122.344525 191.47052 
L 122.154395 190.354044 
L 122.010358 189.237568 
L 121.762614 188.121093 
L 121.428447 187.004617 
L 121.36507 185.888141 
L 120.397139 184.771665 
L 120.218533 184.771665 
L 119.59053 183.655189 
L 119.354308 182.538714 
L 118.789682 181.422238 
L 118.230816 180.305762 
L 117.614336 179.189286 
L 117.274408 178.072811 
L 116.773158 176.956335 
L 116.415945 175.839859 
L 116.346807 174.723383 
L 115.252123 173.606907 
L 114.710542 172.490432 
L 114.439752 171.373956 
L 113.880887 170.25748 
L 112.77468 169.141004 
L 112.23886 168.024529 
L 112.135154 168.024529 
L 111.92774 166.908053 
L 111.109607 165.791577 
L 111.011662 164.675101 
L 109.96307 163.558626 
L 109.496388 162.44215 
L 109.42725 162.44215 
L 109.087322 161.325674 
L 108.246144 160.209198 
L 108.171244 159.092722 
L 107.883169 157.976247 
L 107.669994 156.859771 
L 107.485626 155.743295 
L 107.145698 154.626819 
L 106.921 153.510344 
L 106.713586 152.393868 
L 106.46008 151.277392 
L 105.722608 150.160916 
L 105.388442 149.044441 
L 105.031229 147.927965 
L 104.99666 146.811489 
L 104.674016 145.695013 
L 104.639447 143.462062 
L 104.599117 142.345586 
L 104.558786 141.22911 
L 104.489648 140.112634 
L 104.092105 138.996159 
L 103.383441 137.879683 
L 103.337349 136.763207 
L 103.049274 135.646731 
L 102.790007 134.530256 
L 102.599877 133.41378 
L 102.421271 132.297304 
L 102.213857 131.180828 
L 101.902736 130.064352 
L 101.891213 128.947877 
L 100.957851 127.831401 
L 100.439316 126.714925 
L 100.14548 125.598449 
L 100.03025 124.481974 
L 99.753698 123.365498 
L 99.379201 122.249022 
L 98.854905 121.132546 
L 98.549546 120.01607 
L 98.347893 118.899595 
L 98.261471 117.783119 
L 98.192333 116.666643 
L 97.765982 115.550167 
L 97.702606 114.433692 
L 97.650752 113.317216 
L 97.132218 112.20074 
L 95.709128 111.084264 
L 95.081125 109.967789 
L 95.069602 108.851313 
L 95.029272 107.734837 
L 93.721412 106.618361 
L 93.225923 105.501885 
L 92.874472 104.38541 
L 92.718912 103.268934 
L 92.113954 102.152458 
L 91.618466 101.035982 
L 91.128739 99.919507 
L 90.932848 98.803031 
L 90.604443 97.686555 
L 89.936109 96.570079 
L 89.653796 95.453604 
L 89.624988 94.337128 
L 89.388767 93.220652 
L 88.78381 92.104176 
L 88.755002 90.9877 
L 88.351698 89.871225 
L 88.086669 88.754749 
L 87.850447 87.638273 
L 87.602703 86.521797 
L 87.510519 85.405322 
L 87.47595 84.288846 
L 87.233967 83.17237 
L 87.061122 82.055894 
L 86.410073 80.939419 
L 84.837185 79.822943 
L 84.802616 78.706467 
L 84.358981 77.589991 
L 84.180374 76.473515 
L 83.333434 75.35704 
L 82.521063 74.240564 
L 82.388549 73.124088 
L 82.31365 72.007612 
L 82.192658 70.891137 
L 80.567916 69.774661 
L 80.297126 68.658185 
L 80.268318 67.541709 
L 78.781852 66.425233 
L 78.683907 65.308758 
L 78.073188 64.192282 
L 77.128303 63.075806 
L 75.99905 61.95933 
L 75.434423 61.95933 
L 75.065687 60.842855 
L 74.789136 59.726379 
L 73.832727 58.609903 
z
" clip-path="url(#pcca02a48e4)" style="fill: #7cfc00"/>
   </g>
   <g id="PolyCollection_3">
    <path d="M 73.832727 54.144 
L 73.832727 58.609903 
L 74.789136 59.726379 
L 75.065687 60.842855 
L 75.434423 61.95933 
L 75.99905 61.95933 
L 77.128303 63.075806 
L 78.073188 64.192282 
L 78.683907 65.308758 
L 78.781852 66.425233 
L 80.268318 67.541709 
L 80.297126 68.658185 
L 80.567916 69.774661 
L 82.192658 70.891137 
L 82.31365 72.007612 
L 82.388549 73.124088 
L 82.521063 74.240564 
L 83.333434 75.35704 
L 84.180374 76.473515 
L 84.358981 77.589991 
L 84.802616 78.706467 
L 84.837185 79.822943 
L 86.410073 80.939419 
L 87.061122 82.055894 
L 87.233967 83.17237 
L 87.47595 84.288846 
L 87.510519 85.405322 
L 87.602703 86.521797 
L 87.850447 87.638273 
L 88.086669 88.754749 
L 88.351698 89.871225 
L 88.755002 90.9877 
L 88.78381 92.104176 
L 89.388767 93.220652 
L 89.624988 94.337128 
L 89.653796 95.453604 
L 89.936109 96.570079 
L 90.604443 97.686555 
L 90.932848 98.803031 
L 91.128739 99.919507 
L 91.618466 101.035982 
L 92.113954 102.152458 
L 92.718912 103.268934 
L 92.874472 104.38541 
L 93.225923 105.501885 
L 93.721412 106.618361 
L 95.029272 107.734837 
L 95.069602 108.851313 
L 95.081125 109.967789 
L 95.709128 111.084264 
L 97.132218 112.20074 
L 97.650752 113.317216 
L 97.702606 114.433692 
L 97.765982 115.550167 
L 98.192333 116.666643 
L 98.261471 117.783119 
L 98.347893 118.899595 
L 98.549546 120.01607 
L 98.854905 121.132546 
L 99.379201 122.249022 
L 99.753698 123.365498 
L 100.03025 124.481974 
L 100.14548 125.598449 
L 100.439316 126.714925 
L 100.957851 127.831401 
L 101.891213 128.947877 
L 101.902736 130.064352 
L 102.213857 131.180828 
L 102.421271 132.297304 
L 102.599877 133.41378 
L 102.790007 134.530256 
L 103.049274 135.646731 
L 103.337349 136.763207 
L 103.383441 137.879683 
L 104.092105 138.996159 
L 104.489648 140.112634 
L 104.558786 141.22911 
L 104.599117 142.345586 
L 104.639447 143.462062 
L 104.674016 145.695013 
L 104.99666 146.811489 
L 105.031229 147.927965 
L 105.388442 149.044441 
L 105.722608 150.160916 
L 106.46008 151.277392 
L 106.713586 152.393868 
L 106.921 153.510344 
L 107.145698 154.626819 
L 107.485626 155.743295 
L 107.669994 156.859771 
L 107.883169 157.976247 
L 108.171244 159.092722 
L 108.246144 160.209198 
L 109.087322 161.325674 
L 109.42725 162.44215 
L 109.496388 162.44215 
L 109.96307 163.558626 
L 111.011662 164.675101 
L 111.109607 165.791577 
L 111.92774 166.908053 
L 112.135154 168.024529 
L 112.23886 168.024529 
L 112.77468 169.141004 
L 113.880887 170.25748 
L 114.439752 171.373956 
L 114.710542 172.490432 
L 115.252123 173.606907 
L 116.346807 174.723383 
L 116.415945 175.839859 
L 116.773158 176.956335 
L 117.274408 178.072811 
L 117.614336 179.189286 
L 118.230816 180.305762 
L 118.789682 181.422238 
L 119.354308 182.538714 
L 119.59053 183.655189 
L 120.218533 184.771665 
L 120.397139 184.771665 
L 121.36507 185.888141 
L 121.428447 187.004617 
L 121.762614 188.121093 
L 122.010358 189.237568 
L 122.154395 190.354044 
L 122.344525 191.47052 
L 123.185703 192.586996 
L 123.992313 193.703471 
L 124.355287 194.819947 
L 124.435948 195.936423 
L 124.845014 197.052899 
L 125.092758 198.169374 
L 127.126566 199.28585 
L 127.17842 200.402326 
L 127.443449 201.518802 
L 127.673909 202.635278 
L 129.120044 203.751753 
L 129.75957 204.868229 
L 130.168636 205.984705 
L 131.286367 207.101181 
L 132.012315 208.217656 
L 132.121784 209.334132 
L 132.409858 210.450608 
L 133.095476 211.567084 
L 133.446928 212.683559 
L 133.464212 213.800035 
L 133.838709 214.916511 
L 133.965462 216.032987 
L 134.115261 217.149463 
L 134.22473 218.265938 
L 135.175377 219.382414 
L 136.005032 220.49889 
L 136.506282 221.615366 
L 136.880779 222.731841 
L 137.595205 223.848317 
L 138.620751 224.964793 
L 138.626513 226.081269 
L 138.966441 227.197744 
L 139.012533 228.31422 
L 139.536829 229.430696 
L 140.343439 230.547172 
L 140.395292 231.663648 
L 140.723697 232.780123 
L 141.294085 233.896599 
L 142.769028 235.013075 
L 143.471931 236.129551 
L 144.272779 237.246026 
L 145.649777 238.362502 
L 145.770768 239.478978 
L 146.035797 240.595454 
L 146.467909 241.71193 
L 147.464648 242.828405 
L 147.556832 243.944881 
L 147.574116 245.061357 
L 148.340395 246.177833 
L 149.072105 247.294308 
L 149.118197 248.410784 
L 150.276258 249.52726 
L 153.145483 250.643736 
L 154.21136 251.760211 
L 154.268975 252.876687 
L 155.09863 253.993163 
L 155.818817 255.109639 
L 156.740657 256.226115 
L 157.172769 257.34259 
L 159.655974 258.459066 
L 160.825557 259.575542 
L 160.877411 260.692018 
L 161.349853 261.808493 
L 162.167986 262.924969 
L 163.475846 264.041445 
L 164.461061 265.157921 
L 165.987858 266.274396 
L 166.610099 267.390872 
L 167.393663 268.507348 
L 175.995577 269.623824 
L 176.174183 270.7403 
L 178.12733 271.856775 
L 179.481282 272.973251 
L 180.840995 274.089727 
L 183.888826 275.206203 
L 185.006557 276.322678 
L 187.898828 277.439154 
L 189.667607 278.55563 
L 189.90959 279.672106 
L 193.959922 280.788581 
L 194.622494 281.905057 
L 195.463672 283.021533 
L 199.704133 284.138009 
L 200.758487 285.254485 
L 203.483675 286.37096 
L 205.062325 287.487436 
L 208.012211 288.603912 
L 213.128419 289.720388 
L 219.373881 290.836863 
L 220.825778 291.953339 
L 221.926224 293.069815 
L 228.436714 294.186291 
L 234.106027 295.302767 
L 236.998298 296.419242 
L 239.268327 297.535718 
L 240.558902 298.652194 
L 240.996776 299.76867 
L 244.47672 300.885145 
L 262.99993 302.001621 
L 267.666742 303.118097 
L 274.764905 304.234573 
L 279.44324 305.351048 
L 398.487273 306.467524 
L 398.487273 306.467524 
L 398.487273 306.467524 
L 279.44324 305.351048 
L 274.764905 304.234573 
L 267.666742 303.118097 
L 262.99993 302.001621 
L 244.47672 300.885145 
L 240.996776 299.76867 
L 240.558902 298.652194 
L 239.268327 297.535718 
L 236.998298 296.419242 
L 234.106027 295.302767 
L 228.436714 294.186291 
L 221.926224 293.069815 
L 220.825778 291.953339 
L 219.373881 290.836863 
L 213.128419 289.720388 
L 208.012211 288.603912 
L 205.062325 287.487436 
L 203.483675 286.37096 
L 200.758487 285.254485 
L 199.704133 284.138009 
L 195.463672 283.021533 
L 194.622494 281.905057 
L 193.959922 280.788581 
L 189.90959 279.672106 
L 189.667607 278.55563 
L 187.898828 277.439154 
L 185.006557 276.322678 
L 183.888826 275.206203 
L 180.840995 274.089727 
L 179.481282 272.973251 
L 178.12733 271.856775 
L 176.174183 270.7403 
L 175.995577 269.623824 
L 167.393663 268.507348 
L 166.610099 267.390872 
L 165.987858 266.274396 
L 164.461061 265.157921 
L 163.475846 264.041445 
L 162.167986 262.924969 
L 161.349853 261.808493 
L 160.877411 260.692018 
L 160.825557 259.575542 
L 159.655974 258.459066 
L 157.172769 257.34259 
L 156.740657 256.226115 
L 155.818817 255.109639 
L 155.09863 253.993163 
L 154.268975 252.876687 
L 154.21136 251.760211 
L 153.145483 250.643736 
L 150.276258 249.52726 
L 149.118197 248.410784 
L 149.072105 247.294308 
L 148.340395 246.177833 
L 147.574116 245.061357 
L 147.556832 243.944881 
L 147.464648 242.828405 
L 146.467909 241.71193 
L 146.035797 240.595454 
L 145.770768 239.478978 
L 145.649777 238.362502 
L 144.272779 237.246026 
L 143.471931 236.129551 
L 142.769028 235.013075 
L 141.294085 233.896599 
L 140.723697 232.780123 
L 140.395292 231.663648 
L 140.343439 230.547172 
L 139.536829 229.430696 
L 139.012533 228.31422 
L 138.966441 227.197744 
L 138.626513 226.081269 
L 138.620751 224.964793 
L 137.595205 223.848317 
L 136.880779 222.731841 
L 136.506282 221.615366 
L 136.005032 220.49889 
L 135.175377 219.382414 
L 134.22473 218.265938 
L 134.115261 217.149463 
L 133.965462 216.032987 
L 133.838709 214.916511 
L 133.464212 213.800035 
L 133.446928 212.683559 
L 133.095476 211.567084 
L 132.409858 210.450608 
L 132.121784 209.334132 
L 132.012315 208.217656 
L 131.286367 207.101181 
L 130.168636 205.984705 
L 129.75957 204.868229 
L 129.120044 203.751753 
L 127.673909 202.635278 
L 127.443449 201.518802 
L 127.17842 200.402326 
L 127.126566 199.28585 
L 125.092758 198.169374 
L 124.845014 197.052899 
L 124.435948 195.936423 
L 124.355287 194.819947 
L 123.992313 193.703471 
L 123.185703 192.586996 
L 122.344525 191.47052 
L 122.154395 190.354044 
L 122.010358 189.237568 
L 121.762614 188.121093 
L 121.428447 187.004617 
L 121.36507 185.888141 
L 120.397139 184.771665 
L 120.218533 183.655189 
L 119.59053 182.538714 
L 119.354308 181.422238 
L 118.789682 180.305762 
L 118.230816 179.189286 
L 117.614336 178.072811 
L 117.274408 176.956335 
L 116.773158 175.839859 
L 116.415945 174.723383 
L 116.346807 173.606907 
L 115.252123 172.490432 
L 114.710542 171.373956 
L 114.439752 170.25748 
L 113.880887 169.141004 
L 112.77468 168.024529 
L 112.23886 166.908053 
L 112.135154 165.791577 
L 111.92774 164.675101 
L 111.109607 163.558626 
L 111.011662 162.44215 
L 109.96307 161.325674 
L 109.496388 160.209198 
L 109.42725 159.092722 
L 109.087322 157.976247 
L 108.246144 156.859771 
L 108.171244 155.743295 
L 107.883169 154.626819 
L 107.669994 153.510344 
L 107.485626 152.393868 
L 107.145698 151.277392 
L 106.921 150.160916 
L 106.713586 149.044441 
L 106.46008 147.927965 
L 105.722608 146.811489 
L 105.388442 145.695013 
L 105.031229 144.578537 
L 104.99666 143.462062 
L 104.674016 142.345586 
L 104.639447 140.112634 
L 104.599117 138.996159 
L 104.558786 137.879683 
L 104.489648 136.763207 
L 104.092105 135.646731 
L 103.383441 134.530256 
L 103.337349 133.41378 
L 103.049274 132.297304 
L 102.790007 131.180828 
L 102.599877 130.064352 
L 102.421271 128.947877 
L 102.213857 127.831401 
L 101.902736 126.714925 
L 101.891213 125.598449 
L 100.957851 124.481974 
L 100.439316 123.365498 
L 100.14548 122.249022 
L 100.03025 121.132546 
L 99.753698 120.01607 
L 99.379201 118.899595 
L 98.854905 117.783119 
L 98.549546 116.666643 
L 98.347893 115.550167 
L 98.261471 114.433692 
L 98.192333 113.317216 
L 97.765982 112.20074 
L 97.702606 111.084264 
L 97.650752 109.967789 
L 97.132218 108.851313 
L 95.709128 107.734837 
L 95.081125 106.618361 
L 95.069602 105.501885 
L 95.029272 104.38541 
L 93.721412 103.268934 
L 93.225923 102.152458 
L 92.874472 101.035982 
L 92.718912 99.919507 
L 92.113954 98.803031 
L 91.618466 97.686555 
L 91.128739 96.570079 
L 90.932848 95.453604 
L 90.604443 94.337128 
L 89.936109 93.220652 
L 89.653796 92.104176 
L 89.624988 90.9877 
L 89.388767 89.871225 
L 88.78381 88.754749 
L 88.755002 87.638273 
L 88.351698 86.521797 
L 88.086669 85.405322 
L 87.850447 84.288846 
L 87.602703 83.17237 
L 87.510519 82.055894 
L 87.47595 80.939419 
L 87.233967 79.822943 
L 87.061122 78.706467 
L 86.410073 77.589991 
L 84.837185 76.473515 
L 84.802616 75.35704 
L 84.358981 74.240564 
L 84.180374 73.124088 
L 83.333434 72.007612 
L 82.521063 70.891137 
L 82.388549 69.774661 
L 82.31365 68.658185 
L 82.192658 67.541709 
L 80.567916 66.425233 
L 80.297126 65.308758 
L 80.268318 64.192282 
L 78.781852 63.075806 
L 78.683907 61.95933 
L 78.073188 60.842855 
L 77.128303 59.726379 
L 75.99905 58.609903 
L 75.434423 57.493427 
L 75.065687 56.376952 
L 74.789136 55.260476 
L 73.832727 54.144 
z
" clip-path="url(#pcca02a48e4)" style="fill: #ff0000"/>
   </g>
   <g id="matplotlib.axis_1">
    <g id="xtick_1">
     <g id="line2d_1">
      <defs>
       <path id="m7bce580c33" d="M 0 0 
L 0 3.5 
" style="stroke: #000000; stroke-width: 0.8"/>
      </defs>
      <g>
       <use xlink:href="#m7bce580c33" x="92.592159" y="307.584" style="stroke: #000000; stroke-width: 0.8"/>
      </g>
     </g>
     <g id="text_1">
      <!-- 100 -->
      <g transform="translate(83.048409 322.182437) scale(0.1 -0.1)">
       <defs>
        <path id="DejaVuSans-31" d="M 794 531 
L 1825 531 
L 1825 4091 
L 703 3866 
L 703 4441 
L 1819 4666 
L 2450 4666 
L 2450 531 
L 3481 531 
L 3481 0 
L 794 0 
L 794 531 
z
" transform="scale(0.015625)"/>
        <path id="DejaVuSans-30" d="M 2034 4250 
Q 1547 4250 1301 3770 
Q 1056 3291 1056 2328 
Q 1056 1369 1301 889 
Q 1547 409 2034 409 
Q 2525 409 2770 889 
Q 3016 1369 3016 2328 
Q 3016 3291 2770 3770 
Q 2525 4250 2034 4250 
z
M 2034 4750 
Q 2819 4750 3233 4129 
Q 3647 3509 3647 2328 
Q 3647 1150 3233 529 
Q 2819 -91 2034 -91 
Q 1250 -91 836 529 
Q 422 1150 422 2328 
Q 422 3509 836 4129 
Q 1250 4750 2034 4750 
z
" transform="scale(0.015625)"/>
       </defs>
       <use xlink:href="#DejaVuSans-31"/>
       <use xlink:href="#DejaVuSans-30" x="63.623047"/>
       <use xlink:href="#DejaVuSans-30" x="127.246094"/>
      </g>
     </g>
    </g>
    <g id="xtick_2">
     <g id="line2d_2">
      <g>
       <use xlink:href="#m7bce580c33" x="150.20712" y="307.584" style="stroke: #000000; stroke-width: 0.8"/>
      </g>
     </g>
     <g id="text_2">
      <!-- 200 -->
      <g transform="translate(140.66337 322.182437) scale(0.1 -0.1)">
       <defs>
        <path id="DejaVuSans-32" d="M 1228 531 
L 3431 531 
L 3431 0 
L 469 0 
L 469 531 
Q 828 903 1448 1529 
Q 2069 2156 2228 2338 
Q 2531 2678 2651 2914 
Q 2772 3150 2772 3378 
Q 2772 3750 2511 3984 
Q 2250 4219 1831 4219 
Q 1534 4219 1204 4116 
Q 875 4013 500 3803 
L 500 4441 
Q 881 4594 1212 4672 
Q 1544 4750 1819 4750 
Q 2544 4750 2975 4387 
Q 3406 4025 3406 3419 
Q 3406 3131 3298 2873 
Q 3191 2616 2906 2266 
Q 2828 2175 2409 1742 
Q 1991 1309 1228 531 
z
" transform="scale(0.015625)"/>
       </defs>
       <use xlink:href="#DejaVuSans-32"/>
       <use xlink:href="#DejaVuSans-30" x="63.623047"/>
       <use xlink:href="#DejaVuSans-30" x="127.246094"/>
      </g>
     </g>
    </g>
    <g id="xtick_3">
     <g id="line2d_3">
      <g>
       <use xlink:href="#m7bce580c33" x="207.822081" y="307.584" style="stroke: #000000; stroke-width: 0.8"/>
      </g>
     </g>
     <g id="text_3">
      <!-- 300 -->
      <g transform="translate(198.278331 322.182437) scale(0.1 -0.1)">
       <defs>
        <path id="DejaVuSans-33" d="M 2597 2516 
Q 3050 2419 3304 2112 
Q 3559 1806 3559 1356 
Q 3559 666 3084 287 
Q 2609 -91 1734 -91 
Q 1441 -91 1130 -33 
Q 819 25 488 141 
L 488 750 
Q 750 597 1062 519 
Q 1375 441 1716 441 
Q 2309 441 2620 675 
Q 2931 909 2931 1356 
Q 2931 1769 2642 2001 
Q 2353 2234 1838 2234 
L 1294 2234 
L 1294 2753 
L 1863 2753 
Q 2328 2753 2575 2939 
Q 2822 3125 2822 3475 
Q 2822 3834 2567 4026 
Q 2313 4219 1838 4219 
Q 1578 4219 1281 4162 
Q 984 4106 628 3988 
L 628 4550 
Q 988 4650 1302 4700 
Q 1616 4750 1894 4750 
Q 2613 4750 3031 4423 
Q 3450 4097 3450 3541 
Q 3450 3153 3228 2886 
Q 3006 2619 2597 2516 
z
" transform="scale(0.015625)"/>
       </defs>
       <use xlink:href="#DejaVuSans-33"/>
       <use xlink:href="#DejaVuSans-30" x="63.623047"/>
       <use xlink:href="#DejaVuSans-30" x="127.246094"/>
      </g>
     </g>
    </g>
    <g id="xtick_4">
     <g id="line2d_4">
      <g>
       <use xlink:href="#m7bce580c33" x="265.437043" y="307.584" style="stroke: #000000; stroke-width: 0.8"/>
      </g>
     </g>
     <g id="text_4">
      <!-- 400 -->
      <g transform="translate(255.893293 322.182437) scale(0.1 -0.1)">
       <defs>
        <path id="DejaVuSans-34" d="M 2419 4116 
L 825 1625 
L 2419 1625 
L 2419 4116 
z
M 2253 4666 
L 3047 4666 
L 3047 1625 
L 3713 1625 
L 3713 1100 
L 3047 1100 
L 3047 0 
L 2419 0 
L 2419 1100 
L 313 1100 
L 313 1709 
L 2253 4666 
z
" transform="scale(0.015625)"/>
       </defs>
       <use xlink:href="#DejaVuSans-34"/>
       <use xlink:href="#DejaVuSans-30" x="63.623047"/>
       <use xlink:href="#DejaVuSans-30" x="127.246094"/>
      </g>
     </g>
    </g>
    <g id="xtick_5">
     <g id="line2d_5">
      <g>
       <use xlink:href="#m7bce580c33" x="323.052004" y="307.584" style="stroke: #000000; stroke-width: 0.8"/>
      </g>
     </g>
     <g id="text_5">
      <!-- 500 -->
      <g transform="translate(313.508254 322.182437) scale(0.1 -0.1)">
       <defs>
        <path id="DejaVuSans-35" d="M 691 4666 
L 3169 4666 
L 3169 4134 
L 1269 4134 
L 1269 2991 
Q 1406 3038 1543 3061 
Q 1681 3084 1819 3084 
Q 2600 3084 3056 2656 
Q 3513 2228 3513 1497 
Q 3513 744 3044 326 
Q 2575 -91 1722 -91 
Q 1428 -91 1123 -41 
Q 819 9 494 109 
L 494 744 
Q 775 591 1075 516 
Q 1375 441 1709 441 
Q 2250 441 2565 725 
Q 2881 1009 2881 1497 
Q 2881 1984 2565 2268 
Q 2250 2553 1709 2553 
Q 1456 2553 1204 2497 
Q 953 2441 691 2322 
L 691 4666 
z
" transform="scale(0.015625)"/>
       </defs>
       <use xlink:href="#DejaVuSans-35"/>
       <use xlink:href="#DejaVuSans-30" x="63.623047"/>
       <use xlink:href="#DejaVuSans-30" x="127.246094"/>
      </g>
     </g>
    </g>
    <g id="xtick_6">
     <g id="line2d_6">
      <g>
       <use xlink:href="#m7bce580c33" x="380.666965" y="307.584" style="stroke: #000000; stroke-width: 0.8"/>
      </g>
     </g>
     <g id="text_6">
      <!-- 600 -->
      <g transform="translate(371.123215 322.182437) scale(0.1 -0.1)">
       <defs>
        <path id="DejaVuSans-36" d="M 2113 2584 
Q 1688 2584 1439 2293 
Q 1191 2003 1191 1497 
Q 1191 994 1439 701 
Q 1688 409 2113 409 
Q 2538 409 2786 701 
Q 3034 994 3034 1497 
Q 3034 2003 2786 2293 
Q 2538 2584 2113 2584 
z
M 3366 4563 
L 3366 3988 
Q 3128 4100 2886 4159 
Q 2644 4219 2406 4219 
Q 1781 4219 1451 3797 
Q 1122 3375 1075 2522 
Q 1259 2794 1537 2939 
Q 1816 3084 2150 3084 
Q 2853 3084 3261 2657 
Q 3669 2231 3669 1497 
Q 3669 778 3244 343 
Q 2819 -91 2113 -91 
Q 1303 -91 875 529 
Q 447 1150 447 2328 
Q 447 3434 972 4092 
Q 1497 4750 2381 4750 
Q 2619 4750 2861 4703 
Q 3103 4656 3366 4563 
z
" transform="scale(0.015625)"/>
       </defs>
       <use xlink:href="#DejaVuSans-36"/>
       <use xlink:href="#DejaVuSans-30" x="63.623047"/>
       <use xlink:href="#DejaVuSans-30" x="127.246094"/>
      </g>
     </g>
    </g>
    <g id="text_7">
     <!-- Score -->
     <g transform="translate(222.157656 335.860562) scale(0.1 -0.1)">
      <defs>
       <path id="DejaVuSans-53" d="M 3425 4513 
L 3425 3897 
Q 3066 4069 2747 4153 
Q 2428 4238 2131 4238 
Q 1616 4238 1336 4038 
Q 1056 3838 1056 3469 
Q 1056 3159 1242 3001 
Q 1428 2844 1947 2747 
L 2328 2669 
Q 3034 2534 3370 2195 
Q 3706 1856 3706 1288 
Q 3706 609 3251 259 
Q 2797 -91 1919 -91 
Q 1588 -91 1214 -16 
Q 841 59 441 206 
L 441 856 
Q 825 641 1194 531 
Q 1563 422 1919 422 
Q 2459 422 2753 634 
Q 3047 847 3047 1241 
Q 3047 1584 2836 1778 
Q 2625 1972 2144 2069 
L 1759 2144 
Q 1053 2284 737 2584 
Q 422 2884 422 3419 
Q 422 4038 858 4394 
Q 1294 4750 2059 4750 
Q 2388 4750 2728 4690 
Q 3069 4631 3425 4513 
z
" transform="scale(0.015625)"/>
       <path id="DejaVuSans-63" d="M 3122 3366 
L 3122 2828 
Q 2878 2963 2633 3030 
Q 2388 3097 2138 3097 
Q 1578 3097 1268 2742 
Q 959 2388 959 1747 
Q 959 1106 1268 751 
Q 1578 397 2138 397 
Q 2388 397 2633 464 
Q 2878 531 3122 666 
L 3122 134 
Q 2881 22 2623 -34 
Q 2366 -91 2075 -91 
Q 1284 -91 818 406 
Q 353 903 353 1747 
Q 353 2603 823 3093 
Q 1294 3584 2113 3584 
Q 2378 3584 2631 3529 
Q 2884 3475 3122 3366 
z
" transform="scale(0.015625)"/>
       <path id="DejaVuSans-6f" d="M 1959 3097 
Q 1497 3097 1228 2736 
Q 959 2375 959 1747 
Q 959 1119 1226 758 
Q 1494 397 1959 397 
Q 2419 397 2687 759 
Q 2956 1122 2956 1747 
Q 2956 2369 2687 2733 
Q 2419 3097 1959 3097 
z
M 1959 3584 
Q 2709 3584 3137 3096 
Q 3566 2609 3566 1747 
Q 3566 888 3137 398 
Q 2709 -91 1959 -91 
Q 1206 -91 779 398 
Q 353 888 353 1747 
Q 353 2609 779 3096 
Q 1206 3584 1959 3584 
z
" transform="scale(0.015625)"/>
       <path id="DejaVuSans-72" d="M 2631 2963 
Q 2534 3019 2420 3045 
Q 2306 3072 2169 3072 
Q 1681 3072 1420 2755 
Q 1159 2438 1159 1844 
L 1159 0 
L 581 0 
L 581 3500 
L 1159 3500 
L 1159 2956 
Q 1341 3275 1631 3429 
Q 1922 3584 2338 3584 
Q 2397 3584 2469 3576 
Q 2541 3569 2628 3553 
L 2631 2963 
z
" transform="scale(0.015625)"/>
       <path id="DejaVuSans-65" d="M 3597 1894 
L 3597 1613 
L 953 1613 
Q 991 1019 1311 708 
Q 1631 397 2203 397 
Q 2534 397 2845 478 
Q 3156 559 3463 722 
L 3463 178 
Q 3153 47 2828 -22 
Q 2503 -91 2169 -91 
Q 1331 -91 842 396 
Q 353 884 353 1716 
Q 353 2575 817 3079 
Q 1281 3584 2069 3584 
Q 2775 3584 3186 3129 
Q 3597 2675 3597 1894 
z
M 3022 2063 
Q 3016 2534 2758 2815 
Q 2500 3097 2075 3097 
Q 1594 3097 1305 2825 
Q 1016 2553 972 2059 
L 3022 2063 
z
" transform="scale(0.015625)"/>
      </defs>
      <use xlink:href="#DejaVuSans-53"/>
      <use xlink:href="#DejaVuSans-63" x="63.476562"/>
      <use xlink:href="#DejaVuSans-6f" x="118.457031"/>
      <use xlink:href="#DejaVuSans-72" x="179.638672"/>
      <use xlink:href="#DejaVuSans-65" x="218.501953"/>
     </g>
    </g>
   </g>
   <g id="matplotlib.axis_2">
    <g id="ytick_1">
     <g id="line2d_7">
      <defs>
       <path id="mf58879c2f9" d="M 0 0 
L -3.5 0 
" style="stroke: #000000; stroke-width: 0.8"/>
      </defs>
      <g>
       <use xlink:href="#mf58879c2f9" x="57.6" y="307.584" style="stroke: #000000; stroke-width: 0.8"/>
      </g>
     </g>
     <g id="text_8">
      <!-- 0 -->
      <g transform="translate(44.2375 311.383219) scale(0.1 -0.1)">
       <use xlink:href="#DejaVuSans-30"/>
      </g>
     </g>
    </g>
    <g id="ytick_2">
     <g id="line2d_8">
      <g>
       <use xlink:href="#mf58879c2f9" x="57.6" y="251.760211" style="stroke: #000000; stroke-width: 0.8"/>
      </g>
     </g>
     <g id="text_9">
      <!-- 50 -->
      <g transform="translate(37.875 255.55943) scale(0.1 -0.1)">
       <use xlink:href="#DejaVuSans-35"/>
       <use xlink:href="#DejaVuSans-30" x="63.623047"/>
      </g>
     </g>
    </g>
    <g id="ytick_3">
     <g id="line2d_9">
      <g>
       <use xlink:href="#mf58879c2f9" x="57.6" y="195.936423" style="stroke: #000000; stroke-width: 0.8"/>
      </g>
     </g>
     <g id="text_10">
      <!-- 100 -->
      <g transform="translate(31.5125 199.735642) scale(0.1 -0.1)">
       <use xlink:href="#DejaVuSans-31"/>
       <use xlink:href="#DejaVuSans-30" x="63.623047"/>
       <use xlink:href="#DejaVuSans-30" x="127.246094"/>
      </g>
     </g>
    </g>
    <g id="ytick_4">
     <g id="line2d_10">
      <g>
       <use xlink:href="#mf58879c2f9" x="57.6" y="140.112634" style="stroke: #000000; stroke-width: 0.8"/>
      </g>
     </g>
     <g id="text_11">
      <!-- 150 -->
      <g transform="translate(31.5125 143.911853) scale(0.1 -0.1)">
       <use xlink:href="#DejaVuSans-31"/>
       <use xlink:href="#DejaVuSans-35" x="63.623047"/>
       <use xlink:href="#DejaVuSans-30" x="127.246094"/>
      </g>
     </g>
    </g>
    <g id="ytick_5">
     <g id="line2d_11">
      <g>
       <use xlink:href="#mf58879c2f9" x="57.6" y="84.288846" style="stroke: #000000; stroke-width: 0.8"/>
      </g>
     </g>
     <g id="text_12">
      <!-- 200 -->
      <g transform="translate(31.5125 88.088065) scale(0.1 -0.1)">
       <use xlink:href="#DejaVuSans-32"/>
       <use xlink:href="#DejaVuSans-30" x="63.623047"/>
       <use xlink:href="#DejaVuSans-30" x="127.246094"/>
      </g>
     </g>
    </g>
    <g id="text_13">
     <!-- Number of crosslinks -->
     <g transform="translate(25.432812 227.019406) rotate(-90) scale(0.1 -0.1)">
      <defs>
       <path id="DejaVuSans-4e" d="M 628 4666 
L 1478 4666 
L 3547 763 
L 3547 4666 
L 4159 4666 
L 4159 0 
L 3309 0 
L 1241 3903 
L 1241 0 
L 628 0 
L 628 4666 
z
" transform="scale(0.015625)"/>
       <path id="DejaVuSans-75" d="M 544 1381 
L 544 3500 
L 1119 3500 
L 1119 1403 
Q 1119 906 1312 657 
Q 1506 409 1894 409 
Q 2359 409 2629 706 
Q 2900 1003 2900 1516 
L 2900 3500 
L 3475 3500 
L 3475 0 
L 2900 0 
L 2900 538 
Q 2691 219 2414 64 
Q 2138 -91 1772 -91 
Q 1169 -91 856 284 
Q 544 659 544 1381 
z
M 1991 3584 
L 1991 3584 
z
" transform="scale(0.015625)"/>
       <path id="DejaVuSans-6d" d="M 3328 2828 
Q 3544 3216 3844 3400 
Q 4144 3584 4550 3584 
Q 5097 3584 5394 3201 
Q 5691 2819 5691 2113 
L 5691 0 
L 5113 0 
L 5113 2094 
Q 5113 2597 4934 2840 
Q 4756 3084 4391 3084 
Q 3944 3084 3684 2787 
Q 3425 2491 3425 1978 
L 3425 0 
L 2847 0 
L 2847 2094 
Q 2847 2600 2669 2842 
Q 2491 3084 2119 3084 
Q 1678 3084 1418 2786 
Q 1159 2488 1159 1978 
L 1159 0 
L 581 0 
L 581 3500 
L 1159 3500 
L 1159 2956 
Q 1356 3278 1631 3431 
Q 1906 3584 2284 3584 
Q 2666 3584 2933 3390 
Q 3200 3197 3328 2828 
z
" transform="scale(0.015625)"/>
       <path id="DejaVuSans-62" d="M 3116 1747 
Q 3116 2381 2855 2742 
Q 2594 3103 2138 3103 
Q 1681 3103 1420 2742 
Q 1159 2381 1159 1747 
Q 1159 1113 1420 752 
Q 1681 391 2138 391 
Q 2594 391 2855 752 
Q 3116 1113 3116 1747 
z
M 1159 2969 
Q 1341 3281 1617 3432 
Q 1894 3584 2278 3584 
Q 2916 3584 3314 3078 
Q 3713 2572 3713 1747 
Q 3713 922 3314 415 
Q 2916 -91 2278 -91 
Q 1894 -91 1617 61 
Q 1341 213 1159 525 
L 1159 0 
L 581 0 
L 581 4863 
L 1159 4863 
L 1159 2969 
z
" transform="scale(0.015625)"/>
       <path id="DejaVuSans-20" transform="scale(0.015625)"/>
       <path id="DejaVuSans-66" d="M 2375 4863 
L 2375 4384 
L 1825 4384 
Q 1516 4384 1395 4259 
Q 1275 4134 1275 3809 
L 1275 3500 
L 2222 3500 
L 2222 3053 
L 1275 3053 
L 1275 0 
L 697 0 
L 697 3053 
L 147 3053 
L 147 3500 
L 697 3500 
L 697 3744 
Q 697 4328 969 4595 
Q 1241 4863 1831 4863 
L 2375 4863 
z
" transform="scale(0.015625)"/>
       <path id="DejaVuSans-73" d="M 2834 3397 
L 2834 2853 
Q 2591 2978 2328 3040 
Q 2066 3103 1784 3103 
Q 1356 3103 1142 2972 
Q 928 2841 928 2578 
Q 928 2378 1081 2264 
Q 1234 2150 1697 2047 
L 1894 2003 
Q 2506 1872 2764 1633 
Q 3022 1394 3022 966 
Q 3022 478 2636 193 
Q 2250 -91 1575 -91 
Q 1294 -91 989 -36 
Q 684 19 347 128 
L 347 722 
Q 666 556 975 473 
Q 1284 391 1588 391 
Q 1994 391 2212 530 
Q 2431 669 2431 922 
Q 2431 1156 2273 1281 
Q 2116 1406 1581 1522 
L 1381 1569 
Q 847 1681 609 1914 
Q 372 2147 372 2553 
Q 372 3047 722 3315 
Q 1072 3584 1716 3584 
Q 2034 3584 2315 3537 
Q 2597 3491 2834 3397 
z
" transform="scale(0.015625)"/>
       <path id="DejaVuSans-6c" d="M 603 4863 
L 1178 4863 
L 1178 0 
L 603 0 
L 603 4863 
z
" transform="scale(0.015625)"/>
       <path id="DejaVuSans-69" d="M 603 3500 
L 1178 3500 
L 1178 0 
L 603 0 
L 603 3500 
z
M 603 4863 
L 1178 4863 
L 1178 4134 
L 603 4134 
L 603 4863 
z
" transform="scale(0.015625)"/>
       <path id="DejaVuSans-6e" d="M 3513 2113 
L 3513 0 
L 2938 0 
L 2938 2094 
Q 2938 2591 2744 2837 
Q 2550 3084 2163 3084 
Q 1697 3084 1428 2787 
Q 1159 2491 1159 1978 
L 1159 0 
L 581 0 
L 581 3500 
L 1159 3500 
L 1159 2956 
Q 1366 3272 1645 3428 
Q 1925 3584 2291 3584 
Q 2894 3584 3203 3211 
Q 3513 2838 3513 2113 
z
" transform="scale(0.015625)"/>
       <path id="DejaVuSans-6b" d="M 581 4863 
L 1159 4863 
L 1159 1991 
L 2875 3500 
L 3609 3500 
L 1753 1863 
L 3688 0 
L 2938 0 
L 1159 1709 
L 1159 0 
L 581 0 
L 581 4863 
z
" transform="scale(0.015625)"/>
      </defs>
      <use xlink:href="#DejaVuSans-4e"/>
      <use xlink:href="#DejaVuSans-75" x="74.804688"/>
      <use xlink:href="#DejaVuSans-6d" x="138.183594"/>
      <use xlink:href="#DejaVuSans-62" x="235.595703"/>
      <use xlink:href="#DejaVuSans-65" x="299.072266"/>
      <use xlink:href="#DejaVuSans-72" x="360.595703"/>
      <use xlink:href="#DejaVuSans-20" x="401.708984"/>
      <use xlink:href="#DejaVuSans-6f" x="433.496094"/>
      <use xlink:href="#DejaVuSans-66" x="494.677734"/>
      <use xlink:href="#DejaVuSans-20" x="529.882812"/>
      <use xlink:href="#DejaVuSans-63" x="561.669922"/>
      <use xlink:href="#DejaVuSans-72" x="616.650391"/>
      <use xlink:href="#DejaVuSans-6f" x="655.513672"/>
      <use xlink:href="#DejaVuSans-73" x="716.695312"/>
      <use xlink:href="#DejaVuSans-73" x="768.794922"/>
      <use xlink:href="#DejaVuSans-6c" x="820.894531"/>
      <use xlink:href="#DejaVuSans-69" x="848.677734"/>
      <use xlink:href="#DejaVuSans-6e" x="876.460938"/>
      <use xlink:href="#DejaVuSans-6b" x="939.839844"/>
      <use xlink:href="#DejaVuSans-73" x="997.75"/>
     </g>
    </g>
   </g>
   <g id="patch_3">
    <path d="M 57.6 307.584 
L 57.6 41.472 
" style="fill: none; stroke: #000000; stroke-width: 0.8; stroke-linejoin: miter; stroke-linecap: square"/>
   </g>
   <g id="patch_4">
    <path d="M 414.72 307.584 
L 414.72 41.472 
" style="fill: none; stroke: #000000; stroke-width: 0.8; stroke-linejoin: miter; stroke-linecap: square"/>
   </g>
   <g id="patch_5">
    <path d="M 57.6 307.584 
L 414.72 307.584 
" style="fill: none; stroke: #000000; stroke-width: 0.8; stroke-linejoin: miter; stroke-linecap: square"/>
   </g>
   <g id="patch_6">
    <path d="M 57.6 41.472 
L 414.72 41.472 
" style="fill: none; stroke: #000000; stroke-width: 0.8; stroke-linejoin: miter; stroke-linecap: square"/>
   </g>
   <g id="legend_1">
    <g id="patch_7">
     <path d="M 293.087188 93.506375 
L 407.72 93.506375 
Q 409.72 93.506375 409.72 91.506375 
L 409.72 48.472 
Q 409.72 46.472 407.72 46.472 
L 293.087188 46.472 
Q 291.087188 46.472 291.087188 48.472 
L 291.087188 91.506375 
Q 291.087188 93.506375 293.087188 93.506375 
z
" style="fill: #ffffff; opacity: 0.8; stroke: #cccccc; stroke-linejoin: miter"/>
    </g>
    <g id="patch_8">
     <path d="M 295.087188 58.070438 
L 315.087188 58.070438 
L 315.087188 51.070438 
L 295.087188 51.070438 
z
" style="fill: #008000"/>
    </g>
    <g id="text_14">
     <!-- true -->
     <g transform="translate(323.087188 58.070438) scale(0.1 -0.1)">
      <defs>
       <path id="DejaVuSans-74" d="M 1172 4494 
L 1172 3500 
L 2356 3500 
L 2356 3053 
L 1172 3053 
L 1172 1153 
Q 1172 725 1289 603 
Q 1406 481 1766 481 
L 2356 481 
L 2356 0 
L 1766 0 
Q 1100 0 847 248 
Q 594 497 594 1153 
L 594 3053 
L 172 3053 
L 172 3500 
L 594 3500 
L 594 4494 
L 1172 4494 
z
" transform="scale(0.015625)"/>
      </defs>
      <use xlink:href="#DejaVuSans-74"/>
      <use xlink:href="#DejaVuSans-72" x="39.208984"/>
      <use xlink:href="#DejaVuSans-75" x="80.322266"/>
      <use xlink:href="#DejaVuSans-65" x="143.701172"/>
     </g>
    </g>
    <g id="patch_9">
     <path d="M 295.087188 72.748563 
L 315.087188 72.748563 
L 315.087188 65.748563 
L 295.087188 65.748563 
z
" style="fill: #7cfc00"/>
    </g>
    <g id="text_15">
     <!-- true homeotypic -->
     <g transform="translate(323.087188 72.748563) scale(0.1 -0.1)">
      <defs>
       <path id="DejaVuSans-68" d="M 3513 2113 
L 3513 0 
L 2938 0 
L 2938 2094 
Q 2938 2591 2744 2837 
Q 2550 3084 2163 3084 
Q 1697 3084 1428 2787 
Q 1159 2491 1159 1978 
L 1159 0 
L 581 0 
L 581 4863 
L 1159 4863 
L 1159 2956 
Q 1366 3272 1645 3428 
Q 1925 3584 2291 3584 
Q 2894 3584 3203 3211 
Q 3513 2838 3513 2113 
z
" transform="scale(0.015625)"/>
       <path id="DejaVuSans-79" d="M 2059 -325 
Q 1816 -950 1584 -1140 
Q 1353 -1331 966 -1331 
L 506 -1331 
L 506 -850 
L 844 -850 
Q 1081 -850 1212 -737 
Q 1344 -625 1503 -206 
L 1606 56 
L 191 3500 
L 800 3500 
L 1894 763 
L 2988 3500 
L 3597 3500 
L 2059 -325 
z
" transform="scale(0.015625)"/>
       <path id="DejaVuSans-70" d="M 1159 525 
L 1159 -1331 
L 581 -1331 
L 581 3500 
L 1159 3500 
L 1159 2969 
Q 1341 3281 1617 3432 
Q 1894 3584 2278 3584 
Q 2916 3584 3314 3078 
Q 3713 2572 3713 1747 
Q 3713 922 3314 415 
Q 2916 -91 2278 -91 
Q 1894 -91 1617 61 
Q 1341 213 1159 525 
z
M 3116 1747 
Q 3116 2381 2855 2742 
Q 2594 3103 2138 3103 
Q 1681 3103 1420 2742 
Q 1159 2381 1159 1747 
Q 1159 1113 1420 752 
Q 1681 391 2138 391 
Q 2594 391 2855 752 
Q 3116 1113 3116 1747 
z
" transform="scale(0.015625)"/>
      </defs>
      <use xlink:href="#DejaVuSans-74"/>
      <use xlink:href="#DejaVuSans-72" x="39.208984"/>
      <use xlink:href="#DejaVuSans-75" x="80.322266"/>
      <use xlink:href="#DejaVuSans-65" x="143.701172"/>
      <use xlink:href="#DejaVuSans-20" x="205.224609"/>
      <use xlink:href="#DejaVuSans-68" x="237.011719"/>
      <use xlink:href="#DejaVuSans-6f" x="300.390625"/>
      <use xlink:href="#DejaVuSans-6d" x="361.572266"/>
      <use xlink:href="#DejaVuSans-65" x="458.984375"/>
      <use xlink:href="#DejaVuSans-6f" x="520.507812"/>
      <use xlink:href="#DejaVuSans-74" x="581.689453"/>
      <use xlink:href="#DejaVuSans-79" x="620.898438"/>
      <use xlink:href="#DejaVuSans-70" x="680.078125"/>
      <use xlink:href="#DejaVuSans-69" x="743.554688"/>
      <use xlink:href="#DejaVuSans-63" x="771.337891"/>
     </g>
    </g>
    <g id="patch_10">
     <path d="M 295.087188 87.426688 
L 315.087188 87.426688 
L 315.087188 80.426688 
L 295.087188 80.426688 
z
" style="fill: #ff0000"/>
    </g>
    <g id="text_16">
     <!-- false -->
     <g transform="translate(323.087188 87.426688) scale(0.1 -0.1)">
      <defs>
       <path id="DejaVuSans-61" d="M 2194 1759 
Q 1497 1759 1228 1600 
Q 959 1441 959 1056 
Q 959 750 1161 570 
Q 1363 391 1709 391 
Q 2188 391 2477 730 
Q 2766 1069 2766 1631 
L 2766 1759 
L 2194 1759 
z
M 3341 1997 
L 3341 0 
L 2766 0 
L 2766 531 
Q 2569 213 2275 61 
Q 1981 -91 1556 -91 
Q 1019 -91 701 211 
Q 384 513 384 1019 
Q 384 1609 779 1909 
Q 1175 2209 1959 2209 
L 2766 2209 
L 2766 2266 
Q 2766 2663 2505 2880 
Q 2244 3097 1772 3097 
Q 1472 3097 1187 3025 
Q 903 2953 641 2809 
L 641 3341 
Q 956 3463 1253 3523 
Q 1550 3584 1831 3584 
Q 2591 3584 2966 3190 
Q 3341 2797 3341 1997 
z
" transform="scale(0.015625)"/>
      </defs>
      <use xlink:href="#DejaVuSans-66"/>
      <use xlink:href="#DejaVuSans-61" x="35.205078"/>
      <use xlink:href="#DejaVuSans-6c" x="96.484375"/>
      <use xlink:href="#DejaVuSans-73" x="124.267578"/>
      <use xlink:href="#DejaVuSans-65" x="176.367188"/>
     </g>
    </g>
   </g>
  </g>
 </g>
 <defs>
  <clipPath id="pcca02a48e4">
   <rect x="57.6" y="41.472" width="357.12" height="266.112"/>
  </clipPath>
 </defs>
</svg>
