<?xml version="1.0" encoding="utf-8" standalone="no"?>
<!DOCTYPE svg PUBLIC "-//W3C//DTD SVG 1.1//EN"
  "http://www.w3.org/Graphics/SVG/1.1/DTD/svg11.dtd">
<svg xmlns:xlink="http://www.w3.org/1999/xlink" width="460.8pt" height="345.6pt" viewBox="0 0 460.8 345.6" xmlns="http://www.w3.org/2000/svg" version="1.1">
 <metadata>
  <rdf:RDF xmlns:dc="http://purl.org/dc/elements/1.1/" xmlns:cc="http://creativecommons.org/ns#" xmlns:rdf="http://www.w3.org/1999/02/22-rdf-syntax-ns#">
   <cc:Work>
    <dc:type rdf:resource="http://purl.org/dc/dcmitype/StillImage"/>
    <dc:date>2024-06-24T13:02:03.587481</dc:date>
    <dc:format>image/svg+xml</dc:format>
    <dc:creator>
     <cc:Agent>
      <dc:title>Matplotlib v3.9.0, https://matplotlib.org/</dc:title>
     </cc:Agent>
    </dc:creator>
   </cc:Work>
  </rdf:RDF>
 </metadata>
 <defs>
  <style type="text/css">*{stroke-linejoin: round; stroke-linecap: butt}</style>
 </defs>
 <g id="figure_1">
  <g id="patch_1">
   <path d="M 0 345.6 
L 460.8 345.6 
L 460.8 0 
L 0 0 
z
" style="fill: #ffffff"/>
  </g>
  <g id="axes_1">
   <g id="patch_2">
    <path d="M 57.6 307.584 
L 414.72 307.584 
L 414.72 41.472 
L 57.6 41.472 
z
" style="fill: #ffffff"/>
   </g>
   <g id="PolyCollection_1">
    <path d="M 73.832727 118.699472 
L 73.832727 307.584 
L 74.136227 307.584 
L 77.950481 307.584 
L 78.778954 307.584 
L 79.533602 307.584 
L 80.575344 307.584 
L 81.945195 307.584 
L 82.092843 307.584 
L 83.077167 307.584 
L 85.587192 307.584 
L 86.087557 307.584 
L 86.464881 307.584 
L 86.760178 307.584 
L 88.138231 307.584 
L 88.228461 307.584 
L 89.097946 307.584 
L 89.901811 307.584 
L 90.434986 307.584 
L 91.197837 307.584 
L 91.443918 307.584 
L 91.878661 307.584 
L 92.198566 307.584 
L 92.469255 307.584 
L 92.502066 307.584 
L 93.363349 307.584 
L 93.593024 307.584 
L 94.101592 307.584 
L 94.519929 307.584 
L 94.716794 307.584 
L 94.749605 307.584 
L 95.077713 307.584 
L 95.37301 307.584 
L 95.471442 307.584 
L 95.692915 307.584 
L 96.267104 307.584 
L 96.291712 307.584 
L 96.504982 307.584 
L 96.74286 307.584 
L 96.980738 307.584 
L 97.407279 307.584 
L 98.342386 307.584 
L 98.465426 307.584 
L 98.727913 307.584 
L 99.088831 307.584 
L 99.646615 307.584 
L 99.712236 307.584 
L 100.138777 307.584 
L 104.313949 307.584 
L 105.16703 307.584 
L 105.232651 307.584 
L 105.872462 307.584 
L 106.84038 307.584 
L 107.554015 307.584 
L 107.644244 307.584 
L 107.734474 307.584 
L 108.161014 307.584 
L 108.587555 307.584 
L 109.768743 307.584 
L 110.18708 307.584 
L 110.219891 307.584 
L 110.859702 307.584 
L 111.319053 307.584 
L 111.409282 307.584 
L 111.630755 307.584 
L 111.778404 307.584 
L 111.803012 307.584 
L 113.082633 307.584 
L 113.115443 307.584 
L 113.345119 307.584 
L 114.813402 307.584 
L 116.371914 307.584 
L 116.576981 307.584 
L 116.962508 307.584 
L 118.020656 307.584 
L 118.422588 307.584 
L 118.816318 307.584 
L 119.185439 307.584 
L 120.383033 307.584 
L 121.900532 307.584 
L 123.196558 307.584 
L 123.221166 307.584 
L 123.311396 307.584 
L 123.50826 307.584 
L 123.655909 307.584 
L 123.975814 307.584 
L 124.369544 307.584 
L 126.969799 307.584 
L 127.962325 307.584 
L 128.265825 307.584 
L 128.864622 307.584 
L 129.01227 307.584 
L 129.1025 307.584 
L 129.266554 307.584 
L 129.807932 307.584 
L 130.455945 307.584 
L 132.260538 307.584 
L 133.121821 307.584 
L 133.835456 307.584 
L 133.868267 307.584 
L 134.261996 307.584 
L 134.401442 307.584 
L 134.713145 307.584 
L 135.000239 307.584 
L 135.377563 307.584 
L 135.607239 307.584 
L 136.238846 307.584 
L 137.461048 307.584 
L 138.478183 307.584 
L 138.945736 307.584 
L 139.519925 307.584 
L 139.601952 307.584 
L 141.833086 307.584 
L 142.276031 307.584 
L 142.645153 307.584 
L 143.867354 307.584 
L 144.138043 307.584 
L 144.745043 307.584 
L 145.261813 307.584 
L 145.507894 307.584 
L 146.984379 307.584 
L 147.780041 307.584 
L 148.616716 307.584 
L 148.706946 307.584 
L 149.166297 307.584 
L 149.215513 307.584 
L 149.63385 307.584 
L 150.437715 307.584 
L 150.552553 307.584 
L 152.64424 307.584 
L 152.652443 307.584 
L 153.907456 307.584 
L 154.990212 307.584 
L 155.285509 307.584 
L 155.457765 307.584 
L 156.089373 307.584 
L 159.796992 307.584 
L 160.051276 307.584 
L 160.666478 307.584 
L 160.707491 307.584 
L 161.470342 307.584 
L 161.478545 307.584 
L 162.610517 307.584 
L 163.209314 307.584 
L 164.128016 307.584 
L 164.144421 307.584 
L 164.41511 307.584 
L 164.480732 307.584 
L 165.177961 307.584 
L 165.186164 307.584 
L 165.218975 307.584 
L 165.41584 307.584 
L 166.966149 307.584 
L 167.130203 307.584 
L 168.434432 307.584 
L 169.27931 307.584 
L 169.320323 307.584 
L 171.420214 307.584 
L 171.6827 307.584 
L 171.887767 307.584 
L 172.691632 307.584 
L 177.342561 307.584 
L 178.654993 307.584 
L 179.959221 307.584 
L 180.024843 307.584 
L 183.076246 307.584 
L 184.019556 307.584 
L 184.109786 307.584 
L 185.225353 307.584 
L 186.37373 307.584 
L 187.538513 307.584 
L 189.490755 307.584 
L 191.951564 307.584 
L 192.845658 307.584 
L 192.870266 307.584 
L 193.846387 307.584 
L 195.486927 307.584 
L 198.259438 307.584 
L 199.079708 307.584 
L 199.653897 307.584 
L 205.362974 307.584 
L 205.535231 307.584 
L 207.823783 307.584 
L 214.541792 307.584 
L 214.574603 307.584 
L 217.330709 307.584 
L 218.011533 307.584 
L 219.971977 307.584 
L 221.095747 307.584 
L 224.647515 307.584 
L 230.619078 307.584 
L 244.489839 307.584 
L 245.498771 307.584 
L 249.214592 307.584 
L 249.5427 307.584 
L 257.87664 307.584 
L 281.877732 307.584 
L 283.083528 307.584 
L 283.091731 307.584 
L 283.739744 307.584 
L 292.049076 307.584 
L 298.332342 307.584 
L 298.717869 307.584 
L 300.465043 307.584 
L 301.236097 307.584 
L 306.182323 307.584 
L 323.736095 307.584 
L 327.36989 307.584 
L 328.764348 307.584 
L 332.882102 307.584 
L 345.776742 307.584 
L 370.475062 307.584 
L 398.487273 307.584 
L 398.487273 307.584 
L 398.487273 307.584 
L 370.475062 307.584 
L 345.776742 307.584 
L 332.882102 307.584 
L 328.764348 307.584 
L 327.36989 307.584 
L 323.736095 306.388528 
L 306.182323 305.193057 
L 301.236097 305.193057 
L 300.465043 305.193057 
L 298.717869 305.193057 
L 298.332342 305.193057 
L 292.049076 305.193057 
L 283.739744 305.193057 
L 283.091731 303.997585 
L 283.083528 303.997585 
L 281.877732 303.997585 
L 257.87664 302.802113 
L 249.5427 301.606642 
L 249.214592 300.41117 
L 245.498771 300.41117 
L 244.489839 299.215698 
L 230.619078 298.020226 
L 224.647515 296.824755 
L 221.095747 296.824755 
L 219.971977 296.824755 
L 218.011533 296.824755 
L 217.330709 295.629283 
L 214.574603 294.433811 
L 214.541792 294.433811 
L 207.823783 293.23834 
L 205.535231 292.042868 
L 205.362974 290.847396 
L 199.653897 290.847396 
L 199.079708 289.651925 
L 198.259438 289.651925 
L 195.486927 289.651925 
L 193.846387 288.456453 
L 192.870266 287.260981 
L 192.845658 286.065509 
L 191.951564 286.065509 
L 189.490755 286.065509 
L 187.538513 284.870038 
L 186.37373 284.870038 
L 185.225353 284.870038 
L 184.109786 283.674566 
L 184.019556 282.479094 
L 183.076246 281.283623 
L 180.024843 281.283623 
L 179.959221 280.088151 
L 178.654993 278.892679 
L 177.342561 277.697208 
L 172.691632 276.501736 
L 171.887767 275.306264 
L 171.6827 274.110792 
L 171.420214 272.915321 
L 169.320323 272.915321 
L 169.27931 271.719849 
L 168.434432 270.524377 
L 167.130203 270.524377 
L 166.966149 270.524377 
L 165.41584 270.524377 
L 165.218975 269.328906 
L 165.186164 268.133434 
L 165.177961 266.937962 
L 164.480732 265.742491 
L 164.41511 265.742491 
L 164.144421 264.547019 
L 164.128016 263.351547 
L 163.209314 262.156075 
L 162.610517 260.960604 
L 161.478545 259.765132 
L 161.470342 258.56966 
L 160.707491 257.374189 
L 160.666478 256.178717 
L 160.051276 256.178717 
L 159.796992 254.983245 
L 156.089373 253.787774 
L 155.457765 253.787774 
L 155.285509 253.787774 
L 154.990212 253.787774 
L 153.907456 252.592302 
L 152.652443 251.39683 
L 152.64424 250.201358 
L 150.552553 249.005887 
L 150.437715 247.810415 
L 149.63385 246.614943 
L 149.215513 245.419472 
L 149.166297 244.224 
L 148.706946 243.028528 
L 148.616716 241.833057 
L 147.780041 240.637585 
L 146.984379 240.637585 
L 145.507894 239.442113 
L 145.261813 238.246642 
L 144.745043 237.05117 
L 144.138043 235.855698 
L 143.867354 234.660226 
L 142.645153 233.464755 
L 142.276031 232.269283 
L 141.833086 231.073811 
L 139.601952 229.87834 
L 139.519925 229.87834 
L 138.945736 228.682868 
L 138.478183 227.487396 
L 137.461048 226.291925 
L 136.238846 226.291925 
L 135.607239 225.096453 
L 135.377563 223.900981 
L 135.000239 222.705509 
L 134.713145 221.510038 
L 134.401442 220.314566 
L 134.261996 220.314566 
L 133.868267 219.119094 
L 133.835456 217.923623 
L 133.121821 216.728151 
L 132.260538 215.532679 
L 130.455945 214.337208 
L 129.807932 213.141736 
L 129.266554 211.946264 
L 129.1025 210.750792 
L 129.01227 209.555321 
L 128.864622 208.359849 
L 128.265825 207.164377 
L 127.962325 205.968906 
L 126.969799 204.773434 
L 124.369544 204.773434 
L 123.975814 204.773434 
L 123.655909 203.577962 
L 123.50826 202.382491 
L 123.311396 201.187019 
L 123.221166 199.991547 
L 123.196558 199.991547 
L 121.900532 198.796075 
L 120.383033 197.600604 
L 119.185439 196.405132 
L 118.816318 196.405132 
L 118.422588 195.20966 
L 118.020656 194.014189 
L 116.962508 192.818717 
L 116.576981 191.623245 
L 116.371914 190.427774 
L 114.813402 190.427774 
L 113.345119 189.232302 
L 113.115443 189.232302 
L 113.082633 188.03683 
L 111.803012 186.841358 
L 111.778404 186.841358 
L 111.630755 185.645887 
L 111.409282 185.645887 
L 111.319053 184.450415 
L 110.859702 184.450415 
L 110.219891 183.254943 
L 110.18708 182.059472 
L 109.768743 180.864 
L 108.587555 179.668528 
L 108.161014 178.473057 
L 107.734474 177.277585 
L 107.644244 176.082113 
L 107.554015 174.886642 
L 106.84038 173.69117 
L 105.872462 172.495698 
L 105.232651 171.300226 
L 105.16703 170.104755 
L 104.313949 168.909283 
L 100.138777 167.713811 
L 99.712236 166.51834 
L 99.646615 165.322868 
L 99.088831 164.127396 
L 98.727913 162.931925 
L 98.465426 161.736453 
L 98.342386 160.540981 
L 97.407279 159.345509 
L 96.980738 158.150038 
L 96.74286 156.954566 
L 96.504982 155.759094 
L 96.291712 154.563623 
L 96.267104 153.368151 
L 95.692915 152.172679 
L 95.471442 152.172679 
L 95.37301 150.977208 
L 95.077713 150.977208 
L 94.749605 149.781736 
L 94.716794 148.586264 
L 94.519929 147.390792 
L 94.101592 146.195321 
L 93.593024 144.999849 
L 93.363349 143.804377 
L 92.502066 142.608906 
L 92.469255 141.413434 
L 92.198566 140.217962 
L 91.878661 139.022491 
L 91.443918 137.827019 
L 91.197837 137.827019 
L 90.434986 136.631547 
L 89.901811 135.436075 
L 89.097946 134.240604 
L 88.228461 133.045132 
L 88.138231 131.84966 
L 86.760178 130.654189 
L 86.464881 129.458717 
L 86.087557 128.263245 
L 85.587192 127.067774 
L 83.077167 125.872302 
L 82.092843 125.872302 
L 81.945195 124.67683 
L 80.575344 123.481358 
L 79.533602 122.285887 
L 78.778954 121.090415 
L 77.950481 119.894943 
L 74.136227 119.894943 
L 73.832727 118.699472 
z
" clip-path="url(#p7f7a1987be)" style="fill: #008000"/>
   </g>
   <g id="PolyCollection_2">
    <path d="M 73.832727 58.925887 
L 73.832727 118.699472 
L 74.136227 119.894943 
L 77.950481 119.894943 
L 78.778954 121.090415 
L 79.533602 122.285887 
L 80.575344 123.481358 
L 81.945195 124.67683 
L 82.092843 125.872302 
L 83.077167 125.872302 
L 85.587192 127.067774 
L 86.087557 128.263245 
L 86.464881 129.458717 
L 86.760178 130.654189 
L 88.138231 131.84966 
L 88.228461 133.045132 
L 89.097946 134.240604 
L 89.901811 135.436075 
L 90.434986 136.631547 
L 91.197837 137.827019 
L 91.443918 137.827019 
L 91.878661 139.022491 
L 92.198566 140.217962 
L 92.469255 141.413434 
L 92.502066 142.608906 
L 93.363349 143.804377 
L 93.593024 144.999849 
L 94.101592 146.195321 
L 94.519929 147.390792 
L 94.716794 148.586264 
L 94.749605 149.781736 
L 95.077713 150.977208 
L 95.37301 150.977208 
L 95.471442 152.172679 
L 95.692915 152.172679 
L 96.267104 153.368151 
L 96.291712 154.563623 
L 96.504982 155.759094 
L 96.74286 156.954566 
L 96.980738 158.150038 
L 97.407279 159.345509 
L 98.342386 160.540981 
L 98.465426 161.736453 
L 98.727913 162.931925 
L 99.088831 164.127396 
L 99.646615 165.322868 
L 99.712236 166.51834 
L 100.138777 167.713811 
L 104.313949 168.909283 
L 105.16703 170.104755 
L 105.232651 171.300226 
L 105.872462 172.495698 
L 106.84038 173.69117 
L 107.554015 174.886642 
L 107.644244 176.082113 
L 107.734474 177.277585 
L 108.161014 178.473057 
L 108.587555 179.668528 
L 109.768743 180.864 
L 110.18708 182.059472 
L 110.219891 183.254943 
L 110.859702 184.450415 
L 111.319053 184.450415 
L 111.409282 185.645887 
L 111.630755 185.645887 
L 111.778404 186.841358 
L 111.803012 186.841358 
L 113.082633 188.03683 
L 113.115443 189.232302 
L 113.345119 189.232302 
L 114.813402 190.427774 
L 116.371914 190.427774 
L 116.576981 191.623245 
L 116.962508 192.818717 
L 118.020656 194.014189 
L 118.422588 195.20966 
L 118.816318 196.405132 
L 119.185439 196.405132 
L 120.383033 197.600604 
L 121.900532 198.796075 
L 123.196558 199.991547 
L 123.221166 199.991547 
L 123.311396 201.187019 
L 123.50826 202.382491 
L 123.655909 203.577962 
L 123.975814 204.773434 
L 124.369544 204.773434 
L 126.969799 204.773434 
L 127.962325 205.968906 
L 128.265825 207.164377 
L 128.864622 208.359849 
L 129.01227 209.555321 
L 129.1025 210.750792 
L 129.266554 211.946264 
L 129.807932 213.141736 
L 130.455945 214.337208 
L 132.260538 215.532679 
L 133.121821 216.728151 
L 133.835456 217.923623 
L 133.868267 219.119094 
L 134.261996 220.314566 
L 134.401442 220.314566 
L 134.713145 221.510038 
L 135.000239 222.705509 
L 135.377563 223.900981 
L 135.607239 225.096453 
L 136.238846 226.291925 
L 137.461048 226.291925 
L 138.478183 227.487396 
L 138.945736 228.682868 
L 139.519925 229.87834 
L 139.601952 229.87834 
L 141.833086 231.073811 
L 142.276031 232.269283 
L 142.645153 233.464755 
L 143.867354 234.660226 
L 144.138043 235.855698 
L 144.745043 237.05117 
L 145.261813 238.246642 
L 145.507894 239.442113 
L 146.984379 240.637585 
L 147.780041 240.637585 
L 148.616716 241.833057 
L 148.706946 243.028528 
L 149.166297 244.224 
L 149.215513 245.419472 
L 149.63385 246.614943 
L 150.437715 247.810415 
L 150.552553 249.005887 
L 152.64424 250.201358 
L 152.652443 251.39683 
L 153.907456 252.592302 
L 154.990212 253.787774 
L 155.285509 253.787774 
L 155.457765 253.787774 
L 156.089373 253.787774 
L 159.796992 254.983245 
L 160.051276 256.178717 
L 160.666478 256.178717 
L 160.707491 257.374189 
L 161.470342 258.56966 
L 161.478545 259.765132 
L 162.610517 260.960604 
L 163.209314 262.156075 
L 164.128016 263.351547 
L 164.144421 264.547019 
L 164.41511 265.742491 
L 164.480732 265.742491 
L 165.177961 266.937962 
L 165.186164 268.133434 
L 165.218975 269.328906 
L 165.41584 270.524377 
L 166.966149 270.524377 
L 167.130203 270.524377 
L 168.434432 270.524377 
L 169.27931 271.719849 
L 169.320323 272.915321 
L 171.420214 272.915321 
L 171.6827 274.110792 
L 171.887767 275.306264 
L 172.691632 276.501736 
L 177.342561 277.697208 
L 178.654993 278.892679 
L 179.959221 280.088151 
L 180.024843 281.283623 
L 183.076246 281.283623 
L 184.019556 282.479094 
L 184.109786 283.674566 
L 185.225353 284.870038 
L 186.37373 284.870038 
L 187.538513 284.870038 
L 189.490755 286.065509 
L 191.951564 286.065509 
L 192.845658 286.065509 
L 192.870266 287.260981 
L 193.846387 288.456453 
L 195.486927 289.651925 
L 198.259438 289.651925 
L 199.079708 289.651925 
L 199.653897 290.847396 
L 205.362974 290.847396 
L 205.535231 292.042868 
L 207.823783 293.23834 
L 214.541792 294.433811 
L 214.574603 294.433811 
L 217.330709 295.629283 
L 218.011533 296.824755 
L 219.971977 296.824755 
L 221.095747 296.824755 
L 224.647515 296.824755 
L 230.619078 298.020226 
L 244.489839 299.215698 
L 245.498771 300.41117 
L 249.214592 300.41117 
L 249.5427 301.606642 
L 257.87664 302.802113 
L 281.877732 303.997585 
L 283.083528 303.997585 
L 283.091731 303.997585 
L 283.739744 305.193057 
L 292.049076 305.193057 
L 298.332342 305.193057 
L 298.717869 305.193057 
L 300.465043 305.193057 
L 301.236097 305.193057 
L 306.182323 305.193057 
L 323.736095 306.388528 
L 327.36989 307.584 
L 328.764348 307.584 
L 332.882102 307.584 
L 345.776742 307.584 
L 370.475062 307.584 
L 398.487273 307.584 
L 398.487273 306.388528 
L 398.487273 306.388528 
L 370.475062 305.193057 
L 345.776742 303.997585 
L 332.882102 302.802113 
L 328.764348 301.606642 
L 327.36989 300.41117 
L 323.736095 299.215698 
L 306.182323 298.020226 
L 301.236097 296.824755 
L 300.465043 295.629283 
L 298.717869 294.433811 
L 298.332342 293.23834 
L 292.049076 292.042868 
L 283.739744 290.847396 
L 283.091731 289.651925 
L 283.083528 288.456453 
L 281.877732 287.260981 
L 257.87664 286.065509 
L 249.5427 284.870038 
L 249.214592 283.674566 
L 245.498771 282.479094 
L 244.489839 281.283623 
L 230.619078 280.088151 
L 224.647515 278.892679 
L 221.095747 277.697208 
L 219.971977 276.501736 
L 218.011533 275.306264 
L 217.330709 274.110792 
L 214.574603 272.915321 
L 214.541792 271.719849 
L 207.823783 270.524377 
L 205.535231 269.328906 
L 205.362974 268.133434 
L 199.653897 266.937962 
L 199.079708 265.742491 
L 198.259438 264.547019 
L 195.486927 263.351547 
L 193.846387 262.156075 
L 192.870266 260.960604 
L 192.845658 259.765132 
L 191.951564 258.56966 
L 189.490755 257.374189 
L 187.538513 256.178717 
L 186.37373 254.983245 
L 185.225353 253.787774 
L 184.109786 252.592302 
L 184.019556 251.39683 
L 183.076246 250.201358 
L 180.024843 249.005887 
L 179.959221 247.810415 
L 178.654993 246.614943 
L 177.342561 245.419472 
L 172.691632 244.224 
L 171.887767 243.028528 
L 171.6827 241.833057 
L 171.420214 240.637585 
L 169.320323 239.442113 
L 169.27931 238.246642 
L 168.434432 237.05117 
L 167.130203 235.855698 
L 166.966149 234.660226 
L 165.41584 233.464755 
L 165.218975 232.269283 
L 165.186164 231.073811 
L 165.177961 229.87834 
L 164.480732 228.682868 
L 164.41511 227.487396 
L 164.144421 226.291925 
L 164.128016 225.096453 
L 163.209314 223.900981 
L 162.610517 222.705509 
L 161.478545 221.510038 
L 161.470342 220.314566 
L 160.707491 219.119094 
L 160.666478 217.923623 
L 160.051276 216.728151 
L 159.796992 215.532679 
L 156.089373 214.337208 
L 155.457765 213.141736 
L 155.285509 211.946264 
L 154.990212 210.750792 
L 153.907456 209.555321 
L 152.652443 208.359849 
L 152.64424 207.164377 
L 150.552553 205.968906 
L 150.437715 204.773434 
L 149.63385 203.577962 
L 149.215513 202.382491 
L 149.166297 201.187019 
L 148.706946 199.991547 
L 148.616716 198.796075 
L 147.780041 197.600604 
L 146.984379 196.405132 
L 145.507894 195.20966 
L 145.261813 194.014189 
L 144.745043 192.818717 
L 144.138043 191.623245 
L 143.867354 190.427774 
L 142.645153 189.232302 
L 142.276031 188.03683 
L 141.833086 186.841358 
L 139.601952 185.645887 
L 139.519925 184.450415 
L 138.945736 183.254943 
L 138.478183 182.059472 
L 137.461048 180.864 
L 136.238846 180.864 
L 135.607239 179.668528 
L 135.377563 178.473057 
L 135.000239 177.277585 
L 134.713145 176.082113 
L 134.401442 174.886642 
L 134.261996 173.69117 
L 133.868267 172.495698 
L 133.835456 171.300226 
L 133.121821 170.104755 
L 132.260538 168.909283 
L 130.455945 167.713811 
L 129.807932 166.51834 
L 129.266554 165.322868 
L 129.1025 164.127396 
L 129.01227 162.931925 
L 128.864622 161.736453 
L 128.265825 160.540981 
L 127.962325 159.345509 
L 126.969799 158.150038 
L 124.369544 156.954566 
L 123.975814 155.759094 
L 123.655909 154.563623 
L 123.50826 153.368151 
L 123.311396 152.172679 
L 123.221166 150.977208 
L 123.196558 149.781736 
L 121.900532 148.586264 
L 120.383033 147.390792 
L 119.185439 146.195321 
L 118.816318 144.999849 
L 118.422588 143.804377 
L 118.020656 142.608906 
L 116.962508 141.413434 
L 116.576981 140.217962 
L 116.371914 139.022491 
L 114.813402 137.827019 
L 113.345119 136.631547 
L 113.115443 135.436075 
L 113.082633 134.240604 
L 111.803012 133.045132 
L 111.778404 131.84966 
L 111.630755 130.654189 
L 111.409282 129.458717 
L 111.319053 128.263245 
L 110.859702 127.067774 
L 110.219891 125.872302 
L 110.18708 124.67683 
L 109.768743 123.481358 
L 108.587555 122.285887 
L 108.161014 121.090415 
L 107.734474 119.894943 
L 107.644244 118.699472 
L 107.554015 117.504 
L 106.84038 116.308528 
L 105.872462 115.113057 
L 105.232651 113.917585 
L 105.16703 112.722113 
L 104.313949 111.526642 
L 100.138777 110.33117 
L 99.712236 109.135698 
L 99.646615 107.940226 
L 99.088831 106.744755 
L 98.727913 105.549283 
L 98.465426 104.353811 
L 98.342386 103.15834 
L 97.407279 101.962868 
L 96.980738 100.767396 
L 96.74286 99.571925 
L 96.504982 98.376453 
L 96.291712 97.180981 
L 96.267104 95.985509 
L 95.692915 94.790038 
L 95.471442 93.594566 
L 95.37301 92.399094 
L 95.077713 91.203623 
L 94.749605 90.008151 
L 94.716794 88.812679 
L 94.519929 87.617208 
L 94.101592 86.421736 
L 93.593024 85.226264 
L 93.363349 84.030792 
L 92.502066 82.835321 
L 92.469255 81.639849 
L 92.198566 80.444377 
L 91.878661 79.248906 
L 91.443918 78.053434 
L 91.197837 78.053434 
L 90.434986 76.857962 
L 89.901811 75.662491 
L 89.097946 74.467019 
L 88.228461 73.271547 
L 88.138231 72.076075 
L 86.760178 70.880604 
L 86.464881 69.685132 
L 86.087557 68.48966 
L 85.587192 67.294189 
L 83.077167 66.098717 
L 82.092843 66.098717 
L 81.945195 64.903245 
L 80.575344 63.707774 
L 79.533602 62.512302 
L 78.778954 61.31683 
L 77.950481 60.121358 
L 74.136227 60.121358 
L 73.832727 58.925887 
z
" clip-path="url(#p7f7a1987be)" style="fill: #7cfc00"/>
   </g>
   <g id="PolyCollection_3">
    <path d="M 73.832727 54.144 
L 73.832727 58.925887 
L 74.136227 60.121358 
L 77.950481 60.121358 
L 78.778954 61.31683 
L 79.533602 62.512302 
L 80.575344 63.707774 
L 81.945195 64.903245 
L 82.092843 66.098717 
L 83.077167 66.098717 
L 85.587192 67.294189 
L 86.087557 68.48966 
L 86.464881 69.685132 
L 86.760178 70.880604 
L 88.138231 72.076075 
L 88.228461 73.271547 
L 89.097946 74.467019 
L 89.901811 75.662491 
L 90.434986 76.857962 
L 91.197837 78.053434 
L 91.443918 78.053434 
L 91.878661 79.248906 
L 92.198566 80.444377 
L 92.469255 81.639849 
L 92.502066 82.835321 
L 93.363349 84.030792 
L 93.593024 85.226264 
L 94.101592 86.421736 
L 94.519929 87.617208 
L 94.716794 88.812679 
L 94.749605 90.008151 
L 95.077713 91.203623 
L 95.37301 92.399094 
L 95.471442 93.594566 
L 95.692915 94.790038 
L 96.267104 95.985509 
L 96.291712 97.180981 
L 96.504982 98.376453 
L 96.74286 99.571925 
L 96.980738 100.767396 
L 97.407279 101.962868 
L 98.342386 103.15834 
L 98.465426 104.353811 
L 98.727913 105.549283 
L 99.088831 106.744755 
L 99.646615 107.940226 
L 99.712236 109.135698 
L 100.138777 110.33117 
L 104.313949 111.526642 
L 105.16703 112.722113 
L 105.232651 113.917585 
L 105.872462 115.113057 
L 106.84038 116.308528 
L 107.554015 117.504 
L 107.644244 118.699472 
L 107.734474 119.894943 
L 108.161014 121.090415 
L 108.587555 122.285887 
L 109.768743 123.481358 
L 110.18708 124.67683 
L 110.219891 125.872302 
L 110.859702 127.067774 
L 111.319053 128.263245 
L 111.409282 129.458717 
L 111.630755 130.654189 
L 111.778404 131.84966 
L 111.803012 133.045132 
L 113.082633 134.240604 
L 113.115443 135.436075 
L 113.345119 136.631547 
L 114.813402 137.827019 
L 116.371914 139.022491 
L 116.576981 140.217962 
L 116.962508 141.413434 
L 118.020656 142.608906 
L 118.422588 143.804377 
L 118.816318 144.999849 
L 119.185439 146.195321 
L 120.383033 147.390792 
L 121.900532 148.586264 
L 123.196558 149.781736 
L 123.221166 150.977208 
L 123.311396 152.172679 
L 123.50826 153.368151 
L 123.655909 154.563623 
L 123.975814 155.759094 
L 124.369544 156.954566 
L 126.969799 158.150038 
L 127.962325 159.345509 
L 128.265825 160.540981 
L 128.864622 161.736453 
L 129.01227 162.931925 
L 129.1025 164.127396 
L 129.266554 165.322868 
L 129.807932 166.51834 
L 130.455945 167.713811 
L 132.260538 168.909283 
L 133.121821 170.104755 
L 133.835456 171.300226 
L 133.868267 172.495698 
L 134.261996 173.69117 
L 134.401442 174.886642 
L 134.713145 176.082113 
L 135.000239 177.277585 
L 135.377563 178.473057 
L 135.607239 179.668528 
L 136.238846 180.864 
L 137.461048 180.864 
L 138.478183 182.059472 
L 138.945736 183.254943 
L 139.519925 184.450415 
L 139.601952 185.645887 
L 141.833086 186.841358 
L 142.276031 188.03683 
L 142.645153 189.232302 
L 143.867354 190.427774 
L 144.138043 191.623245 
L 144.745043 192.818717 
L 145.261813 194.014189 
L 145.507894 195.20966 
L 146.984379 196.405132 
L 147.780041 197.600604 
L 148.616716 198.796075 
L 148.706946 199.991547 
L 149.166297 201.187019 
L 149.215513 202.382491 
L 149.63385 203.577962 
L 150.437715 204.773434 
L 150.552553 205.968906 
L 152.64424 207.164377 
L 152.652443 208.359849 
L 153.907456 209.555321 
L 154.990212 210.750792 
L 155.285509 211.946264 
L 155.457765 213.141736 
L 156.089373 214.337208 
L 159.796992 215.532679 
L 160.051276 216.728151 
L 160.666478 217.923623 
L 160.707491 219.119094 
L 161.470342 220.314566 
L 161.478545 221.510038 
L 162.610517 222.705509 
L 163.209314 223.900981 
L 164.128016 225.096453 
L 164.144421 226.291925 
L 164.41511 227.487396 
L 164.480732 228.682868 
L 165.177961 229.87834 
L 165.186164 231.073811 
L 165.218975 232.269283 
L 165.41584 233.464755 
L 166.966149 234.660226 
L 167.130203 235.855698 
L 168.434432 237.05117 
L 169.27931 238.246642 
L 169.320323 239.442113 
L 171.420214 240.637585 
L 171.6827 241.833057 
L 171.887767 243.028528 
L 172.691632 244.224 
L 177.342561 245.419472 
L 178.654993 246.614943 
L 179.959221 247.810415 
L 180.024843 249.005887 
L 183.076246 250.201358 
L 184.019556 251.39683 
L 184.109786 252.592302 
L 185.225353 253.787774 
L 186.37373 254.983245 
L 187.538513 256.178717 
L 189.490755 257.374189 
L 191.951564 258.56966 
L 192.845658 259.765132 
L 192.870266 260.960604 
L 193.846387 262.156075 
L 195.486927 263.351547 
L 198.259438 264.547019 
L 199.079708 265.742491 
L 199.653897 266.937962 
L 205.362974 268.133434 
L 205.535231 269.328906 
L 207.823783 270.524377 
L 214.541792 271.719849 
L 214.574603 272.915321 
L 217.330709 274.110792 
L 218.011533 275.306264 
L 219.971977 276.501736 
L 221.095747 277.697208 
L 224.647515 278.892679 
L 230.619078 280.088151 
L 244.489839 281.283623 
L 245.498771 282.479094 
L 249.214592 283.674566 
L 249.5427 284.870038 
L 257.87664 286.065509 
L 281.877732 287.260981 
L 283.083528 288.456453 
L 283.091731 289.651925 
L 283.739744 290.847396 
L 292.049076 292.042868 
L 298.332342 293.23834 
L 298.717869 294.433811 
L 300.465043 295.629283 
L 301.236097 296.824755 
L 306.182323 298.020226 
L 323.736095 299.215698 
L 327.36989 300.41117 
L 328.764348 301.606642 
L 332.882102 302.802113 
L 345.776742 303.997585 
L 370.475062 305.193057 
L 398.487273 306.388528 
L 398.487273 306.388528 
L 398.487273 306.388528 
L 370.475062 305.193057 
L 345.776742 303.997585 
L 332.882102 302.802113 
L 328.764348 301.606642 
L 327.36989 300.41117 
L 323.736095 299.215698 
L 306.182323 298.020226 
L 301.236097 296.824755 
L 300.465043 295.629283 
L 298.717869 294.433811 
L 298.332342 293.23834 
L 292.049076 292.042868 
L 283.739744 290.847396 
L 283.091731 289.651925 
L 283.083528 288.456453 
L 281.877732 287.260981 
L 257.87664 286.065509 
L 249.5427 284.870038 
L 249.214592 283.674566 
L 245.498771 282.479094 
L 244.489839 281.283623 
L 230.619078 280.088151 
L 224.647515 278.892679 
L 221.095747 277.697208 
L 219.971977 276.501736 
L 218.011533 275.306264 
L 217.330709 274.110792 
L 214.574603 272.915321 
L 214.541792 271.719849 
L 207.823783 270.524377 
L 205.535231 269.328906 
L 205.362974 268.133434 
L 199.653897 266.937962 
L 199.079708 265.742491 
L 198.259438 264.547019 
L 195.486927 263.351547 
L 193.846387 262.156075 
L 192.870266 260.960604 
L 192.845658 259.765132 
L 191.951564 258.56966 
L 189.490755 257.374189 
L 187.538513 256.178717 
L 186.37373 254.983245 
L 185.225353 253.787774 
L 184.109786 252.592302 
L 184.019556 251.39683 
L 183.076246 250.201358 
L 180.024843 249.005887 
L 179.959221 247.810415 
L 178.654993 246.614943 
L 177.342561 245.419472 
L 172.691632 244.224 
L 171.887767 243.028528 
L 171.6827 241.833057 
L 171.420214 240.637585 
L 169.320323 239.442113 
L 169.27931 238.246642 
L 168.434432 237.05117 
L 167.130203 235.855698 
L 166.966149 234.660226 
L 165.41584 233.464755 
L 165.218975 232.269283 
L 165.186164 231.073811 
L 165.177961 229.87834 
L 164.480732 228.682868 
L 164.41511 227.487396 
L 164.144421 226.291925 
L 164.128016 225.096453 
L 163.209314 223.900981 
L 162.610517 222.705509 
L 161.478545 221.510038 
L 161.470342 220.314566 
L 160.707491 219.119094 
L 160.666478 217.923623 
L 160.051276 216.728151 
L 159.796992 215.532679 
L 156.089373 214.337208 
L 155.457765 213.141736 
L 155.285509 211.946264 
L 154.990212 210.750792 
L 153.907456 209.555321 
L 152.652443 208.359849 
L 152.64424 207.164377 
L 150.552553 205.968906 
L 150.437715 204.773434 
L 149.63385 203.577962 
L 149.215513 202.382491 
L 149.166297 201.187019 
L 148.706946 199.991547 
L 148.616716 198.796075 
L 147.780041 197.600604 
L 146.984379 196.405132 
L 145.507894 195.20966 
L 145.261813 194.014189 
L 144.745043 192.818717 
L 144.138043 191.623245 
L 143.867354 190.427774 
L 142.645153 189.232302 
L 142.276031 188.03683 
L 141.833086 186.841358 
L 139.601952 185.645887 
L 139.519925 184.450415 
L 138.945736 183.254943 
L 138.478183 182.059472 
L 137.461048 180.864 
L 136.238846 179.668528 
L 135.607239 178.473057 
L 135.377563 177.277585 
L 135.000239 176.082113 
L 134.713145 174.886642 
L 134.401442 173.69117 
L 134.261996 172.495698 
L 133.868267 171.300226 
L 133.835456 170.104755 
L 133.121821 168.909283 
L 132.260538 167.713811 
L 130.455945 166.51834 
L 129.807932 165.322868 
L 129.266554 164.127396 
L 129.1025 162.931925 
L 129.01227 161.736453 
L 128.864622 160.540981 
L 128.265825 159.345509 
L 127.962325 158.150038 
L 126.969799 156.954566 
L 124.369544 155.759094 
L 123.975814 154.563623 
L 123.655909 153.368151 
L 123.50826 152.172679 
L 123.311396 150.977208 
L 123.221166 149.781736 
L 123.196558 148.586264 
L 121.900532 147.390792 
L 120.383033 146.195321 
L 119.185439 144.999849 
L 118.816318 143.804377 
L 118.422588 142.608906 
L 118.020656 141.413434 
L 116.962508 140.217962 
L 116.576981 139.022491 
L 116.371914 137.827019 
L 114.813402 136.631547 
L 113.345119 135.436075 
L 113.115443 134.240604 
L 113.082633 133.045132 
L 111.803012 131.84966 
L 111.778404 130.654189 
L 111.630755 129.458717 
L 111.409282 128.263245 
L 111.319053 127.067774 
L 110.859702 125.872302 
L 110.219891 124.67683 
L 110.18708 123.481358 
L 109.768743 122.285887 
L 108.587555 121.090415 
L 108.161014 119.894943 
L 107.734474 118.699472 
L 107.644244 117.504 
L 107.554015 116.308528 
L 106.84038 115.113057 
L 105.872462 113.917585 
L 105.232651 112.722113 
L 105.16703 111.526642 
L 104.313949 110.33117 
L 100.138777 109.135698 
L 99.712236 107.940226 
L 99.646615 106.744755 
L 99.088831 105.549283 
L 98.727913 104.353811 
L 98.465426 103.15834 
L 98.342386 101.962868 
L 97.407279 100.767396 
L 96.980738 99.571925 
L 96.74286 98.376453 
L 96.504982 97.180981 
L 96.291712 95.985509 
L 96.267104 94.790038 
L 95.692915 93.594566 
L 95.471442 92.399094 
L 95.37301 91.203623 
L 95.077713 90.008151 
L 94.749605 88.812679 
L 94.716794 87.617208 
L 94.519929 86.421736 
L 94.101592 85.226264 
L 93.593024 84.030792 
L 93.363349 82.835321 
L 92.502066 81.639849 
L 92.469255 80.444377 
L 92.198566 79.248906 
L 91.878661 78.053434 
L 91.443918 76.857962 
L 91.197837 75.662491 
L 90.434986 74.467019 
L 89.901811 73.271547 
L 89.097946 72.076075 
L 88.228461 70.880604 
L 88.138231 69.685132 
L 86.760178 68.48966 
L 86.464881 67.294189 
L 86.087557 66.098717 
L 85.587192 64.903245 
L 83.077167 63.707774 
L 82.092843 62.512302 
L 81.945195 61.31683 
L 80.575344 60.121358 
L 79.533602 58.925887 
L 78.778954 57.730415 
L 77.950481 56.534943 
L 74.136227 55.339472 
L 73.832727 54.144 
z
" clip-path="url(#p7f7a1987be)" style="fill: #ff0000"/>
   </g>
   <g id="matplotlib.axis_1">
    <g id="xtick_1">
     <g id="line2d_1">
      <defs>
       <path id="m3d454a161e" d="M 0 0 
L 0 3.5 
" style="stroke: #000000; stroke-width: 0.8"/>
      </defs>
      <g>
       <use xlink:href="#m3d454a161e" x="61.241587" y="307.584" style="stroke: #000000; stroke-width: 0.8"/>
      </g>
     </g>
     <g id="text_1">
      <!-- 50 -->
      <g transform="translate(54.879087 322.182437) scale(0.1 -0.1)">
       <defs>
        <path id="DejaVuSans-35" d="M 691 4666 
L 3169 4666 
L 3169 4134 
L 1269 4134 
L 1269 2991 
Q 1406 3038 1543 3061 
Q 1681 3084 1819 3084 
Q 2600 3084 3056 2656 
Q 3513 2228 3513 1497 
Q 3513 744 3044 326 
Q 2575 -91 1722 -91 
Q 1428 -91 1123 -41 
Q 819 9 494 109 
L 494 744 
Q 775 591 1075 516 
Q 1375 441 1709 441 
Q 2250 441 2565 725 
Q 2881 1009 2881 1497 
Q 2881 1984 2565 2268 
Q 2250 2553 1709 2553 
Q 1456 2553 1204 2497 
Q 953 2441 691 2322 
L 691 4666 
z
" transform="scale(0.015625)"/>
        <path id="DejaVuSans-30" d="M 2034 4250 
Q 1547 4250 1301 3770 
Q 1056 3291 1056 2328 
Q 1056 1369 1301 889 
Q 1547 409 2034 409 
Q 2525 409 2770 889 
Q 3016 1369 3016 2328 
Q 3016 3291 2770 3770 
Q 2525 4250 2034 4250 
z
M 2034 4750 
Q 2819 4750 3233 4129 
Q 3647 3509 3647 2328 
Q 3647 1150 3233 529 
Q 2819 -91 2034 -91 
Q 1250 -91 836 529 
Q 422 1150 422 2328 
Q 422 3509 836 4129 
Q 1250 4750 2034 4750 
z
" transform="scale(0.015625)"/>
       </defs>
       <use xlink:href="#DejaVuSans-35"/>
       <use xlink:href="#DejaVuSans-30" x="63.623047"/>
      </g>
     </g>
    </g>
    <g id="xtick_2">
     <g id="line2d_2">
      <g>
       <use xlink:href="#m3d454a161e" x="102.255072" y="307.584" style="stroke: #000000; stroke-width: 0.8"/>
      </g>
     </g>
     <g id="text_2">
      <!-- 100 -->
      <g transform="translate(92.711322 322.182437) scale(0.1 -0.1)">
       <defs>
        <path id="DejaVuSans-31" d="M 794 531 
L 1825 531 
L 1825 4091 
L 703 3866 
L 703 4441 
L 1819 4666 
L 2450 4666 
L 2450 531 
L 3481 531 
L 3481 0 
L 794 0 
L 794 531 
z
" transform="scale(0.015625)"/>
       </defs>
       <use xlink:href="#DejaVuSans-31"/>
       <use xlink:href="#DejaVuSans-30" x="63.623047"/>
       <use xlink:href="#DejaVuSans-30" x="127.246094"/>
      </g>
     </g>
    </g>
    <g id="xtick_3">
     <g id="line2d_3">
      <g>
       <use xlink:href="#m3d454a161e" x="143.268558" y="307.584" style="stroke: #000000; stroke-width: 0.8"/>
      </g>
     </g>
     <g id="text_3">
      <!-- 150 -->
      <g transform="translate(133.724808 322.182437) scale(0.1 -0.1)">
       <use xlink:href="#DejaVuSans-31"/>
       <use xlink:href="#DejaVuSans-35" x="63.623047"/>
       <use xlink:href="#DejaVuSans-30" x="127.246094"/>
      </g>
     </g>
    </g>
    <g id="xtick_4">
     <g id="line2d_4">
      <g>
       <use xlink:href="#m3d454a161e" x="184.282043" y="307.584" style="stroke: #000000; stroke-width: 0.8"/>
      </g>
     </g>
     <g id="text_4">
      <!-- 200 -->
      <g transform="translate(174.738293 322.182437) scale(0.1 -0.1)">
       <defs>
        <path id="DejaVuSans-32" d="M 1228 531 
L 3431 531 
L 3431 0 
L 469 0 
L 469 531 
Q 828 903 1448 1529 
Q 2069 2156 2228 2338 
Q 2531 2678 2651 2914 
Q 2772 3150 2772 3378 
Q 2772 3750 2511 3984 
Q 2250 4219 1831 4219 
Q 1534 4219 1204 4116 
Q 875 4013 500 3803 
L 500 4441 
Q 881 4594 1212 4672 
Q 1544 4750 1819 4750 
Q 2544 4750 2975 4387 
Q 3406 4025 3406 3419 
Q 3406 3131 3298 2873 
Q 3191 2616 2906 2266 
Q 2828 2175 2409 1742 
Q 1991 1309 1228 531 
z
" transform="scale(0.015625)"/>
       </defs>
       <use xlink:href="#DejaVuSans-32"/>
       <use xlink:href="#DejaVuSans-30" x="63.623047"/>
       <use xlink:href="#DejaVuSans-30" x="127.246094"/>
      </g>
     </g>
    </g>
    <g id="xtick_5">
     <g id="line2d_5">
      <g>
       <use xlink:href="#m3d454a161e" x="225.295528" y="307.584" style="stroke: #000000; stroke-width: 0.8"/>
      </g>
     </g>
     <g id="text_5">
      <!-- 250 -->
      <g transform="translate(215.751778 322.182437) scale(0.1 -0.1)">
       <use xlink:href="#DejaVuSans-32"/>
       <use xlink:href="#DejaVuSans-35" x="63.623047"/>
       <use xlink:href="#DejaVuSans-30" x="127.246094"/>
      </g>
     </g>
    </g>
    <g id="xtick_6">
     <g id="line2d_6">
      <g>
       <use xlink:href="#m3d454a161e" x="266.309013" y="307.584" style="stroke: #000000; stroke-width: 0.8"/>
      </g>
     </g>
     <g id="text_6">
      <!-- 300 -->
      <g transform="translate(256.765263 322.182437) scale(0.1 -0.1)">
       <defs>
        <path id="DejaVuSans-33" d="M 2597 2516 
Q 3050 2419 3304 2112 
Q 3559 1806 3559 1356 
Q 3559 666 3084 287 
Q 2609 -91 1734 -91 
Q 1441 -91 1130 -33 
Q 819 25 488 141 
L 488 750 
Q 750 597 1062 519 
Q 1375 441 1716 441 
Q 2309 441 2620 675 
Q 2931 909 2931 1356 
Q 2931 1769 2642 2001 
Q 2353 2234 1838 2234 
L 1294 2234 
L 1294 2753 
L 1863 2753 
Q 2328 2753 2575 2939 
Q 2822 3125 2822 3475 
Q 2822 3834 2567 4026 
Q 2313 4219 1838 4219 
Q 1578 4219 1281 4162 
Q 984 4106 628 3988 
L 628 4550 
Q 988 4650 1302 4700 
Q 1616 4750 1894 4750 
Q 2613 4750 3031 4423 
Q 3450 4097 3450 3541 
Q 3450 3153 3228 2886 
Q 3006 2619 2597 2516 
z
" transform="scale(0.015625)"/>
       </defs>
       <use xlink:href="#DejaVuSans-33"/>
       <use xlink:href="#DejaVuSans-30" x="63.623047"/>
       <use xlink:href="#DejaVuSans-30" x="127.246094"/>
      </g>
     </g>
    </g>
    <g id="xtick_7">
     <g id="line2d_7">
      <g>
       <use xlink:href="#m3d454a161e" x="307.322498" y="307.584" style="stroke: #000000; stroke-width: 0.8"/>
      </g>
     </g>
     <g id="text_7">
      <!-- 350 -->
      <g transform="translate(297.778748 322.182437) scale(0.1 -0.1)">
       <use xlink:href="#DejaVuSans-33"/>
       <use xlink:href="#DejaVuSans-35" x="63.623047"/>
       <use xlink:href="#DejaVuSans-30" x="127.246094"/>
      </g>
     </g>
    </g>
    <g id="xtick_8">
     <g id="line2d_8">
      <g>
       <use xlink:href="#m3d454a161e" x="348.335983" y="307.584" style="stroke: #000000; stroke-width: 0.8"/>
      </g>
     </g>
     <g id="text_8">
      <!-- 400 -->
      <g transform="translate(338.792233 322.182437) scale(0.1 -0.1)">
       <defs>
        <path id="DejaVuSans-34" d="M 2419 4116 
L 825 1625 
L 2419 1625 
L 2419 4116 
z
M 2253 4666 
L 3047 4666 
L 3047 1625 
L 3713 1625 
L 3713 1100 
L 3047 1100 
L 3047 0 
L 2419 0 
L 2419 1100 
L 313 1100 
L 313 1709 
L 2253 4666 
z
" transform="scale(0.015625)"/>
       </defs>
       <use xlink:href="#DejaVuSans-34"/>
       <use xlink:href="#DejaVuSans-30" x="63.623047"/>
       <use xlink:href="#DejaVuSans-30" x="127.246094"/>
      </g>
     </g>
    </g>
    <g id="xtick_9">
     <g id="line2d_9">
      <g>
       <use xlink:href="#m3d454a161e" x="389.349468" y="307.584" style="stroke: #000000; stroke-width: 0.8"/>
      </g>
     </g>
     <g id="text_9">
      <!-- 450 -->
      <g transform="translate(379.805718 322.182437) scale(0.1 -0.1)">
       <use xlink:href="#DejaVuSans-34"/>
       <use xlink:href="#DejaVuSans-35" x="63.623047"/>
       <use xlink:href="#DejaVuSans-30" x="127.246094"/>
      </g>
     </g>
    </g>
    <g id="text_10">
     <!-- Score -->
     <g transform="translate(222.157656 335.860562) scale(0.1 -0.1)">
      <defs>
       <path id="DejaVuSans-53" d="M 3425 4513 
L 3425 3897 
Q 3066 4069 2747 4153 
Q 2428 4238 2131 4238 
Q 1616 4238 1336 4038 
Q 1056 3838 1056 3469 
Q 1056 3159 1242 3001 
Q 1428 2844 1947 2747 
L 2328 2669 
Q 3034 2534 3370 2195 
Q 3706 1856 3706 1288 
Q 3706 609 3251 259 
Q 2797 -91 1919 -91 
Q 1588 -91 1214 -16 
Q 841 59 441 206 
L 441 856 
Q 825 641 1194 531 
Q 1563 422 1919 422 
Q 2459 422 2753 634 
Q 3047 847 3047 1241 
Q 3047 1584 2836 1778 
Q 2625 1972 2144 2069 
L 1759 2144 
Q 1053 2284 737 2584 
Q 422 2884 422 3419 
Q 422 4038 858 4394 
Q 1294 4750 2059 4750 
Q 2388 4750 2728 4690 
Q 3069 4631 3425 4513 
z
" transform="scale(0.015625)"/>
       <path id="DejaVuSans-63" d="M 3122 3366 
L 3122 2828 
Q 2878 2963 2633 3030 
Q 2388 3097 2138 3097 
Q 1578 3097 1268 2742 
Q 959 2388 959 1747 
Q 959 1106 1268 751 
Q 1578 397 2138 397 
Q 2388 397 2633 464 
Q 2878 531 3122 666 
L 3122 134 
Q 2881 22 2623 -34 
Q 2366 -91 2075 -91 
Q 1284 -91 818 406 
Q 353 903 353 1747 
Q 353 2603 823 3093 
Q 1294 3584 2113 3584 
Q 2378 3584 2631 3529 
Q 2884 3475 3122 3366 
z
" transform="scale(0.015625)"/>
       <path id="DejaVuSans-6f" d="M 1959 3097 
Q 1497 3097 1228 2736 
Q 959 2375 959 1747 
Q 959 1119 1226 758 
Q 1494 397 1959 397 
Q 2419 397 2687 759 
Q 2956 1122 2956 1747 
Q 2956 2369 2687 2733 
Q 2419 3097 1959 3097 
z
M 1959 3584 
Q 2709 3584 3137 3096 
Q 3566 2609 3566 1747 
Q 3566 888 3137 398 
Q 2709 -91 1959 -91 
Q 1206 -91 779 398 
Q 353 888 353 1747 
Q 353 2609 779 3096 
Q 1206 3584 1959 3584 
z
" transform="scale(0.015625)"/>
       <path id="DejaVuSans-72" d="M 2631 2963 
Q 2534 3019 2420 3045 
Q 2306 3072 2169 3072 
Q 1681 3072 1420 2755 
Q 1159 2438 1159 1844 
L 1159 0 
L 581 0 
L 581 3500 
L 1159 3500 
L 1159 2956 
Q 1341 3275 1631 3429 
Q 1922 3584 2338 3584 
Q 2397 3584 2469 3576 
Q 2541 3569 2628 3553 
L 2631 2963 
z
" transform="scale(0.015625)"/>
       <path id="DejaVuSans-65" d="M 3597 1894 
L 3597 1613 
L 953 1613 
Q 991 1019 1311 708 
Q 1631 397 2203 397 
Q 2534 397 2845 478 
Q 3156 559 3463 722 
L 3463 178 
Q 3153 47 2828 -22 
Q 2503 -91 2169 -91 
Q 1331 -91 842 396 
Q 353 884 353 1716 
Q 353 2575 817 3079 
Q 1281 3584 2069 3584 
Q 2775 3584 3186 3129 
Q 3597 2675 3597 1894 
z
M 3022 2063 
Q 3016 2534 2758 2815 
Q 2500 3097 2075 3097 
Q 1594 3097 1305 2825 
Q 1016 2553 972 2059 
L 3022 2063 
z
" transform="scale(0.015625)"/>
      </defs>
      <use xlink:href="#DejaVuSans-53"/>
      <use xlink:href="#DejaVuSans-63" x="63.476562"/>
      <use xlink:href="#DejaVuSans-6f" x="118.457031"/>
      <use xlink:href="#DejaVuSans-72" x="179.638672"/>
      <use xlink:href="#DejaVuSans-65" x="218.501953"/>
     </g>
    </g>
   </g>
   <g id="matplotlib.axis_2">
    <g id="ytick_1">
     <g id="line2d_10">
      <defs>
       <path id="m4c6de48f53" d="M 0 0 
L -3.5 0 
" style="stroke: #000000; stroke-width: 0.8"/>
      </defs>
      <g>
       <use xlink:href="#m4c6de48f53" x="57.6" y="307.584" style="stroke: #000000; stroke-width: 0.8"/>
      </g>
     </g>
     <g id="text_11">
      <!-- 0 -->
      <g transform="translate(44.2375 311.383219) scale(0.1 -0.1)">
       <use xlink:href="#DejaVuSans-30"/>
      </g>
     </g>
    </g>
    <g id="ytick_2">
     <g id="line2d_11">
      <g>
       <use xlink:href="#m4c6de48f53" x="57.6" y="277.697208" style="stroke: #000000; stroke-width: 0.8"/>
      </g>
     </g>
     <g id="text_12">
      <!-- 25 -->
      <g transform="translate(37.875 281.496426) scale(0.1 -0.1)">
       <use xlink:href="#DejaVuSans-32"/>
       <use xlink:href="#DejaVuSans-35" x="63.623047"/>
      </g>
     </g>
    </g>
    <g id="ytick_3">
     <g id="line2d_12">
      <g>
       <use xlink:href="#m4c6de48f53" x="57.6" y="247.810415" style="stroke: #000000; stroke-width: 0.8"/>
      </g>
     </g>
     <g id="text_13">
      <!-- 50 -->
      <g transform="translate(37.875 251.609634) scale(0.1 -0.1)">
       <use xlink:href="#DejaVuSans-35"/>
       <use xlink:href="#DejaVuSans-30" x="63.623047"/>
      </g>
     </g>
    </g>
    <g id="ytick_4">
     <g id="line2d_13">
      <g>
       <use xlink:href="#m4c6de48f53" x="57.6" y="217.923623" style="stroke: #000000; stroke-width: 0.8"/>
      </g>
     </g>
     <g id="text_14">
      <!-- 75 -->
      <g transform="translate(37.875 221.722841) scale(0.1 -0.1)">
       <defs>
        <path id="DejaVuSans-37" d="M 525 4666 
L 3525 4666 
L 3525 4397 
L 1831 0 
L 1172 0 
L 2766 4134 
L 525 4134 
L 525 4666 
z
" transform="scale(0.015625)"/>
       </defs>
       <use xlink:href="#DejaVuSans-37"/>
       <use xlink:href="#DejaVuSans-35" x="63.623047"/>
      </g>
     </g>
    </g>
    <g id="ytick_5">
     <g id="line2d_14">
      <g>
       <use xlink:href="#m4c6de48f53" x="57.6" y="188.03683" style="stroke: #000000; stroke-width: 0.8"/>
      </g>
     </g>
     <g id="text_15">
      <!-- 100 -->
      <g transform="translate(31.5125 191.836049) scale(0.1 -0.1)">
       <use xlink:href="#DejaVuSans-31"/>
       <use xlink:href="#DejaVuSans-30" x="63.623047"/>
       <use xlink:href="#DejaVuSans-30" x="127.246094"/>
      </g>
     </g>
    </g>
    <g id="ytick_6">
     <g id="line2d_15">
      <g>
       <use xlink:href="#m4c6de48f53" x="57.6" y="158.150038" style="stroke: #000000; stroke-width: 0.8"/>
      </g>
     </g>
     <g id="text_16">
      <!-- 125 -->
      <g transform="translate(31.5125 161.949256) scale(0.1 -0.1)">
       <use xlink:href="#DejaVuSans-31"/>
       <use xlink:href="#DejaVuSans-32" x="63.623047"/>
       <use xlink:href="#DejaVuSans-35" x="127.246094"/>
      </g>
     </g>
    </g>
    <g id="ytick_7">
     <g id="line2d_16">
      <g>
       <use xlink:href="#m4c6de48f53" x="57.6" y="128.263245" style="stroke: #000000; stroke-width: 0.8"/>
      </g>
     </g>
     <g id="text_17">
      <!-- 150 -->
      <g transform="translate(31.5125 132.062464) scale(0.1 -0.1)">
       <use xlink:href="#DejaVuSans-31"/>
       <use xlink:href="#DejaVuSans-35" x="63.623047"/>
       <use xlink:href="#DejaVuSans-30" x="127.246094"/>
      </g>
     </g>
    </g>
    <g id="ytick_8">
     <g id="line2d_17">
      <g>
       <use xlink:href="#m4c6de48f53" x="57.6" y="98.376453" style="stroke: #000000; stroke-width: 0.8"/>
      </g>
     </g>
     <g id="text_18">
      <!-- 175 -->
      <g transform="translate(31.5125 102.175672) scale(0.1 -0.1)">
       <use xlink:href="#DejaVuSans-31"/>
       <use xlink:href="#DejaVuSans-37" x="63.623047"/>
       <use xlink:href="#DejaVuSans-35" x="127.246094"/>
      </g>
     </g>
    </g>
    <g id="ytick_9">
     <g id="line2d_18">
      <g>
       <use xlink:href="#m4c6de48f53" x="57.6" y="68.48966" style="stroke: #000000; stroke-width: 0.8"/>
      </g>
     </g>
     <g id="text_19">
      <!-- 200 -->
      <g transform="translate(31.5125 72.288879) scale(0.1 -0.1)">
       <use xlink:href="#DejaVuSans-32"/>
       <use xlink:href="#DejaVuSans-30" x="63.623047"/>
       <use xlink:href="#DejaVuSans-30" x="127.246094"/>
      </g>
     </g>
    </g>
    <g id="text_20">
     <!-- Number of crosslinks -->
     <g transform="translate(25.432812 227.019406) rotate(-90) scale(0.1 -0.1)">
      <defs>
       <path id="DejaVuSans-4e" d="M 628 4666 
L 1478 4666 
L 3547 763 
L 3547 4666 
L 4159 4666 
L 4159 0 
L 3309 0 
L 1241 3903 
L 1241 0 
L 628 0 
L 628 4666 
z
" transform="scale(0.015625)"/>
       <path id="DejaVuSans-75" d="M 544 1381 
L 544 3500 
L 1119 3500 
L 1119 1403 
Q 1119 906 1312 657 
Q 1506 409 1894 409 
Q 2359 409 2629 706 
Q 2900 1003 2900 1516 
L 2900 3500 
L 3475 3500 
L 3475 0 
L 2900 0 
L 2900 538 
Q 2691 219 2414 64 
Q 2138 -91 1772 -91 
Q 1169 -91 856 284 
Q 544 659 544 1381 
z
M 1991 3584 
L 1991 3584 
z
" transform="scale(0.015625)"/>
       <path id="DejaVuSans-6d" d="M 3328 2828 
Q 3544 3216 3844 3400 
Q 4144 3584 4550 3584 
Q 5097 3584 5394 3201 
Q 5691 2819 5691 2113 
L 5691 0 
L 5113 0 
L 5113 2094 
Q 5113 2597 4934 2840 
Q 4756 3084 4391 3084 
Q 3944 3084 3684 2787 
Q 3425 2491 3425 1978 
L 3425 0 
L 2847 0 
L 2847 2094 
Q 2847 2600 2669 2842 
Q 2491 3084 2119 3084 
Q 1678 3084 1418 2786 
Q 1159 2488 1159 1978 
L 1159 0 
L 581 0 
L 581 3500 
L 1159 3500 
L 1159 2956 
Q 1356 3278 1631 3431 
Q 1906 3584 2284 3584 
Q 2666 3584 2933 3390 
Q 3200 3197 3328 2828 
z
" transform="scale(0.015625)"/>
       <path id="DejaVuSans-62" d="M 3116 1747 
Q 3116 2381 2855 2742 
Q 2594 3103 2138 3103 
Q 1681 3103 1420 2742 
Q 1159 2381 1159 1747 
Q 1159 1113 1420 752 
Q 1681 391 2138 391 
Q 2594 391 2855 752 
Q 3116 1113 3116 1747 
z
M 1159 2969 
Q 1341 3281 1617 3432 
Q 1894 3584 2278 3584 
Q 2916 3584 3314 3078 
Q 3713 2572 3713 1747 
Q 3713 922 3314 415 
Q 2916 -91 2278 -91 
Q 1894 -91 1617 61 
Q 1341 213 1159 525 
L 1159 0 
L 581 0 
L 581 4863 
L 1159 4863 
L 1159 2969 
z
" transform="scale(0.015625)"/>
       <path id="DejaVuSans-20" transform="scale(0.015625)"/>
       <path id="DejaVuSans-66" d="M 2375 4863 
L 2375 4384 
L 1825 4384 
Q 1516 4384 1395 4259 
Q 1275 4134 1275 3809 
L 1275 3500 
L 2222 3500 
L 2222 3053 
L 1275 3053 
L 1275 0 
L 697 0 
L 697 3053 
L 147 3053 
L 147 3500 
L 697 3500 
L 697 3744 
Q 697 4328 969 4595 
Q 1241 4863 1831 4863 
L 2375 4863 
z
" transform="scale(0.015625)"/>
       <path id="DejaVuSans-73" d="M 2834 3397 
L 2834 2853 
Q 2591 2978 2328 3040 
Q 2066 3103 1784 3103 
Q 1356 3103 1142 2972 
Q 928 2841 928 2578 
Q 928 2378 1081 2264 
Q 1234 2150 1697 2047 
L 1894 2003 
Q 2506 1872 2764 1633 
Q 3022 1394 3022 966 
Q 3022 478 2636 193 
Q 2250 -91 1575 -91 
Q 1294 -91 989 -36 
Q 684 19 347 128 
L 347 722 
Q 666 556 975 473 
Q 1284 391 1588 391 
Q 1994 391 2212 530 
Q 2431 669 2431 922 
Q 2431 1156 2273 1281 
Q 2116 1406 1581 1522 
L 1381 1569 
Q 847 1681 609 1914 
Q 372 2147 372 2553 
Q 372 3047 722 3315 
Q 1072 3584 1716 3584 
Q 2034 3584 2315 3537 
Q 2597 3491 2834 3397 
z
" transform="scale(0.015625)"/>
       <path id="DejaVuSans-6c" d="M 603 4863 
L 1178 4863 
L 1178 0 
L 603 0 
L 603 4863 
z
" transform="scale(0.015625)"/>
       <path id="DejaVuSans-69" d="M 603 3500 
L 1178 3500 
L 1178 0 
L 603 0 
L 603 3500 
z
M 603 4863 
L 1178 4863 
L 1178 4134 
L 603 4134 
L 603 4863 
z
" transform="scale(0.015625)"/>
       <path id="DejaVuSans-6e" d="M 3513 2113 
L 3513 0 
L 2938 0 
L 2938 2094 
Q 2938 2591 2744 2837 
Q 2550 3084 2163 3084 
Q 1697 3084 1428 2787 
Q 1159 2491 1159 1978 
L 1159 0 
L 581 0 
L 581 3500 
L 1159 3500 
L 1159 2956 
Q 1366 3272 1645 3428 
Q 1925 3584 2291 3584 
Q 2894 3584 3203 3211 
Q 3513 2838 3513 2113 
z
" transform="scale(0.015625)"/>
       <path id="DejaVuSans-6b" d="M 581 4863 
L 1159 4863 
L 1159 1991 
L 2875 3500 
L 3609 3500 
L 1753 1863 
L 3688 0 
L 2938 0 
L 1159 1709 
L 1159 0 
L 581 0 
L 581 4863 
z
" transform="scale(0.015625)"/>
      </defs>
      <use xlink:href="#DejaVuSans-4e"/>
      <use xlink:href="#DejaVuSans-75" x="74.804688"/>
      <use xlink:href="#DejaVuSans-6d" x="138.183594"/>
      <use xlink:href="#DejaVuSans-62" x="235.595703"/>
      <use xlink:href="#DejaVuSans-65" x="299.072266"/>
      <use xlink:href="#DejaVuSans-72" x="360.595703"/>
      <use xlink:href="#DejaVuSans-20" x="401.708984"/>
      <use xlink:href="#DejaVuSans-6f" x="433.496094"/>
      <use xlink:href="#DejaVuSans-66" x="494.677734"/>
      <use xlink:href="#DejaVuSans-20" x="529.882812"/>
      <use xlink:href="#DejaVuSans-63" x="561.669922"/>
      <use xlink:href="#DejaVuSans-72" x="616.650391"/>
      <use xlink:href="#DejaVuSans-6f" x="655.513672"/>
      <use xlink:href="#DejaVuSans-73" x="716.695312"/>
      <use xlink:href="#DejaVuSans-73" x="768.794922"/>
      <use xlink:href="#DejaVuSans-6c" x="820.894531"/>
      <use xlink:href="#DejaVuSans-69" x="848.677734"/>
      <use xlink:href="#DejaVuSans-6e" x="876.460938"/>
      <use xlink:href="#DejaVuSans-6b" x="939.839844"/>
      <use xlink:href="#DejaVuSans-73" x="997.75"/>
     </g>
    </g>
   </g>
   <g id="patch_3">
    <path d="M 57.6 307.584 
L 57.6 41.472 
" style="fill: none; stroke: #000000; stroke-width: 0.8; stroke-linejoin: miter; stroke-linecap: square"/>
   </g>
   <g id="patch_4">
    <path d="M 414.72 307.584 
L 414.72 41.472 
" style="fill: none; stroke: #000000; stroke-width: 0.8; stroke-linejoin: miter; stroke-linecap: square"/>
   </g>
   <g id="patch_5">
    <path d="M 57.6 307.584 
L 414.72 307.584 
" style="fill: none; stroke: #000000; stroke-width: 0.8; stroke-linejoin: miter; stroke-linecap: square"/>
   </g>
   <g id="patch_6">
    <path d="M 57.6 41.472 
L 414.72 41.472 
" style="fill: none; stroke: #000000; stroke-width: 0.8; stroke-linejoin: miter; stroke-linecap: square"/>
   </g>
   <g id="legend_1">
    <g id="patch_7">
     <path d="M 293.087188 93.506375 
L 407.72 93.506375 
Q 409.72 93.506375 409.72 91.506375 
L 409.72 48.472 
Q 409.72 46.472 407.72 46.472 
L 293.087188 46.472 
Q 291.087188 46.472 291.087188 48.472 
L 291.087188 91.506375 
Q 291.087188 93.506375 293.087188 93.506375 
z
" style="fill: #ffffff; opacity: 0.8; stroke: #cccccc; stroke-linejoin: miter"/>
    </g>
    <g id="patch_8">
     <path d="M 295.087188 58.070438 
L 315.087188 58.070438 
L 315.087188 51.070438 
L 295.087188 51.070438 
z
" style="fill: #008000"/>
    </g>
    <g id="text_21">
     <!-- true -->
     <g transform="translate(323.087188 58.070438) scale(0.1 -0.1)">
      <defs>
       <path id="DejaVuSans-74" d="M 1172 4494 
L 1172 3500 
L 2356 3500 
L 2356 3053 
L 1172 3053 
L 1172 1153 
Q 1172 725 1289 603 
Q 1406 481 1766 481 
L 2356 481 
L 2356 0 
L 1766 0 
Q 1100 0 847 248 
Q 594 497 594 1153 
L 594 3053 
L 172 3053 
L 172 3500 
L 594 3500 
L 594 4494 
L 1172 4494 
z
" transform="scale(0.015625)"/>
      </defs>
      <use xlink:href="#DejaVuSans-74"/>
      <use xlink:href="#DejaVuSans-72" x="39.208984"/>
      <use xlink:href="#DejaVuSans-75" x="80.322266"/>
      <use xlink:href="#DejaVuSans-65" x="143.701172"/>
     </g>
    </g>
    <g id="patch_9">
     <path d="M 295.087188 72.748563 
L 315.087188 72.748563 
L 315.087188 65.748563 
L 295.087188 65.748563 
z
" style="fill: #7cfc00"/>
    </g>
    <g id="text_22">
     <!-- true homeotypic -->
     <g transform="translate(323.087188 72.748563) scale(0.1 -0.1)">
      <defs>
       <path id="DejaVuSans-68" d="M 3513 2113 
L 3513 0 
L 2938 0 
L 2938 2094 
Q 2938 2591 2744 2837 
Q 2550 3084 2163 3084 
Q 1697 3084 1428 2787 
Q 1159 2491 1159 1978 
L 1159 0 
L 581 0 
L 581 4863 
L 1159 4863 
L 1159 2956 
Q 1366 3272 1645 3428 
Q 1925 3584 2291 3584 
Q 2894 3584 3203 3211 
Q 3513 2838 3513 2113 
z
" transform="scale(0.015625)"/>
       <path id="DejaVuSans-79" d="M 2059 -325 
Q 1816 -950 1584 -1140 
Q 1353 -1331 966 -1331 
L 506 -1331 
L 506 -850 
L 844 -850 
Q 1081 -850 1212 -737 
Q 1344 -625 1503 -206 
L 1606 56 
L 191 3500 
L 800 3500 
L 1894 763 
L 2988 3500 
L 3597 3500 
L 2059 -325 
z
" transform="scale(0.015625)"/>
       <path id="DejaVuSans-70" d="M 1159 525 
L 1159 -1331 
L 581 -1331 
L 581 3500 
L 1159 3500 
L 1159 2969 
Q 1341 3281 1617 3432 
Q 1894 3584 2278 3584 
Q 2916 3584 3314 3078 
Q 3713 2572 3713 1747 
Q 3713 922 3314 415 
Q 2916 -91 2278 -91 
Q 1894 -91 1617 61 
Q 1341 213 1159 525 
z
M 3116 1747 
Q 3116 2381 2855 2742 
Q 2594 3103 2138 3103 
Q 1681 3103 1420 2742 
Q 1159 2381 1159 1747 
Q 1159 1113 1420 752 
Q 1681 391 2138 391 
Q 2594 391 2855 752 
Q 3116 1113 3116 1747 
z
" transform="scale(0.015625)"/>
      </defs>
      <use xlink:href="#DejaVuSans-74"/>
      <use xlink:href="#DejaVuSans-72" x="39.208984"/>
      <use xlink:href="#DejaVuSans-75" x="80.322266"/>
      <use xlink:href="#DejaVuSans-65" x="143.701172"/>
      <use xlink:href="#DejaVuSans-20" x="205.224609"/>
      <use xlink:href="#DejaVuSans-68" x="237.011719"/>
      <use xlink:href="#DejaVuSans-6f" x="300.390625"/>
      <use xlink:href="#DejaVuSans-6d" x="361.572266"/>
      <use xlink:href="#DejaVuSans-65" x="458.984375"/>
      <use xlink:href="#DejaVuSans-6f" x="520.507812"/>
      <use xlink:href="#DejaVuSans-74" x="581.689453"/>
      <use xlink:href="#DejaVuSans-79" x="620.898438"/>
      <use xlink:href="#DejaVuSans-70" x="680.078125"/>
      <use xlink:href="#DejaVuSans-69" x="743.554688"/>
      <use xlink:href="#DejaVuSans-63" x="771.337891"/>
     </g>
    </g>
    <g id="patch_10">
     <path d="M 295.087188 87.426688 
L 315.087188 87.426688 
L 315.087188 80.426688 
L 295.087188 80.426688 
z
" style="fill: #ff0000"/>
    </g>
    <g id="text_23">
     <!-- false -->
     <g transform="translate(323.087188 87.426688) scale(0.1 -0.1)">
      <defs>
       <path id="DejaVuSans-61" d="M 2194 1759 
Q 1497 1759 1228 1600 
Q 959 1441 959 1056 
Q 959 750 1161 570 
Q 1363 391 1709 391 
Q 2188 391 2477 730 
Q 2766 1069 2766 1631 
L 2766 1759 
L 2194 1759 
z
M 3341 1997 
L 3341 0 
L 2766 0 
L 2766 531 
Q 2569 213 2275 61 
Q 1981 -91 1556 -91 
Q 1019 -91 701 211 
Q 384 513 384 1019 
Q 384 1609 779 1909 
Q 1175 2209 1959 2209 
L 2766 2209 
L 2766 2266 
Q 2766 2663 2505 2880 
Q 2244 3097 1772 3097 
Q 1472 3097 1187 3025 
Q 903 2953 641 2809 
L 641 3341 
Q 956 3463 1253 3523 
Q 1550 3584 1831 3584 
Q 2591 3584 2966 3190 
Q 3341 2797 3341 1997 
z
" transform="scale(0.015625)"/>
      </defs>
      <use xlink:href="#DejaVuSans-66"/>
      <use xlink:href="#DejaVuSans-61" x="35.205078"/>
      <use xlink:href="#DejaVuSans-6c" x="96.484375"/>
      <use xlink:href="#DejaVuSans-73" x="124.267578"/>
      <use xlink:href="#DejaVuSans-65" x="176.367188"/>
     </g>
    </g>
   </g>
  </g>
 </g>
 <defs>
  <clipPath id="p7f7a1987be">
   <rect x="57.6" y="41.472" width="357.12" height="266.112"/>
  </clipPath>
 </defs>
</svg>
