<?xml version="1.0" encoding="utf-8" standalone="no"?>
<!DOCTYPE svg PUBLIC "-//W3C//DTD SVG 1.1//EN"
  "http://www.w3.org/Graphics/SVG/1.1/DTD/svg11.dtd">
<svg xmlns:xlink="http://www.w3.org/1999/xlink" width="460.8pt" height="345.6pt" viewBox="0 0 460.8 345.6" xmlns="http://www.w3.org/2000/svg" version="1.1">
 <metadata>
  <rdf:RDF xmlns:dc="http://purl.org/dc/elements/1.1/" xmlns:cc="http://creativecommons.org/ns#" xmlns:rdf="http://www.w3.org/1999/02/22-rdf-syntax-ns#">
   <cc:Work>
    <dc:type rdf:resource="http://purl.org/dc/dcmitype/StillImage"/>
    <dc:date>2024-06-28T19:07:26.653659</dc:date>
    <dc:format>image/svg+xml</dc:format>
    <dc:creator>
     <cc:Agent>
      <dc:title>Matplotlib v3.9.0, https://matplotlib.org/</dc:title>
     </cc:Agent>
    </dc:creator>
   </cc:Work>
  </rdf:RDF>
 </metadata>
 <defs>
  <style type="text/css">*{stroke-linejoin: round; stroke-linecap: butt}</style>
 </defs>
 <g id="figure_1">
  <g id="patch_1">
   <path d="M 0 345.6 
L 460.8 345.6 
L 460.8 0 
L 0 0 
z
" style="fill: #ffffff"/>
  </g>
  <g id="axes_1">
   <g id="patch_2">
    <path d="M 57.6 307.584 
L 414.72 307.584 
L 414.72 41.472 
L 57.6 41.472 
z
" style="fill: #ffffff"/>
   </g>
   <g id="PolyCollection_1">
    <path d="M 73.832727 101.077333 
L 73.832727 307.584 
L 74.13276 307.584 
L 75.539165 307.584 
L 75.820446 307.584 
L 77.114339 307.584 
L 77.639397 307.584 
L 82.271158 307.584 
L 82.664951 307.584 
L 85.459009 307.584 
L 89.265679 307.584 
L 89.922001 307.584 
L 90.597076 307.584 
L 91.347158 307.584 
L 91.853464 307.584 
L 91.984729 307.584 
L 94.53501 307.584 
L 95.960167 307.584 
L 101.567035 307.584 
L 102.992192 307.584 
L 104.979911 307.584 
L 105.092424 307.584 
L 105.373705 307.584 
L 105.711242 307.584 
L 106.78011 307.584 
L 108.336532 307.584 
L 111.093085 307.584 
L 111.505631 307.584 
L 112.293218 307.584 
L 114.093416 307.584 
L 115.349805 307.584 
L 118.800185 307.584 
L 119.250235 307.584 
L 119.925309 307.584 
L 120.956673 307.584 
L 122.063045 307.584 
L 123.244425 307.584 
L 123.525706 307.584 
L 123.600715 307.584 
L 123.619467 307.584 
L 126.169748 307.584 
L 128.813789 307.584 
L 131.007781 307.584 
L 131.645352 307.584 
L 134.701939 307.584 
L 134.739443 307.584 
L 136.483385 307.584 
L 142.746576 307.584 
L 144.209237 307.584 
L 145.953179 307.584 
L 146.065691 307.584 
L 147.32208 307.584 
L 147.697121 307.584 
L 148.597221 307.584 
L 149.459816 307.584 
L 150.097386 307.584 
L 152.460147 307.584 
L 153.060213 307.584 
L 153.416502 307.584 
L 154.916667 307.584 
L 156.435585 307.584 
L 157.766982 307.584 
L 158.892106 307.584 
L 159.098378 307.584 
L 159.510924 307.584 
L 160.242255 307.584 
L 163.655131 307.584 
L 164.480222 307.584 
L 164.667742 307.584 
L 165.436577 307.584 
L 165.830371 307.584 
L 166.205412 307.584 
L 166.786726 307.584 
L 167.949354 307.584 
L 168.380652 307.584 
L 169.899569 307.584 
L 173.837504 307.584 
L 175.300165 307.584 
L 176.312776 307.584 
L 178.713041 307.584 
L 184.263653 307.584 
L 184.376165 307.584 
L 184.469926 307.584 
L 184.713703 307.584 
L 186.701422 307.584 
L 187.714033 307.584 
L 188.445364 307.584 
L 188.95167 307.584 
L 193.808455 307.584 
L 195.046092 307.584 
L 195.308621 307.584 
L 196.921299 307.584 
L 197.74639 307.584 
L 199.396572 307.584 
L 200.071646 307.584 
L 200.315423 307.584 
L 201.271778 307.584 
L 203.934572 307.584 
L 206.222324 307.584 
L 209.072638 307.584 
L 212.110473 307.584 
L 212.16673 307.584 
L 215.860887 307.584 
L 215.898391 307.584 
L 215.973399 307.584 
L 220.942697 307.584 
L 222.742896 307.584 
L 222.7804 307.584 
L 224.036788 307.584 
L 229.718665 307.584 
L 230.168714 307.584 
L 233.262806 307.584 
L 238.307112 307.584 
L 245.020352 307.584 
L 247.36436 307.584 
L 249.202063 307.584 
L 250.833493 307.584 
L 251.17103 307.584 
L 254.958948 307.584 
L 257.621741 307.584 
L 263.903684 307.584 
L 274.47985 307.584 
L 280.180479 307.584 
L 283.518347 307.584 
L 292.988141 307.584 
L 333.323838 307.584 
L 334.861508 307.584 
L 349.263095 307.584 
L 349.48812 307.584 
L 353.501063 307.584 
L 355.601294 307.584 
L 360.964386 307.584 
L 376.941147 307.584 
L 378.066271 307.584 
L 390.105099 307.584 
L 398.487273 307.584 
L 398.487273 305.706667 
L 398.487273 305.706667 
L 390.105099 303.829333 
L 378.066271 303.829333 
L 376.941147 301.952 
L 360.964386 301.952 
L 355.601294 301.952 
L 353.501063 300.074667 
L 349.48812 298.197333 
L 349.263095 296.32 
L 334.861508 294.442667 
L 333.323838 292.565333 
L 292.988141 290.688 
L 283.518347 288.810667 
L 280.180479 288.810667 
L 274.47985 286.933333 
L 263.903684 285.056 
L 257.621741 283.178667 
L 254.958948 281.301333 
L 251.17103 279.424 
L 250.833493 277.546667 
L 249.202063 275.669333 
L 247.36436 273.792 
L 245.020352 271.914667 
L 238.307112 270.037333 
L 233.262806 268.16 
L 230.168714 266.282667 
L 229.718665 264.405333 
L 224.036788 262.528 
L 222.7804 260.650667 
L 222.742896 258.773333 
L 220.942697 258.773333 
L 215.973399 256.896 
L 215.898391 255.018667 
L 215.860887 253.141333 
L 212.16673 251.264 
L 212.110473 249.386667 
L 209.072638 247.509333 
L 206.222324 245.632 
L 203.934572 245.632 
L 201.271778 245.632 
L 200.315423 243.754667 
L 200.071646 241.877333 
L 199.396572 241.877333 
L 197.74639 240 
L 196.921299 238.122667 
L 195.308621 238.122667 
L 195.046092 236.245333 
L 193.808455 234.368 
L 188.95167 232.490667 
L 188.445364 232.490667 
L 187.714033 230.613333 
L 186.701422 228.736 
L 184.713703 226.858667 
L 184.469926 224.981333 
L 184.376165 223.104 
L 184.263653 221.226667 
L 178.713041 219.349333 
L 176.312776 217.472 
L 175.300165 215.594667 
L 173.837504 213.717333 
L 169.899569 211.84 
L 168.380652 209.962667 
L 167.949354 208.085333 
L 166.786726 206.208 
L 166.205412 206.208 
L 165.830371 204.330667 
L 165.436577 204.330667 
L 164.667742 202.453333 
L 164.480222 200.576 
L 163.655131 198.698667 
L 160.242255 198.698667 
L 159.510924 196.821333 
L 159.098378 194.944 
L 158.892106 193.066667 
L 157.766982 191.189333 
L 156.435585 189.312 
L 154.916667 187.434667 
L 153.416502 185.557333 
L 153.060213 183.68 
L 152.460147 181.802667 
L 150.097386 179.925333 
L 149.459816 178.048 
L 148.597221 176.170667 
L 147.697121 174.293333 
L 147.32208 172.416 
L 146.065691 172.416 
L 145.953179 170.538667 
L 144.209237 168.661333 
L 142.746576 166.784 
L 136.483385 166.784 
L 134.739443 164.906667 
L 134.701939 163.029333 
L 131.645352 163.029333 
L 131.007781 161.152 
L 128.813789 159.274667 
L 126.169748 157.397333 
L 123.619467 155.52 
L 123.600715 153.642667 
L 123.525706 151.765333 
L 123.244425 149.888 
L 122.063045 148.010667 
L 120.956673 146.133333 
L 119.925309 144.256 
L 119.250235 142.378667 
L 118.800185 140.501333 
L 115.349805 140.501333 
L 114.093416 138.624 
L 112.293218 136.746667 
L 111.505631 136.746667 
L 111.093085 134.869333 
L 108.336532 132.992 
L 106.78011 132.992 
L 105.711242 131.114667 
L 105.373705 131.114667 
L 105.092424 129.237333 
L 104.979911 127.36 
L 102.992192 127.36 
L 101.567035 125.482667 
L 95.960167 123.605333 
L 94.53501 123.605333 
L 91.984729 121.728 
L 91.853464 119.850667 
L 91.347158 117.973333 
L 90.597076 116.096 
L 89.922001 114.218667 
L 89.265679 112.341333 
L 85.459009 110.464 
L 82.664951 108.586667 
L 82.271158 108.586667 
L 77.639397 106.709333 
L 77.114339 104.832 
L 75.820446 102.954667 
L 75.539165 101.077333 
L 74.13276 101.077333 
L 73.832727 101.077333 
z
" clip-path="url(#pb5498f418b)" style="fill: #008000"/>
   </g>
   <g id="PolyCollection_2">
    <path d="M 73.832727 65.408 
L 73.832727 101.077333 
L 74.13276 101.077333 
L 75.539165 101.077333 
L 75.820446 102.954667 
L 77.114339 104.832 
L 77.639397 106.709333 
L 82.271158 108.586667 
L 82.664951 108.586667 
L 85.459009 110.464 
L 89.265679 112.341333 
L 89.922001 114.218667 
L 90.597076 116.096 
L 91.347158 117.973333 
L 91.853464 119.850667 
L 91.984729 121.728 
L 94.53501 123.605333 
L 95.960167 123.605333 
L 101.567035 125.482667 
L 102.992192 127.36 
L 104.979911 127.36 
L 105.092424 129.237333 
L 105.373705 131.114667 
L 105.711242 131.114667 
L 106.78011 132.992 
L 108.336532 132.992 
L 111.093085 134.869333 
L 111.505631 136.746667 
L 112.293218 136.746667 
L 114.093416 138.624 
L 115.349805 140.501333 
L 118.800185 140.501333 
L 119.250235 142.378667 
L 119.925309 144.256 
L 120.956673 146.133333 
L 122.063045 148.010667 
L 123.244425 149.888 
L 123.525706 151.765333 
L 123.600715 153.642667 
L 123.619467 155.52 
L 126.169748 157.397333 
L 128.813789 159.274667 
L 131.007781 161.152 
L 131.645352 163.029333 
L 134.701939 163.029333 
L 134.739443 164.906667 
L 136.483385 166.784 
L 142.746576 166.784 
L 144.209237 168.661333 
L 145.953179 170.538667 
L 146.065691 172.416 
L 147.32208 172.416 
L 147.697121 174.293333 
L 148.597221 176.170667 
L 149.459816 178.048 
L 150.097386 179.925333 
L 152.460147 181.802667 
L 153.060213 183.68 
L 153.416502 185.557333 
L 154.916667 187.434667 
L 156.435585 189.312 
L 157.766982 191.189333 
L 158.892106 193.066667 
L 159.098378 194.944 
L 159.510924 196.821333 
L 160.242255 198.698667 
L 163.655131 198.698667 
L 164.480222 200.576 
L 164.667742 202.453333 
L 165.436577 204.330667 
L 165.830371 204.330667 
L 166.205412 206.208 
L 166.786726 206.208 
L 167.949354 208.085333 
L 168.380652 209.962667 
L 169.899569 211.84 
L 173.837504 213.717333 
L 175.300165 215.594667 
L 176.312776 217.472 
L 178.713041 219.349333 
L 184.263653 221.226667 
L 184.376165 223.104 
L 184.469926 224.981333 
L 184.713703 226.858667 
L 186.701422 228.736 
L 187.714033 230.613333 
L 188.445364 232.490667 
L 188.95167 232.490667 
L 193.808455 234.368 
L 195.046092 236.245333 
L 195.308621 238.122667 
L 196.921299 238.122667 
L 197.74639 240 
L 199.396572 241.877333 
L 200.071646 241.877333 
L 200.315423 243.754667 
L 201.271778 245.632 
L 203.934572 245.632 
L 206.222324 245.632 
L 209.072638 247.509333 
L 212.110473 249.386667 
L 212.16673 251.264 
L 215.860887 253.141333 
L 215.898391 255.018667 
L 215.973399 256.896 
L 220.942697 258.773333 
L 222.742896 258.773333 
L 222.7804 260.650667 
L 224.036788 262.528 
L 229.718665 264.405333 
L 230.168714 266.282667 
L 233.262806 268.16 
L 238.307112 270.037333 
L 245.020352 271.914667 
L 247.36436 273.792 
L 249.202063 275.669333 
L 250.833493 277.546667 
L 251.17103 279.424 
L 254.958948 281.301333 
L 257.621741 283.178667 
L 263.903684 285.056 
L 274.47985 286.933333 
L 280.180479 288.810667 
L 283.518347 288.810667 
L 292.988141 290.688 
L 333.323838 292.565333 
L 334.861508 294.442667 
L 349.263095 296.32 
L 349.48812 298.197333 
L 353.501063 300.074667 
L 355.601294 301.952 
L 360.964386 301.952 
L 376.941147 301.952 
L 378.066271 303.829333 
L 390.105099 303.829333 
L 398.487273 305.706667 
L 398.487273 305.706667 
L 398.487273 305.706667 
L 390.105099 303.829333 
L 378.066271 301.952 
L 376.941147 300.074667 
L 360.964386 298.197333 
L 355.601294 296.32 
L 353.501063 294.442667 
L 349.48812 292.565333 
L 349.263095 290.688 
L 334.861508 288.810667 
L 333.323838 286.933333 
L 292.988141 285.056 
L 283.518347 283.178667 
L 280.180479 281.301333 
L 274.47985 279.424 
L 263.903684 277.546667 
L 257.621741 275.669333 
L 254.958948 273.792 
L 251.17103 271.914667 
L 250.833493 270.037333 
L 249.202063 268.16 
L 247.36436 266.282667 
L 245.020352 264.405333 
L 238.307112 262.528 
L 233.262806 260.650667 
L 230.168714 258.773333 
L 229.718665 256.896 
L 224.036788 255.018667 
L 222.7804 253.141333 
L 222.742896 251.264 
L 220.942697 249.386667 
L 215.973399 247.509333 
L 215.898391 245.632 
L 215.860887 243.754667 
L 212.16673 241.877333 
L 212.110473 240 
L 209.072638 238.122667 
L 206.222324 236.245333 
L 203.934572 234.368 
L 201.271778 232.490667 
L 200.315423 230.613333 
L 200.071646 228.736 
L 199.396572 226.858667 
L 197.74639 224.981333 
L 196.921299 223.104 
L 195.308621 223.104 
L 195.046092 221.226667 
L 193.808455 219.349333 
L 188.95167 217.472 
L 188.445364 215.594667 
L 187.714033 213.717333 
L 186.701422 211.84 
L 184.713703 209.962667 
L 184.469926 208.085333 
L 184.376165 206.208 
L 184.263653 204.330667 
L 178.713041 202.453333 
L 176.312776 200.576 
L 175.300165 198.698667 
L 173.837504 196.821333 
L 169.899569 194.944 
L 168.380652 193.066667 
L 167.949354 191.189333 
L 166.786726 189.312 
L 166.205412 189.312 
L 165.830371 187.434667 
L 165.436577 185.557333 
L 164.667742 183.68 
L 164.480222 181.802667 
L 163.655131 179.925333 
L 160.242255 178.048 
L 159.510924 176.170667 
L 159.098378 174.293333 
L 158.892106 172.416 
L 157.766982 170.538667 
L 156.435585 168.661333 
L 154.916667 166.784 
L 153.416502 164.906667 
L 153.060213 163.029333 
L 152.460147 161.152 
L 150.097386 159.274667 
L 149.459816 157.397333 
L 148.597221 155.52 
L 147.697121 153.642667 
L 147.32208 151.765333 
L 146.065691 149.888 
L 145.953179 148.010667 
L 144.209237 146.133333 
L 142.746576 144.256 
L 136.483385 142.378667 
L 134.739443 140.501333 
L 134.701939 138.624 
L 131.645352 136.746667 
L 131.007781 134.869333 
L 128.813789 132.992 
L 126.169748 131.114667 
L 123.619467 129.237333 
L 123.600715 127.36 
L 123.525706 125.482667 
L 123.244425 123.605333 
L 122.063045 121.728 
L 120.956673 119.850667 
L 119.925309 117.973333 
L 119.250235 116.096 
L 118.800185 114.218667 
L 115.349805 112.341333 
L 114.093416 110.464 
L 112.293218 108.586667 
L 111.505631 108.586667 
L 111.093085 106.709333 
L 108.336532 104.832 
L 106.78011 102.954667 
L 105.711242 101.077333 
L 105.373705 99.2 
L 105.092424 97.322667 
L 104.979911 95.445333 
L 102.992192 95.445333 
L 101.567035 93.568 
L 95.960167 91.690667 
L 94.53501 89.813333 
L 91.984729 87.936 
L 91.853464 86.058667 
L 91.347158 84.181333 
L 90.597076 82.304 
L 89.922001 80.426667 
L 89.265679 78.549333 
L 85.459009 76.672 
L 82.664951 74.794667 
L 82.271158 74.794667 
L 77.639397 72.917333 
L 77.114339 71.04 
L 75.820446 69.162667 
L 75.539165 67.285333 
L 74.13276 65.408 
L 73.832727 65.408 
z
" clip-path="url(#pb5498f418b)" style="fill: #7cfc00"/>
   </g>
   <g id="PolyCollection_3">
    <path d="M 73.832727 54.144 
L 73.832727 65.408 
L 74.13276 65.408 
L 75.539165 67.285333 
L 75.820446 69.162667 
L 77.114339 71.04 
L 77.639397 72.917333 
L 82.271158 74.794667 
L 82.664951 74.794667 
L 85.459009 76.672 
L 89.265679 78.549333 
L 89.922001 80.426667 
L 90.597076 82.304 
L 91.347158 84.181333 
L 91.853464 86.058667 
L 91.984729 87.936 
L 94.53501 89.813333 
L 95.960167 91.690667 
L 101.567035 93.568 
L 102.992192 95.445333 
L 104.979911 95.445333 
L 105.092424 97.322667 
L 105.373705 99.2 
L 105.711242 101.077333 
L 106.78011 102.954667 
L 108.336532 104.832 
L 111.093085 106.709333 
L 111.505631 108.586667 
L 112.293218 108.586667 
L 114.093416 110.464 
L 115.349805 112.341333 
L 118.800185 114.218667 
L 119.250235 116.096 
L 119.925309 117.973333 
L 120.956673 119.850667 
L 122.063045 121.728 
L 123.244425 123.605333 
L 123.525706 125.482667 
L 123.600715 127.36 
L 123.619467 129.237333 
L 126.169748 131.114667 
L 128.813789 132.992 
L 131.007781 134.869333 
L 131.645352 136.746667 
L 134.701939 138.624 
L 134.739443 140.501333 
L 136.483385 142.378667 
L 142.746576 144.256 
L 144.209237 146.133333 
L 145.953179 148.010667 
L 146.065691 149.888 
L 147.32208 151.765333 
L 147.697121 153.642667 
L 148.597221 155.52 
L 149.459816 157.397333 
L 150.097386 159.274667 
L 152.460147 161.152 
L 153.060213 163.029333 
L 153.416502 164.906667 
L 154.916667 166.784 
L 156.435585 168.661333 
L 157.766982 170.538667 
L 158.892106 172.416 
L 159.098378 174.293333 
L 159.510924 176.170667 
L 160.242255 178.048 
L 163.655131 179.925333 
L 164.480222 181.802667 
L 164.667742 183.68 
L 165.436577 185.557333 
L 165.830371 187.434667 
L 166.205412 189.312 
L 166.786726 189.312 
L 167.949354 191.189333 
L 168.380652 193.066667 
L 169.899569 194.944 
L 173.837504 196.821333 
L 175.300165 198.698667 
L 176.312776 200.576 
L 178.713041 202.453333 
L 184.263653 204.330667 
L 184.376165 206.208 
L 184.469926 208.085333 
L 184.713703 209.962667 
L 186.701422 211.84 
L 187.714033 213.717333 
L 188.445364 215.594667 
L 188.95167 217.472 
L 193.808455 219.349333 
L 195.046092 221.226667 
L 195.308621 223.104 
L 196.921299 223.104 
L 197.74639 224.981333 
L 199.396572 226.858667 
L 200.071646 228.736 
L 200.315423 230.613333 
L 201.271778 232.490667 
L 203.934572 234.368 
L 206.222324 236.245333 
L 209.072638 238.122667 
L 212.110473 240 
L 212.16673 241.877333 
L 215.860887 243.754667 
L 215.898391 245.632 
L 215.973399 247.509333 
L 220.942697 249.386667 
L 222.742896 251.264 
L 222.7804 253.141333 
L 224.036788 255.018667 
L 229.718665 256.896 
L 230.168714 258.773333 
L 233.262806 260.650667 
L 238.307112 262.528 
L 245.020352 264.405333 
L 247.36436 266.282667 
L 249.202063 268.16 
L 250.833493 270.037333 
L 251.17103 271.914667 
L 254.958948 273.792 
L 257.621741 275.669333 
L 263.903684 277.546667 
L 274.47985 279.424 
L 280.180479 281.301333 
L 283.518347 283.178667 
L 292.988141 285.056 
L 333.323838 286.933333 
L 334.861508 288.810667 
L 349.263095 290.688 
L 349.48812 292.565333 
L 353.501063 294.442667 
L 355.601294 296.32 
L 360.964386 298.197333 
L 376.941147 300.074667 
L 378.066271 301.952 
L 390.105099 303.829333 
L 398.487273 305.706667 
L 398.487273 305.706667 
L 398.487273 305.706667 
L 390.105099 303.829333 
L 378.066271 301.952 
L 376.941147 300.074667 
L 360.964386 298.197333 
L 355.601294 296.32 
L 353.501063 294.442667 
L 349.48812 292.565333 
L 349.263095 290.688 
L 334.861508 288.810667 
L 333.323838 286.933333 
L 292.988141 285.056 
L 283.518347 283.178667 
L 280.180479 281.301333 
L 274.47985 279.424 
L 263.903684 277.546667 
L 257.621741 275.669333 
L 254.958948 273.792 
L 251.17103 271.914667 
L 250.833493 270.037333 
L 249.202063 268.16 
L 247.36436 266.282667 
L 245.020352 264.405333 
L 238.307112 262.528 
L 233.262806 260.650667 
L 230.168714 258.773333 
L 229.718665 256.896 
L 224.036788 255.018667 
L 222.7804 253.141333 
L 222.742896 251.264 
L 220.942697 249.386667 
L 215.973399 247.509333 
L 215.898391 245.632 
L 215.860887 243.754667 
L 212.16673 241.877333 
L 212.110473 240 
L 209.072638 238.122667 
L 206.222324 236.245333 
L 203.934572 234.368 
L 201.271778 232.490667 
L 200.315423 230.613333 
L 200.071646 228.736 
L 199.396572 226.858667 
L 197.74639 224.981333 
L 196.921299 223.104 
L 195.308621 221.226667 
L 195.046092 219.349333 
L 193.808455 217.472 
L 188.95167 215.594667 
L 188.445364 213.717333 
L 187.714033 211.84 
L 186.701422 209.962667 
L 184.713703 208.085333 
L 184.469926 206.208 
L 184.376165 204.330667 
L 184.263653 202.453333 
L 178.713041 200.576 
L 176.312776 198.698667 
L 175.300165 196.821333 
L 173.837504 194.944 
L 169.899569 193.066667 
L 168.380652 191.189333 
L 167.949354 189.312 
L 166.786726 187.434667 
L 166.205412 185.557333 
L 165.830371 183.68 
L 165.436577 181.802667 
L 164.667742 179.925333 
L 164.480222 178.048 
L 163.655131 176.170667 
L 160.242255 174.293333 
L 159.510924 172.416 
L 159.098378 170.538667 
L 158.892106 168.661333 
L 157.766982 166.784 
L 156.435585 164.906667 
L 154.916667 163.029333 
L 153.416502 161.152 
L 153.060213 159.274667 
L 152.460147 157.397333 
L 150.097386 155.52 
L 149.459816 153.642667 
L 148.597221 151.765333 
L 147.697121 149.888 
L 147.32208 148.010667 
L 146.065691 146.133333 
L 145.953179 144.256 
L 144.209237 142.378667 
L 142.746576 140.501333 
L 136.483385 138.624 
L 134.739443 136.746667 
L 134.701939 134.869333 
L 131.645352 132.992 
L 131.007781 131.114667 
L 128.813789 129.237333 
L 126.169748 127.36 
L 123.619467 125.482667 
L 123.600715 123.605333 
L 123.525706 121.728 
L 123.244425 119.850667 
L 122.063045 117.973333 
L 120.956673 116.096 
L 119.925309 114.218667 
L 119.250235 112.341333 
L 118.800185 110.464 
L 115.349805 108.586667 
L 114.093416 106.709333 
L 112.293218 104.832 
L 111.505631 102.954667 
L 111.093085 101.077333 
L 108.336532 99.2 
L 106.78011 97.322667 
L 105.711242 95.445333 
L 105.373705 93.568 
L 105.092424 91.690667 
L 104.979911 89.813333 
L 102.992192 87.936 
L 101.567035 86.058667 
L 95.960167 84.181333 
L 94.53501 82.304 
L 91.984729 80.426667 
L 91.853464 78.549333 
L 91.347158 76.672 
L 90.597076 74.794667 
L 89.922001 72.917333 
L 89.265679 71.04 
L 85.459009 69.162667 
L 82.664951 67.285333 
L 82.271158 65.408 
L 77.639397 63.530667 
L 77.114339 61.653333 
L 75.820446 59.776 
L 75.539165 57.898667 
L 74.13276 56.021333 
L 73.832727 54.144 
z
" clip-path="url(#pb5498f418b)" style="fill: #ff0000"/>
   </g>
   <g id="matplotlib.axis_1">
    <g id="xtick_1">
     <g id="line2d_1">
      <defs>
       <path id="m88d07c4b2e" d="M 0 0 
L 0 3.5 
" style="stroke: #000000; stroke-width: 0.8"/>
      </defs>
      <g>
       <use xlink:href="#m88d07c4b2e" x="78.070695" y="307.584" style="stroke: #000000; stroke-width: 0.8"/>
      </g>
     </g>
     <g id="text_1">
      <!-- 12.5 -->
      <g transform="translate(66.937882 322.182437) scale(0.1 -0.1)">
       <defs>
        <path id="DejaVuSans-31" d="M 794 531 
L 1825 531 
L 1825 4091 
L 703 3866 
L 703 4441 
L 1819 4666 
L 2450 4666 
L 2450 531 
L 3481 531 
L 3481 0 
L 794 0 
L 794 531 
z
" transform="scale(0.015625)"/>
        <path id="DejaVuSans-32" d="M 1228 531 
L 3431 531 
L 3431 0 
L 469 0 
L 469 531 
Q 828 903 1448 1529 
Q 2069 2156 2228 2338 
Q 2531 2678 2651 2914 
Q 2772 3150 2772 3378 
Q 2772 3750 2511 3984 
Q 2250 4219 1831 4219 
Q 1534 4219 1204 4116 
Q 875 4013 500 3803 
L 500 4441 
Q 881 4594 1212 4672 
Q 1544 4750 1819 4750 
Q 2544 4750 2975 4387 
Q 3406 4025 3406 3419 
Q 3406 3131 3298 2873 
Q 3191 2616 2906 2266 
Q 2828 2175 2409 1742 
Q 1991 1309 1228 531 
z
" transform="scale(0.015625)"/>
        <path id="DejaVuSans-2e" d="M 684 794 
L 1344 794 
L 1344 0 
L 684 0 
L 684 794 
z
" transform="scale(0.015625)"/>
        <path id="DejaVuSans-35" d="M 691 4666 
L 3169 4666 
L 3169 4134 
L 1269 4134 
L 1269 2991 
Q 1406 3038 1543 3061 
Q 1681 3084 1819 3084 
Q 2600 3084 3056 2656 
Q 3513 2228 3513 1497 
Q 3513 744 3044 326 
Q 2575 -91 1722 -91 
Q 1428 -91 1123 -41 
Q 819 9 494 109 
L 494 744 
Q 775 591 1075 516 
Q 1375 441 1709 441 
Q 2250 441 2565 725 
Q 2881 1009 2881 1497 
Q 2881 1984 2565 2268 
Q 2250 2553 1709 2553 
Q 1456 2553 1204 2497 
Q 953 2441 691 2322 
L 691 4666 
z
" transform="scale(0.015625)"/>
       </defs>
       <use xlink:href="#DejaVuSans-31"/>
       <use xlink:href="#DejaVuSans-32" x="63.623047"/>
       <use xlink:href="#DejaVuSans-2e" x="127.246094"/>
       <use xlink:href="#DejaVuSans-35" x="159.033203"/>
      </g>
     </g>
    </g>
    <g id="xtick_2">
     <g id="line2d_2">
      <g>
       <use xlink:href="#m88d07c4b2e" x="124.950863" y="307.584" style="stroke: #000000; stroke-width: 0.8"/>
      </g>
     </g>
     <g id="text_2">
      <!-- 15.0 -->
      <g transform="translate(113.818051 322.182437) scale(0.1 -0.1)">
       <defs>
        <path id="DejaVuSans-30" d="M 2034 4250 
Q 1547 4250 1301 3770 
Q 1056 3291 1056 2328 
Q 1056 1369 1301 889 
Q 1547 409 2034 409 
Q 2525 409 2770 889 
Q 3016 1369 3016 2328 
Q 3016 3291 2770 3770 
Q 2525 4250 2034 4250 
z
M 2034 4750 
Q 2819 4750 3233 4129 
Q 3647 3509 3647 2328 
Q 3647 1150 3233 529 
Q 2819 -91 2034 -91 
Q 1250 -91 836 529 
Q 422 1150 422 2328 
Q 422 3509 836 4129 
Q 1250 4750 2034 4750 
z
" transform="scale(0.015625)"/>
       </defs>
       <use xlink:href="#DejaVuSans-31"/>
       <use xlink:href="#DejaVuSans-35" x="63.623047"/>
       <use xlink:href="#DejaVuSans-2e" x="127.246094"/>
       <use xlink:href="#DejaVuSans-30" x="159.033203"/>
      </g>
     </g>
    </g>
    <g id="xtick_3">
     <g id="line2d_3">
      <g>
       <use xlink:href="#m88d07c4b2e" x="171.831032" y="307.584" style="stroke: #000000; stroke-width: 0.8"/>
      </g>
     </g>
     <g id="text_3">
      <!-- 17.5 -->
      <g transform="translate(160.69822 322.182437) scale(0.1 -0.1)">
       <defs>
        <path id="DejaVuSans-37" d="M 525 4666 
L 3525 4666 
L 3525 4397 
L 1831 0 
L 1172 0 
L 2766 4134 
L 525 4134 
L 525 4666 
z
" transform="scale(0.015625)"/>
       </defs>
       <use xlink:href="#DejaVuSans-31"/>
       <use xlink:href="#DejaVuSans-37" x="63.623047"/>
       <use xlink:href="#DejaVuSans-2e" x="127.246094"/>
       <use xlink:href="#DejaVuSans-35" x="159.033203"/>
      </g>
     </g>
    </g>
    <g id="xtick_4">
     <g id="line2d_4">
      <g>
       <use xlink:href="#m88d07c4b2e" x="218.711201" y="307.584" style="stroke: #000000; stroke-width: 0.8"/>
      </g>
     </g>
     <g id="text_4">
      <!-- 20.0 -->
      <g transform="translate(207.578389 322.182437) scale(0.1 -0.1)">
       <use xlink:href="#DejaVuSans-32"/>
       <use xlink:href="#DejaVuSans-30" x="63.623047"/>
       <use xlink:href="#DejaVuSans-2e" x="127.246094"/>
       <use xlink:href="#DejaVuSans-30" x="159.033203"/>
      </g>
     </g>
    </g>
    <g id="xtick_5">
     <g id="line2d_5">
      <g>
       <use xlink:href="#m88d07c4b2e" x="265.59137" y="307.584" style="stroke: #000000; stroke-width: 0.8"/>
      </g>
     </g>
     <g id="text_5">
      <!-- 22.5 -->
      <g transform="translate(254.458558 322.182437) scale(0.1 -0.1)">
       <use xlink:href="#DejaVuSans-32"/>
       <use xlink:href="#DejaVuSans-32" x="63.623047"/>
       <use xlink:href="#DejaVuSans-2e" x="127.246094"/>
       <use xlink:href="#DejaVuSans-35" x="159.033203"/>
      </g>
     </g>
    </g>
    <g id="xtick_6">
     <g id="line2d_6">
      <g>
       <use xlink:href="#m88d07c4b2e" x="312.471539" y="307.584" style="stroke: #000000; stroke-width: 0.8"/>
      </g>
     </g>
     <g id="text_6">
      <!-- 25.0 -->
      <g transform="translate(301.338726 322.182437) scale(0.1 -0.1)">
       <use xlink:href="#DejaVuSans-32"/>
       <use xlink:href="#DejaVuSans-35" x="63.623047"/>
       <use xlink:href="#DejaVuSans-2e" x="127.246094"/>
       <use xlink:href="#DejaVuSans-30" x="159.033203"/>
      </g>
     </g>
    </g>
    <g id="xtick_7">
     <g id="line2d_7">
      <g>
       <use xlink:href="#m88d07c4b2e" x="359.351708" y="307.584" style="stroke: #000000; stroke-width: 0.8"/>
      </g>
     </g>
     <g id="text_7">
      <!-- 27.5 -->
      <g transform="translate(348.218895 322.182437) scale(0.1 -0.1)">
       <use xlink:href="#DejaVuSans-32"/>
       <use xlink:href="#DejaVuSans-37" x="63.623047"/>
       <use xlink:href="#DejaVuSans-2e" x="127.246094"/>
       <use xlink:href="#DejaVuSans-35" x="159.033203"/>
      </g>
     </g>
    </g>
    <g id="xtick_8">
     <g id="line2d_8">
      <g>
       <use xlink:href="#m88d07c4b2e" x="406.231877" y="307.584" style="stroke: #000000; stroke-width: 0.8"/>
      </g>
     </g>
     <g id="text_8">
      <!-- 30.0 -->
      <g transform="translate(395.099064 322.182437) scale(0.1 -0.1)">
       <defs>
        <path id="DejaVuSans-33" d="M 2597 2516 
Q 3050 2419 3304 2112 
Q 3559 1806 3559 1356 
Q 3559 666 3084 287 
Q 2609 -91 1734 -91 
Q 1441 -91 1130 -33 
Q 819 25 488 141 
L 488 750 
Q 750 597 1062 519 
Q 1375 441 1716 441 
Q 2309 441 2620 675 
Q 2931 909 2931 1356 
Q 2931 1769 2642 2001 
Q 2353 2234 1838 2234 
L 1294 2234 
L 1294 2753 
L 1863 2753 
Q 2328 2753 2575 2939 
Q 2822 3125 2822 3475 
Q 2822 3834 2567 4026 
Q 2313 4219 1838 4219 
Q 1578 4219 1281 4162 
Q 984 4106 628 3988 
L 628 4550 
Q 988 4650 1302 4700 
Q 1616 4750 1894 4750 
Q 2613 4750 3031 4423 
Q 3450 4097 3450 3541 
Q 3450 3153 3228 2886 
Q 3006 2619 2597 2516 
z
" transform="scale(0.015625)"/>
       </defs>
       <use xlink:href="#DejaVuSans-33"/>
       <use xlink:href="#DejaVuSans-30" x="63.623047"/>
       <use xlink:href="#DejaVuSans-2e" x="127.246094"/>
       <use xlink:href="#DejaVuSans-30" x="159.033203"/>
      </g>
     </g>
    </g>
    <g id="text_9">
     <!-- Score -->
     <g transform="translate(222.157656 335.860562) scale(0.1 -0.1)">
      <defs>
       <path id="DejaVuSans-53" d="M 3425 4513 
L 3425 3897 
Q 3066 4069 2747 4153 
Q 2428 4238 2131 4238 
Q 1616 4238 1336 4038 
Q 1056 3838 1056 3469 
Q 1056 3159 1242 3001 
Q 1428 2844 1947 2747 
L 2328 2669 
Q 3034 2534 3370 2195 
Q 3706 1856 3706 1288 
Q 3706 609 3251 259 
Q 2797 -91 1919 -91 
Q 1588 -91 1214 -16 
Q 841 59 441 206 
L 441 856 
Q 825 641 1194 531 
Q 1563 422 1919 422 
Q 2459 422 2753 634 
Q 3047 847 3047 1241 
Q 3047 1584 2836 1778 
Q 2625 1972 2144 2069 
L 1759 2144 
Q 1053 2284 737 2584 
Q 422 2884 422 3419 
Q 422 4038 858 4394 
Q 1294 4750 2059 4750 
Q 2388 4750 2728 4690 
Q 3069 4631 3425 4513 
z
" transform="scale(0.015625)"/>
       <path id="DejaVuSans-63" d="M 3122 3366 
L 3122 2828 
Q 2878 2963 2633 3030 
Q 2388 3097 2138 3097 
Q 1578 3097 1268 2742 
Q 959 2388 959 1747 
Q 959 1106 1268 751 
Q 1578 397 2138 397 
Q 2388 397 2633 464 
Q 2878 531 3122 666 
L 3122 134 
Q 2881 22 2623 -34 
Q 2366 -91 2075 -91 
Q 1284 -91 818 406 
Q 353 903 353 1747 
Q 353 2603 823 3093 
Q 1294 3584 2113 3584 
Q 2378 3584 2631 3529 
Q 2884 3475 3122 3366 
z
" transform="scale(0.015625)"/>
       <path id="DejaVuSans-6f" d="M 1959 3097 
Q 1497 3097 1228 2736 
Q 959 2375 959 1747 
Q 959 1119 1226 758 
Q 1494 397 1959 397 
Q 2419 397 2687 759 
Q 2956 1122 2956 1747 
Q 2956 2369 2687 2733 
Q 2419 3097 1959 3097 
z
M 1959 3584 
Q 2709 3584 3137 3096 
Q 3566 2609 3566 1747 
Q 3566 888 3137 398 
Q 2709 -91 1959 -91 
Q 1206 -91 779 398 
Q 353 888 353 1747 
Q 353 2609 779 3096 
Q 1206 3584 1959 3584 
z
" transform="scale(0.015625)"/>
       <path id="DejaVuSans-72" d="M 2631 2963 
Q 2534 3019 2420 3045 
Q 2306 3072 2169 3072 
Q 1681 3072 1420 2755 
Q 1159 2438 1159 1844 
L 1159 0 
L 581 0 
L 581 3500 
L 1159 3500 
L 1159 2956 
Q 1341 3275 1631 3429 
Q 1922 3584 2338 3584 
Q 2397 3584 2469 3576 
Q 2541 3569 2628 3553 
L 2631 2963 
z
" transform="scale(0.015625)"/>
       <path id="DejaVuSans-65" d="M 3597 1894 
L 3597 1613 
L 953 1613 
Q 991 1019 1311 708 
Q 1631 397 2203 397 
Q 2534 397 2845 478 
Q 3156 559 3463 722 
L 3463 178 
Q 3153 47 2828 -22 
Q 2503 -91 2169 -91 
Q 1331 -91 842 396 
Q 353 884 353 1716 
Q 353 2575 817 3079 
Q 1281 3584 2069 3584 
Q 2775 3584 3186 3129 
Q 3597 2675 3597 1894 
z
M 3022 2063 
Q 3016 2534 2758 2815 
Q 2500 3097 2075 3097 
Q 1594 3097 1305 2825 
Q 1016 2553 972 2059 
L 3022 2063 
z
" transform="scale(0.015625)"/>
      </defs>
      <use xlink:href="#DejaVuSans-53"/>
      <use xlink:href="#DejaVuSans-63" x="63.476562"/>
      <use xlink:href="#DejaVuSans-6f" x="118.457031"/>
      <use xlink:href="#DejaVuSans-72" x="179.638672"/>
      <use xlink:href="#DejaVuSans-65" x="218.501953"/>
     </g>
    </g>
   </g>
   <g id="matplotlib.axis_2">
    <g id="ytick_1">
     <g id="line2d_9">
      <defs>
       <path id="mba015dd9f2" d="M 0 0 
L -3.5 0 
" style="stroke: #000000; stroke-width: 0.8"/>
      </defs>
      <g>
       <use xlink:href="#mba015dd9f2" x="57.6" y="307.584" style="stroke: #000000; stroke-width: 0.8"/>
      </g>
     </g>
     <g id="text_10">
      <!-- 0 -->
      <g transform="translate(44.2375 311.383219) scale(0.1 -0.1)">
       <use xlink:href="#DejaVuSans-30"/>
      </g>
     </g>
    </g>
    <g id="ytick_2">
     <g id="line2d_10">
      <g>
       <use xlink:href="#mba015dd9f2" x="57.6" y="270.037333" style="stroke: #000000; stroke-width: 0.8"/>
      </g>
     </g>
     <g id="text_11">
      <!-- 20 -->
      <g transform="translate(37.875 273.836552) scale(0.1 -0.1)">
       <use xlink:href="#DejaVuSans-32"/>
       <use xlink:href="#DejaVuSans-30" x="63.623047"/>
      </g>
     </g>
    </g>
    <g id="ytick_3">
     <g id="line2d_11">
      <g>
       <use xlink:href="#mba015dd9f2" x="57.6" y="232.490667" style="stroke: #000000; stroke-width: 0.8"/>
      </g>
     </g>
     <g id="text_12">
      <!-- 40 -->
      <g transform="translate(37.875 236.289885) scale(0.1 -0.1)">
       <defs>
        <path id="DejaVuSans-34" d="M 2419 4116 
L 825 1625 
L 2419 1625 
L 2419 4116 
z
M 2253 4666 
L 3047 4666 
L 3047 1625 
L 3713 1625 
L 3713 1100 
L 3047 1100 
L 3047 0 
L 2419 0 
L 2419 1100 
L 313 1100 
L 313 1709 
L 2253 4666 
z
" transform="scale(0.015625)"/>
       </defs>
       <use xlink:href="#DejaVuSans-34"/>
       <use xlink:href="#DejaVuSans-30" x="63.623047"/>
      </g>
     </g>
    </g>
    <g id="ytick_4">
     <g id="line2d_12">
      <g>
       <use xlink:href="#mba015dd9f2" x="57.6" y="194.944" style="stroke: #000000; stroke-width: 0.8"/>
      </g>
     </g>
     <g id="text_13">
      <!-- 60 -->
      <g transform="translate(37.875 198.743219) scale(0.1 -0.1)">
       <defs>
        <path id="DejaVuSans-36" d="M 2113 2584 
Q 1688 2584 1439 2293 
Q 1191 2003 1191 1497 
Q 1191 994 1439 701 
Q 1688 409 2113 409 
Q 2538 409 2786 701 
Q 3034 994 3034 1497 
Q 3034 2003 2786 2293 
Q 2538 2584 2113 2584 
z
M 3366 4563 
L 3366 3988 
Q 3128 4100 2886 4159 
Q 2644 4219 2406 4219 
Q 1781 4219 1451 3797 
Q 1122 3375 1075 2522 
Q 1259 2794 1537 2939 
Q 1816 3084 2150 3084 
Q 2853 3084 3261 2657 
Q 3669 2231 3669 1497 
Q 3669 778 3244 343 
Q 2819 -91 2113 -91 
Q 1303 -91 875 529 
Q 447 1150 447 2328 
Q 447 3434 972 4092 
Q 1497 4750 2381 4750 
Q 2619 4750 2861 4703 
Q 3103 4656 3366 4563 
z
" transform="scale(0.015625)"/>
       </defs>
       <use xlink:href="#DejaVuSans-36"/>
       <use xlink:href="#DejaVuSans-30" x="63.623047"/>
      </g>
     </g>
    </g>
    <g id="ytick_5">
     <g id="line2d_13">
      <g>
       <use xlink:href="#mba015dd9f2" x="57.6" y="157.397333" style="stroke: #000000; stroke-width: 0.8"/>
      </g>
     </g>
     <g id="text_14">
      <!-- 80 -->
      <g transform="translate(37.875 161.196552) scale(0.1 -0.1)">
       <defs>
        <path id="DejaVuSans-38" d="M 2034 2216 
Q 1584 2216 1326 1975 
Q 1069 1734 1069 1313 
Q 1069 891 1326 650 
Q 1584 409 2034 409 
Q 2484 409 2743 651 
Q 3003 894 3003 1313 
Q 3003 1734 2745 1975 
Q 2488 2216 2034 2216 
z
M 1403 2484 
Q 997 2584 770 2862 
Q 544 3141 544 3541 
Q 544 4100 942 4425 
Q 1341 4750 2034 4750 
Q 2731 4750 3128 4425 
Q 3525 4100 3525 3541 
Q 3525 3141 3298 2862 
Q 3072 2584 2669 2484 
Q 3125 2378 3379 2068 
Q 3634 1759 3634 1313 
Q 3634 634 3220 271 
Q 2806 -91 2034 -91 
Q 1263 -91 848 271 
Q 434 634 434 1313 
Q 434 1759 690 2068 
Q 947 2378 1403 2484 
z
M 1172 3481 
Q 1172 3119 1398 2916 
Q 1625 2713 2034 2713 
Q 2441 2713 2670 2916 
Q 2900 3119 2900 3481 
Q 2900 3844 2670 4047 
Q 2441 4250 2034 4250 
Q 1625 4250 1398 4047 
Q 1172 3844 1172 3481 
z
" transform="scale(0.015625)"/>
       </defs>
       <use xlink:href="#DejaVuSans-38"/>
       <use xlink:href="#DejaVuSans-30" x="63.623047"/>
      </g>
     </g>
    </g>
    <g id="ytick_6">
     <g id="line2d_14">
      <g>
       <use xlink:href="#mba015dd9f2" x="57.6" y="119.850667" style="stroke: #000000; stroke-width: 0.8"/>
      </g>
     </g>
     <g id="text_15">
      <!-- 100 -->
      <g transform="translate(31.5125 123.649885) scale(0.1 -0.1)">
       <use xlink:href="#DejaVuSans-31"/>
       <use xlink:href="#DejaVuSans-30" x="63.623047"/>
       <use xlink:href="#DejaVuSans-30" x="127.246094"/>
      </g>
     </g>
    </g>
    <g id="ytick_7">
     <g id="line2d_15">
      <g>
       <use xlink:href="#mba015dd9f2" x="57.6" y="82.304" style="stroke: #000000; stroke-width: 0.8"/>
      </g>
     </g>
     <g id="text_16">
      <!-- 120 -->
      <g transform="translate(31.5125 86.103219) scale(0.1 -0.1)">
       <use xlink:href="#DejaVuSans-31"/>
       <use xlink:href="#DejaVuSans-32" x="63.623047"/>
       <use xlink:href="#DejaVuSans-30" x="127.246094"/>
      </g>
     </g>
    </g>
    <g id="ytick_8">
     <g id="line2d_16">
      <g>
       <use xlink:href="#mba015dd9f2" x="57.6" y="44.757333" style="stroke: #000000; stroke-width: 0.8"/>
      </g>
     </g>
     <g id="text_17">
      <!-- 140 -->
      <g transform="translate(31.5125 48.556552) scale(0.1 -0.1)">
       <use xlink:href="#DejaVuSans-31"/>
       <use xlink:href="#DejaVuSans-34" x="63.623047"/>
       <use xlink:href="#DejaVuSans-30" x="127.246094"/>
      </g>
     </g>
    </g>
    <g id="text_18">
     <!-- Number of crosslinks -->
     <g transform="translate(25.432812 227.019406) rotate(-90) scale(0.1 -0.1)">
      <defs>
       <path id="DejaVuSans-4e" d="M 628 4666 
L 1478 4666 
L 3547 763 
L 3547 4666 
L 4159 4666 
L 4159 0 
L 3309 0 
L 1241 3903 
L 1241 0 
L 628 0 
L 628 4666 
z
" transform="scale(0.015625)"/>
       <path id="DejaVuSans-75" d="M 544 1381 
L 544 3500 
L 1119 3500 
L 1119 1403 
Q 1119 906 1312 657 
Q 1506 409 1894 409 
Q 2359 409 2629 706 
Q 2900 1003 2900 1516 
L 2900 3500 
L 3475 3500 
L 3475 0 
L 2900 0 
L 2900 538 
Q 2691 219 2414 64 
Q 2138 -91 1772 -91 
Q 1169 -91 856 284 
Q 544 659 544 1381 
z
M 1991 3584 
L 1991 3584 
z
" transform="scale(0.015625)"/>
       <path id="DejaVuSans-6d" d="M 3328 2828 
Q 3544 3216 3844 3400 
Q 4144 3584 4550 3584 
Q 5097 3584 5394 3201 
Q 5691 2819 5691 2113 
L 5691 0 
L 5113 0 
L 5113 2094 
Q 5113 2597 4934 2840 
Q 4756 3084 4391 3084 
Q 3944 3084 3684 2787 
Q 3425 2491 3425 1978 
L 3425 0 
L 2847 0 
L 2847 2094 
Q 2847 2600 2669 2842 
Q 2491 3084 2119 3084 
Q 1678 3084 1418 2786 
Q 1159 2488 1159 1978 
L 1159 0 
L 581 0 
L 581 3500 
L 1159 3500 
L 1159 2956 
Q 1356 3278 1631 3431 
Q 1906 3584 2284 3584 
Q 2666 3584 2933 3390 
Q 3200 3197 3328 2828 
z
" transform="scale(0.015625)"/>
       <path id="DejaVuSans-62" d="M 3116 1747 
Q 3116 2381 2855 2742 
Q 2594 3103 2138 3103 
Q 1681 3103 1420 2742 
Q 1159 2381 1159 1747 
Q 1159 1113 1420 752 
Q 1681 391 2138 391 
Q 2594 391 2855 752 
Q 3116 1113 3116 1747 
z
M 1159 2969 
Q 1341 3281 1617 3432 
Q 1894 3584 2278 3584 
Q 2916 3584 3314 3078 
Q 3713 2572 3713 1747 
Q 3713 922 3314 415 
Q 2916 -91 2278 -91 
Q 1894 -91 1617 61 
Q 1341 213 1159 525 
L 1159 0 
L 581 0 
L 581 4863 
L 1159 4863 
L 1159 2969 
z
" transform="scale(0.015625)"/>
       <path id="DejaVuSans-20" transform="scale(0.015625)"/>
       <path id="DejaVuSans-66" d="M 2375 4863 
L 2375 4384 
L 1825 4384 
Q 1516 4384 1395 4259 
Q 1275 4134 1275 3809 
L 1275 3500 
L 2222 3500 
L 2222 3053 
L 1275 3053 
L 1275 0 
L 697 0 
L 697 3053 
L 147 3053 
L 147 3500 
L 697 3500 
L 697 3744 
Q 697 4328 969 4595 
Q 1241 4863 1831 4863 
L 2375 4863 
z
" transform="scale(0.015625)"/>
       <path id="DejaVuSans-73" d="M 2834 3397 
L 2834 2853 
Q 2591 2978 2328 3040 
Q 2066 3103 1784 3103 
Q 1356 3103 1142 2972 
Q 928 2841 928 2578 
Q 928 2378 1081 2264 
Q 1234 2150 1697 2047 
L 1894 2003 
Q 2506 1872 2764 1633 
Q 3022 1394 3022 966 
Q 3022 478 2636 193 
Q 2250 -91 1575 -91 
Q 1294 -91 989 -36 
Q 684 19 347 128 
L 347 722 
Q 666 556 975 473 
Q 1284 391 1588 391 
Q 1994 391 2212 530 
Q 2431 669 2431 922 
Q 2431 1156 2273 1281 
Q 2116 1406 1581 1522 
L 1381 1569 
Q 847 1681 609 1914 
Q 372 2147 372 2553 
Q 372 3047 722 3315 
Q 1072 3584 1716 3584 
Q 2034 3584 2315 3537 
Q 2597 3491 2834 3397 
z
" transform="scale(0.015625)"/>
       <path id="DejaVuSans-6c" d="M 603 4863 
L 1178 4863 
L 1178 0 
L 603 0 
L 603 4863 
z
" transform="scale(0.015625)"/>
       <path id="DejaVuSans-69" d="M 603 3500 
L 1178 3500 
L 1178 0 
L 603 0 
L 603 3500 
z
M 603 4863 
L 1178 4863 
L 1178 4134 
L 603 4134 
L 603 4863 
z
" transform="scale(0.015625)"/>
       <path id="DejaVuSans-6e" d="M 3513 2113 
L 3513 0 
L 2938 0 
L 2938 2094 
Q 2938 2591 2744 2837 
Q 2550 3084 2163 3084 
Q 1697 3084 1428 2787 
Q 1159 2491 1159 1978 
L 1159 0 
L 581 0 
L 581 3500 
L 1159 3500 
L 1159 2956 
Q 1366 3272 1645 3428 
Q 1925 3584 2291 3584 
Q 2894 3584 3203 3211 
Q 3513 2838 3513 2113 
z
" transform="scale(0.015625)"/>
       <path id="DejaVuSans-6b" d="M 581 4863 
L 1159 4863 
L 1159 1991 
L 2875 3500 
L 3609 3500 
L 1753 1863 
L 3688 0 
L 2938 0 
L 1159 1709 
L 1159 0 
L 581 0 
L 581 4863 
z
" transform="scale(0.015625)"/>
      </defs>
      <use xlink:href="#DejaVuSans-4e"/>
      <use xlink:href="#DejaVuSans-75" x="74.804688"/>
      <use xlink:href="#DejaVuSans-6d" x="138.183594"/>
      <use xlink:href="#DejaVuSans-62" x="235.595703"/>
      <use xlink:href="#DejaVuSans-65" x="299.072266"/>
      <use xlink:href="#DejaVuSans-72" x="360.595703"/>
      <use xlink:href="#DejaVuSans-20" x="401.708984"/>
      <use xlink:href="#DejaVuSans-6f" x="433.496094"/>
      <use xlink:href="#DejaVuSans-66" x="494.677734"/>
      <use xlink:href="#DejaVuSans-20" x="529.882812"/>
      <use xlink:href="#DejaVuSans-63" x="561.669922"/>
      <use xlink:href="#DejaVuSans-72" x="616.650391"/>
      <use xlink:href="#DejaVuSans-6f" x="655.513672"/>
      <use xlink:href="#DejaVuSans-73" x="716.695312"/>
      <use xlink:href="#DejaVuSans-73" x="768.794922"/>
      <use xlink:href="#DejaVuSans-6c" x="820.894531"/>
      <use xlink:href="#DejaVuSans-69" x="848.677734"/>
      <use xlink:href="#DejaVuSans-6e" x="876.460938"/>
      <use xlink:href="#DejaVuSans-6b" x="939.839844"/>
      <use xlink:href="#DejaVuSans-73" x="997.75"/>
     </g>
    </g>
   </g>
   <g id="patch_3">
    <path d="M 57.6 307.584 
L 57.6 41.472 
" style="fill: none; stroke: #000000; stroke-width: 0.8; stroke-linejoin: miter; stroke-linecap: square"/>
   </g>
   <g id="patch_4">
    <path d="M 414.72 307.584 
L 414.72 41.472 
" style="fill: none; stroke: #000000; stroke-width: 0.8; stroke-linejoin: miter; stroke-linecap: square"/>
   </g>
   <g id="patch_5">
    <path d="M 57.6 307.584 
L 414.72 307.584 
" style="fill: none; stroke: #000000; stroke-width: 0.8; stroke-linejoin: miter; stroke-linecap: square"/>
   </g>
   <g id="patch_6">
    <path d="M 57.6 41.472 
L 414.72 41.472 
" style="fill: none; stroke: #000000; stroke-width: 0.8; stroke-linejoin: miter; stroke-linecap: square"/>
   </g>
   <g id="legend_1">
    <g id="patch_7">
     <path d="M 293.087188 93.506375 
L 407.72 93.506375 
Q 409.72 93.506375 409.72 91.506375 
L 409.72 48.472 
Q 409.72 46.472 407.72 46.472 
L 293.087188 46.472 
Q 291.087188 46.472 291.087188 48.472 
L 291.087188 91.506375 
Q 291.087188 93.506375 293.087188 93.506375 
z
" style="fill: #ffffff; opacity: 0.8; stroke: #cccccc; stroke-linejoin: miter"/>
    </g>
    <g id="patch_8">
     <path d="M 295.087188 58.070438 
L 315.087188 58.070438 
L 315.087188 51.070438 
L 295.087188 51.070438 
z
" style="fill: #008000"/>
    </g>
    <g id="text_19">
     <!-- true -->
     <g transform="translate(323.087188 58.070438) scale(0.1 -0.1)">
      <defs>
       <path id="DejaVuSans-74" d="M 1172 4494 
L 1172 3500 
L 2356 3500 
L 2356 3053 
L 1172 3053 
L 1172 1153 
Q 1172 725 1289 603 
Q 1406 481 1766 481 
L 2356 481 
L 2356 0 
L 1766 0 
Q 1100 0 847 248 
Q 594 497 594 1153 
L 594 3053 
L 172 3053 
L 172 3500 
L 594 3500 
L 594 4494 
L 1172 4494 
z
" transform="scale(0.015625)"/>
      </defs>
      <use xlink:href="#DejaVuSans-74"/>
      <use xlink:href="#DejaVuSans-72" x="39.208984"/>
      <use xlink:href="#DejaVuSans-75" x="80.322266"/>
      <use xlink:href="#DejaVuSans-65" x="143.701172"/>
     </g>
    </g>
    <g id="patch_9">
     <path d="M 295.087188 72.748563 
L 315.087188 72.748563 
L 315.087188 65.748563 
L 295.087188 65.748563 
z
" style="fill: #7cfc00"/>
    </g>
    <g id="text_20">
     <!-- true homeotypic -->
     <g transform="translate(323.087188 72.748563) scale(0.1 -0.1)">
      <defs>
       <path id="DejaVuSans-68" d="M 3513 2113 
L 3513 0 
L 2938 0 
L 2938 2094 
Q 2938 2591 2744 2837 
Q 2550 3084 2163 3084 
Q 1697 3084 1428 2787 
Q 1159 2491 1159 1978 
L 1159 0 
L 581 0 
L 581 4863 
L 1159 4863 
L 1159 2956 
Q 1366 3272 1645 3428 
Q 1925 3584 2291 3584 
Q 2894 3584 3203 3211 
Q 3513 2838 3513 2113 
z
" transform="scale(0.015625)"/>
       <path id="DejaVuSans-79" d="M 2059 -325 
Q 1816 -950 1584 -1140 
Q 1353 -1331 966 -1331 
L 506 -1331 
L 506 -850 
L 844 -850 
Q 1081 -850 1212 -737 
Q 1344 -625 1503 -206 
L 1606 56 
L 191 3500 
L 800 3500 
L 1894 763 
L 2988 3500 
L 3597 3500 
L 2059 -325 
z
" transform="scale(0.015625)"/>
       <path id="DejaVuSans-70" d="M 1159 525 
L 1159 -1331 
L 581 -1331 
L 581 3500 
L 1159 3500 
L 1159 2969 
Q 1341 3281 1617 3432 
Q 1894 3584 2278 3584 
Q 2916 3584 3314 3078 
Q 3713 2572 3713 1747 
Q 3713 922 3314 415 
Q 2916 -91 2278 -91 
Q 1894 -91 1617 61 
Q 1341 213 1159 525 
z
M 3116 1747 
Q 3116 2381 2855 2742 
Q 2594 3103 2138 3103 
Q 1681 3103 1420 2742 
Q 1159 2381 1159 1747 
Q 1159 1113 1420 752 
Q 1681 391 2138 391 
Q 2594 391 2855 752 
Q 3116 1113 3116 1747 
z
" transform="scale(0.015625)"/>
      </defs>
      <use xlink:href="#DejaVuSans-74"/>
      <use xlink:href="#DejaVuSans-72" x="39.208984"/>
      <use xlink:href="#DejaVuSans-75" x="80.322266"/>
      <use xlink:href="#DejaVuSans-65" x="143.701172"/>
      <use xlink:href="#DejaVuSans-20" x="205.224609"/>
      <use xlink:href="#DejaVuSans-68" x="237.011719"/>
      <use xlink:href="#DejaVuSans-6f" x="300.390625"/>
      <use xlink:href="#DejaVuSans-6d" x="361.572266"/>
      <use xlink:href="#DejaVuSans-65" x="458.984375"/>
      <use xlink:href="#DejaVuSans-6f" x="520.507812"/>
      <use xlink:href="#DejaVuSans-74" x="581.689453"/>
      <use xlink:href="#DejaVuSans-79" x="620.898438"/>
      <use xlink:href="#DejaVuSans-70" x="680.078125"/>
      <use xlink:href="#DejaVuSans-69" x="743.554688"/>
      <use xlink:href="#DejaVuSans-63" x="771.337891"/>
     </g>
    </g>
    <g id="patch_10">
     <path d="M 295.087188 87.426688 
L 315.087188 87.426688 
L 315.087188 80.426688 
L 295.087188 80.426688 
z
" style="fill: #ff0000"/>
    </g>
    <g id="text_21">
     <!-- false -->
     <g transform="translate(323.087188 87.426688) scale(0.1 -0.1)">
      <defs>
       <path id="DejaVuSans-61" d="M 2194 1759 
Q 1497 1759 1228 1600 
Q 959 1441 959 1056 
Q 959 750 1161 570 
Q 1363 391 1709 391 
Q 2188 391 2477 730 
Q 2766 1069 2766 1631 
L 2766 1759 
L 2194 1759 
z
M 3341 1997 
L 3341 0 
L 2766 0 
L 2766 531 
Q 2569 213 2275 61 
Q 1981 -91 1556 -91 
Q 1019 -91 701 211 
Q 384 513 384 1019 
Q 384 1609 779 1909 
Q 1175 2209 1959 2209 
L 2766 2209 
L 2766 2266 
Q 2766 2663 2505 2880 
Q 2244 3097 1772 3097 
Q 1472 3097 1187 3025 
Q 903 2953 641 2809 
L 641 3341 
Q 956 3463 1253 3523 
Q 1550 3584 1831 3584 
Q 2591 3584 2966 3190 
Q 3341 2797 3341 1997 
z
" transform="scale(0.015625)"/>
      </defs>
      <use xlink:href="#DejaVuSans-66"/>
      <use xlink:href="#DejaVuSans-61" x="35.205078"/>
      <use xlink:href="#DejaVuSans-6c" x="96.484375"/>
      <use xlink:href="#DejaVuSans-73" x="124.267578"/>
      <use xlink:href="#DejaVuSans-65" x="176.367188"/>
     </g>
    </g>
   </g>
  </g>
 </g>
 <defs>
  <clipPath id="pb5498f418b">
   <rect x="57.6" y="41.472" width="357.12" height="266.112"/>
  </clipPath>
 </defs>
</svg>
