<?xml version="1.0" encoding="utf-8" standalone="no"?>
<!DOCTYPE svg PUBLIC "-//W3C//DTD SVG 1.1//EN"
  "http://www.w3.org/Graphics/SVG/1.1/DTD/svg11.dtd">
<svg xmlns:xlink="http://www.w3.org/1999/xlink" width="460.8pt" height="345.6pt" viewBox="0 0 460.8 345.6" xmlns="http://www.w3.org/2000/svg" version="1.1">
 <metadata>
  <rdf:RDF xmlns:dc="http://purl.org/dc/elements/1.1/" xmlns:cc="http://creativecommons.org/ns#" xmlns:rdf="http://www.w3.org/1999/02/22-rdf-syntax-ns#">
   <cc:Work>
    <dc:type rdf:resource="http://purl.org/dc/dcmitype/StillImage"/>
    <dc:date>2024-06-24T12:59:41.961031</dc:date>
    <dc:format>image/svg+xml</dc:format>
    <dc:creator>
     <cc:Agent>
      <dc:title>Matplotlib v3.9.0, https://matplotlib.org/</dc:title>
     </cc:Agent>
    </dc:creator>
   </cc:Work>
  </rdf:RDF>
 </metadata>
 <defs>
  <style type="text/css">*{stroke-linejoin: round; stroke-linecap: butt}</style>
 </defs>
 <g id="figure_1">
  <g id="patch_1">
   <path d="M 0 345.6 
L 460.8 345.6 
L 460.8 0 
L 0 0 
z
" style="fill: #ffffff"/>
  </g>
  <g id="axes_1">
   <g id="patch_2">
    <path d="M 57.6 307.584 
L 414.72 307.584 
L 414.72 41.472 
L 57.6 41.472 
z
" style="fill: #ffffff"/>
   </g>
   <g id="PolyCollection_1">
    <path d="M 73.832727 123.013565 
L 73.832727 307.584 
L 82.882182 307.584 
L 84.14739 307.584 
L 84.501219 307.584 
L 91.953081 307.584 
L 92.553518 307.584 
L 94.151112 307.584 
L 95.544985 307.584 
L 97.839515 307.584 
L 109.580217 307.584 
L 110.502318 307.584 
L 115.884814 307.584 
L 116.270809 307.584 
L 125.631205 307.584 
L 127.604072 307.584 
L 128.129455 307.584 
L 131.335364 307.584 
L 133.168843 307.584 
L 134.219609 307.584 
L 134.584161 307.584 
L 134.627049 307.584 
L 135.313264 307.584 
L 137.018078 307.584 
L 138.905168 307.584 
L 140.331208 307.584 
L 140.856591 307.584 
L 145.274097 307.584 
L 145.316985 307.584 
L 145.349152 307.584 
L 146.088977 307.584 
L 147.214798 307.584 
L 149.016111 307.584 
L 149.873879 307.584 
L 150.924645 307.584 
L 155.567316 307.584 
L 155.856812 307.584 
L 157.261408 307.584 
L 157.604515 307.584 
L 159.105609 307.584 
L 164.337996 307.584 
L 164.788324 307.584 
L 167.147186 307.584 
L 167.286574 307.584 
L 167.46885 307.584 
L 169.484605 307.584 
L 169.591826 307.584 
L 170.07432 307.584 
L 170.8892 307.584 
L 171.339529 307.584 
L 172.411739 307.584 
L 174.920711 307.584 
L 176.593359 307.584 
L 180.238874 307.584 
L 181.429027 307.584 
L 183.852222 307.584 
L 188.248284 307.584 
L 191.893799 307.584 
L 193.073231 307.584 
L 195.174763 307.584 
L 197.597958 307.584 
L 198.155507 307.584 
L 198.981109 307.584 
L 201.661635 307.584 
L 202.583736 307.584 
L 202.819622 307.584 
L 203.741723 307.584 
L 207.215684 307.584 
L 207.408682 307.584 
L 209.349382 307.584 
L 210.046319 307.584 
L 210.721812 307.584 
L 217.830566 307.584 
L 218.902776 307.584 
L 222.108685 307.584 
L 229.313937 307.584 
L 229.796432 307.584 
L 236.680022 307.584 
L 250.404313 307.584 
L 251.390747 307.584 
L 251.530134 307.584 
L 258.628166 307.584 
L 265.286592 307.584 
L 269.264492 307.584 
L 270.32598 307.584 
L 277.231014 307.584 
L 301.194913 307.584 
L 315.734085 307.584 
L 323.850716 307.584 
L 329.372599 307.584 
L 343.868882 307.584 
L 348.125557 307.584 
L 398.487273 307.584 
L 398.487273 307.584 
L 398.487273 307.584 
L 348.125557 304.829217 
L 343.868882 304.829217 
L 329.372599 304.829217 
L 323.850716 304.829217 
L 315.734085 304.829217 
L 301.194913 304.829217 
L 277.231014 302.074435 
L 270.32598 299.319652 
L 269.264492 299.319652 
L 265.286592 299.319652 
L 258.628166 299.319652 
L 251.530134 296.56487 
L 251.390747 293.810087 
L 250.404313 291.055304 
L 236.680022 288.300522 
L 229.796432 285.545739 
L 229.313937 282.790957 
L 222.108685 280.036174 
L 218.902776 277.281391 
L 217.830566 274.526609 
L 210.721812 274.526609 
L 210.046319 271.771826 
L 209.349382 269.017043 
L 207.408682 266.262261 
L 207.215684 263.507478 
L 203.741723 260.752696 
L 202.819622 260.752696 
L 202.583736 260.752696 
L 201.661635 257.997913 
L 198.981109 255.24313 
L 198.155507 255.24313 
L 197.597958 252.488348 
L 195.174763 249.733565 
L 193.073231 246.978783 
L 191.893799 244.224 
L 188.248284 241.469217 
L 183.852222 238.714435 
L 181.429027 235.959652 
L 180.238874 233.20487 
L 176.593359 233.20487 
L 174.920711 233.20487 
L 172.411739 230.450087 
L 171.339529 227.695304 
L 170.8892 224.940522 
L 170.07432 222.185739 
L 169.591826 219.430957 
L 169.484605 216.676174 
L 167.46885 213.921391 
L 167.286574 213.921391 
L 167.147186 211.166609 
L 164.788324 208.411826 
L 164.337996 205.657043 
L 159.105609 205.657043 
L 157.604515 202.902261 
L 157.261408 202.902261 
L 155.856812 200.147478 
L 155.567316 197.392696 
L 150.924645 194.637913 
L 149.873879 191.88313 
L 149.016111 189.128348 
L 147.214798 186.373565 
L 146.088977 183.618783 
L 145.349152 180.864 
L 145.316985 178.109217 
L 145.274097 178.109217 
L 140.856591 175.354435 
L 140.331208 172.599652 
L 138.905168 169.84487 
L 137.018078 167.090087 
L 135.313264 164.335304 
L 134.627049 164.335304 
L 134.584161 161.580522 
L 134.219609 161.580522 
L 133.168843 158.825739 
L 131.335364 156.070957 
L 128.129455 153.316174 
L 127.604072 150.561391 
L 125.631205 150.561391 
L 116.270809 147.806609 
L 115.884814 145.051826 
L 110.502318 142.297043 
L 109.580217 139.542261 
L 97.839515 136.787478 
L 95.544985 134.032696 
L 94.151112 131.277913 
L 92.553518 131.277913 
L 91.953081 128.52313 
L 84.501219 128.52313 
L 84.14739 125.768348 
L 82.882182 123.013565 
L 73.832727 123.013565 
z
" clip-path="url(#pa59d31fc5d)" style="fill: #008000"/>
   </g>
   <g id="PolyCollection_2">
    <path d="M 73.832727 62.408348 
L 73.832727 123.013565 
L 82.882182 123.013565 
L 84.14739 125.768348 
L 84.501219 128.52313 
L 91.953081 128.52313 
L 92.553518 131.277913 
L 94.151112 131.277913 
L 95.544985 134.032696 
L 97.839515 136.787478 
L 109.580217 139.542261 
L 110.502318 142.297043 
L 115.884814 145.051826 
L 116.270809 147.806609 
L 125.631205 150.561391 
L 127.604072 150.561391 
L 128.129455 153.316174 
L 131.335364 156.070957 
L 133.168843 158.825739 
L 134.219609 161.580522 
L 134.584161 161.580522 
L 134.627049 164.335304 
L 135.313264 164.335304 
L 137.018078 167.090087 
L 138.905168 169.84487 
L 140.331208 172.599652 
L 140.856591 175.354435 
L 145.274097 178.109217 
L 145.316985 178.109217 
L 145.349152 180.864 
L 146.088977 183.618783 
L 147.214798 186.373565 
L 149.016111 189.128348 
L 149.873879 191.88313 
L 150.924645 194.637913 
L 155.567316 197.392696 
L 155.856812 200.147478 
L 157.261408 202.902261 
L 157.604515 202.902261 
L 159.105609 205.657043 
L 164.337996 205.657043 
L 164.788324 208.411826 
L 167.147186 211.166609 
L 167.286574 213.921391 
L 167.46885 213.921391 
L 169.484605 216.676174 
L 169.591826 219.430957 
L 170.07432 222.185739 
L 170.8892 224.940522 
L 171.339529 227.695304 
L 172.411739 230.450087 
L 174.920711 233.20487 
L 176.593359 233.20487 
L 180.238874 233.20487 
L 181.429027 235.959652 
L 183.852222 238.714435 
L 188.248284 241.469217 
L 191.893799 244.224 
L 193.073231 246.978783 
L 195.174763 249.733565 
L 197.597958 252.488348 
L 198.155507 255.24313 
L 198.981109 255.24313 
L 201.661635 257.997913 
L 202.583736 260.752696 
L 202.819622 260.752696 
L 203.741723 260.752696 
L 207.215684 263.507478 
L 207.408682 266.262261 
L 209.349382 269.017043 
L 210.046319 271.771826 
L 210.721812 274.526609 
L 217.830566 274.526609 
L 218.902776 277.281391 
L 222.108685 280.036174 
L 229.313937 282.790957 
L 229.796432 285.545739 
L 236.680022 288.300522 
L 250.404313 291.055304 
L 251.390747 293.810087 
L 251.530134 296.56487 
L 258.628166 299.319652 
L 265.286592 299.319652 
L 269.264492 299.319652 
L 270.32598 299.319652 
L 277.231014 302.074435 
L 301.194913 304.829217 
L 315.734085 304.829217 
L 323.850716 304.829217 
L 329.372599 304.829217 
L 343.868882 304.829217 
L 348.125557 304.829217 
L 398.487273 307.584 
L 398.487273 304.829217 
L 398.487273 304.829217 
L 348.125557 302.074435 
L 343.868882 299.319652 
L 329.372599 296.56487 
L 323.850716 293.810087 
L 315.734085 291.055304 
L 301.194913 288.300522 
L 277.231014 285.545739 
L 270.32598 282.790957 
L 269.264492 280.036174 
L 265.286592 277.281391 
L 258.628166 274.526609 
L 251.530134 271.771826 
L 251.390747 269.017043 
L 250.404313 266.262261 
L 236.680022 263.507478 
L 229.796432 260.752696 
L 229.313937 257.997913 
L 222.108685 255.24313 
L 218.902776 252.488348 
L 217.830566 249.733565 
L 210.721812 246.978783 
L 210.046319 244.224 
L 209.349382 241.469217 
L 207.408682 238.714435 
L 207.215684 235.959652 
L 203.741723 233.20487 
L 202.819622 230.450087 
L 202.583736 227.695304 
L 201.661635 224.940522 
L 198.981109 222.185739 
L 198.155507 219.430957 
L 197.597958 216.676174 
L 195.174763 213.921391 
L 193.073231 211.166609 
L 191.893799 208.411826 
L 188.248284 205.657043 
L 183.852222 202.902261 
L 181.429027 200.147478 
L 180.238874 197.392696 
L 176.593359 194.637913 
L 174.920711 191.88313 
L 172.411739 189.128348 
L 171.339529 186.373565 
L 170.8892 183.618783 
L 170.07432 180.864 
L 169.591826 178.109217 
L 169.484605 175.354435 
L 167.46885 172.599652 
L 167.286574 169.84487 
L 167.147186 167.090087 
L 164.788324 164.335304 
L 164.337996 161.580522 
L 159.105609 158.825739 
L 157.604515 156.070957 
L 157.261408 153.316174 
L 155.856812 150.561391 
L 155.567316 147.806609 
L 150.924645 145.051826 
L 149.873879 142.297043 
L 149.016111 139.542261 
L 147.214798 136.787478 
L 146.088977 134.032696 
L 145.349152 131.277913 
L 145.316985 128.52313 
L 145.274097 125.768348 
L 140.856591 123.013565 
L 140.331208 120.258783 
L 138.905168 117.504 
L 137.018078 114.749217 
L 135.313264 111.994435 
L 134.627049 109.239652 
L 134.584161 106.48487 
L 134.219609 103.730087 
L 133.168843 100.975304 
L 131.335364 98.220522 
L 128.129455 95.465739 
L 127.604072 92.710957 
L 125.631205 89.956174 
L 116.270809 87.201391 
L 115.884814 84.446609 
L 110.502318 81.691826 
L 109.580217 78.937043 
L 97.839515 76.182261 
L 95.544985 73.427478 
L 94.151112 70.672696 
L 92.553518 70.672696 
L 91.953081 67.917913 
L 84.501219 67.917913 
L 84.14739 65.16313 
L 82.882182 62.408348 
L 73.832727 62.408348 
z
" clip-path="url(#pa59d31fc5d)" style="fill: #7cfc00"/>
   </g>
   <g id="PolyCollection_3">
    <path d="M 73.832727 54.144 
L 73.832727 62.408348 
L 82.882182 62.408348 
L 84.14739 65.16313 
L 84.501219 67.917913 
L 91.953081 67.917913 
L 92.553518 70.672696 
L 94.151112 70.672696 
L 95.544985 73.427478 
L 97.839515 76.182261 
L 109.580217 78.937043 
L 110.502318 81.691826 
L 115.884814 84.446609 
L 116.270809 87.201391 
L 125.631205 89.956174 
L 127.604072 92.710957 
L 128.129455 95.465739 
L 131.335364 98.220522 
L 133.168843 100.975304 
L 134.219609 103.730087 
L 134.584161 106.48487 
L 134.627049 109.239652 
L 135.313264 111.994435 
L 137.018078 114.749217 
L 138.905168 117.504 
L 140.331208 120.258783 
L 140.856591 123.013565 
L 145.274097 125.768348 
L 145.316985 128.52313 
L 145.349152 131.277913 
L 146.088977 134.032696 
L 147.214798 136.787478 
L 149.016111 139.542261 
L 149.873879 142.297043 
L 150.924645 145.051826 
L 155.567316 147.806609 
L 155.856812 150.561391 
L 157.261408 153.316174 
L 157.604515 156.070957 
L 159.105609 158.825739 
L 164.337996 161.580522 
L 164.788324 164.335304 
L 167.147186 167.090087 
L 167.286574 169.84487 
L 167.46885 172.599652 
L 169.484605 175.354435 
L 169.591826 178.109217 
L 170.07432 180.864 
L 170.8892 183.618783 
L 171.339529 186.373565 
L 172.411739 189.128348 
L 174.920711 191.88313 
L 176.593359 194.637913 
L 180.238874 197.392696 
L 181.429027 200.147478 
L 183.852222 202.902261 
L 188.248284 205.657043 
L 191.893799 208.411826 
L 193.073231 211.166609 
L 195.174763 213.921391 
L 197.597958 216.676174 
L 198.155507 219.430957 
L 198.981109 222.185739 
L 201.661635 224.940522 
L 202.583736 227.695304 
L 202.819622 230.450087 
L 203.741723 233.20487 
L 207.215684 235.959652 
L 207.408682 238.714435 
L 209.349382 241.469217 
L 210.046319 244.224 
L 210.721812 246.978783 
L 217.830566 249.733565 
L 218.902776 252.488348 
L 222.108685 255.24313 
L 229.313937 257.997913 
L 229.796432 260.752696 
L 236.680022 263.507478 
L 250.404313 266.262261 
L 251.390747 269.017043 
L 251.530134 271.771826 
L 258.628166 274.526609 
L 265.286592 277.281391 
L 269.264492 280.036174 
L 270.32598 282.790957 
L 277.231014 285.545739 
L 301.194913 288.300522 
L 315.734085 291.055304 
L 323.850716 293.810087 
L 329.372599 296.56487 
L 343.868882 299.319652 
L 348.125557 302.074435 
L 398.487273 304.829217 
L 398.487273 304.829217 
L 398.487273 304.829217 
L 348.125557 302.074435 
L 343.868882 299.319652 
L 329.372599 296.56487 
L 323.850716 293.810087 
L 315.734085 291.055304 
L 301.194913 288.300522 
L 277.231014 285.545739 
L 270.32598 282.790957 
L 269.264492 280.036174 
L 265.286592 277.281391 
L 258.628166 274.526609 
L 251.530134 271.771826 
L 251.390747 269.017043 
L 250.404313 266.262261 
L 236.680022 263.507478 
L 229.796432 260.752696 
L 229.313937 257.997913 
L 222.108685 255.24313 
L 218.902776 252.488348 
L 217.830566 249.733565 
L 210.721812 246.978783 
L 210.046319 244.224 
L 209.349382 241.469217 
L 207.408682 238.714435 
L 207.215684 235.959652 
L 203.741723 233.20487 
L 202.819622 230.450087 
L 202.583736 227.695304 
L 201.661635 224.940522 
L 198.981109 222.185739 
L 198.155507 219.430957 
L 197.597958 216.676174 
L 195.174763 213.921391 
L 193.073231 211.166609 
L 191.893799 208.411826 
L 188.248284 205.657043 
L 183.852222 202.902261 
L 181.429027 200.147478 
L 180.238874 197.392696 
L 176.593359 194.637913 
L 174.920711 191.88313 
L 172.411739 189.128348 
L 171.339529 186.373565 
L 170.8892 183.618783 
L 170.07432 180.864 
L 169.591826 178.109217 
L 169.484605 175.354435 
L 167.46885 172.599652 
L 167.286574 169.84487 
L 167.147186 167.090087 
L 164.788324 164.335304 
L 164.337996 161.580522 
L 159.105609 158.825739 
L 157.604515 156.070957 
L 157.261408 153.316174 
L 155.856812 150.561391 
L 155.567316 147.806609 
L 150.924645 145.051826 
L 149.873879 142.297043 
L 149.016111 139.542261 
L 147.214798 136.787478 
L 146.088977 134.032696 
L 145.349152 131.277913 
L 145.316985 128.52313 
L 145.274097 125.768348 
L 140.856591 123.013565 
L 140.331208 120.258783 
L 138.905168 117.504 
L 137.018078 114.749217 
L 135.313264 111.994435 
L 134.627049 109.239652 
L 134.584161 106.48487 
L 134.219609 103.730087 
L 133.168843 100.975304 
L 131.335364 98.220522 
L 128.129455 95.465739 
L 127.604072 92.710957 
L 125.631205 89.956174 
L 116.270809 87.201391 
L 115.884814 84.446609 
L 110.502318 81.691826 
L 109.580217 78.937043 
L 97.839515 76.182261 
L 95.544985 73.427478 
L 94.151112 70.672696 
L 92.553518 67.917913 
L 91.953081 65.16313 
L 84.501219 62.408348 
L 84.14739 59.653565 
L 82.882182 56.898783 
L 73.832727 54.144 
z
" clip-path="url(#pa59d31fc5d)" style="fill: #ff0000"/>
   </g>
   <g id="matplotlib.axis_1">
    <g id="xtick_1">
     <g id="line2d_1">
      <defs>
       <path id="mb0a3041b8c" d="M 0 0 
L 0 3.5 
" style="stroke: #000000; stroke-width: 0.8"/>
      </defs>
      <g>
       <use xlink:href="#mb0a3041b8c" x="92.414131" y="307.584" style="stroke: #000000; stroke-width: 0.8"/>
      </g>
     </g>
     <g id="text_1">
      <!-- 50 -->
      <g transform="translate(86.051631 322.182437) scale(0.1 -0.1)">
       <defs>
        <path id="DejaVuSans-35" d="M 691 4666 
L 3169 4666 
L 3169 4134 
L 1269 4134 
L 1269 2991 
Q 1406 3038 1543 3061 
Q 1681 3084 1819 3084 
Q 2600 3084 3056 2656 
Q 3513 2228 3513 1497 
Q 3513 744 3044 326 
Q 2575 -91 1722 -91 
Q 1428 -91 1123 -41 
Q 819 9 494 109 
L 494 744 
Q 775 591 1075 516 
Q 1375 441 1709 441 
Q 2250 441 2565 725 
Q 2881 1009 2881 1497 
Q 2881 1984 2565 2268 
Q 2250 2553 1709 2553 
Q 1456 2553 1204 2497 
Q 953 2441 691 2322 
L 691 4666 
z
" transform="scale(0.015625)"/>
        <path id="DejaVuSans-30" d="M 2034 4250 
Q 1547 4250 1301 3770 
Q 1056 3291 1056 2328 
Q 1056 1369 1301 889 
Q 1547 409 2034 409 
Q 2525 409 2770 889 
Q 3016 1369 3016 2328 
Q 3016 3291 2770 3770 
Q 2525 4250 2034 4250 
z
M 2034 4750 
Q 2819 4750 3233 4129 
Q 3647 3509 3647 2328 
Q 3647 1150 3233 529 
Q 2819 -91 2034 -91 
Q 1250 -91 836 529 
Q 422 1150 422 2328 
Q 422 3509 836 4129 
Q 1250 4750 2034 4750 
z
" transform="scale(0.015625)"/>
       </defs>
       <use xlink:href="#DejaVuSans-35"/>
       <use xlink:href="#DejaVuSans-30" x="63.623047"/>
      </g>
     </g>
    </g>
    <g id="xtick_2">
     <g id="line2d_2">
      <g>
       <use xlink:href="#mb0a3041b8c" x="146.024644" y="307.584" style="stroke: #000000; stroke-width: 0.8"/>
      </g>
     </g>
     <g id="text_2">
      <!-- 100 -->
      <g transform="translate(136.480894 322.182437) scale(0.1 -0.1)">
       <defs>
        <path id="DejaVuSans-31" d="M 794 531 
L 1825 531 
L 1825 4091 
L 703 3866 
L 703 4441 
L 1819 4666 
L 2450 4666 
L 2450 531 
L 3481 531 
L 3481 0 
L 794 0 
L 794 531 
z
" transform="scale(0.015625)"/>
       </defs>
       <use xlink:href="#DejaVuSans-31"/>
       <use xlink:href="#DejaVuSans-30" x="63.623047"/>
       <use xlink:href="#DejaVuSans-30" x="127.246094"/>
      </g>
     </g>
    </g>
    <g id="xtick_3">
     <g id="line2d_3">
      <g>
       <use xlink:href="#mb0a3041b8c" x="199.635157" y="307.584" style="stroke: #000000; stroke-width: 0.8"/>
      </g>
     </g>
     <g id="text_3">
      <!-- 150 -->
      <g transform="translate(190.091407 322.182437) scale(0.1 -0.1)">
       <use xlink:href="#DejaVuSans-31"/>
       <use xlink:href="#DejaVuSans-35" x="63.623047"/>
       <use xlink:href="#DejaVuSans-30" x="127.246094"/>
      </g>
     </g>
    </g>
    <g id="xtick_4">
     <g id="line2d_4">
      <g>
       <use xlink:href="#mb0a3041b8c" x="253.245671" y="307.584" style="stroke: #000000; stroke-width: 0.8"/>
      </g>
     </g>
     <g id="text_4">
      <!-- 200 -->
      <g transform="translate(243.701921 322.182437) scale(0.1 -0.1)">
       <defs>
        <path id="DejaVuSans-32" d="M 1228 531 
L 3431 531 
L 3431 0 
L 469 0 
L 469 531 
Q 828 903 1448 1529 
Q 2069 2156 2228 2338 
Q 2531 2678 2651 2914 
Q 2772 3150 2772 3378 
Q 2772 3750 2511 3984 
Q 2250 4219 1831 4219 
Q 1534 4219 1204 4116 
Q 875 4013 500 3803 
L 500 4441 
Q 881 4594 1212 4672 
Q 1544 4750 1819 4750 
Q 2544 4750 2975 4387 
Q 3406 4025 3406 3419 
Q 3406 3131 3298 2873 
Q 3191 2616 2906 2266 
Q 2828 2175 2409 1742 
Q 1991 1309 1228 531 
z
" transform="scale(0.015625)"/>
       </defs>
       <use xlink:href="#DejaVuSans-32"/>
       <use xlink:href="#DejaVuSans-30" x="63.623047"/>
       <use xlink:href="#DejaVuSans-30" x="127.246094"/>
      </g>
     </g>
    </g>
    <g id="xtick_5">
     <g id="line2d_5">
      <g>
       <use xlink:href="#mb0a3041b8c" x="306.856184" y="307.584" style="stroke: #000000; stroke-width: 0.8"/>
      </g>
     </g>
     <g id="text_5">
      <!-- 250 -->
      <g transform="translate(297.312434 322.182437) scale(0.1 -0.1)">
       <use xlink:href="#DejaVuSans-32"/>
       <use xlink:href="#DejaVuSans-35" x="63.623047"/>
       <use xlink:href="#DejaVuSans-30" x="127.246094"/>
      </g>
     </g>
    </g>
    <g id="xtick_6">
     <g id="line2d_6">
      <g>
       <use xlink:href="#mb0a3041b8c" x="360.466697" y="307.584" style="stroke: #000000; stroke-width: 0.8"/>
      </g>
     </g>
     <g id="text_6">
      <!-- 300 -->
      <g transform="translate(350.922947 322.182437) scale(0.1 -0.1)">
       <defs>
        <path id="DejaVuSans-33" d="M 2597 2516 
Q 3050 2419 3304 2112 
Q 3559 1806 3559 1356 
Q 3559 666 3084 287 
Q 2609 -91 1734 -91 
Q 1441 -91 1130 -33 
Q 819 25 488 141 
L 488 750 
Q 750 597 1062 519 
Q 1375 441 1716 441 
Q 2309 441 2620 675 
Q 2931 909 2931 1356 
Q 2931 1769 2642 2001 
Q 2353 2234 1838 2234 
L 1294 2234 
L 1294 2753 
L 1863 2753 
Q 2328 2753 2575 2939 
Q 2822 3125 2822 3475 
Q 2822 3834 2567 4026 
Q 2313 4219 1838 4219 
Q 1578 4219 1281 4162 
Q 984 4106 628 3988 
L 628 4550 
Q 988 4650 1302 4700 
Q 1616 4750 1894 4750 
Q 2613 4750 3031 4423 
Q 3450 4097 3450 3541 
Q 3450 3153 3228 2886 
Q 3006 2619 2597 2516 
z
" transform="scale(0.015625)"/>
       </defs>
       <use xlink:href="#DejaVuSans-33"/>
       <use xlink:href="#DejaVuSans-30" x="63.623047"/>
       <use xlink:href="#DejaVuSans-30" x="127.246094"/>
      </g>
     </g>
    </g>
    <g id="xtick_7">
     <g id="line2d_7">
      <g>
       <use xlink:href="#mb0a3041b8c" x="414.07721" y="307.584" style="stroke: #000000; stroke-width: 0.8"/>
      </g>
     </g>
     <g id="text_7">
      <!-- 350 -->
      <g transform="translate(404.53346 322.182437) scale(0.1 -0.1)">
       <use xlink:href="#DejaVuSans-33"/>
       <use xlink:href="#DejaVuSans-35" x="63.623047"/>
       <use xlink:href="#DejaVuSans-30" x="127.246094"/>
      </g>
     </g>
    </g>
    <g id="text_8">
     <!-- Score -->
     <g transform="translate(222.157656 335.860562) scale(0.1 -0.1)">
      <defs>
       <path id="DejaVuSans-53" d="M 3425 4513 
L 3425 3897 
Q 3066 4069 2747 4153 
Q 2428 4238 2131 4238 
Q 1616 4238 1336 4038 
Q 1056 3838 1056 3469 
Q 1056 3159 1242 3001 
Q 1428 2844 1947 2747 
L 2328 2669 
Q 3034 2534 3370 2195 
Q 3706 1856 3706 1288 
Q 3706 609 3251 259 
Q 2797 -91 1919 -91 
Q 1588 -91 1214 -16 
Q 841 59 441 206 
L 441 856 
Q 825 641 1194 531 
Q 1563 422 1919 422 
Q 2459 422 2753 634 
Q 3047 847 3047 1241 
Q 3047 1584 2836 1778 
Q 2625 1972 2144 2069 
L 1759 2144 
Q 1053 2284 737 2584 
Q 422 2884 422 3419 
Q 422 4038 858 4394 
Q 1294 4750 2059 4750 
Q 2388 4750 2728 4690 
Q 3069 4631 3425 4513 
z
" transform="scale(0.015625)"/>
       <path id="DejaVuSans-63" d="M 3122 3366 
L 3122 2828 
Q 2878 2963 2633 3030 
Q 2388 3097 2138 3097 
Q 1578 3097 1268 2742 
Q 959 2388 959 1747 
Q 959 1106 1268 751 
Q 1578 397 2138 397 
Q 2388 397 2633 464 
Q 2878 531 3122 666 
L 3122 134 
Q 2881 22 2623 -34 
Q 2366 -91 2075 -91 
Q 1284 -91 818 406 
Q 353 903 353 1747 
Q 353 2603 823 3093 
Q 1294 3584 2113 3584 
Q 2378 3584 2631 3529 
Q 2884 3475 3122 3366 
z
" transform="scale(0.015625)"/>
       <path id="DejaVuSans-6f" d="M 1959 3097 
Q 1497 3097 1228 2736 
Q 959 2375 959 1747 
Q 959 1119 1226 758 
Q 1494 397 1959 397 
Q 2419 397 2687 759 
Q 2956 1122 2956 1747 
Q 2956 2369 2687 2733 
Q 2419 3097 1959 3097 
z
M 1959 3584 
Q 2709 3584 3137 3096 
Q 3566 2609 3566 1747 
Q 3566 888 3137 398 
Q 2709 -91 1959 -91 
Q 1206 -91 779 398 
Q 353 888 353 1747 
Q 353 2609 779 3096 
Q 1206 3584 1959 3584 
z
" transform="scale(0.015625)"/>
       <path id="DejaVuSans-72" d="M 2631 2963 
Q 2534 3019 2420 3045 
Q 2306 3072 2169 3072 
Q 1681 3072 1420 2755 
Q 1159 2438 1159 1844 
L 1159 0 
L 581 0 
L 581 3500 
L 1159 3500 
L 1159 2956 
Q 1341 3275 1631 3429 
Q 1922 3584 2338 3584 
Q 2397 3584 2469 3576 
Q 2541 3569 2628 3553 
L 2631 2963 
z
" transform="scale(0.015625)"/>
       <path id="DejaVuSans-65" d="M 3597 1894 
L 3597 1613 
L 953 1613 
Q 991 1019 1311 708 
Q 1631 397 2203 397 
Q 2534 397 2845 478 
Q 3156 559 3463 722 
L 3463 178 
Q 3153 47 2828 -22 
Q 2503 -91 2169 -91 
Q 1331 -91 842 396 
Q 353 884 353 1716 
Q 353 2575 817 3079 
Q 1281 3584 2069 3584 
Q 2775 3584 3186 3129 
Q 3597 2675 3597 1894 
z
M 3022 2063 
Q 3016 2534 2758 2815 
Q 2500 3097 2075 3097 
Q 1594 3097 1305 2825 
Q 1016 2553 972 2059 
L 3022 2063 
z
" transform="scale(0.015625)"/>
      </defs>
      <use xlink:href="#DejaVuSans-53"/>
      <use xlink:href="#DejaVuSans-63" x="63.476562"/>
      <use xlink:href="#DejaVuSans-6f" x="118.457031"/>
      <use xlink:href="#DejaVuSans-72" x="179.638672"/>
      <use xlink:href="#DejaVuSans-65" x="218.501953"/>
     </g>
    </g>
   </g>
   <g id="matplotlib.axis_2">
    <g id="ytick_1">
     <g id="line2d_8">
      <defs>
       <path id="m98211c5e3c" d="M 0 0 
L -3.5 0 
" style="stroke: #000000; stroke-width: 0.8"/>
      </defs>
      <g>
       <use xlink:href="#m98211c5e3c" x="57.6" y="307.584" style="stroke: #000000; stroke-width: 0.8"/>
      </g>
     </g>
     <g id="text_9">
      <!-- 0 -->
      <g transform="translate(44.2375 311.383219) scale(0.1 -0.1)">
       <use xlink:href="#DejaVuSans-30"/>
      </g>
     </g>
    </g>
    <g id="ytick_2">
     <g id="line2d_9">
      <g>
       <use xlink:href="#m98211c5e3c" x="57.6" y="252.488348" style="stroke: #000000; stroke-width: 0.8"/>
      </g>
     </g>
     <g id="text_10">
      <!-- 20 -->
      <g transform="translate(37.875 256.287567) scale(0.1 -0.1)">
       <use xlink:href="#DejaVuSans-32"/>
       <use xlink:href="#DejaVuSans-30" x="63.623047"/>
      </g>
     </g>
    </g>
    <g id="ytick_3">
     <g id="line2d_10">
      <g>
       <use xlink:href="#m98211c5e3c" x="57.6" y="197.392696" style="stroke: #000000; stroke-width: 0.8"/>
      </g>
     </g>
     <g id="text_11">
      <!-- 40 -->
      <g transform="translate(37.875 201.191914) scale(0.1 -0.1)">
       <defs>
        <path id="DejaVuSans-34" d="M 2419 4116 
L 825 1625 
L 2419 1625 
L 2419 4116 
z
M 2253 4666 
L 3047 4666 
L 3047 1625 
L 3713 1625 
L 3713 1100 
L 3047 1100 
L 3047 0 
L 2419 0 
L 2419 1100 
L 313 1100 
L 313 1709 
L 2253 4666 
z
" transform="scale(0.015625)"/>
       </defs>
       <use xlink:href="#DejaVuSans-34"/>
       <use xlink:href="#DejaVuSans-30" x="63.623047"/>
      </g>
     </g>
    </g>
    <g id="ytick_4">
     <g id="line2d_11">
      <g>
       <use xlink:href="#m98211c5e3c" x="57.6" y="142.297043" style="stroke: #000000; stroke-width: 0.8"/>
      </g>
     </g>
     <g id="text_12">
      <!-- 60 -->
      <g transform="translate(37.875 146.096262) scale(0.1 -0.1)">
       <defs>
        <path id="DejaVuSans-36" d="M 2113 2584 
Q 1688 2584 1439 2293 
Q 1191 2003 1191 1497 
Q 1191 994 1439 701 
Q 1688 409 2113 409 
Q 2538 409 2786 701 
Q 3034 994 3034 1497 
Q 3034 2003 2786 2293 
Q 2538 2584 2113 2584 
z
M 3366 4563 
L 3366 3988 
Q 3128 4100 2886 4159 
Q 2644 4219 2406 4219 
Q 1781 4219 1451 3797 
Q 1122 3375 1075 2522 
Q 1259 2794 1537 2939 
Q 1816 3084 2150 3084 
Q 2853 3084 3261 2657 
Q 3669 2231 3669 1497 
Q 3669 778 3244 343 
Q 2819 -91 2113 -91 
Q 1303 -91 875 529 
Q 447 1150 447 2328 
Q 447 3434 972 4092 
Q 1497 4750 2381 4750 
Q 2619 4750 2861 4703 
Q 3103 4656 3366 4563 
z
" transform="scale(0.015625)"/>
       </defs>
       <use xlink:href="#DejaVuSans-36"/>
       <use xlink:href="#DejaVuSans-30" x="63.623047"/>
      </g>
     </g>
    </g>
    <g id="ytick_5">
     <g id="line2d_12">
      <g>
       <use xlink:href="#m98211c5e3c" x="57.6" y="87.201391" style="stroke: #000000; stroke-width: 0.8"/>
      </g>
     </g>
     <g id="text_13">
      <!-- 80 -->
      <g transform="translate(37.875 91.00061) scale(0.1 -0.1)">
       <defs>
        <path id="DejaVuSans-38" d="M 2034 2216 
Q 1584 2216 1326 1975 
Q 1069 1734 1069 1313 
Q 1069 891 1326 650 
Q 1584 409 2034 409 
Q 2484 409 2743 651 
Q 3003 894 3003 1313 
Q 3003 1734 2745 1975 
Q 2488 2216 2034 2216 
z
M 1403 2484 
Q 997 2584 770 2862 
Q 544 3141 544 3541 
Q 544 4100 942 4425 
Q 1341 4750 2034 4750 
Q 2731 4750 3128 4425 
Q 3525 4100 3525 3541 
Q 3525 3141 3298 2862 
Q 3072 2584 2669 2484 
Q 3125 2378 3379 2068 
Q 3634 1759 3634 1313 
Q 3634 634 3220 271 
Q 2806 -91 2034 -91 
Q 1263 -91 848 271 
Q 434 634 434 1313 
Q 434 1759 690 2068 
Q 947 2378 1403 2484 
z
M 1172 3481 
Q 1172 3119 1398 2916 
Q 1625 2713 2034 2713 
Q 2441 2713 2670 2916 
Q 2900 3119 2900 3481 
Q 2900 3844 2670 4047 
Q 2441 4250 2034 4250 
Q 1625 4250 1398 4047 
Q 1172 3844 1172 3481 
z
" transform="scale(0.015625)"/>
       </defs>
       <use xlink:href="#DejaVuSans-38"/>
       <use xlink:href="#DejaVuSans-30" x="63.623047"/>
      </g>
     </g>
    </g>
    <g id="text_14">
     <!-- Number of crosslinks -->
     <g transform="translate(31.795312 227.019406) rotate(-90) scale(0.1 -0.1)">
      <defs>
       <path id="DejaVuSans-4e" d="M 628 4666 
L 1478 4666 
L 3547 763 
L 3547 4666 
L 4159 4666 
L 4159 0 
L 3309 0 
L 1241 3903 
L 1241 0 
L 628 0 
L 628 4666 
z
" transform="scale(0.015625)"/>
       <path id="DejaVuSans-75" d="M 544 1381 
L 544 3500 
L 1119 3500 
L 1119 1403 
Q 1119 906 1312 657 
Q 1506 409 1894 409 
Q 2359 409 2629 706 
Q 2900 1003 2900 1516 
L 2900 3500 
L 3475 3500 
L 3475 0 
L 2900 0 
L 2900 538 
Q 2691 219 2414 64 
Q 2138 -91 1772 -91 
Q 1169 -91 856 284 
Q 544 659 544 1381 
z
M 1991 3584 
L 1991 3584 
z
" transform="scale(0.015625)"/>
       <path id="DejaVuSans-6d" d="M 3328 2828 
Q 3544 3216 3844 3400 
Q 4144 3584 4550 3584 
Q 5097 3584 5394 3201 
Q 5691 2819 5691 2113 
L 5691 0 
L 5113 0 
L 5113 2094 
Q 5113 2597 4934 2840 
Q 4756 3084 4391 3084 
Q 3944 3084 3684 2787 
Q 3425 2491 3425 1978 
L 3425 0 
L 2847 0 
L 2847 2094 
Q 2847 2600 2669 2842 
Q 2491 3084 2119 3084 
Q 1678 3084 1418 2786 
Q 1159 2488 1159 1978 
L 1159 0 
L 581 0 
L 581 3500 
L 1159 3500 
L 1159 2956 
Q 1356 3278 1631 3431 
Q 1906 3584 2284 3584 
Q 2666 3584 2933 3390 
Q 3200 3197 3328 2828 
z
" transform="scale(0.015625)"/>
       <path id="DejaVuSans-62" d="M 3116 1747 
Q 3116 2381 2855 2742 
Q 2594 3103 2138 3103 
Q 1681 3103 1420 2742 
Q 1159 2381 1159 1747 
Q 1159 1113 1420 752 
Q 1681 391 2138 391 
Q 2594 391 2855 752 
Q 3116 1113 3116 1747 
z
M 1159 2969 
Q 1341 3281 1617 3432 
Q 1894 3584 2278 3584 
Q 2916 3584 3314 3078 
Q 3713 2572 3713 1747 
Q 3713 922 3314 415 
Q 2916 -91 2278 -91 
Q 1894 -91 1617 61 
Q 1341 213 1159 525 
L 1159 0 
L 581 0 
L 581 4863 
L 1159 4863 
L 1159 2969 
z
" transform="scale(0.015625)"/>
       <path id="DejaVuSans-20" transform="scale(0.015625)"/>
       <path id="DejaVuSans-66" d="M 2375 4863 
L 2375 4384 
L 1825 4384 
Q 1516 4384 1395 4259 
Q 1275 4134 1275 3809 
L 1275 3500 
L 2222 3500 
L 2222 3053 
L 1275 3053 
L 1275 0 
L 697 0 
L 697 3053 
L 147 3053 
L 147 3500 
L 697 3500 
L 697 3744 
Q 697 4328 969 4595 
Q 1241 4863 1831 4863 
L 2375 4863 
z
" transform="scale(0.015625)"/>
       <path id="DejaVuSans-73" d="M 2834 3397 
L 2834 2853 
Q 2591 2978 2328 3040 
Q 2066 3103 1784 3103 
Q 1356 3103 1142 2972 
Q 928 2841 928 2578 
Q 928 2378 1081 2264 
Q 1234 2150 1697 2047 
L 1894 2003 
Q 2506 1872 2764 1633 
Q 3022 1394 3022 966 
Q 3022 478 2636 193 
Q 2250 -91 1575 -91 
Q 1294 -91 989 -36 
Q 684 19 347 128 
L 347 722 
Q 666 556 975 473 
Q 1284 391 1588 391 
Q 1994 391 2212 530 
Q 2431 669 2431 922 
Q 2431 1156 2273 1281 
Q 2116 1406 1581 1522 
L 1381 1569 
Q 847 1681 609 1914 
Q 372 2147 372 2553 
Q 372 3047 722 3315 
Q 1072 3584 1716 3584 
Q 2034 3584 2315 3537 
Q 2597 3491 2834 3397 
z
" transform="scale(0.015625)"/>
       <path id="DejaVuSans-6c" d="M 603 4863 
L 1178 4863 
L 1178 0 
L 603 0 
L 603 4863 
z
" transform="scale(0.015625)"/>
       <path id="DejaVuSans-69" d="M 603 3500 
L 1178 3500 
L 1178 0 
L 603 0 
L 603 3500 
z
M 603 4863 
L 1178 4863 
L 1178 4134 
L 603 4134 
L 603 4863 
z
" transform="scale(0.015625)"/>
       <path id="DejaVuSans-6e" d="M 3513 2113 
L 3513 0 
L 2938 0 
L 2938 2094 
Q 2938 2591 2744 2837 
Q 2550 3084 2163 3084 
Q 1697 3084 1428 2787 
Q 1159 2491 1159 1978 
L 1159 0 
L 581 0 
L 581 3500 
L 1159 3500 
L 1159 2956 
Q 1366 3272 1645 3428 
Q 1925 3584 2291 3584 
Q 2894 3584 3203 3211 
Q 3513 2838 3513 2113 
z
" transform="scale(0.015625)"/>
       <path id="DejaVuSans-6b" d="M 581 4863 
L 1159 4863 
L 1159 1991 
L 2875 3500 
L 3609 3500 
L 1753 1863 
L 3688 0 
L 2938 0 
L 1159 1709 
L 1159 0 
L 581 0 
L 581 4863 
z
" transform="scale(0.015625)"/>
      </defs>
      <use xlink:href="#DejaVuSans-4e"/>
      <use xlink:href="#DejaVuSans-75" x="74.804688"/>
      <use xlink:href="#DejaVuSans-6d" x="138.183594"/>
      <use xlink:href="#DejaVuSans-62" x="235.595703"/>
      <use xlink:href="#DejaVuSans-65" x="299.072266"/>
      <use xlink:href="#DejaVuSans-72" x="360.595703"/>
      <use xlink:href="#DejaVuSans-20" x="401.708984"/>
      <use xlink:href="#DejaVuSans-6f" x="433.496094"/>
      <use xlink:href="#DejaVuSans-66" x="494.677734"/>
      <use xlink:href="#DejaVuSans-20" x="529.882812"/>
      <use xlink:href="#DejaVuSans-63" x="561.669922"/>
      <use xlink:href="#DejaVuSans-72" x="616.650391"/>
      <use xlink:href="#DejaVuSans-6f" x="655.513672"/>
      <use xlink:href="#DejaVuSans-73" x="716.695312"/>
      <use xlink:href="#DejaVuSans-73" x="768.794922"/>
      <use xlink:href="#DejaVuSans-6c" x="820.894531"/>
      <use xlink:href="#DejaVuSans-69" x="848.677734"/>
      <use xlink:href="#DejaVuSans-6e" x="876.460938"/>
      <use xlink:href="#DejaVuSans-6b" x="939.839844"/>
      <use xlink:href="#DejaVuSans-73" x="997.75"/>
     </g>
    </g>
   </g>
   <g id="patch_3">
    <path d="M 57.6 307.584 
L 57.6 41.472 
" style="fill: none; stroke: #000000; stroke-width: 0.8; stroke-linejoin: miter; stroke-linecap: square"/>
   </g>
   <g id="patch_4">
    <path d="M 414.72 307.584 
L 414.72 41.472 
" style="fill: none; stroke: #000000; stroke-width: 0.8; stroke-linejoin: miter; stroke-linecap: square"/>
   </g>
   <g id="patch_5">
    <path d="M 57.6 307.584 
L 414.72 307.584 
" style="fill: none; stroke: #000000; stroke-width: 0.8; stroke-linejoin: miter; stroke-linecap: square"/>
   </g>
   <g id="patch_6">
    <path d="M 57.6 41.472 
L 414.72 41.472 
" style="fill: none; stroke: #000000; stroke-width: 0.8; stroke-linejoin: miter; stroke-linecap: square"/>
   </g>
   <g id="legend_1">
    <g id="patch_7">
     <path d="M 293.087188 93.506375 
L 407.72 93.506375 
Q 409.72 93.506375 409.72 91.506375 
L 409.72 48.472 
Q 409.72 46.472 407.72 46.472 
L 293.087188 46.472 
Q 291.087188 46.472 291.087188 48.472 
L 291.087188 91.506375 
Q 291.087188 93.506375 293.087188 93.506375 
z
" style="fill: #ffffff; opacity: 0.8; stroke: #cccccc; stroke-linejoin: miter"/>
    </g>
    <g id="patch_8">
     <path d="M 295.087188 58.070438 
L 315.087188 58.070438 
L 315.087188 51.070438 
L 295.087188 51.070438 
z
" style="fill: #008000"/>
    </g>
    <g id="text_15">
     <!-- true -->
     <g transform="translate(323.087188 58.070438) scale(0.1 -0.1)">
      <defs>
       <path id="DejaVuSans-74" d="M 1172 4494 
L 1172 3500 
L 2356 3500 
L 2356 3053 
L 1172 3053 
L 1172 1153 
Q 1172 725 1289 603 
Q 1406 481 1766 481 
L 2356 481 
L 2356 0 
L 1766 0 
Q 1100 0 847 248 
Q 594 497 594 1153 
L 594 3053 
L 172 3053 
L 172 3500 
L 594 3500 
L 594 4494 
L 1172 4494 
z
" transform="scale(0.015625)"/>
      </defs>
      <use xlink:href="#DejaVuSans-74"/>
      <use xlink:href="#DejaVuSans-72" x="39.208984"/>
      <use xlink:href="#DejaVuSans-75" x="80.322266"/>
      <use xlink:href="#DejaVuSans-65" x="143.701172"/>
     </g>
    </g>
    <g id="patch_9">
     <path d="M 295.087188 72.748563 
L 315.087188 72.748563 
L 315.087188 65.748563 
L 295.087188 65.748563 
z
" style="fill: #7cfc00"/>
    </g>
    <g id="text_16">
     <!-- true homeotypic -->
     <g transform="translate(323.087188 72.748563) scale(0.1 -0.1)">
      <defs>
       <path id="DejaVuSans-68" d="M 3513 2113 
L 3513 0 
L 2938 0 
L 2938 2094 
Q 2938 2591 2744 2837 
Q 2550 3084 2163 3084 
Q 1697 3084 1428 2787 
Q 1159 2491 1159 1978 
L 1159 0 
L 581 0 
L 581 4863 
L 1159 4863 
L 1159 2956 
Q 1366 3272 1645 3428 
Q 1925 3584 2291 3584 
Q 2894 3584 3203 3211 
Q 3513 2838 3513 2113 
z
" transform="scale(0.015625)"/>
       <path id="DejaVuSans-79" d="M 2059 -325 
Q 1816 -950 1584 -1140 
Q 1353 -1331 966 -1331 
L 506 -1331 
L 506 -850 
L 844 -850 
Q 1081 -850 1212 -737 
Q 1344 -625 1503 -206 
L 1606 56 
L 191 3500 
L 800 3500 
L 1894 763 
L 2988 3500 
L 3597 3500 
L 2059 -325 
z
" transform="scale(0.015625)"/>
       <path id="DejaVuSans-70" d="M 1159 525 
L 1159 -1331 
L 581 -1331 
L 581 3500 
L 1159 3500 
L 1159 2969 
Q 1341 3281 1617 3432 
Q 1894 3584 2278 3584 
Q 2916 3584 3314 3078 
Q 3713 2572 3713 1747 
Q 3713 922 3314 415 
Q 2916 -91 2278 -91 
Q 1894 -91 1617 61 
Q 1341 213 1159 525 
z
M 3116 1747 
Q 3116 2381 2855 2742 
Q 2594 3103 2138 3103 
Q 1681 3103 1420 2742 
Q 1159 2381 1159 1747 
Q 1159 1113 1420 752 
Q 1681 391 2138 391 
Q 2594 391 2855 752 
Q 3116 1113 3116 1747 
z
" transform="scale(0.015625)"/>
      </defs>
      <use xlink:href="#DejaVuSans-74"/>
      <use xlink:href="#DejaVuSans-72" x="39.208984"/>
      <use xlink:href="#DejaVuSans-75" x="80.322266"/>
      <use xlink:href="#DejaVuSans-65" x="143.701172"/>
      <use xlink:href="#DejaVuSans-20" x="205.224609"/>
      <use xlink:href="#DejaVuSans-68" x="237.011719"/>
      <use xlink:href="#DejaVuSans-6f" x="300.390625"/>
      <use xlink:href="#DejaVuSans-6d" x="361.572266"/>
      <use xlink:href="#DejaVuSans-65" x="458.984375"/>
      <use xlink:href="#DejaVuSans-6f" x="520.507812"/>
      <use xlink:href="#DejaVuSans-74" x="581.689453"/>
      <use xlink:href="#DejaVuSans-79" x="620.898438"/>
      <use xlink:href="#DejaVuSans-70" x="680.078125"/>
      <use xlink:href="#DejaVuSans-69" x="743.554688"/>
      <use xlink:href="#DejaVuSans-63" x="771.337891"/>
     </g>
    </g>
    <g id="patch_10">
     <path d="M 295.087188 87.426688 
L 315.087188 87.426688 
L 315.087188 80.426688 
L 295.087188 80.426688 
z
" style="fill: #ff0000"/>
    </g>
    <g id="text_17">
     <!-- false -->
     <g transform="translate(323.087188 87.426688) scale(0.1 -0.1)">
      <defs>
       <path id="DejaVuSans-61" d="M 2194 1759 
Q 1497 1759 1228 1600 
Q 959 1441 959 1056 
Q 959 750 1161 570 
Q 1363 391 1709 391 
Q 2188 391 2477 730 
Q 2766 1069 2766 1631 
L 2766 1759 
L 2194 1759 
z
M 3341 1997 
L 3341 0 
L 2766 0 
L 2766 531 
Q 2569 213 2275 61 
Q 1981 -91 1556 -91 
Q 1019 -91 701 211 
Q 384 513 384 1019 
Q 384 1609 779 1909 
Q 1175 2209 1959 2209 
L 2766 2209 
L 2766 2266 
Q 2766 2663 2505 2880 
Q 2244 3097 1772 3097 
Q 1472 3097 1187 3025 
Q 903 2953 641 2809 
L 641 3341 
Q 956 3463 1253 3523 
Q 1550 3584 1831 3584 
Q 2591 3584 2966 3190 
Q 3341 2797 3341 1997 
z
" transform="scale(0.015625)"/>
      </defs>
      <use xlink:href="#DejaVuSans-66"/>
      <use xlink:href="#DejaVuSans-61" x="35.205078"/>
      <use xlink:href="#DejaVuSans-6c" x="96.484375"/>
      <use xlink:href="#DejaVuSans-73" x="124.267578"/>
      <use xlink:href="#DejaVuSans-65" x="176.367188"/>
     </g>
    </g>
   </g>
  </g>
 </g>
 <defs>
  <clipPath id="pa59d31fc5d">
   <rect x="57.6" y="41.472" width="357.12" height="266.112"/>
  </clipPath>
 </defs>
</svg>
