<?xml version="1.0" encoding="utf-8" standalone="no"?>
<!DOCTYPE svg PUBLIC "-//W3C//DTD SVG 1.1//EN"
  "http://www.w3.org/Graphics/SVG/1.1/DTD/svg11.dtd">
<svg xmlns:xlink="http://www.w3.org/1999/xlink" width="460.8pt" height="345.6pt" viewBox="0 0 460.8 345.6" xmlns="http://www.w3.org/2000/svg" version="1.1">
 <metadata>
  <rdf:RDF xmlns:dc="http://purl.org/dc/elements/1.1/" xmlns:cc="http://creativecommons.org/ns#" xmlns:rdf="http://www.w3.org/1999/02/22-rdf-syntax-ns#">
   <cc:Work>
    <dc:type rdf:resource="http://purl.org/dc/dcmitype/StillImage"/>
    <dc:date>2024-06-27T12:46:15.073161</dc:date>
    <dc:format>image/svg+xml</dc:format>
    <dc:creator>
     <cc:Agent>
      <dc:title>Matplotlib v3.9.0, https://matplotlib.org/</dc:title>
     </cc:Agent>
    </dc:creator>
   </cc:Work>
  </rdf:RDF>
 </metadata>
 <defs>
  <style type="text/css">*{stroke-linejoin: round; stroke-linecap: butt}</style>
 </defs>
 <g id="figure_1">
  <g id="patch_1">
   <path d="M 0 345.6 
L 460.8 345.6 
L 460.8 0 
L 0 0 
z
" style="fill: #ffffff"/>
  </g>
  <g id="axes_1">
   <g id="patch_2">
    <path d="M 57.6 307.584 
L 414.72 307.584 
L 414.72 41.472 
L 57.6 41.472 
z
" style="fill: #ffffff"/>
   </g>
   <g id="PolyCollection_1">
    <path d="M 73.832727 104.395034 
L 73.832727 307.584 
L 73.832923 307.584 
L 73.843146 307.584 
L 73.858141 307.584 
L 73.8636 307.584 
L 73.939584 307.584 
L 73.940471 307.584 
L 74.128604 307.584 
L 74.526039 307.584 
L 74.766858 307.584 
L 74.767943 307.584 
L 75.12328 307.584 
L 75.452306 307.584 
L 75.48162 307.584 
L 75.64421 307.584 
L 76.196639 307.584 
L 77.041056 307.584 
L 78.248192 307.584 
L 78.512261 307.584 
L 78.839236 307.584 
L 80.965646 307.584 
L 82.305985 307.584 
L 82.73563 307.584 
L 83.307757 307.584 
L 84.856082 307.584 
L 85.785251 307.584 
L 87.698664 307.584 
L 90.870838 307.584 
L 93.11604 307.584 
L 95.040132 307.584 
L 95.575163 307.584 
L 101.31363 307.584 
L 101.819709 307.584 
L 104.537207 307.584 
L 104.947246 307.584 
L 105.349873 307.584 
L 108.448425 307.584 
L 110.305554 307.584 
L 111.886276 307.584 
L 114.941373 307.584 
L 116.970609 307.584 
L 118.059977 307.584 
L 119.529346 307.584 
L 121.964902 307.584 
L 122.05238 307.584 
L 123.600731 307.584 
L 123.808064 307.584 
L 131.906288 307.584 
L 136.756021 307.584 
L 139.713935 307.584 
L 143.637539 307.584 
L 147.140777 307.584 
L 154.553503 307.584 
L 158.364434 307.584 
L 160.122033 307.584 
L 163.363262 307.584 
L 174.164723 307.584 
L 174.930687 307.584 
L 180.989055 307.584 
L 183.245969 307.584 
L 184.204992 307.584 
L 206.41415 307.584 
L 206.652109 307.584 
L 212.668584 307.584 
L 215.772763 307.584 
L 216.728453 307.584 
L 217.578856 307.584 
L 220.249599 307.584 
L 222.750615 307.584 
L 225.99021 307.584 
L 226.083603 307.584 
L 228.707028 307.584 
L 234.165239 307.584 
L 243.460588 307.584 
L 246.059637 307.584 
L 247.427914 307.584 
L 254.097746 307.584 
L 254.766266 307.584 
L 256.618303 307.584 
L 257.749341 307.584 
L 259.904366 307.584 
L 264.023055 307.584 
L 272.348924 307.584 
L 273.965617 307.584 
L 274.396505 307.584 
L 283.011963 307.584 
L 290.971777 307.584 
L 294.40489 307.584 
L 296.494559 307.584 
L 302.964142 307.584 
L 303.189357 307.584 
L 304.173607 307.584 
L 315.31655 307.584 
L 317.701494 307.584 
L 321.164997 307.584 
L 324.677973 307.584 
L 327.213169 307.584 
L 329.400153 307.584 
L 341.949149 307.584 
L 343.731256 307.584 
L 344.333047 307.584 
L 348.73381 307.584 
L 354.117777 307.584 
L 354.28489 307.584 
L 357.778195 307.584 
L 359.040858 307.584 
L 360.547493 307.584 
L 368.459598 307.584 
L 370.994599 307.584 
L 371.935976 307.584 
L 374.863565 307.584 
L 375.99774 307.584 
L 386.415044 307.584 
L 391.446157 307.584 
L 392.658432 307.584 
L 398.487273 307.584 
L 398.487273 305.399172 
L 398.487273 305.399172 
L 392.658432 303.214345 
L 391.446157 301.029517 
L 386.415044 298.84469 
L 375.99774 298.84469 
L 374.863565 298.84469 
L 371.935976 298.84469 
L 370.994599 296.659862 
L 368.459598 294.475034 
L 360.547493 294.475034 
L 359.040858 292.290207 
L 357.778195 292.290207 
L 354.28489 290.105379 
L 354.117777 287.920552 
L 348.73381 285.735724 
L 344.333047 285.735724 
L 343.731256 283.550897 
L 341.949149 283.550897 
L 329.400153 281.366069 
L 327.213169 279.181241 
L 324.677973 279.181241 
L 321.164997 276.996414 
L 317.701494 274.811586 
L 315.31655 272.626759 
L 304.173607 270.441931 
L 303.189357 268.257103 
L 302.964142 268.257103 
L 296.494559 266.072276 
L 294.40489 263.887448 
L 290.971777 261.702621 
L 283.011963 259.517793 
L 274.396505 257.332966 
L 273.965617 255.148138 
L 272.348924 255.148138 
L 264.023055 252.96331 
L 259.904366 250.778483 
L 257.749341 248.593655 
L 256.618303 248.593655 
L 254.766266 246.408828 
L 254.097746 244.224 
L 247.427914 242.039172 
L 246.059637 239.854345 
L 243.460588 237.669517 
L 234.165239 237.669517 
L 228.707028 235.48469 
L 226.083603 233.299862 
L 225.99021 231.115034 
L 222.750615 228.930207 
L 220.249599 226.745379 
L 217.578856 224.560552 
L 216.728453 222.375724 
L 215.772763 220.190897 
L 212.668584 220.190897 
L 206.652109 218.006069 
L 206.41415 215.821241 
L 184.204992 213.636414 
L 183.245969 211.451586 
L 180.989055 211.451586 
L 174.930687 209.266759 
L 174.164723 207.081931 
L 163.363262 204.897103 
L 160.122033 202.712276 
L 158.364434 200.527448 
L 154.553503 198.342621 
L 147.140777 196.157793 
L 143.637539 193.972966 
L 139.713935 193.972966 
L 136.756021 191.788138 
L 131.906288 189.60331 
L 123.808064 187.418483 
L 123.600731 185.233655 
L 122.05238 183.048828 
L 121.964902 180.864 
L 119.529346 180.864 
L 118.059977 180.864 
L 116.970609 178.679172 
L 114.941373 178.679172 
L 111.886276 176.494345 
L 110.305554 174.309517 
L 108.448425 172.12469 
L 105.349873 169.939862 
L 104.947246 167.755034 
L 104.537207 167.755034 
L 101.819709 167.755034 
L 101.31363 165.570207 
L 95.575163 163.385379 
L 95.040132 161.200552 
L 93.11604 159.015724 
L 90.870838 159.015724 
L 87.698664 156.830897 
L 85.785251 154.646069 
L 84.856082 152.461241 
L 83.307757 150.276414 
L 82.73563 148.091586 
L 82.305985 148.091586 
L 80.965646 145.906759 
L 78.839236 143.721931 
L 78.512261 141.537103 
L 78.248192 139.352276 
L 77.041056 137.167448 
L 76.196639 134.982621 
L 75.64421 132.797793 
L 75.48162 130.612966 
L 75.452306 128.428138 
L 75.12328 126.24331 
L 74.767943 124.058483 
L 74.766858 121.873655 
L 74.526039 119.688828 
L 74.128604 117.504 
L 73.940471 115.319172 
L 73.939584 113.134345 
L 73.8636 110.949517 
L 73.858141 108.76469 
L 73.843146 106.579862 
L 73.832923 104.395034 
L 73.832727 104.395034 
z
" clip-path="url(#p0312c55611)" style="fill: #008000"/>
   </g>
   <g id="PolyCollection_2">
    <path d="M 73.832727 78.177103 
L 73.832727 104.395034 
L 73.832923 104.395034 
L 73.843146 106.579862 
L 73.858141 108.76469 
L 73.8636 110.949517 
L 73.939584 113.134345 
L 73.940471 115.319172 
L 74.128604 117.504 
L 74.526039 119.688828 
L 74.766858 121.873655 
L 74.767943 124.058483 
L 75.12328 126.24331 
L 75.452306 128.428138 
L 75.48162 130.612966 
L 75.64421 132.797793 
L 76.196639 134.982621 
L 77.041056 137.167448 
L 78.248192 139.352276 
L 78.512261 141.537103 
L 78.839236 143.721931 
L 80.965646 145.906759 
L 82.305985 148.091586 
L 82.73563 148.091586 
L 83.307757 150.276414 
L 84.856082 152.461241 
L 85.785251 154.646069 
L 87.698664 156.830897 
L 90.870838 159.015724 
L 93.11604 159.015724 
L 95.040132 161.200552 
L 95.575163 163.385379 
L 101.31363 165.570207 
L 101.819709 167.755034 
L 104.537207 167.755034 
L 104.947246 167.755034 
L 105.349873 169.939862 
L 108.448425 172.12469 
L 110.305554 174.309517 
L 111.886276 176.494345 
L 114.941373 178.679172 
L 116.970609 178.679172 
L 118.059977 180.864 
L 119.529346 180.864 
L 121.964902 180.864 
L 122.05238 183.048828 
L 123.600731 185.233655 
L 123.808064 187.418483 
L 131.906288 189.60331 
L 136.756021 191.788138 
L 139.713935 193.972966 
L 143.637539 193.972966 
L 147.140777 196.157793 
L 154.553503 198.342621 
L 158.364434 200.527448 
L 160.122033 202.712276 
L 163.363262 204.897103 
L 174.164723 207.081931 
L 174.930687 209.266759 
L 180.989055 211.451586 
L 183.245969 211.451586 
L 184.204992 213.636414 
L 206.41415 215.821241 
L 206.652109 218.006069 
L 212.668584 220.190897 
L 215.772763 220.190897 
L 216.728453 222.375724 
L 217.578856 224.560552 
L 220.249599 226.745379 
L 222.750615 228.930207 
L 225.99021 231.115034 
L 226.083603 233.299862 
L 228.707028 235.48469 
L 234.165239 237.669517 
L 243.460588 237.669517 
L 246.059637 239.854345 
L 247.427914 242.039172 
L 254.097746 244.224 
L 254.766266 246.408828 
L 256.618303 248.593655 
L 257.749341 248.593655 
L 259.904366 250.778483 
L 264.023055 252.96331 
L 272.348924 255.148138 
L 273.965617 255.148138 
L 274.396505 257.332966 
L 283.011963 259.517793 
L 290.971777 261.702621 
L 294.40489 263.887448 
L 296.494559 266.072276 
L 302.964142 268.257103 
L 303.189357 268.257103 
L 304.173607 270.441931 
L 315.31655 272.626759 
L 317.701494 274.811586 
L 321.164997 276.996414 
L 324.677973 279.181241 
L 327.213169 279.181241 
L 329.400153 281.366069 
L 341.949149 283.550897 
L 343.731256 283.550897 
L 344.333047 285.735724 
L 348.73381 285.735724 
L 354.117777 287.920552 
L 354.28489 290.105379 
L 357.778195 292.290207 
L 359.040858 292.290207 
L 360.547493 294.475034 
L 368.459598 294.475034 
L 370.994599 296.659862 
L 371.935976 298.84469 
L 374.863565 298.84469 
L 375.99774 298.84469 
L 386.415044 298.84469 
L 391.446157 301.029517 
L 392.658432 303.214345 
L 398.487273 305.399172 
L 398.487273 305.399172 
L 398.487273 305.399172 
L 392.658432 303.214345 
L 391.446157 301.029517 
L 386.415044 298.84469 
L 375.99774 298.84469 
L 374.863565 298.84469 
L 371.935976 296.659862 
L 370.994599 294.475034 
L 368.459598 292.290207 
L 360.547493 290.105379 
L 359.040858 287.920552 
L 357.778195 285.735724 
L 354.28489 283.550897 
L 354.117777 281.366069 
L 348.73381 279.181241 
L 344.333047 279.181241 
L 343.731256 276.996414 
L 341.949149 274.811586 
L 329.400153 272.626759 
L 327.213169 270.441931 
L 324.677973 270.441931 
L 321.164997 268.257103 
L 317.701494 266.072276 
L 315.31655 263.887448 
L 304.173607 261.702621 
L 303.189357 259.517793 
L 302.964142 259.517793 
L 296.494559 257.332966 
L 294.40489 255.148138 
L 290.971777 252.96331 
L 283.011963 250.778483 
L 274.396505 248.593655 
L 273.965617 246.408828 
L 272.348924 244.224 
L 264.023055 242.039172 
L 259.904366 239.854345 
L 257.749341 237.669517 
L 256.618303 237.669517 
L 254.766266 235.48469 
L 254.097746 233.299862 
L 247.427914 231.115034 
L 246.059637 228.930207 
L 243.460588 226.745379 
L 234.165239 224.560552 
L 228.707028 222.375724 
L 226.083603 220.190897 
L 225.99021 218.006069 
L 222.750615 215.821241 
L 220.249599 213.636414 
L 217.578856 211.451586 
L 216.728453 209.266759 
L 215.772763 207.081931 
L 212.668584 204.897103 
L 206.652109 202.712276 
L 206.41415 200.527448 
L 184.204992 198.342621 
L 183.245969 196.157793 
L 180.989055 193.972966 
L 174.930687 191.788138 
L 174.164723 189.60331 
L 163.363262 187.418483 
L 160.122033 185.233655 
L 158.364434 183.048828 
L 154.553503 180.864 
L 147.140777 178.679172 
L 143.637539 176.494345 
L 139.713935 176.494345 
L 136.756021 174.309517 
L 131.906288 172.12469 
L 123.808064 169.939862 
L 123.600731 167.755034 
L 122.05238 165.570207 
L 121.964902 163.385379 
L 119.529346 163.385379 
L 118.059977 163.385379 
L 116.970609 161.200552 
L 114.941373 161.200552 
L 111.886276 159.015724 
L 110.305554 156.830897 
L 108.448425 154.646069 
L 105.349873 152.461241 
L 104.947246 150.276414 
L 104.537207 148.091586 
L 101.819709 145.906759 
L 101.31363 143.721931 
L 95.575163 141.537103 
L 95.040132 139.352276 
L 93.11604 137.167448 
L 90.870838 137.167448 
L 87.698664 134.982621 
L 85.785251 132.797793 
L 84.856082 130.612966 
L 83.307757 128.428138 
L 82.73563 126.24331 
L 82.305985 124.058483 
L 80.965646 121.873655 
L 78.839236 119.688828 
L 78.512261 117.504 
L 78.248192 115.319172 
L 77.041056 113.134345 
L 76.196639 110.949517 
L 75.64421 108.76469 
L 75.48162 106.579862 
L 75.452306 104.395034 
L 75.12328 102.210207 
L 74.767943 100.025379 
L 74.766858 97.840552 
L 74.526039 95.655724 
L 74.128604 93.470897 
L 73.940471 91.286069 
L 73.939584 89.101241 
L 73.8636 86.916414 
L 73.858141 84.731586 
L 73.843146 82.546759 
L 73.832923 80.361931 
L 73.832727 78.177103 
z
" clip-path="url(#p0312c55611)" style="fill: #7cfc00"/>
   </g>
   <g id="PolyCollection_3">
    <path d="M 73.832727 54.144 
L 73.832727 78.177103 
L 73.832923 80.361931 
L 73.843146 82.546759 
L 73.858141 84.731586 
L 73.8636 86.916414 
L 73.939584 89.101241 
L 73.940471 91.286069 
L 74.128604 93.470897 
L 74.526039 95.655724 
L 74.766858 97.840552 
L 74.767943 100.025379 
L 75.12328 102.210207 
L 75.452306 104.395034 
L 75.48162 106.579862 
L 75.64421 108.76469 
L 76.196639 110.949517 
L 77.041056 113.134345 
L 78.248192 115.319172 
L 78.512261 117.504 
L 78.839236 119.688828 
L 80.965646 121.873655 
L 82.305985 124.058483 
L 82.73563 126.24331 
L 83.307757 128.428138 
L 84.856082 130.612966 
L 85.785251 132.797793 
L 87.698664 134.982621 
L 90.870838 137.167448 
L 93.11604 137.167448 
L 95.040132 139.352276 
L 95.575163 141.537103 
L 101.31363 143.721931 
L 101.819709 145.906759 
L 104.537207 148.091586 
L 104.947246 150.276414 
L 105.349873 152.461241 
L 108.448425 154.646069 
L 110.305554 156.830897 
L 111.886276 159.015724 
L 114.941373 161.200552 
L 116.970609 161.200552 
L 118.059977 163.385379 
L 119.529346 163.385379 
L 121.964902 163.385379 
L 122.05238 165.570207 
L 123.600731 167.755034 
L 123.808064 169.939862 
L 131.906288 172.12469 
L 136.756021 174.309517 
L 139.713935 176.494345 
L 143.637539 176.494345 
L 147.140777 178.679172 
L 154.553503 180.864 
L 158.364434 183.048828 
L 160.122033 185.233655 
L 163.363262 187.418483 
L 174.164723 189.60331 
L 174.930687 191.788138 
L 180.989055 193.972966 
L 183.245969 196.157793 
L 184.204992 198.342621 
L 206.41415 200.527448 
L 206.652109 202.712276 
L 212.668584 204.897103 
L 215.772763 207.081931 
L 216.728453 209.266759 
L 217.578856 211.451586 
L 220.249599 213.636414 
L 222.750615 215.821241 
L 225.99021 218.006069 
L 226.083603 220.190897 
L 228.707028 222.375724 
L 234.165239 224.560552 
L 243.460588 226.745379 
L 246.059637 228.930207 
L 247.427914 231.115034 
L 254.097746 233.299862 
L 254.766266 235.48469 
L 256.618303 237.669517 
L 257.749341 237.669517 
L 259.904366 239.854345 
L 264.023055 242.039172 
L 272.348924 244.224 
L 273.965617 246.408828 
L 274.396505 248.593655 
L 283.011963 250.778483 
L 290.971777 252.96331 
L 294.40489 255.148138 
L 296.494559 257.332966 
L 302.964142 259.517793 
L 303.189357 259.517793 
L 304.173607 261.702621 
L 315.31655 263.887448 
L 317.701494 266.072276 
L 321.164997 268.257103 
L 324.677973 270.441931 
L 327.213169 270.441931 
L 329.400153 272.626759 
L 341.949149 274.811586 
L 343.731256 276.996414 
L 344.333047 279.181241 
L 348.73381 279.181241 
L 354.117777 281.366069 
L 354.28489 283.550897 
L 357.778195 285.735724 
L 359.040858 287.920552 
L 360.547493 290.105379 
L 368.459598 292.290207 
L 370.994599 294.475034 
L 371.935976 296.659862 
L 374.863565 298.84469 
L 375.99774 298.84469 
L 386.415044 298.84469 
L 391.446157 301.029517 
L 392.658432 303.214345 
L 398.487273 305.399172 
L 398.487273 305.399172 
L 398.487273 305.399172 
L 392.658432 303.214345 
L 391.446157 301.029517 
L 386.415044 298.84469 
L 375.99774 296.659862 
L 374.863565 294.475034 
L 371.935976 292.290207 
L 370.994599 290.105379 
L 368.459598 287.920552 
L 360.547493 285.735724 
L 359.040858 283.550897 
L 357.778195 281.366069 
L 354.28489 279.181241 
L 354.117777 276.996414 
L 348.73381 274.811586 
L 344.333047 272.626759 
L 343.731256 270.441931 
L 341.949149 268.257103 
L 329.400153 266.072276 
L 327.213169 263.887448 
L 324.677973 261.702621 
L 321.164997 259.517793 
L 317.701494 257.332966 
L 315.31655 255.148138 
L 304.173607 252.96331 
L 303.189357 250.778483 
L 302.964142 248.593655 
L 296.494559 246.408828 
L 294.40489 244.224 
L 290.971777 242.039172 
L 283.011963 239.854345 
L 274.396505 237.669517 
L 273.965617 235.48469 
L 272.348924 233.299862 
L 264.023055 231.115034 
L 259.904366 228.930207 
L 257.749341 226.745379 
L 256.618303 224.560552 
L 254.766266 222.375724 
L 254.097746 220.190897 
L 247.427914 218.006069 
L 246.059637 215.821241 
L 243.460588 213.636414 
L 234.165239 211.451586 
L 228.707028 209.266759 
L 226.083603 207.081931 
L 225.99021 204.897103 
L 222.750615 202.712276 
L 220.249599 200.527448 
L 217.578856 198.342621 
L 216.728453 196.157793 
L 215.772763 193.972966 
L 212.668584 191.788138 
L 206.652109 189.60331 
L 206.41415 187.418483 
L 184.204992 185.233655 
L 183.245969 183.048828 
L 180.989055 180.864 
L 174.930687 178.679172 
L 174.164723 176.494345 
L 163.363262 174.309517 
L 160.122033 172.12469 
L 158.364434 169.939862 
L 154.553503 167.755034 
L 147.140777 165.570207 
L 143.637539 163.385379 
L 139.713935 161.200552 
L 136.756021 159.015724 
L 131.906288 156.830897 
L 123.808064 154.646069 
L 123.600731 152.461241 
L 122.05238 150.276414 
L 121.964902 148.091586 
L 119.529346 145.906759 
L 118.059977 143.721931 
L 116.970609 141.537103 
L 114.941373 139.352276 
L 111.886276 137.167448 
L 110.305554 134.982621 
L 108.448425 132.797793 
L 105.349873 130.612966 
L 104.947246 128.428138 
L 104.537207 126.24331 
L 101.819709 124.058483 
L 101.31363 121.873655 
L 95.575163 119.688828 
L 95.040132 117.504 
L 93.11604 115.319172 
L 90.870838 113.134345 
L 87.698664 110.949517 
L 85.785251 108.76469 
L 84.856082 106.579862 
L 83.307757 104.395034 
L 82.73563 102.210207 
L 82.305985 100.025379 
L 80.965646 97.840552 
L 78.839236 95.655724 
L 78.512261 93.470897 
L 78.248192 91.286069 
L 77.041056 89.101241 
L 76.196639 86.916414 
L 75.64421 84.731586 
L 75.48162 82.546759 
L 75.452306 80.361931 
L 75.12328 78.177103 
L 74.767943 75.992276 
L 74.766858 73.807448 
L 74.526039 71.622621 
L 74.128604 69.437793 
L 73.940471 67.252966 
L 73.939584 65.068138 
L 73.8636 62.88331 
L 73.858141 60.698483 
L 73.843146 58.513655 
L 73.832923 56.328828 
L 73.832727 54.144 
z
" clip-path="url(#p0312c55611)" style="fill: #ff0000"/>
   </g>
   <g id="matplotlib.axis_1">
    <g id="xtick_1">
     <g id="line2d_1">
      <defs>
       <path id="m68893067c5" d="M 0 0 
L 0 3.5 
" style="stroke: #000000; stroke-width: 0.8"/>
      </defs>
      <g>
       <use xlink:href="#m68893067c5" x="73.822361" y="307.584" style="stroke: #000000; stroke-width: 0.8"/>
      </g>
     </g>
     <g id="text_1">
      <!-- 0.0 -->
      <g transform="translate(65.870798 322.182437) scale(0.1 -0.1)">
       <defs>
        <path id="DejaVuSans-30" d="M 2034 4250 
Q 1547 4250 1301 3770 
Q 1056 3291 1056 2328 
Q 1056 1369 1301 889 
Q 1547 409 2034 409 
Q 2525 409 2770 889 
Q 3016 1369 3016 2328 
Q 3016 3291 2770 3770 
Q 2525 4250 2034 4250 
z
M 2034 4750 
Q 2819 4750 3233 4129 
Q 3647 3509 3647 2328 
Q 3647 1150 3233 529 
Q 2819 -91 2034 -91 
Q 1250 -91 836 529 
Q 422 1150 422 2328 
Q 422 3509 836 4129 
Q 1250 4750 2034 4750 
z
" transform="scale(0.015625)"/>
        <path id="DejaVuSans-2e" d="M 684 794 
L 1344 794 
L 1344 0 
L 684 0 
L 684 794 
z
" transform="scale(0.015625)"/>
       </defs>
       <use xlink:href="#DejaVuSans-30"/>
       <use xlink:href="#DejaVuSans-2e" x="63.623047"/>
       <use xlink:href="#DejaVuSans-30" x="95.410156"/>
      </g>
     </g>
    </g>
    <g id="xtick_2">
     <g id="line2d_2">
      <g>
       <use xlink:href="#m68893067c5" x="139.17763" y="307.584" style="stroke: #000000; stroke-width: 0.8"/>
      </g>
     </g>
     <g id="text_2">
      <!-- 0.1 -->
      <g transform="translate(131.226067 322.182437) scale(0.1 -0.1)">
       <defs>
        <path id="DejaVuSans-31" d="M 794 531 
L 1825 531 
L 1825 4091 
L 703 3866 
L 703 4441 
L 1819 4666 
L 2450 4666 
L 2450 531 
L 3481 531 
L 3481 0 
L 794 0 
L 794 531 
z
" transform="scale(0.015625)"/>
       </defs>
       <use xlink:href="#DejaVuSans-30"/>
       <use xlink:href="#DejaVuSans-2e" x="63.623047"/>
       <use xlink:href="#DejaVuSans-31" x="95.410156"/>
      </g>
     </g>
    </g>
    <g id="xtick_3">
     <g id="line2d_3">
      <g>
       <use xlink:href="#m68893067c5" x="204.532899" y="307.584" style="stroke: #000000; stroke-width: 0.8"/>
      </g>
     </g>
     <g id="text_3">
      <!-- 0.2 -->
      <g transform="translate(196.581336 322.182437) scale(0.1 -0.1)">
       <defs>
        <path id="DejaVuSans-32" d="M 1228 531 
L 3431 531 
L 3431 0 
L 469 0 
L 469 531 
Q 828 903 1448 1529 
Q 2069 2156 2228 2338 
Q 2531 2678 2651 2914 
Q 2772 3150 2772 3378 
Q 2772 3750 2511 3984 
Q 2250 4219 1831 4219 
Q 1534 4219 1204 4116 
Q 875 4013 500 3803 
L 500 4441 
Q 881 4594 1212 4672 
Q 1544 4750 1819 4750 
Q 2544 4750 2975 4387 
Q 3406 4025 3406 3419 
Q 3406 3131 3298 2873 
Q 3191 2616 2906 2266 
Q 2828 2175 2409 1742 
Q 1991 1309 1228 531 
z
" transform="scale(0.015625)"/>
       </defs>
       <use xlink:href="#DejaVuSans-30"/>
       <use xlink:href="#DejaVuSans-2e" x="63.623047"/>
       <use xlink:href="#DejaVuSans-32" x="95.410156"/>
      </g>
     </g>
    </g>
    <g id="xtick_4">
     <g id="line2d_4">
      <g>
       <use xlink:href="#m68893067c5" x="269.888168" y="307.584" style="stroke: #000000; stroke-width: 0.8"/>
      </g>
     </g>
     <g id="text_4">
      <!-- 0.3 -->
      <g transform="translate(261.936605 322.182437) scale(0.1 -0.1)">
       <defs>
        <path id="DejaVuSans-33" d="M 2597 2516 
Q 3050 2419 3304 2112 
Q 3559 1806 3559 1356 
Q 3559 666 3084 287 
Q 2609 -91 1734 -91 
Q 1441 -91 1130 -33 
Q 819 25 488 141 
L 488 750 
Q 750 597 1062 519 
Q 1375 441 1716 441 
Q 2309 441 2620 675 
Q 2931 909 2931 1356 
Q 2931 1769 2642 2001 
Q 2353 2234 1838 2234 
L 1294 2234 
L 1294 2753 
L 1863 2753 
Q 2328 2753 2575 2939 
Q 2822 3125 2822 3475 
Q 2822 3834 2567 4026 
Q 2313 4219 1838 4219 
Q 1578 4219 1281 4162 
Q 984 4106 628 3988 
L 628 4550 
Q 988 4650 1302 4700 
Q 1616 4750 1894 4750 
Q 2613 4750 3031 4423 
Q 3450 4097 3450 3541 
Q 3450 3153 3228 2886 
Q 3006 2619 2597 2516 
z
" transform="scale(0.015625)"/>
       </defs>
       <use xlink:href="#DejaVuSans-30"/>
       <use xlink:href="#DejaVuSans-2e" x="63.623047"/>
       <use xlink:href="#DejaVuSans-33" x="95.410156"/>
      </g>
     </g>
    </g>
    <g id="xtick_5">
     <g id="line2d_5">
      <g>
       <use xlink:href="#m68893067c5" x="335.243437" y="307.584" style="stroke: #000000; stroke-width: 0.8"/>
      </g>
     </g>
     <g id="text_5">
      <!-- 0.4 -->
      <g transform="translate(327.291874 322.182437) scale(0.1 -0.1)">
       <defs>
        <path id="DejaVuSans-34" d="M 2419 4116 
L 825 1625 
L 2419 1625 
L 2419 4116 
z
M 2253 4666 
L 3047 4666 
L 3047 1625 
L 3713 1625 
L 3713 1100 
L 3047 1100 
L 3047 0 
L 2419 0 
L 2419 1100 
L 313 1100 
L 313 1709 
L 2253 4666 
z
" transform="scale(0.015625)"/>
       </defs>
       <use xlink:href="#DejaVuSans-30"/>
       <use xlink:href="#DejaVuSans-2e" x="63.623047"/>
       <use xlink:href="#DejaVuSans-34" x="95.410156"/>
      </g>
     </g>
    </g>
    <g id="xtick_6">
     <g id="line2d_6">
      <g>
       <use xlink:href="#m68893067c5" x="400.598705" y="307.584" style="stroke: #000000; stroke-width: 0.8"/>
      </g>
     </g>
     <g id="text_6">
      <!-- 0.5 -->
      <g transform="translate(392.647143 322.182437) scale(0.1 -0.1)">
       <defs>
        <path id="DejaVuSans-35" d="M 691 4666 
L 3169 4666 
L 3169 4134 
L 1269 4134 
L 1269 2991 
Q 1406 3038 1543 3061 
Q 1681 3084 1819 3084 
Q 2600 3084 3056 2656 
Q 3513 2228 3513 1497 
Q 3513 744 3044 326 
Q 2575 -91 1722 -91 
Q 1428 -91 1123 -41 
Q 819 9 494 109 
L 494 744 
Q 775 591 1075 516 
Q 1375 441 1709 441 
Q 2250 441 2565 725 
Q 2881 1009 2881 1497 
Q 2881 1984 2565 2268 
Q 2250 2553 1709 2553 
Q 1456 2553 1204 2497 
Q 953 2441 691 2322 
L 691 4666 
z
" transform="scale(0.015625)"/>
       </defs>
       <use xlink:href="#DejaVuSans-30"/>
       <use xlink:href="#DejaVuSans-2e" x="63.623047"/>
       <use xlink:href="#DejaVuSans-35" x="95.410156"/>
      </g>
     </g>
    </g>
    <g id="text_7">
     <!-- Score -->
     <g transform="translate(222.157656 335.860562) scale(0.1 -0.1)">
      <defs>
       <path id="DejaVuSans-53" d="M 3425 4513 
L 3425 3897 
Q 3066 4069 2747 4153 
Q 2428 4238 2131 4238 
Q 1616 4238 1336 4038 
Q 1056 3838 1056 3469 
Q 1056 3159 1242 3001 
Q 1428 2844 1947 2747 
L 2328 2669 
Q 3034 2534 3370 2195 
Q 3706 1856 3706 1288 
Q 3706 609 3251 259 
Q 2797 -91 1919 -91 
Q 1588 -91 1214 -16 
Q 841 59 441 206 
L 441 856 
Q 825 641 1194 531 
Q 1563 422 1919 422 
Q 2459 422 2753 634 
Q 3047 847 3047 1241 
Q 3047 1584 2836 1778 
Q 2625 1972 2144 2069 
L 1759 2144 
Q 1053 2284 737 2584 
Q 422 2884 422 3419 
Q 422 4038 858 4394 
Q 1294 4750 2059 4750 
Q 2388 4750 2728 4690 
Q 3069 4631 3425 4513 
z
" transform="scale(0.015625)"/>
       <path id="DejaVuSans-63" d="M 3122 3366 
L 3122 2828 
Q 2878 2963 2633 3030 
Q 2388 3097 2138 3097 
Q 1578 3097 1268 2742 
Q 959 2388 959 1747 
Q 959 1106 1268 751 
Q 1578 397 2138 397 
Q 2388 397 2633 464 
Q 2878 531 3122 666 
L 3122 134 
Q 2881 22 2623 -34 
Q 2366 -91 2075 -91 
Q 1284 -91 818 406 
Q 353 903 353 1747 
Q 353 2603 823 3093 
Q 1294 3584 2113 3584 
Q 2378 3584 2631 3529 
Q 2884 3475 3122 3366 
z
" transform="scale(0.015625)"/>
       <path id="DejaVuSans-6f" d="M 1959 3097 
Q 1497 3097 1228 2736 
Q 959 2375 959 1747 
Q 959 1119 1226 758 
Q 1494 397 1959 397 
Q 2419 397 2687 759 
Q 2956 1122 2956 1747 
Q 2956 2369 2687 2733 
Q 2419 3097 1959 3097 
z
M 1959 3584 
Q 2709 3584 3137 3096 
Q 3566 2609 3566 1747 
Q 3566 888 3137 398 
Q 2709 -91 1959 -91 
Q 1206 -91 779 398 
Q 353 888 353 1747 
Q 353 2609 779 3096 
Q 1206 3584 1959 3584 
z
" transform="scale(0.015625)"/>
       <path id="DejaVuSans-72" d="M 2631 2963 
Q 2534 3019 2420 3045 
Q 2306 3072 2169 3072 
Q 1681 3072 1420 2755 
Q 1159 2438 1159 1844 
L 1159 0 
L 581 0 
L 581 3500 
L 1159 3500 
L 1159 2956 
Q 1341 3275 1631 3429 
Q 1922 3584 2338 3584 
Q 2397 3584 2469 3576 
Q 2541 3569 2628 3553 
L 2631 2963 
z
" transform="scale(0.015625)"/>
       <path id="DejaVuSans-65" d="M 3597 1894 
L 3597 1613 
L 953 1613 
Q 991 1019 1311 708 
Q 1631 397 2203 397 
Q 2534 397 2845 478 
Q 3156 559 3463 722 
L 3463 178 
Q 3153 47 2828 -22 
Q 2503 -91 2169 -91 
Q 1331 -91 842 396 
Q 353 884 353 1716 
Q 353 2575 817 3079 
Q 1281 3584 2069 3584 
Q 2775 3584 3186 3129 
Q 3597 2675 3597 1894 
z
M 3022 2063 
Q 3016 2534 2758 2815 
Q 2500 3097 2075 3097 
Q 1594 3097 1305 2825 
Q 1016 2553 972 2059 
L 3022 2063 
z
" transform="scale(0.015625)"/>
      </defs>
      <use xlink:href="#DejaVuSans-53"/>
      <use xlink:href="#DejaVuSans-63" x="63.476562"/>
      <use xlink:href="#DejaVuSans-6f" x="118.457031"/>
      <use xlink:href="#DejaVuSans-72" x="179.638672"/>
      <use xlink:href="#DejaVuSans-65" x="218.501953"/>
     </g>
    </g>
   </g>
   <g id="matplotlib.axis_2">
    <g id="ytick_1">
     <g id="line2d_7">
      <defs>
       <path id="mc1a39ba57d" d="M 0 0 
L -3.5 0 
" style="stroke: #000000; stroke-width: 0.8"/>
      </defs>
      <g>
       <use xlink:href="#mc1a39ba57d" x="57.6" y="307.584" style="stroke: #000000; stroke-width: 0.8"/>
      </g>
     </g>
     <g id="text_8">
      <!-- 0 -->
      <g transform="translate(44.2375 311.383219) scale(0.1 -0.1)">
       <use xlink:href="#DejaVuSans-30"/>
      </g>
     </g>
    </g>
    <g id="ytick_2">
     <g id="line2d_8">
      <g>
       <use xlink:href="#mc1a39ba57d" x="57.6" y="263.887448" style="stroke: #000000; stroke-width: 0.8"/>
      </g>
     </g>
     <g id="text_9">
      <!-- 20 -->
      <g transform="translate(37.875 267.686667) scale(0.1 -0.1)">
       <use xlink:href="#DejaVuSans-32"/>
       <use xlink:href="#DejaVuSans-30" x="63.623047"/>
      </g>
     </g>
    </g>
    <g id="ytick_3">
     <g id="line2d_9">
      <g>
       <use xlink:href="#mc1a39ba57d" x="57.6" y="220.190897" style="stroke: #000000; stroke-width: 0.8"/>
      </g>
     </g>
     <g id="text_10">
      <!-- 40 -->
      <g transform="translate(37.875 223.990115) scale(0.1 -0.1)">
       <use xlink:href="#DejaVuSans-34"/>
       <use xlink:href="#DejaVuSans-30" x="63.623047"/>
      </g>
     </g>
    </g>
    <g id="ytick_4">
     <g id="line2d_10">
      <g>
       <use xlink:href="#mc1a39ba57d" x="57.6" y="176.494345" style="stroke: #000000; stroke-width: 0.8"/>
      </g>
     </g>
     <g id="text_11">
      <!-- 60 -->
      <g transform="translate(37.875 180.293564) scale(0.1 -0.1)">
       <defs>
        <path id="DejaVuSans-36" d="M 2113 2584 
Q 1688 2584 1439 2293 
Q 1191 2003 1191 1497 
Q 1191 994 1439 701 
Q 1688 409 2113 409 
Q 2538 409 2786 701 
Q 3034 994 3034 1497 
Q 3034 2003 2786 2293 
Q 2538 2584 2113 2584 
z
M 3366 4563 
L 3366 3988 
Q 3128 4100 2886 4159 
Q 2644 4219 2406 4219 
Q 1781 4219 1451 3797 
Q 1122 3375 1075 2522 
Q 1259 2794 1537 2939 
Q 1816 3084 2150 3084 
Q 2853 3084 3261 2657 
Q 3669 2231 3669 1497 
Q 3669 778 3244 343 
Q 2819 -91 2113 -91 
Q 1303 -91 875 529 
Q 447 1150 447 2328 
Q 447 3434 972 4092 
Q 1497 4750 2381 4750 
Q 2619 4750 2861 4703 
Q 3103 4656 3366 4563 
z
" transform="scale(0.015625)"/>
       </defs>
       <use xlink:href="#DejaVuSans-36"/>
       <use xlink:href="#DejaVuSans-30" x="63.623047"/>
      </g>
     </g>
    </g>
    <g id="ytick_5">
     <g id="line2d_11">
      <g>
       <use xlink:href="#mc1a39ba57d" x="57.6" y="132.797793" style="stroke: #000000; stroke-width: 0.8"/>
      </g>
     </g>
     <g id="text_12">
      <!-- 80 -->
      <g transform="translate(37.875 136.597012) scale(0.1 -0.1)">
       <defs>
        <path id="DejaVuSans-38" d="M 2034 2216 
Q 1584 2216 1326 1975 
Q 1069 1734 1069 1313 
Q 1069 891 1326 650 
Q 1584 409 2034 409 
Q 2484 409 2743 651 
Q 3003 894 3003 1313 
Q 3003 1734 2745 1975 
Q 2488 2216 2034 2216 
z
M 1403 2484 
Q 997 2584 770 2862 
Q 544 3141 544 3541 
Q 544 4100 942 4425 
Q 1341 4750 2034 4750 
Q 2731 4750 3128 4425 
Q 3525 4100 3525 3541 
Q 3525 3141 3298 2862 
Q 3072 2584 2669 2484 
Q 3125 2378 3379 2068 
Q 3634 1759 3634 1313 
Q 3634 634 3220 271 
Q 2806 -91 2034 -91 
Q 1263 -91 848 271 
Q 434 634 434 1313 
Q 434 1759 690 2068 
Q 947 2378 1403 2484 
z
M 1172 3481 
Q 1172 3119 1398 2916 
Q 1625 2713 2034 2713 
Q 2441 2713 2670 2916 
Q 2900 3119 2900 3481 
Q 2900 3844 2670 4047 
Q 2441 4250 2034 4250 
Q 1625 4250 1398 4047 
Q 1172 3844 1172 3481 
z
" transform="scale(0.015625)"/>
       </defs>
       <use xlink:href="#DejaVuSans-38"/>
       <use xlink:href="#DejaVuSans-30" x="63.623047"/>
      </g>
     </g>
    </g>
    <g id="ytick_6">
     <g id="line2d_12">
      <g>
       <use xlink:href="#mc1a39ba57d" x="57.6" y="89.101241" style="stroke: #000000; stroke-width: 0.8"/>
      </g>
     </g>
     <g id="text_13">
      <!-- 100 -->
      <g transform="translate(31.5125 92.90046) scale(0.1 -0.1)">
       <use xlink:href="#DejaVuSans-31"/>
       <use xlink:href="#DejaVuSans-30" x="63.623047"/>
       <use xlink:href="#DejaVuSans-30" x="127.246094"/>
      </g>
     </g>
    </g>
    <g id="ytick_7">
     <g id="line2d_13">
      <g>
       <use xlink:href="#mc1a39ba57d" x="57.6" y="45.40469" style="stroke: #000000; stroke-width: 0.8"/>
      </g>
     </g>
     <g id="text_14">
      <!-- 120 -->
      <g transform="translate(31.5125 49.203908) scale(0.1 -0.1)">
       <use xlink:href="#DejaVuSans-31"/>
       <use xlink:href="#DejaVuSans-32" x="63.623047"/>
       <use xlink:href="#DejaVuSans-30" x="127.246094"/>
      </g>
     </g>
    </g>
    <g id="text_15">
     <!-- Number of crosslinks -->
     <g transform="translate(25.432812 227.019406) rotate(-90) scale(0.1 -0.1)">
      <defs>
       <path id="DejaVuSans-4e" d="M 628 4666 
L 1478 4666 
L 3547 763 
L 3547 4666 
L 4159 4666 
L 4159 0 
L 3309 0 
L 1241 3903 
L 1241 0 
L 628 0 
L 628 4666 
z
" transform="scale(0.015625)"/>
       <path id="DejaVuSans-75" d="M 544 1381 
L 544 3500 
L 1119 3500 
L 1119 1403 
Q 1119 906 1312 657 
Q 1506 409 1894 409 
Q 2359 409 2629 706 
Q 2900 1003 2900 1516 
L 2900 3500 
L 3475 3500 
L 3475 0 
L 2900 0 
L 2900 538 
Q 2691 219 2414 64 
Q 2138 -91 1772 -91 
Q 1169 -91 856 284 
Q 544 659 544 1381 
z
M 1991 3584 
L 1991 3584 
z
" transform="scale(0.015625)"/>
       <path id="DejaVuSans-6d" d="M 3328 2828 
Q 3544 3216 3844 3400 
Q 4144 3584 4550 3584 
Q 5097 3584 5394 3201 
Q 5691 2819 5691 2113 
L 5691 0 
L 5113 0 
L 5113 2094 
Q 5113 2597 4934 2840 
Q 4756 3084 4391 3084 
Q 3944 3084 3684 2787 
Q 3425 2491 3425 1978 
L 3425 0 
L 2847 0 
L 2847 2094 
Q 2847 2600 2669 2842 
Q 2491 3084 2119 3084 
Q 1678 3084 1418 2786 
Q 1159 2488 1159 1978 
L 1159 0 
L 581 0 
L 581 3500 
L 1159 3500 
L 1159 2956 
Q 1356 3278 1631 3431 
Q 1906 3584 2284 3584 
Q 2666 3584 2933 3390 
Q 3200 3197 3328 2828 
z
" transform="scale(0.015625)"/>
       <path id="DejaVuSans-62" d="M 3116 1747 
Q 3116 2381 2855 2742 
Q 2594 3103 2138 3103 
Q 1681 3103 1420 2742 
Q 1159 2381 1159 1747 
Q 1159 1113 1420 752 
Q 1681 391 2138 391 
Q 2594 391 2855 752 
Q 3116 1113 3116 1747 
z
M 1159 2969 
Q 1341 3281 1617 3432 
Q 1894 3584 2278 3584 
Q 2916 3584 3314 3078 
Q 3713 2572 3713 1747 
Q 3713 922 3314 415 
Q 2916 -91 2278 -91 
Q 1894 -91 1617 61 
Q 1341 213 1159 525 
L 1159 0 
L 581 0 
L 581 4863 
L 1159 4863 
L 1159 2969 
z
" transform="scale(0.015625)"/>
       <path id="DejaVuSans-20" transform="scale(0.015625)"/>
       <path id="DejaVuSans-66" d="M 2375 4863 
L 2375 4384 
L 1825 4384 
Q 1516 4384 1395 4259 
Q 1275 4134 1275 3809 
L 1275 3500 
L 2222 3500 
L 2222 3053 
L 1275 3053 
L 1275 0 
L 697 0 
L 697 3053 
L 147 3053 
L 147 3500 
L 697 3500 
L 697 3744 
Q 697 4328 969 4595 
Q 1241 4863 1831 4863 
L 2375 4863 
z
" transform="scale(0.015625)"/>
       <path id="DejaVuSans-73" d="M 2834 3397 
L 2834 2853 
Q 2591 2978 2328 3040 
Q 2066 3103 1784 3103 
Q 1356 3103 1142 2972 
Q 928 2841 928 2578 
Q 928 2378 1081 2264 
Q 1234 2150 1697 2047 
L 1894 2003 
Q 2506 1872 2764 1633 
Q 3022 1394 3022 966 
Q 3022 478 2636 193 
Q 2250 -91 1575 -91 
Q 1294 -91 989 -36 
Q 684 19 347 128 
L 347 722 
Q 666 556 975 473 
Q 1284 391 1588 391 
Q 1994 391 2212 530 
Q 2431 669 2431 922 
Q 2431 1156 2273 1281 
Q 2116 1406 1581 1522 
L 1381 1569 
Q 847 1681 609 1914 
Q 372 2147 372 2553 
Q 372 3047 722 3315 
Q 1072 3584 1716 3584 
Q 2034 3584 2315 3537 
Q 2597 3491 2834 3397 
z
" transform="scale(0.015625)"/>
       <path id="DejaVuSans-6c" d="M 603 4863 
L 1178 4863 
L 1178 0 
L 603 0 
L 603 4863 
z
" transform="scale(0.015625)"/>
       <path id="DejaVuSans-69" d="M 603 3500 
L 1178 3500 
L 1178 0 
L 603 0 
L 603 3500 
z
M 603 4863 
L 1178 4863 
L 1178 4134 
L 603 4134 
L 603 4863 
z
" transform="scale(0.015625)"/>
       <path id="DejaVuSans-6e" d="M 3513 2113 
L 3513 0 
L 2938 0 
L 2938 2094 
Q 2938 2591 2744 2837 
Q 2550 3084 2163 3084 
Q 1697 3084 1428 2787 
Q 1159 2491 1159 1978 
L 1159 0 
L 581 0 
L 581 3500 
L 1159 3500 
L 1159 2956 
Q 1366 3272 1645 3428 
Q 1925 3584 2291 3584 
Q 2894 3584 3203 3211 
Q 3513 2838 3513 2113 
z
" transform="scale(0.015625)"/>
       <path id="DejaVuSans-6b" d="M 581 4863 
L 1159 4863 
L 1159 1991 
L 2875 3500 
L 3609 3500 
L 1753 1863 
L 3688 0 
L 2938 0 
L 1159 1709 
L 1159 0 
L 581 0 
L 581 4863 
z
" transform="scale(0.015625)"/>
      </defs>
      <use xlink:href="#DejaVuSans-4e"/>
      <use xlink:href="#DejaVuSans-75" x="74.804688"/>
      <use xlink:href="#DejaVuSans-6d" x="138.183594"/>
      <use xlink:href="#DejaVuSans-62" x="235.595703"/>
      <use xlink:href="#DejaVuSans-65" x="299.072266"/>
      <use xlink:href="#DejaVuSans-72" x="360.595703"/>
      <use xlink:href="#DejaVuSans-20" x="401.708984"/>
      <use xlink:href="#DejaVuSans-6f" x="433.496094"/>
      <use xlink:href="#DejaVuSans-66" x="494.677734"/>
      <use xlink:href="#DejaVuSans-20" x="529.882812"/>
      <use xlink:href="#DejaVuSans-63" x="561.669922"/>
      <use xlink:href="#DejaVuSans-72" x="616.650391"/>
      <use xlink:href="#DejaVuSans-6f" x="655.513672"/>
      <use xlink:href="#DejaVuSans-73" x="716.695312"/>
      <use xlink:href="#DejaVuSans-73" x="768.794922"/>
      <use xlink:href="#DejaVuSans-6c" x="820.894531"/>
      <use xlink:href="#DejaVuSans-69" x="848.677734"/>
      <use xlink:href="#DejaVuSans-6e" x="876.460938"/>
      <use xlink:href="#DejaVuSans-6b" x="939.839844"/>
      <use xlink:href="#DejaVuSans-73" x="997.75"/>
     </g>
    </g>
   </g>
   <g id="patch_3">
    <path d="M 57.6 307.584 
L 57.6 41.472 
" style="fill: none; stroke: #000000; stroke-width: 0.8; stroke-linejoin: miter; stroke-linecap: square"/>
   </g>
   <g id="patch_4">
    <path d="M 414.72 307.584 
L 414.72 41.472 
" style="fill: none; stroke: #000000; stroke-width: 0.8; stroke-linejoin: miter; stroke-linecap: square"/>
   </g>
   <g id="patch_5">
    <path d="M 57.6 307.584 
L 414.72 307.584 
" style="fill: none; stroke: #000000; stroke-width: 0.8; stroke-linejoin: miter; stroke-linecap: square"/>
   </g>
   <g id="patch_6">
    <path d="M 57.6 41.472 
L 414.72 41.472 
" style="fill: none; stroke: #000000; stroke-width: 0.8; stroke-linejoin: miter; stroke-linecap: square"/>
   </g>
   <g id="legend_1">
    <g id="patch_7">
     <path d="M 293.087188 93.506375 
L 407.72 93.506375 
Q 409.72 93.506375 409.72 91.506375 
L 409.72 48.472 
Q 409.72 46.472 407.72 46.472 
L 293.087188 46.472 
Q 291.087188 46.472 291.087188 48.472 
L 291.087188 91.506375 
Q 291.087188 93.506375 293.087188 93.506375 
z
" style="fill: #ffffff; opacity: 0.8; stroke: #cccccc; stroke-linejoin: miter"/>
    </g>
    <g id="patch_8">
     <path d="M 295.087188 58.070438 
L 315.087188 58.070438 
L 315.087188 51.070438 
L 295.087188 51.070438 
z
" style="fill: #008000"/>
    </g>
    <g id="text_16">
     <!-- true -->
     <g transform="translate(323.087188 58.070438) scale(0.1 -0.1)">
      <defs>
       <path id="DejaVuSans-74" d="M 1172 4494 
L 1172 3500 
L 2356 3500 
L 2356 3053 
L 1172 3053 
L 1172 1153 
Q 1172 725 1289 603 
Q 1406 481 1766 481 
L 2356 481 
L 2356 0 
L 1766 0 
Q 1100 0 847 248 
Q 594 497 594 1153 
L 594 3053 
L 172 3053 
L 172 3500 
L 594 3500 
L 594 4494 
L 1172 4494 
z
" transform="scale(0.015625)"/>
      </defs>
      <use xlink:href="#DejaVuSans-74"/>
      <use xlink:href="#DejaVuSans-72" x="39.208984"/>
      <use xlink:href="#DejaVuSans-75" x="80.322266"/>
      <use xlink:href="#DejaVuSans-65" x="143.701172"/>
     </g>
    </g>
    <g id="patch_9">
     <path d="M 295.087188 72.748563 
L 315.087188 72.748563 
L 315.087188 65.748563 
L 295.087188 65.748563 
z
" style="fill: #7cfc00"/>
    </g>
    <g id="text_17">
     <!-- true homeotypic -->
     <g transform="translate(323.087188 72.748563) scale(0.1 -0.1)">
      <defs>
       <path id="DejaVuSans-68" d="M 3513 2113 
L 3513 0 
L 2938 0 
L 2938 2094 
Q 2938 2591 2744 2837 
Q 2550 3084 2163 3084 
Q 1697 3084 1428 2787 
Q 1159 2491 1159 1978 
L 1159 0 
L 581 0 
L 581 4863 
L 1159 4863 
L 1159 2956 
Q 1366 3272 1645 3428 
Q 1925 3584 2291 3584 
Q 2894 3584 3203 3211 
Q 3513 2838 3513 2113 
z
" transform="scale(0.015625)"/>
       <path id="DejaVuSans-79" d="M 2059 -325 
Q 1816 -950 1584 -1140 
Q 1353 -1331 966 -1331 
L 506 -1331 
L 506 -850 
L 844 -850 
Q 1081 -850 1212 -737 
Q 1344 -625 1503 -206 
L 1606 56 
L 191 3500 
L 800 3500 
L 1894 763 
L 2988 3500 
L 3597 3500 
L 2059 -325 
z
" transform="scale(0.015625)"/>
       <path id="DejaVuSans-70" d="M 1159 525 
L 1159 -1331 
L 581 -1331 
L 581 3500 
L 1159 3500 
L 1159 2969 
Q 1341 3281 1617 3432 
Q 1894 3584 2278 3584 
Q 2916 3584 3314 3078 
Q 3713 2572 3713 1747 
Q 3713 922 3314 415 
Q 2916 -91 2278 -91 
Q 1894 -91 1617 61 
Q 1341 213 1159 525 
z
M 3116 1747 
Q 3116 2381 2855 2742 
Q 2594 3103 2138 3103 
Q 1681 3103 1420 2742 
Q 1159 2381 1159 1747 
Q 1159 1113 1420 752 
Q 1681 391 2138 391 
Q 2594 391 2855 752 
Q 3116 1113 3116 1747 
z
" transform="scale(0.015625)"/>
      </defs>
      <use xlink:href="#DejaVuSans-74"/>
      <use xlink:href="#DejaVuSans-72" x="39.208984"/>
      <use xlink:href="#DejaVuSans-75" x="80.322266"/>
      <use xlink:href="#DejaVuSans-65" x="143.701172"/>
      <use xlink:href="#DejaVuSans-20" x="205.224609"/>
      <use xlink:href="#DejaVuSans-68" x="237.011719"/>
      <use xlink:href="#DejaVuSans-6f" x="300.390625"/>
      <use xlink:href="#DejaVuSans-6d" x="361.572266"/>
      <use xlink:href="#DejaVuSans-65" x="458.984375"/>
      <use xlink:href="#DejaVuSans-6f" x="520.507812"/>
      <use xlink:href="#DejaVuSans-74" x="581.689453"/>
      <use xlink:href="#DejaVuSans-79" x="620.898438"/>
      <use xlink:href="#DejaVuSans-70" x="680.078125"/>
      <use xlink:href="#DejaVuSans-69" x="743.554688"/>
      <use xlink:href="#DejaVuSans-63" x="771.337891"/>
     </g>
    </g>
    <g id="patch_10">
     <path d="M 295.087188 87.426688 
L 315.087188 87.426688 
L 315.087188 80.426688 
L 295.087188 80.426688 
z
" style="fill: #ff0000"/>
    </g>
    <g id="text_18">
     <!-- false -->
     <g transform="translate(323.087188 87.426688) scale(0.1 -0.1)">
      <defs>
       <path id="DejaVuSans-61" d="M 2194 1759 
Q 1497 1759 1228 1600 
Q 959 1441 959 1056 
Q 959 750 1161 570 
Q 1363 391 1709 391 
Q 2188 391 2477 730 
Q 2766 1069 2766 1631 
L 2766 1759 
L 2194 1759 
z
M 3341 1997 
L 3341 0 
L 2766 0 
L 2766 531 
Q 2569 213 2275 61 
Q 1981 -91 1556 -91 
Q 1019 -91 701 211 
Q 384 513 384 1019 
Q 384 1609 779 1909 
Q 1175 2209 1959 2209 
L 2766 2209 
L 2766 2266 
Q 2766 2663 2505 2880 
Q 2244 3097 1772 3097 
Q 1472 3097 1187 3025 
Q 903 2953 641 2809 
L 641 3341 
Q 956 3463 1253 3523 
Q 1550 3584 1831 3584 
Q 2591 3584 2966 3190 
Q 3341 2797 3341 1997 
z
" transform="scale(0.015625)"/>
      </defs>
      <use xlink:href="#DejaVuSans-66"/>
      <use xlink:href="#DejaVuSans-61" x="35.205078"/>
      <use xlink:href="#DejaVuSans-6c" x="96.484375"/>
      <use xlink:href="#DejaVuSans-73" x="124.267578"/>
      <use xlink:href="#DejaVuSans-65" x="176.367188"/>
     </g>
    </g>
   </g>
  </g>
 </g>
 <defs>
  <clipPath id="p0312c55611">
   <rect x="57.6" y="41.472" width="357.12" height="266.112"/>
  </clipPath>
 </defs>
</svg>
