<?xml version="1.0" encoding="utf-8" standalone="no"?>
<!DOCTYPE svg PUBLIC "-//W3C//DTD SVG 1.1//EN"
  "http://www.w3.org/Graphics/SVG/1.1/DTD/svg11.dtd">
<svg xmlns:xlink="http://www.w3.org/1999/xlink" width="460.8pt" height="345.6pt" viewBox="0 0 460.8 345.6" xmlns="http://www.w3.org/2000/svg" version="1.1">
 <metadata>
  <rdf:RDF xmlns:dc="http://purl.org/dc/elements/1.1/" xmlns:cc="http://creativecommons.org/ns#" xmlns:rdf="http://www.w3.org/1999/02/22-rdf-syntax-ns#">
   <cc:Work>
    <dc:type rdf:resource="http://purl.org/dc/dcmitype/StillImage"/>
    <dc:date>2024-10-31T14:55:22.136161</dc:date>
    <dc:format>image/svg+xml</dc:format>
    <dc:creator>
     <cc:Agent>
      <dc:title>Matplotlib v3.9.0, https://matplotlib.org/</dc:title>
     </cc:Agent>
    </dc:creator>
   </cc:Work>
  </rdf:RDF>
 </metadata>
 <defs>
  <style type="text/css">*{stroke-linejoin: round; stroke-linecap: butt}</style>
 </defs>
 <g id="figure_1">
  <g id="patch_1">
   <path d="M 0 345.6 
L 460.8 345.6 
L 460.8 0 
L 0 0 
z
" style="fill: #ffffff"/>
  </g>
  <g id="axes_1">
   <g id="patch_2">
    <path d="M 57.6 307.584 
L 414.72 307.584 
L 414.72 41.472 
L 57.6 41.472 
z
" style="fill: #ffffff"/>
   </g>
   <g id="PolyCollection_1">
    <path d="M 73.832727 110.464 
L 73.832727 307.584 
L 74.412483 307.584 
L 75.235903 307.584 
L 78.277518 307.584 
L 84.108679 307.584 
L 84.150691 307.584 
L 84.638021 307.584 
L 84.806066 307.584 
L 86.419298 307.584 
L 86.780595 307.584 
L 87.43597 307.584 
L 87.461177 307.584 
L 87.646027 307.584 
L 87.872887 307.584 
L 88.469447 307.584 
L 90.007059 307.584 
L 90.38516 307.584 
L 90.393562 307.584 
L 90.98172 307.584 
L 91.443844 307.584 
L 91.889163 307.584 
L 91.981588 307.584 
L 93.443579 307.584 
L 93.502395 307.584 
L 93.762865 307.584 
L 93.905703 307.584 
L 94.149368 307.584 
L 94.510665 307.584 
L 94.787939 307.584 
L 94.838353 307.584 
L 95.023202 307.584 
L 95.241661 307.584 
L 95.292074 307.584 
L 95.367695 307.584 
L 96.661641 307.584 
L 96.997731 307.584 
L 97.115363 307.584 
L 97.249799 307.584 
L 97.434648 307.584 
L 97.619498 307.584 
L 97.846358 307.584 
L 98.165644 307.584 
L 98.543745 307.584 
L 98.89664 307.584 
L 99.182316 307.584 
L 101.308085 307.584 
L 101.341694 307.584 
L 101.980265 307.584 
L 102.156713 307.584 
L 102.249137 307.584 
L 102.828893 307.584 
L 104.240471 307.584 
L 104.366504 307.584 
L 104.912651 307.584 
L 105.736071 307.584 
L 107.013213 307.584 
L 107.240074 307.584 
L 107.592969 307.584 
L 108.340769 307.584 
L 109.601106 307.584 
L 110.634583 307.584 
L 110.684997 307.584 
L 110.701801 307.584 
L 110.869846 307.584 
L 111.004282 307.584 
L 111.500015 307.584 
L 112.146988 307.584 
L 113.298096 307.584 
L 113.466141 307.584 
L 114.02069 307.584 
L 114.902926 307.584 
L 116.087644 307.584 
L 116.247286 307.584 
L 116.600181 307.584 
L 117.129523 307.584 
L 117.389992 307.584 
L 117.591646 307.584 
L 118.230217 307.584 
L 118.448676 307.584 
L 118.557905 307.584 
L 118.641928 307.584 
L 118.65033 307.584 
L 118.700743 307.584 
L 119.608186 307.584 
L 120.280366 307.584 
L 120.364389 307.584 
L 120.74249 307.584 
L 121.381061 307.584 
L 121.733956 307.584 
L 122.128861 307.584 
L 122.641399 307.584 
L 123.229556 307.584 
L 123.792507 307.584 
L 124.565514 307.584 
L 125.346923 307.584 
L 128.027241 307.584 
L 128.682617 307.584 
L 128.707823 307.584 
L 130.052183 307.584 
L 130.312653 307.584 
L 131.320923 307.584 
L 131.539382 307.584 
L 131.867069 307.584 
L 132.194757 307.584 
L 132.640076 307.584 
L 134.984304 307.584 
L 135.387612 307.584 
L 135.706898 307.584 
L 137.723438 307.584 
L 137.841069 307.584 
L 137.908287 307.584 
L 138.446031 307.584 
L 138.765317 307.584 
L 138.983775 307.584 
L 140.504583 307.584 
L 141.538059 307.584 
L 142.210239 307.584 
L 142.311066 307.584 
L 142.747983 307.584 
L 143.142889 307.584 
L 143.193303 307.584 
L 143.302532 307.584 
L 143.336141 307.584 
L 143.394957 307.584 
L 144.310802 307.584 
L 145.495519 307.584 
L 146.402962 307.584 
L 147.125556 307.584 
L 147.81454 307.584 
L 148.15063 307.584 
L 148.48672 307.584 
L 149.999125 307.584 
L 150.419238 307.584 
L 151.519933 307.584 
L 152.595421 307.584 
L 154.301077 307.584 
L 154.914442 307.584 
L 155.20852 307.584 
L 156.594892 307.584 
L 158.166113 307.584 
L 158.367767 307.584 
L 159.006338 307.584 
L 159.443255 307.584 
L 161.316956 307.584 
L 161.36737 307.584 
L 161.51861 307.584 
L 162.367238 307.584 
L 163.056222 307.584 
L 163.215865 307.584 
L 166.711201 307.584 
L 167.164922 307.584 
L 167.543024 307.584 
L 169.005015 307.584 
L 169.710804 307.584 
L 171.492081 307.584 
L 171.853378 307.584 
L 172.937268 307.584 
L 173.029693 307.584 
L 177.894596 307.584 
L 179.617057 307.584 
L 180.63373 307.584 
L 181.146267 307.584 
L 182.322582 307.584 
L 183.515701 307.584 
L 183.692149 307.584 
L 184.465156 307.584 
L 184.574385 307.584 
L 186.742165 307.584 
L 188.489833 307.584 
L 190.64081 307.584 
L 191.968365 307.584 
L 193.909285 307.584 
L 195.354472 307.584 
L 197.202967 307.584 
L 197.623079 307.584 
L 198.471707 307.584 
L 201.118416 307.584 
L 201.286461 307.584 
L 204.714579 307.584 
L 207.226851 307.584 
L 207.252058 307.584 
L 211.427977 307.584 
L 217.822089 307.584 
L 222.325695 307.584 
L 223.031484 307.584 
L 223.317161 307.584 
L 223.493608 307.584 
L 223.695262 307.584 
L 227.887985 307.584 
L 228.375315 307.584 
L 228.669394 307.584 
L 229.240747 307.584 
L 234.887059 307.584 
L 239.777169 307.584 
L 240.911472 307.584 
L 240.961886 307.584 
L 241.247562 307.584 
L 245.574721 307.584 
L 256.934564 307.584 
L 260.161028 307.584 
L 260.270257 307.584 
L 271.495663 307.584 
L 274.671714 307.584 
L 278.183854 307.584 
L 291.173733 307.584 
L 294.064107 307.584 
L 299.735626 307.584 
L 304.482897 307.584 
L 307.574926 307.584 
L 333.924382 307.584 
L 334.520942 307.584 
L 343.813831 307.584 
L 385.136097 307.584 
L 398.487273 307.584 
L 398.487273 307.584 
L 398.487273 307.584 
L 385.136097 307.584 
L 343.813831 307.584 
L 334.520942 307.584 
L 333.924382 306.410667 
L 307.574926 306.410667 
L 304.482897 306.410667 
L 299.735626 306.410667 
L 294.064107 306.410667 
L 291.173733 306.410667 
L 278.183854 305.237333 
L 274.671714 305.237333 
L 271.495663 305.237333 
L 260.270257 304.064 
L 260.161028 302.890667 
L 256.934564 302.890667 
L 245.574721 302.890667 
L 241.247562 302.890667 
L 240.961886 301.717333 
L 240.911472 300.544 
L 239.777169 299.370667 
L 234.887059 299.370667 
L 229.240747 298.197333 
L 228.669394 297.024 
L 228.375315 295.850667 
L 227.887985 295.850667 
L 223.695262 295.850667 
L 223.493608 295.850667 
L 223.317161 295.850667 
L 223.031484 294.677333 
L 222.325695 293.504 
L 217.822089 292.330667 
L 211.427977 292.330667 
L 207.252058 292.330667 
L 207.226851 292.330667 
L 204.714579 291.157333 
L 201.286461 289.984 
L 201.118416 289.984 
L 198.471707 289.984 
L 197.623079 288.810667 
L 197.202967 287.637333 
L 195.354472 287.637333 
L 193.909285 287.637333 
L 191.968365 286.464 
L 190.64081 285.290667 
L 188.489833 284.117333 
L 186.742165 284.117333 
L 184.574385 282.944 
L 184.465156 281.770667 
L 183.692149 280.597333 
L 183.515701 279.424 
L 182.322582 278.250667 
L 181.146267 277.077333 
L 180.63373 275.904 
L 179.617057 274.730667 
L 177.894596 273.557333 
L 173.029693 273.557333 
L 172.937268 272.384 
L 171.853378 271.210667 
L 171.492081 270.037333 
L 169.710804 268.864 
L 169.005015 267.690667 
L 167.543024 266.517333 
L 167.164922 265.344 
L 166.711201 264.170667 
L 163.215865 262.997333 
L 163.056222 261.824 
L 162.367238 261.824 
L 161.51861 260.650667 
L 161.36737 259.477333 
L 161.316956 258.304 
L 159.443255 257.130667 
L 159.006338 255.957333 
L 158.367767 254.784 
L 158.166113 253.610667 
L 156.594892 252.437333 
L 155.20852 251.264 
L 154.914442 251.264 
L 154.301077 250.090667 
L 152.595421 250.090667 
L 151.519933 248.917333 
L 150.419238 247.744 
L 149.999125 246.570667 
L 148.48672 245.397333 
L 148.15063 244.224 
L 147.81454 243.050667 
L 147.125556 241.877333 
L 146.402962 241.877333 
L 145.495519 240.704 
L 144.310802 239.530667 
L 143.394957 238.357333 
L 143.336141 237.184 
L 143.302532 236.010667 
L 143.193303 234.837333 
L 143.142889 233.664 
L 142.747983 233.664 
L 142.311066 232.490667 
L 142.210239 231.317333 
L 141.538059 230.144 
L 140.504583 228.970667 
L 138.983775 227.797333 
L 138.765317 225.450667 
L 138.446031 224.277333 
L 137.908287 223.104 
L 137.841069 221.930667 
L 137.723438 221.930667 
L 135.706898 220.757333 
L 135.387612 219.584 
L 134.984304 218.410667 
L 132.640076 217.237333 
L 132.194757 216.064 
L 131.867069 216.064 
L 131.539382 214.890667 
L 131.320923 213.717333 
L 130.312653 212.544 
L 130.052183 211.370667 
L 128.707823 210.197333 
L 128.682617 209.024 
L 128.027241 209.024 
L 125.346923 207.850667 
L 124.565514 206.677333 
L 123.792507 205.504 
L 123.229556 204.330667 
L 122.641399 203.157333 
L 122.128861 201.984 
L 121.733956 200.810667 
L 121.381061 199.637333 
L 120.74249 198.464 
L 120.364389 197.290667 
L 120.280366 196.117333 
L 119.608186 194.944 
L 118.700743 193.770667 
L 118.65033 192.597333 
L 118.641928 191.424 
L 118.557905 191.424 
L 118.448676 190.250667 
L 118.230217 189.077333 
L 117.591646 187.904 
L 117.389992 186.730667 
L 117.129523 185.557333 
L 116.600181 184.384 
L 116.247286 183.210667 
L 116.087644 183.210667 
L 114.902926 182.037333 
L 114.02069 182.037333 
L 113.466141 180.864 
L 113.298096 179.690667 
L 112.146988 179.690667 
L 111.500015 179.690667 
L 111.004282 178.517333 
L 110.869846 177.344 
L 110.701801 177.344 
L 110.684997 176.170667 
L 110.634583 174.997333 
L 109.601106 173.824 
L 108.340769 172.650667 
L 107.592969 171.477333 
L 107.240074 170.304 
L 107.013213 169.130667 
L 105.736071 167.957333 
L 104.912651 166.784 
L 104.366504 165.610667 
L 104.240471 164.437333 
L 102.828893 163.264 
L 102.249137 162.090667 
L 102.156713 162.090667 
L 101.980265 160.917333 
L 101.341694 159.744 
L 101.308085 159.744 
L 99.182316 158.570667 
L 98.89664 157.397333 
L 98.543745 157.397333 
L 98.165644 156.224 
L 97.846358 155.050667 
L 97.619498 153.877333 
L 97.434648 152.704 
L 97.249799 151.530667 
L 97.115363 150.357333 
L 96.997731 149.184 
L 96.661641 146.837333 
L 95.367695 146.837333 
L 95.292074 145.664 
L 95.241661 144.490667 
L 95.023202 143.317333 
L 94.838353 142.144 
L 94.787939 140.970667 
L 94.510665 139.797333 
L 94.149368 138.624 
L 93.905703 137.450667 
L 93.762865 136.277333 
L 93.502395 135.104 
L 93.443579 133.930667 
L 91.981588 132.757333 
L 91.889163 131.584 
L 91.443844 130.410667 
L 90.98172 129.237333 
L 90.393562 128.064 
L 90.38516 126.890667 
L 90.007059 125.717333 
L 88.469447 124.544 
L 87.872887 123.370667 
L 87.646027 122.197333 
L 87.461177 121.024 
L 87.43597 119.850667 
L 86.780595 119.850667 
L 86.419298 118.677333 
L 84.806066 117.504 
L 84.638021 117.504 
L 84.150691 116.330667 
L 84.108679 115.157333 
L 78.277518 113.984 
L 75.235903 112.810667 
L 74.412483 111.637333 
L 73.832727 110.464 
z
" clip-path="url(#p4da2d21ce1)" style="fill: #008000"/>
   </g>
   <g id="PolyCollection_2">
    <path d="M 73.832727 55.317333 
L 73.832727 110.464 
L 74.412483 111.637333 
L 75.235903 112.810667 
L 78.277518 113.984 
L 84.108679 115.157333 
L 84.150691 116.330667 
L 84.638021 117.504 
L 84.806066 117.504 
L 86.419298 118.677333 
L 86.780595 119.850667 
L 87.43597 119.850667 
L 87.461177 121.024 
L 87.646027 122.197333 
L 87.872887 123.370667 
L 88.469447 124.544 
L 90.007059 125.717333 
L 90.38516 126.890667 
L 90.393562 128.064 
L 90.98172 129.237333 
L 91.443844 130.410667 
L 91.889163 131.584 
L 91.981588 132.757333 
L 93.443579 133.930667 
L 93.502395 135.104 
L 93.762865 136.277333 
L 93.905703 137.450667 
L 94.149368 138.624 
L 94.510665 139.797333 
L 94.787939 140.970667 
L 94.838353 142.144 
L 95.023202 143.317333 
L 95.241661 144.490667 
L 95.292074 145.664 
L 95.367695 146.837333 
L 96.661641 146.837333 
L 96.997731 149.184 
L 97.115363 150.357333 
L 97.249799 151.530667 
L 97.434648 152.704 
L 97.619498 153.877333 
L 97.846358 155.050667 
L 98.165644 156.224 
L 98.543745 157.397333 
L 98.89664 157.397333 
L 99.182316 158.570667 
L 101.308085 159.744 
L 101.341694 159.744 
L 101.980265 160.917333 
L 102.156713 162.090667 
L 102.249137 162.090667 
L 102.828893 163.264 
L 104.240471 164.437333 
L 104.366504 165.610667 
L 104.912651 166.784 
L 105.736071 167.957333 
L 107.013213 169.130667 
L 107.240074 170.304 
L 107.592969 171.477333 
L 108.340769 172.650667 
L 109.601106 173.824 
L 110.634583 174.997333 
L 110.684997 176.170667 
L 110.701801 177.344 
L 110.869846 177.344 
L 111.004282 178.517333 
L 111.500015 179.690667 
L 112.146988 179.690667 
L 113.298096 179.690667 
L 113.466141 180.864 
L 114.02069 182.037333 
L 114.902926 182.037333 
L 116.087644 183.210667 
L 116.247286 183.210667 
L 116.600181 184.384 
L 117.129523 185.557333 
L 117.389992 186.730667 
L 117.591646 187.904 
L 118.230217 189.077333 
L 118.448676 190.250667 
L 118.557905 191.424 
L 118.641928 191.424 
L 118.65033 192.597333 
L 118.700743 193.770667 
L 119.608186 194.944 
L 120.280366 196.117333 
L 120.364389 197.290667 
L 120.74249 198.464 
L 121.381061 199.637333 
L 121.733956 200.810667 
L 122.128861 201.984 
L 122.641399 203.157333 
L 123.229556 204.330667 
L 123.792507 205.504 
L 124.565514 206.677333 
L 125.346923 207.850667 
L 128.027241 209.024 
L 128.682617 209.024 
L 128.707823 210.197333 
L 130.052183 211.370667 
L 130.312653 212.544 
L 131.320923 213.717333 
L 131.539382 214.890667 
L 131.867069 216.064 
L 132.194757 216.064 
L 132.640076 217.237333 
L 134.984304 218.410667 
L 135.387612 219.584 
L 135.706898 220.757333 
L 137.723438 221.930667 
L 137.841069 221.930667 
L 137.908287 223.104 
L 138.446031 224.277333 
L 138.765317 225.450667 
L 138.983775 227.797333 
L 140.504583 228.970667 
L 141.538059 230.144 
L 142.210239 231.317333 
L 142.311066 232.490667 
L 142.747983 233.664 
L 143.142889 233.664 
L 143.193303 234.837333 
L 143.302532 236.010667 
L 143.336141 237.184 
L 143.394957 238.357333 
L 144.310802 239.530667 
L 145.495519 240.704 
L 146.402962 241.877333 
L 147.125556 241.877333 
L 147.81454 243.050667 
L 148.15063 244.224 
L 148.48672 245.397333 
L 149.999125 246.570667 
L 150.419238 247.744 
L 151.519933 248.917333 
L 152.595421 250.090667 
L 154.301077 250.090667 
L 154.914442 251.264 
L 155.20852 251.264 
L 156.594892 252.437333 
L 158.166113 253.610667 
L 158.367767 254.784 
L 159.006338 255.957333 
L 159.443255 257.130667 
L 161.316956 258.304 
L 161.36737 259.477333 
L 161.51861 260.650667 
L 162.367238 261.824 
L 163.056222 261.824 
L 163.215865 262.997333 
L 166.711201 264.170667 
L 167.164922 265.344 
L 167.543024 266.517333 
L 169.005015 267.690667 
L 169.710804 268.864 
L 171.492081 270.037333 
L 171.853378 271.210667 
L 172.937268 272.384 
L 173.029693 273.557333 
L 177.894596 273.557333 
L 179.617057 274.730667 
L 180.63373 275.904 
L 181.146267 277.077333 
L 182.322582 278.250667 
L 183.515701 279.424 
L 183.692149 280.597333 
L 184.465156 281.770667 
L 184.574385 282.944 
L 186.742165 284.117333 
L 188.489833 284.117333 
L 190.64081 285.290667 
L 191.968365 286.464 
L 193.909285 287.637333 
L 195.354472 287.637333 
L 197.202967 287.637333 
L 197.623079 288.810667 
L 198.471707 289.984 
L 201.118416 289.984 
L 201.286461 289.984 
L 204.714579 291.157333 
L 207.226851 292.330667 
L 207.252058 292.330667 
L 211.427977 292.330667 
L 217.822089 292.330667 
L 222.325695 293.504 
L 223.031484 294.677333 
L 223.317161 295.850667 
L 223.493608 295.850667 
L 223.695262 295.850667 
L 227.887985 295.850667 
L 228.375315 295.850667 
L 228.669394 297.024 
L 229.240747 298.197333 
L 234.887059 299.370667 
L 239.777169 299.370667 
L 240.911472 300.544 
L 240.961886 301.717333 
L 241.247562 302.890667 
L 245.574721 302.890667 
L 256.934564 302.890667 
L 260.161028 302.890667 
L 260.270257 304.064 
L 271.495663 305.237333 
L 274.671714 305.237333 
L 278.183854 305.237333 
L 291.173733 306.410667 
L 294.064107 306.410667 
L 299.735626 306.410667 
L 304.482897 306.410667 
L 307.574926 306.410667 
L 333.924382 306.410667 
L 334.520942 307.584 
L 343.813831 307.584 
L 385.136097 307.584 
L 398.487273 307.584 
L 398.487273 306.410667 
L 398.487273 306.410667 
L 385.136097 305.237333 
L 343.813831 304.064 
L 334.520942 302.890667 
L 333.924382 301.717333 
L 307.574926 300.544 
L 304.482897 299.370667 
L 299.735626 298.197333 
L 294.064107 297.024 
L 291.173733 295.850667 
L 278.183854 294.677333 
L 274.671714 293.504 
L 271.495663 292.330667 
L 260.270257 291.157333 
L 260.161028 289.984 
L 256.934564 288.810667 
L 245.574721 287.637333 
L 241.247562 286.464 
L 240.961886 285.290667 
L 240.911472 284.117333 
L 239.777169 282.944 
L 234.887059 281.770667 
L 229.240747 280.597333 
L 228.669394 279.424 
L 228.375315 278.250667 
L 227.887985 277.077333 
L 223.695262 275.904 
L 223.493608 274.730667 
L 223.317161 273.557333 
L 223.031484 272.384 
L 222.325695 271.210667 
L 217.822089 270.037333 
L 211.427977 268.864 
L 207.252058 267.690667 
L 207.226851 266.517333 
L 204.714579 265.344 
L 201.286461 264.170667 
L 201.118416 262.997333 
L 198.471707 261.824 
L 197.623079 260.650667 
L 197.202967 259.477333 
L 195.354472 258.304 
L 193.909285 257.130667 
L 191.968365 255.957333 
L 190.64081 254.784 
L 188.489833 253.610667 
L 186.742165 252.437333 
L 184.574385 251.264 
L 184.465156 250.090667 
L 183.692149 248.917333 
L 183.515701 247.744 
L 182.322582 246.570667 
L 181.146267 245.397333 
L 180.63373 244.224 
L 179.617057 243.050667 
L 177.894596 241.877333 
L 173.029693 240.704 
L 172.937268 239.530667 
L 171.853378 238.357333 
L 171.492081 237.184 
L 169.710804 236.010667 
L 169.005015 234.837333 
L 167.543024 233.664 
L 167.164922 232.490667 
L 166.711201 231.317333 
L 163.215865 230.144 
L 163.056222 228.970667 
L 162.367238 227.797333 
L 161.51861 226.624 
L 161.36737 225.450667 
L 161.316956 224.277333 
L 159.443255 223.104 
L 159.006338 221.930667 
L 158.367767 220.757333 
L 158.166113 219.584 
L 156.594892 218.410667 
L 155.20852 217.237333 
L 154.914442 216.064 
L 154.301077 214.890667 
L 152.595421 213.717333 
L 151.519933 212.544 
L 150.419238 211.370667 
L 149.999125 210.197333 
L 148.48672 209.024 
L 148.15063 207.850667 
L 147.81454 206.677333 
L 147.125556 205.504 
L 146.402962 204.330667 
L 145.495519 203.157333 
L 144.310802 201.984 
L 143.394957 200.810667 
L 143.336141 199.637333 
L 143.302532 198.464 
L 143.193303 197.290667 
L 143.142889 196.117333 
L 142.747983 194.944 
L 142.311066 193.770667 
L 142.210239 192.597333 
L 141.538059 191.424 
L 140.504583 190.250667 
L 138.983775 189.077333 
L 138.765317 186.730667 
L 138.446031 185.557333 
L 137.908287 184.384 
L 137.841069 183.210667 
L 137.723438 182.037333 
L 135.706898 180.864 
L 135.387612 179.690667 
L 134.984304 178.517333 
L 132.640076 177.344 
L 132.194757 176.170667 
L 131.867069 174.997333 
L 131.539382 173.824 
L 131.320923 172.650667 
L 130.312653 171.477333 
L 130.052183 170.304 
L 128.707823 169.130667 
L 128.682617 167.957333 
L 128.027241 166.784 
L 125.346923 165.610667 
L 124.565514 164.437333 
L 123.792507 163.264 
L 123.229556 162.090667 
L 122.641399 160.917333 
L 122.128861 159.744 
L 121.733956 158.570667 
L 121.381061 157.397333 
L 120.74249 156.224 
L 120.364389 155.050667 
L 120.280366 153.877333 
L 119.608186 152.704 
L 118.700743 151.530667 
L 118.65033 150.357333 
L 118.641928 149.184 
L 118.557905 148.010667 
L 118.448676 146.837333 
L 118.230217 145.664 
L 117.591646 144.490667 
L 117.389992 143.317333 
L 117.129523 142.144 
L 116.600181 140.970667 
L 116.247286 139.797333 
L 116.087644 138.624 
L 114.902926 137.450667 
L 114.02069 136.277333 
L 113.466141 135.104 
L 113.298096 133.930667 
L 112.146988 132.757333 
L 111.500015 131.584 
L 111.004282 130.410667 
L 110.869846 129.237333 
L 110.701801 128.064 
L 110.684997 126.890667 
L 110.634583 125.717333 
L 109.601106 124.544 
L 108.340769 123.370667 
L 107.592969 122.197333 
L 107.240074 121.024 
L 107.013213 119.850667 
L 105.736071 118.677333 
L 104.912651 117.504 
L 104.366504 116.330667 
L 104.240471 115.157333 
L 102.828893 113.984 
L 102.249137 112.810667 
L 102.156713 111.637333 
L 101.980265 110.464 
L 101.341694 109.290667 
L 101.308085 108.117333 
L 99.182316 106.944 
L 98.89664 105.770667 
L 98.543745 104.597333 
L 98.165644 103.424 
L 97.846358 102.250667 
L 97.619498 101.077333 
L 97.434648 99.904 
L 97.249799 98.730667 
L 97.115363 97.557333 
L 96.997731 96.384 
L 96.661641 94.037333 
L 95.367695 92.864 
L 95.292074 91.690667 
L 95.241661 90.517333 
L 95.023202 89.344 
L 94.838353 88.170667 
L 94.787939 86.997333 
L 94.510665 85.824 
L 94.149368 84.650667 
L 93.905703 83.477333 
L 93.762865 82.304 
L 93.502395 81.130667 
L 93.443579 79.957333 
L 91.981588 78.784 
L 91.889163 77.610667 
L 91.443844 76.437333 
L 90.98172 75.264 
L 90.393562 74.090667 
L 90.38516 72.917333 
L 90.007059 71.744 
L 88.469447 70.570667 
L 87.872887 69.397333 
L 87.646027 68.224 
L 87.461177 67.050667 
L 87.43597 65.877333 
L 86.780595 64.704 
L 86.419298 63.530667 
L 84.806066 62.357333 
L 84.638021 62.357333 
L 84.150691 61.184 
L 84.108679 60.010667 
L 78.277518 58.837333 
L 75.235903 57.664 
L 74.412483 56.490667 
L 73.832727 55.317333 
z
" clip-path="url(#p4da2d21ce1)" style="fill: #7cfc00"/>
   </g>
   <g id="PolyCollection_3">
    <path d="M 73.832727 54.144 
L 73.832727 55.317333 
L 74.412483 56.490667 
L 75.235903 57.664 
L 78.277518 58.837333 
L 84.108679 60.010667 
L 84.150691 61.184 
L 84.638021 62.357333 
L 84.806066 62.357333 
L 86.419298 63.530667 
L 86.780595 64.704 
L 87.43597 65.877333 
L 87.461177 67.050667 
L 87.646027 68.224 
L 87.872887 69.397333 
L 88.469447 70.570667 
L 90.007059 71.744 
L 90.38516 72.917333 
L 90.393562 74.090667 
L 90.98172 75.264 
L 91.443844 76.437333 
L 91.889163 77.610667 
L 91.981588 78.784 
L 93.443579 79.957333 
L 93.502395 81.130667 
L 93.762865 82.304 
L 93.905703 83.477333 
L 94.149368 84.650667 
L 94.510665 85.824 
L 94.787939 86.997333 
L 94.838353 88.170667 
L 95.023202 89.344 
L 95.241661 90.517333 
L 95.292074 91.690667 
L 95.367695 92.864 
L 96.661641 94.037333 
L 96.997731 96.384 
L 97.115363 97.557333 
L 97.249799 98.730667 
L 97.434648 99.904 
L 97.619498 101.077333 
L 97.846358 102.250667 
L 98.165644 103.424 
L 98.543745 104.597333 
L 98.89664 105.770667 
L 99.182316 106.944 
L 101.308085 108.117333 
L 101.341694 109.290667 
L 101.980265 110.464 
L 102.156713 111.637333 
L 102.249137 112.810667 
L 102.828893 113.984 
L 104.240471 115.157333 
L 104.366504 116.330667 
L 104.912651 117.504 
L 105.736071 118.677333 
L 107.013213 119.850667 
L 107.240074 121.024 
L 107.592969 122.197333 
L 108.340769 123.370667 
L 109.601106 124.544 
L 110.634583 125.717333 
L 110.684997 126.890667 
L 110.701801 128.064 
L 110.869846 129.237333 
L 111.004282 130.410667 
L 111.500015 131.584 
L 112.146988 132.757333 
L 113.298096 133.930667 
L 113.466141 135.104 
L 114.02069 136.277333 
L 114.902926 137.450667 
L 116.087644 138.624 
L 116.247286 139.797333 
L 116.600181 140.970667 
L 117.129523 142.144 
L 117.389992 143.317333 
L 117.591646 144.490667 
L 118.230217 145.664 
L 118.448676 146.837333 
L 118.557905 148.010667 
L 118.641928 149.184 
L 118.65033 150.357333 
L 118.700743 151.530667 
L 119.608186 152.704 
L 120.280366 153.877333 
L 120.364389 155.050667 
L 120.74249 156.224 
L 121.381061 157.397333 
L 121.733956 158.570667 
L 122.128861 159.744 
L 122.641399 160.917333 
L 123.229556 162.090667 
L 123.792507 163.264 
L 124.565514 164.437333 
L 125.346923 165.610667 
L 128.027241 166.784 
L 128.682617 167.957333 
L 128.707823 169.130667 
L 130.052183 170.304 
L 130.312653 171.477333 
L 131.320923 172.650667 
L 131.539382 173.824 
L 131.867069 174.997333 
L 132.194757 176.170667 
L 132.640076 177.344 
L 134.984304 178.517333 
L 135.387612 179.690667 
L 135.706898 180.864 
L 137.723438 182.037333 
L 137.841069 183.210667 
L 137.908287 184.384 
L 138.446031 185.557333 
L 138.765317 186.730667 
L 138.983775 189.077333 
L 140.504583 190.250667 
L 141.538059 191.424 
L 142.210239 192.597333 
L 142.311066 193.770667 
L 142.747983 194.944 
L 143.142889 196.117333 
L 143.193303 197.290667 
L 143.302532 198.464 
L 143.336141 199.637333 
L 143.394957 200.810667 
L 144.310802 201.984 
L 145.495519 203.157333 
L 146.402962 204.330667 
L 147.125556 205.504 
L 147.81454 206.677333 
L 148.15063 207.850667 
L 148.48672 209.024 
L 149.999125 210.197333 
L 150.419238 211.370667 
L 151.519933 212.544 
L 152.595421 213.717333 
L 154.301077 214.890667 
L 154.914442 216.064 
L 155.20852 217.237333 
L 156.594892 218.410667 
L 158.166113 219.584 
L 158.367767 220.757333 
L 159.006338 221.930667 
L 159.443255 223.104 
L 161.316956 224.277333 
L 161.36737 225.450667 
L 161.51861 226.624 
L 162.367238 227.797333 
L 163.056222 228.970667 
L 163.215865 230.144 
L 166.711201 231.317333 
L 167.164922 232.490667 
L 167.543024 233.664 
L 169.005015 234.837333 
L 169.710804 236.010667 
L 171.492081 237.184 
L 171.853378 238.357333 
L 172.937268 239.530667 
L 173.029693 240.704 
L 177.894596 241.877333 
L 179.617057 243.050667 
L 180.63373 244.224 
L 181.146267 245.397333 
L 182.322582 246.570667 
L 183.515701 247.744 
L 183.692149 248.917333 
L 184.465156 250.090667 
L 184.574385 251.264 
L 186.742165 252.437333 
L 188.489833 253.610667 
L 190.64081 254.784 
L 191.968365 255.957333 
L 193.909285 257.130667 
L 195.354472 258.304 
L 197.202967 259.477333 
L 197.623079 260.650667 
L 198.471707 261.824 
L 201.118416 262.997333 
L 201.286461 264.170667 
L 204.714579 265.344 
L 207.226851 266.517333 
L 207.252058 267.690667 
L 211.427977 268.864 
L 217.822089 270.037333 
L 222.325695 271.210667 
L 223.031484 272.384 
L 223.317161 273.557333 
L 223.493608 274.730667 
L 223.695262 275.904 
L 227.887985 277.077333 
L 228.375315 278.250667 
L 228.669394 279.424 
L 229.240747 280.597333 
L 234.887059 281.770667 
L 239.777169 282.944 
L 240.911472 284.117333 
L 240.961886 285.290667 
L 241.247562 286.464 
L 245.574721 287.637333 
L 256.934564 288.810667 
L 260.161028 289.984 
L 260.270257 291.157333 
L 271.495663 292.330667 
L 274.671714 293.504 
L 278.183854 294.677333 
L 291.173733 295.850667 
L 294.064107 297.024 
L 299.735626 298.197333 
L 304.482897 299.370667 
L 307.574926 300.544 
L 333.924382 301.717333 
L 334.520942 302.890667 
L 343.813831 304.064 
L 385.136097 305.237333 
L 398.487273 306.410667 
L 398.487273 306.410667 
L 398.487273 306.410667 
L 385.136097 305.237333 
L 343.813831 304.064 
L 334.520942 302.890667 
L 333.924382 301.717333 
L 307.574926 300.544 
L 304.482897 299.370667 
L 299.735626 298.197333 
L 294.064107 297.024 
L 291.173733 295.850667 
L 278.183854 294.677333 
L 274.671714 293.504 
L 271.495663 292.330667 
L 260.270257 291.157333 
L 260.161028 289.984 
L 256.934564 288.810667 
L 245.574721 287.637333 
L 241.247562 286.464 
L 240.961886 285.290667 
L 240.911472 284.117333 
L 239.777169 282.944 
L 234.887059 281.770667 
L 229.240747 280.597333 
L 228.669394 279.424 
L 228.375315 278.250667 
L 227.887985 277.077333 
L 223.695262 275.904 
L 223.493608 274.730667 
L 223.317161 273.557333 
L 223.031484 272.384 
L 222.325695 271.210667 
L 217.822089 270.037333 
L 211.427977 268.864 
L 207.252058 267.690667 
L 207.226851 266.517333 
L 204.714579 265.344 
L 201.286461 264.170667 
L 201.118416 262.997333 
L 198.471707 261.824 
L 197.623079 260.650667 
L 197.202967 259.477333 
L 195.354472 258.304 
L 193.909285 257.130667 
L 191.968365 255.957333 
L 190.64081 254.784 
L 188.489833 253.610667 
L 186.742165 252.437333 
L 184.574385 251.264 
L 184.465156 250.090667 
L 183.692149 248.917333 
L 183.515701 247.744 
L 182.322582 246.570667 
L 181.146267 245.397333 
L 180.63373 244.224 
L 179.617057 243.050667 
L 177.894596 241.877333 
L 173.029693 240.704 
L 172.937268 239.530667 
L 171.853378 238.357333 
L 171.492081 237.184 
L 169.710804 236.010667 
L 169.005015 234.837333 
L 167.543024 233.664 
L 167.164922 232.490667 
L 166.711201 231.317333 
L 163.215865 230.144 
L 163.056222 228.970667 
L 162.367238 227.797333 
L 161.51861 226.624 
L 161.36737 225.450667 
L 161.316956 224.277333 
L 159.443255 223.104 
L 159.006338 221.930667 
L 158.367767 220.757333 
L 158.166113 219.584 
L 156.594892 218.410667 
L 155.20852 217.237333 
L 154.914442 216.064 
L 154.301077 214.890667 
L 152.595421 213.717333 
L 151.519933 212.544 
L 150.419238 211.370667 
L 149.999125 210.197333 
L 148.48672 209.024 
L 148.15063 207.850667 
L 147.81454 206.677333 
L 147.125556 205.504 
L 146.402962 204.330667 
L 145.495519 203.157333 
L 144.310802 201.984 
L 143.394957 200.810667 
L 143.336141 199.637333 
L 143.302532 198.464 
L 143.193303 197.290667 
L 143.142889 196.117333 
L 142.747983 194.944 
L 142.311066 193.770667 
L 142.210239 192.597333 
L 141.538059 191.424 
L 140.504583 190.250667 
L 138.983775 189.077333 
L 138.765317 186.730667 
L 138.446031 185.557333 
L 137.908287 184.384 
L 137.841069 183.210667 
L 137.723438 182.037333 
L 135.706898 180.864 
L 135.387612 179.690667 
L 134.984304 178.517333 
L 132.640076 177.344 
L 132.194757 176.170667 
L 131.867069 174.997333 
L 131.539382 173.824 
L 131.320923 172.650667 
L 130.312653 171.477333 
L 130.052183 170.304 
L 128.707823 169.130667 
L 128.682617 167.957333 
L 128.027241 166.784 
L 125.346923 165.610667 
L 124.565514 164.437333 
L 123.792507 163.264 
L 123.229556 162.090667 
L 122.641399 160.917333 
L 122.128861 159.744 
L 121.733956 158.570667 
L 121.381061 157.397333 
L 120.74249 156.224 
L 120.364389 155.050667 
L 120.280366 153.877333 
L 119.608186 152.704 
L 118.700743 151.530667 
L 118.65033 150.357333 
L 118.641928 149.184 
L 118.557905 148.010667 
L 118.448676 146.837333 
L 118.230217 145.664 
L 117.591646 144.490667 
L 117.389992 143.317333 
L 117.129523 142.144 
L 116.600181 140.970667 
L 116.247286 139.797333 
L 116.087644 138.624 
L 114.902926 137.450667 
L 114.02069 136.277333 
L 113.466141 135.104 
L 113.298096 133.930667 
L 112.146988 132.757333 
L 111.500015 131.584 
L 111.004282 130.410667 
L 110.869846 129.237333 
L 110.701801 128.064 
L 110.684997 126.890667 
L 110.634583 125.717333 
L 109.601106 124.544 
L 108.340769 123.370667 
L 107.592969 122.197333 
L 107.240074 121.024 
L 107.013213 119.850667 
L 105.736071 118.677333 
L 104.912651 117.504 
L 104.366504 116.330667 
L 104.240471 115.157333 
L 102.828893 113.984 
L 102.249137 112.810667 
L 102.156713 111.637333 
L 101.980265 110.464 
L 101.341694 109.290667 
L 101.308085 108.117333 
L 99.182316 106.944 
L 98.89664 105.770667 
L 98.543745 104.597333 
L 98.165644 103.424 
L 97.846358 102.250667 
L 97.619498 101.077333 
L 97.434648 99.904 
L 97.249799 98.730667 
L 97.115363 97.557333 
L 96.997731 96.384 
L 96.661641 94.037333 
L 95.367695 92.864 
L 95.292074 91.690667 
L 95.241661 90.517333 
L 95.023202 89.344 
L 94.838353 88.170667 
L 94.787939 86.997333 
L 94.510665 85.824 
L 94.149368 84.650667 
L 93.905703 83.477333 
L 93.762865 82.304 
L 93.502395 81.130667 
L 93.443579 79.957333 
L 91.981588 78.784 
L 91.889163 77.610667 
L 91.443844 76.437333 
L 90.98172 75.264 
L 90.393562 74.090667 
L 90.38516 72.917333 
L 90.007059 71.744 
L 88.469447 70.570667 
L 87.872887 69.397333 
L 87.646027 68.224 
L 87.461177 67.050667 
L 87.43597 65.877333 
L 86.780595 64.704 
L 86.419298 63.530667 
L 84.806066 62.357333 
L 84.638021 61.184 
L 84.150691 60.010667 
L 84.108679 58.837333 
L 78.277518 57.664 
L 75.235903 56.490667 
L 74.412483 55.317333 
L 73.832727 54.144 
z
" clip-path="url(#p4da2d21ce1)" style="fill: #ff0000"/>
   </g>
   <g id="matplotlib.axis_1">
    <g id="xtick_1">
     <g id="line2d_1">
      <defs>
       <path id="m473607f760" d="M 0 0 
L 0 3.5 
" style="stroke: #000000; stroke-width: 0.8"/>
      </defs>
      <g>
       <use xlink:href="#m473607f760" x="59.884992" y="307.584" style="stroke: #000000; stroke-width: 0.8"/>
      </g>
     </g>
     <g id="text_1">
      <!-- 50 -->
      <g transform="translate(53.522492 322.182437) scale(0.1 -0.1)">
       <defs>
        <path id="DejaVuSans-35" d="M 691 4666 
L 3169 4666 
L 3169 4134 
L 1269 4134 
L 1269 2991 
Q 1406 3038 1543 3061 
Q 1681 3084 1819 3084 
Q 2600 3084 3056 2656 
Q 3513 2228 3513 1497 
Q 3513 744 3044 326 
Q 2575 -91 1722 -91 
Q 1428 -91 1123 -41 
Q 819 9 494 109 
L 494 744 
Q 775 591 1075 516 
Q 1375 441 1709 441 
Q 2250 441 2565 725 
Q 2881 1009 2881 1497 
Q 2881 1984 2565 2268 
Q 2250 2553 1709 2553 
Q 1456 2553 1204 2497 
Q 953 2441 691 2322 
L 691 4666 
z
" transform="scale(0.015625)"/>
        <path id="DejaVuSans-30" d="M 2034 4250 
Q 1547 4250 1301 3770 
Q 1056 3291 1056 2328 
Q 1056 1369 1301 889 
Q 1547 409 2034 409 
Q 2525 409 2770 889 
Q 3016 1369 3016 2328 
Q 3016 3291 2770 3770 
Q 2525 4250 2034 4250 
z
M 2034 4750 
Q 2819 4750 3233 4129 
Q 3647 3509 3647 2328 
Q 3647 1150 3233 529 
Q 2819 -91 2034 -91 
Q 1250 -91 836 529 
Q 422 1150 422 2328 
Q 422 3509 836 4129 
Q 1250 4750 2034 4750 
z
" transform="scale(0.015625)"/>
       </defs>
       <use xlink:href="#DejaVuSans-35"/>
       <use xlink:href="#DejaVuSans-30" x="63.623047"/>
      </g>
     </g>
    </g>
    <g id="xtick_2">
     <g id="line2d_2">
      <g>
       <use xlink:href="#m473607f760" x="101.896243" y="307.584" style="stroke: #000000; stroke-width: 0.8"/>
      </g>
     </g>
     <g id="text_2">
      <!-- 100 -->
      <g transform="translate(92.352493 322.182437) scale(0.1 -0.1)">
       <defs>
        <path id="DejaVuSans-31" d="M 794 531 
L 1825 531 
L 1825 4091 
L 703 3866 
L 703 4441 
L 1819 4666 
L 2450 4666 
L 2450 531 
L 3481 531 
L 3481 0 
L 794 0 
L 794 531 
z
" transform="scale(0.015625)"/>
       </defs>
       <use xlink:href="#DejaVuSans-31"/>
       <use xlink:href="#DejaVuSans-30" x="63.623047"/>
       <use xlink:href="#DejaVuSans-30" x="127.246094"/>
      </g>
     </g>
    </g>
    <g id="xtick_3">
     <g id="line2d_3">
      <g>
       <use xlink:href="#m473607f760" x="143.907494" y="307.584" style="stroke: #000000; stroke-width: 0.8"/>
      </g>
     </g>
     <g id="text_3">
      <!-- 150 -->
      <g transform="translate(134.363744 322.182437) scale(0.1 -0.1)">
       <use xlink:href="#DejaVuSans-31"/>
       <use xlink:href="#DejaVuSans-35" x="63.623047"/>
       <use xlink:href="#DejaVuSans-30" x="127.246094"/>
      </g>
     </g>
    </g>
    <g id="xtick_4">
     <g id="line2d_4">
      <g>
       <use xlink:href="#m473607f760" x="185.918745" y="307.584" style="stroke: #000000; stroke-width: 0.8"/>
      </g>
     </g>
     <g id="text_4">
      <!-- 200 -->
      <g transform="translate(176.374995 322.182437) scale(0.1 -0.1)">
       <defs>
        <path id="DejaVuSans-32" d="M 1228 531 
L 3431 531 
L 3431 0 
L 469 0 
L 469 531 
Q 828 903 1448 1529 
Q 2069 2156 2228 2338 
Q 2531 2678 2651 2914 
Q 2772 3150 2772 3378 
Q 2772 3750 2511 3984 
Q 2250 4219 1831 4219 
Q 1534 4219 1204 4116 
Q 875 4013 500 3803 
L 500 4441 
Q 881 4594 1212 4672 
Q 1544 4750 1819 4750 
Q 2544 4750 2975 4387 
Q 3406 4025 3406 3419 
Q 3406 3131 3298 2873 
Q 3191 2616 2906 2266 
Q 2828 2175 2409 1742 
Q 1991 1309 1228 531 
z
" transform="scale(0.015625)"/>
       </defs>
       <use xlink:href="#DejaVuSans-32"/>
       <use xlink:href="#DejaVuSans-30" x="63.623047"/>
       <use xlink:href="#DejaVuSans-30" x="127.246094"/>
      </g>
     </g>
    </g>
    <g id="xtick_5">
     <g id="line2d_5">
      <g>
       <use xlink:href="#m473607f760" x="227.929996" y="307.584" style="stroke: #000000; stroke-width: 0.8"/>
      </g>
     </g>
     <g id="text_5">
      <!-- 250 -->
      <g transform="translate(218.386246 322.182437) scale(0.1 -0.1)">
       <use xlink:href="#DejaVuSans-32"/>
       <use xlink:href="#DejaVuSans-35" x="63.623047"/>
       <use xlink:href="#DejaVuSans-30" x="127.246094"/>
      </g>
     </g>
    </g>
    <g id="xtick_6">
     <g id="line2d_6">
      <g>
       <use xlink:href="#m473607f760" x="269.941247" y="307.584" style="stroke: #000000; stroke-width: 0.8"/>
      </g>
     </g>
     <g id="text_6">
      <!-- 300 -->
      <g transform="translate(260.397497 322.182437) scale(0.1 -0.1)">
       <defs>
        <path id="DejaVuSans-33" d="M 2597 2516 
Q 3050 2419 3304 2112 
Q 3559 1806 3559 1356 
Q 3559 666 3084 287 
Q 2609 -91 1734 -91 
Q 1441 -91 1130 -33 
Q 819 25 488 141 
L 488 750 
Q 750 597 1062 519 
Q 1375 441 1716 441 
Q 2309 441 2620 675 
Q 2931 909 2931 1356 
Q 2931 1769 2642 2001 
Q 2353 2234 1838 2234 
L 1294 2234 
L 1294 2753 
L 1863 2753 
Q 2328 2753 2575 2939 
Q 2822 3125 2822 3475 
Q 2822 3834 2567 4026 
Q 2313 4219 1838 4219 
Q 1578 4219 1281 4162 
Q 984 4106 628 3988 
L 628 4550 
Q 988 4650 1302 4700 
Q 1616 4750 1894 4750 
Q 2613 4750 3031 4423 
Q 3450 4097 3450 3541 
Q 3450 3153 3228 2886 
Q 3006 2619 2597 2516 
z
" transform="scale(0.015625)"/>
       </defs>
       <use xlink:href="#DejaVuSans-33"/>
       <use xlink:href="#DejaVuSans-30" x="63.623047"/>
       <use xlink:href="#DejaVuSans-30" x="127.246094"/>
      </g>
     </g>
    </g>
    <g id="xtick_7">
     <g id="line2d_7">
      <g>
       <use xlink:href="#m473607f760" x="311.952498" y="307.584" style="stroke: #000000; stroke-width: 0.8"/>
      </g>
     </g>
     <g id="text_7">
      <!-- 350 -->
      <g transform="translate(302.408748 322.182437) scale(0.1 -0.1)">
       <use xlink:href="#DejaVuSans-33"/>
       <use xlink:href="#DejaVuSans-35" x="63.623047"/>
       <use xlink:href="#DejaVuSans-30" x="127.246094"/>
      </g>
     </g>
    </g>
    <g id="xtick_8">
     <g id="line2d_8">
      <g>
       <use xlink:href="#m473607f760" x="353.963749" y="307.584" style="stroke: #000000; stroke-width: 0.8"/>
      </g>
     </g>
     <g id="text_8">
      <!-- 400 -->
      <g transform="translate(344.419999 322.182437) scale(0.1 -0.1)">
       <defs>
        <path id="DejaVuSans-34" d="M 2419 4116 
L 825 1625 
L 2419 1625 
L 2419 4116 
z
M 2253 4666 
L 3047 4666 
L 3047 1625 
L 3713 1625 
L 3713 1100 
L 3047 1100 
L 3047 0 
L 2419 0 
L 2419 1100 
L 313 1100 
L 313 1709 
L 2253 4666 
z
" transform="scale(0.015625)"/>
       </defs>
       <use xlink:href="#DejaVuSans-34"/>
       <use xlink:href="#DejaVuSans-30" x="63.623047"/>
       <use xlink:href="#DejaVuSans-30" x="127.246094"/>
      </g>
     </g>
    </g>
    <g id="xtick_9">
     <g id="line2d_9">
      <g>
       <use xlink:href="#m473607f760" x="395.975" y="307.584" style="stroke: #000000; stroke-width: 0.8"/>
      </g>
     </g>
     <g id="text_9">
      <!-- 450 -->
      <g transform="translate(386.43125 322.182437) scale(0.1 -0.1)">
       <use xlink:href="#DejaVuSans-34"/>
       <use xlink:href="#DejaVuSans-35" x="63.623047"/>
       <use xlink:href="#DejaVuSans-30" x="127.246094"/>
      </g>
     </g>
    </g>
    <g id="text_10">
     <!-- Score -->
     <g transform="translate(222.157656 335.860562) scale(0.1 -0.1)">
      <defs>
       <path id="DejaVuSans-53" d="M 3425 4513 
L 3425 3897 
Q 3066 4069 2747 4153 
Q 2428 4238 2131 4238 
Q 1616 4238 1336 4038 
Q 1056 3838 1056 3469 
Q 1056 3159 1242 3001 
Q 1428 2844 1947 2747 
L 2328 2669 
Q 3034 2534 3370 2195 
Q 3706 1856 3706 1288 
Q 3706 609 3251 259 
Q 2797 -91 1919 -91 
Q 1588 -91 1214 -16 
Q 841 59 441 206 
L 441 856 
Q 825 641 1194 531 
Q 1563 422 1919 422 
Q 2459 422 2753 634 
Q 3047 847 3047 1241 
Q 3047 1584 2836 1778 
Q 2625 1972 2144 2069 
L 1759 2144 
Q 1053 2284 737 2584 
Q 422 2884 422 3419 
Q 422 4038 858 4394 
Q 1294 4750 2059 4750 
Q 2388 4750 2728 4690 
Q 3069 4631 3425 4513 
z
" transform="scale(0.015625)"/>
       <path id="DejaVuSans-63" d="M 3122 3366 
L 3122 2828 
Q 2878 2963 2633 3030 
Q 2388 3097 2138 3097 
Q 1578 3097 1268 2742 
Q 959 2388 959 1747 
Q 959 1106 1268 751 
Q 1578 397 2138 397 
Q 2388 397 2633 464 
Q 2878 531 3122 666 
L 3122 134 
Q 2881 22 2623 -34 
Q 2366 -91 2075 -91 
Q 1284 -91 818 406 
Q 353 903 353 1747 
Q 353 2603 823 3093 
Q 1294 3584 2113 3584 
Q 2378 3584 2631 3529 
Q 2884 3475 3122 3366 
z
" transform="scale(0.015625)"/>
       <path id="DejaVuSans-6f" d="M 1959 3097 
Q 1497 3097 1228 2736 
Q 959 2375 959 1747 
Q 959 1119 1226 758 
Q 1494 397 1959 397 
Q 2419 397 2687 759 
Q 2956 1122 2956 1747 
Q 2956 2369 2687 2733 
Q 2419 3097 1959 3097 
z
M 1959 3584 
Q 2709 3584 3137 3096 
Q 3566 2609 3566 1747 
Q 3566 888 3137 398 
Q 2709 -91 1959 -91 
Q 1206 -91 779 398 
Q 353 888 353 1747 
Q 353 2609 779 3096 
Q 1206 3584 1959 3584 
z
" transform="scale(0.015625)"/>
       <path id="DejaVuSans-72" d="M 2631 2963 
Q 2534 3019 2420 3045 
Q 2306 3072 2169 3072 
Q 1681 3072 1420 2755 
Q 1159 2438 1159 1844 
L 1159 0 
L 581 0 
L 581 3500 
L 1159 3500 
L 1159 2956 
Q 1341 3275 1631 3429 
Q 1922 3584 2338 3584 
Q 2397 3584 2469 3576 
Q 2541 3569 2628 3553 
L 2631 2963 
z
" transform="scale(0.015625)"/>
       <path id="DejaVuSans-65" d="M 3597 1894 
L 3597 1613 
L 953 1613 
Q 991 1019 1311 708 
Q 1631 397 2203 397 
Q 2534 397 2845 478 
Q 3156 559 3463 722 
L 3463 178 
Q 3153 47 2828 -22 
Q 2503 -91 2169 -91 
Q 1331 -91 842 396 
Q 353 884 353 1716 
Q 353 2575 817 3079 
Q 1281 3584 2069 3584 
Q 2775 3584 3186 3129 
Q 3597 2675 3597 1894 
z
M 3022 2063 
Q 3016 2534 2758 2815 
Q 2500 3097 2075 3097 
Q 1594 3097 1305 2825 
Q 1016 2553 972 2059 
L 3022 2063 
z
" transform="scale(0.015625)"/>
      </defs>
      <use xlink:href="#DejaVuSans-53"/>
      <use xlink:href="#DejaVuSans-63" x="63.476562"/>
      <use xlink:href="#DejaVuSans-6f" x="118.457031"/>
      <use xlink:href="#DejaVuSans-72" x="179.638672"/>
      <use xlink:href="#DejaVuSans-65" x="218.501953"/>
     </g>
    </g>
   </g>
   <g id="matplotlib.axis_2">
    <g id="ytick_1">
     <g id="line2d_10">
      <defs>
       <path id="mf9c4dde857" d="M 0 0 
L -3.5 0 
" style="stroke: #000000; stroke-width: 0.8"/>
      </defs>
      <g>
       <use xlink:href="#mf9c4dde857" x="57.6" y="307.584" style="stroke: #000000; stroke-width: 0.8"/>
      </g>
     </g>
     <g id="text_11">
      <!-- 0 -->
      <g transform="translate(44.2375 311.383219) scale(0.1 -0.1)">
       <use xlink:href="#DejaVuSans-30"/>
      </g>
     </g>
    </g>
    <g id="ytick_2">
     <g id="line2d_11">
      <g>
       <use xlink:href="#mf9c4dde857" x="57.6" y="248.917333" style="stroke: #000000; stroke-width: 0.8"/>
      </g>
     </g>
     <g id="text_12">
      <!-- 50 -->
      <g transform="translate(37.875 252.716552) scale(0.1 -0.1)">
       <use xlink:href="#DejaVuSans-35"/>
       <use xlink:href="#DejaVuSans-30" x="63.623047"/>
      </g>
     </g>
    </g>
    <g id="ytick_3">
     <g id="line2d_12">
      <g>
       <use xlink:href="#mf9c4dde857" x="57.6" y="190.250667" style="stroke: #000000; stroke-width: 0.8"/>
      </g>
     </g>
     <g id="text_13">
      <!-- 100 -->
      <g transform="translate(31.5125 194.049885) scale(0.1 -0.1)">
       <use xlink:href="#DejaVuSans-31"/>
       <use xlink:href="#DejaVuSans-30" x="63.623047"/>
       <use xlink:href="#DejaVuSans-30" x="127.246094"/>
      </g>
     </g>
    </g>
    <g id="ytick_4">
     <g id="line2d_13">
      <g>
       <use xlink:href="#mf9c4dde857" x="57.6" y="131.584" style="stroke: #000000; stroke-width: 0.8"/>
      </g>
     </g>
     <g id="text_14">
      <!-- 150 -->
      <g transform="translate(31.5125 135.383219) scale(0.1 -0.1)">
       <use xlink:href="#DejaVuSans-31"/>
       <use xlink:href="#DejaVuSans-35" x="63.623047"/>
       <use xlink:href="#DejaVuSans-30" x="127.246094"/>
      </g>
     </g>
    </g>
    <g id="ytick_5">
     <g id="line2d_14">
      <g>
       <use xlink:href="#mf9c4dde857" x="57.6" y="72.917333" style="stroke: #000000; stroke-width: 0.8"/>
      </g>
     </g>
     <g id="text_15">
      <!-- 200 -->
      <g transform="translate(31.5125 76.716552) scale(0.1 -0.1)">
       <use xlink:href="#DejaVuSans-32"/>
       <use xlink:href="#DejaVuSans-30" x="63.623047"/>
       <use xlink:href="#DejaVuSans-30" x="127.246094"/>
      </g>
     </g>
    </g>
    <g id="text_16">
     <!-- Number of crosslinks -->
     <g transform="translate(25.432812 227.019406) rotate(-90) scale(0.1 -0.1)">
      <defs>
       <path id="DejaVuSans-4e" d="M 628 4666 
L 1478 4666 
L 3547 763 
L 3547 4666 
L 4159 4666 
L 4159 0 
L 3309 0 
L 1241 3903 
L 1241 0 
L 628 0 
L 628 4666 
z
" transform="scale(0.015625)"/>
       <path id="DejaVuSans-75" d="M 544 1381 
L 544 3500 
L 1119 3500 
L 1119 1403 
Q 1119 906 1312 657 
Q 1506 409 1894 409 
Q 2359 409 2629 706 
Q 2900 1003 2900 1516 
L 2900 3500 
L 3475 3500 
L 3475 0 
L 2900 0 
L 2900 538 
Q 2691 219 2414 64 
Q 2138 -91 1772 -91 
Q 1169 -91 856 284 
Q 544 659 544 1381 
z
M 1991 3584 
L 1991 3584 
z
" transform="scale(0.015625)"/>
       <path id="DejaVuSans-6d" d="M 3328 2828 
Q 3544 3216 3844 3400 
Q 4144 3584 4550 3584 
Q 5097 3584 5394 3201 
Q 5691 2819 5691 2113 
L 5691 0 
L 5113 0 
L 5113 2094 
Q 5113 2597 4934 2840 
Q 4756 3084 4391 3084 
Q 3944 3084 3684 2787 
Q 3425 2491 3425 1978 
L 3425 0 
L 2847 0 
L 2847 2094 
Q 2847 2600 2669 2842 
Q 2491 3084 2119 3084 
Q 1678 3084 1418 2786 
Q 1159 2488 1159 1978 
L 1159 0 
L 581 0 
L 581 3500 
L 1159 3500 
L 1159 2956 
Q 1356 3278 1631 3431 
Q 1906 3584 2284 3584 
Q 2666 3584 2933 3390 
Q 3200 3197 3328 2828 
z
" transform="scale(0.015625)"/>
       <path id="DejaVuSans-62" d="M 3116 1747 
Q 3116 2381 2855 2742 
Q 2594 3103 2138 3103 
Q 1681 3103 1420 2742 
Q 1159 2381 1159 1747 
Q 1159 1113 1420 752 
Q 1681 391 2138 391 
Q 2594 391 2855 752 
Q 3116 1113 3116 1747 
z
M 1159 2969 
Q 1341 3281 1617 3432 
Q 1894 3584 2278 3584 
Q 2916 3584 3314 3078 
Q 3713 2572 3713 1747 
Q 3713 922 3314 415 
Q 2916 -91 2278 -91 
Q 1894 -91 1617 61 
Q 1341 213 1159 525 
L 1159 0 
L 581 0 
L 581 4863 
L 1159 4863 
L 1159 2969 
z
" transform="scale(0.015625)"/>
       <path id="DejaVuSans-20" transform="scale(0.015625)"/>
       <path id="DejaVuSans-66" d="M 2375 4863 
L 2375 4384 
L 1825 4384 
Q 1516 4384 1395 4259 
Q 1275 4134 1275 3809 
L 1275 3500 
L 2222 3500 
L 2222 3053 
L 1275 3053 
L 1275 0 
L 697 0 
L 697 3053 
L 147 3053 
L 147 3500 
L 697 3500 
L 697 3744 
Q 697 4328 969 4595 
Q 1241 4863 1831 4863 
L 2375 4863 
z
" transform="scale(0.015625)"/>
       <path id="DejaVuSans-73" d="M 2834 3397 
L 2834 2853 
Q 2591 2978 2328 3040 
Q 2066 3103 1784 3103 
Q 1356 3103 1142 2972 
Q 928 2841 928 2578 
Q 928 2378 1081 2264 
Q 1234 2150 1697 2047 
L 1894 2003 
Q 2506 1872 2764 1633 
Q 3022 1394 3022 966 
Q 3022 478 2636 193 
Q 2250 -91 1575 -91 
Q 1294 -91 989 -36 
Q 684 19 347 128 
L 347 722 
Q 666 556 975 473 
Q 1284 391 1588 391 
Q 1994 391 2212 530 
Q 2431 669 2431 922 
Q 2431 1156 2273 1281 
Q 2116 1406 1581 1522 
L 1381 1569 
Q 847 1681 609 1914 
Q 372 2147 372 2553 
Q 372 3047 722 3315 
Q 1072 3584 1716 3584 
Q 2034 3584 2315 3537 
Q 2597 3491 2834 3397 
z
" transform="scale(0.015625)"/>
       <path id="DejaVuSans-6c" d="M 603 4863 
L 1178 4863 
L 1178 0 
L 603 0 
L 603 4863 
z
" transform="scale(0.015625)"/>
       <path id="DejaVuSans-69" d="M 603 3500 
L 1178 3500 
L 1178 0 
L 603 0 
L 603 3500 
z
M 603 4863 
L 1178 4863 
L 1178 4134 
L 603 4134 
L 603 4863 
z
" transform="scale(0.015625)"/>
       <path id="DejaVuSans-6e" d="M 3513 2113 
L 3513 0 
L 2938 0 
L 2938 2094 
Q 2938 2591 2744 2837 
Q 2550 3084 2163 3084 
Q 1697 3084 1428 2787 
Q 1159 2491 1159 1978 
L 1159 0 
L 581 0 
L 581 3500 
L 1159 3500 
L 1159 2956 
Q 1366 3272 1645 3428 
Q 1925 3584 2291 3584 
Q 2894 3584 3203 3211 
Q 3513 2838 3513 2113 
z
" transform="scale(0.015625)"/>
       <path id="DejaVuSans-6b" d="M 581 4863 
L 1159 4863 
L 1159 1991 
L 2875 3500 
L 3609 3500 
L 1753 1863 
L 3688 0 
L 2938 0 
L 1159 1709 
L 1159 0 
L 581 0 
L 581 4863 
z
" transform="scale(0.015625)"/>
      </defs>
      <use xlink:href="#DejaVuSans-4e"/>
      <use xlink:href="#DejaVuSans-75" x="74.804688"/>
      <use xlink:href="#DejaVuSans-6d" x="138.183594"/>
      <use xlink:href="#DejaVuSans-62" x="235.595703"/>
      <use xlink:href="#DejaVuSans-65" x="299.072266"/>
      <use xlink:href="#DejaVuSans-72" x="360.595703"/>
      <use xlink:href="#DejaVuSans-20" x="401.708984"/>
      <use xlink:href="#DejaVuSans-6f" x="433.496094"/>
      <use xlink:href="#DejaVuSans-66" x="494.677734"/>
      <use xlink:href="#DejaVuSans-20" x="529.882812"/>
      <use xlink:href="#DejaVuSans-63" x="561.669922"/>
      <use xlink:href="#DejaVuSans-72" x="616.650391"/>
      <use xlink:href="#DejaVuSans-6f" x="655.513672"/>
      <use xlink:href="#DejaVuSans-73" x="716.695312"/>
      <use xlink:href="#DejaVuSans-73" x="768.794922"/>
      <use xlink:href="#DejaVuSans-6c" x="820.894531"/>
      <use xlink:href="#DejaVuSans-69" x="848.677734"/>
      <use xlink:href="#DejaVuSans-6e" x="876.460938"/>
      <use xlink:href="#DejaVuSans-6b" x="939.839844"/>
      <use xlink:href="#DejaVuSans-73" x="997.75"/>
     </g>
    </g>
   </g>
   <g id="patch_3">
    <path d="M 57.6 307.584 
L 57.6 41.472 
" style="fill: none; stroke: #000000; stroke-width: 0.8; stroke-linejoin: miter; stroke-linecap: square"/>
   </g>
   <g id="patch_4">
    <path d="M 414.72 307.584 
L 414.72 41.472 
" style="fill: none; stroke: #000000; stroke-width: 0.8; stroke-linejoin: miter; stroke-linecap: square"/>
   </g>
   <g id="patch_5">
    <path d="M 57.6 307.584 
L 414.72 307.584 
" style="fill: none; stroke: #000000; stroke-width: 0.8; stroke-linejoin: miter; stroke-linecap: square"/>
   </g>
   <g id="patch_6">
    <path d="M 57.6 41.472 
L 414.72 41.472 
" style="fill: none; stroke: #000000; stroke-width: 0.8; stroke-linejoin: miter; stroke-linecap: square"/>
   </g>
   <g id="legend_1">
    <g id="patch_7">
     <path d="M 293.087188 93.506375 
L 407.72 93.506375 
Q 409.72 93.506375 409.72 91.506375 
L 409.72 48.472 
Q 409.72 46.472 407.72 46.472 
L 293.087188 46.472 
Q 291.087188 46.472 291.087188 48.472 
L 291.087188 91.506375 
Q 291.087188 93.506375 293.087188 93.506375 
z
" style="fill: #ffffff; opacity: 0.8; stroke: #cccccc; stroke-linejoin: miter"/>
    </g>
    <g id="patch_8">
     <path d="M 295.087188 58.070438 
L 315.087188 58.070438 
L 315.087188 51.070438 
L 295.087188 51.070438 
z
" style="fill: #008000"/>
    </g>
    <g id="text_17">
     <!-- true -->
     <g transform="translate(323.087188 58.070438) scale(0.1 -0.1)">
      <defs>
       <path id="DejaVuSans-74" d="M 1172 4494 
L 1172 3500 
L 2356 3500 
L 2356 3053 
L 1172 3053 
L 1172 1153 
Q 1172 725 1289 603 
Q 1406 481 1766 481 
L 2356 481 
L 2356 0 
L 1766 0 
Q 1100 0 847 248 
Q 594 497 594 1153 
L 594 3053 
L 172 3053 
L 172 3500 
L 594 3500 
L 594 4494 
L 1172 4494 
z
" transform="scale(0.015625)"/>
      </defs>
      <use xlink:href="#DejaVuSans-74"/>
      <use xlink:href="#DejaVuSans-72" x="39.208984"/>
      <use xlink:href="#DejaVuSans-75" x="80.322266"/>
      <use xlink:href="#DejaVuSans-65" x="143.701172"/>
     </g>
    </g>
    <g id="patch_9">
     <path d="M 295.087188 72.748563 
L 315.087188 72.748563 
L 315.087188 65.748563 
L 295.087188 65.748563 
z
" style="fill: #7cfc00"/>
    </g>
    <g id="text_18">
     <!-- true homeotypic -->
     <g transform="translate(323.087188 72.748563) scale(0.1 -0.1)">
      <defs>
       <path id="DejaVuSans-68" d="M 3513 2113 
L 3513 0 
L 2938 0 
L 2938 2094 
Q 2938 2591 2744 2837 
Q 2550 3084 2163 3084 
Q 1697 3084 1428 2787 
Q 1159 2491 1159 1978 
L 1159 0 
L 581 0 
L 581 4863 
L 1159 4863 
L 1159 2956 
Q 1366 3272 1645 3428 
Q 1925 3584 2291 3584 
Q 2894 3584 3203 3211 
Q 3513 2838 3513 2113 
z
" transform="scale(0.015625)"/>
       <path id="DejaVuSans-79" d="M 2059 -325 
Q 1816 -950 1584 -1140 
Q 1353 -1331 966 -1331 
L 506 -1331 
L 506 -850 
L 844 -850 
Q 1081 -850 1212 -737 
Q 1344 -625 1503 -206 
L 1606 56 
L 191 3500 
L 800 3500 
L 1894 763 
L 2988 3500 
L 3597 3500 
L 2059 -325 
z
" transform="scale(0.015625)"/>
       <path id="DejaVuSans-70" d="M 1159 525 
L 1159 -1331 
L 581 -1331 
L 581 3500 
L 1159 3500 
L 1159 2969 
Q 1341 3281 1617 3432 
Q 1894 3584 2278 3584 
Q 2916 3584 3314 3078 
Q 3713 2572 3713 1747 
Q 3713 922 3314 415 
Q 2916 -91 2278 -91 
Q 1894 -91 1617 61 
Q 1341 213 1159 525 
z
M 3116 1747 
Q 3116 2381 2855 2742 
Q 2594 3103 2138 3103 
Q 1681 3103 1420 2742 
Q 1159 2381 1159 1747 
Q 1159 1113 1420 752 
Q 1681 391 2138 391 
Q 2594 391 2855 752 
Q 3116 1113 3116 1747 
z
" transform="scale(0.015625)"/>
      </defs>
      <use xlink:href="#DejaVuSans-74"/>
      <use xlink:href="#DejaVuSans-72" x="39.208984"/>
      <use xlink:href="#DejaVuSans-75" x="80.322266"/>
      <use xlink:href="#DejaVuSans-65" x="143.701172"/>
      <use xlink:href="#DejaVuSans-20" x="205.224609"/>
      <use xlink:href="#DejaVuSans-68" x="237.011719"/>
      <use xlink:href="#DejaVuSans-6f" x="300.390625"/>
      <use xlink:href="#DejaVuSans-6d" x="361.572266"/>
      <use xlink:href="#DejaVuSans-65" x="458.984375"/>
      <use xlink:href="#DejaVuSans-6f" x="520.507812"/>
      <use xlink:href="#DejaVuSans-74" x="581.689453"/>
      <use xlink:href="#DejaVuSans-79" x="620.898438"/>
      <use xlink:href="#DejaVuSans-70" x="680.078125"/>
      <use xlink:href="#DejaVuSans-69" x="743.554688"/>
      <use xlink:href="#DejaVuSans-63" x="771.337891"/>
     </g>
    </g>
    <g id="patch_10">
     <path d="M 295.087188 87.426688 
L 315.087188 87.426688 
L 315.087188 80.426688 
L 295.087188 80.426688 
z
" style="fill: #ff0000"/>
    </g>
    <g id="text_19">
     <!-- false -->
     <g transform="translate(323.087188 87.426688) scale(0.1 -0.1)">
      <defs>
       <path id="DejaVuSans-61" d="M 2194 1759 
Q 1497 1759 1228 1600 
Q 959 1441 959 1056 
Q 959 750 1161 570 
Q 1363 391 1709 391 
Q 2188 391 2477 730 
Q 2766 1069 2766 1631 
L 2766 1759 
L 2194 1759 
z
M 3341 1997 
L 3341 0 
L 2766 0 
L 2766 531 
Q 2569 213 2275 61 
Q 1981 -91 1556 -91 
Q 1019 -91 701 211 
Q 384 513 384 1019 
Q 384 1609 779 1909 
Q 1175 2209 1959 2209 
L 2766 2209 
L 2766 2266 
Q 2766 2663 2505 2880 
Q 2244 3097 1772 3097 
Q 1472 3097 1187 3025 
Q 903 2953 641 2809 
L 641 3341 
Q 956 3463 1253 3523 
Q 1550 3584 1831 3584 
Q 2591 3584 2966 3190 
Q 3341 2797 3341 1997 
z
" transform="scale(0.015625)"/>
      </defs>
      <use xlink:href="#DejaVuSans-66"/>
      <use xlink:href="#DejaVuSans-61" x="35.205078"/>
      <use xlink:href="#DejaVuSans-6c" x="96.484375"/>
      <use xlink:href="#DejaVuSans-73" x="124.267578"/>
      <use xlink:href="#DejaVuSans-65" x="176.367188"/>
     </g>
    </g>
   </g>
  </g>
 </g>
 <defs>
  <clipPath id="p4da2d21ce1">
   <rect x="57.6" y="41.472" width="357.12" height="266.112"/>
  </clipPath>
 </defs>
</svg>
