<?xml version="1.0" encoding="utf-8" standalone="no"?>
<!DOCTYPE svg PUBLIC "-//W3C//DTD SVG 1.1//EN"
  "http://www.w3.org/Graphics/SVG/1.1/DTD/svg11.dtd">
<svg xmlns:xlink="http://www.w3.org/1999/xlink" width="460.8pt" height="345.6pt" viewBox="0 0 460.8 345.6" xmlns="http://www.w3.org/2000/svg" version="1.1">
 <metadata>
  <rdf:RDF xmlns:dc="http://purl.org/dc/elements/1.1/" xmlns:cc="http://creativecommons.org/ns#" xmlns:rdf="http://www.w3.org/1999/02/22-rdf-syntax-ns#">
   <cc:Work>
    <dc:type rdf:resource="http://purl.org/dc/dcmitype/StillImage"/>
    <dc:date>2024-10-31T14:55:27.806748</dc:date>
    <dc:format>image/svg+xml</dc:format>
    <dc:creator>
     <cc:Agent>
      <dc:title>Matplotlib v3.9.0, https://matplotlib.org/</dc:title>
     </cc:Agent>
    </dc:creator>
   </cc:Work>
  </rdf:RDF>
 </metadata>
 <defs>
  <style type="text/css">*{stroke-linejoin: round; stroke-linecap: butt}</style>
 </defs>
 <g id="figure_1">
  <g id="patch_1">
   <path d="M 0 345.6 
L 460.8 345.6 
L 460.8 0 
L 0 0 
z
" style="fill: #ffffff"/>
  </g>
  <g id="axes_1">
   <g id="patch_2">
    <path d="M 57.6 307.584 
L 414.72 307.584 
L 414.72 41.472 
L 57.6 41.472 
z
" style="fill: #ffffff"/>
   </g>
   <g id="PolyCollection_1">
    <path d="M 73.832727 119.727158 
L 73.832727 307.584 
L 74.789136 307.584 
L 75.065687 307.584 
L 75.434423 307.584 
L 75.99905 307.584 
L 77.128303 307.584 
L 78.073188 307.584 
L 78.683907 307.584 
L 78.781852 307.584 
L 80.268318 307.584 
L 80.297126 307.584 
L 80.567916 307.584 
L 82.192658 307.584 
L 82.31365 307.584 
L 82.388549 307.584 
L 82.521063 307.584 
L 83.333434 307.584 
L 84.180374 307.584 
L 84.358981 307.584 
L 84.802616 307.584 
L 84.837185 307.584 
L 86.410073 307.584 
L 87.061122 307.584 
L 87.233967 307.584 
L 87.47595 307.584 
L 87.510519 307.584 
L 87.602703 307.584 
L 87.850447 307.584 
L 88.086669 307.584 
L 88.351698 307.584 
L 88.755002 307.584 
L 88.78381 307.584 
L 89.388767 307.584 
L 89.624988 307.584 
L 89.653796 307.584 
L 89.936109 307.584 
L 90.604443 307.584 
L 90.932848 307.584 
L 91.128739 307.584 
L 91.618466 307.584 
L 92.113954 307.584 
L 92.718912 307.584 
L 92.874472 307.584 
L 93.225923 307.584 
L 93.721412 307.584 
L 95.029272 307.584 
L 95.069602 307.584 
L 95.081125 307.584 
L 95.709128 307.584 
L 97.132218 307.584 
L 97.305063 307.584 
L 97.650752 307.584 
L 97.702606 307.584 
L 97.765982 307.584 
L 98.192333 307.584 
L 98.261471 307.584 
L 98.347893 307.584 
L 98.549546 307.584 
L 98.854905 307.584 
L 99.379201 307.584 
L 99.753698 307.584 
L 100.03025 307.584 
L 100.14548 307.584 
L 100.439316 307.584 
L 100.957851 307.584 
L 101.891213 307.584 
L 101.902736 307.584 
L 102.213857 307.584 
L 102.421271 307.584 
L 102.599877 307.584 
L 102.790007 307.584 
L 103.049274 307.584 
L 103.337349 307.584 
L 103.383441 307.584 
L 104.092105 307.584 
L 104.489648 307.584 
L 104.558786 307.584 
L 104.599117 307.584 
L 104.639447 307.584 
L 104.674016 307.584 
L 104.99666 307.584 
L 105.031229 307.584 
L 105.388442 307.584 
L 105.722608 307.584 
L 106.46008 307.584 
L 106.713586 307.584 
L 106.921 307.584 
L 107.145698 307.584 
L 107.485626 307.584 
L 107.669994 307.584 
L 107.883169 307.584 
L 108.171244 307.584 
L 108.246144 307.584 
L 109.087322 307.584 
L 109.42725 307.584 
L 109.496388 307.584 
L 109.96307 307.584 
L 111.011662 307.584 
L 111.109607 307.584 
L 111.92774 307.584 
L 112.135154 307.584 
L 112.23886 307.584 
L 112.77468 307.584 
L 113.880887 307.584 
L 114.439752 307.584 
L 114.710542 307.584 
L 115.252123 307.584 
L 116.346807 307.584 
L 116.415945 307.584 
L 116.773158 307.584 
L 117.274408 307.584 
L 117.614336 307.584 
L 118.230816 307.584 
L 118.789682 307.584 
L 119.354308 307.584 
L 119.59053 307.584 
L 120.218533 307.584 
L 120.397139 307.584 
L 121.36507 307.584 
L 121.428447 307.584 
L 121.762614 307.584 
L 122.010358 307.584 
L 122.154395 307.584 
L 122.344525 307.584 
L 123.185703 307.584 
L 123.992313 307.584 
L 124.355287 307.584 
L 124.435948 307.584 
L 124.845014 307.584 
L 125.092758 307.584 
L 127.126566 307.584 
L 127.17842 307.584 
L 127.443449 307.584 
L 127.673909 307.584 
L 129.120044 307.584 
L 129.75957 307.584 
L 130.168636 307.584 
L 131.286367 307.584 
L 132.012315 307.584 
L 132.121784 307.584 
L 132.409858 307.584 
L 133.095476 307.584 
L 133.446928 307.584 
L 133.464212 307.584 
L 133.838709 307.584 
L 133.965462 307.584 
L 134.115261 307.584 
L 134.22473 307.584 
L 135.175377 307.584 
L 136.005032 307.584 
L 136.506282 307.584 
L 136.880779 307.584 
L 137.595205 307.584 
L 138.620751 307.584 
L 138.626513 307.584 
L 138.966441 307.584 
L 139.012533 307.584 
L 139.536829 307.584 
L 140.343439 307.584 
L 140.395292 307.584 
L 140.723697 307.584 
L 141.294085 307.584 
L 142.769028 307.584 
L 143.471931 307.584 
L 144.272779 307.584 
L 145.649777 307.584 
L 145.770768 307.584 
L 146.035797 307.584 
L 146.467909 307.584 
L 147.464648 307.584 
L 147.556832 307.584 
L 147.574116 307.584 
L 148.340395 307.584 
L 149.072105 307.584 
L 149.118197 307.584 
L 150.276258 307.584 
L 153.145483 307.584 
L 154.21136 307.584 
L 154.268975 307.584 
L 155.09863 307.584 
L 155.818817 307.584 
L 156.740657 307.584 
L 157.172769 307.584 
L 159.655974 307.584 
L 160.825557 307.584 
L 160.877411 307.584 
L 161.349853 307.584 
L 162.167986 307.584 
L 163.475846 307.584 
L 164.461061 307.584 
L 165.987858 307.584 
L 166.610099 307.584 
L 167.393663 307.584 
L 175.995577 307.584 
L 176.174183 307.584 
L 178.12733 307.584 
L 179.481282 307.584 
L 180.840995 307.584 
L 183.888826 307.584 
L 185.006557 307.584 
L 187.898828 307.584 
L 189.667607 307.584 
L 189.90959 307.584 
L 193.959922 307.584 
L 194.622494 307.584 
L 195.463672 307.584 
L 199.704133 307.584 
L 200.758487 307.584 
L 203.483675 307.584 
L 205.062325 307.584 
L 208.012211 307.584 
L 213.128419 307.584 
L 219.373881 307.584 
L 220.825778 307.584 
L 221.926224 307.584 
L 228.436714 307.584 
L 234.106027 307.584 
L 236.998298 307.584 
L 239.268327 307.584 
L 240.558902 307.584 
L 240.996776 307.584 
L 244.47672 307.584 
L 262.99993 307.584 
L 267.666742 307.584 
L 274.764905 307.584 
L 279.44324 307.584 
L 398.487273 307.584 
L 398.487273 307.584 
L 398.487273 307.584 
L 279.44324 307.584 
L 274.764905 307.584 
L 267.666742 307.584 
L 262.99993 307.584 
L 244.47672 307.584 
L 240.996776 306.472421 
L 240.558902 306.472421 
L 239.268327 306.472421 
L 236.998298 306.472421 
L 234.106027 306.472421 
L 228.436714 306.472421 
L 221.926224 306.472421 
L 220.825778 306.472421 
L 219.373881 305.360842 
L 213.128419 305.360842 
L 208.012211 305.360842 
L 205.062325 305.360842 
L 203.483675 305.360842 
L 200.758487 304.249263 
L 199.704133 303.137684 
L 195.463672 302.026105 
L 194.622494 302.026105 
L 193.959922 300.914526 
L 189.90959 300.914526 
L 189.667607 300.914526 
L 187.898828 300.914526 
L 185.006557 300.914526 
L 183.888826 299.802947 
L 180.840995 298.691368 
L 179.481282 297.579789 
L 178.12733 296.468211 
L 176.174183 295.356632 
L 175.995577 295.356632 
L 167.393663 295.356632 
L 166.610099 294.245053 
L 165.987858 294.245053 
L 164.461061 293.133474 
L 163.475846 292.021895 
L 162.167986 290.910316 
L 161.349853 289.798737 
L 160.877411 289.798737 
L 160.825557 288.687158 
L 159.655974 287.575579 
L 157.172769 286.464 
L 156.740657 286.464 
L 155.818817 285.352421 
L 155.09863 284.240842 
L 154.268975 283.129263 
L 154.21136 282.017684 
L 153.145483 280.906105 
L 150.276258 279.794526 
L 149.118197 278.682947 
L 149.072105 278.682947 
L 148.340395 278.682947 
L 147.574116 277.571368 
L 147.556832 276.459789 
L 147.464648 275.348211 
L 146.467909 274.236632 
L 146.035797 273.125053 
L 145.770768 272.013474 
L 145.649777 270.901895 
L 144.272779 269.790316 
L 143.471931 269.790316 
L 142.769028 268.678737 
L 141.294085 267.567158 
L 140.723697 266.455579 
L 140.395292 265.344 
L 140.343439 265.344 
L 139.536829 264.232421 
L 139.012533 263.120842 
L 138.966441 262.009263 
L 138.626513 262.009263 
L 138.620751 260.897684 
L 137.595205 259.786105 
L 136.880779 258.674526 
L 136.506282 257.562947 
L 136.005032 256.451368 
L 135.175377 255.339789 
L 134.22473 254.228211 
L 134.115261 253.116632 
L 133.965462 252.005053 
L 133.838709 252.005053 
L 133.464212 250.893474 
L 133.446928 249.781895 
L 133.095476 248.670316 
L 132.409858 247.558737 
L 132.121784 247.558737 
L 132.012315 246.447158 
L 131.286367 245.335579 
L 130.168636 244.224 
L 129.75957 243.112421 
L 129.120044 242.000842 
L 127.673909 240.889263 
L 127.443449 239.777684 
L 127.17842 238.666105 
L 127.126566 237.554526 
L 125.092758 236.442947 
L 124.845014 235.331368 
L 124.435948 234.219789 
L 124.355287 234.219789 
L 123.992313 233.108211 
L 123.185703 233.108211 
L 122.344525 231.996632 
L 122.154395 230.885053 
L 122.010358 229.773474 
L 121.762614 228.661895 
L 121.428447 227.550316 
L 121.36507 226.438737 
L 120.397139 225.327158 
L 120.218533 225.327158 
L 119.59053 224.215579 
L 119.354308 223.104 
L 118.789682 223.104 
L 118.230816 221.992421 
L 117.614336 220.880842 
L 117.274408 219.769263 
L 116.773158 219.769263 
L 116.415945 219.769263 
L 116.346807 218.657684 
L 115.252123 217.546105 
L 114.710542 216.434526 
L 114.439752 216.434526 
L 113.880887 216.434526 
L 112.77468 215.322947 
L 112.23886 215.322947 
L 112.135154 215.322947 
L 111.92774 214.211368 
L 111.109607 213.099789 
L 111.011662 213.099789 
L 109.96307 211.988211 
L 109.496388 210.876632 
L 109.42725 210.876632 
L 109.087322 209.765053 
L 108.246144 209.765053 
L 108.171244 208.653474 
L 107.883169 207.541895 
L 107.669994 206.430316 
L 107.485626 206.430316 
L 107.145698 206.430316 
L 106.921 205.318737 
L 106.713586 204.207158 
L 106.46008 203.095579 
L 105.722608 201.984 
L 105.388442 200.872421 
L 105.031229 199.760842 
L 104.99666 198.649263 
L 104.674016 197.537684 
L 104.639447 195.314526 
L 104.599117 194.202947 
L 104.558786 194.202947 
L 104.489648 193.091368 
L 104.092105 191.979789 
L 103.383441 190.868211 
L 103.337349 189.756632 
L 103.049274 188.645053 
L 102.790007 187.533474 
L 102.599877 186.421895 
L 102.421271 185.310316 
L 102.213857 184.198737 
L 101.902736 183.087158 
L 101.891213 181.975579 
L 100.957851 180.864 
L 100.439316 180.864 
L 100.14548 179.752421 
L 100.03025 179.752421 
L 99.753698 179.752421 
L 99.379201 178.640842 
L 98.854905 177.529263 
L 98.549546 176.417684 
L 98.347893 175.306105 
L 98.261471 174.194526 
L 98.192333 173.082947 
L 97.765982 171.971368 
L 97.702606 170.859789 
L 97.650752 169.748211 
L 97.305063 169.748211 
L 97.132218 168.636632 
L 95.709128 167.525053 
L 95.081125 166.413474 
L 95.069602 165.301895 
L 95.029272 165.301895 
L 93.721412 164.190316 
L 93.225923 164.190316 
L 92.874472 164.190316 
L 92.718912 163.078737 
L 92.113954 161.967158 
L 91.618466 160.855579 
L 91.128739 159.744 
L 90.932848 158.632421 
L 90.604443 157.520842 
L 89.936109 156.409263 
L 89.653796 155.297684 
L 89.624988 154.186105 
L 89.388767 153.074526 
L 88.78381 151.962947 
L 88.755002 150.851368 
L 88.351698 149.739789 
L 88.086669 148.628211 
L 87.850447 147.516632 
L 87.602703 146.405053 
L 87.510519 145.293474 
L 87.47595 144.181895 
L 87.233967 143.070316 
L 87.061122 141.958737 
L 86.410073 140.847158 
L 84.837185 139.735579 
L 84.802616 138.624 
L 84.358981 137.512421 
L 84.180374 136.400842 
L 83.333434 136.400842 
L 82.521063 135.289263 
L 82.388549 134.177684 
L 82.31365 133.066105 
L 82.192658 131.954526 
L 80.567916 130.842947 
L 80.297126 129.731368 
L 80.268318 128.619789 
L 78.781852 127.508211 
L 78.683907 126.396632 
L 78.073188 125.285053 
L 77.128303 124.173474 
L 75.99905 123.061895 
L 75.434423 123.061895 
L 75.065687 121.950316 
L 74.789136 120.838737 
L 73.832727 119.727158 
z
" clip-path="url(#pcbf054e118)" style="fill: #008000"/>
   </g>
   <g id="PolyCollection_2">
    <path d="M 73.832727 59.701895 
L 73.832727 119.727158 
L 74.789136 120.838737 
L 75.065687 121.950316 
L 75.434423 123.061895 
L 75.99905 123.061895 
L 77.128303 124.173474 
L 78.073188 125.285053 
L 78.683907 126.396632 
L 78.781852 127.508211 
L 80.268318 128.619789 
L 80.297126 129.731368 
L 80.567916 130.842947 
L 82.192658 131.954526 
L 82.31365 133.066105 
L 82.388549 134.177684 
L 82.521063 135.289263 
L 83.333434 136.400842 
L 84.180374 136.400842 
L 84.358981 137.512421 
L 84.802616 138.624 
L 84.837185 139.735579 
L 86.410073 140.847158 
L 87.061122 141.958737 
L 87.233967 143.070316 
L 87.47595 144.181895 
L 87.510519 145.293474 
L 87.602703 146.405053 
L 87.850447 147.516632 
L 88.086669 148.628211 
L 88.351698 149.739789 
L 88.755002 150.851368 
L 88.78381 151.962947 
L 89.388767 153.074526 
L 89.624988 154.186105 
L 89.653796 155.297684 
L 89.936109 156.409263 
L 90.604443 157.520842 
L 90.932848 158.632421 
L 91.128739 159.744 
L 91.618466 160.855579 
L 92.113954 161.967158 
L 92.718912 163.078737 
L 92.874472 164.190316 
L 93.225923 164.190316 
L 93.721412 164.190316 
L 95.029272 165.301895 
L 95.069602 165.301895 
L 95.081125 166.413474 
L 95.709128 167.525053 
L 97.132218 168.636632 
L 97.305063 169.748211 
L 97.650752 169.748211 
L 97.702606 170.859789 
L 97.765982 171.971368 
L 98.192333 173.082947 
L 98.261471 174.194526 
L 98.347893 175.306105 
L 98.549546 176.417684 
L 98.854905 177.529263 
L 99.379201 178.640842 
L 99.753698 179.752421 
L 100.03025 179.752421 
L 100.14548 179.752421 
L 100.439316 180.864 
L 100.957851 180.864 
L 101.891213 181.975579 
L 101.902736 183.087158 
L 102.213857 184.198737 
L 102.421271 185.310316 
L 102.599877 186.421895 
L 102.790007 187.533474 
L 103.049274 188.645053 
L 103.337349 189.756632 
L 103.383441 190.868211 
L 104.092105 191.979789 
L 104.489648 193.091368 
L 104.558786 194.202947 
L 104.599117 194.202947 
L 104.639447 195.314526 
L 104.674016 197.537684 
L 104.99666 198.649263 
L 105.031229 199.760842 
L 105.388442 200.872421 
L 105.722608 201.984 
L 106.46008 203.095579 
L 106.713586 204.207158 
L 106.921 205.318737 
L 107.145698 206.430316 
L 107.485626 206.430316 
L 107.669994 206.430316 
L 107.883169 207.541895 
L 108.171244 208.653474 
L 108.246144 209.765053 
L 109.087322 209.765053 
L 109.42725 210.876632 
L 109.496388 210.876632 
L 109.96307 211.988211 
L 111.011662 213.099789 
L 111.109607 213.099789 
L 111.92774 214.211368 
L 112.135154 215.322947 
L 112.23886 215.322947 
L 112.77468 215.322947 
L 113.880887 216.434526 
L 114.439752 216.434526 
L 114.710542 216.434526 
L 115.252123 217.546105 
L 116.346807 218.657684 
L 116.415945 219.769263 
L 116.773158 219.769263 
L 117.274408 219.769263 
L 117.614336 220.880842 
L 118.230816 221.992421 
L 118.789682 223.104 
L 119.354308 223.104 
L 119.59053 224.215579 
L 120.218533 225.327158 
L 120.397139 225.327158 
L 121.36507 226.438737 
L 121.428447 227.550316 
L 121.762614 228.661895 
L 122.010358 229.773474 
L 122.154395 230.885053 
L 122.344525 231.996632 
L 123.185703 233.108211 
L 123.992313 233.108211 
L 124.355287 234.219789 
L 124.435948 234.219789 
L 124.845014 235.331368 
L 125.092758 236.442947 
L 127.126566 237.554526 
L 127.17842 238.666105 
L 127.443449 239.777684 
L 127.673909 240.889263 
L 129.120044 242.000842 
L 129.75957 243.112421 
L 130.168636 244.224 
L 131.286367 245.335579 
L 132.012315 246.447158 
L 132.121784 247.558737 
L 132.409858 247.558737 
L 133.095476 248.670316 
L 133.446928 249.781895 
L 133.464212 250.893474 
L 133.838709 252.005053 
L 133.965462 252.005053 
L 134.115261 253.116632 
L 134.22473 254.228211 
L 135.175377 255.339789 
L 136.005032 256.451368 
L 136.506282 257.562947 
L 136.880779 258.674526 
L 137.595205 259.786105 
L 138.620751 260.897684 
L 138.626513 262.009263 
L 138.966441 262.009263 
L 139.012533 263.120842 
L 139.536829 264.232421 
L 140.343439 265.344 
L 140.395292 265.344 
L 140.723697 266.455579 
L 141.294085 267.567158 
L 142.769028 268.678737 
L 143.471931 269.790316 
L 144.272779 269.790316 
L 145.649777 270.901895 
L 145.770768 272.013474 
L 146.035797 273.125053 
L 146.467909 274.236632 
L 147.464648 275.348211 
L 147.556832 276.459789 
L 147.574116 277.571368 
L 148.340395 278.682947 
L 149.072105 278.682947 
L 149.118197 278.682947 
L 150.276258 279.794526 
L 153.145483 280.906105 
L 154.21136 282.017684 
L 154.268975 283.129263 
L 155.09863 284.240842 
L 155.818817 285.352421 
L 156.740657 286.464 
L 157.172769 286.464 
L 159.655974 287.575579 
L 160.825557 288.687158 
L 160.877411 289.798737 
L 161.349853 289.798737 
L 162.167986 290.910316 
L 163.475846 292.021895 
L 164.461061 293.133474 
L 165.987858 294.245053 
L 166.610099 294.245053 
L 167.393663 295.356632 
L 175.995577 295.356632 
L 176.174183 295.356632 
L 178.12733 296.468211 
L 179.481282 297.579789 
L 180.840995 298.691368 
L 183.888826 299.802947 
L 185.006557 300.914526 
L 187.898828 300.914526 
L 189.667607 300.914526 
L 189.90959 300.914526 
L 193.959922 300.914526 
L 194.622494 302.026105 
L 195.463672 302.026105 
L 199.704133 303.137684 
L 200.758487 304.249263 
L 203.483675 305.360842 
L 205.062325 305.360842 
L 208.012211 305.360842 
L 213.128419 305.360842 
L 219.373881 305.360842 
L 220.825778 306.472421 
L 221.926224 306.472421 
L 228.436714 306.472421 
L 234.106027 306.472421 
L 236.998298 306.472421 
L 239.268327 306.472421 
L 240.558902 306.472421 
L 240.996776 306.472421 
L 244.47672 307.584 
L 262.99993 307.584 
L 267.666742 307.584 
L 274.764905 307.584 
L 279.44324 307.584 
L 398.487273 307.584 
L 398.487273 306.472421 
L 398.487273 306.472421 
L 279.44324 305.360842 
L 274.764905 304.249263 
L 267.666742 303.137684 
L 262.99993 302.026105 
L 244.47672 300.914526 
L 240.996776 299.802947 
L 240.558902 298.691368 
L 239.268327 297.579789 
L 236.998298 296.468211 
L 234.106027 295.356632 
L 228.436714 294.245053 
L 221.926224 293.133474 
L 220.825778 292.021895 
L 219.373881 290.910316 
L 213.128419 289.798737 
L 208.012211 288.687158 
L 205.062325 287.575579 
L 203.483675 286.464 
L 200.758487 285.352421 
L 199.704133 284.240842 
L 195.463672 283.129263 
L 194.622494 282.017684 
L 193.959922 280.906105 
L 189.90959 279.794526 
L 189.667607 278.682947 
L 187.898828 277.571368 
L 185.006557 276.459789 
L 183.888826 275.348211 
L 180.840995 274.236632 
L 179.481282 273.125053 
L 178.12733 272.013474 
L 176.174183 270.901895 
L 175.995577 269.790316 
L 167.393663 268.678737 
L 166.610099 267.567158 
L 165.987858 266.455579 
L 164.461061 265.344 
L 163.475846 264.232421 
L 162.167986 263.120842 
L 161.349853 262.009263 
L 160.877411 260.897684 
L 160.825557 259.786105 
L 159.655974 258.674526 
L 157.172769 257.562947 
L 156.740657 256.451368 
L 155.818817 255.339789 
L 155.09863 254.228211 
L 154.268975 253.116632 
L 154.21136 252.005053 
L 153.145483 250.893474 
L 150.276258 249.781895 
L 149.118197 248.670316 
L 149.072105 247.558737 
L 148.340395 246.447158 
L 147.574116 245.335579 
L 147.556832 244.224 
L 147.464648 243.112421 
L 146.467909 242.000842 
L 146.035797 240.889263 
L 145.770768 239.777684 
L 145.649777 238.666105 
L 144.272779 237.554526 
L 143.471931 236.442947 
L 142.769028 235.331368 
L 141.294085 234.219789 
L 140.723697 233.108211 
L 140.395292 231.996632 
L 140.343439 230.885053 
L 139.536829 229.773474 
L 139.012533 228.661895 
L 138.966441 227.550316 
L 138.626513 226.438737 
L 138.620751 225.327158 
L 137.595205 224.215579 
L 136.880779 223.104 
L 136.506282 221.992421 
L 136.005032 220.880842 
L 135.175377 219.769263 
L 134.22473 218.657684 
L 134.115261 217.546105 
L 133.965462 216.434526 
L 133.838709 215.322947 
L 133.464212 214.211368 
L 133.446928 213.099789 
L 133.095476 211.988211 
L 132.409858 210.876632 
L 132.121784 209.765053 
L 132.012315 208.653474 
L 131.286367 207.541895 
L 130.168636 206.430316 
L 129.75957 205.318737 
L 129.120044 204.207158 
L 127.673909 203.095579 
L 127.443449 201.984 
L 127.17842 200.872421 
L 127.126566 199.760842 
L 125.092758 198.649263 
L 124.845014 197.537684 
L 124.435948 196.426105 
L 124.355287 195.314526 
L 123.992313 194.202947 
L 123.185703 193.091368 
L 122.344525 191.979789 
L 122.154395 190.868211 
L 122.010358 189.756632 
L 121.762614 188.645053 
L 121.428447 187.533474 
L 121.36507 186.421895 
L 120.397139 185.310316 
L 120.218533 185.310316 
L 119.59053 184.198737 
L 119.354308 183.087158 
L 118.789682 181.975579 
L 118.230816 180.864 
L 117.614336 179.752421 
L 117.274408 178.640842 
L 116.773158 177.529263 
L 116.415945 176.417684 
L 116.346807 175.306105 
L 115.252123 174.194526 
L 114.710542 173.082947 
L 114.439752 171.971368 
L 113.880887 170.859789 
L 112.77468 169.748211 
L 112.23886 168.636632 
L 112.135154 168.636632 
L 111.92774 167.525053 
L 111.109607 166.413474 
L 111.011662 165.301895 
L 109.96307 164.190316 
L 109.496388 163.078737 
L 109.42725 163.078737 
L 109.087322 161.967158 
L 108.246144 160.855579 
L 108.171244 159.744 
L 107.883169 158.632421 
L 107.669994 157.520842 
L 107.485626 156.409263 
L 107.145698 155.297684 
L 106.921 154.186105 
L 106.713586 153.074526 
L 106.46008 151.962947 
L 105.722608 150.851368 
L 105.388442 149.739789 
L 105.031229 148.628211 
L 104.99666 147.516632 
L 104.674016 146.405053 
L 104.639447 144.181895 
L 104.599117 143.070316 
L 104.558786 141.958737 
L 104.489648 140.847158 
L 104.092105 139.735579 
L 103.383441 138.624 
L 103.337349 137.512421 
L 103.049274 136.400842 
L 102.790007 135.289263 
L 102.599877 134.177684 
L 102.421271 133.066105 
L 102.213857 131.954526 
L 101.902736 130.842947 
L 101.891213 129.731368 
L 100.957851 128.619789 
L 100.439316 127.508211 
L 100.14548 126.396632 
L 100.03025 125.285053 
L 99.753698 124.173474 
L 99.379201 123.061895 
L 98.854905 121.950316 
L 98.549546 120.838737 
L 98.347893 119.727158 
L 98.261471 118.615579 
L 98.192333 117.504 
L 97.765982 116.392421 
L 97.702606 115.280842 
L 97.650752 114.169263 
L 97.305063 114.169263 
L 97.132218 113.057684 
L 95.709128 111.946105 
L 95.081125 110.834526 
L 95.069602 109.722947 
L 95.029272 108.611368 
L 93.721412 107.499789 
L 93.225923 106.388211 
L 92.874472 105.276632 
L 92.718912 104.165053 
L 92.113954 103.053474 
L 91.618466 101.941895 
L 91.128739 100.830316 
L 90.932848 99.718737 
L 90.604443 98.607158 
L 89.936109 97.495579 
L 89.653796 96.384 
L 89.624988 95.272421 
L 89.388767 94.160842 
L 88.78381 93.049263 
L 88.755002 91.937684 
L 88.351698 90.826105 
L 88.086669 89.714526 
L 87.850447 88.602947 
L 87.602703 87.491368 
L 87.510519 86.379789 
L 87.47595 85.268211 
L 87.233967 84.156632 
L 87.061122 83.045053 
L 86.410073 81.933474 
L 84.837185 80.821895 
L 84.802616 79.710316 
L 84.358981 78.598737 
L 84.180374 77.487158 
L 83.333434 76.375579 
L 82.521063 75.264 
L 82.388549 74.152421 
L 82.31365 73.040842 
L 82.192658 71.929263 
L 80.567916 70.817684 
L 80.297126 69.706105 
L 80.268318 68.594526 
L 78.781852 67.482947 
L 78.683907 66.371368 
L 78.073188 65.259789 
L 77.128303 64.148211 
L 75.99905 63.036632 
L 75.434423 63.036632 
L 75.065687 61.925053 
L 74.789136 60.813474 
L 73.832727 59.701895 
z
" clip-path="url(#pcbf054e118)" style="fill: #7cfc00"/>
   </g>
   <g id="PolyCollection_3">
    <path d="M 73.832727 54.144 
L 73.832727 59.701895 
L 74.789136 60.813474 
L 75.065687 61.925053 
L 75.434423 63.036632 
L 75.99905 63.036632 
L 77.128303 64.148211 
L 78.073188 65.259789 
L 78.683907 66.371368 
L 78.781852 67.482947 
L 80.268318 68.594526 
L 80.297126 69.706105 
L 80.567916 70.817684 
L 82.192658 71.929263 
L 82.31365 73.040842 
L 82.388549 74.152421 
L 82.521063 75.264 
L 83.333434 76.375579 
L 84.180374 77.487158 
L 84.358981 78.598737 
L 84.802616 79.710316 
L 84.837185 80.821895 
L 86.410073 81.933474 
L 87.061122 83.045053 
L 87.233967 84.156632 
L 87.47595 85.268211 
L 87.510519 86.379789 
L 87.602703 87.491368 
L 87.850447 88.602947 
L 88.086669 89.714526 
L 88.351698 90.826105 
L 88.755002 91.937684 
L 88.78381 93.049263 
L 89.388767 94.160842 
L 89.624988 95.272421 
L 89.653796 96.384 
L 89.936109 97.495579 
L 90.604443 98.607158 
L 90.932848 99.718737 
L 91.128739 100.830316 
L 91.618466 101.941895 
L 92.113954 103.053474 
L 92.718912 104.165053 
L 92.874472 105.276632 
L 93.225923 106.388211 
L 93.721412 107.499789 
L 95.029272 108.611368 
L 95.069602 109.722947 
L 95.081125 110.834526 
L 95.709128 111.946105 
L 97.132218 113.057684 
L 97.305063 114.169263 
L 97.650752 114.169263 
L 97.702606 115.280842 
L 97.765982 116.392421 
L 98.192333 117.504 
L 98.261471 118.615579 
L 98.347893 119.727158 
L 98.549546 120.838737 
L 98.854905 121.950316 
L 99.379201 123.061895 
L 99.753698 124.173474 
L 100.03025 125.285053 
L 100.14548 126.396632 
L 100.439316 127.508211 
L 100.957851 128.619789 
L 101.891213 129.731368 
L 101.902736 130.842947 
L 102.213857 131.954526 
L 102.421271 133.066105 
L 102.599877 134.177684 
L 102.790007 135.289263 
L 103.049274 136.400842 
L 103.337349 137.512421 
L 103.383441 138.624 
L 104.092105 139.735579 
L 104.489648 140.847158 
L 104.558786 141.958737 
L 104.599117 143.070316 
L 104.639447 144.181895 
L 104.674016 146.405053 
L 104.99666 147.516632 
L 105.031229 148.628211 
L 105.388442 149.739789 
L 105.722608 150.851368 
L 106.46008 151.962947 
L 106.713586 153.074526 
L 106.921 154.186105 
L 107.145698 155.297684 
L 107.485626 156.409263 
L 107.669994 157.520842 
L 107.883169 158.632421 
L 108.171244 159.744 
L 108.246144 160.855579 
L 109.087322 161.967158 
L 109.42725 163.078737 
L 109.496388 163.078737 
L 109.96307 164.190316 
L 111.011662 165.301895 
L 111.109607 166.413474 
L 111.92774 167.525053 
L 112.135154 168.636632 
L 112.23886 168.636632 
L 112.77468 169.748211 
L 113.880887 170.859789 
L 114.439752 171.971368 
L 114.710542 173.082947 
L 115.252123 174.194526 
L 116.346807 175.306105 
L 116.415945 176.417684 
L 116.773158 177.529263 
L 117.274408 178.640842 
L 117.614336 179.752421 
L 118.230816 180.864 
L 118.789682 181.975579 
L 119.354308 183.087158 
L 119.59053 184.198737 
L 120.218533 185.310316 
L 120.397139 185.310316 
L 121.36507 186.421895 
L 121.428447 187.533474 
L 121.762614 188.645053 
L 122.010358 189.756632 
L 122.154395 190.868211 
L 122.344525 191.979789 
L 123.185703 193.091368 
L 123.992313 194.202947 
L 124.355287 195.314526 
L 124.435948 196.426105 
L 124.845014 197.537684 
L 125.092758 198.649263 
L 127.126566 199.760842 
L 127.17842 200.872421 
L 127.443449 201.984 
L 127.673909 203.095579 
L 129.120044 204.207158 
L 129.75957 205.318737 
L 130.168636 206.430316 
L 131.286367 207.541895 
L 132.012315 208.653474 
L 132.121784 209.765053 
L 132.409858 210.876632 
L 133.095476 211.988211 
L 133.446928 213.099789 
L 133.464212 214.211368 
L 133.838709 215.322947 
L 133.965462 216.434526 
L 134.115261 217.546105 
L 134.22473 218.657684 
L 135.175377 219.769263 
L 136.005032 220.880842 
L 136.506282 221.992421 
L 136.880779 223.104 
L 137.595205 224.215579 
L 138.620751 225.327158 
L 138.626513 226.438737 
L 138.966441 227.550316 
L 139.012533 228.661895 
L 139.536829 229.773474 
L 140.343439 230.885053 
L 140.395292 231.996632 
L 140.723697 233.108211 
L 141.294085 234.219789 
L 142.769028 235.331368 
L 143.471931 236.442947 
L 144.272779 237.554526 
L 145.649777 238.666105 
L 145.770768 239.777684 
L 146.035797 240.889263 
L 146.467909 242.000842 
L 147.464648 243.112421 
L 147.556832 244.224 
L 147.574116 245.335579 
L 148.340395 246.447158 
L 149.072105 247.558737 
L 149.118197 248.670316 
L 150.276258 249.781895 
L 153.145483 250.893474 
L 154.21136 252.005053 
L 154.268975 253.116632 
L 155.09863 254.228211 
L 155.818817 255.339789 
L 156.740657 256.451368 
L 157.172769 257.562947 
L 159.655974 258.674526 
L 160.825557 259.786105 
L 160.877411 260.897684 
L 161.349853 262.009263 
L 162.167986 263.120842 
L 163.475846 264.232421 
L 164.461061 265.344 
L 165.987858 266.455579 
L 166.610099 267.567158 
L 167.393663 268.678737 
L 175.995577 269.790316 
L 176.174183 270.901895 
L 178.12733 272.013474 
L 179.481282 273.125053 
L 180.840995 274.236632 
L 183.888826 275.348211 
L 185.006557 276.459789 
L 187.898828 277.571368 
L 189.667607 278.682947 
L 189.90959 279.794526 
L 193.959922 280.906105 
L 194.622494 282.017684 
L 195.463672 283.129263 
L 199.704133 284.240842 
L 200.758487 285.352421 
L 203.483675 286.464 
L 205.062325 287.575579 
L 208.012211 288.687158 
L 213.128419 289.798737 
L 219.373881 290.910316 
L 220.825778 292.021895 
L 221.926224 293.133474 
L 228.436714 294.245053 
L 234.106027 295.356632 
L 236.998298 296.468211 
L 239.268327 297.579789 
L 240.558902 298.691368 
L 240.996776 299.802947 
L 244.47672 300.914526 
L 262.99993 302.026105 
L 267.666742 303.137684 
L 274.764905 304.249263 
L 279.44324 305.360842 
L 398.487273 306.472421 
L 398.487273 306.472421 
L 398.487273 306.472421 
L 279.44324 305.360842 
L 274.764905 304.249263 
L 267.666742 303.137684 
L 262.99993 302.026105 
L 244.47672 300.914526 
L 240.996776 299.802947 
L 240.558902 298.691368 
L 239.268327 297.579789 
L 236.998298 296.468211 
L 234.106027 295.356632 
L 228.436714 294.245053 
L 221.926224 293.133474 
L 220.825778 292.021895 
L 219.373881 290.910316 
L 213.128419 289.798737 
L 208.012211 288.687158 
L 205.062325 287.575579 
L 203.483675 286.464 
L 200.758487 285.352421 
L 199.704133 284.240842 
L 195.463672 283.129263 
L 194.622494 282.017684 
L 193.959922 280.906105 
L 189.90959 279.794526 
L 189.667607 278.682947 
L 187.898828 277.571368 
L 185.006557 276.459789 
L 183.888826 275.348211 
L 180.840995 274.236632 
L 179.481282 273.125053 
L 178.12733 272.013474 
L 176.174183 270.901895 
L 175.995577 269.790316 
L 167.393663 268.678737 
L 166.610099 267.567158 
L 165.987858 266.455579 
L 164.461061 265.344 
L 163.475846 264.232421 
L 162.167986 263.120842 
L 161.349853 262.009263 
L 160.877411 260.897684 
L 160.825557 259.786105 
L 159.655974 258.674526 
L 157.172769 257.562947 
L 156.740657 256.451368 
L 155.818817 255.339789 
L 155.09863 254.228211 
L 154.268975 253.116632 
L 154.21136 252.005053 
L 153.145483 250.893474 
L 150.276258 249.781895 
L 149.118197 248.670316 
L 149.072105 247.558737 
L 148.340395 246.447158 
L 147.574116 245.335579 
L 147.556832 244.224 
L 147.464648 243.112421 
L 146.467909 242.000842 
L 146.035797 240.889263 
L 145.770768 239.777684 
L 145.649777 238.666105 
L 144.272779 237.554526 
L 143.471931 236.442947 
L 142.769028 235.331368 
L 141.294085 234.219789 
L 140.723697 233.108211 
L 140.395292 231.996632 
L 140.343439 230.885053 
L 139.536829 229.773474 
L 139.012533 228.661895 
L 138.966441 227.550316 
L 138.626513 226.438737 
L 138.620751 225.327158 
L 137.595205 224.215579 
L 136.880779 223.104 
L 136.506282 221.992421 
L 136.005032 220.880842 
L 135.175377 219.769263 
L 134.22473 218.657684 
L 134.115261 217.546105 
L 133.965462 216.434526 
L 133.838709 215.322947 
L 133.464212 214.211368 
L 133.446928 213.099789 
L 133.095476 211.988211 
L 132.409858 210.876632 
L 132.121784 209.765053 
L 132.012315 208.653474 
L 131.286367 207.541895 
L 130.168636 206.430316 
L 129.75957 205.318737 
L 129.120044 204.207158 
L 127.673909 203.095579 
L 127.443449 201.984 
L 127.17842 200.872421 
L 127.126566 199.760842 
L 125.092758 198.649263 
L 124.845014 197.537684 
L 124.435948 196.426105 
L 124.355287 195.314526 
L 123.992313 194.202947 
L 123.185703 193.091368 
L 122.344525 191.979789 
L 122.154395 190.868211 
L 122.010358 189.756632 
L 121.762614 188.645053 
L 121.428447 187.533474 
L 121.36507 186.421895 
L 120.397139 185.310316 
L 120.218533 184.198737 
L 119.59053 183.087158 
L 119.354308 181.975579 
L 118.789682 180.864 
L 118.230816 179.752421 
L 117.614336 178.640842 
L 117.274408 177.529263 
L 116.773158 176.417684 
L 116.415945 175.306105 
L 116.346807 174.194526 
L 115.252123 173.082947 
L 114.710542 171.971368 
L 114.439752 170.859789 
L 113.880887 169.748211 
L 112.77468 168.636632 
L 112.23886 167.525053 
L 112.135154 166.413474 
L 111.92774 165.301895 
L 111.109607 164.190316 
L 111.011662 163.078737 
L 109.96307 161.967158 
L 109.496388 160.855579 
L 109.42725 159.744 
L 109.087322 158.632421 
L 108.246144 157.520842 
L 108.171244 156.409263 
L 107.883169 155.297684 
L 107.669994 154.186105 
L 107.485626 153.074526 
L 107.145698 151.962947 
L 106.921 150.851368 
L 106.713586 149.739789 
L 106.46008 148.628211 
L 105.722608 147.516632 
L 105.388442 146.405053 
L 105.031229 145.293474 
L 104.99666 144.181895 
L 104.674016 143.070316 
L 104.639447 140.847158 
L 104.599117 139.735579 
L 104.558786 138.624 
L 104.489648 137.512421 
L 104.092105 136.400842 
L 103.383441 135.289263 
L 103.337349 134.177684 
L 103.049274 133.066105 
L 102.790007 131.954526 
L 102.599877 130.842947 
L 102.421271 129.731368 
L 102.213857 128.619789 
L 101.902736 127.508211 
L 101.891213 126.396632 
L 100.957851 125.285053 
L 100.439316 124.173474 
L 100.14548 123.061895 
L 100.03025 121.950316 
L 99.753698 120.838737 
L 99.379201 119.727158 
L 98.854905 118.615579 
L 98.549546 117.504 
L 98.347893 116.392421 
L 98.261471 115.280842 
L 98.192333 114.169263 
L 97.765982 113.057684 
L 97.702606 111.946105 
L 97.650752 110.834526 
L 97.305063 109.722947 
L 97.132218 108.611368 
L 95.709128 107.499789 
L 95.081125 106.388211 
L 95.069602 105.276632 
L 95.029272 104.165053 
L 93.721412 103.053474 
L 93.225923 101.941895 
L 92.874472 100.830316 
L 92.718912 99.718737 
L 92.113954 98.607158 
L 91.618466 97.495579 
L 91.128739 96.384 
L 90.932848 95.272421 
L 90.604443 94.160842 
L 89.936109 93.049263 
L 89.653796 91.937684 
L 89.624988 90.826105 
L 89.388767 89.714526 
L 88.78381 88.602947 
L 88.755002 87.491368 
L 88.351698 86.379789 
L 88.086669 85.268211 
L 87.850447 84.156632 
L 87.602703 83.045053 
L 87.510519 81.933474 
L 87.47595 80.821895 
L 87.233967 79.710316 
L 87.061122 78.598737 
L 86.410073 77.487158 
L 84.837185 76.375579 
L 84.802616 75.264 
L 84.358981 74.152421 
L 84.180374 73.040842 
L 83.333434 71.929263 
L 82.521063 70.817684 
L 82.388549 69.706105 
L 82.31365 68.594526 
L 82.192658 67.482947 
L 80.567916 66.371368 
L 80.297126 65.259789 
L 80.268318 64.148211 
L 78.781852 63.036632 
L 78.683907 61.925053 
L 78.073188 60.813474 
L 77.128303 59.701895 
L 75.99905 58.590316 
L 75.434423 57.478737 
L 75.065687 56.367158 
L 74.789136 55.255579 
L 73.832727 54.144 
z
" clip-path="url(#pcbf054e118)" style="fill: #ff0000"/>
   </g>
   <g id="matplotlib.axis_1">
    <g id="xtick_1">
     <g id="line2d_1">
      <defs>
       <path id="m22b8632092" d="M 0 0 
L 0 3.5 
" style="stroke: #000000; stroke-width: 0.8"/>
      </defs>
      <g>
       <use xlink:href="#m22b8632092" x="92.592159" y="307.584" style="stroke: #000000; stroke-width: 0.8"/>
      </g>
     </g>
     <g id="text_1">
      <!-- 100 -->
      <g transform="translate(83.048409 322.182437) scale(0.1 -0.1)">
       <defs>
        <path id="DejaVuSans-31" d="M 794 531 
L 1825 531 
L 1825 4091 
L 703 3866 
L 703 4441 
L 1819 4666 
L 2450 4666 
L 2450 531 
L 3481 531 
L 3481 0 
L 794 0 
L 794 531 
z
" transform="scale(0.015625)"/>
        <path id="DejaVuSans-30" d="M 2034 4250 
Q 1547 4250 1301 3770 
Q 1056 3291 1056 2328 
Q 1056 1369 1301 889 
Q 1547 409 2034 409 
Q 2525 409 2770 889 
Q 3016 1369 3016 2328 
Q 3016 3291 2770 3770 
Q 2525 4250 2034 4250 
z
M 2034 4750 
Q 2819 4750 3233 4129 
Q 3647 3509 3647 2328 
Q 3647 1150 3233 529 
Q 2819 -91 2034 -91 
Q 1250 -91 836 529 
Q 422 1150 422 2328 
Q 422 3509 836 4129 
Q 1250 4750 2034 4750 
z
" transform="scale(0.015625)"/>
       </defs>
       <use xlink:href="#DejaVuSans-31"/>
       <use xlink:href="#DejaVuSans-30" x="63.623047"/>
       <use xlink:href="#DejaVuSans-30" x="127.246094"/>
      </g>
     </g>
    </g>
    <g id="xtick_2">
     <g id="line2d_2">
      <g>
       <use xlink:href="#m22b8632092" x="150.20712" y="307.584" style="stroke: #000000; stroke-width: 0.8"/>
      </g>
     </g>
     <g id="text_2">
      <!-- 200 -->
      <g transform="translate(140.66337 322.182437) scale(0.1 -0.1)">
       <defs>
        <path id="DejaVuSans-32" d="M 1228 531 
L 3431 531 
L 3431 0 
L 469 0 
L 469 531 
Q 828 903 1448 1529 
Q 2069 2156 2228 2338 
Q 2531 2678 2651 2914 
Q 2772 3150 2772 3378 
Q 2772 3750 2511 3984 
Q 2250 4219 1831 4219 
Q 1534 4219 1204 4116 
Q 875 4013 500 3803 
L 500 4441 
Q 881 4594 1212 4672 
Q 1544 4750 1819 4750 
Q 2544 4750 2975 4387 
Q 3406 4025 3406 3419 
Q 3406 3131 3298 2873 
Q 3191 2616 2906 2266 
Q 2828 2175 2409 1742 
Q 1991 1309 1228 531 
z
" transform="scale(0.015625)"/>
       </defs>
       <use xlink:href="#DejaVuSans-32"/>
       <use xlink:href="#DejaVuSans-30" x="63.623047"/>
       <use xlink:href="#DejaVuSans-30" x="127.246094"/>
      </g>
     </g>
    </g>
    <g id="xtick_3">
     <g id="line2d_3">
      <g>
       <use xlink:href="#m22b8632092" x="207.822081" y="307.584" style="stroke: #000000; stroke-width: 0.8"/>
      </g>
     </g>
     <g id="text_3">
      <!-- 300 -->
      <g transform="translate(198.278331 322.182437) scale(0.1 -0.1)">
       <defs>
        <path id="DejaVuSans-33" d="M 2597 2516 
Q 3050 2419 3304 2112 
Q 3559 1806 3559 1356 
Q 3559 666 3084 287 
Q 2609 -91 1734 -91 
Q 1441 -91 1130 -33 
Q 819 25 488 141 
L 488 750 
Q 750 597 1062 519 
Q 1375 441 1716 441 
Q 2309 441 2620 675 
Q 2931 909 2931 1356 
Q 2931 1769 2642 2001 
Q 2353 2234 1838 2234 
L 1294 2234 
L 1294 2753 
L 1863 2753 
Q 2328 2753 2575 2939 
Q 2822 3125 2822 3475 
Q 2822 3834 2567 4026 
Q 2313 4219 1838 4219 
Q 1578 4219 1281 4162 
Q 984 4106 628 3988 
L 628 4550 
Q 988 4650 1302 4700 
Q 1616 4750 1894 4750 
Q 2613 4750 3031 4423 
Q 3450 4097 3450 3541 
Q 3450 3153 3228 2886 
Q 3006 2619 2597 2516 
z
" transform="scale(0.015625)"/>
       </defs>
       <use xlink:href="#DejaVuSans-33"/>
       <use xlink:href="#DejaVuSans-30" x="63.623047"/>
       <use xlink:href="#DejaVuSans-30" x="127.246094"/>
      </g>
     </g>
    </g>
    <g id="xtick_4">
     <g id="line2d_4">
      <g>
       <use xlink:href="#m22b8632092" x="265.437043" y="307.584" style="stroke: #000000; stroke-width: 0.8"/>
      </g>
     </g>
     <g id="text_4">
      <!-- 400 -->
      <g transform="translate(255.893293 322.182437) scale(0.1 -0.1)">
       <defs>
        <path id="DejaVuSans-34" d="M 2419 4116 
L 825 1625 
L 2419 1625 
L 2419 4116 
z
M 2253 4666 
L 3047 4666 
L 3047 1625 
L 3713 1625 
L 3713 1100 
L 3047 1100 
L 3047 0 
L 2419 0 
L 2419 1100 
L 313 1100 
L 313 1709 
L 2253 4666 
z
" transform="scale(0.015625)"/>
       </defs>
       <use xlink:href="#DejaVuSans-34"/>
       <use xlink:href="#DejaVuSans-30" x="63.623047"/>
       <use xlink:href="#DejaVuSans-30" x="127.246094"/>
      </g>
     </g>
    </g>
    <g id="xtick_5">
     <g id="line2d_5">
      <g>
       <use xlink:href="#m22b8632092" x="323.052004" y="307.584" style="stroke: #000000; stroke-width: 0.8"/>
      </g>
     </g>
     <g id="text_5">
      <!-- 500 -->
      <g transform="translate(313.508254 322.182437) scale(0.1 -0.1)">
       <defs>
        <path id="DejaVuSans-35" d="M 691 4666 
L 3169 4666 
L 3169 4134 
L 1269 4134 
L 1269 2991 
Q 1406 3038 1543 3061 
Q 1681 3084 1819 3084 
Q 2600 3084 3056 2656 
Q 3513 2228 3513 1497 
Q 3513 744 3044 326 
Q 2575 -91 1722 -91 
Q 1428 -91 1123 -41 
Q 819 9 494 109 
L 494 744 
Q 775 591 1075 516 
Q 1375 441 1709 441 
Q 2250 441 2565 725 
Q 2881 1009 2881 1497 
Q 2881 1984 2565 2268 
Q 2250 2553 1709 2553 
Q 1456 2553 1204 2497 
Q 953 2441 691 2322 
L 691 4666 
z
" transform="scale(0.015625)"/>
       </defs>
       <use xlink:href="#DejaVuSans-35"/>
       <use xlink:href="#DejaVuSans-30" x="63.623047"/>
       <use xlink:href="#DejaVuSans-30" x="127.246094"/>
      </g>
     </g>
    </g>
    <g id="xtick_6">
     <g id="line2d_6">
      <g>
       <use xlink:href="#m22b8632092" x="380.666965" y="307.584" style="stroke: #000000; stroke-width: 0.8"/>
      </g>
     </g>
     <g id="text_6">
      <!-- 600 -->
      <g transform="translate(371.123215 322.182437) scale(0.1 -0.1)">
       <defs>
        <path id="DejaVuSans-36" d="M 2113 2584 
Q 1688 2584 1439 2293 
Q 1191 2003 1191 1497 
Q 1191 994 1439 701 
Q 1688 409 2113 409 
Q 2538 409 2786 701 
Q 3034 994 3034 1497 
Q 3034 2003 2786 2293 
Q 2538 2584 2113 2584 
z
M 3366 4563 
L 3366 3988 
Q 3128 4100 2886 4159 
Q 2644 4219 2406 4219 
Q 1781 4219 1451 3797 
Q 1122 3375 1075 2522 
Q 1259 2794 1537 2939 
Q 1816 3084 2150 3084 
Q 2853 3084 3261 2657 
Q 3669 2231 3669 1497 
Q 3669 778 3244 343 
Q 2819 -91 2113 -91 
Q 1303 -91 875 529 
Q 447 1150 447 2328 
Q 447 3434 972 4092 
Q 1497 4750 2381 4750 
Q 2619 4750 2861 4703 
Q 3103 4656 3366 4563 
z
" transform="scale(0.015625)"/>
       </defs>
       <use xlink:href="#DejaVuSans-36"/>
       <use xlink:href="#DejaVuSans-30" x="63.623047"/>
       <use xlink:href="#DejaVuSans-30" x="127.246094"/>
      </g>
     </g>
    </g>
    <g id="text_7">
     <!-- Score -->
     <g transform="translate(222.157656 335.860562) scale(0.1 -0.1)">
      <defs>
       <path id="DejaVuSans-53" d="M 3425 4513 
L 3425 3897 
Q 3066 4069 2747 4153 
Q 2428 4238 2131 4238 
Q 1616 4238 1336 4038 
Q 1056 3838 1056 3469 
Q 1056 3159 1242 3001 
Q 1428 2844 1947 2747 
L 2328 2669 
Q 3034 2534 3370 2195 
Q 3706 1856 3706 1288 
Q 3706 609 3251 259 
Q 2797 -91 1919 -91 
Q 1588 -91 1214 -16 
Q 841 59 441 206 
L 441 856 
Q 825 641 1194 531 
Q 1563 422 1919 422 
Q 2459 422 2753 634 
Q 3047 847 3047 1241 
Q 3047 1584 2836 1778 
Q 2625 1972 2144 2069 
L 1759 2144 
Q 1053 2284 737 2584 
Q 422 2884 422 3419 
Q 422 4038 858 4394 
Q 1294 4750 2059 4750 
Q 2388 4750 2728 4690 
Q 3069 4631 3425 4513 
z
" transform="scale(0.015625)"/>
       <path id="DejaVuSans-63" d="M 3122 3366 
L 3122 2828 
Q 2878 2963 2633 3030 
Q 2388 3097 2138 3097 
Q 1578 3097 1268 2742 
Q 959 2388 959 1747 
Q 959 1106 1268 751 
Q 1578 397 2138 397 
Q 2388 397 2633 464 
Q 2878 531 3122 666 
L 3122 134 
Q 2881 22 2623 -34 
Q 2366 -91 2075 -91 
Q 1284 -91 818 406 
Q 353 903 353 1747 
Q 353 2603 823 3093 
Q 1294 3584 2113 3584 
Q 2378 3584 2631 3529 
Q 2884 3475 3122 3366 
z
" transform="scale(0.015625)"/>
       <path id="DejaVuSans-6f" d="M 1959 3097 
Q 1497 3097 1228 2736 
Q 959 2375 959 1747 
Q 959 1119 1226 758 
Q 1494 397 1959 397 
Q 2419 397 2687 759 
Q 2956 1122 2956 1747 
Q 2956 2369 2687 2733 
Q 2419 3097 1959 3097 
z
M 1959 3584 
Q 2709 3584 3137 3096 
Q 3566 2609 3566 1747 
Q 3566 888 3137 398 
Q 2709 -91 1959 -91 
Q 1206 -91 779 398 
Q 353 888 353 1747 
Q 353 2609 779 3096 
Q 1206 3584 1959 3584 
z
" transform="scale(0.015625)"/>
       <path id="DejaVuSans-72" d="M 2631 2963 
Q 2534 3019 2420 3045 
Q 2306 3072 2169 3072 
Q 1681 3072 1420 2755 
Q 1159 2438 1159 1844 
L 1159 0 
L 581 0 
L 581 3500 
L 1159 3500 
L 1159 2956 
Q 1341 3275 1631 3429 
Q 1922 3584 2338 3584 
Q 2397 3584 2469 3576 
Q 2541 3569 2628 3553 
L 2631 2963 
z
" transform="scale(0.015625)"/>
       <path id="DejaVuSans-65" d="M 3597 1894 
L 3597 1613 
L 953 1613 
Q 991 1019 1311 708 
Q 1631 397 2203 397 
Q 2534 397 2845 478 
Q 3156 559 3463 722 
L 3463 178 
Q 3153 47 2828 -22 
Q 2503 -91 2169 -91 
Q 1331 -91 842 396 
Q 353 884 353 1716 
Q 353 2575 817 3079 
Q 1281 3584 2069 3584 
Q 2775 3584 3186 3129 
Q 3597 2675 3597 1894 
z
M 3022 2063 
Q 3016 2534 2758 2815 
Q 2500 3097 2075 3097 
Q 1594 3097 1305 2825 
Q 1016 2553 972 2059 
L 3022 2063 
z
" transform="scale(0.015625)"/>
      </defs>
      <use xlink:href="#DejaVuSans-53"/>
      <use xlink:href="#DejaVuSans-63" x="63.476562"/>
      <use xlink:href="#DejaVuSans-6f" x="118.457031"/>
      <use xlink:href="#DejaVuSans-72" x="179.638672"/>
      <use xlink:href="#DejaVuSans-65" x="218.501953"/>
     </g>
    </g>
   </g>
   <g id="matplotlib.axis_2">
    <g id="ytick_1">
     <g id="line2d_7">
      <defs>
       <path id="mea29598f1e" d="M 0 0 
L -3.5 0 
" style="stroke: #000000; stroke-width: 0.8"/>
      </defs>
      <g>
       <use xlink:href="#mea29598f1e" x="57.6" y="307.584" style="stroke: #000000; stroke-width: 0.8"/>
      </g>
     </g>
     <g id="text_8">
      <!-- 0 -->
      <g transform="translate(44.2375 311.383219) scale(0.1 -0.1)">
       <use xlink:href="#DejaVuSans-30"/>
      </g>
     </g>
    </g>
    <g id="ytick_2">
     <g id="line2d_8">
      <g>
       <use xlink:href="#mea29598f1e" x="57.6" y="252.005053" style="stroke: #000000; stroke-width: 0.8"/>
      </g>
     </g>
     <g id="text_9">
      <!-- 50 -->
      <g transform="translate(37.875 255.804271) scale(0.1 -0.1)">
       <use xlink:href="#DejaVuSans-35"/>
       <use xlink:href="#DejaVuSans-30" x="63.623047"/>
      </g>
     </g>
    </g>
    <g id="ytick_3">
     <g id="line2d_9">
      <g>
       <use xlink:href="#mea29598f1e" x="57.6" y="196.426105" style="stroke: #000000; stroke-width: 0.8"/>
      </g>
     </g>
     <g id="text_10">
      <!-- 100 -->
      <g transform="translate(31.5125 200.225324) scale(0.1 -0.1)">
       <use xlink:href="#DejaVuSans-31"/>
       <use xlink:href="#DejaVuSans-30" x="63.623047"/>
       <use xlink:href="#DejaVuSans-30" x="127.246094"/>
      </g>
     </g>
    </g>
    <g id="ytick_4">
     <g id="line2d_10">
      <g>
       <use xlink:href="#mea29598f1e" x="57.6" y="140.847158" style="stroke: #000000; stroke-width: 0.8"/>
      </g>
     </g>
     <g id="text_11">
      <!-- 150 -->
      <g transform="translate(31.5125 144.646377) scale(0.1 -0.1)">
       <use xlink:href="#DejaVuSans-31"/>
       <use xlink:href="#DejaVuSans-35" x="63.623047"/>
       <use xlink:href="#DejaVuSans-30" x="127.246094"/>
      </g>
     </g>
    </g>
    <g id="ytick_5">
     <g id="line2d_11">
      <g>
       <use xlink:href="#mea29598f1e" x="57.6" y="85.268211" style="stroke: #000000; stroke-width: 0.8"/>
      </g>
     </g>
     <g id="text_12">
      <!-- 200 -->
      <g transform="translate(31.5125 89.067429) scale(0.1 -0.1)">
       <use xlink:href="#DejaVuSans-32"/>
       <use xlink:href="#DejaVuSans-30" x="63.623047"/>
       <use xlink:href="#DejaVuSans-30" x="127.246094"/>
      </g>
     </g>
    </g>
    <g id="text_13">
     <!-- Number of crosslinks -->
     <g transform="translate(25.432812 227.019406) rotate(-90) scale(0.1 -0.1)">
      <defs>
       <path id="DejaVuSans-4e" d="M 628 4666 
L 1478 4666 
L 3547 763 
L 3547 4666 
L 4159 4666 
L 4159 0 
L 3309 0 
L 1241 3903 
L 1241 0 
L 628 0 
L 628 4666 
z
" transform="scale(0.015625)"/>
       <path id="DejaVuSans-75" d="M 544 1381 
L 544 3500 
L 1119 3500 
L 1119 1403 
Q 1119 906 1312 657 
Q 1506 409 1894 409 
Q 2359 409 2629 706 
Q 2900 1003 2900 1516 
L 2900 3500 
L 3475 3500 
L 3475 0 
L 2900 0 
L 2900 538 
Q 2691 219 2414 64 
Q 2138 -91 1772 -91 
Q 1169 -91 856 284 
Q 544 659 544 1381 
z
M 1991 3584 
L 1991 3584 
z
" transform="scale(0.015625)"/>
       <path id="DejaVuSans-6d" d="M 3328 2828 
Q 3544 3216 3844 3400 
Q 4144 3584 4550 3584 
Q 5097 3584 5394 3201 
Q 5691 2819 5691 2113 
L 5691 0 
L 5113 0 
L 5113 2094 
Q 5113 2597 4934 2840 
Q 4756 3084 4391 3084 
Q 3944 3084 3684 2787 
Q 3425 2491 3425 1978 
L 3425 0 
L 2847 0 
L 2847 2094 
Q 2847 2600 2669 2842 
Q 2491 3084 2119 3084 
Q 1678 3084 1418 2786 
Q 1159 2488 1159 1978 
L 1159 0 
L 581 0 
L 581 3500 
L 1159 3500 
L 1159 2956 
Q 1356 3278 1631 3431 
Q 1906 3584 2284 3584 
Q 2666 3584 2933 3390 
Q 3200 3197 3328 2828 
z
" transform="scale(0.015625)"/>
       <path id="DejaVuSans-62" d="M 3116 1747 
Q 3116 2381 2855 2742 
Q 2594 3103 2138 3103 
Q 1681 3103 1420 2742 
Q 1159 2381 1159 1747 
Q 1159 1113 1420 752 
Q 1681 391 2138 391 
Q 2594 391 2855 752 
Q 3116 1113 3116 1747 
z
M 1159 2969 
Q 1341 3281 1617 3432 
Q 1894 3584 2278 3584 
Q 2916 3584 3314 3078 
Q 3713 2572 3713 1747 
Q 3713 922 3314 415 
Q 2916 -91 2278 -91 
Q 1894 -91 1617 61 
Q 1341 213 1159 525 
L 1159 0 
L 581 0 
L 581 4863 
L 1159 4863 
L 1159 2969 
z
" transform="scale(0.015625)"/>
       <path id="DejaVuSans-20" transform="scale(0.015625)"/>
       <path id="DejaVuSans-66" d="M 2375 4863 
L 2375 4384 
L 1825 4384 
Q 1516 4384 1395 4259 
Q 1275 4134 1275 3809 
L 1275 3500 
L 2222 3500 
L 2222 3053 
L 1275 3053 
L 1275 0 
L 697 0 
L 697 3053 
L 147 3053 
L 147 3500 
L 697 3500 
L 697 3744 
Q 697 4328 969 4595 
Q 1241 4863 1831 4863 
L 2375 4863 
z
" transform="scale(0.015625)"/>
       <path id="DejaVuSans-73" d="M 2834 3397 
L 2834 2853 
Q 2591 2978 2328 3040 
Q 2066 3103 1784 3103 
Q 1356 3103 1142 2972 
Q 928 2841 928 2578 
Q 928 2378 1081 2264 
Q 1234 2150 1697 2047 
L 1894 2003 
Q 2506 1872 2764 1633 
Q 3022 1394 3022 966 
Q 3022 478 2636 193 
Q 2250 -91 1575 -91 
Q 1294 -91 989 -36 
Q 684 19 347 128 
L 347 722 
Q 666 556 975 473 
Q 1284 391 1588 391 
Q 1994 391 2212 530 
Q 2431 669 2431 922 
Q 2431 1156 2273 1281 
Q 2116 1406 1581 1522 
L 1381 1569 
Q 847 1681 609 1914 
Q 372 2147 372 2553 
Q 372 3047 722 3315 
Q 1072 3584 1716 3584 
Q 2034 3584 2315 3537 
Q 2597 3491 2834 3397 
z
" transform="scale(0.015625)"/>
       <path id="DejaVuSans-6c" d="M 603 4863 
L 1178 4863 
L 1178 0 
L 603 0 
L 603 4863 
z
" transform="scale(0.015625)"/>
       <path id="DejaVuSans-69" d="M 603 3500 
L 1178 3500 
L 1178 0 
L 603 0 
L 603 3500 
z
M 603 4863 
L 1178 4863 
L 1178 4134 
L 603 4134 
L 603 4863 
z
" transform="scale(0.015625)"/>
       <path id="DejaVuSans-6e" d="M 3513 2113 
L 3513 0 
L 2938 0 
L 2938 2094 
Q 2938 2591 2744 2837 
Q 2550 3084 2163 3084 
Q 1697 3084 1428 2787 
Q 1159 2491 1159 1978 
L 1159 0 
L 581 0 
L 581 3500 
L 1159 3500 
L 1159 2956 
Q 1366 3272 1645 3428 
Q 1925 3584 2291 3584 
Q 2894 3584 3203 3211 
Q 3513 2838 3513 2113 
z
" transform="scale(0.015625)"/>
       <path id="DejaVuSans-6b" d="M 581 4863 
L 1159 4863 
L 1159 1991 
L 2875 3500 
L 3609 3500 
L 1753 1863 
L 3688 0 
L 2938 0 
L 1159 1709 
L 1159 0 
L 581 0 
L 581 4863 
z
" transform="scale(0.015625)"/>
      </defs>
      <use xlink:href="#DejaVuSans-4e"/>
      <use xlink:href="#DejaVuSans-75" x="74.804688"/>
      <use xlink:href="#DejaVuSans-6d" x="138.183594"/>
      <use xlink:href="#DejaVuSans-62" x="235.595703"/>
      <use xlink:href="#DejaVuSans-65" x="299.072266"/>
      <use xlink:href="#DejaVuSans-72" x="360.595703"/>
      <use xlink:href="#DejaVuSans-20" x="401.708984"/>
      <use xlink:href="#DejaVuSans-6f" x="433.496094"/>
      <use xlink:href="#DejaVuSans-66" x="494.677734"/>
      <use xlink:href="#DejaVuSans-20" x="529.882812"/>
      <use xlink:href="#DejaVuSans-63" x="561.669922"/>
      <use xlink:href="#DejaVuSans-72" x="616.650391"/>
      <use xlink:href="#DejaVuSans-6f" x="655.513672"/>
      <use xlink:href="#DejaVuSans-73" x="716.695312"/>
      <use xlink:href="#DejaVuSans-73" x="768.794922"/>
      <use xlink:href="#DejaVuSans-6c" x="820.894531"/>
      <use xlink:href="#DejaVuSans-69" x="848.677734"/>
      <use xlink:href="#DejaVuSans-6e" x="876.460938"/>
      <use xlink:href="#DejaVuSans-6b" x="939.839844"/>
      <use xlink:href="#DejaVuSans-73" x="997.75"/>
     </g>
    </g>
   </g>
   <g id="patch_3">
    <path d="M 57.6 307.584 
L 57.6 41.472 
" style="fill: none; stroke: #000000; stroke-width: 0.8; stroke-linejoin: miter; stroke-linecap: square"/>
   </g>
   <g id="patch_4">
    <path d="M 414.72 307.584 
L 414.72 41.472 
" style="fill: none; stroke: #000000; stroke-width: 0.8; stroke-linejoin: miter; stroke-linecap: square"/>
   </g>
   <g id="patch_5">
    <path d="M 57.6 307.584 
L 414.72 307.584 
" style="fill: none; stroke: #000000; stroke-width: 0.8; stroke-linejoin: miter; stroke-linecap: square"/>
   </g>
   <g id="patch_6">
    <path d="M 57.6 41.472 
L 414.72 41.472 
" style="fill: none; stroke: #000000; stroke-width: 0.8; stroke-linejoin: miter; stroke-linecap: square"/>
   </g>
   <g id="legend_1">
    <g id="patch_7">
     <path d="M 293.087188 93.506375 
L 407.72 93.506375 
Q 409.72 93.506375 409.72 91.506375 
L 409.72 48.472 
Q 409.72 46.472 407.72 46.472 
L 293.087188 46.472 
Q 291.087188 46.472 291.087188 48.472 
L 291.087188 91.506375 
Q 291.087188 93.506375 293.087188 93.506375 
z
" style="fill: #ffffff; opacity: 0.8; stroke: #cccccc; stroke-linejoin: miter"/>
    </g>
    <g id="patch_8">
     <path d="M 295.087188 58.070438 
L 315.087188 58.070438 
L 315.087188 51.070438 
L 295.087188 51.070438 
z
" style="fill: #008000"/>
    </g>
    <g id="text_14">
     <!-- true -->
     <g transform="translate(323.087188 58.070438) scale(0.1 -0.1)">
      <defs>
       <path id="DejaVuSans-74" d="M 1172 4494 
L 1172 3500 
L 2356 3500 
L 2356 3053 
L 1172 3053 
L 1172 1153 
Q 1172 725 1289 603 
Q 1406 481 1766 481 
L 2356 481 
L 2356 0 
L 1766 0 
Q 1100 0 847 248 
Q 594 497 594 1153 
L 594 3053 
L 172 3053 
L 172 3500 
L 594 3500 
L 594 4494 
L 1172 4494 
z
" transform="scale(0.015625)"/>
      </defs>
      <use xlink:href="#DejaVuSans-74"/>
      <use xlink:href="#DejaVuSans-72" x="39.208984"/>
      <use xlink:href="#DejaVuSans-75" x="80.322266"/>
      <use xlink:href="#DejaVuSans-65" x="143.701172"/>
     </g>
    </g>
    <g id="patch_9">
     <path d="M 295.087188 72.748563 
L 315.087188 72.748563 
L 315.087188 65.748563 
L 295.087188 65.748563 
z
" style="fill: #7cfc00"/>
    </g>
    <g id="text_15">
     <!-- true homeotypic -->
     <g transform="translate(323.087188 72.748563) scale(0.1 -0.1)">
      <defs>
       <path id="DejaVuSans-68" d="M 3513 2113 
L 3513 0 
L 2938 0 
L 2938 2094 
Q 2938 2591 2744 2837 
Q 2550 3084 2163 3084 
Q 1697 3084 1428 2787 
Q 1159 2491 1159 1978 
L 1159 0 
L 581 0 
L 581 4863 
L 1159 4863 
L 1159 2956 
Q 1366 3272 1645 3428 
Q 1925 3584 2291 3584 
Q 2894 3584 3203 3211 
Q 3513 2838 3513 2113 
z
" transform="scale(0.015625)"/>
       <path id="DejaVuSans-79" d="M 2059 -325 
Q 1816 -950 1584 -1140 
Q 1353 -1331 966 -1331 
L 506 -1331 
L 506 -850 
L 844 -850 
Q 1081 -850 1212 -737 
Q 1344 -625 1503 -206 
L 1606 56 
L 191 3500 
L 800 3500 
L 1894 763 
L 2988 3500 
L 3597 3500 
L 2059 -325 
z
" transform="scale(0.015625)"/>
       <path id="DejaVuSans-70" d="M 1159 525 
L 1159 -1331 
L 581 -1331 
L 581 3500 
L 1159 3500 
L 1159 2969 
Q 1341 3281 1617 3432 
Q 1894 3584 2278 3584 
Q 2916 3584 3314 3078 
Q 3713 2572 3713 1747 
Q 3713 922 3314 415 
Q 2916 -91 2278 -91 
Q 1894 -91 1617 61 
Q 1341 213 1159 525 
z
M 3116 1747 
Q 3116 2381 2855 2742 
Q 2594 3103 2138 3103 
Q 1681 3103 1420 2742 
Q 1159 2381 1159 1747 
Q 1159 1113 1420 752 
Q 1681 391 2138 391 
Q 2594 391 2855 752 
Q 3116 1113 3116 1747 
z
" transform="scale(0.015625)"/>
      </defs>
      <use xlink:href="#DejaVuSans-74"/>
      <use xlink:href="#DejaVuSans-72" x="39.208984"/>
      <use xlink:href="#DejaVuSans-75" x="80.322266"/>
      <use xlink:href="#DejaVuSans-65" x="143.701172"/>
      <use xlink:href="#DejaVuSans-20" x="205.224609"/>
      <use xlink:href="#DejaVuSans-68" x="237.011719"/>
      <use xlink:href="#DejaVuSans-6f" x="300.390625"/>
      <use xlink:href="#DejaVuSans-6d" x="361.572266"/>
      <use xlink:href="#DejaVuSans-65" x="458.984375"/>
      <use xlink:href="#DejaVuSans-6f" x="520.507812"/>
      <use xlink:href="#DejaVuSans-74" x="581.689453"/>
      <use xlink:href="#DejaVuSans-79" x="620.898438"/>
      <use xlink:href="#DejaVuSans-70" x="680.078125"/>
      <use xlink:href="#DejaVuSans-69" x="743.554688"/>
      <use xlink:href="#DejaVuSans-63" x="771.337891"/>
     </g>
    </g>
    <g id="patch_10">
     <path d="M 295.087188 87.426688 
L 315.087188 87.426688 
L 315.087188 80.426688 
L 295.087188 80.426688 
z
" style="fill: #ff0000"/>
    </g>
    <g id="text_16">
     <!-- false -->
     <g transform="translate(323.087188 87.426688) scale(0.1 -0.1)">
      <defs>
       <path id="DejaVuSans-61" d="M 2194 1759 
Q 1497 1759 1228 1600 
Q 959 1441 959 1056 
Q 959 750 1161 570 
Q 1363 391 1709 391 
Q 2188 391 2477 730 
Q 2766 1069 2766 1631 
L 2766 1759 
L 2194 1759 
z
M 3341 1997 
L 3341 0 
L 2766 0 
L 2766 531 
Q 2569 213 2275 61 
Q 1981 -91 1556 -91 
Q 1019 -91 701 211 
Q 384 513 384 1019 
Q 384 1609 779 1909 
Q 1175 2209 1959 2209 
L 2766 2209 
L 2766 2266 
Q 2766 2663 2505 2880 
Q 2244 3097 1772 3097 
Q 1472 3097 1187 3025 
Q 903 2953 641 2809 
L 641 3341 
Q 956 3463 1253 3523 
Q 1550 3584 1831 3584 
Q 2591 3584 2966 3190 
Q 3341 2797 3341 1997 
z
" transform="scale(0.015625)"/>
      </defs>
      <use xlink:href="#DejaVuSans-66"/>
      <use xlink:href="#DejaVuSans-61" x="35.205078"/>
      <use xlink:href="#DejaVuSans-6c" x="96.484375"/>
      <use xlink:href="#DejaVuSans-73" x="124.267578"/>
      <use xlink:href="#DejaVuSans-65" x="176.367188"/>
     </g>
    </g>
   </g>
  </g>
 </g>
 <defs>
  <clipPath id="pcbf054e118">
   <rect x="57.6" y="41.472" width="357.12" height="266.112"/>
  </clipPath>
 </defs>
</svg>
