<?xml version="1.0" encoding="utf-8" standalone="no"?>
<!DOCTYPE svg PUBLIC "-//W3C//DTD SVG 1.1//EN"
  "http://www.w3.org/Graphics/SVG/1.1/DTD/svg11.dtd">
<svg xmlns:xlink="http://www.w3.org/1999/xlink" width="460.8pt" height="345.6pt" viewBox="0 0 460.8 345.6" xmlns="http://www.w3.org/2000/svg" version="1.1">
 <metadata>
  <rdf:RDF xmlns:dc="http://purl.org/dc/elements/1.1/" xmlns:cc="http://creativecommons.org/ns#" xmlns:rdf="http://www.w3.org/1999/02/22-rdf-syntax-ns#">
   <cc:Work>
    <dc:type rdf:resource="http://purl.org/dc/dcmitype/StillImage"/>
    <dc:date>2024-10-31T14:55:31.676105</dc:date>
    <dc:format>image/svg+xml</dc:format>
    <dc:creator>
     <cc:Agent>
      <dc:title>Matplotlib v3.9.0, https://matplotlib.org/</dc:title>
     </cc:Agent>
    </dc:creator>
   </cc:Work>
  </rdf:RDF>
 </metadata>
 <defs>
  <style type="text/css">*{stroke-linejoin: round; stroke-linecap: butt}</style>
 </defs>
 <g id="figure_1">
  <g id="patch_1">
   <path d="M 0 345.6 
L 460.8 345.6 
L 460.8 0 
L 0 0 
z
" style="fill: #ffffff"/>
  </g>
  <g id="axes_1">
   <g id="patch_2">
    <path d="M 57.6 307.584 
L 414.72 307.584 
L 414.72 41.472 
L 57.6 41.472 
z
" style="fill: #ffffff"/>
   </g>
   <g id="PolyCollection_1">
    <path d="M 73.832727 118.107429 
L 73.832727 307.584 
L 74.599051 307.584 
L 77.047953 307.584 
L 77.197886 307.584 
L 78.197438 307.584 
L 80.746296 307.584 
L 81.254402 307.584 
L 81.637564 307.584 
L 81.937429 307.584 
L 82.012396 307.584 
L 82.412217 307.584 
L 83.336803 307.584 
L 83.428428 307.584 
L 84.311366 307.584 
L 85.127667 307.584 
L 85.669091 307.584 
L 86.443744 307.584 
L 86.693632 307.584 
L 87.135101 307.584 
L 87.459955 307.584 
L 87.734832 307.584 
L 87.76815 307.584 
L 88.642759 307.584 
L 88.875987 307.584 
L 89.392423 307.584 
L 89.817232 307.584 
L 90.017143 307.584 
L 90.050461 307.584 
L 90.383645 307.584 
L 90.683511 307.584 
L 90.783466 307.584 
L 91.008365 307.584 
L 91.591438 307.584 
L 91.616426 307.584 
L 91.832996 307.584 
L 92.074554 307.584 
L 92.316113 307.584 
L 92.749252 307.584 
L 93.698827 307.584 
L 93.823771 307.584 
L 94.090318 307.584 
L 94.45682 307.584 
L 95.023233 307.584 
L 95.08987 307.584 
L 95.523009 307.584 
L 99.762777 307.584 
L 100.629055 307.584 
L 100.695692 307.584 
L 101.345401 307.584 
L 102.328294 307.584 
L 103.052969 307.584 
L 103.144595 307.584 
L 103.23622 307.584 
L 103.66936 307.584 
L 104.102499 307.584 
L 105.301961 307.584 
L 105.726771 307.584 
L 105.76009 307.584 
L 106.409798 307.584 
L 106.876256 307.584 
L 106.967882 307.584 
L 107.192781 307.584 
L 107.342714 307.584 
L 107.367703 307.584 
L 108.66712 307.584 
L 108.700439 307.584 
L 108.933668 307.584 
L 110.424666 307.584 
L 112.007291 307.584 
L 112.215531 307.584 
L 112.607022 307.584 
L 113.681541 307.584 
L 114.089691 307.584 
L 114.489512 307.584 
L 114.864344 307.584 
L 116.080466 307.584 
L 117.621442 307.584 
L 118.937519 307.584 
L 118.962508 307.584 
L 119.054133 307.584 
L 119.254044 307.584 
L 119.403977 307.584 
L 119.728831 307.584 
L 120.128652 307.584 
L 122.769136 307.584 
L 123.777017 307.584 
L 124.085213 307.584 
L 124.693274 307.584 
L 124.843206 307.584 
L 124.934832 307.584 
L 125.101424 307.584 
L 125.651178 307.584 
L 126.309216 307.584 
L 128.141729 307.584 
L 129.016337 307.584 
L 129.741012 307.584 
L 129.77433 307.584 
L 130.174151 307.584 
L 130.315755 307.584 
L 130.632279 307.584 
L 130.923815 307.584 
L 131.306977 307.584 
L 131.540206 307.584 
L 132.181585 307.584 
L 133.422696 307.584 
L 134.455567 307.584 
L 134.930354 307.584 
L 135.513426 307.584 
L 135.596722 307.584 
L 137.862373 307.584 
L 138.312172 307.584 
L 138.687004 307.584 
L 139.928115 307.584 
L 140.202991 307.584 
L 140.819382 307.584 
L 141.344147 307.584 
L 141.594035 307.584 
L 143.093363 307.584 
L 143.901335 307.584 
L 144.750954 307.584 
L 144.842579 307.584 
L 145.309037 307.584 
L 145.359015 307.584 
L 145.783824 307.584 
L 146.600125 307.584 
L 146.71674 307.584 
L 148.840788 307.584 
L 148.849118 307.584 
L 150.123547 307.584 
L 151.223054 307.584 
L 151.52292 307.584 
L 151.697841 307.584 
L 152.339221 307.584 
L 156.104201 307.584 
L 156.362418 307.584 
L 156.987138 307.584 
L 157.028786 307.584 
L 157.803439 307.584 
L 157.811769 307.584 
L 158.961254 307.584 
L 159.569315 307.584 
L 160.50223 307.584 
L 160.518889 307.584 
L 160.793766 307.584 
L 160.860403 307.584 
L 161.568419 307.584 
L 161.576749 307.584 
L 161.610067 307.584 
L 161.809978 307.584 
L 163.384272 307.584 
L 163.550864 307.584 
L 164.875271 307.584 
L 165.73322 307.584 
L 165.774868 307.584 
L 167.907246 307.584 
L 168.173793 307.584 
L 168.382033 307.584 
L 169.198334 307.584 
L 173.921218 307.584 
L 175.253954 307.584 
L 176.578361 307.584 
L 176.644998 307.584 
L 179.743609 307.584 
L 180.701514 307.584 
L 180.793139 307.584 
L 181.925965 307.584 
L 183.092109 307.584 
L 184.274913 307.584 
L 186.257358 307.584 
L 188.756238 307.584 
L 189.664165 307.584 
L 189.689154 307.584 
L 190.680376 307.584 
L 192.346296 307.584 
L 195.161702 307.584 
L 195.994662 307.584 
L 196.577734 307.584 
L 202.375137 307.584 
L 202.550058 307.584 
L 204.874017 307.584 
L 211.695961 307.584 
L 211.729279 307.584 
L 214.528025 307.584 
L 215.219382 307.584 
L 217.210157 307.584 
L 218.351312 307.584 
L 221.95803 307.584 
L 228.021979 307.584 
L 242.107335 307.584 
L 243.131876 307.584 
L 246.905186 307.584 
L 247.23837 307.584 
L 255.701245 307.584 
L 280.073659 307.584 
L 281.29811 307.584 
L 281.30644 307.584 
L 281.964478 307.584 
L 290.402365 307.584 
L 296.782839 307.584 
L 297.17433 307.584 
L 298.948536 307.584 
L 299.731518 307.584 
L 304.754268 307.584 
L 322.579615 307.584 
L 326.269628 307.584 
L 327.685661 307.584 
L 331.86712 307.584 
L 344.961254 307.584 
L 370.041684 307.584 
L 398.487273 307.584 
L 398.487273 307.584 
L 398.487273 307.584 
L 370.041684 307.584 
L 344.961254 307.584 
L 331.86712 307.584 
L 327.685661 307.584 
L 326.269628 307.584 
L 322.579615 306.377143 
L 304.754268 305.170286 
L 299.731518 305.170286 
L 298.948536 305.170286 
L 297.17433 305.170286 
L 296.782839 305.170286 
L 290.402365 305.170286 
L 281.964478 305.170286 
L 281.30644 303.963429 
L 281.29811 303.963429 
L 280.073659 303.963429 
L 255.701245 302.756571 
L 247.23837 301.549714 
L 246.905186 300.342857 
L 243.131876 300.342857 
L 242.107335 299.136 
L 228.021979 297.929143 
L 221.95803 296.722286 
L 218.351312 296.722286 
L 217.210157 296.722286 
L 215.219382 296.722286 
L 214.528025 295.515429 
L 211.729279 294.308571 
L 211.695961 294.308571 
L 204.874017 293.101714 
L 202.550058 291.894857 
L 202.375137 290.688 
L 196.577734 290.688 
L 195.994662 289.481143 
L 195.161702 289.481143 
L 192.346296 289.481143 
L 190.680376 288.274286 
L 189.689154 287.067429 
L 189.664165 285.860571 
L 188.756238 285.860571 
L 186.257358 285.860571 
L 184.274913 284.653714 
L 183.092109 284.653714 
L 181.925965 284.653714 
L 180.793139 283.446857 
L 180.701514 282.24 
L 179.743609 281.033143 
L 176.644998 281.033143 
L 176.578361 279.826286 
L 175.253954 278.619429 
L 173.921218 277.412571 
L 169.198334 276.205714 
L 168.382033 274.998857 
L 168.173793 273.792 
L 167.907246 272.585143 
L 165.774868 272.585143 
L 165.73322 271.378286 
L 164.875271 270.171429 
L 163.550864 270.171429 
L 163.384272 270.171429 
L 161.809978 270.171429 
L 161.610067 268.964571 
L 161.576749 267.757714 
L 161.568419 266.550857 
L 160.860403 265.344 
L 160.793766 265.344 
L 160.518889 264.137143 
L 160.50223 262.930286 
L 159.569315 261.723429 
L 158.961254 260.516571 
L 157.811769 259.309714 
L 157.803439 258.102857 
L 157.028786 256.896 
L 156.987138 255.689143 
L 156.362418 255.689143 
L 156.104201 254.482286 
L 152.339221 253.275429 
L 151.697841 253.275429 
L 151.52292 253.275429 
L 151.223054 253.275429 
L 150.123547 252.068571 
L 148.849118 250.861714 
L 148.840788 249.654857 
L 146.71674 248.448 
L 146.600125 247.241143 
L 145.783824 246.034286 
L 145.359015 244.827429 
L 145.309037 243.620571 
L 144.842579 242.413714 
L 144.750954 241.206857 
L 143.901335 240 
L 143.093363 240 
L 141.594035 238.793143 
L 141.344147 237.586286 
L 140.819382 236.379429 
L 140.202991 235.172571 
L 139.928115 233.965714 
L 138.687004 232.758857 
L 138.312172 231.552 
L 137.862373 230.345143 
L 135.596722 229.138286 
L 135.513426 229.138286 
L 134.930354 227.931429 
L 134.455567 226.724571 
L 133.422696 225.517714 
L 132.181585 225.517714 
L 131.540206 224.310857 
L 131.306977 223.104 
L 130.923815 221.897143 
L 130.632279 220.690286 
L 130.315755 219.483429 
L 130.174151 219.483429 
L 129.77433 218.276571 
L 129.741012 217.069714 
L 129.016337 215.862857 
L 128.141729 214.656 
L 126.309216 213.449143 
L 125.651178 212.242286 
L 125.101424 211.035429 
L 124.934832 209.828571 
L 124.843206 208.621714 
L 124.693274 207.414857 
L 124.085213 206.208 
L 123.777017 205.001143 
L 122.769136 203.794286 
L 120.128652 203.794286 
L 119.728831 203.794286 
L 119.403977 202.587429 
L 119.254044 201.380571 
L 119.054133 200.173714 
L 118.962508 198.966857 
L 118.937519 198.966857 
L 117.621442 197.76 
L 116.080466 196.553143 
L 114.864344 195.346286 
L 114.489512 195.346286 
L 114.089691 194.139429 
L 113.681541 192.932571 
L 112.607022 191.725714 
L 112.215531 190.518857 
L 112.007291 189.312 
L 110.424666 189.312 
L 108.933668 188.105143 
L 108.700439 188.105143 
L 108.66712 186.898286 
L 107.367703 185.691429 
L 107.342714 185.691429 
L 107.192781 184.484571 
L 106.967882 184.484571 
L 106.876256 183.277714 
L 106.409798 183.277714 
L 105.76009 182.070857 
L 105.726771 180.864 
L 105.301961 179.657143 
L 104.102499 178.450286 
L 103.66936 177.243429 
L 103.23622 176.036571 
L 103.144595 174.829714 
L 103.052969 173.622857 
L 102.328294 172.416 
L 101.345401 171.209143 
L 100.695692 170.002286 
L 100.629055 168.795429 
L 99.762777 167.588571 
L 95.523009 166.381714 
L 95.08987 165.174857 
L 95.023233 163.968 
L 94.45682 162.761143 
L 94.090318 161.554286 
L 93.823771 160.347429 
L 93.698827 159.140571 
L 92.749252 157.933714 
L 92.316113 156.726857 
L 92.074554 155.52 
L 91.832996 154.313143 
L 91.616426 153.106286 
L 91.591438 151.899429 
L 91.008365 150.692571 
L 90.783466 150.692571 
L 90.683511 149.485714 
L 90.383645 149.485714 
L 90.050461 148.278857 
L 90.017143 147.072 
L 89.817232 145.865143 
L 89.392423 144.658286 
L 88.875987 143.451429 
L 88.642759 142.244571 
L 87.76815 141.037714 
L 87.734832 139.830857 
L 87.459955 138.624 
L 87.135101 137.417143 
L 86.693632 136.210286 
L 86.443744 136.210286 
L 85.669091 135.003429 
L 85.127667 133.796571 
L 84.311366 132.589714 
L 83.428428 131.382857 
L 83.336803 130.176 
L 82.412217 128.969143 
L 82.012396 127.762286 
L 81.937429 126.555429 
L 81.637564 125.348571 
L 81.254402 124.141714 
L 80.746296 122.934857 
L 78.197438 121.728 
L 77.197886 121.728 
L 77.047953 120.521143 
L 74.599051 119.314286 
L 73.832727 118.107429 
z
" clip-path="url(#pa9678edf7e)" style="fill: #008000"/>
   </g>
   <g id="PolyCollection_2">
    <path d="M 73.832727 57.764571 
L 73.832727 118.107429 
L 74.599051 119.314286 
L 77.047953 120.521143 
L 77.197886 121.728 
L 78.197438 121.728 
L 80.746296 122.934857 
L 81.254402 124.141714 
L 81.637564 125.348571 
L 81.937429 126.555429 
L 82.012396 127.762286 
L 82.412217 128.969143 
L 83.336803 130.176 
L 83.428428 131.382857 
L 84.311366 132.589714 
L 85.127667 133.796571 
L 85.669091 135.003429 
L 86.443744 136.210286 
L 86.693632 136.210286 
L 87.135101 137.417143 
L 87.459955 138.624 
L 87.734832 139.830857 
L 87.76815 141.037714 
L 88.642759 142.244571 
L 88.875987 143.451429 
L 89.392423 144.658286 
L 89.817232 145.865143 
L 90.017143 147.072 
L 90.050461 148.278857 
L 90.383645 149.485714 
L 90.683511 149.485714 
L 90.783466 150.692571 
L 91.008365 150.692571 
L 91.591438 151.899429 
L 91.616426 153.106286 
L 91.832996 154.313143 
L 92.074554 155.52 
L 92.316113 156.726857 
L 92.749252 157.933714 
L 93.698827 159.140571 
L 93.823771 160.347429 
L 94.090318 161.554286 
L 94.45682 162.761143 
L 95.023233 163.968 
L 95.08987 165.174857 
L 95.523009 166.381714 
L 99.762777 167.588571 
L 100.629055 168.795429 
L 100.695692 170.002286 
L 101.345401 171.209143 
L 102.328294 172.416 
L 103.052969 173.622857 
L 103.144595 174.829714 
L 103.23622 176.036571 
L 103.66936 177.243429 
L 104.102499 178.450286 
L 105.301961 179.657143 
L 105.726771 180.864 
L 105.76009 182.070857 
L 106.409798 183.277714 
L 106.876256 183.277714 
L 106.967882 184.484571 
L 107.192781 184.484571 
L 107.342714 185.691429 
L 107.367703 185.691429 
L 108.66712 186.898286 
L 108.700439 188.105143 
L 108.933668 188.105143 
L 110.424666 189.312 
L 112.007291 189.312 
L 112.215531 190.518857 
L 112.607022 191.725714 
L 113.681541 192.932571 
L 114.089691 194.139429 
L 114.489512 195.346286 
L 114.864344 195.346286 
L 116.080466 196.553143 
L 117.621442 197.76 
L 118.937519 198.966857 
L 118.962508 198.966857 
L 119.054133 200.173714 
L 119.254044 201.380571 
L 119.403977 202.587429 
L 119.728831 203.794286 
L 120.128652 203.794286 
L 122.769136 203.794286 
L 123.777017 205.001143 
L 124.085213 206.208 
L 124.693274 207.414857 
L 124.843206 208.621714 
L 124.934832 209.828571 
L 125.101424 211.035429 
L 125.651178 212.242286 
L 126.309216 213.449143 
L 128.141729 214.656 
L 129.016337 215.862857 
L 129.741012 217.069714 
L 129.77433 218.276571 
L 130.174151 219.483429 
L 130.315755 219.483429 
L 130.632279 220.690286 
L 130.923815 221.897143 
L 131.306977 223.104 
L 131.540206 224.310857 
L 132.181585 225.517714 
L 133.422696 225.517714 
L 134.455567 226.724571 
L 134.930354 227.931429 
L 135.513426 229.138286 
L 135.596722 229.138286 
L 137.862373 230.345143 
L 138.312172 231.552 
L 138.687004 232.758857 
L 139.928115 233.965714 
L 140.202991 235.172571 
L 140.819382 236.379429 
L 141.344147 237.586286 
L 141.594035 238.793143 
L 143.093363 240 
L 143.901335 240 
L 144.750954 241.206857 
L 144.842579 242.413714 
L 145.309037 243.620571 
L 145.359015 244.827429 
L 145.783824 246.034286 
L 146.600125 247.241143 
L 146.71674 248.448 
L 148.840788 249.654857 
L 148.849118 250.861714 
L 150.123547 252.068571 
L 151.223054 253.275429 
L 151.52292 253.275429 
L 151.697841 253.275429 
L 152.339221 253.275429 
L 156.104201 254.482286 
L 156.362418 255.689143 
L 156.987138 255.689143 
L 157.028786 256.896 
L 157.803439 258.102857 
L 157.811769 259.309714 
L 158.961254 260.516571 
L 159.569315 261.723429 
L 160.50223 262.930286 
L 160.518889 264.137143 
L 160.793766 265.344 
L 160.860403 265.344 
L 161.568419 266.550857 
L 161.576749 267.757714 
L 161.610067 268.964571 
L 161.809978 270.171429 
L 163.384272 270.171429 
L 163.550864 270.171429 
L 164.875271 270.171429 
L 165.73322 271.378286 
L 165.774868 272.585143 
L 167.907246 272.585143 
L 168.173793 273.792 
L 168.382033 274.998857 
L 169.198334 276.205714 
L 173.921218 277.412571 
L 175.253954 278.619429 
L 176.578361 279.826286 
L 176.644998 281.033143 
L 179.743609 281.033143 
L 180.701514 282.24 
L 180.793139 283.446857 
L 181.925965 284.653714 
L 183.092109 284.653714 
L 184.274913 284.653714 
L 186.257358 285.860571 
L 188.756238 285.860571 
L 189.664165 285.860571 
L 189.689154 287.067429 
L 190.680376 288.274286 
L 192.346296 289.481143 
L 195.161702 289.481143 
L 195.994662 289.481143 
L 196.577734 290.688 
L 202.375137 290.688 
L 202.550058 291.894857 
L 204.874017 293.101714 
L 211.695961 294.308571 
L 211.729279 294.308571 
L 214.528025 295.515429 
L 215.219382 296.722286 
L 217.210157 296.722286 
L 218.351312 296.722286 
L 221.95803 296.722286 
L 228.021979 297.929143 
L 242.107335 299.136 
L 243.131876 300.342857 
L 246.905186 300.342857 
L 247.23837 301.549714 
L 255.701245 302.756571 
L 280.073659 303.963429 
L 281.29811 303.963429 
L 281.30644 303.963429 
L 281.964478 305.170286 
L 290.402365 305.170286 
L 296.782839 305.170286 
L 297.17433 305.170286 
L 298.948536 305.170286 
L 299.731518 305.170286 
L 304.754268 305.170286 
L 322.579615 306.377143 
L 326.269628 307.584 
L 327.685661 307.584 
L 331.86712 307.584 
L 344.961254 307.584 
L 370.041684 307.584 
L 398.487273 307.584 
L 398.487273 306.377143 
L 398.487273 306.377143 
L 370.041684 305.170286 
L 344.961254 303.963429 
L 331.86712 302.756571 
L 327.685661 301.549714 
L 326.269628 300.342857 
L 322.579615 299.136 
L 304.754268 297.929143 
L 299.731518 296.722286 
L 298.948536 295.515429 
L 297.17433 294.308571 
L 296.782839 293.101714 
L 290.402365 291.894857 
L 281.964478 290.688 
L 281.30644 289.481143 
L 281.29811 288.274286 
L 280.073659 287.067429 
L 255.701245 285.860571 
L 247.23837 284.653714 
L 246.905186 283.446857 
L 243.131876 282.24 
L 242.107335 281.033143 
L 228.021979 279.826286 
L 221.95803 278.619429 
L 218.351312 277.412571 
L 217.210157 276.205714 
L 215.219382 274.998857 
L 214.528025 273.792 
L 211.729279 272.585143 
L 211.695961 271.378286 
L 204.874017 270.171429 
L 202.550058 268.964571 
L 202.375137 267.757714 
L 196.577734 266.550857 
L 195.994662 265.344 
L 195.161702 264.137143 
L 192.346296 262.930286 
L 190.680376 261.723429 
L 189.689154 260.516571 
L 189.664165 259.309714 
L 188.756238 258.102857 
L 186.257358 256.896 
L 184.274913 255.689143 
L 183.092109 254.482286 
L 181.925965 253.275429 
L 180.793139 252.068571 
L 180.701514 250.861714 
L 179.743609 249.654857 
L 176.644998 248.448 
L 176.578361 247.241143 
L 175.253954 246.034286 
L 173.921218 244.827429 
L 169.198334 243.620571 
L 168.382033 242.413714 
L 168.173793 241.206857 
L 167.907246 240 
L 165.774868 238.793143 
L 165.73322 237.586286 
L 164.875271 236.379429 
L 163.550864 235.172571 
L 163.384272 233.965714 
L 161.809978 232.758857 
L 161.610067 231.552 
L 161.576749 230.345143 
L 161.568419 229.138286 
L 160.860403 227.931429 
L 160.793766 226.724571 
L 160.518889 225.517714 
L 160.50223 224.310857 
L 159.569315 223.104 
L 158.961254 221.897143 
L 157.811769 220.690286 
L 157.803439 219.483429 
L 157.028786 218.276571 
L 156.987138 217.069714 
L 156.362418 215.862857 
L 156.104201 214.656 
L 152.339221 213.449143 
L 151.697841 212.242286 
L 151.52292 211.035429 
L 151.223054 209.828571 
L 150.123547 208.621714 
L 148.849118 207.414857 
L 148.840788 206.208 
L 146.71674 205.001143 
L 146.600125 203.794286 
L 145.783824 202.587429 
L 145.359015 201.380571 
L 145.309037 200.173714 
L 144.842579 198.966857 
L 144.750954 197.76 
L 143.901335 196.553143 
L 143.093363 195.346286 
L 141.594035 194.139429 
L 141.344147 192.932571 
L 140.819382 191.725714 
L 140.202991 190.518857 
L 139.928115 189.312 
L 138.687004 188.105143 
L 138.312172 186.898286 
L 137.862373 185.691429 
L 135.596722 184.484571 
L 135.513426 183.277714 
L 134.930354 182.070857 
L 134.455567 180.864 
L 133.422696 179.657143 
L 132.181585 179.657143 
L 131.540206 178.450286 
L 131.306977 177.243429 
L 130.923815 176.036571 
L 130.632279 174.829714 
L 130.315755 173.622857 
L 130.174151 172.416 
L 129.77433 171.209143 
L 129.741012 170.002286 
L 129.016337 168.795429 
L 128.141729 167.588571 
L 126.309216 166.381714 
L 125.651178 165.174857 
L 125.101424 163.968 
L 124.934832 162.761143 
L 124.843206 161.554286 
L 124.693274 160.347429 
L 124.085213 159.140571 
L 123.777017 157.933714 
L 122.769136 156.726857 
L 120.128652 155.52 
L 119.728831 154.313143 
L 119.403977 153.106286 
L 119.254044 151.899429 
L 119.054133 150.692571 
L 118.962508 149.485714 
L 118.937519 148.278857 
L 117.621442 147.072 
L 116.080466 145.865143 
L 114.864344 144.658286 
L 114.489512 143.451429 
L 114.089691 142.244571 
L 113.681541 141.037714 
L 112.607022 139.830857 
L 112.215531 138.624 
L 112.007291 137.417143 
L 110.424666 136.210286 
L 108.933668 135.003429 
L 108.700439 133.796571 
L 108.66712 132.589714 
L 107.367703 131.382857 
L 107.342714 130.176 
L 107.192781 128.969143 
L 106.967882 127.762286 
L 106.876256 126.555429 
L 106.409798 125.348571 
L 105.76009 124.141714 
L 105.726771 122.934857 
L 105.301961 121.728 
L 104.102499 120.521143 
L 103.66936 119.314286 
L 103.23622 118.107429 
L 103.144595 116.900571 
L 103.052969 115.693714 
L 102.328294 114.486857 
L 101.345401 113.28 
L 100.695692 112.073143 
L 100.629055 110.866286 
L 99.762777 109.659429 
L 95.523009 108.452571 
L 95.08987 107.245714 
L 95.023233 106.038857 
L 94.45682 104.832 
L 94.090318 103.625143 
L 93.823771 102.418286 
L 93.698827 101.211429 
L 92.749252 100.004571 
L 92.316113 98.797714 
L 92.074554 97.590857 
L 91.832996 96.384 
L 91.616426 95.177143 
L 91.591438 93.970286 
L 91.008365 92.763429 
L 90.783466 91.556571 
L 90.683511 90.349714 
L 90.383645 89.142857 
L 90.050461 87.936 
L 90.017143 86.729143 
L 89.817232 85.522286 
L 89.392423 84.315429 
L 88.875987 83.108571 
L 88.642759 81.901714 
L 87.76815 80.694857 
L 87.734832 79.488 
L 87.459955 78.281143 
L 87.135101 77.074286 
L 86.693632 75.867429 
L 86.443744 75.867429 
L 85.669091 74.660571 
L 85.127667 73.453714 
L 84.311366 72.246857 
L 83.428428 71.04 
L 83.336803 69.833143 
L 82.412217 68.626286 
L 82.012396 67.419429 
L 81.937429 66.212571 
L 81.637564 65.005714 
L 81.254402 63.798857 
L 80.746296 62.592 
L 78.197438 61.385143 
L 77.197886 61.385143 
L 77.047953 60.178286 
L 74.599051 58.971429 
L 73.832727 57.764571 
z
" clip-path="url(#pa9678edf7e)" style="fill: #7cfc00"/>
   </g>
   <g id="PolyCollection_3">
    <path d="M 73.832727 54.144 
L 73.832727 57.764571 
L 74.599051 58.971429 
L 77.047953 60.178286 
L 77.197886 61.385143 
L 78.197438 61.385143 
L 80.746296 62.592 
L 81.254402 63.798857 
L 81.637564 65.005714 
L 81.937429 66.212571 
L 82.012396 67.419429 
L 82.412217 68.626286 
L 83.336803 69.833143 
L 83.428428 71.04 
L 84.311366 72.246857 
L 85.127667 73.453714 
L 85.669091 74.660571 
L 86.443744 75.867429 
L 86.693632 75.867429 
L 87.135101 77.074286 
L 87.459955 78.281143 
L 87.734832 79.488 
L 87.76815 80.694857 
L 88.642759 81.901714 
L 88.875987 83.108571 
L 89.392423 84.315429 
L 89.817232 85.522286 
L 90.017143 86.729143 
L 90.050461 87.936 
L 90.383645 89.142857 
L 90.683511 90.349714 
L 90.783466 91.556571 
L 91.008365 92.763429 
L 91.591438 93.970286 
L 91.616426 95.177143 
L 91.832996 96.384 
L 92.074554 97.590857 
L 92.316113 98.797714 
L 92.749252 100.004571 
L 93.698827 101.211429 
L 93.823771 102.418286 
L 94.090318 103.625143 
L 94.45682 104.832 
L 95.023233 106.038857 
L 95.08987 107.245714 
L 95.523009 108.452571 
L 99.762777 109.659429 
L 100.629055 110.866286 
L 100.695692 112.073143 
L 101.345401 113.28 
L 102.328294 114.486857 
L 103.052969 115.693714 
L 103.144595 116.900571 
L 103.23622 118.107429 
L 103.66936 119.314286 
L 104.102499 120.521143 
L 105.301961 121.728 
L 105.726771 122.934857 
L 105.76009 124.141714 
L 106.409798 125.348571 
L 106.876256 126.555429 
L 106.967882 127.762286 
L 107.192781 128.969143 
L 107.342714 130.176 
L 107.367703 131.382857 
L 108.66712 132.589714 
L 108.700439 133.796571 
L 108.933668 135.003429 
L 110.424666 136.210286 
L 112.007291 137.417143 
L 112.215531 138.624 
L 112.607022 139.830857 
L 113.681541 141.037714 
L 114.089691 142.244571 
L 114.489512 143.451429 
L 114.864344 144.658286 
L 116.080466 145.865143 
L 117.621442 147.072 
L 118.937519 148.278857 
L 118.962508 149.485714 
L 119.054133 150.692571 
L 119.254044 151.899429 
L 119.403977 153.106286 
L 119.728831 154.313143 
L 120.128652 155.52 
L 122.769136 156.726857 
L 123.777017 157.933714 
L 124.085213 159.140571 
L 124.693274 160.347429 
L 124.843206 161.554286 
L 124.934832 162.761143 
L 125.101424 163.968 
L 125.651178 165.174857 
L 126.309216 166.381714 
L 128.141729 167.588571 
L 129.016337 168.795429 
L 129.741012 170.002286 
L 129.77433 171.209143 
L 130.174151 172.416 
L 130.315755 173.622857 
L 130.632279 174.829714 
L 130.923815 176.036571 
L 131.306977 177.243429 
L 131.540206 178.450286 
L 132.181585 179.657143 
L 133.422696 179.657143 
L 134.455567 180.864 
L 134.930354 182.070857 
L 135.513426 183.277714 
L 135.596722 184.484571 
L 137.862373 185.691429 
L 138.312172 186.898286 
L 138.687004 188.105143 
L 139.928115 189.312 
L 140.202991 190.518857 
L 140.819382 191.725714 
L 141.344147 192.932571 
L 141.594035 194.139429 
L 143.093363 195.346286 
L 143.901335 196.553143 
L 144.750954 197.76 
L 144.842579 198.966857 
L 145.309037 200.173714 
L 145.359015 201.380571 
L 145.783824 202.587429 
L 146.600125 203.794286 
L 146.71674 205.001143 
L 148.840788 206.208 
L 148.849118 207.414857 
L 150.123547 208.621714 
L 151.223054 209.828571 
L 151.52292 211.035429 
L 151.697841 212.242286 
L 152.339221 213.449143 
L 156.104201 214.656 
L 156.362418 215.862857 
L 156.987138 217.069714 
L 157.028786 218.276571 
L 157.803439 219.483429 
L 157.811769 220.690286 
L 158.961254 221.897143 
L 159.569315 223.104 
L 160.50223 224.310857 
L 160.518889 225.517714 
L 160.793766 226.724571 
L 160.860403 227.931429 
L 161.568419 229.138286 
L 161.576749 230.345143 
L 161.610067 231.552 
L 161.809978 232.758857 
L 163.384272 233.965714 
L 163.550864 235.172571 
L 164.875271 236.379429 
L 165.73322 237.586286 
L 165.774868 238.793143 
L 167.907246 240 
L 168.173793 241.206857 
L 168.382033 242.413714 
L 169.198334 243.620571 
L 173.921218 244.827429 
L 175.253954 246.034286 
L 176.578361 247.241143 
L 176.644998 248.448 
L 179.743609 249.654857 
L 180.701514 250.861714 
L 180.793139 252.068571 
L 181.925965 253.275429 
L 183.092109 254.482286 
L 184.274913 255.689143 
L 186.257358 256.896 
L 188.756238 258.102857 
L 189.664165 259.309714 
L 189.689154 260.516571 
L 190.680376 261.723429 
L 192.346296 262.930286 
L 195.161702 264.137143 
L 195.994662 265.344 
L 196.577734 266.550857 
L 202.375137 267.757714 
L 202.550058 268.964571 
L 204.874017 270.171429 
L 211.695961 271.378286 
L 211.729279 272.585143 
L 214.528025 273.792 
L 215.219382 274.998857 
L 217.210157 276.205714 
L 218.351312 277.412571 
L 221.95803 278.619429 
L 228.021979 279.826286 
L 242.107335 281.033143 
L 243.131876 282.24 
L 246.905186 283.446857 
L 247.23837 284.653714 
L 255.701245 285.860571 
L 280.073659 287.067429 
L 281.29811 288.274286 
L 281.30644 289.481143 
L 281.964478 290.688 
L 290.402365 291.894857 
L 296.782839 293.101714 
L 297.17433 294.308571 
L 298.948536 295.515429 
L 299.731518 296.722286 
L 304.754268 297.929143 
L 322.579615 299.136 
L 326.269628 300.342857 
L 327.685661 301.549714 
L 331.86712 302.756571 
L 344.961254 303.963429 
L 370.041684 305.170286 
L 398.487273 306.377143 
L 398.487273 306.377143 
L 398.487273 306.377143 
L 370.041684 305.170286 
L 344.961254 303.963429 
L 331.86712 302.756571 
L 327.685661 301.549714 
L 326.269628 300.342857 
L 322.579615 299.136 
L 304.754268 297.929143 
L 299.731518 296.722286 
L 298.948536 295.515429 
L 297.17433 294.308571 
L 296.782839 293.101714 
L 290.402365 291.894857 
L 281.964478 290.688 
L 281.30644 289.481143 
L 281.29811 288.274286 
L 280.073659 287.067429 
L 255.701245 285.860571 
L 247.23837 284.653714 
L 246.905186 283.446857 
L 243.131876 282.24 
L 242.107335 281.033143 
L 228.021979 279.826286 
L 221.95803 278.619429 
L 218.351312 277.412571 
L 217.210157 276.205714 
L 215.219382 274.998857 
L 214.528025 273.792 
L 211.729279 272.585143 
L 211.695961 271.378286 
L 204.874017 270.171429 
L 202.550058 268.964571 
L 202.375137 267.757714 
L 196.577734 266.550857 
L 195.994662 265.344 
L 195.161702 264.137143 
L 192.346296 262.930286 
L 190.680376 261.723429 
L 189.689154 260.516571 
L 189.664165 259.309714 
L 188.756238 258.102857 
L 186.257358 256.896 
L 184.274913 255.689143 
L 183.092109 254.482286 
L 181.925965 253.275429 
L 180.793139 252.068571 
L 180.701514 250.861714 
L 179.743609 249.654857 
L 176.644998 248.448 
L 176.578361 247.241143 
L 175.253954 246.034286 
L 173.921218 244.827429 
L 169.198334 243.620571 
L 168.382033 242.413714 
L 168.173793 241.206857 
L 167.907246 240 
L 165.774868 238.793143 
L 165.73322 237.586286 
L 164.875271 236.379429 
L 163.550864 235.172571 
L 163.384272 233.965714 
L 161.809978 232.758857 
L 161.610067 231.552 
L 161.576749 230.345143 
L 161.568419 229.138286 
L 160.860403 227.931429 
L 160.793766 226.724571 
L 160.518889 225.517714 
L 160.50223 224.310857 
L 159.569315 223.104 
L 158.961254 221.897143 
L 157.811769 220.690286 
L 157.803439 219.483429 
L 157.028786 218.276571 
L 156.987138 217.069714 
L 156.362418 215.862857 
L 156.104201 214.656 
L 152.339221 213.449143 
L 151.697841 212.242286 
L 151.52292 211.035429 
L 151.223054 209.828571 
L 150.123547 208.621714 
L 148.849118 207.414857 
L 148.840788 206.208 
L 146.71674 205.001143 
L 146.600125 203.794286 
L 145.783824 202.587429 
L 145.359015 201.380571 
L 145.309037 200.173714 
L 144.842579 198.966857 
L 144.750954 197.76 
L 143.901335 196.553143 
L 143.093363 195.346286 
L 141.594035 194.139429 
L 141.344147 192.932571 
L 140.819382 191.725714 
L 140.202991 190.518857 
L 139.928115 189.312 
L 138.687004 188.105143 
L 138.312172 186.898286 
L 137.862373 185.691429 
L 135.596722 184.484571 
L 135.513426 183.277714 
L 134.930354 182.070857 
L 134.455567 180.864 
L 133.422696 179.657143 
L 132.181585 178.450286 
L 131.540206 177.243429 
L 131.306977 176.036571 
L 130.923815 174.829714 
L 130.632279 173.622857 
L 130.315755 172.416 
L 130.174151 171.209143 
L 129.77433 170.002286 
L 129.741012 168.795429 
L 129.016337 167.588571 
L 128.141729 166.381714 
L 126.309216 165.174857 
L 125.651178 163.968 
L 125.101424 162.761143 
L 124.934832 161.554286 
L 124.843206 160.347429 
L 124.693274 159.140571 
L 124.085213 157.933714 
L 123.777017 156.726857 
L 122.769136 155.52 
L 120.128652 154.313143 
L 119.728831 153.106286 
L 119.403977 151.899429 
L 119.254044 150.692571 
L 119.054133 149.485714 
L 118.962508 148.278857 
L 118.937519 147.072 
L 117.621442 145.865143 
L 116.080466 144.658286 
L 114.864344 143.451429 
L 114.489512 142.244571 
L 114.089691 141.037714 
L 113.681541 139.830857 
L 112.607022 138.624 
L 112.215531 137.417143 
L 112.007291 136.210286 
L 110.424666 135.003429 
L 108.933668 133.796571 
L 108.700439 132.589714 
L 108.66712 131.382857 
L 107.367703 130.176 
L 107.342714 128.969143 
L 107.192781 127.762286 
L 106.967882 126.555429 
L 106.876256 125.348571 
L 106.409798 124.141714 
L 105.76009 122.934857 
L 105.726771 121.728 
L 105.301961 120.521143 
L 104.102499 119.314286 
L 103.66936 118.107429 
L 103.23622 116.900571 
L 103.144595 115.693714 
L 103.052969 114.486857 
L 102.328294 113.28 
L 101.345401 112.073143 
L 100.695692 110.866286 
L 100.629055 109.659429 
L 99.762777 108.452571 
L 95.523009 107.245714 
L 95.08987 106.038857 
L 95.023233 104.832 
L 94.45682 103.625143 
L 94.090318 102.418286 
L 93.823771 101.211429 
L 93.698827 100.004571 
L 92.749252 98.797714 
L 92.316113 97.590857 
L 92.074554 96.384 
L 91.832996 95.177143 
L 91.616426 93.970286 
L 91.591438 92.763429 
L 91.008365 91.556571 
L 90.783466 90.349714 
L 90.683511 89.142857 
L 90.383645 87.936 
L 90.050461 86.729143 
L 90.017143 85.522286 
L 89.817232 84.315429 
L 89.392423 83.108571 
L 88.875987 81.901714 
L 88.642759 80.694857 
L 87.76815 79.488 
L 87.734832 78.281143 
L 87.459955 77.074286 
L 87.135101 75.867429 
L 86.693632 74.660571 
L 86.443744 73.453714 
L 85.669091 72.246857 
L 85.127667 71.04 
L 84.311366 69.833143 
L 83.428428 68.626286 
L 83.336803 67.419429 
L 82.412217 66.212571 
L 82.012396 65.005714 
L 81.937429 63.798857 
L 81.637564 62.592 
L 81.254402 61.385143 
L 80.746296 60.178286 
L 78.197438 58.971429 
L 77.197886 57.764571 
L 77.047953 56.557714 
L 74.599051 55.350857 
L 73.832727 54.144 
z
" clip-path="url(#pa9678edf7e)" style="fill: #ff0000"/>
   </g>
   <g id="matplotlib.axis_1">
    <g id="xtick_1">
     <g id="line2d_1">
      <defs>
       <path id="m6609e4c13f" d="M 0 0 
L 0 3.5 
" style="stroke: #000000; stroke-width: 0.8"/>
      </defs>
      <g>
       <use xlink:href="#m6609e4c13f" x="97.672047" y="307.584" style="stroke: #000000; stroke-width: 0.8"/>
      </g>
     </g>
     <g id="text_1">
      <!-- 100 -->
      <g transform="translate(88.128297 322.182437) scale(0.1 -0.1)">
       <defs>
        <path id="DejaVuSans-31" d="M 794 531 
L 1825 531 
L 1825 4091 
L 703 3866 
L 703 4441 
L 1819 4666 
L 2450 4666 
L 2450 531 
L 3481 531 
L 3481 0 
L 794 0 
L 794 531 
z
" transform="scale(0.015625)"/>
        <path id="DejaVuSans-30" d="M 2034 4250 
Q 1547 4250 1301 3770 
Q 1056 3291 1056 2328 
Q 1056 1369 1301 889 
Q 1547 409 2034 409 
Q 2525 409 2770 889 
Q 3016 1369 3016 2328 
Q 3016 3291 2770 3770 
Q 2525 4250 2034 4250 
z
M 2034 4750 
Q 2819 4750 3233 4129 
Q 3647 3509 3647 2328 
Q 3647 1150 3233 529 
Q 2819 -91 2034 -91 
Q 1250 -91 836 529 
Q 422 1150 422 2328 
Q 422 3509 836 4129 
Q 1250 4750 2034 4750 
z
" transform="scale(0.015625)"/>
       </defs>
       <use xlink:href="#DejaVuSans-31"/>
       <use xlink:href="#DejaVuSans-30" x="63.623047"/>
       <use xlink:href="#DejaVuSans-30" x="127.246094"/>
      </g>
     </g>
    </g>
    <g id="xtick_2">
     <g id="line2d_2">
      <g>
       <use xlink:href="#m6609e4c13f" x="139.320054" y="307.584" style="stroke: #000000; stroke-width: 0.8"/>
      </g>
     </g>
     <g id="text_2">
      <!-- 150 -->
      <g transform="translate(129.776304 322.182437) scale(0.1 -0.1)">
       <defs>
        <path id="DejaVuSans-35" d="M 691 4666 
L 3169 4666 
L 3169 4134 
L 1269 4134 
L 1269 2991 
Q 1406 3038 1543 3061 
Q 1681 3084 1819 3084 
Q 2600 3084 3056 2656 
Q 3513 2228 3513 1497 
Q 3513 744 3044 326 
Q 2575 -91 1722 -91 
Q 1428 -91 1123 -41 
Q 819 9 494 109 
L 494 744 
Q 775 591 1075 516 
Q 1375 441 1709 441 
Q 2250 441 2565 725 
Q 2881 1009 2881 1497 
Q 2881 1984 2565 2268 
Q 2250 2553 1709 2553 
Q 1456 2553 1204 2497 
Q 953 2441 691 2322 
L 691 4666 
z
" transform="scale(0.015625)"/>
       </defs>
       <use xlink:href="#DejaVuSans-31"/>
       <use xlink:href="#DejaVuSans-35" x="63.623047"/>
       <use xlink:href="#DejaVuSans-30" x="127.246094"/>
      </g>
     </g>
    </g>
    <g id="xtick_3">
     <g id="line2d_3">
      <g>
       <use xlink:href="#m6609e4c13f" x="180.968061" y="307.584" style="stroke: #000000; stroke-width: 0.8"/>
      </g>
     </g>
     <g id="text_3">
      <!-- 200 -->
      <g transform="translate(171.424311 322.182437) scale(0.1 -0.1)">
       <defs>
        <path id="DejaVuSans-32" d="M 1228 531 
L 3431 531 
L 3431 0 
L 469 0 
L 469 531 
Q 828 903 1448 1529 
Q 2069 2156 2228 2338 
Q 2531 2678 2651 2914 
Q 2772 3150 2772 3378 
Q 2772 3750 2511 3984 
Q 2250 4219 1831 4219 
Q 1534 4219 1204 4116 
Q 875 4013 500 3803 
L 500 4441 
Q 881 4594 1212 4672 
Q 1544 4750 1819 4750 
Q 2544 4750 2975 4387 
Q 3406 4025 3406 3419 
Q 3406 3131 3298 2873 
Q 3191 2616 2906 2266 
Q 2828 2175 2409 1742 
Q 1991 1309 1228 531 
z
" transform="scale(0.015625)"/>
       </defs>
       <use xlink:href="#DejaVuSans-32"/>
       <use xlink:href="#DejaVuSans-30" x="63.623047"/>
       <use xlink:href="#DejaVuSans-30" x="127.246094"/>
      </g>
     </g>
    </g>
    <g id="xtick_4">
     <g id="line2d_4">
      <g>
       <use xlink:href="#m6609e4c13f" x="222.616068" y="307.584" style="stroke: #000000; stroke-width: 0.8"/>
      </g>
     </g>
     <g id="text_4">
      <!-- 250 -->
      <g transform="translate(213.072318 322.182437) scale(0.1 -0.1)">
       <use xlink:href="#DejaVuSans-32"/>
       <use xlink:href="#DejaVuSans-35" x="63.623047"/>
       <use xlink:href="#DejaVuSans-30" x="127.246094"/>
      </g>
     </g>
    </g>
    <g id="xtick_5">
     <g id="line2d_5">
      <g>
       <use xlink:href="#m6609e4c13f" x="264.264075" y="307.584" style="stroke: #000000; stroke-width: 0.8"/>
      </g>
     </g>
     <g id="text_5">
      <!-- 300 -->
      <g transform="translate(254.720325 322.182437) scale(0.1 -0.1)">
       <defs>
        <path id="DejaVuSans-33" d="M 2597 2516 
Q 3050 2419 3304 2112 
Q 3559 1806 3559 1356 
Q 3559 666 3084 287 
Q 2609 -91 1734 -91 
Q 1441 -91 1130 -33 
Q 819 25 488 141 
L 488 750 
Q 750 597 1062 519 
Q 1375 441 1716 441 
Q 2309 441 2620 675 
Q 2931 909 2931 1356 
Q 2931 1769 2642 2001 
Q 2353 2234 1838 2234 
L 1294 2234 
L 1294 2753 
L 1863 2753 
Q 2328 2753 2575 2939 
Q 2822 3125 2822 3475 
Q 2822 3834 2567 4026 
Q 2313 4219 1838 4219 
Q 1578 4219 1281 4162 
Q 984 4106 628 3988 
L 628 4550 
Q 988 4650 1302 4700 
Q 1616 4750 1894 4750 
Q 2613 4750 3031 4423 
Q 3450 4097 3450 3541 
Q 3450 3153 3228 2886 
Q 3006 2619 2597 2516 
z
" transform="scale(0.015625)"/>
       </defs>
       <use xlink:href="#DejaVuSans-33"/>
       <use xlink:href="#DejaVuSans-30" x="63.623047"/>
       <use xlink:href="#DejaVuSans-30" x="127.246094"/>
      </g>
     </g>
    </g>
    <g id="xtick_6">
     <g id="line2d_6">
      <g>
       <use xlink:href="#m6609e4c13f" x="305.912082" y="307.584" style="stroke: #000000; stroke-width: 0.8"/>
      </g>
     </g>
     <g id="text_6">
      <!-- 350 -->
      <g transform="translate(296.368332 322.182437) scale(0.1 -0.1)">
       <use xlink:href="#DejaVuSans-33"/>
       <use xlink:href="#DejaVuSans-35" x="63.623047"/>
       <use xlink:href="#DejaVuSans-30" x="127.246094"/>
      </g>
     </g>
    </g>
    <g id="xtick_7">
     <g id="line2d_7">
      <g>
       <use xlink:href="#m6609e4c13f" x="347.56009" y="307.584" style="stroke: #000000; stroke-width: 0.8"/>
      </g>
     </g>
     <g id="text_7">
      <!-- 400 -->
      <g transform="translate(338.01634 322.182437) scale(0.1 -0.1)">
       <defs>
        <path id="DejaVuSans-34" d="M 2419 4116 
L 825 1625 
L 2419 1625 
L 2419 4116 
z
M 2253 4666 
L 3047 4666 
L 3047 1625 
L 3713 1625 
L 3713 1100 
L 3047 1100 
L 3047 0 
L 2419 0 
L 2419 1100 
L 313 1100 
L 313 1709 
L 2253 4666 
z
" transform="scale(0.015625)"/>
       </defs>
       <use xlink:href="#DejaVuSans-34"/>
       <use xlink:href="#DejaVuSans-30" x="63.623047"/>
       <use xlink:href="#DejaVuSans-30" x="127.246094"/>
      </g>
     </g>
    </g>
    <g id="xtick_8">
     <g id="line2d_8">
      <g>
       <use xlink:href="#m6609e4c13f" x="389.208097" y="307.584" style="stroke: #000000; stroke-width: 0.8"/>
      </g>
     </g>
     <g id="text_8">
      <!-- 450 -->
      <g transform="translate(379.664347 322.182437) scale(0.1 -0.1)">
       <use xlink:href="#DejaVuSans-34"/>
       <use xlink:href="#DejaVuSans-35" x="63.623047"/>
       <use xlink:href="#DejaVuSans-30" x="127.246094"/>
      </g>
     </g>
    </g>
    <g id="text_9">
     <!-- Score -->
     <g transform="translate(222.157656 335.860562) scale(0.1 -0.1)">
      <defs>
       <path id="DejaVuSans-53" d="M 3425 4513 
L 3425 3897 
Q 3066 4069 2747 4153 
Q 2428 4238 2131 4238 
Q 1616 4238 1336 4038 
Q 1056 3838 1056 3469 
Q 1056 3159 1242 3001 
Q 1428 2844 1947 2747 
L 2328 2669 
Q 3034 2534 3370 2195 
Q 3706 1856 3706 1288 
Q 3706 609 3251 259 
Q 2797 -91 1919 -91 
Q 1588 -91 1214 -16 
Q 841 59 441 206 
L 441 856 
Q 825 641 1194 531 
Q 1563 422 1919 422 
Q 2459 422 2753 634 
Q 3047 847 3047 1241 
Q 3047 1584 2836 1778 
Q 2625 1972 2144 2069 
L 1759 2144 
Q 1053 2284 737 2584 
Q 422 2884 422 3419 
Q 422 4038 858 4394 
Q 1294 4750 2059 4750 
Q 2388 4750 2728 4690 
Q 3069 4631 3425 4513 
z
" transform="scale(0.015625)"/>
       <path id="DejaVuSans-63" d="M 3122 3366 
L 3122 2828 
Q 2878 2963 2633 3030 
Q 2388 3097 2138 3097 
Q 1578 3097 1268 2742 
Q 959 2388 959 1747 
Q 959 1106 1268 751 
Q 1578 397 2138 397 
Q 2388 397 2633 464 
Q 2878 531 3122 666 
L 3122 134 
Q 2881 22 2623 -34 
Q 2366 -91 2075 -91 
Q 1284 -91 818 406 
Q 353 903 353 1747 
Q 353 2603 823 3093 
Q 1294 3584 2113 3584 
Q 2378 3584 2631 3529 
Q 2884 3475 3122 3366 
z
" transform="scale(0.015625)"/>
       <path id="DejaVuSans-6f" d="M 1959 3097 
Q 1497 3097 1228 2736 
Q 959 2375 959 1747 
Q 959 1119 1226 758 
Q 1494 397 1959 397 
Q 2419 397 2687 759 
Q 2956 1122 2956 1747 
Q 2956 2369 2687 2733 
Q 2419 3097 1959 3097 
z
M 1959 3584 
Q 2709 3584 3137 3096 
Q 3566 2609 3566 1747 
Q 3566 888 3137 398 
Q 2709 -91 1959 -91 
Q 1206 -91 779 398 
Q 353 888 353 1747 
Q 353 2609 779 3096 
Q 1206 3584 1959 3584 
z
" transform="scale(0.015625)"/>
       <path id="DejaVuSans-72" d="M 2631 2963 
Q 2534 3019 2420 3045 
Q 2306 3072 2169 3072 
Q 1681 3072 1420 2755 
Q 1159 2438 1159 1844 
L 1159 0 
L 581 0 
L 581 3500 
L 1159 3500 
L 1159 2956 
Q 1341 3275 1631 3429 
Q 1922 3584 2338 3584 
Q 2397 3584 2469 3576 
Q 2541 3569 2628 3553 
L 2631 2963 
z
" transform="scale(0.015625)"/>
       <path id="DejaVuSans-65" d="M 3597 1894 
L 3597 1613 
L 953 1613 
Q 991 1019 1311 708 
Q 1631 397 2203 397 
Q 2534 397 2845 478 
Q 3156 559 3463 722 
L 3463 178 
Q 3153 47 2828 -22 
Q 2503 -91 2169 -91 
Q 1331 -91 842 396 
Q 353 884 353 1716 
Q 353 2575 817 3079 
Q 1281 3584 2069 3584 
Q 2775 3584 3186 3129 
Q 3597 2675 3597 1894 
z
M 3022 2063 
Q 3016 2534 2758 2815 
Q 2500 3097 2075 3097 
Q 1594 3097 1305 2825 
Q 1016 2553 972 2059 
L 3022 2063 
z
" transform="scale(0.015625)"/>
      </defs>
      <use xlink:href="#DejaVuSans-53"/>
      <use xlink:href="#DejaVuSans-63" x="63.476562"/>
      <use xlink:href="#DejaVuSans-6f" x="118.457031"/>
      <use xlink:href="#DejaVuSans-72" x="179.638672"/>
      <use xlink:href="#DejaVuSans-65" x="218.501953"/>
     </g>
    </g>
   </g>
   <g id="matplotlib.axis_2">
    <g id="ytick_1">
     <g id="line2d_9">
      <defs>
       <path id="m8036641f60" d="M 0 0 
L -3.5 0 
" style="stroke: #000000; stroke-width: 0.8"/>
      </defs>
      <g>
       <use xlink:href="#m8036641f60" x="57.6" y="307.584" style="stroke: #000000; stroke-width: 0.8"/>
      </g>
     </g>
     <g id="text_10">
      <!-- 0 -->
      <g transform="translate(44.2375 311.383219) scale(0.1 -0.1)">
       <use xlink:href="#DejaVuSans-30"/>
      </g>
     </g>
    </g>
    <g id="ytick_2">
     <g id="line2d_10">
      <g>
       <use xlink:href="#m8036641f60" x="57.6" y="277.412571" style="stroke: #000000; stroke-width: 0.8"/>
      </g>
     </g>
     <g id="text_11">
      <!-- 25 -->
      <g transform="translate(37.875 281.21179) scale(0.1 -0.1)">
       <use xlink:href="#DejaVuSans-32"/>
       <use xlink:href="#DejaVuSans-35" x="63.623047"/>
      </g>
     </g>
    </g>
    <g id="ytick_3">
     <g id="line2d_11">
      <g>
       <use xlink:href="#m8036641f60" x="57.6" y="247.241143" style="stroke: #000000; stroke-width: 0.8"/>
      </g>
     </g>
     <g id="text_12">
      <!-- 50 -->
      <g transform="translate(37.875 251.040362) scale(0.1 -0.1)">
       <use xlink:href="#DejaVuSans-35"/>
       <use xlink:href="#DejaVuSans-30" x="63.623047"/>
      </g>
     </g>
    </g>
    <g id="ytick_4">
     <g id="line2d_12">
      <g>
       <use xlink:href="#m8036641f60" x="57.6" y="217.069714" style="stroke: #000000; stroke-width: 0.8"/>
      </g>
     </g>
     <g id="text_13">
      <!-- 75 -->
      <g transform="translate(37.875 220.868933) scale(0.1 -0.1)">
       <defs>
        <path id="DejaVuSans-37" d="M 525 4666 
L 3525 4666 
L 3525 4397 
L 1831 0 
L 1172 0 
L 2766 4134 
L 525 4134 
L 525 4666 
z
" transform="scale(0.015625)"/>
       </defs>
       <use xlink:href="#DejaVuSans-37"/>
       <use xlink:href="#DejaVuSans-35" x="63.623047"/>
      </g>
     </g>
    </g>
    <g id="ytick_5">
     <g id="line2d_13">
      <g>
       <use xlink:href="#m8036641f60" x="57.6" y="186.898286" style="stroke: #000000; stroke-width: 0.8"/>
      </g>
     </g>
     <g id="text_14">
      <!-- 100 -->
      <g transform="translate(31.5125 190.697504) scale(0.1 -0.1)">
       <use xlink:href="#DejaVuSans-31"/>
       <use xlink:href="#DejaVuSans-30" x="63.623047"/>
       <use xlink:href="#DejaVuSans-30" x="127.246094"/>
      </g>
     </g>
    </g>
    <g id="ytick_6">
     <g id="line2d_14">
      <g>
       <use xlink:href="#m8036641f60" x="57.6" y="156.726857" style="stroke: #000000; stroke-width: 0.8"/>
      </g>
     </g>
     <g id="text_15">
      <!-- 125 -->
      <g transform="translate(31.5125 160.526076) scale(0.1 -0.1)">
       <use xlink:href="#DejaVuSans-31"/>
       <use xlink:href="#DejaVuSans-32" x="63.623047"/>
       <use xlink:href="#DejaVuSans-35" x="127.246094"/>
      </g>
     </g>
    </g>
    <g id="ytick_7">
     <g id="line2d_15">
      <g>
       <use xlink:href="#m8036641f60" x="57.6" y="126.555429" style="stroke: #000000; stroke-width: 0.8"/>
      </g>
     </g>
     <g id="text_16">
      <!-- 150 -->
      <g transform="translate(31.5125 130.354647) scale(0.1 -0.1)">
       <use xlink:href="#DejaVuSans-31"/>
       <use xlink:href="#DejaVuSans-35" x="63.623047"/>
       <use xlink:href="#DejaVuSans-30" x="127.246094"/>
      </g>
     </g>
    </g>
    <g id="ytick_8">
     <g id="line2d_16">
      <g>
       <use xlink:href="#m8036641f60" x="57.6" y="96.384" style="stroke: #000000; stroke-width: 0.8"/>
      </g>
     </g>
     <g id="text_17">
      <!-- 175 -->
      <g transform="translate(31.5125 100.183219) scale(0.1 -0.1)">
       <use xlink:href="#DejaVuSans-31"/>
       <use xlink:href="#DejaVuSans-37" x="63.623047"/>
       <use xlink:href="#DejaVuSans-35" x="127.246094"/>
      </g>
     </g>
    </g>
    <g id="ytick_9">
     <g id="line2d_17">
      <g>
       <use xlink:href="#m8036641f60" x="57.6" y="66.212571" style="stroke: #000000; stroke-width: 0.8"/>
      </g>
     </g>
     <g id="text_18">
      <!-- 200 -->
      <g transform="translate(31.5125 70.01179) scale(0.1 -0.1)">
       <use xlink:href="#DejaVuSans-32"/>
       <use xlink:href="#DejaVuSans-30" x="63.623047"/>
       <use xlink:href="#DejaVuSans-30" x="127.246094"/>
      </g>
     </g>
    </g>
    <g id="text_19">
     <!-- Number of crosslinks -->
     <g transform="translate(25.432812 227.019406) rotate(-90) scale(0.1 -0.1)">
      <defs>
       <path id="DejaVuSans-4e" d="M 628 4666 
L 1478 4666 
L 3547 763 
L 3547 4666 
L 4159 4666 
L 4159 0 
L 3309 0 
L 1241 3903 
L 1241 0 
L 628 0 
L 628 4666 
z
" transform="scale(0.015625)"/>
       <path id="DejaVuSans-75" d="M 544 1381 
L 544 3500 
L 1119 3500 
L 1119 1403 
Q 1119 906 1312 657 
Q 1506 409 1894 409 
Q 2359 409 2629 706 
Q 2900 1003 2900 1516 
L 2900 3500 
L 3475 3500 
L 3475 0 
L 2900 0 
L 2900 538 
Q 2691 219 2414 64 
Q 2138 -91 1772 -91 
Q 1169 -91 856 284 
Q 544 659 544 1381 
z
M 1991 3584 
L 1991 3584 
z
" transform="scale(0.015625)"/>
       <path id="DejaVuSans-6d" d="M 3328 2828 
Q 3544 3216 3844 3400 
Q 4144 3584 4550 3584 
Q 5097 3584 5394 3201 
Q 5691 2819 5691 2113 
L 5691 0 
L 5113 0 
L 5113 2094 
Q 5113 2597 4934 2840 
Q 4756 3084 4391 3084 
Q 3944 3084 3684 2787 
Q 3425 2491 3425 1978 
L 3425 0 
L 2847 0 
L 2847 2094 
Q 2847 2600 2669 2842 
Q 2491 3084 2119 3084 
Q 1678 3084 1418 2786 
Q 1159 2488 1159 1978 
L 1159 0 
L 581 0 
L 581 3500 
L 1159 3500 
L 1159 2956 
Q 1356 3278 1631 3431 
Q 1906 3584 2284 3584 
Q 2666 3584 2933 3390 
Q 3200 3197 3328 2828 
z
" transform="scale(0.015625)"/>
       <path id="DejaVuSans-62" d="M 3116 1747 
Q 3116 2381 2855 2742 
Q 2594 3103 2138 3103 
Q 1681 3103 1420 2742 
Q 1159 2381 1159 1747 
Q 1159 1113 1420 752 
Q 1681 391 2138 391 
Q 2594 391 2855 752 
Q 3116 1113 3116 1747 
z
M 1159 2969 
Q 1341 3281 1617 3432 
Q 1894 3584 2278 3584 
Q 2916 3584 3314 3078 
Q 3713 2572 3713 1747 
Q 3713 922 3314 415 
Q 2916 -91 2278 -91 
Q 1894 -91 1617 61 
Q 1341 213 1159 525 
L 1159 0 
L 581 0 
L 581 4863 
L 1159 4863 
L 1159 2969 
z
" transform="scale(0.015625)"/>
       <path id="DejaVuSans-20" transform="scale(0.015625)"/>
       <path id="DejaVuSans-66" d="M 2375 4863 
L 2375 4384 
L 1825 4384 
Q 1516 4384 1395 4259 
Q 1275 4134 1275 3809 
L 1275 3500 
L 2222 3500 
L 2222 3053 
L 1275 3053 
L 1275 0 
L 697 0 
L 697 3053 
L 147 3053 
L 147 3500 
L 697 3500 
L 697 3744 
Q 697 4328 969 4595 
Q 1241 4863 1831 4863 
L 2375 4863 
z
" transform="scale(0.015625)"/>
       <path id="DejaVuSans-73" d="M 2834 3397 
L 2834 2853 
Q 2591 2978 2328 3040 
Q 2066 3103 1784 3103 
Q 1356 3103 1142 2972 
Q 928 2841 928 2578 
Q 928 2378 1081 2264 
Q 1234 2150 1697 2047 
L 1894 2003 
Q 2506 1872 2764 1633 
Q 3022 1394 3022 966 
Q 3022 478 2636 193 
Q 2250 -91 1575 -91 
Q 1294 -91 989 -36 
Q 684 19 347 128 
L 347 722 
Q 666 556 975 473 
Q 1284 391 1588 391 
Q 1994 391 2212 530 
Q 2431 669 2431 922 
Q 2431 1156 2273 1281 
Q 2116 1406 1581 1522 
L 1381 1569 
Q 847 1681 609 1914 
Q 372 2147 372 2553 
Q 372 3047 722 3315 
Q 1072 3584 1716 3584 
Q 2034 3584 2315 3537 
Q 2597 3491 2834 3397 
z
" transform="scale(0.015625)"/>
       <path id="DejaVuSans-6c" d="M 603 4863 
L 1178 4863 
L 1178 0 
L 603 0 
L 603 4863 
z
" transform="scale(0.015625)"/>
       <path id="DejaVuSans-69" d="M 603 3500 
L 1178 3500 
L 1178 0 
L 603 0 
L 603 3500 
z
M 603 4863 
L 1178 4863 
L 1178 4134 
L 603 4134 
L 603 4863 
z
" transform="scale(0.015625)"/>
       <path id="DejaVuSans-6e" d="M 3513 2113 
L 3513 0 
L 2938 0 
L 2938 2094 
Q 2938 2591 2744 2837 
Q 2550 3084 2163 3084 
Q 1697 3084 1428 2787 
Q 1159 2491 1159 1978 
L 1159 0 
L 581 0 
L 581 3500 
L 1159 3500 
L 1159 2956 
Q 1366 3272 1645 3428 
Q 1925 3584 2291 3584 
Q 2894 3584 3203 3211 
Q 3513 2838 3513 2113 
z
" transform="scale(0.015625)"/>
       <path id="DejaVuSans-6b" d="M 581 4863 
L 1159 4863 
L 1159 1991 
L 2875 3500 
L 3609 3500 
L 1753 1863 
L 3688 0 
L 2938 0 
L 1159 1709 
L 1159 0 
L 581 0 
L 581 4863 
z
" transform="scale(0.015625)"/>
      </defs>
      <use xlink:href="#DejaVuSans-4e"/>
      <use xlink:href="#DejaVuSans-75" x="74.804688"/>
      <use xlink:href="#DejaVuSans-6d" x="138.183594"/>
      <use xlink:href="#DejaVuSans-62" x="235.595703"/>
      <use xlink:href="#DejaVuSans-65" x="299.072266"/>
      <use xlink:href="#DejaVuSans-72" x="360.595703"/>
      <use xlink:href="#DejaVuSans-20" x="401.708984"/>
      <use xlink:href="#DejaVuSans-6f" x="433.496094"/>
      <use xlink:href="#DejaVuSans-66" x="494.677734"/>
      <use xlink:href="#DejaVuSans-20" x="529.882812"/>
      <use xlink:href="#DejaVuSans-63" x="561.669922"/>
      <use xlink:href="#DejaVuSans-72" x="616.650391"/>
      <use xlink:href="#DejaVuSans-6f" x="655.513672"/>
      <use xlink:href="#DejaVuSans-73" x="716.695312"/>
      <use xlink:href="#DejaVuSans-73" x="768.794922"/>
      <use xlink:href="#DejaVuSans-6c" x="820.894531"/>
      <use xlink:href="#DejaVuSans-69" x="848.677734"/>
      <use xlink:href="#DejaVuSans-6e" x="876.460938"/>
      <use xlink:href="#DejaVuSans-6b" x="939.839844"/>
      <use xlink:href="#DejaVuSans-73" x="997.75"/>
     </g>
    </g>
   </g>
   <g id="patch_3">
    <path d="M 57.6 307.584 
L 57.6 41.472 
" style="fill: none; stroke: #000000; stroke-width: 0.8; stroke-linejoin: miter; stroke-linecap: square"/>
   </g>
   <g id="patch_4">
    <path d="M 414.72 307.584 
L 414.72 41.472 
" style="fill: none; stroke: #000000; stroke-width: 0.8; stroke-linejoin: miter; stroke-linecap: square"/>
   </g>
   <g id="patch_5">
    <path d="M 57.6 307.584 
L 414.72 307.584 
" style="fill: none; stroke: #000000; stroke-width: 0.8; stroke-linejoin: miter; stroke-linecap: square"/>
   </g>
   <g id="patch_6">
    <path d="M 57.6 41.472 
L 414.72 41.472 
" style="fill: none; stroke: #000000; stroke-width: 0.8; stroke-linejoin: miter; stroke-linecap: square"/>
   </g>
   <g id="legend_1">
    <g id="patch_7">
     <path d="M 293.087188 93.506375 
L 407.72 93.506375 
Q 409.72 93.506375 409.72 91.506375 
L 409.72 48.472 
Q 409.72 46.472 407.72 46.472 
L 293.087188 46.472 
Q 291.087188 46.472 291.087188 48.472 
L 291.087188 91.506375 
Q 291.087188 93.506375 293.087188 93.506375 
z
" style="fill: #ffffff; opacity: 0.8; stroke: #cccccc; stroke-linejoin: miter"/>
    </g>
    <g id="patch_8">
     <path d="M 295.087188 58.070438 
L 315.087188 58.070438 
L 315.087188 51.070438 
L 295.087188 51.070438 
z
" style="fill: #008000"/>
    </g>
    <g id="text_20">
     <!-- true -->
     <g transform="translate(323.087188 58.070438) scale(0.1 -0.1)">
      <defs>
       <path id="DejaVuSans-74" d="M 1172 4494 
L 1172 3500 
L 2356 3500 
L 2356 3053 
L 1172 3053 
L 1172 1153 
Q 1172 725 1289 603 
Q 1406 481 1766 481 
L 2356 481 
L 2356 0 
L 1766 0 
Q 1100 0 847 248 
Q 594 497 594 1153 
L 594 3053 
L 172 3053 
L 172 3500 
L 594 3500 
L 594 4494 
L 1172 4494 
z
" transform="scale(0.015625)"/>
      </defs>
      <use xlink:href="#DejaVuSans-74"/>
      <use xlink:href="#DejaVuSans-72" x="39.208984"/>
      <use xlink:href="#DejaVuSans-75" x="80.322266"/>
      <use xlink:href="#DejaVuSans-65" x="143.701172"/>
     </g>
    </g>
    <g id="patch_9">
     <path d="M 295.087188 72.748563 
L 315.087188 72.748563 
L 315.087188 65.748563 
L 295.087188 65.748563 
z
" style="fill: #7cfc00"/>
    </g>
    <g id="text_21">
     <!-- true homeotypic -->
     <g transform="translate(323.087188 72.748563) scale(0.1 -0.1)">
      <defs>
       <path id="DejaVuSans-68" d="M 3513 2113 
L 3513 0 
L 2938 0 
L 2938 2094 
Q 2938 2591 2744 2837 
Q 2550 3084 2163 3084 
Q 1697 3084 1428 2787 
Q 1159 2491 1159 1978 
L 1159 0 
L 581 0 
L 581 4863 
L 1159 4863 
L 1159 2956 
Q 1366 3272 1645 3428 
Q 1925 3584 2291 3584 
Q 2894 3584 3203 3211 
Q 3513 2838 3513 2113 
z
" transform="scale(0.015625)"/>
       <path id="DejaVuSans-79" d="M 2059 -325 
Q 1816 -950 1584 -1140 
Q 1353 -1331 966 -1331 
L 506 -1331 
L 506 -850 
L 844 -850 
Q 1081 -850 1212 -737 
Q 1344 -625 1503 -206 
L 1606 56 
L 191 3500 
L 800 3500 
L 1894 763 
L 2988 3500 
L 3597 3500 
L 2059 -325 
z
" transform="scale(0.015625)"/>
       <path id="DejaVuSans-70" d="M 1159 525 
L 1159 -1331 
L 581 -1331 
L 581 3500 
L 1159 3500 
L 1159 2969 
Q 1341 3281 1617 3432 
Q 1894 3584 2278 3584 
Q 2916 3584 3314 3078 
Q 3713 2572 3713 1747 
Q 3713 922 3314 415 
Q 2916 -91 2278 -91 
Q 1894 -91 1617 61 
Q 1341 213 1159 525 
z
M 3116 1747 
Q 3116 2381 2855 2742 
Q 2594 3103 2138 3103 
Q 1681 3103 1420 2742 
Q 1159 2381 1159 1747 
Q 1159 1113 1420 752 
Q 1681 391 2138 391 
Q 2594 391 2855 752 
Q 3116 1113 3116 1747 
z
" transform="scale(0.015625)"/>
      </defs>
      <use xlink:href="#DejaVuSans-74"/>
      <use xlink:href="#DejaVuSans-72" x="39.208984"/>
      <use xlink:href="#DejaVuSans-75" x="80.322266"/>
      <use xlink:href="#DejaVuSans-65" x="143.701172"/>
      <use xlink:href="#DejaVuSans-20" x="205.224609"/>
      <use xlink:href="#DejaVuSans-68" x="237.011719"/>
      <use xlink:href="#DejaVuSans-6f" x="300.390625"/>
      <use xlink:href="#DejaVuSans-6d" x="361.572266"/>
      <use xlink:href="#DejaVuSans-65" x="458.984375"/>
      <use xlink:href="#DejaVuSans-6f" x="520.507812"/>
      <use xlink:href="#DejaVuSans-74" x="581.689453"/>
      <use xlink:href="#DejaVuSans-79" x="620.898438"/>
      <use xlink:href="#DejaVuSans-70" x="680.078125"/>
      <use xlink:href="#DejaVuSans-69" x="743.554688"/>
      <use xlink:href="#DejaVuSans-63" x="771.337891"/>
     </g>
    </g>
    <g id="patch_10">
     <path d="M 295.087188 87.426688 
L 315.087188 87.426688 
L 315.087188 80.426688 
L 295.087188 80.426688 
z
" style="fill: #ff0000"/>
    </g>
    <g id="text_22">
     <!-- false -->
     <g transform="translate(323.087188 87.426688) scale(0.1 -0.1)">
      <defs>
       <path id="DejaVuSans-61" d="M 2194 1759 
Q 1497 1759 1228 1600 
Q 959 1441 959 1056 
Q 959 750 1161 570 
Q 1363 391 1709 391 
Q 2188 391 2477 730 
Q 2766 1069 2766 1631 
L 2766 1759 
L 2194 1759 
z
M 3341 1997 
L 3341 0 
L 2766 0 
L 2766 531 
Q 2569 213 2275 61 
Q 1981 -91 1556 -91 
Q 1019 -91 701 211 
Q 384 513 384 1019 
Q 384 1609 779 1909 
Q 1175 2209 1959 2209 
L 2766 2209 
L 2766 2266 
Q 2766 2663 2505 2880 
Q 2244 3097 1772 3097 
Q 1472 3097 1187 3025 
Q 903 2953 641 2809 
L 641 3341 
Q 956 3463 1253 3523 
Q 1550 3584 1831 3584 
Q 2591 3584 2966 3190 
Q 3341 2797 3341 1997 
z
" transform="scale(0.015625)"/>
      </defs>
      <use xlink:href="#DejaVuSans-66"/>
      <use xlink:href="#DejaVuSans-61" x="35.205078"/>
      <use xlink:href="#DejaVuSans-6c" x="96.484375"/>
      <use xlink:href="#DejaVuSans-73" x="124.267578"/>
      <use xlink:href="#DejaVuSans-65" x="176.367188"/>
     </g>
    </g>
   </g>
  </g>
 </g>
 <defs>
  <clipPath id="pa9678edf7e">
   <rect x="57.6" y="41.472" width="357.12" height="266.112"/>
  </clipPath>
 </defs>
</svg>
