<?xml version="1.0" encoding="utf-8" standalone="no"?>
<!DOCTYPE svg PUBLIC "-//W3C//DTD SVG 1.1//EN"
  "http://www.w3.org/Graphics/SVG/1.1/DTD/svg11.dtd">
<svg xmlns:xlink="http://www.w3.org/1999/xlink" width="460.8pt" height="345.6pt" viewBox="0 0 460.8 345.6" xmlns="http://www.w3.org/2000/svg" version="1.1">
 <metadata>
  <rdf:RDF xmlns:dc="http://purl.org/dc/elements/1.1/" xmlns:cc="http://creativecommons.org/ns#" xmlns:rdf="http://www.w3.org/1999/02/22-rdf-syntax-ns#">
   <cc:Work>
    <dc:type rdf:resource="http://purl.org/dc/dcmitype/StillImage"/>
    <dc:date>2024-06-25T12:53:09.424586</dc:date>
    <dc:format>image/svg+xml</dc:format>
    <dc:creator>
     <cc:Agent>
      <dc:title>Matplotlib v3.9.0, https://matplotlib.org/</dc:title>
     </cc:Agent>
    </dc:creator>
   </cc:Work>
  </rdf:RDF>
 </metadata>
 <defs>
  <style type="text/css">*{stroke-linejoin: round; stroke-linecap: butt}</style>
 </defs>
 <g id="figure_1">
  <g id="patch_1">
   <path d="M 0 345.6 
L 460.8 345.6 
L 460.8 0 
L 0 0 
z
" style="fill: #ffffff"/>
  </g>
  <g id="axes_1">
   <g id="patch_2">
    <path d="M 57.6 307.584 
L 414.72 307.584 
L 414.72 41.472 
L 57.6 41.472 
z
" style="fill: #ffffff"/>
   </g>
   <g id="PolyCollection_1">
    <path d="M 73.832727 104.607717 
L 73.832727 307.584 
L 73.847192 307.584 
L 80.119636 307.584 
L 80.691009 307.584 
L 85.419299 307.584 
L 87.394694 307.584 
L 94.823444 307.584 
L 95.173319 307.584 
L 95.678695 307.584 
L 99.188298 307.584 
L 99.507435 307.584 
L 99.981168 307.584 
L 100.227075 307.584 
L 100.829186 307.584 
L 101.248675 307.584 
L 103.695091 307.584 
L 107.632319 307.584 
L 110.748651 307.584 
L 112.016159 307.584 
L 112.183412 307.584 
L 112.339816 307.584 
L 115.091808 307.584 
L 115.834954 307.584 
L 116.540129 307.584 
L 117.038272 307.584 
L 119.892424 307.584 
L 122.467217 307.584 
L 124.335028 307.584 
L 124.904592 307.584 
L 125.23729 307.584 
L 126.437896 307.584 
L 126.76969 307.584 
L 127.077979 307.584 
L 127.450456 307.584 
L 128.411483 307.584 
L 130.119273 307.584 
L 130.134642 307.584 
L 130.515256 307.584 
L 131.404861 307.584 
L 132.779049 307.584 
L 133.980559 307.584 
L 134.306025 307.584 
L 134.723705 307.584 
L 136.535463 307.584 
L 136.574338 307.584 
L 138.401466 307.584 
L 138.981879 307.584 
L 139.098504 307.584 
L 139.781078 307.584 
L 140.307247 307.584 
L 141.188716 307.584 
L 143.902737 307.584 
L 144.264365 307.584 
L 144.270693 307.584 
L 144.467781 307.584 
L 145.127753 307.584 
L 146.077931 307.584 
L 146.442272 307.584 
L 147.113092 307.584 
L 149.831633 307.584 
L 152.109892 307.584 
L 152.299746 307.584 
L 152.86027 307.584 
L 154.496638 307.584 
L 154.7769 307.584 
L 155.201814 307.584 
L 155.807541 307.584 
L 159.188766 307.584 
L 159.658883 307.584 
L 159.893941 307.584 
L 160.056674 307.584 
L 161.295251 307.584 
L 161.430862 307.584 
L 161.485106 307.584 
L 161.738246 307.584 
L 162.506706 307.584 
L 164.812087 307.584 
L 165.417814 307.584 
L 166.782961 307.584 
L 168.527818 307.584 
L 169.666947 307.584 
L 169.892965 307.584 
L 170.769913 307.584 
L 171.673984 307.584 
L 172.559974 307.584 
L 173.879917 307.584 
L 174.404278 307.584 
L 174.838232 307.584 
L 174.919598 307.584 
L 175.028087 307.584 
L 175.570529 307.584 
L 175.941198 307.584 
L 177.098409 307.584 
L 177.423875 307.584 
L 178.671492 307.584 
L 180.226494 307.584 
L 181.465071 307.584 
L 182.586119 307.584 
L 182.703648 307.584 
L 183.779493 307.584 
L 183.806615 307.584 
L 184.041673 307.584 
L 184.25865 307.584 
L 185.65996 307.584 
L 187.160717 307.584 
L 187.893015 307.584 
L 187.947259 307.584 
L 188.9779 307.584 
L 189.212958 307.584 
L 192.440491 307.584 
L 193.489213 307.584 
L 195.23407 307.584 
L 195.595698 307.584 
L 195.658983 307.584 
L 195.87596 307.584 
L 196.165263 307.584 
L 196.734827 307.584 
L 196.978927 307.584 
L 198.190381 307.584 
L 198.669539 307.584 
L 200.396314 307.584 
L 203.506318 307.584 
L 203.958353 307.584 
L 204.80818 307.584 
L 204.853383 307.584 
L 205.07036 307.584 
L 206.33606 307.584 
L 206.408385 307.584 
L 206.742891 307.584 
L 208.912661 307.584 
L 211.462141 307.584 
L 212.510863 307.584 
L 213.604789 307.584 
L 213.785603 307.584 
L 213.939295 307.584 
L 214.309964 307.584 
L 214.807203 307.584 
L 214.906651 307.584 
L 216.235635 307.584 
L 216.877525 307.584 
L 217.266276 307.584 
L 217.745433 307.584 
L 218.658545 307.584 
L 220.367239 307.584 
L 222.546049 307.584 
L 223.341632 307.584 
L 224.426517 307.584 
L 226.831345 307.584 
L 226.985037 307.584 
L 227.690212 307.584 
L 230.528995 307.584 
L 232.364259 307.584 
L 233.738446 307.584 
L 234.561151 307.584 
L 235.591791 307.584 
L 235.609873 307.584 
L 236.107112 307.584 
L 237.526503 307.584 
L 239.217115 307.584 
L 241.793717 307.584 
L 243.059417 307.584 
L 246.955962 307.584 
L 247.380875 307.584 
L 249.460238 307.584 
L 250.951955 307.584 
L 252.000677 307.584 
L 256.982107 307.584 
L 259.459261 307.584 
L 260.101152 307.584 
L 260.770164 307.584 
L 261.041385 307.584 
L 261.99066 307.584 
L 263.617987 307.584 
L 263.889208 307.584 
L 264.757116 307.584 
L 266.682787 307.584 
L 266.700869 307.584 
L 269.187063 307.584 
L 269.367878 307.584 
L 269.738547 307.584 
L 270.253867 307.584 
L 270.597414 307.584 
L 273.526603 307.584 
L 275.741577 307.584 
L 278.996232 307.584 
L 280.207687 307.584 
L 281.40106 307.584 
L 283.552749 307.584 
L 283.941499 307.584 
L 285.044466 307.584 
L 286.780282 307.584 
L 288.751156 307.584 
L 291.128862 307.584 
L 295.296629 307.584 
L 299.753698 307.584 
L 303.858179 307.584 
L 304.599518 307.584 
L 310.11435 307.584 
L 312.835603 307.584 
L 314.707029 307.584 
L 317.039532 307.584 
L 317.229387 307.584 
L 329.280651 307.584 
L 330.980304 307.584 
L 334.045104 307.584 
L 335.681473 307.584 
L 337.68851 307.584 
L 340.780432 307.584 
L 344.044128 307.584 
L 346.159653 307.584 
L 350.815618 307.584 
L 352.216928 307.584 
L 398.487273 307.584 
L 398.487273 306.462584 
L 398.487273 306.462584 
L 352.216928 305.341168 
L 350.815618 304.219752 
L 346.159653 303.098336 
L 344.044128 301.97692 
L 340.780432 300.855504 
L 337.68851 299.734088 
L 335.681473 298.612673 
L 334.045104 298.612673 
L 330.980304 297.491257 
L 329.280651 296.369841 
L 317.229387 296.369841 
L 317.039532 295.248425 
L 314.707029 295.248425 
L 312.835603 294.127009 
L 310.11435 293.005593 
L 304.599518 291.884177 
L 303.858179 290.762761 
L 299.753698 289.641345 
L 295.296629 288.519929 
L 291.128862 287.398513 
L 288.751156 286.277097 
L 286.780282 285.155681 
L 285.044466 284.034265 
L 283.941499 282.91285 
L 283.552749 281.791434 
L 281.40106 281.791434 
L 280.207687 281.791434 
L 278.996232 280.670018 
L 275.741577 279.548602 
L 273.526603 278.427186 
L 270.597414 278.427186 
L 270.253867 277.30577 
L 269.738547 276.184354 
L 269.367878 275.062938 
L 269.187063 273.941522 
L 266.700869 272.820106 
L 266.682787 271.69869 
L 264.757116 270.577274 
L 263.889208 269.455858 
L 263.617987 268.334442 
L 261.99066 267.213027 
L 261.041385 266.091611 
L 260.770164 263.848779 
L 260.101152 262.727363 
L 259.459261 261.605947 
L 256.982107 260.484531 
L 252.000677 259.363115 
L 250.951955 258.241699 
L 249.460238 257.120283 
L 247.380875 255.998867 
L 246.955962 254.877451 
L 243.059417 253.756035 
L 241.793717 252.634619 
L 239.217115 252.634619 
L 237.526503 252.634619 
L 236.107112 251.513204 
L 235.609873 250.391788 
L 235.591791 250.391788 
L 234.561151 249.270372 
L 233.738446 249.270372 
L 232.364259 248.148956 
L 230.528995 247.02754 
L 227.690212 245.906124 
L 226.985037 244.784708 
L 226.831345 243.663292 
L 224.426517 242.541876 
L 223.341632 241.42046 
L 222.546049 240.299044 
L 220.367239 240.299044 
L 218.658545 239.177628 
L 217.745433 238.056212 
L 217.266276 236.934796 
L 216.877525 235.813381 
L 216.235635 234.691965 
L 214.906651 233.570549 
L 214.807203 232.449133 
L 214.309964 231.327717 
L 213.939295 230.206301 
L 213.785603 229.084885 
L 213.604789 227.963469 
L 212.510863 227.963469 
L 211.462141 226.842053 
L 208.912661 224.599221 
L 206.742891 223.477805 
L 206.408385 223.477805 
L 206.33606 222.356389 
L 205.07036 221.234973 
L 204.853383 221.234973 
L 204.80818 220.113558 
L 203.958353 218.992142 
L 203.506318 217.870726 
L 200.396314 216.74931 
L 198.669539 215.627894 
L 198.190381 214.506478 
L 196.978927 213.385062 
L 196.734827 212.263646 
L 196.165263 211.14223 
L 195.87596 211.14223 
L 195.658983 210.020814 
L 195.595698 208.899398 
L 195.23407 207.777982 
L 193.489213 206.656566 
L 192.440491 204.413735 
L 189.212958 203.292319 
L 188.9779 202.170903 
L 187.947259 201.049487 
L 187.893015 199.928071 
L 187.160717 198.806655 
L 185.65996 197.685239 
L 184.25865 196.563823 
L 184.041673 195.442407 
L 183.806615 194.320991 
L 183.779493 193.199575 
L 182.703648 192.078159 
L 182.586119 190.956743 
L 181.465071 189.835327 
L 180.226494 188.713912 
L 178.671492 187.592496 
L 177.423875 187.592496 
L 177.098409 186.47108 
L 175.941198 185.349664 
L 175.570529 184.228248 
L 175.028087 183.106832 
L 174.919598 181.985416 
L 174.838232 180.864 
L 174.404278 179.742584 
L 173.879917 178.621168 
L 172.559974 177.499752 
L 171.673984 175.25692 
L 170.769913 174.135504 
L 169.892965 173.014088 
L 169.666947 173.014088 
L 168.527818 171.892673 
L 166.782961 170.771257 
L 165.417814 169.649841 
L 164.812087 168.528425 
L 162.506706 167.407009 
L 161.738246 167.407009 
L 161.485106 166.285593 
L 161.430862 165.164177 
L 161.295251 164.042761 
L 160.056674 162.921345 
L 159.893941 161.799929 
L 159.658883 160.678513 
L 159.188766 159.557097 
L 155.807541 158.435681 
L 155.201814 158.435681 
L 154.7769 157.314265 
L 154.496638 156.19285 
L 152.86027 155.071434 
L 152.299746 153.950018 
L 152.109892 152.828602 
L 149.831633 151.707186 
L 147.113092 150.58577 
L 146.442272 150.58577 
L 146.077931 149.464354 
L 145.127753 149.464354 
L 144.467781 148.342938 
L 144.270693 147.221522 
L 144.264365 146.100106 
L 143.902737 144.97869 
L 141.188716 143.857274 
L 140.307247 142.735858 
L 139.781078 141.614442 
L 139.098504 139.371611 
L 138.981879 138.250195 
L 138.401466 137.128779 
L 136.574338 137.128779 
L 136.535463 136.007363 
L 134.723705 136.007363 
L 134.306025 134.885947 
L 133.980559 133.764531 
L 132.779049 132.643115 
L 131.404861 131.521699 
L 130.515256 130.400283 
L 130.134642 129.278867 
L 130.119273 129.278867 
L 128.411483 129.278867 
L 127.450456 128.157451 
L 127.077979 127.036035 
L 126.76969 125.914619 
L 126.437896 124.793204 
L 125.23729 123.671788 
L 124.904592 122.550372 
L 124.335028 121.428956 
L 122.467217 120.30754 
L 119.892424 119.186124 
L 117.038272 118.064708 
L 116.540129 116.943292 
L 115.834954 115.821876 
L 115.091808 115.821876 
L 112.339816 114.70046 
L 112.183412 113.579044 
L 112.016159 113.579044 
L 110.748651 112.457628 
L 107.632319 112.457628 
L 103.695091 112.457628 
L 101.248675 111.336212 
L 100.829186 111.336212 
L 100.227075 110.214796 
L 99.981168 109.093381 
L 99.507435 109.093381 
L 99.188298 109.093381 
L 95.678695 107.971965 
L 95.173319 106.850549 
L 94.823444 105.729133 
L 87.394694 104.607717 
L 85.419299 104.607717 
L 80.691009 104.607717 
L 80.119636 104.607717 
L 73.847192 104.607717 
L 73.832727 104.607717 
z
" clip-path="url(#p177bad561c)" style="fill: #008000"/>
   </g>
   <g id="PolyCollection_2">
    <path d="M 73.832727 58.629664 
L 73.832727 104.607717 
L 73.847192 104.607717 
L 80.119636 104.607717 
L 80.691009 104.607717 
L 85.419299 104.607717 
L 87.394694 104.607717 
L 94.823444 105.729133 
L 95.173319 106.850549 
L 95.678695 107.971965 
L 99.188298 109.093381 
L 99.507435 109.093381 
L 99.981168 109.093381 
L 100.227075 110.214796 
L 100.829186 111.336212 
L 101.248675 111.336212 
L 103.695091 112.457628 
L 107.632319 112.457628 
L 110.748651 112.457628 
L 112.016159 113.579044 
L 112.183412 113.579044 
L 112.339816 114.70046 
L 115.091808 115.821876 
L 115.834954 115.821876 
L 116.540129 116.943292 
L 117.038272 118.064708 
L 119.892424 119.186124 
L 122.467217 120.30754 
L 124.335028 121.428956 
L 124.904592 122.550372 
L 125.23729 123.671788 
L 126.437896 124.793204 
L 126.76969 125.914619 
L 127.077979 127.036035 
L 127.450456 128.157451 
L 128.411483 129.278867 
L 130.119273 129.278867 
L 130.134642 129.278867 
L 130.515256 130.400283 
L 131.404861 131.521699 
L 132.779049 132.643115 
L 133.980559 133.764531 
L 134.306025 134.885947 
L 134.723705 136.007363 
L 136.535463 136.007363 
L 136.574338 137.128779 
L 138.401466 137.128779 
L 138.981879 138.250195 
L 139.098504 139.371611 
L 139.781078 141.614442 
L 140.307247 142.735858 
L 141.188716 143.857274 
L 143.902737 144.97869 
L 144.264365 146.100106 
L 144.270693 147.221522 
L 144.467781 148.342938 
L 145.127753 149.464354 
L 146.077931 149.464354 
L 146.442272 150.58577 
L 147.113092 150.58577 
L 149.831633 151.707186 
L 152.109892 152.828602 
L 152.299746 153.950018 
L 152.86027 155.071434 
L 154.496638 156.19285 
L 154.7769 157.314265 
L 155.201814 158.435681 
L 155.807541 158.435681 
L 159.188766 159.557097 
L 159.658883 160.678513 
L 159.893941 161.799929 
L 160.056674 162.921345 
L 161.295251 164.042761 
L 161.430862 165.164177 
L 161.485106 166.285593 
L 161.738246 167.407009 
L 162.506706 167.407009 
L 164.812087 168.528425 
L 165.417814 169.649841 
L 166.782961 170.771257 
L 168.527818 171.892673 
L 169.666947 173.014088 
L 169.892965 173.014088 
L 170.769913 174.135504 
L 171.673984 175.25692 
L 172.559974 177.499752 
L 173.879917 178.621168 
L 174.404278 179.742584 
L 174.838232 180.864 
L 174.919598 181.985416 
L 175.028087 183.106832 
L 175.570529 184.228248 
L 175.941198 185.349664 
L 177.098409 186.47108 
L 177.423875 187.592496 
L 178.671492 187.592496 
L 180.226494 188.713912 
L 181.465071 189.835327 
L 182.586119 190.956743 
L 182.703648 192.078159 
L 183.779493 193.199575 
L 183.806615 194.320991 
L 184.041673 195.442407 
L 184.25865 196.563823 
L 185.65996 197.685239 
L 187.160717 198.806655 
L 187.893015 199.928071 
L 187.947259 201.049487 
L 188.9779 202.170903 
L 189.212958 203.292319 
L 192.440491 204.413735 
L 193.489213 206.656566 
L 195.23407 207.777982 
L 195.595698 208.899398 
L 195.658983 210.020814 
L 195.87596 211.14223 
L 196.165263 211.14223 
L 196.734827 212.263646 
L 196.978927 213.385062 
L 198.190381 214.506478 
L 198.669539 215.627894 
L 200.396314 216.74931 
L 203.506318 217.870726 
L 203.958353 218.992142 
L 204.80818 220.113558 
L 204.853383 221.234973 
L 205.07036 221.234973 
L 206.33606 222.356389 
L 206.408385 223.477805 
L 206.742891 223.477805 
L 208.912661 224.599221 
L 211.462141 226.842053 
L 212.510863 227.963469 
L 213.604789 227.963469 
L 213.785603 229.084885 
L 213.939295 230.206301 
L 214.309964 231.327717 
L 214.807203 232.449133 
L 214.906651 233.570549 
L 216.235635 234.691965 
L 216.877525 235.813381 
L 217.266276 236.934796 
L 217.745433 238.056212 
L 218.658545 239.177628 
L 220.367239 240.299044 
L 222.546049 240.299044 
L 223.341632 241.42046 
L 224.426517 242.541876 
L 226.831345 243.663292 
L 226.985037 244.784708 
L 227.690212 245.906124 
L 230.528995 247.02754 
L 232.364259 248.148956 
L 233.738446 249.270372 
L 234.561151 249.270372 
L 235.591791 250.391788 
L 235.609873 250.391788 
L 236.107112 251.513204 
L 237.526503 252.634619 
L 239.217115 252.634619 
L 241.793717 252.634619 
L 243.059417 253.756035 
L 246.955962 254.877451 
L 247.380875 255.998867 
L 249.460238 257.120283 
L 250.951955 258.241699 
L 252.000677 259.363115 
L 256.982107 260.484531 
L 259.459261 261.605947 
L 260.101152 262.727363 
L 260.770164 263.848779 
L 261.041385 266.091611 
L 261.99066 267.213027 
L 263.617987 268.334442 
L 263.889208 269.455858 
L 264.757116 270.577274 
L 266.682787 271.69869 
L 266.700869 272.820106 
L 269.187063 273.941522 
L 269.367878 275.062938 
L 269.738547 276.184354 
L 270.253867 277.30577 
L 270.597414 278.427186 
L 273.526603 278.427186 
L 275.741577 279.548602 
L 278.996232 280.670018 
L 280.207687 281.791434 
L 281.40106 281.791434 
L 283.552749 281.791434 
L 283.941499 282.91285 
L 285.044466 284.034265 
L 286.780282 285.155681 
L 288.751156 286.277097 
L 291.128862 287.398513 
L 295.296629 288.519929 
L 299.753698 289.641345 
L 303.858179 290.762761 
L 304.599518 291.884177 
L 310.11435 293.005593 
L 312.835603 294.127009 
L 314.707029 295.248425 
L 317.039532 295.248425 
L 317.229387 296.369841 
L 329.280651 296.369841 
L 330.980304 297.491257 
L 334.045104 298.612673 
L 335.681473 298.612673 
L 337.68851 299.734088 
L 340.780432 300.855504 
L 344.044128 301.97692 
L 346.159653 303.098336 
L 350.815618 304.219752 
L 352.216928 305.341168 
L 398.487273 306.462584 
L 398.487273 306.462584 
L 398.487273 306.462584 
L 352.216928 305.341168 
L 350.815618 304.219752 
L 346.159653 303.098336 
L 344.044128 301.97692 
L 340.780432 300.855504 
L 337.68851 299.734088 
L 335.681473 298.612673 
L 334.045104 297.491257 
L 330.980304 296.369841 
L 329.280651 295.248425 
L 317.229387 294.127009 
L 317.039532 293.005593 
L 314.707029 291.884177 
L 312.835603 290.762761 
L 310.11435 289.641345 
L 304.599518 288.519929 
L 303.858179 287.398513 
L 299.753698 286.277097 
L 295.296629 285.155681 
L 291.128862 284.034265 
L 288.751156 282.91285 
L 286.780282 281.791434 
L 285.044466 280.670018 
L 283.941499 279.548602 
L 283.552749 278.427186 
L 281.40106 277.30577 
L 280.207687 276.184354 
L 278.996232 272.820106 
L 275.741577 271.69869 
L 273.526603 270.577274 
L 270.597414 269.455858 
L 270.253867 268.334442 
L 269.738547 267.213027 
L 269.367878 266.091611 
L 269.187063 264.970195 
L 266.700869 262.727363 
L 266.682787 261.605947 
L 264.757116 260.484531 
L 263.889208 259.363115 
L 263.617987 258.241699 
L 261.99066 257.120283 
L 261.041385 255.998867 
L 260.770164 253.756035 
L 260.101152 252.634619 
L 259.459261 251.513204 
L 256.982107 250.391788 
L 252.000677 249.270372 
L 250.951955 248.148956 
L 249.460238 247.02754 
L 247.380875 245.906124 
L 246.955962 244.784708 
L 243.059417 243.663292 
L 241.793717 242.541876 
L 239.217115 241.42046 
L 237.526503 240.299044 
L 236.107112 238.056212 
L 235.609873 236.934796 
L 235.591791 235.813381 
L 234.561151 234.691965 
L 233.738446 233.570549 
L 232.364259 232.449133 
L 230.528995 231.327717 
L 227.690212 230.206301 
L 226.985037 229.084885 
L 226.831345 226.842053 
L 224.426517 225.720637 
L 223.341632 224.599221 
L 222.546049 223.477805 
L 220.367239 222.356389 
L 218.658545 221.234973 
L 217.745433 220.113558 
L 217.266276 218.992142 
L 216.877525 217.870726 
L 216.235635 216.74931 
L 214.906651 215.627894 
L 214.807203 214.506478 
L 214.309964 213.385062 
L 213.939295 212.263646 
L 213.785603 211.14223 
L 213.604789 210.020814 
L 212.510863 207.777982 
L 211.462141 206.656566 
L 208.912661 204.413735 
L 206.742891 203.292319 
L 206.408385 202.170903 
L 206.33606 201.049487 
L 205.07036 199.928071 
L 204.853383 198.806655 
L 204.80818 197.685239 
L 203.958353 196.563823 
L 203.506318 195.442407 
L 200.396314 194.320991 
L 198.669539 193.199575 
L 198.190381 192.078159 
L 196.978927 190.956743 
L 196.734827 189.835327 
L 196.165263 188.713912 
L 195.87596 187.592496 
L 195.658983 186.47108 
L 195.595698 185.349664 
L 195.23407 184.228248 
L 193.489213 183.106832 
L 192.440491 180.864 
L 189.212958 179.742584 
L 188.9779 178.621168 
L 187.947259 177.499752 
L 187.893015 176.378336 
L 187.160717 175.25692 
L 185.65996 174.135504 
L 184.25865 173.014088 
L 184.041673 171.892673 
L 183.806615 170.771257 
L 183.779493 169.649841 
L 182.703648 168.528425 
L 182.586119 167.407009 
L 181.465071 166.285593 
L 180.226494 165.164177 
L 178.671492 164.042761 
L 177.423875 161.799929 
L 177.098409 160.678513 
L 175.941198 159.557097 
L 175.570529 158.435681 
L 175.028087 157.314265 
L 174.919598 156.19285 
L 174.838232 155.071434 
L 174.404278 153.950018 
L 173.879917 152.828602 
L 172.559974 151.707186 
L 171.673984 149.464354 
L 170.769913 148.342938 
L 169.892965 147.221522 
L 169.666947 146.100106 
L 168.527818 144.97869 
L 166.782961 143.857274 
L 165.417814 142.735858 
L 164.812087 141.614442 
L 162.506706 140.493027 
L 161.738246 139.371611 
L 161.485106 138.250195 
L 161.430862 137.128779 
L 161.295251 136.007363 
L 160.056674 134.885947 
L 159.893941 133.764531 
L 159.658883 132.643115 
L 159.188766 131.521699 
L 155.807541 130.400283 
L 155.201814 129.278867 
L 154.7769 128.157451 
L 154.496638 127.036035 
L 152.86027 125.914619 
L 152.299746 124.793204 
L 152.109892 123.671788 
L 149.831633 122.550372 
L 147.113092 121.428956 
L 146.442272 120.30754 
L 146.077931 119.186124 
L 145.127753 118.064708 
L 144.467781 116.943292 
L 144.270693 115.821876 
L 144.264365 114.70046 
L 143.902737 113.579044 
L 141.188716 112.457628 
L 140.307247 111.336212 
L 139.781078 110.214796 
L 139.098504 107.971965 
L 138.981879 106.850549 
L 138.401466 105.729133 
L 136.574338 104.607717 
L 136.535463 103.486301 
L 134.723705 102.364885 
L 134.306025 101.243469 
L 133.980559 100.122053 
L 132.779049 99.000637 
L 131.404861 97.879221 
L 130.515256 96.757805 
L 130.134642 95.636389 
L 130.119273 94.514973 
L 128.411483 93.393558 
L 127.450456 92.272142 
L 127.077979 91.150726 
L 126.76969 90.02931 
L 126.437896 88.907894 
L 125.23729 87.786478 
L 124.904592 86.665062 
L 124.335028 85.543646 
L 122.467217 84.42223 
L 119.892424 83.300814 
L 117.038272 82.179398 
L 116.540129 81.057982 
L 115.834954 79.936566 
L 115.091808 78.81515 
L 112.339816 77.693735 
L 112.183412 76.572319 
L 112.016159 75.450903 
L 110.748651 74.329487 
L 107.632319 74.329487 
L 103.695091 73.208071 
L 101.248675 72.086655 
L 100.829186 70.965239 
L 100.227075 69.843823 
L 99.981168 68.722407 
L 99.507435 66.479575 
L 99.188298 65.358159 
L 95.678695 64.236743 
L 95.173319 63.115327 
L 94.823444 61.993912 
L 87.394694 60.872496 
L 85.419299 59.75108 
L 80.691009 59.75108 
L 80.119636 59.75108 
L 73.847192 59.75108 
L 73.832727 58.629664 
z
" clip-path="url(#p177bad561c)" style="fill: #7cfc00"/>
   </g>
   <g id="PolyCollection_3">
    <path d="M 73.832727 54.144 
L 73.832727 58.629664 
L 73.847192 59.75108 
L 80.119636 59.75108 
L 80.691009 59.75108 
L 85.419299 59.75108 
L 87.394694 60.872496 
L 94.823444 61.993912 
L 95.173319 63.115327 
L 95.678695 64.236743 
L 99.188298 65.358159 
L 99.507435 66.479575 
L 99.981168 68.722407 
L 100.227075 69.843823 
L 100.829186 70.965239 
L 101.248675 72.086655 
L 103.695091 73.208071 
L 107.632319 74.329487 
L 110.748651 74.329487 
L 112.016159 75.450903 
L 112.183412 76.572319 
L 112.339816 77.693735 
L 115.091808 78.81515 
L 115.834954 79.936566 
L 116.540129 81.057982 
L 117.038272 82.179398 
L 119.892424 83.300814 
L 122.467217 84.42223 
L 124.335028 85.543646 
L 124.904592 86.665062 
L 125.23729 87.786478 
L 126.437896 88.907894 
L 126.76969 90.02931 
L 127.077979 91.150726 
L 127.450456 92.272142 
L 128.411483 93.393558 
L 130.119273 94.514973 
L 130.134642 95.636389 
L 130.515256 96.757805 
L 131.404861 97.879221 
L 132.779049 99.000637 
L 133.980559 100.122053 
L 134.306025 101.243469 
L 134.723705 102.364885 
L 136.535463 103.486301 
L 136.574338 104.607717 
L 138.401466 105.729133 
L 138.981879 106.850549 
L 139.098504 107.971965 
L 139.781078 110.214796 
L 140.307247 111.336212 
L 141.188716 112.457628 
L 143.902737 113.579044 
L 144.264365 114.70046 
L 144.270693 115.821876 
L 144.467781 116.943292 
L 145.127753 118.064708 
L 146.077931 119.186124 
L 146.442272 120.30754 
L 147.113092 121.428956 
L 149.831633 122.550372 
L 152.109892 123.671788 
L 152.299746 124.793204 
L 152.86027 125.914619 
L 154.496638 127.036035 
L 154.7769 128.157451 
L 155.201814 129.278867 
L 155.807541 130.400283 
L 159.188766 131.521699 
L 159.658883 132.643115 
L 159.893941 133.764531 
L 160.056674 134.885947 
L 161.295251 136.007363 
L 161.430862 137.128779 
L 161.485106 138.250195 
L 161.738246 139.371611 
L 162.506706 140.493027 
L 164.812087 141.614442 
L 165.417814 142.735858 
L 166.782961 143.857274 
L 168.527818 144.97869 
L 169.666947 146.100106 
L 169.892965 147.221522 
L 170.769913 148.342938 
L 171.673984 149.464354 
L 172.559974 151.707186 
L 173.879917 152.828602 
L 174.404278 153.950018 
L 174.838232 155.071434 
L 174.919598 156.19285 
L 175.028087 157.314265 
L 175.570529 158.435681 
L 175.941198 159.557097 
L 177.098409 160.678513 
L 177.423875 161.799929 
L 178.671492 164.042761 
L 180.226494 165.164177 
L 181.465071 166.285593 
L 182.586119 167.407009 
L 182.703648 168.528425 
L 183.779493 169.649841 
L 183.806615 170.771257 
L 184.041673 171.892673 
L 184.25865 173.014088 
L 185.65996 174.135504 
L 187.160717 175.25692 
L 187.893015 176.378336 
L 187.947259 177.499752 
L 188.9779 178.621168 
L 189.212958 179.742584 
L 192.440491 180.864 
L 193.489213 183.106832 
L 195.23407 184.228248 
L 195.595698 185.349664 
L 195.658983 186.47108 
L 195.87596 187.592496 
L 196.165263 188.713912 
L 196.734827 189.835327 
L 196.978927 190.956743 
L 198.190381 192.078159 
L 198.669539 193.199575 
L 200.396314 194.320991 
L 203.506318 195.442407 
L 203.958353 196.563823 
L 204.80818 197.685239 
L 204.853383 198.806655 
L 205.07036 199.928071 
L 206.33606 201.049487 
L 206.408385 202.170903 
L 206.742891 203.292319 
L 208.912661 204.413735 
L 211.462141 206.656566 
L 212.510863 207.777982 
L 213.604789 210.020814 
L 213.785603 211.14223 
L 213.939295 212.263646 
L 214.309964 213.385062 
L 214.807203 214.506478 
L 214.906651 215.627894 
L 216.235635 216.74931 
L 216.877525 217.870726 
L 217.266276 218.992142 
L 217.745433 220.113558 
L 218.658545 221.234973 
L 220.367239 222.356389 
L 222.546049 223.477805 
L 223.341632 224.599221 
L 224.426517 225.720637 
L 226.831345 226.842053 
L 226.985037 229.084885 
L 227.690212 230.206301 
L 230.528995 231.327717 
L 232.364259 232.449133 
L 233.738446 233.570549 
L 234.561151 234.691965 
L 235.591791 235.813381 
L 235.609873 236.934796 
L 236.107112 238.056212 
L 237.526503 240.299044 
L 239.217115 241.42046 
L 241.793717 242.541876 
L 243.059417 243.663292 
L 246.955962 244.784708 
L 247.380875 245.906124 
L 249.460238 247.02754 
L 250.951955 248.148956 
L 252.000677 249.270372 
L 256.982107 250.391788 
L 259.459261 251.513204 
L 260.101152 252.634619 
L 260.770164 253.756035 
L 261.041385 255.998867 
L 261.99066 257.120283 
L 263.617987 258.241699 
L 263.889208 259.363115 
L 264.757116 260.484531 
L 266.682787 261.605947 
L 266.700869 262.727363 
L 269.187063 264.970195 
L 269.367878 266.091611 
L 269.738547 267.213027 
L 270.253867 268.334442 
L 270.597414 269.455858 
L 273.526603 270.577274 
L 275.741577 271.69869 
L 278.996232 272.820106 
L 280.207687 276.184354 
L 281.40106 277.30577 
L 283.552749 278.427186 
L 283.941499 279.548602 
L 285.044466 280.670018 
L 286.780282 281.791434 
L 288.751156 282.91285 
L 291.128862 284.034265 
L 295.296629 285.155681 
L 299.753698 286.277097 
L 303.858179 287.398513 
L 304.599518 288.519929 
L 310.11435 289.641345 
L 312.835603 290.762761 
L 314.707029 291.884177 
L 317.039532 293.005593 
L 317.229387 294.127009 
L 329.280651 295.248425 
L 330.980304 296.369841 
L 334.045104 297.491257 
L 335.681473 298.612673 
L 337.68851 299.734088 
L 340.780432 300.855504 
L 344.044128 301.97692 
L 346.159653 303.098336 
L 350.815618 304.219752 
L 352.216928 305.341168 
L 398.487273 306.462584 
L 398.487273 306.462584 
L 398.487273 306.462584 
L 352.216928 305.341168 
L 350.815618 304.219752 
L 346.159653 303.098336 
L 344.044128 301.97692 
L 340.780432 300.855504 
L 337.68851 299.734088 
L 335.681473 298.612673 
L 334.045104 297.491257 
L 330.980304 296.369841 
L 329.280651 295.248425 
L 317.229387 294.127009 
L 317.039532 293.005593 
L 314.707029 291.884177 
L 312.835603 290.762761 
L 310.11435 289.641345 
L 304.599518 288.519929 
L 303.858179 287.398513 
L 299.753698 286.277097 
L 295.296629 285.155681 
L 291.128862 284.034265 
L 288.751156 282.91285 
L 286.780282 281.791434 
L 285.044466 280.670018 
L 283.941499 279.548602 
L 283.552749 278.427186 
L 281.40106 277.30577 
L 280.207687 276.184354 
L 278.996232 272.820106 
L 275.741577 271.69869 
L 273.526603 270.577274 
L 270.597414 269.455858 
L 270.253867 268.334442 
L 269.738547 267.213027 
L 269.367878 266.091611 
L 269.187063 264.970195 
L 266.700869 262.727363 
L 266.682787 261.605947 
L 264.757116 260.484531 
L 263.889208 259.363115 
L 263.617987 258.241699 
L 261.99066 257.120283 
L 261.041385 255.998867 
L 260.770164 253.756035 
L 260.101152 252.634619 
L 259.459261 251.513204 
L 256.982107 250.391788 
L 252.000677 249.270372 
L 250.951955 248.148956 
L 249.460238 247.02754 
L 247.380875 245.906124 
L 246.955962 244.784708 
L 243.059417 243.663292 
L 241.793717 242.541876 
L 239.217115 241.42046 
L 237.526503 240.299044 
L 236.107112 238.056212 
L 235.609873 236.934796 
L 235.591791 235.813381 
L 234.561151 234.691965 
L 233.738446 233.570549 
L 232.364259 232.449133 
L 230.528995 231.327717 
L 227.690212 230.206301 
L 226.985037 229.084885 
L 226.831345 226.842053 
L 224.426517 225.720637 
L 223.341632 224.599221 
L 222.546049 223.477805 
L 220.367239 222.356389 
L 218.658545 221.234973 
L 217.745433 220.113558 
L 217.266276 218.992142 
L 216.877525 217.870726 
L 216.235635 216.74931 
L 214.906651 215.627894 
L 214.807203 214.506478 
L 214.309964 213.385062 
L 213.939295 212.263646 
L 213.785603 211.14223 
L 213.604789 210.020814 
L 212.510863 207.777982 
L 211.462141 206.656566 
L 208.912661 204.413735 
L 206.742891 203.292319 
L 206.408385 202.170903 
L 206.33606 201.049487 
L 205.07036 199.928071 
L 204.853383 198.806655 
L 204.80818 197.685239 
L 203.958353 196.563823 
L 203.506318 195.442407 
L 200.396314 194.320991 
L 198.669539 193.199575 
L 198.190381 192.078159 
L 196.978927 190.956743 
L 196.734827 189.835327 
L 196.165263 188.713912 
L 195.87596 187.592496 
L 195.658983 186.47108 
L 195.595698 185.349664 
L 195.23407 184.228248 
L 193.489213 183.106832 
L 192.440491 180.864 
L 189.212958 179.742584 
L 188.9779 178.621168 
L 187.947259 177.499752 
L 187.893015 176.378336 
L 187.160717 175.25692 
L 185.65996 174.135504 
L 184.25865 173.014088 
L 184.041673 171.892673 
L 183.806615 170.771257 
L 183.779493 169.649841 
L 182.703648 168.528425 
L 182.586119 167.407009 
L 181.465071 166.285593 
L 180.226494 165.164177 
L 178.671492 164.042761 
L 177.423875 161.799929 
L 177.098409 160.678513 
L 175.941198 159.557097 
L 175.570529 158.435681 
L 175.028087 157.314265 
L 174.919598 156.19285 
L 174.838232 155.071434 
L 174.404278 153.950018 
L 173.879917 152.828602 
L 172.559974 151.707186 
L 171.673984 149.464354 
L 170.769913 148.342938 
L 169.892965 147.221522 
L 169.666947 146.100106 
L 168.527818 144.97869 
L 166.782961 143.857274 
L 165.417814 142.735858 
L 164.812087 141.614442 
L 162.506706 140.493027 
L 161.738246 139.371611 
L 161.485106 138.250195 
L 161.430862 137.128779 
L 161.295251 136.007363 
L 160.056674 134.885947 
L 159.893941 133.764531 
L 159.658883 132.643115 
L 159.188766 131.521699 
L 155.807541 130.400283 
L 155.201814 129.278867 
L 154.7769 128.157451 
L 154.496638 127.036035 
L 152.86027 125.914619 
L 152.299746 124.793204 
L 152.109892 123.671788 
L 149.831633 122.550372 
L 147.113092 121.428956 
L 146.442272 120.30754 
L 146.077931 119.186124 
L 145.127753 118.064708 
L 144.467781 116.943292 
L 144.270693 115.821876 
L 144.264365 114.70046 
L 143.902737 113.579044 
L 141.188716 112.457628 
L 140.307247 111.336212 
L 139.781078 110.214796 
L 139.098504 107.971965 
L 138.981879 106.850549 
L 138.401466 105.729133 
L 136.574338 104.607717 
L 136.535463 103.486301 
L 134.723705 102.364885 
L 134.306025 101.243469 
L 133.980559 100.122053 
L 132.779049 99.000637 
L 131.404861 97.879221 
L 130.515256 96.757805 
L 130.134642 95.636389 
L 130.119273 94.514973 
L 128.411483 93.393558 
L 127.450456 92.272142 
L 127.077979 91.150726 
L 126.76969 90.02931 
L 126.437896 88.907894 
L 125.23729 87.786478 
L 124.904592 86.665062 
L 124.335028 85.543646 
L 122.467217 84.42223 
L 119.892424 83.300814 
L 117.038272 82.179398 
L 116.540129 81.057982 
L 115.834954 79.936566 
L 115.091808 78.81515 
L 112.339816 77.693735 
L 112.183412 76.572319 
L 112.016159 75.450903 
L 110.748651 74.329487 
L 107.632319 73.208071 
L 103.695091 72.086655 
L 101.248675 70.965239 
L 100.829186 69.843823 
L 100.227075 68.722407 
L 99.981168 67.600991 
L 99.507435 65.358159 
L 99.188298 64.236743 
L 95.678695 63.115327 
L 95.173319 61.993912 
L 94.823444 60.872496 
L 87.394694 59.75108 
L 85.419299 58.629664 
L 80.691009 57.508248 
L 80.119636 56.386832 
L 73.847192 55.265416 
L 73.832727 54.144 
z
" clip-path="url(#p177bad561c)" style="fill: #ff0000"/>
   </g>
   <g id="matplotlib.axis_1">
    <g id="xtick_1">
     <g id="line2d_1">
      <defs>
       <path id="mcdba9105d8" d="M 0 0 
L 0 3.5 
" style="stroke: #000000; stroke-width: 0.8"/>
      </defs>
      <g>
       <use xlink:href="#mcdba9105d8" x="58.683212" y="307.584" style="stroke: #000000; stroke-width: 0.8"/>
      </g>
     </g>
     <g id="text_1">
      <!-- 0 -->
      <g transform="translate(55.501962 322.182437) scale(0.1 -0.1)">
       <defs>
        <path id="DejaVuSans-30" d="M 2034 4250 
Q 1547 4250 1301 3770 
Q 1056 3291 1056 2328 
Q 1056 1369 1301 889 
Q 1547 409 2034 409 
Q 2525 409 2770 889 
Q 3016 1369 3016 2328 
Q 3016 3291 2770 3770 
Q 2525 4250 2034 4250 
z
M 2034 4750 
Q 2819 4750 3233 4129 
Q 3647 3509 3647 2328 
Q 3647 1150 3233 529 
Q 2819 -91 2034 -91 
Q 1250 -91 836 529 
Q 422 1150 422 2328 
Q 422 3509 836 4129 
Q 1250 4750 2034 4750 
z
" transform="scale(0.015625)"/>
       </defs>
       <use xlink:href="#DejaVuSans-30"/>
      </g>
     </g>
    </g>
    <g id="xtick_2">
     <g id="line2d_2">
      <g>
       <use xlink:href="#mcdba9105d8" x="103.886754" y="307.584" style="stroke: #000000; stroke-width: 0.8"/>
      </g>
     </g>
     <g id="text_2">
      <!-- 50 -->
      <g transform="translate(97.524254 322.182437) scale(0.1 -0.1)">
       <defs>
        <path id="DejaVuSans-35" d="M 691 4666 
L 3169 4666 
L 3169 4134 
L 1269 4134 
L 1269 2991 
Q 1406 3038 1543 3061 
Q 1681 3084 1819 3084 
Q 2600 3084 3056 2656 
Q 3513 2228 3513 1497 
Q 3513 744 3044 326 
Q 2575 -91 1722 -91 
Q 1428 -91 1123 -41 
Q 819 9 494 109 
L 494 744 
Q 775 591 1075 516 
Q 1375 441 1709 441 
Q 2250 441 2565 725 
Q 2881 1009 2881 1497 
Q 2881 1984 2565 2268 
Q 2250 2553 1709 2553 
Q 1456 2553 1204 2497 
Q 953 2441 691 2322 
L 691 4666 
z
" transform="scale(0.015625)"/>
       </defs>
       <use xlink:href="#DejaVuSans-35"/>
       <use xlink:href="#DejaVuSans-30" x="63.623047"/>
      </g>
     </g>
    </g>
    <g id="xtick_3">
     <g id="line2d_3">
      <g>
       <use xlink:href="#mcdba9105d8" x="149.090295" y="307.584" style="stroke: #000000; stroke-width: 0.8"/>
      </g>
     </g>
     <g id="text_3">
      <!-- 100 -->
      <g transform="translate(139.546545 322.182437) scale(0.1 -0.1)">
       <defs>
        <path id="DejaVuSans-31" d="M 794 531 
L 1825 531 
L 1825 4091 
L 703 3866 
L 703 4441 
L 1819 4666 
L 2450 4666 
L 2450 531 
L 3481 531 
L 3481 0 
L 794 0 
L 794 531 
z
" transform="scale(0.015625)"/>
       </defs>
       <use xlink:href="#DejaVuSans-31"/>
       <use xlink:href="#DejaVuSans-30" x="63.623047"/>
       <use xlink:href="#DejaVuSans-30" x="127.246094"/>
      </g>
     </g>
    </g>
    <g id="xtick_4">
     <g id="line2d_4">
      <g>
       <use xlink:href="#mcdba9105d8" x="194.293836" y="307.584" style="stroke: #000000; stroke-width: 0.8"/>
      </g>
     </g>
     <g id="text_4">
      <!-- 150 -->
      <g transform="translate(184.750086 322.182437) scale(0.1 -0.1)">
       <use xlink:href="#DejaVuSans-31"/>
       <use xlink:href="#DejaVuSans-35" x="63.623047"/>
       <use xlink:href="#DejaVuSans-30" x="127.246094"/>
      </g>
     </g>
    </g>
    <g id="xtick_5">
     <g id="line2d_5">
      <g>
       <use xlink:href="#mcdba9105d8" x="239.497377" y="307.584" style="stroke: #000000; stroke-width: 0.8"/>
      </g>
     </g>
     <g id="text_5">
      <!-- 200 -->
      <g transform="translate(229.953627 322.182437) scale(0.1 -0.1)">
       <defs>
        <path id="DejaVuSans-32" d="M 1228 531 
L 3431 531 
L 3431 0 
L 469 0 
L 469 531 
Q 828 903 1448 1529 
Q 2069 2156 2228 2338 
Q 2531 2678 2651 2914 
Q 2772 3150 2772 3378 
Q 2772 3750 2511 3984 
Q 2250 4219 1831 4219 
Q 1534 4219 1204 4116 
Q 875 4013 500 3803 
L 500 4441 
Q 881 4594 1212 4672 
Q 1544 4750 1819 4750 
Q 2544 4750 2975 4387 
Q 3406 4025 3406 3419 
Q 3406 3131 3298 2873 
Q 3191 2616 2906 2266 
Q 2828 2175 2409 1742 
Q 1991 1309 1228 531 
z
" transform="scale(0.015625)"/>
       </defs>
       <use xlink:href="#DejaVuSans-32"/>
       <use xlink:href="#DejaVuSans-30" x="63.623047"/>
       <use xlink:href="#DejaVuSans-30" x="127.246094"/>
      </g>
     </g>
    </g>
    <g id="xtick_6">
     <g id="line2d_6">
      <g>
       <use xlink:href="#mcdba9105d8" x="284.700919" y="307.584" style="stroke: #000000; stroke-width: 0.8"/>
      </g>
     </g>
     <g id="text_6">
      <!-- 250 -->
      <g transform="translate(275.157169 322.182437) scale(0.1 -0.1)">
       <use xlink:href="#DejaVuSans-32"/>
       <use xlink:href="#DejaVuSans-35" x="63.623047"/>
       <use xlink:href="#DejaVuSans-30" x="127.246094"/>
      </g>
     </g>
    </g>
    <g id="xtick_7">
     <g id="line2d_7">
      <g>
       <use xlink:href="#mcdba9105d8" x="329.90446" y="307.584" style="stroke: #000000; stroke-width: 0.8"/>
      </g>
     </g>
     <g id="text_7">
      <!-- 300 -->
      <g transform="translate(320.36071 322.182437) scale(0.1 -0.1)">
       <defs>
        <path id="DejaVuSans-33" d="M 2597 2516 
Q 3050 2419 3304 2112 
Q 3559 1806 3559 1356 
Q 3559 666 3084 287 
Q 2609 -91 1734 -91 
Q 1441 -91 1130 -33 
Q 819 25 488 141 
L 488 750 
Q 750 597 1062 519 
Q 1375 441 1716 441 
Q 2309 441 2620 675 
Q 2931 909 2931 1356 
Q 2931 1769 2642 2001 
Q 2353 2234 1838 2234 
L 1294 2234 
L 1294 2753 
L 1863 2753 
Q 2328 2753 2575 2939 
Q 2822 3125 2822 3475 
Q 2822 3834 2567 4026 
Q 2313 4219 1838 4219 
Q 1578 4219 1281 4162 
Q 984 4106 628 3988 
L 628 4550 
Q 988 4650 1302 4700 
Q 1616 4750 1894 4750 
Q 2613 4750 3031 4423 
Q 3450 4097 3450 3541 
Q 3450 3153 3228 2886 
Q 3006 2619 2597 2516 
z
" transform="scale(0.015625)"/>
       </defs>
       <use xlink:href="#DejaVuSans-33"/>
       <use xlink:href="#DejaVuSans-30" x="63.623047"/>
       <use xlink:href="#DejaVuSans-30" x="127.246094"/>
      </g>
     </g>
    </g>
    <g id="xtick_8">
     <g id="line2d_8">
      <g>
       <use xlink:href="#mcdba9105d8" x="375.108001" y="307.584" style="stroke: #000000; stroke-width: 0.8"/>
      </g>
     </g>
     <g id="text_8">
      <!-- 350 -->
      <g transform="translate(365.564251 322.182437) scale(0.1 -0.1)">
       <use xlink:href="#DejaVuSans-33"/>
       <use xlink:href="#DejaVuSans-35" x="63.623047"/>
       <use xlink:href="#DejaVuSans-30" x="127.246094"/>
      </g>
     </g>
    </g>
    <g id="text_9">
     <!-- Score -->
     <g transform="translate(222.157656 335.860562) scale(0.1 -0.1)">
      <defs>
       <path id="DejaVuSans-53" d="M 3425 4513 
L 3425 3897 
Q 3066 4069 2747 4153 
Q 2428 4238 2131 4238 
Q 1616 4238 1336 4038 
Q 1056 3838 1056 3469 
Q 1056 3159 1242 3001 
Q 1428 2844 1947 2747 
L 2328 2669 
Q 3034 2534 3370 2195 
Q 3706 1856 3706 1288 
Q 3706 609 3251 259 
Q 2797 -91 1919 -91 
Q 1588 -91 1214 -16 
Q 841 59 441 206 
L 441 856 
Q 825 641 1194 531 
Q 1563 422 1919 422 
Q 2459 422 2753 634 
Q 3047 847 3047 1241 
Q 3047 1584 2836 1778 
Q 2625 1972 2144 2069 
L 1759 2144 
Q 1053 2284 737 2584 
Q 422 2884 422 3419 
Q 422 4038 858 4394 
Q 1294 4750 2059 4750 
Q 2388 4750 2728 4690 
Q 3069 4631 3425 4513 
z
" transform="scale(0.015625)"/>
       <path id="DejaVuSans-63" d="M 3122 3366 
L 3122 2828 
Q 2878 2963 2633 3030 
Q 2388 3097 2138 3097 
Q 1578 3097 1268 2742 
Q 959 2388 959 1747 
Q 959 1106 1268 751 
Q 1578 397 2138 397 
Q 2388 397 2633 464 
Q 2878 531 3122 666 
L 3122 134 
Q 2881 22 2623 -34 
Q 2366 -91 2075 -91 
Q 1284 -91 818 406 
Q 353 903 353 1747 
Q 353 2603 823 3093 
Q 1294 3584 2113 3584 
Q 2378 3584 2631 3529 
Q 2884 3475 3122 3366 
z
" transform="scale(0.015625)"/>
       <path id="DejaVuSans-6f" d="M 1959 3097 
Q 1497 3097 1228 2736 
Q 959 2375 959 1747 
Q 959 1119 1226 758 
Q 1494 397 1959 397 
Q 2419 397 2687 759 
Q 2956 1122 2956 1747 
Q 2956 2369 2687 2733 
Q 2419 3097 1959 3097 
z
M 1959 3584 
Q 2709 3584 3137 3096 
Q 3566 2609 3566 1747 
Q 3566 888 3137 398 
Q 2709 -91 1959 -91 
Q 1206 -91 779 398 
Q 353 888 353 1747 
Q 353 2609 779 3096 
Q 1206 3584 1959 3584 
z
" transform="scale(0.015625)"/>
       <path id="DejaVuSans-72" d="M 2631 2963 
Q 2534 3019 2420 3045 
Q 2306 3072 2169 3072 
Q 1681 3072 1420 2755 
Q 1159 2438 1159 1844 
L 1159 0 
L 581 0 
L 581 3500 
L 1159 3500 
L 1159 2956 
Q 1341 3275 1631 3429 
Q 1922 3584 2338 3584 
Q 2397 3584 2469 3576 
Q 2541 3569 2628 3553 
L 2631 2963 
z
" transform="scale(0.015625)"/>
       <path id="DejaVuSans-65" d="M 3597 1894 
L 3597 1613 
L 953 1613 
Q 991 1019 1311 708 
Q 1631 397 2203 397 
Q 2534 397 2845 478 
Q 3156 559 3463 722 
L 3463 178 
Q 3153 47 2828 -22 
Q 2503 -91 2169 -91 
Q 1331 -91 842 396 
Q 353 884 353 1716 
Q 353 2575 817 3079 
Q 1281 3584 2069 3584 
Q 2775 3584 3186 3129 
Q 3597 2675 3597 1894 
z
M 3022 2063 
Q 3016 2534 2758 2815 
Q 2500 3097 2075 3097 
Q 1594 3097 1305 2825 
Q 1016 2553 972 2059 
L 3022 2063 
z
" transform="scale(0.015625)"/>
      </defs>
      <use xlink:href="#DejaVuSans-53"/>
      <use xlink:href="#DejaVuSans-63" x="63.476562"/>
      <use xlink:href="#DejaVuSans-6f" x="118.457031"/>
      <use xlink:href="#DejaVuSans-72" x="179.638672"/>
      <use xlink:href="#DejaVuSans-65" x="218.501953"/>
     </g>
    </g>
   </g>
   <g id="matplotlib.axis_2">
    <g id="ytick_1">
     <g id="line2d_9">
      <defs>
       <path id="mf363163b4b" d="M 0 0 
L -3.5 0 
" style="stroke: #000000; stroke-width: 0.8"/>
      </defs>
      <g>
       <use xlink:href="#mf363163b4b" x="57.6" y="307.584" style="stroke: #000000; stroke-width: 0.8"/>
      </g>
     </g>
     <g id="text_10">
      <!-- 0 -->
      <g transform="translate(44.2375 311.383219) scale(0.1 -0.1)">
       <use xlink:href="#DejaVuSans-30"/>
      </g>
     </g>
    </g>
    <g id="ytick_2">
     <g id="line2d_10">
      <g>
       <use xlink:href="#mf363163b4b" x="57.6" y="251.513204" style="stroke: #000000; stroke-width: 0.8"/>
      </g>
     </g>
     <g id="text_11">
      <!-- 50 -->
      <g transform="translate(37.875 255.312422) scale(0.1 -0.1)">
       <use xlink:href="#DejaVuSans-35"/>
       <use xlink:href="#DejaVuSans-30" x="63.623047"/>
      </g>
     </g>
    </g>
    <g id="ytick_3">
     <g id="line2d_11">
      <g>
       <use xlink:href="#mf363163b4b" x="57.6" y="195.442407" style="stroke: #000000; stroke-width: 0.8"/>
      </g>
     </g>
     <g id="text_12">
      <!-- 100 -->
      <g transform="translate(31.5125 199.241626) scale(0.1 -0.1)">
       <use xlink:href="#DejaVuSans-31"/>
       <use xlink:href="#DejaVuSans-30" x="63.623047"/>
       <use xlink:href="#DejaVuSans-30" x="127.246094"/>
      </g>
     </g>
    </g>
    <g id="ytick_4">
     <g id="line2d_12">
      <g>
       <use xlink:href="#mf363163b4b" x="57.6" y="139.371611" style="stroke: #000000; stroke-width: 0.8"/>
      </g>
     </g>
     <g id="text_13">
      <!-- 150 -->
      <g transform="translate(31.5125 143.170829) scale(0.1 -0.1)">
       <use xlink:href="#DejaVuSans-31"/>
       <use xlink:href="#DejaVuSans-35" x="63.623047"/>
       <use xlink:href="#DejaVuSans-30" x="127.246094"/>
      </g>
     </g>
    </g>
    <g id="ytick_5">
     <g id="line2d_13">
      <g>
       <use xlink:href="#mf363163b4b" x="57.6" y="83.300814" style="stroke: #000000; stroke-width: 0.8"/>
      </g>
     </g>
     <g id="text_14">
      <!-- 200 -->
      <g transform="translate(31.5125 87.100033) scale(0.1 -0.1)">
       <use xlink:href="#DejaVuSans-32"/>
       <use xlink:href="#DejaVuSans-30" x="63.623047"/>
       <use xlink:href="#DejaVuSans-30" x="127.246094"/>
      </g>
     </g>
    </g>
    <g id="text_15">
     <!-- Number of crosslinks -->
     <g transform="translate(25.432812 227.019406) rotate(-90) scale(0.1 -0.1)">
      <defs>
       <path id="DejaVuSans-4e" d="M 628 4666 
L 1478 4666 
L 3547 763 
L 3547 4666 
L 4159 4666 
L 4159 0 
L 3309 0 
L 1241 3903 
L 1241 0 
L 628 0 
L 628 4666 
z
" transform="scale(0.015625)"/>
       <path id="DejaVuSans-75" d="M 544 1381 
L 544 3500 
L 1119 3500 
L 1119 1403 
Q 1119 906 1312 657 
Q 1506 409 1894 409 
Q 2359 409 2629 706 
Q 2900 1003 2900 1516 
L 2900 3500 
L 3475 3500 
L 3475 0 
L 2900 0 
L 2900 538 
Q 2691 219 2414 64 
Q 2138 -91 1772 -91 
Q 1169 -91 856 284 
Q 544 659 544 1381 
z
M 1991 3584 
L 1991 3584 
z
" transform="scale(0.015625)"/>
       <path id="DejaVuSans-6d" d="M 3328 2828 
Q 3544 3216 3844 3400 
Q 4144 3584 4550 3584 
Q 5097 3584 5394 3201 
Q 5691 2819 5691 2113 
L 5691 0 
L 5113 0 
L 5113 2094 
Q 5113 2597 4934 2840 
Q 4756 3084 4391 3084 
Q 3944 3084 3684 2787 
Q 3425 2491 3425 1978 
L 3425 0 
L 2847 0 
L 2847 2094 
Q 2847 2600 2669 2842 
Q 2491 3084 2119 3084 
Q 1678 3084 1418 2786 
Q 1159 2488 1159 1978 
L 1159 0 
L 581 0 
L 581 3500 
L 1159 3500 
L 1159 2956 
Q 1356 3278 1631 3431 
Q 1906 3584 2284 3584 
Q 2666 3584 2933 3390 
Q 3200 3197 3328 2828 
z
" transform="scale(0.015625)"/>
       <path id="DejaVuSans-62" d="M 3116 1747 
Q 3116 2381 2855 2742 
Q 2594 3103 2138 3103 
Q 1681 3103 1420 2742 
Q 1159 2381 1159 1747 
Q 1159 1113 1420 752 
Q 1681 391 2138 391 
Q 2594 391 2855 752 
Q 3116 1113 3116 1747 
z
M 1159 2969 
Q 1341 3281 1617 3432 
Q 1894 3584 2278 3584 
Q 2916 3584 3314 3078 
Q 3713 2572 3713 1747 
Q 3713 922 3314 415 
Q 2916 -91 2278 -91 
Q 1894 -91 1617 61 
Q 1341 213 1159 525 
L 1159 0 
L 581 0 
L 581 4863 
L 1159 4863 
L 1159 2969 
z
" transform="scale(0.015625)"/>
       <path id="DejaVuSans-20" transform="scale(0.015625)"/>
       <path id="DejaVuSans-66" d="M 2375 4863 
L 2375 4384 
L 1825 4384 
Q 1516 4384 1395 4259 
Q 1275 4134 1275 3809 
L 1275 3500 
L 2222 3500 
L 2222 3053 
L 1275 3053 
L 1275 0 
L 697 0 
L 697 3053 
L 147 3053 
L 147 3500 
L 697 3500 
L 697 3744 
Q 697 4328 969 4595 
Q 1241 4863 1831 4863 
L 2375 4863 
z
" transform="scale(0.015625)"/>
       <path id="DejaVuSans-73" d="M 2834 3397 
L 2834 2853 
Q 2591 2978 2328 3040 
Q 2066 3103 1784 3103 
Q 1356 3103 1142 2972 
Q 928 2841 928 2578 
Q 928 2378 1081 2264 
Q 1234 2150 1697 2047 
L 1894 2003 
Q 2506 1872 2764 1633 
Q 3022 1394 3022 966 
Q 3022 478 2636 193 
Q 2250 -91 1575 -91 
Q 1294 -91 989 -36 
Q 684 19 347 128 
L 347 722 
Q 666 556 975 473 
Q 1284 391 1588 391 
Q 1994 391 2212 530 
Q 2431 669 2431 922 
Q 2431 1156 2273 1281 
Q 2116 1406 1581 1522 
L 1381 1569 
Q 847 1681 609 1914 
Q 372 2147 372 2553 
Q 372 3047 722 3315 
Q 1072 3584 1716 3584 
Q 2034 3584 2315 3537 
Q 2597 3491 2834 3397 
z
" transform="scale(0.015625)"/>
       <path id="DejaVuSans-6c" d="M 603 4863 
L 1178 4863 
L 1178 0 
L 603 0 
L 603 4863 
z
" transform="scale(0.015625)"/>
       <path id="DejaVuSans-69" d="M 603 3500 
L 1178 3500 
L 1178 0 
L 603 0 
L 603 3500 
z
M 603 4863 
L 1178 4863 
L 1178 4134 
L 603 4134 
L 603 4863 
z
" transform="scale(0.015625)"/>
       <path id="DejaVuSans-6e" d="M 3513 2113 
L 3513 0 
L 2938 0 
L 2938 2094 
Q 2938 2591 2744 2837 
Q 2550 3084 2163 3084 
Q 1697 3084 1428 2787 
Q 1159 2491 1159 1978 
L 1159 0 
L 581 0 
L 581 3500 
L 1159 3500 
L 1159 2956 
Q 1366 3272 1645 3428 
Q 1925 3584 2291 3584 
Q 2894 3584 3203 3211 
Q 3513 2838 3513 2113 
z
" transform="scale(0.015625)"/>
       <path id="DejaVuSans-6b" d="M 581 4863 
L 1159 4863 
L 1159 1991 
L 2875 3500 
L 3609 3500 
L 1753 1863 
L 3688 0 
L 2938 0 
L 1159 1709 
L 1159 0 
L 581 0 
L 581 4863 
z
" transform="scale(0.015625)"/>
      </defs>
      <use xlink:href="#DejaVuSans-4e"/>
      <use xlink:href="#DejaVuSans-75" x="74.804688"/>
      <use xlink:href="#DejaVuSans-6d" x="138.183594"/>
      <use xlink:href="#DejaVuSans-62" x="235.595703"/>
      <use xlink:href="#DejaVuSans-65" x="299.072266"/>
      <use xlink:href="#DejaVuSans-72" x="360.595703"/>
      <use xlink:href="#DejaVuSans-20" x="401.708984"/>
      <use xlink:href="#DejaVuSans-6f" x="433.496094"/>
      <use xlink:href="#DejaVuSans-66" x="494.677734"/>
      <use xlink:href="#DejaVuSans-20" x="529.882812"/>
      <use xlink:href="#DejaVuSans-63" x="561.669922"/>
      <use xlink:href="#DejaVuSans-72" x="616.650391"/>
      <use xlink:href="#DejaVuSans-6f" x="655.513672"/>
      <use xlink:href="#DejaVuSans-73" x="716.695312"/>
      <use xlink:href="#DejaVuSans-73" x="768.794922"/>
      <use xlink:href="#DejaVuSans-6c" x="820.894531"/>
      <use xlink:href="#DejaVuSans-69" x="848.677734"/>
      <use xlink:href="#DejaVuSans-6e" x="876.460938"/>
      <use xlink:href="#DejaVuSans-6b" x="939.839844"/>
      <use xlink:href="#DejaVuSans-73" x="997.75"/>
     </g>
    </g>
   </g>
   <g id="patch_3">
    <path d="M 57.6 307.584 
L 57.6 41.472 
" style="fill: none; stroke: #000000; stroke-width: 0.8; stroke-linejoin: miter; stroke-linecap: square"/>
   </g>
   <g id="patch_4">
    <path d="M 414.72 307.584 
L 414.72 41.472 
" style="fill: none; stroke: #000000; stroke-width: 0.8; stroke-linejoin: miter; stroke-linecap: square"/>
   </g>
   <g id="patch_5">
    <path d="M 57.6 307.584 
L 414.72 307.584 
" style="fill: none; stroke: #000000; stroke-width: 0.8; stroke-linejoin: miter; stroke-linecap: square"/>
   </g>
   <g id="patch_6">
    <path d="M 57.6 41.472 
L 414.72 41.472 
" style="fill: none; stroke: #000000; stroke-width: 0.8; stroke-linejoin: miter; stroke-linecap: square"/>
   </g>
   <g id="legend_1">
    <g id="patch_7">
     <path d="M 293.087188 93.506375 
L 407.72 93.506375 
Q 409.72 93.506375 409.72 91.506375 
L 409.72 48.472 
Q 409.72 46.472 407.72 46.472 
L 293.087188 46.472 
Q 291.087188 46.472 291.087188 48.472 
L 291.087188 91.506375 
Q 291.087188 93.506375 293.087188 93.506375 
z
" style="fill: #ffffff; opacity: 0.8; stroke: #cccccc; stroke-linejoin: miter"/>
    </g>
    <g id="patch_8">
     <path d="M 295.087188 58.070438 
L 315.087188 58.070438 
L 315.087188 51.070438 
L 295.087188 51.070438 
z
" style="fill: #008000"/>
    </g>
    <g id="text_16">
     <!-- true -->
     <g transform="translate(323.087188 58.070438) scale(0.1 -0.1)">
      <defs>
       <path id="DejaVuSans-74" d="M 1172 4494 
L 1172 3500 
L 2356 3500 
L 2356 3053 
L 1172 3053 
L 1172 1153 
Q 1172 725 1289 603 
Q 1406 481 1766 481 
L 2356 481 
L 2356 0 
L 1766 0 
Q 1100 0 847 248 
Q 594 497 594 1153 
L 594 3053 
L 172 3053 
L 172 3500 
L 594 3500 
L 594 4494 
L 1172 4494 
z
" transform="scale(0.015625)"/>
      </defs>
      <use xlink:href="#DejaVuSans-74"/>
      <use xlink:href="#DejaVuSans-72" x="39.208984"/>
      <use xlink:href="#DejaVuSans-75" x="80.322266"/>
      <use xlink:href="#DejaVuSans-65" x="143.701172"/>
     </g>
    </g>
    <g id="patch_9">
     <path d="M 295.087188 72.748563 
L 315.087188 72.748563 
L 315.087188 65.748563 
L 295.087188 65.748563 
z
" style="fill: #7cfc00"/>
    </g>
    <g id="text_17">
     <!-- true homeotypic -->
     <g transform="translate(323.087188 72.748563) scale(0.1 -0.1)">
      <defs>
       <path id="DejaVuSans-68" d="M 3513 2113 
L 3513 0 
L 2938 0 
L 2938 2094 
Q 2938 2591 2744 2837 
Q 2550 3084 2163 3084 
Q 1697 3084 1428 2787 
Q 1159 2491 1159 1978 
L 1159 0 
L 581 0 
L 581 4863 
L 1159 4863 
L 1159 2956 
Q 1366 3272 1645 3428 
Q 1925 3584 2291 3584 
Q 2894 3584 3203 3211 
Q 3513 2838 3513 2113 
z
" transform="scale(0.015625)"/>
       <path id="DejaVuSans-79" d="M 2059 -325 
Q 1816 -950 1584 -1140 
Q 1353 -1331 966 -1331 
L 506 -1331 
L 506 -850 
L 844 -850 
Q 1081 -850 1212 -737 
Q 1344 -625 1503 -206 
L 1606 56 
L 191 3500 
L 800 3500 
L 1894 763 
L 2988 3500 
L 3597 3500 
L 2059 -325 
z
" transform="scale(0.015625)"/>
       <path id="DejaVuSans-70" d="M 1159 525 
L 1159 -1331 
L 581 -1331 
L 581 3500 
L 1159 3500 
L 1159 2969 
Q 1341 3281 1617 3432 
Q 1894 3584 2278 3584 
Q 2916 3584 3314 3078 
Q 3713 2572 3713 1747 
Q 3713 922 3314 415 
Q 2916 -91 2278 -91 
Q 1894 -91 1617 61 
Q 1341 213 1159 525 
z
M 3116 1747 
Q 3116 2381 2855 2742 
Q 2594 3103 2138 3103 
Q 1681 3103 1420 2742 
Q 1159 2381 1159 1747 
Q 1159 1113 1420 752 
Q 1681 391 2138 391 
Q 2594 391 2855 752 
Q 3116 1113 3116 1747 
z
" transform="scale(0.015625)"/>
      </defs>
      <use xlink:href="#DejaVuSans-74"/>
      <use xlink:href="#DejaVuSans-72" x="39.208984"/>
      <use xlink:href="#DejaVuSans-75" x="80.322266"/>
      <use xlink:href="#DejaVuSans-65" x="143.701172"/>
      <use xlink:href="#DejaVuSans-20" x="205.224609"/>
      <use xlink:href="#DejaVuSans-68" x="237.011719"/>
      <use xlink:href="#DejaVuSans-6f" x="300.390625"/>
      <use xlink:href="#DejaVuSans-6d" x="361.572266"/>
      <use xlink:href="#DejaVuSans-65" x="458.984375"/>
      <use xlink:href="#DejaVuSans-6f" x="520.507812"/>
      <use xlink:href="#DejaVuSans-74" x="581.689453"/>
      <use xlink:href="#DejaVuSans-79" x="620.898438"/>
      <use xlink:href="#DejaVuSans-70" x="680.078125"/>
      <use xlink:href="#DejaVuSans-69" x="743.554688"/>
      <use xlink:href="#DejaVuSans-63" x="771.337891"/>
     </g>
    </g>
    <g id="patch_10">
     <path d="M 295.087188 87.426688 
L 315.087188 87.426688 
L 315.087188 80.426688 
L 295.087188 80.426688 
z
" style="fill: #ff0000"/>
    </g>
    <g id="text_18">
     <!-- false -->
     <g transform="translate(323.087188 87.426688) scale(0.1 -0.1)">
      <defs>
       <path id="DejaVuSans-61" d="M 2194 1759 
Q 1497 1759 1228 1600 
Q 959 1441 959 1056 
Q 959 750 1161 570 
Q 1363 391 1709 391 
Q 2188 391 2477 730 
Q 2766 1069 2766 1631 
L 2766 1759 
L 2194 1759 
z
M 3341 1997 
L 3341 0 
L 2766 0 
L 2766 531 
Q 2569 213 2275 61 
Q 1981 -91 1556 -91 
Q 1019 -91 701 211 
Q 384 513 384 1019 
Q 384 1609 779 1909 
Q 1175 2209 1959 2209 
L 2766 2209 
L 2766 2266 
Q 2766 2663 2505 2880 
Q 2244 3097 1772 3097 
Q 1472 3097 1187 3025 
Q 903 2953 641 2809 
L 641 3341 
Q 956 3463 1253 3523 
Q 1550 3584 1831 3584 
Q 2591 3584 2966 3190 
Q 3341 2797 3341 1997 
z
" transform="scale(0.015625)"/>
      </defs>
      <use xlink:href="#DejaVuSans-66"/>
      <use xlink:href="#DejaVuSans-61" x="35.205078"/>
      <use xlink:href="#DejaVuSans-6c" x="96.484375"/>
      <use xlink:href="#DejaVuSans-73" x="124.267578"/>
      <use xlink:href="#DejaVuSans-65" x="176.367188"/>
     </g>
    </g>
   </g>
  </g>
 </g>
 <defs>
  <clipPath id="p177bad561c">
   <rect x="57.6" y="41.472" width="357.12" height="266.112"/>
  </clipPath>
 </defs>
</svg>
