<?xml version="1.0" encoding="utf-8" standalone="no"?>
<!DOCTYPE svg PUBLIC "-//W3C//DTD SVG 1.1//EN"
  "http://www.w3.org/Graphics/SVG/1.1/DTD/svg11.dtd">
<svg xmlns:xlink="http://www.w3.org/1999/xlink" width="460.8pt" height="345.6pt" viewBox="0 0 460.8 345.6" xmlns="http://www.w3.org/2000/svg" version="1.1">
 <metadata>
  <rdf:RDF xmlns:dc="http://purl.org/dc/elements/1.1/" xmlns:cc="http://creativecommons.org/ns#" xmlns:rdf="http://www.w3.org/1999/02/22-rdf-syntax-ns#">
   <cc:Work>
    <dc:type rdf:resource="http://purl.org/dc/dcmitype/StillImage"/>
    <dc:date>2024-10-30T16:06:07.106016</dc:date>
    <dc:format>image/svg+xml</dc:format>
    <dc:creator>
     <cc:Agent>
      <dc:title>Matplotlib v3.9.0, https://matplotlib.org/</dc:title>
     </cc:Agent>
    </dc:creator>
   </cc:Work>
  </rdf:RDF>
 </metadata>
 <defs>
  <style type="text/css">*{stroke-linejoin: round; stroke-linecap: butt}</style>
 </defs>
 <g id="figure_1">
  <g id="patch_1">
   <path d="M 0 345.6 
L 460.8 345.6 
L 460.8 0 
L 0 0 
z
" style="fill: #ffffff"/>
  </g>
  <g id="axes_1">
   <g id="patch_2">
    <path d="M 57.6 307.584 
L 414.72 307.584 
L 414.72 41.472 
L 57.6 41.472 
z
" style="fill: #ffffff"/>
   </g>
   <g id="PolyCollection_1">
    <path d="M 73.832727 125.853767 
L 73.832727 307.584 
L 74.151025 307.584 
L 74.522962 307.584 
L 75.46784 307.584 
L 76.925897 307.584 
L 77.279513 307.584 
L 77.794085 307.584 
L 79.013886 307.584 
L 79.189083 307.584 
L 79.677134 307.584 
L 79.783611 307.584 
L 80.122377 307.584 
L 80.575153 307.584 
L 80.605681 307.584 
L 80.87638 307.584 
L 81.062508 307.584 
L 82.061343 307.584 
L 82.326642 307.584 
L 82.576742 307.584 
L 82.79858 307.584 
L 83.052208 307.584 
L 83.301612 307.584 
L 84.970488 307.584 
L 85.961789 307.584 
L 86.515598 307.584 
L 87.213119 307.584 
L 87.24957 307.584 
L 87.748769 307.584 
L 88.863313 307.584 
L 89.804576 307.584 
L 90.046664 307.584 
L 90.162373 307.584 
L 90.26628 307.584 
L 90.387128 307.584 
L 91.149101 307.584 
L 92.082047 307.584 
L 92.766241 307.584 
L 95.000642 307.584 
L 95.199355 307.584 
L 95.243252 307.584 
L 95.347856 307.584 
L 95.63567 307.584 
L 96.092453 307.584 
L 96.092671 307.584 
L 96.902243 307.584 
L 98.081631 307.584 
L 98.407898 307.584 
L 98.447702 307.584 
L 98.991278 307.584 
L 99.006781 307.584 
L 100.668602 307.584 
L 102.903351 307.584 
L 102.973204 307.584 
L 103.379906 307.584 
L 104.492316 307.584 
L 104.50194 307.584 
L 105.643135 307.584 
L 106.306427 307.584 
L 106.74897 307.584 
L 106.871559 307.584 
L 107.333481 307.584 
L 107.79745 307.584 
L 107.981008 307.584 
L 108.316726 307.584 
L 108.888303 307.584 
L 110.088377 307.584 
L 111.289931 307.584 
L 111.836904 307.584 
L 113.873375 307.584 
L 114.323234 307.584 
L 114.335428 307.584 
L 114.957304 307.584 
L 117.109049 307.584 
L 119.288665 307.584 
L 119.589588 307.584 
L 119.971946 307.584 
L 121.088536 307.584 
L 121.992609 307.584 
L 122.496468 307.584 
L 123.414912 307.584 
L 125.051911 307.584 
L 125.500463 307.584 
L 125.591915 307.584 
L 126.368825 307.584 
L 126.766861 307.584 
L 128.166519 307.584 
L 129.214303 307.584 
L 129.2474 307.584 
L 129.408095 307.584 
L 129.624967 307.584 
L 129.980326 307.584 
L 131.094303 307.584 
L 132.554494 307.584 
L 133.274355 307.584 
L 133.783876 307.584 
L 133.881425 307.584 
L 134.095249 307.584 
L 134.269444 307.584 
L 134.984515 307.584 
L 135.161323 307.584 
L 136.325382 307.584 
L 137.102728 307.584 
L 137.275181 307.584 
L 137.370988 307.584 
L 139.748316 307.584 
L 140.071448 307.584 
L 140.239982 307.584 
L 140.757341 307.584 
L 140.914552 307.584 
L 140.942859 307.584 
L 141.278185 307.584 
L 141.571268 307.584 
L 142.920409 307.584 
L 143.336735 307.584 
L 143.612834 307.584 
L 143.641577 307.584 
L 143.75132 307.584 
L 145.435786 307.584 
L 145.5059 307.584 
L 145.858209 307.584 
L 147.730371 307.584 
L 147.744307 307.584 
L 148.894865 307.584 
L 149.044238 307.584 
L 149.588162 307.584 
L 151.287435 307.584 
L 151.352758 307.584 
L 151.399356 307.584 
L 153.096451 307.584 
L 153.235807 307.584 
L 153.239727 307.584 
L 154.574932 307.584 
L 155.444166 307.584 
L 156.904356 307.584 
L 157.124278 307.584 
L 157.157375 307.584 
L 157.986543 307.584 
L 158.828341 307.584 
L 159.589138 307.584 
L 159.967142 307.584 
L 161.531414 307.584 
L 162.378002 307.584 
L 163.276413 307.584 
L 163.994533 307.584 
L 165.270512 307.584 
L 165.324948 307.584 
L 165.354996 307.584 
L 165.649822 307.584 
L 165.786129 307.584 
L 166.564346 307.584 
L 166.728089 307.584 
L 167.537226 307.584 
L 168.789688 307.584 
L 170.198927 307.584 
L 170.307799 307.584 
L 170.489833 307.584 
L 171.098644 307.584 
L 172.038863 307.584 
L 172.782676 307.584 
L 173.073581 307.584 
L 173.095791 307.584 
L 175.989172 307.584 
L 177.511637 307.584 
L 177.765091 307.584 
L 178.125675 307.584 
L 178.160514 307.584 
L 181.296461 307.584 
L 181.889596 307.584 
L 182.572005 307.584 
L 182.693506 307.584 
L 183.022735 307.584 
L 183.378528 307.584 
L 183.731709 307.584 
L 184.849171 307.584 
L 185.252432 307.584 
L 185.862986 307.584 
L 185.892599 307.584 
L 186.51404 307.584 
L 187.449903 307.584 
L 189.291146 307.584 
L 189.595116 307.584 
L 191.07142 307.584 
L 191.200324 307.584 
L 193.186148 307.584 
L 193.278907 307.584 
L 193.747492 307.584 
L 194.277045 307.584 
L 194.491305 307.584 
L 195.155424 307.584 
L 195.595267 307.584 
L 196.069513 307.584 
L 196.412677 307.584 
L 196.820729 307.584 
L 200.064242 307.584 
L 200.549375 307.584 
L 200.766248 307.584 
L 201.469996 307.584 
L 201.779193 307.584 
L 202.306568 307.584 
L 202.914945 307.584 
L 203.501982 307.584 
L 204.262779 307.584 
L 204.924721 307.584 
L 204.926898 307.584 
L 208.487882 307.584 
L 209.606214 307.584 
L 209.783022 307.584 
L 211.442666 307.584 
L 212.153818 307.584 
L 213.141504 307.584 
L 213.434587 307.584 
L 213.751622 307.584 
L 216.121111 307.584 
L 217.446736 307.584 
L 218.15092 307.584 
L 218.24063 307.584 
L 219.005782 307.584 
L 219.433431 307.584 
L 219.61111 307.584 
L 220.871412 307.584 
L 223.505242 307.584 
L 225.055143 307.584 
L 227.16029 307.584 
L 228.259897 307.584 
L 229.645184 307.584 
L 230.385948 307.584 
L 231.854849 307.584 
L 235.262976 307.584 
L 236.089967 307.584 
L 247.01679 307.584 
L 247.338616 307.584 
L 248.053687 307.584 
L 248.16343 307.584 
L 248.321947 307.584 
L 250.512451 307.584 
L 251.034601 307.584 
L 256.669812 307.584 
L 260.067488 307.584 
L 260.408039 307.584 
L 260.464217 307.584 
L 265.98446 307.584 
L 270.096335 307.584 
L 270.529646 307.584 
L 273.910337 307.584 
L 277.522708 307.584 
L 281.11766 307.584 
L 284.564981 307.584 
L 285.279616 307.584 
L 290.873021 307.584 
L 294.336891 307.584 
L 296.122826 307.584 
L 300.488155 307.584 
L 301.221517 307.584 
L 306.71563 307.584 
L 307.937609 307.584 
L 314.548313 307.584 
L 390.338426 307.584 
L 398.487273 307.584 
L 398.487273 306.601674 
L 398.487273 306.601674 
L 390.338426 305.619349 
L 314.548313 304.637023 
L 307.937609 303.654698 
L 306.71563 302.672372 
L 301.221517 302.672372 
L 300.488155 302.672372 
L 296.122826 301.690047 
L 294.336891 300.707721 
L 290.873021 299.725395 
L 285.279616 298.74307 
L 284.564981 297.760744 
L 281.11766 296.778419 
L 277.522708 295.796093 
L 273.910337 294.813767 
L 270.529646 293.831442 
L 270.096335 292.849116 
L 265.98446 291.866791 
L 260.464217 290.884465 
L 260.408039 289.90214 
L 260.067488 288.919814 
L 256.669812 287.937488 
L 251.034601 286.955163 
L 250.512451 285.972837 
L 248.321947 284.990512 
L 248.16343 284.008186 
L 248.053687 283.02586 
L 247.338616 282.043535 
L 247.01679 281.061209 
L 236.089967 280.078884 
L 235.262976 279.096558 
L 231.854849 278.114233 
L 230.385948 277.131907 
L 229.645184 276.149581 
L 228.259897 275.167256 
L 227.16029 274.18493 
L 225.055143 273.202605 
L 223.505242 272.220279 
L 220.871412 271.237953 
L 219.61111 270.255628 
L 219.433431 269.273302 
L 219.005782 268.290977 
L 218.24063 267.308651 
L 218.15092 266.326326 
L 217.446736 265.344 
L 216.121111 264.361674 
L 213.751622 263.379349 
L 213.434587 263.379349 
L 213.141504 262.397023 
L 212.153818 261.414698 
L 211.442666 260.432372 
L 209.783022 259.450047 
L 209.606214 258.467721 
L 208.487882 257.485395 
L 204.926898 256.50307 
L 204.924721 255.520744 
L 204.262779 254.538419 
L 203.501982 253.556093 
L 202.914945 252.573767 
L 202.306568 251.591442 
L 201.779193 250.609116 
L 201.469996 249.626791 
L 200.766248 248.644465 
L 200.549375 247.66214 
L 200.064242 246.679814 
L 196.820729 245.697488 
L 196.412677 244.715163 
L 196.069513 243.732837 
L 195.595267 242.750512 
L 195.155424 241.768186 
L 194.491305 240.78586 
L 194.277045 239.803535 
L 193.747492 238.821209 
L 193.278907 238.821209 
L 193.186148 237.838884 
L 191.200324 236.856558 
L 191.07142 235.874233 
L 189.595116 234.891907 
L 189.291146 233.909581 
L 187.449903 232.927256 
L 186.51404 231.94493 
L 185.892599 230.962605 
L 185.862986 229.980279 
L 185.252432 229.980279 
L 184.849171 228.997953 
L 183.731709 228.015628 
L 183.378528 227.033302 
L 183.022735 226.050977 
L 182.693506 225.068651 
L 182.572005 224.086326 
L 181.889596 223.104 
L 181.296461 222.121674 
L 178.160514 221.139349 
L 178.125675 220.157023 
L 177.765091 219.174698 
L 177.511637 218.192372 
L 175.989172 217.210047 
L 173.095791 216.227721 
L 173.073581 215.245395 
L 172.782676 214.26307 
L 172.038863 213.280744 
L 171.098644 212.298419 
L 170.489833 211.316093 
L 170.307799 210.333767 
L 170.198927 209.351442 
L 168.789688 209.351442 
L 167.537226 208.369116 
L 166.728089 207.386791 
L 166.564346 206.404465 
L 165.786129 205.42214 
L 165.649822 204.439814 
L 165.354996 203.457488 
L 165.324948 202.475163 
L 165.270512 201.492837 
L 163.994533 200.510512 
L 163.276413 199.528186 
L 162.378002 198.54586 
L 161.531414 197.563535 
L 159.967142 196.581209 
L 159.589138 195.598884 
L 158.828341 194.616558 
L 157.986543 193.634233 
L 157.157375 192.651907 
L 157.124278 191.669581 
L 156.904356 190.687256 
L 155.444166 189.70493 
L 154.574932 189.70493 
L 153.239727 188.722605 
L 153.235807 187.740279 
L 153.096451 186.757953 
L 151.399356 185.775628 
L 151.352758 184.793302 
L 151.287435 183.810977 
L 149.588162 183.810977 
L 149.044238 182.828651 
L 148.894865 181.846326 
L 147.744307 180.864 
L 147.730371 179.881674 
L 145.858209 178.899349 
L 145.5059 177.917023 
L 145.435786 176.934698 
L 143.75132 176.934698 
L 143.641577 176.934698 
L 143.612834 176.934698 
L 143.336735 175.952372 
L 142.920409 174.970047 
L 141.571268 173.987721 
L 141.278185 173.987721 
L 140.942859 173.005395 
L 140.914552 173.005395 
L 140.757341 173.005395 
L 140.239982 173.005395 
L 140.071448 172.02307 
L 139.748316 171.040744 
L 137.370988 170.058419 
L 137.275181 169.076093 
L 137.102728 169.076093 
L 136.325382 168.093767 
L 135.161323 167.111442 
L 134.984515 167.111442 
L 134.269444 166.129116 
L 134.095249 165.146791 
L 133.881425 164.164465 
L 133.783876 164.164465 
L 133.274355 164.164465 
L 132.554494 163.18214 
L 131.094303 162.199814 
L 129.980326 161.217488 
L 129.624967 160.235163 
L 129.408095 160.235163 
L 129.2474 159.252837 
L 129.214303 158.270512 
L 128.166519 157.288186 
L 126.766861 156.30586 
L 126.368825 156.30586 
L 125.591915 155.323535 
L 125.500463 155.323535 
L 125.051911 155.323535 
L 123.414912 155.323535 
L 122.496468 155.323535 
L 121.992609 155.323535 
L 121.088536 155.323535 
L 119.971946 154.341209 
L 119.589588 153.358884 
L 119.288665 152.376558 
L 117.109049 151.394233 
L 114.957304 151.394233 
L 114.335428 150.411907 
L 114.323234 150.411907 
L 113.873375 150.411907 
L 111.836904 149.429581 
L 111.289931 148.447256 
L 110.088377 148.447256 
L 108.888303 148.447256 
L 108.316726 148.447256 
L 107.981008 148.447256 
L 107.79745 147.46493 
L 107.333481 147.46493 
L 106.871559 147.46493 
L 106.74897 146.482605 
L 106.306427 145.500279 
L 105.643135 145.500279 
L 104.50194 145.500279 
L 104.492316 145.500279 
L 103.379906 145.500279 
L 102.973204 145.500279 
L 102.903351 144.517953 
L 100.668602 143.535628 
L 99.006781 143.535628 
L 98.991278 142.553302 
L 98.447702 142.553302 
L 98.407898 141.570977 
L 98.081631 141.570977 
L 96.902243 140.588651 
L 96.092671 139.606326 
L 96.092453 139.606326 
L 95.63567 138.624 
L 95.347856 138.624 
L 95.243252 138.624 
L 95.199355 138.624 
L 95.000642 138.624 
L 92.766241 138.624 
L 92.082047 137.641674 
L 91.149101 137.641674 
L 90.387128 136.659349 
L 90.26628 136.659349 
L 90.162373 135.677023 
L 90.046664 134.694698 
L 89.804576 133.712372 
L 88.863313 132.730047 
L 87.748769 132.730047 
L 87.24957 132.730047 
L 87.213119 132.730047 
L 86.515598 132.730047 
L 85.961789 131.747721 
L 84.970488 131.747721 
L 83.301612 131.747721 
L 83.052208 131.747721 
L 82.79858 131.747721 
L 82.576742 131.747721 
L 82.326642 131.747721 
L 82.061343 130.765395 
L 81.062508 129.78307 
L 80.87638 129.78307 
L 80.605681 129.78307 
L 80.575153 128.800744 
L 80.122377 128.800744 
L 79.783611 128.800744 
L 79.677134 127.818419 
L 79.189083 127.818419 
L 79.013886 127.818419 
L 77.794085 127.818419 
L 77.279513 126.836093 
L 76.925897 126.836093 
L 75.46784 125.853767 
L 74.522962 125.853767 
L 74.151025 125.853767 
L 73.832727 125.853767 
z
" clip-path="url(#p47461fd026)" style="fill: #008000"/>
   </g>
   <g id="PolyCollection_2">
    <path d="M 73.832727 117.012837 
L 73.832727 125.853767 
L 74.151025 125.853767 
L 74.522962 125.853767 
L 75.46784 125.853767 
L 76.925897 126.836093 
L 77.279513 126.836093 
L 77.794085 127.818419 
L 79.013886 127.818419 
L 79.189083 127.818419 
L 79.677134 127.818419 
L 79.783611 128.800744 
L 80.122377 128.800744 
L 80.575153 128.800744 
L 80.605681 129.78307 
L 80.87638 129.78307 
L 81.062508 129.78307 
L 82.061343 130.765395 
L 82.326642 131.747721 
L 82.576742 131.747721 
L 82.79858 131.747721 
L 83.052208 131.747721 
L 83.301612 131.747721 
L 84.970488 131.747721 
L 85.961789 131.747721 
L 86.515598 132.730047 
L 87.213119 132.730047 
L 87.24957 132.730047 
L 87.748769 132.730047 
L 88.863313 132.730047 
L 89.804576 133.712372 
L 90.046664 134.694698 
L 90.162373 135.677023 
L 90.26628 136.659349 
L 90.387128 136.659349 
L 91.149101 137.641674 
L 92.082047 137.641674 
L 92.766241 138.624 
L 95.000642 138.624 
L 95.199355 138.624 
L 95.243252 138.624 
L 95.347856 138.624 
L 95.63567 138.624 
L 96.092453 139.606326 
L 96.092671 139.606326 
L 96.902243 140.588651 
L 98.081631 141.570977 
L 98.407898 141.570977 
L 98.447702 142.553302 
L 98.991278 142.553302 
L 99.006781 143.535628 
L 100.668602 143.535628 
L 102.903351 144.517953 
L 102.973204 145.500279 
L 103.379906 145.500279 
L 104.492316 145.500279 
L 104.50194 145.500279 
L 105.643135 145.500279 
L 106.306427 145.500279 
L 106.74897 146.482605 
L 106.871559 147.46493 
L 107.333481 147.46493 
L 107.79745 147.46493 
L 107.981008 148.447256 
L 108.316726 148.447256 
L 108.888303 148.447256 
L 110.088377 148.447256 
L 111.289931 148.447256 
L 111.836904 149.429581 
L 113.873375 150.411907 
L 114.323234 150.411907 
L 114.335428 150.411907 
L 114.957304 151.394233 
L 117.109049 151.394233 
L 119.288665 152.376558 
L 119.589588 153.358884 
L 119.971946 154.341209 
L 121.088536 155.323535 
L 121.992609 155.323535 
L 122.496468 155.323535 
L 123.414912 155.323535 
L 125.051911 155.323535 
L 125.500463 155.323535 
L 125.591915 155.323535 
L 126.368825 156.30586 
L 126.766861 156.30586 
L 128.166519 157.288186 
L 129.214303 158.270512 
L 129.2474 159.252837 
L 129.408095 160.235163 
L 129.624967 160.235163 
L 129.980326 161.217488 
L 131.094303 162.199814 
L 132.554494 163.18214 
L 133.274355 164.164465 
L 133.783876 164.164465 
L 133.881425 164.164465 
L 134.095249 165.146791 
L 134.269444 166.129116 
L 134.984515 167.111442 
L 135.161323 167.111442 
L 136.325382 168.093767 
L 137.102728 169.076093 
L 137.275181 169.076093 
L 137.370988 170.058419 
L 139.748316 171.040744 
L 140.071448 172.02307 
L 140.239982 173.005395 
L 140.757341 173.005395 
L 140.914552 173.005395 
L 140.942859 173.005395 
L 141.278185 173.987721 
L 141.571268 173.987721 
L 142.920409 174.970047 
L 143.336735 175.952372 
L 143.612834 176.934698 
L 143.641577 176.934698 
L 143.75132 176.934698 
L 145.435786 176.934698 
L 145.5059 177.917023 
L 145.858209 178.899349 
L 147.730371 179.881674 
L 147.744307 180.864 
L 148.894865 181.846326 
L 149.044238 182.828651 
L 149.588162 183.810977 
L 151.287435 183.810977 
L 151.352758 184.793302 
L 151.399356 185.775628 
L 153.096451 186.757953 
L 153.235807 187.740279 
L 153.239727 188.722605 
L 154.574932 189.70493 
L 155.444166 189.70493 
L 156.904356 190.687256 
L 157.124278 191.669581 
L 157.157375 192.651907 
L 157.986543 193.634233 
L 158.828341 194.616558 
L 159.589138 195.598884 
L 159.967142 196.581209 
L 161.531414 197.563535 
L 162.378002 198.54586 
L 163.276413 199.528186 
L 163.994533 200.510512 
L 165.270512 201.492837 
L 165.324948 202.475163 
L 165.354996 203.457488 
L 165.649822 204.439814 
L 165.786129 205.42214 
L 166.564346 206.404465 
L 166.728089 207.386791 
L 167.537226 208.369116 
L 168.789688 209.351442 
L 170.198927 209.351442 
L 170.307799 210.333767 
L 170.489833 211.316093 
L 171.098644 212.298419 
L 172.038863 213.280744 
L 172.782676 214.26307 
L 173.073581 215.245395 
L 173.095791 216.227721 
L 175.989172 217.210047 
L 177.511637 218.192372 
L 177.765091 219.174698 
L 178.125675 220.157023 
L 178.160514 221.139349 
L 181.296461 222.121674 
L 181.889596 223.104 
L 182.572005 224.086326 
L 182.693506 225.068651 
L 183.022735 226.050977 
L 183.378528 227.033302 
L 183.731709 228.015628 
L 184.849171 228.997953 
L 185.252432 229.980279 
L 185.862986 229.980279 
L 185.892599 230.962605 
L 186.51404 231.94493 
L 187.449903 232.927256 
L 189.291146 233.909581 
L 189.595116 234.891907 
L 191.07142 235.874233 
L 191.200324 236.856558 
L 193.186148 237.838884 
L 193.278907 238.821209 
L 193.747492 238.821209 
L 194.277045 239.803535 
L 194.491305 240.78586 
L 195.155424 241.768186 
L 195.595267 242.750512 
L 196.069513 243.732837 
L 196.412677 244.715163 
L 196.820729 245.697488 
L 200.064242 246.679814 
L 200.549375 247.66214 
L 200.766248 248.644465 
L 201.469996 249.626791 
L 201.779193 250.609116 
L 202.306568 251.591442 
L 202.914945 252.573767 
L 203.501982 253.556093 
L 204.262779 254.538419 
L 204.924721 255.520744 
L 204.926898 256.50307 
L 208.487882 257.485395 
L 209.606214 258.467721 
L 209.783022 259.450047 
L 211.442666 260.432372 
L 212.153818 261.414698 
L 213.141504 262.397023 
L 213.434587 263.379349 
L 213.751622 263.379349 
L 216.121111 264.361674 
L 217.446736 265.344 
L 218.15092 266.326326 
L 218.24063 267.308651 
L 219.005782 268.290977 
L 219.433431 269.273302 
L 219.61111 270.255628 
L 220.871412 271.237953 
L 223.505242 272.220279 
L 225.055143 273.202605 
L 227.16029 274.18493 
L 228.259897 275.167256 
L 229.645184 276.149581 
L 230.385948 277.131907 
L 231.854849 278.114233 
L 235.262976 279.096558 
L 236.089967 280.078884 
L 247.01679 281.061209 
L 247.338616 282.043535 
L 248.053687 283.02586 
L 248.16343 284.008186 
L 248.321947 284.990512 
L 250.512451 285.972837 
L 251.034601 286.955163 
L 256.669812 287.937488 
L 260.067488 288.919814 
L 260.408039 289.90214 
L 260.464217 290.884465 
L 265.98446 291.866791 
L 270.096335 292.849116 
L 270.529646 293.831442 
L 273.910337 294.813767 
L 277.522708 295.796093 
L 281.11766 296.778419 
L 284.564981 297.760744 
L 285.279616 298.74307 
L 290.873021 299.725395 
L 294.336891 300.707721 
L 296.122826 301.690047 
L 300.488155 302.672372 
L 301.221517 302.672372 
L 306.71563 302.672372 
L 307.937609 303.654698 
L 314.548313 304.637023 
L 390.338426 305.619349 
L 398.487273 306.601674 
L 398.487273 306.601674 
L 398.487273 306.601674 
L 390.338426 305.619349 
L 314.548313 304.637023 
L 307.937609 303.654698 
L 306.71563 302.672372 
L 301.221517 302.672372 
L 300.488155 301.690047 
L 296.122826 300.707721 
L 294.336891 299.725395 
L 290.873021 298.74307 
L 285.279616 297.760744 
L 284.564981 296.778419 
L 281.11766 295.796093 
L 277.522708 294.813767 
L 273.910337 293.831442 
L 270.529646 292.849116 
L 270.096335 291.866791 
L 265.98446 290.884465 
L 260.464217 289.90214 
L 260.408039 288.919814 
L 260.067488 287.937488 
L 256.669812 286.955163 
L 251.034601 285.972837 
L 250.512451 284.990512 
L 248.321947 284.008186 
L 248.16343 283.02586 
L 248.053687 282.043535 
L 247.338616 281.061209 
L 247.01679 280.078884 
L 236.089967 279.096558 
L 235.262976 278.114233 
L 231.854849 277.131907 
L 230.385948 276.149581 
L 229.645184 275.167256 
L 228.259897 274.18493 
L 227.16029 273.202605 
L 225.055143 272.220279 
L 223.505242 271.237953 
L 220.871412 270.255628 
L 219.61111 269.273302 
L 219.433431 268.290977 
L 219.005782 267.308651 
L 218.24063 266.326326 
L 218.15092 265.344 
L 217.446736 264.361674 
L 216.121111 263.379349 
L 213.751622 262.397023 
L 213.434587 261.414698 
L 213.141504 260.432372 
L 212.153818 259.450047 
L 211.442666 258.467721 
L 209.783022 257.485395 
L 209.606214 256.50307 
L 208.487882 255.520744 
L 204.926898 254.538419 
L 204.924721 253.556093 
L 204.262779 252.573767 
L 203.501982 251.591442 
L 202.914945 250.609116 
L 202.306568 249.626791 
L 201.779193 248.644465 
L 201.469996 247.66214 
L 200.766248 246.679814 
L 200.549375 245.697488 
L 200.064242 244.715163 
L 196.820729 243.732837 
L 196.412677 242.750512 
L 196.069513 241.768186 
L 195.595267 240.78586 
L 195.155424 239.803535 
L 194.491305 238.821209 
L 194.277045 237.838884 
L 193.747492 236.856558 
L 193.278907 235.874233 
L 193.186148 234.891907 
L 191.200324 233.909581 
L 191.07142 232.927256 
L 189.595116 231.94493 
L 189.291146 230.962605 
L 187.449903 229.980279 
L 186.51404 228.997953 
L 185.892599 228.015628 
L 185.862986 227.033302 
L 185.252432 226.050977 
L 184.849171 225.068651 
L 183.731709 224.086326 
L 183.378528 223.104 
L 183.022735 222.121674 
L 182.693506 221.139349 
L 182.572005 220.157023 
L 181.889596 219.174698 
L 181.296461 218.192372 
L 178.160514 217.210047 
L 178.125675 216.227721 
L 177.765091 215.245395 
L 177.511637 214.26307 
L 175.989172 213.280744 
L 173.095791 212.298419 
L 173.073581 211.316093 
L 172.782676 210.333767 
L 172.038863 209.351442 
L 171.098644 208.369116 
L 170.489833 207.386791 
L 170.307799 206.404465 
L 170.198927 205.42214 
L 168.789688 205.42214 
L 167.537226 204.439814 
L 166.728089 203.457488 
L 166.564346 202.475163 
L 165.786129 201.492837 
L 165.649822 200.510512 
L 165.354996 199.528186 
L 165.324948 198.54586 
L 165.270512 197.563535 
L 163.994533 196.581209 
L 163.276413 195.598884 
L 162.378002 194.616558 
L 161.531414 193.634233 
L 159.967142 192.651907 
L 159.589138 191.669581 
L 158.828341 190.687256 
L 157.986543 189.70493 
L 157.157375 188.722605 
L 157.124278 187.740279 
L 156.904356 186.757953 
L 155.444166 185.775628 
L 154.574932 185.775628 
L 153.239727 184.793302 
L 153.235807 183.810977 
L 153.096451 182.828651 
L 151.399356 181.846326 
L 151.352758 180.864 
L 151.287435 179.881674 
L 149.588162 179.881674 
L 149.044238 178.899349 
L 148.894865 177.917023 
L 147.744307 176.934698 
L 147.730371 175.952372 
L 145.858209 174.970047 
L 145.5059 173.987721 
L 145.435786 173.005395 
L 143.75132 173.005395 
L 143.641577 173.005395 
L 143.612834 173.005395 
L 143.336735 172.02307 
L 142.920409 171.040744 
L 141.571268 170.058419 
L 141.278185 170.058419 
L 140.942859 169.076093 
L 140.914552 168.093767 
L 140.757341 168.093767 
L 140.239982 167.111442 
L 140.071448 166.129116 
L 139.748316 165.146791 
L 137.370988 164.164465 
L 137.275181 163.18214 
L 137.102728 163.18214 
L 136.325382 162.199814 
L 135.161323 161.217488 
L 134.984515 161.217488 
L 134.269444 160.235163 
L 134.095249 159.252837 
L 133.881425 158.270512 
L 133.783876 158.270512 
L 133.274355 158.270512 
L 132.554494 157.288186 
L 131.094303 156.30586 
L 129.980326 155.323535 
L 129.624967 154.341209 
L 129.408095 154.341209 
L 129.2474 153.358884 
L 129.214303 152.376558 
L 128.166519 151.394233 
L 126.766861 150.411907 
L 126.368825 150.411907 
L 125.591915 149.429581 
L 125.500463 149.429581 
L 125.051911 149.429581 
L 123.414912 149.429581 
L 122.496468 149.429581 
L 121.992609 149.429581 
L 121.088536 149.429581 
L 119.971946 148.447256 
L 119.589588 147.46493 
L 119.288665 146.482605 
L 117.109049 145.500279 
L 114.957304 144.517953 
L 114.335428 143.535628 
L 114.323234 143.535628 
L 113.873375 143.535628 
L 111.836904 142.553302 
L 111.289931 141.570977 
L 110.088377 141.570977 
L 108.888303 141.570977 
L 108.316726 140.588651 
L 107.981008 140.588651 
L 107.79745 139.606326 
L 107.333481 139.606326 
L 106.871559 139.606326 
L 106.74897 138.624 
L 106.306427 137.641674 
L 105.643135 137.641674 
L 104.50194 137.641674 
L 104.492316 137.641674 
L 103.379906 137.641674 
L 102.973204 137.641674 
L 102.903351 136.659349 
L 100.668602 135.677023 
L 99.006781 135.677023 
L 98.991278 134.694698 
L 98.447702 134.694698 
L 98.407898 133.712372 
L 98.081631 133.712372 
L 96.902243 132.730047 
L 96.092671 131.747721 
L 96.092453 131.747721 
L 95.63567 130.765395 
L 95.347856 130.765395 
L 95.243252 130.765395 
L 95.199355 130.765395 
L 95.000642 130.765395 
L 92.766241 130.765395 
L 92.082047 129.78307 
L 91.149101 129.78307 
L 90.387128 128.800744 
L 90.26628 128.800744 
L 90.162373 127.818419 
L 90.046664 126.836093 
L 89.804576 125.853767 
L 88.863313 124.871442 
L 87.748769 124.871442 
L 87.24957 124.871442 
L 87.213119 124.871442 
L 86.515598 124.871442 
L 85.961789 123.889116 
L 84.970488 123.889116 
L 83.301612 123.889116 
L 83.052208 123.889116 
L 82.79858 123.889116 
L 82.576742 123.889116 
L 82.326642 122.906791 
L 82.061343 121.924465 
L 81.062508 120.94214 
L 80.87638 120.94214 
L 80.605681 120.94214 
L 80.575153 119.959814 
L 80.122377 119.959814 
L 79.783611 119.959814 
L 79.677134 118.977488 
L 79.189083 118.977488 
L 79.013886 118.977488 
L 77.794085 118.977488 
L 77.279513 117.995163 
L 76.925897 117.995163 
L 75.46784 117.012837 
L 74.522962 117.012837 
L 74.151025 117.012837 
L 73.832727 117.012837 
z
" clip-path="url(#p47461fd026)" style="fill: #7cfc00"/>
   </g>
   <g id="PolyCollection_3">
    <path d="M 73.832727 54.144 
L 73.832727 117.012837 
L 74.151025 117.012837 
L 74.522962 117.012837 
L 75.46784 117.012837 
L 76.925897 117.995163 
L 77.279513 117.995163 
L 77.794085 118.977488 
L 79.013886 118.977488 
L 79.189083 118.977488 
L 79.677134 118.977488 
L 79.783611 119.959814 
L 80.122377 119.959814 
L 80.575153 119.959814 
L 80.605681 120.94214 
L 80.87638 120.94214 
L 81.062508 120.94214 
L 82.061343 121.924465 
L 82.326642 122.906791 
L 82.576742 123.889116 
L 82.79858 123.889116 
L 83.052208 123.889116 
L 83.301612 123.889116 
L 84.970488 123.889116 
L 85.961789 123.889116 
L 86.515598 124.871442 
L 87.213119 124.871442 
L 87.24957 124.871442 
L 87.748769 124.871442 
L 88.863313 124.871442 
L 89.804576 125.853767 
L 90.046664 126.836093 
L 90.162373 127.818419 
L 90.26628 128.800744 
L 90.387128 128.800744 
L 91.149101 129.78307 
L 92.082047 129.78307 
L 92.766241 130.765395 
L 95.000642 130.765395 
L 95.199355 130.765395 
L 95.243252 130.765395 
L 95.347856 130.765395 
L 95.63567 130.765395 
L 96.092453 131.747721 
L 96.092671 131.747721 
L 96.902243 132.730047 
L 98.081631 133.712372 
L 98.407898 133.712372 
L 98.447702 134.694698 
L 98.991278 134.694698 
L 99.006781 135.677023 
L 100.668602 135.677023 
L 102.903351 136.659349 
L 102.973204 137.641674 
L 103.379906 137.641674 
L 104.492316 137.641674 
L 104.50194 137.641674 
L 105.643135 137.641674 
L 106.306427 137.641674 
L 106.74897 138.624 
L 106.871559 139.606326 
L 107.333481 139.606326 
L 107.79745 139.606326 
L 107.981008 140.588651 
L 108.316726 140.588651 
L 108.888303 141.570977 
L 110.088377 141.570977 
L 111.289931 141.570977 
L 111.836904 142.553302 
L 113.873375 143.535628 
L 114.323234 143.535628 
L 114.335428 143.535628 
L 114.957304 144.517953 
L 117.109049 145.500279 
L 119.288665 146.482605 
L 119.589588 147.46493 
L 119.971946 148.447256 
L 121.088536 149.429581 
L 121.992609 149.429581 
L 122.496468 149.429581 
L 123.414912 149.429581 
L 125.051911 149.429581 
L 125.500463 149.429581 
L 125.591915 149.429581 
L 126.368825 150.411907 
L 126.766861 150.411907 
L 128.166519 151.394233 
L 129.214303 152.376558 
L 129.2474 153.358884 
L 129.408095 154.341209 
L 129.624967 154.341209 
L 129.980326 155.323535 
L 131.094303 156.30586 
L 132.554494 157.288186 
L 133.274355 158.270512 
L 133.783876 158.270512 
L 133.881425 158.270512 
L 134.095249 159.252837 
L 134.269444 160.235163 
L 134.984515 161.217488 
L 135.161323 161.217488 
L 136.325382 162.199814 
L 137.102728 163.18214 
L 137.275181 163.18214 
L 137.370988 164.164465 
L 139.748316 165.146791 
L 140.071448 166.129116 
L 140.239982 167.111442 
L 140.757341 168.093767 
L 140.914552 168.093767 
L 140.942859 169.076093 
L 141.278185 170.058419 
L 141.571268 170.058419 
L 142.920409 171.040744 
L 143.336735 172.02307 
L 143.612834 173.005395 
L 143.641577 173.005395 
L 143.75132 173.005395 
L 145.435786 173.005395 
L 145.5059 173.987721 
L 145.858209 174.970047 
L 147.730371 175.952372 
L 147.744307 176.934698 
L 148.894865 177.917023 
L 149.044238 178.899349 
L 149.588162 179.881674 
L 151.287435 179.881674 
L 151.352758 180.864 
L 151.399356 181.846326 
L 153.096451 182.828651 
L 153.235807 183.810977 
L 153.239727 184.793302 
L 154.574932 185.775628 
L 155.444166 185.775628 
L 156.904356 186.757953 
L 157.124278 187.740279 
L 157.157375 188.722605 
L 157.986543 189.70493 
L 158.828341 190.687256 
L 159.589138 191.669581 
L 159.967142 192.651907 
L 161.531414 193.634233 
L 162.378002 194.616558 
L 163.276413 195.598884 
L 163.994533 196.581209 
L 165.270512 197.563535 
L 165.324948 198.54586 
L 165.354996 199.528186 
L 165.649822 200.510512 
L 165.786129 201.492837 
L 166.564346 202.475163 
L 166.728089 203.457488 
L 167.537226 204.439814 
L 168.789688 205.42214 
L 170.198927 205.42214 
L 170.307799 206.404465 
L 170.489833 207.386791 
L 171.098644 208.369116 
L 172.038863 209.351442 
L 172.782676 210.333767 
L 173.073581 211.316093 
L 173.095791 212.298419 
L 175.989172 213.280744 
L 177.511637 214.26307 
L 177.765091 215.245395 
L 178.125675 216.227721 
L 178.160514 217.210047 
L 181.296461 218.192372 
L 181.889596 219.174698 
L 182.572005 220.157023 
L 182.693506 221.139349 
L 183.022735 222.121674 
L 183.378528 223.104 
L 183.731709 224.086326 
L 184.849171 225.068651 
L 185.252432 226.050977 
L 185.862986 227.033302 
L 185.892599 228.015628 
L 186.51404 228.997953 
L 187.449903 229.980279 
L 189.291146 230.962605 
L 189.595116 231.94493 
L 191.07142 232.927256 
L 191.200324 233.909581 
L 193.186148 234.891907 
L 193.278907 235.874233 
L 193.747492 236.856558 
L 194.277045 237.838884 
L 194.491305 238.821209 
L 195.155424 239.803535 
L 195.595267 240.78586 
L 196.069513 241.768186 
L 196.412677 242.750512 
L 196.820729 243.732837 
L 200.064242 244.715163 
L 200.549375 245.697488 
L 200.766248 246.679814 
L 201.469996 247.66214 
L 201.779193 248.644465 
L 202.306568 249.626791 
L 202.914945 250.609116 
L 203.501982 251.591442 
L 204.262779 252.573767 
L 204.924721 253.556093 
L 204.926898 254.538419 
L 208.487882 255.520744 
L 209.606214 256.50307 
L 209.783022 257.485395 
L 211.442666 258.467721 
L 212.153818 259.450047 
L 213.141504 260.432372 
L 213.434587 261.414698 
L 213.751622 262.397023 
L 216.121111 263.379349 
L 217.446736 264.361674 
L 218.15092 265.344 
L 218.24063 266.326326 
L 219.005782 267.308651 
L 219.433431 268.290977 
L 219.61111 269.273302 
L 220.871412 270.255628 
L 223.505242 271.237953 
L 225.055143 272.220279 
L 227.16029 273.202605 
L 228.259897 274.18493 
L 229.645184 275.167256 
L 230.385948 276.149581 
L 231.854849 277.131907 
L 235.262976 278.114233 
L 236.089967 279.096558 
L 247.01679 280.078884 
L 247.338616 281.061209 
L 248.053687 282.043535 
L 248.16343 283.02586 
L 248.321947 284.008186 
L 250.512451 284.990512 
L 251.034601 285.972837 
L 256.669812 286.955163 
L 260.067488 287.937488 
L 260.408039 288.919814 
L 260.464217 289.90214 
L 265.98446 290.884465 
L 270.096335 291.866791 
L 270.529646 292.849116 
L 273.910337 293.831442 
L 277.522708 294.813767 
L 281.11766 295.796093 
L 284.564981 296.778419 
L 285.279616 297.760744 
L 290.873021 298.74307 
L 294.336891 299.725395 
L 296.122826 300.707721 
L 300.488155 301.690047 
L 301.221517 302.672372 
L 306.71563 302.672372 
L 307.937609 303.654698 
L 314.548313 304.637023 
L 390.338426 305.619349 
L 398.487273 306.601674 
L 398.487273 306.601674 
L 398.487273 306.601674 
L 390.338426 305.619349 
L 314.548313 304.637023 
L 307.937609 303.654698 
L 306.71563 302.672372 
L 301.221517 301.690047 
L 300.488155 300.707721 
L 296.122826 299.725395 
L 294.336891 298.74307 
L 290.873021 297.760744 
L 285.279616 296.778419 
L 284.564981 295.796093 
L 281.11766 294.813767 
L 277.522708 293.831442 
L 273.910337 292.849116 
L 270.529646 291.866791 
L 270.096335 290.884465 
L 265.98446 289.90214 
L 260.464217 288.919814 
L 260.408039 287.937488 
L 260.067488 286.955163 
L 256.669812 285.972837 
L 251.034601 284.990512 
L 250.512451 284.008186 
L 248.321947 283.02586 
L 248.16343 282.043535 
L 248.053687 281.061209 
L 247.338616 280.078884 
L 247.01679 279.096558 
L 236.089967 278.114233 
L 235.262976 277.131907 
L 231.854849 276.149581 
L 230.385948 275.167256 
L 229.645184 274.18493 
L 228.259897 273.202605 
L 227.16029 272.220279 
L 225.055143 271.237953 
L 223.505242 270.255628 
L 220.871412 269.273302 
L 219.61111 268.290977 
L 219.433431 267.308651 
L 219.005782 266.326326 
L 218.24063 265.344 
L 218.15092 264.361674 
L 217.446736 263.379349 
L 216.121111 262.397023 
L 213.751622 261.414698 
L 213.434587 260.432372 
L 213.141504 259.450047 
L 212.153818 258.467721 
L 211.442666 257.485395 
L 209.783022 256.50307 
L 209.606214 255.520744 
L 208.487882 254.538419 
L 204.926898 253.556093 
L 204.924721 252.573767 
L 204.262779 251.591442 
L 203.501982 250.609116 
L 202.914945 249.626791 
L 202.306568 248.644465 
L 201.779193 247.66214 
L 201.469996 246.679814 
L 200.766248 245.697488 
L 200.549375 244.715163 
L 200.064242 243.732837 
L 196.820729 242.750512 
L 196.412677 241.768186 
L 196.069513 240.78586 
L 195.595267 239.803535 
L 195.155424 238.821209 
L 194.491305 237.838884 
L 194.277045 236.856558 
L 193.747492 235.874233 
L 193.278907 234.891907 
L 193.186148 233.909581 
L 191.200324 232.927256 
L 191.07142 231.94493 
L 189.595116 230.962605 
L 189.291146 229.980279 
L 187.449903 228.997953 
L 186.51404 228.015628 
L 185.892599 227.033302 
L 185.862986 226.050977 
L 185.252432 225.068651 
L 184.849171 224.086326 
L 183.731709 223.104 
L 183.378528 222.121674 
L 183.022735 221.139349 
L 182.693506 220.157023 
L 182.572005 219.174698 
L 181.889596 218.192372 
L 181.296461 217.210047 
L 178.160514 216.227721 
L 178.125675 215.245395 
L 177.765091 214.26307 
L 177.511637 213.280744 
L 175.989172 212.298419 
L 173.095791 211.316093 
L 173.073581 210.333767 
L 172.782676 209.351442 
L 172.038863 208.369116 
L 171.098644 207.386791 
L 170.489833 206.404465 
L 170.307799 205.42214 
L 170.198927 204.439814 
L 168.789688 203.457488 
L 167.537226 202.475163 
L 166.728089 201.492837 
L 166.564346 200.510512 
L 165.786129 199.528186 
L 165.649822 198.54586 
L 165.354996 197.563535 
L 165.324948 196.581209 
L 165.270512 195.598884 
L 163.994533 194.616558 
L 163.276413 193.634233 
L 162.378002 192.651907 
L 161.531414 191.669581 
L 159.967142 190.687256 
L 159.589138 189.70493 
L 158.828341 188.722605 
L 157.986543 187.740279 
L 157.157375 186.757953 
L 157.124278 185.775628 
L 156.904356 184.793302 
L 155.444166 183.810977 
L 154.574932 182.828651 
L 153.239727 181.846326 
L 153.235807 180.864 
L 153.096451 179.881674 
L 151.399356 178.899349 
L 151.352758 177.917023 
L 151.287435 176.934698 
L 149.588162 175.952372 
L 149.044238 174.970047 
L 148.894865 173.987721 
L 147.744307 173.005395 
L 147.730371 172.02307 
L 145.858209 171.040744 
L 145.5059 170.058419 
L 145.435786 169.076093 
L 143.75132 168.093767 
L 143.641577 167.111442 
L 143.612834 166.129116 
L 143.336735 165.146791 
L 142.920409 164.164465 
L 141.571268 163.18214 
L 141.278185 162.199814 
L 140.942859 161.217488 
L 140.914552 160.235163 
L 140.757341 159.252837 
L 140.239982 158.270512 
L 140.071448 157.288186 
L 139.748316 156.30586 
L 137.370988 155.323535 
L 137.275181 154.341209 
L 137.102728 153.358884 
L 136.325382 152.376558 
L 135.161323 151.394233 
L 134.984515 150.411907 
L 134.269444 149.429581 
L 134.095249 148.447256 
L 133.881425 147.46493 
L 133.783876 146.482605 
L 133.274355 145.500279 
L 132.554494 144.517953 
L 131.094303 143.535628 
L 129.980326 142.553302 
L 129.624967 141.570977 
L 129.408095 140.588651 
L 129.2474 139.606326 
L 129.214303 138.624 
L 128.166519 137.641674 
L 126.766861 136.659349 
L 126.368825 135.677023 
L 125.591915 134.694698 
L 125.500463 133.712372 
L 125.051911 132.730047 
L 123.414912 131.747721 
L 122.496468 130.765395 
L 121.992609 129.78307 
L 121.088536 128.800744 
L 119.971946 127.818419 
L 119.589588 126.836093 
L 119.288665 125.853767 
L 117.109049 124.871442 
L 114.957304 123.889116 
L 114.335428 122.906791 
L 114.323234 121.924465 
L 113.873375 120.94214 
L 111.836904 119.959814 
L 111.289931 118.977488 
L 110.088377 117.995163 
L 108.888303 117.012837 
L 108.316726 116.030512 
L 107.981008 115.048186 
L 107.79745 114.06586 
L 107.333481 113.083535 
L 106.871559 112.101209 
L 106.74897 111.118884 
L 106.306427 110.136558 
L 105.643135 109.154233 
L 104.50194 108.171907 
L 104.492316 107.189581 
L 103.379906 106.207256 
L 102.973204 105.22493 
L 102.903351 104.242605 
L 100.668602 103.260279 
L 99.006781 102.277953 
L 98.991278 101.295628 
L 98.447702 100.313302 
L 98.407898 99.330977 
L 98.081631 98.348651 
L 96.902243 97.366326 
L 96.092671 96.384 
L 96.092453 95.401674 
L 95.63567 94.419349 
L 95.347856 93.437023 
L 95.243252 92.454698 
L 95.199355 91.472372 
L 95.000642 90.490047 
L 92.766241 89.507721 
L 92.082047 88.525395 
L 91.149101 87.54307 
L 90.387128 86.560744 
L 90.26628 85.578419 
L 90.162373 84.596093 
L 90.046664 83.613767 
L 89.804576 82.631442 
L 88.863313 81.649116 
L 87.748769 80.666791 
L 87.24957 79.684465 
L 87.213119 78.70214 
L 86.515598 77.719814 
L 85.961789 76.737488 
L 84.970488 75.755163 
L 83.301612 74.772837 
L 83.052208 73.790512 
L 82.79858 72.808186 
L 82.576742 71.82586 
L 82.326642 70.843535 
L 82.061343 69.861209 
L 81.062508 68.878884 
L 80.87638 67.896558 
L 80.605681 66.914233 
L 80.575153 65.931907 
L 80.122377 64.949581 
L 79.783611 63.967256 
L 79.677134 62.98493 
L 79.189083 62.002605 
L 79.013886 61.020279 
L 77.794085 60.037953 
L 77.279513 59.055628 
L 76.925897 58.073302 
L 75.46784 57.090977 
L 74.522962 56.108651 
L 74.151025 55.126326 
L 73.832727 54.144 
z
" clip-path="url(#p47461fd026)" style="fill: #ff0000"/>
   </g>
   <g id="matplotlib.axis_1">
    <g id="xtick_1">
     <g id="line2d_1">
      <defs>
       <path id="mb2754ad4e7" d="M 0 0 
L 0 3.5 
" style="stroke: #000000; stroke-width: 0.8"/>
      </defs>
      <g>
       <use xlink:href="#mb2754ad4e7" x="70.056774" y="307.584" style="stroke: #000000; stroke-width: 0.8"/>
      </g>
     </g>
     <g id="text_1">
      <!-- 0 -->
      <g transform="translate(66.875524 322.182437) scale(0.1 -0.1)">
       <defs>
        <path id="DejaVuSans-30" d="M 2034 4250 
Q 1547 4250 1301 3770 
Q 1056 3291 1056 2328 
Q 1056 1369 1301 889 
Q 1547 409 2034 409 
Q 2525 409 2770 889 
Q 3016 1369 3016 2328 
Q 3016 3291 2770 3770 
Q 2525 4250 2034 4250 
z
M 2034 4750 
Q 2819 4750 3233 4129 
Q 3647 3509 3647 2328 
Q 3647 1150 3233 529 
Q 2819 -91 2034 -91 
Q 1250 -91 836 529 
Q 422 1150 422 2328 
Q 422 3509 836 4129 
Q 1250 4750 2034 4750 
z
" transform="scale(0.015625)"/>
       </defs>
       <use xlink:href="#DejaVuSans-30"/>
      </g>
     </g>
    </g>
    <g id="xtick_2">
     <g id="line2d_2">
      <g>
       <use xlink:href="#mb2754ad4e7" x="113.60555" y="307.584" style="stroke: #000000; stroke-width: 0.8"/>
      </g>
     </g>
     <g id="text_2">
      <!-- 1 -->
      <g transform="translate(110.4243 322.182437) scale(0.1 -0.1)">
       <defs>
        <path id="DejaVuSans-31" d="M 794 531 
L 1825 531 
L 1825 4091 
L 703 3866 
L 703 4441 
L 1819 4666 
L 2450 4666 
L 2450 531 
L 3481 531 
L 3481 0 
L 794 0 
L 794 531 
z
" transform="scale(0.015625)"/>
       </defs>
       <use xlink:href="#DejaVuSans-31"/>
      </g>
     </g>
    </g>
    <g id="xtick_3">
     <g id="line2d_3">
      <g>
       <use xlink:href="#mb2754ad4e7" x="157.154326" y="307.584" style="stroke: #000000; stroke-width: 0.8"/>
      </g>
     </g>
     <g id="text_3">
      <!-- 2 -->
      <g transform="translate(153.973076 322.182437) scale(0.1 -0.1)">
       <defs>
        <path id="DejaVuSans-32" d="M 1228 531 
L 3431 531 
L 3431 0 
L 469 0 
L 469 531 
Q 828 903 1448 1529 
Q 2069 2156 2228 2338 
Q 2531 2678 2651 2914 
Q 2772 3150 2772 3378 
Q 2772 3750 2511 3984 
Q 2250 4219 1831 4219 
Q 1534 4219 1204 4116 
Q 875 4013 500 3803 
L 500 4441 
Q 881 4594 1212 4672 
Q 1544 4750 1819 4750 
Q 2544 4750 2975 4387 
Q 3406 4025 3406 3419 
Q 3406 3131 3298 2873 
Q 3191 2616 2906 2266 
Q 2828 2175 2409 1742 
Q 1991 1309 1228 531 
z
" transform="scale(0.015625)"/>
       </defs>
       <use xlink:href="#DejaVuSans-32"/>
      </g>
     </g>
    </g>
    <g id="xtick_4">
     <g id="line2d_4">
      <g>
       <use xlink:href="#mb2754ad4e7" x="200.703103" y="307.584" style="stroke: #000000; stroke-width: 0.8"/>
      </g>
     </g>
     <g id="text_4">
      <!-- 3 -->
      <g transform="translate(197.521853 322.182437) scale(0.1 -0.1)">
       <defs>
        <path id="DejaVuSans-33" d="M 2597 2516 
Q 3050 2419 3304 2112 
Q 3559 1806 3559 1356 
Q 3559 666 3084 287 
Q 2609 -91 1734 -91 
Q 1441 -91 1130 -33 
Q 819 25 488 141 
L 488 750 
Q 750 597 1062 519 
Q 1375 441 1716 441 
Q 2309 441 2620 675 
Q 2931 909 2931 1356 
Q 2931 1769 2642 2001 
Q 2353 2234 1838 2234 
L 1294 2234 
L 1294 2753 
L 1863 2753 
Q 2328 2753 2575 2939 
Q 2822 3125 2822 3475 
Q 2822 3834 2567 4026 
Q 2313 4219 1838 4219 
Q 1578 4219 1281 4162 
Q 984 4106 628 3988 
L 628 4550 
Q 988 4650 1302 4700 
Q 1616 4750 1894 4750 
Q 2613 4750 3031 4423 
Q 3450 4097 3450 3541 
Q 3450 3153 3228 2886 
Q 3006 2619 2597 2516 
z
" transform="scale(0.015625)"/>
       </defs>
       <use xlink:href="#DejaVuSans-33"/>
      </g>
     </g>
    </g>
    <g id="xtick_5">
     <g id="line2d_5">
      <g>
       <use xlink:href="#mb2754ad4e7" x="244.251879" y="307.584" style="stroke: #000000; stroke-width: 0.8"/>
      </g>
     </g>
     <g id="text_5">
      <!-- 4 -->
      <g transform="translate(241.070629 322.182437) scale(0.1 -0.1)">
       <defs>
        <path id="DejaVuSans-34" d="M 2419 4116 
L 825 1625 
L 2419 1625 
L 2419 4116 
z
M 2253 4666 
L 3047 4666 
L 3047 1625 
L 3713 1625 
L 3713 1100 
L 3047 1100 
L 3047 0 
L 2419 0 
L 2419 1100 
L 313 1100 
L 313 1709 
L 2253 4666 
z
" transform="scale(0.015625)"/>
       </defs>
       <use xlink:href="#DejaVuSans-34"/>
      </g>
     </g>
    </g>
    <g id="xtick_6">
     <g id="line2d_6">
      <g>
       <use xlink:href="#mb2754ad4e7" x="287.800655" y="307.584" style="stroke: #000000; stroke-width: 0.8"/>
      </g>
     </g>
     <g id="text_6">
      <!-- 5 -->
      <g transform="translate(284.619405 322.182437) scale(0.1 -0.1)">
       <defs>
        <path id="DejaVuSans-35" d="M 691 4666 
L 3169 4666 
L 3169 4134 
L 1269 4134 
L 1269 2991 
Q 1406 3038 1543 3061 
Q 1681 3084 1819 3084 
Q 2600 3084 3056 2656 
Q 3513 2228 3513 1497 
Q 3513 744 3044 326 
Q 2575 -91 1722 -91 
Q 1428 -91 1123 -41 
Q 819 9 494 109 
L 494 744 
Q 775 591 1075 516 
Q 1375 441 1709 441 
Q 2250 441 2565 725 
Q 2881 1009 2881 1497 
Q 2881 1984 2565 2268 
Q 2250 2553 1709 2553 
Q 1456 2553 1204 2497 
Q 953 2441 691 2322 
L 691 4666 
z
" transform="scale(0.015625)"/>
       </defs>
       <use xlink:href="#DejaVuSans-35"/>
      </g>
     </g>
    </g>
    <g id="xtick_7">
     <g id="line2d_7">
      <g>
       <use xlink:href="#mb2754ad4e7" x="331.349431" y="307.584" style="stroke: #000000; stroke-width: 0.8"/>
      </g>
     </g>
     <g id="text_7">
      <!-- 6 -->
      <g transform="translate(328.168181 322.182437) scale(0.1 -0.1)">
       <defs>
        <path id="DejaVuSans-36" d="M 2113 2584 
Q 1688 2584 1439 2293 
Q 1191 2003 1191 1497 
Q 1191 994 1439 701 
Q 1688 409 2113 409 
Q 2538 409 2786 701 
Q 3034 994 3034 1497 
Q 3034 2003 2786 2293 
Q 2538 2584 2113 2584 
z
M 3366 4563 
L 3366 3988 
Q 3128 4100 2886 4159 
Q 2644 4219 2406 4219 
Q 1781 4219 1451 3797 
Q 1122 3375 1075 2522 
Q 1259 2794 1537 2939 
Q 1816 3084 2150 3084 
Q 2853 3084 3261 2657 
Q 3669 2231 3669 1497 
Q 3669 778 3244 343 
Q 2819 -91 2113 -91 
Q 1303 -91 875 529 
Q 447 1150 447 2328 
Q 447 3434 972 4092 
Q 1497 4750 2381 4750 
Q 2619 4750 2861 4703 
Q 3103 4656 3366 4563 
z
" transform="scale(0.015625)"/>
       </defs>
       <use xlink:href="#DejaVuSans-36"/>
      </g>
     </g>
    </g>
    <g id="xtick_8">
     <g id="line2d_8">
      <g>
       <use xlink:href="#mb2754ad4e7" x="374.898207" y="307.584" style="stroke: #000000; stroke-width: 0.8"/>
      </g>
     </g>
     <g id="text_8">
      <!-- 7 -->
      <g transform="translate(371.716957 322.182437) scale(0.1 -0.1)">
       <defs>
        <path id="DejaVuSans-37" d="M 525 4666 
L 3525 4666 
L 3525 4397 
L 1831 0 
L 1172 0 
L 2766 4134 
L 525 4134 
L 525 4666 
z
" transform="scale(0.015625)"/>
       </defs>
       <use xlink:href="#DejaVuSans-37"/>
      </g>
     </g>
    </g>
    <g id="text_9">
     <!-- Score -->
     <g transform="translate(222.157656 335.860562) scale(0.1 -0.1)">
      <defs>
       <path id="DejaVuSans-53" d="M 3425 4513 
L 3425 3897 
Q 3066 4069 2747 4153 
Q 2428 4238 2131 4238 
Q 1616 4238 1336 4038 
Q 1056 3838 1056 3469 
Q 1056 3159 1242 3001 
Q 1428 2844 1947 2747 
L 2328 2669 
Q 3034 2534 3370 2195 
Q 3706 1856 3706 1288 
Q 3706 609 3251 259 
Q 2797 -91 1919 -91 
Q 1588 -91 1214 -16 
Q 841 59 441 206 
L 441 856 
Q 825 641 1194 531 
Q 1563 422 1919 422 
Q 2459 422 2753 634 
Q 3047 847 3047 1241 
Q 3047 1584 2836 1778 
Q 2625 1972 2144 2069 
L 1759 2144 
Q 1053 2284 737 2584 
Q 422 2884 422 3419 
Q 422 4038 858 4394 
Q 1294 4750 2059 4750 
Q 2388 4750 2728 4690 
Q 3069 4631 3425 4513 
z
" transform="scale(0.015625)"/>
       <path id="DejaVuSans-63" d="M 3122 3366 
L 3122 2828 
Q 2878 2963 2633 3030 
Q 2388 3097 2138 3097 
Q 1578 3097 1268 2742 
Q 959 2388 959 1747 
Q 959 1106 1268 751 
Q 1578 397 2138 397 
Q 2388 397 2633 464 
Q 2878 531 3122 666 
L 3122 134 
Q 2881 22 2623 -34 
Q 2366 -91 2075 -91 
Q 1284 -91 818 406 
Q 353 903 353 1747 
Q 353 2603 823 3093 
Q 1294 3584 2113 3584 
Q 2378 3584 2631 3529 
Q 2884 3475 3122 3366 
z
" transform="scale(0.015625)"/>
       <path id="DejaVuSans-6f" d="M 1959 3097 
Q 1497 3097 1228 2736 
Q 959 2375 959 1747 
Q 959 1119 1226 758 
Q 1494 397 1959 397 
Q 2419 397 2687 759 
Q 2956 1122 2956 1747 
Q 2956 2369 2687 2733 
Q 2419 3097 1959 3097 
z
M 1959 3584 
Q 2709 3584 3137 3096 
Q 3566 2609 3566 1747 
Q 3566 888 3137 398 
Q 2709 -91 1959 -91 
Q 1206 -91 779 398 
Q 353 888 353 1747 
Q 353 2609 779 3096 
Q 1206 3584 1959 3584 
z
" transform="scale(0.015625)"/>
       <path id="DejaVuSans-72" d="M 2631 2963 
Q 2534 3019 2420 3045 
Q 2306 3072 2169 3072 
Q 1681 3072 1420 2755 
Q 1159 2438 1159 1844 
L 1159 0 
L 581 0 
L 581 3500 
L 1159 3500 
L 1159 2956 
Q 1341 3275 1631 3429 
Q 1922 3584 2338 3584 
Q 2397 3584 2469 3576 
Q 2541 3569 2628 3553 
L 2631 2963 
z
" transform="scale(0.015625)"/>
       <path id="DejaVuSans-65" d="M 3597 1894 
L 3597 1613 
L 953 1613 
Q 991 1019 1311 708 
Q 1631 397 2203 397 
Q 2534 397 2845 478 
Q 3156 559 3463 722 
L 3463 178 
Q 3153 47 2828 -22 
Q 2503 -91 2169 -91 
Q 1331 -91 842 396 
Q 353 884 353 1716 
Q 353 2575 817 3079 
Q 1281 3584 2069 3584 
Q 2775 3584 3186 3129 
Q 3597 2675 3597 1894 
z
M 3022 2063 
Q 3016 2534 2758 2815 
Q 2500 3097 2075 3097 
Q 1594 3097 1305 2825 
Q 1016 2553 972 2059 
L 3022 2063 
z
" transform="scale(0.015625)"/>
      </defs>
      <use xlink:href="#DejaVuSans-53"/>
      <use xlink:href="#DejaVuSans-63" x="63.476562"/>
      <use xlink:href="#DejaVuSans-6f" x="118.457031"/>
      <use xlink:href="#DejaVuSans-72" x="179.638672"/>
      <use xlink:href="#DejaVuSans-65" x="218.501953"/>
     </g>
    </g>
   </g>
   <g id="matplotlib.axis_2">
    <g id="ytick_1">
     <g id="line2d_9">
      <defs>
       <path id="m665ae74cf5" d="M 0 0 
L -3.5 0 
" style="stroke: #000000; stroke-width: 0.8"/>
      </defs>
      <g>
       <use xlink:href="#m665ae74cf5" x="57.6" y="307.584" style="stroke: #000000; stroke-width: 0.8"/>
      </g>
     </g>
     <g id="text_10">
      <!-- 0 -->
      <g transform="translate(44.2375 311.383219) scale(0.1 -0.1)">
       <use xlink:href="#DejaVuSans-30"/>
      </g>
     </g>
    </g>
    <g id="ytick_2">
     <g id="line2d_10">
      <g>
       <use xlink:href="#m665ae74cf5" x="57.6" y="258.467721" style="stroke: #000000; stroke-width: 0.8"/>
      </g>
     </g>
     <g id="text_11">
      <!-- 50 -->
      <g transform="translate(37.875 262.26694) scale(0.1 -0.1)">
       <use xlink:href="#DejaVuSans-35"/>
       <use xlink:href="#DejaVuSans-30" x="63.623047"/>
      </g>
     </g>
    </g>
    <g id="ytick_3">
     <g id="line2d_11">
      <g>
       <use xlink:href="#m665ae74cf5" x="57.6" y="209.351442" style="stroke: #000000; stroke-width: 0.8"/>
      </g>
     </g>
     <g id="text_12">
      <!-- 100 -->
      <g transform="translate(31.5125 213.150661) scale(0.1 -0.1)">
       <use xlink:href="#DejaVuSans-31"/>
       <use xlink:href="#DejaVuSans-30" x="63.623047"/>
       <use xlink:href="#DejaVuSans-30" x="127.246094"/>
      </g>
     </g>
    </g>
    <g id="ytick_4">
     <g id="line2d_12">
      <g>
       <use xlink:href="#m665ae74cf5" x="57.6" y="160.235163" style="stroke: #000000; stroke-width: 0.8"/>
      </g>
     </g>
     <g id="text_13">
      <!-- 150 -->
      <g transform="translate(31.5125 164.034382) scale(0.1 -0.1)">
       <use xlink:href="#DejaVuSans-31"/>
       <use xlink:href="#DejaVuSans-35" x="63.623047"/>
       <use xlink:href="#DejaVuSans-30" x="127.246094"/>
      </g>
     </g>
    </g>
    <g id="ytick_5">
     <g id="line2d_13">
      <g>
       <use xlink:href="#m665ae74cf5" x="57.6" y="111.118884" style="stroke: #000000; stroke-width: 0.8"/>
      </g>
     </g>
     <g id="text_14">
      <!-- 200 -->
      <g transform="translate(31.5125 114.918102) scale(0.1 -0.1)">
       <use xlink:href="#DejaVuSans-32"/>
       <use xlink:href="#DejaVuSans-30" x="63.623047"/>
       <use xlink:href="#DejaVuSans-30" x="127.246094"/>
      </g>
     </g>
    </g>
    <g id="ytick_6">
     <g id="line2d_14">
      <g>
       <use xlink:href="#m665ae74cf5" x="57.6" y="62.002605" style="stroke: #000000; stroke-width: 0.8"/>
      </g>
     </g>
     <g id="text_15">
      <!-- 250 -->
      <g transform="translate(31.5125 65.801823) scale(0.1 -0.1)">
       <use xlink:href="#DejaVuSans-32"/>
       <use xlink:href="#DejaVuSans-35" x="63.623047"/>
       <use xlink:href="#DejaVuSans-30" x="127.246094"/>
      </g>
     </g>
    </g>
    <g id="text_16">
     <!-- Number of crosslinks -->
     <g transform="translate(25.432812 227.019406) rotate(-90) scale(0.1 -0.1)">
      <defs>
       <path id="DejaVuSans-4e" d="M 628 4666 
L 1478 4666 
L 3547 763 
L 3547 4666 
L 4159 4666 
L 4159 0 
L 3309 0 
L 1241 3903 
L 1241 0 
L 628 0 
L 628 4666 
z
" transform="scale(0.015625)"/>
       <path id="DejaVuSans-75" d="M 544 1381 
L 544 3500 
L 1119 3500 
L 1119 1403 
Q 1119 906 1312 657 
Q 1506 409 1894 409 
Q 2359 409 2629 706 
Q 2900 1003 2900 1516 
L 2900 3500 
L 3475 3500 
L 3475 0 
L 2900 0 
L 2900 538 
Q 2691 219 2414 64 
Q 2138 -91 1772 -91 
Q 1169 -91 856 284 
Q 544 659 544 1381 
z
M 1991 3584 
L 1991 3584 
z
" transform="scale(0.015625)"/>
       <path id="DejaVuSans-6d" d="M 3328 2828 
Q 3544 3216 3844 3400 
Q 4144 3584 4550 3584 
Q 5097 3584 5394 3201 
Q 5691 2819 5691 2113 
L 5691 0 
L 5113 0 
L 5113 2094 
Q 5113 2597 4934 2840 
Q 4756 3084 4391 3084 
Q 3944 3084 3684 2787 
Q 3425 2491 3425 1978 
L 3425 0 
L 2847 0 
L 2847 2094 
Q 2847 2600 2669 2842 
Q 2491 3084 2119 3084 
Q 1678 3084 1418 2786 
Q 1159 2488 1159 1978 
L 1159 0 
L 581 0 
L 581 3500 
L 1159 3500 
L 1159 2956 
Q 1356 3278 1631 3431 
Q 1906 3584 2284 3584 
Q 2666 3584 2933 3390 
Q 3200 3197 3328 2828 
z
" transform="scale(0.015625)"/>
       <path id="DejaVuSans-62" d="M 3116 1747 
Q 3116 2381 2855 2742 
Q 2594 3103 2138 3103 
Q 1681 3103 1420 2742 
Q 1159 2381 1159 1747 
Q 1159 1113 1420 752 
Q 1681 391 2138 391 
Q 2594 391 2855 752 
Q 3116 1113 3116 1747 
z
M 1159 2969 
Q 1341 3281 1617 3432 
Q 1894 3584 2278 3584 
Q 2916 3584 3314 3078 
Q 3713 2572 3713 1747 
Q 3713 922 3314 415 
Q 2916 -91 2278 -91 
Q 1894 -91 1617 61 
Q 1341 213 1159 525 
L 1159 0 
L 581 0 
L 581 4863 
L 1159 4863 
L 1159 2969 
z
" transform="scale(0.015625)"/>
       <path id="DejaVuSans-20" transform="scale(0.015625)"/>
       <path id="DejaVuSans-66" d="M 2375 4863 
L 2375 4384 
L 1825 4384 
Q 1516 4384 1395 4259 
Q 1275 4134 1275 3809 
L 1275 3500 
L 2222 3500 
L 2222 3053 
L 1275 3053 
L 1275 0 
L 697 0 
L 697 3053 
L 147 3053 
L 147 3500 
L 697 3500 
L 697 3744 
Q 697 4328 969 4595 
Q 1241 4863 1831 4863 
L 2375 4863 
z
" transform="scale(0.015625)"/>
       <path id="DejaVuSans-73" d="M 2834 3397 
L 2834 2853 
Q 2591 2978 2328 3040 
Q 2066 3103 1784 3103 
Q 1356 3103 1142 2972 
Q 928 2841 928 2578 
Q 928 2378 1081 2264 
Q 1234 2150 1697 2047 
L 1894 2003 
Q 2506 1872 2764 1633 
Q 3022 1394 3022 966 
Q 3022 478 2636 193 
Q 2250 -91 1575 -91 
Q 1294 -91 989 -36 
Q 684 19 347 128 
L 347 722 
Q 666 556 975 473 
Q 1284 391 1588 391 
Q 1994 391 2212 530 
Q 2431 669 2431 922 
Q 2431 1156 2273 1281 
Q 2116 1406 1581 1522 
L 1381 1569 
Q 847 1681 609 1914 
Q 372 2147 372 2553 
Q 372 3047 722 3315 
Q 1072 3584 1716 3584 
Q 2034 3584 2315 3537 
Q 2597 3491 2834 3397 
z
" transform="scale(0.015625)"/>
       <path id="DejaVuSans-6c" d="M 603 4863 
L 1178 4863 
L 1178 0 
L 603 0 
L 603 4863 
z
" transform="scale(0.015625)"/>
       <path id="DejaVuSans-69" d="M 603 3500 
L 1178 3500 
L 1178 0 
L 603 0 
L 603 3500 
z
M 603 4863 
L 1178 4863 
L 1178 4134 
L 603 4134 
L 603 4863 
z
" transform="scale(0.015625)"/>
       <path id="DejaVuSans-6e" d="M 3513 2113 
L 3513 0 
L 2938 0 
L 2938 2094 
Q 2938 2591 2744 2837 
Q 2550 3084 2163 3084 
Q 1697 3084 1428 2787 
Q 1159 2491 1159 1978 
L 1159 0 
L 581 0 
L 581 3500 
L 1159 3500 
L 1159 2956 
Q 1366 3272 1645 3428 
Q 1925 3584 2291 3584 
Q 2894 3584 3203 3211 
Q 3513 2838 3513 2113 
z
" transform="scale(0.015625)"/>
       <path id="DejaVuSans-6b" d="M 581 4863 
L 1159 4863 
L 1159 1991 
L 2875 3500 
L 3609 3500 
L 1753 1863 
L 3688 0 
L 2938 0 
L 1159 1709 
L 1159 0 
L 581 0 
L 581 4863 
z
" transform="scale(0.015625)"/>
      </defs>
      <use xlink:href="#DejaVuSans-4e"/>
      <use xlink:href="#DejaVuSans-75" x="74.804688"/>
      <use xlink:href="#DejaVuSans-6d" x="138.183594"/>
      <use xlink:href="#DejaVuSans-62" x="235.595703"/>
      <use xlink:href="#DejaVuSans-65" x="299.072266"/>
      <use xlink:href="#DejaVuSans-72" x="360.595703"/>
      <use xlink:href="#DejaVuSans-20" x="401.708984"/>
      <use xlink:href="#DejaVuSans-6f" x="433.496094"/>
      <use xlink:href="#DejaVuSans-66" x="494.677734"/>
      <use xlink:href="#DejaVuSans-20" x="529.882812"/>
      <use xlink:href="#DejaVuSans-63" x="561.669922"/>
      <use xlink:href="#DejaVuSans-72" x="616.650391"/>
      <use xlink:href="#DejaVuSans-6f" x="655.513672"/>
      <use xlink:href="#DejaVuSans-73" x="716.695312"/>
      <use xlink:href="#DejaVuSans-73" x="768.794922"/>
      <use xlink:href="#DejaVuSans-6c" x="820.894531"/>
      <use xlink:href="#DejaVuSans-69" x="848.677734"/>
      <use xlink:href="#DejaVuSans-6e" x="876.460938"/>
      <use xlink:href="#DejaVuSans-6b" x="939.839844"/>
      <use xlink:href="#DejaVuSans-73" x="997.75"/>
     </g>
    </g>
   </g>
   <g id="patch_3">
    <path d="M 57.6 307.584 
L 57.6 41.472 
" style="fill: none; stroke: #000000; stroke-width: 0.8; stroke-linejoin: miter; stroke-linecap: square"/>
   </g>
   <g id="patch_4">
    <path d="M 414.72 307.584 
L 414.72 41.472 
" style="fill: none; stroke: #000000; stroke-width: 0.8; stroke-linejoin: miter; stroke-linecap: square"/>
   </g>
   <g id="patch_5">
    <path d="M 57.6 307.584 
L 414.72 307.584 
" style="fill: none; stroke: #000000; stroke-width: 0.8; stroke-linejoin: miter; stroke-linecap: square"/>
   </g>
   <g id="patch_6">
    <path d="M 57.6 41.472 
L 414.72 41.472 
" style="fill: none; stroke: #000000; stroke-width: 0.8; stroke-linejoin: miter; stroke-linecap: square"/>
   </g>
   <g id="legend_1">
    <g id="patch_7">
     <path d="M 293.087188 93.506375 
L 407.72 93.506375 
Q 409.72 93.506375 409.72 91.506375 
L 409.72 48.472 
Q 409.72 46.472 407.72 46.472 
L 293.087188 46.472 
Q 291.087188 46.472 291.087188 48.472 
L 291.087188 91.506375 
Q 291.087188 93.506375 293.087188 93.506375 
z
" style="fill: #ffffff; opacity: 0.8; stroke: #cccccc; stroke-linejoin: miter"/>
    </g>
    <g id="patch_8">
     <path d="M 295.087188 58.070438 
L 315.087188 58.070438 
L 315.087188 51.070438 
L 295.087188 51.070438 
z
" style="fill: #008000"/>
    </g>
    <g id="text_17">
     <!-- true -->
     <g transform="translate(323.087188 58.070438) scale(0.1 -0.1)">
      <defs>
       <path id="DejaVuSans-74" d="M 1172 4494 
L 1172 3500 
L 2356 3500 
L 2356 3053 
L 1172 3053 
L 1172 1153 
Q 1172 725 1289 603 
Q 1406 481 1766 481 
L 2356 481 
L 2356 0 
L 1766 0 
Q 1100 0 847 248 
Q 594 497 594 1153 
L 594 3053 
L 172 3053 
L 172 3500 
L 594 3500 
L 594 4494 
L 1172 4494 
z
" transform="scale(0.015625)"/>
      </defs>
      <use xlink:href="#DejaVuSans-74"/>
      <use xlink:href="#DejaVuSans-72" x="39.208984"/>
      <use xlink:href="#DejaVuSans-75" x="80.322266"/>
      <use xlink:href="#DejaVuSans-65" x="143.701172"/>
     </g>
    </g>
    <g id="patch_9">
     <path d="M 295.087188 72.748563 
L 315.087188 72.748563 
L 315.087188 65.748563 
L 295.087188 65.748563 
z
" style="fill: #7cfc00"/>
    </g>
    <g id="text_18">
     <!-- true homeotypic -->
     <g transform="translate(323.087188 72.748563) scale(0.1 -0.1)">
      <defs>
       <path id="DejaVuSans-68" d="M 3513 2113 
L 3513 0 
L 2938 0 
L 2938 2094 
Q 2938 2591 2744 2837 
Q 2550 3084 2163 3084 
Q 1697 3084 1428 2787 
Q 1159 2491 1159 1978 
L 1159 0 
L 581 0 
L 581 4863 
L 1159 4863 
L 1159 2956 
Q 1366 3272 1645 3428 
Q 1925 3584 2291 3584 
Q 2894 3584 3203 3211 
Q 3513 2838 3513 2113 
z
" transform="scale(0.015625)"/>
       <path id="DejaVuSans-79" d="M 2059 -325 
Q 1816 -950 1584 -1140 
Q 1353 -1331 966 -1331 
L 506 -1331 
L 506 -850 
L 844 -850 
Q 1081 -850 1212 -737 
Q 1344 -625 1503 -206 
L 1606 56 
L 191 3500 
L 800 3500 
L 1894 763 
L 2988 3500 
L 3597 3500 
L 2059 -325 
z
" transform="scale(0.015625)"/>
       <path id="DejaVuSans-70" d="M 1159 525 
L 1159 -1331 
L 581 -1331 
L 581 3500 
L 1159 3500 
L 1159 2969 
Q 1341 3281 1617 3432 
Q 1894 3584 2278 3584 
Q 2916 3584 3314 3078 
Q 3713 2572 3713 1747 
Q 3713 922 3314 415 
Q 2916 -91 2278 -91 
Q 1894 -91 1617 61 
Q 1341 213 1159 525 
z
M 3116 1747 
Q 3116 2381 2855 2742 
Q 2594 3103 2138 3103 
Q 1681 3103 1420 2742 
Q 1159 2381 1159 1747 
Q 1159 1113 1420 752 
Q 1681 391 2138 391 
Q 2594 391 2855 752 
Q 3116 1113 3116 1747 
z
" transform="scale(0.015625)"/>
      </defs>
      <use xlink:href="#DejaVuSans-74"/>
      <use xlink:href="#DejaVuSans-72" x="39.208984"/>
      <use xlink:href="#DejaVuSans-75" x="80.322266"/>
      <use xlink:href="#DejaVuSans-65" x="143.701172"/>
      <use xlink:href="#DejaVuSans-20" x="205.224609"/>
      <use xlink:href="#DejaVuSans-68" x="237.011719"/>
      <use xlink:href="#DejaVuSans-6f" x="300.390625"/>
      <use xlink:href="#DejaVuSans-6d" x="361.572266"/>
      <use xlink:href="#DejaVuSans-65" x="458.984375"/>
      <use xlink:href="#DejaVuSans-6f" x="520.507812"/>
      <use xlink:href="#DejaVuSans-74" x="581.689453"/>
      <use xlink:href="#DejaVuSans-79" x="620.898438"/>
      <use xlink:href="#DejaVuSans-70" x="680.078125"/>
      <use xlink:href="#DejaVuSans-69" x="743.554688"/>
      <use xlink:href="#DejaVuSans-63" x="771.337891"/>
     </g>
    </g>
    <g id="patch_10">
     <path d="M 295.087188 87.426688 
L 315.087188 87.426688 
L 315.087188 80.426688 
L 295.087188 80.426688 
z
" style="fill: #ff0000"/>
    </g>
    <g id="text_19">
     <!-- false -->
     <g transform="translate(323.087188 87.426688) scale(0.1 -0.1)">
      <defs>
       <path id="DejaVuSans-61" d="M 2194 1759 
Q 1497 1759 1228 1600 
Q 959 1441 959 1056 
Q 959 750 1161 570 
Q 1363 391 1709 391 
Q 2188 391 2477 730 
Q 2766 1069 2766 1631 
L 2766 1759 
L 2194 1759 
z
M 3341 1997 
L 3341 0 
L 2766 0 
L 2766 531 
Q 2569 213 2275 61 
Q 1981 -91 1556 -91 
Q 1019 -91 701 211 
Q 384 513 384 1019 
Q 384 1609 779 1909 
Q 1175 2209 1959 2209 
L 2766 2209 
L 2766 2266 
Q 2766 2663 2505 2880 
Q 2244 3097 1772 3097 
Q 1472 3097 1187 3025 
Q 903 2953 641 2809 
L 641 3341 
Q 956 3463 1253 3523 
Q 1550 3584 1831 3584 
Q 2591 3584 2966 3190 
Q 3341 2797 3341 1997 
z
" transform="scale(0.015625)"/>
      </defs>
      <use xlink:href="#DejaVuSans-66"/>
      <use xlink:href="#DejaVuSans-61" x="35.205078"/>
      <use xlink:href="#DejaVuSans-6c" x="96.484375"/>
      <use xlink:href="#DejaVuSans-73" x="124.267578"/>
      <use xlink:href="#DejaVuSans-65" x="176.367188"/>
     </g>
    </g>
   </g>
  </g>
 </g>
 <defs>
  <clipPath id="p47461fd026">
   <rect x="57.6" y="41.472" width="357.12" height="266.112"/>
  </clipPath>
 </defs>
</svg>
