<?xml version="1.0" encoding="utf-8" standalone="no"?>
<!DOCTYPE svg PUBLIC "-//W3C//DTD SVG 1.1//EN"
  "http://www.w3.org/Graphics/SVG/1.1/DTD/svg11.dtd">
<svg xmlns:xlink="http://www.w3.org/1999/xlink" width="460.8pt" height="345.6pt" viewBox="0 0 460.8 345.6" xmlns="http://www.w3.org/2000/svg" version="1.1">
 <metadata>
  <rdf:RDF xmlns:dc="http://purl.org/dc/elements/1.1/" xmlns:cc="http://creativecommons.org/ns#" xmlns:rdf="http://www.w3.org/1999/02/22-rdf-syntax-ns#">
   <cc:Work>
    <dc:type rdf:resource="http://purl.org/dc/dcmitype/StillImage"/>
    <dc:date>2024-06-29T19:22:41.895864</dc:date>
    <dc:format>image/svg+xml</dc:format>
    <dc:creator>
     <cc:Agent>
      <dc:title>Matplotlib v3.9.0, https://matplotlib.org/</dc:title>
     </cc:Agent>
    </dc:creator>
   </cc:Work>
  </rdf:RDF>
 </metadata>
 <defs>
  <style type="text/css">*{stroke-linejoin: round; stroke-linecap: butt}</style>
 </defs>
 <g id="figure_1">
  <g id="patch_1">
   <path d="M 0 345.6 
L 460.8 345.6 
L 460.8 0 
L 0 0 
z
" style="fill: #ffffff"/>
  </g>
  <g id="axes_1">
   <g id="patch_2">
    <path d="M 57.6 307.584 
L 414.72 307.584 
L 414.72 41.472 
L 57.6 41.472 
z
" style="fill: #ffffff"/>
   </g>
   <g id="PolyCollection_1">
    <path d="M 73.832727 124.404594 
L 73.832727 307.584 
L 73.867543 307.584 
L 74.650892 307.584 
L 80.012479 307.584 
L 81.944739 307.584 
L 82.362525 307.584 
L 83.389582 307.584 
L 83.94663 307.584 
L 84.364416 307.584 
L 85.11295 307.584 
L 87.410773 307.584 
L 88.298568 307.584 
L 88.420422 307.584 
L 89.778227 307.584 
L 89.795634 307.584 
L 90.787876 307.584 
L 93.172738 307.584 
L 93.399039 307.584 
L 94.722028 307.584 
L 95.609823 307.584 
L 98.325432 307.584 
L 98.534325 307.584 
L 99.961761 307.584 
L 100.344731 307.584 
L 100.745109 307.584 
L 100.954002 307.584 
L 103.478126 307.584 
L 104.331106 307.584 
L 104.365922 307.584 
L 104.644446 307.584 
L 107.743025 307.584 
L 109.118237 307.584 
L 110.040848 307.584 
L 114.51464 307.584 
L 114.688718 307.584 
L 114.793164 307.584 
L 117.421734 307.584 
L 119.876227 307.584 
L 120.711799 307.584 
L 121.042546 307.584 
L 121.529963 307.584 
L 122.313312 307.584 
L 125.707824 307.584 
L 126.525988 307.584 
L 128.997888 307.584 
L 129.816053 307.584 
L 132.845001 307.584 
L 133.297603 307.584 
L 133.523903 307.584 
L 134.742446 307.584 
L 137.527686 307.584 
L 137.597317 307.584 
L 137.980288 307.584 
L 139.721063 307.584 
L 140.43478 307.584 
L 143.53336 307.584 
L 146.3186 307.584 
L 146.405639 307.584 
L 147.01491 307.584 
L 151.279809 307.584 
L 157.651046 307.584 
L 158.086239 307.584 
L 160.40147 307.584 
L 161.09778 307.584 
L 163.708943 307.584 
L 163.970059 307.584 
L 165.919727 307.584 
L 166.999008 307.584 
L 182.056712 307.584 
L 182.665983 307.584 
L 182.700798 307.584 
L 183.205623 307.584 
L 187.679415 307.584 
L 188.950181 307.584 
L 191.50912 307.584 
L 191.526528 307.584 
L 192.118391 307.584 
L 204.025293 307.584 
L 205.835699 307.584 
L 208.394638 307.584 
L 210.013559 307.584 
L 210.744684 307.584 
L 213.808448 307.584 
L 217.58593 307.584 
L 224.966816 307.584 
L 232.399926 307.584 
L 239.154133 307.584 
L 245.716855 307.584 
L 247.022436 307.584 
L 257.623756 307.584 
L 265.87503 307.584 
L 268.207669 307.584 
L 283.195742 307.584 
L 286.033205 307.584 
L 294.249663 307.584 
L 302.814276 307.584 
L 306.748428 307.584 
L 372.288608 307.584 
L 388.547447 307.584 
L 398.487273 307.584 
L 398.487273 307.584 
L 398.487273 307.584 
L 388.547447 307.584 
L 372.288608 307.584 
L 306.748428 305.074693 
L 302.814276 305.074693 
L 294.249663 305.074693 
L 286.033205 305.074693 
L 283.195742 302.565386 
L 268.207669 302.565386 
L 265.87503 300.056079 
L 257.623756 300.056079 
L 247.022436 300.056079 
L 245.716855 300.056079 
L 239.154133 297.546772 
L 232.399926 295.037465 
L 224.966816 292.528158 
L 217.58593 290.018851 
L 213.808448 290.018851 
L 210.744684 287.509545 
L 210.013559 285.000238 
L 208.394638 282.490931 
L 205.835699 279.981624 
L 204.025293 277.472317 
L 192.118391 274.96301 
L 191.526528 272.453703 
L 191.50912 269.944396 
L 188.950181 267.435089 
L 187.679415 264.925782 
L 183.205623 262.416475 
L 182.700798 259.907168 
L 182.665983 257.397861 
L 182.056712 254.888554 
L 166.999008 252.379248 
L 165.919727 252.379248 
L 163.970059 249.869941 
L 163.708943 247.360634 
L 161.09778 244.851327 
L 160.40147 242.34202 
L 158.086239 242.34202 
L 157.651046 242.34202 
L 151.279809 239.832713 
L 147.01491 239.832713 
L 146.405639 239.832713 
L 146.3186 237.323406 
L 143.53336 237.323406 
L 140.43478 237.323406 
L 139.721063 234.814099 
L 137.980288 232.304792 
L 137.597317 229.795485 
L 137.527686 227.286178 
L 134.742446 224.776871 
L 133.523903 222.267564 
L 133.297603 222.267564 
L 132.845001 222.267564 
L 129.816053 219.758257 
L 128.997888 219.758257 
L 126.525988 217.24895 
L 125.707824 214.739644 
L 122.313312 212.230337 
L 121.529963 209.72103 
L 121.042546 207.211723 
L 120.711799 204.702416 
L 119.876227 202.193109 
L 117.421734 199.683802 
L 114.793164 197.174495 
L 114.688718 194.665188 
L 114.51464 192.155881 
L 110.040848 192.155881 
L 109.118237 189.646574 
L 107.743025 187.137267 
L 104.644446 184.62796 
L 104.365922 182.118653 
L 104.331106 179.609347 
L 103.478126 179.609347 
L 100.954002 177.10004 
L 100.745109 177.10004 
L 100.344731 174.590733 
L 99.961761 172.081426 
L 98.534325 169.572119 
L 98.325432 169.572119 
L 95.609823 167.062812 
L 94.722028 164.553505 
L 93.399039 162.044198 
L 93.172738 159.534891 
L 90.787876 157.025584 
L 89.795634 154.516277 
L 89.778227 152.00697 
L 88.420422 152.00697 
L 88.298568 149.497663 
L 87.410773 146.988356 
L 85.11295 144.47905 
L 84.364416 141.969743 
L 83.94663 139.460436 
L 83.389582 136.951129 
L 82.362525 134.441822 
L 81.944739 134.441822 
L 80.012479 131.932515 
L 74.650892 129.423208 
L 73.867543 126.913901 
L 73.832727 124.404594 
z
" clip-path="url(#pfaeb4740d4)" style="fill: #008000"/>
   </g>
   <g id="PolyCollection_2">
    <path d="M 73.832727 66.690535 
L 73.832727 124.404594 
L 73.867543 126.913901 
L 74.650892 129.423208 
L 80.012479 131.932515 
L 81.944739 134.441822 
L 82.362525 134.441822 
L 83.389582 136.951129 
L 83.94663 139.460436 
L 84.364416 141.969743 
L 85.11295 144.47905 
L 87.410773 146.988356 
L 88.298568 149.497663 
L 88.420422 152.00697 
L 89.778227 152.00697 
L 89.795634 154.516277 
L 90.787876 157.025584 
L 93.172738 159.534891 
L 93.399039 162.044198 
L 94.722028 164.553505 
L 95.609823 167.062812 
L 98.325432 169.572119 
L 98.534325 169.572119 
L 99.961761 172.081426 
L 100.344731 174.590733 
L 100.745109 177.10004 
L 100.954002 177.10004 
L 103.478126 179.609347 
L 104.331106 179.609347 
L 104.365922 182.118653 
L 104.644446 184.62796 
L 107.743025 187.137267 
L 109.118237 189.646574 
L 110.040848 192.155881 
L 114.51464 192.155881 
L 114.688718 194.665188 
L 114.793164 197.174495 
L 117.421734 199.683802 
L 119.876227 202.193109 
L 120.711799 204.702416 
L 121.042546 207.211723 
L 121.529963 209.72103 
L 122.313312 212.230337 
L 125.707824 214.739644 
L 126.525988 217.24895 
L 128.997888 219.758257 
L 129.816053 219.758257 
L 132.845001 222.267564 
L 133.297603 222.267564 
L 133.523903 222.267564 
L 134.742446 224.776871 
L 137.527686 227.286178 
L 137.597317 229.795485 
L 137.980288 232.304792 
L 139.721063 234.814099 
L 140.43478 237.323406 
L 143.53336 237.323406 
L 146.3186 237.323406 
L 146.405639 239.832713 
L 147.01491 239.832713 
L 151.279809 239.832713 
L 157.651046 242.34202 
L 158.086239 242.34202 
L 160.40147 242.34202 
L 161.09778 244.851327 
L 163.708943 247.360634 
L 163.970059 249.869941 
L 165.919727 252.379248 
L 166.999008 252.379248 
L 182.056712 254.888554 
L 182.665983 257.397861 
L 182.700798 259.907168 
L 183.205623 262.416475 
L 187.679415 264.925782 
L 188.950181 267.435089 
L 191.50912 269.944396 
L 191.526528 272.453703 
L 192.118391 274.96301 
L 204.025293 277.472317 
L 205.835699 279.981624 
L 208.394638 282.490931 
L 210.013559 285.000238 
L 210.744684 287.509545 
L 213.808448 290.018851 
L 217.58593 290.018851 
L 224.966816 292.528158 
L 232.399926 295.037465 
L 239.154133 297.546772 
L 245.716855 300.056079 
L 247.022436 300.056079 
L 257.623756 300.056079 
L 265.87503 300.056079 
L 268.207669 302.565386 
L 283.195742 302.565386 
L 286.033205 305.074693 
L 294.249663 305.074693 
L 302.814276 305.074693 
L 306.748428 305.074693 
L 372.288608 307.584 
L 388.547447 307.584 
L 398.487273 307.584 
L 398.487273 305.074693 
L 398.487273 305.074693 
L 388.547447 302.565386 
L 372.288608 300.056079 
L 306.748428 297.546772 
L 302.814276 295.037465 
L 294.249663 292.528158 
L 286.033205 290.018851 
L 283.195742 287.509545 
L 268.207669 285.000238 
L 265.87503 282.490931 
L 257.623756 279.981624 
L 247.022436 277.472317 
L 245.716855 274.96301 
L 239.154133 272.453703 
L 232.399926 269.944396 
L 224.966816 267.435089 
L 217.58593 264.925782 
L 213.808448 262.416475 
L 210.744684 259.907168 
L 210.013559 257.397861 
L 208.394638 254.888554 
L 205.835699 252.379248 
L 204.025293 249.869941 
L 192.118391 244.851327 
L 191.526528 242.34202 
L 191.50912 239.832713 
L 188.950181 237.323406 
L 187.679415 234.814099 
L 183.205623 232.304792 
L 182.700798 229.795485 
L 182.665983 227.286178 
L 182.056712 224.776871 
L 166.999008 222.267564 
L 165.919727 222.267564 
L 163.970059 219.758257 
L 163.708943 217.24895 
L 161.09778 214.739644 
L 160.40147 212.230337 
L 158.086239 209.72103 
L 157.651046 207.211723 
L 151.279809 204.702416 
L 147.01491 202.193109 
L 146.405639 199.683802 
L 146.3186 197.174495 
L 143.53336 194.665188 
L 140.43478 192.155881 
L 139.721063 189.646574 
L 137.980288 187.137267 
L 137.597317 184.62796 
L 137.527686 182.118653 
L 134.742446 179.609347 
L 133.523903 177.10004 
L 133.297603 174.590733 
L 132.845001 172.081426 
L 129.816053 169.572119 
L 128.997888 167.062812 
L 126.525988 164.553505 
L 125.707824 162.044198 
L 122.313312 159.534891 
L 121.529963 157.025584 
L 121.042546 154.516277 
L 120.711799 152.00697 
L 119.876227 149.497663 
L 117.421734 146.988356 
L 114.793164 144.47905 
L 114.688718 141.969743 
L 114.51464 139.460436 
L 110.040848 136.951129 
L 109.118237 134.441822 
L 107.743025 131.932515 
L 104.644446 129.423208 
L 104.365922 126.913901 
L 104.331106 124.404594 
L 103.478126 124.404594 
L 100.954002 121.895287 
L 100.745109 119.38598 
L 100.344731 116.876673 
L 99.961761 114.367366 
L 98.534325 111.858059 
L 98.325432 111.858059 
L 95.609823 109.348752 
L 94.722028 106.839446 
L 93.399039 104.330139 
L 93.172738 101.820832 
L 90.787876 99.311525 
L 89.795634 96.802218 
L 89.778227 94.292911 
L 88.420422 94.292911 
L 88.298568 91.783604 
L 87.410773 89.274297 
L 85.11295 86.76499 
L 84.364416 84.255683 
L 83.94663 81.746376 
L 83.389582 79.237069 
L 82.362525 76.727762 
L 81.944739 76.727762 
L 80.012479 74.218455 
L 74.650892 71.709149 
L 73.867543 69.199842 
L 73.832727 66.690535 
z
" clip-path="url(#pfaeb4740d4)" style="fill: #7cfc00"/>
   </g>
   <g id="PolyCollection_3">
    <path d="M 73.832727 54.144 
L 73.832727 66.690535 
L 73.867543 69.199842 
L 74.650892 71.709149 
L 80.012479 74.218455 
L 81.944739 76.727762 
L 82.362525 76.727762 
L 83.389582 79.237069 
L 83.94663 81.746376 
L 84.364416 84.255683 
L 85.11295 86.76499 
L 87.410773 89.274297 
L 88.298568 91.783604 
L 88.420422 94.292911 
L 89.778227 94.292911 
L 89.795634 96.802218 
L 90.787876 99.311525 
L 93.172738 101.820832 
L 93.399039 104.330139 
L 94.722028 106.839446 
L 95.609823 109.348752 
L 98.325432 111.858059 
L 98.534325 111.858059 
L 99.961761 114.367366 
L 100.344731 116.876673 
L 100.745109 119.38598 
L 100.954002 121.895287 
L 103.478126 124.404594 
L 104.331106 124.404594 
L 104.365922 126.913901 
L 104.644446 129.423208 
L 107.743025 131.932515 
L 109.118237 134.441822 
L 110.040848 136.951129 
L 114.51464 139.460436 
L 114.688718 141.969743 
L 114.793164 144.47905 
L 117.421734 146.988356 
L 119.876227 149.497663 
L 120.711799 152.00697 
L 121.042546 154.516277 
L 121.529963 157.025584 
L 122.313312 159.534891 
L 125.707824 162.044198 
L 126.525988 164.553505 
L 128.997888 167.062812 
L 129.816053 169.572119 
L 132.845001 172.081426 
L 133.297603 174.590733 
L 133.523903 177.10004 
L 134.742446 179.609347 
L 137.527686 182.118653 
L 137.597317 184.62796 
L 137.980288 187.137267 
L 139.721063 189.646574 
L 140.43478 192.155881 
L 143.53336 194.665188 
L 146.3186 197.174495 
L 146.405639 199.683802 
L 147.01491 202.193109 
L 151.279809 204.702416 
L 157.651046 207.211723 
L 158.086239 209.72103 
L 160.40147 212.230337 
L 161.09778 214.739644 
L 163.708943 217.24895 
L 163.970059 219.758257 
L 165.919727 222.267564 
L 166.999008 222.267564 
L 182.056712 224.776871 
L 182.665983 227.286178 
L 182.700798 229.795485 
L 183.205623 232.304792 
L 187.679415 234.814099 
L 188.950181 237.323406 
L 191.50912 239.832713 
L 191.526528 242.34202 
L 192.118391 244.851327 
L 204.025293 249.869941 
L 205.835699 252.379248 
L 208.394638 254.888554 
L 210.013559 257.397861 
L 210.744684 259.907168 
L 213.808448 262.416475 
L 217.58593 264.925782 
L 224.966816 267.435089 
L 232.399926 269.944396 
L 239.154133 272.453703 
L 245.716855 274.96301 
L 247.022436 277.472317 
L 257.623756 279.981624 
L 265.87503 282.490931 
L 268.207669 285.000238 
L 283.195742 287.509545 
L 286.033205 290.018851 
L 294.249663 292.528158 
L 302.814276 295.037465 
L 306.748428 297.546772 
L 372.288608 300.056079 
L 388.547447 302.565386 
L 398.487273 305.074693 
L 398.487273 305.074693 
L 398.487273 305.074693 
L 388.547447 302.565386 
L 372.288608 300.056079 
L 306.748428 297.546772 
L 302.814276 295.037465 
L 294.249663 292.528158 
L 286.033205 290.018851 
L 283.195742 287.509545 
L 268.207669 285.000238 
L 265.87503 282.490931 
L 257.623756 279.981624 
L 247.022436 277.472317 
L 245.716855 274.96301 
L 239.154133 272.453703 
L 232.399926 269.944396 
L 224.966816 267.435089 
L 217.58593 264.925782 
L 213.808448 262.416475 
L 210.744684 259.907168 
L 210.013559 257.397861 
L 208.394638 254.888554 
L 205.835699 252.379248 
L 204.025293 249.869941 
L 192.118391 244.851327 
L 191.526528 242.34202 
L 191.50912 239.832713 
L 188.950181 237.323406 
L 187.679415 234.814099 
L 183.205623 232.304792 
L 182.700798 229.795485 
L 182.665983 227.286178 
L 182.056712 224.776871 
L 166.999008 222.267564 
L 165.919727 219.758257 
L 163.970059 217.24895 
L 163.708943 214.739644 
L 161.09778 212.230337 
L 160.40147 209.72103 
L 158.086239 207.211723 
L 157.651046 204.702416 
L 151.279809 202.193109 
L 147.01491 199.683802 
L 146.405639 197.174495 
L 146.3186 194.665188 
L 143.53336 192.155881 
L 140.43478 189.646574 
L 139.721063 187.137267 
L 137.980288 184.62796 
L 137.597317 182.118653 
L 137.527686 179.609347 
L 134.742446 177.10004 
L 133.523903 174.590733 
L 133.297603 172.081426 
L 132.845001 169.572119 
L 129.816053 167.062812 
L 128.997888 164.553505 
L 126.525988 162.044198 
L 125.707824 159.534891 
L 122.313312 157.025584 
L 121.529963 154.516277 
L 121.042546 152.00697 
L 120.711799 149.497663 
L 119.876227 146.988356 
L 117.421734 144.47905 
L 114.793164 141.969743 
L 114.688718 139.460436 
L 114.51464 136.951129 
L 110.040848 134.441822 
L 109.118237 131.932515 
L 107.743025 129.423208 
L 104.644446 126.913901 
L 104.365922 124.404594 
L 104.331106 121.895287 
L 103.478126 119.38598 
L 100.954002 116.876673 
L 100.745109 114.367366 
L 100.344731 111.858059 
L 99.961761 109.348752 
L 98.534325 106.839446 
L 98.325432 104.330139 
L 95.609823 101.820832 
L 94.722028 99.311525 
L 93.399039 96.802218 
L 93.172738 94.292911 
L 90.787876 91.783604 
L 89.795634 89.274297 
L 89.778227 86.76499 
L 88.420422 84.255683 
L 88.298568 81.746376 
L 87.410773 79.237069 
L 85.11295 76.727762 
L 84.364416 74.218455 
L 83.94663 71.709149 
L 83.389582 69.199842 
L 82.362525 66.690535 
L 81.944739 64.181228 
L 80.012479 61.671921 
L 74.650892 59.162614 
L 73.867543 56.653307 
L 73.832727 54.144 
z
" clip-path="url(#pfaeb4740d4)" style="fill: #ff0000"/>
   </g>
   <g id="matplotlib.axis_1">
    <g id="xtick_1">
     <g id="line2d_1">
      <defs>
       <path id="m68222a6c4f" d="M 0 0 
L 0 3.5 
" style="stroke: #000000; stroke-width: 0.8"/>
      </defs>
      <g>
       <use xlink:href="#m68222a6c4f" x="68.975965" y="307.584" style="stroke: #000000; stroke-width: 0.8"/>
      </g>
     </g>
     <g id="text_1">
      <!-- 100 -->
      <g transform="translate(59.432215 322.182437) scale(0.1 -0.1)">
       <defs>
        <path id="DejaVuSans-31" d="M 794 531 
L 1825 531 
L 1825 4091 
L 703 3866 
L 703 4441 
L 1819 4666 
L 2450 4666 
L 2450 531 
L 3481 531 
L 3481 0 
L 794 0 
L 794 531 
z
" transform="scale(0.015625)"/>
        <path id="DejaVuSans-30" d="M 2034 4250 
Q 1547 4250 1301 3770 
Q 1056 3291 1056 2328 
Q 1056 1369 1301 889 
Q 1547 409 2034 409 
Q 2525 409 2770 889 
Q 3016 1369 3016 2328 
Q 3016 3291 2770 3770 
Q 2525 4250 2034 4250 
z
M 2034 4750 
Q 2819 4750 3233 4129 
Q 3647 3509 3647 2328 
Q 3647 1150 3233 529 
Q 2819 -91 2034 -91 
Q 1250 -91 836 529 
Q 422 1150 422 2328 
Q 422 3509 836 4129 
Q 1250 4750 2034 4750 
z
" transform="scale(0.015625)"/>
       </defs>
       <use xlink:href="#DejaVuSans-31"/>
       <use xlink:href="#DejaVuSans-30" x="63.623047"/>
       <use xlink:href="#DejaVuSans-30" x="127.246094"/>
      </g>
     </g>
    </g>
    <g id="xtick_2">
     <g id="line2d_2">
      <g>
       <use xlink:href="#m68222a6c4f" x="112.495341" y="307.584" style="stroke: #000000; stroke-width: 0.8"/>
      </g>
     </g>
     <g id="text_2">
      <!-- 125 -->
      <g transform="translate(102.951591 322.182437) scale(0.1 -0.1)">
       <defs>
        <path id="DejaVuSans-32" d="M 1228 531 
L 3431 531 
L 3431 0 
L 469 0 
L 469 531 
Q 828 903 1448 1529 
Q 2069 2156 2228 2338 
Q 2531 2678 2651 2914 
Q 2772 3150 2772 3378 
Q 2772 3750 2511 3984 
Q 2250 4219 1831 4219 
Q 1534 4219 1204 4116 
Q 875 4013 500 3803 
L 500 4441 
Q 881 4594 1212 4672 
Q 1544 4750 1819 4750 
Q 2544 4750 2975 4387 
Q 3406 4025 3406 3419 
Q 3406 3131 3298 2873 
Q 3191 2616 2906 2266 
Q 2828 2175 2409 1742 
Q 1991 1309 1228 531 
z
" transform="scale(0.015625)"/>
        <path id="DejaVuSans-35" d="M 691 4666 
L 3169 4666 
L 3169 4134 
L 1269 4134 
L 1269 2991 
Q 1406 3038 1543 3061 
Q 1681 3084 1819 3084 
Q 2600 3084 3056 2656 
Q 3513 2228 3513 1497 
Q 3513 744 3044 326 
Q 2575 -91 1722 -91 
Q 1428 -91 1123 -41 
Q 819 9 494 109 
L 494 744 
Q 775 591 1075 516 
Q 1375 441 1709 441 
Q 2250 441 2565 725 
Q 2881 1009 2881 1497 
Q 2881 1984 2565 2268 
Q 2250 2553 1709 2553 
Q 1456 2553 1204 2497 
Q 953 2441 691 2322 
L 691 4666 
z
" transform="scale(0.015625)"/>
       </defs>
       <use xlink:href="#DejaVuSans-31"/>
       <use xlink:href="#DejaVuSans-32" x="63.623047"/>
       <use xlink:href="#DejaVuSans-35" x="127.246094"/>
      </g>
     </g>
    </g>
    <g id="xtick_3">
     <g id="line2d_3">
      <g>
       <use xlink:href="#m68222a6c4f" x="156.014717" y="307.584" style="stroke: #000000; stroke-width: 0.8"/>
      </g>
     </g>
     <g id="text_3">
      <!-- 150 -->
      <g transform="translate(146.470967 322.182437) scale(0.1 -0.1)">
       <use xlink:href="#DejaVuSans-31"/>
       <use xlink:href="#DejaVuSans-35" x="63.623047"/>
       <use xlink:href="#DejaVuSans-30" x="127.246094"/>
      </g>
     </g>
    </g>
    <g id="xtick_4">
     <g id="line2d_4">
      <g>
       <use xlink:href="#m68222a6c4f" x="199.534093" y="307.584" style="stroke: #000000; stroke-width: 0.8"/>
      </g>
     </g>
     <g id="text_4">
      <!-- 175 -->
      <g transform="translate(189.990343 322.182437) scale(0.1 -0.1)">
       <defs>
        <path id="DejaVuSans-37" d="M 525 4666 
L 3525 4666 
L 3525 4397 
L 1831 0 
L 1172 0 
L 2766 4134 
L 525 4134 
L 525 4666 
z
" transform="scale(0.015625)"/>
       </defs>
       <use xlink:href="#DejaVuSans-31"/>
       <use xlink:href="#DejaVuSans-37" x="63.623047"/>
       <use xlink:href="#DejaVuSans-35" x="127.246094"/>
      </g>
     </g>
    </g>
    <g id="xtick_5">
     <g id="line2d_5">
      <g>
       <use xlink:href="#m68222a6c4f" x="243.053469" y="307.584" style="stroke: #000000; stroke-width: 0.8"/>
      </g>
     </g>
     <g id="text_5">
      <!-- 200 -->
      <g transform="translate(233.509719 322.182437) scale(0.1 -0.1)">
       <use xlink:href="#DejaVuSans-32"/>
       <use xlink:href="#DejaVuSans-30" x="63.623047"/>
       <use xlink:href="#DejaVuSans-30" x="127.246094"/>
      </g>
     </g>
    </g>
    <g id="xtick_6">
     <g id="line2d_6">
      <g>
       <use xlink:href="#m68222a6c4f" x="286.572845" y="307.584" style="stroke: #000000; stroke-width: 0.8"/>
      </g>
     </g>
     <g id="text_6">
      <!-- 225 -->
      <g transform="translate(277.029095 322.182437) scale(0.1 -0.1)">
       <use xlink:href="#DejaVuSans-32"/>
       <use xlink:href="#DejaVuSans-32" x="63.623047"/>
       <use xlink:href="#DejaVuSans-35" x="127.246094"/>
      </g>
     </g>
    </g>
    <g id="xtick_7">
     <g id="line2d_7">
      <g>
       <use xlink:href="#m68222a6c4f" x="330.092221" y="307.584" style="stroke: #000000; stroke-width: 0.8"/>
      </g>
     </g>
     <g id="text_7">
      <!-- 250 -->
      <g transform="translate(320.548471 322.182437) scale(0.1 -0.1)">
       <use xlink:href="#DejaVuSans-32"/>
       <use xlink:href="#DejaVuSans-35" x="63.623047"/>
       <use xlink:href="#DejaVuSans-30" x="127.246094"/>
      </g>
     </g>
    </g>
    <g id="xtick_8">
     <g id="line2d_8">
      <g>
       <use xlink:href="#m68222a6c4f" x="373.611597" y="307.584" style="stroke: #000000; stroke-width: 0.8"/>
      </g>
     </g>
     <g id="text_8">
      <!-- 275 -->
      <g transform="translate(364.067847 322.182437) scale(0.1 -0.1)">
       <use xlink:href="#DejaVuSans-32"/>
       <use xlink:href="#DejaVuSans-37" x="63.623047"/>
       <use xlink:href="#DejaVuSans-35" x="127.246094"/>
      </g>
     </g>
    </g>
    <g id="text_9">
     <!-- Score -->
     <g transform="translate(222.157656 335.860562) scale(0.1 -0.1)">
      <defs>
       <path id="DejaVuSans-53" d="M 3425 4513 
L 3425 3897 
Q 3066 4069 2747 4153 
Q 2428 4238 2131 4238 
Q 1616 4238 1336 4038 
Q 1056 3838 1056 3469 
Q 1056 3159 1242 3001 
Q 1428 2844 1947 2747 
L 2328 2669 
Q 3034 2534 3370 2195 
Q 3706 1856 3706 1288 
Q 3706 609 3251 259 
Q 2797 -91 1919 -91 
Q 1588 -91 1214 -16 
Q 841 59 441 206 
L 441 856 
Q 825 641 1194 531 
Q 1563 422 1919 422 
Q 2459 422 2753 634 
Q 3047 847 3047 1241 
Q 3047 1584 2836 1778 
Q 2625 1972 2144 2069 
L 1759 2144 
Q 1053 2284 737 2584 
Q 422 2884 422 3419 
Q 422 4038 858 4394 
Q 1294 4750 2059 4750 
Q 2388 4750 2728 4690 
Q 3069 4631 3425 4513 
z
" transform="scale(0.015625)"/>
       <path id="DejaVuSans-63" d="M 3122 3366 
L 3122 2828 
Q 2878 2963 2633 3030 
Q 2388 3097 2138 3097 
Q 1578 3097 1268 2742 
Q 959 2388 959 1747 
Q 959 1106 1268 751 
Q 1578 397 2138 397 
Q 2388 397 2633 464 
Q 2878 531 3122 666 
L 3122 134 
Q 2881 22 2623 -34 
Q 2366 -91 2075 -91 
Q 1284 -91 818 406 
Q 353 903 353 1747 
Q 353 2603 823 3093 
Q 1294 3584 2113 3584 
Q 2378 3584 2631 3529 
Q 2884 3475 3122 3366 
z
" transform="scale(0.015625)"/>
       <path id="DejaVuSans-6f" d="M 1959 3097 
Q 1497 3097 1228 2736 
Q 959 2375 959 1747 
Q 959 1119 1226 758 
Q 1494 397 1959 397 
Q 2419 397 2687 759 
Q 2956 1122 2956 1747 
Q 2956 2369 2687 2733 
Q 2419 3097 1959 3097 
z
M 1959 3584 
Q 2709 3584 3137 3096 
Q 3566 2609 3566 1747 
Q 3566 888 3137 398 
Q 2709 -91 1959 -91 
Q 1206 -91 779 398 
Q 353 888 353 1747 
Q 353 2609 779 3096 
Q 1206 3584 1959 3584 
z
" transform="scale(0.015625)"/>
       <path id="DejaVuSans-72" d="M 2631 2963 
Q 2534 3019 2420 3045 
Q 2306 3072 2169 3072 
Q 1681 3072 1420 2755 
Q 1159 2438 1159 1844 
L 1159 0 
L 581 0 
L 581 3500 
L 1159 3500 
L 1159 2956 
Q 1341 3275 1631 3429 
Q 1922 3584 2338 3584 
Q 2397 3584 2469 3576 
Q 2541 3569 2628 3553 
L 2631 2963 
z
" transform="scale(0.015625)"/>
       <path id="DejaVuSans-65" d="M 3597 1894 
L 3597 1613 
L 953 1613 
Q 991 1019 1311 708 
Q 1631 397 2203 397 
Q 2534 397 2845 478 
Q 3156 559 3463 722 
L 3463 178 
Q 3153 47 2828 -22 
Q 2503 -91 2169 -91 
Q 1331 -91 842 396 
Q 353 884 353 1716 
Q 353 2575 817 3079 
Q 1281 3584 2069 3584 
Q 2775 3584 3186 3129 
Q 3597 2675 3597 1894 
z
M 3022 2063 
Q 3016 2534 2758 2815 
Q 2500 3097 2075 3097 
Q 1594 3097 1305 2825 
Q 1016 2553 972 2059 
L 3022 2063 
z
" transform="scale(0.015625)"/>
      </defs>
      <use xlink:href="#DejaVuSans-53"/>
      <use xlink:href="#DejaVuSans-63" x="63.476562"/>
      <use xlink:href="#DejaVuSans-6f" x="118.457031"/>
      <use xlink:href="#DejaVuSans-72" x="179.638672"/>
      <use xlink:href="#DejaVuSans-65" x="218.501953"/>
     </g>
    </g>
   </g>
   <g id="matplotlib.axis_2">
    <g id="ytick_1">
     <g id="line2d_9">
      <defs>
       <path id="m7579b9b6a6" d="M 0 0 
L -3.5 0 
" style="stroke: #000000; stroke-width: 0.8"/>
      </defs>
      <g>
       <use xlink:href="#m7579b9b6a6" x="57.6" y="307.584" style="stroke: #000000; stroke-width: 0.8"/>
      </g>
     </g>
     <g id="text_10">
      <!-- 0 -->
      <g transform="translate(44.2375 311.383219) scale(0.1 -0.1)">
       <use xlink:href="#DejaVuSans-30"/>
      </g>
     </g>
    </g>
    <g id="ytick_2">
     <g id="line2d_10">
      <g>
       <use xlink:href="#m7579b9b6a6" x="57.6" y="257.397861" style="stroke: #000000; stroke-width: 0.8"/>
      </g>
     </g>
     <g id="text_11">
      <!-- 20 -->
      <g transform="translate(37.875 261.19708) scale(0.1 -0.1)">
       <use xlink:href="#DejaVuSans-32"/>
       <use xlink:href="#DejaVuSans-30" x="63.623047"/>
      </g>
     </g>
    </g>
    <g id="ytick_3">
     <g id="line2d_11">
      <g>
       <use xlink:href="#m7579b9b6a6" x="57.6" y="207.211723" style="stroke: #000000; stroke-width: 0.8"/>
      </g>
     </g>
     <g id="text_12">
      <!-- 40 -->
      <g transform="translate(37.875 211.010942) scale(0.1 -0.1)">
       <defs>
        <path id="DejaVuSans-34" d="M 2419 4116 
L 825 1625 
L 2419 1625 
L 2419 4116 
z
M 2253 4666 
L 3047 4666 
L 3047 1625 
L 3713 1625 
L 3713 1100 
L 3047 1100 
L 3047 0 
L 2419 0 
L 2419 1100 
L 313 1100 
L 313 1709 
L 2253 4666 
z
" transform="scale(0.015625)"/>
       </defs>
       <use xlink:href="#DejaVuSans-34"/>
       <use xlink:href="#DejaVuSans-30" x="63.623047"/>
      </g>
     </g>
    </g>
    <g id="ytick_4">
     <g id="line2d_12">
      <g>
       <use xlink:href="#m7579b9b6a6" x="57.6" y="157.025584" style="stroke: #000000; stroke-width: 0.8"/>
      </g>
     </g>
     <g id="text_13">
      <!-- 60 -->
      <g transform="translate(37.875 160.824803) scale(0.1 -0.1)">
       <defs>
        <path id="DejaVuSans-36" d="M 2113 2584 
Q 1688 2584 1439 2293 
Q 1191 2003 1191 1497 
Q 1191 994 1439 701 
Q 1688 409 2113 409 
Q 2538 409 2786 701 
Q 3034 994 3034 1497 
Q 3034 2003 2786 2293 
Q 2538 2584 2113 2584 
z
M 3366 4563 
L 3366 3988 
Q 3128 4100 2886 4159 
Q 2644 4219 2406 4219 
Q 1781 4219 1451 3797 
Q 1122 3375 1075 2522 
Q 1259 2794 1537 2939 
Q 1816 3084 2150 3084 
Q 2853 3084 3261 2657 
Q 3669 2231 3669 1497 
Q 3669 778 3244 343 
Q 2819 -91 2113 -91 
Q 1303 -91 875 529 
Q 447 1150 447 2328 
Q 447 3434 972 4092 
Q 1497 4750 2381 4750 
Q 2619 4750 2861 4703 
Q 3103 4656 3366 4563 
z
" transform="scale(0.015625)"/>
       </defs>
       <use xlink:href="#DejaVuSans-36"/>
       <use xlink:href="#DejaVuSans-30" x="63.623047"/>
      </g>
     </g>
    </g>
    <g id="ytick_5">
     <g id="line2d_13">
      <g>
       <use xlink:href="#m7579b9b6a6" x="57.6" y="106.839446" style="stroke: #000000; stroke-width: 0.8"/>
      </g>
     </g>
     <g id="text_14">
      <!-- 80 -->
      <g transform="translate(37.875 110.638664) scale(0.1 -0.1)">
       <defs>
        <path id="DejaVuSans-38" d="M 2034 2216 
Q 1584 2216 1326 1975 
Q 1069 1734 1069 1313 
Q 1069 891 1326 650 
Q 1584 409 2034 409 
Q 2484 409 2743 651 
Q 3003 894 3003 1313 
Q 3003 1734 2745 1975 
Q 2488 2216 2034 2216 
z
M 1403 2484 
Q 997 2584 770 2862 
Q 544 3141 544 3541 
Q 544 4100 942 4425 
Q 1341 4750 2034 4750 
Q 2731 4750 3128 4425 
Q 3525 4100 3525 3541 
Q 3525 3141 3298 2862 
Q 3072 2584 2669 2484 
Q 3125 2378 3379 2068 
Q 3634 1759 3634 1313 
Q 3634 634 3220 271 
Q 2806 -91 2034 -91 
Q 1263 -91 848 271 
Q 434 634 434 1313 
Q 434 1759 690 2068 
Q 947 2378 1403 2484 
z
M 1172 3481 
Q 1172 3119 1398 2916 
Q 1625 2713 2034 2713 
Q 2441 2713 2670 2916 
Q 2900 3119 2900 3481 
Q 2900 3844 2670 4047 
Q 2441 4250 2034 4250 
Q 1625 4250 1398 4047 
Q 1172 3844 1172 3481 
z
" transform="scale(0.015625)"/>
       </defs>
       <use xlink:href="#DejaVuSans-38"/>
       <use xlink:href="#DejaVuSans-30" x="63.623047"/>
      </g>
     </g>
    </g>
    <g id="ytick_6">
     <g id="line2d_14">
      <g>
       <use xlink:href="#m7579b9b6a6" x="57.6" y="56.653307" style="stroke: #000000; stroke-width: 0.8"/>
      </g>
     </g>
     <g id="text_15">
      <!-- 100 -->
      <g transform="translate(31.5125 60.452526) scale(0.1 -0.1)">
       <use xlink:href="#DejaVuSans-31"/>
       <use xlink:href="#DejaVuSans-30" x="63.623047"/>
       <use xlink:href="#DejaVuSans-30" x="127.246094"/>
      </g>
     </g>
    </g>
    <g id="text_16">
     <!-- Number of crosslinks -->
     <g transform="translate(25.432812 227.019406) rotate(-90) scale(0.1 -0.1)">
      <defs>
       <path id="DejaVuSans-4e" d="M 628 4666 
L 1478 4666 
L 3547 763 
L 3547 4666 
L 4159 4666 
L 4159 0 
L 3309 0 
L 1241 3903 
L 1241 0 
L 628 0 
L 628 4666 
z
" transform="scale(0.015625)"/>
       <path id="DejaVuSans-75" d="M 544 1381 
L 544 3500 
L 1119 3500 
L 1119 1403 
Q 1119 906 1312 657 
Q 1506 409 1894 409 
Q 2359 409 2629 706 
Q 2900 1003 2900 1516 
L 2900 3500 
L 3475 3500 
L 3475 0 
L 2900 0 
L 2900 538 
Q 2691 219 2414 64 
Q 2138 -91 1772 -91 
Q 1169 -91 856 284 
Q 544 659 544 1381 
z
M 1991 3584 
L 1991 3584 
z
" transform="scale(0.015625)"/>
       <path id="DejaVuSans-6d" d="M 3328 2828 
Q 3544 3216 3844 3400 
Q 4144 3584 4550 3584 
Q 5097 3584 5394 3201 
Q 5691 2819 5691 2113 
L 5691 0 
L 5113 0 
L 5113 2094 
Q 5113 2597 4934 2840 
Q 4756 3084 4391 3084 
Q 3944 3084 3684 2787 
Q 3425 2491 3425 1978 
L 3425 0 
L 2847 0 
L 2847 2094 
Q 2847 2600 2669 2842 
Q 2491 3084 2119 3084 
Q 1678 3084 1418 2786 
Q 1159 2488 1159 1978 
L 1159 0 
L 581 0 
L 581 3500 
L 1159 3500 
L 1159 2956 
Q 1356 3278 1631 3431 
Q 1906 3584 2284 3584 
Q 2666 3584 2933 3390 
Q 3200 3197 3328 2828 
z
" transform="scale(0.015625)"/>
       <path id="DejaVuSans-62" d="M 3116 1747 
Q 3116 2381 2855 2742 
Q 2594 3103 2138 3103 
Q 1681 3103 1420 2742 
Q 1159 2381 1159 1747 
Q 1159 1113 1420 752 
Q 1681 391 2138 391 
Q 2594 391 2855 752 
Q 3116 1113 3116 1747 
z
M 1159 2969 
Q 1341 3281 1617 3432 
Q 1894 3584 2278 3584 
Q 2916 3584 3314 3078 
Q 3713 2572 3713 1747 
Q 3713 922 3314 415 
Q 2916 -91 2278 -91 
Q 1894 -91 1617 61 
Q 1341 213 1159 525 
L 1159 0 
L 581 0 
L 581 4863 
L 1159 4863 
L 1159 2969 
z
" transform="scale(0.015625)"/>
       <path id="DejaVuSans-20" transform="scale(0.015625)"/>
       <path id="DejaVuSans-66" d="M 2375 4863 
L 2375 4384 
L 1825 4384 
Q 1516 4384 1395 4259 
Q 1275 4134 1275 3809 
L 1275 3500 
L 2222 3500 
L 2222 3053 
L 1275 3053 
L 1275 0 
L 697 0 
L 697 3053 
L 147 3053 
L 147 3500 
L 697 3500 
L 697 3744 
Q 697 4328 969 4595 
Q 1241 4863 1831 4863 
L 2375 4863 
z
" transform="scale(0.015625)"/>
       <path id="DejaVuSans-73" d="M 2834 3397 
L 2834 2853 
Q 2591 2978 2328 3040 
Q 2066 3103 1784 3103 
Q 1356 3103 1142 2972 
Q 928 2841 928 2578 
Q 928 2378 1081 2264 
Q 1234 2150 1697 2047 
L 1894 2003 
Q 2506 1872 2764 1633 
Q 3022 1394 3022 966 
Q 3022 478 2636 193 
Q 2250 -91 1575 -91 
Q 1294 -91 989 -36 
Q 684 19 347 128 
L 347 722 
Q 666 556 975 473 
Q 1284 391 1588 391 
Q 1994 391 2212 530 
Q 2431 669 2431 922 
Q 2431 1156 2273 1281 
Q 2116 1406 1581 1522 
L 1381 1569 
Q 847 1681 609 1914 
Q 372 2147 372 2553 
Q 372 3047 722 3315 
Q 1072 3584 1716 3584 
Q 2034 3584 2315 3537 
Q 2597 3491 2834 3397 
z
" transform="scale(0.015625)"/>
       <path id="DejaVuSans-6c" d="M 603 4863 
L 1178 4863 
L 1178 0 
L 603 0 
L 603 4863 
z
" transform="scale(0.015625)"/>
       <path id="DejaVuSans-69" d="M 603 3500 
L 1178 3500 
L 1178 0 
L 603 0 
L 603 3500 
z
M 603 4863 
L 1178 4863 
L 1178 4134 
L 603 4134 
L 603 4863 
z
" transform="scale(0.015625)"/>
       <path id="DejaVuSans-6e" d="M 3513 2113 
L 3513 0 
L 2938 0 
L 2938 2094 
Q 2938 2591 2744 2837 
Q 2550 3084 2163 3084 
Q 1697 3084 1428 2787 
Q 1159 2491 1159 1978 
L 1159 0 
L 581 0 
L 581 3500 
L 1159 3500 
L 1159 2956 
Q 1366 3272 1645 3428 
Q 1925 3584 2291 3584 
Q 2894 3584 3203 3211 
Q 3513 2838 3513 2113 
z
" transform="scale(0.015625)"/>
       <path id="DejaVuSans-6b" d="M 581 4863 
L 1159 4863 
L 1159 1991 
L 2875 3500 
L 3609 3500 
L 1753 1863 
L 3688 0 
L 2938 0 
L 1159 1709 
L 1159 0 
L 581 0 
L 581 4863 
z
" transform="scale(0.015625)"/>
      </defs>
      <use xlink:href="#DejaVuSans-4e"/>
      <use xlink:href="#DejaVuSans-75" x="74.804688"/>
      <use xlink:href="#DejaVuSans-6d" x="138.183594"/>
      <use xlink:href="#DejaVuSans-62" x="235.595703"/>
      <use xlink:href="#DejaVuSans-65" x="299.072266"/>
      <use xlink:href="#DejaVuSans-72" x="360.595703"/>
      <use xlink:href="#DejaVuSans-20" x="401.708984"/>
      <use xlink:href="#DejaVuSans-6f" x="433.496094"/>
      <use xlink:href="#DejaVuSans-66" x="494.677734"/>
      <use xlink:href="#DejaVuSans-20" x="529.882812"/>
      <use xlink:href="#DejaVuSans-63" x="561.669922"/>
      <use xlink:href="#DejaVuSans-72" x="616.650391"/>
      <use xlink:href="#DejaVuSans-6f" x="655.513672"/>
      <use xlink:href="#DejaVuSans-73" x="716.695312"/>
      <use xlink:href="#DejaVuSans-73" x="768.794922"/>
      <use xlink:href="#DejaVuSans-6c" x="820.894531"/>
      <use xlink:href="#DejaVuSans-69" x="848.677734"/>
      <use xlink:href="#DejaVuSans-6e" x="876.460938"/>
      <use xlink:href="#DejaVuSans-6b" x="939.839844"/>
      <use xlink:href="#DejaVuSans-73" x="997.75"/>
     </g>
    </g>
   </g>
   <g id="patch_3">
    <path d="M 57.6 307.584 
L 57.6 41.472 
" style="fill: none; stroke: #000000; stroke-width: 0.8; stroke-linejoin: miter; stroke-linecap: square"/>
   </g>
   <g id="patch_4">
    <path d="M 414.72 307.584 
L 414.72 41.472 
" style="fill: none; stroke: #000000; stroke-width: 0.8; stroke-linejoin: miter; stroke-linecap: square"/>
   </g>
   <g id="patch_5">
    <path d="M 57.6 307.584 
L 414.72 307.584 
" style="fill: none; stroke: #000000; stroke-width: 0.8; stroke-linejoin: miter; stroke-linecap: square"/>
   </g>
   <g id="patch_6">
    <path d="M 57.6 41.472 
L 414.72 41.472 
" style="fill: none; stroke: #000000; stroke-width: 0.8; stroke-linejoin: miter; stroke-linecap: square"/>
   </g>
   <g id="legend_1">
    <g id="patch_7">
     <path d="M 293.087188 93.506375 
L 407.72 93.506375 
Q 409.72 93.506375 409.72 91.506375 
L 409.72 48.472 
Q 409.72 46.472 407.72 46.472 
L 293.087188 46.472 
Q 291.087188 46.472 291.087188 48.472 
L 291.087188 91.506375 
Q 291.087188 93.506375 293.087188 93.506375 
z
" style="fill: #ffffff; opacity: 0.8; stroke: #cccccc; stroke-linejoin: miter"/>
    </g>
    <g id="patch_8">
     <path d="M 295.087188 58.070438 
L 315.087188 58.070438 
L 315.087188 51.070438 
L 295.087188 51.070438 
z
" style="fill: #008000"/>
    </g>
    <g id="text_17">
     <!-- true -->
     <g transform="translate(323.087188 58.070438) scale(0.1 -0.1)">
      <defs>
       <path id="DejaVuSans-74" d="M 1172 4494 
L 1172 3500 
L 2356 3500 
L 2356 3053 
L 1172 3053 
L 1172 1153 
Q 1172 725 1289 603 
Q 1406 481 1766 481 
L 2356 481 
L 2356 0 
L 1766 0 
Q 1100 0 847 248 
Q 594 497 594 1153 
L 594 3053 
L 172 3053 
L 172 3500 
L 594 3500 
L 594 4494 
L 1172 4494 
z
" transform="scale(0.015625)"/>
      </defs>
      <use xlink:href="#DejaVuSans-74"/>
      <use xlink:href="#DejaVuSans-72" x="39.208984"/>
      <use xlink:href="#DejaVuSans-75" x="80.322266"/>
      <use xlink:href="#DejaVuSans-65" x="143.701172"/>
     </g>
    </g>
    <g id="patch_9">
     <path d="M 295.087188 72.748563 
L 315.087188 72.748563 
L 315.087188 65.748563 
L 295.087188 65.748563 
z
" style="fill: #7cfc00"/>
    </g>
    <g id="text_18">
     <!-- true homeotypic -->
     <g transform="translate(323.087188 72.748563) scale(0.1 -0.1)">
      <defs>
       <path id="DejaVuSans-68" d="M 3513 2113 
L 3513 0 
L 2938 0 
L 2938 2094 
Q 2938 2591 2744 2837 
Q 2550 3084 2163 3084 
Q 1697 3084 1428 2787 
Q 1159 2491 1159 1978 
L 1159 0 
L 581 0 
L 581 4863 
L 1159 4863 
L 1159 2956 
Q 1366 3272 1645 3428 
Q 1925 3584 2291 3584 
Q 2894 3584 3203 3211 
Q 3513 2838 3513 2113 
z
" transform="scale(0.015625)"/>
       <path id="DejaVuSans-79" d="M 2059 -325 
Q 1816 -950 1584 -1140 
Q 1353 -1331 966 -1331 
L 506 -1331 
L 506 -850 
L 844 -850 
Q 1081 -850 1212 -737 
Q 1344 -625 1503 -206 
L 1606 56 
L 191 3500 
L 800 3500 
L 1894 763 
L 2988 3500 
L 3597 3500 
L 2059 -325 
z
" transform="scale(0.015625)"/>
       <path id="DejaVuSans-70" d="M 1159 525 
L 1159 -1331 
L 581 -1331 
L 581 3500 
L 1159 3500 
L 1159 2969 
Q 1341 3281 1617 3432 
Q 1894 3584 2278 3584 
Q 2916 3584 3314 3078 
Q 3713 2572 3713 1747 
Q 3713 922 3314 415 
Q 2916 -91 2278 -91 
Q 1894 -91 1617 61 
Q 1341 213 1159 525 
z
M 3116 1747 
Q 3116 2381 2855 2742 
Q 2594 3103 2138 3103 
Q 1681 3103 1420 2742 
Q 1159 2381 1159 1747 
Q 1159 1113 1420 752 
Q 1681 391 2138 391 
Q 2594 391 2855 752 
Q 3116 1113 3116 1747 
z
" transform="scale(0.015625)"/>
      </defs>
      <use xlink:href="#DejaVuSans-74"/>
      <use xlink:href="#DejaVuSans-72" x="39.208984"/>
      <use xlink:href="#DejaVuSans-75" x="80.322266"/>
      <use xlink:href="#DejaVuSans-65" x="143.701172"/>
      <use xlink:href="#DejaVuSans-20" x="205.224609"/>
      <use xlink:href="#DejaVuSans-68" x="237.011719"/>
      <use xlink:href="#DejaVuSans-6f" x="300.390625"/>
      <use xlink:href="#DejaVuSans-6d" x="361.572266"/>
      <use xlink:href="#DejaVuSans-65" x="458.984375"/>
      <use xlink:href="#DejaVuSans-6f" x="520.507812"/>
      <use xlink:href="#DejaVuSans-74" x="581.689453"/>
      <use xlink:href="#DejaVuSans-79" x="620.898438"/>
      <use xlink:href="#DejaVuSans-70" x="680.078125"/>
      <use xlink:href="#DejaVuSans-69" x="743.554688"/>
      <use xlink:href="#DejaVuSans-63" x="771.337891"/>
     </g>
    </g>
    <g id="patch_10">
     <path d="M 295.087188 87.426688 
L 315.087188 87.426688 
L 315.087188 80.426688 
L 295.087188 80.426688 
z
" style="fill: #ff0000"/>
    </g>
    <g id="text_19">
     <!-- false -->
     <g transform="translate(323.087188 87.426688) scale(0.1 -0.1)">
      <defs>
       <path id="DejaVuSans-61" d="M 2194 1759 
Q 1497 1759 1228 1600 
Q 959 1441 959 1056 
Q 959 750 1161 570 
Q 1363 391 1709 391 
Q 2188 391 2477 730 
Q 2766 1069 2766 1631 
L 2766 1759 
L 2194 1759 
z
M 3341 1997 
L 3341 0 
L 2766 0 
L 2766 531 
Q 2569 213 2275 61 
Q 1981 -91 1556 -91 
Q 1019 -91 701 211 
Q 384 513 384 1019 
Q 384 1609 779 1909 
Q 1175 2209 1959 2209 
L 2766 2209 
L 2766 2266 
Q 2766 2663 2505 2880 
Q 2244 3097 1772 3097 
Q 1472 3097 1187 3025 
Q 903 2953 641 2809 
L 641 3341 
Q 956 3463 1253 3523 
Q 1550 3584 1831 3584 
Q 2591 3584 2966 3190 
Q 3341 2797 3341 1997 
z
" transform="scale(0.015625)"/>
      </defs>
      <use xlink:href="#DejaVuSans-66"/>
      <use xlink:href="#DejaVuSans-61" x="35.205078"/>
      <use xlink:href="#DejaVuSans-6c" x="96.484375"/>
      <use xlink:href="#DejaVuSans-73" x="124.267578"/>
      <use xlink:href="#DejaVuSans-65" x="176.367188"/>
     </g>
    </g>
   </g>
  </g>
 </g>
 <defs>
  <clipPath id="pfaeb4740d4">
   <rect x="57.6" y="41.472" width="357.12" height="266.112"/>
  </clipPath>
 </defs>
</svg>
