<?xml version="1.0" encoding="utf-8" standalone="no"?>
<!DOCTYPE svg PUBLIC "-//W3C//DTD SVG 1.1//EN"
  "http://www.w3.org/Graphics/SVG/1.1/DTD/svg11.dtd">
<svg xmlns:xlink="http://www.w3.org/1999/xlink" width="460.8pt" height="345.6pt" viewBox="0 0 460.8 345.6" xmlns="http://www.w3.org/2000/svg" version="1.1">
 <metadata>
  <rdf:RDF xmlns:dc="http://purl.org/dc/elements/1.1/" xmlns:cc="http://creativecommons.org/ns#" xmlns:rdf="http://www.w3.org/1999/02/22-rdf-syntax-ns#">
   <cc:Work>
    <dc:type rdf:resource="http://purl.org/dc/dcmitype/StillImage"/>
    <dc:date>2024-06-24T13:01:00.043028</dc:date>
    <dc:format>image/svg+xml</dc:format>
    <dc:creator>
     <cc:Agent>
      <dc:title>Matplotlib v3.9.0, https://matplotlib.org/</dc:title>
     </cc:Agent>
    </dc:creator>
   </cc:Work>
  </rdf:RDF>
 </metadata>
 <defs>
  <style type="text/css">*{stroke-linejoin: round; stroke-linecap: butt}</style>
 </defs>
 <g id="figure_1">
  <g id="patch_1">
   <path d="M 0 345.6 
L 460.8 345.6 
L 460.8 0 
L 0 0 
z
" style="fill: #ffffff"/>
  </g>
  <g id="axes_1">
   <g id="patch_2">
    <path d="M 57.6 307.584 
L 414.72 307.584 
L 414.72 41.472 
L 57.6 41.472 
z
" style="fill: #ffffff"/>
   </g>
   <g id="PolyCollection_1">
    <path d="M 73.832727 107.971965 
L 73.832727 307.584 
L 75.187923 307.584 
L 76.177946 307.584 
L 77.890199 307.584 
L 78.011923 307.584 
L 78.036268 307.584 
L 79.245395 307.584 
L 80.243533 307.584 
L 80.762889 307.584 
L 81.566268 307.584 
L 85.493901 307.584 
L 86.289166 307.584 
L 89.226775 307.584 
L 94.858546 307.584 
L 94.899121 307.584 
L 95.532086 307.584 
L 97.090155 307.584 
L 97.439098 307.584 
L 98.072064 307.584 
L 98.096408 307.584 
L 98.274937 307.584 
L 98.494041 307.584 
L 99.070202 307.584 
L 100.555236 307.584 
L 100.920409 307.584 
L 100.928524 307.584 
L 101.49657 307.584 
L 101.942892 307.584 
L 102.372984 307.584 
L 102.462248 307.584 
L 103.241283 307.584 
L 103.874248 307.584 
L 103.931053 307.584 
L 104.182616 307.584 
L 104.30434 307.584 
L 104.32057 307.584 
L 104.555903 307.584 
L 104.904846 307.584 
L 105.172639 307.584 
L 105.221329 307.584 
L 105.399858 307.584 
L 105.610846 307.584 
L 105.659536 307.584 
L 105.73257 307.584 
L 106.982272 307.584 
L 107.306869 307.584 
L 107.420479 307.584 
L 107.550318 307.584 
L 107.728846 307.584 
L 108.126479 307.584 
L 108.434846 307.584 
L 108.800019 307.584 
L 109.140847 307.584 
L 109.416755 307.584 
L 111.469835 307.584 
L 111.502295 307.584 
L 112.119031 307.584 
L 112.289445 307.584 
L 112.378709 307.584 
L 112.93864 307.584 
L 114.301951 307.584 
L 114.423675 307.584 
L 114.951146 307.584 
L 115.746411 307.584 
L 116.979882 307.584 
L 117.198985 307.584 
L 117.539813 307.584 
L 118.262043 307.584 
L 119.479285 307.584 
L 120.477423 307.584 
L 120.526112 307.584 
L 120.542342 307.584 
L 120.704641 307.584 
L 120.83448 307.584 
L 121.938112 307.584 
L 123.04986 307.584 
L 123.212159 307.584 
L 123.747745 307.584 
L 124.599814 307.584 
L 124.624159 307.584 
L 125.744021 307.584 
L 125.898205 307.584 
L 126.239033 307.584 
L 126.750274 307.584 
L 127.001837 307.584 
L 127.196596 307.584 
L 127.813332 307.584 
L 128.02432 307.584 
L 128.129814 307.584 
L 128.210964 307.584 
L 128.219079 307.584 
L 128.267768 307.584 
L 129.144182 307.584 
L 129.793378 307.584 
L 129.874527 307.584 
L 130.2397 307.584 
L 130.856435 307.584 
L 131.197263 307.584 
L 131.578665 307.584 
L 132.073677 307.584 
L 132.641723 307.584 
L 133.185424 307.584 
L 133.931999 307.584 
L 134.686689 307.584 
L 137.275356 307.584 
L 137.908321 307.584 
L 137.932666 307.584 
L 139.231057 307.584 
L 139.48262 307.584 
L 140.456414 307.584 
L 140.667402 307.584 
L 140.983885 307.584 
L 141.300368 307.584 
L 141.73046 307.584 
L 143.994529 307.584 
L 144.384046 307.584 
L 144.692414 307.584 
L 146.640001 307.584 
L 146.75361 307.584 
L 146.818529 307.584 
L 147.337886 307.584 
L 147.646254 307.584 
L 147.857242 307.584 
L 149.326047 307.584 
L 150.324185 307.584 
L 150.97338 307.584 
L 151.07076 307.584 
L 151.492737 307.584 
L 151.874139 307.584 
L 151.922829 307.584 
L 152.028323 307.584 
L 152.060783 307.584 
L 152.117587 307.584 
L 153.002116 307.584 
L 154.146323 307.584 
L 155.022737 307.584 
L 155.720622 307.584 
L 156.386048 307.584 
L 156.710645 307.584 
L 157.035243 307.584 
L 158.495933 307.584 
L 158.90168 307.584 
L 159.396692 307.584 
L 159.964738 307.584 
L 161.003451 307.584 
L 162.650784 307.584 
L 163.243175 307.584 
L 163.527198 307.584 
L 164.866164 307.584 
L 166.383658 307.584 
L 166.578417 307.584 
L 167.195152 307.584 
L 167.61713 307.584 
L 169.426762 307.584 
L 169.475452 307.584 
L 169.621521 307.584 
L 170.44113 307.584 
L 171.106555 307.584 
L 171.260739 307.584 
L 174.636556 307.584 
L 175.074763 307.584 
L 175.439935 307.584 
L 176.851935 307.584 
L 177.533591 307.584 
L 179.253959 307.584 
L 179.602901 307.584 
L 180.649729 307.584 
L 180.738993 307.584 
L 185.437546 307.584 
L 187.101109 307.584 
L 188.083017 307.584 
L 188.578029 307.584 
L 189.714121 307.584 
L 190.866443 307.584 
L 191.036857 307.584 
L 191.783431 307.584 
L 191.888926 307.584 
L 193.982581 307.584 
L 195.670489 307.584 
L 197.747915 307.584 
L 199.030076 307.584 
L 200.904628 307.584 
L 202.300398 307.584 
L 204.085686 307.584 
L 204.491433 307.584 
L 205.311042 307.584 
L 207.867249 307.584 
L 208.029548 307.584 
L 211.340445 307.584 
L 213.766813 307.584 
L 213.791158 307.584 
L 217.824285 307.584 
L 223.999757 307.584 
L 228.349367 307.584 
L 229.031022 307.584 
L 229.30693 307.584 
L 229.477344 307.584 
L 229.672103 307.584 
L 233.721459 307.584 
L 234.192126 307.584 
L 234.476149 307.584 
L 235.027965 307.584 
L 240.481207 307.584 
L 245.204105 307.584 
L 246.299622 307.584 
L 246.348312 307.584 
L 246.62422 307.584 
L 250.803416 307.584 
L 261.774819 307.584 
L 264.890958 307.584 
L 264.996452 307.584 
L 275.838016 307.584 
L 278.905465 307.584 
L 282.297511 307.584 
L 294.843214 307.584 
L 297.634755 307.584 
L 303.112342 307.584 
L 307.697285 307.584 
L 310.683584 307.584 
L 336.132047 307.584 
L 336.708208 307.584 
L 345.683335 307.584 
L 385.592627 307.584 
L 398.487273 307.584 
L 398.487273 307.584 
L 398.487273 307.584 
L 385.592627 307.584 
L 345.683335 307.584 
L 336.708208 307.584 
L 336.132047 306.462584 
L 310.683584 306.462584 
L 307.697285 306.462584 
L 303.112342 306.462584 
L 297.634755 306.462584 
L 294.843214 306.462584 
L 282.297511 305.341168 
L 278.905465 305.341168 
L 275.838016 305.341168 
L 264.996452 304.219752 
L 264.890958 303.098336 
L 261.774819 303.098336 
L 250.803416 303.098336 
L 246.62422 303.098336 
L 246.348312 301.97692 
L 246.299622 300.855504 
L 245.204105 299.734088 
L 240.481207 299.734088 
L 235.027965 298.612673 
L 234.476149 297.491257 
L 234.192126 296.369841 
L 233.721459 296.369841 
L 229.672103 296.369841 
L 229.477344 296.369841 
L 229.30693 296.369841 
L 229.031022 295.248425 
L 228.349367 294.127009 
L 223.999757 293.005593 
L 217.824285 293.005593 
L 213.791158 293.005593 
L 213.766813 293.005593 
L 211.340445 291.884177 
L 208.029548 290.762761 
L 207.867249 290.762761 
L 205.311042 290.762761 
L 204.491433 289.641345 
L 204.085686 288.519929 
L 202.300398 288.519929 
L 200.904628 288.519929 
L 199.030076 287.398513 
L 197.747915 286.277097 
L 195.670489 285.155681 
L 193.982581 285.155681 
L 191.888926 284.034265 
L 191.783431 282.91285 
L 191.036857 281.791434 
L 190.866443 280.670018 
L 189.714121 279.548602 
L 188.578029 278.427186 
L 188.083017 277.30577 
L 187.101109 276.184354 
L 185.437546 275.062938 
L 180.738993 275.062938 
L 180.649729 273.941522 
L 179.602901 272.820106 
L 179.253959 271.69869 
L 177.533591 270.577274 
L 176.851935 269.455858 
L 175.439935 268.334442 
L 175.074763 267.213027 
L 174.636556 266.091611 
L 171.260739 264.970195 
L 171.106555 263.848779 
L 170.44113 263.848779 
L 169.621521 262.727363 
L 169.475452 261.605947 
L 169.426762 260.484531 
L 167.61713 259.363115 
L 167.195152 258.241699 
L 166.578417 257.120283 
L 166.383658 255.998867 
L 164.866164 254.877451 
L 163.527198 253.756035 
L 163.243175 253.756035 
L 162.650784 252.634619 
L 161.003451 252.634619 
L 159.964738 251.513204 
L 159.396692 250.391788 
L 158.90168 249.270372 
L 158.495933 248.148956 
L 157.035243 247.02754 
L 156.710645 245.906124 
L 156.386048 244.784708 
L 155.720622 243.663292 
L 155.022737 243.663292 
L 154.146323 242.541876 
L 153.002116 241.42046 
L 152.117587 240.299044 
L 152.060783 239.177628 
L 152.028323 238.056212 
L 151.922829 236.934796 
L 151.874139 235.813381 
L 151.492737 235.813381 
L 151.07076 234.691965 
L 150.97338 233.570549 
L 150.324185 232.449133 
L 149.326047 231.327717 
L 147.857242 230.206301 
L 147.646254 227.963469 
L 147.337886 226.842053 
L 146.818529 225.720637 
L 146.75361 224.599221 
L 146.640001 224.599221 
L 144.692414 223.477805 
L 144.384046 222.356389 
L 143.994529 221.234973 
L 141.73046 220.113558 
L 141.300368 218.992142 
L 140.983885 218.992142 
L 140.667402 217.870726 
L 140.456414 216.74931 
L 139.48262 215.627894 
L 139.231057 214.506478 
L 137.932666 213.385062 
L 137.908321 212.263646 
L 137.275356 212.263646 
L 134.686689 211.14223 
L 133.931999 210.020814 
L 133.185424 208.899398 
L 132.641723 207.777982 
L 132.073677 206.656566 
L 131.578665 205.53515 
L 131.197263 204.413735 
L 130.856435 203.292319 
L 130.2397 202.170903 
L 129.874527 201.049487 
L 129.793378 199.928071 
L 129.144182 198.806655 
L 128.267768 197.685239 
L 128.219079 196.563823 
L 128.210964 195.442407 
L 128.129814 195.442407 
L 128.02432 194.320991 
L 127.813332 193.199575 
L 127.196596 192.078159 
L 127.001837 190.956743 
L 126.750274 189.835327 
L 126.239033 188.713912 
L 125.898205 187.592496 
L 125.744021 187.592496 
L 124.624159 186.47108 
L 124.599814 185.349664 
L 123.747745 185.349664 
L 123.212159 184.228248 
L 123.04986 183.106832 
L 121.938112 183.106832 
L 120.83448 181.985416 
L 120.704641 180.864 
L 120.542342 180.864 
L 120.526112 179.742584 
L 120.477423 178.621168 
L 119.479285 177.499752 
L 118.262043 176.378336 
L 117.539813 175.25692 
L 117.198985 174.135504 
L 116.979882 173.014088 
L 115.746411 171.892673 
L 114.951146 170.771257 
L 114.423675 169.649841 
L 114.301951 168.528425 
L 112.93864 167.407009 
L 112.378709 166.285593 
L 112.289445 166.285593 
L 112.119031 165.164177 
L 111.502295 164.042761 
L 111.469835 164.042761 
L 109.416755 162.921345 
L 109.140847 161.799929 
L 108.800019 161.799929 
L 108.434846 160.678513 
L 108.126479 159.557097 
L 107.728846 158.435681 
L 107.550318 157.314265 
L 107.420479 156.19285 
L 107.306869 155.071434 
L 106.982272 152.828602 
L 105.73257 152.828602 
L 105.659536 151.707186 
L 105.610846 150.58577 
L 105.399858 149.464354 
L 105.221329 148.342938 
L 105.172639 147.221522 
L 104.904846 146.100106 
L 104.555903 144.97869 
L 104.32057 143.857274 
L 104.30434 142.735858 
L 104.182616 141.614442 
L 103.931053 140.493027 
L 103.874248 139.371611 
L 103.241283 139.371611 
L 102.462248 138.250195 
L 102.372984 137.128779 
L 101.942892 136.007363 
L 101.49657 134.885947 
L 100.928524 133.764531 
L 100.920409 132.643115 
L 100.555236 131.521699 
L 99.070202 130.400283 
L 98.494041 129.278867 
L 98.274937 128.157451 
L 98.096408 127.036035 
L 98.072064 125.914619 
L 97.439098 125.914619 
L 97.090155 124.793204 
L 95.532086 123.671788 
L 94.899121 122.550372 
L 94.858546 121.428956 
L 89.226775 120.30754 
L 86.289166 119.186124 
L 85.493901 118.064708 
L 81.566268 116.943292 
L 80.762889 115.821876 
L 80.243533 114.70046 
L 79.245395 113.579044 
L 78.036268 112.457628 
L 78.011923 111.336212 
L 77.890199 110.214796 
L 76.177946 109.093381 
L 75.187923 109.093381 
L 73.832727 107.971965 
z
" clip-path="url(#p406f61bedc)" style="fill: #008000"/>
   </g>
   <g id="PolyCollection_2">
    <path d="M 73.832727 55.265416 
L 73.832727 107.971965 
L 75.187923 109.093381 
L 76.177946 109.093381 
L 77.890199 110.214796 
L 78.011923 111.336212 
L 78.036268 112.457628 
L 79.245395 113.579044 
L 80.243533 114.70046 
L 80.762889 115.821876 
L 81.566268 116.943292 
L 85.493901 118.064708 
L 86.289166 119.186124 
L 89.226775 120.30754 
L 94.858546 121.428956 
L 94.899121 122.550372 
L 95.532086 123.671788 
L 97.090155 124.793204 
L 97.439098 125.914619 
L 98.072064 125.914619 
L 98.096408 127.036035 
L 98.274937 128.157451 
L 98.494041 129.278867 
L 99.070202 130.400283 
L 100.555236 131.521699 
L 100.920409 132.643115 
L 100.928524 133.764531 
L 101.49657 134.885947 
L 101.942892 136.007363 
L 102.372984 137.128779 
L 102.462248 138.250195 
L 103.241283 139.371611 
L 103.874248 139.371611 
L 103.931053 140.493027 
L 104.182616 141.614442 
L 104.30434 142.735858 
L 104.32057 143.857274 
L 104.555903 144.97869 
L 104.904846 146.100106 
L 105.172639 147.221522 
L 105.221329 148.342938 
L 105.399858 149.464354 
L 105.610846 150.58577 
L 105.659536 151.707186 
L 105.73257 152.828602 
L 106.982272 152.828602 
L 107.306869 155.071434 
L 107.420479 156.19285 
L 107.550318 157.314265 
L 107.728846 158.435681 
L 108.126479 159.557097 
L 108.434846 160.678513 
L 108.800019 161.799929 
L 109.140847 161.799929 
L 109.416755 162.921345 
L 111.469835 164.042761 
L 111.502295 164.042761 
L 112.119031 165.164177 
L 112.289445 166.285593 
L 112.378709 166.285593 
L 112.93864 167.407009 
L 114.301951 168.528425 
L 114.423675 169.649841 
L 114.951146 170.771257 
L 115.746411 171.892673 
L 116.979882 173.014088 
L 117.198985 174.135504 
L 117.539813 175.25692 
L 118.262043 176.378336 
L 119.479285 177.499752 
L 120.477423 178.621168 
L 120.526112 179.742584 
L 120.542342 180.864 
L 120.704641 180.864 
L 120.83448 181.985416 
L 121.938112 183.106832 
L 123.04986 183.106832 
L 123.212159 184.228248 
L 123.747745 185.349664 
L 124.599814 185.349664 
L 124.624159 186.47108 
L 125.744021 187.592496 
L 125.898205 187.592496 
L 126.239033 188.713912 
L 126.750274 189.835327 
L 127.001837 190.956743 
L 127.196596 192.078159 
L 127.813332 193.199575 
L 128.02432 194.320991 
L 128.129814 195.442407 
L 128.210964 195.442407 
L 128.219079 196.563823 
L 128.267768 197.685239 
L 129.144182 198.806655 
L 129.793378 199.928071 
L 129.874527 201.049487 
L 130.2397 202.170903 
L 130.856435 203.292319 
L 131.197263 204.413735 
L 131.578665 205.53515 
L 132.073677 206.656566 
L 132.641723 207.777982 
L 133.185424 208.899398 
L 133.931999 210.020814 
L 134.686689 211.14223 
L 137.275356 212.263646 
L 137.908321 212.263646 
L 137.932666 213.385062 
L 139.231057 214.506478 
L 139.48262 215.627894 
L 140.456414 216.74931 
L 140.667402 217.870726 
L 140.983885 218.992142 
L 141.300368 218.992142 
L 141.73046 220.113558 
L 143.994529 221.234973 
L 144.384046 222.356389 
L 144.692414 223.477805 
L 146.640001 224.599221 
L 146.75361 224.599221 
L 146.818529 225.720637 
L 147.337886 226.842053 
L 147.646254 227.963469 
L 147.857242 230.206301 
L 149.326047 231.327717 
L 150.324185 232.449133 
L 150.97338 233.570549 
L 151.07076 234.691965 
L 151.492737 235.813381 
L 151.874139 235.813381 
L 151.922829 236.934796 
L 152.028323 238.056212 
L 152.060783 239.177628 
L 152.117587 240.299044 
L 153.002116 241.42046 
L 154.146323 242.541876 
L 155.022737 243.663292 
L 155.720622 243.663292 
L 156.386048 244.784708 
L 156.710645 245.906124 
L 157.035243 247.02754 
L 158.495933 248.148956 
L 158.90168 249.270372 
L 159.396692 250.391788 
L 159.964738 251.513204 
L 161.003451 252.634619 
L 162.650784 252.634619 
L 163.243175 253.756035 
L 163.527198 253.756035 
L 164.866164 254.877451 
L 166.383658 255.998867 
L 166.578417 257.120283 
L 167.195152 258.241699 
L 167.61713 259.363115 
L 169.426762 260.484531 
L 169.475452 261.605947 
L 169.621521 262.727363 
L 170.44113 263.848779 
L 171.106555 263.848779 
L 171.260739 264.970195 
L 174.636556 266.091611 
L 175.074763 267.213027 
L 175.439935 268.334442 
L 176.851935 269.455858 
L 177.533591 270.577274 
L 179.253959 271.69869 
L 179.602901 272.820106 
L 180.649729 273.941522 
L 180.738993 275.062938 
L 185.437546 275.062938 
L 187.101109 276.184354 
L 188.083017 277.30577 
L 188.578029 278.427186 
L 189.714121 279.548602 
L 190.866443 280.670018 
L 191.036857 281.791434 
L 191.783431 282.91285 
L 191.888926 284.034265 
L 193.982581 285.155681 
L 195.670489 285.155681 
L 197.747915 286.277097 
L 199.030076 287.398513 
L 200.904628 288.519929 
L 202.300398 288.519929 
L 204.085686 288.519929 
L 204.491433 289.641345 
L 205.311042 290.762761 
L 207.867249 290.762761 
L 208.029548 290.762761 
L 211.340445 291.884177 
L 213.766813 293.005593 
L 213.791158 293.005593 
L 217.824285 293.005593 
L 223.999757 293.005593 
L 228.349367 294.127009 
L 229.031022 295.248425 
L 229.30693 296.369841 
L 229.477344 296.369841 
L 229.672103 296.369841 
L 233.721459 296.369841 
L 234.192126 296.369841 
L 234.476149 297.491257 
L 235.027965 298.612673 
L 240.481207 299.734088 
L 245.204105 299.734088 
L 246.299622 300.855504 
L 246.348312 301.97692 
L 246.62422 303.098336 
L 250.803416 303.098336 
L 261.774819 303.098336 
L 264.890958 303.098336 
L 264.996452 304.219752 
L 275.838016 305.341168 
L 278.905465 305.341168 
L 282.297511 305.341168 
L 294.843214 306.462584 
L 297.634755 306.462584 
L 303.112342 306.462584 
L 307.697285 306.462584 
L 310.683584 306.462584 
L 336.132047 306.462584 
L 336.708208 307.584 
L 345.683335 307.584 
L 385.592627 307.584 
L 398.487273 307.584 
L 398.487273 306.462584 
L 398.487273 306.462584 
L 385.592627 305.341168 
L 345.683335 304.219752 
L 336.708208 303.098336 
L 336.132047 301.97692 
L 310.683584 300.855504 
L 307.697285 299.734088 
L 303.112342 298.612673 
L 297.634755 297.491257 
L 294.843214 296.369841 
L 282.297511 295.248425 
L 278.905465 294.127009 
L 275.838016 293.005593 
L 264.996452 291.884177 
L 264.890958 290.762761 
L 261.774819 289.641345 
L 250.803416 288.519929 
L 246.62422 287.398513 
L 246.348312 286.277097 
L 246.299622 285.155681 
L 245.204105 284.034265 
L 240.481207 282.91285 
L 235.027965 281.791434 
L 234.476149 280.670018 
L 234.192126 279.548602 
L 233.721459 278.427186 
L 229.672103 277.30577 
L 229.477344 276.184354 
L 229.30693 275.062938 
L 229.031022 273.941522 
L 228.349367 272.820106 
L 223.999757 271.69869 
L 217.824285 270.577274 
L 213.791158 269.455858 
L 213.766813 268.334442 
L 211.340445 267.213027 
L 208.029548 266.091611 
L 207.867249 264.970195 
L 205.311042 263.848779 
L 204.491433 262.727363 
L 204.085686 261.605947 
L 202.300398 260.484531 
L 200.904628 259.363115 
L 199.030076 258.241699 
L 197.747915 257.120283 
L 195.670489 255.998867 
L 193.982581 254.877451 
L 191.888926 253.756035 
L 191.783431 252.634619 
L 191.036857 251.513204 
L 190.866443 250.391788 
L 189.714121 249.270372 
L 188.578029 248.148956 
L 188.083017 247.02754 
L 187.101109 245.906124 
L 185.437546 244.784708 
L 180.738993 243.663292 
L 180.649729 242.541876 
L 179.602901 241.42046 
L 179.253959 240.299044 
L 177.533591 239.177628 
L 176.851935 238.056212 
L 175.439935 236.934796 
L 175.074763 235.813381 
L 174.636556 234.691965 
L 171.260739 233.570549 
L 171.106555 232.449133 
L 170.44113 231.327717 
L 169.621521 230.206301 
L 169.475452 229.084885 
L 169.426762 227.963469 
L 167.61713 226.842053 
L 167.195152 225.720637 
L 166.578417 224.599221 
L 166.383658 223.477805 
L 164.866164 222.356389 
L 163.527198 221.234973 
L 163.243175 220.113558 
L 162.650784 218.992142 
L 161.003451 217.870726 
L 159.964738 216.74931 
L 159.396692 215.627894 
L 158.90168 214.506478 
L 158.495933 213.385062 
L 157.035243 212.263646 
L 156.710645 211.14223 
L 156.386048 210.020814 
L 155.720622 208.899398 
L 155.022737 207.777982 
L 154.146323 206.656566 
L 153.002116 205.53515 
L 152.117587 204.413735 
L 152.060783 203.292319 
L 152.028323 202.170903 
L 151.922829 201.049487 
L 151.874139 199.928071 
L 151.492737 198.806655 
L 151.07076 197.685239 
L 150.97338 196.563823 
L 150.324185 195.442407 
L 149.326047 194.320991 
L 147.857242 193.199575 
L 147.646254 190.956743 
L 147.337886 189.835327 
L 146.818529 188.713912 
L 146.75361 187.592496 
L 146.640001 186.47108 
L 144.692414 185.349664 
L 144.384046 184.228248 
L 143.994529 183.106832 
L 141.73046 181.985416 
L 141.300368 180.864 
L 140.983885 179.742584 
L 140.667402 178.621168 
L 140.456414 177.499752 
L 139.48262 176.378336 
L 139.231057 175.25692 
L 137.932666 174.135504 
L 137.908321 173.014088 
L 137.275356 171.892673 
L 134.686689 170.771257 
L 133.931999 169.649841 
L 133.185424 168.528425 
L 132.641723 167.407009 
L 132.073677 166.285593 
L 131.578665 165.164177 
L 131.197263 164.042761 
L 130.856435 162.921345 
L 130.2397 161.799929 
L 129.874527 160.678513 
L 129.793378 159.557097 
L 129.144182 158.435681 
L 128.267768 157.314265 
L 128.219079 156.19285 
L 128.210964 155.071434 
L 128.129814 153.950018 
L 128.02432 152.828602 
L 127.813332 151.707186 
L 127.196596 150.58577 
L 127.001837 149.464354 
L 126.750274 148.342938 
L 126.239033 147.221522 
L 125.898205 146.100106 
L 125.744021 144.97869 
L 124.624159 143.857274 
L 124.599814 142.735858 
L 123.747745 141.614442 
L 123.212159 140.493027 
L 123.04986 139.371611 
L 121.938112 138.250195 
L 120.83448 137.128779 
L 120.704641 136.007363 
L 120.542342 134.885947 
L 120.526112 133.764531 
L 120.477423 132.643115 
L 119.479285 131.521699 
L 118.262043 130.400283 
L 117.539813 129.278867 
L 117.198985 128.157451 
L 116.979882 127.036035 
L 115.746411 125.914619 
L 114.951146 124.793204 
L 114.423675 123.671788 
L 114.301951 122.550372 
L 112.93864 121.428956 
L 112.378709 120.30754 
L 112.289445 119.186124 
L 112.119031 118.064708 
L 111.502295 116.943292 
L 111.469835 115.821876 
L 109.416755 114.70046 
L 109.140847 113.579044 
L 108.800019 112.457628 
L 108.434846 111.336212 
L 108.126479 110.214796 
L 107.728846 109.093381 
L 107.550318 107.971965 
L 107.420479 106.850549 
L 107.306869 105.729133 
L 106.982272 103.486301 
L 105.73257 102.364885 
L 105.659536 101.243469 
L 105.610846 100.122053 
L 105.399858 99.000637 
L 105.221329 97.879221 
L 105.172639 96.757805 
L 104.904846 95.636389 
L 104.555903 94.514973 
L 104.32057 93.393558 
L 104.30434 92.272142 
L 104.182616 91.150726 
L 103.931053 90.02931 
L 103.874248 88.907894 
L 103.241283 87.786478 
L 102.462248 86.665062 
L 102.372984 85.543646 
L 101.942892 84.42223 
L 101.49657 83.300814 
L 100.928524 82.179398 
L 100.920409 81.057982 
L 100.555236 79.936566 
L 99.070202 78.81515 
L 98.494041 77.693735 
L 98.274937 76.572319 
L 98.096408 75.450903 
L 98.072064 74.329487 
L 97.439098 73.208071 
L 97.090155 72.086655 
L 95.532086 70.965239 
L 94.899121 69.843823 
L 94.858546 68.722407 
L 89.226775 67.600991 
L 86.289166 66.479575 
L 85.493901 65.358159 
L 81.566268 64.236743 
L 80.762889 63.115327 
L 80.243533 61.993912 
L 79.245395 60.872496 
L 78.036268 59.75108 
L 78.011923 58.629664 
L 77.890199 57.508248 
L 76.177946 56.386832 
L 75.187923 56.386832 
L 73.832727 55.265416 
z
" clip-path="url(#p406f61bedc)" style="fill: #7cfc00"/>
   </g>
   <g id="PolyCollection_3">
    <path d="M 73.832727 54.144 
L 73.832727 55.265416 
L 75.187923 56.386832 
L 76.177946 56.386832 
L 77.890199 57.508248 
L 78.011923 58.629664 
L 78.036268 59.75108 
L 79.245395 60.872496 
L 80.243533 61.993912 
L 80.762889 63.115327 
L 81.566268 64.236743 
L 85.493901 65.358159 
L 86.289166 66.479575 
L 89.226775 67.600991 
L 94.858546 68.722407 
L 94.899121 69.843823 
L 95.532086 70.965239 
L 97.090155 72.086655 
L 97.439098 73.208071 
L 98.072064 74.329487 
L 98.096408 75.450903 
L 98.274937 76.572319 
L 98.494041 77.693735 
L 99.070202 78.81515 
L 100.555236 79.936566 
L 100.920409 81.057982 
L 100.928524 82.179398 
L 101.49657 83.300814 
L 101.942892 84.42223 
L 102.372984 85.543646 
L 102.462248 86.665062 
L 103.241283 87.786478 
L 103.874248 88.907894 
L 103.931053 90.02931 
L 104.182616 91.150726 
L 104.30434 92.272142 
L 104.32057 93.393558 
L 104.555903 94.514973 
L 104.904846 95.636389 
L 105.172639 96.757805 
L 105.221329 97.879221 
L 105.399858 99.000637 
L 105.610846 100.122053 
L 105.659536 101.243469 
L 105.73257 102.364885 
L 106.982272 103.486301 
L 107.306869 105.729133 
L 107.420479 106.850549 
L 107.550318 107.971965 
L 107.728846 109.093381 
L 108.126479 110.214796 
L 108.434846 111.336212 
L 108.800019 112.457628 
L 109.140847 113.579044 
L 109.416755 114.70046 
L 111.469835 115.821876 
L 111.502295 116.943292 
L 112.119031 118.064708 
L 112.289445 119.186124 
L 112.378709 120.30754 
L 112.93864 121.428956 
L 114.301951 122.550372 
L 114.423675 123.671788 
L 114.951146 124.793204 
L 115.746411 125.914619 
L 116.979882 127.036035 
L 117.198985 128.157451 
L 117.539813 129.278867 
L 118.262043 130.400283 
L 119.479285 131.521699 
L 120.477423 132.643115 
L 120.526112 133.764531 
L 120.542342 134.885947 
L 120.704641 136.007363 
L 120.83448 137.128779 
L 121.938112 138.250195 
L 123.04986 139.371611 
L 123.212159 140.493027 
L 123.747745 141.614442 
L 124.599814 142.735858 
L 124.624159 143.857274 
L 125.744021 144.97869 
L 125.898205 146.100106 
L 126.239033 147.221522 
L 126.750274 148.342938 
L 127.001837 149.464354 
L 127.196596 150.58577 
L 127.813332 151.707186 
L 128.02432 152.828602 
L 128.129814 153.950018 
L 128.210964 155.071434 
L 128.219079 156.19285 
L 128.267768 157.314265 
L 129.144182 158.435681 
L 129.793378 159.557097 
L 129.874527 160.678513 
L 130.2397 161.799929 
L 130.856435 162.921345 
L 131.197263 164.042761 
L 131.578665 165.164177 
L 132.073677 166.285593 
L 132.641723 167.407009 
L 133.185424 168.528425 
L 133.931999 169.649841 
L 134.686689 170.771257 
L 137.275356 171.892673 
L 137.908321 173.014088 
L 137.932666 174.135504 
L 139.231057 175.25692 
L 139.48262 176.378336 
L 140.456414 177.499752 
L 140.667402 178.621168 
L 140.983885 179.742584 
L 141.300368 180.864 
L 141.73046 181.985416 
L 143.994529 183.106832 
L 144.384046 184.228248 
L 144.692414 185.349664 
L 146.640001 186.47108 
L 146.75361 187.592496 
L 146.818529 188.713912 
L 147.337886 189.835327 
L 147.646254 190.956743 
L 147.857242 193.199575 
L 149.326047 194.320991 
L 150.324185 195.442407 
L 150.97338 196.563823 
L 151.07076 197.685239 
L 151.492737 198.806655 
L 151.874139 199.928071 
L 151.922829 201.049487 
L 152.028323 202.170903 
L 152.060783 203.292319 
L 152.117587 204.413735 
L 153.002116 205.53515 
L 154.146323 206.656566 
L 155.022737 207.777982 
L 155.720622 208.899398 
L 156.386048 210.020814 
L 156.710645 211.14223 
L 157.035243 212.263646 
L 158.495933 213.385062 
L 158.90168 214.506478 
L 159.396692 215.627894 
L 159.964738 216.74931 
L 161.003451 217.870726 
L 162.650784 218.992142 
L 163.243175 220.113558 
L 163.527198 221.234973 
L 164.866164 222.356389 
L 166.383658 223.477805 
L 166.578417 224.599221 
L 167.195152 225.720637 
L 167.61713 226.842053 
L 169.426762 227.963469 
L 169.475452 229.084885 
L 169.621521 230.206301 
L 170.44113 231.327717 
L 171.106555 232.449133 
L 171.260739 233.570549 
L 174.636556 234.691965 
L 175.074763 235.813381 
L 175.439935 236.934796 
L 176.851935 238.056212 
L 177.533591 239.177628 
L 179.253959 240.299044 
L 179.602901 241.42046 
L 180.649729 242.541876 
L 180.738993 243.663292 
L 185.437546 244.784708 
L 187.101109 245.906124 
L 188.083017 247.02754 
L 188.578029 248.148956 
L 189.714121 249.270372 
L 190.866443 250.391788 
L 191.036857 251.513204 
L 191.783431 252.634619 
L 191.888926 253.756035 
L 193.982581 254.877451 
L 195.670489 255.998867 
L 197.747915 257.120283 
L 199.030076 258.241699 
L 200.904628 259.363115 
L 202.300398 260.484531 
L 204.085686 261.605947 
L 204.491433 262.727363 
L 205.311042 263.848779 
L 207.867249 264.970195 
L 208.029548 266.091611 
L 211.340445 267.213027 
L 213.766813 268.334442 
L 213.791158 269.455858 
L 217.824285 270.577274 
L 223.999757 271.69869 
L 228.349367 272.820106 
L 229.031022 273.941522 
L 229.30693 275.062938 
L 229.477344 276.184354 
L 229.672103 277.30577 
L 233.721459 278.427186 
L 234.192126 279.548602 
L 234.476149 280.670018 
L 235.027965 281.791434 
L 240.481207 282.91285 
L 245.204105 284.034265 
L 246.299622 285.155681 
L 246.348312 286.277097 
L 246.62422 287.398513 
L 250.803416 288.519929 
L 261.774819 289.641345 
L 264.890958 290.762761 
L 264.996452 291.884177 
L 275.838016 293.005593 
L 278.905465 294.127009 
L 282.297511 295.248425 
L 294.843214 296.369841 
L 297.634755 297.491257 
L 303.112342 298.612673 
L 307.697285 299.734088 
L 310.683584 300.855504 
L 336.132047 301.97692 
L 336.708208 303.098336 
L 345.683335 304.219752 
L 385.592627 305.341168 
L 398.487273 306.462584 
L 398.487273 306.462584 
L 398.487273 306.462584 
L 385.592627 305.341168 
L 345.683335 304.219752 
L 336.708208 303.098336 
L 336.132047 301.97692 
L 310.683584 300.855504 
L 307.697285 299.734088 
L 303.112342 298.612673 
L 297.634755 297.491257 
L 294.843214 296.369841 
L 282.297511 295.248425 
L 278.905465 294.127009 
L 275.838016 293.005593 
L 264.996452 291.884177 
L 264.890958 290.762761 
L 261.774819 289.641345 
L 250.803416 288.519929 
L 246.62422 287.398513 
L 246.348312 286.277097 
L 246.299622 285.155681 
L 245.204105 284.034265 
L 240.481207 282.91285 
L 235.027965 281.791434 
L 234.476149 280.670018 
L 234.192126 279.548602 
L 233.721459 278.427186 
L 229.672103 277.30577 
L 229.477344 276.184354 
L 229.30693 275.062938 
L 229.031022 273.941522 
L 228.349367 272.820106 
L 223.999757 271.69869 
L 217.824285 270.577274 
L 213.791158 269.455858 
L 213.766813 268.334442 
L 211.340445 267.213027 
L 208.029548 266.091611 
L 207.867249 264.970195 
L 205.311042 263.848779 
L 204.491433 262.727363 
L 204.085686 261.605947 
L 202.300398 260.484531 
L 200.904628 259.363115 
L 199.030076 258.241699 
L 197.747915 257.120283 
L 195.670489 255.998867 
L 193.982581 254.877451 
L 191.888926 253.756035 
L 191.783431 252.634619 
L 191.036857 251.513204 
L 190.866443 250.391788 
L 189.714121 249.270372 
L 188.578029 248.148956 
L 188.083017 247.02754 
L 187.101109 245.906124 
L 185.437546 244.784708 
L 180.738993 243.663292 
L 180.649729 242.541876 
L 179.602901 241.42046 
L 179.253959 240.299044 
L 177.533591 239.177628 
L 176.851935 238.056212 
L 175.439935 236.934796 
L 175.074763 235.813381 
L 174.636556 234.691965 
L 171.260739 233.570549 
L 171.106555 232.449133 
L 170.44113 231.327717 
L 169.621521 230.206301 
L 169.475452 229.084885 
L 169.426762 227.963469 
L 167.61713 226.842053 
L 167.195152 225.720637 
L 166.578417 224.599221 
L 166.383658 223.477805 
L 164.866164 222.356389 
L 163.527198 221.234973 
L 163.243175 220.113558 
L 162.650784 218.992142 
L 161.003451 217.870726 
L 159.964738 216.74931 
L 159.396692 215.627894 
L 158.90168 214.506478 
L 158.495933 213.385062 
L 157.035243 212.263646 
L 156.710645 211.14223 
L 156.386048 210.020814 
L 155.720622 208.899398 
L 155.022737 207.777982 
L 154.146323 206.656566 
L 153.002116 205.53515 
L 152.117587 204.413735 
L 152.060783 203.292319 
L 152.028323 202.170903 
L 151.922829 201.049487 
L 151.874139 199.928071 
L 151.492737 198.806655 
L 151.07076 197.685239 
L 150.97338 196.563823 
L 150.324185 195.442407 
L 149.326047 194.320991 
L 147.857242 193.199575 
L 147.646254 190.956743 
L 147.337886 189.835327 
L 146.818529 188.713912 
L 146.75361 187.592496 
L 146.640001 186.47108 
L 144.692414 185.349664 
L 144.384046 184.228248 
L 143.994529 183.106832 
L 141.73046 181.985416 
L 141.300368 180.864 
L 140.983885 179.742584 
L 140.667402 178.621168 
L 140.456414 177.499752 
L 139.48262 176.378336 
L 139.231057 175.25692 
L 137.932666 174.135504 
L 137.908321 173.014088 
L 137.275356 171.892673 
L 134.686689 170.771257 
L 133.931999 169.649841 
L 133.185424 168.528425 
L 132.641723 167.407009 
L 132.073677 166.285593 
L 131.578665 165.164177 
L 131.197263 164.042761 
L 130.856435 162.921345 
L 130.2397 161.799929 
L 129.874527 160.678513 
L 129.793378 159.557097 
L 129.144182 158.435681 
L 128.267768 157.314265 
L 128.219079 156.19285 
L 128.210964 155.071434 
L 128.129814 153.950018 
L 128.02432 152.828602 
L 127.813332 151.707186 
L 127.196596 150.58577 
L 127.001837 149.464354 
L 126.750274 148.342938 
L 126.239033 147.221522 
L 125.898205 146.100106 
L 125.744021 144.97869 
L 124.624159 143.857274 
L 124.599814 142.735858 
L 123.747745 141.614442 
L 123.212159 140.493027 
L 123.04986 139.371611 
L 121.938112 138.250195 
L 120.83448 137.128779 
L 120.704641 136.007363 
L 120.542342 134.885947 
L 120.526112 133.764531 
L 120.477423 132.643115 
L 119.479285 131.521699 
L 118.262043 130.400283 
L 117.539813 129.278867 
L 117.198985 128.157451 
L 116.979882 127.036035 
L 115.746411 125.914619 
L 114.951146 124.793204 
L 114.423675 123.671788 
L 114.301951 122.550372 
L 112.93864 121.428956 
L 112.378709 120.30754 
L 112.289445 119.186124 
L 112.119031 118.064708 
L 111.502295 116.943292 
L 111.469835 115.821876 
L 109.416755 114.70046 
L 109.140847 113.579044 
L 108.800019 112.457628 
L 108.434846 111.336212 
L 108.126479 110.214796 
L 107.728846 109.093381 
L 107.550318 107.971965 
L 107.420479 106.850549 
L 107.306869 105.729133 
L 106.982272 103.486301 
L 105.73257 102.364885 
L 105.659536 101.243469 
L 105.610846 100.122053 
L 105.399858 99.000637 
L 105.221329 97.879221 
L 105.172639 96.757805 
L 104.904846 95.636389 
L 104.555903 94.514973 
L 104.32057 93.393558 
L 104.30434 92.272142 
L 104.182616 91.150726 
L 103.931053 90.02931 
L 103.874248 88.907894 
L 103.241283 87.786478 
L 102.462248 86.665062 
L 102.372984 85.543646 
L 101.942892 84.42223 
L 101.49657 83.300814 
L 100.928524 82.179398 
L 100.920409 81.057982 
L 100.555236 79.936566 
L 99.070202 78.81515 
L 98.494041 77.693735 
L 98.274937 76.572319 
L 98.096408 75.450903 
L 98.072064 74.329487 
L 97.439098 73.208071 
L 97.090155 72.086655 
L 95.532086 70.965239 
L 94.899121 69.843823 
L 94.858546 68.722407 
L 89.226775 67.600991 
L 86.289166 66.479575 
L 85.493901 65.358159 
L 81.566268 64.236743 
L 80.762889 63.115327 
L 80.243533 61.993912 
L 79.245395 60.872496 
L 78.036268 59.75108 
L 78.011923 58.629664 
L 77.890199 57.508248 
L 76.177946 56.386832 
L 75.187923 55.265416 
L 73.832727 54.144 
z
" clip-path="url(#p406f61bedc)" style="fill: #ff0000"/>
   </g>
   <g id="matplotlib.axis_1">
    <g id="xtick_1">
     <g id="line2d_1">
      <defs>
       <path id="mb416d8bc1e" d="M 0 0 
L 0 3.5 
" style="stroke: #000000; stroke-width: 0.8"/>
      </defs>
      <g>
       <use xlink:href="#mb416d8bc1e" x="71.463164" y="307.584" style="stroke: #000000; stroke-width: 0.8"/>
      </g>
     </g>
     <g id="text_1">
      <!-- 50 -->
      <g transform="translate(65.100664 322.182437) scale(0.1 -0.1)">
       <defs>
        <path id="DejaVuSans-35" d="M 691 4666 
L 3169 4666 
L 3169 4134 
L 1269 4134 
L 1269 2991 
Q 1406 3038 1543 3061 
Q 1681 3084 1819 3084 
Q 2600 3084 3056 2656 
Q 3513 2228 3513 1497 
Q 3513 744 3044 326 
Q 2575 -91 1722 -91 
Q 1428 -91 1123 -41 
Q 819 9 494 109 
L 494 744 
Q 775 591 1075 516 
Q 1375 441 1709 441 
Q 2250 441 2565 725 
Q 2881 1009 2881 1497 
Q 2881 1984 2565 2268 
Q 2250 2553 1709 2553 
Q 1456 2553 1204 2497 
Q 953 2441 691 2322 
L 691 4666 
z
" transform="scale(0.015625)"/>
        <path id="DejaVuSans-30" d="M 2034 4250 
Q 1547 4250 1301 3770 
Q 1056 3291 1056 2328 
Q 1056 1369 1301 889 
Q 1547 409 2034 409 
Q 2525 409 2770 889 
Q 3016 1369 3016 2328 
Q 3016 3291 2770 3770 
Q 2525 4250 2034 4250 
z
M 2034 4750 
Q 2819 4750 3233 4129 
Q 3647 3509 3647 2328 
Q 3647 1150 3233 529 
Q 2819 -91 2034 -91 
Q 1250 -91 836 529 
Q 422 1150 422 2328 
Q 422 3509 836 4129 
Q 1250 4750 2034 4750 
z
" transform="scale(0.015625)"/>
       </defs>
       <use xlink:href="#DejaVuSans-35"/>
       <use xlink:href="#DejaVuSans-30" x="63.623047"/>
      </g>
     </g>
    </g>
    <g id="xtick_2">
     <g id="line2d_2">
      <g>
       <use xlink:href="#mb416d8bc1e" x="112.037881" y="307.584" style="stroke: #000000; stroke-width: 0.8"/>
      </g>
     </g>
     <g id="text_2">
      <!-- 100 -->
      <g transform="translate(102.494131 322.182437) scale(0.1 -0.1)">
       <defs>
        <path id="DejaVuSans-31" d="M 794 531 
L 1825 531 
L 1825 4091 
L 703 3866 
L 703 4441 
L 1819 4666 
L 2450 4666 
L 2450 531 
L 3481 531 
L 3481 0 
L 794 0 
L 794 531 
z
" transform="scale(0.015625)"/>
       </defs>
       <use xlink:href="#DejaVuSans-31"/>
       <use xlink:href="#DejaVuSans-30" x="63.623047"/>
       <use xlink:href="#DejaVuSans-30" x="127.246094"/>
      </g>
     </g>
    </g>
    <g id="xtick_3">
     <g id="line2d_3">
      <g>
       <use xlink:href="#mb416d8bc1e" x="152.612599" y="307.584" style="stroke: #000000; stroke-width: 0.8"/>
      </g>
     </g>
     <g id="text_3">
      <!-- 150 -->
      <g transform="translate(143.068849 322.182437) scale(0.1 -0.1)">
       <use xlink:href="#DejaVuSans-31"/>
       <use xlink:href="#DejaVuSans-35" x="63.623047"/>
       <use xlink:href="#DejaVuSans-30" x="127.246094"/>
      </g>
     </g>
    </g>
    <g id="xtick_4">
     <g id="line2d_4">
      <g>
       <use xlink:href="#mb416d8bc1e" x="193.187317" y="307.584" style="stroke: #000000; stroke-width: 0.8"/>
      </g>
     </g>
     <g id="text_4">
      <!-- 200 -->
      <g transform="translate(183.643567 322.182437) scale(0.1 -0.1)">
       <defs>
        <path id="DejaVuSans-32" d="M 1228 531 
L 3431 531 
L 3431 0 
L 469 0 
L 469 531 
Q 828 903 1448 1529 
Q 2069 2156 2228 2338 
Q 2531 2678 2651 2914 
Q 2772 3150 2772 3378 
Q 2772 3750 2511 3984 
Q 2250 4219 1831 4219 
Q 1534 4219 1204 4116 
Q 875 4013 500 3803 
L 500 4441 
Q 881 4594 1212 4672 
Q 1544 4750 1819 4750 
Q 2544 4750 2975 4387 
Q 3406 4025 3406 3419 
Q 3406 3131 3298 2873 
Q 3191 2616 2906 2266 
Q 2828 2175 2409 1742 
Q 1991 1309 1228 531 
z
" transform="scale(0.015625)"/>
       </defs>
       <use xlink:href="#DejaVuSans-32"/>
       <use xlink:href="#DejaVuSans-30" x="63.623047"/>
       <use xlink:href="#DejaVuSans-30" x="127.246094"/>
      </g>
     </g>
    </g>
    <g id="xtick_5">
     <g id="line2d_5">
      <g>
       <use xlink:href="#mb416d8bc1e" x="233.762034" y="307.584" style="stroke: #000000; stroke-width: 0.8"/>
      </g>
     </g>
     <g id="text_5">
      <!-- 250 -->
      <g transform="translate(224.218284 322.182437) scale(0.1 -0.1)">
       <use xlink:href="#DejaVuSans-32"/>
       <use xlink:href="#DejaVuSans-35" x="63.623047"/>
       <use xlink:href="#DejaVuSans-30" x="127.246094"/>
      </g>
     </g>
    </g>
    <g id="xtick_6">
     <g id="line2d_6">
      <g>
       <use xlink:href="#mb416d8bc1e" x="274.336752" y="307.584" style="stroke: #000000; stroke-width: 0.8"/>
      </g>
     </g>
     <g id="text_6">
      <!-- 300 -->
      <g transform="translate(264.793002 322.182437) scale(0.1 -0.1)">
       <defs>
        <path id="DejaVuSans-33" d="M 2597 2516 
Q 3050 2419 3304 2112 
Q 3559 1806 3559 1356 
Q 3559 666 3084 287 
Q 2609 -91 1734 -91 
Q 1441 -91 1130 -33 
Q 819 25 488 141 
L 488 750 
Q 750 597 1062 519 
Q 1375 441 1716 441 
Q 2309 441 2620 675 
Q 2931 909 2931 1356 
Q 2931 1769 2642 2001 
Q 2353 2234 1838 2234 
L 1294 2234 
L 1294 2753 
L 1863 2753 
Q 2328 2753 2575 2939 
Q 2822 3125 2822 3475 
Q 2822 3834 2567 4026 
Q 2313 4219 1838 4219 
Q 1578 4219 1281 4162 
Q 984 4106 628 3988 
L 628 4550 
Q 988 4650 1302 4700 
Q 1616 4750 1894 4750 
Q 2613 4750 3031 4423 
Q 3450 4097 3450 3541 
Q 3450 3153 3228 2886 
Q 3006 2619 2597 2516 
z
" transform="scale(0.015625)"/>
       </defs>
       <use xlink:href="#DejaVuSans-33"/>
       <use xlink:href="#DejaVuSans-30" x="63.623047"/>
       <use xlink:href="#DejaVuSans-30" x="127.246094"/>
      </g>
     </g>
    </g>
    <g id="xtick_7">
     <g id="line2d_7">
      <g>
       <use xlink:href="#mb416d8bc1e" x="314.911469" y="307.584" style="stroke: #000000; stroke-width: 0.8"/>
      </g>
     </g>
     <g id="text_7">
      <!-- 350 -->
      <g transform="translate(305.367719 322.182437) scale(0.1 -0.1)">
       <use xlink:href="#DejaVuSans-33"/>
       <use xlink:href="#DejaVuSans-35" x="63.623047"/>
       <use xlink:href="#DejaVuSans-30" x="127.246094"/>
      </g>
     </g>
    </g>
    <g id="xtick_8">
     <g id="line2d_8">
      <g>
       <use xlink:href="#mb416d8bc1e" x="355.486187" y="307.584" style="stroke: #000000; stroke-width: 0.8"/>
      </g>
     </g>
     <g id="text_8">
      <!-- 400 -->
      <g transform="translate(345.942437 322.182437) scale(0.1 -0.1)">
       <defs>
        <path id="DejaVuSans-34" d="M 2419 4116 
L 825 1625 
L 2419 1625 
L 2419 4116 
z
M 2253 4666 
L 3047 4666 
L 3047 1625 
L 3713 1625 
L 3713 1100 
L 3047 1100 
L 3047 0 
L 2419 0 
L 2419 1100 
L 313 1100 
L 313 1709 
L 2253 4666 
z
" transform="scale(0.015625)"/>
       </defs>
       <use xlink:href="#DejaVuSans-34"/>
       <use xlink:href="#DejaVuSans-30" x="63.623047"/>
       <use xlink:href="#DejaVuSans-30" x="127.246094"/>
      </g>
     </g>
    </g>
    <g id="xtick_9">
     <g id="line2d_9">
      <g>
       <use xlink:href="#mb416d8bc1e" x="396.060905" y="307.584" style="stroke: #000000; stroke-width: 0.8"/>
      </g>
     </g>
     <g id="text_9">
      <!-- 450 -->
      <g transform="translate(386.517155 322.182437) scale(0.1 -0.1)">
       <use xlink:href="#DejaVuSans-34"/>
       <use xlink:href="#DejaVuSans-35" x="63.623047"/>
       <use xlink:href="#DejaVuSans-30" x="127.246094"/>
      </g>
     </g>
    </g>
    <g id="text_10">
     <!-- Score -->
     <g transform="translate(222.157656 335.860562) scale(0.1 -0.1)">
      <defs>
       <path id="DejaVuSans-53" d="M 3425 4513 
L 3425 3897 
Q 3066 4069 2747 4153 
Q 2428 4238 2131 4238 
Q 1616 4238 1336 4038 
Q 1056 3838 1056 3469 
Q 1056 3159 1242 3001 
Q 1428 2844 1947 2747 
L 2328 2669 
Q 3034 2534 3370 2195 
Q 3706 1856 3706 1288 
Q 3706 609 3251 259 
Q 2797 -91 1919 -91 
Q 1588 -91 1214 -16 
Q 841 59 441 206 
L 441 856 
Q 825 641 1194 531 
Q 1563 422 1919 422 
Q 2459 422 2753 634 
Q 3047 847 3047 1241 
Q 3047 1584 2836 1778 
Q 2625 1972 2144 2069 
L 1759 2144 
Q 1053 2284 737 2584 
Q 422 2884 422 3419 
Q 422 4038 858 4394 
Q 1294 4750 2059 4750 
Q 2388 4750 2728 4690 
Q 3069 4631 3425 4513 
z
" transform="scale(0.015625)"/>
       <path id="DejaVuSans-63" d="M 3122 3366 
L 3122 2828 
Q 2878 2963 2633 3030 
Q 2388 3097 2138 3097 
Q 1578 3097 1268 2742 
Q 959 2388 959 1747 
Q 959 1106 1268 751 
Q 1578 397 2138 397 
Q 2388 397 2633 464 
Q 2878 531 3122 666 
L 3122 134 
Q 2881 22 2623 -34 
Q 2366 -91 2075 -91 
Q 1284 -91 818 406 
Q 353 903 353 1747 
Q 353 2603 823 3093 
Q 1294 3584 2113 3584 
Q 2378 3584 2631 3529 
Q 2884 3475 3122 3366 
z
" transform="scale(0.015625)"/>
       <path id="DejaVuSans-6f" d="M 1959 3097 
Q 1497 3097 1228 2736 
Q 959 2375 959 1747 
Q 959 1119 1226 758 
Q 1494 397 1959 397 
Q 2419 397 2687 759 
Q 2956 1122 2956 1747 
Q 2956 2369 2687 2733 
Q 2419 3097 1959 3097 
z
M 1959 3584 
Q 2709 3584 3137 3096 
Q 3566 2609 3566 1747 
Q 3566 888 3137 398 
Q 2709 -91 1959 -91 
Q 1206 -91 779 398 
Q 353 888 353 1747 
Q 353 2609 779 3096 
Q 1206 3584 1959 3584 
z
" transform="scale(0.015625)"/>
       <path id="DejaVuSans-72" d="M 2631 2963 
Q 2534 3019 2420 3045 
Q 2306 3072 2169 3072 
Q 1681 3072 1420 2755 
Q 1159 2438 1159 1844 
L 1159 0 
L 581 0 
L 581 3500 
L 1159 3500 
L 1159 2956 
Q 1341 3275 1631 3429 
Q 1922 3584 2338 3584 
Q 2397 3584 2469 3576 
Q 2541 3569 2628 3553 
L 2631 2963 
z
" transform="scale(0.015625)"/>
       <path id="DejaVuSans-65" d="M 3597 1894 
L 3597 1613 
L 953 1613 
Q 991 1019 1311 708 
Q 1631 397 2203 397 
Q 2534 397 2845 478 
Q 3156 559 3463 722 
L 3463 178 
Q 3153 47 2828 -22 
Q 2503 -91 2169 -91 
Q 1331 -91 842 396 
Q 353 884 353 1716 
Q 353 2575 817 3079 
Q 1281 3584 2069 3584 
Q 2775 3584 3186 3129 
Q 3597 2675 3597 1894 
z
M 3022 2063 
Q 3016 2534 2758 2815 
Q 2500 3097 2075 3097 
Q 1594 3097 1305 2825 
Q 1016 2553 972 2059 
L 3022 2063 
z
" transform="scale(0.015625)"/>
      </defs>
      <use xlink:href="#DejaVuSans-53"/>
      <use xlink:href="#DejaVuSans-63" x="63.476562"/>
      <use xlink:href="#DejaVuSans-6f" x="118.457031"/>
      <use xlink:href="#DejaVuSans-72" x="179.638672"/>
      <use xlink:href="#DejaVuSans-65" x="218.501953"/>
     </g>
    </g>
   </g>
   <g id="matplotlib.axis_2">
    <g id="ytick_1">
     <g id="line2d_10">
      <defs>
       <path id="m71f0f6e561" d="M 0 0 
L -3.5 0 
" style="stroke: #000000; stroke-width: 0.8"/>
      </defs>
      <g>
       <use xlink:href="#m71f0f6e561" x="57.6" y="307.584" style="stroke: #000000; stroke-width: 0.8"/>
      </g>
     </g>
     <g id="text_11">
      <!-- 0 -->
      <g transform="translate(44.2375 311.383219) scale(0.1 -0.1)">
       <use xlink:href="#DejaVuSans-30"/>
      </g>
     </g>
    </g>
    <g id="ytick_2">
     <g id="line2d_11">
      <g>
       <use xlink:href="#m71f0f6e561" x="57.6" y="251.513204" style="stroke: #000000; stroke-width: 0.8"/>
      </g>
     </g>
     <g id="text_12">
      <!-- 50 -->
      <g transform="translate(37.875 255.312422) scale(0.1 -0.1)">
       <use xlink:href="#DejaVuSans-35"/>
       <use xlink:href="#DejaVuSans-30" x="63.623047"/>
      </g>
     </g>
    </g>
    <g id="ytick_3">
     <g id="line2d_12">
      <g>
       <use xlink:href="#m71f0f6e561" x="57.6" y="195.442407" style="stroke: #000000; stroke-width: 0.8"/>
      </g>
     </g>
     <g id="text_13">
      <!-- 100 -->
      <g transform="translate(31.5125 199.241626) scale(0.1 -0.1)">
       <use xlink:href="#DejaVuSans-31"/>
       <use xlink:href="#DejaVuSans-30" x="63.623047"/>
       <use xlink:href="#DejaVuSans-30" x="127.246094"/>
      </g>
     </g>
    </g>
    <g id="ytick_4">
     <g id="line2d_13">
      <g>
       <use xlink:href="#m71f0f6e561" x="57.6" y="139.371611" style="stroke: #000000; stroke-width: 0.8"/>
      </g>
     </g>
     <g id="text_14">
      <!-- 150 -->
      <g transform="translate(31.5125 143.170829) scale(0.1 -0.1)">
       <use xlink:href="#DejaVuSans-31"/>
       <use xlink:href="#DejaVuSans-35" x="63.623047"/>
       <use xlink:href="#DejaVuSans-30" x="127.246094"/>
      </g>
     </g>
    </g>
    <g id="ytick_5">
     <g id="line2d_14">
      <g>
       <use xlink:href="#m71f0f6e561" x="57.6" y="83.300814" style="stroke: #000000; stroke-width: 0.8"/>
      </g>
     </g>
     <g id="text_15">
      <!-- 200 -->
      <g transform="translate(31.5125 87.100033) scale(0.1 -0.1)">
       <use xlink:href="#DejaVuSans-32"/>
       <use xlink:href="#DejaVuSans-30" x="63.623047"/>
       <use xlink:href="#DejaVuSans-30" x="127.246094"/>
      </g>
     </g>
    </g>
    <g id="text_16">
     <!-- Number of crosslinks -->
     <g transform="translate(25.432812 227.019406) rotate(-90) scale(0.1 -0.1)">
      <defs>
       <path id="DejaVuSans-4e" d="M 628 4666 
L 1478 4666 
L 3547 763 
L 3547 4666 
L 4159 4666 
L 4159 0 
L 3309 0 
L 1241 3903 
L 1241 0 
L 628 0 
L 628 4666 
z
" transform="scale(0.015625)"/>
       <path id="DejaVuSans-75" d="M 544 1381 
L 544 3500 
L 1119 3500 
L 1119 1403 
Q 1119 906 1312 657 
Q 1506 409 1894 409 
Q 2359 409 2629 706 
Q 2900 1003 2900 1516 
L 2900 3500 
L 3475 3500 
L 3475 0 
L 2900 0 
L 2900 538 
Q 2691 219 2414 64 
Q 2138 -91 1772 -91 
Q 1169 -91 856 284 
Q 544 659 544 1381 
z
M 1991 3584 
L 1991 3584 
z
" transform="scale(0.015625)"/>
       <path id="DejaVuSans-6d" d="M 3328 2828 
Q 3544 3216 3844 3400 
Q 4144 3584 4550 3584 
Q 5097 3584 5394 3201 
Q 5691 2819 5691 2113 
L 5691 0 
L 5113 0 
L 5113 2094 
Q 5113 2597 4934 2840 
Q 4756 3084 4391 3084 
Q 3944 3084 3684 2787 
Q 3425 2491 3425 1978 
L 3425 0 
L 2847 0 
L 2847 2094 
Q 2847 2600 2669 2842 
Q 2491 3084 2119 3084 
Q 1678 3084 1418 2786 
Q 1159 2488 1159 1978 
L 1159 0 
L 581 0 
L 581 3500 
L 1159 3500 
L 1159 2956 
Q 1356 3278 1631 3431 
Q 1906 3584 2284 3584 
Q 2666 3584 2933 3390 
Q 3200 3197 3328 2828 
z
" transform="scale(0.015625)"/>
       <path id="DejaVuSans-62" d="M 3116 1747 
Q 3116 2381 2855 2742 
Q 2594 3103 2138 3103 
Q 1681 3103 1420 2742 
Q 1159 2381 1159 1747 
Q 1159 1113 1420 752 
Q 1681 391 2138 391 
Q 2594 391 2855 752 
Q 3116 1113 3116 1747 
z
M 1159 2969 
Q 1341 3281 1617 3432 
Q 1894 3584 2278 3584 
Q 2916 3584 3314 3078 
Q 3713 2572 3713 1747 
Q 3713 922 3314 415 
Q 2916 -91 2278 -91 
Q 1894 -91 1617 61 
Q 1341 213 1159 525 
L 1159 0 
L 581 0 
L 581 4863 
L 1159 4863 
L 1159 2969 
z
" transform="scale(0.015625)"/>
       <path id="DejaVuSans-20" transform="scale(0.015625)"/>
       <path id="DejaVuSans-66" d="M 2375 4863 
L 2375 4384 
L 1825 4384 
Q 1516 4384 1395 4259 
Q 1275 4134 1275 3809 
L 1275 3500 
L 2222 3500 
L 2222 3053 
L 1275 3053 
L 1275 0 
L 697 0 
L 697 3053 
L 147 3053 
L 147 3500 
L 697 3500 
L 697 3744 
Q 697 4328 969 4595 
Q 1241 4863 1831 4863 
L 2375 4863 
z
" transform="scale(0.015625)"/>
       <path id="DejaVuSans-73" d="M 2834 3397 
L 2834 2853 
Q 2591 2978 2328 3040 
Q 2066 3103 1784 3103 
Q 1356 3103 1142 2972 
Q 928 2841 928 2578 
Q 928 2378 1081 2264 
Q 1234 2150 1697 2047 
L 1894 2003 
Q 2506 1872 2764 1633 
Q 3022 1394 3022 966 
Q 3022 478 2636 193 
Q 2250 -91 1575 -91 
Q 1294 -91 989 -36 
Q 684 19 347 128 
L 347 722 
Q 666 556 975 473 
Q 1284 391 1588 391 
Q 1994 391 2212 530 
Q 2431 669 2431 922 
Q 2431 1156 2273 1281 
Q 2116 1406 1581 1522 
L 1381 1569 
Q 847 1681 609 1914 
Q 372 2147 372 2553 
Q 372 3047 722 3315 
Q 1072 3584 1716 3584 
Q 2034 3584 2315 3537 
Q 2597 3491 2834 3397 
z
" transform="scale(0.015625)"/>
       <path id="DejaVuSans-6c" d="M 603 4863 
L 1178 4863 
L 1178 0 
L 603 0 
L 603 4863 
z
" transform="scale(0.015625)"/>
       <path id="DejaVuSans-69" d="M 603 3500 
L 1178 3500 
L 1178 0 
L 603 0 
L 603 3500 
z
M 603 4863 
L 1178 4863 
L 1178 4134 
L 603 4134 
L 603 4863 
z
" transform="scale(0.015625)"/>
       <path id="DejaVuSans-6e" d="M 3513 2113 
L 3513 0 
L 2938 0 
L 2938 2094 
Q 2938 2591 2744 2837 
Q 2550 3084 2163 3084 
Q 1697 3084 1428 2787 
Q 1159 2491 1159 1978 
L 1159 0 
L 581 0 
L 581 3500 
L 1159 3500 
L 1159 2956 
Q 1366 3272 1645 3428 
Q 1925 3584 2291 3584 
Q 2894 3584 3203 3211 
Q 3513 2838 3513 2113 
z
" transform="scale(0.015625)"/>
       <path id="DejaVuSans-6b" d="M 581 4863 
L 1159 4863 
L 1159 1991 
L 2875 3500 
L 3609 3500 
L 1753 1863 
L 3688 0 
L 2938 0 
L 1159 1709 
L 1159 0 
L 581 0 
L 581 4863 
z
" transform="scale(0.015625)"/>
      </defs>
      <use xlink:href="#DejaVuSans-4e"/>
      <use xlink:href="#DejaVuSans-75" x="74.804688"/>
      <use xlink:href="#DejaVuSans-6d" x="138.183594"/>
      <use xlink:href="#DejaVuSans-62" x="235.595703"/>
      <use xlink:href="#DejaVuSans-65" x="299.072266"/>
      <use xlink:href="#DejaVuSans-72" x="360.595703"/>
      <use xlink:href="#DejaVuSans-20" x="401.708984"/>
      <use xlink:href="#DejaVuSans-6f" x="433.496094"/>
      <use xlink:href="#DejaVuSans-66" x="494.677734"/>
      <use xlink:href="#DejaVuSans-20" x="529.882812"/>
      <use xlink:href="#DejaVuSans-63" x="561.669922"/>
      <use xlink:href="#DejaVuSans-72" x="616.650391"/>
      <use xlink:href="#DejaVuSans-6f" x="655.513672"/>
      <use xlink:href="#DejaVuSans-73" x="716.695312"/>
      <use xlink:href="#DejaVuSans-73" x="768.794922"/>
      <use xlink:href="#DejaVuSans-6c" x="820.894531"/>
      <use xlink:href="#DejaVuSans-69" x="848.677734"/>
      <use xlink:href="#DejaVuSans-6e" x="876.460938"/>
      <use xlink:href="#DejaVuSans-6b" x="939.839844"/>
      <use xlink:href="#DejaVuSans-73" x="997.75"/>
     </g>
    </g>
   </g>
   <g id="patch_3">
    <path d="M 57.6 307.584 
L 57.6 41.472 
" style="fill: none; stroke: #000000; stroke-width: 0.8; stroke-linejoin: miter; stroke-linecap: square"/>
   </g>
   <g id="patch_4">
    <path d="M 414.72 307.584 
L 414.72 41.472 
" style="fill: none; stroke: #000000; stroke-width: 0.8; stroke-linejoin: miter; stroke-linecap: square"/>
   </g>
   <g id="patch_5">
    <path d="M 57.6 307.584 
L 414.72 307.584 
" style="fill: none; stroke: #000000; stroke-width: 0.8; stroke-linejoin: miter; stroke-linecap: square"/>
   </g>
   <g id="patch_6">
    <path d="M 57.6 41.472 
L 414.72 41.472 
" style="fill: none; stroke: #000000; stroke-width: 0.8; stroke-linejoin: miter; stroke-linecap: square"/>
   </g>
   <g id="legend_1">
    <g id="patch_7">
     <path d="M 293.087188 93.506375 
L 407.72 93.506375 
Q 409.72 93.506375 409.72 91.506375 
L 409.72 48.472 
Q 409.72 46.472 407.72 46.472 
L 293.087188 46.472 
Q 291.087188 46.472 291.087188 48.472 
L 291.087188 91.506375 
Q 291.087188 93.506375 293.087188 93.506375 
z
" style="fill: #ffffff; opacity: 0.8; stroke: #cccccc; stroke-linejoin: miter"/>
    </g>
    <g id="patch_8">
     <path d="M 295.087188 58.070438 
L 315.087188 58.070438 
L 315.087188 51.070438 
L 295.087188 51.070438 
z
" style="fill: #008000"/>
    </g>
    <g id="text_17">
     <!-- true -->
     <g transform="translate(323.087188 58.070438) scale(0.1 -0.1)">
      <defs>
       <path id="DejaVuSans-74" d="M 1172 4494 
L 1172 3500 
L 2356 3500 
L 2356 3053 
L 1172 3053 
L 1172 1153 
Q 1172 725 1289 603 
Q 1406 481 1766 481 
L 2356 481 
L 2356 0 
L 1766 0 
Q 1100 0 847 248 
Q 594 497 594 1153 
L 594 3053 
L 172 3053 
L 172 3500 
L 594 3500 
L 594 4494 
L 1172 4494 
z
" transform="scale(0.015625)"/>
      </defs>
      <use xlink:href="#DejaVuSans-74"/>
      <use xlink:href="#DejaVuSans-72" x="39.208984"/>
      <use xlink:href="#DejaVuSans-75" x="80.322266"/>
      <use xlink:href="#DejaVuSans-65" x="143.701172"/>
     </g>
    </g>
    <g id="patch_9">
     <path d="M 295.087188 72.748563 
L 315.087188 72.748563 
L 315.087188 65.748563 
L 295.087188 65.748563 
z
" style="fill: #7cfc00"/>
    </g>
    <g id="text_18">
     <!-- true homeotypic -->
     <g transform="translate(323.087188 72.748563) scale(0.1 -0.1)">
      <defs>
       <path id="DejaVuSans-68" d="M 3513 2113 
L 3513 0 
L 2938 0 
L 2938 2094 
Q 2938 2591 2744 2837 
Q 2550 3084 2163 3084 
Q 1697 3084 1428 2787 
Q 1159 2491 1159 1978 
L 1159 0 
L 581 0 
L 581 4863 
L 1159 4863 
L 1159 2956 
Q 1366 3272 1645 3428 
Q 1925 3584 2291 3584 
Q 2894 3584 3203 3211 
Q 3513 2838 3513 2113 
z
" transform="scale(0.015625)"/>
       <path id="DejaVuSans-79" d="M 2059 -325 
Q 1816 -950 1584 -1140 
Q 1353 -1331 966 -1331 
L 506 -1331 
L 506 -850 
L 844 -850 
Q 1081 -850 1212 -737 
Q 1344 -625 1503 -206 
L 1606 56 
L 191 3500 
L 800 3500 
L 1894 763 
L 2988 3500 
L 3597 3500 
L 2059 -325 
z
" transform="scale(0.015625)"/>
       <path id="DejaVuSans-70" d="M 1159 525 
L 1159 -1331 
L 581 -1331 
L 581 3500 
L 1159 3500 
L 1159 2969 
Q 1341 3281 1617 3432 
Q 1894 3584 2278 3584 
Q 2916 3584 3314 3078 
Q 3713 2572 3713 1747 
Q 3713 922 3314 415 
Q 2916 -91 2278 -91 
Q 1894 -91 1617 61 
Q 1341 213 1159 525 
z
M 3116 1747 
Q 3116 2381 2855 2742 
Q 2594 3103 2138 3103 
Q 1681 3103 1420 2742 
Q 1159 2381 1159 1747 
Q 1159 1113 1420 752 
Q 1681 391 2138 391 
Q 2594 391 2855 752 
Q 3116 1113 3116 1747 
z
" transform="scale(0.015625)"/>
      </defs>
      <use xlink:href="#DejaVuSans-74"/>
      <use xlink:href="#DejaVuSans-72" x="39.208984"/>
      <use xlink:href="#DejaVuSans-75" x="80.322266"/>
      <use xlink:href="#DejaVuSans-65" x="143.701172"/>
      <use xlink:href="#DejaVuSans-20" x="205.224609"/>
      <use xlink:href="#DejaVuSans-68" x="237.011719"/>
      <use xlink:href="#DejaVuSans-6f" x="300.390625"/>
      <use xlink:href="#DejaVuSans-6d" x="361.572266"/>
      <use xlink:href="#DejaVuSans-65" x="458.984375"/>
      <use xlink:href="#DejaVuSans-6f" x="520.507812"/>
      <use xlink:href="#DejaVuSans-74" x="581.689453"/>
      <use xlink:href="#DejaVuSans-79" x="620.898438"/>
      <use xlink:href="#DejaVuSans-70" x="680.078125"/>
      <use xlink:href="#DejaVuSans-69" x="743.554688"/>
      <use xlink:href="#DejaVuSans-63" x="771.337891"/>
     </g>
    </g>
    <g id="patch_10">
     <path d="M 295.087188 87.426688 
L 315.087188 87.426688 
L 315.087188 80.426688 
L 295.087188 80.426688 
z
" style="fill: #ff0000"/>
    </g>
    <g id="text_19">
     <!-- false -->
     <g transform="translate(323.087188 87.426688) scale(0.1 -0.1)">
      <defs>
       <path id="DejaVuSans-61" d="M 2194 1759 
Q 1497 1759 1228 1600 
Q 959 1441 959 1056 
Q 959 750 1161 570 
Q 1363 391 1709 391 
Q 2188 391 2477 730 
Q 2766 1069 2766 1631 
L 2766 1759 
L 2194 1759 
z
M 3341 1997 
L 3341 0 
L 2766 0 
L 2766 531 
Q 2569 213 2275 61 
Q 1981 -91 1556 -91 
Q 1019 -91 701 211 
Q 384 513 384 1019 
Q 384 1609 779 1909 
Q 1175 2209 1959 2209 
L 2766 2209 
L 2766 2266 
Q 2766 2663 2505 2880 
Q 2244 3097 1772 3097 
Q 1472 3097 1187 3025 
Q 903 2953 641 2809 
L 641 3341 
Q 956 3463 1253 3523 
Q 1550 3584 1831 3584 
Q 2591 3584 2966 3190 
Q 3341 2797 3341 1997 
z
" transform="scale(0.015625)"/>
      </defs>
      <use xlink:href="#DejaVuSans-66"/>
      <use xlink:href="#DejaVuSans-61" x="35.205078"/>
      <use xlink:href="#DejaVuSans-6c" x="96.484375"/>
      <use xlink:href="#DejaVuSans-73" x="124.267578"/>
      <use xlink:href="#DejaVuSans-65" x="176.367188"/>
     </g>
    </g>
   </g>
  </g>
 </g>
 <defs>
  <clipPath id="p406f61bedc">
   <rect x="57.6" y="41.472" width="357.12" height="266.112"/>
  </clipPath>
 </defs>
</svg>
