<?xml version="1.0" encoding="utf-8" standalone="no"?>
<!DOCTYPE svg PUBLIC "-//W3C//DTD SVG 1.1//EN"
  "http://www.w3.org/Graphics/SVG/1.1/DTD/svg11.dtd">
<svg xmlns:xlink="http://www.w3.org/1999/xlink" width="460.8pt" height="345.6pt" viewBox="0 0 460.8 345.6" xmlns="http://www.w3.org/2000/svg" version="1.1">
 <metadata>
  <rdf:RDF xmlns:dc="http://purl.org/dc/elements/1.1/" xmlns:cc="http://creativecommons.org/ns#" xmlns:rdf="http://www.w3.org/1999/02/22-rdf-syntax-ns#">
   <cc:Work>
    <dc:type rdf:resource="http://purl.org/dc/dcmitype/StillImage"/>
    <dc:date>2024-06-24T13:01:04.885777</dc:date>
    <dc:format>image/svg+xml</dc:format>
    <dc:creator>
     <cc:Agent>
      <dc:title>Matplotlib v3.9.0, https://matplotlib.org/</dc:title>
     </cc:Agent>
    </dc:creator>
   </cc:Work>
  </rdf:RDF>
 </metadata>
 <defs>
  <style type="text/css">*{stroke-linejoin: round; stroke-linecap: butt}</style>
 </defs>
 <g id="figure_1">
  <g id="patch_1">
   <path d="M 0 345.6 
L 460.8 345.6 
L 460.8 0 
L 0 0 
z
" style="fill: #ffffff"/>
  </g>
  <g id="axes_1">
   <g id="patch_2">
    <path d="M 57.6 307.584 
L 414.72 307.584 
L 414.72 41.472 
L 57.6 41.472 
z
" style="fill: #ffffff"/>
   </g>
   <g id="PolyCollection_1">
    <path d="M 73.832727 118.334044 
L 73.832727 307.584 
L 74.789136 307.584 
L 75.065687 307.584 
L 75.434423 307.584 
L 75.99905 307.584 
L 77.128303 307.584 
L 78.073188 307.584 
L 78.683907 307.584 
L 78.781852 307.584 
L 80.268318 307.584 
L 80.567916 307.584 
L 82.192658 307.584 
L 82.31365 307.584 
L 82.388549 307.584 
L 82.521063 307.584 
L 83.333434 307.584 
L 84.180374 307.584 
L 84.358981 307.584 
L 84.802616 307.584 
L 84.837185 307.584 
L 86.410073 307.584 
L 87.061122 307.584 
L 87.233967 307.584 
L 87.47595 307.584 
L 87.510519 307.584 
L 87.602703 307.584 
L 87.850447 307.584 
L 88.086669 307.584 
L 88.351698 307.584 
L 88.755002 307.584 
L 88.78381 307.584 
L 89.388767 307.584 
L 89.624988 307.584 
L 89.653796 307.584 
L 89.936109 307.584 
L 90.604443 307.584 
L 90.932848 307.584 
L 91.128739 307.584 
L 91.618466 307.584 
L 92.113954 307.584 
L 92.718912 307.584 
L 92.874472 307.584 
L 93.225923 307.584 
L 93.721412 307.584 
L 95.029272 307.584 
L 95.069602 307.584 
L 95.081125 307.584 
L 95.709128 307.584 
L 97.132218 307.584 
L 97.650752 307.584 
L 97.702606 307.584 
L 97.765982 307.584 
L 98.192333 307.584 
L 98.261471 307.584 
L 98.347893 307.584 
L 98.370939 307.584 
L 98.549546 307.584 
L 98.854905 307.584 
L 99.379201 307.584 
L 99.753698 307.584 
L 100.03025 307.584 
L 100.14548 307.584 
L 100.439316 307.584 
L 100.957851 307.584 
L 101.891213 307.584 
L 101.902736 307.584 
L 102.213857 307.584 
L 102.421271 307.584 
L 102.599877 307.584 
L 102.790007 307.584 
L 103.049274 307.584 
L 103.337349 307.584 
L 103.383441 307.584 
L 104.092105 307.584 
L 104.489648 307.584 
L 104.558786 307.584 
L 104.599117 307.584 
L 104.639447 307.584 
L 104.674016 307.584 
L 104.99666 307.584 
L 105.031229 307.584 
L 105.388442 307.584 
L 105.722608 307.584 
L 106.46008 307.584 
L 106.713586 307.584 
L 106.921 307.584 
L 107.145698 307.584 
L 107.485626 307.584 
L 107.669994 307.584 
L 107.883169 307.584 
L 108.171244 307.584 
L 108.246144 307.584 
L 109.087322 307.584 
L 109.42725 307.584 
L 109.496388 307.584 
L 109.96307 307.584 
L 110.931001 307.584 
L 111.011662 307.584 
L 111.109607 307.584 
L 111.92774 307.584 
L 112.135154 307.584 
L 112.23886 307.584 
L 112.77468 307.584 
L 113.880887 307.584 
L 114.439752 307.584 
L 114.710542 307.584 
L 115.252123 307.584 
L 116.346807 307.584 
L 116.415945 307.584 
L 116.773158 307.584 
L 117.153417 307.584 
L 117.274408 307.584 
L 117.614336 307.584 
L 118.230816 307.584 
L 118.789682 307.584 
L 119.354308 307.584 
L 119.59053 307.584 
L 120.218533 307.584 
L 120.397139 307.584 
L 121.36507 307.584 
L 121.428447 307.584 
L 121.762614 307.584 
L 122.010358 307.584 
L 122.154395 307.584 
L 122.344525 307.584 
L 123.185703 307.584 
L 123.992313 307.584 
L 124.355287 307.584 
L 124.435948 307.584 
L 124.845014 307.584 
L 125.092758 307.584 
L 127.126566 307.584 
L 127.17842 307.584 
L 127.443449 307.584 
L 127.673909 307.584 
L 129.120044 307.584 
L 129.75957 307.584 
L 130.168636 307.584 
L 131.286367 307.584 
L 132.012315 307.584 
L 132.121784 307.584 
L 132.409858 307.584 
L 133.095476 307.584 
L 133.446928 307.584 
L 133.464212 307.584 
L 133.838709 307.584 
L 133.965462 307.584 
L 134.115261 307.584 
L 134.22473 307.584 
L 135.175377 307.584 
L 136.005032 307.584 
L 136.506282 307.584 
L 136.880779 307.584 
L 137.595205 307.584 
L 138.620751 307.584 
L 138.626513 307.584 
L 138.966441 307.584 
L 139.012533 307.584 
L 139.536829 307.584 
L 140.343439 307.584 
L 140.395292 307.584 
L 140.723697 307.584 
L 141.294085 307.584 
L 142.769028 307.584 
L 143.471931 307.584 
L 144.272779 307.584 
L 145.649777 307.584 
L 145.770768 307.584 
L 146.035797 307.584 
L 146.467909 307.584 
L 147.464648 307.584 
L 147.556832 307.584 
L 147.574116 307.584 
L 148.340395 307.584 
L 149.072105 307.584 
L 149.118197 307.584 
L 150.276258 307.584 
L 153.145483 307.584 
L 154.21136 307.584 
L 154.268975 307.584 
L 155.09863 307.584 
L 155.818817 307.584 
L 156.740657 307.584 
L 157.172769 307.584 
L 159.655974 307.584 
L 160.825557 307.584 
L 160.877411 307.584 
L 161.349853 307.584 
L 162.167986 307.584 
L 163.475846 307.584 
L 164.461061 307.584 
L 165.987858 307.584 
L 166.610099 307.584 
L 167.393663 307.584 
L 175.995577 307.584 
L 176.174183 307.584 
L 178.12733 307.584 
L 179.481282 307.584 
L 180.840995 307.584 
L 183.888826 307.584 
L 185.006557 307.584 
L 187.898828 307.584 
L 189.667607 307.584 
L 189.90959 307.584 
L 193.959922 307.584 
L 194.622494 307.584 
L 195.463672 307.584 
L 199.704133 307.584 
L 200.758487 307.584 
L 203.483675 307.584 
L 205.062325 307.584 
L 208.012211 307.584 
L 213.128419 307.584 
L 219.373881 307.584 
L 220.825778 307.584 
L 221.926224 307.584 
L 228.436714 307.584 
L 234.106027 307.584 
L 236.998298 307.584 
L 239.268327 307.584 
L 240.558902 307.584 
L 240.996776 307.584 
L 244.47672 307.584 
L 262.99993 307.584 
L 267.666742 307.584 
L 274.764905 307.584 
L 279.44324 307.584 
L 398.487273 307.584 
L 398.487273 307.584 
L 398.487273 307.584 
L 279.44324 307.584 
L 274.764905 307.584 
L 267.666742 307.584 
L 262.99993 307.584 
L 244.47672 307.584 
L 240.996776 306.477275 
L 240.558902 306.477275 
L 239.268327 306.477275 
L 236.998298 306.477275 
L 234.106027 306.477275 
L 228.436714 306.477275 
L 221.926224 306.477275 
L 220.825778 306.477275 
L 219.373881 305.37055 
L 213.128419 305.37055 
L 208.012211 305.37055 
L 205.062325 305.37055 
L 203.483675 305.37055 
L 200.758487 304.263825 
L 199.704133 303.1571 
L 195.463672 302.050376 
L 194.622494 302.050376 
L 193.959922 300.943651 
L 189.90959 300.943651 
L 189.667607 300.943651 
L 187.898828 300.943651 
L 185.006557 300.943651 
L 183.888826 299.836926 
L 180.840995 298.730201 
L 179.481282 297.623476 
L 178.12733 296.516751 
L 176.174183 295.410026 
L 175.995577 295.410026 
L 167.393663 295.410026 
L 166.610099 294.303301 
L 165.987858 294.303301 
L 164.461061 293.196576 
L 163.475846 292.089852 
L 162.167986 290.983127 
L 161.349853 289.876402 
L 160.877411 289.876402 
L 160.825557 288.769677 
L 159.655974 287.662952 
L 157.172769 286.556227 
L 156.740657 286.556227 
L 155.818817 285.449502 
L 155.09863 284.342777 
L 154.268975 283.236052 
L 154.21136 282.129328 
L 153.145483 281.022603 
L 150.276258 279.915878 
L 149.118197 278.809153 
L 149.072105 278.809153 
L 148.340395 278.809153 
L 147.574116 277.702428 
L 147.556832 276.595703 
L 147.464648 275.488978 
L 146.467909 274.382253 
L 146.035797 273.275528 
L 145.770768 272.168803 
L 145.649777 271.062079 
L 144.272779 269.955354 
L 143.471931 269.955354 
L 142.769028 268.848629 
L 141.294085 267.741904 
L 140.723697 266.635179 
L 140.395292 265.528454 
L 140.343439 265.528454 
L 139.536829 264.421729 
L 139.012533 263.315004 
L 138.966441 262.208279 
L 138.626513 262.208279 
L 138.620751 261.101555 
L 137.595205 259.99483 
L 136.880779 258.888105 
L 136.506282 257.78138 
L 136.005032 256.674655 
L 135.175377 255.56793 
L 134.22473 254.461205 
L 134.115261 253.35448 
L 133.965462 252.247755 
L 133.838709 252.247755 
L 133.464212 251.141031 
L 133.446928 250.034306 
L 133.095476 248.927581 
L 132.409858 247.820856 
L 132.121784 247.820856 
L 132.012315 246.714131 
L 131.286367 245.607406 
L 130.168636 244.500681 
L 129.75957 243.393956 
L 129.120044 242.287231 
L 127.673909 241.180507 
L 127.443449 240.073782 
L 127.17842 238.967057 
L 127.126566 237.860332 
L 125.092758 236.753607 
L 124.845014 235.646882 
L 124.435948 234.540157 
L 124.355287 234.540157 
L 123.992313 233.433432 
L 123.185703 233.433432 
L 122.344525 232.326707 
L 122.154395 231.219983 
L 122.010358 230.113258 
L 121.762614 229.006533 
L 121.428447 227.899808 
L 121.36507 226.793083 
L 120.397139 225.686358 
L 120.218533 225.686358 
L 119.59053 224.579633 
L 119.354308 223.472908 
L 118.789682 223.472908 
L 118.230816 222.366183 
L 117.614336 221.259459 
L 117.274408 220.152734 
L 117.153417 219.046009 
L 116.773158 219.046009 
L 116.415945 219.046009 
L 116.346807 217.939284 
L 115.252123 216.832559 
L 114.710542 215.725834 
L 114.439752 215.725834 
L 113.880887 215.725834 
L 112.77468 214.619109 
L 112.23886 214.619109 
L 112.135154 214.619109 
L 111.92774 213.512384 
L 111.109607 212.405659 
L 111.011662 212.405659 
L 110.931001 211.298934 
L 109.96307 210.19221 
L 109.496388 209.085485 
L 109.42725 209.085485 
L 109.087322 207.97876 
L 108.246144 207.97876 
L 108.171244 206.872035 
L 107.883169 205.76531 
L 107.669994 204.658585 
L 107.485626 204.658585 
L 107.145698 204.658585 
L 106.921 203.55186 
L 106.713586 202.445135 
L 106.46008 201.33841 
L 105.722608 200.231686 
L 105.388442 199.124961 
L 105.031229 198.018236 
L 104.99666 196.911511 
L 104.674016 195.804786 
L 104.639447 193.591336 
L 104.599117 192.484611 
L 104.558786 192.484611 
L 104.489648 191.377886 
L 104.092105 190.271162 
L 103.383441 189.164437 
L 103.337349 188.057712 
L 103.049274 186.950987 
L 102.790007 185.844262 
L 102.599877 184.737537 
L 102.421271 183.630812 
L 102.213857 182.524087 
L 101.902736 181.417362 
L 101.891213 180.310638 
L 100.957851 179.203913 
L 100.439316 179.203913 
L 100.14548 178.097188 
L 100.03025 178.097188 
L 99.753698 178.097188 
L 99.379201 176.990463 
L 98.854905 175.883738 
L 98.549546 174.777013 
L 98.370939 173.670288 
L 98.347893 172.563563 
L 98.261471 171.456838 
L 98.192333 170.350114 
L 97.765982 169.243389 
L 97.702606 168.136664 
L 97.650752 167.029939 
L 97.132218 165.923214 
L 95.709128 164.816489 
L 95.081125 163.709764 
L 95.069602 162.603039 
L 95.029272 162.603039 
L 93.721412 161.496314 
L 93.225923 161.496314 
L 92.874472 161.496314 
L 92.718912 160.38959 
L 92.113954 159.282865 
L 91.618466 158.17614 
L 91.128739 157.069415 
L 90.932848 155.96269 
L 90.604443 154.855965 
L 89.936109 153.74924 
L 89.653796 152.642515 
L 89.624988 151.53579 
L 89.388767 150.429066 
L 88.78381 149.322341 
L 88.755002 148.215616 
L 88.351698 147.108891 
L 88.086669 146.002166 
L 87.850447 144.895441 
L 87.602703 143.788716 
L 87.510519 142.681991 
L 87.47595 141.575266 
L 87.233967 140.468541 
L 87.061122 139.361817 
L 86.410073 138.255092 
L 84.837185 137.148367 
L 84.802616 136.041642 
L 84.358981 134.934917 
L 84.180374 133.828192 
L 83.333434 133.828192 
L 82.521063 132.721467 
L 82.388549 131.614742 
L 82.31365 130.508017 
L 82.192658 129.401293 
L 80.567916 128.294568 
L 80.268318 127.187843 
L 78.781852 126.081118 
L 78.683907 124.974393 
L 78.073188 123.867668 
L 77.128303 122.760943 
L 75.99905 121.654218 
L 75.434423 121.654218 
L 75.065687 120.547493 
L 74.789136 119.440769 
L 73.832727 118.334044 
z
" clip-path="url(#p589590d49a)" style="fill: #008000"/>
   </g>
   <g id="PolyCollection_2">
    <path d="M 73.832727 58.5709 
L 73.832727 118.334044 
L 74.789136 119.440769 
L 75.065687 120.547493 
L 75.434423 121.654218 
L 75.99905 121.654218 
L 77.128303 122.760943 
L 78.073188 123.867668 
L 78.683907 124.974393 
L 78.781852 126.081118 
L 80.268318 127.187843 
L 80.567916 128.294568 
L 82.192658 129.401293 
L 82.31365 130.508017 
L 82.388549 131.614742 
L 82.521063 132.721467 
L 83.333434 133.828192 
L 84.180374 133.828192 
L 84.358981 134.934917 
L 84.802616 136.041642 
L 84.837185 137.148367 
L 86.410073 138.255092 
L 87.061122 139.361817 
L 87.233967 140.468541 
L 87.47595 141.575266 
L 87.510519 142.681991 
L 87.602703 143.788716 
L 87.850447 144.895441 
L 88.086669 146.002166 
L 88.351698 147.108891 
L 88.755002 148.215616 
L 88.78381 149.322341 
L 89.388767 150.429066 
L 89.624988 151.53579 
L 89.653796 152.642515 
L 89.936109 153.74924 
L 90.604443 154.855965 
L 90.932848 155.96269 
L 91.128739 157.069415 
L 91.618466 158.17614 
L 92.113954 159.282865 
L 92.718912 160.38959 
L 92.874472 161.496314 
L 93.225923 161.496314 
L 93.721412 161.496314 
L 95.029272 162.603039 
L 95.069602 162.603039 
L 95.081125 163.709764 
L 95.709128 164.816489 
L 97.132218 165.923214 
L 97.650752 167.029939 
L 97.702606 168.136664 
L 97.765982 169.243389 
L 98.192333 170.350114 
L 98.261471 171.456838 
L 98.347893 172.563563 
L 98.370939 173.670288 
L 98.549546 174.777013 
L 98.854905 175.883738 
L 99.379201 176.990463 
L 99.753698 178.097188 
L 100.03025 178.097188 
L 100.14548 178.097188 
L 100.439316 179.203913 
L 100.957851 179.203913 
L 101.891213 180.310638 
L 101.902736 181.417362 
L 102.213857 182.524087 
L 102.421271 183.630812 
L 102.599877 184.737537 
L 102.790007 185.844262 
L 103.049274 186.950987 
L 103.337349 188.057712 
L 103.383441 189.164437 
L 104.092105 190.271162 
L 104.489648 191.377886 
L 104.558786 192.484611 
L 104.599117 192.484611 
L 104.639447 193.591336 
L 104.674016 195.804786 
L 104.99666 196.911511 
L 105.031229 198.018236 
L 105.388442 199.124961 
L 105.722608 200.231686 
L 106.46008 201.33841 
L 106.713586 202.445135 
L 106.921 203.55186 
L 107.145698 204.658585 
L 107.485626 204.658585 
L 107.669994 204.658585 
L 107.883169 205.76531 
L 108.171244 206.872035 
L 108.246144 207.97876 
L 109.087322 207.97876 
L 109.42725 209.085485 
L 109.496388 209.085485 
L 109.96307 210.19221 
L 110.931001 211.298934 
L 111.011662 212.405659 
L 111.109607 212.405659 
L 111.92774 213.512384 
L 112.135154 214.619109 
L 112.23886 214.619109 
L 112.77468 214.619109 
L 113.880887 215.725834 
L 114.439752 215.725834 
L 114.710542 215.725834 
L 115.252123 216.832559 
L 116.346807 217.939284 
L 116.415945 219.046009 
L 116.773158 219.046009 
L 117.153417 219.046009 
L 117.274408 220.152734 
L 117.614336 221.259459 
L 118.230816 222.366183 
L 118.789682 223.472908 
L 119.354308 223.472908 
L 119.59053 224.579633 
L 120.218533 225.686358 
L 120.397139 225.686358 
L 121.36507 226.793083 
L 121.428447 227.899808 
L 121.762614 229.006533 
L 122.010358 230.113258 
L 122.154395 231.219983 
L 122.344525 232.326707 
L 123.185703 233.433432 
L 123.992313 233.433432 
L 124.355287 234.540157 
L 124.435948 234.540157 
L 124.845014 235.646882 
L 125.092758 236.753607 
L 127.126566 237.860332 
L 127.17842 238.967057 
L 127.443449 240.073782 
L 127.673909 241.180507 
L 129.120044 242.287231 
L 129.75957 243.393956 
L 130.168636 244.500681 
L 131.286367 245.607406 
L 132.012315 246.714131 
L 132.121784 247.820856 
L 132.409858 247.820856 
L 133.095476 248.927581 
L 133.446928 250.034306 
L 133.464212 251.141031 
L 133.838709 252.247755 
L 133.965462 252.247755 
L 134.115261 253.35448 
L 134.22473 254.461205 
L 135.175377 255.56793 
L 136.005032 256.674655 
L 136.506282 257.78138 
L 136.880779 258.888105 
L 137.595205 259.99483 
L 138.620751 261.101555 
L 138.626513 262.208279 
L 138.966441 262.208279 
L 139.012533 263.315004 
L 139.536829 264.421729 
L 140.343439 265.528454 
L 140.395292 265.528454 
L 140.723697 266.635179 
L 141.294085 267.741904 
L 142.769028 268.848629 
L 143.471931 269.955354 
L 144.272779 269.955354 
L 145.649777 271.062079 
L 145.770768 272.168803 
L 146.035797 273.275528 
L 146.467909 274.382253 
L 147.464648 275.488978 
L 147.556832 276.595703 
L 147.574116 277.702428 
L 148.340395 278.809153 
L 149.072105 278.809153 
L 149.118197 278.809153 
L 150.276258 279.915878 
L 153.145483 281.022603 
L 154.21136 282.129328 
L 154.268975 283.236052 
L 155.09863 284.342777 
L 155.818817 285.449502 
L 156.740657 286.556227 
L 157.172769 286.556227 
L 159.655974 287.662952 
L 160.825557 288.769677 
L 160.877411 289.876402 
L 161.349853 289.876402 
L 162.167986 290.983127 
L 163.475846 292.089852 
L 164.461061 293.196576 
L 165.987858 294.303301 
L 166.610099 294.303301 
L 167.393663 295.410026 
L 175.995577 295.410026 
L 176.174183 295.410026 
L 178.12733 296.516751 
L 179.481282 297.623476 
L 180.840995 298.730201 
L 183.888826 299.836926 
L 185.006557 300.943651 
L 187.898828 300.943651 
L 189.667607 300.943651 
L 189.90959 300.943651 
L 193.959922 300.943651 
L 194.622494 302.050376 
L 195.463672 302.050376 
L 199.704133 303.1571 
L 200.758487 304.263825 
L 203.483675 305.37055 
L 205.062325 305.37055 
L 208.012211 305.37055 
L 213.128419 305.37055 
L 219.373881 305.37055 
L 220.825778 306.477275 
L 221.926224 306.477275 
L 228.436714 306.477275 
L 234.106027 306.477275 
L 236.998298 306.477275 
L 239.268327 306.477275 
L 240.558902 306.477275 
L 240.996776 306.477275 
L 244.47672 307.584 
L 262.99993 307.584 
L 267.666742 307.584 
L 274.764905 307.584 
L 279.44324 307.584 
L 398.487273 307.584 
L 398.487273 306.477275 
L 398.487273 306.477275 
L 279.44324 305.37055 
L 274.764905 304.263825 
L 267.666742 303.1571 
L 262.99993 302.050376 
L 244.47672 300.943651 
L 240.996776 299.836926 
L 240.558902 298.730201 
L 239.268327 297.623476 
L 236.998298 296.516751 
L 234.106027 295.410026 
L 228.436714 294.303301 
L 221.926224 293.196576 
L 220.825778 292.089852 
L 219.373881 290.983127 
L 213.128419 289.876402 
L 208.012211 288.769677 
L 205.062325 287.662952 
L 203.483675 286.556227 
L 200.758487 285.449502 
L 199.704133 284.342777 
L 195.463672 283.236052 
L 194.622494 282.129328 
L 193.959922 281.022603 
L 189.90959 279.915878 
L 189.667607 278.809153 
L 187.898828 277.702428 
L 185.006557 276.595703 
L 183.888826 275.488978 
L 180.840995 274.382253 
L 179.481282 273.275528 
L 178.12733 272.168803 
L 176.174183 271.062079 
L 175.995577 269.955354 
L 167.393663 268.848629 
L 166.610099 267.741904 
L 165.987858 266.635179 
L 164.461061 265.528454 
L 163.475846 264.421729 
L 162.167986 263.315004 
L 161.349853 262.208279 
L 160.877411 261.101555 
L 160.825557 259.99483 
L 159.655974 258.888105 
L 157.172769 257.78138 
L 156.740657 256.674655 
L 155.818817 255.56793 
L 155.09863 254.461205 
L 154.268975 253.35448 
L 154.21136 252.247755 
L 153.145483 251.141031 
L 150.276258 250.034306 
L 149.118197 248.927581 
L 149.072105 247.820856 
L 148.340395 246.714131 
L 147.574116 245.607406 
L 147.556832 244.500681 
L 147.464648 243.393956 
L 146.467909 242.287231 
L 146.035797 241.180507 
L 145.770768 240.073782 
L 145.649777 238.967057 
L 144.272779 237.860332 
L 143.471931 236.753607 
L 142.769028 235.646882 
L 141.294085 234.540157 
L 140.723697 233.433432 
L 140.395292 232.326707 
L 140.343439 231.219983 
L 139.536829 230.113258 
L 139.012533 229.006533 
L 138.966441 227.899808 
L 138.626513 226.793083 
L 138.620751 225.686358 
L 137.595205 224.579633 
L 136.880779 223.472908 
L 136.506282 222.366183 
L 136.005032 221.259459 
L 135.175377 220.152734 
L 134.22473 219.046009 
L 134.115261 217.939284 
L 133.965462 216.832559 
L 133.838709 215.725834 
L 133.464212 214.619109 
L 133.446928 213.512384 
L 133.095476 212.405659 
L 132.409858 211.298934 
L 132.121784 210.19221 
L 132.012315 209.085485 
L 131.286367 207.97876 
L 130.168636 206.872035 
L 129.75957 205.76531 
L 129.120044 204.658585 
L 127.673909 203.55186 
L 127.443449 202.445135 
L 127.17842 201.33841 
L 127.126566 200.231686 
L 125.092758 199.124961 
L 124.845014 198.018236 
L 124.435948 196.911511 
L 124.355287 195.804786 
L 123.992313 194.698061 
L 123.185703 193.591336 
L 122.344525 192.484611 
L 122.154395 191.377886 
L 122.010358 190.271162 
L 121.762614 189.164437 
L 121.428447 188.057712 
L 121.36507 186.950987 
L 120.397139 185.844262 
L 120.218533 185.844262 
L 119.59053 184.737537 
L 119.354308 183.630812 
L 118.789682 182.524087 
L 118.230816 181.417362 
L 117.614336 180.310638 
L 117.274408 179.203913 
L 117.153417 178.097188 
L 116.773158 176.990463 
L 116.415945 175.883738 
L 116.346807 174.777013 
L 115.252123 173.670288 
L 114.710542 172.563563 
L 114.439752 171.456838 
L 113.880887 170.350114 
L 112.77468 169.243389 
L 112.23886 168.136664 
L 112.135154 168.136664 
L 111.92774 167.029939 
L 111.109607 165.923214 
L 111.011662 164.816489 
L 110.931001 163.709764 
L 109.96307 162.603039 
L 109.496388 161.496314 
L 109.42725 161.496314 
L 109.087322 160.38959 
L 108.246144 159.282865 
L 108.171244 158.17614 
L 107.883169 157.069415 
L 107.669994 155.96269 
L 107.485626 154.855965 
L 107.145698 153.74924 
L 106.921 152.642515 
L 106.713586 151.53579 
L 106.46008 150.429066 
L 105.722608 149.322341 
L 105.388442 148.215616 
L 105.031229 147.108891 
L 104.99666 146.002166 
L 104.674016 144.895441 
L 104.639447 142.681991 
L 104.599117 141.575266 
L 104.558786 140.468541 
L 104.489648 139.361817 
L 104.092105 138.255092 
L 103.383441 137.148367 
L 103.337349 136.041642 
L 103.049274 134.934917 
L 102.790007 133.828192 
L 102.599877 132.721467 
L 102.421271 131.614742 
L 102.213857 130.508017 
L 101.902736 129.401293 
L 101.891213 128.294568 
L 100.957851 127.187843 
L 100.439316 126.081118 
L 100.14548 124.974393 
L 100.03025 123.867668 
L 99.753698 122.760943 
L 99.379201 121.654218 
L 98.854905 120.547493 
L 98.549546 119.440769 
L 98.370939 118.334044 
L 98.347893 117.227319 
L 98.261471 116.120594 
L 98.192333 115.013869 
L 97.765982 113.907144 
L 97.702606 112.800419 
L 97.650752 111.693694 
L 97.132218 110.586969 
L 95.709128 109.480245 
L 95.081125 108.37352 
L 95.069602 107.266795 
L 95.029272 106.16007 
L 93.721412 105.053345 
L 93.225923 103.94662 
L 92.874472 102.839895 
L 92.718912 101.73317 
L 92.113954 100.626445 
L 91.618466 99.519721 
L 91.128739 98.412996 
L 90.932848 97.306271 
L 90.604443 96.199546 
L 89.936109 95.092821 
L 89.653796 93.986096 
L 89.624988 92.879371 
L 89.388767 91.772646 
L 88.78381 90.665921 
L 88.755002 89.559197 
L 88.351698 88.452472 
L 88.086669 87.345747 
L 87.850447 86.239022 
L 87.602703 85.132297 
L 87.510519 84.025572 
L 87.47595 82.918847 
L 87.233967 81.812122 
L 87.061122 80.705397 
L 86.410073 79.598672 
L 84.837185 78.491948 
L 84.802616 77.385223 
L 84.358981 76.278498 
L 84.180374 75.171773 
L 83.333434 74.065048 
L 82.521063 72.958323 
L 82.388549 71.851598 
L 82.31365 70.744873 
L 82.192658 69.638148 
L 80.567916 68.531424 
L 80.268318 67.424699 
L 78.781852 66.317974 
L 78.683907 65.211249 
L 78.073188 64.104524 
L 77.128303 62.997799 
L 75.99905 61.891074 
L 75.434423 61.891074 
L 75.065687 60.784349 
L 74.789136 59.677624 
L 73.832727 58.5709 
z
" clip-path="url(#p589590d49a)" style="fill: #7cfc00"/>
   </g>
   <g id="PolyCollection_3">
    <path d="M 73.832727 54.144 
L 73.832727 58.5709 
L 74.789136 59.677624 
L 75.065687 60.784349 
L 75.434423 61.891074 
L 75.99905 61.891074 
L 77.128303 62.997799 
L 78.073188 64.104524 
L 78.683907 65.211249 
L 78.781852 66.317974 
L 80.268318 67.424699 
L 80.567916 68.531424 
L 82.192658 69.638148 
L 82.31365 70.744873 
L 82.388549 71.851598 
L 82.521063 72.958323 
L 83.333434 74.065048 
L 84.180374 75.171773 
L 84.358981 76.278498 
L 84.802616 77.385223 
L 84.837185 78.491948 
L 86.410073 79.598672 
L 87.061122 80.705397 
L 87.233967 81.812122 
L 87.47595 82.918847 
L 87.510519 84.025572 
L 87.602703 85.132297 
L 87.850447 86.239022 
L 88.086669 87.345747 
L 88.351698 88.452472 
L 88.755002 89.559197 
L 88.78381 90.665921 
L 89.388767 91.772646 
L 89.624988 92.879371 
L 89.653796 93.986096 
L 89.936109 95.092821 
L 90.604443 96.199546 
L 90.932848 97.306271 
L 91.128739 98.412996 
L 91.618466 99.519721 
L 92.113954 100.626445 
L 92.718912 101.73317 
L 92.874472 102.839895 
L 93.225923 103.94662 
L 93.721412 105.053345 
L 95.029272 106.16007 
L 95.069602 107.266795 
L 95.081125 108.37352 
L 95.709128 109.480245 
L 97.132218 110.586969 
L 97.650752 111.693694 
L 97.702606 112.800419 
L 97.765982 113.907144 
L 98.192333 115.013869 
L 98.261471 116.120594 
L 98.347893 117.227319 
L 98.370939 118.334044 
L 98.549546 119.440769 
L 98.854905 120.547493 
L 99.379201 121.654218 
L 99.753698 122.760943 
L 100.03025 123.867668 
L 100.14548 124.974393 
L 100.439316 126.081118 
L 100.957851 127.187843 
L 101.891213 128.294568 
L 101.902736 129.401293 
L 102.213857 130.508017 
L 102.421271 131.614742 
L 102.599877 132.721467 
L 102.790007 133.828192 
L 103.049274 134.934917 
L 103.337349 136.041642 
L 103.383441 137.148367 
L 104.092105 138.255092 
L 104.489648 139.361817 
L 104.558786 140.468541 
L 104.599117 141.575266 
L 104.639447 142.681991 
L 104.674016 144.895441 
L 104.99666 146.002166 
L 105.031229 147.108891 
L 105.388442 148.215616 
L 105.722608 149.322341 
L 106.46008 150.429066 
L 106.713586 151.53579 
L 106.921 152.642515 
L 107.145698 153.74924 
L 107.485626 154.855965 
L 107.669994 155.96269 
L 107.883169 157.069415 
L 108.171244 158.17614 
L 108.246144 159.282865 
L 109.087322 160.38959 
L 109.42725 161.496314 
L 109.496388 161.496314 
L 109.96307 162.603039 
L 110.931001 163.709764 
L 111.011662 164.816489 
L 111.109607 165.923214 
L 111.92774 167.029939 
L 112.135154 168.136664 
L 112.23886 168.136664 
L 112.77468 169.243389 
L 113.880887 170.350114 
L 114.439752 171.456838 
L 114.710542 172.563563 
L 115.252123 173.670288 
L 116.346807 174.777013 
L 116.415945 175.883738 
L 116.773158 176.990463 
L 117.153417 178.097188 
L 117.274408 179.203913 
L 117.614336 180.310638 
L 118.230816 181.417362 
L 118.789682 182.524087 
L 119.354308 183.630812 
L 119.59053 184.737537 
L 120.218533 185.844262 
L 120.397139 185.844262 
L 121.36507 186.950987 
L 121.428447 188.057712 
L 121.762614 189.164437 
L 122.010358 190.271162 
L 122.154395 191.377886 
L 122.344525 192.484611 
L 123.185703 193.591336 
L 123.992313 194.698061 
L 124.355287 195.804786 
L 124.435948 196.911511 
L 124.845014 198.018236 
L 125.092758 199.124961 
L 127.126566 200.231686 
L 127.17842 201.33841 
L 127.443449 202.445135 
L 127.673909 203.55186 
L 129.120044 204.658585 
L 129.75957 205.76531 
L 130.168636 206.872035 
L 131.286367 207.97876 
L 132.012315 209.085485 
L 132.121784 210.19221 
L 132.409858 211.298934 
L 133.095476 212.405659 
L 133.446928 213.512384 
L 133.464212 214.619109 
L 133.838709 215.725834 
L 133.965462 216.832559 
L 134.115261 217.939284 
L 134.22473 219.046009 
L 135.175377 220.152734 
L 136.005032 221.259459 
L 136.506282 222.366183 
L 136.880779 223.472908 
L 137.595205 224.579633 
L 138.620751 225.686358 
L 138.626513 226.793083 
L 138.966441 227.899808 
L 139.012533 229.006533 
L 139.536829 230.113258 
L 140.343439 231.219983 
L 140.395292 232.326707 
L 140.723697 233.433432 
L 141.294085 234.540157 
L 142.769028 235.646882 
L 143.471931 236.753607 
L 144.272779 237.860332 
L 145.649777 238.967057 
L 145.770768 240.073782 
L 146.035797 241.180507 
L 146.467909 242.287231 
L 147.464648 243.393956 
L 147.556832 244.500681 
L 147.574116 245.607406 
L 148.340395 246.714131 
L 149.072105 247.820856 
L 149.118197 248.927581 
L 150.276258 250.034306 
L 153.145483 251.141031 
L 154.21136 252.247755 
L 154.268975 253.35448 
L 155.09863 254.461205 
L 155.818817 255.56793 
L 156.740657 256.674655 
L 157.172769 257.78138 
L 159.655974 258.888105 
L 160.825557 259.99483 
L 160.877411 261.101555 
L 161.349853 262.208279 
L 162.167986 263.315004 
L 163.475846 264.421729 
L 164.461061 265.528454 
L 165.987858 266.635179 
L 166.610099 267.741904 
L 167.393663 268.848629 
L 175.995577 269.955354 
L 176.174183 271.062079 
L 178.12733 272.168803 
L 179.481282 273.275528 
L 180.840995 274.382253 
L 183.888826 275.488978 
L 185.006557 276.595703 
L 187.898828 277.702428 
L 189.667607 278.809153 
L 189.90959 279.915878 
L 193.959922 281.022603 
L 194.622494 282.129328 
L 195.463672 283.236052 
L 199.704133 284.342777 
L 200.758487 285.449502 
L 203.483675 286.556227 
L 205.062325 287.662952 
L 208.012211 288.769677 
L 213.128419 289.876402 
L 219.373881 290.983127 
L 220.825778 292.089852 
L 221.926224 293.196576 
L 228.436714 294.303301 
L 234.106027 295.410026 
L 236.998298 296.516751 
L 239.268327 297.623476 
L 240.558902 298.730201 
L 240.996776 299.836926 
L 244.47672 300.943651 
L 262.99993 302.050376 
L 267.666742 303.1571 
L 274.764905 304.263825 
L 279.44324 305.37055 
L 398.487273 306.477275 
L 398.487273 306.477275 
L 398.487273 306.477275 
L 279.44324 305.37055 
L 274.764905 304.263825 
L 267.666742 303.1571 
L 262.99993 302.050376 
L 244.47672 300.943651 
L 240.996776 299.836926 
L 240.558902 298.730201 
L 239.268327 297.623476 
L 236.998298 296.516751 
L 234.106027 295.410026 
L 228.436714 294.303301 
L 221.926224 293.196576 
L 220.825778 292.089852 
L 219.373881 290.983127 
L 213.128419 289.876402 
L 208.012211 288.769677 
L 205.062325 287.662952 
L 203.483675 286.556227 
L 200.758487 285.449502 
L 199.704133 284.342777 
L 195.463672 283.236052 
L 194.622494 282.129328 
L 193.959922 281.022603 
L 189.90959 279.915878 
L 189.667607 278.809153 
L 187.898828 277.702428 
L 185.006557 276.595703 
L 183.888826 275.488978 
L 180.840995 274.382253 
L 179.481282 273.275528 
L 178.12733 272.168803 
L 176.174183 271.062079 
L 175.995577 269.955354 
L 167.393663 268.848629 
L 166.610099 267.741904 
L 165.987858 266.635179 
L 164.461061 265.528454 
L 163.475846 264.421729 
L 162.167986 263.315004 
L 161.349853 262.208279 
L 160.877411 261.101555 
L 160.825557 259.99483 
L 159.655974 258.888105 
L 157.172769 257.78138 
L 156.740657 256.674655 
L 155.818817 255.56793 
L 155.09863 254.461205 
L 154.268975 253.35448 
L 154.21136 252.247755 
L 153.145483 251.141031 
L 150.276258 250.034306 
L 149.118197 248.927581 
L 149.072105 247.820856 
L 148.340395 246.714131 
L 147.574116 245.607406 
L 147.556832 244.500681 
L 147.464648 243.393956 
L 146.467909 242.287231 
L 146.035797 241.180507 
L 145.770768 240.073782 
L 145.649777 238.967057 
L 144.272779 237.860332 
L 143.471931 236.753607 
L 142.769028 235.646882 
L 141.294085 234.540157 
L 140.723697 233.433432 
L 140.395292 232.326707 
L 140.343439 231.219983 
L 139.536829 230.113258 
L 139.012533 229.006533 
L 138.966441 227.899808 
L 138.626513 226.793083 
L 138.620751 225.686358 
L 137.595205 224.579633 
L 136.880779 223.472908 
L 136.506282 222.366183 
L 136.005032 221.259459 
L 135.175377 220.152734 
L 134.22473 219.046009 
L 134.115261 217.939284 
L 133.965462 216.832559 
L 133.838709 215.725834 
L 133.464212 214.619109 
L 133.446928 213.512384 
L 133.095476 212.405659 
L 132.409858 211.298934 
L 132.121784 210.19221 
L 132.012315 209.085485 
L 131.286367 207.97876 
L 130.168636 206.872035 
L 129.75957 205.76531 
L 129.120044 204.658585 
L 127.673909 203.55186 
L 127.443449 202.445135 
L 127.17842 201.33841 
L 127.126566 200.231686 
L 125.092758 199.124961 
L 124.845014 198.018236 
L 124.435948 196.911511 
L 124.355287 195.804786 
L 123.992313 194.698061 
L 123.185703 193.591336 
L 122.344525 192.484611 
L 122.154395 191.377886 
L 122.010358 190.271162 
L 121.762614 189.164437 
L 121.428447 188.057712 
L 121.36507 186.950987 
L 120.397139 185.844262 
L 120.218533 184.737537 
L 119.59053 183.630812 
L 119.354308 182.524087 
L 118.789682 181.417362 
L 118.230816 180.310638 
L 117.614336 179.203913 
L 117.274408 178.097188 
L 117.153417 176.990463 
L 116.773158 175.883738 
L 116.415945 174.777013 
L 116.346807 173.670288 
L 115.252123 172.563563 
L 114.710542 171.456838 
L 114.439752 170.350114 
L 113.880887 169.243389 
L 112.77468 168.136664 
L 112.23886 167.029939 
L 112.135154 165.923214 
L 111.92774 164.816489 
L 111.109607 163.709764 
L 111.011662 162.603039 
L 110.931001 161.496314 
L 109.96307 160.38959 
L 109.496388 159.282865 
L 109.42725 158.17614 
L 109.087322 157.069415 
L 108.246144 155.96269 
L 108.171244 154.855965 
L 107.883169 153.74924 
L 107.669994 152.642515 
L 107.485626 151.53579 
L 107.145698 150.429066 
L 106.921 149.322341 
L 106.713586 148.215616 
L 106.46008 147.108891 
L 105.722608 146.002166 
L 105.388442 144.895441 
L 105.031229 143.788716 
L 104.99666 142.681991 
L 104.674016 141.575266 
L 104.639447 139.361817 
L 104.599117 138.255092 
L 104.558786 137.148367 
L 104.489648 136.041642 
L 104.092105 134.934917 
L 103.383441 133.828192 
L 103.337349 132.721467 
L 103.049274 131.614742 
L 102.790007 130.508017 
L 102.599877 129.401293 
L 102.421271 128.294568 
L 102.213857 127.187843 
L 101.902736 126.081118 
L 101.891213 124.974393 
L 100.957851 123.867668 
L 100.439316 122.760943 
L 100.14548 121.654218 
L 100.03025 120.547493 
L 99.753698 119.440769 
L 99.379201 118.334044 
L 98.854905 117.227319 
L 98.549546 116.120594 
L 98.370939 115.013869 
L 98.347893 113.907144 
L 98.261471 112.800419 
L 98.192333 111.693694 
L 97.765982 110.586969 
L 97.702606 109.480245 
L 97.650752 108.37352 
L 97.132218 107.266795 
L 95.709128 106.16007 
L 95.081125 105.053345 
L 95.069602 103.94662 
L 95.029272 102.839895 
L 93.721412 101.73317 
L 93.225923 100.626445 
L 92.874472 99.519721 
L 92.718912 98.412996 
L 92.113954 97.306271 
L 91.618466 96.199546 
L 91.128739 95.092821 
L 90.932848 93.986096 
L 90.604443 92.879371 
L 89.936109 91.772646 
L 89.653796 90.665921 
L 89.624988 89.559197 
L 89.388767 88.452472 
L 88.78381 87.345747 
L 88.755002 86.239022 
L 88.351698 85.132297 
L 88.086669 84.025572 
L 87.850447 82.918847 
L 87.602703 81.812122 
L 87.510519 80.705397 
L 87.47595 79.598672 
L 87.233967 78.491948 
L 87.061122 77.385223 
L 86.410073 76.278498 
L 84.837185 75.171773 
L 84.802616 74.065048 
L 84.358981 72.958323 
L 84.180374 71.851598 
L 83.333434 70.744873 
L 82.521063 69.638148 
L 82.388549 68.531424 
L 82.31365 67.424699 
L 82.192658 66.317974 
L 80.567916 65.211249 
L 80.268318 64.104524 
L 78.781852 62.997799 
L 78.683907 61.891074 
L 78.073188 60.784349 
L 77.128303 59.677624 
L 75.99905 58.5709 
L 75.434423 57.464175 
L 75.065687 56.35745 
L 74.789136 55.250725 
L 73.832727 54.144 
z
" clip-path="url(#p589590d49a)" style="fill: #ff0000"/>
   </g>
   <g id="matplotlib.axis_1">
    <g id="xtick_1">
     <g id="line2d_1">
      <defs>
       <path id="m24e785e8c3" d="M 0 0 
L 0 3.5 
" style="stroke: #000000; stroke-width: 0.8"/>
      </defs>
      <g>
       <use xlink:href="#m24e785e8c3" x="92.592159" y="307.584" style="stroke: #000000; stroke-width: 0.8"/>
      </g>
     </g>
     <g id="text_1">
      <!-- 100 -->
      <g transform="translate(83.048409 322.182437) scale(0.1 -0.1)">
       <defs>
        <path id="DejaVuSans-31" d="M 794 531 
L 1825 531 
L 1825 4091 
L 703 3866 
L 703 4441 
L 1819 4666 
L 2450 4666 
L 2450 531 
L 3481 531 
L 3481 0 
L 794 0 
L 794 531 
z
" transform="scale(0.015625)"/>
        <path id="DejaVuSans-30" d="M 2034 4250 
Q 1547 4250 1301 3770 
Q 1056 3291 1056 2328 
Q 1056 1369 1301 889 
Q 1547 409 2034 409 
Q 2525 409 2770 889 
Q 3016 1369 3016 2328 
Q 3016 3291 2770 3770 
Q 2525 4250 2034 4250 
z
M 2034 4750 
Q 2819 4750 3233 4129 
Q 3647 3509 3647 2328 
Q 3647 1150 3233 529 
Q 2819 -91 2034 -91 
Q 1250 -91 836 529 
Q 422 1150 422 2328 
Q 422 3509 836 4129 
Q 1250 4750 2034 4750 
z
" transform="scale(0.015625)"/>
       </defs>
       <use xlink:href="#DejaVuSans-31"/>
       <use xlink:href="#DejaVuSans-30" x="63.623047"/>
       <use xlink:href="#DejaVuSans-30" x="127.246094"/>
      </g>
     </g>
    </g>
    <g id="xtick_2">
     <g id="line2d_2">
      <g>
       <use xlink:href="#m24e785e8c3" x="150.20712" y="307.584" style="stroke: #000000; stroke-width: 0.8"/>
      </g>
     </g>
     <g id="text_2">
      <!-- 200 -->
      <g transform="translate(140.66337 322.182437) scale(0.1 -0.1)">
       <defs>
        <path id="DejaVuSans-32" d="M 1228 531 
L 3431 531 
L 3431 0 
L 469 0 
L 469 531 
Q 828 903 1448 1529 
Q 2069 2156 2228 2338 
Q 2531 2678 2651 2914 
Q 2772 3150 2772 3378 
Q 2772 3750 2511 3984 
Q 2250 4219 1831 4219 
Q 1534 4219 1204 4116 
Q 875 4013 500 3803 
L 500 4441 
Q 881 4594 1212 4672 
Q 1544 4750 1819 4750 
Q 2544 4750 2975 4387 
Q 3406 4025 3406 3419 
Q 3406 3131 3298 2873 
Q 3191 2616 2906 2266 
Q 2828 2175 2409 1742 
Q 1991 1309 1228 531 
z
" transform="scale(0.015625)"/>
       </defs>
       <use xlink:href="#DejaVuSans-32"/>
       <use xlink:href="#DejaVuSans-30" x="63.623047"/>
       <use xlink:href="#DejaVuSans-30" x="127.246094"/>
      </g>
     </g>
    </g>
    <g id="xtick_3">
     <g id="line2d_3">
      <g>
       <use xlink:href="#m24e785e8c3" x="207.822081" y="307.584" style="stroke: #000000; stroke-width: 0.8"/>
      </g>
     </g>
     <g id="text_3">
      <!-- 300 -->
      <g transform="translate(198.278331 322.182437) scale(0.1 -0.1)">
       <defs>
        <path id="DejaVuSans-33" d="M 2597 2516 
Q 3050 2419 3304 2112 
Q 3559 1806 3559 1356 
Q 3559 666 3084 287 
Q 2609 -91 1734 -91 
Q 1441 -91 1130 -33 
Q 819 25 488 141 
L 488 750 
Q 750 597 1062 519 
Q 1375 441 1716 441 
Q 2309 441 2620 675 
Q 2931 909 2931 1356 
Q 2931 1769 2642 2001 
Q 2353 2234 1838 2234 
L 1294 2234 
L 1294 2753 
L 1863 2753 
Q 2328 2753 2575 2939 
Q 2822 3125 2822 3475 
Q 2822 3834 2567 4026 
Q 2313 4219 1838 4219 
Q 1578 4219 1281 4162 
Q 984 4106 628 3988 
L 628 4550 
Q 988 4650 1302 4700 
Q 1616 4750 1894 4750 
Q 2613 4750 3031 4423 
Q 3450 4097 3450 3541 
Q 3450 3153 3228 2886 
Q 3006 2619 2597 2516 
z
" transform="scale(0.015625)"/>
       </defs>
       <use xlink:href="#DejaVuSans-33"/>
       <use xlink:href="#DejaVuSans-30" x="63.623047"/>
       <use xlink:href="#DejaVuSans-30" x="127.246094"/>
      </g>
     </g>
    </g>
    <g id="xtick_4">
     <g id="line2d_4">
      <g>
       <use xlink:href="#m24e785e8c3" x="265.437043" y="307.584" style="stroke: #000000; stroke-width: 0.8"/>
      </g>
     </g>
     <g id="text_4">
      <!-- 400 -->
      <g transform="translate(255.893293 322.182437) scale(0.1 -0.1)">
       <defs>
        <path id="DejaVuSans-34" d="M 2419 4116 
L 825 1625 
L 2419 1625 
L 2419 4116 
z
M 2253 4666 
L 3047 4666 
L 3047 1625 
L 3713 1625 
L 3713 1100 
L 3047 1100 
L 3047 0 
L 2419 0 
L 2419 1100 
L 313 1100 
L 313 1709 
L 2253 4666 
z
" transform="scale(0.015625)"/>
       </defs>
       <use xlink:href="#DejaVuSans-34"/>
       <use xlink:href="#DejaVuSans-30" x="63.623047"/>
       <use xlink:href="#DejaVuSans-30" x="127.246094"/>
      </g>
     </g>
    </g>
    <g id="xtick_5">
     <g id="line2d_5">
      <g>
       <use xlink:href="#m24e785e8c3" x="323.052004" y="307.584" style="stroke: #000000; stroke-width: 0.8"/>
      </g>
     </g>
     <g id="text_5">
      <!-- 500 -->
      <g transform="translate(313.508254 322.182437) scale(0.1 -0.1)">
       <defs>
        <path id="DejaVuSans-35" d="M 691 4666 
L 3169 4666 
L 3169 4134 
L 1269 4134 
L 1269 2991 
Q 1406 3038 1543 3061 
Q 1681 3084 1819 3084 
Q 2600 3084 3056 2656 
Q 3513 2228 3513 1497 
Q 3513 744 3044 326 
Q 2575 -91 1722 -91 
Q 1428 -91 1123 -41 
Q 819 9 494 109 
L 494 744 
Q 775 591 1075 516 
Q 1375 441 1709 441 
Q 2250 441 2565 725 
Q 2881 1009 2881 1497 
Q 2881 1984 2565 2268 
Q 2250 2553 1709 2553 
Q 1456 2553 1204 2497 
Q 953 2441 691 2322 
L 691 4666 
z
" transform="scale(0.015625)"/>
       </defs>
       <use xlink:href="#DejaVuSans-35"/>
       <use xlink:href="#DejaVuSans-30" x="63.623047"/>
       <use xlink:href="#DejaVuSans-30" x="127.246094"/>
      </g>
     </g>
    </g>
    <g id="xtick_6">
     <g id="line2d_6">
      <g>
       <use xlink:href="#m24e785e8c3" x="380.666965" y="307.584" style="stroke: #000000; stroke-width: 0.8"/>
      </g>
     </g>
     <g id="text_6">
      <!-- 600 -->
      <g transform="translate(371.123215 322.182437) scale(0.1 -0.1)">
       <defs>
        <path id="DejaVuSans-36" d="M 2113 2584 
Q 1688 2584 1439 2293 
Q 1191 2003 1191 1497 
Q 1191 994 1439 701 
Q 1688 409 2113 409 
Q 2538 409 2786 701 
Q 3034 994 3034 1497 
Q 3034 2003 2786 2293 
Q 2538 2584 2113 2584 
z
M 3366 4563 
L 3366 3988 
Q 3128 4100 2886 4159 
Q 2644 4219 2406 4219 
Q 1781 4219 1451 3797 
Q 1122 3375 1075 2522 
Q 1259 2794 1537 2939 
Q 1816 3084 2150 3084 
Q 2853 3084 3261 2657 
Q 3669 2231 3669 1497 
Q 3669 778 3244 343 
Q 2819 -91 2113 -91 
Q 1303 -91 875 529 
Q 447 1150 447 2328 
Q 447 3434 972 4092 
Q 1497 4750 2381 4750 
Q 2619 4750 2861 4703 
Q 3103 4656 3366 4563 
z
" transform="scale(0.015625)"/>
       </defs>
       <use xlink:href="#DejaVuSans-36"/>
       <use xlink:href="#DejaVuSans-30" x="63.623047"/>
       <use xlink:href="#DejaVuSans-30" x="127.246094"/>
      </g>
     </g>
    </g>
    <g id="text_7">
     <!-- Score -->
     <g transform="translate(222.157656 335.860562) scale(0.1 -0.1)">
      <defs>
       <path id="DejaVuSans-53" d="M 3425 4513 
L 3425 3897 
Q 3066 4069 2747 4153 
Q 2428 4238 2131 4238 
Q 1616 4238 1336 4038 
Q 1056 3838 1056 3469 
Q 1056 3159 1242 3001 
Q 1428 2844 1947 2747 
L 2328 2669 
Q 3034 2534 3370 2195 
Q 3706 1856 3706 1288 
Q 3706 609 3251 259 
Q 2797 -91 1919 -91 
Q 1588 -91 1214 -16 
Q 841 59 441 206 
L 441 856 
Q 825 641 1194 531 
Q 1563 422 1919 422 
Q 2459 422 2753 634 
Q 3047 847 3047 1241 
Q 3047 1584 2836 1778 
Q 2625 1972 2144 2069 
L 1759 2144 
Q 1053 2284 737 2584 
Q 422 2884 422 3419 
Q 422 4038 858 4394 
Q 1294 4750 2059 4750 
Q 2388 4750 2728 4690 
Q 3069 4631 3425 4513 
z
" transform="scale(0.015625)"/>
       <path id="DejaVuSans-63" d="M 3122 3366 
L 3122 2828 
Q 2878 2963 2633 3030 
Q 2388 3097 2138 3097 
Q 1578 3097 1268 2742 
Q 959 2388 959 1747 
Q 959 1106 1268 751 
Q 1578 397 2138 397 
Q 2388 397 2633 464 
Q 2878 531 3122 666 
L 3122 134 
Q 2881 22 2623 -34 
Q 2366 -91 2075 -91 
Q 1284 -91 818 406 
Q 353 903 353 1747 
Q 353 2603 823 3093 
Q 1294 3584 2113 3584 
Q 2378 3584 2631 3529 
Q 2884 3475 3122 3366 
z
" transform="scale(0.015625)"/>
       <path id="DejaVuSans-6f" d="M 1959 3097 
Q 1497 3097 1228 2736 
Q 959 2375 959 1747 
Q 959 1119 1226 758 
Q 1494 397 1959 397 
Q 2419 397 2687 759 
Q 2956 1122 2956 1747 
Q 2956 2369 2687 2733 
Q 2419 3097 1959 3097 
z
M 1959 3584 
Q 2709 3584 3137 3096 
Q 3566 2609 3566 1747 
Q 3566 888 3137 398 
Q 2709 -91 1959 -91 
Q 1206 -91 779 398 
Q 353 888 353 1747 
Q 353 2609 779 3096 
Q 1206 3584 1959 3584 
z
" transform="scale(0.015625)"/>
       <path id="DejaVuSans-72" d="M 2631 2963 
Q 2534 3019 2420 3045 
Q 2306 3072 2169 3072 
Q 1681 3072 1420 2755 
Q 1159 2438 1159 1844 
L 1159 0 
L 581 0 
L 581 3500 
L 1159 3500 
L 1159 2956 
Q 1341 3275 1631 3429 
Q 1922 3584 2338 3584 
Q 2397 3584 2469 3576 
Q 2541 3569 2628 3553 
L 2631 2963 
z
" transform="scale(0.015625)"/>
       <path id="DejaVuSans-65" d="M 3597 1894 
L 3597 1613 
L 953 1613 
Q 991 1019 1311 708 
Q 1631 397 2203 397 
Q 2534 397 2845 478 
Q 3156 559 3463 722 
L 3463 178 
Q 3153 47 2828 -22 
Q 2503 -91 2169 -91 
Q 1331 -91 842 396 
Q 353 884 353 1716 
Q 353 2575 817 3079 
Q 1281 3584 2069 3584 
Q 2775 3584 3186 3129 
Q 3597 2675 3597 1894 
z
M 3022 2063 
Q 3016 2534 2758 2815 
Q 2500 3097 2075 3097 
Q 1594 3097 1305 2825 
Q 1016 2553 972 2059 
L 3022 2063 
z
" transform="scale(0.015625)"/>
      </defs>
      <use xlink:href="#DejaVuSans-53"/>
      <use xlink:href="#DejaVuSans-63" x="63.476562"/>
      <use xlink:href="#DejaVuSans-6f" x="118.457031"/>
      <use xlink:href="#DejaVuSans-72" x="179.638672"/>
      <use xlink:href="#DejaVuSans-65" x="218.501953"/>
     </g>
    </g>
   </g>
   <g id="matplotlib.axis_2">
    <g id="ytick_1">
     <g id="line2d_7">
      <defs>
       <path id="medc8fae0d1" d="M 0 0 
L -3.5 0 
" style="stroke: #000000; stroke-width: 0.8"/>
      </defs>
      <g>
       <use xlink:href="#medc8fae0d1" x="57.6" y="307.584" style="stroke: #000000; stroke-width: 0.8"/>
      </g>
     </g>
     <g id="text_8">
      <!-- 0 -->
      <g transform="translate(44.2375 311.383219) scale(0.1 -0.1)">
       <use xlink:href="#DejaVuSans-30"/>
      </g>
     </g>
    </g>
    <g id="ytick_2">
     <g id="line2d_8">
      <g>
       <use xlink:href="#medc8fae0d1" x="57.6" y="252.247755" style="stroke: #000000; stroke-width: 0.8"/>
      </g>
     </g>
     <g id="text_9">
      <!-- 50 -->
      <g transform="translate(37.875 256.046974) scale(0.1 -0.1)">
       <use xlink:href="#DejaVuSans-35"/>
       <use xlink:href="#DejaVuSans-30" x="63.623047"/>
      </g>
     </g>
    </g>
    <g id="ytick_3">
     <g id="line2d_9">
      <g>
       <use xlink:href="#medc8fae0d1" x="57.6" y="196.911511" style="stroke: #000000; stroke-width: 0.8"/>
      </g>
     </g>
     <g id="text_10">
      <!-- 100 -->
      <g transform="translate(31.5125 200.71073) scale(0.1 -0.1)">
       <use xlink:href="#DejaVuSans-31"/>
       <use xlink:href="#DejaVuSans-30" x="63.623047"/>
       <use xlink:href="#DejaVuSans-30" x="127.246094"/>
      </g>
     </g>
    </g>
    <g id="ytick_4">
     <g id="line2d_10">
      <g>
       <use xlink:href="#medc8fae0d1" x="57.6" y="141.575266" style="stroke: #000000; stroke-width: 0.8"/>
      </g>
     </g>
     <g id="text_11">
      <!-- 150 -->
      <g transform="translate(31.5125 145.374485) scale(0.1 -0.1)">
       <use xlink:href="#DejaVuSans-31"/>
       <use xlink:href="#DejaVuSans-35" x="63.623047"/>
       <use xlink:href="#DejaVuSans-30" x="127.246094"/>
      </g>
     </g>
    </g>
    <g id="ytick_5">
     <g id="line2d_11">
      <g>
       <use xlink:href="#medc8fae0d1" x="57.6" y="86.239022" style="stroke: #000000; stroke-width: 0.8"/>
      </g>
     </g>
     <g id="text_12">
      <!-- 200 -->
      <g transform="translate(31.5125 90.038241) scale(0.1 -0.1)">
       <use xlink:href="#DejaVuSans-32"/>
       <use xlink:href="#DejaVuSans-30" x="63.623047"/>
       <use xlink:href="#DejaVuSans-30" x="127.246094"/>
      </g>
     </g>
    </g>
    <g id="text_13">
     <!-- Number of crosslinks -->
     <g transform="translate(25.432812 227.019406) rotate(-90) scale(0.1 -0.1)">
      <defs>
       <path id="DejaVuSans-4e" d="M 628 4666 
L 1478 4666 
L 3547 763 
L 3547 4666 
L 4159 4666 
L 4159 0 
L 3309 0 
L 1241 3903 
L 1241 0 
L 628 0 
L 628 4666 
z
" transform="scale(0.015625)"/>
       <path id="DejaVuSans-75" d="M 544 1381 
L 544 3500 
L 1119 3500 
L 1119 1403 
Q 1119 906 1312 657 
Q 1506 409 1894 409 
Q 2359 409 2629 706 
Q 2900 1003 2900 1516 
L 2900 3500 
L 3475 3500 
L 3475 0 
L 2900 0 
L 2900 538 
Q 2691 219 2414 64 
Q 2138 -91 1772 -91 
Q 1169 -91 856 284 
Q 544 659 544 1381 
z
M 1991 3584 
L 1991 3584 
z
" transform="scale(0.015625)"/>
       <path id="DejaVuSans-6d" d="M 3328 2828 
Q 3544 3216 3844 3400 
Q 4144 3584 4550 3584 
Q 5097 3584 5394 3201 
Q 5691 2819 5691 2113 
L 5691 0 
L 5113 0 
L 5113 2094 
Q 5113 2597 4934 2840 
Q 4756 3084 4391 3084 
Q 3944 3084 3684 2787 
Q 3425 2491 3425 1978 
L 3425 0 
L 2847 0 
L 2847 2094 
Q 2847 2600 2669 2842 
Q 2491 3084 2119 3084 
Q 1678 3084 1418 2786 
Q 1159 2488 1159 1978 
L 1159 0 
L 581 0 
L 581 3500 
L 1159 3500 
L 1159 2956 
Q 1356 3278 1631 3431 
Q 1906 3584 2284 3584 
Q 2666 3584 2933 3390 
Q 3200 3197 3328 2828 
z
" transform="scale(0.015625)"/>
       <path id="DejaVuSans-62" d="M 3116 1747 
Q 3116 2381 2855 2742 
Q 2594 3103 2138 3103 
Q 1681 3103 1420 2742 
Q 1159 2381 1159 1747 
Q 1159 1113 1420 752 
Q 1681 391 2138 391 
Q 2594 391 2855 752 
Q 3116 1113 3116 1747 
z
M 1159 2969 
Q 1341 3281 1617 3432 
Q 1894 3584 2278 3584 
Q 2916 3584 3314 3078 
Q 3713 2572 3713 1747 
Q 3713 922 3314 415 
Q 2916 -91 2278 -91 
Q 1894 -91 1617 61 
Q 1341 213 1159 525 
L 1159 0 
L 581 0 
L 581 4863 
L 1159 4863 
L 1159 2969 
z
" transform="scale(0.015625)"/>
       <path id="DejaVuSans-20" transform="scale(0.015625)"/>
       <path id="DejaVuSans-66" d="M 2375 4863 
L 2375 4384 
L 1825 4384 
Q 1516 4384 1395 4259 
Q 1275 4134 1275 3809 
L 1275 3500 
L 2222 3500 
L 2222 3053 
L 1275 3053 
L 1275 0 
L 697 0 
L 697 3053 
L 147 3053 
L 147 3500 
L 697 3500 
L 697 3744 
Q 697 4328 969 4595 
Q 1241 4863 1831 4863 
L 2375 4863 
z
" transform="scale(0.015625)"/>
       <path id="DejaVuSans-73" d="M 2834 3397 
L 2834 2853 
Q 2591 2978 2328 3040 
Q 2066 3103 1784 3103 
Q 1356 3103 1142 2972 
Q 928 2841 928 2578 
Q 928 2378 1081 2264 
Q 1234 2150 1697 2047 
L 1894 2003 
Q 2506 1872 2764 1633 
Q 3022 1394 3022 966 
Q 3022 478 2636 193 
Q 2250 -91 1575 -91 
Q 1294 -91 989 -36 
Q 684 19 347 128 
L 347 722 
Q 666 556 975 473 
Q 1284 391 1588 391 
Q 1994 391 2212 530 
Q 2431 669 2431 922 
Q 2431 1156 2273 1281 
Q 2116 1406 1581 1522 
L 1381 1569 
Q 847 1681 609 1914 
Q 372 2147 372 2553 
Q 372 3047 722 3315 
Q 1072 3584 1716 3584 
Q 2034 3584 2315 3537 
Q 2597 3491 2834 3397 
z
" transform="scale(0.015625)"/>
       <path id="DejaVuSans-6c" d="M 603 4863 
L 1178 4863 
L 1178 0 
L 603 0 
L 603 4863 
z
" transform="scale(0.015625)"/>
       <path id="DejaVuSans-69" d="M 603 3500 
L 1178 3500 
L 1178 0 
L 603 0 
L 603 3500 
z
M 603 4863 
L 1178 4863 
L 1178 4134 
L 603 4134 
L 603 4863 
z
" transform="scale(0.015625)"/>
       <path id="DejaVuSans-6e" d="M 3513 2113 
L 3513 0 
L 2938 0 
L 2938 2094 
Q 2938 2591 2744 2837 
Q 2550 3084 2163 3084 
Q 1697 3084 1428 2787 
Q 1159 2491 1159 1978 
L 1159 0 
L 581 0 
L 581 3500 
L 1159 3500 
L 1159 2956 
Q 1366 3272 1645 3428 
Q 1925 3584 2291 3584 
Q 2894 3584 3203 3211 
Q 3513 2838 3513 2113 
z
" transform="scale(0.015625)"/>
       <path id="DejaVuSans-6b" d="M 581 4863 
L 1159 4863 
L 1159 1991 
L 2875 3500 
L 3609 3500 
L 1753 1863 
L 3688 0 
L 2938 0 
L 1159 1709 
L 1159 0 
L 581 0 
L 581 4863 
z
" transform="scale(0.015625)"/>
      </defs>
      <use xlink:href="#DejaVuSans-4e"/>
      <use xlink:href="#DejaVuSans-75" x="74.804688"/>
      <use xlink:href="#DejaVuSans-6d" x="138.183594"/>
      <use xlink:href="#DejaVuSans-62" x="235.595703"/>
      <use xlink:href="#DejaVuSans-65" x="299.072266"/>
      <use xlink:href="#DejaVuSans-72" x="360.595703"/>
      <use xlink:href="#DejaVuSans-20" x="401.708984"/>
      <use xlink:href="#DejaVuSans-6f" x="433.496094"/>
      <use xlink:href="#DejaVuSans-66" x="494.677734"/>
      <use xlink:href="#DejaVuSans-20" x="529.882812"/>
      <use xlink:href="#DejaVuSans-63" x="561.669922"/>
      <use xlink:href="#DejaVuSans-72" x="616.650391"/>
      <use xlink:href="#DejaVuSans-6f" x="655.513672"/>
      <use xlink:href="#DejaVuSans-73" x="716.695312"/>
      <use xlink:href="#DejaVuSans-73" x="768.794922"/>
      <use xlink:href="#DejaVuSans-6c" x="820.894531"/>
      <use xlink:href="#DejaVuSans-69" x="848.677734"/>
      <use xlink:href="#DejaVuSans-6e" x="876.460938"/>
      <use xlink:href="#DejaVuSans-6b" x="939.839844"/>
      <use xlink:href="#DejaVuSans-73" x="997.75"/>
     </g>
    </g>
   </g>
   <g id="patch_3">
    <path d="M 57.6 307.584 
L 57.6 41.472 
" style="fill: none; stroke: #000000; stroke-width: 0.8; stroke-linejoin: miter; stroke-linecap: square"/>
   </g>
   <g id="patch_4">
    <path d="M 414.72 307.584 
L 414.72 41.472 
" style="fill: none; stroke: #000000; stroke-width: 0.8; stroke-linejoin: miter; stroke-linecap: square"/>
   </g>
   <g id="patch_5">
    <path d="M 57.6 307.584 
L 414.72 307.584 
" style="fill: none; stroke: #000000; stroke-width: 0.8; stroke-linejoin: miter; stroke-linecap: square"/>
   </g>
   <g id="patch_6">
    <path d="M 57.6 41.472 
L 414.72 41.472 
" style="fill: none; stroke: #000000; stroke-width: 0.8; stroke-linejoin: miter; stroke-linecap: square"/>
   </g>
   <g id="legend_1">
    <g id="patch_7">
     <path d="M 293.087188 93.506375 
L 407.72 93.506375 
Q 409.72 93.506375 409.72 91.506375 
L 409.72 48.472 
Q 409.72 46.472 407.72 46.472 
L 293.087188 46.472 
Q 291.087188 46.472 291.087188 48.472 
L 291.087188 91.506375 
Q 291.087188 93.506375 293.087188 93.506375 
z
" style="fill: #ffffff; opacity: 0.8; stroke: #cccccc; stroke-linejoin: miter"/>
    </g>
    <g id="patch_8">
     <path d="M 295.087188 58.070438 
L 315.087188 58.070438 
L 315.087188 51.070438 
L 295.087188 51.070438 
z
" style="fill: #008000"/>
    </g>
    <g id="text_14">
     <!-- true -->
     <g transform="translate(323.087188 58.070438) scale(0.1 -0.1)">
      <defs>
       <path id="DejaVuSans-74" d="M 1172 4494 
L 1172 3500 
L 2356 3500 
L 2356 3053 
L 1172 3053 
L 1172 1153 
Q 1172 725 1289 603 
Q 1406 481 1766 481 
L 2356 481 
L 2356 0 
L 1766 0 
Q 1100 0 847 248 
Q 594 497 594 1153 
L 594 3053 
L 172 3053 
L 172 3500 
L 594 3500 
L 594 4494 
L 1172 4494 
z
" transform="scale(0.015625)"/>
      </defs>
      <use xlink:href="#DejaVuSans-74"/>
      <use xlink:href="#DejaVuSans-72" x="39.208984"/>
      <use xlink:href="#DejaVuSans-75" x="80.322266"/>
      <use xlink:href="#DejaVuSans-65" x="143.701172"/>
     </g>
    </g>
    <g id="patch_9">
     <path d="M 295.087188 72.748563 
L 315.087188 72.748563 
L 315.087188 65.748563 
L 295.087188 65.748563 
z
" style="fill: #7cfc00"/>
    </g>
    <g id="text_15">
     <!-- true homeotypic -->
     <g transform="translate(323.087188 72.748563) scale(0.1 -0.1)">
      <defs>
       <path id="DejaVuSans-68" d="M 3513 2113 
L 3513 0 
L 2938 0 
L 2938 2094 
Q 2938 2591 2744 2837 
Q 2550 3084 2163 3084 
Q 1697 3084 1428 2787 
Q 1159 2491 1159 1978 
L 1159 0 
L 581 0 
L 581 4863 
L 1159 4863 
L 1159 2956 
Q 1366 3272 1645 3428 
Q 1925 3584 2291 3584 
Q 2894 3584 3203 3211 
Q 3513 2838 3513 2113 
z
" transform="scale(0.015625)"/>
       <path id="DejaVuSans-79" d="M 2059 -325 
Q 1816 -950 1584 -1140 
Q 1353 -1331 966 -1331 
L 506 -1331 
L 506 -850 
L 844 -850 
Q 1081 -850 1212 -737 
Q 1344 -625 1503 -206 
L 1606 56 
L 191 3500 
L 800 3500 
L 1894 763 
L 2988 3500 
L 3597 3500 
L 2059 -325 
z
" transform="scale(0.015625)"/>
       <path id="DejaVuSans-70" d="M 1159 525 
L 1159 -1331 
L 581 -1331 
L 581 3500 
L 1159 3500 
L 1159 2969 
Q 1341 3281 1617 3432 
Q 1894 3584 2278 3584 
Q 2916 3584 3314 3078 
Q 3713 2572 3713 1747 
Q 3713 922 3314 415 
Q 2916 -91 2278 -91 
Q 1894 -91 1617 61 
Q 1341 213 1159 525 
z
M 3116 1747 
Q 3116 2381 2855 2742 
Q 2594 3103 2138 3103 
Q 1681 3103 1420 2742 
Q 1159 2381 1159 1747 
Q 1159 1113 1420 752 
Q 1681 391 2138 391 
Q 2594 391 2855 752 
Q 3116 1113 3116 1747 
z
" transform="scale(0.015625)"/>
      </defs>
      <use xlink:href="#DejaVuSans-74"/>
      <use xlink:href="#DejaVuSans-72" x="39.208984"/>
      <use xlink:href="#DejaVuSans-75" x="80.322266"/>
      <use xlink:href="#DejaVuSans-65" x="143.701172"/>
      <use xlink:href="#DejaVuSans-20" x="205.224609"/>
      <use xlink:href="#DejaVuSans-68" x="237.011719"/>
      <use xlink:href="#DejaVuSans-6f" x="300.390625"/>
      <use xlink:href="#DejaVuSans-6d" x="361.572266"/>
      <use xlink:href="#DejaVuSans-65" x="458.984375"/>
      <use xlink:href="#DejaVuSans-6f" x="520.507812"/>
      <use xlink:href="#DejaVuSans-74" x="581.689453"/>
      <use xlink:href="#DejaVuSans-79" x="620.898438"/>
      <use xlink:href="#DejaVuSans-70" x="680.078125"/>
      <use xlink:href="#DejaVuSans-69" x="743.554688"/>
      <use xlink:href="#DejaVuSans-63" x="771.337891"/>
     </g>
    </g>
    <g id="patch_10">
     <path d="M 295.087188 87.426688 
L 315.087188 87.426688 
L 315.087188 80.426688 
L 295.087188 80.426688 
z
" style="fill: #ff0000"/>
    </g>
    <g id="text_16">
     <!-- false -->
     <g transform="translate(323.087188 87.426688) scale(0.1 -0.1)">
      <defs>
       <path id="DejaVuSans-61" d="M 2194 1759 
Q 1497 1759 1228 1600 
Q 959 1441 959 1056 
Q 959 750 1161 570 
Q 1363 391 1709 391 
Q 2188 391 2477 730 
Q 2766 1069 2766 1631 
L 2766 1759 
L 2194 1759 
z
M 3341 1997 
L 3341 0 
L 2766 0 
L 2766 531 
Q 2569 213 2275 61 
Q 1981 -91 1556 -91 
Q 1019 -91 701 211 
Q 384 513 384 1019 
Q 384 1609 779 1909 
Q 1175 2209 1959 2209 
L 2766 2209 
L 2766 2266 
Q 2766 2663 2505 2880 
Q 2244 3097 1772 3097 
Q 1472 3097 1187 3025 
Q 903 2953 641 2809 
L 641 3341 
Q 956 3463 1253 3523 
Q 1550 3584 1831 3584 
Q 2591 3584 2966 3190 
Q 3341 2797 3341 1997 
z
" transform="scale(0.015625)"/>
      </defs>
      <use xlink:href="#DejaVuSans-66"/>
      <use xlink:href="#DejaVuSans-61" x="35.205078"/>
      <use xlink:href="#DejaVuSans-6c" x="96.484375"/>
      <use xlink:href="#DejaVuSans-73" x="124.267578"/>
      <use xlink:href="#DejaVuSans-65" x="176.367188"/>
     </g>
    </g>
   </g>
  </g>
 </g>
 <defs>
  <clipPath id="p589590d49a">
   <rect x="57.6" y="41.472" width="357.12" height="266.112"/>
  </clipPath>
 </defs>
</svg>
