<?xml version="1.0" encoding="utf-8" standalone="no"?>
<!DOCTYPE svg PUBLIC "-//W3C//DTD SVG 1.1//EN"
  "http://www.w3.org/Graphics/SVG/1.1/DTD/svg11.dtd">
<svg xmlns:xlink="http://www.w3.org/1999/xlink" width="460.8pt" height="345.6pt" viewBox="0 0 460.8 345.6" xmlns="http://www.w3.org/2000/svg" version="1.1">
 <metadata>
  <rdf:RDF xmlns:dc="http://purl.org/dc/elements/1.1/" xmlns:cc="http://creativecommons.org/ns#" xmlns:rdf="http://www.w3.org/1999/02/22-rdf-syntax-ns#">
   <cc:Work>
    <dc:type rdf:resource="http://purl.org/dc/dcmitype/StillImage"/>
    <dc:date>2024-06-24T13:01:09.259531</dc:date>
    <dc:format>image/svg+xml</dc:format>
    <dc:creator>
     <cc:Agent>
      <dc:title>Matplotlib v3.9.0, https://matplotlib.org/</dc:title>
     </cc:Agent>
    </dc:creator>
   </cc:Work>
  </rdf:RDF>
 </metadata>
 <defs>
  <style type="text/css">*{stroke-linejoin: round; stroke-linecap: butt}</style>
 </defs>
 <g id="figure_1">
  <g id="patch_1">
   <path d="M 0 345.6 
L 460.8 345.6 
L 460.8 0 
L 0 0 
z
" style="fill: #ffffff"/>
  </g>
  <g id="axes_1">
   <g id="patch_2">
    <path d="M 57.6 307.584 
L 414.72 307.584 
L 414.72 41.472 
L 57.6 41.472 
z
" style="fill: #ffffff"/>
   </g>
   <g id="PolyCollection_1">
    <path d="M 73.832727 118.396394 
L 73.832727 307.584 
L 74.136227 307.584 
L 77.950481 307.584 
L 78.778954 307.584 
L 79.533602 307.584 
L 80.575344 307.584 
L 81.945195 307.584 
L 82.092843 307.584 
L 83.077167 307.584 
L 85.587192 307.584 
L 86.087557 307.584 
L 86.464881 307.584 
L 86.760178 307.584 
L 88.138231 307.584 
L 88.228461 307.584 
L 89.097946 307.584 
L 89.901811 307.584 
L 90.434986 307.584 
L 91.197837 307.584 
L 91.443918 307.584 
L 91.878661 307.584 
L 92.198566 307.584 
L 92.469255 307.584 
L 92.502066 307.584 
L 93.363349 307.584 
L 93.593024 307.584 
L 94.101592 307.584 
L 94.519929 307.584 
L 94.716794 307.584 
L 94.749605 307.584 
L 95.077713 307.584 
L 95.37301 307.584 
L 95.471442 307.584 
L 95.692915 307.584 
L 96.267104 307.584 
L 96.291712 307.584 
L 96.504982 307.584 
L 96.74286 307.584 
L 96.980738 307.584 
L 97.407279 307.584 
L 98.342386 307.584 
L 98.465426 307.584 
L 98.727913 307.584 
L 99.088831 307.584 
L 99.646615 307.584 
L 99.712236 307.584 
L 100.138777 307.584 
L 105.16703 307.584 
L 105.232651 307.584 
L 105.872462 307.584 
L 106.84038 307.584 
L 107.554015 307.584 
L 107.644244 307.584 
L 107.734474 307.584 
L 108.161014 307.584 
L 108.587555 307.584 
L 109.768743 307.584 
L 110.18708 307.584 
L 110.219891 307.584 
L 110.859702 307.584 
L 111.319053 307.584 
L 111.409282 307.584 
L 111.630755 307.584 
L 111.778404 307.584 
L 111.803012 307.584 
L 113.082633 307.584 
L 113.115443 307.584 
L 113.345119 307.584 
L 114.813402 307.584 
L 116.371914 307.584 
L 116.576981 307.584 
L 116.962508 307.584 
L 118.020656 307.584 
L 118.422588 307.584 
L 118.816318 307.584 
L 119.185439 307.584 
L 120.383033 307.584 
L 121.900532 307.584 
L 123.196558 307.584 
L 123.221166 307.584 
L 123.311396 307.584 
L 123.50826 307.584 
L 123.655909 307.584 
L 123.975814 307.584 
L 124.369544 307.584 
L 126.969799 307.584 
L 127.962325 307.584 
L 128.265825 307.584 
L 128.864622 307.584 
L 129.01227 307.584 
L 129.1025 307.584 
L 129.266554 307.584 
L 129.807932 307.584 
L 130.455945 307.584 
L 132.23593 307.584 
L 132.260538 307.584 
L 133.121821 307.584 
L 133.835456 307.584 
L 133.868267 307.584 
L 134.261996 307.584 
L 134.401442 307.584 
L 134.713145 307.584 
L 135.000239 307.584 
L 135.377563 307.584 
L 135.607239 307.584 
L 136.238846 307.584 
L 137.461048 307.584 
L 138.478183 307.584 
L 138.945736 307.584 
L 139.519925 307.584 
L 139.601952 307.584 
L 141.833086 307.584 
L 142.276031 307.584 
L 142.645153 307.584 
L 143.867354 307.584 
L 144.138043 307.584 
L 144.745043 307.584 
L 145.261813 307.584 
L 145.507894 307.584 
L 146.861339 307.584 
L 146.984379 307.584 
L 147.780041 307.584 
L 148.616716 307.584 
L 148.706946 307.584 
L 149.166297 307.584 
L 149.215513 307.584 
L 149.63385 307.584 
L 150.437715 307.584 
L 150.552553 307.584 
L 152.64424 307.584 
L 152.652443 307.584 
L 153.907456 307.584 
L 154.990212 307.584 
L 155.285509 307.584 
L 155.457765 307.584 
L 156.089373 307.584 
L 159.796992 307.584 
L 160.051276 307.584 
L 160.666478 307.584 
L 160.707491 307.584 
L 161.470342 307.584 
L 161.478545 307.584 
L 162.610517 307.584 
L 163.209314 307.584 
L 164.128016 307.584 
L 164.144421 307.584 
L 164.41511 307.584 
L 164.480732 307.584 
L 165.177961 307.584 
L 165.186164 307.584 
L 165.218975 307.584 
L 165.41584 307.584 
L 166.966149 307.584 
L 167.130203 307.584 
L 168.434432 307.584 
L 169.27931 307.584 
L 169.320323 307.584 
L 171.420214 307.584 
L 171.6827 307.584 
L 171.887767 307.584 
L 172.691632 307.584 
L 177.342561 307.584 
L 178.654993 307.584 
L 179.959221 307.584 
L 180.024843 307.584 
L 183.076246 307.584 
L 184.019556 307.584 
L 184.109786 307.584 
L 185.225353 307.584 
L 186.37373 307.584 
L 187.538513 307.584 
L 189.490755 307.584 
L 191.951564 307.584 
L 192.845658 307.584 
L 192.870266 307.584 
L 193.846387 307.584 
L 195.486927 307.584 
L 198.259438 307.584 
L 199.079708 307.584 
L 199.653897 307.584 
L 205.362974 307.584 
L 205.535231 307.584 
L 207.823783 307.584 
L 214.541792 307.584 
L 214.574603 307.584 
L 217.330709 307.584 
L 218.011533 307.584 
L 219.971977 307.584 
L 221.095747 307.584 
L 224.647515 307.584 
L 230.619078 307.584 
L 244.489839 307.584 
L 245.498771 307.584 
L 249.214592 307.584 
L 249.5427 307.584 
L 257.87664 307.584 
L 281.877732 307.584 
L 283.083528 307.584 
L 283.091731 307.584 
L 283.739744 307.584 
L 292.049076 307.584 
L 298.332342 307.584 
L 298.717869 307.584 
L 300.465043 307.584 
L 301.236097 307.584 
L 306.182323 307.584 
L 323.736095 307.584 
L 327.36989 307.584 
L 328.764348 307.584 
L 332.882102 307.584 
L 345.776742 307.584 
L 370.475062 307.584 
L 398.487273 307.584 
L 398.487273 307.584 
L 398.487273 307.584 
L 370.475062 307.584 
L 345.776742 307.584 
L 332.882102 307.584 
L 328.764348 307.584 
L 327.36989 307.584 
L 323.736095 306.394141 
L 306.182323 305.204282 
L 301.236097 305.204282 
L 300.465043 305.204282 
L 298.717869 305.204282 
L 298.332342 305.204282 
L 292.049076 305.204282 
L 283.739744 305.204282 
L 283.091731 304.014423 
L 283.083528 304.014423 
L 281.877732 304.014423 
L 257.87664 302.824563 
L 249.5427 301.634704 
L 249.214592 300.444845 
L 245.498771 300.444845 
L 244.489839 299.254986 
L 230.619078 298.065127 
L 224.647515 296.875268 
L 221.095747 296.875268 
L 219.971977 296.875268 
L 218.011533 296.875268 
L 217.330709 295.685408 
L 214.574603 294.495549 
L 214.541792 294.495549 
L 207.823783 293.30569 
L 205.535231 292.115831 
L 205.362974 290.925972 
L 199.653897 290.925972 
L 199.079708 289.736113 
L 198.259438 289.736113 
L 195.486927 289.736113 
L 193.846387 288.546254 
L 192.870266 287.356394 
L 192.845658 286.166535 
L 191.951564 286.166535 
L 189.490755 286.166535 
L 187.538513 284.976676 
L 186.37373 284.976676 
L 185.225353 284.976676 
L 184.109786 283.786817 
L 184.019556 282.596958 
L 183.076246 281.407099 
L 180.024843 281.407099 
L 179.959221 280.217239 
L 178.654993 279.02738 
L 177.342561 277.837521 
L 172.691632 276.647662 
L 171.887767 275.457803 
L 171.6827 274.267944 
L 171.420214 273.078085 
L 169.320323 273.078085 
L 169.27931 271.888225 
L 168.434432 270.698366 
L 167.130203 270.698366 
L 166.966149 270.698366 
L 165.41584 270.698366 
L 165.218975 269.508507 
L 165.186164 268.318648 
L 165.177961 267.128789 
L 164.480732 265.93893 
L 164.41511 265.93893 
L 164.144421 264.74907 
L 164.128016 263.559211 
L 163.209314 262.369352 
L 162.610517 261.179493 
L 161.478545 259.989634 
L 161.470342 258.799775 
L 160.707491 257.609915 
L 160.666478 256.420056 
L 160.051276 256.420056 
L 159.796992 255.230197 
L 156.089373 254.040338 
L 155.457765 254.040338 
L 155.285509 254.040338 
L 154.990212 254.040338 
L 153.907456 252.850479 
L 152.652443 251.66062 
L 152.64424 250.470761 
L 150.552553 249.280901 
L 150.437715 248.091042 
L 149.63385 246.901183 
L 149.215513 245.711324 
L 149.166297 244.521465 
L 148.706946 243.331606 
L 148.616716 242.141746 
L 147.780041 240.951887 
L 146.984379 240.951887 
L 146.861339 239.762028 
L 145.507894 238.572169 
L 145.261813 237.38231 
L 144.745043 236.192451 
L 144.138043 235.002592 
L 143.867354 233.812732 
L 142.645153 232.622873 
L 142.276031 231.433014 
L 141.833086 230.243155 
L 139.601952 229.053296 
L 139.519925 229.053296 
L 138.945736 227.863437 
L 138.478183 226.673577 
L 137.461048 225.483718 
L 136.238846 225.483718 
L 135.607239 224.293859 
L 135.377563 223.104 
L 135.000239 221.914141 
L 134.713145 220.724282 
L 134.401442 219.534423 
L 134.261996 219.534423 
L 133.868267 218.344563 
L 133.835456 217.154704 
L 133.121821 215.964845 
L 132.260538 214.774986 
L 132.23593 213.585127 
L 130.455945 212.395268 
L 129.807932 211.205408 
L 129.266554 210.015549 
L 129.1025 208.82569 
L 129.01227 207.635831 
L 128.864622 206.445972 
L 128.265825 205.256113 
L 127.962325 204.066254 
L 126.969799 202.876394 
L 124.369544 202.876394 
L 123.975814 202.876394 
L 123.655909 201.686535 
L 123.50826 200.496676 
L 123.311396 199.306817 
L 123.221166 198.116958 
L 123.196558 198.116958 
L 121.900532 196.927099 
L 120.383033 195.737239 
L 119.185439 194.54738 
L 118.816318 194.54738 
L 118.422588 193.357521 
L 118.020656 192.167662 
L 116.962508 190.977803 
L 116.576981 189.787944 
L 116.371914 188.598085 
L 114.813402 188.598085 
L 113.345119 187.408225 
L 113.115443 187.408225 
L 113.082633 186.218366 
L 111.803012 185.028507 
L 111.778404 185.028507 
L 111.630755 183.838648 
L 111.409282 183.838648 
L 111.319053 182.648789 
L 110.859702 182.648789 
L 110.219891 181.45893 
L 110.18708 180.26907 
L 109.768743 179.079211 
L 108.587555 177.889352 
L 108.161014 176.699493 
L 107.734474 175.509634 
L 107.644244 174.319775 
L 107.554015 173.129915 
L 106.84038 171.940056 
L 105.872462 170.750197 
L 105.232651 169.560338 
L 105.16703 168.370479 
L 100.138777 167.18062 
L 99.712236 165.990761 
L 99.646615 164.800901 
L 99.088831 163.611042 
L 98.727913 162.421183 
L 98.465426 161.231324 
L 98.342386 160.041465 
L 97.407279 158.851606 
L 96.980738 157.661746 
L 96.74286 156.471887 
L 96.504982 155.282028 
L 96.291712 154.092169 
L 96.267104 152.90231 
L 95.692915 151.712451 
L 95.471442 151.712451 
L 95.37301 150.522592 
L 95.077713 150.522592 
L 94.749605 149.332732 
L 94.716794 148.142873 
L 94.519929 146.953014 
L 94.101592 145.763155 
L 93.593024 144.573296 
L 93.363349 143.383437 
L 92.502066 142.193577 
L 92.469255 141.003718 
L 92.198566 139.813859 
L 91.878661 138.624 
L 91.443918 137.434141 
L 91.197837 137.434141 
L 90.434986 136.244282 
L 89.901811 135.054423 
L 89.097946 133.864563 
L 88.228461 132.674704 
L 88.138231 131.484845 
L 86.760178 130.294986 
L 86.464881 129.105127 
L 86.087557 127.915268 
L 85.587192 126.725408 
L 83.077167 125.535549 
L 82.092843 125.535549 
L 81.945195 124.34569 
L 80.575344 123.155831 
L 79.533602 121.965972 
L 78.778954 120.776113 
L 77.950481 119.586254 
L 74.136227 119.586254 
L 73.832727 118.396394 
z
" clip-path="url(#p2401a95724)" style="fill: #008000"/>
   </g>
   <g id="PolyCollection_2">
    <path d="M 73.832727 58.903437 
L 73.832727 118.396394 
L 74.136227 119.586254 
L 77.950481 119.586254 
L 78.778954 120.776113 
L 79.533602 121.965972 
L 80.575344 123.155831 
L 81.945195 124.34569 
L 82.092843 125.535549 
L 83.077167 125.535549 
L 85.587192 126.725408 
L 86.087557 127.915268 
L 86.464881 129.105127 
L 86.760178 130.294986 
L 88.138231 131.484845 
L 88.228461 132.674704 
L 89.097946 133.864563 
L 89.901811 135.054423 
L 90.434986 136.244282 
L 91.197837 137.434141 
L 91.443918 137.434141 
L 91.878661 138.624 
L 92.198566 139.813859 
L 92.469255 141.003718 
L 92.502066 142.193577 
L 93.363349 143.383437 
L 93.593024 144.573296 
L 94.101592 145.763155 
L 94.519929 146.953014 
L 94.716794 148.142873 
L 94.749605 149.332732 
L 95.077713 150.522592 
L 95.37301 150.522592 
L 95.471442 151.712451 
L 95.692915 151.712451 
L 96.267104 152.90231 
L 96.291712 154.092169 
L 96.504982 155.282028 
L 96.74286 156.471887 
L 96.980738 157.661746 
L 97.407279 158.851606 
L 98.342386 160.041465 
L 98.465426 161.231324 
L 98.727913 162.421183 
L 99.088831 163.611042 
L 99.646615 164.800901 
L 99.712236 165.990761 
L 100.138777 167.18062 
L 105.16703 168.370479 
L 105.232651 169.560338 
L 105.872462 170.750197 
L 106.84038 171.940056 
L 107.554015 173.129915 
L 107.644244 174.319775 
L 107.734474 175.509634 
L 108.161014 176.699493 
L 108.587555 177.889352 
L 109.768743 179.079211 
L 110.18708 180.26907 
L 110.219891 181.45893 
L 110.859702 182.648789 
L 111.319053 182.648789 
L 111.409282 183.838648 
L 111.630755 183.838648 
L 111.778404 185.028507 
L 111.803012 185.028507 
L 113.082633 186.218366 
L 113.115443 187.408225 
L 113.345119 187.408225 
L 114.813402 188.598085 
L 116.371914 188.598085 
L 116.576981 189.787944 
L 116.962508 190.977803 
L 118.020656 192.167662 
L 118.422588 193.357521 
L 118.816318 194.54738 
L 119.185439 194.54738 
L 120.383033 195.737239 
L 121.900532 196.927099 
L 123.196558 198.116958 
L 123.221166 198.116958 
L 123.311396 199.306817 
L 123.50826 200.496676 
L 123.655909 201.686535 
L 123.975814 202.876394 
L 124.369544 202.876394 
L 126.969799 202.876394 
L 127.962325 204.066254 
L 128.265825 205.256113 
L 128.864622 206.445972 
L 129.01227 207.635831 
L 129.1025 208.82569 
L 129.266554 210.015549 
L 129.807932 211.205408 
L 130.455945 212.395268 
L 132.23593 213.585127 
L 132.260538 214.774986 
L 133.121821 215.964845 
L 133.835456 217.154704 
L 133.868267 218.344563 
L 134.261996 219.534423 
L 134.401442 219.534423 
L 134.713145 220.724282 
L 135.000239 221.914141 
L 135.377563 223.104 
L 135.607239 224.293859 
L 136.238846 225.483718 
L 137.461048 225.483718 
L 138.478183 226.673577 
L 138.945736 227.863437 
L 139.519925 229.053296 
L 139.601952 229.053296 
L 141.833086 230.243155 
L 142.276031 231.433014 
L 142.645153 232.622873 
L 143.867354 233.812732 
L 144.138043 235.002592 
L 144.745043 236.192451 
L 145.261813 237.38231 
L 145.507894 238.572169 
L 146.861339 239.762028 
L 146.984379 240.951887 
L 147.780041 240.951887 
L 148.616716 242.141746 
L 148.706946 243.331606 
L 149.166297 244.521465 
L 149.215513 245.711324 
L 149.63385 246.901183 
L 150.437715 248.091042 
L 150.552553 249.280901 
L 152.64424 250.470761 
L 152.652443 251.66062 
L 153.907456 252.850479 
L 154.990212 254.040338 
L 155.285509 254.040338 
L 155.457765 254.040338 
L 156.089373 254.040338 
L 159.796992 255.230197 
L 160.051276 256.420056 
L 160.666478 256.420056 
L 160.707491 257.609915 
L 161.470342 258.799775 
L 161.478545 259.989634 
L 162.610517 261.179493 
L 163.209314 262.369352 
L 164.128016 263.559211 
L 164.144421 264.74907 
L 164.41511 265.93893 
L 164.480732 265.93893 
L 165.177961 267.128789 
L 165.186164 268.318648 
L 165.218975 269.508507 
L 165.41584 270.698366 
L 166.966149 270.698366 
L 167.130203 270.698366 
L 168.434432 270.698366 
L 169.27931 271.888225 
L 169.320323 273.078085 
L 171.420214 273.078085 
L 171.6827 274.267944 
L 171.887767 275.457803 
L 172.691632 276.647662 
L 177.342561 277.837521 
L 178.654993 279.02738 
L 179.959221 280.217239 
L 180.024843 281.407099 
L 183.076246 281.407099 
L 184.019556 282.596958 
L 184.109786 283.786817 
L 185.225353 284.976676 
L 186.37373 284.976676 
L 187.538513 284.976676 
L 189.490755 286.166535 
L 191.951564 286.166535 
L 192.845658 286.166535 
L 192.870266 287.356394 
L 193.846387 288.546254 
L 195.486927 289.736113 
L 198.259438 289.736113 
L 199.079708 289.736113 
L 199.653897 290.925972 
L 205.362974 290.925972 
L 205.535231 292.115831 
L 207.823783 293.30569 
L 214.541792 294.495549 
L 214.574603 294.495549 
L 217.330709 295.685408 
L 218.011533 296.875268 
L 219.971977 296.875268 
L 221.095747 296.875268 
L 224.647515 296.875268 
L 230.619078 298.065127 
L 244.489839 299.254986 
L 245.498771 300.444845 
L 249.214592 300.444845 
L 249.5427 301.634704 
L 257.87664 302.824563 
L 281.877732 304.014423 
L 283.083528 304.014423 
L 283.091731 304.014423 
L 283.739744 305.204282 
L 292.049076 305.204282 
L 298.332342 305.204282 
L 298.717869 305.204282 
L 300.465043 305.204282 
L 301.236097 305.204282 
L 306.182323 305.204282 
L 323.736095 306.394141 
L 327.36989 307.584 
L 328.764348 307.584 
L 332.882102 307.584 
L 345.776742 307.584 
L 370.475062 307.584 
L 398.487273 307.584 
L 398.487273 306.394141 
L 398.487273 306.394141 
L 370.475062 305.204282 
L 345.776742 304.014423 
L 332.882102 302.824563 
L 328.764348 301.634704 
L 327.36989 300.444845 
L 323.736095 299.254986 
L 306.182323 298.065127 
L 301.236097 296.875268 
L 300.465043 295.685408 
L 298.717869 294.495549 
L 298.332342 293.30569 
L 292.049076 292.115831 
L 283.739744 290.925972 
L 283.091731 289.736113 
L 283.083528 288.546254 
L 281.877732 287.356394 
L 257.87664 286.166535 
L 249.5427 284.976676 
L 249.214592 283.786817 
L 245.498771 282.596958 
L 244.489839 281.407099 
L 230.619078 280.217239 
L 224.647515 279.02738 
L 221.095747 277.837521 
L 219.971977 276.647662 
L 218.011533 275.457803 
L 217.330709 274.267944 
L 214.574603 273.078085 
L 214.541792 271.888225 
L 207.823783 270.698366 
L 205.535231 269.508507 
L 205.362974 268.318648 
L 199.653897 267.128789 
L 199.079708 265.93893 
L 198.259438 264.74907 
L 195.486927 263.559211 
L 193.846387 262.369352 
L 192.870266 261.179493 
L 192.845658 259.989634 
L 191.951564 258.799775 
L 189.490755 257.609915 
L 187.538513 256.420056 
L 186.37373 255.230197 
L 185.225353 254.040338 
L 184.109786 252.850479 
L 184.019556 251.66062 
L 183.076246 250.470761 
L 180.024843 249.280901 
L 179.959221 248.091042 
L 178.654993 246.901183 
L 177.342561 245.711324 
L 172.691632 244.521465 
L 171.887767 243.331606 
L 171.6827 242.141746 
L 171.420214 240.951887 
L 169.320323 239.762028 
L 169.27931 238.572169 
L 168.434432 237.38231 
L 167.130203 236.192451 
L 166.966149 235.002592 
L 165.41584 233.812732 
L 165.218975 232.622873 
L 165.186164 231.433014 
L 165.177961 230.243155 
L 164.480732 229.053296 
L 164.41511 227.863437 
L 164.144421 226.673577 
L 164.128016 225.483718 
L 163.209314 224.293859 
L 162.610517 223.104 
L 161.478545 221.914141 
L 161.470342 220.724282 
L 160.707491 219.534423 
L 160.666478 218.344563 
L 160.051276 217.154704 
L 159.796992 215.964845 
L 156.089373 214.774986 
L 155.457765 213.585127 
L 155.285509 212.395268 
L 154.990212 211.205408 
L 153.907456 210.015549 
L 152.652443 208.82569 
L 152.64424 207.635831 
L 150.552553 206.445972 
L 150.437715 205.256113 
L 149.63385 204.066254 
L 149.215513 202.876394 
L 149.166297 201.686535 
L 148.706946 200.496676 
L 148.616716 199.306817 
L 147.780041 198.116958 
L 146.984379 196.927099 
L 146.861339 195.737239 
L 145.507894 194.54738 
L 145.261813 193.357521 
L 144.745043 192.167662 
L 144.138043 190.977803 
L 143.867354 189.787944 
L 142.645153 188.598085 
L 142.276031 187.408225 
L 141.833086 186.218366 
L 139.601952 185.028507 
L 139.519925 183.838648 
L 138.945736 182.648789 
L 138.478183 181.45893 
L 137.461048 180.26907 
L 136.238846 180.26907 
L 135.607239 179.079211 
L 135.377563 177.889352 
L 135.000239 176.699493 
L 134.713145 175.509634 
L 134.401442 174.319775 
L 134.261996 173.129915 
L 133.868267 171.940056 
L 133.835456 170.750197 
L 133.121821 169.560338 
L 132.260538 168.370479 
L 132.23593 167.18062 
L 130.455945 165.990761 
L 129.807932 164.800901 
L 129.266554 163.611042 
L 129.1025 162.421183 
L 129.01227 161.231324 
L 128.864622 160.041465 
L 128.265825 158.851606 
L 127.962325 157.661746 
L 126.969799 156.471887 
L 124.369544 155.282028 
L 123.975814 154.092169 
L 123.655909 152.90231 
L 123.50826 151.712451 
L 123.311396 150.522592 
L 123.221166 149.332732 
L 123.196558 148.142873 
L 121.900532 146.953014 
L 120.383033 145.763155 
L 119.185439 144.573296 
L 118.816318 143.383437 
L 118.422588 142.193577 
L 118.020656 141.003718 
L 116.962508 139.813859 
L 116.576981 138.624 
L 116.371914 137.434141 
L 114.813402 136.244282 
L 113.345119 135.054423 
L 113.115443 133.864563 
L 113.082633 132.674704 
L 111.803012 131.484845 
L 111.778404 130.294986 
L 111.630755 129.105127 
L 111.409282 127.915268 
L 111.319053 126.725408 
L 110.859702 125.535549 
L 110.219891 124.34569 
L 110.18708 123.155831 
L 109.768743 121.965972 
L 108.587555 120.776113 
L 108.161014 119.586254 
L 107.734474 118.396394 
L 107.644244 117.206535 
L 107.554015 116.016676 
L 106.84038 114.826817 
L 105.872462 113.636958 
L 105.232651 112.447099 
L 105.16703 111.257239 
L 100.138777 110.06738 
L 99.712236 108.877521 
L 99.646615 107.687662 
L 99.088831 106.497803 
L 98.727913 105.307944 
L 98.465426 104.118085 
L 98.342386 102.928225 
L 97.407279 101.738366 
L 96.980738 100.548507 
L 96.74286 99.358648 
L 96.504982 98.168789 
L 96.291712 96.97893 
L 96.267104 95.78907 
L 95.692915 94.599211 
L 95.471442 93.409352 
L 95.37301 92.219493 
L 95.077713 91.029634 
L 94.749605 89.839775 
L 94.716794 88.649915 
L 94.519929 87.460056 
L 94.101592 86.270197 
L 93.593024 85.080338 
L 93.363349 83.890479 
L 92.502066 82.70062 
L 92.469255 81.510761 
L 92.198566 80.320901 
L 91.878661 79.131042 
L 91.443918 77.941183 
L 91.197837 77.941183 
L 90.434986 76.751324 
L 89.901811 75.561465 
L 89.097946 74.371606 
L 88.228461 73.181746 
L 88.138231 71.991887 
L 86.760178 70.802028 
L 86.464881 69.612169 
L 86.087557 68.42231 
L 85.587192 67.232451 
L 83.077167 66.042592 
L 82.092843 66.042592 
L 81.945195 64.852732 
L 80.575344 63.662873 
L 79.533602 62.473014 
L 78.778954 61.283155 
L 77.950481 60.093296 
L 74.136227 60.093296 
L 73.832727 58.903437 
z
" clip-path="url(#p2401a95724)" style="fill: #7cfc00"/>
   </g>
   <g id="PolyCollection_3">
    <path d="M 73.832727 54.144 
L 73.832727 58.903437 
L 74.136227 60.093296 
L 77.950481 60.093296 
L 78.778954 61.283155 
L 79.533602 62.473014 
L 80.575344 63.662873 
L 81.945195 64.852732 
L 82.092843 66.042592 
L 83.077167 66.042592 
L 85.587192 67.232451 
L 86.087557 68.42231 
L 86.464881 69.612169 
L 86.760178 70.802028 
L 88.138231 71.991887 
L 88.228461 73.181746 
L 89.097946 74.371606 
L 89.901811 75.561465 
L 90.434986 76.751324 
L 91.197837 77.941183 
L 91.443918 77.941183 
L 91.878661 79.131042 
L 92.198566 80.320901 
L 92.469255 81.510761 
L 92.502066 82.70062 
L 93.363349 83.890479 
L 93.593024 85.080338 
L 94.101592 86.270197 
L 94.519929 87.460056 
L 94.716794 88.649915 
L 94.749605 89.839775 
L 95.077713 91.029634 
L 95.37301 92.219493 
L 95.471442 93.409352 
L 95.692915 94.599211 
L 96.267104 95.78907 
L 96.291712 96.97893 
L 96.504982 98.168789 
L 96.74286 99.358648 
L 96.980738 100.548507 
L 97.407279 101.738366 
L 98.342386 102.928225 
L 98.465426 104.118085 
L 98.727913 105.307944 
L 99.088831 106.497803 
L 99.646615 107.687662 
L 99.712236 108.877521 
L 100.138777 110.06738 
L 105.16703 111.257239 
L 105.232651 112.447099 
L 105.872462 113.636958 
L 106.84038 114.826817 
L 107.554015 116.016676 
L 107.644244 117.206535 
L 107.734474 118.396394 
L 108.161014 119.586254 
L 108.587555 120.776113 
L 109.768743 121.965972 
L 110.18708 123.155831 
L 110.219891 124.34569 
L 110.859702 125.535549 
L 111.319053 126.725408 
L 111.409282 127.915268 
L 111.630755 129.105127 
L 111.778404 130.294986 
L 111.803012 131.484845 
L 113.082633 132.674704 
L 113.115443 133.864563 
L 113.345119 135.054423 
L 114.813402 136.244282 
L 116.371914 137.434141 
L 116.576981 138.624 
L 116.962508 139.813859 
L 118.020656 141.003718 
L 118.422588 142.193577 
L 118.816318 143.383437 
L 119.185439 144.573296 
L 120.383033 145.763155 
L 121.900532 146.953014 
L 123.196558 148.142873 
L 123.221166 149.332732 
L 123.311396 150.522592 
L 123.50826 151.712451 
L 123.655909 152.90231 
L 123.975814 154.092169 
L 124.369544 155.282028 
L 126.969799 156.471887 
L 127.962325 157.661746 
L 128.265825 158.851606 
L 128.864622 160.041465 
L 129.01227 161.231324 
L 129.1025 162.421183 
L 129.266554 163.611042 
L 129.807932 164.800901 
L 130.455945 165.990761 
L 132.23593 167.18062 
L 132.260538 168.370479 
L 133.121821 169.560338 
L 133.835456 170.750197 
L 133.868267 171.940056 
L 134.261996 173.129915 
L 134.401442 174.319775 
L 134.713145 175.509634 
L 135.000239 176.699493 
L 135.377563 177.889352 
L 135.607239 179.079211 
L 136.238846 180.26907 
L 137.461048 180.26907 
L 138.478183 181.45893 
L 138.945736 182.648789 
L 139.519925 183.838648 
L 139.601952 185.028507 
L 141.833086 186.218366 
L 142.276031 187.408225 
L 142.645153 188.598085 
L 143.867354 189.787944 
L 144.138043 190.977803 
L 144.745043 192.167662 
L 145.261813 193.357521 
L 145.507894 194.54738 
L 146.861339 195.737239 
L 146.984379 196.927099 
L 147.780041 198.116958 
L 148.616716 199.306817 
L 148.706946 200.496676 
L 149.166297 201.686535 
L 149.215513 202.876394 
L 149.63385 204.066254 
L 150.437715 205.256113 
L 150.552553 206.445972 
L 152.64424 207.635831 
L 152.652443 208.82569 
L 153.907456 210.015549 
L 154.990212 211.205408 
L 155.285509 212.395268 
L 155.457765 213.585127 
L 156.089373 214.774986 
L 159.796992 215.964845 
L 160.051276 217.154704 
L 160.666478 218.344563 
L 160.707491 219.534423 
L 161.470342 220.724282 
L 161.478545 221.914141 
L 162.610517 223.104 
L 163.209314 224.293859 
L 164.128016 225.483718 
L 164.144421 226.673577 
L 164.41511 227.863437 
L 164.480732 229.053296 
L 165.177961 230.243155 
L 165.186164 231.433014 
L 165.218975 232.622873 
L 165.41584 233.812732 
L 166.966149 235.002592 
L 167.130203 236.192451 
L 168.434432 237.38231 
L 169.27931 238.572169 
L 169.320323 239.762028 
L 171.420214 240.951887 
L 171.6827 242.141746 
L 171.887767 243.331606 
L 172.691632 244.521465 
L 177.342561 245.711324 
L 178.654993 246.901183 
L 179.959221 248.091042 
L 180.024843 249.280901 
L 183.076246 250.470761 
L 184.019556 251.66062 
L 184.109786 252.850479 
L 185.225353 254.040338 
L 186.37373 255.230197 
L 187.538513 256.420056 
L 189.490755 257.609915 
L 191.951564 258.799775 
L 192.845658 259.989634 
L 192.870266 261.179493 
L 193.846387 262.369352 
L 195.486927 263.559211 
L 198.259438 264.74907 
L 199.079708 265.93893 
L 199.653897 267.128789 
L 205.362974 268.318648 
L 205.535231 269.508507 
L 207.823783 270.698366 
L 214.541792 271.888225 
L 214.574603 273.078085 
L 217.330709 274.267944 
L 218.011533 275.457803 
L 219.971977 276.647662 
L 221.095747 277.837521 
L 224.647515 279.02738 
L 230.619078 280.217239 
L 244.489839 281.407099 
L 245.498771 282.596958 
L 249.214592 283.786817 
L 249.5427 284.976676 
L 257.87664 286.166535 
L 281.877732 287.356394 
L 283.083528 288.546254 
L 283.091731 289.736113 
L 283.739744 290.925972 
L 292.049076 292.115831 
L 298.332342 293.30569 
L 298.717869 294.495549 
L 300.465043 295.685408 
L 301.236097 296.875268 
L 306.182323 298.065127 
L 323.736095 299.254986 
L 327.36989 300.444845 
L 328.764348 301.634704 
L 332.882102 302.824563 
L 345.776742 304.014423 
L 370.475062 305.204282 
L 398.487273 306.394141 
L 398.487273 306.394141 
L 398.487273 306.394141 
L 370.475062 305.204282 
L 345.776742 304.014423 
L 332.882102 302.824563 
L 328.764348 301.634704 
L 327.36989 300.444845 
L 323.736095 299.254986 
L 306.182323 298.065127 
L 301.236097 296.875268 
L 300.465043 295.685408 
L 298.717869 294.495549 
L 298.332342 293.30569 
L 292.049076 292.115831 
L 283.739744 290.925972 
L 283.091731 289.736113 
L 283.083528 288.546254 
L 281.877732 287.356394 
L 257.87664 286.166535 
L 249.5427 284.976676 
L 249.214592 283.786817 
L 245.498771 282.596958 
L 244.489839 281.407099 
L 230.619078 280.217239 
L 224.647515 279.02738 
L 221.095747 277.837521 
L 219.971977 276.647662 
L 218.011533 275.457803 
L 217.330709 274.267944 
L 214.574603 273.078085 
L 214.541792 271.888225 
L 207.823783 270.698366 
L 205.535231 269.508507 
L 205.362974 268.318648 
L 199.653897 267.128789 
L 199.079708 265.93893 
L 198.259438 264.74907 
L 195.486927 263.559211 
L 193.846387 262.369352 
L 192.870266 261.179493 
L 192.845658 259.989634 
L 191.951564 258.799775 
L 189.490755 257.609915 
L 187.538513 256.420056 
L 186.37373 255.230197 
L 185.225353 254.040338 
L 184.109786 252.850479 
L 184.019556 251.66062 
L 183.076246 250.470761 
L 180.024843 249.280901 
L 179.959221 248.091042 
L 178.654993 246.901183 
L 177.342561 245.711324 
L 172.691632 244.521465 
L 171.887767 243.331606 
L 171.6827 242.141746 
L 171.420214 240.951887 
L 169.320323 239.762028 
L 169.27931 238.572169 
L 168.434432 237.38231 
L 167.130203 236.192451 
L 166.966149 235.002592 
L 165.41584 233.812732 
L 165.218975 232.622873 
L 165.186164 231.433014 
L 165.177961 230.243155 
L 164.480732 229.053296 
L 164.41511 227.863437 
L 164.144421 226.673577 
L 164.128016 225.483718 
L 163.209314 224.293859 
L 162.610517 223.104 
L 161.478545 221.914141 
L 161.470342 220.724282 
L 160.707491 219.534423 
L 160.666478 218.344563 
L 160.051276 217.154704 
L 159.796992 215.964845 
L 156.089373 214.774986 
L 155.457765 213.585127 
L 155.285509 212.395268 
L 154.990212 211.205408 
L 153.907456 210.015549 
L 152.652443 208.82569 
L 152.64424 207.635831 
L 150.552553 206.445972 
L 150.437715 205.256113 
L 149.63385 204.066254 
L 149.215513 202.876394 
L 149.166297 201.686535 
L 148.706946 200.496676 
L 148.616716 199.306817 
L 147.780041 198.116958 
L 146.984379 196.927099 
L 146.861339 195.737239 
L 145.507894 194.54738 
L 145.261813 193.357521 
L 144.745043 192.167662 
L 144.138043 190.977803 
L 143.867354 189.787944 
L 142.645153 188.598085 
L 142.276031 187.408225 
L 141.833086 186.218366 
L 139.601952 185.028507 
L 139.519925 183.838648 
L 138.945736 182.648789 
L 138.478183 181.45893 
L 137.461048 180.26907 
L 136.238846 179.079211 
L 135.607239 177.889352 
L 135.377563 176.699493 
L 135.000239 175.509634 
L 134.713145 174.319775 
L 134.401442 173.129915 
L 134.261996 171.940056 
L 133.868267 170.750197 
L 133.835456 169.560338 
L 133.121821 168.370479 
L 132.260538 167.18062 
L 132.23593 165.990761 
L 130.455945 164.800901 
L 129.807932 163.611042 
L 129.266554 162.421183 
L 129.1025 161.231324 
L 129.01227 160.041465 
L 128.864622 158.851606 
L 128.265825 157.661746 
L 127.962325 156.471887 
L 126.969799 155.282028 
L 124.369544 154.092169 
L 123.975814 152.90231 
L 123.655909 151.712451 
L 123.50826 150.522592 
L 123.311396 149.332732 
L 123.221166 148.142873 
L 123.196558 146.953014 
L 121.900532 145.763155 
L 120.383033 144.573296 
L 119.185439 143.383437 
L 118.816318 142.193577 
L 118.422588 141.003718 
L 118.020656 139.813859 
L 116.962508 138.624 
L 116.576981 137.434141 
L 116.371914 136.244282 
L 114.813402 135.054423 
L 113.345119 133.864563 
L 113.115443 132.674704 
L 113.082633 131.484845 
L 111.803012 130.294986 
L 111.778404 129.105127 
L 111.630755 127.915268 
L 111.409282 126.725408 
L 111.319053 125.535549 
L 110.859702 124.34569 
L 110.219891 123.155831 
L 110.18708 121.965972 
L 109.768743 120.776113 
L 108.587555 119.586254 
L 108.161014 118.396394 
L 107.734474 117.206535 
L 107.644244 116.016676 
L 107.554015 114.826817 
L 106.84038 113.636958 
L 105.872462 112.447099 
L 105.232651 111.257239 
L 105.16703 110.06738 
L 100.138777 108.877521 
L 99.712236 107.687662 
L 99.646615 106.497803 
L 99.088831 105.307944 
L 98.727913 104.118085 
L 98.465426 102.928225 
L 98.342386 101.738366 
L 97.407279 100.548507 
L 96.980738 99.358648 
L 96.74286 98.168789 
L 96.504982 96.97893 
L 96.291712 95.78907 
L 96.267104 94.599211 
L 95.692915 93.409352 
L 95.471442 92.219493 
L 95.37301 91.029634 
L 95.077713 89.839775 
L 94.749605 88.649915 
L 94.716794 87.460056 
L 94.519929 86.270197 
L 94.101592 85.080338 
L 93.593024 83.890479 
L 93.363349 82.70062 
L 92.502066 81.510761 
L 92.469255 80.320901 
L 92.198566 79.131042 
L 91.878661 77.941183 
L 91.443918 76.751324 
L 91.197837 75.561465 
L 90.434986 74.371606 
L 89.901811 73.181746 
L 89.097946 71.991887 
L 88.228461 70.802028 
L 88.138231 69.612169 
L 86.760178 68.42231 
L 86.464881 67.232451 
L 86.087557 66.042592 
L 85.587192 64.852732 
L 83.077167 63.662873 
L 82.092843 62.473014 
L 81.945195 61.283155 
L 80.575344 60.093296 
L 79.533602 58.903437 
L 78.778954 57.713577 
L 77.950481 56.523718 
L 74.136227 55.333859 
L 73.832727 54.144 
z
" clip-path="url(#p2401a95724)" style="fill: #ff0000"/>
   </g>
   <g id="matplotlib.axis_1">
    <g id="xtick_1">
     <g id="line2d_1">
      <defs>
       <path id="m06a3181883" d="M 0 0 
L 0 3.5 
" style="stroke: #000000; stroke-width: 0.8"/>
      </defs>
      <g>
       <use xlink:href="#m06a3181883" x="61.241587" y="307.584" style="stroke: #000000; stroke-width: 0.8"/>
      </g>
     </g>
     <g id="text_1">
      <!-- 50 -->
      <g transform="translate(54.879087 322.182437) scale(0.1 -0.1)">
       <defs>
        <path id="DejaVuSans-35" d="M 691 4666 
L 3169 4666 
L 3169 4134 
L 1269 4134 
L 1269 2991 
Q 1406 3038 1543 3061 
Q 1681 3084 1819 3084 
Q 2600 3084 3056 2656 
Q 3513 2228 3513 1497 
Q 3513 744 3044 326 
Q 2575 -91 1722 -91 
Q 1428 -91 1123 -41 
Q 819 9 494 109 
L 494 744 
Q 775 591 1075 516 
Q 1375 441 1709 441 
Q 2250 441 2565 725 
Q 2881 1009 2881 1497 
Q 2881 1984 2565 2268 
Q 2250 2553 1709 2553 
Q 1456 2553 1204 2497 
Q 953 2441 691 2322 
L 691 4666 
z
" transform="scale(0.015625)"/>
        <path id="DejaVuSans-30" d="M 2034 4250 
Q 1547 4250 1301 3770 
Q 1056 3291 1056 2328 
Q 1056 1369 1301 889 
Q 1547 409 2034 409 
Q 2525 409 2770 889 
Q 3016 1369 3016 2328 
Q 3016 3291 2770 3770 
Q 2525 4250 2034 4250 
z
M 2034 4750 
Q 2819 4750 3233 4129 
Q 3647 3509 3647 2328 
Q 3647 1150 3233 529 
Q 2819 -91 2034 -91 
Q 1250 -91 836 529 
Q 422 1150 422 2328 
Q 422 3509 836 4129 
Q 1250 4750 2034 4750 
z
" transform="scale(0.015625)"/>
       </defs>
       <use xlink:href="#DejaVuSans-35"/>
       <use xlink:href="#DejaVuSans-30" x="63.623047"/>
      </g>
     </g>
    </g>
    <g id="xtick_2">
     <g id="line2d_2">
      <g>
       <use xlink:href="#m06a3181883" x="102.255072" y="307.584" style="stroke: #000000; stroke-width: 0.8"/>
      </g>
     </g>
     <g id="text_2">
      <!-- 100 -->
      <g transform="translate(92.711322 322.182437) scale(0.1 -0.1)">
       <defs>
        <path id="DejaVuSans-31" d="M 794 531 
L 1825 531 
L 1825 4091 
L 703 3866 
L 703 4441 
L 1819 4666 
L 2450 4666 
L 2450 531 
L 3481 531 
L 3481 0 
L 794 0 
L 794 531 
z
" transform="scale(0.015625)"/>
       </defs>
       <use xlink:href="#DejaVuSans-31"/>
       <use xlink:href="#DejaVuSans-30" x="63.623047"/>
       <use xlink:href="#DejaVuSans-30" x="127.246094"/>
      </g>
     </g>
    </g>
    <g id="xtick_3">
     <g id="line2d_3">
      <g>
       <use xlink:href="#m06a3181883" x="143.268558" y="307.584" style="stroke: #000000; stroke-width: 0.8"/>
      </g>
     </g>
     <g id="text_3">
      <!-- 150 -->
      <g transform="translate(133.724808 322.182437) scale(0.1 -0.1)">
       <use xlink:href="#DejaVuSans-31"/>
       <use xlink:href="#DejaVuSans-35" x="63.623047"/>
       <use xlink:href="#DejaVuSans-30" x="127.246094"/>
      </g>
     </g>
    </g>
    <g id="xtick_4">
     <g id="line2d_4">
      <g>
       <use xlink:href="#m06a3181883" x="184.282043" y="307.584" style="stroke: #000000; stroke-width: 0.8"/>
      </g>
     </g>
     <g id="text_4">
      <!-- 200 -->
      <g transform="translate(174.738293 322.182437) scale(0.1 -0.1)">
       <defs>
        <path id="DejaVuSans-32" d="M 1228 531 
L 3431 531 
L 3431 0 
L 469 0 
L 469 531 
Q 828 903 1448 1529 
Q 2069 2156 2228 2338 
Q 2531 2678 2651 2914 
Q 2772 3150 2772 3378 
Q 2772 3750 2511 3984 
Q 2250 4219 1831 4219 
Q 1534 4219 1204 4116 
Q 875 4013 500 3803 
L 500 4441 
Q 881 4594 1212 4672 
Q 1544 4750 1819 4750 
Q 2544 4750 2975 4387 
Q 3406 4025 3406 3419 
Q 3406 3131 3298 2873 
Q 3191 2616 2906 2266 
Q 2828 2175 2409 1742 
Q 1991 1309 1228 531 
z
" transform="scale(0.015625)"/>
       </defs>
       <use xlink:href="#DejaVuSans-32"/>
       <use xlink:href="#DejaVuSans-30" x="63.623047"/>
       <use xlink:href="#DejaVuSans-30" x="127.246094"/>
      </g>
     </g>
    </g>
    <g id="xtick_5">
     <g id="line2d_5">
      <g>
       <use xlink:href="#m06a3181883" x="225.295528" y="307.584" style="stroke: #000000; stroke-width: 0.8"/>
      </g>
     </g>
     <g id="text_5">
      <!-- 250 -->
      <g transform="translate(215.751778 322.182437) scale(0.1 -0.1)">
       <use xlink:href="#DejaVuSans-32"/>
       <use xlink:href="#DejaVuSans-35" x="63.623047"/>
       <use xlink:href="#DejaVuSans-30" x="127.246094"/>
      </g>
     </g>
    </g>
    <g id="xtick_6">
     <g id="line2d_6">
      <g>
       <use xlink:href="#m06a3181883" x="266.309013" y="307.584" style="stroke: #000000; stroke-width: 0.8"/>
      </g>
     </g>
     <g id="text_6">
      <!-- 300 -->
      <g transform="translate(256.765263 322.182437) scale(0.1 -0.1)">
       <defs>
        <path id="DejaVuSans-33" d="M 2597 2516 
Q 3050 2419 3304 2112 
Q 3559 1806 3559 1356 
Q 3559 666 3084 287 
Q 2609 -91 1734 -91 
Q 1441 -91 1130 -33 
Q 819 25 488 141 
L 488 750 
Q 750 597 1062 519 
Q 1375 441 1716 441 
Q 2309 441 2620 675 
Q 2931 909 2931 1356 
Q 2931 1769 2642 2001 
Q 2353 2234 1838 2234 
L 1294 2234 
L 1294 2753 
L 1863 2753 
Q 2328 2753 2575 2939 
Q 2822 3125 2822 3475 
Q 2822 3834 2567 4026 
Q 2313 4219 1838 4219 
Q 1578 4219 1281 4162 
Q 984 4106 628 3988 
L 628 4550 
Q 988 4650 1302 4700 
Q 1616 4750 1894 4750 
Q 2613 4750 3031 4423 
Q 3450 4097 3450 3541 
Q 3450 3153 3228 2886 
Q 3006 2619 2597 2516 
z
" transform="scale(0.015625)"/>
       </defs>
       <use xlink:href="#DejaVuSans-33"/>
       <use xlink:href="#DejaVuSans-30" x="63.623047"/>
       <use xlink:href="#DejaVuSans-30" x="127.246094"/>
      </g>
     </g>
    </g>
    <g id="xtick_7">
     <g id="line2d_7">
      <g>
       <use xlink:href="#m06a3181883" x="307.322498" y="307.584" style="stroke: #000000; stroke-width: 0.8"/>
      </g>
     </g>
     <g id="text_7">
      <!-- 350 -->
      <g transform="translate(297.778748 322.182437) scale(0.1 -0.1)">
       <use xlink:href="#DejaVuSans-33"/>
       <use xlink:href="#DejaVuSans-35" x="63.623047"/>
       <use xlink:href="#DejaVuSans-30" x="127.246094"/>
      </g>
     </g>
    </g>
    <g id="xtick_8">
     <g id="line2d_8">
      <g>
       <use xlink:href="#m06a3181883" x="348.335983" y="307.584" style="stroke: #000000; stroke-width: 0.8"/>
      </g>
     </g>
     <g id="text_8">
      <!-- 400 -->
      <g transform="translate(338.792233 322.182437) scale(0.1 -0.1)">
       <defs>
        <path id="DejaVuSans-34" d="M 2419 4116 
L 825 1625 
L 2419 1625 
L 2419 4116 
z
M 2253 4666 
L 3047 4666 
L 3047 1625 
L 3713 1625 
L 3713 1100 
L 3047 1100 
L 3047 0 
L 2419 0 
L 2419 1100 
L 313 1100 
L 313 1709 
L 2253 4666 
z
" transform="scale(0.015625)"/>
       </defs>
       <use xlink:href="#DejaVuSans-34"/>
       <use xlink:href="#DejaVuSans-30" x="63.623047"/>
       <use xlink:href="#DejaVuSans-30" x="127.246094"/>
      </g>
     </g>
    </g>
    <g id="xtick_9">
     <g id="line2d_9">
      <g>
       <use xlink:href="#m06a3181883" x="389.349468" y="307.584" style="stroke: #000000; stroke-width: 0.8"/>
      </g>
     </g>
     <g id="text_9">
      <!-- 450 -->
      <g transform="translate(379.805718 322.182437) scale(0.1 -0.1)">
       <use xlink:href="#DejaVuSans-34"/>
       <use xlink:href="#DejaVuSans-35" x="63.623047"/>
       <use xlink:href="#DejaVuSans-30" x="127.246094"/>
      </g>
     </g>
    </g>
    <g id="text_10">
     <!-- Score -->
     <g transform="translate(222.157656 335.860562) scale(0.1 -0.1)">
      <defs>
       <path id="DejaVuSans-53" d="M 3425 4513 
L 3425 3897 
Q 3066 4069 2747 4153 
Q 2428 4238 2131 4238 
Q 1616 4238 1336 4038 
Q 1056 3838 1056 3469 
Q 1056 3159 1242 3001 
Q 1428 2844 1947 2747 
L 2328 2669 
Q 3034 2534 3370 2195 
Q 3706 1856 3706 1288 
Q 3706 609 3251 259 
Q 2797 -91 1919 -91 
Q 1588 -91 1214 -16 
Q 841 59 441 206 
L 441 856 
Q 825 641 1194 531 
Q 1563 422 1919 422 
Q 2459 422 2753 634 
Q 3047 847 3047 1241 
Q 3047 1584 2836 1778 
Q 2625 1972 2144 2069 
L 1759 2144 
Q 1053 2284 737 2584 
Q 422 2884 422 3419 
Q 422 4038 858 4394 
Q 1294 4750 2059 4750 
Q 2388 4750 2728 4690 
Q 3069 4631 3425 4513 
z
" transform="scale(0.015625)"/>
       <path id="DejaVuSans-63" d="M 3122 3366 
L 3122 2828 
Q 2878 2963 2633 3030 
Q 2388 3097 2138 3097 
Q 1578 3097 1268 2742 
Q 959 2388 959 1747 
Q 959 1106 1268 751 
Q 1578 397 2138 397 
Q 2388 397 2633 464 
Q 2878 531 3122 666 
L 3122 134 
Q 2881 22 2623 -34 
Q 2366 -91 2075 -91 
Q 1284 -91 818 406 
Q 353 903 353 1747 
Q 353 2603 823 3093 
Q 1294 3584 2113 3584 
Q 2378 3584 2631 3529 
Q 2884 3475 3122 3366 
z
" transform="scale(0.015625)"/>
       <path id="DejaVuSans-6f" d="M 1959 3097 
Q 1497 3097 1228 2736 
Q 959 2375 959 1747 
Q 959 1119 1226 758 
Q 1494 397 1959 397 
Q 2419 397 2687 759 
Q 2956 1122 2956 1747 
Q 2956 2369 2687 2733 
Q 2419 3097 1959 3097 
z
M 1959 3584 
Q 2709 3584 3137 3096 
Q 3566 2609 3566 1747 
Q 3566 888 3137 398 
Q 2709 -91 1959 -91 
Q 1206 -91 779 398 
Q 353 888 353 1747 
Q 353 2609 779 3096 
Q 1206 3584 1959 3584 
z
" transform="scale(0.015625)"/>
       <path id="DejaVuSans-72" d="M 2631 2963 
Q 2534 3019 2420 3045 
Q 2306 3072 2169 3072 
Q 1681 3072 1420 2755 
Q 1159 2438 1159 1844 
L 1159 0 
L 581 0 
L 581 3500 
L 1159 3500 
L 1159 2956 
Q 1341 3275 1631 3429 
Q 1922 3584 2338 3584 
Q 2397 3584 2469 3576 
Q 2541 3569 2628 3553 
L 2631 2963 
z
" transform="scale(0.015625)"/>
       <path id="DejaVuSans-65" d="M 3597 1894 
L 3597 1613 
L 953 1613 
Q 991 1019 1311 708 
Q 1631 397 2203 397 
Q 2534 397 2845 478 
Q 3156 559 3463 722 
L 3463 178 
Q 3153 47 2828 -22 
Q 2503 -91 2169 -91 
Q 1331 -91 842 396 
Q 353 884 353 1716 
Q 353 2575 817 3079 
Q 1281 3584 2069 3584 
Q 2775 3584 3186 3129 
Q 3597 2675 3597 1894 
z
M 3022 2063 
Q 3016 2534 2758 2815 
Q 2500 3097 2075 3097 
Q 1594 3097 1305 2825 
Q 1016 2553 972 2059 
L 3022 2063 
z
" transform="scale(0.015625)"/>
      </defs>
      <use xlink:href="#DejaVuSans-53"/>
      <use xlink:href="#DejaVuSans-63" x="63.476562"/>
      <use xlink:href="#DejaVuSans-6f" x="118.457031"/>
      <use xlink:href="#DejaVuSans-72" x="179.638672"/>
      <use xlink:href="#DejaVuSans-65" x="218.501953"/>
     </g>
    </g>
   </g>
   <g id="matplotlib.axis_2">
    <g id="ytick_1">
     <g id="line2d_10">
      <defs>
       <path id="m7b2574e1e6" d="M 0 0 
L -3.5 0 
" style="stroke: #000000; stroke-width: 0.8"/>
      </defs>
      <g>
       <use xlink:href="#m7b2574e1e6" x="57.6" y="307.584" style="stroke: #000000; stroke-width: 0.8"/>
      </g>
     </g>
     <g id="text_11">
      <!-- 0 -->
      <g transform="translate(44.2375 311.383219) scale(0.1 -0.1)">
       <use xlink:href="#DejaVuSans-30"/>
      </g>
     </g>
    </g>
    <g id="ytick_2">
     <g id="line2d_11">
      <g>
       <use xlink:href="#m7b2574e1e6" x="57.6" y="277.837521" style="stroke: #000000; stroke-width: 0.8"/>
      </g>
     </g>
     <g id="text_12">
      <!-- 25 -->
      <g transform="translate(37.875 281.63674) scale(0.1 -0.1)">
       <use xlink:href="#DejaVuSans-32"/>
       <use xlink:href="#DejaVuSans-35" x="63.623047"/>
      </g>
     </g>
    </g>
    <g id="ytick_3">
     <g id="line2d_12">
      <g>
       <use xlink:href="#m7b2574e1e6" x="57.6" y="248.091042" style="stroke: #000000; stroke-width: 0.8"/>
      </g>
     </g>
     <g id="text_13">
      <!-- 50 -->
      <g transform="translate(37.875 251.890261) scale(0.1 -0.1)">
       <use xlink:href="#DejaVuSans-35"/>
       <use xlink:href="#DejaVuSans-30" x="63.623047"/>
      </g>
     </g>
    </g>
    <g id="ytick_4">
     <g id="line2d_13">
      <g>
       <use xlink:href="#m7b2574e1e6" x="57.6" y="218.344563" style="stroke: #000000; stroke-width: 0.8"/>
      </g>
     </g>
     <g id="text_14">
      <!-- 75 -->
      <g transform="translate(37.875 222.143782) scale(0.1 -0.1)">
       <defs>
        <path id="DejaVuSans-37" d="M 525 4666 
L 3525 4666 
L 3525 4397 
L 1831 0 
L 1172 0 
L 2766 4134 
L 525 4134 
L 525 4666 
z
" transform="scale(0.015625)"/>
       </defs>
       <use xlink:href="#DejaVuSans-37"/>
       <use xlink:href="#DejaVuSans-35" x="63.623047"/>
      </g>
     </g>
    </g>
    <g id="ytick_5">
     <g id="line2d_14">
      <g>
       <use xlink:href="#m7b2574e1e6" x="57.6" y="188.598085" style="stroke: #000000; stroke-width: 0.8"/>
      </g>
     </g>
     <g id="text_15">
      <!-- 100 -->
      <g transform="translate(31.5125 192.397303) scale(0.1 -0.1)">
       <use xlink:href="#DejaVuSans-31"/>
       <use xlink:href="#DejaVuSans-30" x="63.623047"/>
       <use xlink:href="#DejaVuSans-30" x="127.246094"/>
      </g>
     </g>
    </g>
    <g id="ytick_6">
     <g id="line2d_15">
      <g>
       <use xlink:href="#m7b2574e1e6" x="57.6" y="158.851606" style="stroke: #000000; stroke-width: 0.8"/>
      </g>
     </g>
     <g id="text_16">
      <!-- 125 -->
      <g transform="translate(31.5125 162.650824) scale(0.1 -0.1)">
       <use xlink:href="#DejaVuSans-31"/>
       <use xlink:href="#DejaVuSans-32" x="63.623047"/>
       <use xlink:href="#DejaVuSans-35" x="127.246094"/>
      </g>
     </g>
    </g>
    <g id="ytick_7">
     <g id="line2d_16">
      <g>
       <use xlink:href="#m7b2574e1e6" x="57.6" y="129.105127" style="stroke: #000000; stroke-width: 0.8"/>
      </g>
     </g>
     <g id="text_17">
      <!-- 150 -->
      <g transform="translate(31.5125 132.904346) scale(0.1 -0.1)">
       <use xlink:href="#DejaVuSans-31"/>
       <use xlink:href="#DejaVuSans-35" x="63.623047"/>
       <use xlink:href="#DejaVuSans-30" x="127.246094"/>
      </g>
     </g>
    </g>
    <g id="ytick_8">
     <g id="line2d_17">
      <g>
       <use xlink:href="#m7b2574e1e6" x="57.6" y="99.358648" style="stroke: #000000; stroke-width: 0.8"/>
      </g>
     </g>
     <g id="text_18">
      <!-- 175 -->
      <g transform="translate(31.5125 103.157867) scale(0.1 -0.1)">
       <use xlink:href="#DejaVuSans-31"/>
       <use xlink:href="#DejaVuSans-37" x="63.623047"/>
       <use xlink:href="#DejaVuSans-35" x="127.246094"/>
      </g>
     </g>
    </g>
    <g id="ytick_9">
     <g id="line2d_18">
      <g>
       <use xlink:href="#m7b2574e1e6" x="57.6" y="69.612169" style="stroke: #000000; stroke-width: 0.8"/>
      </g>
     </g>
     <g id="text_19">
      <!-- 200 -->
      <g transform="translate(31.5125 73.411388) scale(0.1 -0.1)">
       <use xlink:href="#DejaVuSans-32"/>
       <use xlink:href="#DejaVuSans-30" x="63.623047"/>
       <use xlink:href="#DejaVuSans-30" x="127.246094"/>
      </g>
     </g>
    </g>
    <g id="text_20">
     <!-- Number of crosslinks -->
     <g transform="translate(25.432812 227.019406) rotate(-90) scale(0.1 -0.1)">
      <defs>
       <path id="DejaVuSans-4e" d="M 628 4666 
L 1478 4666 
L 3547 763 
L 3547 4666 
L 4159 4666 
L 4159 0 
L 3309 0 
L 1241 3903 
L 1241 0 
L 628 0 
L 628 4666 
z
" transform="scale(0.015625)"/>
       <path id="DejaVuSans-75" d="M 544 1381 
L 544 3500 
L 1119 3500 
L 1119 1403 
Q 1119 906 1312 657 
Q 1506 409 1894 409 
Q 2359 409 2629 706 
Q 2900 1003 2900 1516 
L 2900 3500 
L 3475 3500 
L 3475 0 
L 2900 0 
L 2900 538 
Q 2691 219 2414 64 
Q 2138 -91 1772 -91 
Q 1169 -91 856 284 
Q 544 659 544 1381 
z
M 1991 3584 
L 1991 3584 
z
" transform="scale(0.015625)"/>
       <path id="DejaVuSans-6d" d="M 3328 2828 
Q 3544 3216 3844 3400 
Q 4144 3584 4550 3584 
Q 5097 3584 5394 3201 
Q 5691 2819 5691 2113 
L 5691 0 
L 5113 0 
L 5113 2094 
Q 5113 2597 4934 2840 
Q 4756 3084 4391 3084 
Q 3944 3084 3684 2787 
Q 3425 2491 3425 1978 
L 3425 0 
L 2847 0 
L 2847 2094 
Q 2847 2600 2669 2842 
Q 2491 3084 2119 3084 
Q 1678 3084 1418 2786 
Q 1159 2488 1159 1978 
L 1159 0 
L 581 0 
L 581 3500 
L 1159 3500 
L 1159 2956 
Q 1356 3278 1631 3431 
Q 1906 3584 2284 3584 
Q 2666 3584 2933 3390 
Q 3200 3197 3328 2828 
z
" transform="scale(0.015625)"/>
       <path id="DejaVuSans-62" d="M 3116 1747 
Q 3116 2381 2855 2742 
Q 2594 3103 2138 3103 
Q 1681 3103 1420 2742 
Q 1159 2381 1159 1747 
Q 1159 1113 1420 752 
Q 1681 391 2138 391 
Q 2594 391 2855 752 
Q 3116 1113 3116 1747 
z
M 1159 2969 
Q 1341 3281 1617 3432 
Q 1894 3584 2278 3584 
Q 2916 3584 3314 3078 
Q 3713 2572 3713 1747 
Q 3713 922 3314 415 
Q 2916 -91 2278 -91 
Q 1894 -91 1617 61 
Q 1341 213 1159 525 
L 1159 0 
L 581 0 
L 581 4863 
L 1159 4863 
L 1159 2969 
z
" transform="scale(0.015625)"/>
       <path id="DejaVuSans-20" transform="scale(0.015625)"/>
       <path id="DejaVuSans-66" d="M 2375 4863 
L 2375 4384 
L 1825 4384 
Q 1516 4384 1395 4259 
Q 1275 4134 1275 3809 
L 1275 3500 
L 2222 3500 
L 2222 3053 
L 1275 3053 
L 1275 0 
L 697 0 
L 697 3053 
L 147 3053 
L 147 3500 
L 697 3500 
L 697 3744 
Q 697 4328 969 4595 
Q 1241 4863 1831 4863 
L 2375 4863 
z
" transform="scale(0.015625)"/>
       <path id="DejaVuSans-73" d="M 2834 3397 
L 2834 2853 
Q 2591 2978 2328 3040 
Q 2066 3103 1784 3103 
Q 1356 3103 1142 2972 
Q 928 2841 928 2578 
Q 928 2378 1081 2264 
Q 1234 2150 1697 2047 
L 1894 2003 
Q 2506 1872 2764 1633 
Q 3022 1394 3022 966 
Q 3022 478 2636 193 
Q 2250 -91 1575 -91 
Q 1294 -91 989 -36 
Q 684 19 347 128 
L 347 722 
Q 666 556 975 473 
Q 1284 391 1588 391 
Q 1994 391 2212 530 
Q 2431 669 2431 922 
Q 2431 1156 2273 1281 
Q 2116 1406 1581 1522 
L 1381 1569 
Q 847 1681 609 1914 
Q 372 2147 372 2553 
Q 372 3047 722 3315 
Q 1072 3584 1716 3584 
Q 2034 3584 2315 3537 
Q 2597 3491 2834 3397 
z
" transform="scale(0.015625)"/>
       <path id="DejaVuSans-6c" d="M 603 4863 
L 1178 4863 
L 1178 0 
L 603 0 
L 603 4863 
z
" transform="scale(0.015625)"/>
       <path id="DejaVuSans-69" d="M 603 3500 
L 1178 3500 
L 1178 0 
L 603 0 
L 603 3500 
z
M 603 4863 
L 1178 4863 
L 1178 4134 
L 603 4134 
L 603 4863 
z
" transform="scale(0.015625)"/>
       <path id="DejaVuSans-6e" d="M 3513 2113 
L 3513 0 
L 2938 0 
L 2938 2094 
Q 2938 2591 2744 2837 
Q 2550 3084 2163 3084 
Q 1697 3084 1428 2787 
Q 1159 2491 1159 1978 
L 1159 0 
L 581 0 
L 581 3500 
L 1159 3500 
L 1159 2956 
Q 1366 3272 1645 3428 
Q 1925 3584 2291 3584 
Q 2894 3584 3203 3211 
Q 3513 2838 3513 2113 
z
" transform="scale(0.015625)"/>
       <path id="DejaVuSans-6b" d="M 581 4863 
L 1159 4863 
L 1159 1991 
L 2875 3500 
L 3609 3500 
L 1753 1863 
L 3688 0 
L 2938 0 
L 1159 1709 
L 1159 0 
L 581 0 
L 581 4863 
z
" transform="scale(0.015625)"/>
      </defs>
      <use xlink:href="#DejaVuSans-4e"/>
      <use xlink:href="#DejaVuSans-75" x="74.804688"/>
      <use xlink:href="#DejaVuSans-6d" x="138.183594"/>
      <use xlink:href="#DejaVuSans-62" x="235.595703"/>
      <use xlink:href="#DejaVuSans-65" x="299.072266"/>
      <use xlink:href="#DejaVuSans-72" x="360.595703"/>
      <use xlink:href="#DejaVuSans-20" x="401.708984"/>
      <use xlink:href="#DejaVuSans-6f" x="433.496094"/>
      <use xlink:href="#DejaVuSans-66" x="494.677734"/>
      <use xlink:href="#DejaVuSans-20" x="529.882812"/>
      <use xlink:href="#DejaVuSans-63" x="561.669922"/>
      <use xlink:href="#DejaVuSans-72" x="616.650391"/>
      <use xlink:href="#DejaVuSans-6f" x="655.513672"/>
      <use xlink:href="#DejaVuSans-73" x="716.695312"/>
      <use xlink:href="#DejaVuSans-73" x="768.794922"/>
      <use xlink:href="#DejaVuSans-6c" x="820.894531"/>
      <use xlink:href="#DejaVuSans-69" x="848.677734"/>
      <use xlink:href="#DejaVuSans-6e" x="876.460938"/>
      <use xlink:href="#DejaVuSans-6b" x="939.839844"/>
      <use xlink:href="#DejaVuSans-73" x="997.75"/>
     </g>
    </g>
   </g>
   <g id="patch_3">
    <path d="M 57.6 307.584 
L 57.6 41.472 
" style="fill: none; stroke: #000000; stroke-width: 0.8; stroke-linejoin: miter; stroke-linecap: square"/>
   </g>
   <g id="patch_4">
    <path d="M 414.72 307.584 
L 414.72 41.472 
" style="fill: none; stroke: #000000; stroke-width: 0.8; stroke-linejoin: miter; stroke-linecap: square"/>
   </g>
   <g id="patch_5">
    <path d="M 57.6 307.584 
L 414.72 307.584 
" style="fill: none; stroke: #000000; stroke-width: 0.8; stroke-linejoin: miter; stroke-linecap: square"/>
   </g>
   <g id="patch_6">
    <path d="M 57.6 41.472 
L 414.72 41.472 
" style="fill: none; stroke: #000000; stroke-width: 0.8; stroke-linejoin: miter; stroke-linecap: square"/>
   </g>
   <g id="legend_1">
    <g id="patch_7">
     <path d="M 293.087188 93.506375 
L 407.72 93.506375 
Q 409.72 93.506375 409.72 91.506375 
L 409.72 48.472 
Q 409.72 46.472 407.72 46.472 
L 293.087188 46.472 
Q 291.087188 46.472 291.087188 48.472 
L 291.087188 91.506375 
Q 291.087188 93.506375 293.087188 93.506375 
z
" style="fill: #ffffff; opacity: 0.8; stroke: #cccccc; stroke-linejoin: miter"/>
    </g>
    <g id="patch_8">
     <path d="M 295.087188 58.070438 
L 315.087188 58.070438 
L 315.087188 51.070438 
L 295.087188 51.070438 
z
" style="fill: #008000"/>
    </g>
    <g id="text_21">
     <!-- true -->
     <g transform="translate(323.087188 58.070438) scale(0.1 -0.1)">
      <defs>
       <path id="DejaVuSans-74" d="M 1172 4494 
L 1172 3500 
L 2356 3500 
L 2356 3053 
L 1172 3053 
L 1172 1153 
Q 1172 725 1289 603 
Q 1406 481 1766 481 
L 2356 481 
L 2356 0 
L 1766 0 
Q 1100 0 847 248 
Q 594 497 594 1153 
L 594 3053 
L 172 3053 
L 172 3500 
L 594 3500 
L 594 4494 
L 1172 4494 
z
" transform="scale(0.015625)"/>
      </defs>
      <use xlink:href="#DejaVuSans-74"/>
      <use xlink:href="#DejaVuSans-72" x="39.208984"/>
      <use xlink:href="#DejaVuSans-75" x="80.322266"/>
      <use xlink:href="#DejaVuSans-65" x="143.701172"/>
     </g>
    </g>
    <g id="patch_9">
     <path d="M 295.087188 72.748563 
L 315.087188 72.748563 
L 315.087188 65.748563 
L 295.087188 65.748563 
z
" style="fill: #7cfc00"/>
    </g>
    <g id="text_22">
     <!-- true homeotypic -->
     <g transform="translate(323.087188 72.748563) scale(0.1 -0.1)">
      <defs>
       <path id="DejaVuSans-68" d="M 3513 2113 
L 3513 0 
L 2938 0 
L 2938 2094 
Q 2938 2591 2744 2837 
Q 2550 3084 2163 3084 
Q 1697 3084 1428 2787 
Q 1159 2491 1159 1978 
L 1159 0 
L 581 0 
L 581 4863 
L 1159 4863 
L 1159 2956 
Q 1366 3272 1645 3428 
Q 1925 3584 2291 3584 
Q 2894 3584 3203 3211 
Q 3513 2838 3513 2113 
z
" transform="scale(0.015625)"/>
       <path id="DejaVuSans-79" d="M 2059 -325 
Q 1816 -950 1584 -1140 
Q 1353 -1331 966 -1331 
L 506 -1331 
L 506 -850 
L 844 -850 
Q 1081 -850 1212 -737 
Q 1344 -625 1503 -206 
L 1606 56 
L 191 3500 
L 800 3500 
L 1894 763 
L 2988 3500 
L 3597 3500 
L 2059 -325 
z
" transform="scale(0.015625)"/>
       <path id="DejaVuSans-70" d="M 1159 525 
L 1159 -1331 
L 581 -1331 
L 581 3500 
L 1159 3500 
L 1159 2969 
Q 1341 3281 1617 3432 
Q 1894 3584 2278 3584 
Q 2916 3584 3314 3078 
Q 3713 2572 3713 1747 
Q 3713 922 3314 415 
Q 2916 -91 2278 -91 
Q 1894 -91 1617 61 
Q 1341 213 1159 525 
z
M 3116 1747 
Q 3116 2381 2855 2742 
Q 2594 3103 2138 3103 
Q 1681 3103 1420 2742 
Q 1159 2381 1159 1747 
Q 1159 1113 1420 752 
Q 1681 391 2138 391 
Q 2594 391 2855 752 
Q 3116 1113 3116 1747 
z
" transform="scale(0.015625)"/>
      </defs>
      <use xlink:href="#DejaVuSans-74"/>
      <use xlink:href="#DejaVuSans-72" x="39.208984"/>
      <use xlink:href="#DejaVuSans-75" x="80.322266"/>
      <use xlink:href="#DejaVuSans-65" x="143.701172"/>
      <use xlink:href="#DejaVuSans-20" x="205.224609"/>
      <use xlink:href="#DejaVuSans-68" x="237.011719"/>
      <use xlink:href="#DejaVuSans-6f" x="300.390625"/>
      <use xlink:href="#DejaVuSans-6d" x="361.572266"/>
      <use xlink:href="#DejaVuSans-65" x="458.984375"/>
      <use xlink:href="#DejaVuSans-6f" x="520.507812"/>
      <use xlink:href="#DejaVuSans-74" x="581.689453"/>
      <use xlink:href="#DejaVuSans-79" x="620.898438"/>
      <use xlink:href="#DejaVuSans-70" x="680.078125"/>
      <use xlink:href="#DejaVuSans-69" x="743.554688"/>
      <use xlink:href="#DejaVuSans-63" x="771.337891"/>
     </g>
    </g>
    <g id="patch_10">
     <path d="M 295.087188 87.426688 
L 315.087188 87.426688 
L 315.087188 80.426688 
L 295.087188 80.426688 
z
" style="fill: #ff0000"/>
    </g>
    <g id="text_23">
     <!-- false -->
     <g transform="translate(323.087188 87.426688) scale(0.1 -0.1)">
      <defs>
       <path id="DejaVuSans-61" d="M 2194 1759 
Q 1497 1759 1228 1600 
Q 959 1441 959 1056 
Q 959 750 1161 570 
Q 1363 391 1709 391 
Q 2188 391 2477 730 
Q 2766 1069 2766 1631 
L 2766 1759 
L 2194 1759 
z
M 3341 1997 
L 3341 0 
L 2766 0 
L 2766 531 
Q 2569 213 2275 61 
Q 1981 -91 1556 -91 
Q 1019 -91 701 211 
Q 384 513 384 1019 
Q 384 1609 779 1909 
Q 1175 2209 1959 2209 
L 2766 2209 
L 2766 2266 
Q 2766 2663 2505 2880 
Q 2244 3097 1772 3097 
Q 1472 3097 1187 3025 
Q 903 2953 641 2809 
L 641 3341 
Q 956 3463 1253 3523 
Q 1550 3584 1831 3584 
Q 2591 3584 2966 3190 
Q 3341 2797 3341 1997 
z
" transform="scale(0.015625)"/>
      </defs>
      <use xlink:href="#DejaVuSans-66"/>
      <use xlink:href="#DejaVuSans-61" x="35.205078"/>
      <use xlink:href="#DejaVuSans-6c" x="96.484375"/>
      <use xlink:href="#DejaVuSans-73" x="124.267578"/>
      <use xlink:href="#DejaVuSans-65" x="176.367188"/>
     </g>
    </g>
   </g>
  </g>
 </g>
 <defs>
  <clipPath id="p2401a95724">
   <rect x="57.6" y="41.472" width="357.12" height="266.112"/>
  </clipPath>
 </defs>
</svg>
