<?xml version="1.0" encoding="utf-8" standalone="no"?>
<!DOCTYPE svg PUBLIC "-//W3C//DTD SVG 1.1//EN"
  "http://www.w3.org/Graphics/SVG/1.1/DTD/svg11.dtd">
<svg xmlns:xlink="http://www.w3.org/1999/xlink" width="460.8pt" height="345.6pt" viewBox="0 0 460.8 345.6" xmlns="http://www.w3.org/2000/svg" version="1.1">
 <metadata>
  <rdf:RDF xmlns:dc="http://purl.org/dc/elements/1.1/" xmlns:cc="http://creativecommons.org/ns#" xmlns:rdf="http://www.w3.org/1999/02/22-rdf-syntax-ns#">
   <cc:Work>
    <dc:type rdf:resource="http://purl.org/dc/dcmitype/StillImage"/>
    <dc:date>2024-06-25T14:43:58.712502</dc:date>
    <dc:format>image/svg+xml</dc:format>
    <dc:creator>
     <cc:Agent>
      <dc:title>Matplotlib v3.9.0, https://matplotlib.org/</dc:title>
     </cc:Agent>
    </dc:creator>
   </cc:Work>
  </rdf:RDF>
 </metadata>
 <defs>
  <style type="text/css">*{stroke-linejoin: round; stroke-linecap: butt}</style>
 </defs>
 <g id="figure_1">
  <g id="patch_1">
   <path d="M 0 345.6 
L 460.8 345.6 
L 460.8 0 
L 0 0 
z
" style="fill: #ffffff"/>
  </g>
  <g id="axes_1">
   <g id="patch_2">
    <path d="M 57.6 307.584 
L 414.72 307.584 
L 414.72 41.472 
L 57.6 41.472 
z
" style="fill: #ffffff"/>
   </g>
   <g id="PolyCollection_1">
    <path d="M 73.832727 117.504 
L 73.832727 307.584 
L 73.85554 307.584 
L 74.136896 307.584 
L 75.85545 307.584 
L 76.34212 307.584 
L 76.517017 307.584 
L 76.539829 307.584 
L 77.072125 307.584 
L 78.43328 307.584 
L 78.691824 307.584 
L 78.866721 307.584 
L 78.965575 307.584 
L 79.072034 307.584 
L 80.668921 307.584 
L 81.558614 307.584 
L 82.760081 307.584 
L 84.37978 307.584 
L 86.18198 307.584 
L 86.432919 307.584 
L 87.923346 307.584 
L 88.508871 307.584 
L 89.93086 307.584 
L 92.143688 307.584 
L 92.637962 307.584 
L 94.265265 307.584 
L 95.53517 307.584 
L 96.462884 307.584 
L 98.067375 307.584 
L 98.181438 307.584 
L 98.204251 307.584 
L 99.337279 307.584 
L 100.272598 307.584 
L 100.759268 307.584 
L 101.512086 307.584 
L 105.192528 307.584 
L 105.937742 307.584 
L 108.690469 307.584 
L 113.967798 307.584 
L 114.005819 307.584 
L 114.598948 307.584 
L 116.058958 307.584 
L 116.385939 307.584 
L 116.979068 307.584 
L 117.001881 307.584 
L 117.169174 307.584 
L 117.374488 307.584 
L 117.914387 307.584 
L 119.30596 307.584 
L 119.648149 307.584 
L 119.655754 307.584 
L 120.188049 307.584 
L 120.606281 307.584 
L 121.009305 307.584 
L 121.092951 307.584 
L 121.822956 307.584 
L 122.416085 307.584 
L 122.469315 307.584 
L 122.705046 307.584 
L 122.834317 307.584 
L 123.05484 307.584 
L 123.381821 307.584 
L 123.63276 307.584 
L 123.678386 307.584 
L 123.845679 307.584 
L 124.043388 307.584 
L 124.089014 307.584 
L 124.157452 307.584 
L 125.328501 307.584 
L 125.63267 307.584 
L 125.739129 307.584 
L 125.860797 307.584 
L 126.02809 307.584 
L 126.195382 307.584 
L 126.400696 307.584 
L 126.689657 307.584 
L 127.031847 307.584 
L 127.351224 307.584 
L 127.609767 307.584 
L 129.533635 307.584 
L 129.564052 307.584 
L 130.141972 307.584 
L 130.301661 307.584 
L 130.385307 307.584 
L 130.909999 307.584 
L 132.187507 307.584 
L 132.301571 307.584 
L 132.795845 307.584 
L 133.541058 307.584 
L 134.6969 307.584 
L 134.902214 307.584 
L 135.221591 307.584 
L 135.898366 307.584 
L 137.038999 307.584 
L 137.974318 307.584 
L 138.019944 307.584 
L 138.035152 307.584 
L 138.187237 307.584 
L 138.308904 307.584 
L 139.343078 307.584 
L 140.384856 307.584 
L 140.53694 307.584 
L 141.038819 307.584 
L 141.837262 307.584 
L 142.909457 307.584 
L 143.053937 307.584 
L 143.373314 307.584 
L 143.85238 307.584 
L 144.088111 307.584 
L 144.270612 307.584 
L 144.848533 307.584 
L 145.046242 307.584 
L 145.145097 307.584 
L 145.22114 307.584 
L 145.228744 307.584 
L 145.274369 307.584 
L 146.095625 307.584 
L 146.703962 307.584 
L 146.780005 307.584 
L 147.122194 307.584 
L 147.700115 307.584 
L 148.019492 307.584 
L 148.376891 307.584 
L 148.840748 307.584 
L 149.373043 307.584 
L 149.882526 307.584 
L 150.582114 307.584 
L 151.289307 307.584 
L 153.715053 307.584 
L 154.308182 307.584 
L 154.330994 307.584 
L 155.54767 307.584 
L 155.7834 307.584 
L 156.695907 307.584 
L 156.893616 307.584 
L 157.190181 307.584 
L 157.486746 307.584 
L 157.889769 307.584 
L 160.011346 307.584 
L 160.376349 307.584 
L 160.665309 307.584 
L 162.490322 307.584 
L 162.596781 307.584 
L 162.657615 307.584 
L 163.144285 307.584 
L 163.433245 307.584 
L 163.630955 307.584 
L 165.007319 307.584 
L 165.942638 307.584 
L 166.550975 307.584 
L 166.642226 307.584 
L 167.037645 307.584 
L 167.395043 307.584 
L 167.440669 307.584 
L 167.539524 307.584 
L 167.569941 307.584 
L 167.62317 307.584 
L 168.45203 307.584 
L 169.524225 307.584 
L 170.345481 307.584 
L 170.999443 307.584 
L 171.622989 307.584 
L 171.927158 307.584 
L 172.231327 307.584 
L 173.600087 307.584 
L 173.980298 307.584 
L 174.97645 307.584 
L 175.94979 307.584 
L 177.493447 307.584 
L 178.048555 307.584 
L 178.314703 307.584 
L 179.569399 307.584 
L 180.991388 307.584 
L 181.173889 307.584 
L 181.75181 307.584 
L 182.147229 307.584 
L 183.84297 307.584 
L 183.888595 307.584 
L 184.025471 307.584 
L 184.793498 307.584 
L 185.417044 307.584 
L 185.561524 307.584 
L 188.724879 307.584 
L 189.135507 307.584 
L 189.477697 307.584 
L 190.800831 307.584 
L 191.439585 307.584 
L 193.05168 307.584 
L 193.378661 307.584 
L 194.359606 307.584 
L 194.443252 307.584 
L 198.846095 307.584 
L 200.40496 307.584 
L 201.325071 307.584 
L 201.788928 307.584 
L 202.853519 307.584 
L 203.933318 307.584 
L 204.093007 307.584 
L 204.792595 307.584 
L 204.89145 307.584 
L 206.853338 307.584 
L 208.435016 307.584 
L 210.381696 307.584 
L 211.583163 307.584 
L 213.339737 307.584 
L 214.647663 307.584 
L 216.320591 307.584 
L 216.700802 307.584 
L 217.468829 307.584 
L 219.864158 307.584 
L 220.016242 307.584 
L 223.118764 307.584 
L 225.392425 307.584 
L 225.415238 307.584 
L 229.194535 307.584 
L 234.981346 307.584 
L 239.057208 307.584 
L 239.695962 307.584 
L 239.954506 307.584 
L 240.114194 307.584 
L 240.296695 307.584 
L 244.091201 307.584 
L 244.532246 307.584 
L 244.798393 307.584 
L 245.31548 307.584 
L 250.425516 307.584 
L 254.851171 307.584 
L 255.877741 307.584 
L 255.923366 307.584 
L 256.18191 307.584 
L 260.098083 307.584 
L 270.378988 307.584 
L 273.299008 307.584 
L 273.397863 307.584 
L 283.5571 307.584 
L 286.431495 307.584 
L 289.610059 307.584 
L 301.366182 307.584 
L 303.982033 307.584 
L 309.114881 307.584 
L 313.411265 307.584 
L 316.209618 307.584 
L 340.05645 307.584 
L 340.59635 307.584 
L 349.006617 307.584 
L 386.404168 307.584 
L 398.487273 307.584 
L 398.487273 307.584 
L 398.487273 307.584 
L 386.404168 307.584 
L 349.006617 307.584 
L 340.59635 307.584 
L 340.05645 306.562065 
L 316.209618 306.562065 
L 313.411265 306.562065 
L 309.114881 306.562065 
L 303.982033 306.562065 
L 301.366182 306.562065 
L 289.610059 305.540129 
L 286.431495 305.540129 
L 283.5571 305.540129 
L 273.397863 304.518194 
L 273.299008 303.496258 
L 270.378988 303.496258 
L 260.098083 303.496258 
L 256.18191 303.496258 
L 255.923366 302.474323 
L 255.877741 301.452387 
L 254.851171 300.430452 
L 250.425516 300.430452 
L 245.31548 299.408516 
L 244.798393 298.386581 
L 244.532246 297.364645 
L 244.091201 297.364645 
L 240.296695 297.364645 
L 240.114194 297.364645 
L 239.954506 297.364645 
L 239.695962 296.34271 
L 239.057208 295.320774 
L 234.981346 294.298839 
L 229.194535 294.298839 
L 225.415238 294.298839 
L 225.392425 294.298839 
L 223.118764 293.276903 
L 220.016242 292.254968 
L 219.864158 292.254968 
L 217.468829 292.254968 
L 216.700802 291.233032 
L 216.320591 290.211097 
L 214.647663 290.211097 
L 213.339737 290.211097 
L 211.583163 289.189161 
L 210.381696 288.167226 
L 208.435016 287.14529 
L 206.853338 287.14529 
L 204.89145 286.123355 
L 204.792595 285.101419 
L 204.093007 284.079484 
L 203.933318 283.057548 
L 202.853519 282.035613 
L 201.788928 281.013677 
L 201.325071 279.991742 
L 200.40496 278.969806 
L 198.846095 277.947871 
L 194.443252 277.947871 
L 194.359606 276.925935 
L 193.378661 275.904 
L 193.05168 274.882065 
L 191.439585 273.860129 
L 190.800831 272.838194 
L 189.477697 271.816258 
L 189.135507 270.794323 
L 188.724879 269.772387 
L 185.561524 268.750452 
L 185.417044 267.728516 
L 184.793498 267.728516 
L 184.025471 266.706581 
L 183.888595 265.684645 
L 183.84297 264.66271 
L 182.147229 263.640774 
L 181.75181 262.618839 
L 181.173889 261.596903 
L 180.991388 260.574968 
L 179.569399 259.553032 
L 178.314703 258.531097 
L 178.048555 258.531097 
L 177.493447 257.509161 
L 175.94979 257.509161 
L 174.97645 256.487226 
L 173.980298 255.46529 
L 173.600087 254.443355 
L 172.231327 253.421419 
L 171.927158 252.399484 
L 171.622989 251.377548 
L 170.999443 250.355613 
L 170.345481 250.355613 
L 169.524225 249.333677 
L 168.45203 248.311742 
L 167.62317 247.289806 
L 167.569941 246.267871 
L 167.539524 245.245935 
L 167.440669 244.224 
L 167.395043 243.202065 
L 167.037645 243.202065 
L 166.642226 242.180129 
L 166.550975 241.158194 
L 165.942638 240.136258 
L 165.007319 239.114323 
L 163.630955 238.092387 
L 163.433245 236.048516 
L 163.144285 235.026581 
L 162.657615 234.004645 
L 162.596781 232.98271 
L 162.490322 232.98271 
L 160.665309 231.960774 
L 160.376349 230.938839 
L 160.011346 229.916903 
L 157.889769 228.894968 
L 157.486746 227.873032 
L 157.190181 227.873032 
L 156.893616 226.851097 
L 156.695907 225.829161 
L 155.7834 224.807226 
L 155.54767 223.78529 
L 154.330994 222.763355 
L 154.308182 221.741419 
L 153.715053 221.741419 
L 151.289307 220.719484 
L 150.582114 219.697548 
L 149.882526 218.675613 
L 149.373043 217.653677 
L 148.840748 216.631742 
L 148.376891 215.609806 
L 148.019492 214.587871 
L 147.700115 213.565935 
L 147.122194 212.544 
L 146.780005 211.522065 
L 146.703962 210.500129 
L 146.095625 209.478194 
L 145.274369 208.456258 
L 145.228744 207.434323 
L 145.22114 206.412387 
L 145.145097 206.412387 
L 145.046242 205.390452 
L 144.848533 204.368516 
L 144.270612 203.346581 
L 144.088111 202.324645 
L 143.85238 201.30271 
L 143.373314 200.280774 
L 143.053937 199.258839 
L 142.909457 199.258839 
L 141.837262 198.236903 
L 141.038819 198.236903 
L 140.53694 197.214968 
L 140.384856 196.193032 
L 139.343078 196.193032 
L 138.308904 195.171097 
L 138.187237 194.149161 
L 138.035152 194.149161 
L 138.019944 193.127226 
L 137.974318 192.10529 
L 137.038999 191.083355 
L 135.898366 190.061419 
L 135.221591 189.039484 
L 134.902214 188.017548 
L 134.6969 186.995613 
L 133.541058 185.973677 
L 132.795845 184.951742 
L 132.301571 183.929806 
L 132.187507 182.907871 
L 130.909999 181.885935 
L 130.385307 180.864 
L 130.301661 180.864 
L 130.141972 179.842065 
L 129.564052 178.820129 
L 129.533635 178.820129 
L 127.609767 177.798194 
L 127.351224 176.776258 
L 127.031847 176.776258 
L 126.689657 175.754323 
L 126.400696 174.732387 
L 126.195382 173.710452 
L 126.02809 172.688516 
L 125.860797 171.666581 
L 125.739129 170.644645 
L 125.63267 169.62271 
L 125.328501 167.578839 
L 124.157452 167.578839 
L 124.089014 166.556903 
L 124.043388 165.534968 
L 123.845679 164.513032 
L 123.678386 163.491097 
L 123.63276 162.469161 
L 123.381821 161.447226 
L 123.05484 160.42529 
L 122.834317 159.403355 
L 122.705046 158.381419 
L 122.469315 157.359484 
L 122.416085 156.337548 
L 121.822956 156.337548 
L 121.092951 155.315613 
L 121.009305 154.293677 
L 120.606281 153.271742 
L 120.188049 152.249806 
L 119.655754 151.227871 
L 119.648149 150.205935 
L 119.30596 149.184 
L 117.914387 148.162065 
L 117.374488 147.140129 
L 117.169174 146.118194 
L 117.001881 145.096258 
L 116.979068 144.074323 
L 116.385939 144.074323 
L 116.058958 143.052387 
L 114.598948 142.030452 
L 114.005819 141.008516 
L 113.967798 139.986581 
L 108.690469 138.964645 
L 105.937742 137.94271 
L 105.192528 136.920774 
L 101.512086 135.898839 
L 100.759268 134.876903 
L 100.272598 133.854968 
L 99.337279 132.833032 
L 98.204251 131.811097 
L 98.181438 130.789161 
L 98.067375 129.767226 
L 96.462884 128.74529 
L 95.53517 128.74529 
L 94.265265 127.723355 
L 92.637962 127.723355 
L 92.143688 127.723355 
L 89.93086 126.701419 
L 88.508871 125.679484 
L 87.923346 124.657548 
L 86.432919 124.657548 
L 86.18198 123.635613 
L 84.37978 123.635613 
L 82.760081 123.635613 
L 81.558614 123.635613 
L 80.668921 122.613677 
L 79.072034 121.591742 
L 78.965575 120.569806 
L 78.866721 120.569806 
L 78.691824 119.547871 
L 78.43328 119.547871 
L 77.072125 119.547871 
L 76.539829 119.547871 
L 76.517017 119.547871 
L 76.34212 118.525935 
L 75.85545 118.525935 
L 74.136896 117.504 
L 73.85554 117.504 
L 73.832727 117.504 
z
" clip-path="url(#p7f22af5ef6)" style="fill: #008000"/>
   </g>
   <g id="PolyCollection_2">
    <path d="M 73.832727 69.473032 
L 73.832727 117.504 
L 73.85554 117.504 
L 74.136896 117.504 
L 75.85545 118.525935 
L 76.34212 118.525935 
L 76.517017 119.547871 
L 76.539829 119.547871 
L 77.072125 119.547871 
L 78.43328 119.547871 
L 78.691824 119.547871 
L 78.866721 120.569806 
L 78.965575 120.569806 
L 79.072034 121.591742 
L 80.668921 122.613677 
L 81.558614 123.635613 
L 82.760081 123.635613 
L 84.37978 123.635613 
L 86.18198 123.635613 
L 86.432919 124.657548 
L 87.923346 124.657548 
L 88.508871 125.679484 
L 89.93086 126.701419 
L 92.143688 127.723355 
L 92.637962 127.723355 
L 94.265265 127.723355 
L 95.53517 128.74529 
L 96.462884 128.74529 
L 98.067375 129.767226 
L 98.181438 130.789161 
L 98.204251 131.811097 
L 99.337279 132.833032 
L 100.272598 133.854968 
L 100.759268 134.876903 
L 101.512086 135.898839 
L 105.192528 136.920774 
L 105.937742 137.94271 
L 108.690469 138.964645 
L 113.967798 139.986581 
L 114.005819 141.008516 
L 114.598948 142.030452 
L 116.058958 143.052387 
L 116.385939 144.074323 
L 116.979068 144.074323 
L 117.001881 145.096258 
L 117.169174 146.118194 
L 117.374488 147.140129 
L 117.914387 148.162065 
L 119.30596 149.184 
L 119.648149 150.205935 
L 119.655754 151.227871 
L 120.188049 152.249806 
L 120.606281 153.271742 
L 121.009305 154.293677 
L 121.092951 155.315613 
L 121.822956 156.337548 
L 122.416085 156.337548 
L 122.469315 157.359484 
L 122.705046 158.381419 
L 122.834317 159.403355 
L 123.05484 160.42529 
L 123.381821 161.447226 
L 123.63276 162.469161 
L 123.678386 163.491097 
L 123.845679 164.513032 
L 124.043388 165.534968 
L 124.089014 166.556903 
L 124.157452 167.578839 
L 125.328501 167.578839 
L 125.63267 169.62271 
L 125.739129 170.644645 
L 125.860797 171.666581 
L 126.02809 172.688516 
L 126.195382 173.710452 
L 126.400696 174.732387 
L 126.689657 175.754323 
L 127.031847 176.776258 
L 127.351224 176.776258 
L 127.609767 177.798194 
L 129.533635 178.820129 
L 129.564052 178.820129 
L 130.141972 179.842065 
L 130.301661 180.864 
L 130.385307 180.864 
L 130.909999 181.885935 
L 132.187507 182.907871 
L 132.301571 183.929806 
L 132.795845 184.951742 
L 133.541058 185.973677 
L 134.6969 186.995613 
L 134.902214 188.017548 
L 135.221591 189.039484 
L 135.898366 190.061419 
L 137.038999 191.083355 
L 137.974318 192.10529 
L 138.019944 193.127226 
L 138.035152 194.149161 
L 138.187237 194.149161 
L 138.308904 195.171097 
L 139.343078 196.193032 
L 140.384856 196.193032 
L 140.53694 197.214968 
L 141.038819 198.236903 
L 141.837262 198.236903 
L 142.909457 199.258839 
L 143.053937 199.258839 
L 143.373314 200.280774 
L 143.85238 201.30271 
L 144.088111 202.324645 
L 144.270612 203.346581 
L 144.848533 204.368516 
L 145.046242 205.390452 
L 145.145097 206.412387 
L 145.22114 206.412387 
L 145.228744 207.434323 
L 145.274369 208.456258 
L 146.095625 209.478194 
L 146.703962 210.500129 
L 146.780005 211.522065 
L 147.122194 212.544 
L 147.700115 213.565935 
L 148.019492 214.587871 
L 148.376891 215.609806 
L 148.840748 216.631742 
L 149.373043 217.653677 
L 149.882526 218.675613 
L 150.582114 219.697548 
L 151.289307 220.719484 
L 153.715053 221.741419 
L 154.308182 221.741419 
L 154.330994 222.763355 
L 155.54767 223.78529 
L 155.7834 224.807226 
L 156.695907 225.829161 
L 156.893616 226.851097 
L 157.190181 227.873032 
L 157.486746 227.873032 
L 157.889769 228.894968 
L 160.011346 229.916903 
L 160.376349 230.938839 
L 160.665309 231.960774 
L 162.490322 232.98271 
L 162.596781 232.98271 
L 162.657615 234.004645 
L 163.144285 235.026581 
L 163.433245 236.048516 
L 163.630955 238.092387 
L 165.007319 239.114323 
L 165.942638 240.136258 
L 166.550975 241.158194 
L 166.642226 242.180129 
L 167.037645 243.202065 
L 167.395043 243.202065 
L 167.440669 244.224 
L 167.539524 245.245935 
L 167.569941 246.267871 
L 167.62317 247.289806 
L 168.45203 248.311742 
L 169.524225 249.333677 
L 170.345481 250.355613 
L 170.999443 250.355613 
L 171.622989 251.377548 
L 171.927158 252.399484 
L 172.231327 253.421419 
L 173.600087 254.443355 
L 173.980298 255.46529 
L 174.97645 256.487226 
L 175.94979 257.509161 
L 177.493447 257.509161 
L 178.048555 258.531097 
L 178.314703 258.531097 
L 179.569399 259.553032 
L 180.991388 260.574968 
L 181.173889 261.596903 
L 181.75181 262.618839 
L 182.147229 263.640774 
L 183.84297 264.66271 
L 183.888595 265.684645 
L 184.025471 266.706581 
L 184.793498 267.728516 
L 185.417044 267.728516 
L 185.561524 268.750452 
L 188.724879 269.772387 
L 189.135507 270.794323 
L 189.477697 271.816258 
L 190.800831 272.838194 
L 191.439585 273.860129 
L 193.05168 274.882065 
L 193.378661 275.904 
L 194.359606 276.925935 
L 194.443252 277.947871 
L 198.846095 277.947871 
L 200.40496 278.969806 
L 201.325071 279.991742 
L 201.788928 281.013677 
L 202.853519 282.035613 
L 203.933318 283.057548 
L 204.093007 284.079484 
L 204.792595 285.101419 
L 204.89145 286.123355 
L 206.853338 287.14529 
L 208.435016 287.14529 
L 210.381696 288.167226 
L 211.583163 289.189161 
L 213.339737 290.211097 
L 214.647663 290.211097 
L 216.320591 290.211097 
L 216.700802 291.233032 
L 217.468829 292.254968 
L 219.864158 292.254968 
L 220.016242 292.254968 
L 223.118764 293.276903 
L 225.392425 294.298839 
L 225.415238 294.298839 
L 229.194535 294.298839 
L 234.981346 294.298839 
L 239.057208 295.320774 
L 239.695962 296.34271 
L 239.954506 297.364645 
L 240.114194 297.364645 
L 240.296695 297.364645 
L 244.091201 297.364645 
L 244.532246 297.364645 
L 244.798393 298.386581 
L 245.31548 299.408516 
L 250.425516 300.430452 
L 254.851171 300.430452 
L 255.877741 301.452387 
L 255.923366 302.474323 
L 256.18191 303.496258 
L 260.098083 303.496258 
L 270.378988 303.496258 
L 273.299008 303.496258 
L 273.397863 304.518194 
L 283.5571 305.540129 
L 286.431495 305.540129 
L 289.610059 305.540129 
L 301.366182 306.562065 
L 303.982033 306.562065 
L 309.114881 306.562065 
L 313.411265 306.562065 
L 316.209618 306.562065 
L 340.05645 306.562065 
L 340.59635 307.584 
L 349.006617 307.584 
L 386.404168 307.584 
L 398.487273 307.584 
L 398.487273 306.562065 
L 398.487273 306.562065 
L 386.404168 305.540129 
L 349.006617 304.518194 
L 340.59635 303.496258 
L 340.05645 302.474323 
L 316.209618 301.452387 
L 313.411265 300.430452 
L 309.114881 299.408516 
L 303.982033 298.386581 
L 301.366182 297.364645 
L 289.610059 296.34271 
L 286.431495 295.320774 
L 283.5571 294.298839 
L 273.397863 293.276903 
L 273.299008 292.254968 
L 270.378988 291.233032 
L 260.098083 290.211097 
L 256.18191 289.189161 
L 255.923366 288.167226 
L 255.877741 287.14529 
L 254.851171 286.123355 
L 250.425516 285.101419 
L 245.31548 284.079484 
L 244.798393 283.057548 
L 244.532246 282.035613 
L 244.091201 281.013677 
L 240.296695 279.991742 
L 240.114194 278.969806 
L 239.954506 277.947871 
L 239.695962 276.925935 
L 239.057208 275.904 
L 234.981346 274.882065 
L 229.194535 273.860129 
L 225.415238 272.838194 
L 225.392425 271.816258 
L 223.118764 270.794323 
L 220.016242 269.772387 
L 219.864158 268.750452 
L 217.468829 267.728516 
L 216.700802 266.706581 
L 216.320591 265.684645 
L 214.647663 264.66271 
L 213.339737 263.640774 
L 211.583163 262.618839 
L 210.381696 261.596903 
L 208.435016 260.574968 
L 206.853338 259.553032 
L 204.89145 258.531097 
L 204.792595 257.509161 
L 204.093007 256.487226 
L 203.933318 255.46529 
L 202.853519 254.443355 
L 201.788928 253.421419 
L 201.325071 252.399484 
L 200.40496 251.377548 
L 198.846095 250.355613 
L 194.443252 249.333677 
L 194.359606 248.311742 
L 193.378661 247.289806 
L 193.05168 246.267871 
L 191.439585 245.245935 
L 190.800831 244.224 
L 189.477697 243.202065 
L 189.135507 242.180129 
L 188.724879 241.158194 
L 185.561524 240.136258 
L 185.417044 239.114323 
L 184.793498 238.092387 
L 184.025471 237.070452 
L 183.888595 236.048516 
L 183.84297 235.026581 
L 182.147229 234.004645 
L 181.75181 232.98271 
L 181.173889 231.960774 
L 180.991388 230.938839 
L 179.569399 229.916903 
L 178.314703 228.894968 
L 178.048555 227.873032 
L 177.493447 226.851097 
L 175.94979 225.829161 
L 174.97645 224.807226 
L 173.980298 223.78529 
L 173.600087 222.763355 
L 172.231327 221.741419 
L 171.927158 220.719484 
L 171.622989 219.697548 
L 170.999443 218.675613 
L 170.345481 217.653677 
L 169.524225 216.631742 
L 168.45203 215.609806 
L 167.62317 214.587871 
L 167.569941 213.565935 
L 167.539524 212.544 
L 167.440669 211.522065 
L 167.395043 210.500129 
L 167.037645 209.478194 
L 166.642226 208.456258 
L 166.550975 207.434323 
L 165.942638 206.412387 
L 165.007319 205.390452 
L 163.630955 204.368516 
L 163.433245 202.324645 
L 163.144285 201.30271 
L 162.657615 200.280774 
L 162.596781 199.258839 
L 162.490322 198.236903 
L 160.665309 197.214968 
L 160.376349 196.193032 
L 160.011346 195.171097 
L 157.889769 194.149161 
L 157.486746 193.127226 
L 157.190181 192.10529 
L 156.893616 191.083355 
L 156.695907 190.061419 
L 155.7834 189.039484 
L 155.54767 188.017548 
L 154.330994 186.995613 
L 154.308182 185.973677 
L 153.715053 184.951742 
L 151.289307 183.929806 
L 150.582114 182.907871 
L 149.882526 181.885935 
L 149.373043 180.864 
L 148.840748 179.842065 
L 148.376891 178.820129 
L 148.019492 177.798194 
L 147.700115 176.776258 
L 147.122194 175.754323 
L 146.780005 174.732387 
L 146.703962 173.710452 
L 146.095625 172.688516 
L 145.274369 171.666581 
L 145.228744 170.644645 
L 145.22114 169.62271 
L 145.145097 168.600774 
L 145.046242 167.578839 
L 144.848533 166.556903 
L 144.270612 165.534968 
L 144.088111 164.513032 
L 143.85238 163.491097 
L 143.373314 162.469161 
L 143.053937 161.447226 
L 142.909457 160.42529 
L 141.837262 159.403355 
L 141.038819 158.381419 
L 140.53694 157.359484 
L 140.384856 156.337548 
L 139.343078 155.315613 
L 138.308904 154.293677 
L 138.187237 153.271742 
L 138.035152 152.249806 
L 138.019944 151.227871 
L 137.974318 150.205935 
L 137.038999 149.184 
L 135.898366 148.162065 
L 135.221591 147.140129 
L 134.902214 146.118194 
L 134.6969 145.096258 
L 133.541058 144.074323 
L 132.795845 143.052387 
L 132.301571 142.030452 
L 132.187507 141.008516 
L 130.909999 139.986581 
L 130.385307 138.964645 
L 130.301661 137.94271 
L 130.141972 136.920774 
L 129.564052 135.898839 
L 129.533635 134.876903 
L 127.609767 133.854968 
L 127.351224 132.833032 
L 127.031847 131.811097 
L 126.689657 130.789161 
L 126.400696 129.767226 
L 126.195382 128.74529 
L 126.02809 127.723355 
L 125.860797 126.701419 
L 125.739129 125.679484 
L 125.63267 124.657548 
L 125.328501 122.613677 
L 124.157452 121.591742 
L 124.089014 120.569806 
L 124.043388 119.547871 
L 123.845679 118.525935 
L 123.678386 117.504 
L 123.63276 116.482065 
L 123.381821 115.460129 
L 123.05484 114.438194 
L 122.834317 113.416258 
L 122.705046 112.394323 
L 122.469315 111.372387 
L 122.416085 110.350452 
L 121.822956 109.328516 
L 121.092951 108.306581 
L 121.009305 107.284645 
L 120.606281 106.26271 
L 120.188049 105.240774 
L 119.655754 104.218839 
L 119.648149 103.196903 
L 119.30596 102.174968 
L 117.914387 101.153032 
L 117.374488 100.131097 
L 117.169174 99.109161 
L 117.001881 98.087226 
L 116.979068 97.06529 
L 116.385939 96.043355 
L 116.058958 95.021419 
L 114.598948 93.999484 
L 114.005819 92.977548 
L 113.967798 91.955613 
L 108.690469 90.933677 
L 105.937742 89.911742 
L 105.192528 88.889806 
L 101.512086 87.867871 
L 100.759268 86.845935 
L 100.272598 85.824 
L 99.337279 84.802065 
L 98.204251 83.780129 
L 98.181438 82.758194 
L 98.067375 81.736258 
L 96.462884 80.714323 
L 95.53517 80.714323 
L 94.265265 79.692387 
L 92.637962 79.692387 
L 92.143688 79.692387 
L 89.93086 78.670452 
L 88.508871 77.648516 
L 87.923346 76.626581 
L 86.432919 76.626581 
L 86.18198 75.604645 
L 84.37978 75.604645 
L 82.760081 75.604645 
L 81.558614 75.604645 
L 80.668921 74.58271 
L 79.072034 73.560774 
L 78.965575 72.538839 
L 78.866721 72.538839 
L 78.691824 71.516903 
L 78.43328 71.516903 
L 77.072125 71.516903 
L 76.539829 71.516903 
L 76.517017 71.516903 
L 76.34212 70.494968 
L 75.85545 70.494968 
L 74.136896 69.473032 
L 73.85554 69.473032 
L 73.832727 69.473032 
z
" clip-path="url(#p7f22af5ef6)" style="fill: #7cfc00"/>
   </g>
   <g id="PolyCollection_3">
    <path d="M 73.832727 54.144 
L 73.832727 69.473032 
L 73.85554 69.473032 
L 74.136896 69.473032 
L 75.85545 70.494968 
L 76.34212 70.494968 
L 76.517017 71.516903 
L 76.539829 71.516903 
L 77.072125 71.516903 
L 78.43328 71.516903 
L 78.691824 71.516903 
L 78.866721 72.538839 
L 78.965575 72.538839 
L 79.072034 73.560774 
L 80.668921 74.58271 
L 81.558614 75.604645 
L 82.760081 75.604645 
L 84.37978 75.604645 
L 86.18198 75.604645 
L 86.432919 76.626581 
L 87.923346 76.626581 
L 88.508871 77.648516 
L 89.93086 78.670452 
L 92.143688 79.692387 
L 92.637962 79.692387 
L 94.265265 79.692387 
L 95.53517 80.714323 
L 96.462884 80.714323 
L 98.067375 81.736258 
L 98.181438 82.758194 
L 98.204251 83.780129 
L 99.337279 84.802065 
L 100.272598 85.824 
L 100.759268 86.845935 
L 101.512086 87.867871 
L 105.192528 88.889806 
L 105.937742 89.911742 
L 108.690469 90.933677 
L 113.967798 91.955613 
L 114.005819 92.977548 
L 114.598948 93.999484 
L 116.058958 95.021419 
L 116.385939 96.043355 
L 116.979068 97.06529 
L 117.001881 98.087226 
L 117.169174 99.109161 
L 117.374488 100.131097 
L 117.914387 101.153032 
L 119.30596 102.174968 
L 119.648149 103.196903 
L 119.655754 104.218839 
L 120.188049 105.240774 
L 120.606281 106.26271 
L 121.009305 107.284645 
L 121.092951 108.306581 
L 121.822956 109.328516 
L 122.416085 110.350452 
L 122.469315 111.372387 
L 122.705046 112.394323 
L 122.834317 113.416258 
L 123.05484 114.438194 
L 123.381821 115.460129 
L 123.63276 116.482065 
L 123.678386 117.504 
L 123.845679 118.525935 
L 124.043388 119.547871 
L 124.089014 120.569806 
L 124.157452 121.591742 
L 125.328501 122.613677 
L 125.63267 124.657548 
L 125.739129 125.679484 
L 125.860797 126.701419 
L 126.02809 127.723355 
L 126.195382 128.74529 
L 126.400696 129.767226 
L 126.689657 130.789161 
L 127.031847 131.811097 
L 127.351224 132.833032 
L 127.609767 133.854968 
L 129.533635 134.876903 
L 129.564052 135.898839 
L 130.141972 136.920774 
L 130.301661 137.94271 
L 130.385307 138.964645 
L 130.909999 139.986581 
L 132.187507 141.008516 
L 132.301571 142.030452 
L 132.795845 143.052387 
L 133.541058 144.074323 
L 134.6969 145.096258 
L 134.902214 146.118194 
L 135.221591 147.140129 
L 135.898366 148.162065 
L 137.038999 149.184 
L 137.974318 150.205935 
L 138.019944 151.227871 
L 138.035152 152.249806 
L 138.187237 153.271742 
L 138.308904 154.293677 
L 139.343078 155.315613 
L 140.384856 156.337548 
L 140.53694 157.359484 
L 141.038819 158.381419 
L 141.837262 159.403355 
L 142.909457 160.42529 
L 143.053937 161.447226 
L 143.373314 162.469161 
L 143.85238 163.491097 
L 144.088111 164.513032 
L 144.270612 165.534968 
L 144.848533 166.556903 
L 145.046242 167.578839 
L 145.145097 168.600774 
L 145.22114 169.62271 
L 145.228744 170.644645 
L 145.274369 171.666581 
L 146.095625 172.688516 
L 146.703962 173.710452 
L 146.780005 174.732387 
L 147.122194 175.754323 
L 147.700115 176.776258 
L 148.019492 177.798194 
L 148.376891 178.820129 
L 148.840748 179.842065 
L 149.373043 180.864 
L 149.882526 181.885935 
L 150.582114 182.907871 
L 151.289307 183.929806 
L 153.715053 184.951742 
L 154.308182 185.973677 
L 154.330994 186.995613 
L 155.54767 188.017548 
L 155.7834 189.039484 
L 156.695907 190.061419 
L 156.893616 191.083355 
L 157.190181 192.10529 
L 157.486746 193.127226 
L 157.889769 194.149161 
L 160.011346 195.171097 
L 160.376349 196.193032 
L 160.665309 197.214968 
L 162.490322 198.236903 
L 162.596781 199.258839 
L 162.657615 200.280774 
L 163.144285 201.30271 
L 163.433245 202.324645 
L 163.630955 204.368516 
L 165.007319 205.390452 
L 165.942638 206.412387 
L 166.550975 207.434323 
L 166.642226 208.456258 
L 167.037645 209.478194 
L 167.395043 210.500129 
L 167.440669 211.522065 
L 167.539524 212.544 
L 167.569941 213.565935 
L 167.62317 214.587871 
L 168.45203 215.609806 
L 169.524225 216.631742 
L 170.345481 217.653677 
L 170.999443 218.675613 
L 171.622989 219.697548 
L 171.927158 220.719484 
L 172.231327 221.741419 
L 173.600087 222.763355 
L 173.980298 223.78529 
L 174.97645 224.807226 
L 175.94979 225.829161 
L 177.493447 226.851097 
L 178.048555 227.873032 
L 178.314703 228.894968 
L 179.569399 229.916903 
L 180.991388 230.938839 
L 181.173889 231.960774 
L 181.75181 232.98271 
L 182.147229 234.004645 
L 183.84297 235.026581 
L 183.888595 236.048516 
L 184.025471 237.070452 
L 184.793498 238.092387 
L 185.417044 239.114323 
L 185.561524 240.136258 
L 188.724879 241.158194 
L 189.135507 242.180129 
L 189.477697 243.202065 
L 190.800831 244.224 
L 191.439585 245.245935 
L 193.05168 246.267871 
L 193.378661 247.289806 
L 194.359606 248.311742 
L 194.443252 249.333677 
L 198.846095 250.355613 
L 200.40496 251.377548 
L 201.325071 252.399484 
L 201.788928 253.421419 
L 202.853519 254.443355 
L 203.933318 255.46529 
L 204.093007 256.487226 
L 204.792595 257.509161 
L 204.89145 258.531097 
L 206.853338 259.553032 
L 208.435016 260.574968 
L 210.381696 261.596903 
L 211.583163 262.618839 
L 213.339737 263.640774 
L 214.647663 264.66271 
L 216.320591 265.684645 
L 216.700802 266.706581 
L 217.468829 267.728516 
L 219.864158 268.750452 
L 220.016242 269.772387 
L 223.118764 270.794323 
L 225.392425 271.816258 
L 225.415238 272.838194 
L 229.194535 273.860129 
L 234.981346 274.882065 
L 239.057208 275.904 
L 239.695962 276.925935 
L 239.954506 277.947871 
L 240.114194 278.969806 
L 240.296695 279.991742 
L 244.091201 281.013677 
L 244.532246 282.035613 
L 244.798393 283.057548 
L 245.31548 284.079484 
L 250.425516 285.101419 
L 254.851171 286.123355 
L 255.877741 287.14529 
L 255.923366 288.167226 
L 256.18191 289.189161 
L 260.098083 290.211097 
L 270.378988 291.233032 
L 273.299008 292.254968 
L 273.397863 293.276903 
L 283.5571 294.298839 
L 286.431495 295.320774 
L 289.610059 296.34271 
L 301.366182 297.364645 
L 303.982033 298.386581 
L 309.114881 299.408516 
L 313.411265 300.430452 
L 316.209618 301.452387 
L 340.05645 302.474323 
L 340.59635 303.496258 
L 349.006617 304.518194 
L 386.404168 305.540129 
L 398.487273 306.562065 
L 398.487273 306.562065 
L 398.487273 306.562065 
L 386.404168 305.540129 
L 349.006617 304.518194 
L 340.59635 303.496258 
L 340.05645 302.474323 
L 316.209618 301.452387 
L 313.411265 300.430452 
L 309.114881 299.408516 
L 303.982033 298.386581 
L 301.366182 297.364645 
L 289.610059 296.34271 
L 286.431495 295.320774 
L 283.5571 294.298839 
L 273.397863 293.276903 
L 273.299008 292.254968 
L 270.378988 291.233032 
L 260.098083 290.211097 
L 256.18191 289.189161 
L 255.923366 288.167226 
L 255.877741 287.14529 
L 254.851171 286.123355 
L 250.425516 285.101419 
L 245.31548 284.079484 
L 244.798393 283.057548 
L 244.532246 282.035613 
L 244.091201 281.013677 
L 240.296695 279.991742 
L 240.114194 278.969806 
L 239.954506 277.947871 
L 239.695962 276.925935 
L 239.057208 275.904 
L 234.981346 274.882065 
L 229.194535 273.860129 
L 225.415238 272.838194 
L 225.392425 271.816258 
L 223.118764 270.794323 
L 220.016242 269.772387 
L 219.864158 268.750452 
L 217.468829 267.728516 
L 216.700802 266.706581 
L 216.320591 265.684645 
L 214.647663 264.66271 
L 213.339737 263.640774 
L 211.583163 262.618839 
L 210.381696 261.596903 
L 208.435016 260.574968 
L 206.853338 259.553032 
L 204.89145 258.531097 
L 204.792595 257.509161 
L 204.093007 256.487226 
L 203.933318 255.46529 
L 202.853519 254.443355 
L 201.788928 253.421419 
L 201.325071 252.399484 
L 200.40496 251.377548 
L 198.846095 250.355613 
L 194.443252 249.333677 
L 194.359606 248.311742 
L 193.378661 247.289806 
L 193.05168 246.267871 
L 191.439585 245.245935 
L 190.800831 244.224 
L 189.477697 243.202065 
L 189.135507 242.180129 
L 188.724879 241.158194 
L 185.561524 240.136258 
L 185.417044 239.114323 
L 184.793498 238.092387 
L 184.025471 237.070452 
L 183.888595 236.048516 
L 183.84297 235.026581 
L 182.147229 234.004645 
L 181.75181 232.98271 
L 181.173889 231.960774 
L 180.991388 230.938839 
L 179.569399 229.916903 
L 178.314703 228.894968 
L 178.048555 227.873032 
L 177.493447 226.851097 
L 175.94979 225.829161 
L 174.97645 224.807226 
L 173.980298 223.78529 
L 173.600087 222.763355 
L 172.231327 221.741419 
L 171.927158 220.719484 
L 171.622989 219.697548 
L 170.999443 218.675613 
L 170.345481 217.653677 
L 169.524225 216.631742 
L 168.45203 215.609806 
L 167.62317 214.587871 
L 167.569941 213.565935 
L 167.539524 212.544 
L 167.440669 211.522065 
L 167.395043 210.500129 
L 167.037645 209.478194 
L 166.642226 208.456258 
L 166.550975 207.434323 
L 165.942638 206.412387 
L 165.007319 205.390452 
L 163.630955 204.368516 
L 163.433245 202.324645 
L 163.144285 201.30271 
L 162.657615 200.280774 
L 162.596781 199.258839 
L 162.490322 198.236903 
L 160.665309 197.214968 
L 160.376349 196.193032 
L 160.011346 195.171097 
L 157.889769 194.149161 
L 157.486746 193.127226 
L 157.190181 192.10529 
L 156.893616 191.083355 
L 156.695907 190.061419 
L 155.7834 189.039484 
L 155.54767 188.017548 
L 154.330994 186.995613 
L 154.308182 185.973677 
L 153.715053 184.951742 
L 151.289307 183.929806 
L 150.582114 182.907871 
L 149.882526 181.885935 
L 149.373043 180.864 
L 148.840748 179.842065 
L 148.376891 178.820129 
L 148.019492 177.798194 
L 147.700115 176.776258 
L 147.122194 175.754323 
L 146.780005 174.732387 
L 146.703962 173.710452 
L 146.095625 172.688516 
L 145.274369 171.666581 
L 145.228744 170.644645 
L 145.22114 169.62271 
L 145.145097 168.600774 
L 145.046242 167.578839 
L 144.848533 166.556903 
L 144.270612 165.534968 
L 144.088111 164.513032 
L 143.85238 163.491097 
L 143.373314 162.469161 
L 143.053937 161.447226 
L 142.909457 160.42529 
L 141.837262 159.403355 
L 141.038819 158.381419 
L 140.53694 157.359484 
L 140.384856 156.337548 
L 139.343078 155.315613 
L 138.308904 154.293677 
L 138.187237 153.271742 
L 138.035152 152.249806 
L 138.019944 151.227871 
L 137.974318 150.205935 
L 137.038999 149.184 
L 135.898366 148.162065 
L 135.221591 147.140129 
L 134.902214 146.118194 
L 134.6969 145.096258 
L 133.541058 144.074323 
L 132.795845 143.052387 
L 132.301571 142.030452 
L 132.187507 141.008516 
L 130.909999 139.986581 
L 130.385307 138.964645 
L 130.301661 137.94271 
L 130.141972 136.920774 
L 129.564052 135.898839 
L 129.533635 134.876903 
L 127.609767 133.854968 
L 127.351224 132.833032 
L 127.031847 131.811097 
L 126.689657 130.789161 
L 126.400696 129.767226 
L 126.195382 128.74529 
L 126.02809 127.723355 
L 125.860797 126.701419 
L 125.739129 125.679484 
L 125.63267 124.657548 
L 125.328501 122.613677 
L 124.157452 121.591742 
L 124.089014 120.569806 
L 124.043388 119.547871 
L 123.845679 118.525935 
L 123.678386 117.504 
L 123.63276 116.482065 
L 123.381821 115.460129 
L 123.05484 114.438194 
L 122.834317 113.416258 
L 122.705046 112.394323 
L 122.469315 111.372387 
L 122.416085 110.350452 
L 121.822956 109.328516 
L 121.092951 108.306581 
L 121.009305 107.284645 
L 120.606281 106.26271 
L 120.188049 105.240774 
L 119.655754 104.218839 
L 119.648149 103.196903 
L 119.30596 102.174968 
L 117.914387 101.153032 
L 117.374488 100.131097 
L 117.169174 99.109161 
L 117.001881 98.087226 
L 116.979068 97.06529 
L 116.385939 96.043355 
L 116.058958 95.021419 
L 114.598948 93.999484 
L 114.005819 92.977548 
L 113.967798 91.955613 
L 108.690469 90.933677 
L 105.937742 89.911742 
L 105.192528 88.889806 
L 101.512086 87.867871 
L 100.759268 86.845935 
L 100.272598 85.824 
L 99.337279 84.802065 
L 98.204251 83.780129 
L 98.181438 82.758194 
L 98.067375 81.736258 
L 96.462884 80.714323 
L 95.53517 79.692387 
L 94.265265 78.670452 
L 92.637962 77.648516 
L 92.143688 76.626581 
L 89.93086 75.604645 
L 88.508871 74.58271 
L 87.923346 73.560774 
L 86.432919 72.538839 
L 86.18198 71.516903 
L 84.37978 70.494968 
L 82.760081 69.473032 
L 81.558614 68.451097 
L 80.668921 67.429161 
L 79.072034 66.407226 
L 78.965575 65.38529 
L 78.866721 64.363355 
L 78.691824 63.341419 
L 78.43328 62.319484 
L 77.072125 61.297548 
L 76.539829 60.275613 
L 76.517017 59.253677 
L 76.34212 58.231742 
L 75.85545 57.209806 
L 74.136896 56.187871 
L 73.85554 55.165935 
L 73.832727 54.144 
z
" clip-path="url(#p7f22af5ef6)" style="fill: #ff0000"/>
   </g>
   <g id="matplotlib.axis_1">
    <g id="xtick_1">
     <g id="line2d_1">
      <defs>
       <path id="mc28e36b8da" d="M 0 0 
L 0 3.5 
" style="stroke: #000000; stroke-width: 0.8"/>
      </defs>
      <g>
       <use xlink:href="#mc28e36b8da" x="130.06593" y="307.584" style="stroke: #000000; stroke-width: 0.8"/>
      </g>
     </g>
     <g id="text_1">
      <!-- 100 -->
      <g transform="translate(120.52218 322.182437) scale(0.1 -0.1)">
       <defs>
        <path id="DejaVuSans-31" d="M 794 531 
L 1825 531 
L 1825 4091 
L 703 3866 
L 703 4441 
L 1819 4666 
L 2450 4666 
L 2450 531 
L 3481 531 
L 3481 0 
L 794 0 
L 794 531 
z
" transform="scale(0.015625)"/>
        <path id="DejaVuSans-30" d="M 2034 4250 
Q 1547 4250 1301 3770 
Q 1056 3291 1056 2328 
Q 1056 1369 1301 889 
Q 1547 409 2034 409 
Q 2525 409 2770 889 
Q 3016 1369 3016 2328 
Q 3016 3291 2770 3770 
Q 2525 4250 2034 4250 
z
M 2034 4750 
Q 2819 4750 3233 4129 
Q 3647 3509 3647 2328 
Q 3647 1150 3233 529 
Q 2819 -91 2034 -91 
Q 1250 -91 836 529 
Q 422 1150 422 2328 
Q 422 3509 836 4129 
Q 1250 4750 2034 4750 
z
" transform="scale(0.015625)"/>
       </defs>
       <use xlink:href="#DejaVuSans-31"/>
       <use xlink:href="#DejaVuSans-30" x="63.623047"/>
       <use xlink:href="#DejaVuSans-30" x="127.246094"/>
      </g>
     </g>
    </g>
    <g id="xtick_2">
     <g id="line2d_2">
      <g>
       <use xlink:href="#mc28e36b8da" x="206.108125" y="307.584" style="stroke: #000000; stroke-width: 0.8"/>
      </g>
     </g>
     <g id="text_2">
      <!-- 200 -->
      <g transform="translate(196.564375 322.182437) scale(0.1 -0.1)">
       <defs>
        <path id="DejaVuSans-32" d="M 1228 531 
L 3431 531 
L 3431 0 
L 469 0 
L 469 531 
Q 828 903 1448 1529 
Q 2069 2156 2228 2338 
Q 2531 2678 2651 2914 
Q 2772 3150 2772 3378 
Q 2772 3750 2511 3984 
Q 2250 4219 1831 4219 
Q 1534 4219 1204 4116 
Q 875 4013 500 3803 
L 500 4441 
Q 881 4594 1212 4672 
Q 1544 4750 1819 4750 
Q 2544 4750 2975 4387 
Q 3406 4025 3406 3419 
Q 3406 3131 3298 2873 
Q 3191 2616 2906 2266 
Q 2828 2175 2409 1742 
Q 1991 1309 1228 531 
z
" transform="scale(0.015625)"/>
       </defs>
       <use xlink:href="#DejaVuSans-32"/>
       <use xlink:href="#DejaVuSans-30" x="63.623047"/>
       <use xlink:href="#DejaVuSans-30" x="127.246094"/>
      </g>
     </g>
    </g>
    <g id="xtick_3">
     <g id="line2d_3">
      <g>
       <use xlink:href="#mc28e36b8da" x="282.150319" y="307.584" style="stroke: #000000; stroke-width: 0.8"/>
      </g>
     </g>
     <g id="text_3">
      <!-- 300 -->
      <g transform="translate(272.606569 322.182437) scale(0.1 -0.1)">
       <defs>
        <path id="DejaVuSans-33" d="M 2597 2516 
Q 3050 2419 3304 2112 
Q 3559 1806 3559 1356 
Q 3559 666 3084 287 
Q 2609 -91 1734 -91 
Q 1441 -91 1130 -33 
Q 819 25 488 141 
L 488 750 
Q 750 597 1062 519 
Q 1375 441 1716 441 
Q 2309 441 2620 675 
Q 2931 909 2931 1356 
Q 2931 1769 2642 2001 
Q 2353 2234 1838 2234 
L 1294 2234 
L 1294 2753 
L 1863 2753 
Q 2328 2753 2575 2939 
Q 2822 3125 2822 3475 
Q 2822 3834 2567 4026 
Q 2313 4219 1838 4219 
Q 1578 4219 1281 4162 
Q 984 4106 628 3988 
L 628 4550 
Q 988 4650 1302 4700 
Q 1616 4750 1894 4750 
Q 2613 4750 3031 4423 
Q 3450 4097 3450 3541 
Q 3450 3153 3228 2886 
Q 3006 2619 2597 2516 
z
" transform="scale(0.015625)"/>
       </defs>
       <use xlink:href="#DejaVuSans-33"/>
       <use xlink:href="#DejaVuSans-30" x="63.623047"/>
       <use xlink:href="#DejaVuSans-30" x="127.246094"/>
      </g>
     </g>
    </g>
    <g id="xtick_4">
     <g id="line2d_4">
      <g>
       <use xlink:href="#mc28e36b8da" x="358.192514" y="307.584" style="stroke: #000000; stroke-width: 0.8"/>
      </g>
     </g>
     <g id="text_4">
      <!-- 400 -->
      <g transform="translate(348.648764 322.182437) scale(0.1 -0.1)">
       <defs>
        <path id="DejaVuSans-34" d="M 2419 4116 
L 825 1625 
L 2419 1625 
L 2419 4116 
z
M 2253 4666 
L 3047 4666 
L 3047 1625 
L 3713 1625 
L 3713 1100 
L 3047 1100 
L 3047 0 
L 2419 0 
L 2419 1100 
L 313 1100 
L 313 1709 
L 2253 4666 
z
" transform="scale(0.015625)"/>
       </defs>
       <use xlink:href="#DejaVuSans-34"/>
       <use xlink:href="#DejaVuSans-30" x="63.623047"/>
       <use xlink:href="#DejaVuSans-30" x="127.246094"/>
      </g>
     </g>
    </g>
    <g id="text_5">
     <!-- Score -->
     <g transform="translate(222.157656 335.860562) scale(0.1 -0.1)">
      <defs>
       <path id="DejaVuSans-53" d="M 3425 4513 
L 3425 3897 
Q 3066 4069 2747 4153 
Q 2428 4238 2131 4238 
Q 1616 4238 1336 4038 
Q 1056 3838 1056 3469 
Q 1056 3159 1242 3001 
Q 1428 2844 1947 2747 
L 2328 2669 
Q 3034 2534 3370 2195 
Q 3706 1856 3706 1288 
Q 3706 609 3251 259 
Q 2797 -91 1919 -91 
Q 1588 -91 1214 -16 
Q 841 59 441 206 
L 441 856 
Q 825 641 1194 531 
Q 1563 422 1919 422 
Q 2459 422 2753 634 
Q 3047 847 3047 1241 
Q 3047 1584 2836 1778 
Q 2625 1972 2144 2069 
L 1759 2144 
Q 1053 2284 737 2584 
Q 422 2884 422 3419 
Q 422 4038 858 4394 
Q 1294 4750 2059 4750 
Q 2388 4750 2728 4690 
Q 3069 4631 3425 4513 
z
" transform="scale(0.015625)"/>
       <path id="DejaVuSans-63" d="M 3122 3366 
L 3122 2828 
Q 2878 2963 2633 3030 
Q 2388 3097 2138 3097 
Q 1578 3097 1268 2742 
Q 959 2388 959 1747 
Q 959 1106 1268 751 
Q 1578 397 2138 397 
Q 2388 397 2633 464 
Q 2878 531 3122 666 
L 3122 134 
Q 2881 22 2623 -34 
Q 2366 -91 2075 -91 
Q 1284 -91 818 406 
Q 353 903 353 1747 
Q 353 2603 823 3093 
Q 1294 3584 2113 3584 
Q 2378 3584 2631 3529 
Q 2884 3475 3122 3366 
z
" transform="scale(0.015625)"/>
       <path id="DejaVuSans-6f" d="M 1959 3097 
Q 1497 3097 1228 2736 
Q 959 2375 959 1747 
Q 959 1119 1226 758 
Q 1494 397 1959 397 
Q 2419 397 2687 759 
Q 2956 1122 2956 1747 
Q 2956 2369 2687 2733 
Q 2419 3097 1959 3097 
z
M 1959 3584 
Q 2709 3584 3137 3096 
Q 3566 2609 3566 1747 
Q 3566 888 3137 398 
Q 2709 -91 1959 -91 
Q 1206 -91 779 398 
Q 353 888 353 1747 
Q 353 2609 779 3096 
Q 1206 3584 1959 3584 
z
" transform="scale(0.015625)"/>
       <path id="DejaVuSans-72" d="M 2631 2963 
Q 2534 3019 2420 3045 
Q 2306 3072 2169 3072 
Q 1681 3072 1420 2755 
Q 1159 2438 1159 1844 
L 1159 0 
L 581 0 
L 581 3500 
L 1159 3500 
L 1159 2956 
Q 1341 3275 1631 3429 
Q 1922 3584 2338 3584 
Q 2397 3584 2469 3576 
Q 2541 3569 2628 3553 
L 2631 2963 
z
" transform="scale(0.015625)"/>
       <path id="DejaVuSans-65" d="M 3597 1894 
L 3597 1613 
L 953 1613 
Q 991 1019 1311 708 
Q 1631 397 2203 397 
Q 2534 397 2845 478 
Q 3156 559 3463 722 
L 3463 178 
Q 3153 47 2828 -22 
Q 2503 -91 2169 -91 
Q 1331 -91 842 396 
Q 353 884 353 1716 
Q 353 2575 817 3079 
Q 1281 3584 2069 3584 
Q 2775 3584 3186 3129 
Q 3597 2675 3597 1894 
z
M 3022 2063 
Q 3016 2534 2758 2815 
Q 2500 3097 2075 3097 
Q 1594 3097 1305 2825 
Q 1016 2553 972 2059 
L 3022 2063 
z
" transform="scale(0.015625)"/>
      </defs>
      <use xlink:href="#DejaVuSans-53"/>
      <use xlink:href="#DejaVuSans-63" x="63.476562"/>
      <use xlink:href="#DejaVuSans-6f" x="118.457031"/>
      <use xlink:href="#DejaVuSans-72" x="179.638672"/>
      <use xlink:href="#DejaVuSans-65" x="218.501953"/>
     </g>
    </g>
   </g>
   <g id="matplotlib.axis_2">
    <g id="ytick_1">
     <g id="line2d_5">
      <defs>
       <path id="m8a2507ef75" d="M 0 0 
L -3.5 0 
" style="stroke: #000000; stroke-width: 0.8"/>
      </defs>
      <g>
       <use xlink:href="#m8a2507ef75" x="57.6" y="307.584" style="stroke: #000000; stroke-width: 0.8"/>
      </g>
     </g>
     <g id="text_6">
      <!-- 0 -->
      <g transform="translate(44.2375 311.383219) scale(0.1 -0.1)">
       <use xlink:href="#DejaVuSans-30"/>
      </g>
     </g>
    </g>
    <g id="ytick_2">
     <g id="line2d_6">
      <g>
       <use xlink:href="#m8a2507ef75" x="57.6" y="256.487226" style="stroke: #000000; stroke-width: 0.8"/>
      </g>
     </g>
     <g id="text_7">
      <!-- 50 -->
      <g transform="translate(37.875 260.286445) scale(0.1 -0.1)">
       <defs>
        <path id="DejaVuSans-35" d="M 691 4666 
L 3169 4666 
L 3169 4134 
L 1269 4134 
L 1269 2991 
Q 1406 3038 1543 3061 
Q 1681 3084 1819 3084 
Q 2600 3084 3056 2656 
Q 3513 2228 3513 1497 
Q 3513 744 3044 326 
Q 2575 -91 1722 -91 
Q 1428 -91 1123 -41 
Q 819 9 494 109 
L 494 744 
Q 775 591 1075 516 
Q 1375 441 1709 441 
Q 2250 441 2565 725 
Q 2881 1009 2881 1497 
Q 2881 1984 2565 2268 
Q 2250 2553 1709 2553 
Q 1456 2553 1204 2497 
Q 953 2441 691 2322 
L 691 4666 
z
" transform="scale(0.015625)"/>
       </defs>
       <use xlink:href="#DejaVuSans-35"/>
       <use xlink:href="#DejaVuSans-30" x="63.623047"/>
      </g>
     </g>
    </g>
    <g id="ytick_3">
     <g id="line2d_7">
      <g>
       <use xlink:href="#m8a2507ef75" x="57.6" y="205.390452" style="stroke: #000000; stroke-width: 0.8"/>
      </g>
     </g>
     <g id="text_8">
      <!-- 100 -->
      <g transform="translate(31.5125 209.18967) scale(0.1 -0.1)">
       <use xlink:href="#DejaVuSans-31"/>
       <use xlink:href="#DejaVuSans-30" x="63.623047"/>
       <use xlink:href="#DejaVuSans-30" x="127.246094"/>
      </g>
     </g>
    </g>
    <g id="ytick_4">
     <g id="line2d_8">
      <g>
       <use xlink:href="#m8a2507ef75" x="57.6" y="154.293677" style="stroke: #000000; stroke-width: 0.8"/>
      </g>
     </g>
     <g id="text_9">
      <!-- 150 -->
      <g transform="translate(31.5125 158.092896) scale(0.1 -0.1)">
       <use xlink:href="#DejaVuSans-31"/>
       <use xlink:href="#DejaVuSans-35" x="63.623047"/>
       <use xlink:href="#DejaVuSans-30" x="127.246094"/>
      </g>
     </g>
    </g>
    <g id="ytick_5">
     <g id="line2d_9">
      <g>
       <use xlink:href="#m8a2507ef75" x="57.6" y="103.196903" style="stroke: #000000; stroke-width: 0.8"/>
      </g>
     </g>
     <g id="text_10">
      <!-- 200 -->
      <g transform="translate(31.5125 106.996122) scale(0.1 -0.1)">
       <use xlink:href="#DejaVuSans-32"/>
       <use xlink:href="#DejaVuSans-30" x="63.623047"/>
       <use xlink:href="#DejaVuSans-30" x="127.246094"/>
      </g>
     </g>
    </g>
    <g id="ytick_6">
     <g id="line2d_10">
      <g>
       <use xlink:href="#m8a2507ef75" x="57.6" y="52.100129" style="stroke: #000000; stroke-width: 0.8"/>
      </g>
     </g>
     <g id="text_11">
      <!-- 250 -->
      <g transform="translate(31.5125 55.899348) scale(0.1 -0.1)">
       <use xlink:href="#DejaVuSans-32"/>
       <use xlink:href="#DejaVuSans-35" x="63.623047"/>
       <use xlink:href="#DejaVuSans-30" x="127.246094"/>
      </g>
     </g>
    </g>
    <g id="text_12">
     <!-- Number of crosslinks -->
     <g transform="translate(25.432812 227.019406) rotate(-90) scale(0.1 -0.1)">
      <defs>
       <path id="DejaVuSans-4e" d="M 628 4666 
L 1478 4666 
L 3547 763 
L 3547 4666 
L 4159 4666 
L 4159 0 
L 3309 0 
L 1241 3903 
L 1241 0 
L 628 0 
L 628 4666 
z
" transform="scale(0.015625)"/>
       <path id="DejaVuSans-75" d="M 544 1381 
L 544 3500 
L 1119 3500 
L 1119 1403 
Q 1119 906 1312 657 
Q 1506 409 1894 409 
Q 2359 409 2629 706 
Q 2900 1003 2900 1516 
L 2900 3500 
L 3475 3500 
L 3475 0 
L 2900 0 
L 2900 538 
Q 2691 219 2414 64 
Q 2138 -91 1772 -91 
Q 1169 -91 856 284 
Q 544 659 544 1381 
z
M 1991 3584 
L 1991 3584 
z
" transform="scale(0.015625)"/>
       <path id="DejaVuSans-6d" d="M 3328 2828 
Q 3544 3216 3844 3400 
Q 4144 3584 4550 3584 
Q 5097 3584 5394 3201 
Q 5691 2819 5691 2113 
L 5691 0 
L 5113 0 
L 5113 2094 
Q 5113 2597 4934 2840 
Q 4756 3084 4391 3084 
Q 3944 3084 3684 2787 
Q 3425 2491 3425 1978 
L 3425 0 
L 2847 0 
L 2847 2094 
Q 2847 2600 2669 2842 
Q 2491 3084 2119 3084 
Q 1678 3084 1418 2786 
Q 1159 2488 1159 1978 
L 1159 0 
L 581 0 
L 581 3500 
L 1159 3500 
L 1159 2956 
Q 1356 3278 1631 3431 
Q 1906 3584 2284 3584 
Q 2666 3584 2933 3390 
Q 3200 3197 3328 2828 
z
" transform="scale(0.015625)"/>
       <path id="DejaVuSans-62" d="M 3116 1747 
Q 3116 2381 2855 2742 
Q 2594 3103 2138 3103 
Q 1681 3103 1420 2742 
Q 1159 2381 1159 1747 
Q 1159 1113 1420 752 
Q 1681 391 2138 391 
Q 2594 391 2855 752 
Q 3116 1113 3116 1747 
z
M 1159 2969 
Q 1341 3281 1617 3432 
Q 1894 3584 2278 3584 
Q 2916 3584 3314 3078 
Q 3713 2572 3713 1747 
Q 3713 922 3314 415 
Q 2916 -91 2278 -91 
Q 1894 -91 1617 61 
Q 1341 213 1159 525 
L 1159 0 
L 581 0 
L 581 4863 
L 1159 4863 
L 1159 2969 
z
" transform="scale(0.015625)"/>
       <path id="DejaVuSans-20" transform="scale(0.015625)"/>
       <path id="DejaVuSans-66" d="M 2375 4863 
L 2375 4384 
L 1825 4384 
Q 1516 4384 1395 4259 
Q 1275 4134 1275 3809 
L 1275 3500 
L 2222 3500 
L 2222 3053 
L 1275 3053 
L 1275 0 
L 697 0 
L 697 3053 
L 147 3053 
L 147 3500 
L 697 3500 
L 697 3744 
Q 697 4328 969 4595 
Q 1241 4863 1831 4863 
L 2375 4863 
z
" transform="scale(0.015625)"/>
       <path id="DejaVuSans-73" d="M 2834 3397 
L 2834 2853 
Q 2591 2978 2328 3040 
Q 2066 3103 1784 3103 
Q 1356 3103 1142 2972 
Q 928 2841 928 2578 
Q 928 2378 1081 2264 
Q 1234 2150 1697 2047 
L 1894 2003 
Q 2506 1872 2764 1633 
Q 3022 1394 3022 966 
Q 3022 478 2636 193 
Q 2250 -91 1575 -91 
Q 1294 -91 989 -36 
Q 684 19 347 128 
L 347 722 
Q 666 556 975 473 
Q 1284 391 1588 391 
Q 1994 391 2212 530 
Q 2431 669 2431 922 
Q 2431 1156 2273 1281 
Q 2116 1406 1581 1522 
L 1381 1569 
Q 847 1681 609 1914 
Q 372 2147 372 2553 
Q 372 3047 722 3315 
Q 1072 3584 1716 3584 
Q 2034 3584 2315 3537 
Q 2597 3491 2834 3397 
z
" transform="scale(0.015625)"/>
       <path id="DejaVuSans-6c" d="M 603 4863 
L 1178 4863 
L 1178 0 
L 603 0 
L 603 4863 
z
" transform="scale(0.015625)"/>
       <path id="DejaVuSans-69" d="M 603 3500 
L 1178 3500 
L 1178 0 
L 603 0 
L 603 3500 
z
M 603 4863 
L 1178 4863 
L 1178 4134 
L 603 4134 
L 603 4863 
z
" transform="scale(0.015625)"/>
       <path id="DejaVuSans-6e" d="M 3513 2113 
L 3513 0 
L 2938 0 
L 2938 2094 
Q 2938 2591 2744 2837 
Q 2550 3084 2163 3084 
Q 1697 3084 1428 2787 
Q 1159 2491 1159 1978 
L 1159 0 
L 581 0 
L 581 3500 
L 1159 3500 
L 1159 2956 
Q 1366 3272 1645 3428 
Q 1925 3584 2291 3584 
Q 2894 3584 3203 3211 
Q 3513 2838 3513 2113 
z
" transform="scale(0.015625)"/>
       <path id="DejaVuSans-6b" d="M 581 4863 
L 1159 4863 
L 1159 1991 
L 2875 3500 
L 3609 3500 
L 1753 1863 
L 3688 0 
L 2938 0 
L 1159 1709 
L 1159 0 
L 581 0 
L 581 4863 
z
" transform="scale(0.015625)"/>
      </defs>
      <use xlink:href="#DejaVuSans-4e"/>
      <use xlink:href="#DejaVuSans-75" x="74.804688"/>
      <use xlink:href="#DejaVuSans-6d" x="138.183594"/>
      <use xlink:href="#DejaVuSans-62" x="235.595703"/>
      <use xlink:href="#DejaVuSans-65" x="299.072266"/>
      <use xlink:href="#DejaVuSans-72" x="360.595703"/>
      <use xlink:href="#DejaVuSans-20" x="401.708984"/>
      <use xlink:href="#DejaVuSans-6f" x="433.496094"/>
      <use xlink:href="#DejaVuSans-66" x="494.677734"/>
      <use xlink:href="#DejaVuSans-20" x="529.882812"/>
      <use xlink:href="#DejaVuSans-63" x="561.669922"/>
      <use xlink:href="#DejaVuSans-72" x="616.650391"/>
      <use xlink:href="#DejaVuSans-6f" x="655.513672"/>
      <use xlink:href="#DejaVuSans-73" x="716.695312"/>
      <use xlink:href="#DejaVuSans-73" x="768.794922"/>
      <use xlink:href="#DejaVuSans-6c" x="820.894531"/>
      <use xlink:href="#DejaVuSans-69" x="848.677734"/>
      <use xlink:href="#DejaVuSans-6e" x="876.460938"/>
      <use xlink:href="#DejaVuSans-6b" x="939.839844"/>
      <use xlink:href="#DejaVuSans-73" x="997.75"/>
     </g>
    </g>
   </g>
   <g id="patch_3">
    <path d="M 57.6 307.584 
L 57.6 41.472 
" style="fill: none; stroke: #000000; stroke-width: 0.8; stroke-linejoin: miter; stroke-linecap: square"/>
   </g>
   <g id="patch_4">
    <path d="M 414.72 307.584 
L 414.72 41.472 
" style="fill: none; stroke: #000000; stroke-width: 0.8; stroke-linejoin: miter; stroke-linecap: square"/>
   </g>
   <g id="patch_5">
    <path d="M 57.6 307.584 
L 414.72 307.584 
" style="fill: none; stroke: #000000; stroke-width: 0.8; stroke-linejoin: miter; stroke-linecap: square"/>
   </g>
   <g id="patch_6">
    <path d="M 57.6 41.472 
L 414.72 41.472 
" style="fill: none; stroke: #000000; stroke-width: 0.8; stroke-linejoin: miter; stroke-linecap: square"/>
   </g>
   <g id="legend_1">
    <g id="patch_7">
     <path d="M 293.087188 93.506375 
L 407.72 93.506375 
Q 409.72 93.506375 409.72 91.506375 
L 409.72 48.472 
Q 409.72 46.472 407.72 46.472 
L 293.087188 46.472 
Q 291.087188 46.472 291.087188 48.472 
L 291.087188 91.506375 
Q 291.087188 93.506375 293.087188 93.506375 
z
" style="fill: #ffffff; opacity: 0.8; stroke: #cccccc; stroke-linejoin: miter"/>
    </g>
    <g id="patch_8">
     <path d="M 295.087188 58.070438 
L 315.087188 58.070438 
L 315.087188 51.070438 
L 295.087188 51.070438 
z
" style="fill: #008000"/>
    </g>
    <g id="text_13">
     <!-- true -->
     <g transform="translate(323.087188 58.070438) scale(0.1 -0.1)">
      <defs>
       <path id="DejaVuSans-74" d="M 1172 4494 
L 1172 3500 
L 2356 3500 
L 2356 3053 
L 1172 3053 
L 1172 1153 
Q 1172 725 1289 603 
Q 1406 481 1766 481 
L 2356 481 
L 2356 0 
L 1766 0 
Q 1100 0 847 248 
Q 594 497 594 1153 
L 594 3053 
L 172 3053 
L 172 3500 
L 594 3500 
L 594 4494 
L 1172 4494 
z
" transform="scale(0.015625)"/>
      </defs>
      <use xlink:href="#DejaVuSans-74"/>
      <use xlink:href="#DejaVuSans-72" x="39.208984"/>
      <use xlink:href="#DejaVuSans-75" x="80.322266"/>
      <use xlink:href="#DejaVuSans-65" x="143.701172"/>
     </g>
    </g>
    <g id="patch_9">
     <path d="M 295.087188 72.748563 
L 315.087188 72.748563 
L 315.087188 65.748563 
L 295.087188 65.748563 
z
" style="fill: #7cfc00"/>
    </g>
    <g id="text_14">
     <!-- true homeotypic -->
     <g transform="translate(323.087188 72.748563) scale(0.1 -0.1)">
      <defs>
       <path id="DejaVuSans-68" d="M 3513 2113 
L 3513 0 
L 2938 0 
L 2938 2094 
Q 2938 2591 2744 2837 
Q 2550 3084 2163 3084 
Q 1697 3084 1428 2787 
Q 1159 2491 1159 1978 
L 1159 0 
L 581 0 
L 581 4863 
L 1159 4863 
L 1159 2956 
Q 1366 3272 1645 3428 
Q 1925 3584 2291 3584 
Q 2894 3584 3203 3211 
Q 3513 2838 3513 2113 
z
" transform="scale(0.015625)"/>
       <path id="DejaVuSans-79" d="M 2059 -325 
Q 1816 -950 1584 -1140 
Q 1353 -1331 966 -1331 
L 506 -1331 
L 506 -850 
L 844 -850 
Q 1081 -850 1212 -737 
Q 1344 -625 1503 -206 
L 1606 56 
L 191 3500 
L 800 3500 
L 1894 763 
L 2988 3500 
L 3597 3500 
L 2059 -325 
z
" transform="scale(0.015625)"/>
       <path id="DejaVuSans-70" d="M 1159 525 
L 1159 -1331 
L 581 -1331 
L 581 3500 
L 1159 3500 
L 1159 2969 
Q 1341 3281 1617 3432 
Q 1894 3584 2278 3584 
Q 2916 3584 3314 3078 
Q 3713 2572 3713 1747 
Q 3713 922 3314 415 
Q 2916 -91 2278 -91 
Q 1894 -91 1617 61 
Q 1341 213 1159 525 
z
M 3116 1747 
Q 3116 2381 2855 2742 
Q 2594 3103 2138 3103 
Q 1681 3103 1420 2742 
Q 1159 2381 1159 1747 
Q 1159 1113 1420 752 
Q 1681 391 2138 391 
Q 2594 391 2855 752 
Q 3116 1113 3116 1747 
z
" transform="scale(0.015625)"/>
      </defs>
      <use xlink:href="#DejaVuSans-74"/>
      <use xlink:href="#DejaVuSans-72" x="39.208984"/>
      <use xlink:href="#DejaVuSans-75" x="80.322266"/>
      <use xlink:href="#DejaVuSans-65" x="143.701172"/>
      <use xlink:href="#DejaVuSans-20" x="205.224609"/>
      <use xlink:href="#DejaVuSans-68" x="237.011719"/>
      <use xlink:href="#DejaVuSans-6f" x="300.390625"/>
      <use xlink:href="#DejaVuSans-6d" x="361.572266"/>
      <use xlink:href="#DejaVuSans-65" x="458.984375"/>
      <use xlink:href="#DejaVuSans-6f" x="520.507812"/>
      <use xlink:href="#DejaVuSans-74" x="581.689453"/>
      <use xlink:href="#DejaVuSans-79" x="620.898438"/>
      <use xlink:href="#DejaVuSans-70" x="680.078125"/>
      <use xlink:href="#DejaVuSans-69" x="743.554688"/>
      <use xlink:href="#DejaVuSans-63" x="771.337891"/>
     </g>
    </g>
    <g id="patch_10">
     <path d="M 295.087188 87.426688 
L 315.087188 87.426688 
L 315.087188 80.426688 
L 295.087188 80.426688 
z
" style="fill: #ff0000"/>
    </g>
    <g id="text_15">
     <!-- false -->
     <g transform="translate(323.087188 87.426688) scale(0.1 -0.1)">
      <defs>
       <path id="DejaVuSans-61" d="M 2194 1759 
Q 1497 1759 1228 1600 
Q 959 1441 959 1056 
Q 959 750 1161 570 
Q 1363 391 1709 391 
Q 2188 391 2477 730 
Q 2766 1069 2766 1631 
L 2766 1759 
L 2194 1759 
z
M 3341 1997 
L 3341 0 
L 2766 0 
L 2766 531 
Q 2569 213 2275 61 
Q 1981 -91 1556 -91 
Q 1019 -91 701 211 
Q 384 513 384 1019 
Q 384 1609 779 1909 
Q 1175 2209 1959 2209 
L 2766 2209 
L 2766 2266 
Q 2766 2663 2505 2880 
Q 2244 3097 1772 3097 
Q 1472 3097 1187 3025 
Q 903 2953 641 2809 
L 641 3341 
Q 956 3463 1253 3523 
Q 1550 3584 1831 3584 
Q 2591 3584 2966 3190 
Q 3341 2797 3341 1997 
z
" transform="scale(0.015625)"/>
      </defs>
      <use xlink:href="#DejaVuSans-66"/>
      <use xlink:href="#DejaVuSans-61" x="35.205078"/>
      <use xlink:href="#DejaVuSans-6c" x="96.484375"/>
      <use xlink:href="#DejaVuSans-73" x="124.267578"/>
      <use xlink:href="#DejaVuSans-65" x="176.367188"/>
     </g>
    </g>
   </g>
  </g>
 </g>
 <defs>
  <clipPath id="p7f22af5ef6">
   <rect x="57.6" y="41.472" width="357.12" height="266.112"/>
  </clipPath>
 </defs>
</svg>
