<?xml version="1.0" encoding="utf-8" standalone="no"?>
<!DOCTYPE svg PUBLIC "-//W3C//DTD SVG 1.1//EN"
  "http://www.w3.org/Graphics/SVG/1.1/DTD/svg11.dtd">
<svg xmlns:xlink="http://www.w3.org/1999/xlink" width="460.8pt" height="345.6pt" viewBox="0 0 460.8 345.6" xmlns="http://www.w3.org/2000/svg" version="1.1">
 <metadata>
  <rdf:RDF xmlns:dc="http://purl.org/dc/elements/1.1/" xmlns:cc="http://creativecommons.org/ns#" xmlns:rdf="http://www.w3.org/1999/02/22-rdf-syntax-ns#">
   <cc:Work>
    <dc:type rdf:resource="http://purl.org/dc/dcmitype/StillImage"/>
    <dc:date>2024-06-25T14:44:03.828174</dc:date>
    <dc:format>image/svg+xml</dc:format>
    <dc:creator>
     <cc:Agent>
      <dc:title>Matplotlib v3.9.0, https://matplotlib.org/</dc:title>
     </cc:Agent>
    </dc:creator>
   </cc:Work>
  </rdf:RDF>
 </metadata>
 <defs>
  <style type="text/css">*{stroke-linejoin: round; stroke-linecap: butt}</style>
 </defs>
 <g id="figure_1">
  <g id="patch_1">
   <path d="M 0 345.6 
L 460.8 345.6 
L 460.8 0 
L 0 0 
z
" style="fill: #ffffff"/>
  </g>
  <g id="axes_1">
   <g id="patch_2">
    <path d="M 57.6 307.584 
L 414.72 307.584 
L 414.72 41.472 
L 57.6 41.472 
z
" style="fill: #ffffff"/>
   </g>
   <g id="PolyCollection_1">
    <path d="M 73.832727 122.532571 
L 73.832727 307.584 
L 75.006464 307.584 
L 75.836939 307.584 
L 76.401661 307.584 
L 76.65634 307.584 
L 76.684022 307.584 
L 76.977457 307.584 
L 77.597544 307.584 
L 77.918661 307.584 
L 79.175445 307.584 
L 80.371328 307.584 
L 80.742273 307.584 
L 80.864076 307.584 
L 81.008025 307.584 
L 81.306996 307.584 
L 82.065496 307.584 
L 82.591463 307.584 
L 83.85932 307.584 
L 83.920222 307.584 
L 84.274557 307.584 
L 84.329922 307.584 
L 84.639966 307.584 
L 85.143787 307.584 
L 85.15486 307.584 
L 86.068382 307.584 
L 86.511301 307.584 
L 87.43036 307.584 
L 87.696111 307.584 
L 88.050447 307.584 
L 88.593024 307.584 
L 89.678177 307.584 
L 90.586162 307.584 
L 91.17303 307.584 
L 91.267151 307.584 
L 92.695567 307.584 
L 92.723249 307.584 
L 92.983464 307.584 
L 94.544756 307.584 
L 94.661022 307.584 
L 94.732997 307.584 
L 94.860336 307.584 
L 95.640982 307.584 
L 96.454847 307.584 
L 96.626478 307.584 
L 97.052788 307.584 
L 97.086007 307.584 
L 98.597471 307.584 
L 99.223095 307.584 
L 99.389189 307.584 
L 99.621722 307.584 
L 99.654941 307.584 
L 99.743525 307.584 
L 99.981594 307.584 
L 100.208591 307.584 
L 100.463269 307.584 
L 100.850824 307.584 
L 100.878507 307.584 
L 101.459839 307.584 
L 101.686835 307.584 
L 101.714517 307.584 
L 101.985806 307.584 
L 102.628039 307.584 
L 102.943619 307.584 
L 103.13186 307.584 
L 103.602462 307.584 
L 104.078601 307.584 
L 104.659933 307.584 
L 104.809418 307.584 
L 105.147144 307.584 
L 105.623283 307.584 
L 106.880067 307.584 
L 106.918823 307.584 
L 106.929896 307.584 
L 107.533374 307.584 
L 108.900888 307.584 
L 109.399173 307.584 
L 109.449001 307.584 
L 109.509903 307.584 
L 109.919603 307.584 
L 109.986041 307.584 
L 110.069089 307.584 
L 110.262866 307.584 
L 110.5563 307.584 
L 111.060121 307.584 
L 111.419994 307.584 
L 111.685745 307.584 
L 111.796475 307.584 
L 112.078837 307.584 
L 112.577121 307.584 
L 113.474033 307.584 
L 113.485106 307.584 
L 113.784077 307.584 
L 113.983391 307.584 
L 114.155022 307.584 
L 114.337727 307.584 
L 114.586869 307.584 
L 114.863694 307.584 
L 114.907986 307.584 
L 115.588975 307.584 
L 115.970993 307.584 
L 116.037431 307.584 
L 116.076186 307.584 
L 116.114942 307.584 
L 116.148161 307.584 
L 116.458204 307.584 
L 116.491423 307.584 
L 116.834686 307.584 
L 117.155803 307.584 
L 117.864474 307.584 
L 118.10808 307.584 
L 118.307394 307.584 
L 118.523317 307.584 
L 118.84997 307.584 
L 119.027138 307.584 
L 119.231988 307.584 
L 119.508813 307.584 
L 119.580788 307.584 
L 120.389116 307.584 
L 120.715769 307.584 
L 120.782207 307.584 
L 121.230663 307.584 
L 122.238305 307.584 
L 122.332426 307.584 
L 123.118608 307.584 
L 123.317922 307.584 
L 123.417579 307.584 
L 123.932473 307.584 
L 124.99548 307.584 
L 125.53252 307.584 
L 125.792735 307.584 
L 126.313166 307.584 
L 127.3651 307.584 
L 127.431538 307.584 
L 127.774801 307.584 
L 128.256476 307.584 
L 128.583129 307.584 
L 129.175534 307.584 
L 129.712574 307.584 
L 130.25515 307.584 
L 130.482147 307.584 
L 131.085625 307.584 
L 131.257256 307.584 
L 132.187387 307.584 
L 132.248289 307.584 
L 132.569405 307.584 
L 132.807475 307.584 
L 132.945887 307.584 
L 133.128591 307.584 
L 133.93692 307.584 
L 134.712029 307.584 
L 135.060828 307.584 
L 135.138339 307.584 
L 135.53143 307.584 
L 135.7695 307.584 
L 137.723883 307.584 
L 137.773711 307.584 
L 138.02839 307.584 
L 138.24985 307.584 
L 139.63951 307.584 
L 140.254061 307.584 
L 140.647152 307.584 
L 141.721232 307.584 
L 142.418831 307.584 
L 142.524024 307.584 
L 142.800849 307.584 
L 143.459692 307.584 
L 143.797418 307.584 
L 143.814027 307.584 
L 144.1739 307.584 
L 144.295702 307.584 
L 144.439651 307.584 
L 144.544845 307.584 
L 145.458366 307.584 
L 146.255622 307.584 
L 146.737297 307.584 
L 147.097169 307.584 
L 147.783694 307.584 
L 148.769191 307.584 
L 148.774727 307.584 
L 149.10138 307.584 
L 149.145672 307.584 
L 149.649493 307.584 
L 150.424603 307.584 
L 150.474431 307.584 
L 150.790011 307.584 
L 151.338124 307.584 
L 152.755467 307.584 
L 153.43092 307.584 
L 154.200492 307.584 
L 155.523715 307.584 
L 155.639981 307.584 
L 155.89466 307.584 
L 156.309897 307.584 
L 157.267711 307.584 
L 157.356295 307.584 
L 157.372904 307.584 
L 158.109258 307.584 
L 158.812393 307.584 
L 158.856685 307.584 
L 159.969521 307.584 
L 162.726695 307.584 
L 163.750947 307.584 
L 163.806312 307.584 
L 164.603567 307.584 
L 165.295629 307.584 
L 166.181468 307.584 
L 166.596705 307.584 
L 168.982935 307.584 
L 170.106843 307.584 
L 170.156672 307.584 
L 170.610664 307.584 
L 171.396847 307.584 
L 172.653631 307.584 
L 173.600372 307.584 
L 175.067543 307.584 
L 175.665485 307.584 
L 176.418448 307.584 
L 184.684435 307.584 
L 184.856067 307.584 
L 186.732939 307.584 
L 188.034015 307.584 
L 189.340628 307.584 
L 192.269434 307.584 
L 193.343514 307.584 
L 196.122835 307.584 
L 197.822539 307.584 
L 198.055071 307.584 
L 201.947228 307.584 
L 202.583925 307.584 
L 203.392253 307.584 
L 207.467113 307.584 
L 208.480292 307.584 
L 211.099054 307.584 
L 212.616054 307.584 
L 215.450739 307.584 
L 220.367147 307.584 
L 226.368708 307.584 
L 227.763905 307.584 
L 228.821376 307.584 
L 235.077615 307.584 
L 240.525527 307.584 
L 243.304847 307.584 
L 245.486226 307.584 
L 246.726401 307.584 
L 247.147175 307.584 
L 250.491218 307.584 
L 268.29105 307.584 
L 272.775611 307.584 
L 279.596574 307.584 
L 284.092208 307.584 
L 398.487273 307.584 
L 398.487273 307.584 
L 398.487273 307.584 
L 284.092208 307.584 
L 279.596574 307.584 
L 272.775611 307.584 
L 268.29105 307.584 
L 250.491218 307.584 
L 247.147175 306.578286 
L 246.726401 306.578286 
L 245.486226 306.578286 
L 243.304847 306.578286 
L 240.525527 306.578286 
L 235.077615 306.578286 
L 228.821376 306.578286 
L 227.763905 306.578286 
L 226.368708 305.572571 
L 220.367147 305.572571 
L 215.450739 305.572571 
L 212.616054 305.572571 
L 211.099054 305.572571 
L 208.480292 304.566857 
L 207.467113 303.561143 
L 203.392253 302.555429 
L 202.583925 302.555429 
L 201.947228 301.549714 
L 198.055071 301.549714 
L 197.822539 301.549714 
L 196.122835 301.549714 
L 193.343514 301.549714 
L 192.269434 300.544 
L 189.340628 299.538286 
L 188.034015 298.532571 
L 186.732939 297.526857 
L 184.856067 296.521143 
L 184.684435 296.521143 
L 176.418448 296.521143 
L 175.665485 295.515429 
L 175.067543 295.515429 
L 173.600372 294.509714 
L 172.653631 293.504 
L 171.396847 292.498286 
L 170.610664 291.492571 
L 170.156672 291.492571 
L 170.106843 290.486857 
L 168.982935 289.481143 
L 166.596705 288.475429 
L 166.181468 288.475429 
L 165.295629 287.469714 
L 164.603567 286.464 
L 163.806312 285.458286 
L 163.750947 284.452571 
L 162.726695 283.446857 
L 159.969521 282.441143 
L 158.856685 281.435429 
L 158.812393 281.435429 
L 158.109258 281.435429 
L 157.372904 280.429714 
L 157.356295 279.424 
L 157.267711 278.418286 
L 156.309897 277.412571 
L 155.89466 276.406857 
L 155.639981 275.401143 
L 155.523715 274.395429 
L 154.200492 273.389714 
L 153.43092 273.389714 
L 152.755467 272.384 
L 151.338124 271.378286 
L 150.790011 270.372571 
L 150.474431 269.366857 
L 150.424603 269.366857 
L 149.649493 268.361143 
L 149.145672 267.355429 
L 149.10138 266.349714 
L 148.774727 266.349714 
L 148.769191 265.344 
L 147.783694 264.338286 
L 147.097169 263.332571 
L 146.737297 262.326857 
L 146.255622 261.321143 
L 145.458366 260.315429 
L 144.544845 259.309714 
L 144.439651 258.304 
L 144.295702 257.298286 
L 144.1739 257.298286 
L 143.814027 256.292571 
L 143.797418 255.286857 
L 143.459692 254.281143 
L 142.800849 253.275429 
L 142.524024 253.275429 
L 142.418831 252.269714 
L 141.721232 251.264 
L 140.647152 250.258286 
L 140.254061 249.252571 
L 139.63951 248.246857 
L 138.24985 247.241143 
L 138.02839 246.235429 
L 137.773711 245.229714 
L 137.723883 244.224 
L 135.7695 243.218286 
L 135.53143 242.212571 
L 135.138339 241.206857 
L 135.060828 241.206857 
L 134.712029 240.201143 
L 133.93692 240.201143 
L 133.128591 239.195429 
L 132.945887 238.189714 
L 132.807475 237.184 
L 132.569405 236.178286 
L 132.248289 235.172571 
L 132.187387 234.166857 
L 131.257256 233.161143 
L 131.085625 233.161143 
L 130.482147 232.155429 
L 130.25515 231.149714 
L 129.712574 231.149714 
L 129.175534 230.144 
L 128.583129 229.138286 
L 128.256476 228.132571 
L 127.774801 228.132571 
L 127.431538 228.132571 
L 127.3651 227.126857 
L 126.313166 226.121143 
L 125.792735 225.115429 
L 125.53252 225.115429 
L 124.99548 225.115429 
L 123.932473 224.109714 
L 123.417579 224.109714 
L 123.317922 224.109714 
L 123.118608 223.104 
L 122.332426 222.098286 
L 122.238305 222.098286 
L 121.230663 221.092571 
L 120.782207 220.086857 
L 120.715769 220.086857 
L 120.389116 219.081143 
L 119.580788 219.081143 
L 119.508813 218.075429 
L 119.231988 217.069714 
L 119.027138 216.064 
L 118.84997 216.064 
L 118.523317 216.064 
L 118.307394 215.058286 
L 118.10808 214.052571 
L 117.864474 213.046857 
L 117.155803 212.041143 
L 116.834686 211.035429 
L 116.491423 210.029714 
L 116.458204 209.024 
L 116.148161 208.018286 
L 116.114942 206.006857 
L 116.076186 205.001143 
L 116.037431 205.001143 
L 115.970993 203.995429 
L 115.588975 202.989714 
L 114.907986 201.984 
L 114.863694 200.978286 
L 114.586869 199.972571 
L 114.337727 198.966857 
L 114.155022 197.961143 
L 113.983391 196.955429 
L 113.784077 195.949714 
L 113.485106 194.944 
L 113.474033 193.938286 
L 112.577121 192.932571 
L 112.078837 192.932571 
L 111.796475 191.926857 
L 111.685745 191.926857 
L 111.419994 191.926857 
L 111.060121 190.921143 
L 110.5563 189.915429 
L 110.262866 188.909714 
L 110.069089 187.904 
L 109.986041 186.898286 
L 109.919603 185.892571 
L 109.509903 184.886857 
L 109.449001 183.881143 
L 109.399173 182.875429 
L 108.900888 181.869714 
L 107.533374 180.864 
L 106.929896 179.858286 
L 106.918823 178.852571 
L 106.880067 178.852571 
L 105.623283 177.846857 
L 105.147144 177.846857 
L 104.809418 177.846857 
L 104.659933 176.841143 
L 104.078601 175.835429 
L 103.602462 174.829714 
L 103.13186 173.824 
L 102.943619 172.818286 
L 102.628039 171.812571 
L 101.985806 170.806857 
L 101.714517 169.801143 
L 101.686835 168.795429 
L 101.459839 167.789714 
L 100.878507 166.784 
L 100.850824 165.778286 
L 100.463269 164.772571 
L 100.208591 163.766857 
L 99.981594 162.761143 
L 99.743525 161.755429 
L 99.654941 160.749714 
L 99.621722 159.744 
L 99.389189 158.738286 
L 99.223095 157.732571 
L 98.597471 156.726857 
L 97.086007 155.721143 
L 97.052788 154.715429 
L 96.626478 153.709714 
L 96.454847 152.704 
L 95.640982 152.704 
L 94.860336 151.698286 
L 94.732997 150.692571 
L 94.661022 149.686857 
L 94.544756 148.681143 
L 92.983464 147.675429 
L 92.723249 146.669714 
L 92.695567 145.664 
L 91.267151 144.658286 
L 91.17303 143.652571 
L 90.586162 142.646857 
L 89.678177 141.641143 
L 88.593024 140.635429 
L 88.050447 140.635429 
L 87.696111 139.629714 
L 87.43036 138.624 
L 86.511301 137.618286 
L 86.068382 136.612571 
L 85.15486 136.612571 
L 85.143787 135.606857 
L 84.639966 135.606857 
L 84.329922 135.606857 
L 84.274557 134.601143 
L 83.920222 133.595429 
L 83.85932 132.589714 
L 82.591463 132.589714 
L 82.065496 131.584 
L 81.306996 131.584 
L 81.008025 130.578286 
L 80.864076 129.572571 
L 80.742273 128.566857 
L 80.371328 128.566857 
L 79.175445 128.566857 
L 77.918661 127.561143 
L 77.597544 127.561143 
L 76.977457 127.561143 
L 76.684022 126.555429 
L 76.65634 125.549714 
L 76.401661 124.544 
L 75.836939 123.538286 
L 75.006464 122.532571 
L 73.832727 122.532571 
z
" clip-path="url(#p69ddbd8ec9)" style="fill: #008000"/>
   </g>
   <g id="PolyCollection_2">
    <path d="M 73.832727 68.224 
L 73.832727 122.532571 
L 75.006464 122.532571 
L 75.836939 123.538286 
L 76.401661 124.544 
L 76.65634 125.549714 
L 76.684022 126.555429 
L 76.977457 127.561143 
L 77.597544 127.561143 
L 77.918661 127.561143 
L 79.175445 128.566857 
L 80.371328 128.566857 
L 80.742273 128.566857 
L 80.864076 129.572571 
L 81.008025 130.578286 
L 81.306996 131.584 
L 82.065496 131.584 
L 82.591463 132.589714 
L 83.85932 132.589714 
L 83.920222 133.595429 
L 84.274557 134.601143 
L 84.329922 135.606857 
L 84.639966 135.606857 
L 85.143787 135.606857 
L 85.15486 136.612571 
L 86.068382 136.612571 
L 86.511301 137.618286 
L 87.43036 138.624 
L 87.696111 139.629714 
L 88.050447 140.635429 
L 88.593024 140.635429 
L 89.678177 141.641143 
L 90.586162 142.646857 
L 91.17303 143.652571 
L 91.267151 144.658286 
L 92.695567 145.664 
L 92.723249 146.669714 
L 92.983464 147.675429 
L 94.544756 148.681143 
L 94.661022 149.686857 
L 94.732997 150.692571 
L 94.860336 151.698286 
L 95.640982 152.704 
L 96.454847 152.704 
L 96.626478 153.709714 
L 97.052788 154.715429 
L 97.086007 155.721143 
L 98.597471 156.726857 
L 99.223095 157.732571 
L 99.389189 158.738286 
L 99.621722 159.744 
L 99.654941 160.749714 
L 99.743525 161.755429 
L 99.981594 162.761143 
L 100.208591 163.766857 
L 100.463269 164.772571 
L 100.850824 165.778286 
L 100.878507 166.784 
L 101.459839 167.789714 
L 101.686835 168.795429 
L 101.714517 169.801143 
L 101.985806 170.806857 
L 102.628039 171.812571 
L 102.943619 172.818286 
L 103.13186 173.824 
L 103.602462 174.829714 
L 104.078601 175.835429 
L 104.659933 176.841143 
L 104.809418 177.846857 
L 105.147144 177.846857 
L 105.623283 177.846857 
L 106.880067 178.852571 
L 106.918823 178.852571 
L 106.929896 179.858286 
L 107.533374 180.864 
L 108.900888 181.869714 
L 109.399173 182.875429 
L 109.449001 183.881143 
L 109.509903 184.886857 
L 109.919603 185.892571 
L 109.986041 186.898286 
L 110.069089 187.904 
L 110.262866 188.909714 
L 110.5563 189.915429 
L 111.060121 190.921143 
L 111.419994 191.926857 
L 111.685745 191.926857 
L 111.796475 191.926857 
L 112.078837 192.932571 
L 112.577121 192.932571 
L 113.474033 193.938286 
L 113.485106 194.944 
L 113.784077 195.949714 
L 113.983391 196.955429 
L 114.155022 197.961143 
L 114.337727 198.966857 
L 114.586869 199.972571 
L 114.863694 200.978286 
L 114.907986 201.984 
L 115.588975 202.989714 
L 115.970993 203.995429 
L 116.037431 205.001143 
L 116.076186 205.001143 
L 116.114942 206.006857 
L 116.148161 208.018286 
L 116.458204 209.024 
L 116.491423 210.029714 
L 116.834686 211.035429 
L 117.155803 212.041143 
L 117.864474 213.046857 
L 118.10808 214.052571 
L 118.307394 215.058286 
L 118.523317 216.064 
L 118.84997 216.064 
L 119.027138 216.064 
L 119.231988 217.069714 
L 119.508813 218.075429 
L 119.580788 219.081143 
L 120.389116 219.081143 
L 120.715769 220.086857 
L 120.782207 220.086857 
L 121.230663 221.092571 
L 122.238305 222.098286 
L 122.332426 222.098286 
L 123.118608 223.104 
L 123.317922 224.109714 
L 123.417579 224.109714 
L 123.932473 224.109714 
L 124.99548 225.115429 
L 125.53252 225.115429 
L 125.792735 225.115429 
L 126.313166 226.121143 
L 127.3651 227.126857 
L 127.431538 228.132571 
L 127.774801 228.132571 
L 128.256476 228.132571 
L 128.583129 229.138286 
L 129.175534 230.144 
L 129.712574 231.149714 
L 130.25515 231.149714 
L 130.482147 232.155429 
L 131.085625 233.161143 
L 131.257256 233.161143 
L 132.187387 234.166857 
L 132.248289 235.172571 
L 132.569405 236.178286 
L 132.807475 237.184 
L 132.945887 238.189714 
L 133.128591 239.195429 
L 133.93692 240.201143 
L 134.712029 240.201143 
L 135.060828 241.206857 
L 135.138339 241.206857 
L 135.53143 242.212571 
L 135.7695 243.218286 
L 137.723883 244.224 
L 137.773711 245.229714 
L 138.02839 246.235429 
L 138.24985 247.241143 
L 139.63951 248.246857 
L 140.254061 249.252571 
L 140.647152 250.258286 
L 141.721232 251.264 
L 142.418831 252.269714 
L 142.524024 253.275429 
L 142.800849 253.275429 
L 143.459692 254.281143 
L 143.797418 255.286857 
L 143.814027 256.292571 
L 144.1739 257.298286 
L 144.295702 257.298286 
L 144.439651 258.304 
L 144.544845 259.309714 
L 145.458366 260.315429 
L 146.255622 261.321143 
L 146.737297 262.326857 
L 147.097169 263.332571 
L 147.783694 264.338286 
L 148.769191 265.344 
L 148.774727 266.349714 
L 149.10138 266.349714 
L 149.145672 267.355429 
L 149.649493 268.361143 
L 150.424603 269.366857 
L 150.474431 269.366857 
L 150.790011 270.372571 
L 151.338124 271.378286 
L 152.755467 272.384 
L 153.43092 273.389714 
L 154.200492 273.389714 
L 155.523715 274.395429 
L 155.639981 275.401143 
L 155.89466 276.406857 
L 156.309897 277.412571 
L 157.267711 278.418286 
L 157.356295 279.424 
L 157.372904 280.429714 
L 158.109258 281.435429 
L 158.812393 281.435429 
L 158.856685 281.435429 
L 159.969521 282.441143 
L 162.726695 283.446857 
L 163.750947 284.452571 
L 163.806312 285.458286 
L 164.603567 286.464 
L 165.295629 287.469714 
L 166.181468 288.475429 
L 166.596705 288.475429 
L 168.982935 289.481143 
L 170.106843 290.486857 
L 170.156672 291.492571 
L 170.610664 291.492571 
L 171.396847 292.498286 
L 172.653631 293.504 
L 173.600372 294.509714 
L 175.067543 295.515429 
L 175.665485 295.515429 
L 176.418448 296.521143 
L 184.684435 296.521143 
L 184.856067 296.521143 
L 186.732939 297.526857 
L 188.034015 298.532571 
L 189.340628 299.538286 
L 192.269434 300.544 
L 193.343514 301.549714 
L 196.122835 301.549714 
L 197.822539 301.549714 
L 198.055071 301.549714 
L 201.947228 301.549714 
L 202.583925 302.555429 
L 203.392253 302.555429 
L 207.467113 303.561143 
L 208.480292 304.566857 
L 211.099054 305.572571 
L 212.616054 305.572571 
L 215.450739 305.572571 
L 220.367147 305.572571 
L 226.368708 305.572571 
L 227.763905 306.578286 
L 228.821376 306.578286 
L 235.077615 306.578286 
L 240.525527 306.578286 
L 243.304847 306.578286 
L 245.486226 306.578286 
L 246.726401 306.578286 
L 247.147175 306.578286 
L 250.491218 307.584 
L 268.29105 307.584 
L 272.775611 307.584 
L 279.596574 307.584 
L 284.092208 307.584 
L 398.487273 307.584 
L 398.487273 306.578286 
L 398.487273 306.578286 
L 284.092208 305.572571 
L 279.596574 304.566857 
L 272.775611 303.561143 
L 268.29105 302.555429 
L 250.491218 301.549714 
L 247.147175 300.544 
L 246.726401 299.538286 
L 245.486226 298.532571 
L 243.304847 297.526857 
L 240.525527 296.521143 
L 235.077615 295.515429 
L 228.821376 294.509714 
L 227.763905 293.504 
L 226.368708 292.498286 
L 220.367147 291.492571 
L 215.450739 290.486857 
L 212.616054 289.481143 
L 211.099054 288.475429 
L 208.480292 287.469714 
L 207.467113 286.464 
L 203.392253 285.458286 
L 202.583925 284.452571 
L 201.947228 283.446857 
L 198.055071 282.441143 
L 197.822539 281.435429 
L 196.122835 280.429714 
L 193.343514 279.424 
L 192.269434 278.418286 
L 189.340628 277.412571 
L 188.034015 276.406857 
L 186.732939 275.401143 
L 184.856067 274.395429 
L 184.684435 273.389714 
L 176.418448 272.384 
L 175.665485 271.378286 
L 175.067543 270.372571 
L 173.600372 269.366857 
L 172.653631 268.361143 
L 171.396847 267.355429 
L 170.610664 266.349714 
L 170.156672 265.344 
L 170.106843 264.338286 
L 168.982935 263.332571 
L 166.596705 262.326857 
L 166.181468 261.321143 
L 165.295629 260.315429 
L 164.603567 259.309714 
L 163.806312 258.304 
L 163.750947 257.298286 
L 162.726695 256.292571 
L 159.969521 255.286857 
L 158.856685 254.281143 
L 158.812393 253.275429 
L 158.109258 252.269714 
L 157.372904 251.264 
L 157.356295 250.258286 
L 157.267711 249.252571 
L 156.309897 248.246857 
L 155.89466 247.241143 
L 155.639981 246.235429 
L 155.523715 245.229714 
L 154.200492 244.224 
L 153.43092 243.218286 
L 152.755467 242.212571 
L 151.338124 241.206857 
L 150.790011 240.201143 
L 150.474431 239.195429 
L 150.424603 238.189714 
L 149.649493 237.184 
L 149.145672 236.178286 
L 149.10138 235.172571 
L 148.774727 234.166857 
L 148.769191 233.161143 
L 147.783694 232.155429 
L 147.097169 231.149714 
L 146.737297 230.144 
L 146.255622 229.138286 
L 145.458366 228.132571 
L 144.544845 227.126857 
L 144.439651 226.121143 
L 144.295702 225.115429 
L 144.1739 224.109714 
L 143.814027 223.104 
L 143.797418 222.098286 
L 143.459692 221.092571 
L 142.800849 220.086857 
L 142.524024 219.081143 
L 142.418831 218.075429 
L 141.721232 217.069714 
L 140.647152 216.064 
L 140.254061 215.058286 
L 139.63951 214.052571 
L 138.24985 213.046857 
L 138.02839 212.041143 
L 137.773711 211.035429 
L 137.723883 210.029714 
L 135.7695 209.024 
L 135.53143 208.018286 
L 135.138339 207.012571 
L 135.060828 206.006857 
L 134.712029 205.001143 
L 133.93692 203.995429 
L 133.128591 202.989714 
L 132.945887 201.984 
L 132.807475 200.978286 
L 132.569405 199.972571 
L 132.248289 198.966857 
L 132.187387 197.961143 
L 131.257256 196.955429 
L 131.085625 196.955429 
L 130.482147 195.949714 
L 130.25515 194.944 
L 129.712574 193.938286 
L 129.175534 192.932571 
L 128.583129 191.926857 
L 128.256476 190.921143 
L 127.774801 189.915429 
L 127.431538 188.909714 
L 127.3651 187.904 
L 126.313166 186.898286 
L 125.792735 185.892571 
L 125.53252 184.886857 
L 124.99548 183.881143 
L 123.932473 182.875429 
L 123.417579 181.869714 
L 123.317922 181.869714 
L 123.118608 180.864 
L 122.332426 179.858286 
L 122.238305 178.852571 
L 121.230663 177.846857 
L 120.782207 176.841143 
L 120.715769 176.841143 
L 120.389116 175.835429 
L 119.580788 174.829714 
L 119.508813 173.824 
L 119.231988 172.818286 
L 119.027138 171.812571 
L 118.84997 170.806857 
L 118.523317 169.801143 
L 118.307394 168.795429 
L 118.10808 167.789714 
L 117.864474 166.784 
L 117.155803 165.778286 
L 116.834686 164.772571 
L 116.491423 163.766857 
L 116.458204 162.761143 
L 116.148161 161.755429 
L 116.114942 159.744 
L 116.076186 158.738286 
L 116.037431 157.732571 
L 115.970993 156.726857 
L 115.588975 155.721143 
L 114.907986 154.715429 
L 114.863694 153.709714 
L 114.586869 152.704 
L 114.337727 151.698286 
L 114.155022 150.692571 
L 113.983391 149.686857 
L 113.784077 148.681143 
L 113.485106 147.675429 
L 113.474033 146.669714 
L 112.577121 145.664 
L 112.078837 144.658286 
L 111.796475 143.652571 
L 111.685745 142.646857 
L 111.419994 141.641143 
L 111.060121 140.635429 
L 110.5563 139.629714 
L 110.262866 138.624 
L 110.069089 137.618286 
L 109.986041 136.612571 
L 109.919603 135.606857 
L 109.509903 134.601143 
L 109.449001 133.595429 
L 109.399173 132.589714 
L 108.900888 131.584 
L 107.533374 130.578286 
L 106.929896 129.572571 
L 106.918823 128.566857 
L 106.880067 127.561143 
L 105.623283 126.555429 
L 105.147144 125.549714 
L 104.809418 124.544 
L 104.659933 123.538286 
L 104.078601 122.532571 
L 103.602462 121.526857 
L 103.13186 120.521143 
L 102.943619 119.515429 
L 102.628039 118.509714 
L 101.985806 117.504 
L 101.714517 116.498286 
L 101.686835 115.492571 
L 101.459839 114.486857 
L 100.878507 113.481143 
L 100.850824 112.475429 
L 100.463269 111.469714 
L 100.208591 110.464 
L 99.981594 109.458286 
L 99.743525 108.452571 
L 99.654941 107.446857 
L 99.621722 106.441143 
L 99.389189 105.435429 
L 99.223095 104.429714 
L 98.597471 103.424 
L 97.086007 102.418286 
L 97.052788 101.412571 
L 96.626478 100.406857 
L 96.454847 99.401143 
L 95.640982 98.395429 
L 94.860336 97.389714 
L 94.732997 96.384 
L 94.661022 95.378286 
L 94.544756 94.372571 
L 92.983464 93.366857 
L 92.723249 92.361143 
L 92.695567 91.355429 
L 91.267151 90.349714 
L 91.17303 89.344 
L 90.586162 88.338286 
L 89.678177 87.332571 
L 88.593024 86.326857 
L 88.050447 86.326857 
L 87.696111 85.321143 
L 87.43036 84.315429 
L 86.511301 83.309714 
L 86.068382 82.304 
L 85.15486 82.304 
L 85.143787 81.298286 
L 84.639966 81.298286 
L 84.329922 81.298286 
L 84.274557 80.292571 
L 83.920222 79.286857 
L 83.85932 78.281143 
L 82.591463 78.281143 
L 82.065496 77.275429 
L 81.306996 77.275429 
L 81.008025 76.269714 
L 80.864076 75.264 
L 80.742273 74.258286 
L 80.371328 74.258286 
L 79.175445 74.258286 
L 77.918661 73.252571 
L 77.597544 73.252571 
L 76.977457 73.252571 
L 76.684022 72.246857 
L 76.65634 71.241143 
L 76.401661 70.235429 
L 75.836939 69.229714 
L 75.006464 68.224 
L 73.832727 68.224 
z
" clip-path="url(#p69ddbd8ec9)" style="fill: #7cfc00"/>
   </g>
   <g id="PolyCollection_3">
    <path d="M 73.832727 54.144 
L 73.832727 68.224 
L 75.006464 68.224 
L 75.836939 69.229714 
L 76.401661 70.235429 
L 76.65634 71.241143 
L 76.684022 72.246857 
L 76.977457 73.252571 
L 77.597544 73.252571 
L 77.918661 73.252571 
L 79.175445 74.258286 
L 80.371328 74.258286 
L 80.742273 74.258286 
L 80.864076 75.264 
L 81.008025 76.269714 
L 81.306996 77.275429 
L 82.065496 77.275429 
L 82.591463 78.281143 
L 83.85932 78.281143 
L 83.920222 79.286857 
L 84.274557 80.292571 
L 84.329922 81.298286 
L 84.639966 81.298286 
L 85.143787 81.298286 
L 85.15486 82.304 
L 86.068382 82.304 
L 86.511301 83.309714 
L 87.43036 84.315429 
L 87.696111 85.321143 
L 88.050447 86.326857 
L 88.593024 86.326857 
L 89.678177 87.332571 
L 90.586162 88.338286 
L 91.17303 89.344 
L 91.267151 90.349714 
L 92.695567 91.355429 
L 92.723249 92.361143 
L 92.983464 93.366857 
L 94.544756 94.372571 
L 94.661022 95.378286 
L 94.732997 96.384 
L 94.860336 97.389714 
L 95.640982 98.395429 
L 96.454847 99.401143 
L 96.626478 100.406857 
L 97.052788 101.412571 
L 97.086007 102.418286 
L 98.597471 103.424 
L 99.223095 104.429714 
L 99.389189 105.435429 
L 99.621722 106.441143 
L 99.654941 107.446857 
L 99.743525 108.452571 
L 99.981594 109.458286 
L 100.208591 110.464 
L 100.463269 111.469714 
L 100.850824 112.475429 
L 100.878507 113.481143 
L 101.459839 114.486857 
L 101.686835 115.492571 
L 101.714517 116.498286 
L 101.985806 117.504 
L 102.628039 118.509714 
L 102.943619 119.515429 
L 103.13186 120.521143 
L 103.602462 121.526857 
L 104.078601 122.532571 
L 104.659933 123.538286 
L 104.809418 124.544 
L 105.147144 125.549714 
L 105.623283 126.555429 
L 106.880067 127.561143 
L 106.918823 128.566857 
L 106.929896 129.572571 
L 107.533374 130.578286 
L 108.900888 131.584 
L 109.399173 132.589714 
L 109.449001 133.595429 
L 109.509903 134.601143 
L 109.919603 135.606857 
L 109.986041 136.612571 
L 110.069089 137.618286 
L 110.262866 138.624 
L 110.5563 139.629714 
L 111.060121 140.635429 
L 111.419994 141.641143 
L 111.685745 142.646857 
L 111.796475 143.652571 
L 112.078837 144.658286 
L 112.577121 145.664 
L 113.474033 146.669714 
L 113.485106 147.675429 
L 113.784077 148.681143 
L 113.983391 149.686857 
L 114.155022 150.692571 
L 114.337727 151.698286 
L 114.586869 152.704 
L 114.863694 153.709714 
L 114.907986 154.715429 
L 115.588975 155.721143 
L 115.970993 156.726857 
L 116.037431 157.732571 
L 116.076186 158.738286 
L 116.114942 159.744 
L 116.148161 161.755429 
L 116.458204 162.761143 
L 116.491423 163.766857 
L 116.834686 164.772571 
L 117.155803 165.778286 
L 117.864474 166.784 
L 118.10808 167.789714 
L 118.307394 168.795429 
L 118.523317 169.801143 
L 118.84997 170.806857 
L 119.027138 171.812571 
L 119.231988 172.818286 
L 119.508813 173.824 
L 119.580788 174.829714 
L 120.389116 175.835429 
L 120.715769 176.841143 
L 120.782207 176.841143 
L 121.230663 177.846857 
L 122.238305 178.852571 
L 122.332426 179.858286 
L 123.118608 180.864 
L 123.317922 181.869714 
L 123.417579 181.869714 
L 123.932473 182.875429 
L 124.99548 183.881143 
L 125.53252 184.886857 
L 125.792735 185.892571 
L 126.313166 186.898286 
L 127.3651 187.904 
L 127.431538 188.909714 
L 127.774801 189.915429 
L 128.256476 190.921143 
L 128.583129 191.926857 
L 129.175534 192.932571 
L 129.712574 193.938286 
L 130.25515 194.944 
L 130.482147 195.949714 
L 131.085625 196.955429 
L 131.257256 196.955429 
L 132.187387 197.961143 
L 132.248289 198.966857 
L 132.569405 199.972571 
L 132.807475 200.978286 
L 132.945887 201.984 
L 133.128591 202.989714 
L 133.93692 203.995429 
L 134.712029 205.001143 
L 135.060828 206.006857 
L 135.138339 207.012571 
L 135.53143 208.018286 
L 135.7695 209.024 
L 137.723883 210.029714 
L 137.773711 211.035429 
L 138.02839 212.041143 
L 138.24985 213.046857 
L 139.63951 214.052571 
L 140.254061 215.058286 
L 140.647152 216.064 
L 141.721232 217.069714 
L 142.418831 218.075429 
L 142.524024 219.081143 
L 142.800849 220.086857 
L 143.459692 221.092571 
L 143.797418 222.098286 
L 143.814027 223.104 
L 144.1739 224.109714 
L 144.295702 225.115429 
L 144.439651 226.121143 
L 144.544845 227.126857 
L 145.458366 228.132571 
L 146.255622 229.138286 
L 146.737297 230.144 
L 147.097169 231.149714 
L 147.783694 232.155429 
L 148.769191 233.161143 
L 148.774727 234.166857 
L 149.10138 235.172571 
L 149.145672 236.178286 
L 149.649493 237.184 
L 150.424603 238.189714 
L 150.474431 239.195429 
L 150.790011 240.201143 
L 151.338124 241.206857 
L 152.755467 242.212571 
L 153.43092 243.218286 
L 154.200492 244.224 
L 155.523715 245.229714 
L 155.639981 246.235429 
L 155.89466 247.241143 
L 156.309897 248.246857 
L 157.267711 249.252571 
L 157.356295 250.258286 
L 157.372904 251.264 
L 158.109258 252.269714 
L 158.812393 253.275429 
L 158.856685 254.281143 
L 159.969521 255.286857 
L 162.726695 256.292571 
L 163.750947 257.298286 
L 163.806312 258.304 
L 164.603567 259.309714 
L 165.295629 260.315429 
L 166.181468 261.321143 
L 166.596705 262.326857 
L 168.982935 263.332571 
L 170.106843 264.338286 
L 170.156672 265.344 
L 170.610664 266.349714 
L 171.396847 267.355429 
L 172.653631 268.361143 
L 173.600372 269.366857 
L 175.067543 270.372571 
L 175.665485 271.378286 
L 176.418448 272.384 
L 184.684435 273.389714 
L 184.856067 274.395429 
L 186.732939 275.401143 
L 188.034015 276.406857 
L 189.340628 277.412571 
L 192.269434 278.418286 
L 193.343514 279.424 
L 196.122835 280.429714 
L 197.822539 281.435429 
L 198.055071 282.441143 
L 201.947228 283.446857 
L 202.583925 284.452571 
L 203.392253 285.458286 
L 207.467113 286.464 
L 208.480292 287.469714 
L 211.099054 288.475429 
L 212.616054 289.481143 
L 215.450739 290.486857 
L 220.367147 291.492571 
L 226.368708 292.498286 
L 227.763905 293.504 
L 228.821376 294.509714 
L 235.077615 295.515429 
L 240.525527 296.521143 
L 243.304847 297.526857 
L 245.486226 298.532571 
L 246.726401 299.538286 
L 247.147175 300.544 
L 250.491218 301.549714 
L 268.29105 302.555429 
L 272.775611 303.561143 
L 279.596574 304.566857 
L 284.092208 305.572571 
L 398.487273 306.578286 
L 398.487273 306.578286 
L 398.487273 306.578286 
L 284.092208 305.572571 
L 279.596574 304.566857 
L 272.775611 303.561143 
L 268.29105 302.555429 
L 250.491218 301.549714 
L 247.147175 300.544 
L 246.726401 299.538286 
L 245.486226 298.532571 
L 243.304847 297.526857 
L 240.525527 296.521143 
L 235.077615 295.515429 
L 228.821376 294.509714 
L 227.763905 293.504 
L 226.368708 292.498286 
L 220.367147 291.492571 
L 215.450739 290.486857 
L 212.616054 289.481143 
L 211.099054 288.475429 
L 208.480292 287.469714 
L 207.467113 286.464 
L 203.392253 285.458286 
L 202.583925 284.452571 
L 201.947228 283.446857 
L 198.055071 282.441143 
L 197.822539 281.435429 
L 196.122835 280.429714 
L 193.343514 279.424 
L 192.269434 278.418286 
L 189.340628 277.412571 
L 188.034015 276.406857 
L 186.732939 275.401143 
L 184.856067 274.395429 
L 184.684435 273.389714 
L 176.418448 272.384 
L 175.665485 271.378286 
L 175.067543 270.372571 
L 173.600372 269.366857 
L 172.653631 268.361143 
L 171.396847 267.355429 
L 170.610664 266.349714 
L 170.156672 265.344 
L 170.106843 264.338286 
L 168.982935 263.332571 
L 166.596705 262.326857 
L 166.181468 261.321143 
L 165.295629 260.315429 
L 164.603567 259.309714 
L 163.806312 258.304 
L 163.750947 257.298286 
L 162.726695 256.292571 
L 159.969521 255.286857 
L 158.856685 254.281143 
L 158.812393 253.275429 
L 158.109258 252.269714 
L 157.372904 251.264 
L 157.356295 250.258286 
L 157.267711 249.252571 
L 156.309897 248.246857 
L 155.89466 247.241143 
L 155.639981 246.235429 
L 155.523715 245.229714 
L 154.200492 244.224 
L 153.43092 243.218286 
L 152.755467 242.212571 
L 151.338124 241.206857 
L 150.790011 240.201143 
L 150.474431 239.195429 
L 150.424603 238.189714 
L 149.649493 237.184 
L 149.145672 236.178286 
L 149.10138 235.172571 
L 148.774727 234.166857 
L 148.769191 233.161143 
L 147.783694 232.155429 
L 147.097169 231.149714 
L 146.737297 230.144 
L 146.255622 229.138286 
L 145.458366 228.132571 
L 144.544845 227.126857 
L 144.439651 226.121143 
L 144.295702 225.115429 
L 144.1739 224.109714 
L 143.814027 223.104 
L 143.797418 222.098286 
L 143.459692 221.092571 
L 142.800849 220.086857 
L 142.524024 219.081143 
L 142.418831 218.075429 
L 141.721232 217.069714 
L 140.647152 216.064 
L 140.254061 215.058286 
L 139.63951 214.052571 
L 138.24985 213.046857 
L 138.02839 212.041143 
L 137.773711 211.035429 
L 137.723883 210.029714 
L 135.7695 209.024 
L 135.53143 208.018286 
L 135.138339 207.012571 
L 135.060828 206.006857 
L 134.712029 205.001143 
L 133.93692 203.995429 
L 133.128591 202.989714 
L 132.945887 201.984 
L 132.807475 200.978286 
L 132.569405 199.972571 
L 132.248289 198.966857 
L 132.187387 197.961143 
L 131.257256 196.955429 
L 131.085625 195.949714 
L 130.482147 194.944 
L 130.25515 193.938286 
L 129.712574 192.932571 
L 129.175534 191.926857 
L 128.583129 190.921143 
L 128.256476 189.915429 
L 127.774801 188.909714 
L 127.431538 187.904 
L 127.3651 186.898286 
L 126.313166 185.892571 
L 125.792735 184.886857 
L 125.53252 183.881143 
L 124.99548 182.875429 
L 123.932473 181.869714 
L 123.417579 180.864 
L 123.317922 179.858286 
L 123.118608 178.852571 
L 122.332426 177.846857 
L 122.238305 176.841143 
L 121.230663 175.835429 
L 120.782207 174.829714 
L 120.715769 173.824 
L 120.389116 172.818286 
L 119.580788 171.812571 
L 119.508813 170.806857 
L 119.231988 169.801143 
L 119.027138 168.795429 
L 118.84997 167.789714 
L 118.523317 166.784 
L 118.307394 165.778286 
L 118.10808 164.772571 
L 117.864474 163.766857 
L 117.155803 162.761143 
L 116.834686 161.755429 
L 116.491423 160.749714 
L 116.458204 159.744 
L 116.148161 158.738286 
L 116.114942 156.726857 
L 116.076186 155.721143 
L 116.037431 154.715429 
L 115.970993 153.709714 
L 115.588975 152.704 
L 114.907986 151.698286 
L 114.863694 150.692571 
L 114.586869 149.686857 
L 114.337727 148.681143 
L 114.155022 147.675429 
L 113.983391 146.669714 
L 113.784077 145.664 
L 113.485106 144.658286 
L 113.474033 143.652571 
L 112.577121 142.646857 
L 112.078837 141.641143 
L 111.796475 140.635429 
L 111.685745 139.629714 
L 111.419994 138.624 
L 111.060121 137.618286 
L 110.5563 136.612571 
L 110.262866 135.606857 
L 110.069089 134.601143 
L 109.986041 133.595429 
L 109.919603 132.589714 
L 109.509903 131.584 
L 109.449001 130.578286 
L 109.399173 129.572571 
L 108.900888 128.566857 
L 107.533374 127.561143 
L 106.929896 126.555429 
L 106.918823 125.549714 
L 106.880067 124.544 
L 105.623283 123.538286 
L 105.147144 122.532571 
L 104.809418 121.526857 
L 104.659933 120.521143 
L 104.078601 119.515429 
L 103.602462 118.509714 
L 103.13186 117.504 
L 102.943619 116.498286 
L 102.628039 115.492571 
L 101.985806 114.486857 
L 101.714517 113.481143 
L 101.686835 112.475429 
L 101.459839 111.469714 
L 100.878507 110.464 
L 100.850824 109.458286 
L 100.463269 108.452571 
L 100.208591 107.446857 
L 99.981594 106.441143 
L 99.743525 105.435429 
L 99.654941 104.429714 
L 99.621722 103.424 
L 99.389189 102.418286 
L 99.223095 101.412571 
L 98.597471 100.406857 
L 97.086007 99.401143 
L 97.052788 98.395429 
L 96.626478 97.389714 
L 96.454847 96.384 
L 95.640982 95.378286 
L 94.860336 94.372571 
L 94.732997 93.366857 
L 94.661022 92.361143 
L 94.544756 91.355429 
L 92.983464 90.349714 
L 92.723249 89.344 
L 92.695567 88.338286 
L 91.267151 87.332571 
L 91.17303 86.326857 
L 90.586162 85.321143 
L 89.678177 84.315429 
L 88.593024 83.309714 
L 88.050447 82.304 
L 87.696111 81.298286 
L 87.43036 80.292571 
L 86.511301 79.286857 
L 86.068382 78.281143 
L 85.15486 77.275429 
L 85.143787 76.269714 
L 84.639966 75.264 
L 84.329922 74.258286 
L 84.274557 73.252571 
L 83.920222 72.246857 
L 83.85932 71.241143 
L 82.591463 70.235429 
L 82.065496 69.229714 
L 81.306996 68.224 
L 81.008025 67.218286 
L 80.864076 66.212571 
L 80.742273 65.206857 
L 80.371328 64.201143 
L 79.175445 63.195429 
L 77.918661 62.189714 
L 77.597544 61.184 
L 76.977457 60.178286 
L 76.684022 59.172571 
L 76.65634 58.166857 
L 76.401661 57.161143 
L 75.836939 56.155429 
L 75.006464 55.149714 
L 73.832727 54.144 
z
" clip-path="url(#p69ddbd8ec9)" style="fill: #ff0000"/>
   </g>
   <g id="matplotlib.axis_1">
    <g id="xtick_1">
     <g id="line2d_1">
      <defs>
       <path id="mc71cfe5e35" d="M 0 0 
L 0 3.5 
" style="stroke: #000000; stroke-width: 0.8"/>
      </defs>
      <g>
       <use xlink:href="#mc71cfe5e35" x="104.53813" y="307.584" style="stroke: #000000; stroke-width: 0.8"/>
      </g>
     </g>
     <g id="text_1">
      <!-- 100 -->
      <g transform="translate(94.99438 322.182437) scale(0.1 -0.1)">
       <defs>
        <path id="DejaVuSans-31" d="M 794 531 
L 1825 531 
L 1825 4091 
L 703 3866 
L 703 4441 
L 1819 4666 
L 2450 4666 
L 2450 531 
L 3481 531 
L 3481 0 
L 794 0 
L 794 531 
z
" transform="scale(0.015625)"/>
        <path id="DejaVuSans-30" d="M 2034 4250 
Q 1547 4250 1301 3770 
Q 1056 3291 1056 2328 
Q 1056 1369 1301 889 
Q 1547 409 2034 409 
Q 2525 409 2770 889 
Q 3016 1369 3016 2328 
Q 3016 3291 2770 3770 
Q 2525 4250 2034 4250 
z
M 2034 4750 
Q 2819 4750 3233 4129 
Q 3647 3509 3647 2328 
Q 3647 1150 3233 529 
Q 2819 -91 2034 -91 
Q 1250 -91 836 529 
Q 422 1150 422 2328 
Q 422 3509 836 4129 
Q 1250 4750 2034 4750 
z
" transform="scale(0.015625)"/>
       </defs>
       <use xlink:href="#DejaVuSans-31"/>
       <use xlink:href="#DejaVuSans-30" x="63.623047"/>
       <use xlink:href="#DejaVuSans-30" x="127.246094"/>
      </g>
     </g>
    </g>
    <g id="xtick_2">
     <g id="line2d_2">
      <g>
       <use xlink:href="#mc71cfe5e35" x="159.903083" y="307.584" style="stroke: #000000; stroke-width: 0.8"/>
      </g>
     </g>
     <g id="text_2">
      <!-- 200 -->
      <g transform="translate(150.359333 322.182437) scale(0.1 -0.1)">
       <defs>
        <path id="DejaVuSans-32" d="M 1228 531 
L 3431 531 
L 3431 0 
L 469 0 
L 469 531 
Q 828 903 1448 1529 
Q 2069 2156 2228 2338 
Q 2531 2678 2651 2914 
Q 2772 3150 2772 3378 
Q 2772 3750 2511 3984 
Q 2250 4219 1831 4219 
Q 1534 4219 1204 4116 
Q 875 4013 500 3803 
L 500 4441 
Q 881 4594 1212 4672 
Q 1544 4750 1819 4750 
Q 2544 4750 2975 4387 
Q 3406 4025 3406 3419 
Q 3406 3131 3298 2873 
Q 3191 2616 2906 2266 
Q 2828 2175 2409 1742 
Q 1991 1309 1228 531 
z
" transform="scale(0.015625)"/>
       </defs>
       <use xlink:href="#DejaVuSans-32"/>
       <use xlink:href="#DejaVuSans-30" x="63.623047"/>
       <use xlink:href="#DejaVuSans-30" x="127.246094"/>
      </g>
     </g>
    </g>
    <g id="xtick_3">
     <g id="line2d_3">
      <g>
       <use xlink:href="#mc71cfe5e35" x="215.268035" y="307.584" style="stroke: #000000; stroke-width: 0.8"/>
      </g>
     </g>
     <g id="text_3">
      <!-- 300 -->
      <g transform="translate(205.724285 322.182437) scale(0.1 -0.1)">
       <defs>
        <path id="DejaVuSans-33" d="M 2597 2516 
Q 3050 2419 3304 2112 
Q 3559 1806 3559 1356 
Q 3559 666 3084 287 
Q 2609 -91 1734 -91 
Q 1441 -91 1130 -33 
Q 819 25 488 141 
L 488 750 
Q 750 597 1062 519 
Q 1375 441 1716 441 
Q 2309 441 2620 675 
Q 2931 909 2931 1356 
Q 2931 1769 2642 2001 
Q 2353 2234 1838 2234 
L 1294 2234 
L 1294 2753 
L 1863 2753 
Q 2328 2753 2575 2939 
Q 2822 3125 2822 3475 
Q 2822 3834 2567 4026 
Q 2313 4219 1838 4219 
Q 1578 4219 1281 4162 
Q 984 4106 628 3988 
L 628 4550 
Q 988 4650 1302 4700 
Q 1616 4750 1894 4750 
Q 2613 4750 3031 4423 
Q 3450 4097 3450 3541 
Q 3450 3153 3228 2886 
Q 3006 2619 2597 2516 
z
" transform="scale(0.015625)"/>
       </defs>
       <use xlink:href="#DejaVuSans-33"/>
       <use xlink:href="#DejaVuSans-30" x="63.623047"/>
       <use xlink:href="#DejaVuSans-30" x="127.246094"/>
      </g>
     </g>
    </g>
    <g id="xtick_4">
     <g id="line2d_4">
      <g>
       <use xlink:href="#mc71cfe5e35" x="270.632988" y="307.584" style="stroke: #000000; stroke-width: 0.8"/>
      </g>
     </g>
     <g id="text_4">
      <!-- 400 -->
      <g transform="translate(261.089238 322.182437) scale(0.1 -0.1)">
       <defs>
        <path id="DejaVuSans-34" d="M 2419 4116 
L 825 1625 
L 2419 1625 
L 2419 4116 
z
M 2253 4666 
L 3047 4666 
L 3047 1625 
L 3713 1625 
L 3713 1100 
L 3047 1100 
L 3047 0 
L 2419 0 
L 2419 1100 
L 313 1100 
L 313 1709 
L 2253 4666 
z
" transform="scale(0.015625)"/>
       </defs>
       <use xlink:href="#DejaVuSans-34"/>
       <use xlink:href="#DejaVuSans-30" x="63.623047"/>
       <use xlink:href="#DejaVuSans-30" x="127.246094"/>
      </g>
     </g>
    </g>
    <g id="xtick_5">
     <g id="line2d_5">
      <g>
       <use xlink:href="#mc71cfe5e35" x="325.99794" y="307.584" style="stroke: #000000; stroke-width: 0.8"/>
      </g>
     </g>
     <g id="text_5">
      <!-- 500 -->
      <g transform="translate(316.45419 322.182437) scale(0.1 -0.1)">
       <defs>
        <path id="DejaVuSans-35" d="M 691 4666 
L 3169 4666 
L 3169 4134 
L 1269 4134 
L 1269 2991 
Q 1406 3038 1543 3061 
Q 1681 3084 1819 3084 
Q 2600 3084 3056 2656 
Q 3513 2228 3513 1497 
Q 3513 744 3044 326 
Q 2575 -91 1722 -91 
Q 1428 -91 1123 -41 
Q 819 9 494 109 
L 494 744 
Q 775 591 1075 516 
Q 1375 441 1709 441 
Q 2250 441 2565 725 
Q 2881 1009 2881 1497 
Q 2881 1984 2565 2268 
Q 2250 2553 1709 2553 
Q 1456 2553 1204 2497 
Q 953 2441 691 2322 
L 691 4666 
z
" transform="scale(0.015625)"/>
       </defs>
       <use xlink:href="#DejaVuSans-35"/>
       <use xlink:href="#DejaVuSans-30" x="63.623047"/>
       <use xlink:href="#DejaVuSans-30" x="127.246094"/>
      </g>
     </g>
    </g>
    <g id="xtick_6">
     <g id="line2d_6">
      <g>
       <use xlink:href="#mc71cfe5e35" x="381.362893" y="307.584" style="stroke: #000000; stroke-width: 0.8"/>
      </g>
     </g>
     <g id="text_6">
      <!-- 600 -->
      <g transform="translate(371.819143 322.182437) scale(0.1 -0.1)">
       <defs>
        <path id="DejaVuSans-36" d="M 2113 2584 
Q 1688 2584 1439 2293 
Q 1191 2003 1191 1497 
Q 1191 994 1439 701 
Q 1688 409 2113 409 
Q 2538 409 2786 701 
Q 3034 994 3034 1497 
Q 3034 2003 2786 2293 
Q 2538 2584 2113 2584 
z
M 3366 4563 
L 3366 3988 
Q 3128 4100 2886 4159 
Q 2644 4219 2406 4219 
Q 1781 4219 1451 3797 
Q 1122 3375 1075 2522 
Q 1259 2794 1537 2939 
Q 1816 3084 2150 3084 
Q 2853 3084 3261 2657 
Q 3669 2231 3669 1497 
Q 3669 778 3244 343 
Q 2819 -91 2113 -91 
Q 1303 -91 875 529 
Q 447 1150 447 2328 
Q 447 3434 972 4092 
Q 1497 4750 2381 4750 
Q 2619 4750 2861 4703 
Q 3103 4656 3366 4563 
z
" transform="scale(0.015625)"/>
       </defs>
       <use xlink:href="#DejaVuSans-36"/>
       <use xlink:href="#DejaVuSans-30" x="63.623047"/>
       <use xlink:href="#DejaVuSans-30" x="127.246094"/>
      </g>
     </g>
    </g>
    <g id="text_7">
     <!-- Score -->
     <g transform="translate(222.157656 335.860562) scale(0.1 -0.1)">
      <defs>
       <path id="DejaVuSans-53" d="M 3425 4513 
L 3425 3897 
Q 3066 4069 2747 4153 
Q 2428 4238 2131 4238 
Q 1616 4238 1336 4038 
Q 1056 3838 1056 3469 
Q 1056 3159 1242 3001 
Q 1428 2844 1947 2747 
L 2328 2669 
Q 3034 2534 3370 2195 
Q 3706 1856 3706 1288 
Q 3706 609 3251 259 
Q 2797 -91 1919 -91 
Q 1588 -91 1214 -16 
Q 841 59 441 206 
L 441 856 
Q 825 641 1194 531 
Q 1563 422 1919 422 
Q 2459 422 2753 634 
Q 3047 847 3047 1241 
Q 3047 1584 2836 1778 
Q 2625 1972 2144 2069 
L 1759 2144 
Q 1053 2284 737 2584 
Q 422 2884 422 3419 
Q 422 4038 858 4394 
Q 1294 4750 2059 4750 
Q 2388 4750 2728 4690 
Q 3069 4631 3425 4513 
z
" transform="scale(0.015625)"/>
       <path id="DejaVuSans-63" d="M 3122 3366 
L 3122 2828 
Q 2878 2963 2633 3030 
Q 2388 3097 2138 3097 
Q 1578 3097 1268 2742 
Q 959 2388 959 1747 
Q 959 1106 1268 751 
Q 1578 397 2138 397 
Q 2388 397 2633 464 
Q 2878 531 3122 666 
L 3122 134 
Q 2881 22 2623 -34 
Q 2366 -91 2075 -91 
Q 1284 -91 818 406 
Q 353 903 353 1747 
Q 353 2603 823 3093 
Q 1294 3584 2113 3584 
Q 2378 3584 2631 3529 
Q 2884 3475 3122 3366 
z
" transform="scale(0.015625)"/>
       <path id="DejaVuSans-6f" d="M 1959 3097 
Q 1497 3097 1228 2736 
Q 959 2375 959 1747 
Q 959 1119 1226 758 
Q 1494 397 1959 397 
Q 2419 397 2687 759 
Q 2956 1122 2956 1747 
Q 2956 2369 2687 2733 
Q 2419 3097 1959 3097 
z
M 1959 3584 
Q 2709 3584 3137 3096 
Q 3566 2609 3566 1747 
Q 3566 888 3137 398 
Q 2709 -91 1959 -91 
Q 1206 -91 779 398 
Q 353 888 353 1747 
Q 353 2609 779 3096 
Q 1206 3584 1959 3584 
z
" transform="scale(0.015625)"/>
       <path id="DejaVuSans-72" d="M 2631 2963 
Q 2534 3019 2420 3045 
Q 2306 3072 2169 3072 
Q 1681 3072 1420 2755 
Q 1159 2438 1159 1844 
L 1159 0 
L 581 0 
L 581 3500 
L 1159 3500 
L 1159 2956 
Q 1341 3275 1631 3429 
Q 1922 3584 2338 3584 
Q 2397 3584 2469 3576 
Q 2541 3569 2628 3553 
L 2631 2963 
z
" transform="scale(0.015625)"/>
       <path id="DejaVuSans-65" d="M 3597 1894 
L 3597 1613 
L 953 1613 
Q 991 1019 1311 708 
Q 1631 397 2203 397 
Q 2534 397 2845 478 
Q 3156 559 3463 722 
L 3463 178 
Q 3153 47 2828 -22 
Q 2503 -91 2169 -91 
Q 1331 -91 842 396 
Q 353 884 353 1716 
Q 353 2575 817 3079 
Q 1281 3584 2069 3584 
Q 2775 3584 3186 3129 
Q 3597 2675 3597 1894 
z
M 3022 2063 
Q 3016 2534 2758 2815 
Q 2500 3097 2075 3097 
Q 1594 3097 1305 2825 
Q 1016 2553 972 2059 
L 3022 2063 
z
" transform="scale(0.015625)"/>
      </defs>
      <use xlink:href="#DejaVuSans-53"/>
      <use xlink:href="#DejaVuSans-63" x="63.476562"/>
      <use xlink:href="#DejaVuSans-6f" x="118.457031"/>
      <use xlink:href="#DejaVuSans-72" x="179.638672"/>
      <use xlink:href="#DejaVuSans-65" x="218.501953"/>
     </g>
    </g>
   </g>
   <g id="matplotlib.axis_2">
    <g id="ytick_1">
     <g id="line2d_7">
      <defs>
       <path id="m1e400136fd" d="M 0 0 
L -3.5 0 
" style="stroke: #000000; stroke-width: 0.8"/>
      </defs>
      <g>
       <use xlink:href="#m1e400136fd" x="57.6" y="307.584" style="stroke: #000000; stroke-width: 0.8"/>
      </g>
     </g>
     <g id="text_8">
      <!-- 0 -->
      <g transform="translate(44.2375 311.383219) scale(0.1 -0.1)">
       <use xlink:href="#DejaVuSans-30"/>
      </g>
     </g>
    </g>
    <g id="ytick_2">
     <g id="line2d_8">
      <g>
       <use xlink:href="#m1e400136fd" x="57.6" y="257.298286" style="stroke: #000000; stroke-width: 0.8"/>
      </g>
     </g>
     <g id="text_9">
      <!-- 50 -->
      <g transform="translate(37.875 261.097504) scale(0.1 -0.1)">
       <use xlink:href="#DejaVuSans-35"/>
       <use xlink:href="#DejaVuSans-30" x="63.623047"/>
      </g>
     </g>
    </g>
    <g id="ytick_3">
     <g id="line2d_9">
      <g>
       <use xlink:href="#m1e400136fd" x="57.6" y="207.012571" style="stroke: #000000; stroke-width: 0.8"/>
      </g>
     </g>
     <g id="text_10">
      <!-- 100 -->
      <g transform="translate(31.5125 210.81179) scale(0.1 -0.1)">
       <use xlink:href="#DejaVuSans-31"/>
       <use xlink:href="#DejaVuSans-30" x="63.623047"/>
       <use xlink:href="#DejaVuSans-30" x="127.246094"/>
      </g>
     </g>
    </g>
    <g id="ytick_4">
     <g id="line2d_10">
      <g>
       <use xlink:href="#m1e400136fd" x="57.6" y="156.726857" style="stroke: #000000; stroke-width: 0.8"/>
      </g>
     </g>
     <g id="text_11">
      <!-- 150 -->
      <g transform="translate(31.5125 160.526076) scale(0.1 -0.1)">
       <use xlink:href="#DejaVuSans-31"/>
       <use xlink:href="#DejaVuSans-35" x="63.623047"/>
       <use xlink:href="#DejaVuSans-30" x="127.246094"/>
      </g>
     </g>
    </g>
    <g id="ytick_5">
     <g id="line2d_11">
      <g>
       <use xlink:href="#m1e400136fd" x="57.6" y="106.441143" style="stroke: #000000; stroke-width: 0.8"/>
      </g>
     </g>
     <g id="text_12">
      <!-- 200 -->
      <g transform="translate(31.5125 110.240362) scale(0.1 -0.1)">
       <use xlink:href="#DejaVuSans-32"/>
       <use xlink:href="#DejaVuSans-30" x="63.623047"/>
       <use xlink:href="#DejaVuSans-30" x="127.246094"/>
      </g>
     </g>
    </g>
    <g id="ytick_6">
     <g id="line2d_12">
      <g>
       <use xlink:href="#m1e400136fd" x="57.6" y="56.155429" style="stroke: #000000; stroke-width: 0.8"/>
      </g>
     </g>
     <g id="text_13">
      <!-- 250 -->
      <g transform="translate(31.5125 59.954647) scale(0.1 -0.1)">
       <use xlink:href="#DejaVuSans-32"/>
       <use xlink:href="#DejaVuSans-35" x="63.623047"/>
       <use xlink:href="#DejaVuSans-30" x="127.246094"/>
      </g>
     </g>
    </g>
    <g id="text_14">
     <!-- Number of crosslinks -->
     <g transform="translate(25.432812 227.019406) rotate(-90) scale(0.1 -0.1)">
      <defs>
       <path id="DejaVuSans-4e" d="M 628 4666 
L 1478 4666 
L 3547 763 
L 3547 4666 
L 4159 4666 
L 4159 0 
L 3309 0 
L 1241 3903 
L 1241 0 
L 628 0 
L 628 4666 
z
" transform="scale(0.015625)"/>
       <path id="DejaVuSans-75" d="M 544 1381 
L 544 3500 
L 1119 3500 
L 1119 1403 
Q 1119 906 1312 657 
Q 1506 409 1894 409 
Q 2359 409 2629 706 
Q 2900 1003 2900 1516 
L 2900 3500 
L 3475 3500 
L 3475 0 
L 2900 0 
L 2900 538 
Q 2691 219 2414 64 
Q 2138 -91 1772 -91 
Q 1169 -91 856 284 
Q 544 659 544 1381 
z
M 1991 3584 
L 1991 3584 
z
" transform="scale(0.015625)"/>
       <path id="DejaVuSans-6d" d="M 3328 2828 
Q 3544 3216 3844 3400 
Q 4144 3584 4550 3584 
Q 5097 3584 5394 3201 
Q 5691 2819 5691 2113 
L 5691 0 
L 5113 0 
L 5113 2094 
Q 5113 2597 4934 2840 
Q 4756 3084 4391 3084 
Q 3944 3084 3684 2787 
Q 3425 2491 3425 1978 
L 3425 0 
L 2847 0 
L 2847 2094 
Q 2847 2600 2669 2842 
Q 2491 3084 2119 3084 
Q 1678 3084 1418 2786 
Q 1159 2488 1159 1978 
L 1159 0 
L 581 0 
L 581 3500 
L 1159 3500 
L 1159 2956 
Q 1356 3278 1631 3431 
Q 1906 3584 2284 3584 
Q 2666 3584 2933 3390 
Q 3200 3197 3328 2828 
z
" transform="scale(0.015625)"/>
       <path id="DejaVuSans-62" d="M 3116 1747 
Q 3116 2381 2855 2742 
Q 2594 3103 2138 3103 
Q 1681 3103 1420 2742 
Q 1159 2381 1159 1747 
Q 1159 1113 1420 752 
Q 1681 391 2138 391 
Q 2594 391 2855 752 
Q 3116 1113 3116 1747 
z
M 1159 2969 
Q 1341 3281 1617 3432 
Q 1894 3584 2278 3584 
Q 2916 3584 3314 3078 
Q 3713 2572 3713 1747 
Q 3713 922 3314 415 
Q 2916 -91 2278 -91 
Q 1894 -91 1617 61 
Q 1341 213 1159 525 
L 1159 0 
L 581 0 
L 581 4863 
L 1159 4863 
L 1159 2969 
z
" transform="scale(0.015625)"/>
       <path id="DejaVuSans-20" transform="scale(0.015625)"/>
       <path id="DejaVuSans-66" d="M 2375 4863 
L 2375 4384 
L 1825 4384 
Q 1516 4384 1395 4259 
Q 1275 4134 1275 3809 
L 1275 3500 
L 2222 3500 
L 2222 3053 
L 1275 3053 
L 1275 0 
L 697 0 
L 697 3053 
L 147 3053 
L 147 3500 
L 697 3500 
L 697 3744 
Q 697 4328 969 4595 
Q 1241 4863 1831 4863 
L 2375 4863 
z
" transform="scale(0.015625)"/>
       <path id="DejaVuSans-73" d="M 2834 3397 
L 2834 2853 
Q 2591 2978 2328 3040 
Q 2066 3103 1784 3103 
Q 1356 3103 1142 2972 
Q 928 2841 928 2578 
Q 928 2378 1081 2264 
Q 1234 2150 1697 2047 
L 1894 2003 
Q 2506 1872 2764 1633 
Q 3022 1394 3022 966 
Q 3022 478 2636 193 
Q 2250 -91 1575 -91 
Q 1294 -91 989 -36 
Q 684 19 347 128 
L 347 722 
Q 666 556 975 473 
Q 1284 391 1588 391 
Q 1994 391 2212 530 
Q 2431 669 2431 922 
Q 2431 1156 2273 1281 
Q 2116 1406 1581 1522 
L 1381 1569 
Q 847 1681 609 1914 
Q 372 2147 372 2553 
Q 372 3047 722 3315 
Q 1072 3584 1716 3584 
Q 2034 3584 2315 3537 
Q 2597 3491 2834 3397 
z
" transform="scale(0.015625)"/>
       <path id="DejaVuSans-6c" d="M 603 4863 
L 1178 4863 
L 1178 0 
L 603 0 
L 603 4863 
z
" transform="scale(0.015625)"/>
       <path id="DejaVuSans-69" d="M 603 3500 
L 1178 3500 
L 1178 0 
L 603 0 
L 603 3500 
z
M 603 4863 
L 1178 4863 
L 1178 4134 
L 603 4134 
L 603 4863 
z
" transform="scale(0.015625)"/>
       <path id="DejaVuSans-6e" d="M 3513 2113 
L 3513 0 
L 2938 0 
L 2938 2094 
Q 2938 2591 2744 2837 
Q 2550 3084 2163 3084 
Q 1697 3084 1428 2787 
Q 1159 2491 1159 1978 
L 1159 0 
L 581 0 
L 581 3500 
L 1159 3500 
L 1159 2956 
Q 1366 3272 1645 3428 
Q 1925 3584 2291 3584 
Q 2894 3584 3203 3211 
Q 3513 2838 3513 2113 
z
" transform="scale(0.015625)"/>
       <path id="DejaVuSans-6b" d="M 581 4863 
L 1159 4863 
L 1159 1991 
L 2875 3500 
L 3609 3500 
L 1753 1863 
L 3688 0 
L 2938 0 
L 1159 1709 
L 1159 0 
L 581 0 
L 581 4863 
z
" transform="scale(0.015625)"/>
      </defs>
      <use xlink:href="#DejaVuSans-4e"/>
      <use xlink:href="#DejaVuSans-75" x="74.804688"/>
      <use xlink:href="#DejaVuSans-6d" x="138.183594"/>
      <use xlink:href="#DejaVuSans-62" x="235.595703"/>
      <use xlink:href="#DejaVuSans-65" x="299.072266"/>
      <use xlink:href="#DejaVuSans-72" x="360.595703"/>
      <use xlink:href="#DejaVuSans-20" x="401.708984"/>
      <use xlink:href="#DejaVuSans-6f" x="433.496094"/>
      <use xlink:href="#DejaVuSans-66" x="494.677734"/>
      <use xlink:href="#DejaVuSans-20" x="529.882812"/>
      <use xlink:href="#DejaVuSans-63" x="561.669922"/>
      <use xlink:href="#DejaVuSans-72" x="616.650391"/>
      <use xlink:href="#DejaVuSans-6f" x="655.513672"/>
      <use xlink:href="#DejaVuSans-73" x="716.695312"/>
      <use xlink:href="#DejaVuSans-73" x="768.794922"/>
      <use xlink:href="#DejaVuSans-6c" x="820.894531"/>
      <use xlink:href="#DejaVuSans-69" x="848.677734"/>
      <use xlink:href="#DejaVuSans-6e" x="876.460938"/>
      <use xlink:href="#DejaVuSans-6b" x="939.839844"/>
      <use xlink:href="#DejaVuSans-73" x="997.75"/>
     </g>
    </g>
   </g>
   <g id="patch_3">
    <path d="M 57.6 307.584 
L 57.6 41.472 
" style="fill: none; stroke: #000000; stroke-width: 0.8; stroke-linejoin: miter; stroke-linecap: square"/>
   </g>
   <g id="patch_4">
    <path d="M 414.72 307.584 
L 414.72 41.472 
" style="fill: none; stroke: #000000; stroke-width: 0.8; stroke-linejoin: miter; stroke-linecap: square"/>
   </g>
   <g id="patch_5">
    <path d="M 57.6 307.584 
L 414.72 307.584 
" style="fill: none; stroke: #000000; stroke-width: 0.8; stroke-linejoin: miter; stroke-linecap: square"/>
   </g>
   <g id="patch_6">
    <path d="M 57.6 41.472 
L 414.72 41.472 
" style="fill: none; stroke: #000000; stroke-width: 0.8; stroke-linejoin: miter; stroke-linecap: square"/>
   </g>
   <g id="legend_1">
    <g id="patch_7">
     <path d="M 293.087188 93.506375 
L 407.72 93.506375 
Q 409.72 93.506375 409.72 91.506375 
L 409.72 48.472 
Q 409.72 46.472 407.72 46.472 
L 293.087188 46.472 
Q 291.087188 46.472 291.087188 48.472 
L 291.087188 91.506375 
Q 291.087188 93.506375 293.087188 93.506375 
z
" style="fill: #ffffff; opacity: 0.8; stroke: #cccccc; stroke-linejoin: miter"/>
    </g>
    <g id="patch_8">
     <path d="M 295.087188 58.070438 
L 315.087188 58.070438 
L 315.087188 51.070438 
L 295.087188 51.070438 
z
" style="fill: #008000"/>
    </g>
    <g id="text_15">
     <!-- true -->
     <g transform="translate(323.087188 58.070438) scale(0.1 -0.1)">
      <defs>
       <path id="DejaVuSans-74" d="M 1172 4494 
L 1172 3500 
L 2356 3500 
L 2356 3053 
L 1172 3053 
L 1172 1153 
Q 1172 725 1289 603 
Q 1406 481 1766 481 
L 2356 481 
L 2356 0 
L 1766 0 
Q 1100 0 847 248 
Q 594 497 594 1153 
L 594 3053 
L 172 3053 
L 172 3500 
L 594 3500 
L 594 4494 
L 1172 4494 
z
" transform="scale(0.015625)"/>
      </defs>
      <use xlink:href="#DejaVuSans-74"/>
      <use xlink:href="#DejaVuSans-72" x="39.208984"/>
      <use xlink:href="#DejaVuSans-75" x="80.322266"/>
      <use xlink:href="#DejaVuSans-65" x="143.701172"/>
     </g>
    </g>
    <g id="patch_9">
     <path d="M 295.087188 72.748563 
L 315.087188 72.748563 
L 315.087188 65.748563 
L 295.087188 65.748563 
z
" style="fill: #7cfc00"/>
    </g>
    <g id="text_16">
     <!-- true homeotypic -->
     <g transform="translate(323.087188 72.748563) scale(0.1 -0.1)">
      <defs>
       <path id="DejaVuSans-68" d="M 3513 2113 
L 3513 0 
L 2938 0 
L 2938 2094 
Q 2938 2591 2744 2837 
Q 2550 3084 2163 3084 
Q 1697 3084 1428 2787 
Q 1159 2491 1159 1978 
L 1159 0 
L 581 0 
L 581 4863 
L 1159 4863 
L 1159 2956 
Q 1366 3272 1645 3428 
Q 1925 3584 2291 3584 
Q 2894 3584 3203 3211 
Q 3513 2838 3513 2113 
z
" transform="scale(0.015625)"/>
       <path id="DejaVuSans-79" d="M 2059 -325 
Q 1816 -950 1584 -1140 
Q 1353 -1331 966 -1331 
L 506 -1331 
L 506 -850 
L 844 -850 
Q 1081 -850 1212 -737 
Q 1344 -625 1503 -206 
L 1606 56 
L 191 3500 
L 800 3500 
L 1894 763 
L 2988 3500 
L 3597 3500 
L 2059 -325 
z
" transform="scale(0.015625)"/>
       <path id="DejaVuSans-70" d="M 1159 525 
L 1159 -1331 
L 581 -1331 
L 581 3500 
L 1159 3500 
L 1159 2969 
Q 1341 3281 1617 3432 
Q 1894 3584 2278 3584 
Q 2916 3584 3314 3078 
Q 3713 2572 3713 1747 
Q 3713 922 3314 415 
Q 2916 -91 2278 -91 
Q 1894 -91 1617 61 
Q 1341 213 1159 525 
z
M 3116 1747 
Q 3116 2381 2855 2742 
Q 2594 3103 2138 3103 
Q 1681 3103 1420 2742 
Q 1159 2381 1159 1747 
Q 1159 1113 1420 752 
Q 1681 391 2138 391 
Q 2594 391 2855 752 
Q 3116 1113 3116 1747 
z
" transform="scale(0.015625)"/>
      </defs>
      <use xlink:href="#DejaVuSans-74"/>
      <use xlink:href="#DejaVuSans-72" x="39.208984"/>
      <use xlink:href="#DejaVuSans-75" x="80.322266"/>
      <use xlink:href="#DejaVuSans-65" x="143.701172"/>
      <use xlink:href="#DejaVuSans-20" x="205.224609"/>
      <use xlink:href="#DejaVuSans-68" x="237.011719"/>
      <use xlink:href="#DejaVuSans-6f" x="300.390625"/>
      <use xlink:href="#DejaVuSans-6d" x="361.572266"/>
      <use xlink:href="#DejaVuSans-65" x="458.984375"/>
      <use xlink:href="#DejaVuSans-6f" x="520.507812"/>
      <use xlink:href="#DejaVuSans-74" x="581.689453"/>
      <use xlink:href="#DejaVuSans-79" x="620.898438"/>
      <use xlink:href="#DejaVuSans-70" x="680.078125"/>
      <use xlink:href="#DejaVuSans-69" x="743.554688"/>
      <use xlink:href="#DejaVuSans-63" x="771.337891"/>
     </g>
    </g>
    <g id="patch_10">
     <path d="M 295.087188 87.426688 
L 315.087188 87.426688 
L 315.087188 80.426688 
L 295.087188 80.426688 
z
" style="fill: #ff0000"/>
    </g>
    <g id="text_17">
     <!-- false -->
     <g transform="translate(323.087188 87.426688) scale(0.1 -0.1)">
      <defs>
       <path id="DejaVuSans-61" d="M 2194 1759 
Q 1497 1759 1228 1600 
Q 959 1441 959 1056 
Q 959 750 1161 570 
Q 1363 391 1709 391 
Q 2188 391 2477 730 
Q 2766 1069 2766 1631 
L 2766 1759 
L 2194 1759 
z
M 3341 1997 
L 3341 0 
L 2766 0 
L 2766 531 
Q 2569 213 2275 61 
Q 1981 -91 1556 -91 
Q 1019 -91 701 211 
Q 384 513 384 1019 
Q 384 1609 779 1909 
Q 1175 2209 1959 2209 
L 2766 2209 
L 2766 2266 
Q 2766 2663 2505 2880 
Q 2244 3097 1772 3097 
Q 1472 3097 1187 3025 
Q 903 2953 641 2809 
L 641 3341 
Q 956 3463 1253 3523 
Q 1550 3584 1831 3584 
Q 2591 3584 2966 3190 
Q 3341 2797 3341 1997 
z
" transform="scale(0.015625)"/>
      </defs>
      <use xlink:href="#DejaVuSans-66"/>
      <use xlink:href="#DejaVuSans-61" x="35.205078"/>
      <use xlink:href="#DejaVuSans-6c" x="96.484375"/>
      <use xlink:href="#DejaVuSans-73" x="124.267578"/>
      <use xlink:href="#DejaVuSans-65" x="176.367188"/>
     </g>
    </g>
   </g>
  </g>
 </g>
 <defs>
  <clipPath id="p69ddbd8ec9">
   <rect x="57.6" y="41.472" width="357.12" height="266.112"/>
  </clipPath>
 </defs>
</svg>
