<?xml version="1.0" encoding="utf-8" standalone="no"?>
<!DOCTYPE svg PUBLIC "-//W3C//DTD SVG 1.1//EN"
  "http://www.w3.org/Graphics/SVG/1.1/DTD/svg11.dtd">
<svg xmlns:xlink="http://www.w3.org/1999/xlink" width="460.8pt" height="345.6pt" viewBox="0 0 460.8 345.6" xmlns="http://www.w3.org/2000/svg" version="1.1">
 <metadata>
  <rdf:RDF xmlns:dc="http://purl.org/dc/elements/1.1/" xmlns:cc="http://creativecommons.org/ns#" xmlns:rdf="http://www.w3.org/1999/02/22-rdf-syntax-ns#">
   <cc:Work>
    <dc:type rdf:resource="http://purl.org/dc/dcmitype/StillImage"/>
    <dc:date>2024-06-25T14:44:08.282892</dc:date>
    <dc:format>image/svg+xml</dc:format>
    <dc:creator>
     <cc:Agent>
      <dc:title>Matplotlib v3.9.0, https://matplotlib.org/</dc:title>
     </cc:Agent>
    </dc:creator>
   </cc:Work>
  </rdf:RDF>
 </metadata>
 <defs>
  <style type="text/css">*{stroke-linejoin: round; stroke-linecap: butt}</style>
 </defs>
 <g id="figure_1">
  <g id="patch_1">
   <path d="M 0 345.6 
L 460.8 345.6 
L 460.8 0 
L 0 0 
z
" style="fill: #ffffff"/>
  </g>
  <g id="axes_1">
   <g id="patch_2">
    <path d="M 57.6 307.584 
L 414.72 307.584 
L 414.72 41.472 
L 57.6 41.472 
z
" style="fill: #ffffff"/>
   </g>
   <g id="PolyCollection_1">
    <path d="M 73.832727 122.216727 
L 73.832727 307.584 
L 76.271962 307.584 
L 77.186675 307.584 
L 77.232411 307.584 
L 77.773616 307.584 
L 78.185237 307.584 
L 78.703575 307.584 
L 80.350058 307.584 
L 82.766425 307.584 
L 85.220905 307.584 
L 86.814031 307.584 
L 86.905502 307.584 
L 87.149425 307.584 
L 87.187538 307.584 
L 87.675385 307.584 
L 89.359982 307.584 
L 90.884504 307.584 
L 91.097937 307.584 
L 91.28088 307.584 
L 91.372351 307.584 
L 92.035518 307.584 
L 93.026457 307.584 
L 93.156041 307.584 
L 94.947355 307.584 
L 95.252259 307.584 
L 95.320862 307.584 
L 95.785842 307.584 
L 96.052633 307.584 
L 96.288934 307.584 
L 96.433763 307.584 
L 96.792026 307.584 
L 97.074063 307.584 
L 100.618576 307.584 
L 101.388459 307.584 
L 102.089739 307.584 
L 103.057811 307.584 
L 104.330786 307.584 
L 104.467993 307.584 
L 105.382706 307.584 
L 107.715225 307.584 
L 108.180204 307.584 
L 108.530844 307.584 
L 108.805258 307.584 
L 110.085856 307.584 
L 110.169705 307.584 
L 110.977702 307.584 
L 111.724717 307.584 
L 112.220187 307.584 
L 112.92909 307.584 
L 113.157768 307.584 
L 113.561766 307.584 
L 113.859048 307.584 
L 114.110594 307.584 
L 114.141084 307.584 
L 114.941458 307.584 
L 115.154891 307.584 
L 115.627493 307.584 
L 116.016246 307.584 
L 116.199189 307.584 
L 116.229679 307.584 
L 116.534584 307.584 
L 116.808998 307.584 
L 116.900469 307.584 
L 117.106279 307.584 
L 117.639862 307.584 
L 117.66273 307.584 
L 117.860918 307.584 
L 118.081973 307.584 
L 118.303029 307.584 
L 118.699405 307.584 
L 119.568382 307.584 
L 119.682721 307.584 
L 119.926645 307.584 
L 120.262039 307.584 
L 120.780377 307.584 
L 120.841358 307.584 
L 121.237733 307.584 
L 125.117641 307.584 
L 125.910393 307.584 
L 125.971374 307.584 
L 126.565937 307.584 
L 127.465405 307.584 
L 128.128572 307.584 
L 128.212421 307.584 
L 128.29627 307.584 
L 128.692645 307.584 
L 129.089021 307.584 
L 130.186677 307.584 
L 130.57543 307.584 
L 130.60592 307.584 
L 131.200484 307.584 
L 131.62735 307.584 
L 131.711198 307.584 
L 131.917009 307.584 
L 132.054216 307.584 
L 132.077084 307.584 
L 133.266211 307.584 
L 133.296701 307.584 
L 133.510134 307.584 
L 134.874581 307.584 
L 136.322877 307.584 
L 136.513442 307.584 
L 136.871705 307.584 
L 137.855021 307.584 
L 138.228529 307.584 
L 138.594414 307.584 
L 138.937432 307.584 
L 140.050333 307.584 
L 141.460515 307.584 
L 142.664888 307.584 
L 142.687756 307.584 
L 142.771604 307.584 
L 142.954547 307.584 
L 143.091754 307.584 
L 143.389036 307.584 
L 143.754921 307.584 
L 146.171288 307.584 
L 147.093624 307.584 
L 147.37566 307.584 
L 147.932111 307.584 
L 148.069318 307.584 
L 148.153166 307.584 
L 148.305618 307.584 
L 148.808711 307.584 
L 149.410897 307.584 
L 151.087871 307.584 
L 151.888245 307.584 
L 152.551412 307.584 
L 152.581902 307.584 
L 152.947787 307.584 
L 153.077372 307.584 
L 153.367031 307.584 
L 153.633822 307.584 
L 153.984462 307.584 
L 154.197895 307.584 
L 154.784836 307.584 
L 155.920605 307.584 
L 156.865809 307.584 
L 157.300297 307.584 
L 157.83388 307.584 
L 157.910106 307.584 
L 159.983456 307.584 
L 160.395077 307.584 
L 160.738094 307.584 
L 161.873863 307.584 
L 162.125409 307.584 
L 162.689482 307.584 
L 163.169706 307.584 
L 163.398385 307.584 
L 164.770454 307.584 
L 165.509847 307.584 
L 166.287353 307.584 
L 166.371202 307.584 
L 166.798068 307.584 
L 166.843804 307.584 
L 167.232557 307.584 
L 167.979573 307.584 
L 168.086289 307.584 
L 170.030054 307.584 
L 170.037677 307.584 
L 171.203936 307.584 
L 172.210121 307.584 
L 172.484535 307.584 
L 172.644609 307.584 
L 173.23155 307.584 
L 176.67697 307.584 
L 176.913271 307.584 
L 177.484966 307.584 
L 177.523079 307.584 
L 178.231982 307.584 
L 178.239605 307.584 
L 179.291525 307.584 
L 179.847975 307.584 
L 180.701707 307.584 
L 180.716952 307.584 
L 180.968499 307.584 
L 181.029479 307.584 
L 181.677401 307.584 
L 181.685024 307.584 
L 181.715514 307.584 
L 181.898457 307.584 
L 183.33913 307.584 
L 183.491582 307.584 
L 184.703577 307.584 
L 185.488706 307.584 
L 185.526819 307.584 
L 187.478207 307.584 
L 187.72213 307.584 
L 187.912696 307.584 
L 188.659711 307.584 
L 192.981731 307.584 
L 194.201348 307.584 
L 195.413343 307.584 
L 195.474324 307.584 
L 198.309934 307.584 
L 199.186534 307.584 
L 199.270383 307.584 
L 200.307058 307.584 
L 201.374223 307.584 
L 202.456634 307.584 
L 204.270815 307.584 
L 206.557597 307.584 
L 207.388462 307.584 
L 207.41133 307.584 
L 208.31842 307.584 
L 209.842942 307.584 
L 212.419384 307.584 
L 213.181645 307.584 
L 213.715227 307.584 
L 219.020563 307.584 
L 219.180638 307.584 
L 221.307346 307.584 
L 227.550263 307.584 
L 227.580753 307.584 
L 230.14195 307.584 
L 230.774627 307.584 
L 232.59643 307.584 
L 233.640728 307.584 
L 236.941317 307.584 
L 242.490577 307.584 
L 255.380409 307.584 
L 256.31799 307.584 
L 259.771032 307.584 
L 260.075936 307.584 
L 267.820507 307.584 
L 290.124261 307.584 
L 291.244785 307.584 
L 291.252407 307.584 
L 291.854594 307.584 
L 299.576297 307.584 
L 305.415215 307.584 
L 305.773478 307.584 
L 307.397094 307.584 
L 308.113619 307.584 
L 312.710052 307.584 
L 329.022436 307.584 
L 332.399252 307.584 
L 333.695095 307.584 
L 337.521645 307.584 
L 349.504386 307.584 
L 372.456063 307.584 
L 398.487273 307.584 
L 398.487273 307.584 
L 398.487273 307.584 
L 372.456063 307.584 
L 349.504386 307.584 
L 337.521645 307.584 
L 333.695095 307.584 
L 332.399252 307.584 
L 329.022436 306.536727 
L 312.710052 305.489455 
L 308.113619 305.489455 
L 307.397094 305.489455 
L 305.773478 305.489455 
L 305.415215 305.489455 
L 299.576297 305.489455 
L 291.854594 305.489455 
L 291.252407 304.442182 
L 291.244785 304.442182 
L 290.124261 304.442182 
L 267.820507 303.394909 
L 260.075936 302.347636 
L 259.771032 301.300364 
L 256.31799 301.300364 
L 255.380409 300.253091 
L 242.490577 299.205818 
L 236.941317 298.158545 
L 233.640728 298.158545 
L 232.59643 298.158545 
L 230.774627 298.158545 
L 230.14195 297.111273 
L 227.580753 296.064 
L 227.550263 296.064 
L 221.307346 295.016727 
L 219.180638 293.969455 
L 219.020563 292.922182 
L 213.715227 292.922182 
L 213.181645 291.874909 
L 212.419384 291.874909 
L 209.842942 291.874909 
L 208.31842 290.827636 
L 207.41133 289.780364 
L 207.388462 288.733091 
L 206.557597 288.733091 
L 204.270815 288.733091 
L 202.456634 287.685818 
L 201.374223 287.685818 
L 200.307058 287.685818 
L 199.270383 286.638545 
L 199.186534 285.591273 
L 198.309934 284.544 
L 195.474324 284.544 
L 195.413343 283.496727 
L 194.201348 282.449455 
L 192.981731 281.402182 
L 188.659711 280.354909 
L 187.912696 279.307636 
L 187.72213 278.260364 
L 187.478207 277.213091 
L 185.526819 277.213091 
L 185.488706 276.165818 
L 184.703577 275.118545 
L 183.491582 275.118545 
L 183.33913 275.118545 
L 181.898457 275.118545 
L 181.715514 274.071273 
L 181.685024 273.024 
L 181.677401 271.976727 
L 181.029479 270.929455 
L 180.968499 270.929455 
L 180.716952 269.882182 
L 180.701707 268.834909 
L 179.847975 267.787636 
L 179.291525 266.740364 
L 178.239605 265.693091 
L 178.231982 264.645818 
L 177.523079 263.598545 
L 177.484966 262.551273 
L 176.913271 262.551273 
L 176.67697 261.504 
L 173.23155 260.456727 
L 172.644609 260.456727 
L 172.484535 260.456727 
L 172.210121 260.456727 
L 171.203936 259.409455 
L 170.037677 258.362182 
L 170.030054 257.314909 
L 168.086289 256.267636 
L 167.979573 255.220364 
L 167.232557 254.173091 
L 166.843804 253.125818 
L 166.798068 252.078545 
L 166.371202 251.031273 
L 166.287353 249.984 
L 165.509847 248.936727 
L 164.770454 248.936727 
L 163.398385 247.889455 
L 163.169706 246.842182 
L 162.689482 245.794909 
L 162.125409 244.747636 
L 161.873863 243.700364 
L 160.738094 242.653091 
L 160.395077 241.605818 
L 159.983456 240.558545 
L 157.910106 239.511273 
L 157.83388 239.511273 
L 157.300297 238.464 
L 156.865809 237.416727 
L 155.920605 236.369455 
L 154.784836 236.369455 
L 154.197895 235.322182 
L 153.984462 234.274909 
L 153.633822 233.227636 
L 153.367031 232.180364 
L 153.077372 231.133091 
L 152.947787 231.133091 
L 152.581902 230.085818 
L 152.551412 229.038545 
L 151.888245 227.991273 
L 151.087871 226.944 
L 149.410897 225.896727 
L 148.808711 224.849455 
L 148.305618 223.802182 
L 148.153166 222.754909 
L 148.069318 221.707636 
L 147.932111 220.660364 
L 147.37566 219.613091 
L 147.093624 218.565818 
L 146.171288 217.518545 
L 143.754921 217.518545 
L 143.389036 217.518545 
L 143.091754 216.471273 
L 142.954547 215.424 
L 142.771604 214.376727 
L 142.687756 213.329455 
L 142.664888 213.329455 
L 141.460515 212.282182 
L 140.050333 211.234909 
L 138.937432 210.187636 
L 138.594414 210.187636 
L 138.228529 209.140364 
L 137.855021 208.093091 
L 136.871705 207.045818 
L 136.513442 205.998545 
L 136.322877 204.951273 
L 134.874581 204.951273 
L 133.510134 203.904 
L 133.296701 203.904 
L 133.266211 202.856727 
L 132.077084 201.809455 
L 132.054216 201.809455 
L 131.917009 200.762182 
L 131.711198 200.762182 
L 131.62735 199.714909 
L 131.200484 199.714909 
L 130.60592 198.667636 
L 130.57543 197.620364 
L 130.186677 196.573091 
L 129.089021 195.525818 
L 128.692645 194.478545 
L 128.29627 193.431273 
L 128.212421 192.384 
L 128.128572 191.336727 
L 127.465405 190.289455 
L 126.565937 189.242182 
L 125.971374 188.194909 
L 125.910393 187.147636 
L 125.117641 186.100364 
L 121.237733 185.053091 
L 120.841358 184.005818 
L 120.780377 182.958545 
L 120.262039 181.911273 
L 119.926645 180.864 
L 119.682721 179.816727 
L 119.568382 178.769455 
L 118.699405 177.722182 
L 118.303029 176.674909 
L 118.081973 175.627636 
L 117.860918 174.580364 
L 117.66273 173.533091 
L 117.639862 172.485818 
L 117.106279 171.438545 
L 116.900469 171.438545 
L 116.808998 170.391273 
L 116.534584 170.391273 
L 116.229679 169.344 
L 116.199189 168.296727 
L 116.016246 167.249455 
L 115.627493 166.202182 
L 115.154891 165.154909 
L 114.941458 164.107636 
L 114.141084 163.060364 
L 114.110594 162.013091 
L 113.859048 160.965818 
L 113.561766 159.918545 
L 113.157768 158.871273 
L 112.92909 158.871273 
L 112.220187 157.824 
L 111.724717 156.776727 
L 110.977702 155.729455 
L 110.169705 154.682182 
L 110.085856 153.634909 
L 108.805258 152.587636 
L 108.530844 151.540364 
L 108.180204 150.493091 
L 107.715225 149.445818 
L 105.382706 148.398545 
L 104.467993 148.398545 
L 104.330786 147.351273 
L 103.057811 146.304 
L 102.089739 145.256727 
L 101.388459 144.209455 
L 100.618576 143.162182 
L 97.074063 143.162182 
L 96.792026 142.114909 
L 96.433763 141.067636 
L 96.288934 140.020364 
L 96.052633 140.020364 
L 95.785842 138.973091 
L 95.320862 137.925818 
L 95.252259 136.878545 
L 94.947355 135.831273 
L 93.156041 134.784 
L 93.026457 134.784 
L 92.035518 133.736727 
L 91.372351 132.689455 
L 91.28088 131.642182 
L 91.097937 131.642182 
L 90.884504 130.594909 
L 89.359982 129.547636 
L 87.675385 128.500364 
L 87.187538 127.453091 
L 87.149425 126.405818 
L 86.905502 126.405818 
L 86.814031 125.358545 
L 85.220905 125.358545 
L 82.766425 125.358545 
L 80.350058 125.358545 
L 78.703575 124.311273 
L 78.185237 123.264 
L 77.773616 123.264 
L 77.232411 123.264 
L 77.186675 122.216727 
L 76.271962 122.216727 
L 73.832727 122.216727 
z
" clip-path="url(#p0ef861dd2a)" style="fill: #008000"/>
   </g>
   <g id="PolyCollection_2">
    <path d="M 73.832727 69.853091 
L 73.832727 122.216727 
L 76.271962 122.216727 
L 77.186675 122.216727 
L 77.232411 123.264 
L 77.773616 123.264 
L 78.185237 123.264 
L 78.703575 124.311273 
L 80.350058 125.358545 
L 82.766425 125.358545 
L 85.220905 125.358545 
L 86.814031 125.358545 
L 86.905502 126.405818 
L 87.149425 126.405818 
L 87.187538 127.453091 
L 87.675385 128.500364 
L 89.359982 129.547636 
L 90.884504 130.594909 
L 91.097937 131.642182 
L 91.28088 131.642182 
L 91.372351 132.689455 
L 92.035518 133.736727 
L 93.026457 134.784 
L 93.156041 134.784 
L 94.947355 135.831273 
L 95.252259 136.878545 
L 95.320862 137.925818 
L 95.785842 138.973091 
L 96.052633 140.020364 
L 96.288934 140.020364 
L 96.433763 141.067636 
L 96.792026 142.114909 
L 97.074063 143.162182 
L 100.618576 143.162182 
L 101.388459 144.209455 
L 102.089739 145.256727 
L 103.057811 146.304 
L 104.330786 147.351273 
L 104.467993 148.398545 
L 105.382706 148.398545 
L 107.715225 149.445818 
L 108.180204 150.493091 
L 108.530844 151.540364 
L 108.805258 152.587636 
L 110.085856 153.634909 
L 110.169705 154.682182 
L 110.977702 155.729455 
L 111.724717 156.776727 
L 112.220187 157.824 
L 112.92909 158.871273 
L 113.157768 158.871273 
L 113.561766 159.918545 
L 113.859048 160.965818 
L 114.110594 162.013091 
L 114.141084 163.060364 
L 114.941458 164.107636 
L 115.154891 165.154909 
L 115.627493 166.202182 
L 116.016246 167.249455 
L 116.199189 168.296727 
L 116.229679 169.344 
L 116.534584 170.391273 
L 116.808998 170.391273 
L 116.900469 171.438545 
L 117.106279 171.438545 
L 117.639862 172.485818 
L 117.66273 173.533091 
L 117.860918 174.580364 
L 118.081973 175.627636 
L 118.303029 176.674909 
L 118.699405 177.722182 
L 119.568382 178.769455 
L 119.682721 179.816727 
L 119.926645 180.864 
L 120.262039 181.911273 
L 120.780377 182.958545 
L 120.841358 184.005818 
L 121.237733 185.053091 
L 125.117641 186.100364 
L 125.910393 187.147636 
L 125.971374 188.194909 
L 126.565937 189.242182 
L 127.465405 190.289455 
L 128.128572 191.336727 
L 128.212421 192.384 
L 128.29627 193.431273 
L 128.692645 194.478545 
L 129.089021 195.525818 
L 130.186677 196.573091 
L 130.57543 197.620364 
L 130.60592 198.667636 
L 131.200484 199.714909 
L 131.62735 199.714909 
L 131.711198 200.762182 
L 131.917009 200.762182 
L 132.054216 201.809455 
L 132.077084 201.809455 
L 133.266211 202.856727 
L 133.296701 203.904 
L 133.510134 203.904 
L 134.874581 204.951273 
L 136.322877 204.951273 
L 136.513442 205.998545 
L 136.871705 207.045818 
L 137.855021 208.093091 
L 138.228529 209.140364 
L 138.594414 210.187636 
L 138.937432 210.187636 
L 140.050333 211.234909 
L 141.460515 212.282182 
L 142.664888 213.329455 
L 142.687756 213.329455 
L 142.771604 214.376727 
L 142.954547 215.424 
L 143.091754 216.471273 
L 143.389036 217.518545 
L 143.754921 217.518545 
L 146.171288 217.518545 
L 147.093624 218.565818 
L 147.37566 219.613091 
L 147.932111 220.660364 
L 148.069318 221.707636 
L 148.153166 222.754909 
L 148.305618 223.802182 
L 148.808711 224.849455 
L 149.410897 225.896727 
L 151.087871 226.944 
L 151.888245 227.991273 
L 152.551412 229.038545 
L 152.581902 230.085818 
L 152.947787 231.133091 
L 153.077372 231.133091 
L 153.367031 232.180364 
L 153.633822 233.227636 
L 153.984462 234.274909 
L 154.197895 235.322182 
L 154.784836 236.369455 
L 155.920605 236.369455 
L 156.865809 237.416727 
L 157.300297 238.464 
L 157.83388 239.511273 
L 157.910106 239.511273 
L 159.983456 240.558545 
L 160.395077 241.605818 
L 160.738094 242.653091 
L 161.873863 243.700364 
L 162.125409 244.747636 
L 162.689482 245.794909 
L 163.169706 246.842182 
L 163.398385 247.889455 
L 164.770454 248.936727 
L 165.509847 248.936727 
L 166.287353 249.984 
L 166.371202 251.031273 
L 166.798068 252.078545 
L 166.843804 253.125818 
L 167.232557 254.173091 
L 167.979573 255.220364 
L 168.086289 256.267636 
L 170.030054 257.314909 
L 170.037677 258.362182 
L 171.203936 259.409455 
L 172.210121 260.456727 
L 172.484535 260.456727 
L 172.644609 260.456727 
L 173.23155 260.456727 
L 176.67697 261.504 
L 176.913271 262.551273 
L 177.484966 262.551273 
L 177.523079 263.598545 
L 178.231982 264.645818 
L 178.239605 265.693091 
L 179.291525 266.740364 
L 179.847975 267.787636 
L 180.701707 268.834909 
L 180.716952 269.882182 
L 180.968499 270.929455 
L 181.029479 270.929455 
L 181.677401 271.976727 
L 181.685024 273.024 
L 181.715514 274.071273 
L 181.898457 275.118545 
L 183.33913 275.118545 
L 183.491582 275.118545 
L 184.703577 275.118545 
L 185.488706 276.165818 
L 185.526819 277.213091 
L 187.478207 277.213091 
L 187.72213 278.260364 
L 187.912696 279.307636 
L 188.659711 280.354909 
L 192.981731 281.402182 
L 194.201348 282.449455 
L 195.413343 283.496727 
L 195.474324 284.544 
L 198.309934 284.544 
L 199.186534 285.591273 
L 199.270383 286.638545 
L 200.307058 287.685818 
L 201.374223 287.685818 
L 202.456634 287.685818 
L 204.270815 288.733091 
L 206.557597 288.733091 
L 207.388462 288.733091 
L 207.41133 289.780364 
L 208.31842 290.827636 
L 209.842942 291.874909 
L 212.419384 291.874909 
L 213.181645 291.874909 
L 213.715227 292.922182 
L 219.020563 292.922182 
L 219.180638 293.969455 
L 221.307346 295.016727 
L 227.550263 296.064 
L 227.580753 296.064 
L 230.14195 297.111273 
L 230.774627 298.158545 
L 232.59643 298.158545 
L 233.640728 298.158545 
L 236.941317 298.158545 
L 242.490577 299.205818 
L 255.380409 300.253091 
L 256.31799 301.300364 
L 259.771032 301.300364 
L 260.075936 302.347636 
L 267.820507 303.394909 
L 290.124261 304.442182 
L 291.244785 304.442182 
L 291.252407 304.442182 
L 291.854594 305.489455 
L 299.576297 305.489455 
L 305.415215 305.489455 
L 305.773478 305.489455 
L 307.397094 305.489455 
L 308.113619 305.489455 
L 312.710052 305.489455 
L 329.022436 306.536727 
L 332.399252 307.584 
L 333.695095 307.584 
L 337.521645 307.584 
L 349.504386 307.584 
L 372.456063 307.584 
L 398.487273 307.584 
L 398.487273 306.536727 
L 398.487273 306.536727 
L 372.456063 305.489455 
L 349.504386 304.442182 
L 337.521645 303.394909 
L 333.695095 302.347636 
L 332.399252 301.300364 
L 329.022436 300.253091 
L 312.710052 299.205818 
L 308.113619 298.158545 
L 307.397094 297.111273 
L 305.773478 296.064 
L 305.415215 295.016727 
L 299.576297 293.969455 
L 291.854594 292.922182 
L 291.252407 291.874909 
L 291.244785 290.827636 
L 290.124261 289.780364 
L 267.820507 288.733091 
L 260.075936 287.685818 
L 259.771032 286.638545 
L 256.31799 285.591273 
L 255.380409 284.544 
L 242.490577 283.496727 
L 236.941317 282.449455 
L 233.640728 281.402182 
L 232.59643 280.354909 
L 230.774627 279.307636 
L 230.14195 278.260364 
L 227.580753 277.213091 
L 227.550263 276.165818 
L 221.307346 275.118545 
L 219.180638 274.071273 
L 219.020563 273.024 
L 213.715227 271.976727 
L 213.181645 270.929455 
L 212.419384 269.882182 
L 209.842942 268.834909 
L 208.31842 267.787636 
L 207.41133 266.740364 
L 207.388462 265.693091 
L 206.557597 264.645818 
L 204.270815 263.598545 
L 202.456634 262.551273 
L 201.374223 261.504 
L 200.307058 260.456727 
L 199.270383 259.409455 
L 199.186534 258.362182 
L 198.309934 257.314909 
L 195.474324 256.267636 
L 195.413343 255.220364 
L 194.201348 254.173091 
L 192.981731 253.125818 
L 188.659711 252.078545 
L 187.912696 251.031273 
L 187.72213 249.984 
L 187.478207 248.936727 
L 185.526819 247.889455 
L 185.488706 246.842182 
L 184.703577 245.794909 
L 183.491582 244.747636 
L 183.33913 243.700364 
L 181.898457 242.653091 
L 181.715514 241.605818 
L 181.685024 240.558545 
L 181.677401 239.511273 
L 181.029479 238.464 
L 180.968499 237.416727 
L 180.716952 236.369455 
L 180.701707 235.322182 
L 179.847975 234.274909 
L 179.291525 233.227636 
L 178.239605 232.180364 
L 178.231982 231.133091 
L 177.523079 230.085818 
L 177.484966 229.038545 
L 176.913271 227.991273 
L 176.67697 226.944 
L 173.23155 225.896727 
L 172.644609 224.849455 
L 172.484535 223.802182 
L 172.210121 222.754909 
L 171.203936 221.707636 
L 170.037677 220.660364 
L 170.030054 219.613091 
L 168.086289 218.565818 
L 167.979573 217.518545 
L 167.232557 216.471273 
L 166.843804 215.424 
L 166.798068 214.376727 
L 166.371202 213.329455 
L 166.287353 212.282182 
L 165.509847 211.234909 
L 164.770454 210.187636 
L 163.398385 209.140364 
L 163.169706 208.093091 
L 162.689482 207.045818 
L 162.125409 205.998545 
L 161.873863 204.951273 
L 160.738094 203.904 
L 160.395077 202.856727 
L 159.983456 201.809455 
L 157.910106 200.762182 
L 157.83388 199.714909 
L 157.300297 198.667636 
L 156.865809 197.620364 
L 155.920605 196.573091 
L 154.784836 196.573091 
L 154.197895 195.525818 
L 153.984462 194.478545 
L 153.633822 193.431273 
L 153.367031 192.384 
L 153.077372 191.336727 
L 152.947787 190.289455 
L 152.581902 189.242182 
L 152.551412 188.194909 
L 151.888245 187.147636 
L 151.087871 186.100364 
L 149.410897 185.053091 
L 148.808711 184.005818 
L 148.305618 182.958545 
L 148.153166 181.911273 
L 148.069318 180.864 
L 147.932111 179.816727 
L 147.37566 178.769455 
L 147.093624 177.722182 
L 146.171288 176.674909 
L 143.754921 175.627636 
L 143.389036 174.580364 
L 143.091754 173.533091 
L 142.954547 172.485818 
L 142.771604 171.438545 
L 142.687756 170.391273 
L 142.664888 169.344 
L 141.460515 168.296727 
L 140.050333 167.249455 
L 138.937432 166.202182 
L 138.594414 165.154909 
L 138.228529 164.107636 
L 137.855021 163.060364 
L 136.871705 162.013091 
L 136.513442 160.965818 
L 136.322877 159.918545 
L 134.874581 158.871273 
L 133.510134 157.824 
L 133.296701 156.776727 
L 133.266211 155.729455 
L 132.077084 154.682182 
L 132.054216 153.634909 
L 131.917009 152.587636 
L 131.711198 151.540364 
L 131.62735 150.493091 
L 131.200484 149.445818 
L 130.60592 148.398545 
L 130.57543 147.351273 
L 130.186677 146.304 
L 129.089021 145.256727 
L 128.692645 144.209455 
L 128.29627 143.162182 
L 128.212421 142.114909 
L 128.128572 141.067636 
L 127.465405 140.020364 
L 126.565937 138.973091 
L 125.971374 137.925818 
L 125.910393 136.878545 
L 125.117641 135.831273 
L 121.237733 134.784 
L 120.841358 133.736727 
L 120.780377 132.689455 
L 120.262039 131.642182 
L 119.926645 130.594909 
L 119.682721 129.547636 
L 119.568382 128.500364 
L 118.699405 127.453091 
L 118.303029 126.405818 
L 118.081973 125.358545 
L 117.860918 124.311273 
L 117.66273 123.264 
L 117.639862 122.216727 
L 117.106279 121.169455 
L 116.900469 120.122182 
L 116.808998 119.074909 
L 116.534584 118.027636 
L 116.229679 116.980364 
L 116.199189 115.933091 
L 116.016246 114.885818 
L 115.627493 113.838545 
L 115.154891 112.791273 
L 114.941458 111.744 
L 114.141084 110.696727 
L 114.110594 109.649455 
L 113.859048 108.602182 
L 113.561766 107.554909 
L 113.157768 106.507636 
L 112.92909 106.507636 
L 112.220187 105.460364 
L 111.724717 104.413091 
L 110.977702 103.365818 
L 110.169705 102.318545 
L 110.085856 101.271273 
L 108.805258 100.224 
L 108.530844 99.176727 
L 108.180204 98.129455 
L 107.715225 97.082182 
L 105.382706 96.034909 
L 104.467993 96.034909 
L 104.330786 94.987636 
L 103.057811 93.940364 
L 102.089739 92.893091 
L 101.388459 91.845818 
L 100.618576 90.798545 
L 97.074063 90.798545 
L 96.792026 89.751273 
L 96.433763 88.704 
L 96.288934 87.656727 
L 96.052633 87.656727 
L 95.785842 86.609455 
L 95.320862 85.562182 
L 95.252259 84.514909 
L 94.947355 83.467636 
L 93.156041 82.420364 
L 93.026457 82.420364 
L 92.035518 81.373091 
L 91.372351 80.325818 
L 91.28088 79.278545 
L 91.097937 79.278545 
L 90.884504 78.231273 
L 89.359982 77.184 
L 87.675385 76.136727 
L 87.187538 75.089455 
L 87.149425 74.042182 
L 86.905502 74.042182 
L 86.814031 72.994909 
L 85.220905 72.994909 
L 82.766425 72.994909 
L 80.350058 72.994909 
L 78.703575 71.947636 
L 78.185237 70.900364 
L 77.773616 70.900364 
L 77.232411 70.900364 
L 77.186675 69.853091 
L 76.271962 69.853091 
L 73.832727 69.853091 
z
" clip-path="url(#p0ef861dd2a)" style="fill: #7cfc00"/>
   </g>
   <g id="PolyCollection_3">
    <path d="M 73.832727 54.144 
L 73.832727 69.853091 
L 76.271962 69.853091 
L 77.186675 69.853091 
L 77.232411 70.900364 
L 77.773616 70.900364 
L 78.185237 70.900364 
L 78.703575 71.947636 
L 80.350058 72.994909 
L 82.766425 72.994909 
L 85.220905 72.994909 
L 86.814031 72.994909 
L 86.905502 74.042182 
L 87.149425 74.042182 
L 87.187538 75.089455 
L 87.675385 76.136727 
L 89.359982 77.184 
L 90.884504 78.231273 
L 91.097937 79.278545 
L 91.28088 79.278545 
L 91.372351 80.325818 
L 92.035518 81.373091 
L 93.026457 82.420364 
L 93.156041 82.420364 
L 94.947355 83.467636 
L 95.252259 84.514909 
L 95.320862 85.562182 
L 95.785842 86.609455 
L 96.052633 87.656727 
L 96.288934 87.656727 
L 96.433763 88.704 
L 96.792026 89.751273 
L 97.074063 90.798545 
L 100.618576 90.798545 
L 101.388459 91.845818 
L 102.089739 92.893091 
L 103.057811 93.940364 
L 104.330786 94.987636 
L 104.467993 96.034909 
L 105.382706 96.034909 
L 107.715225 97.082182 
L 108.180204 98.129455 
L 108.530844 99.176727 
L 108.805258 100.224 
L 110.085856 101.271273 
L 110.169705 102.318545 
L 110.977702 103.365818 
L 111.724717 104.413091 
L 112.220187 105.460364 
L 112.92909 106.507636 
L 113.157768 106.507636 
L 113.561766 107.554909 
L 113.859048 108.602182 
L 114.110594 109.649455 
L 114.141084 110.696727 
L 114.941458 111.744 
L 115.154891 112.791273 
L 115.627493 113.838545 
L 116.016246 114.885818 
L 116.199189 115.933091 
L 116.229679 116.980364 
L 116.534584 118.027636 
L 116.808998 119.074909 
L 116.900469 120.122182 
L 117.106279 121.169455 
L 117.639862 122.216727 
L 117.66273 123.264 
L 117.860918 124.311273 
L 118.081973 125.358545 
L 118.303029 126.405818 
L 118.699405 127.453091 
L 119.568382 128.500364 
L 119.682721 129.547636 
L 119.926645 130.594909 
L 120.262039 131.642182 
L 120.780377 132.689455 
L 120.841358 133.736727 
L 121.237733 134.784 
L 125.117641 135.831273 
L 125.910393 136.878545 
L 125.971374 137.925818 
L 126.565937 138.973091 
L 127.465405 140.020364 
L 128.128572 141.067636 
L 128.212421 142.114909 
L 128.29627 143.162182 
L 128.692645 144.209455 
L 129.089021 145.256727 
L 130.186677 146.304 
L 130.57543 147.351273 
L 130.60592 148.398545 
L 131.200484 149.445818 
L 131.62735 150.493091 
L 131.711198 151.540364 
L 131.917009 152.587636 
L 132.054216 153.634909 
L 132.077084 154.682182 
L 133.266211 155.729455 
L 133.296701 156.776727 
L 133.510134 157.824 
L 134.874581 158.871273 
L 136.322877 159.918545 
L 136.513442 160.965818 
L 136.871705 162.013091 
L 137.855021 163.060364 
L 138.228529 164.107636 
L 138.594414 165.154909 
L 138.937432 166.202182 
L 140.050333 167.249455 
L 141.460515 168.296727 
L 142.664888 169.344 
L 142.687756 170.391273 
L 142.771604 171.438545 
L 142.954547 172.485818 
L 143.091754 173.533091 
L 143.389036 174.580364 
L 143.754921 175.627636 
L 146.171288 176.674909 
L 147.093624 177.722182 
L 147.37566 178.769455 
L 147.932111 179.816727 
L 148.069318 180.864 
L 148.153166 181.911273 
L 148.305618 182.958545 
L 148.808711 184.005818 
L 149.410897 185.053091 
L 151.087871 186.100364 
L 151.888245 187.147636 
L 152.551412 188.194909 
L 152.581902 189.242182 
L 152.947787 190.289455 
L 153.077372 191.336727 
L 153.367031 192.384 
L 153.633822 193.431273 
L 153.984462 194.478545 
L 154.197895 195.525818 
L 154.784836 196.573091 
L 155.920605 196.573091 
L 156.865809 197.620364 
L 157.300297 198.667636 
L 157.83388 199.714909 
L 157.910106 200.762182 
L 159.983456 201.809455 
L 160.395077 202.856727 
L 160.738094 203.904 
L 161.873863 204.951273 
L 162.125409 205.998545 
L 162.689482 207.045818 
L 163.169706 208.093091 
L 163.398385 209.140364 
L 164.770454 210.187636 
L 165.509847 211.234909 
L 166.287353 212.282182 
L 166.371202 213.329455 
L 166.798068 214.376727 
L 166.843804 215.424 
L 167.232557 216.471273 
L 167.979573 217.518545 
L 168.086289 218.565818 
L 170.030054 219.613091 
L 170.037677 220.660364 
L 171.203936 221.707636 
L 172.210121 222.754909 
L 172.484535 223.802182 
L 172.644609 224.849455 
L 173.23155 225.896727 
L 176.67697 226.944 
L 176.913271 227.991273 
L 177.484966 229.038545 
L 177.523079 230.085818 
L 178.231982 231.133091 
L 178.239605 232.180364 
L 179.291525 233.227636 
L 179.847975 234.274909 
L 180.701707 235.322182 
L 180.716952 236.369455 
L 180.968499 237.416727 
L 181.029479 238.464 
L 181.677401 239.511273 
L 181.685024 240.558545 
L 181.715514 241.605818 
L 181.898457 242.653091 
L 183.33913 243.700364 
L 183.491582 244.747636 
L 184.703577 245.794909 
L 185.488706 246.842182 
L 185.526819 247.889455 
L 187.478207 248.936727 
L 187.72213 249.984 
L 187.912696 251.031273 
L 188.659711 252.078545 
L 192.981731 253.125818 
L 194.201348 254.173091 
L 195.413343 255.220364 
L 195.474324 256.267636 
L 198.309934 257.314909 
L 199.186534 258.362182 
L 199.270383 259.409455 
L 200.307058 260.456727 
L 201.374223 261.504 
L 202.456634 262.551273 
L 204.270815 263.598545 
L 206.557597 264.645818 
L 207.388462 265.693091 
L 207.41133 266.740364 
L 208.31842 267.787636 
L 209.842942 268.834909 
L 212.419384 269.882182 
L 213.181645 270.929455 
L 213.715227 271.976727 
L 219.020563 273.024 
L 219.180638 274.071273 
L 221.307346 275.118545 
L 227.550263 276.165818 
L 227.580753 277.213091 
L 230.14195 278.260364 
L 230.774627 279.307636 
L 232.59643 280.354909 
L 233.640728 281.402182 
L 236.941317 282.449455 
L 242.490577 283.496727 
L 255.380409 284.544 
L 256.31799 285.591273 
L 259.771032 286.638545 
L 260.075936 287.685818 
L 267.820507 288.733091 
L 290.124261 289.780364 
L 291.244785 290.827636 
L 291.252407 291.874909 
L 291.854594 292.922182 
L 299.576297 293.969455 
L 305.415215 295.016727 
L 305.773478 296.064 
L 307.397094 297.111273 
L 308.113619 298.158545 
L 312.710052 299.205818 
L 329.022436 300.253091 
L 332.399252 301.300364 
L 333.695095 302.347636 
L 337.521645 303.394909 
L 349.504386 304.442182 
L 372.456063 305.489455 
L 398.487273 306.536727 
L 398.487273 306.536727 
L 398.487273 306.536727 
L 372.456063 305.489455 
L 349.504386 304.442182 
L 337.521645 303.394909 
L 333.695095 302.347636 
L 332.399252 301.300364 
L 329.022436 300.253091 
L 312.710052 299.205818 
L 308.113619 298.158545 
L 307.397094 297.111273 
L 305.773478 296.064 
L 305.415215 295.016727 
L 299.576297 293.969455 
L 291.854594 292.922182 
L 291.252407 291.874909 
L 291.244785 290.827636 
L 290.124261 289.780364 
L 267.820507 288.733091 
L 260.075936 287.685818 
L 259.771032 286.638545 
L 256.31799 285.591273 
L 255.380409 284.544 
L 242.490577 283.496727 
L 236.941317 282.449455 
L 233.640728 281.402182 
L 232.59643 280.354909 
L 230.774627 279.307636 
L 230.14195 278.260364 
L 227.580753 277.213091 
L 227.550263 276.165818 
L 221.307346 275.118545 
L 219.180638 274.071273 
L 219.020563 273.024 
L 213.715227 271.976727 
L 213.181645 270.929455 
L 212.419384 269.882182 
L 209.842942 268.834909 
L 208.31842 267.787636 
L 207.41133 266.740364 
L 207.388462 265.693091 
L 206.557597 264.645818 
L 204.270815 263.598545 
L 202.456634 262.551273 
L 201.374223 261.504 
L 200.307058 260.456727 
L 199.270383 259.409455 
L 199.186534 258.362182 
L 198.309934 257.314909 
L 195.474324 256.267636 
L 195.413343 255.220364 
L 194.201348 254.173091 
L 192.981731 253.125818 
L 188.659711 252.078545 
L 187.912696 251.031273 
L 187.72213 249.984 
L 187.478207 248.936727 
L 185.526819 247.889455 
L 185.488706 246.842182 
L 184.703577 245.794909 
L 183.491582 244.747636 
L 183.33913 243.700364 
L 181.898457 242.653091 
L 181.715514 241.605818 
L 181.685024 240.558545 
L 181.677401 239.511273 
L 181.029479 238.464 
L 180.968499 237.416727 
L 180.716952 236.369455 
L 180.701707 235.322182 
L 179.847975 234.274909 
L 179.291525 233.227636 
L 178.239605 232.180364 
L 178.231982 231.133091 
L 177.523079 230.085818 
L 177.484966 229.038545 
L 176.913271 227.991273 
L 176.67697 226.944 
L 173.23155 225.896727 
L 172.644609 224.849455 
L 172.484535 223.802182 
L 172.210121 222.754909 
L 171.203936 221.707636 
L 170.037677 220.660364 
L 170.030054 219.613091 
L 168.086289 218.565818 
L 167.979573 217.518545 
L 167.232557 216.471273 
L 166.843804 215.424 
L 166.798068 214.376727 
L 166.371202 213.329455 
L 166.287353 212.282182 
L 165.509847 211.234909 
L 164.770454 210.187636 
L 163.398385 209.140364 
L 163.169706 208.093091 
L 162.689482 207.045818 
L 162.125409 205.998545 
L 161.873863 204.951273 
L 160.738094 203.904 
L 160.395077 202.856727 
L 159.983456 201.809455 
L 157.910106 200.762182 
L 157.83388 199.714909 
L 157.300297 198.667636 
L 156.865809 197.620364 
L 155.920605 196.573091 
L 154.784836 195.525818 
L 154.197895 194.478545 
L 153.984462 193.431273 
L 153.633822 192.384 
L 153.367031 191.336727 
L 153.077372 190.289455 
L 152.947787 189.242182 
L 152.581902 188.194909 
L 152.551412 187.147636 
L 151.888245 186.100364 
L 151.087871 185.053091 
L 149.410897 184.005818 
L 148.808711 182.958545 
L 148.305618 181.911273 
L 148.153166 180.864 
L 148.069318 179.816727 
L 147.932111 178.769455 
L 147.37566 177.722182 
L 147.093624 176.674909 
L 146.171288 175.627636 
L 143.754921 174.580364 
L 143.389036 173.533091 
L 143.091754 172.485818 
L 142.954547 171.438545 
L 142.771604 170.391273 
L 142.687756 169.344 
L 142.664888 168.296727 
L 141.460515 167.249455 
L 140.050333 166.202182 
L 138.937432 165.154909 
L 138.594414 164.107636 
L 138.228529 163.060364 
L 137.855021 162.013091 
L 136.871705 160.965818 
L 136.513442 159.918545 
L 136.322877 158.871273 
L 134.874581 157.824 
L 133.510134 156.776727 
L 133.296701 155.729455 
L 133.266211 154.682182 
L 132.077084 153.634909 
L 132.054216 152.587636 
L 131.917009 151.540364 
L 131.711198 150.493091 
L 131.62735 149.445818 
L 131.200484 148.398545 
L 130.60592 147.351273 
L 130.57543 146.304 
L 130.186677 145.256727 
L 129.089021 144.209455 
L 128.692645 143.162182 
L 128.29627 142.114909 
L 128.212421 141.067636 
L 128.128572 140.020364 
L 127.465405 138.973091 
L 126.565937 137.925818 
L 125.971374 136.878545 
L 125.910393 135.831273 
L 125.117641 134.784 
L 121.237733 133.736727 
L 120.841358 132.689455 
L 120.780377 131.642182 
L 120.262039 130.594909 
L 119.926645 129.547636 
L 119.682721 128.500364 
L 119.568382 127.453091 
L 118.699405 126.405818 
L 118.303029 125.358545 
L 118.081973 124.311273 
L 117.860918 123.264 
L 117.66273 122.216727 
L 117.639862 121.169455 
L 117.106279 120.122182 
L 116.900469 119.074909 
L 116.808998 118.027636 
L 116.534584 116.980364 
L 116.229679 115.933091 
L 116.199189 114.885818 
L 116.016246 113.838545 
L 115.627493 112.791273 
L 115.154891 111.744 
L 114.941458 110.696727 
L 114.141084 109.649455 
L 114.110594 108.602182 
L 113.859048 107.554909 
L 113.561766 106.507636 
L 113.157768 105.460364 
L 112.92909 104.413091 
L 112.220187 103.365818 
L 111.724717 102.318545 
L 110.977702 101.271273 
L 110.169705 100.224 
L 110.085856 99.176727 
L 108.805258 98.129455 
L 108.530844 97.082182 
L 108.180204 96.034909 
L 107.715225 94.987636 
L 105.382706 93.940364 
L 104.467993 92.893091 
L 104.330786 91.845818 
L 103.057811 90.798545 
L 102.089739 89.751273 
L 101.388459 88.704 
L 100.618576 87.656727 
L 97.074063 86.609455 
L 96.792026 85.562182 
L 96.433763 84.514909 
L 96.288934 83.467636 
L 96.052633 82.420364 
L 95.785842 81.373091 
L 95.320862 80.325818 
L 95.252259 79.278545 
L 94.947355 78.231273 
L 93.156041 77.184 
L 93.026457 76.136727 
L 92.035518 75.089455 
L 91.372351 74.042182 
L 91.28088 72.994909 
L 91.097937 71.947636 
L 90.884504 70.900364 
L 89.359982 69.853091 
L 87.675385 68.805818 
L 87.187538 67.758545 
L 87.149425 66.711273 
L 86.905502 65.664 
L 86.814031 64.616727 
L 85.220905 63.569455 
L 82.766425 62.522182 
L 80.350058 61.474909 
L 78.703575 60.427636 
L 78.185237 59.380364 
L 77.773616 58.333091 
L 77.232411 57.285818 
L 77.186675 56.238545 
L 76.271962 55.191273 
L 73.832727 54.144 
z
" clip-path="url(#p0ef861dd2a)" style="fill: #ff0000"/>
   </g>
   <g id="matplotlib.axis_1">
    <g id="xtick_1">
     <g id="line2d_1">
      <defs>
       <path id="m386a42df6a" d="M 0 0 
L 0 3.5 
" style="stroke: #000000; stroke-width: 0.8"/>
      </defs>
      <g>
       <use xlink:href="#m386a42df6a" x="123.204367" y="307.584" style="stroke: #000000; stroke-width: 0.8"/>
      </g>
     </g>
     <g id="text_1">
      <!-- 100 -->
      <g transform="translate(113.660617 322.182437) scale(0.1 -0.1)">
       <defs>
        <path id="DejaVuSans-31" d="M 794 531 
L 1825 531 
L 1825 4091 
L 703 3866 
L 703 4441 
L 1819 4666 
L 2450 4666 
L 2450 531 
L 3481 531 
L 3481 0 
L 794 0 
L 794 531 
z
" transform="scale(0.015625)"/>
        <path id="DejaVuSans-30" d="M 2034 4250 
Q 1547 4250 1301 3770 
Q 1056 3291 1056 2328 
Q 1056 1369 1301 889 
Q 1547 409 2034 409 
Q 2525 409 2770 889 
Q 3016 1369 3016 2328 
Q 3016 3291 2770 3770 
Q 2525 4250 2034 4250 
z
M 2034 4750 
Q 2819 4750 3233 4129 
Q 3647 3509 3647 2328 
Q 3647 1150 3233 529 
Q 2819 -91 2034 -91 
Q 1250 -91 836 529 
Q 422 1150 422 2328 
Q 422 3509 836 4129 
Q 1250 4750 2034 4750 
z
" transform="scale(0.015625)"/>
       </defs>
       <use xlink:href="#DejaVuSans-31"/>
       <use xlink:href="#DejaVuSans-30" x="63.623047"/>
       <use xlink:href="#DejaVuSans-30" x="127.246094"/>
      </g>
     </g>
    </g>
    <g id="xtick_2">
     <g id="line2d_2">
      <g>
       <use xlink:href="#m386a42df6a" x="199.430458" y="307.584" style="stroke: #000000; stroke-width: 0.8"/>
      </g>
     </g>
     <g id="text_2">
      <!-- 200 -->
      <g transform="translate(189.886708 322.182437) scale(0.1 -0.1)">
       <defs>
        <path id="DejaVuSans-32" d="M 1228 531 
L 3431 531 
L 3431 0 
L 469 0 
L 469 531 
Q 828 903 1448 1529 
Q 2069 2156 2228 2338 
Q 2531 2678 2651 2914 
Q 2772 3150 2772 3378 
Q 2772 3750 2511 3984 
Q 2250 4219 1831 4219 
Q 1534 4219 1204 4116 
Q 875 4013 500 3803 
L 500 4441 
Q 881 4594 1212 4672 
Q 1544 4750 1819 4750 
Q 2544 4750 2975 4387 
Q 3406 4025 3406 3419 
Q 3406 3131 3298 2873 
Q 3191 2616 2906 2266 
Q 2828 2175 2409 1742 
Q 1991 1309 1228 531 
z
" transform="scale(0.015625)"/>
       </defs>
       <use xlink:href="#DejaVuSans-32"/>
       <use xlink:href="#DejaVuSans-30" x="63.623047"/>
       <use xlink:href="#DejaVuSans-30" x="127.246094"/>
      </g>
     </g>
    </g>
    <g id="xtick_3">
     <g id="line2d_3">
      <g>
       <use xlink:href="#m386a42df6a" x="275.656549" y="307.584" style="stroke: #000000; stroke-width: 0.8"/>
      </g>
     </g>
     <g id="text_3">
      <!-- 300 -->
      <g transform="translate(266.112799 322.182437) scale(0.1 -0.1)">
       <defs>
        <path id="DejaVuSans-33" d="M 2597 2516 
Q 3050 2419 3304 2112 
Q 3559 1806 3559 1356 
Q 3559 666 3084 287 
Q 2609 -91 1734 -91 
Q 1441 -91 1130 -33 
Q 819 25 488 141 
L 488 750 
Q 750 597 1062 519 
Q 1375 441 1716 441 
Q 2309 441 2620 675 
Q 2931 909 2931 1356 
Q 2931 1769 2642 2001 
Q 2353 2234 1838 2234 
L 1294 2234 
L 1294 2753 
L 1863 2753 
Q 2328 2753 2575 2939 
Q 2822 3125 2822 3475 
Q 2822 3834 2567 4026 
Q 2313 4219 1838 4219 
Q 1578 4219 1281 4162 
Q 984 4106 628 3988 
L 628 4550 
Q 988 4650 1302 4700 
Q 1616 4750 1894 4750 
Q 2613 4750 3031 4423 
Q 3450 4097 3450 3541 
Q 3450 3153 3228 2886 
Q 3006 2619 2597 2516 
z
" transform="scale(0.015625)"/>
       </defs>
       <use xlink:href="#DejaVuSans-33"/>
       <use xlink:href="#DejaVuSans-30" x="63.623047"/>
       <use xlink:href="#DejaVuSans-30" x="127.246094"/>
      </g>
     </g>
    </g>
    <g id="xtick_4">
     <g id="line2d_4">
      <g>
       <use xlink:href="#m386a42df6a" x="351.882641" y="307.584" style="stroke: #000000; stroke-width: 0.8"/>
      </g>
     </g>
     <g id="text_4">
      <!-- 400 -->
      <g transform="translate(342.338891 322.182437) scale(0.1 -0.1)">
       <defs>
        <path id="DejaVuSans-34" d="M 2419 4116 
L 825 1625 
L 2419 1625 
L 2419 4116 
z
M 2253 4666 
L 3047 4666 
L 3047 1625 
L 3713 1625 
L 3713 1100 
L 3047 1100 
L 3047 0 
L 2419 0 
L 2419 1100 
L 313 1100 
L 313 1709 
L 2253 4666 
z
" transform="scale(0.015625)"/>
       </defs>
       <use xlink:href="#DejaVuSans-34"/>
       <use xlink:href="#DejaVuSans-30" x="63.623047"/>
       <use xlink:href="#DejaVuSans-30" x="127.246094"/>
      </g>
     </g>
    </g>
    <g id="text_5">
     <!-- Score -->
     <g transform="translate(222.157656 335.860562) scale(0.1 -0.1)">
      <defs>
       <path id="DejaVuSans-53" d="M 3425 4513 
L 3425 3897 
Q 3066 4069 2747 4153 
Q 2428 4238 2131 4238 
Q 1616 4238 1336 4038 
Q 1056 3838 1056 3469 
Q 1056 3159 1242 3001 
Q 1428 2844 1947 2747 
L 2328 2669 
Q 3034 2534 3370 2195 
Q 3706 1856 3706 1288 
Q 3706 609 3251 259 
Q 2797 -91 1919 -91 
Q 1588 -91 1214 -16 
Q 841 59 441 206 
L 441 856 
Q 825 641 1194 531 
Q 1563 422 1919 422 
Q 2459 422 2753 634 
Q 3047 847 3047 1241 
Q 3047 1584 2836 1778 
Q 2625 1972 2144 2069 
L 1759 2144 
Q 1053 2284 737 2584 
Q 422 2884 422 3419 
Q 422 4038 858 4394 
Q 1294 4750 2059 4750 
Q 2388 4750 2728 4690 
Q 3069 4631 3425 4513 
z
" transform="scale(0.015625)"/>
       <path id="DejaVuSans-63" d="M 3122 3366 
L 3122 2828 
Q 2878 2963 2633 3030 
Q 2388 3097 2138 3097 
Q 1578 3097 1268 2742 
Q 959 2388 959 1747 
Q 959 1106 1268 751 
Q 1578 397 2138 397 
Q 2388 397 2633 464 
Q 2878 531 3122 666 
L 3122 134 
Q 2881 22 2623 -34 
Q 2366 -91 2075 -91 
Q 1284 -91 818 406 
Q 353 903 353 1747 
Q 353 2603 823 3093 
Q 1294 3584 2113 3584 
Q 2378 3584 2631 3529 
Q 2884 3475 3122 3366 
z
" transform="scale(0.015625)"/>
       <path id="DejaVuSans-6f" d="M 1959 3097 
Q 1497 3097 1228 2736 
Q 959 2375 959 1747 
Q 959 1119 1226 758 
Q 1494 397 1959 397 
Q 2419 397 2687 759 
Q 2956 1122 2956 1747 
Q 2956 2369 2687 2733 
Q 2419 3097 1959 3097 
z
M 1959 3584 
Q 2709 3584 3137 3096 
Q 3566 2609 3566 1747 
Q 3566 888 3137 398 
Q 2709 -91 1959 -91 
Q 1206 -91 779 398 
Q 353 888 353 1747 
Q 353 2609 779 3096 
Q 1206 3584 1959 3584 
z
" transform="scale(0.015625)"/>
       <path id="DejaVuSans-72" d="M 2631 2963 
Q 2534 3019 2420 3045 
Q 2306 3072 2169 3072 
Q 1681 3072 1420 2755 
Q 1159 2438 1159 1844 
L 1159 0 
L 581 0 
L 581 3500 
L 1159 3500 
L 1159 2956 
Q 1341 3275 1631 3429 
Q 1922 3584 2338 3584 
Q 2397 3584 2469 3576 
Q 2541 3569 2628 3553 
L 2631 2963 
z
" transform="scale(0.015625)"/>
       <path id="DejaVuSans-65" d="M 3597 1894 
L 3597 1613 
L 953 1613 
Q 991 1019 1311 708 
Q 1631 397 2203 397 
Q 2534 397 2845 478 
Q 3156 559 3463 722 
L 3463 178 
Q 3153 47 2828 -22 
Q 2503 -91 2169 -91 
Q 1331 -91 842 396 
Q 353 884 353 1716 
Q 353 2575 817 3079 
Q 1281 3584 2069 3584 
Q 2775 3584 3186 3129 
Q 3597 2675 3597 1894 
z
M 3022 2063 
Q 3016 2534 2758 2815 
Q 2500 3097 2075 3097 
Q 1594 3097 1305 2825 
Q 1016 2553 972 2059 
L 3022 2063 
z
" transform="scale(0.015625)"/>
      </defs>
      <use xlink:href="#DejaVuSans-53"/>
      <use xlink:href="#DejaVuSans-63" x="63.476562"/>
      <use xlink:href="#DejaVuSans-6f" x="118.457031"/>
      <use xlink:href="#DejaVuSans-72" x="179.638672"/>
      <use xlink:href="#DejaVuSans-65" x="218.501953"/>
     </g>
    </g>
   </g>
   <g id="matplotlib.axis_2">
    <g id="ytick_1">
     <g id="line2d_5">
      <defs>
       <path id="me5a9e762c2" d="M 0 0 
L -3.5 0 
" style="stroke: #000000; stroke-width: 0.8"/>
      </defs>
      <g>
       <use xlink:href="#me5a9e762c2" x="57.6" y="307.584" style="stroke: #000000; stroke-width: 0.8"/>
      </g>
     </g>
     <g id="text_6">
      <!-- 0 -->
      <g transform="translate(44.2375 311.383219) scale(0.1 -0.1)">
       <use xlink:href="#DejaVuSans-30"/>
      </g>
     </g>
    </g>
    <g id="ytick_2">
     <g id="line2d_6">
      <g>
       <use xlink:href="#me5a9e762c2" x="57.6" y="255.220364" style="stroke: #000000; stroke-width: 0.8"/>
      </g>
     </g>
     <g id="text_7">
      <!-- 50 -->
      <g transform="translate(37.875 259.019582) scale(0.1 -0.1)">
       <defs>
        <path id="DejaVuSans-35" d="M 691 4666 
L 3169 4666 
L 3169 4134 
L 1269 4134 
L 1269 2991 
Q 1406 3038 1543 3061 
Q 1681 3084 1819 3084 
Q 2600 3084 3056 2656 
Q 3513 2228 3513 1497 
Q 3513 744 3044 326 
Q 2575 -91 1722 -91 
Q 1428 -91 1123 -41 
Q 819 9 494 109 
L 494 744 
Q 775 591 1075 516 
Q 1375 441 1709 441 
Q 2250 441 2565 725 
Q 2881 1009 2881 1497 
Q 2881 1984 2565 2268 
Q 2250 2553 1709 2553 
Q 1456 2553 1204 2497 
Q 953 2441 691 2322 
L 691 4666 
z
" transform="scale(0.015625)"/>
       </defs>
       <use xlink:href="#DejaVuSans-35"/>
       <use xlink:href="#DejaVuSans-30" x="63.623047"/>
      </g>
     </g>
    </g>
    <g id="ytick_3">
     <g id="line2d_7">
      <g>
       <use xlink:href="#me5a9e762c2" x="57.6" y="202.856727" style="stroke: #000000; stroke-width: 0.8"/>
      </g>
     </g>
     <g id="text_8">
      <!-- 100 -->
      <g transform="translate(31.5125 206.655946) scale(0.1 -0.1)">
       <use xlink:href="#DejaVuSans-31"/>
       <use xlink:href="#DejaVuSans-30" x="63.623047"/>
       <use xlink:href="#DejaVuSans-30" x="127.246094"/>
      </g>
     </g>
    </g>
    <g id="ytick_4">
     <g id="line2d_8">
      <g>
       <use xlink:href="#me5a9e762c2" x="57.6" y="150.493091" style="stroke: #000000; stroke-width: 0.8"/>
      </g>
     </g>
     <g id="text_9">
      <!-- 150 -->
      <g transform="translate(31.5125 154.29231) scale(0.1 -0.1)">
       <use xlink:href="#DejaVuSans-31"/>
       <use xlink:href="#DejaVuSans-35" x="63.623047"/>
       <use xlink:href="#DejaVuSans-30" x="127.246094"/>
      </g>
     </g>
    </g>
    <g id="ytick_5">
     <g id="line2d_9">
      <g>
       <use xlink:href="#me5a9e762c2" x="57.6" y="98.129455" style="stroke: #000000; stroke-width: 0.8"/>
      </g>
     </g>
     <g id="text_10">
      <!-- 200 -->
      <g transform="translate(31.5125 101.928673) scale(0.1 -0.1)">
       <use xlink:href="#DejaVuSans-32"/>
       <use xlink:href="#DejaVuSans-30" x="63.623047"/>
       <use xlink:href="#DejaVuSans-30" x="127.246094"/>
      </g>
     </g>
    </g>
    <g id="ytick_6">
     <g id="line2d_10">
      <g>
       <use xlink:href="#me5a9e762c2" x="57.6" y="45.765818" style="stroke: #000000; stroke-width: 0.8"/>
      </g>
     </g>
     <g id="text_11">
      <!-- 250 -->
      <g transform="translate(31.5125 49.565037) scale(0.1 -0.1)">
       <use xlink:href="#DejaVuSans-32"/>
       <use xlink:href="#DejaVuSans-35" x="63.623047"/>
       <use xlink:href="#DejaVuSans-30" x="127.246094"/>
      </g>
     </g>
    </g>
    <g id="text_12">
     <!-- Number of crosslinks -->
     <g transform="translate(25.432812 227.019406) rotate(-90) scale(0.1 -0.1)">
      <defs>
       <path id="DejaVuSans-4e" d="M 628 4666 
L 1478 4666 
L 3547 763 
L 3547 4666 
L 4159 4666 
L 4159 0 
L 3309 0 
L 1241 3903 
L 1241 0 
L 628 0 
L 628 4666 
z
" transform="scale(0.015625)"/>
       <path id="DejaVuSans-75" d="M 544 1381 
L 544 3500 
L 1119 3500 
L 1119 1403 
Q 1119 906 1312 657 
Q 1506 409 1894 409 
Q 2359 409 2629 706 
Q 2900 1003 2900 1516 
L 2900 3500 
L 3475 3500 
L 3475 0 
L 2900 0 
L 2900 538 
Q 2691 219 2414 64 
Q 2138 -91 1772 -91 
Q 1169 -91 856 284 
Q 544 659 544 1381 
z
M 1991 3584 
L 1991 3584 
z
" transform="scale(0.015625)"/>
       <path id="DejaVuSans-6d" d="M 3328 2828 
Q 3544 3216 3844 3400 
Q 4144 3584 4550 3584 
Q 5097 3584 5394 3201 
Q 5691 2819 5691 2113 
L 5691 0 
L 5113 0 
L 5113 2094 
Q 5113 2597 4934 2840 
Q 4756 3084 4391 3084 
Q 3944 3084 3684 2787 
Q 3425 2491 3425 1978 
L 3425 0 
L 2847 0 
L 2847 2094 
Q 2847 2600 2669 2842 
Q 2491 3084 2119 3084 
Q 1678 3084 1418 2786 
Q 1159 2488 1159 1978 
L 1159 0 
L 581 0 
L 581 3500 
L 1159 3500 
L 1159 2956 
Q 1356 3278 1631 3431 
Q 1906 3584 2284 3584 
Q 2666 3584 2933 3390 
Q 3200 3197 3328 2828 
z
" transform="scale(0.015625)"/>
       <path id="DejaVuSans-62" d="M 3116 1747 
Q 3116 2381 2855 2742 
Q 2594 3103 2138 3103 
Q 1681 3103 1420 2742 
Q 1159 2381 1159 1747 
Q 1159 1113 1420 752 
Q 1681 391 2138 391 
Q 2594 391 2855 752 
Q 3116 1113 3116 1747 
z
M 1159 2969 
Q 1341 3281 1617 3432 
Q 1894 3584 2278 3584 
Q 2916 3584 3314 3078 
Q 3713 2572 3713 1747 
Q 3713 922 3314 415 
Q 2916 -91 2278 -91 
Q 1894 -91 1617 61 
Q 1341 213 1159 525 
L 1159 0 
L 581 0 
L 581 4863 
L 1159 4863 
L 1159 2969 
z
" transform="scale(0.015625)"/>
       <path id="DejaVuSans-20" transform="scale(0.015625)"/>
       <path id="DejaVuSans-66" d="M 2375 4863 
L 2375 4384 
L 1825 4384 
Q 1516 4384 1395 4259 
Q 1275 4134 1275 3809 
L 1275 3500 
L 2222 3500 
L 2222 3053 
L 1275 3053 
L 1275 0 
L 697 0 
L 697 3053 
L 147 3053 
L 147 3500 
L 697 3500 
L 697 3744 
Q 697 4328 969 4595 
Q 1241 4863 1831 4863 
L 2375 4863 
z
" transform="scale(0.015625)"/>
       <path id="DejaVuSans-73" d="M 2834 3397 
L 2834 2853 
Q 2591 2978 2328 3040 
Q 2066 3103 1784 3103 
Q 1356 3103 1142 2972 
Q 928 2841 928 2578 
Q 928 2378 1081 2264 
Q 1234 2150 1697 2047 
L 1894 2003 
Q 2506 1872 2764 1633 
Q 3022 1394 3022 966 
Q 3022 478 2636 193 
Q 2250 -91 1575 -91 
Q 1294 -91 989 -36 
Q 684 19 347 128 
L 347 722 
Q 666 556 975 473 
Q 1284 391 1588 391 
Q 1994 391 2212 530 
Q 2431 669 2431 922 
Q 2431 1156 2273 1281 
Q 2116 1406 1581 1522 
L 1381 1569 
Q 847 1681 609 1914 
Q 372 2147 372 2553 
Q 372 3047 722 3315 
Q 1072 3584 1716 3584 
Q 2034 3584 2315 3537 
Q 2597 3491 2834 3397 
z
" transform="scale(0.015625)"/>
       <path id="DejaVuSans-6c" d="M 603 4863 
L 1178 4863 
L 1178 0 
L 603 0 
L 603 4863 
z
" transform="scale(0.015625)"/>
       <path id="DejaVuSans-69" d="M 603 3500 
L 1178 3500 
L 1178 0 
L 603 0 
L 603 3500 
z
M 603 4863 
L 1178 4863 
L 1178 4134 
L 603 4134 
L 603 4863 
z
" transform="scale(0.015625)"/>
       <path id="DejaVuSans-6e" d="M 3513 2113 
L 3513 0 
L 2938 0 
L 2938 2094 
Q 2938 2591 2744 2837 
Q 2550 3084 2163 3084 
Q 1697 3084 1428 2787 
Q 1159 2491 1159 1978 
L 1159 0 
L 581 0 
L 581 3500 
L 1159 3500 
L 1159 2956 
Q 1366 3272 1645 3428 
Q 1925 3584 2291 3584 
Q 2894 3584 3203 3211 
Q 3513 2838 3513 2113 
z
" transform="scale(0.015625)"/>
       <path id="DejaVuSans-6b" d="M 581 4863 
L 1159 4863 
L 1159 1991 
L 2875 3500 
L 3609 3500 
L 1753 1863 
L 3688 0 
L 2938 0 
L 1159 1709 
L 1159 0 
L 581 0 
L 581 4863 
z
" transform="scale(0.015625)"/>
      </defs>
      <use xlink:href="#DejaVuSans-4e"/>
      <use xlink:href="#DejaVuSans-75" x="74.804688"/>
      <use xlink:href="#DejaVuSans-6d" x="138.183594"/>
      <use xlink:href="#DejaVuSans-62" x="235.595703"/>
      <use xlink:href="#DejaVuSans-65" x="299.072266"/>
      <use xlink:href="#DejaVuSans-72" x="360.595703"/>
      <use xlink:href="#DejaVuSans-20" x="401.708984"/>
      <use xlink:href="#DejaVuSans-6f" x="433.496094"/>
      <use xlink:href="#DejaVuSans-66" x="494.677734"/>
      <use xlink:href="#DejaVuSans-20" x="529.882812"/>
      <use xlink:href="#DejaVuSans-63" x="561.669922"/>
      <use xlink:href="#DejaVuSans-72" x="616.650391"/>
      <use xlink:href="#DejaVuSans-6f" x="655.513672"/>
      <use xlink:href="#DejaVuSans-73" x="716.695312"/>
      <use xlink:href="#DejaVuSans-73" x="768.794922"/>
      <use xlink:href="#DejaVuSans-6c" x="820.894531"/>
      <use xlink:href="#DejaVuSans-69" x="848.677734"/>
      <use xlink:href="#DejaVuSans-6e" x="876.460938"/>
      <use xlink:href="#DejaVuSans-6b" x="939.839844"/>
      <use xlink:href="#DejaVuSans-73" x="997.75"/>
     </g>
    </g>
   </g>
   <g id="patch_3">
    <path d="M 57.6 307.584 
L 57.6 41.472 
" style="fill: none; stroke: #000000; stroke-width: 0.8; stroke-linejoin: miter; stroke-linecap: square"/>
   </g>
   <g id="patch_4">
    <path d="M 414.72 307.584 
L 414.72 41.472 
" style="fill: none; stroke: #000000; stroke-width: 0.8; stroke-linejoin: miter; stroke-linecap: square"/>
   </g>
   <g id="patch_5">
    <path d="M 57.6 307.584 
L 414.72 307.584 
" style="fill: none; stroke: #000000; stroke-width: 0.8; stroke-linejoin: miter; stroke-linecap: square"/>
   </g>
   <g id="patch_6">
    <path d="M 57.6 41.472 
L 414.72 41.472 
" style="fill: none; stroke: #000000; stroke-width: 0.8; stroke-linejoin: miter; stroke-linecap: square"/>
   </g>
   <g id="legend_1">
    <g id="patch_7">
     <path d="M 293.087188 93.506375 
L 407.72 93.506375 
Q 409.72 93.506375 409.72 91.506375 
L 409.72 48.472 
Q 409.72 46.472 407.72 46.472 
L 293.087188 46.472 
Q 291.087188 46.472 291.087188 48.472 
L 291.087188 91.506375 
Q 291.087188 93.506375 293.087188 93.506375 
z
" style="fill: #ffffff; opacity: 0.8; stroke: #cccccc; stroke-linejoin: miter"/>
    </g>
    <g id="patch_8">
     <path d="M 295.087188 58.070438 
L 315.087188 58.070438 
L 315.087188 51.070438 
L 295.087188 51.070438 
z
" style="fill: #008000"/>
    </g>
    <g id="text_13">
     <!-- true -->
     <g transform="translate(323.087188 58.070438) scale(0.1 -0.1)">
      <defs>
       <path id="DejaVuSans-74" d="M 1172 4494 
L 1172 3500 
L 2356 3500 
L 2356 3053 
L 1172 3053 
L 1172 1153 
Q 1172 725 1289 603 
Q 1406 481 1766 481 
L 2356 481 
L 2356 0 
L 1766 0 
Q 1100 0 847 248 
Q 594 497 594 1153 
L 594 3053 
L 172 3053 
L 172 3500 
L 594 3500 
L 594 4494 
L 1172 4494 
z
" transform="scale(0.015625)"/>
      </defs>
      <use xlink:href="#DejaVuSans-74"/>
      <use xlink:href="#DejaVuSans-72" x="39.208984"/>
      <use xlink:href="#DejaVuSans-75" x="80.322266"/>
      <use xlink:href="#DejaVuSans-65" x="143.701172"/>
     </g>
    </g>
    <g id="patch_9">
     <path d="M 295.087188 72.748563 
L 315.087188 72.748563 
L 315.087188 65.748563 
L 295.087188 65.748563 
z
" style="fill: #7cfc00"/>
    </g>
    <g id="text_14">
     <!-- true homeotypic -->
     <g transform="translate(323.087188 72.748563) scale(0.1 -0.1)">
      <defs>
       <path id="DejaVuSans-68" d="M 3513 2113 
L 3513 0 
L 2938 0 
L 2938 2094 
Q 2938 2591 2744 2837 
Q 2550 3084 2163 3084 
Q 1697 3084 1428 2787 
Q 1159 2491 1159 1978 
L 1159 0 
L 581 0 
L 581 4863 
L 1159 4863 
L 1159 2956 
Q 1366 3272 1645 3428 
Q 1925 3584 2291 3584 
Q 2894 3584 3203 3211 
Q 3513 2838 3513 2113 
z
" transform="scale(0.015625)"/>
       <path id="DejaVuSans-79" d="M 2059 -325 
Q 1816 -950 1584 -1140 
Q 1353 -1331 966 -1331 
L 506 -1331 
L 506 -850 
L 844 -850 
Q 1081 -850 1212 -737 
Q 1344 -625 1503 -206 
L 1606 56 
L 191 3500 
L 800 3500 
L 1894 763 
L 2988 3500 
L 3597 3500 
L 2059 -325 
z
" transform="scale(0.015625)"/>
       <path id="DejaVuSans-70" d="M 1159 525 
L 1159 -1331 
L 581 -1331 
L 581 3500 
L 1159 3500 
L 1159 2969 
Q 1341 3281 1617 3432 
Q 1894 3584 2278 3584 
Q 2916 3584 3314 3078 
Q 3713 2572 3713 1747 
Q 3713 922 3314 415 
Q 2916 -91 2278 -91 
Q 1894 -91 1617 61 
Q 1341 213 1159 525 
z
M 3116 1747 
Q 3116 2381 2855 2742 
Q 2594 3103 2138 3103 
Q 1681 3103 1420 2742 
Q 1159 2381 1159 1747 
Q 1159 1113 1420 752 
Q 1681 391 2138 391 
Q 2594 391 2855 752 
Q 3116 1113 3116 1747 
z
" transform="scale(0.015625)"/>
      </defs>
      <use xlink:href="#DejaVuSans-74"/>
      <use xlink:href="#DejaVuSans-72" x="39.208984"/>
      <use xlink:href="#DejaVuSans-75" x="80.322266"/>
      <use xlink:href="#DejaVuSans-65" x="143.701172"/>
      <use xlink:href="#DejaVuSans-20" x="205.224609"/>
      <use xlink:href="#DejaVuSans-68" x="237.011719"/>
      <use xlink:href="#DejaVuSans-6f" x="300.390625"/>
      <use xlink:href="#DejaVuSans-6d" x="361.572266"/>
      <use xlink:href="#DejaVuSans-65" x="458.984375"/>
      <use xlink:href="#DejaVuSans-6f" x="520.507812"/>
      <use xlink:href="#DejaVuSans-74" x="581.689453"/>
      <use xlink:href="#DejaVuSans-79" x="620.898438"/>
      <use xlink:href="#DejaVuSans-70" x="680.078125"/>
      <use xlink:href="#DejaVuSans-69" x="743.554688"/>
      <use xlink:href="#DejaVuSans-63" x="771.337891"/>
     </g>
    </g>
    <g id="patch_10">
     <path d="M 295.087188 87.426688 
L 315.087188 87.426688 
L 315.087188 80.426688 
L 295.087188 80.426688 
z
" style="fill: #ff0000"/>
    </g>
    <g id="text_15">
     <!-- false -->
     <g transform="translate(323.087188 87.426688) scale(0.1 -0.1)">
      <defs>
       <path id="DejaVuSans-61" d="M 2194 1759 
Q 1497 1759 1228 1600 
Q 959 1441 959 1056 
Q 959 750 1161 570 
Q 1363 391 1709 391 
Q 2188 391 2477 730 
Q 2766 1069 2766 1631 
L 2766 1759 
L 2194 1759 
z
M 3341 1997 
L 3341 0 
L 2766 0 
L 2766 531 
Q 2569 213 2275 61 
Q 1981 -91 1556 -91 
Q 1019 -91 701 211 
Q 384 513 384 1019 
Q 384 1609 779 1909 
Q 1175 2209 1959 2209 
L 2766 2209 
L 2766 2266 
Q 2766 2663 2505 2880 
Q 2244 3097 1772 3097 
Q 1472 3097 1187 3025 
Q 903 2953 641 2809 
L 641 3341 
Q 956 3463 1253 3523 
Q 1550 3584 1831 3584 
Q 2591 3584 2966 3190 
Q 3341 2797 3341 1997 
z
" transform="scale(0.015625)"/>
      </defs>
      <use xlink:href="#DejaVuSans-66"/>
      <use xlink:href="#DejaVuSans-61" x="35.205078"/>
      <use xlink:href="#DejaVuSans-6c" x="96.484375"/>
      <use xlink:href="#DejaVuSans-73" x="124.267578"/>
      <use xlink:href="#DejaVuSans-65" x="176.367188"/>
     </g>
    </g>
   </g>
  </g>
 </g>
 <defs>
  <clipPath id="p0ef861dd2a">
   <rect x="57.6" y="41.472" width="357.12" height="266.112"/>
  </clipPath>
 </defs>
</svg>
