<?xml version="1.0" encoding="utf-8" standalone="no"?>
<!DOCTYPE svg PUBLIC "-//W3C//DTD SVG 1.1//EN"
  "http://www.w3.org/Graphics/SVG/1.1/DTD/svg11.dtd">
<svg xmlns:xlink="http://www.w3.org/1999/xlink" width="460.8pt" height="345.6pt" viewBox="0 0 460.8 345.6" xmlns="http://www.w3.org/2000/svg" version="1.1">
 <metadata>
  <rdf:RDF xmlns:dc="http://purl.org/dc/elements/1.1/" xmlns:cc="http://creativecommons.org/ns#" xmlns:rdf="http://www.w3.org/1999/02/22-rdf-syntax-ns#">
   <cc:Work>
    <dc:type rdf:resource="http://purl.org/dc/dcmitype/StillImage"/>
    <dc:date>2024-10-30T22:03:08.794928</dc:date>
    <dc:format>image/svg+xml</dc:format>
    <dc:creator>
     <cc:Agent>
      <dc:title>Matplotlib v3.9.0, https://matplotlib.org/</dc:title>
     </cc:Agent>
    </dc:creator>
   </cc:Work>
  </rdf:RDF>
 </metadata>
 <defs>
  <style type="text/css">*{stroke-linejoin: round; stroke-linecap: butt}</style>
 </defs>
 <g id="figure_1">
  <g id="patch_1">
   <path d="M 0 345.6 
L 460.8 345.6 
L 460.8 0 
L 0 0 
z
" style="fill: #ffffff"/>
  </g>
  <g id="axes_1">
   <g id="patch_2">
    <path d="M 57.6 307.584 
L 414.72 307.584 
L 414.72 41.472 
L 57.6 41.472 
z
" style="fill: #ffffff"/>
   </g>
   <g id="PolyCollection_1">
    <path d="M 73.832727 303.684923 
L 73.832727 307.584 
L 73.935035 307.584 
L 74.071607 307.584 
L 74.416933 307.584 
L 74.918368 307.584 
L 75.136844 307.584 
L 75.664337 307.584 
L 75.977277 307.584 
L 76.238462 307.584 
L 76.444353 307.584 
L 76.895765 307.584 
L 76.896102 307.584 
L 77.605907 307.584 
L 77.77744 307.584 
L 77.823926 307.584 
L 78.598456 307.584 
L 78.600982 307.584 
L 78.734016 307.584 
L 79.207444 307.584 
L 79.580008 307.584 
L 80.104109 307.584 
L 80.147804 307.584 
L 80.854433 307.584 
L 81.209745 307.584 
L 81.308107 307.584 
L 81.566668 307.584 
L 82.098517 307.584 
L 82.125417 307.584 
L 82.401279 307.584 
L 82.462683 307.584 
L 82.549881 307.584 
L 82.604933 307.584 
L 82.701948 307.584 
L 83.174774 307.584 
L 83.922909 307.584 
L 84.398959 307.584 
L 84.470926 307.584 
L 84.905977 307.584 
L 84.952319 307.584 
L 85.085016 307.584 
L 85.154938 307.584 
L 85.217184 307.584 
L 85.627428 307.584 
L 86.013682 307.584 
L 86.11895 307.584 
L 86.408627 307.584 
L 86.540841 307.584 
L 87.317893 307.584 
L 88.104236 307.584 
L 88.177678 307.584 
L 88.543454 307.584 
L 88.564549 307.584 
L 88.768661 307.584 
L 88.849086 307.584 
L 88.909502 307.584 
L 89.031552 307.584 
L 89.271712 307.584 
L 89.611391 307.584 
L 89.960389 307.584 
L 90.008704 307.584 
L 90.052608 307.584 
L 90.786167 307.584 
L 91.000191 307.584 
L 91.737816 307.584 
L 91.936369 307.584 
L 92.461288 307.584 
L 92.760561 307.584 
L 92.834549 307.584 
L 92.910029 307.584 
L 93.076845 307.584 
L 93.427248 307.584 
L 93.601524 307.584 
L 94.644047 307.584 
L 94.837836 307.584 
L 94.902512 307.584 
L 96.56182 307.584 
L 96.700461 307.584 
L 96.813789 307.584 
L 96.89129 307.584 
L 97.804918 307.584 
L 98.009702 307.584 
L 99.095031 307.584 
L 99.32674 307.584 
L 101.118962 307.584 
L 101.255678 307.584 
L 102.654547 307.584 
L 102.827595 307.584 
L 103.185073 307.584 
L 103.442936 307.584 
L 106.008437 307.584 
L 107.265947 307.584 
L 108.21788 307.584 
L 110.957896 307.584 
L 111.154188 307.584 
L 114.100818 307.584 
L 116.774738 307.584 
L 117.104376 307.584 
L 117.215539 307.584 
L 118.509309 307.584 
L 119.277824 307.584 
L 120.725586 307.584 
L 121.050171 307.584 
L 121.995776 307.584 
L 126.524574 307.584 
L 131.631562 307.584 
L 131.948689 307.584 
L 134.200094 307.584 
L 141.986777 307.584 
L 146.983565 307.584 
L 148.587484 307.584 
L 157.754077 307.584 
L 158.873163 307.584 
L 165.149525 307.584 
L 166.092002 307.584 
L 168.860002 307.584 
L 169.957914 307.584 
L 172.645309 307.584 
L 173.23168 307.584 
L 175.602189 307.584 
L 181.127842 307.584 
L 220.916392 307.584 
L 229.034157 307.584 
L 232.386363 307.584 
L 239.153092 307.584 
L 242.474499 307.584 
L 325.567903 307.584 
L 338.103303 307.584 
L 346.888045 307.584 
L 365.850671 307.584 
L 398.487273 307.584 
L 398.487273 307.584 
L 398.487273 307.584 
L 365.850671 307.584 
L 346.888045 307.584 
L 338.103303 307.584 
L 325.567903 307.584 
L 242.474499 307.584 
L 239.153092 307.584 
L 232.386363 305.634462 
L 229.034157 305.634462 
L 220.916392 305.634462 
L 181.127842 305.634462 
L 175.602189 303.684923 
L 173.23168 303.684923 
L 172.645309 303.684923 
L 169.957914 303.684923 
L 168.860002 303.684923 
L 166.092002 303.684923 
L 165.149525 303.684923 
L 158.873163 303.684923 
L 157.754077 303.684923 
L 148.587484 303.684923 
L 146.983565 303.684923 
L 141.986777 303.684923 
L 134.200094 303.684923 
L 131.948689 303.684923 
L 131.631562 303.684923 
L 126.524574 303.684923 
L 121.995776 303.684923 
L 121.050171 303.684923 
L 120.725586 303.684923 
L 119.277824 303.684923 
L 118.509309 303.684923 
L 117.215539 303.684923 
L 117.104376 303.684923 
L 116.774738 303.684923 
L 114.100818 303.684923 
L 111.154188 303.684923 
L 110.957896 303.684923 
L 108.21788 303.684923 
L 107.265947 303.684923 
L 106.008437 303.684923 
L 103.442936 303.684923 
L 103.185073 303.684923 
L 102.827595 303.684923 
L 102.654547 303.684923 
L 101.255678 303.684923 
L 101.118962 303.684923 
L 99.32674 303.684923 
L 99.095031 303.684923 
L 98.009702 303.684923 
L 97.804918 303.684923 
L 96.89129 303.684923 
L 96.813789 303.684923 
L 96.700461 303.684923 
L 96.56182 303.684923 
L 94.902512 303.684923 
L 94.837836 303.684923 
L 94.644047 303.684923 
L 93.601524 303.684923 
L 93.427248 303.684923 
L 93.076845 303.684923 
L 92.910029 303.684923 
L 92.834549 303.684923 
L 92.760561 303.684923 
L 92.461288 303.684923 
L 91.936369 303.684923 
L 91.737816 303.684923 
L 91.000191 303.684923 
L 90.786167 303.684923 
L 90.052608 303.684923 
L 90.008704 303.684923 
L 89.960389 303.684923 
L 89.611391 303.684923 
L 89.271712 303.684923 
L 89.031552 303.684923 
L 88.909502 303.684923 
L 88.849086 303.684923 
L 88.768661 303.684923 
L 88.564549 303.684923 
L 88.543454 303.684923 
L 88.177678 303.684923 
L 88.104236 303.684923 
L 87.317893 303.684923 
L 86.540841 303.684923 
L 86.408627 303.684923 
L 86.11895 303.684923 
L 86.013682 303.684923 
L 85.627428 303.684923 
L 85.217184 303.684923 
L 85.154938 303.684923 
L 85.085016 303.684923 
L 84.952319 303.684923 
L 84.905977 303.684923 
L 84.470926 303.684923 
L 84.398959 303.684923 
L 83.922909 303.684923 
L 83.174774 303.684923 
L 82.701948 303.684923 
L 82.604933 303.684923 
L 82.549881 303.684923 
L 82.462683 303.684923 
L 82.401279 303.684923 
L 82.125417 303.684923 
L 82.098517 303.684923 
L 81.566668 303.684923 
L 81.308107 303.684923 
L 81.209745 303.684923 
L 80.854433 303.684923 
L 80.147804 303.684923 
L 80.104109 303.684923 
L 79.580008 303.684923 
L 79.207444 303.684923 
L 78.734016 303.684923 
L 78.600982 303.684923 
L 78.598456 303.684923 
L 77.823926 303.684923 
L 77.77744 303.684923 
L 77.605907 303.684923 
L 76.896102 303.684923 
L 76.895765 303.684923 
L 76.444353 303.684923 
L 76.238462 303.684923 
L 75.977277 303.684923 
L 75.664337 303.684923 
L 75.136844 303.684923 
L 74.918368 303.684923 
L 74.416933 303.684923 
L 74.071607 303.684923 
L 73.935035 303.684923 
L 73.832727 303.684923 
z
" clip-path="url(#p08d14aa2ee)" style="fill: #008000"/>
   </g>
   <g id="PolyCollection_2">
    <path d="M 73.832727 290.038154 
L 73.832727 303.684923 
L 73.935035 303.684923 
L 74.071607 303.684923 
L 74.416933 303.684923 
L 74.918368 303.684923 
L 75.136844 303.684923 
L 75.664337 303.684923 
L 75.977277 303.684923 
L 76.238462 303.684923 
L 76.444353 303.684923 
L 76.895765 303.684923 
L 76.896102 303.684923 
L 77.605907 303.684923 
L 77.77744 303.684923 
L 77.823926 303.684923 
L 78.598456 303.684923 
L 78.600982 303.684923 
L 78.734016 303.684923 
L 79.207444 303.684923 
L 79.580008 303.684923 
L 80.104109 303.684923 
L 80.147804 303.684923 
L 80.854433 303.684923 
L 81.209745 303.684923 
L 81.308107 303.684923 
L 81.566668 303.684923 
L 82.098517 303.684923 
L 82.125417 303.684923 
L 82.401279 303.684923 
L 82.462683 303.684923 
L 82.549881 303.684923 
L 82.604933 303.684923 
L 82.701948 303.684923 
L 83.174774 303.684923 
L 83.922909 303.684923 
L 84.398959 303.684923 
L 84.470926 303.684923 
L 84.905977 303.684923 
L 84.952319 303.684923 
L 85.085016 303.684923 
L 85.154938 303.684923 
L 85.217184 303.684923 
L 85.627428 303.684923 
L 86.013682 303.684923 
L 86.11895 303.684923 
L 86.408627 303.684923 
L 86.540841 303.684923 
L 87.317893 303.684923 
L 88.104236 303.684923 
L 88.177678 303.684923 
L 88.543454 303.684923 
L 88.564549 303.684923 
L 88.768661 303.684923 
L 88.849086 303.684923 
L 88.909502 303.684923 
L 89.031552 303.684923 
L 89.271712 303.684923 
L 89.611391 303.684923 
L 89.960389 303.684923 
L 90.008704 303.684923 
L 90.052608 303.684923 
L 90.786167 303.684923 
L 91.000191 303.684923 
L 91.737816 303.684923 
L 91.936369 303.684923 
L 92.461288 303.684923 
L 92.760561 303.684923 
L 92.834549 303.684923 
L 92.910029 303.684923 
L 93.076845 303.684923 
L 93.427248 303.684923 
L 93.601524 303.684923 
L 94.644047 303.684923 
L 94.837836 303.684923 
L 94.902512 303.684923 
L 96.56182 303.684923 
L 96.700461 303.684923 
L 96.813789 303.684923 
L 96.89129 303.684923 
L 97.804918 303.684923 
L 98.009702 303.684923 
L 99.095031 303.684923 
L 99.32674 303.684923 
L 101.118962 303.684923 
L 101.255678 303.684923 
L 102.654547 303.684923 
L 102.827595 303.684923 
L 103.185073 303.684923 
L 103.442936 303.684923 
L 106.008437 303.684923 
L 107.265947 303.684923 
L 108.21788 303.684923 
L 110.957896 303.684923 
L 111.154188 303.684923 
L 114.100818 303.684923 
L 116.774738 303.684923 
L 117.104376 303.684923 
L 117.215539 303.684923 
L 118.509309 303.684923 
L 119.277824 303.684923 
L 120.725586 303.684923 
L 121.050171 303.684923 
L 121.995776 303.684923 
L 126.524574 303.684923 
L 131.631562 303.684923 
L 131.948689 303.684923 
L 134.200094 303.684923 
L 141.986777 303.684923 
L 146.983565 303.684923 
L 148.587484 303.684923 
L 157.754077 303.684923 
L 158.873163 303.684923 
L 165.149525 303.684923 
L 166.092002 303.684923 
L 168.860002 303.684923 
L 169.957914 303.684923 
L 172.645309 303.684923 
L 173.23168 303.684923 
L 175.602189 303.684923 
L 181.127842 305.634462 
L 220.916392 305.634462 
L 229.034157 305.634462 
L 232.386363 305.634462 
L 239.153092 307.584 
L 242.474499 307.584 
L 325.567903 307.584 
L 338.103303 307.584 
L 346.888045 307.584 
L 365.850671 307.584 
L 398.487273 307.584 
L 398.487273 305.634462 
L 398.487273 305.634462 
L 365.850671 303.684923 
L 346.888045 303.684923 
L 338.103303 301.735385 
L 325.567903 301.735385 
L 242.474499 301.735385 
L 239.153092 301.735385 
L 232.386363 299.785846 
L 229.034157 299.785846 
L 220.916392 299.785846 
L 181.127842 297.836308 
L 175.602189 295.886769 
L 173.23168 295.886769 
L 172.645309 293.937231 
L 169.957914 293.937231 
L 168.860002 293.937231 
L 166.092002 291.987692 
L 165.149525 291.987692 
L 158.873163 291.987692 
L 157.754077 291.987692 
L 148.587484 291.987692 
L 146.983565 291.987692 
L 141.986777 291.987692 
L 134.200094 290.038154 
L 131.948689 290.038154 
L 131.631562 290.038154 
L 126.524574 290.038154 
L 121.995776 290.038154 
L 121.050171 290.038154 
L 120.725586 290.038154 
L 119.277824 290.038154 
L 118.509309 290.038154 
L 117.215539 290.038154 
L 117.104376 290.038154 
L 116.774738 290.038154 
L 114.100818 290.038154 
L 111.154188 290.038154 
L 110.957896 290.038154 
L 108.21788 290.038154 
L 107.265947 290.038154 
L 106.008437 290.038154 
L 103.442936 290.038154 
L 103.185073 290.038154 
L 102.827595 290.038154 
L 102.654547 290.038154 
L 101.255678 290.038154 
L 101.118962 290.038154 
L 99.32674 290.038154 
L 99.095031 290.038154 
L 98.009702 290.038154 
L 97.804918 290.038154 
L 96.89129 290.038154 
L 96.813789 290.038154 
L 96.700461 290.038154 
L 96.56182 290.038154 
L 94.902512 290.038154 
L 94.837836 290.038154 
L 94.644047 290.038154 
L 93.601524 290.038154 
L 93.427248 290.038154 
L 93.076845 290.038154 
L 92.910029 290.038154 
L 92.834549 290.038154 
L 92.760561 290.038154 
L 92.461288 290.038154 
L 91.936369 290.038154 
L 91.737816 290.038154 
L 91.000191 290.038154 
L 90.786167 290.038154 
L 90.052608 290.038154 
L 90.008704 290.038154 
L 89.960389 290.038154 
L 89.611391 290.038154 
L 89.271712 290.038154 
L 89.031552 290.038154 
L 88.909502 290.038154 
L 88.849086 290.038154 
L 88.768661 290.038154 
L 88.564549 290.038154 
L 88.543454 290.038154 
L 88.177678 290.038154 
L 88.104236 290.038154 
L 87.317893 290.038154 
L 86.540841 290.038154 
L 86.408627 290.038154 
L 86.11895 290.038154 
L 86.013682 290.038154 
L 85.627428 290.038154 
L 85.217184 290.038154 
L 85.154938 290.038154 
L 85.085016 290.038154 
L 84.952319 290.038154 
L 84.905977 290.038154 
L 84.470926 290.038154 
L 84.398959 290.038154 
L 83.922909 290.038154 
L 83.174774 290.038154 
L 82.701948 290.038154 
L 82.604933 290.038154 
L 82.549881 290.038154 
L 82.462683 290.038154 
L 82.401279 290.038154 
L 82.125417 290.038154 
L 82.098517 290.038154 
L 81.566668 290.038154 
L 81.308107 290.038154 
L 81.209745 290.038154 
L 80.854433 290.038154 
L 80.147804 290.038154 
L 80.104109 290.038154 
L 79.580008 290.038154 
L 79.207444 290.038154 
L 78.734016 290.038154 
L 78.600982 290.038154 
L 78.598456 290.038154 
L 77.823926 290.038154 
L 77.77744 290.038154 
L 77.605907 290.038154 
L 76.896102 290.038154 
L 76.895765 290.038154 
L 76.444353 290.038154 
L 76.238462 290.038154 
L 75.977277 290.038154 
L 75.664337 290.038154 
L 75.136844 290.038154 
L 74.918368 290.038154 
L 74.416933 290.038154 
L 74.071607 290.038154 
L 73.935035 290.038154 
L 73.832727 290.038154 
z
" clip-path="url(#p08d14aa2ee)" style="fill: #7cfc00"/>
   </g>
   <g id="PolyCollection_3">
    <path d="M 73.832727 54.144 
L 73.832727 290.038154 
L 73.935035 290.038154 
L 74.071607 290.038154 
L 74.416933 290.038154 
L 74.918368 290.038154 
L 75.136844 290.038154 
L 75.664337 290.038154 
L 75.977277 290.038154 
L 76.238462 290.038154 
L 76.444353 290.038154 
L 76.895765 290.038154 
L 76.896102 290.038154 
L 77.605907 290.038154 
L 77.77744 290.038154 
L 77.823926 290.038154 
L 78.598456 290.038154 
L 78.600982 290.038154 
L 78.734016 290.038154 
L 79.207444 290.038154 
L 79.580008 290.038154 
L 80.104109 290.038154 
L 80.147804 290.038154 
L 80.854433 290.038154 
L 81.209745 290.038154 
L 81.308107 290.038154 
L 81.566668 290.038154 
L 82.098517 290.038154 
L 82.125417 290.038154 
L 82.401279 290.038154 
L 82.462683 290.038154 
L 82.549881 290.038154 
L 82.604933 290.038154 
L 82.701948 290.038154 
L 83.174774 290.038154 
L 83.922909 290.038154 
L 84.398959 290.038154 
L 84.470926 290.038154 
L 84.905977 290.038154 
L 84.952319 290.038154 
L 85.085016 290.038154 
L 85.154938 290.038154 
L 85.217184 290.038154 
L 85.627428 290.038154 
L 86.013682 290.038154 
L 86.11895 290.038154 
L 86.408627 290.038154 
L 86.540841 290.038154 
L 87.317893 290.038154 
L 88.104236 290.038154 
L 88.177678 290.038154 
L 88.543454 290.038154 
L 88.564549 290.038154 
L 88.768661 290.038154 
L 88.849086 290.038154 
L 88.909502 290.038154 
L 89.031552 290.038154 
L 89.271712 290.038154 
L 89.611391 290.038154 
L 89.960389 290.038154 
L 90.008704 290.038154 
L 90.052608 290.038154 
L 90.786167 290.038154 
L 91.000191 290.038154 
L 91.737816 290.038154 
L 91.936369 290.038154 
L 92.461288 290.038154 
L 92.760561 290.038154 
L 92.834549 290.038154 
L 92.910029 290.038154 
L 93.076845 290.038154 
L 93.427248 290.038154 
L 93.601524 290.038154 
L 94.644047 290.038154 
L 94.837836 290.038154 
L 94.902512 290.038154 
L 96.56182 290.038154 
L 96.700461 290.038154 
L 96.813789 290.038154 
L 96.89129 290.038154 
L 97.804918 290.038154 
L 98.009702 290.038154 
L 99.095031 290.038154 
L 99.32674 290.038154 
L 101.118962 290.038154 
L 101.255678 290.038154 
L 102.654547 290.038154 
L 102.827595 290.038154 
L 103.185073 290.038154 
L 103.442936 290.038154 
L 106.008437 290.038154 
L 107.265947 290.038154 
L 108.21788 290.038154 
L 110.957896 290.038154 
L 111.154188 290.038154 
L 114.100818 290.038154 
L 116.774738 290.038154 
L 117.104376 290.038154 
L 117.215539 290.038154 
L 118.509309 290.038154 
L 119.277824 290.038154 
L 120.725586 290.038154 
L 121.050171 290.038154 
L 121.995776 290.038154 
L 126.524574 290.038154 
L 131.631562 290.038154 
L 131.948689 290.038154 
L 134.200094 290.038154 
L 141.986777 291.987692 
L 146.983565 291.987692 
L 148.587484 291.987692 
L 157.754077 291.987692 
L 158.873163 291.987692 
L 165.149525 291.987692 
L 166.092002 291.987692 
L 168.860002 293.937231 
L 169.957914 293.937231 
L 172.645309 293.937231 
L 173.23168 295.886769 
L 175.602189 295.886769 
L 181.127842 297.836308 
L 220.916392 299.785846 
L 229.034157 299.785846 
L 232.386363 299.785846 
L 239.153092 301.735385 
L 242.474499 301.735385 
L 325.567903 301.735385 
L 338.103303 301.735385 
L 346.888045 303.684923 
L 365.850671 303.684923 
L 398.487273 305.634462 
L 398.487273 305.634462 
L 398.487273 305.634462 
L 365.850671 303.684923 
L 346.888045 301.735385 
L 338.103303 299.785846 
L 325.567903 297.836308 
L 242.474499 295.886769 
L 239.153092 293.937231 
L 232.386363 291.987692 
L 229.034157 290.038154 
L 220.916392 288.088615 
L 181.127842 286.139077 
L 175.602189 284.189538 
L 173.23168 282.24 
L 172.645309 280.290462 
L 169.957914 278.340923 
L 168.860002 276.391385 
L 166.092002 274.441846 
L 165.149525 272.492308 
L 158.873163 270.542769 
L 157.754077 268.593231 
L 148.587484 266.643692 
L 146.983565 264.694154 
L 141.986777 262.744615 
L 134.200094 260.795077 
L 131.948689 258.845538 
L 131.631562 256.896 
L 126.524574 254.946462 
L 121.995776 252.996923 
L 121.050171 251.047385 
L 120.725586 249.097846 
L 119.277824 247.148308 
L 118.509309 245.198769 
L 117.215539 243.249231 
L 117.104376 241.299692 
L 116.774738 239.350154 
L 114.100818 237.400615 
L 111.154188 235.451077 
L 110.957896 233.501538 
L 108.21788 231.552 
L 107.265947 229.602462 
L 106.008437 227.652923 
L 103.442936 225.703385 
L 103.185073 223.753846 
L 102.827595 221.804308 
L 102.654547 219.854769 
L 101.255678 217.905231 
L 101.118962 215.955692 
L 99.32674 214.006154 
L 99.095031 212.056615 
L 98.009702 210.107077 
L 97.804918 208.157538 
L 96.89129 206.208 
L 96.813789 204.258462 
L 96.700461 202.308923 
L 96.56182 200.359385 
L 94.902512 198.409846 
L 94.837836 196.460308 
L 94.644047 194.510769 
L 93.601524 192.561231 
L 93.427248 190.611692 
L 93.076845 188.662154 
L 92.910029 186.712615 
L 92.834549 184.763077 
L 92.760561 182.813538 
L 92.461288 180.864 
L 91.936369 178.914462 
L 91.737816 176.964923 
L 91.000191 175.015385 
L 90.786167 173.065846 
L 90.052608 171.116308 
L 90.008704 169.166769 
L 89.960389 167.217231 
L 89.611391 165.267692 
L 89.271712 163.318154 
L 89.031552 161.368615 
L 88.909502 159.419077 
L 88.849086 157.469538 
L 88.768661 155.52 
L 88.564549 153.570462 
L 88.543454 151.620923 
L 88.177678 149.671385 
L 88.104236 147.721846 
L 87.317893 145.772308 
L 86.540841 143.822769 
L 86.408627 141.873231 
L 86.11895 139.923692 
L 86.013682 137.974154 
L 85.627428 136.024615 
L 85.217184 134.075077 
L 85.154938 132.125538 
L 85.085016 130.176 
L 84.952319 128.226462 
L 84.905977 126.276923 
L 84.470926 124.327385 
L 84.398959 122.377846 
L 83.922909 120.428308 
L 83.174774 118.478769 
L 82.701948 116.529231 
L 82.604933 114.579692 
L 82.549881 112.630154 
L 82.462683 110.680615 
L 82.401279 108.731077 
L 82.125417 106.781538 
L 82.098517 104.832 
L 81.566668 102.882462 
L 81.308107 100.932923 
L 81.209745 98.983385 
L 80.854433 97.033846 
L 80.147804 95.084308 
L 80.104109 93.134769 
L 79.580008 91.185231 
L 79.207444 89.235692 
L 78.734016 87.286154 
L 78.600982 85.336615 
L 78.598456 83.387077 
L 77.823926 81.437538 
L 77.77744 79.488 
L 77.605907 77.538462 
L 76.896102 75.588923 
L 76.895765 73.639385 
L 76.444353 71.689846 
L 76.238462 69.740308 
L 75.977277 67.790769 
L 75.664337 65.841231 
L 75.136844 63.891692 
L 74.918368 61.942154 
L 74.416933 59.992615 
L 74.071607 58.043077 
L 73.935035 56.093538 
L 73.832727 54.144 
z
" clip-path="url(#p08d14aa2ee)" style="fill: #ff0000"/>
   </g>
   <g id="matplotlib.axis_1">
    <g id="xtick_1">
     <g id="line2d_1">
      <defs>
       <path id="mc9da0914b4" d="M 0 0 
L 0 3.5 
" style="stroke: #000000; stroke-width: 0.8"/>
      </defs>
      <g>
       <use xlink:href="#mc9da0914b4" x="88.646482" y="307.584" style="stroke: #000000; stroke-width: 0.8"/>
      </g>
     </g>
     <g id="text_1">
      <!-- 0 -->
      <g transform="translate(85.465232 322.182437) scale(0.1 -0.1)">
       <defs>
        <path id="DejaVuSans-30" d="M 2034 4250 
Q 1547 4250 1301 3770 
Q 1056 3291 1056 2328 
Q 1056 1369 1301 889 
Q 1547 409 2034 409 
Q 2525 409 2770 889 
Q 3016 1369 3016 2328 
Q 3016 3291 2770 3770 
Q 2525 4250 2034 4250 
z
M 2034 4750 
Q 2819 4750 3233 4129 
Q 3647 3509 3647 2328 
Q 3647 1150 3233 529 
Q 2819 -91 2034 -91 
Q 1250 -91 836 529 
Q 422 1150 422 2328 
Q 422 3509 836 4129 
Q 1250 4750 2034 4750 
z
" transform="scale(0.015625)"/>
       </defs>
       <use xlink:href="#DejaVuSans-30"/>
      </g>
     </g>
    </g>
    <g id="xtick_2">
     <g id="line2d_2">
      <g>
       <use xlink:href="#mc9da0914b4" x="136.768867" y="307.584" style="stroke: #000000; stroke-width: 0.8"/>
      </g>
     </g>
     <g id="text_2">
      <!-- 2 -->
      <g transform="translate(133.587617 322.182437) scale(0.1 -0.1)">
       <defs>
        <path id="DejaVuSans-32" d="M 1228 531 
L 3431 531 
L 3431 0 
L 469 0 
L 469 531 
Q 828 903 1448 1529 
Q 2069 2156 2228 2338 
Q 2531 2678 2651 2914 
Q 2772 3150 2772 3378 
Q 2772 3750 2511 3984 
Q 2250 4219 1831 4219 
Q 1534 4219 1204 4116 
Q 875 4013 500 3803 
L 500 4441 
Q 881 4594 1212 4672 
Q 1544 4750 1819 4750 
Q 2544 4750 2975 4387 
Q 3406 4025 3406 3419 
Q 3406 3131 3298 2873 
Q 3191 2616 2906 2266 
Q 2828 2175 2409 1742 
Q 1991 1309 1228 531 
z
" transform="scale(0.015625)"/>
       </defs>
       <use xlink:href="#DejaVuSans-32"/>
      </g>
     </g>
    </g>
    <g id="xtick_3">
     <g id="line2d_3">
      <g>
       <use xlink:href="#mc9da0914b4" x="184.891253" y="307.584" style="stroke: #000000; stroke-width: 0.8"/>
      </g>
     </g>
     <g id="text_3">
      <!-- 4 -->
      <g transform="translate(181.710003 322.182437) scale(0.1 -0.1)">
       <defs>
        <path id="DejaVuSans-34" d="M 2419 4116 
L 825 1625 
L 2419 1625 
L 2419 4116 
z
M 2253 4666 
L 3047 4666 
L 3047 1625 
L 3713 1625 
L 3713 1100 
L 3047 1100 
L 3047 0 
L 2419 0 
L 2419 1100 
L 313 1100 
L 313 1709 
L 2253 4666 
z
" transform="scale(0.015625)"/>
       </defs>
       <use xlink:href="#DejaVuSans-34"/>
      </g>
     </g>
    </g>
    <g id="xtick_4">
     <g id="line2d_4">
      <g>
       <use xlink:href="#mc9da0914b4" x="233.013638" y="307.584" style="stroke: #000000; stroke-width: 0.8"/>
      </g>
     </g>
     <g id="text_4">
      <!-- 6 -->
      <g transform="translate(229.832388 322.182437) scale(0.1 -0.1)">
       <defs>
        <path id="DejaVuSans-36" d="M 2113 2584 
Q 1688 2584 1439 2293 
Q 1191 2003 1191 1497 
Q 1191 994 1439 701 
Q 1688 409 2113 409 
Q 2538 409 2786 701 
Q 3034 994 3034 1497 
Q 3034 2003 2786 2293 
Q 2538 2584 2113 2584 
z
M 3366 4563 
L 3366 3988 
Q 3128 4100 2886 4159 
Q 2644 4219 2406 4219 
Q 1781 4219 1451 3797 
Q 1122 3375 1075 2522 
Q 1259 2794 1537 2939 
Q 1816 3084 2150 3084 
Q 2853 3084 3261 2657 
Q 3669 2231 3669 1497 
Q 3669 778 3244 343 
Q 2819 -91 2113 -91 
Q 1303 -91 875 529 
Q 447 1150 447 2328 
Q 447 3434 972 4092 
Q 1497 4750 2381 4750 
Q 2619 4750 2861 4703 
Q 3103 4656 3366 4563 
z
" transform="scale(0.015625)"/>
       </defs>
       <use xlink:href="#DejaVuSans-36"/>
      </g>
     </g>
    </g>
    <g id="xtick_5">
     <g id="line2d_5">
      <g>
       <use xlink:href="#mc9da0914b4" x="281.136024" y="307.584" style="stroke: #000000; stroke-width: 0.8"/>
      </g>
     </g>
     <g id="text_5">
      <!-- 8 -->
      <g transform="translate(277.954774 322.182437) scale(0.1 -0.1)">
       <defs>
        <path id="DejaVuSans-38" d="M 2034 2216 
Q 1584 2216 1326 1975 
Q 1069 1734 1069 1313 
Q 1069 891 1326 650 
Q 1584 409 2034 409 
Q 2484 409 2743 651 
Q 3003 894 3003 1313 
Q 3003 1734 2745 1975 
Q 2488 2216 2034 2216 
z
M 1403 2484 
Q 997 2584 770 2862 
Q 544 3141 544 3541 
Q 544 4100 942 4425 
Q 1341 4750 2034 4750 
Q 2731 4750 3128 4425 
Q 3525 4100 3525 3541 
Q 3525 3141 3298 2862 
Q 3072 2584 2669 2484 
Q 3125 2378 3379 2068 
Q 3634 1759 3634 1313 
Q 3634 634 3220 271 
Q 2806 -91 2034 -91 
Q 1263 -91 848 271 
Q 434 634 434 1313 
Q 434 1759 690 2068 
Q 947 2378 1403 2484 
z
M 1172 3481 
Q 1172 3119 1398 2916 
Q 1625 2713 2034 2713 
Q 2441 2713 2670 2916 
Q 2900 3119 2900 3481 
Q 2900 3844 2670 4047 
Q 2441 4250 2034 4250 
Q 1625 4250 1398 4047 
Q 1172 3844 1172 3481 
z
" transform="scale(0.015625)"/>
       </defs>
       <use xlink:href="#DejaVuSans-38"/>
      </g>
     </g>
    </g>
    <g id="xtick_6">
     <g id="line2d_6">
      <g>
       <use xlink:href="#mc9da0914b4" x="329.258409" y="307.584" style="stroke: #000000; stroke-width: 0.8"/>
      </g>
     </g>
     <g id="text_6">
      <!-- 10 -->
      <g transform="translate(322.895909 322.182437) scale(0.1 -0.1)">
       <defs>
        <path id="DejaVuSans-31" d="M 794 531 
L 1825 531 
L 1825 4091 
L 703 3866 
L 703 4441 
L 1819 4666 
L 2450 4666 
L 2450 531 
L 3481 531 
L 3481 0 
L 794 0 
L 794 531 
z
" transform="scale(0.015625)"/>
       </defs>
       <use xlink:href="#DejaVuSans-31"/>
       <use xlink:href="#DejaVuSans-30" x="63.623047"/>
      </g>
     </g>
    </g>
    <g id="xtick_7">
     <g id="line2d_7">
      <g>
       <use xlink:href="#mc9da0914b4" x="377.380794" y="307.584" style="stroke: #000000; stroke-width: 0.8"/>
      </g>
     </g>
     <g id="text_7">
      <!-- 12 -->
      <g transform="translate(371.018294 322.182437) scale(0.1 -0.1)">
       <use xlink:href="#DejaVuSans-31"/>
       <use xlink:href="#DejaVuSans-32" x="63.623047"/>
      </g>
     </g>
    </g>
    <g id="text_8">
     <!-- Score -->
     <g transform="translate(222.157656 335.860562) scale(0.1 -0.1)">
      <defs>
       <path id="DejaVuSans-53" d="M 3425 4513 
L 3425 3897 
Q 3066 4069 2747 4153 
Q 2428 4238 2131 4238 
Q 1616 4238 1336 4038 
Q 1056 3838 1056 3469 
Q 1056 3159 1242 3001 
Q 1428 2844 1947 2747 
L 2328 2669 
Q 3034 2534 3370 2195 
Q 3706 1856 3706 1288 
Q 3706 609 3251 259 
Q 2797 -91 1919 -91 
Q 1588 -91 1214 -16 
Q 841 59 441 206 
L 441 856 
Q 825 641 1194 531 
Q 1563 422 1919 422 
Q 2459 422 2753 634 
Q 3047 847 3047 1241 
Q 3047 1584 2836 1778 
Q 2625 1972 2144 2069 
L 1759 2144 
Q 1053 2284 737 2584 
Q 422 2884 422 3419 
Q 422 4038 858 4394 
Q 1294 4750 2059 4750 
Q 2388 4750 2728 4690 
Q 3069 4631 3425 4513 
z
" transform="scale(0.015625)"/>
       <path id="DejaVuSans-63" d="M 3122 3366 
L 3122 2828 
Q 2878 2963 2633 3030 
Q 2388 3097 2138 3097 
Q 1578 3097 1268 2742 
Q 959 2388 959 1747 
Q 959 1106 1268 751 
Q 1578 397 2138 397 
Q 2388 397 2633 464 
Q 2878 531 3122 666 
L 3122 134 
Q 2881 22 2623 -34 
Q 2366 -91 2075 -91 
Q 1284 -91 818 406 
Q 353 903 353 1747 
Q 353 2603 823 3093 
Q 1294 3584 2113 3584 
Q 2378 3584 2631 3529 
Q 2884 3475 3122 3366 
z
" transform="scale(0.015625)"/>
       <path id="DejaVuSans-6f" d="M 1959 3097 
Q 1497 3097 1228 2736 
Q 959 2375 959 1747 
Q 959 1119 1226 758 
Q 1494 397 1959 397 
Q 2419 397 2687 759 
Q 2956 1122 2956 1747 
Q 2956 2369 2687 2733 
Q 2419 3097 1959 3097 
z
M 1959 3584 
Q 2709 3584 3137 3096 
Q 3566 2609 3566 1747 
Q 3566 888 3137 398 
Q 2709 -91 1959 -91 
Q 1206 -91 779 398 
Q 353 888 353 1747 
Q 353 2609 779 3096 
Q 1206 3584 1959 3584 
z
" transform="scale(0.015625)"/>
       <path id="DejaVuSans-72" d="M 2631 2963 
Q 2534 3019 2420 3045 
Q 2306 3072 2169 3072 
Q 1681 3072 1420 2755 
Q 1159 2438 1159 1844 
L 1159 0 
L 581 0 
L 581 3500 
L 1159 3500 
L 1159 2956 
Q 1341 3275 1631 3429 
Q 1922 3584 2338 3584 
Q 2397 3584 2469 3576 
Q 2541 3569 2628 3553 
L 2631 2963 
z
" transform="scale(0.015625)"/>
       <path id="DejaVuSans-65" d="M 3597 1894 
L 3597 1613 
L 953 1613 
Q 991 1019 1311 708 
Q 1631 397 2203 397 
Q 2534 397 2845 478 
Q 3156 559 3463 722 
L 3463 178 
Q 3153 47 2828 -22 
Q 2503 -91 2169 -91 
Q 1331 -91 842 396 
Q 353 884 353 1716 
Q 353 2575 817 3079 
Q 1281 3584 2069 3584 
Q 2775 3584 3186 3129 
Q 3597 2675 3597 1894 
z
M 3022 2063 
Q 3016 2534 2758 2815 
Q 2500 3097 2075 3097 
Q 1594 3097 1305 2825 
Q 1016 2553 972 2059 
L 3022 2063 
z
" transform="scale(0.015625)"/>
      </defs>
      <use xlink:href="#DejaVuSans-53"/>
      <use xlink:href="#DejaVuSans-63" x="63.476562"/>
      <use xlink:href="#DejaVuSans-6f" x="118.457031"/>
      <use xlink:href="#DejaVuSans-72" x="179.638672"/>
      <use xlink:href="#DejaVuSans-65" x="218.501953"/>
     </g>
    </g>
   </g>
   <g id="matplotlib.axis_2">
    <g id="ytick_1">
     <g id="line2d_8">
      <defs>
       <path id="m38c962644f" d="M 0 0 
L -3.5 0 
" style="stroke: #000000; stroke-width: 0.8"/>
      </defs>
      <g>
       <use xlink:href="#m38c962644f" x="57.6" y="307.584" style="stroke: #000000; stroke-width: 0.8"/>
      </g>
     </g>
     <g id="text_9">
      <!-- 0 -->
      <g transform="translate(44.2375 311.383219) scale(0.1 -0.1)">
       <use xlink:href="#DejaVuSans-30"/>
      </g>
     </g>
    </g>
    <g id="ytick_2">
     <g id="line2d_9">
      <g>
       <use xlink:href="#m38c962644f" x="57.6" y="268.593231" style="stroke: #000000; stroke-width: 0.8"/>
      </g>
     </g>
     <g id="text_10">
      <!-- 20 -->
      <g transform="translate(37.875 272.39245) scale(0.1 -0.1)">
       <use xlink:href="#DejaVuSans-32"/>
       <use xlink:href="#DejaVuSans-30" x="63.623047"/>
      </g>
     </g>
    </g>
    <g id="ytick_3">
     <g id="line2d_10">
      <g>
       <use xlink:href="#m38c962644f" x="57.6" y="229.602462" style="stroke: #000000; stroke-width: 0.8"/>
      </g>
     </g>
     <g id="text_11">
      <!-- 40 -->
      <g transform="translate(37.875 233.40168) scale(0.1 -0.1)">
       <use xlink:href="#DejaVuSans-34"/>
       <use xlink:href="#DejaVuSans-30" x="63.623047"/>
      </g>
     </g>
    </g>
    <g id="ytick_4">
     <g id="line2d_11">
      <g>
       <use xlink:href="#m38c962644f" x="57.6" y="190.611692" style="stroke: #000000; stroke-width: 0.8"/>
      </g>
     </g>
     <g id="text_12">
      <!-- 60 -->
      <g transform="translate(37.875 194.410911) scale(0.1 -0.1)">
       <use xlink:href="#DejaVuSans-36"/>
       <use xlink:href="#DejaVuSans-30" x="63.623047"/>
      </g>
     </g>
    </g>
    <g id="ytick_5">
     <g id="line2d_12">
      <g>
       <use xlink:href="#m38c962644f" x="57.6" y="151.620923" style="stroke: #000000; stroke-width: 0.8"/>
      </g>
     </g>
     <g id="text_13">
      <!-- 80 -->
      <g transform="translate(37.875 155.420142) scale(0.1 -0.1)">
       <use xlink:href="#DejaVuSans-38"/>
       <use xlink:href="#DejaVuSans-30" x="63.623047"/>
      </g>
     </g>
    </g>
    <g id="ytick_6">
     <g id="line2d_13">
      <g>
       <use xlink:href="#m38c962644f" x="57.6" y="112.630154" style="stroke: #000000; stroke-width: 0.8"/>
      </g>
     </g>
     <g id="text_14">
      <!-- 100 -->
      <g transform="translate(31.5125 116.429373) scale(0.1 -0.1)">
       <use xlink:href="#DejaVuSans-31"/>
       <use xlink:href="#DejaVuSans-30" x="63.623047"/>
       <use xlink:href="#DejaVuSans-30" x="127.246094"/>
      </g>
     </g>
    </g>
    <g id="ytick_7">
     <g id="line2d_14">
      <g>
       <use xlink:href="#m38c962644f" x="57.6" y="73.639385" style="stroke: #000000; stroke-width: 0.8"/>
      </g>
     </g>
     <g id="text_15">
      <!-- 120 -->
      <g transform="translate(31.5125 77.438603) scale(0.1 -0.1)">
       <use xlink:href="#DejaVuSans-31"/>
       <use xlink:href="#DejaVuSans-32" x="63.623047"/>
       <use xlink:href="#DejaVuSans-30" x="127.246094"/>
      </g>
     </g>
    </g>
    <g id="text_16">
     <!-- Number of crosslinks -->
     <g transform="translate(25.432812 227.019406) rotate(-90) scale(0.1 -0.1)">
      <defs>
       <path id="DejaVuSans-4e" d="M 628 4666 
L 1478 4666 
L 3547 763 
L 3547 4666 
L 4159 4666 
L 4159 0 
L 3309 0 
L 1241 3903 
L 1241 0 
L 628 0 
L 628 4666 
z
" transform="scale(0.015625)"/>
       <path id="DejaVuSans-75" d="M 544 1381 
L 544 3500 
L 1119 3500 
L 1119 1403 
Q 1119 906 1312 657 
Q 1506 409 1894 409 
Q 2359 409 2629 706 
Q 2900 1003 2900 1516 
L 2900 3500 
L 3475 3500 
L 3475 0 
L 2900 0 
L 2900 538 
Q 2691 219 2414 64 
Q 2138 -91 1772 -91 
Q 1169 -91 856 284 
Q 544 659 544 1381 
z
M 1991 3584 
L 1991 3584 
z
" transform="scale(0.015625)"/>
       <path id="DejaVuSans-6d" d="M 3328 2828 
Q 3544 3216 3844 3400 
Q 4144 3584 4550 3584 
Q 5097 3584 5394 3201 
Q 5691 2819 5691 2113 
L 5691 0 
L 5113 0 
L 5113 2094 
Q 5113 2597 4934 2840 
Q 4756 3084 4391 3084 
Q 3944 3084 3684 2787 
Q 3425 2491 3425 1978 
L 3425 0 
L 2847 0 
L 2847 2094 
Q 2847 2600 2669 2842 
Q 2491 3084 2119 3084 
Q 1678 3084 1418 2786 
Q 1159 2488 1159 1978 
L 1159 0 
L 581 0 
L 581 3500 
L 1159 3500 
L 1159 2956 
Q 1356 3278 1631 3431 
Q 1906 3584 2284 3584 
Q 2666 3584 2933 3390 
Q 3200 3197 3328 2828 
z
" transform="scale(0.015625)"/>
       <path id="DejaVuSans-62" d="M 3116 1747 
Q 3116 2381 2855 2742 
Q 2594 3103 2138 3103 
Q 1681 3103 1420 2742 
Q 1159 2381 1159 1747 
Q 1159 1113 1420 752 
Q 1681 391 2138 391 
Q 2594 391 2855 752 
Q 3116 1113 3116 1747 
z
M 1159 2969 
Q 1341 3281 1617 3432 
Q 1894 3584 2278 3584 
Q 2916 3584 3314 3078 
Q 3713 2572 3713 1747 
Q 3713 922 3314 415 
Q 2916 -91 2278 -91 
Q 1894 -91 1617 61 
Q 1341 213 1159 525 
L 1159 0 
L 581 0 
L 581 4863 
L 1159 4863 
L 1159 2969 
z
" transform="scale(0.015625)"/>
       <path id="DejaVuSans-20" transform="scale(0.015625)"/>
       <path id="DejaVuSans-66" d="M 2375 4863 
L 2375 4384 
L 1825 4384 
Q 1516 4384 1395 4259 
Q 1275 4134 1275 3809 
L 1275 3500 
L 2222 3500 
L 2222 3053 
L 1275 3053 
L 1275 0 
L 697 0 
L 697 3053 
L 147 3053 
L 147 3500 
L 697 3500 
L 697 3744 
Q 697 4328 969 4595 
Q 1241 4863 1831 4863 
L 2375 4863 
z
" transform="scale(0.015625)"/>
       <path id="DejaVuSans-73" d="M 2834 3397 
L 2834 2853 
Q 2591 2978 2328 3040 
Q 2066 3103 1784 3103 
Q 1356 3103 1142 2972 
Q 928 2841 928 2578 
Q 928 2378 1081 2264 
Q 1234 2150 1697 2047 
L 1894 2003 
Q 2506 1872 2764 1633 
Q 3022 1394 3022 966 
Q 3022 478 2636 193 
Q 2250 -91 1575 -91 
Q 1294 -91 989 -36 
Q 684 19 347 128 
L 347 722 
Q 666 556 975 473 
Q 1284 391 1588 391 
Q 1994 391 2212 530 
Q 2431 669 2431 922 
Q 2431 1156 2273 1281 
Q 2116 1406 1581 1522 
L 1381 1569 
Q 847 1681 609 1914 
Q 372 2147 372 2553 
Q 372 3047 722 3315 
Q 1072 3584 1716 3584 
Q 2034 3584 2315 3537 
Q 2597 3491 2834 3397 
z
" transform="scale(0.015625)"/>
       <path id="DejaVuSans-6c" d="M 603 4863 
L 1178 4863 
L 1178 0 
L 603 0 
L 603 4863 
z
" transform="scale(0.015625)"/>
       <path id="DejaVuSans-69" d="M 603 3500 
L 1178 3500 
L 1178 0 
L 603 0 
L 603 3500 
z
M 603 4863 
L 1178 4863 
L 1178 4134 
L 603 4134 
L 603 4863 
z
" transform="scale(0.015625)"/>
       <path id="DejaVuSans-6e" d="M 3513 2113 
L 3513 0 
L 2938 0 
L 2938 2094 
Q 2938 2591 2744 2837 
Q 2550 3084 2163 3084 
Q 1697 3084 1428 2787 
Q 1159 2491 1159 1978 
L 1159 0 
L 581 0 
L 581 3500 
L 1159 3500 
L 1159 2956 
Q 1366 3272 1645 3428 
Q 1925 3584 2291 3584 
Q 2894 3584 3203 3211 
Q 3513 2838 3513 2113 
z
" transform="scale(0.015625)"/>
       <path id="DejaVuSans-6b" d="M 581 4863 
L 1159 4863 
L 1159 1991 
L 2875 3500 
L 3609 3500 
L 1753 1863 
L 3688 0 
L 2938 0 
L 1159 1709 
L 1159 0 
L 581 0 
L 581 4863 
z
" transform="scale(0.015625)"/>
      </defs>
      <use xlink:href="#DejaVuSans-4e"/>
      <use xlink:href="#DejaVuSans-75" x="74.804688"/>
      <use xlink:href="#DejaVuSans-6d" x="138.183594"/>
      <use xlink:href="#DejaVuSans-62" x="235.595703"/>
      <use xlink:href="#DejaVuSans-65" x="299.072266"/>
      <use xlink:href="#DejaVuSans-72" x="360.595703"/>
      <use xlink:href="#DejaVuSans-20" x="401.708984"/>
      <use xlink:href="#DejaVuSans-6f" x="433.496094"/>
      <use xlink:href="#DejaVuSans-66" x="494.677734"/>
      <use xlink:href="#DejaVuSans-20" x="529.882812"/>
      <use xlink:href="#DejaVuSans-63" x="561.669922"/>
      <use xlink:href="#DejaVuSans-72" x="616.650391"/>
      <use xlink:href="#DejaVuSans-6f" x="655.513672"/>
      <use xlink:href="#DejaVuSans-73" x="716.695312"/>
      <use xlink:href="#DejaVuSans-73" x="768.794922"/>
      <use xlink:href="#DejaVuSans-6c" x="820.894531"/>
      <use xlink:href="#DejaVuSans-69" x="848.677734"/>
      <use xlink:href="#DejaVuSans-6e" x="876.460938"/>
      <use xlink:href="#DejaVuSans-6b" x="939.839844"/>
      <use xlink:href="#DejaVuSans-73" x="997.75"/>
     </g>
    </g>
   </g>
   <g id="patch_3">
    <path d="M 57.6 307.584 
L 57.6 41.472 
" style="fill: none; stroke: #000000; stroke-width: 0.8; stroke-linejoin: miter; stroke-linecap: square"/>
   </g>
   <g id="patch_4">
    <path d="M 414.72 307.584 
L 414.72 41.472 
" style="fill: none; stroke: #000000; stroke-width: 0.8; stroke-linejoin: miter; stroke-linecap: square"/>
   </g>
   <g id="patch_5">
    <path d="M 57.6 307.584 
L 414.72 307.584 
" style="fill: none; stroke: #000000; stroke-width: 0.8; stroke-linejoin: miter; stroke-linecap: square"/>
   </g>
   <g id="patch_6">
    <path d="M 57.6 41.472 
L 414.72 41.472 
" style="fill: none; stroke: #000000; stroke-width: 0.8; stroke-linejoin: miter; stroke-linecap: square"/>
   </g>
   <g id="legend_1">
    <g id="patch_7">
     <path d="M 293.087188 93.506375 
L 407.72 93.506375 
Q 409.72 93.506375 409.72 91.506375 
L 409.72 48.472 
Q 409.72 46.472 407.72 46.472 
L 293.087188 46.472 
Q 291.087188 46.472 291.087188 48.472 
L 291.087188 91.506375 
Q 291.087188 93.506375 293.087188 93.506375 
z
" style="fill: #ffffff; opacity: 0.8; stroke: #cccccc; stroke-linejoin: miter"/>
    </g>
    <g id="patch_8">
     <path d="M 295.087188 58.070438 
L 315.087188 58.070438 
L 315.087188 51.070438 
L 295.087188 51.070438 
z
" style="fill: #008000"/>
    </g>
    <g id="text_17">
     <!-- true -->
     <g transform="translate(323.087188 58.070438) scale(0.1 -0.1)">
      <defs>
       <path id="DejaVuSans-74" d="M 1172 4494 
L 1172 3500 
L 2356 3500 
L 2356 3053 
L 1172 3053 
L 1172 1153 
Q 1172 725 1289 603 
Q 1406 481 1766 481 
L 2356 481 
L 2356 0 
L 1766 0 
Q 1100 0 847 248 
Q 594 497 594 1153 
L 594 3053 
L 172 3053 
L 172 3500 
L 594 3500 
L 594 4494 
L 1172 4494 
z
" transform="scale(0.015625)"/>
      </defs>
      <use xlink:href="#DejaVuSans-74"/>
      <use xlink:href="#DejaVuSans-72" x="39.208984"/>
      <use xlink:href="#DejaVuSans-75" x="80.322266"/>
      <use xlink:href="#DejaVuSans-65" x="143.701172"/>
     </g>
    </g>
    <g id="patch_9">
     <path d="M 295.087188 72.748563 
L 315.087188 72.748563 
L 315.087188 65.748563 
L 295.087188 65.748563 
z
" style="fill: #7cfc00"/>
    </g>
    <g id="text_18">
     <!-- true homeotypic -->
     <g transform="translate(323.087188 72.748563) scale(0.1 -0.1)">
      <defs>
       <path id="DejaVuSans-68" d="M 3513 2113 
L 3513 0 
L 2938 0 
L 2938 2094 
Q 2938 2591 2744 2837 
Q 2550 3084 2163 3084 
Q 1697 3084 1428 2787 
Q 1159 2491 1159 1978 
L 1159 0 
L 581 0 
L 581 4863 
L 1159 4863 
L 1159 2956 
Q 1366 3272 1645 3428 
Q 1925 3584 2291 3584 
Q 2894 3584 3203 3211 
Q 3513 2838 3513 2113 
z
" transform="scale(0.015625)"/>
       <path id="DejaVuSans-79" d="M 2059 -325 
Q 1816 -950 1584 -1140 
Q 1353 -1331 966 -1331 
L 506 -1331 
L 506 -850 
L 844 -850 
Q 1081 -850 1212 -737 
Q 1344 -625 1503 -206 
L 1606 56 
L 191 3500 
L 800 3500 
L 1894 763 
L 2988 3500 
L 3597 3500 
L 2059 -325 
z
" transform="scale(0.015625)"/>
       <path id="DejaVuSans-70" d="M 1159 525 
L 1159 -1331 
L 581 -1331 
L 581 3500 
L 1159 3500 
L 1159 2969 
Q 1341 3281 1617 3432 
Q 1894 3584 2278 3584 
Q 2916 3584 3314 3078 
Q 3713 2572 3713 1747 
Q 3713 922 3314 415 
Q 2916 -91 2278 -91 
Q 1894 -91 1617 61 
Q 1341 213 1159 525 
z
M 3116 1747 
Q 3116 2381 2855 2742 
Q 2594 3103 2138 3103 
Q 1681 3103 1420 2742 
Q 1159 2381 1159 1747 
Q 1159 1113 1420 752 
Q 1681 391 2138 391 
Q 2594 391 2855 752 
Q 3116 1113 3116 1747 
z
" transform="scale(0.015625)"/>
      </defs>
      <use xlink:href="#DejaVuSans-74"/>
      <use xlink:href="#DejaVuSans-72" x="39.208984"/>
      <use xlink:href="#DejaVuSans-75" x="80.322266"/>
      <use xlink:href="#DejaVuSans-65" x="143.701172"/>
      <use xlink:href="#DejaVuSans-20" x="205.224609"/>
      <use xlink:href="#DejaVuSans-68" x="237.011719"/>
      <use xlink:href="#DejaVuSans-6f" x="300.390625"/>
      <use xlink:href="#DejaVuSans-6d" x="361.572266"/>
      <use xlink:href="#DejaVuSans-65" x="458.984375"/>
      <use xlink:href="#DejaVuSans-6f" x="520.507812"/>
      <use xlink:href="#DejaVuSans-74" x="581.689453"/>
      <use xlink:href="#DejaVuSans-79" x="620.898438"/>
      <use xlink:href="#DejaVuSans-70" x="680.078125"/>
      <use xlink:href="#DejaVuSans-69" x="743.554688"/>
      <use xlink:href="#DejaVuSans-63" x="771.337891"/>
     </g>
    </g>
    <g id="patch_10">
     <path d="M 295.087188 87.426688 
L 315.087188 87.426688 
L 315.087188 80.426688 
L 295.087188 80.426688 
z
" style="fill: #ff0000"/>
    </g>
    <g id="text_19">
     <!-- false -->
     <g transform="translate(323.087188 87.426688) scale(0.1 -0.1)">
      <defs>
       <path id="DejaVuSans-61" d="M 2194 1759 
Q 1497 1759 1228 1600 
Q 959 1441 959 1056 
Q 959 750 1161 570 
Q 1363 391 1709 391 
Q 2188 391 2477 730 
Q 2766 1069 2766 1631 
L 2766 1759 
L 2194 1759 
z
M 3341 1997 
L 3341 0 
L 2766 0 
L 2766 531 
Q 2569 213 2275 61 
Q 1981 -91 1556 -91 
Q 1019 -91 701 211 
Q 384 513 384 1019 
Q 384 1609 779 1909 
Q 1175 2209 1959 2209 
L 2766 2209 
L 2766 2266 
Q 2766 2663 2505 2880 
Q 2244 3097 1772 3097 
Q 1472 3097 1187 3025 
Q 903 2953 641 2809 
L 641 3341 
Q 956 3463 1253 3523 
Q 1550 3584 1831 3584 
Q 2591 3584 2966 3190 
Q 3341 2797 3341 1997 
z
" transform="scale(0.015625)"/>
      </defs>
      <use xlink:href="#DejaVuSans-66"/>
      <use xlink:href="#DejaVuSans-61" x="35.205078"/>
      <use xlink:href="#DejaVuSans-6c" x="96.484375"/>
      <use xlink:href="#DejaVuSans-73" x="124.267578"/>
      <use xlink:href="#DejaVuSans-65" x="176.367188"/>
     </g>
    </g>
   </g>
  </g>
 </g>
 <defs>
  <clipPath id="p08d14aa2ee">
   <rect x="57.6" y="41.472" width="357.12" height="266.112"/>
  </clipPath>
 </defs>
</svg>
