<?xml version="1.0" encoding="utf-8" standalone="no"?>
<!DOCTYPE svg PUBLIC "-//W3C//DTD SVG 1.1//EN"
  "http://www.w3.org/Graphics/SVG/1.1/DTD/svg11.dtd">
<svg xmlns:xlink="http://www.w3.org/1999/xlink" width="460.8pt" height="345.6pt" viewBox="0 0 460.8 345.6" xmlns="http://www.w3.org/2000/svg" version="1.1">
 <metadata>
  <rdf:RDF xmlns:dc="http://purl.org/dc/elements/1.1/" xmlns:cc="http://creativecommons.org/ns#" xmlns:rdf="http://www.w3.org/1999/02/22-rdf-syntax-ns#">
   <cc:Work>
    <dc:type rdf:resource="http://purl.org/dc/dcmitype/StillImage"/>
    <dc:date>2024-10-30T16:04:30.442521</dc:date>
    <dc:format>image/svg+xml</dc:format>
    <dc:creator>
     <cc:Agent>
      <dc:title>Matplotlib v3.9.0, https://matplotlib.org/</dc:title>
     </cc:Agent>
    </dc:creator>
   </cc:Work>
  </rdf:RDF>
 </metadata>
 <defs>
  <style type="text/css">*{stroke-linejoin: round; stroke-linecap: butt}</style>
 </defs>
 <g id="figure_1">
  <g id="patch_1">
   <path d="M 0 345.6 
L 460.8 345.6 
L 460.8 0 
L 0 0 
z
" style="fill: #ffffff"/>
  </g>
  <g id="axes_1">
   <g id="patch_2">
    <path d="M 57.6 307.584 
L 414.72 307.584 
L 414.72 41.472 
L 57.6 41.472 
z
" style="fill: #ffffff"/>
   </g>
   <g id="PolyCollection_1">
    <path d="M 73.832727 108.76469 
L 73.832727 307.584 
L 73.972125 307.584 
L 75.56056 307.584 
L 75.934575 307.584 
L 76.92349 307.584 
L 77.435936 307.584 
L 78.033212 307.584 
L 78.06812 307.584 
L 78.365896 307.584 
L 78.508165 307.584 
L 79.626164 307.584 
L 80.582755 307.584 
L 80.831524 307.584 
L 82.250719 307.584 
L 82.41056 307.584 
L 82.66899 307.584 
L 82.723741 307.584 
L 86.443658 307.584 
L 86.674255 307.584 
L 86.691749 307.584 
L 87.250644 307.584 
L 87.714788 307.584 
L 88.592138 307.584 
L 90.284697 307.584 
L 90.350962 307.584 
L 91.030299 307.584 
L 92.077124 307.584 
L 93.95592 307.584 
L 94.578705 307.584 
L 94.956036 307.584 
L 96.340688 307.584 
L 98.146666 307.584 
L 98.240659 307.584 
L 99.864917 307.584 
L 102.506652 307.584 
L 103.003772 307.584 
L 103.233795 307.584 
L 103.371913 307.584 
L 104.050232 307.584 
L 104.239785 307.584 
L 104.676854 307.584 
L 106.098242 307.584 
L 107.954872 307.584 
L 108.117533 307.584 
L 108.780447 307.584 
L 109.912284 307.584 
L 111.408605 307.584 
L 112.199977 307.584 
L 112.273083 307.584 
L 112.289532 307.584 
L 112.775948 307.584 
L 114.073056 307.584 
L 114.869388 307.584 
L 116.787375 307.584 
L 117.791798 307.584 
L 118.070384 307.584 
L 118.133569 307.584 
L 118.558627 307.584 
L 118.655493 307.584 
L 120.476875 307.584 
L 122.628278 307.584 
L 124.323031 307.584 
L 124.447572 307.584 
L 124.450444 307.584 
L 125.78776 307.584 
L 125.875488 307.584 
L 125.988541 307.584 
L 126.211775 307.584 
L 126.668687 307.584 
L 127.409929 307.584 
L 127.416195 307.584 
L 127.501834 307.584 
L 127.621675 307.584 
L 128.624793 307.584 
L 128.863171 307.584 
L 129.439141 307.584 
L 129.548278 307.584 
L 130.821888 307.584 
L 133.92184 307.584 
L 134.448203 307.584 
L 134.879789 307.584 
L 135.428084 307.584 
L 135.684999 307.584 
L 135.846876 307.584 
L 136.377939 307.584 
L 136.741641 307.584 
L 136.949471 307.584 
L 137.372441 307.584 
L 138.277649 307.584 
L 138.888084 307.584 
L 139.519667 307.584 
L 139.935587 307.584 
L 140.095376 307.584 
L 141.319378 307.584 
L 142.003441 307.584 
L 142.385942 307.584 
L 142.773664 307.584 
L 143.008648 307.584 
L 143.036846 307.584 
L 143.862159 307.584 
L 144.050929 307.584 
L 144.11072 307.584 
L 144.241266 307.584 
L 144.562149 307.584 
L 147.142005 307.584 
L 147.222161 307.584 
L 147.694477 307.584 
L 149.464163 307.584 
L 149.839092 307.584 
L 150.160758 307.584 
L 150.506706 307.584 
L 151.49938 307.584 
L 152.196498 307.584 
L 152.636439 307.584 
L 153.009018 307.584 
L 156.045525 307.584 
L 156.048136 307.584 
L 156.081817 307.584 
L 156.195131 307.584 
L 156.720189 307.584 
L 157.682576 307.584 
L 158.288311 307.584 
L 159.703433 307.584 
L 159.945988 307.584 
L 160.876783 307.584 
L 161.290354 307.584 
L 162.285117 307.584 
L 163.386667 307.584 
L 163.431053 307.584 
L 163.973864 307.584 
L 164.882989 307.584 
L 165.179329 307.584 
L 165.600471 307.584 
L 167.311934 307.584 
L 167.943256 307.584 
L 168.477712 307.584 
L 168.95499 307.584 
L 168.982404 307.584 
L 169.239581 307.584 
L 169.523911 307.584 
L 169.577696 307.584 
L 170.242176 307.584 
L 170.811358 307.584 
L 171.343204 307.584 
L 173.499307 307.584 
L 173.913661 307.584 
L 174.760123 307.584 
L 175.994831 307.584 
L 176.909699 307.584 
L 178.607323 307.584 
L 179.025594 307.584 
L 179.202354 307.584 
L 179.219847 307.584 
L 180.361605 307.584 
L 182.560005 307.584 
L 182.758958 307.584 
L 183.054775 307.584 
L 183.808811 307.584 
L 184.358672 307.584 
L 184.562063 307.584 
L 185.792593 307.584 
L 186.579526 307.584 
L 187.097012 307.584 
L 187.684209 307.584 
L 187.86854 307.584 
L 188.297516 307.584 
L 188.679494 307.584 
L 188.816829 307.584 
L 188.897507 307.584 
L 189.15651 307.584 
L 189.672952 307.584 
L 190.158584 307.584 
L 191.985449 307.584 
L 192.883608 307.584 
L 193.305011 307.584 
L 193.813359 307.584 
L 193.964792 307.584 
L 197.188242 307.584 
L 197.394505 307.584 
L 197.707555 307.584 
L 198.049848 307.584 
L 199.190562 307.584 
L 199.414318 307.584 
L 199.432072 307.584 
L 200.353729 307.584 
L 200.49733 307.584 
L 202.832021 307.584 
L 202.976144 307.584 
L 204.295967 307.584 
L 205.743204 307.584 
L 209.247328 307.584 
L 210.133999 307.584 
L 211.44625 307.584 
L 211.60865 307.584 
L 215.460027 307.584 
L 215.880648 307.584 
L 216.294479 307.584 
L 216.836508 307.584 
L 216.879588 307.584 
L 216.943033 307.584 
L 217.045904 307.584 
L 217.875395 307.584 
L 218.294188 307.584 
L 218.419773 307.584 
L 218.556325 307.584 
L 218.984778 307.584 
L 221.547402 307.584 
L 221.590744 307.584 
L 224.907926 307.584 
L 226.719647 307.584 
L 226.759595 307.584 
L 227.165332 307.584 
L 227.908663 307.584 
L 231.511481 307.584 
L 234.412742 307.584 
L 235.180354 307.584 
L 238.367251 307.584 
L 242.10897 307.584 
L 242.273719 307.584 
L 243.928263 307.584 
L 248.788503 307.584 
L 248.97179 307.584 
L 252.73309 307.584 
L 254.924441 307.584 
L 256.824673 307.584 
L 264.896352 307.584 
L 267.085614 307.584 
L 275.516556 307.584 
L 283.284323 307.584 
L 284.986647 307.584 
L 329.51913 307.584 
L 398.487273 307.584 
L 398.487273 306.491586 
L 398.487273 306.491586 
L 329.51913 305.399172 
L 284.986647 305.399172 
L 283.284323 304.306759 
L 275.516556 303.214345 
L 267.085614 302.121931 
L 264.896352 301.029517 
L 256.824673 299.937103 
L 254.924441 298.84469 
L 252.73309 297.752276 
L 248.97179 296.659862 
L 248.788503 295.567448 
L 243.928263 294.475034 
L 242.273719 293.382621 
L 242.10897 292.290207 
L 238.367251 291.197793 
L 235.180354 290.105379 
L 234.412742 289.012966 
L 231.511481 287.920552 
L 227.908663 286.828138 
L 227.165332 285.735724 
L 226.759595 284.64331 
L 226.719647 283.550897 
L 224.907926 282.458483 
L 221.590744 281.366069 
L 221.547402 280.273655 
L 218.984778 279.181241 
L 218.556325 278.088828 
L 218.419773 276.996414 
L 218.294188 275.904 
L 217.875395 274.811586 
L 217.045904 273.719172 
L 216.943033 272.626759 
L 216.879588 271.534345 
L 216.836508 270.441931 
L 216.294479 269.349517 
L 215.880648 268.257103 
L 215.460027 267.16469 
L 211.60865 266.072276 
L 211.44625 264.979862 
L 210.133999 263.887448 
L 209.247328 262.795034 
L 205.743204 261.702621 
L 204.295967 260.610207 
L 202.976144 259.517793 
L 202.832021 258.425379 
L 200.49733 257.332966 
L 200.353729 256.240552 
L 199.432072 255.148138 
L 199.414318 254.055724 
L 199.190562 252.96331 
L 198.049848 251.870897 
L 197.707555 250.778483 
L 197.394505 249.686069 
L 197.188242 248.593655 
L 193.964792 247.501241 
L 193.813359 247.501241 
L 193.305011 246.408828 
L 192.883608 245.316414 
L 191.985449 244.224 
L 190.158584 243.131586 
L 189.672952 242.039172 
L 189.15651 240.946759 
L 188.897507 239.854345 
L 188.816829 238.761931 
L 188.679494 237.669517 
L 188.297516 236.577103 
L 187.86854 235.48469 
L 187.684209 234.392276 
L 187.097012 233.299862 
L 186.579526 232.207448 
L 185.792593 231.115034 
L 184.562063 230.022621 
L 184.358672 228.930207 
L 183.808811 227.837793 
L 183.054775 226.745379 
L 182.758958 225.652966 
L 182.560005 225.652966 
L 180.361605 224.560552 
L 179.219847 223.468138 
L 179.202354 222.375724 
L 179.025594 221.28331 
L 178.607323 220.190897 
L 176.909699 219.098483 
L 175.994831 218.006069 
L 174.760123 216.913655 
L 173.913661 215.821241 
L 173.499307 214.728828 
L 171.343204 213.636414 
L 170.811358 212.544 
L 170.242176 211.451586 
L 169.577696 211.451586 
L 169.523911 210.359172 
L 169.239581 209.266759 
L 168.982404 208.174345 
L 168.95499 207.081931 
L 168.477712 205.989517 
L 167.943256 204.897103 
L 167.311934 203.80469 
L 165.600471 202.712276 
L 165.179329 201.619862 
L 164.882989 200.527448 
L 163.973864 199.435034 
L 163.431053 198.342621 
L 163.386667 198.342621 
L 162.285117 197.250207 
L 161.290354 196.157793 
L 160.876783 195.065379 
L 159.945988 193.972966 
L 159.703433 192.880552 
L 158.288311 191.788138 
L 157.682576 190.695724 
L 156.720189 189.60331 
L 156.195131 188.510897 
L 156.081817 188.510897 
L 156.048136 187.418483 
L 156.045525 186.326069 
L 153.009018 186.326069 
L 152.636439 185.233655 
L 152.196498 184.141241 
L 151.49938 183.048828 
L 150.506706 181.956414 
L 150.160758 180.864 
L 149.839092 179.771586 
L 149.464163 178.679172 
L 147.694477 177.586759 
L 147.222161 177.586759 
L 147.142005 176.494345 
L 144.562149 176.494345 
L 144.241266 175.401931 
L 144.11072 174.309517 
L 144.050929 173.217103 
L 143.862159 172.12469 
L 143.036846 172.12469 
L 143.008648 171.032276 
L 142.773664 169.939862 
L 142.385942 169.939862 
L 142.003441 168.847448 
L 141.319378 167.755034 
L 140.095376 166.662621 
L 139.935587 166.662621 
L 139.519667 166.662621 
L 138.888084 165.570207 
L 138.277649 164.477793 
L 137.372441 163.385379 
L 136.949471 162.292966 
L 136.741641 161.200552 
L 136.377939 160.108138 
L 135.846876 159.015724 
L 135.684999 157.92331 
L 135.428084 156.830897 
L 134.879789 155.738483 
L 134.448203 154.646069 
L 133.92184 154.646069 
L 130.821888 153.553655 
L 129.548278 152.461241 
L 129.439141 151.368828 
L 128.863171 150.276414 
L 128.624793 149.184 
L 127.621675 149.184 
L 127.501834 148.091586 
L 127.416195 146.999172 
L 127.409929 145.906759 
L 126.668687 144.814345 
L 126.211775 143.721931 
L 125.988541 143.721931 
L 125.875488 142.629517 
L 125.78776 141.537103 
L 124.450444 140.44469 
L 124.447572 139.352276 
L 124.323031 139.352276 
L 122.628278 138.259862 
L 120.476875 137.167448 
L 118.655493 137.167448 
L 118.558627 136.075034 
L 118.133569 134.982621 
L 118.070384 133.890207 
L 117.791798 132.797793 
L 116.787375 131.705379 
L 114.869388 130.612966 
L 114.073056 129.520552 
L 112.775948 128.428138 
L 112.289532 127.335724 
L 112.273083 126.24331 
L 112.199977 125.150897 
L 111.408605 124.058483 
L 109.912284 124.058483 
L 108.780447 122.966069 
L 108.117533 121.873655 
L 107.954872 120.781241 
L 106.098242 119.688828 
L 104.676854 119.688828 
L 104.239785 118.596414 
L 104.050232 118.596414 
L 103.371913 118.596414 
L 103.233795 118.596414 
L 103.003772 117.504 
L 102.506652 116.411586 
L 99.864917 116.411586 
L 98.240659 115.319172 
L 98.146666 115.319172 
L 96.340688 114.226759 
L 94.956036 114.226759 
L 94.578705 114.226759 
L 93.95592 113.134345 
L 92.077124 113.134345 
L 91.030299 113.134345 
L 90.350962 113.134345 
L 90.284697 113.134345 
L 88.592138 112.041931 
L 87.714788 110.949517 
L 87.250644 110.949517 
L 86.691749 110.949517 
L 86.674255 110.949517 
L 86.443658 110.949517 
L 82.723741 110.949517 
L 82.66899 110.949517 
L 82.41056 110.949517 
L 82.250719 110.949517 
L 80.831524 110.949517 
L 80.582755 110.949517 
L 79.626164 110.949517 
L 78.508165 109.857103 
L 78.365896 109.857103 
L 78.06812 109.857103 
L 78.033212 108.76469 
L 77.435936 108.76469 
L 76.92349 108.76469 
L 75.934575 108.76469 
L 75.56056 108.76469 
L 73.972125 108.76469 
L 73.832727 108.76469 
z
" clip-path="url(#pa6e655e532)" style="fill: #008000"/>
   </g>
   <g id="PolyCollection_2">
    <path d="M 73.832727 98.932966 
L 73.832727 108.76469 
L 73.972125 108.76469 
L 75.56056 108.76469 
L 75.934575 108.76469 
L 76.92349 108.76469 
L 77.435936 108.76469 
L 78.033212 108.76469 
L 78.06812 109.857103 
L 78.365896 109.857103 
L 78.508165 109.857103 
L 79.626164 110.949517 
L 80.582755 110.949517 
L 80.831524 110.949517 
L 82.250719 110.949517 
L 82.41056 110.949517 
L 82.66899 110.949517 
L 82.723741 110.949517 
L 86.443658 110.949517 
L 86.674255 110.949517 
L 86.691749 110.949517 
L 87.250644 110.949517 
L 87.714788 110.949517 
L 88.592138 112.041931 
L 90.284697 113.134345 
L 90.350962 113.134345 
L 91.030299 113.134345 
L 92.077124 113.134345 
L 93.95592 113.134345 
L 94.578705 114.226759 
L 94.956036 114.226759 
L 96.340688 114.226759 
L 98.146666 115.319172 
L 98.240659 115.319172 
L 99.864917 116.411586 
L 102.506652 116.411586 
L 103.003772 117.504 
L 103.233795 118.596414 
L 103.371913 118.596414 
L 104.050232 118.596414 
L 104.239785 118.596414 
L 104.676854 119.688828 
L 106.098242 119.688828 
L 107.954872 120.781241 
L 108.117533 121.873655 
L 108.780447 122.966069 
L 109.912284 124.058483 
L 111.408605 124.058483 
L 112.199977 125.150897 
L 112.273083 126.24331 
L 112.289532 127.335724 
L 112.775948 128.428138 
L 114.073056 129.520552 
L 114.869388 130.612966 
L 116.787375 131.705379 
L 117.791798 132.797793 
L 118.070384 133.890207 
L 118.133569 134.982621 
L 118.558627 136.075034 
L 118.655493 137.167448 
L 120.476875 137.167448 
L 122.628278 138.259862 
L 124.323031 139.352276 
L 124.447572 139.352276 
L 124.450444 140.44469 
L 125.78776 141.537103 
L 125.875488 142.629517 
L 125.988541 143.721931 
L 126.211775 143.721931 
L 126.668687 144.814345 
L 127.409929 145.906759 
L 127.416195 146.999172 
L 127.501834 148.091586 
L 127.621675 149.184 
L 128.624793 149.184 
L 128.863171 150.276414 
L 129.439141 151.368828 
L 129.548278 152.461241 
L 130.821888 153.553655 
L 133.92184 154.646069 
L 134.448203 154.646069 
L 134.879789 155.738483 
L 135.428084 156.830897 
L 135.684999 157.92331 
L 135.846876 159.015724 
L 136.377939 160.108138 
L 136.741641 161.200552 
L 136.949471 162.292966 
L 137.372441 163.385379 
L 138.277649 164.477793 
L 138.888084 165.570207 
L 139.519667 166.662621 
L 139.935587 166.662621 
L 140.095376 166.662621 
L 141.319378 167.755034 
L 142.003441 168.847448 
L 142.385942 169.939862 
L 142.773664 169.939862 
L 143.008648 171.032276 
L 143.036846 172.12469 
L 143.862159 172.12469 
L 144.050929 173.217103 
L 144.11072 174.309517 
L 144.241266 175.401931 
L 144.562149 176.494345 
L 147.142005 176.494345 
L 147.222161 177.586759 
L 147.694477 177.586759 
L 149.464163 178.679172 
L 149.839092 179.771586 
L 150.160758 180.864 
L 150.506706 181.956414 
L 151.49938 183.048828 
L 152.196498 184.141241 
L 152.636439 185.233655 
L 153.009018 186.326069 
L 156.045525 186.326069 
L 156.048136 187.418483 
L 156.081817 188.510897 
L 156.195131 188.510897 
L 156.720189 189.60331 
L 157.682576 190.695724 
L 158.288311 191.788138 
L 159.703433 192.880552 
L 159.945988 193.972966 
L 160.876783 195.065379 
L 161.290354 196.157793 
L 162.285117 197.250207 
L 163.386667 198.342621 
L 163.431053 198.342621 
L 163.973864 199.435034 
L 164.882989 200.527448 
L 165.179329 201.619862 
L 165.600471 202.712276 
L 167.311934 203.80469 
L 167.943256 204.897103 
L 168.477712 205.989517 
L 168.95499 207.081931 
L 168.982404 208.174345 
L 169.239581 209.266759 
L 169.523911 210.359172 
L 169.577696 211.451586 
L 170.242176 211.451586 
L 170.811358 212.544 
L 171.343204 213.636414 
L 173.499307 214.728828 
L 173.913661 215.821241 
L 174.760123 216.913655 
L 175.994831 218.006069 
L 176.909699 219.098483 
L 178.607323 220.190897 
L 179.025594 221.28331 
L 179.202354 222.375724 
L 179.219847 223.468138 
L 180.361605 224.560552 
L 182.560005 225.652966 
L 182.758958 225.652966 
L 183.054775 226.745379 
L 183.808811 227.837793 
L 184.358672 228.930207 
L 184.562063 230.022621 
L 185.792593 231.115034 
L 186.579526 232.207448 
L 187.097012 233.299862 
L 187.684209 234.392276 
L 187.86854 235.48469 
L 188.297516 236.577103 
L 188.679494 237.669517 
L 188.816829 238.761931 
L 188.897507 239.854345 
L 189.15651 240.946759 
L 189.672952 242.039172 
L 190.158584 243.131586 
L 191.985449 244.224 
L 192.883608 245.316414 
L 193.305011 246.408828 
L 193.813359 247.501241 
L 193.964792 247.501241 
L 197.188242 248.593655 
L 197.394505 249.686069 
L 197.707555 250.778483 
L 198.049848 251.870897 
L 199.190562 252.96331 
L 199.414318 254.055724 
L 199.432072 255.148138 
L 200.353729 256.240552 
L 200.49733 257.332966 
L 202.832021 258.425379 
L 202.976144 259.517793 
L 204.295967 260.610207 
L 205.743204 261.702621 
L 209.247328 262.795034 
L 210.133999 263.887448 
L 211.44625 264.979862 
L 211.60865 266.072276 
L 215.460027 267.16469 
L 215.880648 268.257103 
L 216.294479 269.349517 
L 216.836508 270.441931 
L 216.879588 271.534345 
L 216.943033 272.626759 
L 217.045904 273.719172 
L 217.875395 274.811586 
L 218.294188 275.904 
L 218.419773 276.996414 
L 218.556325 278.088828 
L 218.984778 279.181241 
L 221.547402 280.273655 
L 221.590744 281.366069 
L 224.907926 282.458483 
L 226.719647 283.550897 
L 226.759595 284.64331 
L 227.165332 285.735724 
L 227.908663 286.828138 
L 231.511481 287.920552 
L 234.412742 289.012966 
L 235.180354 290.105379 
L 238.367251 291.197793 
L 242.10897 292.290207 
L 242.273719 293.382621 
L 243.928263 294.475034 
L 248.788503 295.567448 
L 248.97179 296.659862 
L 252.73309 297.752276 
L 254.924441 298.84469 
L 256.824673 299.937103 
L 264.896352 301.029517 
L 267.085614 302.121931 
L 275.516556 303.214345 
L 283.284323 304.306759 
L 284.986647 305.399172 
L 329.51913 305.399172 
L 398.487273 306.491586 
L 398.487273 306.491586 
L 398.487273 306.491586 
L 329.51913 305.399172 
L 284.986647 304.306759 
L 283.284323 303.214345 
L 275.516556 302.121931 
L 267.085614 301.029517 
L 264.896352 299.937103 
L 256.824673 298.84469 
L 254.924441 297.752276 
L 252.73309 296.659862 
L 248.97179 295.567448 
L 248.788503 294.475034 
L 243.928263 293.382621 
L 242.273719 292.290207 
L 242.10897 291.197793 
L 238.367251 290.105379 
L 235.180354 289.012966 
L 234.412742 287.920552 
L 231.511481 286.828138 
L 227.908663 285.735724 
L 227.165332 284.64331 
L 226.759595 283.550897 
L 226.719647 282.458483 
L 224.907926 281.366069 
L 221.590744 280.273655 
L 221.547402 279.181241 
L 218.984778 278.088828 
L 218.556325 276.996414 
L 218.419773 275.904 
L 218.294188 274.811586 
L 217.875395 273.719172 
L 217.045904 272.626759 
L 216.943033 271.534345 
L 216.879588 270.441931 
L 216.836508 269.349517 
L 216.294479 268.257103 
L 215.880648 267.16469 
L 215.460027 266.072276 
L 211.60865 264.979862 
L 211.44625 263.887448 
L 210.133999 262.795034 
L 209.247328 261.702621 
L 205.743204 260.610207 
L 204.295967 259.517793 
L 202.976144 258.425379 
L 202.832021 257.332966 
L 200.49733 256.240552 
L 200.353729 255.148138 
L 199.432072 254.055724 
L 199.414318 252.96331 
L 199.190562 251.870897 
L 198.049848 250.778483 
L 197.707555 249.686069 
L 197.394505 248.593655 
L 197.188242 247.501241 
L 193.964792 246.408828 
L 193.813359 245.316414 
L 193.305011 244.224 
L 192.883608 243.131586 
L 191.985449 242.039172 
L 190.158584 240.946759 
L 189.672952 239.854345 
L 189.15651 238.761931 
L 188.897507 237.669517 
L 188.816829 236.577103 
L 188.679494 235.48469 
L 188.297516 234.392276 
L 187.86854 233.299862 
L 187.684209 232.207448 
L 187.097012 231.115034 
L 186.579526 230.022621 
L 185.792593 228.930207 
L 184.562063 227.837793 
L 184.358672 226.745379 
L 183.808811 225.652966 
L 183.054775 224.560552 
L 182.758958 223.468138 
L 182.560005 223.468138 
L 180.361605 222.375724 
L 179.219847 221.28331 
L 179.202354 220.190897 
L 179.025594 219.098483 
L 178.607323 218.006069 
L 176.909699 216.913655 
L 175.994831 215.821241 
L 174.760123 214.728828 
L 173.913661 213.636414 
L 173.499307 212.544 
L 171.343204 211.451586 
L 170.811358 210.359172 
L 170.242176 209.266759 
L 169.577696 208.174345 
L 169.523911 207.081931 
L 169.239581 205.989517 
L 168.982404 204.897103 
L 168.95499 203.80469 
L 168.477712 202.712276 
L 167.943256 201.619862 
L 167.311934 200.527448 
L 165.600471 199.435034 
L 165.179329 198.342621 
L 164.882989 197.250207 
L 163.973864 196.157793 
L 163.431053 195.065379 
L 163.386667 195.065379 
L 162.285117 193.972966 
L 161.290354 192.880552 
L 160.876783 191.788138 
L 159.945988 190.695724 
L 159.703433 189.60331 
L 158.288311 188.510897 
L 157.682576 187.418483 
L 156.720189 186.326069 
L 156.195131 185.233655 
L 156.081817 184.141241 
L 156.048136 183.048828 
L 156.045525 181.956414 
L 153.009018 180.864 
L 152.636439 179.771586 
L 152.196498 178.679172 
L 151.49938 177.586759 
L 150.506706 176.494345 
L 150.160758 175.401931 
L 149.839092 174.309517 
L 149.464163 173.217103 
L 147.694477 172.12469 
L 147.222161 172.12469 
L 147.142005 171.032276 
L 144.562149 171.032276 
L 144.241266 169.939862 
L 144.11072 168.847448 
L 144.050929 167.755034 
L 143.862159 166.662621 
L 143.036846 166.662621 
L 143.008648 165.570207 
L 142.773664 164.477793 
L 142.385942 163.385379 
L 142.003441 162.292966 
L 141.319378 161.200552 
L 140.095376 160.108138 
L 139.935587 160.108138 
L 139.519667 160.108138 
L 138.888084 159.015724 
L 138.277649 157.92331 
L 137.372441 156.830897 
L 136.949471 155.738483 
L 136.741641 154.646069 
L 136.377939 153.553655 
L 135.846876 152.461241 
L 135.684999 151.368828 
L 135.428084 150.276414 
L 134.879789 149.184 
L 134.448203 148.091586 
L 133.92184 148.091586 
L 130.821888 146.999172 
L 129.548278 145.906759 
L 129.439141 144.814345 
L 128.863171 143.721931 
L 128.624793 142.629517 
L 127.621675 142.629517 
L 127.501834 141.537103 
L 127.416195 140.44469 
L 127.409929 139.352276 
L 126.668687 138.259862 
L 126.211775 137.167448 
L 125.988541 137.167448 
L 125.875488 136.075034 
L 125.78776 134.982621 
L 124.450444 133.890207 
L 124.447572 132.797793 
L 124.323031 132.797793 
L 122.628278 131.705379 
L 120.476875 130.612966 
L 118.655493 130.612966 
L 118.558627 129.520552 
L 118.133569 128.428138 
L 118.070384 127.335724 
L 117.791798 126.24331 
L 116.787375 125.150897 
L 114.869388 124.058483 
L 114.073056 122.966069 
L 112.775948 121.873655 
L 112.289532 120.781241 
L 112.273083 119.688828 
L 112.199977 118.596414 
L 111.408605 117.504 
L 109.912284 117.504 
L 108.780447 116.411586 
L 108.117533 115.319172 
L 107.954872 114.226759 
L 106.098242 113.134345 
L 104.676854 113.134345 
L 104.239785 112.041931 
L 104.050232 112.041931 
L 103.371913 112.041931 
L 103.233795 112.041931 
L 103.003772 110.949517 
L 102.506652 109.857103 
L 99.864917 109.857103 
L 98.240659 108.76469 
L 98.146666 108.76469 
L 96.340688 107.672276 
L 94.956036 107.672276 
L 94.578705 107.672276 
L 93.95592 106.579862 
L 92.077124 105.487448 
L 91.030299 105.487448 
L 90.350962 105.487448 
L 90.284697 105.487448 
L 88.592138 104.395034 
L 87.714788 103.302621 
L 87.250644 103.302621 
L 86.691749 103.302621 
L 86.674255 103.302621 
L 86.443658 103.302621 
L 82.723741 103.302621 
L 82.66899 103.302621 
L 82.41056 103.302621 
L 82.250719 103.302621 
L 80.831524 103.302621 
L 80.582755 103.302621 
L 79.626164 103.302621 
L 78.508165 102.210207 
L 78.365896 102.210207 
L 78.06812 102.210207 
L 78.033212 101.117793 
L 77.435936 101.117793 
L 76.92349 101.117793 
L 75.934575 101.117793 
L 75.56056 100.025379 
L 73.972125 100.025379 
L 73.832727 98.932966 
z
" clip-path="url(#pa6e655e532)" style="fill: #7cfc00"/>
   </g>
   <g id="PolyCollection_3">
    <path d="M 73.832727 54.144 
L 73.832727 98.932966 
L 73.972125 100.025379 
L 75.56056 100.025379 
L 75.934575 101.117793 
L 76.92349 101.117793 
L 77.435936 101.117793 
L 78.033212 101.117793 
L 78.06812 102.210207 
L 78.365896 102.210207 
L 78.508165 102.210207 
L 79.626164 103.302621 
L 80.582755 103.302621 
L 80.831524 103.302621 
L 82.250719 103.302621 
L 82.41056 103.302621 
L 82.66899 103.302621 
L 82.723741 103.302621 
L 86.443658 103.302621 
L 86.674255 103.302621 
L 86.691749 103.302621 
L 87.250644 103.302621 
L 87.714788 103.302621 
L 88.592138 104.395034 
L 90.284697 105.487448 
L 90.350962 105.487448 
L 91.030299 105.487448 
L 92.077124 105.487448 
L 93.95592 106.579862 
L 94.578705 107.672276 
L 94.956036 107.672276 
L 96.340688 107.672276 
L 98.146666 108.76469 
L 98.240659 108.76469 
L 99.864917 109.857103 
L 102.506652 109.857103 
L 103.003772 110.949517 
L 103.233795 112.041931 
L 103.371913 112.041931 
L 104.050232 112.041931 
L 104.239785 112.041931 
L 104.676854 113.134345 
L 106.098242 113.134345 
L 107.954872 114.226759 
L 108.117533 115.319172 
L 108.780447 116.411586 
L 109.912284 117.504 
L 111.408605 117.504 
L 112.199977 118.596414 
L 112.273083 119.688828 
L 112.289532 120.781241 
L 112.775948 121.873655 
L 114.073056 122.966069 
L 114.869388 124.058483 
L 116.787375 125.150897 
L 117.791798 126.24331 
L 118.070384 127.335724 
L 118.133569 128.428138 
L 118.558627 129.520552 
L 118.655493 130.612966 
L 120.476875 130.612966 
L 122.628278 131.705379 
L 124.323031 132.797793 
L 124.447572 132.797793 
L 124.450444 133.890207 
L 125.78776 134.982621 
L 125.875488 136.075034 
L 125.988541 137.167448 
L 126.211775 137.167448 
L 126.668687 138.259862 
L 127.409929 139.352276 
L 127.416195 140.44469 
L 127.501834 141.537103 
L 127.621675 142.629517 
L 128.624793 142.629517 
L 128.863171 143.721931 
L 129.439141 144.814345 
L 129.548278 145.906759 
L 130.821888 146.999172 
L 133.92184 148.091586 
L 134.448203 148.091586 
L 134.879789 149.184 
L 135.428084 150.276414 
L 135.684999 151.368828 
L 135.846876 152.461241 
L 136.377939 153.553655 
L 136.741641 154.646069 
L 136.949471 155.738483 
L 137.372441 156.830897 
L 138.277649 157.92331 
L 138.888084 159.015724 
L 139.519667 160.108138 
L 139.935587 160.108138 
L 140.095376 160.108138 
L 141.319378 161.200552 
L 142.003441 162.292966 
L 142.385942 163.385379 
L 142.773664 164.477793 
L 143.008648 165.570207 
L 143.036846 166.662621 
L 143.862159 166.662621 
L 144.050929 167.755034 
L 144.11072 168.847448 
L 144.241266 169.939862 
L 144.562149 171.032276 
L 147.142005 171.032276 
L 147.222161 172.12469 
L 147.694477 172.12469 
L 149.464163 173.217103 
L 149.839092 174.309517 
L 150.160758 175.401931 
L 150.506706 176.494345 
L 151.49938 177.586759 
L 152.196498 178.679172 
L 152.636439 179.771586 
L 153.009018 180.864 
L 156.045525 181.956414 
L 156.048136 183.048828 
L 156.081817 184.141241 
L 156.195131 185.233655 
L 156.720189 186.326069 
L 157.682576 187.418483 
L 158.288311 188.510897 
L 159.703433 189.60331 
L 159.945988 190.695724 
L 160.876783 191.788138 
L 161.290354 192.880552 
L 162.285117 193.972966 
L 163.386667 195.065379 
L 163.431053 195.065379 
L 163.973864 196.157793 
L 164.882989 197.250207 
L 165.179329 198.342621 
L 165.600471 199.435034 
L 167.311934 200.527448 
L 167.943256 201.619862 
L 168.477712 202.712276 
L 168.95499 203.80469 
L 168.982404 204.897103 
L 169.239581 205.989517 
L 169.523911 207.081931 
L 169.577696 208.174345 
L 170.242176 209.266759 
L 170.811358 210.359172 
L 171.343204 211.451586 
L 173.499307 212.544 
L 173.913661 213.636414 
L 174.760123 214.728828 
L 175.994831 215.821241 
L 176.909699 216.913655 
L 178.607323 218.006069 
L 179.025594 219.098483 
L 179.202354 220.190897 
L 179.219847 221.28331 
L 180.361605 222.375724 
L 182.560005 223.468138 
L 182.758958 223.468138 
L 183.054775 224.560552 
L 183.808811 225.652966 
L 184.358672 226.745379 
L 184.562063 227.837793 
L 185.792593 228.930207 
L 186.579526 230.022621 
L 187.097012 231.115034 
L 187.684209 232.207448 
L 187.86854 233.299862 
L 188.297516 234.392276 
L 188.679494 235.48469 
L 188.816829 236.577103 
L 188.897507 237.669517 
L 189.15651 238.761931 
L 189.672952 239.854345 
L 190.158584 240.946759 
L 191.985449 242.039172 
L 192.883608 243.131586 
L 193.305011 244.224 
L 193.813359 245.316414 
L 193.964792 246.408828 
L 197.188242 247.501241 
L 197.394505 248.593655 
L 197.707555 249.686069 
L 198.049848 250.778483 
L 199.190562 251.870897 
L 199.414318 252.96331 
L 199.432072 254.055724 
L 200.353729 255.148138 
L 200.49733 256.240552 
L 202.832021 257.332966 
L 202.976144 258.425379 
L 204.295967 259.517793 
L 205.743204 260.610207 
L 209.247328 261.702621 
L 210.133999 262.795034 
L 211.44625 263.887448 
L 211.60865 264.979862 
L 215.460027 266.072276 
L 215.880648 267.16469 
L 216.294479 268.257103 
L 216.836508 269.349517 
L 216.879588 270.441931 
L 216.943033 271.534345 
L 217.045904 272.626759 
L 217.875395 273.719172 
L 218.294188 274.811586 
L 218.419773 275.904 
L 218.556325 276.996414 
L 218.984778 278.088828 
L 221.547402 279.181241 
L 221.590744 280.273655 
L 224.907926 281.366069 
L 226.719647 282.458483 
L 226.759595 283.550897 
L 227.165332 284.64331 
L 227.908663 285.735724 
L 231.511481 286.828138 
L 234.412742 287.920552 
L 235.180354 289.012966 
L 238.367251 290.105379 
L 242.10897 291.197793 
L 242.273719 292.290207 
L 243.928263 293.382621 
L 248.788503 294.475034 
L 248.97179 295.567448 
L 252.73309 296.659862 
L 254.924441 297.752276 
L 256.824673 298.84469 
L 264.896352 299.937103 
L 267.085614 301.029517 
L 275.516556 302.121931 
L 283.284323 303.214345 
L 284.986647 304.306759 
L 329.51913 305.399172 
L 398.487273 306.491586 
L 398.487273 306.491586 
L 398.487273 306.491586 
L 329.51913 305.399172 
L 284.986647 304.306759 
L 283.284323 303.214345 
L 275.516556 302.121931 
L 267.085614 301.029517 
L 264.896352 299.937103 
L 256.824673 298.84469 
L 254.924441 297.752276 
L 252.73309 296.659862 
L 248.97179 295.567448 
L 248.788503 294.475034 
L 243.928263 293.382621 
L 242.273719 292.290207 
L 242.10897 291.197793 
L 238.367251 290.105379 
L 235.180354 289.012966 
L 234.412742 287.920552 
L 231.511481 286.828138 
L 227.908663 285.735724 
L 227.165332 284.64331 
L 226.759595 283.550897 
L 226.719647 282.458483 
L 224.907926 281.366069 
L 221.590744 280.273655 
L 221.547402 279.181241 
L 218.984778 278.088828 
L 218.556325 276.996414 
L 218.419773 275.904 
L 218.294188 274.811586 
L 217.875395 273.719172 
L 217.045904 272.626759 
L 216.943033 271.534345 
L 216.879588 270.441931 
L 216.836508 269.349517 
L 216.294479 268.257103 
L 215.880648 267.16469 
L 215.460027 266.072276 
L 211.60865 264.979862 
L 211.44625 263.887448 
L 210.133999 262.795034 
L 209.247328 261.702621 
L 205.743204 260.610207 
L 204.295967 259.517793 
L 202.976144 258.425379 
L 202.832021 257.332966 
L 200.49733 256.240552 
L 200.353729 255.148138 
L 199.432072 254.055724 
L 199.414318 252.96331 
L 199.190562 251.870897 
L 198.049848 250.778483 
L 197.707555 249.686069 
L 197.394505 248.593655 
L 197.188242 247.501241 
L 193.964792 246.408828 
L 193.813359 245.316414 
L 193.305011 244.224 
L 192.883608 243.131586 
L 191.985449 242.039172 
L 190.158584 240.946759 
L 189.672952 239.854345 
L 189.15651 238.761931 
L 188.897507 237.669517 
L 188.816829 236.577103 
L 188.679494 235.48469 
L 188.297516 234.392276 
L 187.86854 233.299862 
L 187.684209 232.207448 
L 187.097012 231.115034 
L 186.579526 230.022621 
L 185.792593 228.930207 
L 184.562063 227.837793 
L 184.358672 226.745379 
L 183.808811 225.652966 
L 183.054775 224.560552 
L 182.758958 223.468138 
L 182.560005 222.375724 
L 180.361605 221.28331 
L 179.219847 220.190897 
L 179.202354 219.098483 
L 179.025594 218.006069 
L 178.607323 216.913655 
L 176.909699 215.821241 
L 175.994831 214.728828 
L 174.760123 213.636414 
L 173.913661 212.544 
L 173.499307 211.451586 
L 171.343204 210.359172 
L 170.811358 209.266759 
L 170.242176 208.174345 
L 169.577696 207.081931 
L 169.523911 205.989517 
L 169.239581 204.897103 
L 168.982404 203.80469 
L 168.95499 202.712276 
L 168.477712 201.619862 
L 167.943256 200.527448 
L 167.311934 199.435034 
L 165.600471 198.342621 
L 165.179329 197.250207 
L 164.882989 196.157793 
L 163.973864 195.065379 
L 163.431053 193.972966 
L 163.386667 192.880552 
L 162.285117 191.788138 
L 161.290354 190.695724 
L 160.876783 189.60331 
L 159.945988 188.510897 
L 159.703433 187.418483 
L 158.288311 186.326069 
L 157.682576 185.233655 
L 156.720189 184.141241 
L 156.195131 183.048828 
L 156.081817 181.956414 
L 156.048136 180.864 
L 156.045525 179.771586 
L 153.009018 178.679172 
L 152.636439 177.586759 
L 152.196498 176.494345 
L 151.49938 175.401931 
L 150.506706 174.309517 
L 150.160758 173.217103 
L 149.839092 172.12469 
L 149.464163 171.032276 
L 147.694477 169.939862 
L 147.222161 168.847448 
L 147.142005 167.755034 
L 144.562149 166.662621 
L 144.241266 165.570207 
L 144.11072 164.477793 
L 144.050929 163.385379 
L 143.862159 162.292966 
L 143.036846 161.200552 
L 143.008648 160.108138 
L 142.773664 159.015724 
L 142.385942 157.92331 
L 142.003441 156.830897 
L 141.319378 155.738483 
L 140.095376 154.646069 
L 139.935587 153.553655 
L 139.519667 152.461241 
L 138.888084 151.368828 
L 138.277649 150.276414 
L 137.372441 149.184 
L 136.949471 148.091586 
L 136.741641 146.999172 
L 136.377939 145.906759 
L 135.846876 144.814345 
L 135.684999 143.721931 
L 135.428084 142.629517 
L 134.879789 141.537103 
L 134.448203 140.44469 
L 133.92184 139.352276 
L 130.821888 138.259862 
L 129.548278 137.167448 
L 129.439141 136.075034 
L 128.863171 134.982621 
L 128.624793 133.890207 
L 127.621675 132.797793 
L 127.501834 131.705379 
L 127.416195 130.612966 
L 127.409929 129.520552 
L 126.668687 128.428138 
L 126.211775 127.335724 
L 125.988541 126.24331 
L 125.875488 125.150897 
L 125.78776 124.058483 
L 124.450444 122.966069 
L 124.447572 121.873655 
L 124.323031 120.781241 
L 122.628278 119.688828 
L 120.476875 118.596414 
L 118.655493 117.504 
L 118.558627 116.411586 
L 118.133569 115.319172 
L 118.070384 114.226759 
L 117.791798 113.134345 
L 116.787375 112.041931 
L 114.869388 110.949517 
L 114.073056 109.857103 
L 112.775948 108.76469 
L 112.289532 107.672276 
L 112.273083 106.579862 
L 112.199977 105.487448 
L 111.408605 104.395034 
L 109.912284 103.302621 
L 108.780447 102.210207 
L 108.117533 101.117793 
L 107.954872 100.025379 
L 106.098242 98.932966 
L 104.676854 97.840552 
L 104.239785 96.748138 
L 104.050232 95.655724 
L 103.371913 94.56331 
L 103.233795 93.470897 
L 103.003772 92.378483 
L 102.506652 91.286069 
L 99.864917 90.193655 
L 98.240659 89.101241 
L 98.146666 88.008828 
L 96.340688 86.916414 
L 94.956036 85.824 
L 94.578705 84.731586 
L 93.95592 83.639172 
L 92.077124 82.546759 
L 91.030299 81.454345 
L 90.350962 80.361931 
L 90.284697 79.269517 
L 88.592138 78.177103 
L 87.714788 77.08469 
L 87.250644 75.992276 
L 86.691749 74.899862 
L 86.674255 73.807448 
L 86.443658 72.715034 
L 82.723741 71.622621 
L 82.66899 70.530207 
L 82.41056 69.437793 
L 82.250719 68.345379 
L 80.831524 67.252966 
L 80.582755 66.160552 
L 79.626164 65.068138 
L 78.508165 63.975724 
L 78.365896 62.88331 
L 78.06812 61.790897 
L 78.033212 60.698483 
L 77.435936 59.606069 
L 76.92349 58.513655 
L 75.934575 57.421241 
L 75.56056 56.328828 
L 73.972125 55.236414 
L 73.832727 54.144 
z
" clip-path="url(#pa6e655e532)" style="fill: #ff0000"/>
   </g>
   <g id="matplotlib.axis_1">
    <g id="xtick_1">
     <g id="line2d_1">
      <defs>
       <path id="m7fb3024848" d="M 0 0 
L 0 3.5 
" style="stroke: #000000; stroke-width: 0.8"/>
      </defs>
      <g>
       <use xlink:href="#m7fb3024848" x="69.398278" y="307.584" style="stroke: #000000; stroke-width: 0.8"/>
      </g>
     </g>
     <g id="text_1">
      <!-- 0 -->
      <g transform="translate(66.217028 322.182437) scale(0.1 -0.1)">
       <defs>
        <path id="DejaVuSans-30" d="M 2034 4250 
Q 1547 4250 1301 3770 
Q 1056 3291 1056 2328 
Q 1056 1369 1301 889 
Q 1547 409 2034 409 
Q 2525 409 2770 889 
Q 3016 1369 3016 2328 
Q 3016 3291 2770 3770 
Q 2525 4250 2034 4250 
z
M 2034 4750 
Q 2819 4750 3233 4129 
Q 3647 3509 3647 2328 
Q 3647 1150 3233 529 
Q 2819 -91 2034 -91 
Q 1250 -91 836 529 
Q 422 1150 422 2328 
Q 422 3509 836 4129 
Q 1250 4750 2034 4750 
z
" transform="scale(0.015625)"/>
       </defs>
       <use xlink:href="#DejaVuSans-30"/>
      </g>
     </g>
    </g>
    <g id="xtick_2">
     <g id="line2d_2">
      <g>
       <use xlink:href="#m7fb3024848" x="121.616805" y="307.584" style="stroke: #000000; stroke-width: 0.8"/>
      </g>
     </g>
     <g id="text_2">
      <!-- 2 -->
      <g transform="translate(118.435555 322.182437) scale(0.1 -0.1)">
       <defs>
        <path id="DejaVuSans-32" d="M 1228 531 
L 3431 531 
L 3431 0 
L 469 0 
L 469 531 
Q 828 903 1448 1529 
Q 2069 2156 2228 2338 
Q 2531 2678 2651 2914 
Q 2772 3150 2772 3378 
Q 2772 3750 2511 3984 
Q 2250 4219 1831 4219 
Q 1534 4219 1204 4116 
Q 875 4013 500 3803 
L 500 4441 
Q 881 4594 1212 4672 
Q 1544 4750 1819 4750 
Q 2544 4750 2975 4387 
Q 3406 4025 3406 3419 
Q 3406 3131 3298 2873 
Q 3191 2616 2906 2266 
Q 2828 2175 2409 1742 
Q 1991 1309 1228 531 
z
" transform="scale(0.015625)"/>
       </defs>
       <use xlink:href="#DejaVuSans-32"/>
      </g>
     </g>
    </g>
    <g id="xtick_3">
     <g id="line2d_3">
      <g>
       <use xlink:href="#m7fb3024848" x="173.835333" y="307.584" style="stroke: #000000; stroke-width: 0.8"/>
      </g>
     </g>
     <g id="text_3">
      <!-- 4 -->
      <g transform="translate(170.654083 322.182437) scale(0.1 -0.1)">
       <defs>
        <path id="DejaVuSans-34" d="M 2419 4116 
L 825 1625 
L 2419 1625 
L 2419 4116 
z
M 2253 4666 
L 3047 4666 
L 3047 1625 
L 3713 1625 
L 3713 1100 
L 3047 1100 
L 3047 0 
L 2419 0 
L 2419 1100 
L 313 1100 
L 313 1709 
L 2253 4666 
z
" transform="scale(0.015625)"/>
       </defs>
       <use xlink:href="#DejaVuSans-34"/>
      </g>
     </g>
    </g>
    <g id="xtick_4">
     <g id="line2d_4">
      <g>
       <use xlink:href="#m7fb3024848" x="226.053861" y="307.584" style="stroke: #000000; stroke-width: 0.8"/>
      </g>
     </g>
     <g id="text_4">
      <!-- 6 -->
      <g transform="translate(222.872611 322.182437) scale(0.1 -0.1)">
       <defs>
        <path id="DejaVuSans-36" d="M 2113 2584 
Q 1688 2584 1439 2293 
Q 1191 2003 1191 1497 
Q 1191 994 1439 701 
Q 1688 409 2113 409 
Q 2538 409 2786 701 
Q 3034 994 3034 1497 
Q 3034 2003 2786 2293 
Q 2538 2584 2113 2584 
z
M 3366 4563 
L 3366 3988 
Q 3128 4100 2886 4159 
Q 2644 4219 2406 4219 
Q 1781 4219 1451 3797 
Q 1122 3375 1075 2522 
Q 1259 2794 1537 2939 
Q 1816 3084 2150 3084 
Q 2853 3084 3261 2657 
Q 3669 2231 3669 1497 
Q 3669 778 3244 343 
Q 2819 -91 2113 -91 
Q 1303 -91 875 529 
Q 447 1150 447 2328 
Q 447 3434 972 4092 
Q 1497 4750 2381 4750 
Q 2619 4750 2861 4703 
Q 3103 4656 3366 4563 
z
" transform="scale(0.015625)"/>
       </defs>
       <use xlink:href="#DejaVuSans-36"/>
      </g>
     </g>
    </g>
    <g id="xtick_5">
     <g id="line2d_5">
      <g>
       <use xlink:href="#m7fb3024848" x="278.272389" y="307.584" style="stroke: #000000; stroke-width: 0.8"/>
      </g>
     </g>
     <g id="text_5">
      <!-- 8 -->
      <g transform="translate(275.091139 322.182437) scale(0.1 -0.1)">
       <defs>
        <path id="DejaVuSans-38" d="M 2034 2216 
Q 1584 2216 1326 1975 
Q 1069 1734 1069 1313 
Q 1069 891 1326 650 
Q 1584 409 2034 409 
Q 2484 409 2743 651 
Q 3003 894 3003 1313 
Q 3003 1734 2745 1975 
Q 2488 2216 2034 2216 
z
M 1403 2484 
Q 997 2584 770 2862 
Q 544 3141 544 3541 
Q 544 4100 942 4425 
Q 1341 4750 2034 4750 
Q 2731 4750 3128 4425 
Q 3525 4100 3525 3541 
Q 3525 3141 3298 2862 
Q 3072 2584 2669 2484 
Q 3125 2378 3379 2068 
Q 3634 1759 3634 1313 
Q 3634 634 3220 271 
Q 2806 -91 2034 -91 
Q 1263 -91 848 271 
Q 434 634 434 1313 
Q 434 1759 690 2068 
Q 947 2378 1403 2484 
z
M 1172 3481 
Q 1172 3119 1398 2916 
Q 1625 2713 2034 2713 
Q 2441 2713 2670 2916 
Q 2900 3119 2900 3481 
Q 2900 3844 2670 4047 
Q 2441 4250 2034 4250 
Q 1625 4250 1398 4047 
Q 1172 3844 1172 3481 
z
" transform="scale(0.015625)"/>
       </defs>
       <use xlink:href="#DejaVuSans-38"/>
      </g>
     </g>
    </g>
    <g id="xtick_6">
     <g id="line2d_6">
      <g>
       <use xlink:href="#m7fb3024848" x="330.490917" y="307.584" style="stroke: #000000; stroke-width: 0.8"/>
      </g>
     </g>
     <g id="text_6">
      <!-- 10 -->
      <g transform="translate(324.128417 322.182437) scale(0.1 -0.1)">
       <defs>
        <path id="DejaVuSans-31" d="M 794 531 
L 1825 531 
L 1825 4091 
L 703 3866 
L 703 4441 
L 1819 4666 
L 2450 4666 
L 2450 531 
L 3481 531 
L 3481 0 
L 794 0 
L 794 531 
z
" transform="scale(0.015625)"/>
       </defs>
       <use xlink:href="#DejaVuSans-31"/>
       <use xlink:href="#DejaVuSans-30" x="63.623047"/>
      </g>
     </g>
    </g>
    <g id="xtick_7">
     <g id="line2d_7">
      <g>
       <use xlink:href="#m7fb3024848" x="382.709445" y="307.584" style="stroke: #000000; stroke-width: 0.8"/>
      </g>
     </g>
     <g id="text_7">
      <!-- 12 -->
      <g transform="translate(376.346945 322.182437) scale(0.1 -0.1)">
       <use xlink:href="#DejaVuSans-31"/>
       <use xlink:href="#DejaVuSans-32" x="63.623047"/>
      </g>
     </g>
    </g>
    <g id="text_8">
     <!-- Score -->
     <g transform="translate(222.157656 335.860562) scale(0.1 -0.1)">
      <defs>
       <path id="DejaVuSans-53" d="M 3425 4513 
L 3425 3897 
Q 3066 4069 2747 4153 
Q 2428 4238 2131 4238 
Q 1616 4238 1336 4038 
Q 1056 3838 1056 3469 
Q 1056 3159 1242 3001 
Q 1428 2844 1947 2747 
L 2328 2669 
Q 3034 2534 3370 2195 
Q 3706 1856 3706 1288 
Q 3706 609 3251 259 
Q 2797 -91 1919 -91 
Q 1588 -91 1214 -16 
Q 841 59 441 206 
L 441 856 
Q 825 641 1194 531 
Q 1563 422 1919 422 
Q 2459 422 2753 634 
Q 3047 847 3047 1241 
Q 3047 1584 2836 1778 
Q 2625 1972 2144 2069 
L 1759 2144 
Q 1053 2284 737 2584 
Q 422 2884 422 3419 
Q 422 4038 858 4394 
Q 1294 4750 2059 4750 
Q 2388 4750 2728 4690 
Q 3069 4631 3425 4513 
z
" transform="scale(0.015625)"/>
       <path id="DejaVuSans-63" d="M 3122 3366 
L 3122 2828 
Q 2878 2963 2633 3030 
Q 2388 3097 2138 3097 
Q 1578 3097 1268 2742 
Q 959 2388 959 1747 
Q 959 1106 1268 751 
Q 1578 397 2138 397 
Q 2388 397 2633 464 
Q 2878 531 3122 666 
L 3122 134 
Q 2881 22 2623 -34 
Q 2366 -91 2075 -91 
Q 1284 -91 818 406 
Q 353 903 353 1747 
Q 353 2603 823 3093 
Q 1294 3584 2113 3584 
Q 2378 3584 2631 3529 
Q 2884 3475 3122 3366 
z
" transform="scale(0.015625)"/>
       <path id="DejaVuSans-6f" d="M 1959 3097 
Q 1497 3097 1228 2736 
Q 959 2375 959 1747 
Q 959 1119 1226 758 
Q 1494 397 1959 397 
Q 2419 397 2687 759 
Q 2956 1122 2956 1747 
Q 2956 2369 2687 2733 
Q 2419 3097 1959 3097 
z
M 1959 3584 
Q 2709 3584 3137 3096 
Q 3566 2609 3566 1747 
Q 3566 888 3137 398 
Q 2709 -91 1959 -91 
Q 1206 -91 779 398 
Q 353 888 353 1747 
Q 353 2609 779 3096 
Q 1206 3584 1959 3584 
z
" transform="scale(0.015625)"/>
       <path id="DejaVuSans-72" d="M 2631 2963 
Q 2534 3019 2420 3045 
Q 2306 3072 2169 3072 
Q 1681 3072 1420 2755 
Q 1159 2438 1159 1844 
L 1159 0 
L 581 0 
L 581 3500 
L 1159 3500 
L 1159 2956 
Q 1341 3275 1631 3429 
Q 1922 3584 2338 3584 
Q 2397 3584 2469 3576 
Q 2541 3569 2628 3553 
L 2631 2963 
z
" transform="scale(0.015625)"/>
       <path id="DejaVuSans-65" d="M 3597 1894 
L 3597 1613 
L 953 1613 
Q 991 1019 1311 708 
Q 1631 397 2203 397 
Q 2534 397 2845 478 
Q 3156 559 3463 722 
L 3463 178 
Q 3153 47 2828 -22 
Q 2503 -91 2169 -91 
Q 1331 -91 842 396 
Q 353 884 353 1716 
Q 353 2575 817 3079 
Q 1281 3584 2069 3584 
Q 2775 3584 3186 3129 
Q 3597 2675 3597 1894 
z
M 3022 2063 
Q 3016 2534 2758 2815 
Q 2500 3097 2075 3097 
Q 1594 3097 1305 2825 
Q 1016 2553 972 2059 
L 3022 2063 
z
" transform="scale(0.015625)"/>
      </defs>
      <use xlink:href="#DejaVuSans-53"/>
      <use xlink:href="#DejaVuSans-63" x="63.476562"/>
      <use xlink:href="#DejaVuSans-6f" x="118.457031"/>
      <use xlink:href="#DejaVuSans-72" x="179.638672"/>
      <use xlink:href="#DejaVuSans-65" x="218.501953"/>
     </g>
    </g>
   </g>
   <g id="matplotlib.axis_2">
    <g id="ytick_1">
     <g id="line2d_8">
      <defs>
       <path id="m8b23562bad" d="M 0 0 
L -3.5 0 
" style="stroke: #000000; stroke-width: 0.8"/>
      </defs>
      <g>
       <use xlink:href="#m8b23562bad" x="57.6" y="307.584" style="stroke: #000000; stroke-width: 0.8"/>
      </g>
     </g>
     <g id="text_9">
      <!-- 0 -->
      <g transform="translate(44.2375 311.383219) scale(0.1 -0.1)">
       <use xlink:href="#DejaVuSans-30"/>
      </g>
     </g>
    </g>
    <g id="ytick_2">
     <g id="line2d_9">
      <g>
       <use xlink:href="#m8b23562bad" x="57.6" y="252.96331" style="stroke: #000000; stroke-width: 0.8"/>
      </g>
     </g>
     <g id="text_10">
      <!-- 50 -->
      <g transform="translate(37.875 256.762529) scale(0.1 -0.1)">
       <defs>
        <path id="DejaVuSans-35" d="M 691 4666 
L 3169 4666 
L 3169 4134 
L 1269 4134 
L 1269 2991 
Q 1406 3038 1543 3061 
Q 1681 3084 1819 3084 
Q 2600 3084 3056 2656 
Q 3513 2228 3513 1497 
Q 3513 744 3044 326 
Q 2575 -91 1722 -91 
Q 1428 -91 1123 -41 
Q 819 9 494 109 
L 494 744 
Q 775 591 1075 516 
Q 1375 441 1709 441 
Q 2250 441 2565 725 
Q 2881 1009 2881 1497 
Q 2881 1984 2565 2268 
Q 2250 2553 1709 2553 
Q 1456 2553 1204 2497 
Q 953 2441 691 2322 
L 691 4666 
z
" transform="scale(0.015625)"/>
       </defs>
       <use xlink:href="#DejaVuSans-35"/>
       <use xlink:href="#DejaVuSans-30" x="63.623047"/>
      </g>
     </g>
    </g>
    <g id="ytick_3">
     <g id="line2d_10">
      <g>
       <use xlink:href="#m8b23562bad" x="57.6" y="198.342621" style="stroke: #000000; stroke-width: 0.8"/>
      </g>
     </g>
     <g id="text_11">
      <!-- 100 -->
      <g transform="translate(31.5125 202.141839) scale(0.1 -0.1)">
       <use xlink:href="#DejaVuSans-31"/>
       <use xlink:href="#DejaVuSans-30" x="63.623047"/>
       <use xlink:href="#DejaVuSans-30" x="127.246094"/>
      </g>
     </g>
    </g>
    <g id="ytick_4">
     <g id="line2d_11">
      <g>
       <use xlink:href="#m8b23562bad" x="57.6" y="143.721931" style="stroke: #000000; stroke-width: 0.8"/>
      </g>
     </g>
     <g id="text_12">
      <!-- 150 -->
      <g transform="translate(31.5125 147.52115) scale(0.1 -0.1)">
       <use xlink:href="#DejaVuSans-31"/>
       <use xlink:href="#DejaVuSans-35" x="63.623047"/>
       <use xlink:href="#DejaVuSans-30" x="127.246094"/>
      </g>
     </g>
    </g>
    <g id="ytick_5">
     <g id="line2d_12">
      <g>
       <use xlink:href="#m8b23562bad" x="57.6" y="89.101241" style="stroke: #000000; stroke-width: 0.8"/>
      </g>
     </g>
     <g id="text_13">
      <!-- 200 -->
      <g transform="translate(31.5125 92.90046) scale(0.1 -0.1)">
       <use xlink:href="#DejaVuSans-32"/>
       <use xlink:href="#DejaVuSans-30" x="63.623047"/>
       <use xlink:href="#DejaVuSans-30" x="127.246094"/>
      </g>
     </g>
    </g>
    <g id="text_14">
     <!-- Number of crosslinks -->
     <g transform="translate(25.432812 227.019406) rotate(-90) scale(0.1 -0.1)">
      <defs>
       <path id="DejaVuSans-4e" d="M 628 4666 
L 1478 4666 
L 3547 763 
L 3547 4666 
L 4159 4666 
L 4159 0 
L 3309 0 
L 1241 3903 
L 1241 0 
L 628 0 
L 628 4666 
z
" transform="scale(0.015625)"/>
       <path id="DejaVuSans-75" d="M 544 1381 
L 544 3500 
L 1119 3500 
L 1119 1403 
Q 1119 906 1312 657 
Q 1506 409 1894 409 
Q 2359 409 2629 706 
Q 2900 1003 2900 1516 
L 2900 3500 
L 3475 3500 
L 3475 0 
L 2900 0 
L 2900 538 
Q 2691 219 2414 64 
Q 2138 -91 1772 -91 
Q 1169 -91 856 284 
Q 544 659 544 1381 
z
M 1991 3584 
L 1991 3584 
z
" transform="scale(0.015625)"/>
       <path id="DejaVuSans-6d" d="M 3328 2828 
Q 3544 3216 3844 3400 
Q 4144 3584 4550 3584 
Q 5097 3584 5394 3201 
Q 5691 2819 5691 2113 
L 5691 0 
L 5113 0 
L 5113 2094 
Q 5113 2597 4934 2840 
Q 4756 3084 4391 3084 
Q 3944 3084 3684 2787 
Q 3425 2491 3425 1978 
L 3425 0 
L 2847 0 
L 2847 2094 
Q 2847 2600 2669 2842 
Q 2491 3084 2119 3084 
Q 1678 3084 1418 2786 
Q 1159 2488 1159 1978 
L 1159 0 
L 581 0 
L 581 3500 
L 1159 3500 
L 1159 2956 
Q 1356 3278 1631 3431 
Q 1906 3584 2284 3584 
Q 2666 3584 2933 3390 
Q 3200 3197 3328 2828 
z
" transform="scale(0.015625)"/>
       <path id="DejaVuSans-62" d="M 3116 1747 
Q 3116 2381 2855 2742 
Q 2594 3103 2138 3103 
Q 1681 3103 1420 2742 
Q 1159 2381 1159 1747 
Q 1159 1113 1420 752 
Q 1681 391 2138 391 
Q 2594 391 2855 752 
Q 3116 1113 3116 1747 
z
M 1159 2969 
Q 1341 3281 1617 3432 
Q 1894 3584 2278 3584 
Q 2916 3584 3314 3078 
Q 3713 2572 3713 1747 
Q 3713 922 3314 415 
Q 2916 -91 2278 -91 
Q 1894 -91 1617 61 
Q 1341 213 1159 525 
L 1159 0 
L 581 0 
L 581 4863 
L 1159 4863 
L 1159 2969 
z
" transform="scale(0.015625)"/>
       <path id="DejaVuSans-20" transform="scale(0.015625)"/>
       <path id="DejaVuSans-66" d="M 2375 4863 
L 2375 4384 
L 1825 4384 
Q 1516 4384 1395 4259 
Q 1275 4134 1275 3809 
L 1275 3500 
L 2222 3500 
L 2222 3053 
L 1275 3053 
L 1275 0 
L 697 0 
L 697 3053 
L 147 3053 
L 147 3500 
L 697 3500 
L 697 3744 
Q 697 4328 969 4595 
Q 1241 4863 1831 4863 
L 2375 4863 
z
" transform="scale(0.015625)"/>
       <path id="DejaVuSans-73" d="M 2834 3397 
L 2834 2853 
Q 2591 2978 2328 3040 
Q 2066 3103 1784 3103 
Q 1356 3103 1142 2972 
Q 928 2841 928 2578 
Q 928 2378 1081 2264 
Q 1234 2150 1697 2047 
L 1894 2003 
Q 2506 1872 2764 1633 
Q 3022 1394 3022 966 
Q 3022 478 2636 193 
Q 2250 -91 1575 -91 
Q 1294 -91 989 -36 
Q 684 19 347 128 
L 347 722 
Q 666 556 975 473 
Q 1284 391 1588 391 
Q 1994 391 2212 530 
Q 2431 669 2431 922 
Q 2431 1156 2273 1281 
Q 2116 1406 1581 1522 
L 1381 1569 
Q 847 1681 609 1914 
Q 372 2147 372 2553 
Q 372 3047 722 3315 
Q 1072 3584 1716 3584 
Q 2034 3584 2315 3537 
Q 2597 3491 2834 3397 
z
" transform="scale(0.015625)"/>
       <path id="DejaVuSans-6c" d="M 603 4863 
L 1178 4863 
L 1178 0 
L 603 0 
L 603 4863 
z
" transform="scale(0.015625)"/>
       <path id="DejaVuSans-69" d="M 603 3500 
L 1178 3500 
L 1178 0 
L 603 0 
L 603 3500 
z
M 603 4863 
L 1178 4863 
L 1178 4134 
L 603 4134 
L 603 4863 
z
" transform="scale(0.015625)"/>
       <path id="DejaVuSans-6e" d="M 3513 2113 
L 3513 0 
L 2938 0 
L 2938 2094 
Q 2938 2591 2744 2837 
Q 2550 3084 2163 3084 
Q 1697 3084 1428 2787 
Q 1159 2491 1159 1978 
L 1159 0 
L 581 0 
L 581 3500 
L 1159 3500 
L 1159 2956 
Q 1366 3272 1645 3428 
Q 1925 3584 2291 3584 
Q 2894 3584 3203 3211 
Q 3513 2838 3513 2113 
z
" transform="scale(0.015625)"/>
       <path id="DejaVuSans-6b" d="M 581 4863 
L 1159 4863 
L 1159 1991 
L 2875 3500 
L 3609 3500 
L 1753 1863 
L 3688 0 
L 2938 0 
L 1159 1709 
L 1159 0 
L 581 0 
L 581 4863 
z
" transform="scale(0.015625)"/>
      </defs>
      <use xlink:href="#DejaVuSans-4e"/>
      <use xlink:href="#DejaVuSans-75" x="74.804688"/>
      <use xlink:href="#DejaVuSans-6d" x="138.183594"/>
      <use xlink:href="#DejaVuSans-62" x="235.595703"/>
      <use xlink:href="#DejaVuSans-65" x="299.072266"/>
      <use xlink:href="#DejaVuSans-72" x="360.595703"/>
      <use xlink:href="#DejaVuSans-20" x="401.708984"/>
      <use xlink:href="#DejaVuSans-6f" x="433.496094"/>
      <use xlink:href="#DejaVuSans-66" x="494.677734"/>
      <use xlink:href="#DejaVuSans-20" x="529.882812"/>
      <use xlink:href="#DejaVuSans-63" x="561.669922"/>
      <use xlink:href="#DejaVuSans-72" x="616.650391"/>
      <use xlink:href="#DejaVuSans-6f" x="655.513672"/>
      <use xlink:href="#DejaVuSans-73" x="716.695312"/>
      <use xlink:href="#DejaVuSans-73" x="768.794922"/>
      <use xlink:href="#DejaVuSans-6c" x="820.894531"/>
      <use xlink:href="#DejaVuSans-69" x="848.677734"/>
      <use xlink:href="#DejaVuSans-6e" x="876.460938"/>
      <use xlink:href="#DejaVuSans-6b" x="939.839844"/>
      <use xlink:href="#DejaVuSans-73" x="997.75"/>
     </g>
    </g>
   </g>
   <g id="patch_3">
    <path d="M 57.6 307.584 
L 57.6 41.472 
" style="fill: none; stroke: #000000; stroke-width: 0.8; stroke-linejoin: miter; stroke-linecap: square"/>
   </g>
   <g id="patch_4">
    <path d="M 414.72 307.584 
L 414.72 41.472 
" style="fill: none; stroke: #000000; stroke-width: 0.8; stroke-linejoin: miter; stroke-linecap: square"/>
   </g>
   <g id="patch_5">
    <path d="M 57.6 307.584 
L 414.72 307.584 
" style="fill: none; stroke: #000000; stroke-width: 0.8; stroke-linejoin: miter; stroke-linecap: square"/>
   </g>
   <g id="patch_6">
    <path d="M 57.6 41.472 
L 414.72 41.472 
" style="fill: none; stroke: #000000; stroke-width: 0.8; stroke-linejoin: miter; stroke-linecap: square"/>
   </g>
   <g id="legend_1">
    <g id="patch_7">
     <path d="M 293.087188 93.506375 
L 407.72 93.506375 
Q 409.72 93.506375 409.72 91.506375 
L 409.72 48.472 
Q 409.72 46.472 407.72 46.472 
L 293.087188 46.472 
Q 291.087188 46.472 291.087188 48.472 
L 291.087188 91.506375 
Q 291.087188 93.506375 293.087188 93.506375 
z
" style="fill: #ffffff; opacity: 0.8; stroke: #cccccc; stroke-linejoin: miter"/>
    </g>
    <g id="patch_8">
     <path d="M 295.087188 58.070438 
L 315.087188 58.070438 
L 315.087188 51.070438 
L 295.087188 51.070438 
z
" style="fill: #008000"/>
    </g>
    <g id="text_15">
     <!-- true -->
     <g transform="translate(323.087188 58.070438) scale(0.1 -0.1)">
      <defs>
       <path id="DejaVuSans-74" d="M 1172 4494 
L 1172 3500 
L 2356 3500 
L 2356 3053 
L 1172 3053 
L 1172 1153 
Q 1172 725 1289 603 
Q 1406 481 1766 481 
L 2356 481 
L 2356 0 
L 1766 0 
Q 1100 0 847 248 
Q 594 497 594 1153 
L 594 3053 
L 172 3053 
L 172 3500 
L 594 3500 
L 594 4494 
L 1172 4494 
z
" transform="scale(0.015625)"/>
      </defs>
      <use xlink:href="#DejaVuSans-74"/>
      <use xlink:href="#DejaVuSans-72" x="39.208984"/>
      <use xlink:href="#DejaVuSans-75" x="80.322266"/>
      <use xlink:href="#DejaVuSans-65" x="143.701172"/>
     </g>
    </g>
    <g id="patch_9">
     <path d="M 295.087188 72.748563 
L 315.087188 72.748563 
L 315.087188 65.748563 
L 295.087188 65.748563 
z
" style="fill: #7cfc00"/>
    </g>
    <g id="text_16">
     <!-- true homeotypic -->
     <g transform="translate(323.087188 72.748563) scale(0.1 -0.1)">
      <defs>
       <path id="DejaVuSans-68" d="M 3513 2113 
L 3513 0 
L 2938 0 
L 2938 2094 
Q 2938 2591 2744 2837 
Q 2550 3084 2163 3084 
Q 1697 3084 1428 2787 
Q 1159 2491 1159 1978 
L 1159 0 
L 581 0 
L 581 4863 
L 1159 4863 
L 1159 2956 
Q 1366 3272 1645 3428 
Q 1925 3584 2291 3584 
Q 2894 3584 3203 3211 
Q 3513 2838 3513 2113 
z
" transform="scale(0.015625)"/>
       <path id="DejaVuSans-79" d="M 2059 -325 
Q 1816 -950 1584 -1140 
Q 1353 -1331 966 -1331 
L 506 -1331 
L 506 -850 
L 844 -850 
Q 1081 -850 1212 -737 
Q 1344 -625 1503 -206 
L 1606 56 
L 191 3500 
L 800 3500 
L 1894 763 
L 2988 3500 
L 3597 3500 
L 2059 -325 
z
" transform="scale(0.015625)"/>
       <path id="DejaVuSans-70" d="M 1159 525 
L 1159 -1331 
L 581 -1331 
L 581 3500 
L 1159 3500 
L 1159 2969 
Q 1341 3281 1617 3432 
Q 1894 3584 2278 3584 
Q 2916 3584 3314 3078 
Q 3713 2572 3713 1747 
Q 3713 922 3314 415 
Q 2916 -91 2278 -91 
Q 1894 -91 1617 61 
Q 1341 213 1159 525 
z
M 3116 1747 
Q 3116 2381 2855 2742 
Q 2594 3103 2138 3103 
Q 1681 3103 1420 2742 
Q 1159 2381 1159 1747 
Q 1159 1113 1420 752 
Q 1681 391 2138 391 
Q 2594 391 2855 752 
Q 3116 1113 3116 1747 
z
" transform="scale(0.015625)"/>
      </defs>
      <use xlink:href="#DejaVuSans-74"/>
      <use xlink:href="#DejaVuSans-72" x="39.208984"/>
      <use xlink:href="#DejaVuSans-75" x="80.322266"/>
      <use xlink:href="#DejaVuSans-65" x="143.701172"/>
      <use xlink:href="#DejaVuSans-20" x="205.224609"/>
      <use xlink:href="#DejaVuSans-68" x="237.011719"/>
      <use xlink:href="#DejaVuSans-6f" x="300.390625"/>
      <use xlink:href="#DejaVuSans-6d" x="361.572266"/>
      <use xlink:href="#DejaVuSans-65" x="458.984375"/>
      <use xlink:href="#DejaVuSans-6f" x="520.507812"/>
      <use xlink:href="#DejaVuSans-74" x="581.689453"/>
      <use xlink:href="#DejaVuSans-79" x="620.898438"/>
      <use xlink:href="#DejaVuSans-70" x="680.078125"/>
      <use xlink:href="#DejaVuSans-69" x="743.554688"/>
      <use xlink:href="#DejaVuSans-63" x="771.337891"/>
     </g>
    </g>
    <g id="patch_10">
     <path d="M 295.087188 87.426688 
L 315.087188 87.426688 
L 315.087188 80.426688 
L 295.087188 80.426688 
z
" style="fill: #ff0000"/>
    </g>
    <g id="text_17">
     <!-- false -->
     <g transform="translate(323.087188 87.426688) scale(0.1 -0.1)">
      <defs>
       <path id="DejaVuSans-61" d="M 2194 1759 
Q 1497 1759 1228 1600 
Q 959 1441 959 1056 
Q 959 750 1161 570 
Q 1363 391 1709 391 
Q 2188 391 2477 730 
Q 2766 1069 2766 1631 
L 2766 1759 
L 2194 1759 
z
M 3341 1997 
L 3341 0 
L 2766 0 
L 2766 531 
Q 2569 213 2275 61 
Q 1981 -91 1556 -91 
Q 1019 -91 701 211 
Q 384 513 384 1019 
Q 384 1609 779 1909 
Q 1175 2209 1959 2209 
L 2766 2209 
L 2766 2266 
Q 2766 2663 2505 2880 
Q 2244 3097 1772 3097 
Q 1472 3097 1187 3025 
Q 903 2953 641 2809 
L 641 3341 
Q 956 3463 1253 3523 
Q 1550 3584 1831 3584 
Q 2591 3584 2966 3190 
Q 3341 2797 3341 1997 
z
" transform="scale(0.015625)"/>
      </defs>
      <use xlink:href="#DejaVuSans-66"/>
      <use xlink:href="#DejaVuSans-61" x="35.205078"/>
      <use xlink:href="#DejaVuSans-6c" x="96.484375"/>
      <use xlink:href="#DejaVuSans-73" x="124.267578"/>
      <use xlink:href="#DejaVuSans-65" x="176.367188"/>
     </g>
    </g>
   </g>
  </g>
 </g>
 <defs>
  <clipPath id="pa6e655e532">
   <rect x="57.6" y="41.472" width="357.12" height="266.112"/>
  </clipPath>
 </defs>
</svg>
