<?xml version="1.0" encoding="utf-8" standalone="no"?>
<!DOCTYPE svg PUBLIC "-//W3C//DTD SVG 1.1//EN"
  "http://www.w3.org/Graphics/SVG/1.1/DTD/svg11.dtd">
<svg xmlns:xlink="http://www.w3.org/1999/xlink" width="460.8pt" height="345.6pt" viewBox="0 0 460.8 345.6" xmlns="http://www.w3.org/2000/svg" version="1.1">
 <metadata>
  <rdf:RDF xmlns:dc="http://purl.org/dc/elements/1.1/" xmlns:cc="http://creativecommons.org/ns#" xmlns:rdf="http://www.w3.org/1999/02/22-rdf-syntax-ns#">
   <cc:Work>
    <dc:type rdf:resource="http://purl.org/dc/dcmitype/StillImage"/>
    <dc:date>2024-06-28T19:08:24.122653</dc:date>
    <dc:format>image/svg+xml</dc:format>
    <dc:creator>
     <cc:Agent>
      <dc:title>Matplotlib v3.9.0, https://matplotlib.org/</dc:title>
     </cc:Agent>
    </dc:creator>
   </cc:Work>
  </rdf:RDF>
 </metadata>
 <defs>
  <style type="text/css">*{stroke-linejoin: round; stroke-linecap: butt}</style>
 </defs>
 <g id="figure_1">
  <g id="patch_1">
   <path d="M 0 345.6 
L 460.8 345.6 
L 460.8 0 
L 0 0 
z
" style="fill: #ffffff"/>
  </g>
  <g id="axes_1">
   <g id="patch_2">
    <path d="M 57.6 307.584 
L 414.72 307.584 
L 414.72 41.472 
L 57.6 41.472 
z
" style="fill: #ffffff"/>
   </g>
   <g id="PolyCollection_1">
    <path d="M 73.832727 141.393836 
L 73.832727 307.584 
L 74.146641 307.584 
L 74.74717 307.584 
L 75.238513 307.584 
L 75.579723 307.584 
L 75.620668 307.584 
L 75.920933 307.584 
L 75.934581 307.584 
L 76.439572 307.584 
L 76.794431 307.584 
L 77.162937 307.584 
L 77.449554 307.584 
L 78.268458 307.584 
L 78.486832 307.584 
L 79.032769 307.584 
L 79.892618 307.584 
L 80.629632 307.584 
L 81.707855 307.584 
L 82.158253 307.584 
L 85.324682 307.584 
L 85.420221 307.584 
L 86.252773 307.584 
L 86.402906 307.584 
L 86.566687 307.584 
L 86.580335 307.584 
L 87.249107 307.584 
L 90.715801 307.584 
L 91.766728 307.584 
L 92.339961 307.584 
L 93.609262 307.584 
L 95.383555 307.584 
L 96.461778 307.584 
L 102.385185 307.584 
L 108.199404 307.584 
L 108.936418 307.584 
L 114.327537 307.584 
L 114.477669 307.584 
L 115.542245 307.584 
L 116.088181 307.584 
L 118.544893 307.584 
L 119.295555 307.584 
L 120.605802 307.584 
L 120.701341 307.584 
L 120.824176 307.584 
L 124.427355 307.584 
L 125.519227 307.584 
L 126.242592 307.584 
L 127.470948 307.584 
L 135.837419 307.584 
L 136.014848 307.584 
L 138.894661 307.584 
L 140.163962 307.584 
L 140.723547 307.584 
L 142.948237 307.584 
L 144.654287 307.584 
L 147.697881 307.584 
L 148.857995 307.584 
L 150.468506 307.584 
L 150.727826 307.584 
L 151.014442 307.584 
L 154.808698 307.584 
L 159.612936 307.584 
L 161.387228 307.584 
L 163.68016 307.584 
L 164.621899 307.584 
L 166.041333 307.584 
L 166.682808 307.584 
L 167.119557 307.584 
L 168.702772 307.584 
L 168.757365 307.584 
L 169.31695 307.584 
L 170.381525 307.584 
L 173.848219 307.584 
L 177.328562 307.584 
L 179.785274 307.584 
L 180.686069 307.584 
L 184.493973 307.584 
L 185.476658 307.584 
L 186.104485 307.584 
L 189.229969 307.584 
L 189.707663 307.584 
L 190.663051 307.584 
L 191.563845 307.584 
L 192.137078 307.584 
L 192.792202 307.584 
L 194.184339 307.584 
L 195.944983 307.584 
L 205.321435 307.584 
L 206.426956 307.584 
L 206.795462 307.584 
L 220.1436 307.584 
L 222.054376 307.584 
L 225.043376 307.584 
L 225.985116 307.584 
L 226.271733 307.584 
L 226.640239 307.584 
L 239.060285 307.584 
L 239.715409 307.584 
L 241.012007 307.584 
L 245.161121 307.584 
L 248.232012 307.584 
L 251.043583 307.584 
L 251.971674 307.584 
L 253.213679 307.584 
L 254.933377 307.584 
L 256.966989 307.584 
L 257.089825 307.584 
L 258.031565 307.584 
L 266.984917 307.584 
L 272.553465 307.584 
L 277.139328 307.584 
L 283.076383 307.584 
L 289.900584 307.584 
L 289.927881 307.584 
L 293.913214 307.584 
L 318.958033 307.584 
L 323.748622 307.584 
L 326.164389 307.584 
L 344.889997 307.584 
L 355.576696 307.584 
L 392.509273 307.584 
L 398.487273 307.584 
L 398.487273 307.584 
L 398.487273 307.584 
L 392.509273 307.584 
L 355.576696 305.506623 
L 344.889997 303.429246 
L 326.164389 301.351869 
L 323.748622 299.274492 
L 318.958033 299.274492 
L 293.913214 297.197115 
L 289.927881 295.119738 
L 289.900584 293.042361 
L 283.076383 290.964984 
L 277.139328 288.887607 
L 272.553465 286.81023 
L 266.984917 284.732852 
L 258.031565 282.655475 
L 257.089825 280.578098 
L 256.966989 278.500721 
L 254.933377 276.423344 
L 253.213679 274.345967 
L 251.971674 272.26859 
L 251.043583 270.191213 
L 248.232012 270.191213 
L 245.161121 268.113836 
L 241.012007 266.036459 
L 239.715409 263.959082 
L 239.060285 261.881705 
L 226.640239 259.804328 
L 226.271733 259.804328 
L 225.985116 257.726951 
L 225.043376 255.649574 
L 222.054376 253.572197 
L 220.1436 251.49482 
L 206.795462 249.417443 
L 206.426956 247.340066 
L 205.321435 245.262689 
L 195.944983 243.185311 
L 194.184339 241.107934 
L 192.792202 239.030557 
L 192.137078 236.95318 
L 191.563845 234.875803 
L 190.663051 232.798426 
L 189.707663 232.798426 
L 189.229969 232.798426 
L 186.104485 230.721049 
L 185.476658 228.643672 
L 184.493973 226.566295 
L 180.686069 224.488918 
L 179.785274 222.411541 
L 177.328562 220.334164 
L 173.848219 220.334164 
L 170.381525 218.256787 
L 169.31695 218.256787 
L 168.757365 216.17941 
L 168.702772 216.17941 
L 167.119557 214.102033 
L 166.682808 212.024656 
L 166.041333 209.947279 
L 164.621899 209.947279 
L 163.68016 207.869902 
L 161.387228 205.792525 
L 159.612936 203.715148 
L 154.808698 203.715148 
L 151.014442 203.715148 
L 150.727826 201.63777 
L 150.468506 199.560393 
L 148.857995 197.483016 
L 147.697881 195.405639 
L 144.654287 193.328262 
L 142.948237 191.250885 
L 140.723547 189.173508 
L 140.163962 187.096131 
L 138.894661 185.018754 
L 136.014848 185.018754 
L 135.837419 185.018754 
L 127.470948 182.941377 
L 126.242592 180.864 
L 125.519227 178.786623 
L 124.427355 178.786623 
L 120.824176 178.786623 
L 120.701341 178.786623 
L 120.605802 176.709246 
L 119.295555 174.631869 
L 118.544893 172.554492 
L 116.088181 170.477115 
L 115.542245 168.399738 
L 114.477669 168.399738 
L 114.327537 166.322361 
L 108.936418 164.244984 
L 108.199404 162.167607 
L 102.385185 162.167607 
L 96.461778 160.09023 
L 95.383555 158.012852 
L 93.609262 158.012852 
L 92.339961 158.012852 
L 91.766728 158.012852 
L 90.715801 155.935475 
L 87.249107 155.935475 
L 86.580335 155.935475 
L 86.566687 155.935475 
L 86.402906 153.858098 
L 86.252773 151.780721 
L 85.420221 149.703344 
L 85.324682 149.703344 
L 82.158253 149.703344 
L 81.707855 149.703344 
L 80.629632 147.625967 
L 79.892618 147.625967 
L 79.032769 145.54859 
L 78.486832 143.471213 
L 78.268458 143.471213 
L 77.449554 143.471213 
L 77.162937 143.471213 
L 76.794431 143.471213 
L 76.439572 143.471213 
L 75.934581 143.471213 
L 75.920933 143.471213 
L 75.620668 143.471213 
L 75.579723 143.471213 
L 75.238513 143.471213 
L 74.74717 143.471213 
L 74.146641 141.393836 
L 73.832727 141.393836 
z
" clip-path="url(#p751a65db9b)" style="fill: #008000"/>
   </g>
   <g id="PolyCollection_2">
    <path d="M 73.832727 104.001049 
L 73.832727 141.393836 
L 74.146641 141.393836 
L 74.74717 143.471213 
L 75.238513 143.471213 
L 75.579723 143.471213 
L 75.620668 143.471213 
L 75.920933 143.471213 
L 75.934581 143.471213 
L 76.439572 143.471213 
L 76.794431 143.471213 
L 77.162937 143.471213 
L 77.449554 143.471213 
L 78.268458 143.471213 
L 78.486832 143.471213 
L 79.032769 145.54859 
L 79.892618 147.625967 
L 80.629632 147.625967 
L 81.707855 149.703344 
L 82.158253 149.703344 
L 85.324682 149.703344 
L 85.420221 149.703344 
L 86.252773 151.780721 
L 86.402906 153.858098 
L 86.566687 155.935475 
L 86.580335 155.935475 
L 87.249107 155.935475 
L 90.715801 155.935475 
L 91.766728 158.012852 
L 92.339961 158.012852 
L 93.609262 158.012852 
L 95.383555 158.012852 
L 96.461778 160.09023 
L 102.385185 162.167607 
L 108.199404 162.167607 
L 108.936418 164.244984 
L 114.327537 166.322361 
L 114.477669 168.399738 
L 115.542245 168.399738 
L 116.088181 170.477115 
L 118.544893 172.554492 
L 119.295555 174.631869 
L 120.605802 176.709246 
L 120.701341 178.786623 
L 120.824176 178.786623 
L 124.427355 178.786623 
L 125.519227 178.786623 
L 126.242592 180.864 
L 127.470948 182.941377 
L 135.837419 185.018754 
L 136.014848 185.018754 
L 138.894661 185.018754 
L 140.163962 187.096131 
L 140.723547 189.173508 
L 142.948237 191.250885 
L 144.654287 193.328262 
L 147.697881 195.405639 
L 148.857995 197.483016 
L 150.468506 199.560393 
L 150.727826 201.63777 
L 151.014442 203.715148 
L 154.808698 203.715148 
L 159.612936 203.715148 
L 161.387228 205.792525 
L 163.68016 207.869902 
L 164.621899 209.947279 
L 166.041333 209.947279 
L 166.682808 212.024656 
L 167.119557 214.102033 
L 168.702772 216.17941 
L 168.757365 216.17941 
L 169.31695 218.256787 
L 170.381525 218.256787 
L 173.848219 220.334164 
L 177.328562 220.334164 
L 179.785274 222.411541 
L 180.686069 224.488918 
L 184.493973 226.566295 
L 185.476658 228.643672 
L 186.104485 230.721049 
L 189.229969 232.798426 
L 189.707663 232.798426 
L 190.663051 232.798426 
L 191.563845 234.875803 
L 192.137078 236.95318 
L 192.792202 239.030557 
L 194.184339 241.107934 
L 195.944983 243.185311 
L 205.321435 245.262689 
L 206.426956 247.340066 
L 206.795462 249.417443 
L 220.1436 251.49482 
L 222.054376 253.572197 
L 225.043376 255.649574 
L 225.985116 257.726951 
L 226.271733 259.804328 
L 226.640239 259.804328 
L 239.060285 261.881705 
L 239.715409 263.959082 
L 241.012007 266.036459 
L 245.161121 268.113836 
L 248.232012 270.191213 
L 251.043583 270.191213 
L 251.971674 272.26859 
L 253.213679 274.345967 
L 254.933377 276.423344 
L 256.966989 278.500721 
L 257.089825 280.578098 
L 258.031565 282.655475 
L 266.984917 284.732852 
L 272.553465 286.81023 
L 277.139328 288.887607 
L 283.076383 290.964984 
L 289.900584 293.042361 
L 289.927881 295.119738 
L 293.913214 297.197115 
L 318.958033 299.274492 
L 323.748622 299.274492 
L 326.164389 301.351869 
L 344.889997 303.429246 
L 355.576696 305.506623 
L 392.509273 307.584 
L 398.487273 307.584 
L 398.487273 305.506623 
L 398.487273 305.506623 
L 392.509273 303.429246 
L 355.576696 301.351869 
L 344.889997 299.274492 
L 326.164389 297.197115 
L 323.748622 295.119738 
L 318.958033 293.042361 
L 293.913214 290.964984 
L 289.927881 288.887607 
L 289.900584 286.81023 
L 283.076383 284.732852 
L 277.139328 282.655475 
L 272.553465 280.578098 
L 266.984917 278.500721 
L 258.031565 276.423344 
L 257.089825 274.345967 
L 256.966989 272.26859 
L 254.933377 270.191213 
L 253.213679 268.113836 
L 251.971674 266.036459 
L 251.043583 263.959082 
L 248.232012 263.959082 
L 245.161121 261.881705 
L 241.012007 259.804328 
L 239.715409 257.726951 
L 239.060285 255.649574 
L 226.640239 253.572197 
L 226.271733 251.49482 
L 225.985116 249.417443 
L 225.043376 247.340066 
L 222.054376 245.262689 
L 220.1436 243.185311 
L 206.795462 241.107934 
L 206.426956 239.030557 
L 205.321435 236.95318 
L 195.944983 234.875803 
L 194.184339 232.798426 
L 192.792202 230.721049 
L 192.137078 228.643672 
L 191.563845 226.566295 
L 190.663051 224.488918 
L 189.707663 224.488918 
L 189.229969 222.411541 
L 186.104485 220.334164 
L 185.476658 218.256787 
L 184.493973 216.17941 
L 180.686069 214.102033 
L 179.785274 212.024656 
L 177.328562 209.947279 
L 173.848219 207.869902 
L 170.381525 205.792525 
L 169.31695 203.715148 
L 168.757365 201.63777 
L 168.702772 199.560393 
L 167.119557 197.483016 
L 166.682808 195.405639 
L 166.041333 193.328262 
L 164.621899 191.250885 
L 163.68016 189.173508 
L 161.387228 187.096131 
L 159.612936 185.018754 
L 154.808698 182.941377 
L 151.014442 180.864 
L 150.727826 178.786623 
L 150.468506 176.709246 
L 148.857995 174.631869 
L 147.697881 172.554492 
L 144.654287 170.477115 
L 142.948237 168.399738 
L 140.723547 166.322361 
L 140.163962 164.244984 
L 138.894661 162.167607 
L 136.014848 160.09023 
L 135.837419 158.012852 
L 127.470948 155.935475 
L 126.242592 153.858098 
L 125.519227 151.780721 
L 124.427355 149.703344 
L 120.824176 147.625967 
L 120.701341 147.625967 
L 120.605802 145.54859 
L 119.295555 143.471213 
L 118.544893 141.393836 
L 116.088181 139.316459 
L 115.542245 137.239082 
L 114.477669 135.161705 
L 114.327537 133.084328 
L 108.936418 131.006951 
L 108.199404 128.929574 
L 102.385185 126.852197 
L 96.461778 124.77482 
L 95.383555 122.697443 
L 93.609262 122.697443 
L 92.339961 122.697443 
L 91.766728 122.697443 
L 90.715801 120.620066 
L 87.249107 120.620066 
L 86.580335 120.620066 
L 86.566687 120.620066 
L 86.402906 118.542689 
L 86.252773 116.465311 
L 85.420221 114.387934 
L 85.324682 114.387934 
L 82.158253 114.387934 
L 81.707855 112.310557 
L 80.629632 110.23318 
L 79.892618 110.23318 
L 79.032769 108.155803 
L 78.486832 106.078426 
L 78.268458 106.078426 
L 77.449554 106.078426 
L 77.162937 106.078426 
L 76.794431 106.078426 
L 76.439572 106.078426 
L 75.934581 106.078426 
L 75.920933 106.078426 
L 75.620668 106.078426 
L 75.579723 106.078426 
L 75.238513 106.078426 
L 74.74717 106.078426 
L 74.146641 104.001049 
L 73.832727 104.001049 
z
" clip-path="url(#p751a65db9b)" style="fill: #7cfc00"/>
   </g>
   <g id="PolyCollection_3">
    <path d="M 73.832727 54.144 
L 73.832727 104.001049 
L 74.146641 104.001049 
L 74.74717 106.078426 
L 75.238513 106.078426 
L 75.579723 106.078426 
L 75.620668 106.078426 
L 75.920933 106.078426 
L 75.934581 106.078426 
L 76.439572 106.078426 
L 76.794431 106.078426 
L 77.162937 106.078426 
L 77.449554 106.078426 
L 78.268458 106.078426 
L 78.486832 106.078426 
L 79.032769 108.155803 
L 79.892618 110.23318 
L 80.629632 110.23318 
L 81.707855 112.310557 
L 82.158253 114.387934 
L 85.324682 114.387934 
L 85.420221 114.387934 
L 86.252773 116.465311 
L 86.402906 118.542689 
L 86.566687 120.620066 
L 86.580335 120.620066 
L 87.249107 120.620066 
L 90.715801 120.620066 
L 91.766728 122.697443 
L 92.339961 122.697443 
L 93.609262 122.697443 
L 95.383555 122.697443 
L 96.461778 124.77482 
L 102.385185 126.852197 
L 108.199404 128.929574 
L 108.936418 131.006951 
L 114.327537 133.084328 
L 114.477669 135.161705 
L 115.542245 137.239082 
L 116.088181 139.316459 
L 118.544893 141.393836 
L 119.295555 143.471213 
L 120.605802 145.54859 
L 120.701341 147.625967 
L 120.824176 147.625967 
L 124.427355 149.703344 
L 125.519227 151.780721 
L 126.242592 153.858098 
L 127.470948 155.935475 
L 135.837419 158.012852 
L 136.014848 160.09023 
L 138.894661 162.167607 
L 140.163962 164.244984 
L 140.723547 166.322361 
L 142.948237 168.399738 
L 144.654287 170.477115 
L 147.697881 172.554492 
L 148.857995 174.631869 
L 150.468506 176.709246 
L 150.727826 178.786623 
L 151.014442 180.864 
L 154.808698 182.941377 
L 159.612936 185.018754 
L 161.387228 187.096131 
L 163.68016 189.173508 
L 164.621899 191.250885 
L 166.041333 193.328262 
L 166.682808 195.405639 
L 167.119557 197.483016 
L 168.702772 199.560393 
L 168.757365 201.63777 
L 169.31695 203.715148 
L 170.381525 205.792525 
L 173.848219 207.869902 
L 177.328562 209.947279 
L 179.785274 212.024656 
L 180.686069 214.102033 
L 184.493973 216.17941 
L 185.476658 218.256787 
L 186.104485 220.334164 
L 189.229969 222.411541 
L 189.707663 224.488918 
L 190.663051 224.488918 
L 191.563845 226.566295 
L 192.137078 228.643672 
L 192.792202 230.721049 
L 194.184339 232.798426 
L 195.944983 234.875803 
L 205.321435 236.95318 
L 206.426956 239.030557 
L 206.795462 241.107934 
L 220.1436 243.185311 
L 222.054376 245.262689 
L 225.043376 247.340066 
L 225.985116 249.417443 
L 226.271733 251.49482 
L 226.640239 253.572197 
L 239.060285 255.649574 
L 239.715409 257.726951 
L 241.012007 259.804328 
L 245.161121 261.881705 
L 248.232012 263.959082 
L 251.043583 263.959082 
L 251.971674 266.036459 
L 253.213679 268.113836 
L 254.933377 270.191213 
L 256.966989 272.26859 
L 257.089825 274.345967 
L 258.031565 276.423344 
L 266.984917 278.500721 
L 272.553465 280.578098 
L 277.139328 282.655475 
L 283.076383 284.732852 
L 289.900584 286.81023 
L 289.927881 288.887607 
L 293.913214 290.964984 
L 318.958033 293.042361 
L 323.748622 295.119738 
L 326.164389 297.197115 
L 344.889997 299.274492 
L 355.576696 301.351869 
L 392.509273 303.429246 
L 398.487273 305.506623 
L 398.487273 305.506623 
L 398.487273 305.506623 
L 392.509273 303.429246 
L 355.576696 301.351869 
L 344.889997 299.274492 
L 326.164389 297.197115 
L 323.748622 295.119738 
L 318.958033 293.042361 
L 293.913214 290.964984 
L 289.927881 288.887607 
L 289.900584 286.81023 
L 283.076383 284.732852 
L 277.139328 282.655475 
L 272.553465 280.578098 
L 266.984917 278.500721 
L 258.031565 276.423344 
L 257.089825 274.345967 
L 256.966989 272.26859 
L 254.933377 270.191213 
L 253.213679 268.113836 
L 251.971674 266.036459 
L 251.043583 263.959082 
L 248.232012 261.881705 
L 245.161121 259.804328 
L 241.012007 257.726951 
L 239.715409 255.649574 
L 239.060285 253.572197 
L 226.640239 251.49482 
L 226.271733 249.417443 
L 225.985116 247.340066 
L 225.043376 245.262689 
L 222.054376 243.185311 
L 220.1436 241.107934 
L 206.795462 239.030557 
L 206.426956 236.95318 
L 205.321435 234.875803 
L 195.944983 232.798426 
L 194.184339 230.721049 
L 192.792202 228.643672 
L 192.137078 226.566295 
L 191.563845 224.488918 
L 190.663051 222.411541 
L 189.707663 220.334164 
L 189.229969 218.256787 
L 186.104485 216.17941 
L 185.476658 214.102033 
L 184.493973 212.024656 
L 180.686069 209.947279 
L 179.785274 207.869902 
L 177.328562 205.792525 
L 173.848219 203.715148 
L 170.381525 201.63777 
L 169.31695 199.560393 
L 168.757365 197.483016 
L 168.702772 195.405639 
L 167.119557 193.328262 
L 166.682808 191.250885 
L 166.041333 189.173508 
L 164.621899 187.096131 
L 163.68016 185.018754 
L 161.387228 182.941377 
L 159.612936 180.864 
L 154.808698 178.786623 
L 151.014442 176.709246 
L 150.727826 174.631869 
L 150.468506 172.554492 
L 148.857995 170.477115 
L 147.697881 168.399738 
L 144.654287 166.322361 
L 142.948237 164.244984 
L 140.723547 162.167607 
L 140.163962 160.09023 
L 138.894661 158.012852 
L 136.014848 155.935475 
L 135.837419 153.858098 
L 127.470948 151.780721 
L 126.242592 149.703344 
L 125.519227 147.625967 
L 124.427355 145.54859 
L 120.824176 143.471213 
L 120.701341 141.393836 
L 120.605802 139.316459 
L 119.295555 137.239082 
L 118.544893 135.161705 
L 116.088181 133.084328 
L 115.542245 131.006951 
L 114.477669 128.929574 
L 114.327537 126.852197 
L 108.936418 124.77482 
L 108.199404 122.697443 
L 102.385185 120.620066 
L 96.461778 118.542689 
L 95.383555 116.465311 
L 93.609262 114.387934 
L 92.339961 112.310557 
L 91.766728 110.23318 
L 90.715801 108.155803 
L 87.249107 106.078426 
L 86.580335 104.001049 
L 86.566687 101.923672 
L 86.402906 99.846295 
L 86.252773 97.768918 
L 85.420221 95.691541 
L 85.324682 93.614164 
L 82.158253 91.536787 
L 81.707855 89.45941 
L 80.629632 87.382033 
L 79.892618 85.304656 
L 79.032769 83.227279 
L 78.486832 81.149902 
L 78.268458 79.072525 
L 77.449554 76.995148 
L 77.162937 74.91777 
L 76.794431 72.840393 
L 76.439572 70.763016 
L 75.934581 68.685639 
L 75.920933 66.608262 
L 75.620668 64.530885 
L 75.579723 62.453508 
L 75.238513 60.376131 
L 74.74717 58.298754 
L 74.146641 56.221377 
L 73.832727 54.144 
z
" clip-path="url(#p751a65db9b)" style="fill: #ff0000"/>
   </g>
   <g id="matplotlib.axis_1">
    <g id="xtick_1">
     <g id="line2d_1">
      <defs>
       <path id="m21e582308d" d="M 0 0 
L 0 3.5 
" style="stroke: #000000; stroke-width: 0.8"/>
      </defs>
      <g>
       <use xlink:href="#m21e582308d" x="102.862879" y="307.584" style="stroke: #000000; stroke-width: 0.8"/>
      </g>
     </g>
     <g id="text_1">
      <!-- 10 -->
      <g transform="translate(96.500379 322.182437) scale(0.1 -0.1)">
       <defs>
        <path id="DejaVuSans-31" d="M 794 531 
L 1825 531 
L 1825 4091 
L 703 3866 
L 703 4441 
L 1819 4666 
L 2450 4666 
L 2450 531 
L 3481 531 
L 3481 0 
L 794 0 
L 794 531 
z
" transform="scale(0.015625)"/>
        <path id="DejaVuSans-30" d="M 2034 4250 
Q 1547 4250 1301 3770 
Q 1056 3291 1056 2328 
Q 1056 1369 1301 889 
Q 1547 409 2034 409 
Q 2525 409 2770 889 
Q 3016 1369 3016 2328 
Q 3016 3291 2770 3770 
Q 2525 4250 2034 4250 
z
M 2034 4750 
Q 2819 4750 3233 4129 
Q 3647 3509 3647 2328 
Q 3647 1150 3233 529 
Q 2819 -91 2034 -91 
Q 1250 -91 836 529 
Q 422 1150 422 2328 
Q 422 3509 836 4129 
Q 1250 4750 2034 4750 
z
" transform="scale(0.015625)"/>
       </defs>
       <use xlink:href="#DejaVuSans-31"/>
       <use xlink:href="#DejaVuSans-30" x="63.623047"/>
      </g>
     </g>
    </g>
    <g id="xtick_2">
     <g id="line2d_2">
      <g>
       <use xlink:href="#m21e582308d" x="171.10489" y="307.584" style="stroke: #000000; stroke-width: 0.8"/>
      </g>
     </g>
     <g id="text_2">
      <!-- 15 -->
      <g transform="translate(164.74239 322.182437) scale(0.1 -0.1)">
       <defs>
        <path id="DejaVuSans-35" d="M 691 4666 
L 3169 4666 
L 3169 4134 
L 1269 4134 
L 1269 2991 
Q 1406 3038 1543 3061 
Q 1681 3084 1819 3084 
Q 2600 3084 3056 2656 
Q 3513 2228 3513 1497 
Q 3513 744 3044 326 
Q 2575 -91 1722 -91 
Q 1428 -91 1123 -41 
Q 819 9 494 109 
L 494 744 
Q 775 591 1075 516 
Q 1375 441 1709 441 
Q 2250 441 2565 725 
Q 2881 1009 2881 1497 
Q 2881 1984 2565 2268 
Q 2250 2553 1709 2553 
Q 1456 2553 1204 2497 
Q 953 2441 691 2322 
L 691 4666 
z
" transform="scale(0.015625)"/>
       </defs>
       <use xlink:href="#DejaVuSans-31"/>
       <use xlink:href="#DejaVuSans-35" x="63.623047"/>
      </g>
     </g>
    </g>
    <g id="xtick_3">
     <g id="line2d_3">
      <g>
       <use xlink:href="#m21e582308d" x="239.346902" y="307.584" style="stroke: #000000; stroke-width: 0.8"/>
      </g>
     </g>
     <g id="text_3">
      <!-- 20 -->
      <g transform="translate(232.984402 322.182437) scale(0.1 -0.1)">
       <defs>
        <path id="DejaVuSans-32" d="M 1228 531 
L 3431 531 
L 3431 0 
L 469 0 
L 469 531 
Q 828 903 1448 1529 
Q 2069 2156 2228 2338 
Q 2531 2678 2651 2914 
Q 2772 3150 2772 3378 
Q 2772 3750 2511 3984 
Q 2250 4219 1831 4219 
Q 1534 4219 1204 4116 
Q 875 4013 500 3803 
L 500 4441 
Q 881 4594 1212 4672 
Q 1544 4750 1819 4750 
Q 2544 4750 2975 4387 
Q 3406 4025 3406 3419 
Q 3406 3131 3298 2873 
Q 3191 2616 2906 2266 
Q 2828 2175 2409 1742 
Q 1991 1309 1228 531 
z
" transform="scale(0.015625)"/>
       </defs>
       <use xlink:href="#DejaVuSans-32"/>
       <use xlink:href="#DejaVuSans-30" x="63.623047"/>
      </g>
     </g>
    </g>
    <g id="xtick_4">
     <g id="line2d_4">
      <g>
       <use xlink:href="#m21e582308d" x="307.588913" y="307.584" style="stroke: #000000; stroke-width: 0.8"/>
      </g>
     </g>
     <g id="text_4">
      <!-- 25 -->
      <g transform="translate(301.226413 322.182437) scale(0.1 -0.1)">
       <use xlink:href="#DejaVuSans-32"/>
       <use xlink:href="#DejaVuSans-35" x="63.623047"/>
      </g>
     </g>
    </g>
    <g id="xtick_5">
     <g id="line2d_5">
      <g>
       <use xlink:href="#m21e582308d" x="375.830925" y="307.584" style="stroke: #000000; stroke-width: 0.8"/>
      </g>
     </g>
     <g id="text_5">
      <!-- 30 -->
      <g transform="translate(369.468425 322.182437) scale(0.1 -0.1)">
       <defs>
        <path id="DejaVuSans-33" d="M 2597 2516 
Q 3050 2419 3304 2112 
Q 3559 1806 3559 1356 
Q 3559 666 3084 287 
Q 2609 -91 1734 -91 
Q 1441 -91 1130 -33 
Q 819 25 488 141 
L 488 750 
Q 750 597 1062 519 
Q 1375 441 1716 441 
Q 2309 441 2620 675 
Q 2931 909 2931 1356 
Q 2931 1769 2642 2001 
Q 2353 2234 1838 2234 
L 1294 2234 
L 1294 2753 
L 1863 2753 
Q 2328 2753 2575 2939 
Q 2822 3125 2822 3475 
Q 2822 3834 2567 4026 
Q 2313 4219 1838 4219 
Q 1578 4219 1281 4162 
Q 984 4106 628 3988 
L 628 4550 
Q 988 4650 1302 4700 
Q 1616 4750 1894 4750 
Q 2613 4750 3031 4423 
Q 3450 4097 3450 3541 
Q 3450 3153 3228 2886 
Q 3006 2619 2597 2516 
z
" transform="scale(0.015625)"/>
       </defs>
       <use xlink:href="#DejaVuSans-33"/>
       <use xlink:href="#DejaVuSans-30" x="63.623047"/>
      </g>
     </g>
    </g>
    <g id="text_6">
     <!-- Score -->
     <g transform="translate(222.157656 335.860562) scale(0.1 -0.1)">
      <defs>
       <path id="DejaVuSans-53" d="M 3425 4513 
L 3425 3897 
Q 3066 4069 2747 4153 
Q 2428 4238 2131 4238 
Q 1616 4238 1336 4038 
Q 1056 3838 1056 3469 
Q 1056 3159 1242 3001 
Q 1428 2844 1947 2747 
L 2328 2669 
Q 3034 2534 3370 2195 
Q 3706 1856 3706 1288 
Q 3706 609 3251 259 
Q 2797 -91 1919 -91 
Q 1588 -91 1214 -16 
Q 841 59 441 206 
L 441 856 
Q 825 641 1194 531 
Q 1563 422 1919 422 
Q 2459 422 2753 634 
Q 3047 847 3047 1241 
Q 3047 1584 2836 1778 
Q 2625 1972 2144 2069 
L 1759 2144 
Q 1053 2284 737 2584 
Q 422 2884 422 3419 
Q 422 4038 858 4394 
Q 1294 4750 2059 4750 
Q 2388 4750 2728 4690 
Q 3069 4631 3425 4513 
z
" transform="scale(0.015625)"/>
       <path id="DejaVuSans-63" d="M 3122 3366 
L 3122 2828 
Q 2878 2963 2633 3030 
Q 2388 3097 2138 3097 
Q 1578 3097 1268 2742 
Q 959 2388 959 1747 
Q 959 1106 1268 751 
Q 1578 397 2138 397 
Q 2388 397 2633 464 
Q 2878 531 3122 666 
L 3122 134 
Q 2881 22 2623 -34 
Q 2366 -91 2075 -91 
Q 1284 -91 818 406 
Q 353 903 353 1747 
Q 353 2603 823 3093 
Q 1294 3584 2113 3584 
Q 2378 3584 2631 3529 
Q 2884 3475 3122 3366 
z
" transform="scale(0.015625)"/>
       <path id="DejaVuSans-6f" d="M 1959 3097 
Q 1497 3097 1228 2736 
Q 959 2375 959 1747 
Q 959 1119 1226 758 
Q 1494 397 1959 397 
Q 2419 397 2687 759 
Q 2956 1122 2956 1747 
Q 2956 2369 2687 2733 
Q 2419 3097 1959 3097 
z
M 1959 3584 
Q 2709 3584 3137 3096 
Q 3566 2609 3566 1747 
Q 3566 888 3137 398 
Q 2709 -91 1959 -91 
Q 1206 -91 779 398 
Q 353 888 353 1747 
Q 353 2609 779 3096 
Q 1206 3584 1959 3584 
z
" transform="scale(0.015625)"/>
       <path id="DejaVuSans-72" d="M 2631 2963 
Q 2534 3019 2420 3045 
Q 2306 3072 2169 3072 
Q 1681 3072 1420 2755 
Q 1159 2438 1159 1844 
L 1159 0 
L 581 0 
L 581 3500 
L 1159 3500 
L 1159 2956 
Q 1341 3275 1631 3429 
Q 1922 3584 2338 3584 
Q 2397 3584 2469 3576 
Q 2541 3569 2628 3553 
L 2631 2963 
z
" transform="scale(0.015625)"/>
       <path id="DejaVuSans-65" d="M 3597 1894 
L 3597 1613 
L 953 1613 
Q 991 1019 1311 708 
Q 1631 397 2203 397 
Q 2534 397 2845 478 
Q 3156 559 3463 722 
L 3463 178 
Q 3153 47 2828 -22 
Q 2503 -91 2169 -91 
Q 1331 -91 842 396 
Q 353 884 353 1716 
Q 353 2575 817 3079 
Q 1281 3584 2069 3584 
Q 2775 3584 3186 3129 
Q 3597 2675 3597 1894 
z
M 3022 2063 
Q 3016 2534 2758 2815 
Q 2500 3097 2075 3097 
Q 1594 3097 1305 2825 
Q 1016 2553 972 2059 
L 3022 2063 
z
" transform="scale(0.015625)"/>
      </defs>
      <use xlink:href="#DejaVuSans-53"/>
      <use xlink:href="#DejaVuSans-63" x="63.476562"/>
      <use xlink:href="#DejaVuSans-6f" x="118.457031"/>
      <use xlink:href="#DejaVuSans-72" x="179.638672"/>
      <use xlink:href="#DejaVuSans-65" x="218.501953"/>
     </g>
    </g>
   </g>
   <g id="matplotlib.axis_2">
    <g id="ytick_1">
     <g id="line2d_6">
      <defs>
       <path id="m904c1baea0" d="M 0 0 
L -3.5 0 
" style="stroke: #000000; stroke-width: 0.8"/>
      </defs>
      <g>
       <use xlink:href="#m904c1baea0" x="57.6" y="307.584" style="stroke: #000000; stroke-width: 0.8"/>
      </g>
     </g>
     <g id="text_7">
      <!-- 0 -->
      <g transform="translate(44.2375 311.383219) scale(0.1 -0.1)">
       <use xlink:href="#DejaVuSans-30"/>
      </g>
     </g>
    </g>
    <g id="ytick_2">
     <g id="line2d_7">
      <g>
       <use xlink:href="#m904c1baea0" x="57.6" y="266.036459" style="stroke: #000000; stroke-width: 0.8"/>
      </g>
     </g>
     <g id="text_8">
      <!-- 20 -->
      <g transform="translate(37.875 269.835678) scale(0.1 -0.1)">
       <use xlink:href="#DejaVuSans-32"/>
       <use xlink:href="#DejaVuSans-30" x="63.623047"/>
      </g>
     </g>
    </g>
    <g id="ytick_3">
     <g id="line2d_8">
      <g>
       <use xlink:href="#m904c1baea0" x="57.6" y="224.488918" style="stroke: #000000; stroke-width: 0.8"/>
      </g>
     </g>
     <g id="text_9">
      <!-- 40 -->
      <g transform="translate(37.875 228.288137) scale(0.1 -0.1)">
       <defs>
        <path id="DejaVuSans-34" d="M 2419 4116 
L 825 1625 
L 2419 1625 
L 2419 4116 
z
M 2253 4666 
L 3047 4666 
L 3047 1625 
L 3713 1625 
L 3713 1100 
L 3047 1100 
L 3047 0 
L 2419 0 
L 2419 1100 
L 313 1100 
L 313 1709 
L 2253 4666 
z
" transform="scale(0.015625)"/>
       </defs>
       <use xlink:href="#DejaVuSans-34"/>
       <use xlink:href="#DejaVuSans-30" x="63.623047"/>
      </g>
     </g>
    </g>
    <g id="ytick_4">
     <g id="line2d_9">
      <g>
       <use xlink:href="#m904c1baea0" x="57.6" y="182.941377" style="stroke: #000000; stroke-width: 0.8"/>
      </g>
     </g>
     <g id="text_10">
      <!-- 60 -->
      <g transform="translate(37.875 186.740596) scale(0.1 -0.1)">
       <defs>
        <path id="DejaVuSans-36" d="M 2113 2584 
Q 1688 2584 1439 2293 
Q 1191 2003 1191 1497 
Q 1191 994 1439 701 
Q 1688 409 2113 409 
Q 2538 409 2786 701 
Q 3034 994 3034 1497 
Q 3034 2003 2786 2293 
Q 2538 2584 2113 2584 
z
M 3366 4563 
L 3366 3988 
Q 3128 4100 2886 4159 
Q 2644 4219 2406 4219 
Q 1781 4219 1451 3797 
Q 1122 3375 1075 2522 
Q 1259 2794 1537 2939 
Q 1816 3084 2150 3084 
Q 2853 3084 3261 2657 
Q 3669 2231 3669 1497 
Q 3669 778 3244 343 
Q 2819 -91 2113 -91 
Q 1303 -91 875 529 
Q 447 1150 447 2328 
Q 447 3434 972 4092 
Q 1497 4750 2381 4750 
Q 2619 4750 2861 4703 
Q 3103 4656 3366 4563 
z
" transform="scale(0.015625)"/>
       </defs>
       <use xlink:href="#DejaVuSans-36"/>
       <use xlink:href="#DejaVuSans-30" x="63.623047"/>
      </g>
     </g>
    </g>
    <g id="ytick_5">
     <g id="line2d_10">
      <g>
       <use xlink:href="#m904c1baea0" x="57.6" y="141.393836" style="stroke: #000000; stroke-width: 0.8"/>
      </g>
     </g>
     <g id="text_11">
      <!-- 80 -->
      <g transform="translate(37.875 145.193055) scale(0.1 -0.1)">
       <defs>
        <path id="DejaVuSans-38" d="M 2034 2216 
Q 1584 2216 1326 1975 
Q 1069 1734 1069 1313 
Q 1069 891 1326 650 
Q 1584 409 2034 409 
Q 2484 409 2743 651 
Q 3003 894 3003 1313 
Q 3003 1734 2745 1975 
Q 2488 2216 2034 2216 
z
M 1403 2484 
Q 997 2584 770 2862 
Q 544 3141 544 3541 
Q 544 4100 942 4425 
Q 1341 4750 2034 4750 
Q 2731 4750 3128 4425 
Q 3525 4100 3525 3541 
Q 3525 3141 3298 2862 
Q 3072 2584 2669 2484 
Q 3125 2378 3379 2068 
Q 3634 1759 3634 1313 
Q 3634 634 3220 271 
Q 2806 -91 2034 -91 
Q 1263 -91 848 271 
Q 434 634 434 1313 
Q 434 1759 690 2068 
Q 947 2378 1403 2484 
z
M 1172 3481 
Q 1172 3119 1398 2916 
Q 1625 2713 2034 2713 
Q 2441 2713 2670 2916 
Q 2900 3119 2900 3481 
Q 2900 3844 2670 4047 
Q 2441 4250 2034 4250 
Q 1625 4250 1398 4047 
Q 1172 3844 1172 3481 
z
" transform="scale(0.015625)"/>
       </defs>
       <use xlink:href="#DejaVuSans-38"/>
       <use xlink:href="#DejaVuSans-30" x="63.623047"/>
      </g>
     </g>
    </g>
    <g id="ytick_6">
     <g id="line2d_11">
      <g>
       <use xlink:href="#m904c1baea0" x="57.6" y="99.846295" style="stroke: #000000; stroke-width: 0.8"/>
      </g>
     </g>
     <g id="text_12">
      <!-- 100 -->
      <g transform="translate(31.5125 103.645514) scale(0.1 -0.1)">
       <use xlink:href="#DejaVuSans-31"/>
       <use xlink:href="#DejaVuSans-30" x="63.623047"/>
       <use xlink:href="#DejaVuSans-30" x="127.246094"/>
      </g>
     </g>
    </g>
    <g id="ytick_7">
     <g id="line2d_12">
      <g>
       <use xlink:href="#m904c1baea0" x="57.6" y="58.298754" style="stroke: #000000; stroke-width: 0.8"/>
      </g>
     </g>
     <g id="text_13">
      <!-- 120 -->
      <g transform="translate(31.5125 62.097973) scale(0.1 -0.1)">
       <use xlink:href="#DejaVuSans-31"/>
       <use xlink:href="#DejaVuSans-32" x="63.623047"/>
       <use xlink:href="#DejaVuSans-30" x="127.246094"/>
      </g>
     </g>
    </g>
    <g id="text_14">
     <!-- Number of crosslinks -->
     <g transform="translate(25.432812 227.019406) rotate(-90) scale(0.1 -0.1)">
      <defs>
       <path id="DejaVuSans-4e" d="M 628 4666 
L 1478 4666 
L 3547 763 
L 3547 4666 
L 4159 4666 
L 4159 0 
L 3309 0 
L 1241 3903 
L 1241 0 
L 628 0 
L 628 4666 
z
" transform="scale(0.015625)"/>
       <path id="DejaVuSans-75" d="M 544 1381 
L 544 3500 
L 1119 3500 
L 1119 1403 
Q 1119 906 1312 657 
Q 1506 409 1894 409 
Q 2359 409 2629 706 
Q 2900 1003 2900 1516 
L 2900 3500 
L 3475 3500 
L 3475 0 
L 2900 0 
L 2900 538 
Q 2691 219 2414 64 
Q 2138 -91 1772 -91 
Q 1169 -91 856 284 
Q 544 659 544 1381 
z
M 1991 3584 
L 1991 3584 
z
" transform="scale(0.015625)"/>
       <path id="DejaVuSans-6d" d="M 3328 2828 
Q 3544 3216 3844 3400 
Q 4144 3584 4550 3584 
Q 5097 3584 5394 3201 
Q 5691 2819 5691 2113 
L 5691 0 
L 5113 0 
L 5113 2094 
Q 5113 2597 4934 2840 
Q 4756 3084 4391 3084 
Q 3944 3084 3684 2787 
Q 3425 2491 3425 1978 
L 3425 0 
L 2847 0 
L 2847 2094 
Q 2847 2600 2669 2842 
Q 2491 3084 2119 3084 
Q 1678 3084 1418 2786 
Q 1159 2488 1159 1978 
L 1159 0 
L 581 0 
L 581 3500 
L 1159 3500 
L 1159 2956 
Q 1356 3278 1631 3431 
Q 1906 3584 2284 3584 
Q 2666 3584 2933 3390 
Q 3200 3197 3328 2828 
z
" transform="scale(0.015625)"/>
       <path id="DejaVuSans-62" d="M 3116 1747 
Q 3116 2381 2855 2742 
Q 2594 3103 2138 3103 
Q 1681 3103 1420 2742 
Q 1159 2381 1159 1747 
Q 1159 1113 1420 752 
Q 1681 391 2138 391 
Q 2594 391 2855 752 
Q 3116 1113 3116 1747 
z
M 1159 2969 
Q 1341 3281 1617 3432 
Q 1894 3584 2278 3584 
Q 2916 3584 3314 3078 
Q 3713 2572 3713 1747 
Q 3713 922 3314 415 
Q 2916 -91 2278 -91 
Q 1894 -91 1617 61 
Q 1341 213 1159 525 
L 1159 0 
L 581 0 
L 581 4863 
L 1159 4863 
L 1159 2969 
z
" transform="scale(0.015625)"/>
       <path id="DejaVuSans-20" transform="scale(0.015625)"/>
       <path id="DejaVuSans-66" d="M 2375 4863 
L 2375 4384 
L 1825 4384 
Q 1516 4384 1395 4259 
Q 1275 4134 1275 3809 
L 1275 3500 
L 2222 3500 
L 2222 3053 
L 1275 3053 
L 1275 0 
L 697 0 
L 697 3053 
L 147 3053 
L 147 3500 
L 697 3500 
L 697 3744 
Q 697 4328 969 4595 
Q 1241 4863 1831 4863 
L 2375 4863 
z
" transform="scale(0.015625)"/>
       <path id="DejaVuSans-73" d="M 2834 3397 
L 2834 2853 
Q 2591 2978 2328 3040 
Q 2066 3103 1784 3103 
Q 1356 3103 1142 2972 
Q 928 2841 928 2578 
Q 928 2378 1081 2264 
Q 1234 2150 1697 2047 
L 1894 2003 
Q 2506 1872 2764 1633 
Q 3022 1394 3022 966 
Q 3022 478 2636 193 
Q 2250 -91 1575 -91 
Q 1294 -91 989 -36 
Q 684 19 347 128 
L 347 722 
Q 666 556 975 473 
Q 1284 391 1588 391 
Q 1994 391 2212 530 
Q 2431 669 2431 922 
Q 2431 1156 2273 1281 
Q 2116 1406 1581 1522 
L 1381 1569 
Q 847 1681 609 1914 
Q 372 2147 372 2553 
Q 372 3047 722 3315 
Q 1072 3584 1716 3584 
Q 2034 3584 2315 3537 
Q 2597 3491 2834 3397 
z
" transform="scale(0.015625)"/>
       <path id="DejaVuSans-6c" d="M 603 4863 
L 1178 4863 
L 1178 0 
L 603 0 
L 603 4863 
z
" transform="scale(0.015625)"/>
       <path id="DejaVuSans-69" d="M 603 3500 
L 1178 3500 
L 1178 0 
L 603 0 
L 603 3500 
z
M 603 4863 
L 1178 4863 
L 1178 4134 
L 603 4134 
L 603 4863 
z
" transform="scale(0.015625)"/>
       <path id="DejaVuSans-6e" d="M 3513 2113 
L 3513 0 
L 2938 0 
L 2938 2094 
Q 2938 2591 2744 2837 
Q 2550 3084 2163 3084 
Q 1697 3084 1428 2787 
Q 1159 2491 1159 1978 
L 1159 0 
L 581 0 
L 581 3500 
L 1159 3500 
L 1159 2956 
Q 1366 3272 1645 3428 
Q 1925 3584 2291 3584 
Q 2894 3584 3203 3211 
Q 3513 2838 3513 2113 
z
" transform="scale(0.015625)"/>
       <path id="DejaVuSans-6b" d="M 581 4863 
L 1159 4863 
L 1159 1991 
L 2875 3500 
L 3609 3500 
L 1753 1863 
L 3688 0 
L 2938 0 
L 1159 1709 
L 1159 0 
L 581 0 
L 581 4863 
z
" transform="scale(0.015625)"/>
      </defs>
      <use xlink:href="#DejaVuSans-4e"/>
      <use xlink:href="#DejaVuSans-75" x="74.804688"/>
      <use xlink:href="#DejaVuSans-6d" x="138.183594"/>
      <use xlink:href="#DejaVuSans-62" x="235.595703"/>
      <use xlink:href="#DejaVuSans-65" x="299.072266"/>
      <use xlink:href="#DejaVuSans-72" x="360.595703"/>
      <use xlink:href="#DejaVuSans-20" x="401.708984"/>
      <use xlink:href="#DejaVuSans-6f" x="433.496094"/>
      <use xlink:href="#DejaVuSans-66" x="494.677734"/>
      <use xlink:href="#DejaVuSans-20" x="529.882812"/>
      <use xlink:href="#DejaVuSans-63" x="561.669922"/>
      <use xlink:href="#DejaVuSans-72" x="616.650391"/>
      <use xlink:href="#DejaVuSans-6f" x="655.513672"/>
      <use xlink:href="#DejaVuSans-73" x="716.695312"/>
      <use xlink:href="#DejaVuSans-73" x="768.794922"/>
      <use xlink:href="#DejaVuSans-6c" x="820.894531"/>
      <use xlink:href="#DejaVuSans-69" x="848.677734"/>
      <use xlink:href="#DejaVuSans-6e" x="876.460938"/>
      <use xlink:href="#DejaVuSans-6b" x="939.839844"/>
      <use xlink:href="#DejaVuSans-73" x="997.75"/>
     </g>
    </g>
   </g>
   <g id="patch_3">
    <path d="M 57.6 307.584 
L 57.6 41.472 
" style="fill: none; stroke: #000000; stroke-width: 0.8; stroke-linejoin: miter; stroke-linecap: square"/>
   </g>
   <g id="patch_4">
    <path d="M 414.72 307.584 
L 414.72 41.472 
" style="fill: none; stroke: #000000; stroke-width: 0.8; stroke-linejoin: miter; stroke-linecap: square"/>
   </g>
   <g id="patch_5">
    <path d="M 57.6 307.584 
L 414.72 307.584 
" style="fill: none; stroke: #000000; stroke-width: 0.8; stroke-linejoin: miter; stroke-linecap: square"/>
   </g>
   <g id="patch_6">
    <path d="M 57.6 41.472 
L 414.72 41.472 
" style="fill: none; stroke: #000000; stroke-width: 0.8; stroke-linejoin: miter; stroke-linecap: square"/>
   </g>
   <g id="legend_1">
    <g id="patch_7">
     <path d="M 293.087188 93.506375 
L 407.72 93.506375 
Q 409.72 93.506375 409.72 91.506375 
L 409.72 48.472 
Q 409.72 46.472 407.72 46.472 
L 293.087188 46.472 
Q 291.087188 46.472 291.087188 48.472 
L 291.087188 91.506375 
Q 291.087188 93.506375 293.087188 93.506375 
z
" style="fill: #ffffff; opacity: 0.8; stroke: #cccccc; stroke-linejoin: miter"/>
    </g>
    <g id="patch_8">
     <path d="M 295.087188 58.070438 
L 315.087188 58.070438 
L 315.087188 51.070438 
L 295.087188 51.070438 
z
" style="fill: #008000"/>
    </g>
    <g id="text_15">
     <!-- true -->
     <g transform="translate(323.087188 58.070438) scale(0.1 -0.1)">
      <defs>
       <path id="DejaVuSans-74" d="M 1172 4494 
L 1172 3500 
L 2356 3500 
L 2356 3053 
L 1172 3053 
L 1172 1153 
Q 1172 725 1289 603 
Q 1406 481 1766 481 
L 2356 481 
L 2356 0 
L 1766 0 
Q 1100 0 847 248 
Q 594 497 594 1153 
L 594 3053 
L 172 3053 
L 172 3500 
L 594 3500 
L 594 4494 
L 1172 4494 
z
" transform="scale(0.015625)"/>
      </defs>
      <use xlink:href="#DejaVuSans-74"/>
      <use xlink:href="#DejaVuSans-72" x="39.208984"/>
      <use xlink:href="#DejaVuSans-75" x="80.322266"/>
      <use xlink:href="#DejaVuSans-65" x="143.701172"/>
     </g>
    </g>
    <g id="patch_9">
     <path d="M 295.087188 72.748563 
L 315.087188 72.748563 
L 315.087188 65.748563 
L 295.087188 65.748563 
z
" style="fill: #7cfc00"/>
    </g>
    <g id="text_16">
     <!-- true homeotypic -->
     <g transform="translate(323.087188 72.748563) scale(0.1 -0.1)">
      <defs>
       <path id="DejaVuSans-68" d="M 3513 2113 
L 3513 0 
L 2938 0 
L 2938 2094 
Q 2938 2591 2744 2837 
Q 2550 3084 2163 3084 
Q 1697 3084 1428 2787 
Q 1159 2491 1159 1978 
L 1159 0 
L 581 0 
L 581 4863 
L 1159 4863 
L 1159 2956 
Q 1366 3272 1645 3428 
Q 1925 3584 2291 3584 
Q 2894 3584 3203 3211 
Q 3513 2838 3513 2113 
z
" transform="scale(0.015625)"/>
       <path id="DejaVuSans-79" d="M 2059 -325 
Q 1816 -950 1584 -1140 
Q 1353 -1331 966 -1331 
L 506 -1331 
L 506 -850 
L 844 -850 
Q 1081 -850 1212 -737 
Q 1344 -625 1503 -206 
L 1606 56 
L 191 3500 
L 800 3500 
L 1894 763 
L 2988 3500 
L 3597 3500 
L 2059 -325 
z
" transform="scale(0.015625)"/>
       <path id="DejaVuSans-70" d="M 1159 525 
L 1159 -1331 
L 581 -1331 
L 581 3500 
L 1159 3500 
L 1159 2969 
Q 1341 3281 1617 3432 
Q 1894 3584 2278 3584 
Q 2916 3584 3314 3078 
Q 3713 2572 3713 1747 
Q 3713 922 3314 415 
Q 2916 -91 2278 -91 
Q 1894 -91 1617 61 
Q 1341 213 1159 525 
z
M 3116 1747 
Q 3116 2381 2855 2742 
Q 2594 3103 2138 3103 
Q 1681 3103 1420 2742 
Q 1159 2381 1159 1747 
Q 1159 1113 1420 752 
Q 1681 391 2138 391 
Q 2594 391 2855 752 
Q 3116 1113 3116 1747 
z
" transform="scale(0.015625)"/>
      </defs>
      <use xlink:href="#DejaVuSans-74"/>
      <use xlink:href="#DejaVuSans-72" x="39.208984"/>
      <use xlink:href="#DejaVuSans-75" x="80.322266"/>
      <use xlink:href="#DejaVuSans-65" x="143.701172"/>
      <use xlink:href="#DejaVuSans-20" x="205.224609"/>
      <use xlink:href="#DejaVuSans-68" x="237.011719"/>
      <use xlink:href="#DejaVuSans-6f" x="300.390625"/>
      <use xlink:href="#DejaVuSans-6d" x="361.572266"/>
      <use xlink:href="#DejaVuSans-65" x="458.984375"/>
      <use xlink:href="#DejaVuSans-6f" x="520.507812"/>
      <use xlink:href="#DejaVuSans-74" x="581.689453"/>
      <use xlink:href="#DejaVuSans-79" x="620.898438"/>
      <use xlink:href="#DejaVuSans-70" x="680.078125"/>
      <use xlink:href="#DejaVuSans-69" x="743.554688"/>
      <use xlink:href="#DejaVuSans-63" x="771.337891"/>
     </g>
    </g>
    <g id="patch_10">
     <path d="M 295.087188 87.426688 
L 315.087188 87.426688 
L 315.087188 80.426688 
L 295.087188 80.426688 
z
" style="fill: #ff0000"/>
    </g>
    <g id="text_17">
     <!-- false -->
     <g transform="translate(323.087188 87.426688) scale(0.1 -0.1)">
      <defs>
       <path id="DejaVuSans-61" d="M 2194 1759 
Q 1497 1759 1228 1600 
Q 959 1441 959 1056 
Q 959 750 1161 570 
Q 1363 391 1709 391 
Q 2188 391 2477 730 
Q 2766 1069 2766 1631 
L 2766 1759 
L 2194 1759 
z
M 3341 1997 
L 3341 0 
L 2766 0 
L 2766 531 
Q 2569 213 2275 61 
Q 1981 -91 1556 -91 
Q 1019 -91 701 211 
Q 384 513 384 1019 
Q 384 1609 779 1909 
Q 1175 2209 1959 2209 
L 2766 2209 
L 2766 2266 
Q 2766 2663 2505 2880 
Q 2244 3097 1772 3097 
Q 1472 3097 1187 3025 
Q 903 2953 641 2809 
L 641 3341 
Q 956 3463 1253 3523 
Q 1550 3584 1831 3584 
Q 2591 3584 2966 3190 
Q 3341 2797 3341 1997 
z
" transform="scale(0.015625)"/>
      </defs>
      <use xlink:href="#DejaVuSans-66"/>
      <use xlink:href="#DejaVuSans-61" x="35.205078"/>
      <use xlink:href="#DejaVuSans-6c" x="96.484375"/>
      <use xlink:href="#DejaVuSans-73" x="124.267578"/>
      <use xlink:href="#DejaVuSans-65" x="176.367188"/>
     </g>
    </g>
   </g>
  </g>
 </g>
 <defs>
  <clipPath id="p751a65db9b">
   <rect x="57.6" y="41.472" width="357.12" height="266.112"/>
  </clipPath>
 </defs>
</svg>
