<?xml version="1.0" encoding="utf-8" standalone="no"?>
<!DOCTYPE svg PUBLIC "-//W3C//DTD SVG 1.1//EN"
  "http://www.w3.org/Graphics/SVG/1.1/DTD/svg11.dtd">
<svg xmlns:xlink="http://www.w3.org/1999/xlink" width="306.747477pt" height="280.512pt" viewBox="0 0 306.747477 280.512" xmlns="http://www.w3.org/2000/svg" version="1.1">
 <metadata>
  <rdf:RDF xmlns:dc="http://purl.org/dc/elements/1.1/" xmlns:cc="http://creativecommons.org/ns#" xmlns:rdf="http://www.w3.org/1999/02/22-rdf-syntax-ns#">
   <cc:Work>
    <dc:type rdf:resource="http://purl.org/dc/dcmitype/StillImage"/>
    <dc:date>2024-07-25T01:01:39.092418</dc:date>
    <dc:format>image/svg+xml</dc:format>
    <dc:creator>
     <cc:Agent>
      <dc:title>Matplotlib v3.9.0, https://matplotlib.org/</dc:title>
     </cc:Agent>
    </dc:creator>
   </cc:Work>
  </rdf:RDF>
 </metadata>
 <defs>
  <style type="text/css">*{stroke-linejoin: round; stroke-linecap: butt}</style>
 </defs>
 <g id="figure_1">
  <g id="patch_1">
   <path d="M 0 280.512 
L 306.747477 280.512 
L 306.747477 0 
L 0 0 
L 0 280.512 
z
" style="fill: none"/>
  </g>
  <g id="axes_1">
   <g id="patch_2">
    <path d="M 123.165338 46.798382 
C 103.270199 42.982005 82.649615 46.835874 65.475794 57.580228 
C 48.301972 68.324582 35.816952 85.18237 30.546853 104.742722 
C 25.276755 124.303073 27.60272 145.15135 37.054133 163.069277 
C 46.505546 180.987203 62.398863 194.678925 81.518356 201.374166 
C 76.296569 189.649103 73.746961 176.908229 74.054656 164.076648 
C 74.362351 151.245066 77.519717 138.641043 83.297502 127.179744 
C 83.04913 111.573601 86.538746 96.132234 93.473945 82.149516 
C 100.409143 68.166797 110.590653 56.044499 123.165338 46.798382 
" clip-path="url(#p2d34844aa7)" style="fill: #00b4d8; opacity: 0.6"/>
   </g>
   <g id="patch_3">
    <path d="M 123.165338 46.798382 
C 133.542494 48.788975 143.425146 52.809328 152.244917 58.628218 
C 161.064687 64.447108 168.649187 71.950801 174.562212 80.70774 
C 188.004341 82.903276 200.740574 88.240219 211.732343 96.283369 
C 222.724111 104.326519 231.664293 114.851144 237.823867 126.999019 
C 243.983442 139.146894 247.190304 152.578596 247.182953 166.198845 
C 247.175601 179.819094 243.954241 193.247326 237.781557 205.388545 
C 248.311409 197.909282 257.256785 188.418449 264.100435 177.464838 
C 270.944086 166.511226 275.551511 154.310108 277.656296 141.56699 
C 279.761081 128.823873 279.32186 115.789198 276.36403 103.216673 
C 273.406199 90.644147 267.98789 78.78086 260.422406 68.312784 
C 252.856923 57.844708 243.29295 48.977573 232.283506 42.224106 
C 221.274063 35.470639 209.03552 30.963566 196.275547 28.9635 
C 183.515574 26.963434 170.484947 27.509683 157.937135 30.570661 
C 145.389323 33.631639 133.570932 39.147188 123.165338 46.798382 
" clip-path="url(#p2d34844aa7)" style="fill: #caf0f8; opacity: 0.6"/>
   </g>
   <g id="patch_4">
    <path d="M 123.165338 46.798382 
C 110.590653 56.044499 100.409143 68.166797 93.473945 82.149516 
C 86.538746 96.132234 83.04913 111.573601 83.297502 127.179744 
C 91.587133 110.735736 104.91103 97.35779 121.321344 89.001655 
C 137.731658 80.645521 156.387738 77.739258 174.562212 80.70774 
C 168.649187 71.950801 161.064687 64.447108 152.244917 58.628218 
C 143.425146 52.809328 133.542494 48.788975 123.165338 46.798382 
" clip-path="url(#p2d34844aa7)" style="fill: #8dffff; opacity: 0.6"/>
   </g>
   <g id="patch_5">
    <path d="M 81.518356 201.374166 
C 88.172472 216.315397 98.926347 229.069516 112.528557 238.152329 
C 126.130768 247.235143 142.032392 252.280112 158.382964 252.700156 
C 174.733535 253.1202 190.873222 248.898367 204.923855 240.525951 
C 218.974488 232.153535 230.369049 219.968407 237.781557 205.388545 
C 221.007571 217.302964 200.895228 223.628026 180.32118 223.459064 
C 159.747132 223.290101 139.741383 216.635573 123.165338 204.44727 
C 116.240415 205.775641 109.170538 206.185681 102.138478 205.666789 
C 95.106418 205.147898 88.173299 203.704586 81.518356 201.374166 
" clip-path="url(#p2d34844aa7)" style="fill: #03045e; opacity: 0.6"/>
   </g>
   <g id="patch_6">
    <path d="M 81.518356 201.374166 
C 88.173299 203.704586 95.106418 205.147898 102.138478 205.666789 
C 109.170538 206.185681 116.240415 205.775641 123.165338 204.44727 
C 111.014467 195.512782 101.092448 183.888513 94.176833 170.485416 
C 87.261218 157.082318 83.537503 142.259902 83.297502 127.179744 
C 77.519717 138.641043 74.362351 151.245066 74.054656 164.076648 
C 73.746961 176.908229 76.296569 189.649103 81.518356 201.374166 
" clip-path="url(#p2d34844aa7)" style="fill: #0281d9; opacity: 0.6"/>
   </g>
   <g id="patch_7">
    <path d="M 174.562212 80.70774 
C 181.992537 91.711738 186.577441 104.389487 187.904543 117.600713 
C 189.231645 130.81194 187.259929 144.148318 182.166735 156.410337 
C 177.073541 168.672355 169.016289 179.481024 158.719669 187.864182 
C 148.423049 196.24734 136.205306 201.945884 123.165338 204.44727 
C 139.741383 216.635573 159.747132 223.290101 180.32118 223.459064 
C 200.895228 223.628026 221.007571 217.302964 237.781557 205.388545 
C 243.954241 193.247326 247.175601 179.819094 247.182953 166.198845 
C 247.190304 152.578596 243.983442 139.146894 237.823867 126.999019 
C 231.664293 114.851144 222.724111 104.326519 211.732343 96.283369 
C 200.740574 88.240219 188.004341 82.903276 174.562212 80.70774 
" clip-path="url(#p2d34844aa7)" style="fill: #8fabef; opacity: 0.6"/>
   </g>
   <g id="patch_8">
    <path d="M 83.297502 127.179744 
C 83.537503 142.259902 87.261218 157.082318 94.176833 170.485416 
C 101.092448 183.888513 111.014467 195.512782 123.165338 204.44727 
C 136.205306 201.945884 148.423049 196.24734 158.719669 187.864182 
C 169.016289 179.481024 177.073541 168.672355 182.166735 156.410337 
C 187.259929 144.148318 189.231645 130.81194 187.904543 117.600713 
C 186.577441 104.389487 181.992537 91.711738 174.562212 80.70774 
C 156.387738 77.739258 137.731658 80.645521 121.321344 89.001655 
C 104.91103 97.35779 91.587133 110.735736 83.297502 127.179744 
" clip-path="url(#p2d34844aa7)" style="fill: #52aadf; opacity: 0.6"/>
   </g>
   <g id="text_1">
    <!-- 74 -->
    <g transform="translate(44.564318 113.924883) scale(0.1 -0.1)">
     <defs>
      <path id="DejaVuSans-37" d="M 525 4666 
L 3525 4666 
L 3525 4397 
L 1831 0 
L 1172 0 
L 2766 4134 
L 525 4134 
L 525 4666 
z
" transform="scale(0.015625)"/>
      <path id="DejaVuSans-34" d="M 2419 4116 
L 825 1625 
L 2419 1625 
L 2419 4116 
z
M 2253 4666 
L 3047 4666 
L 3047 1625 
L 3713 1625 
L 3713 1100 
L 3047 1100 
L 3047 0 
L 2419 0 
L 2419 1100 
L 313 1100 
L 313 1709 
L 2253 4666 
z
" transform="scale(0.015625)"/>
     </defs>
     <use xlink:href="#DejaVuSans-37"/>
     <use xlink:href="#DejaVuSans-34" x="63.623047"/>
    </g>
   </g>
   <g id="text_2">
    <!-- 102 -->
    <g transform="translate(228.9643 88.697429) scale(0.1 -0.1)">
     <defs>
      <path id="DejaVuSans-31" d="M 794 531 
L 1825 531 
L 1825 4091 
L 703 3866 
L 703 4441 
L 1819 4666 
L 2450 4666 
L 2450 531 
L 3481 531 
L 3481 0 
L 794 0 
L 794 531 
z
" transform="scale(0.015625)"/>
      <path id="DejaVuSans-30" d="M 2034 4250 
Q 1547 4250 1301 3770 
Q 1056 3291 1056 2328 
Q 1056 1369 1301 889 
Q 1547 409 2034 409 
Q 2525 409 2770 889 
Q 3016 1369 3016 2328 
Q 3016 3291 2770 3770 
Q 2525 4250 2034 4250 
z
M 2034 4750 
Q 2819 4750 3233 4129 
Q 3647 3509 3647 2328 
Q 3647 1150 3233 529 
Q 2819 -91 2034 -91 
Q 1250 -91 836 529 
Q 422 1150 422 2328 
Q 422 3509 836 4129 
Q 1250 4750 2034 4750 
z
" transform="scale(0.015625)"/>
      <path id="DejaVuSans-32" d="M 1228 531 
L 3431 531 
L 3431 0 
L 469 0 
L 469 531 
Q 828 903 1448 1529 
Q 2069 2156 2228 2338 
Q 2531 2678 2651 2914 
Q 2772 3150 2772 3378 
Q 2772 3750 2511 3984 
Q 2250 4219 1831 4219 
Q 1534 4219 1204 4116 
Q 875 4013 500 3803 
L 500 4441 
Q 881 4594 1212 4672 
Q 1544 4750 1819 4750 
Q 2544 4750 2975 4387 
Q 3406 4025 3406 3419 
Q 3406 3131 3298 2873 
Q 3191 2616 2906 2266 
Q 2828 2175 2409 1742 
Q 1991 1309 1228 531 
z
" transform="scale(0.015625)"/>
     </defs>
     <use xlink:href="#DejaVuSans-31"/>
     <use xlink:href="#DejaVuSans-30" x="63.623047"/>
     <use xlink:href="#DejaVuSans-32" x="127.246094"/>
    </g>
   </g>
   <g id="text_3">
    <!-- 23 -->
    <g transform="translate(114.232973 81.633064) scale(0.1 -0.1)">
     <defs>
      <path id="DejaVuSans-33" d="M 2597 2516 
Q 3050 2419 3304 2112 
Q 3559 1806 3559 1356 
Q 3559 666 3084 287 
Q 2609 -91 1734 -91 
Q 1441 -91 1130 -33 
Q 819 25 488 141 
L 488 750 
Q 750 597 1062 519 
Q 1375 441 1716 441 
Q 2309 441 2620 675 
Q 2931 909 2931 1356 
Q 2931 1769 2642 2001 
Q 2353 2234 1838 2234 
L 1294 2234 
L 1294 2753 
L 1863 2753 
Q 2328 2753 2575 2939 
Q 2822 3125 2822 3475 
Q 2822 3834 2567 4026 
Q 2313 4219 1838 4219 
Q 1578 4219 1281 4162 
Q 984 4106 628 3988 
L 628 4550 
Q 988 4650 1302 4700 
Q 1616 4750 1894 4750 
Q 2613 4750 3031 4423 
Q 3450 4097 3450 3541 
Q 3450 3153 3228 2886 
Q 3006 2619 2597 2516 
z
" transform="scale(0.015625)"/>
     </defs>
     <use xlink:href="#DejaVuSans-32"/>
     <use xlink:href="#DejaVuSans-33" x="63.623047"/>
    </g>
   </g>
   <g id="text_4">
    <!-- 44 -->
    <g transform="translate(151.487925 240.23583) scale(0.1 -0.1)">
     <use xlink:href="#DejaVuSans-34"/>
     <use xlink:href="#DejaVuSans-34" x="63.623047"/>
    </g>
   </g>
   <g id="text_5">
    <!-- 12 -->
    <g transform="translate(81.96988 178.748266) scale(0.1 -0.1)">
     <use xlink:href="#DejaVuSans-31"/>
     <use xlink:href="#DejaVuSans-32" x="63.623047"/>
    </g>
   </g>
   <g id="text_6">
    <!-- 88 -->
    <g transform="translate(195.83602 164.780446) scale(0.1 -0.1)">
     <defs>
      <path id="DejaVuSans-38" d="M 2034 2216 
Q 1584 2216 1326 1975 
Q 1069 1734 1069 1313 
Q 1069 891 1326 650 
Q 1584 409 2034 409 
Q 2484 409 2743 651 
Q 3003 894 3003 1313 
Q 3003 1734 2745 1975 
Q 2488 2216 2034 2216 
z
M 1403 2484 
Q 997 2584 770 2862 
Q 544 3141 544 3541 
Q 544 4100 942 4425 
Q 1341 4750 2034 4750 
Q 2731 4750 3128 4425 
Q 3525 4100 3525 3541 
Q 3525 3141 3298 2862 
Q 3072 2584 2669 2484 
Q 3125 2378 3379 2068 
Q 3634 1759 3634 1313 
Q 3634 634 3220 271 
Q 2806 -91 2034 -91 
Q 1263 -91 848 271 
Q 434 634 434 1313 
Q 434 1759 690 2068 
Q 947 2378 1403 2484 
z
M 1172 3481 
Q 1172 3119 1398 2916 
Q 1625 2713 2034 2713 
Q 2441 2713 2670 2916 
Q 2900 3119 2900 3481 
Q 2900 3844 2670 4047 
Q 2441 4250 2034 4250 
Q 1625 4250 1398 4047 
Q 1172 3844 1172 3481 
z
" transform="scale(0.015625)"/>
     </defs>
     <use xlink:href="#DejaVuSans-38"/>
     <use xlink:href="#DejaVuSans-38" x="63.623047"/>
    </g>
   </g>
   <g id="text_7">
    <!-- 105 -->
    <g transform="translate(134.648588 141.782453) scale(0.1 -0.1)">
     <defs>
      <path id="DejaVuSans-35" d="M 691 4666 
L 3169 4666 
L 3169 4134 
L 1269 4134 
L 1269 2991 
Q 1406 3038 1543 3061 
Q 1681 3084 1819 3084 
Q 2600 3084 3056 2656 
Q 3513 2228 3513 1497 
Q 3513 744 3044 326 
Q 2575 -91 1722 -91 
Q 1428 -91 1123 -41 
Q 819 9 494 109 
L 494 744 
Q 775 591 1075 516 
Q 1375 441 1709 441 
Q 2250 441 2565 725 
Q 2881 1009 2881 1497 
Q 2881 1984 2565 2268 
Q 2250 2553 1709 2553 
Q 1456 2553 1204 2497 
Q 953 2441 691 2322 
L 691 4666 
z
" transform="scale(0.015625)"/>
     </defs>
     <use xlink:href="#DejaVuSans-31"/>
     <use xlink:href="#DejaVuSans-30" x="63.623047"/>
     <use xlink:href="#DejaVuSans-35" x="127.246094"/>
    </g>
   </g>
   <g id="text_8">
    <!-- R1 -->
    <g transform="translate(51.940955 45.361244) scale(0.12 -0.12)">
     <defs>
      <path id="DejaVuSans-52" d="M 2841 2188 
Q 3044 2119 3236 1894 
Q 3428 1669 3622 1275 
L 4263 0 
L 3584 0 
L 2988 1197 
Q 2756 1666 2539 1819 
Q 2322 1972 1947 1972 
L 1259 1972 
L 1259 0 
L 628 0 
L 628 4666 
L 2053 4666 
Q 2853 4666 3247 4331 
Q 3641 3997 3641 3322 
Q 3641 2881 3436 2590 
Q 3231 2300 2841 2188 
z
M 1259 4147 
L 1259 2491 
L 2053 2491 
Q 2509 2491 2742 2702 
Q 2975 2913 2975 3322 
Q 2975 3731 2742 3939 
Q 2509 4147 2053 4147 
L 1259 4147 
z
" transform="scale(0.015625)"/>
     </defs>
     <use xlink:href="#DejaVuSans-52"/>
     <use xlink:href="#DejaVuSans-31" x="69.482422"/>
    </g>
   </g>
   <g id="text_9">
    <!-- R2 -->
    <g transform="translate(230.044419 27.783289) scale(0.12 -0.12)">
     <use xlink:href="#DejaVuSans-52"/>
     <use xlink:href="#DejaVuSans-32" x="69.482422"/>
    </g>
   </g>
   <g id="text_10">
    <!-- R3 -->
    <g transform="translate(152.619808 270.504496) scale(0.12 -0.12)">
     <use xlink:href="#DejaVuSans-52"/>
     <use xlink:href="#DejaVuSans-33" x="69.482422"/>
    </g>
   </g>
  </g>
 </g>
 <defs>
  <clipPath id="p2d34844aa7">
   <rect x="7.2" y="7.2" width="292.347477" height="266.112"/>
  </clipPath>
 </defs>
</svg>
