<?xml version="1.0" encoding="utf-8" standalone="no"?>
<!DOCTYPE svg PUBLIC "-//W3C//DTD SVG 1.1//EN"
  "http://www.w3.org/Graphics/SVG/1.1/DTD/svg11.dtd">
<svg xmlns:xlink="http://www.w3.org/1999/xlink" width="460.8pt" height="345.6pt" viewBox="0 0 460.8 345.6" xmlns="http://www.w3.org/2000/svg" version="1.1">
 <metadata>
  <rdf:RDF xmlns:dc="http://purl.org/dc/elements/1.1/" xmlns:cc="http://creativecommons.org/ns#" xmlns:rdf="http://www.w3.org/1999/02/22-rdf-syntax-ns#">
   <cc:Work>
    <dc:type rdf:resource="http://purl.org/dc/dcmitype/StillImage"/>
    <dc:date>2024-06-25T12:54:39.457570</dc:date>
    <dc:format>image/svg+xml</dc:format>
    <dc:creator>
     <cc:Agent>
      <dc:title>Matplotlib v3.9.0, https://matplotlib.org/</dc:title>
     </cc:Agent>
    </dc:creator>
   </cc:Work>
  </rdf:RDF>
 </metadata>
 <defs>
  <style type="text/css">*{stroke-linejoin: round; stroke-linecap: butt}</style>
 </defs>
 <g id="figure_1">
  <g id="patch_1">
   <path d="M 0 345.6 
L 460.8 345.6 
L 460.8 0 
L 0 0 
z
" style="fill: #ffffff"/>
  </g>
  <g id="axes_1">
   <g id="patch_2">
    <path d="M 57.6 307.584 
L 414.72 307.584 
L 414.72 41.472 
L 57.6 41.472 
z
" style="fill: #ffffff"/>
   </g>
   <g id="PolyCollection_1">
    <path d="M 73.832727 116.498286 
L 73.832727 307.584 
L 75.846182 307.584 
L 76.541344 307.584 
L 82.614373 307.584 
L 82.626936 307.584 
L 86.580142 307.584 
L 87.410148 307.584 
L 87.631259 307.584 
L 88.41185 307.584 
L 89.679054 307.584 
L 90.133002 307.584 
L 90.362489 307.584 
L 93.710152 307.584 
L 93.909487 307.584 
L 94.508331 307.584 
L 95.292272 307.584 
L 95.616401 307.584 
L 96.248746 307.584 
L 96.953958 307.584 
L 97.228673 307.584 
L 97.716123 307.584 
L 98.469912 307.584 
L 99.108121 307.584 
L 101.417228 307.584 
L 103.511088 307.584 
L 104.497714 307.584 
L 105.76743 307.584 
L 105.857048 307.584 
L 105.932426 307.584 
L 106.080672 307.584 
L 106.795934 307.584 
L 107.170316 307.584 
L 109.83203 307.584 
L 110.575769 307.584 
L 110.942613 307.584 
L 111.21984 307.584 
L 112.47448 307.584 
L 114.080889 307.584 
L 114.521437 307.584 
L 116.732552 307.584 
L 117.315483 307.584 
L 117.921864 307.584 
L 117.972954 307.584 
L 118.56091 307.584 
L 119.963796 307.584 
L 121.875908 307.584 
L 122.159835 307.584 
L 122.282117 307.584 
L 126.408694 307.584 
L 126.744549 307.584 
L 129.130711 307.584 
L 129.935591 307.584 
L 130.215331 307.584 
L 131.84184 307.584 
L 132.46581 307.584 
L 133.970876 307.584 
L 135.212954 307.584 
L 135.663552 307.584 
L 137.717209 307.584 
L 138.10583 307.584 
L 138.245699 307.584 
L 139.233163 307.584 
L 141.28347 307.584 
L 141.674603 307.584 
L 141.75082 307.584 
L 141.894877 307.584 
L 142.81115 307.584 
L 142.925056 307.584 
L 142.992059 307.584 
L 145.098482 307.584 
L 145.942726 307.584 
L 146.495505 307.584 
L 146.679764 307.584 
L 146.838898 307.584 
L 146.939403 307.584 
L 147.84395 307.584 
L 147.919329 307.584 
L 148.061711 307.584 
L 148.262722 307.584 
L 148.363227 307.584 
L 151.29463 307.584 
L 153.346612 307.584 
L 153.824012 307.584 
L 154.301412 307.584 
L 154.812313 307.584 
L 155.013324 307.584 
L 155.356717 307.584 
L 156.345018 307.584 
L 156.67166 307.584 
L 156.872671 307.584 
L 157.04018 307.584 
L 159.159165 307.584 
L 159.25967 307.584 
L 159.577937 307.584 
L 160.666744 307.584 
L 160.69187 307.584 
L 161.395407 307.584 
L 161.956561 307.584 
L 162.224575 307.584 
L 162.41721 307.584 
L 164.569697 307.584 
L 165.457494 307.584 
L 165.490995 307.584 
L 165.549623 307.584 
L 165.733883 307.584 
L 166.487672 307.584 
L 167.911497 307.584 
L 170.097486 307.584 
L 171.395678 307.584 
L 171.512934 307.584 
L 172.132717 307.584 
L 172.216471 307.584 
L 173.121018 307.584 
L 173.263401 307.584 
L 175.583397 307.584 
L 177.476245 307.584 
L 177.610252 307.584 
L 177.844765 307.584 
L 178.80794 307.584 
L 179.243463 307.584 
L 179.511477 307.584 
L 179.595231 307.584 
L 180.725915 307.584 
L 181.094434 307.584 
L 183.288799 307.584 
L 187.459766 307.584 
L 187.510019 307.584 
L 187.744531 307.584 
L 188.154927 307.584 
L 188.707706 307.584 
L 189.352615 307.584 
L 189.645755 307.584 
L 191.680986 307.584 
L 191.689362 307.584 
L 193.238818 307.584 
L 194.403003 307.584 
L 196.119968 307.584 
L 198.305957 307.584 
L 198.666101 307.584 
L 198.975992 307.584 
L 199.721406 307.584 
L 199.821911 307.584 
L 202.837068 307.584 
L 204.344647 307.584 
L 205.500457 307.584 
L 205.994608 307.584 
L 208.590993 307.584 
L 209.562544 307.584 
L 210.534095 307.584 
L 210.910989 307.584 
L 212.401817 307.584 
L 212.720084 307.584 
L 212.870842 307.584 
L 213.976399 307.584 
L 214.353294 307.584 
L 214.822318 307.584 
L 216.296395 307.584 
L 216.8743 307.584 
L 217.401953 307.584 
L 217.586212 307.584 
L 217.803974 307.584 
L 218.892781 307.584 
L 220.224475 307.584 
L 220.71025 307.584 
L 221.145773 307.584 
L 221.246278 307.584 
L 221.37191 307.584 
L 222.083822 307.584 
L 222.737106 307.584 
L 223.00512 307.584 
L 223.77566 307.584 
L 224.504323 307.584 
L 225.718762 307.584 
L 226.891323 307.584 
L 227.636737 307.584 
L 228.373775 307.584 
L 229.403954 307.584 
L 230.434133 307.584 
L 230.970161 307.584 
L 231.037164 307.584 
L 231.44756 307.584 
L 231.916585 307.584 
L 232.31023 307.584 
L 234.764233 307.584 
L 235.794412 307.584 
L 236.204809 307.584 
L 236.229935 307.584 
L 236.71571 307.584 
L 240.518159 307.584 
L 241.824727 307.584 
L 243.148046 307.584 
L 248.20681 307.584 
L 248.650708 307.584 
L 250.51843 307.584 
L 251.18009 307.584 
L 254.521889 307.584 
L 255.032791 307.584 
L 255.593945 307.584 
L 257.813436 307.584 
L 259.195383 307.584 
L 265.95436 307.584 
L 269.999696 307.584 
L 270.259335 307.584 
L 271.716661 307.584 
L 273.458752 307.584 
L 273.51738 307.584 
L 273.542506 307.584 
L 276.524162 307.584 
L 277.855856 307.584 
L 278.12387 307.584 
L 280.41874 307.584 
L 281.75881 307.584 
L 283.609781 307.584 
L 292.228106 307.584 
L 292.998646 307.584 
L 293.007021 307.584 
L 295.310266 307.584 
L 300.854806 307.584 
L 303.459566 307.584 
L 305.687433 307.584 
L 306.156457 307.584 
L 306.667359 307.584 
L 306.851618 307.584 
L 309.933779 307.584 
L 315.654202 307.584 
L 316.910518 307.584 
L 326.684653 307.584 
L 328.443494 307.584 
L 334.666444 307.584 
L 344.390326 307.584 
L 345.680143 307.584 
L 347.405483 307.584 
L 347.598119 307.584 
L 348.075518 307.584 
L 361.777733 307.584 
L 362.313761 307.584 
L 368.51996 307.584 
L 374.474895 307.584 
L 398.487273 307.584 
L 398.487273 306.578286 
L 398.487273 306.578286 
L 374.474895 306.578286 
L 368.51996 305.572571 
L 362.313761 304.566857 
L 361.777733 303.561143 
L 348.075518 302.555429 
L 347.598119 301.549714 
L 347.405483 300.544 
L 345.680143 299.538286 
L 344.390326 298.532571 
L 334.666444 297.526857 
L 328.443494 296.521143 
L 326.684653 295.515429 
L 316.910518 295.515429 
L 315.654202 295.515429 
L 309.933779 294.509714 
L 306.851618 293.504 
L 306.667359 292.498286 
L 306.156457 291.492571 
L 305.687433 291.492571 
L 303.459566 290.486857 
L 300.854806 289.481143 
L 295.310266 289.481143 
L 293.007021 288.475429 
L 292.998646 288.475429 
L 292.228106 287.469714 
L 283.609781 287.469714 
L 281.75881 286.464 
L 280.41874 285.458286 
L 278.12387 284.452571 
L 277.855856 283.446857 
L 276.524162 282.441143 
L 273.542506 280.429714 
L 273.51738 280.429714 
L 273.458752 279.424 
L 271.716661 278.418286 
L 270.259335 277.412571 
L 269.999696 276.406857 
L 265.95436 275.401143 
L 259.195383 274.395429 
L 257.813436 273.389714 
L 255.593945 272.384 
L 255.032791 271.378286 
L 254.521889 270.372571 
L 251.18009 269.366857 
L 250.51843 268.361143 
L 248.650708 267.355429 
L 248.20681 266.349714 
L 243.148046 266.349714 
L 241.824727 265.344 
L 240.518159 264.338286 
L 236.71571 264.338286 
L 236.229935 263.332571 
L 236.204809 262.326857 
L 235.794412 261.321143 
L 234.764233 259.309714 
L 232.31023 258.304 
L 231.916585 258.304 
L 231.44756 257.298286 
L 231.037164 256.292571 
L 230.970161 255.286857 
L 230.434133 254.281143 
L 229.403954 253.275429 
L 228.373775 252.269714 
L 227.636737 250.258286 
L 226.891323 249.252571 
L 225.718762 248.246857 
L 224.504323 247.241143 
L 223.77566 246.235429 
L 223.00512 246.235429 
L 222.737106 245.229714 
L 222.083822 244.224 
L 221.37191 243.218286 
L 221.246278 243.218286 
L 221.145773 242.212571 
L 220.71025 241.206857 
L 220.224475 240.201143 
L 218.892781 239.195429 
L 217.803974 238.189714 
L 217.586212 238.189714 
L 217.401953 237.184 
L 216.8743 236.178286 
L 216.296395 236.178286 
L 214.822318 235.172571 
L 214.353294 234.166857 
L 213.976399 233.161143 
L 212.870842 232.155429 
L 212.720084 231.149714 
L 212.401817 230.144 
L 210.910989 229.138286 
L 210.534095 228.132571 
L 209.562544 226.121143 
L 208.590993 226.121143 
L 205.994608 225.115429 
L 205.500457 224.109714 
L 204.344647 223.104 
L 202.837068 222.098286 
L 199.821911 221.092571 
L 199.721406 220.086857 
L 198.975992 219.081143 
L 198.666101 219.081143 
L 198.305957 217.069714 
L 196.119968 216.064 
L 194.403003 215.058286 
L 193.238818 214.052571 
L 191.689362 213.046857 
L 191.680986 212.041143 
L 189.645755 211.035429 
L 189.352615 210.029714 
L 188.707706 209.024 
L 188.154927 208.018286 
L 187.744531 207.012571 
L 187.510019 206.006857 
L 187.459766 205.001143 
L 183.288799 203.995429 
L 181.094434 203.995429 
L 180.725915 202.989714 
L 179.595231 201.984 
L 179.511477 200.978286 
L 179.243463 200.978286 
L 178.80794 200.978286 
L 177.844765 200.978286 
L 177.610252 199.972571 
L 177.476245 198.966857 
L 175.583397 197.961143 
L 173.263401 196.955429 
L 173.121018 195.949714 
L 172.216471 194.944 
L 172.132717 194.944 
L 171.512934 193.938286 
L 171.395678 193.938286 
L 170.097486 191.926857 
L 167.911497 190.921143 
L 166.487672 188.909714 
L 165.733883 187.904 
L 165.549623 187.904 
L 165.490995 185.892571 
L 165.457494 184.886857 
L 164.569697 183.881143 
L 162.41721 182.875429 
L 162.224575 180.864 
L 161.956561 179.858286 
L 161.395407 178.852571 
L 160.69187 177.846857 
L 160.666744 176.841143 
L 159.577937 175.835429 
L 159.25967 174.829714 
L 159.159165 173.824 
L 157.04018 172.818286 
L 156.872671 171.812571 
L 156.67166 170.806857 
L 156.345018 169.801143 
L 155.356717 168.795429 
L 155.013324 168.795429 
L 154.812313 167.789714 
L 154.301412 167.789714 
L 153.824012 166.784 
L 153.346612 165.778286 
L 151.29463 164.772571 
L 148.363227 163.766857 
L 148.262722 162.761143 
L 148.061711 161.755429 
L 147.919329 160.749714 
L 147.84395 159.744 
L 146.939403 158.738286 
L 146.838898 158.738286 
L 146.679764 157.732571 
L 146.495505 156.726857 
L 145.942726 155.721143 
L 145.098482 154.715429 
L 142.992059 154.715429 
L 142.925056 153.709714 
L 142.81115 152.704 
L 141.894877 152.704 
L 141.75082 151.698286 
L 141.674603 151.698286 
L 141.28347 150.692571 
L 139.233163 149.686857 
L 138.245699 148.681143 
L 138.10583 147.675429 
L 137.717209 146.669714 
L 135.663552 145.664 
L 135.212954 144.658286 
L 133.970876 144.658286 
L 132.46581 143.652571 
L 131.84184 142.646857 
L 130.215331 141.641143 
L 129.935591 140.635429 
L 129.130711 139.629714 
L 126.744549 139.629714 
L 126.408694 139.629714 
L 122.282117 138.624 
L 122.159835 138.624 
L 121.875908 137.618286 
L 119.963796 136.612571 
L 118.56091 135.606857 
L 117.972954 134.601143 
L 117.921864 133.595429 
L 117.315483 133.595429 
L 116.732552 132.589714 
L 114.521437 132.589714 
L 114.080889 132.589714 
L 112.47448 132.589714 
L 111.21984 132.589714 
L 110.942613 131.584 
L 110.575769 130.578286 
L 109.83203 129.572571 
L 107.170316 128.566857 
L 106.795934 127.561143 
L 106.080672 127.561143 
L 105.932426 127.561143 
L 105.857048 127.561143 
L 105.76743 126.555429 
L 104.497714 125.549714 
L 103.511088 125.549714 
L 101.417228 125.549714 
L 99.108121 125.549714 
L 98.469912 124.544 
L 97.716123 123.538286 
L 97.228673 122.532571 
L 96.953958 122.532571 
L 96.248746 121.526857 
L 95.616401 120.521143 
L 95.292272 119.515429 
L 94.508331 118.509714 
L 93.909487 118.509714 
L 93.710152 118.509714 
L 90.362489 118.509714 
L 90.133002 118.509714 
L 89.679054 118.509714 
L 88.41185 117.504 
L 87.631259 117.504 
L 87.410148 117.504 
L 86.580142 117.504 
L 82.626936 117.504 
L 82.614373 116.498286 
L 76.541344 116.498286 
L 75.846182 116.498286 
L 73.832727 116.498286 
z
" clip-path="url(#pcba6b53bd8)" style="fill: #008000"/>
   </g>
   <g id="PolyCollection_2">
    <path d="M 73.832727 69.229714 
L 73.832727 116.498286 
L 75.846182 116.498286 
L 76.541344 116.498286 
L 82.614373 116.498286 
L 82.626936 117.504 
L 86.580142 117.504 
L 87.410148 117.504 
L 87.631259 117.504 
L 88.41185 117.504 
L 89.679054 118.509714 
L 90.133002 118.509714 
L 90.362489 118.509714 
L 93.710152 118.509714 
L 93.909487 118.509714 
L 94.508331 118.509714 
L 95.292272 119.515429 
L 95.616401 120.521143 
L 96.248746 121.526857 
L 96.953958 122.532571 
L 97.228673 122.532571 
L 97.716123 123.538286 
L 98.469912 124.544 
L 99.108121 125.549714 
L 101.417228 125.549714 
L 103.511088 125.549714 
L 104.497714 125.549714 
L 105.76743 126.555429 
L 105.857048 127.561143 
L 105.932426 127.561143 
L 106.080672 127.561143 
L 106.795934 127.561143 
L 107.170316 128.566857 
L 109.83203 129.572571 
L 110.575769 130.578286 
L 110.942613 131.584 
L 111.21984 132.589714 
L 112.47448 132.589714 
L 114.080889 132.589714 
L 114.521437 132.589714 
L 116.732552 132.589714 
L 117.315483 133.595429 
L 117.921864 133.595429 
L 117.972954 134.601143 
L 118.56091 135.606857 
L 119.963796 136.612571 
L 121.875908 137.618286 
L 122.159835 138.624 
L 122.282117 138.624 
L 126.408694 139.629714 
L 126.744549 139.629714 
L 129.130711 139.629714 
L 129.935591 140.635429 
L 130.215331 141.641143 
L 131.84184 142.646857 
L 132.46581 143.652571 
L 133.970876 144.658286 
L 135.212954 144.658286 
L 135.663552 145.664 
L 137.717209 146.669714 
L 138.10583 147.675429 
L 138.245699 148.681143 
L 139.233163 149.686857 
L 141.28347 150.692571 
L 141.674603 151.698286 
L 141.75082 151.698286 
L 141.894877 152.704 
L 142.81115 152.704 
L 142.925056 153.709714 
L 142.992059 154.715429 
L 145.098482 154.715429 
L 145.942726 155.721143 
L 146.495505 156.726857 
L 146.679764 157.732571 
L 146.838898 158.738286 
L 146.939403 158.738286 
L 147.84395 159.744 
L 147.919329 160.749714 
L 148.061711 161.755429 
L 148.262722 162.761143 
L 148.363227 163.766857 
L 151.29463 164.772571 
L 153.346612 165.778286 
L 153.824012 166.784 
L 154.301412 167.789714 
L 154.812313 167.789714 
L 155.013324 168.795429 
L 155.356717 168.795429 
L 156.345018 169.801143 
L 156.67166 170.806857 
L 156.872671 171.812571 
L 157.04018 172.818286 
L 159.159165 173.824 
L 159.25967 174.829714 
L 159.577937 175.835429 
L 160.666744 176.841143 
L 160.69187 177.846857 
L 161.395407 178.852571 
L 161.956561 179.858286 
L 162.224575 180.864 
L 162.41721 182.875429 
L 164.569697 183.881143 
L 165.457494 184.886857 
L 165.490995 185.892571 
L 165.549623 187.904 
L 165.733883 187.904 
L 166.487672 188.909714 
L 167.911497 190.921143 
L 170.097486 191.926857 
L 171.395678 193.938286 
L 171.512934 193.938286 
L 172.132717 194.944 
L 172.216471 194.944 
L 173.121018 195.949714 
L 173.263401 196.955429 
L 175.583397 197.961143 
L 177.476245 198.966857 
L 177.610252 199.972571 
L 177.844765 200.978286 
L 178.80794 200.978286 
L 179.243463 200.978286 
L 179.511477 200.978286 
L 179.595231 201.984 
L 180.725915 202.989714 
L 181.094434 203.995429 
L 183.288799 203.995429 
L 187.459766 205.001143 
L 187.510019 206.006857 
L 187.744531 207.012571 
L 188.154927 208.018286 
L 188.707706 209.024 
L 189.352615 210.029714 
L 189.645755 211.035429 
L 191.680986 212.041143 
L 191.689362 213.046857 
L 193.238818 214.052571 
L 194.403003 215.058286 
L 196.119968 216.064 
L 198.305957 217.069714 
L 198.666101 219.081143 
L 198.975992 219.081143 
L 199.721406 220.086857 
L 199.821911 221.092571 
L 202.837068 222.098286 
L 204.344647 223.104 
L 205.500457 224.109714 
L 205.994608 225.115429 
L 208.590993 226.121143 
L 209.562544 226.121143 
L 210.534095 228.132571 
L 210.910989 229.138286 
L 212.401817 230.144 
L 212.720084 231.149714 
L 212.870842 232.155429 
L 213.976399 233.161143 
L 214.353294 234.166857 
L 214.822318 235.172571 
L 216.296395 236.178286 
L 216.8743 236.178286 
L 217.401953 237.184 
L 217.586212 238.189714 
L 217.803974 238.189714 
L 218.892781 239.195429 
L 220.224475 240.201143 
L 220.71025 241.206857 
L 221.145773 242.212571 
L 221.246278 243.218286 
L 221.37191 243.218286 
L 222.083822 244.224 
L 222.737106 245.229714 
L 223.00512 246.235429 
L 223.77566 246.235429 
L 224.504323 247.241143 
L 225.718762 248.246857 
L 226.891323 249.252571 
L 227.636737 250.258286 
L 228.373775 252.269714 
L 229.403954 253.275429 
L 230.434133 254.281143 
L 230.970161 255.286857 
L 231.037164 256.292571 
L 231.44756 257.298286 
L 231.916585 258.304 
L 232.31023 258.304 
L 234.764233 259.309714 
L 235.794412 261.321143 
L 236.204809 262.326857 
L 236.229935 263.332571 
L 236.71571 264.338286 
L 240.518159 264.338286 
L 241.824727 265.344 
L 243.148046 266.349714 
L 248.20681 266.349714 
L 248.650708 267.355429 
L 250.51843 268.361143 
L 251.18009 269.366857 
L 254.521889 270.372571 
L 255.032791 271.378286 
L 255.593945 272.384 
L 257.813436 273.389714 
L 259.195383 274.395429 
L 265.95436 275.401143 
L 269.999696 276.406857 
L 270.259335 277.412571 
L 271.716661 278.418286 
L 273.458752 279.424 
L 273.51738 280.429714 
L 273.542506 280.429714 
L 276.524162 282.441143 
L 277.855856 283.446857 
L 278.12387 284.452571 
L 280.41874 285.458286 
L 281.75881 286.464 
L 283.609781 287.469714 
L 292.228106 287.469714 
L 292.998646 288.475429 
L 293.007021 288.475429 
L 295.310266 289.481143 
L 300.854806 289.481143 
L 303.459566 290.486857 
L 305.687433 291.492571 
L 306.156457 291.492571 
L 306.667359 292.498286 
L 306.851618 293.504 
L 309.933779 294.509714 
L 315.654202 295.515429 
L 316.910518 295.515429 
L 326.684653 295.515429 
L 328.443494 296.521143 
L 334.666444 297.526857 
L 344.390326 298.532571 
L 345.680143 299.538286 
L 347.405483 300.544 
L 347.598119 301.549714 
L 348.075518 302.555429 
L 361.777733 303.561143 
L 362.313761 304.566857 
L 368.51996 305.572571 
L 374.474895 306.578286 
L 398.487273 306.578286 
L 398.487273 306.578286 
L 398.487273 306.578286 
L 374.474895 305.572571 
L 368.51996 304.566857 
L 362.313761 303.561143 
L 361.777733 302.555429 
L 348.075518 301.549714 
L 347.598119 300.544 
L 347.405483 299.538286 
L 345.680143 298.532571 
L 344.390326 297.526857 
L 334.666444 296.521143 
L 328.443494 295.515429 
L 326.684653 294.509714 
L 316.910518 292.498286 
L 315.654202 291.492571 
L 309.933779 290.486857 
L 306.851618 289.481143 
L 306.667359 288.475429 
L 306.156457 287.469714 
L 305.687433 286.464 
L 303.459566 285.458286 
L 300.854806 284.452571 
L 295.310266 283.446857 
L 293.007021 282.441143 
L 292.998646 281.435429 
L 292.228106 280.429714 
L 283.609781 279.424 
L 281.75881 278.418286 
L 280.41874 277.412571 
L 278.12387 276.406857 
L 277.855856 275.401143 
L 276.524162 274.395429 
L 273.542506 272.384 
L 273.51738 271.378286 
L 273.458752 270.372571 
L 271.716661 269.366857 
L 270.259335 268.361143 
L 269.999696 267.355429 
L 265.95436 266.349714 
L 259.195383 265.344 
L 257.813436 264.338286 
L 255.593945 263.332571 
L 255.032791 262.326857 
L 254.521889 261.321143 
L 251.18009 260.315429 
L 250.51843 259.309714 
L 248.650708 258.304 
L 248.20681 257.298286 
L 243.148046 256.292571 
L 241.824727 255.286857 
L 240.518159 254.281143 
L 236.71571 253.275429 
L 236.229935 252.269714 
L 236.204809 251.264 
L 235.794412 250.258286 
L 234.764233 248.246857 
L 232.31023 247.241143 
L 231.916585 246.235429 
L 231.44756 245.229714 
L 231.037164 244.224 
L 230.970161 243.218286 
L 230.434133 242.212571 
L 229.403954 241.206857 
L 228.373775 240.201143 
L 227.636737 238.189714 
L 226.891323 237.184 
L 225.718762 236.178286 
L 224.504323 235.172571 
L 223.77566 234.166857 
L 223.00512 233.161143 
L 222.737106 232.155429 
L 222.083822 231.149714 
L 221.37191 230.144 
L 221.246278 229.138286 
L 221.145773 228.132571 
L 220.71025 227.126857 
L 220.224475 226.121143 
L 218.892781 224.109714 
L 217.803974 223.104 
L 217.586212 222.098286 
L 217.401953 221.092571 
L 216.8743 220.086857 
L 216.296395 219.081143 
L 214.822318 218.075429 
L 214.353294 217.069714 
L 213.976399 216.064 
L 212.870842 215.058286 
L 212.720084 214.052571 
L 212.401817 213.046857 
L 210.910989 212.041143 
L 210.534095 211.035429 
L 209.562544 209.024 
L 208.590993 208.018286 
L 205.994608 207.012571 
L 205.500457 206.006857 
L 204.344647 205.001143 
L 202.837068 203.995429 
L 199.821911 202.989714 
L 199.721406 201.984 
L 198.975992 200.978286 
L 198.666101 199.972571 
L 198.305957 197.961143 
L 196.119968 196.955429 
L 194.403003 195.949714 
L 193.238818 194.944 
L 191.689362 193.938286 
L 191.680986 192.932571 
L 189.645755 191.926857 
L 189.352615 190.921143 
L 188.707706 189.915429 
L 188.154927 188.909714 
L 187.744531 187.904 
L 187.510019 186.898286 
L 187.459766 185.892571 
L 183.288799 184.886857 
L 181.094434 183.881143 
L 180.725915 182.875429 
L 179.595231 181.869714 
L 179.511477 180.864 
L 179.243463 179.858286 
L 178.80794 178.852571 
L 177.844765 178.852571 
L 177.610252 177.846857 
L 177.476245 176.841143 
L 175.583397 175.835429 
L 173.263401 174.829714 
L 173.121018 173.824 
L 172.216471 172.818286 
L 172.132717 171.812571 
L 171.512934 170.806857 
L 171.395678 169.801143 
L 170.097486 167.789714 
L 167.911497 166.784 
L 166.487672 164.772571 
L 165.733883 163.766857 
L 165.549623 162.761143 
L 165.490995 160.749714 
L 165.457494 159.744 
L 164.569697 158.738286 
L 162.41721 157.732571 
L 162.224575 155.721143 
L 161.956561 154.715429 
L 161.395407 153.709714 
L 160.69187 152.704 
L 160.666744 151.698286 
L 159.577937 150.692571 
L 159.25967 149.686857 
L 159.159165 148.681143 
L 157.04018 147.675429 
L 156.872671 146.669714 
L 156.67166 145.664 
L 156.345018 144.658286 
L 155.356717 143.652571 
L 155.013324 142.646857 
L 154.812313 141.641143 
L 154.301412 140.635429 
L 153.824012 139.629714 
L 153.346612 138.624 
L 151.29463 137.618286 
L 148.363227 136.612571 
L 148.262722 135.606857 
L 148.061711 133.595429 
L 147.919329 132.589714 
L 147.84395 131.584 
L 146.939403 130.578286 
L 146.838898 129.572571 
L 146.679764 128.566857 
L 146.495505 127.561143 
L 145.942726 126.555429 
L 145.098482 125.549714 
L 142.992059 124.544 
L 142.925056 123.538286 
L 142.81115 122.532571 
L 141.894877 121.526857 
L 141.75082 120.521143 
L 141.674603 119.515429 
L 141.28347 118.509714 
L 139.233163 117.504 
L 138.245699 116.498286 
L 138.10583 115.492571 
L 137.717209 114.486857 
L 135.663552 113.481143 
L 135.212954 112.475429 
L 133.970876 111.469714 
L 132.46581 110.464 
L 131.84184 109.458286 
L 130.215331 108.452571 
L 129.935591 107.446857 
L 129.130711 106.441143 
L 126.744549 105.435429 
L 126.408694 104.429714 
L 122.282117 103.424 
L 122.159835 102.418286 
L 121.875908 101.412571 
L 119.963796 100.406857 
L 118.56091 99.401143 
L 117.972954 98.395429 
L 117.921864 97.389714 
L 117.315483 97.389714 
L 116.732552 96.384 
L 114.521437 95.378286 
L 114.080889 95.378286 
L 112.47448 95.378286 
L 111.21984 94.372571 
L 110.942613 93.366857 
L 110.575769 92.361143 
L 109.83203 91.355429 
L 107.170316 90.349714 
L 106.795934 89.344 
L 106.080672 88.338286 
L 105.932426 87.332571 
L 105.857048 86.326857 
L 105.76743 85.321143 
L 104.497714 84.315429 
L 103.511088 83.309714 
L 101.417228 83.309714 
L 99.108121 83.309714 
L 98.469912 82.304 
L 97.716123 81.298286 
L 97.228673 80.292571 
L 96.953958 79.286857 
L 96.248746 78.281143 
L 95.616401 77.275429 
L 95.292272 76.269714 
L 94.508331 75.264 
L 93.909487 74.258286 
L 93.710152 74.258286 
L 90.362489 74.258286 
L 90.133002 73.252571 
L 89.679054 73.252571 
L 88.41185 72.246857 
L 87.631259 72.246857 
L 87.410148 72.246857 
L 86.580142 71.241143 
L 82.626936 71.241143 
L 82.614373 70.235429 
L 76.541344 70.235429 
L 75.846182 69.229714 
L 73.832727 69.229714 
z
" clip-path="url(#pcba6b53bd8)" style="fill: #7cfc00"/>
   </g>
   <g id="PolyCollection_3">
    <path d="M 73.832727 54.144 
L 73.832727 69.229714 
L 75.846182 69.229714 
L 76.541344 70.235429 
L 82.614373 70.235429 
L 82.626936 71.241143 
L 86.580142 71.241143 
L 87.410148 72.246857 
L 87.631259 72.246857 
L 88.41185 72.246857 
L 89.679054 73.252571 
L 90.133002 73.252571 
L 90.362489 74.258286 
L 93.710152 74.258286 
L 93.909487 74.258286 
L 94.508331 75.264 
L 95.292272 76.269714 
L 95.616401 77.275429 
L 96.248746 78.281143 
L 96.953958 79.286857 
L 97.228673 80.292571 
L 97.716123 81.298286 
L 98.469912 82.304 
L 99.108121 83.309714 
L 101.417228 83.309714 
L 103.511088 83.309714 
L 104.497714 84.315429 
L 105.76743 85.321143 
L 105.857048 86.326857 
L 105.932426 87.332571 
L 106.080672 88.338286 
L 106.795934 89.344 
L 107.170316 90.349714 
L 109.83203 91.355429 
L 110.575769 92.361143 
L 110.942613 93.366857 
L 111.21984 94.372571 
L 112.47448 95.378286 
L 114.080889 95.378286 
L 114.521437 95.378286 
L 116.732552 96.384 
L 117.315483 97.389714 
L 117.921864 97.389714 
L 117.972954 98.395429 
L 118.56091 99.401143 
L 119.963796 100.406857 
L 121.875908 101.412571 
L 122.159835 102.418286 
L 122.282117 103.424 
L 126.408694 104.429714 
L 126.744549 105.435429 
L 129.130711 106.441143 
L 129.935591 107.446857 
L 130.215331 108.452571 
L 131.84184 109.458286 
L 132.46581 110.464 
L 133.970876 111.469714 
L 135.212954 112.475429 
L 135.663552 113.481143 
L 137.717209 114.486857 
L 138.10583 115.492571 
L 138.245699 116.498286 
L 139.233163 117.504 
L 141.28347 118.509714 
L 141.674603 119.515429 
L 141.75082 120.521143 
L 141.894877 121.526857 
L 142.81115 122.532571 
L 142.925056 123.538286 
L 142.992059 124.544 
L 145.098482 125.549714 
L 145.942726 126.555429 
L 146.495505 127.561143 
L 146.679764 128.566857 
L 146.838898 129.572571 
L 146.939403 130.578286 
L 147.84395 131.584 
L 147.919329 132.589714 
L 148.061711 133.595429 
L 148.262722 135.606857 
L 148.363227 136.612571 
L 151.29463 137.618286 
L 153.346612 138.624 
L 153.824012 139.629714 
L 154.301412 140.635429 
L 154.812313 141.641143 
L 155.013324 142.646857 
L 155.356717 143.652571 
L 156.345018 144.658286 
L 156.67166 145.664 
L 156.872671 146.669714 
L 157.04018 147.675429 
L 159.159165 148.681143 
L 159.25967 149.686857 
L 159.577937 150.692571 
L 160.666744 151.698286 
L 160.69187 152.704 
L 161.395407 153.709714 
L 161.956561 154.715429 
L 162.224575 155.721143 
L 162.41721 157.732571 
L 164.569697 158.738286 
L 165.457494 159.744 
L 165.490995 160.749714 
L 165.549623 162.761143 
L 165.733883 163.766857 
L 166.487672 164.772571 
L 167.911497 166.784 
L 170.097486 167.789714 
L 171.395678 169.801143 
L 171.512934 170.806857 
L 172.132717 171.812571 
L 172.216471 172.818286 
L 173.121018 173.824 
L 173.263401 174.829714 
L 175.583397 175.835429 
L 177.476245 176.841143 
L 177.610252 177.846857 
L 177.844765 178.852571 
L 178.80794 178.852571 
L 179.243463 179.858286 
L 179.511477 180.864 
L 179.595231 181.869714 
L 180.725915 182.875429 
L 181.094434 183.881143 
L 183.288799 184.886857 
L 187.459766 185.892571 
L 187.510019 186.898286 
L 187.744531 187.904 
L 188.154927 188.909714 
L 188.707706 189.915429 
L 189.352615 190.921143 
L 189.645755 191.926857 
L 191.680986 192.932571 
L 191.689362 193.938286 
L 193.238818 194.944 
L 194.403003 195.949714 
L 196.119968 196.955429 
L 198.305957 197.961143 
L 198.666101 199.972571 
L 198.975992 200.978286 
L 199.721406 201.984 
L 199.821911 202.989714 
L 202.837068 203.995429 
L 204.344647 205.001143 
L 205.500457 206.006857 
L 205.994608 207.012571 
L 208.590993 208.018286 
L 209.562544 209.024 
L 210.534095 211.035429 
L 210.910989 212.041143 
L 212.401817 213.046857 
L 212.720084 214.052571 
L 212.870842 215.058286 
L 213.976399 216.064 
L 214.353294 217.069714 
L 214.822318 218.075429 
L 216.296395 219.081143 
L 216.8743 220.086857 
L 217.401953 221.092571 
L 217.586212 222.098286 
L 217.803974 223.104 
L 218.892781 224.109714 
L 220.224475 226.121143 
L 220.71025 227.126857 
L 221.145773 228.132571 
L 221.246278 229.138286 
L 221.37191 230.144 
L 222.083822 231.149714 
L 222.737106 232.155429 
L 223.00512 233.161143 
L 223.77566 234.166857 
L 224.504323 235.172571 
L 225.718762 236.178286 
L 226.891323 237.184 
L 227.636737 238.189714 
L 228.373775 240.201143 
L 229.403954 241.206857 
L 230.434133 242.212571 
L 230.970161 243.218286 
L 231.037164 244.224 
L 231.44756 245.229714 
L 231.916585 246.235429 
L 232.31023 247.241143 
L 234.764233 248.246857 
L 235.794412 250.258286 
L 236.204809 251.264 
L 236.229935 252.269714 
L 236.71571 253.275429 
L 240.518159 254.281143 
L 241.824727 255.286857 
L 243.148046 256.292571 
L 248.20681 257.298286 
L 248.650708 258.304 
L 250.51843 259.309714 
L 251.18009 260.315429 
L 254.521889 261.321143 
L 255.032791 262.326857 
L 255.593945 263.332571 
L 257.813436 264.338286 
L 259.195383 265.344 
L 265.95436 266.349714 
L 269.999696 267.355429 
L 270.259335 268.361143 
L 271.716661 269.366857 
L 273.458752 270.372571 
L 273.51738 271.378286 
L 273.542506 272.384 
L 276.524162 274.395429 
L 277.855856 275.401143 
L 278.12387 276.406857 
L 280.41874 277.412571 
L 281.75881 278.418286 
L 283.609781 279.424 
L 292.228106 280.429714 
L 292.998646 281.435429 
L 293.007021 282.441143 
L 295.310266 283.446857 
L 300.854806 284.452571 
L 303.459566 285.458286 
L 305.687433 286.464 
L 306.156457 287.469714 
L 306.667359 288.475429 
L 306.851618 289.481143 
L 309.933779 290.486857 
L 315.654202 291.492571 
L 316.910518 292.498286 
L 326.684653 294.509714 
L 328.443494 295.515429 
L 334.666444 296.521143 
L 344.390326 297.526857 
L 345.680143 298.532571 
L 347.405483 299.538286 
L 347.598119 300.544 
L 348.075518 301.549714 
L 361.777733 302.555429 
L 362.313761 303.561143 
L 368.51996 304.566857 
L 374.474895 305.572571 
L 398.487273 306.578286 
L 398.487273 306.578286 
L 398.487273 306.578286 
L 374.474895 305.572571 
L 368.51996 304.566857 
L 362.313761 303.561143 
L 361.777733 302.555429 
L 348.075518 301.549714 
L 347.598119 300.544 
L 347.405483 299.538286 
L 345.680143 298.532571 
L 344.390326 297.526857 
L 334.666444 296.521143 
L 328.443494 295.515429 
L 326.684653 294.509714 
L 316.910518 292.498286 
L 315.654202 291.492571 
L 309.933779 290.486857 
L 306.851618 289.481143 
L 306.667359 288.475429 
L 306.156457 287.469714 
L 305.687433 286.464 
L 303.459566 285.458286 
L 300.854806 284.452571 
L 295.310266 283.446857 
L 293.007021 282.441143 
L 292.998646 281.435429 
L 292.228106 280.429714 
L 283.609781 279.424 
L 281.75881 278.418286 
L 280.41874 277.412571 
L 278.12387 276.406857 
L 277.855856 275.401143 
L 276.524162 274.395429 
L 273.542506 272.384 
L 273.51738 271.378286 
L 273.458752 270.372571 
L 271.716661 269.366857 
L 270.259335 268.361143 
L 269.999696 267.355429 
L 265.95436 266.349714 
L 259.195383 265.344 
L 257.813436 264.338286 
L 255.593945 263.332571 
L 255.032791 262.326857 
L 254.521889 261.321143 
L 251.18009 260.315429 
L 250.51843 259.309714 
L 248.650708 258.304 
L 248.20681 257.298286 
L 243.148046 256.292571 
L 241.824727 255.286857 
L 240.518159 254.281143 
L 236.71571 253.275429 
L 236.229935 252.269714 
L 236.204809 251.264 
L 235.794412 250.258286 
L 234.764233 248.246857 
L 232.31023 247.241143 
L 231.916585 246.235429 
L 231.44756 245.229714 
L 231.037164 244.224 
L 230.970161 243.218286 
L 230.434133 242.212571 
L 229.403954 241.206857 
L 228.373775 240.201143 
L 227.636737 238.189714 
L 226.891323 237.184 
L 225.718762 236.178286 
L 224.504323 235.172571 
L 223.77566 234.166857 
L 223.00512 233.161143 
L 222.737106 232.155429 
L 222.083822 231.149714 
L 221.37191 230.144 
L 221.246278 229.138286 
L 221.145773 228.132571 
L 220.71025 227.126857 
L 220.224475 226.121143 
L 218.892781 224.109714 
L 217.803974 223.104 
L 217.586212 222.098286 
L 217.401953 221.092571 
L 216.8743 220.086857 
L 216.296395 219.081143 
L 214.822318 218.075429 
L 214.353294 217.069714 
L 213.976399 216.064 
L 212.870842 215.058286 
L 212.720084 214.052571 
L 212.401817 213.046857 
L 210.910989 212.041143 
L 210.534095 211.035429 
L 209.562544 209.024 
L 208.590993 208.018286 
L 205.994608 207.012571 
L 205.500457 206.006857 
L 204.344647 205.001143 
L 202.837068 203.995429 
L 199.821911 202.989714 
L 199.721406 201.984 
L 198.975992 200.978286 
L 198.666101 199.972571 
L 198.305957 197.961143 
L 196.119968 196.955429 
L 194.403003 195.949714 
L 193.238818 194.944 
L 191.689362 193.938286 
L 191.680986 192.932571 
L 189.645755 191.926857 
L 189.352615 190.921143 
L 188.707706 189.915429 
L 188.154927 188.909714 
L 187.744531 187.904 
L 187.510019 186.898286 
L 187.459766 185.892571 
L 183.288799 184.886857 
L 181.094434 183.881143 
L 180.725915 182.875429 
L 179.595231 181.869714 
L 179.511477 180.864 
L 179.243463 179.858286 
L 178.80794 178.852571 
L 177.844765 177.846857 
L 177.610252 176.841143 
L 177.476245 175.835429 
L 175.583397 173.824 
L 173.263401 172.818286 
L 173.121018 171.812571 
L 172.216471 170.806857 
L 172.132717 169.801143 
L 171.512934 168.795429 
L 171.395678 167.789714 
L 170.097486 165.778286 
L 167.911497 164.772571 
L 166.487672 162.761143 
L 165.733883 161.755429 
L 165.549623 160.749714 
L 165.490995 158.738286 
L 165.457494 157.732571 
L 164.569697 156.726857 
L 162.41721 155.721143 
L 162.224575 153.709714 
L 161.956561 152.704 
L 161.395407 151.698286 
L 160.69187 150.692571 
L 160.666744 149.686857 
L 159.577937 148.681143 
L 159.25967 147.675429 
L 159.159165 146.669714 
L 157.04018 145.664 
L 156.872671 144.658286 
L 156.67166 143.652571 
L 156.345018 142.646857 
L 155.356717 141.641143 
L 155.013324 140.635429 
L 154.812313 139.629714 
L 154.301412 138.624 
L 153.824012 137.618286 
L 153.346612 136.612571 
L 151.29463 135.606857 
L 148.363227 134.601143 
L 148.262722 133.595429 
L 148.061711 131.584 
L 147.919329 130.578286 
L 147.84395 129.572571 
L 146.939403 128.566857 
L 146.838898 127.561143 
L 146.679764 126.555429 
L 146.495505 125.549714 
L 145.942726 124.544 
L 145.098482 123.538286 
L 142.992059 122.532571 
L 142.925056 121.526857 
L 142.81115 120.521143 
L 141.894877 119.515429 
L 141.75082 118.509714 
L 141.674603 117.504 
L 141.28347 116.498286 
L 139.233163 115.492571 
L 138.245699 114.486857 
L 138.10583 113.481143 
L 137.717209 112.475429 
L 135.663552 111.469714 
L 135.212954 110.464 
L 133.970876 109.458286 
L 132.46581 108.452571 
L 131.84184 107.446857 
L 130.215331 106.441143 
L 129.935591 105.435429 
L 129.130711 104.429714 
L 126.744549 103.424 
L 126.408694 102.418286 
L 122.282117 101.412571 
L 122.159835 100.406857 
L 121.875908 99.401143 
L 119.963796 98.395429 
L 118.56091 97.389714 
L 117.972954 96.384 
L 117.921864 95.378286 
L 117.315483 94.372571 
L 116.732552 93.366857 
L 114.521437 92.361143 
L 114.080889 91.355429 
L 112.47448 90.349714 
L 111.21984 89.344 
L 110.942613 88.338286 
L 110.575769 87.332571 
L 109.83203 86.326857 
L 107.170316 85.321143 
L 106.795934 84.315429 
L 106.080672 83.309714 
L 105.932426 82.304 
L 105.857048 81.298286 
L 105.76743 80.292571 
L 104.497714 79.286857 
L 103.511088 78.281143 
L 101.417228 77.275429 
L 99.108121 76.269714 
L 98.469912 75.264 
L 97.716123 74.258286 
L 97.228673 73.252571 
L 96.953958 72.246857 
L 96.248746 71.241143 
L 95.616401 70.235429 
L 95.292272 69.229714 
L 94.508331 68.224 
L 93.909487 67.218286 
L 93.710152 66.212571 
L 90.362489 65.206857 
L 90.133002 64.201143 
L 89.679054 63.195429 
L 88.41185 62.189714 
L 87.631259 61.184 
L 87.410148 60.178286 
L 86.580142 59.172571 
L 82.626936 58.166857 
L 82.614373 57.161143 
L 76.541344 56.155429 
L 75.846182 55.149714 
L 73.832727 54.144 
z
" clip-path="url(#pcba6b53bd8)" style="fill: #ff0000"/>
   </g>
   <g id="matplotlib.axis_1">
    <g id="xtick_1">
     <g id="line2d_1">
      <defs>
       <path id="me36fbac2f5" d="M 0 0 
L 0 3.5 
" style="stroke: #000000; stroke-width: 0.8"/>
      </defs>
      <g>
       <use xlink:href="#me36fbac2f5" x="61.811463" y="307.584" style="stroke: #000000; stroke-width: 0.8"/>
      </g>
     </g>
     <g id="text_1">
      <!-- 0 -->
      <g transform="translate(58.630213 322.182437) scale(0.1 -0.1)">
       <defs>
        <path id="DejaVuSans-30" d="M 2034 4250 
Q 1547 4250 1301 3770 
Q 1056 3291 1056 2328 
Q 1056 1369 1301 889 
Q 1547 409 2034 409 
Q 2525 409 2770 889 
Q 3016 1369 3016 2328 
Q 3016 3291 2770 3770 
Q 2525 4250 2034 4250 
z
M 2034 4750 
Q 2819 4750 3233 4129 
Q 3647 3509 3647 2328 
Q 3647 1150 3233 529 
Q 2819 -91 2034 -91 
Q 1250 -91 836 529 
Q 422 1150 422 2328 
Q 422 3509 836 4129 
Q 1250 4750 2034 4750 
z
" transform="scale(0.015625)"/>
       </defs>
       <use xlink:href="#DejaVuSans-30"/>
      </g>
     </g>
    </g>
    <g id="xtick_2">
     <g id="line2d_2">
      <g>
       <use xlink:href="#me36fbac2f5" x="103.688647" y="307.584" style="stroke: #000000; stroke-width: 0.8"/>
      </g>
     </g>
     <g id="text_2">
      <!-- 50 -->
      <g transform="translate(97.326147 322.182437) scale(0.1 -0.1)">
       <defs>
        <path id="DejaVuSans-35" d="M 691 4666 
L 3169 4666 
L 3169 4134 
L 1269 4134 
L 1269 2991 
Q 1406 3038 1543 3061 
Q 1681 3084 1819 3084 
Q 2600 3084 3056 2656 
Q 3513 2228 3513 1497 
Q 3513 744 3044 326 
Q 2575 -91 1722 -91 
Q 1428 -91 1123 -41 
Q 819 9 494 109 
L 494 744 
Q 775 591 1075 516 
Q 1375 441 1709 441 
Q 2250 441 2565 725 
Q 2881 1009 2881 1497 
Q 2881 1984 2565 2268 
Q 2250 2553 1709 2553 
Q 1456 2553 1204 2497 
Q 953 2441 691 2322 
L 691 4666 
z
" transform="scale(0.015625)"/>
       </defs>
       <use xlink:href="#DejaVuSans-35"/>
       <use xlink:href="#DejaVuSans-30" x="63.623047"/>
      </g>
     </g>
    </g>
    <g id="xtick_3">
     <g id="line2d_3">
      <g>
       <use xlink:href="#me36fbac2f5" x="145.565831" y="307.584" style="stroke: #000000; stroke-width: 0.8"/>
      </g>
     </g>
     <g id="text_3">
      <!-- 100 -->
      <g transform="translate(136.022081 322.182437) scale(0.1 -0.1)">
       <defs>
        <path id="DejaVuSans-31" d="M 794 531 
L 1825 531 
L 1825 4091 
L 703 3866 
L 703 4441 
L 1819 4666 
L 2450 4666 
L 2450 531 
L 3481 531 
L 3481 0 
L 794 0 
L 794 531 
z
" transform="scale(0.015625)"/>
       </defs>
       <use xlink:href="#DejaVuSans-31"/>
       <use xlink:href="#DejaVuSans-30" x="63.623047"/>
       <use xlink:href="#DejaVuSans-30" x="127.246094"/>
      </g>
     </g>
    </g>
    <g id="xtick_4">
     <g id="line2d_4">
      <g>
       <use xlink:href="#me36fbac2f5" x="187.443015" y="307.584" style="stroke: #000000; stroke-width: 0.8"/>
      </g>
     </g>
     <g id="text_4">
      <!-- 150 -->
      <g transform="translate(177.899265 322.182437) scale(0.1 -0.1)">
       <use xlink:href="#DejaVuSans-31"/>
       <use xlink:href="#DejaVuSans-35" x="63.623047"/>
       <use xlink:href="#DejaVuSans-30" x="127.246094"/>
      </g>
     </g>
    </g>
    <g id="xtick_5">
     <g id="line2d_5">
      <g>
       <use xlink:href="#me36fbac2f5" x="229.3202" y="307.584" style="stroke: #000000; stroke-width: 0.8"/>
      </g>
     </g>
     <g id="text_5">
      <!-- 200 -->
      <g transform="translate(219.77645 322.182437) scale(0.1 -0.1)">
       <defs>
        <path id="DejaVuSans-32" d="M 1228 531 
L 3431 531 
L 3431 0 
L 469 0 
L 469 531 
Q 828 903 1448 1529 
Q 2069 2156 2228 2338 
Q 2531 2678 2651 2914 
Q 2772 3150 2772 3378 
Q 2772 3750 2511 3984 
Q 2250 4219 1831 4219 
Q 1534 4219 1204 4116 
Q 875 4013 500 3803 
L 500 4441 
Q 881 4594 1212 4672 
Q 1544 4750 1819 4750 
Q 2544 4750 2975 4387 
Q 3406 4025 3406 3419 
Q 3406 3131 3298 2873 
Q 3191 2616 2906 2266 
Q 2828 2175 2409 1742 
Q 1991 1309 1228 531 
z
" transform="scale(0.015625)"/>
       </defs>
       <use xlink:href="#DejaVuSans-32"/>
       <use xlink:href="#DejaVuSans-30" x="63.623047"/>
       <use xlink:href="#DejaVuSans-30" x="127.246094"/>
      </g>
     </g>
    </g>
    <g id="xtick_6">
     <g id="line2d_6">
      <g>
       <use xlink:href="#me36fbac2f5" x="271.197384" y="307.584" style="stroke: #000000; stroke-width: 0.8"/>
      </g>
     </g>
     <g id="text_6">
      <!-- 250 -->
      <g transform="translate(261.653634 322.182437) scale(0.1 -0.1)">
       <use xlink:href="#DejaVuSans-32"/>
       <use xlink:href="#DejaVuSans-35" x="63.623047"/>
       <use xlink:href="#DejaVuSans-30" x="127.246094"/>
      </g>
     </g>
    </g>
    <g id="xtick_7">
     <g id="line2d_7">
      <g>
       <use xlink:href="#me36fbac2f5" x="313.074568" y="307.584" style="stroke: #000000; stroke-width: 0.8"/>
      </g>
     </g>
     <g id="text_7">
      <!-- 300 -->
      <g transform="translate(303.530818 322.182437) scale(0.1 -0.1)">
       <defs>
        <path id="DejaVuSans-33" d="M 2597 2516 
Q 3050 2419 3304 2112 
Q 3559 1806 3559 1356 
Q 3559 666 3084 287 
Q 2609 -91 1734 -91 
Q 1441 -91 1130 -33 
Q 819 25 488 141 
L 488 750 
Q 750 597 1062 519 
Q 1375 441 1716 441 
Q 2309 441 2620 675 
Q 2931 909 2931 1356 
Q 2931 1769 2642 2001 
Q 2353 2234 1838 2234 
L 1294 2234 
L 1294 2753 
L 1863 2753 
Q 2328 2753 2575 2939 
Q 2822 3125 2822 3475 
Q 2822 3834 2567 4026 
Q 2313 4219 1838 4219 
Q 1578 4219 1281 4162 
Q 984 4106 628 3988 
L 628 4550 
Q 988 4650 1302 4700 
Q 1616 4750 1894 4750 
Q 2613 4750 3031 4423 
Q 3450 4097 3450 3541 
Q 3450 3153 3228 2886 
Q 3006 2619 2597 2516 
z
" transform="scale(0.015625)"/>
       </defs>
       <use xlink:href="#DejaVuSans-33"/>
       <use xlink:href="#DejaVuSans-30" x="63.623047"/>
       <use xlink:href="#DejaVuSans-30" x="127.246094"/>
      </g>
     </g>
    </g>
    <g id="xtick_8">
     <g id="line2d_8">
      <g>
       <use xlink:href="#me36fbac2f5" x="354.951752" y="307.584" style="stroke: #000000; stroke-width: 0.8"/>
      </g>
     </g>
     <g id="text_8">
      <!-- 350 -->
      <g transform="translate(345.408002 322.182437) scale(0.1 -0.1)">
       <use xlink:href="#DejaVuSans-33"/>
       <use xlink:href="#DejaVuSans-35" x="63.623047"/>
       <use xlink:href="#DejaVuSans-30" x="127.246094"/>
      </g>
     </g>
    </g>
    <g id="xtick_9">
     <g id="line2d_9">
      <g>
       <use xlink:href="#me36fbac2f5" x="396.828936" y="307.584" style="stroke: #000000; stroke-width: 0.8"/>
      </g>
     </g>
     <g id="text_9">
      <!-- 400 -->
      <g transform="translate(387.285186 322.182437) scale(0.1 -0.1)">
       <defs>
        <path id="DejaVuSans-34" d="M 2419 4116 
L 825 1625 
L 2419 1625 
L 2419 4116 
z
M 2253 4666 
L 3047 4666 
L 3047 1625 
L 3713 1625 
L 3713 1100 
L 3047 1100 
L 3047 0 
L 2419 0 
L 2419 1100 
L 313 1100 
L 313 1709 
L 2253 4666 
z
" transform="scale(0.015625)"/>
       </defs>
       <use xlink:href="#DejaVuSans-34"/>
       <use xlink:href="#DejaVuSans-30" x="63.623047"/>
       <use xlink:href="#DejaVuSans-30" x="127.246094"/>
      </g>
     </g>
    </g>
    <g id="text_10">
     <!-- Score -->
     <g transform="translate(222.157656 335.860562) scale(0.1 -0.1)">
      <defs>
       <path id="DejaVuSans-53" d="M 3425 4513 
L 3425 3897 
Q 3066 4069 2747 4153 
Q 2428 4238 2131 4238 
Q 1616 4238 1336 4038 
Q 1056 3838 1056 3469 
Q 1056 3159 1242 3001 
Q 1428 2844 1947 2747 
L 2328 2669 
Q 3034 2534 3370 2195 
Q 3706 1856 3706 1288 
Q 3706 609 3251 259 
Q 2797 -91 1919 -91 
Q 1588 -91 1214 -16 
Q 841 59 441 206 
L 441 856 
Q 825 641 1194 531 
Q 1563 422 1919 422 
Q 2459 422 2753 634 
Q 3047 847 3047 1241 
Q 3047 1584 2836 1778 
Q 2625 1972 2144 2069 
L 1759 2144 
Q 1053 2284 737 2584 
Q 422 2884 422 3419 
Q 422 4038 858 4394 
Q 1294 4750 2059 4750 
Q 2388 4750 2728 4690 
Q 3069 4631 3425 4513 
z
" transform="scale(0.015625)"/>
       <path id="DejaVuSans-63" d="M 3122 3366 
L 3122 2828 
Q 2878 2963 2633 3030 
Q 2388 3097 2138 3097 
Q 1578 3097 1268 2742 
Q 959 2388 959 1747 
Q 959 1106 1268 751 
Q 1578 397 2138 397 
Q 2388 397 2633 464 
Q 2878 531 3122 666 
L 3122 134 
Q 2881 22 2623 -34 
Q 2366 -91 2075 -91 
Q 1284 -91 818 406 
Q 353 903 353 1747 
Q 353 2603 823 3093 
Q 1294 3584 2113 3584 
Q 2378 3584 2631 3529 
Q 2884 3475 3122 3366 
z
" transform="scale(0.015625)"/>
       <path id="DejaVuSans-6f" d="M 1959 3097 
Q 1497 3097 1228 2736 
Q 959 2375 959 1747 
Q 959 1119 1226 758 
Q 1494 397 1959 397 
Q 2419 397 2687 759 
Q 2956 1122 2956 1747 
Q 2956 2369 2687 2733 
Q 2419 3097 1959 3097 
z
M 1959 3584 
Q 2709 3584 3137 3096 
Q 3566 2609 3566 1747 
Q 3566 888 3137 398 
Q 2709 -91 1959 -91 
Q 1206 -91 779 398 
Q 353 888 353 1747 
Q 353 2609 779 3096 
Q 1206 3584 1959 3584 
z
" transform="scale(0.015625)"/>
       <path id="DejaVuSans-72" d="M 2631 2963 
Q 2534 3019 2420 3045 
Q 2306 3072 2169 3072 
Q 1681 3072 1420 2755 
Q 1159 2438 1159 1844 
L 1159 0 
L 581 0 
L 581 3500 
L 1159 3500 
L 1159 2956 
Q 1341 3275 1631 3429 
Q 1922 3584 2338 3584 
Q 2397 3584 2469 3576 
Q 2541 3569 2628 3553 
L 2631 2963 
z
" transform="scale(0.015625)"/>
       <path id="DejaVuSans-65" d="M 3597 1894 
L 3597 1613 
L 953 1613 
Q 991 1019 1311 708 
Q 1631 397 2203 397 
Q 2534 397 2845 478 
Q 3156 559 3463 722 
L 3463 178 
Q 3153 47 2828 -22 
Q 2503 -91 2169 -91 
Q 1331 -91 842 396 
Q 353 884 353 1716 
Q 353 2575 817 3079 
Q 1281 3584 2069 3584 
Q 2775 3584 3186 3129 
Q 3597 2675 3597 1894 
z
M 3022 2063 
Q 3016 2534 2758 2815 
Q 2500 3097 2075 3097 
Q 1594 3097 1305 2825 
Q 1016 2553 972 2059 
L 3022 2063 
z
" transform="scale(0.015625)"/>
      </defs>
      <use xlink:href="#DejaVuSans-53"/>
      <use xlink:href="#DejaVuSans-63" x="63.476562"/>
      <use xlink:href="#DejaVuSans-6f" x="118.457031"/>
      <use xlink:href="#DejaVuSans-72" x="179.638672"/>
      <use xlink:href="#DejaVuSans-65" x="218.501953"/>
     </g>
    </g>
   </g>
   <g id="matplotlib.axis_2">
    <g id="ytick_1">
     <g id="line2d_10">
      <defs>
       <path id="mc74c3e541a" d="M 0 0 
L -3.5 0 
" style="stroke: #000000; stroke-width: 0.8"/>
      </defs>
      <g>
       <use xlink:href="#mc74c3e541a" x="57.6" y="307.584" style="stroke: #000000; stroke-width: 0.8"/>
      </g>
     </g>
     <g id="text_11">
      <!-- 0 -->
      <g transform="translate(44.2375 311.383219) scale(0.1 -0.1)">
       <use xlink:href="#DejaVuSans-30"/>
      </g>
     </g>
    </g>
    <g id="ytick_2">
     <g id="line2d_11">
      <g>
       <use xlink:href="#mc74c3e541a" x="57.6" y="257.298286" style="stroke: #000000; stroke-width: 0.8"/>
      </g>
     </g>
     <g id="text_12">
      <!-- 50 -->
      <g transform="translate(37.875 261.097504) scale(0.1 -0.1)">
       <use xlink:href="#DejaVuSans-35"/>
       <use xlink:href="#DejaVuSans-30" x="63.623047"/>
      </g>
     </g>
    </g>
    <g id="ytick_3">
     <g id="line2d_12">
      <g>
       <use xlink:href="#mc74c3e541a" x="57.6" y="207.012571" style="stroke: #000000; stroke-width: 0.8"/>
      </g>
     </g>
     <g id="text_13">
      <!-- 100 -->
      <g transform="translate(31.5125 210.81179) scale(0.1 -0.1)">
       <use xlink:href="#DejaVuSans-31"/>
       <use xlink:href="#DejaVuSans-30" x="63.623047"/>
       <use xlink:href="#DejaVuSans-30" x="127.246094"/>
      </g>
     </g>
    </g>
    <g id="ytick_4">
     <g id="line2d_13">
      <g>
       <use xlink:href="#mc74c3e541a" x="57.6" y="156.726857" style="stroke: #000000; stroke-width: 0.8"/>
      </g>
     </g>
     <g id="text_14">
      <!-- 150 -->
      <g transform="translate(31.5125 160.526076) scale(0.1 -0.1)">
       <use xlink:href="#DejaVuSans-31"/>
       <use xlink:href="#DejaVuSans-35" x="63.623047"/>
       <use xlink:href="#DejaVuSans-30" x="127.246094"/>
      </g>
     </g>
    </g>
    <g id="ytick_5">
     <g id="line2d_14">
      <g>
       <use xlink:href="#mc74c3e541a" x="57.6" y="106.441143" style="stroke: #000000; stroke-width: 0.8"/>
      </g>
     </g>
     <g id="text_15">
      <!-- 200 -->
      <g transform="translate(31.5125 110.240362) scale(0.1 -0.1)">
       <use xlink:href="#DejaVuSans-32"/>
       <use xlink:href="#DejaVuSans-30" x="63.623047"/>
       <use xlink:href="#DejaVuSans-30" x="127.246094"/>
      </g>
     </g>
    </g>
    <g id="ytick_6">
     <g id="line2d_15">
      <g>
       <use xlink:href="#mc74c3e541a" x="57.6" y="56.155429" style="stroke: #000000; stroke-width: 0.8"/>
      </g>
     </g>
     <g id="text_16">
      <!-- 250 -->
      <g transform="translate(31.5125 59.954647) scale(0.1 -0.1)">
       <use xlink:href="#DejaVuSans-32"/>
       <use xlink:href="#DejaVuSans-35" x="63.623047"/>
       <use xlink:href="#DejaVuSans-30" x="127.246094"/>
      </g>
     </g>
    </g>
    <g id="text_17">
     <!-- Number of crosslinks -->
     <g transform="translate(25.432812 227.019406) rotate(-90) scale(0.1 -0.1)">
      <defs>
       <path id="DejaVuSans-4e" d="M 628 4666 
L 1478 4666 
L 3547 763 
L 3547 4666 
L 4159 4666 
L 4159 0 
L 3309 0 
L 1241 3903 
L 1241 0 
L 628 0 
L 628 4666 
z
" transform="scale(0.015625)"/>
       <path id="DejaVuSans-75" d="M 544 1381 
L 544 3500 
L 1119 3500 
L 1119 1403 
Q 1119 906 1312 657 
Q 1506 409 1894 409 
Q 2359 409 2629 706 
Q 2900 1003 2900 1516 
L 2900 3500 
L 3475 3500 
L 3475 0 
L 2900 0 
L 2900 538 
Q 2691 219 2414 64 
Q 2138 -91 1772 -91 
Q 1169 -91 856 284 
Q 544 659 544 1381 
z
M 1991 3584 
L 1991 3584 
z
" transform="scale(0.015625)"/>
       <path id="DejaVuSans-6d" d="M 3328 2828 
Q 3544 3216 3844 3400 
Q 4144 3584 4550 3584 
Q 5097 3584 5394 3201 
Q 5691 2819 5691 2113 
L 5691 0 
L 5113 0 
L 5113 2094 
Q 5113 2597 4934 2840 
Q 4756 3084 4391 3084 
Q 3944 3084 3684 2787 
Q 3425 2491 3425 1978 
L 3425 0 
L 2847 0 
L 2847 2094 
Q 2847 2600 2669 2842 
Q 2491 3084 2119 3084 
Q 1678 3084 1418 2786 
Q 1159 2488 1159 1978 
L 1159 0 
L 581 0 
L 581 3500 
L 1159 3500 
L 1159 2956 
Q 1356 3278 1631 3431 
Q 1906 3584 2284 3584 
Q 2666 3584 2933 3390 
Q 3200 3197 3328 2828 
z
" transform="scale(0.015625)"/>
       <path id="DejaVuSans-62" d="M 3116 1747 
Q 3116 2381 2855 2742 
Q 2594 3103 2138 3103 
Q 1681 3103 1420 2742 
Q 1159 2381 1159 1747 
Q 1159 1113 1420 752 
Q 1681 391 2138 391 
Q 2594 391 2855 752 
Q 3116 1113 3116 1747 
z
M 1159 2969 
Q 1341 3281 1617 3432 
Q 1894 3584 2278 3584 
Q 2916 3584 3314 3078 
Q 3713 2572 3713 1747 
Q 3713 922 3314 415 
Q 2916 -91 2278 -91 
Q 1894 -91 1617 61 
Q 1341 213 1159 525 
L 1159 0 
L 581 0 
L 581 4863 
L 1159 4863 
L 1159 2969 
z
" transform="scale(0.015625)"/>
       <path id="DejaVuSans-20" transform="scale(0.015625)"/>
       <path id="DejaVuSans-66" d="M 2375 4863 
L 2375 4384 
L 1825 4384 
Q 1516 4384 1395 4259 
Q 1275 4134 1275 3809 
L 1275 3500 
L 2222 3500 
L 2222 3053 
L 1275 3053 
L 1275 0 
L 697 0 
L 697 3053 
L 147 3053 
L 147 3500 
L 697 3500 
L 697 3744 
Q 697 4328 969 4595 
Q 1241 4863 1831 4863 
L 2375 4863 
z
" transform="scale(0.015625)"/>
       <path id="DejaVuSans-73" d="M 2834 3397 
L 2834 2853 
Q 2591 2978 2328 3040 
Q 2066 3103 1784 3103 
Q 1356 3103 1142 2972 
Q 928 2841 928 2578 
Q 928 2378 1081 2264 
Q 1234 2150 1697 2047 
L 1894 2003 
Q 2506 1872 2764 1633 
Q 3022 1394 3022 966 
Q 3022 478 2636 193 
Q 2250 -91 1575 -91 
Q 1294 -91 989 -36 
Q 684 19 347 128 
L 347 722 
Q 666 556 975 473 
Q 1284 391 1588 391 
Q 1994 391 2212 530 
Q 2431 669 2431 922 
Q 2431 1156 2273 1281 
Q 2116 1406 1581 1522 
L 1381 1569 
Q 847 1681 609 1914 
Q 372 2147 372 2553 
Q 372 3047 722 3315 
Q 1072 3584 1716 3584 
Q 2034 3584 2315 3537 
Q 2597 3491 2834 3397 
z
" transform="scale(0.015625)"/>
       <path id="DejaVuSans-6c" d="M 603 4863 
L 1178 4863 
L 1178 0 
L 603 0 
L 603 4863 
z
" transform="scale(0.015625)"/>
       <path id="DejaVuSans-69" d="M 603 3500 
L 1178 3500 
L 1178 0 
L 603 0 
L 603 3500 
z
M 603 4863 
L 1178 4863 
L 1178 4134 
L 603 4134 
L 603 4863 
z
" transform="scale(0.015625)"/>
       <path id="DejaVuSans-6e" d="M 3513 2113 
L 3513 0 
L 2938 0 
L 2938 2094 
Q 2938 2591 2744 2837 
Q 2550 3084 2163 3084 
Q 1697 3084 1428 2787 
Q 1159 2491 1159 1978 
L 1159 0 
L 581 0 
L 581 3500 
L 1159 3500 
L 1159 2956 
Q 1366 3272 1645 3428 
Q 1925 3584 2291 3584 
Q 2894 3584 3203 3211 
Q 3513 2838 3513 2113 
z
" transform="scale(0.015625)"/>
       <path id="DejaVuSans-6b" d="M 581 4863 
L 1159 4863 
L 1159 1991 
L 2875 3500 
L 3609 3500 
L 1753 1863 
L 3688 0 
L 2938 0 
L 1159 1709 
L 1159 0 
L 581 0 
L 581 4863 
z
" transform="scale(0.015625)"/>
      </defs>
      <use xlink:href="#DejaVuSans-4e"/>
      <use xlink:href="#DejaVuSans-75" x="74.804688"/>
      <use xlink:href="#DejaVuSans-6d" x="138.183594"/>
      <use xlink:href="#DejaVuSans-62" x="235.595703"/>
      <use xlink:href="#DejaVuSans-65" x="299.072266"/>
      <use xlink:href="#DejaVuSans-72" x="360.595703"/>
      <use xlink:href="#DejaVuSans-20" x="401.708984"/>
      <use xlink:href="#DejaVuSans-6f" x="433.496094"/>
      <use xlink:href="#DejaVuSans-66" x="494.677734"/>
      <use xlink:href="#DejaVuSans-20" x="529.882812"/>
      <use xlink:href="#DejaVuSans-63" x="561.669922"/>
      <use xlink:href="#DejaVuSans-72" x="616.650391"/>
      <use xlink:href="#DejaVuSans-6f" x="655.513672"/>
      <use xlink:href="#DejaVuSans-73" x="716.695312"/>
      <use xlink:href="#DejaVuSans-73" x="768.794922"/>
      <use xlink:href="#DejaVuSans-6c" x="820.894531"/>
      <use xlink:href="#DejaVuSans-69" x="848.677734"/>
      <use xlink:href="#DejaVuSans-6e" x="876.460938"/>
      <use xlink:href="#DejaVuSans-6b" x="939.839844"/>
      <use xlink:href="#DejaVuSans-73" x="997.75"/>
     </g>
    </g>
   </g>
   <g id="patch_3">
    <path d="M 57.6 307.584 
L 57.6 41.472 
" style="fill: none; stroke: #000000; stroke-width: 0.8; stroke-linejoin: miter; stroke-linecap: square"/>
   </g>
   <g id="patch_4">
    <path d="M 414.72 307.584 
L 414.72 41.472 
" style="fill: none; stroke: #000000; stroke-width: 0.8; stroke-linejoin: miter; stroke-linecap: square"/>
   </g>
   <g id="patch_5">
    <path d="M 57.6 307.584 
L 414.72 307.584 
" style="fill: none; stroke: #000000; stroke-width: 0.8; stroke-linejoin: miter; stroke-linecap: square"/>
   </g>
   <g id="patch_6">
    <path d="M 57.6 41.472 
L 414.72 41.472 
" style="fill: none; stroke: #000000; stroke-width: 0.8; stroke-linejoin: miter; stroke-linecap: square"/>
   </g>
   <g id="legend_1">
    <g id="patch_7">
     <path d="M 293.087188 93.506375 
L 407.72 93.506375 
Q 409.72 93.506375 409.72 91.506375 
L 409.72 48.472 
Q 409.72 46.472 407.72 46.472 
L 293.087188 46.472 
Q 291.087188 46.472 291.087188 48.472 
L 291.087188 91.506375 
Q 291.087188 93.506375 293.087188 93.506375 
z
" style="fill: #ffffff; opacity: 0.8; stroke: #cccccc; stroke-linejoin: miter"/>
    </g>
    <g id="patch_8">
     <path d="M 295.087188 58.070438 
L 315.087188 58.070438 
L 315.087188 51.070438 
L 295.087188 51.070438 
z
" style="fill: #008000"/>
    </g>
    <g id="text_18">
     <!-- true -->
     <g transform="translate(323.087188 58.070438) scale(0.1 -0.1)">
      <defs>
       <path id="DejaVuSans-74" d="M 1172 4494 
L 1172 3500 
L 2356 3500 
L 2356 3053 
L 1172 3053 
L 1172 1153 
Q 1172 725 1289 603 
Q 1406 481 1766 481 
L 2356 481 
L 2356 0 
L 1766 0 
Q 1100 0 847 248 
Q 594 497 594 1153 
L 594 3053 
L 172 3053 
L 172 3500 
L 594 3500 
L 594 4494 
L 1172 4494 
z
" transform="scale(0.015625)"/>
      </defs>
      <use xlink:href="#DejaVuSans-74"/>
      <use xlink:href="#DejaVuSans-72" x="39.208984"/>
      <use xlink:href="#DejaVuSans-75" x="80.322266"/>
      <use xlink:href="#DejaVuSans-65" x="143.701172"/>
     </g>
    </g>
    <g id="patch_9">
     <path d="M 295.087188 72.748563 
L 315.087188 72.748563 
L 315.087188 65.748563 
L 295.087188 65.748563 
z
" style="fill: #7cfc00"/>
    </g>
    <g id="text_19">
     <!-- true homeotypic -->
     <g transform="translate(323.087188 72.748563) scale(0.1 -0.1)">
      <defs>
       <path id="DejaVuSans-68" d="M 3513 2113 
L 3513 0 
L 2938 0 
L 2938 2094 
Q 2938 2591 2744 2837 
Q 2550 3084 2163 3084 
Q 1697 3084 1428 2787 
Q 1159 2491 1159 1978 
L 1159 0 
L 581 0 
L 581 4863 
L 1159 4863 
L 1159 2956 
Q 1366 3272 1645 3428 
Q 1925 3584 2291 3584 
Q 2894 3584 3203 3211 
Q 3513 2838 3513 2113 
z
" transform="scale(0.015625)"/>
       <path id="DejaVuSans-79" d="M 2059 -325 
Q 1816 -950 1584 -1140 
Q 1353 -1331 966 -1331 
L 506 -1331 
L 506 -850 
L 844 -850 
Q 1081 -850 1212 -737 
Q 1344 -625 1503 -206 
L 1606 56 
L 191 3500 
L 800 3500 
L 1894 763 
L 2988 3500 
L 3597 3500 
L 2059 -325 
z
" transform="scale(0.015625)"/>
       <path id="DejaVuSans-70" d="M 1159 525 
L 1159 -1331 
L 581 -1331 
L 581 3500 
L 1159 3500 
L 1159 2969 
Q 1341 3281 1617 3432 
Q 1894 3584 2278 3584 
Q 2916 3584 3314 3078 
Q 3713 2572 3713 1747 
Q 3713 922 3314 415 
Q 2916 -91 2278 -91 
Q 1894 -91 1617 61 
Q 1341 213 1159 525 
z
M 3116 1747 
Q 3116 2381 2855 2742 
Q 2594 3103 2138 3103 
Q 1681 3103 1420 2742 
Q 1159 2381 1159 1747 
Q 1159 1113 1420 752 
Q 1681 391 2138 391 
Q 2594 391 2855 752 
Q 3116 1113 3116 1747 
z
" transform="scale(0.015625)"/>
      </defs>
      <use xlink:href="#DejaVuSans-74"/>
      <use xlink:href="#DejaVuSans-72" x="39.208984"/>
      <use xlink:href="#DejaVuSans-75" x="80.322266"/>
      <use xlink:href="#DejaVuSans-65" x="143.701172"/>
      <use xlink:href="#DejaVuSans-20" x="205.224609"/>
      <use xlink:href="#DejaVuSans-68" x="237.011719"/>
      <use xlink:href="#DejaVuSans-6f" x="300.390625"/>
      <use xlink:href="#DejaVuSans-6d" x="361.572266"/>
      <use xlink:href="#DejaVuSans-65" x="458.984375"/>
      <use xlink:href="#DejaVuSans-6f" x="520.507812"/>
      <use xlink:href="#DejaVuSans-74" x="581.689453"/>
      <use xlink:href="#DejaVuSans-79" x="620.898438"/>
      <use xlink:href="#DejaVuSans-70" x="680.078125"/>
      <use xlink:href="#DejaVuSans-69" x="743.554688"/>
      <use xlink:href="#DejaVuSans-63" x="771.337891"/>
     </g>
    </g>
    <g id="patch_10">
     <path d="M 295.087188 87.426688 
L 315.087188 87.426688 
L 315.087188 80.426688 
L 295.087188 80.426688 
z
" style="fill: #ff0000"/>
    </g>
    <g id="text_20">
     <!-- false -->
     <g transform="translate(323.087188 87.426688) scale(0.1 -0.1)">
      <defs>
       <path id="DejaVuSans-61" d="M 2194 1759 
Q 1497 1759 1228 1600 
Q 959 1441 959 1056 
Q 959 750 1161 570 
Q 1363 391 1709 391 
Q 2188 391 2477 730 
Q 2766 1069 2766 1631 
L 2766 1759 
L 2194 1759 
z
M 3341 1997 
L 3341 0 
L 2766 0 
L 2766 531 
Q 2569 213 2275 61 
Q 1981 -91 1556 -91 
Q 1019 -91 701 211 
Q 384 513 384 1019 
Q 384 1609 779 1909 
Q 1175 2209 1959 2209 
L 2766 2209 
L 2766 2266 
Q 2766 2663 2505 2880 
Q 2244 3097 1772 3097 
Q 1472 3097 1187 3025 
Q 903 2953 641 2809 
L 641 3341 
Q 956 3463 1253 3523 
Q 1550 3584 1831 3584 
Q 2591 3584 2966 3190 
Q 3341 2797 3341 1997 
z
" transform="scale(0.015625)"/>
      </defs>
      <use xlink:href="#DejaVuSans-66"/>
      <use xlink:href="#DejaVuSans-61" x="35.205078"/>
      <use xlink:href="#DejaVuSans-6c" x="96.484375"/>
      <use xlink:href="#DejaVuSans-73" x="124.267578"/>
      <use xlink:href="#DejaVuSans-65" x="176.367188"/>
     </g>
    </g>
   </g>
  </g>
 </g>
 <defs>
  <clipPath id="pcba6b53bd8">
   <rect x="57.6" y="41.472" width="357.12" height="266.112"/>
  </clipPath>
 </defs>
</svg>
