<?xml version="1.0" encoding="utf-8" standalone="no"?>
<!DOCTYPE svg PUBLIC "-//W3C//DTD SVG 1.1//EN"
  "http://www.w3.org/Graphics/SVG/1.1/DTD/svg11.dtd">
<svg xmlns:xlink="http://www.w3.org/1999/xlink" width="460.8pt" height="345.6pt" viewBox="0 0 460.8 345.6" xmlns="http://www.w3.org/2000/svg" version="1.1">
 <metadata>
  <rdf:RDF xmlns:dc="http://purl.org/dc/elements/1.1/" xmlns:cc="http://creativecommons.org/ns#" xmlns:rdf="http://www.w3.org/1999/02/22-rdf-syntax-ns#">
   <cc:Work>
    <dc:type rdf:resource="http://purl.org/dc/dcmitype/StillImage"/>
    <dc:date>2024-06-28T18:48:16.052860</dc:date>
    <dc:format>image/svg+xml</dc:format>
    <dc:creator>
     <cc:Agent>
      <dc:title>Matplotlib v3.9.0, https://matplotlib.org/</dc:title>
     </cc:Agent>
    </dc:creator>
   </cc:Work>
  </rdf:RDF>
 </metadata>
 <defs>
  <style type="text/css">*{stroke-linejoin: round; stroke-linecap: butt}</style>
 </defs>
 <g id="figure_1">
  <g id="patch_1">
   <path d="M 0 345.6 
L 460.8 345.6 
L 460.8 0 
L 0 0 
z
" style="fill: #ffffff"/>
  </g>
  <g id="axes_1">
   <g id="patch_2">
    <path d="M 57.6 307.584 
L 414.72 307.584 
L 414.72 41.472 
L 57.6 41.472 
z
" style="fill: #ffffff"/>
   </g>
   <g id="PolyCollection_1">
    <path d="M 73.832727 102.97189 
L 73.832727 307.584 
L 74.683924 307.584 
L 75.391545 307.584 
L 76.119677 307.584 
L 76.540147 307.584 
L 77.924624 307.584 
L 78.888629 307.584 
L 79.57574 307.584 
L 79.791103 307.584 
L 81.831923 307.584 
L 82.160095 307.584 
L 83.954787 307.584 
L 84.549599 307.584 
L 85.708457 307.584 
L 87.092933 307.584 
L 88.323578 307.584 
L 88.692772 307.584 
L 89.554224 307.584 
L 92.651348 307.584 
L 94.610126 307.584 
L 94.907532 307.584 
L 95.543365 307.584 
L 99.348111 307.584 
L 99.983945 307.584 
L 100.804375 307.584 
L 102.927239 307.584 
L 103.655371 307.584 
L 104.465546 307.584 
L 105.009081 307.584 
L 105.173167 307.584 
L 106.024363 307.584 
L 106.383301 307.584 
L 107.552415 307.584 
L 108.803571 307.584 
L 109.706044 307.584 
L 109.962429 307.584 
L 110.311112 307.584 
L 111.100776 307.584 
L 111.20333 307.584 
L 113.869728 307.584 
L 114.33122 307.584 
L 114.618371 307.584 
L 115.961826 307.584 
L 116.843788 307.584 
L 117.941114 307.584 
L 118.023157 307.584 
L 119.253803 307.584 
L 119.30508 307.584 
L 120.669045 307.584 
L 122.525269 307.584 
L 123.017527 307.584 
L 123.325188 307.584 
L 124.360982 307.584 
L 124.812218 307.584 
L 125.109624 307.584 
L 125.212178 307.584 
L 126.330014 307.584 
L 127.488872 307.584 
L 128.493899 307.584 
L 129.652757 307.584 
L 130.165526 307.584 
L 131.580769 307.584 
L 132.637073 307.584 
L 132.985756 307.584 
L 133.180608 307.584 
L 133.344694 307.584 
L 133.90874 307.584 
L 134.288189 307.584 
L 134.452275 307.584 
L 134.975299 307.584 
L 135.282961 307.584 
L 135.723942 307.584 
L 136.821268 307.584 
L 136.954587 307.584 
L 137.96987 307.584 
L 138.318553 307.584 
L 138.995408 307.584 
L 139.4569 307.584 
L 139.877371 307.584 
L 140.020946 307.584 
L 142.113043 307.584 
L 143.025772 307.584 
L 143.630839 307.584 
L 143.866713 307.584 
L 144.758931 307.584 
L 145.353743 307.584 
L 145.887023 307.584 
L 145.9383 307.584 
L 146.081875 307.584 
L 146.697198 307.584 
L 147.056136 307.584 
L 147.856056 307.584 
L 148.625209 307.584 
L 150.26607 307.584 
L 150.512199 307.584 
L 153.50677 307.584 
L 153.845197 307.584 
L 154.19388 307.584 
L 154.204136 307.584 
L 154.388732 307.584 
L 154.398988 307.584 
L 156.357765 307.584 
L 157.506368 307.584 
L 158.593438 307.584 
L 159.74204 307.584 
L 160.131745 307.584 
L 160.459917 307.584 
L 160.695791 307.584 
L 162.705845 307.584 
L 164.192875 307.584 
L 164.223641 307.584 
L 164.900496 307.584 
L 165.854247 307.584 
L 166.028588 307.584 
L 167.02336 307.584 
L 167.228467 307.584 
L 168.100175 307.584 
L 168.694987 307.584 
L 168.951371 307.584 
L 169.341076 307.584 
L 169.802568 307.584 
L 170.346103 307.584 
L 171.043469 307.584 
L 171.105001 307.584 
L 171.156278 307.584 
L 171.61777 307.584 
L 172.007474 307.584 
L 173.217609 307.584 
L 173.484249 307.584 
L 173.515015 307.584 
L 173.812421 307.584 
L 175.094343 307.584 
L 177.422315 307.584 
L 179.791307 307.584 
L 180.027181 307.584 
L 180.878377 307.584 
L 181.719318 307.584 
L 181.965448 307.584 
L 182.098768 307.584 
L 182.44745 307.584 
L 184.33444 307.584 
L 185.26768 307.584 
L 185.472787 307.584 
L 186.016322 307.584 
L 186.90854 307.584 
L 188.190463 307.584 
L 189.698004 307.584 
L 191.50295 307.584 
L 191.728569 307.584 
L 191.790101 307.584 
L 192.046486 307.584 
L 192.579765 307.584 
L 196.579363 307.584 
L 197.779243 307.584 
L 197.912563 307.584 
L 198.856057 307.584 
L 199.73802 307.584 
L 201.143007 307.584 
L 201.184029 307.584 
L 202.568505 307.584 
L 203.93247 307.584 
L 205.204137 307.584 
L 205.973291 307.584 
L 206.055334 307.584 
L 208.003856 307.584 
L 208.167942 307.584 
L 209.296034 307.584 
L 210.424125 307.584 
L 211.316343 307.584 
L 211.336854 307.584 
L 214.557043 307.584 
L 214.844194 307.584 
L 215.264664 307.584 
L 219.182219 307.584 
L 220.494908 307.584 
L 221.940916 307.584 
L 223.817651 307.584 
L 225.140595 307.584 
L 226.586603 307.584 
L 231.683527 307.584 
L 233.232089 307.584 
L 235.744657 307.584 
L 235.96002 307.584 
L 235.990786 307.584 
L 236.298448 307.584 
L 237.488072 307.584 
L 238.11365 307.584 
L 246.779445 307.584 
L 250.871342 307.584 
L 257.127123 307.584 
L 260.747272 307.584 
L 260.901103 307.584 
L 261.116466 307.584 
L 261.598469 307.584 
L 262.839369 307.584 
L 264.008483 307.584 
L 264.111037 307.584 
L 264.521252 307.584 
L 267.05433 307.584 
L 267.638887 307.584 
L 269.843794 307.584 
L 270.336052 307.584 
L 278.519845 307.584 
L 283.955196 307.584 
L 284.929457 307.584 
L 285.83193 307.584 
L 290.334042 307.584 
L 301.984153 307.584 
L 309.829518 307.584 
L 315.326401 307.584 
L 319.397787 307.584 
L 324.258837 307.584 
L 337.816448 307.584 
L 346.133561 307.584 
L 348.564086 307.584 
L 352.215001 307.584 
L 382.376072 307.584 
L 398.487273 307.584 
L 398.487273 306.421431 
L 398.487273 306.421431 
L 382.376072 306.421431 
L 352.215001 306.421431 
L 348.564086 305.258862 
L 346.133561 305.258862 
L 337.816448 304.096294 
L 324.258837 302.933725 
L 319.397787 302.933725 
L 315.326401 301.771156 
L 309.829518 300.608587 
L 301.984153 299.446018 
L 290.334042 298.28345 
L 285.83193 297.120881 
L 284.929457 295.958312 
L 283.955196 294.795743 
L 278.519845 294.795743 
L 270.336052 293.633174 
L 269.843794 292.470606 
L 267.638887 291.308037 
L 267.05433 290.145468 
L 264.521252 290.145468 
L 264.111037 290.145468 
L 264.008483 290.145468 
L 262.839369 288.982899 
L 261.598469 287.82033 
L 261.116466 286.657761 
L 260.901103 285.495193 
L 260.747272 284.332624 
L 257.127123 284.332624 
L 250.871342 284.332624 
L 246.779445 283.170055 
L 238.11365 282.007486 
L 237.488072 282.007486 
L 236.298448 282.007486 
L 235.990786 282.007486 
L 235.96002 280.844917 
L 235.744657 279.682349 
L 233.232089 279.682349 
L 231.683527 278.51978 
L 226.586603 277.357211 
L 225.140595 276.194642 
L 223.817651 275.032073 
L 221.940916 273.869505 
L 220.494908 272.706936 
L 219.182219 271.544367 
L 215.264664 270.381798 
L 214.844194 269.219229 
L 214.557043 268.056661 
L 211.336854 266.894092 
L 211.316343 266.894092 
L 210.424125 265.731523 
L 209.296034 264.568954 
L 208.167942 263.406385 
L 208.003856 263.406385 
L 206.055334 262.243817 
L 205.973291 261.081248 
L 205.204137 259.918679 
L 203.93247 258.75611 
L 202.568505 257.593541 
L 201.184029 256.430972 
L 201.143007 256.430972 
L 199.73802 255.268404 
L 198.856057 255.268404 
L 197.912563 255.268404 
L 197.779243 254.105835 
L 196.579363 254.105835 
L 192.579765 252.943266 
L 192.046486 251.780697 
L 191.790101 250.618128 
L 191.728569 250.618128 
L 191.50295 249.45556 
L 189.698004 248.292991 
L 188.190463 247.130422 
L 186.90854 245.967853 
L 186.016322 244.805284 
L 185.472787 243.642716 
L 185.26768 242.480147 
L 184.33444 241.317578 
L 182.44745 240.155009 
L 182.098768 238.99244 
L 181.965448 237.829872 
L 181.719318 236.667303 
L 180.878377 235.504734 
L 180.027181 234.342165 
L 179.791307 233.179596 
L 177.422315 232.017028 
L 175.094343 232.017028 
L 173.812421 230.854459 
L 173.515015 229.69189 
L 173.484249 229.69189 
L 173.217609 228.529321 
L 172.007474 227.366752 
L 171.61777 227.366752 
L 171.156278 226.204183 
L 171.105001 225.041615 
L 171.043469 223.879046 
L 170.346103 222.716477 
L 169.802568 222.716477 
L 169.341076 221.553908 
L 168.951371 220.391339 
L 168.694987 219.228771 
L 168.100175 219.228771 
L 167.228467 218.066202 
L 167.02336 216.903633 
L 166.028588 215.741064 
L 165.854247 214.578495 
L 164.900496 213.415927 
L 164.223641 213.415927 
L 164.192875 212.253358 
L 162.705845 211.090789 
L 160.695791 209.92822 
L 160.459917 208.765651 
L 160.131745 207.603083 
L 159.74204 206.440514 
L 158.593438 205.277945 
L 157.506368 204.115376 
L 156.357765 202.952807 
L 154.398988 201.790239 
L 154.388732 200.62767 
L 154.204136 199.465101 
L 154.19388 198.302532 
L 153.845197 197.139963 
L 153.50677 195.977394 
L 150.512199 194.814826 
L 150.26607 193.652257 
L 148.625209 192.489688 
L 147.856056 191.327119 
L 147.056136 190.16455 
L 146.697198 189.001982 
L 146.081875 187.839413 
L 145.9383 186.676844 
L 145.887023 185.514275 
L 145.353743 184.351706 
L 144.758931 183.189138 
L 143.866713 182.026569 
L 143.630839 182.026569 
L 143.025772 180.864 
L 142.113043 179.701431 
L 140.020946 178.538862 
L 139.877371 177.376294 
L 139.4569 176.213725 
L 138.995408 176.213725 
L 138.318553 175.051156 
L 137.96987 173.888587 
L 136.954587 172.726018 
L 136.821268 171.56345 
L 135.723942 170.400881 
L 135.282961 169.238312 
L 134.975299 168.075743 
L 134.452275 166.913174 
L 134.288189 165.750606 
L 133.90874 164.588037 
L 133.344694 163.425468 
L 133.180608 162.262899 
L 132.985756 161.10033 
L 132.637073 159.937761 
L 131.580769 159.937761 
L 130.165526 158.775193 
L 129.652757 158.775193 
L 128.493899 157.612624 
L 127.488872 156.450055 
L 126.330014 155.287486 
L 125.212178 154.124917 
L 125.109624 152.962349 
L 124.812218 151.79978 
L 124.360982 150.637211 
L 123.325188 149.474642 
L 123.017527 149.474642 
L 122.525269 148.312073 
L 120.669045 147.149505 
L 119.30508 145.986936 
L 119.253803 144.824367 
L 118.023157 143.661798 
L 117.941114 142.499229 
L 116.843788 142.499229 
L 115.961826 141.336661 
L 114.618371 140.174092 
L 114.33122 139.011523 
L 113.869728 137.848954 
L 111.20333 136.686385 
L 111.100776 135.523817 
L 110.311112 134.361248 
L 109.962429 133.198679 
L 109.706044 132.03611 
L 108.803571 130.873541 
L 107.552415 130.873541 
L 106.383301 129.710972 
L 106.024363 128.548404 
L 105.173167 127.385835 
L 105.009081 126.223266 
L 104.465546 126.223266 
L 103.655371 125.060697 
L 102.927239 123.898128 
L 100.804375 122.73556 
L 99.983945 122.73556 
L 99.348111 121.572991 
L 95.543365 120.410422 
L 94.907532 119.247853 
L 94.610126 119.247853 
L 92.651348 118.085284 
L 89.554224 118.085284 
L 88.692772 116.922716 
L 88.323578 115.760147 
L 87.092933 114.597578 
L 85.708457 114.597578 
L 84.549599 113.435009 
L 83.954787 112.27244 
L 82.160095 111.109872 
L 81.831923 109.947303 
L 79.791103 109.947303 
L 79.57574 108.784734 
L 78.888629 107.622165 
L 77.924624 106.459596 
L 76.540147 106.459596 
L 76.119677 105.297028 
L 75.391545 105.297028 
L 74.683924 104.134459 
L 73.832727 102.97189 
z
" clip-path="url(#p66c1ccdf7b)" style="fill: #008000"/>
   </g>
   <g id="PolyCollection_2">
    <path d="M 73.832727 57.631706 
L 73.832727 102.97189 
L 74.683924 104.134459 
L 75.391545 105.297028 
L 76.119677 105.297028 
L 76.540147 106.459596 
L 77.924624 106.459596 
L 78.888629 107.622165 
L 79.57574 108.784734 
L 79.791103 109.947303 
L 81.831923 109.947303 
L 82.160095 111.109872 
L 83.954787 112.27244 
L 84.549599 113.435009 
L 85.708457 114.597578 
L 87.092933 114.597578 
L 88.323578 115.760147 
L 88.692772 116.922716 
L 89.554224 118.085284 
L 92.651348 118.085284 
L 94.610126 119.247853 
L 94.907532 119.247853 
L 95.543365 120.410422 
L 99.348111 121.572991 
L 99.983945 122.73556 
L 100.804375 122.73556 
L 102.927239 123.898128 
L 103.655371 125.060697 
L 104.465546 126.223266 
L 105.009081 126.223266 
L 105.173167 127.385835 
L 106.024363 128.548404 
L 106.383301 129.710972 
L 107.552415 130.873541 
L 108.803571 130.873541 
L 109.706044 132.03611 
L 109.962429 133.198679 
L 110.311112 134.361248 
L 111.100776 135.523817 
L 111.20333 136.686385 
L 113.869728 137.848954 
L 114.33122 139.011523 
L 114.618371 140.174092 
L 115.961826 141.336661 
L 116.843788 142.499229 
L 117.941114 142.499229 
L 118.023157 143.661798 
L 119.253803 144.824367 
L 119.30508 145.986936 
L 120.669045 147.149505 
L 122.525269 148.312073 
L 123.017527 149.474642 
L 123.325188 149.474642 
L 124.360982 150.637211 
L 124.812218 151.79978 
L 125.109624 152.962349 
L 125.212178 154.124917 
L 126.330014 155.287486 
L 127.488872 156.450055 
L 128.493899 157.612624 
L 129.652757 158.775193 
L 130.165526 158.775193 
L 131.580769 159.937761 
L 132.637073 159.937761 
L 132.985756 161.10033 
L 133.180608 162.262899 
L 133.344694 163.425468 
L 133.90874 164.588037 
L 134.288189 165.750606 
L 134.452275 166.913174 
L 134.975299 168.075743 
L 135.282961 169.238312 
L 135.723942 170.400881 
L 136.821268 171.56345 
L 136.954587 172.726018 
L 137.96987 173.888587 
L 138.318553 175.051156 
L 138.995408 176.213725 
L 139.4569 176.213725 
L 139.877371 177.376294 
L 140.020946 178.538862 
L 142.113043 179.701431 
L 143.025772 180.864 
L 143.630839 182.026569 
L 143.866713 182.026569 
L 144.758931 183.189138 
L 145.353743 184.351706 
L 145.887023 185.514275 
L 145.9383 186.676844 
L 146.081875 187.839413 
L 146.697198 189.001982 
L 147.056136 190.16455 
L 147.856056 191.327119 
L 148.625209 192.489688 
L 150.26607 193.652257 
L 150.512199 194.814826 
L 153.50677 195.977394 
L 153.845197 197.139963 
L 154.19388 198.302532 
L 154.204136 199.465101 
L 154.388732 200.62767 
L 154.398988 201.790239 
L 156.357765 202.952807 
L 157.506368 204.115376 
L 158.593438 205.277945 
L 159.74204 206.440514 
L 160.131745 207.603083 
L 160.459917 208.765651 
L 160.695791 209.92822 
L 162.705845 211.090789 
L 164.192875 212.253358 
L 164.223641 213.415927 
L 164.900496 213.415927 
L 165.854247 214.578495 
L 166.028588 215.741064 
L 167.02336 216.903633 
L 167.228467 218.066202 
L 168.100175 219.228771 
L 168.694987 219.228771 
L 168.951371 220.391339 
L 169.341076 221.553908 
L 169.802568 222.716477 
L 170.346103 222.716477 
L 171.043469 223.879046 
L 171.105001 225.041615 
L 171.156278 226.204183 
L 171.61777 227.366752 
L 172.007474 227.366752 
L 173.217609 228.529321 
L 173.484249 229.69189 
L 173.515015 229.69189 
L 173.812421 230.854459 
L 175.094343 232.017028 
L 177.422315 232.017028 
L 179.791307 233.179596 
L 180.027181 234.342165 
L 180.878377 235.504734 
L 181.719318 236.667303 
L 181.965448 237.829872 
L 182.098768 238.99244 
L 182.44745 240.155009 
L 184.33444 241.317578 
L 185.26768 242.480147 
L 185.472787 243.642716 
L 186.016322 244.805284 
L 186.90854 245.967853 
L 188.190463 247.130422 
L 189.698004 248.292991 
L 191.50295 249.45556 
L 191.728569 250.618128 
L 191.790101 250.618128 
L 192.046486 251.780697 
L 192.579765 252.943266 
L 196.579363 254.105835 
L 197.779243 254.105835 
L 197.912563 255.268404 
L 198.856057 255.268404 
L 199.73802 255.268404 
L 201.143007 256.430972 
L 201.184029 256.430972 
L 202.568505 257.593541 
L 203.93247 258.75611 
L 205.204137 259.918679 
L 205.973291 261.081248 
L 206.055334 262.243817 
L 208.003856 263.406385 
L 208.167942 263.406385 
L 209.296034 264.568954 
L 210.424125 265.731523 
L 211.316343 266.894092 
L 211.336854 266.894092 
L 214.557043 268.056661 
L 214.844194 269.219229 
L 215.264664 270.381798 
L 219.182219 271.544367 
L 220.494908 272.706936 
L 221.940916 273.869505 
L 223.817651 275.032073 
L 225.140595 276.194642 
L 226.586603 277.357211 
L 231.683527 278.51978 
L 233.232089 279.682349 
L 235.744657 279.682349 
L 235.96002 280.844917 
L 235.990786 282.007486 
L 236.298448 282.007486 
L 237.488072 282.007486 
L 238.11365 282.007486 
L 246.779445 283.170055 
L 250.871342 284.332624 
L 257.127123 284.332624 
L 260.747272 284.332624 
L 260.901103 285.495193 
L 261.116466 286.657761 
L 261.598469 287.82033 
L 262.839369 288.982899 
L 264.008483 290.145468 
L 264.111037 290.145468 
L 264.521252 290.145468 
L 267.05433 290.145468 
L 267.638887 291.308037 
L 269.843794 292.470606 
L 270.336052 293.633174 
L 278.519845 294.795743 
L 283.955196 294.795743 
L 284.929457 295.958312 
L 285.83193 297.120881 
L 290.334042 298.28345 
L 301.984153 299.446018 
L 309.829518 300.608587 
L 315.326401 301.771156 
L 319.397787 302.933725 
L 324.258837 302.933725 
L 337.816448 304.096294 
L 346.133561 305.258862 
L 348.564086 305.258862 
L 352.215001 306.421431 
L 382.376072 306.421431 
L 398.487273 306.421431 
L 398.487273 306.421431 
L 398.487273 306.421431 
L 382.376072 305.258862 
L 352.215001 304.096294 
L 348.564086 302.933725 
L 346.133561 301.771156 
L 337.816448 300.608587 
L 324.258837 299.446018 
L 319.397787 298.28345 
L 315.326401 297.120881 
L 309.829518 295.958312 
L 301.984153 294.795743 
L 290.334042 293.633174 
L 285.83193 292.470606 
L 284.929457 291.308037 
L 283.955196 290.145468 
L 278.519845 288.982899 
L 270.336052 287.82033 
L 269.843794 286.657761 
L 267.638887 285.495193 
L 267.05433 284.332624 
L 264.521252 283.170055 
L 264.111037 282.007486 
L 264.008483 280.844917 
L 262.839369 279.682349 
L 261.598469 278.51978 
L 261.116466 277.357211 
L 260.901103 276.194642 
L 260.747272 275.032073 
L 257.127123 273.869505 
L 250.871342 272.706936 
L 246.779445 271.544367 
L 238.11365 270.381798 
L 237.488072 269.219229 
L 236.298448 268.056661 
L 235.990786 266.894092 
L 235.96002 265.731523 
L 235.744657 264.568954 
L 233.232089 263.406385 
L 231.683527 262.243817 
L 226.586603 261.081248 
L 225.140595 259.918679 
L 223.817651 258.75611 
L 221.940916 257.593541 
L 220.494908 256.430972 
L 219.182219 255.268404 
L 215.264664 254.105835 
L 214.844194 252.943266 
L 214.557043 251.780697 
L 211.336854 250.618128 
L 211.316343 249.45556 
L 210.424125 248.292991 
L 209.296034 247.130422 
L 208.167942 245.967853 
L 208.003856 244.805284 
L 206.055334 243.642716 
L 205.973291 242.480147 
L 205.204137 241.317578 
L 203.93247 240.155009 
L 202.568505 238.99244 
L 201.184029 237.829872 
L 201.143007 236.667303 
L 199.73802 235.504734 
L 198.856057 234.342165 
L 197.912563 233.179596 
L 197.779243 232.017028 
L 196.579363 230.854459 
L 192.579765 229.69189 
L 192.046486 228.529321 
L 191.790101 227.366752 
L 191.728569 226.204183 
L 191.50295 225.041615 
L 189.698004 223.879046 
L 188.190463 222.716477 
L 186.90854 221.553908 
L 186.016322 220.391339 
L 185.472787 219.228771 
L 185.26768 218.066202 
L 184.33444 216.903633 
L 182.44745 215.741064 
L 182.098768 214.578495 
L 181.965448 213.415927 
L 181.719318 212.253358 
L 180.878377 211.090789 
L 180.027181 209.92822 
L 179.791307 208.765651 
L 177.422315 207.603083 
L 175.094343 206.440514 
L 173.812421 205.277945 
L 173.515015 204.115376 
L 173.484249 202.952807 
L 173.217609 201.790239 
L 172.007474 200.62767 
L 171.61777 199.465101 
L 171.156278 198.302532 
L 171.105001 197.139963 
L 171.043469 195.977394 
L 170.346103 194.814826 
L 169.802568 193.652257 
L 169.341076 192.489688 
L 168.951371 191.327119 
L 168.694987 190.16455 
L 168.100175 189.001982 
L 167.228467 187.839413 
L 167.02336 186.676844 
L 166.028588 185.514275 
L 165.854247 184.351706 
L 164.900496 183.189138 
L 164.223641 182.026569 
L 164.192875 180.864 
L 162.705845 179.701431 
L 160.695791 178.538862 
L 160.459917 177.376294 
L 160.131745 176.213725 
L 159.74204 175.051156 
L 158.593438 173.888587 
L 157.506368 172.726018 
L 156.357765 171.56345 
L 154.398988 170.400881 
L 154.388732 169.238312 
L 154.204136 168.075743 
L 154.19388 166.913174 
L 153.845197 165.750606 
L 153.50677 164.588037 
L 150.512199 163.425468 
L 150.26607 162.262899 
L 148.625209 161.10033 
L 147.856056 159.937761 
L 147.056136 158.775193 
L 146.697198 157.612624 
L 146.081875 156.450055 
L 145.9383 155.287486 
L 145.887023 154.124917 
L 145.353743 152.962349 
L 144.758931 151.79978 
L 143.866713 150.637211 
L 143.630839 149.474642 
L 143.025772 148.312073 
L 142.113043 147.149505 
L 140.020946 145.986936 
L 139.877371 144.824367 
L 139.4569 143.661798 
L 138.995408 142.499229 
L 138.318553 141.336661 
L 137.96987 140.174092 
L 136.954587 139.011523 
L 136.821268 137.848954 
L 135.723942 136.686385 
L 135.282961 135.523817 
L 134.975299 134.361248 
L 134.452275 133.198679 
L 134.288189 132.03611 
L 133.90874 130.873541 
L 133.344694 129.710972 
L 133.180608 128.548404 
L 132.985756 127.385835 
L 132.637073 126.223266 
L 131.580769 125.060697 
L 130.165526 123.898128 
L 129.652757 122.73556 
L 128.493899 121.572991 
L 127.488872 120.410422 
L 126.330014 119.247853 
L 125.212178 118.085284 
L 125.109624 116.922716 
L 124.812218 115.760147 
L 124.360982 114.597578 
L 123.325188 113.435009 
L 123.017527 112.27244 
L 122.525269 111.109872 
L 120.669045 109.947303 
L 119.30508 108.784734 
L 119.253803 107.622165 
L 118.023157 106.459596 
L 117.941114 105.297028 
L 116.843788 104.134459 
L 115.961826 102.97189 
L 114.618371 101.809321 
L 114.33122 100.646752 
L 113.869728 99.484183 
L 111.20333 98.321615 
L 111.100776 97.159046 
L 110.311112 95.996477 
L 109.962429 94.833908 
L 109.706044 93.671339 
L 108.803571 92.508771 
L 107.552415 91.346202 
L 106.383301 90.183633 
L 106.024363 89.021064 
L 105.173167 87.858495 
L 105.009081 86.695927 
L 104.465546 85.533358 
L 103.655371 84.370789 
L 102.927239 83.20822 
L 100.804375 82.045651 
L 99.983945 82.045651 
L 99.348111 80.883083 
L 95.543365 79.720514 
L 94.907532 78.557945 
L 94.610126 77.395376 
L 92.651348 76.232807 
L 89.554224 76.232807 
L 88.692772 75.070239 
L 88.323578 73.90767 
L 87.092933 72.745101 
L 85.708457 72.745101 
L 84.549599 71.582532 
L 83.954787 70.419963 
L 82.160095 69.257394 
L 81.831923 68.094826 
L 79.791103 66.932257 
L 79.57574 65.769688 
L 78.888629 64.607119 
L 77.924624 63.44455 
L 76.540147 62.281982 
L 76.119677 61.119413 
L 75.391545 59.956844 
L 74.683924 58.794275 
L 73.832727 57.631706 
z
" clip-path="url(#p66c1ccdf7b)" style="fill: #7cfc00"/>
   </g>
   <g id="PolyCollection_3">
    <path d="M 73.832727 54.144 
L 73.832727 57.631706 
L 74.683924 58.794275 
L 75.391545 59.956844 
L 76.119677 61.119413 
L 76.540147 62.281982 
L 77.924624 63.44455 
L 78.888629 64.607119 
L 79.57574 65.769688 
L 79.791103 66.932257 
L 81.831923 68.094826 
L 82.160095 69.257394 
L 83.954787 70.419963 
L 84.549599 71.582532 
L 85.708457 72.745101 
L 87.092933 72.745101 
L 88.323578 73.90767 
L 88.692772 75.070239 
L 89.554224 76.232807 
L 92.651348 76.232807 
L 94.610126 77.395376 
L 94.907532 78.557945 
L 95.543365 79.720514 
L 99.348111 80.883083 
L 99.983945 82.045651 
L 100.804375 82.045651 
L 102.927239 83.20822 
L 103.655371 84.370789 
L 104.465546 85.533358 
L 105.009081 86.695927 
L 105.173167 87.858495 
L 106.024363 89.021064 
L 106.383301 90.183633 
L 107.552415 91.346202 
L 108.803571 92.508771 
L 109.706044 93.671339 
L 109.962429 94.833908 
L 110.311112 95.996477 
L 111.100776 97.159046 
L 111.20333 98.321615 
L 113.869728 99.484183 
L 114.33122 100.646752 
L 114.618371 101.809321 
L 115.961826 102.97189 
L 116.843788 104.134459 
L 117.941114 105.297028 
L 118.023157 106.459596 
L 119.253803 107.622165 
L 119.30508 108.784734 
L 120.669045 109.947303 
L 122.525269 111.109872 
L 123.017527 112.27244 
L 123.325188 113.435009 
L 124.360982 114.597578 
L 124.812218 115.760147 
L 125.109624 116.922716 
L 125.212178 118.085284 
L 126.330014 119.247853 
L 127.488872 120.410422 
L 128.493899 121.572991 
L 129.652757 122.73556 
L 130.165526 123.898128 
L 131.580769 125.060697 
L 132.637073 126.223266 
L 132.985756 127.385835 
L 133.180608 128.548404 
L 133.344694 129.710972 
L 133.90874 130.873541 
L 134.288189 132.03611 
L 134.452275 133.198679 
L 134.975299 134.361248 
L 135.282961 135.523817 
L 135.723942 136.686385 
L 136.821268 137.848954 
L 136.954587 139.011523 
L 137.96987 140.174092 
L 138.318553 141.336661 
L 138.995408 142.499229 
L 139.4569 143.661798 
L 139.877371 144.824367 
L 140.020946 145.986936 
L 142.113043 147.149505 
L 143.025772 148.312073 
L 143.630839 149.474642 
L 143.866713 150.637211 
L 144.758931 151.79978 
L 145.353743 152.962349 
L 145.887023 154.124917 
L 145.9383 155.287486 
L 146.081875 156.450055 
L 146.697198 157.612624 
L 147.056136 158.775193 
L 147.856056 159.937761 
L 148.625209 161.10033 
L 150.26607 162.262899 
L 150.512199 163.425468 
L 153.50677 164.588037 
L 153.845197 165.750606 
L 154.19388 166.913174 
L 154.204136 168.075743 
L 154.388732 169.238312 
L 154.398988 170.400881 
L 156.357765 171.56345 
L 157.506368 172.726018 
L 158.593438 173.888587 
L 159.74204 175.051156 
L 160.131745 176.213725 
L 160.459917 177.376294 
L 160.695791 178.538862 
L 162.705845 179.701431 
L 164.192875 180.864 
L 164.223641 182.026569 
L 164.900496 183.189138 
L 165.854247 184.351706 
L 166.028588 185.514275 
L 167.02336 186.676844 
L 167.228467 187.839413 
L 168.100175 189.001982 
L 168.694987 190.16455 
L 168.951371 191.327119 
L 169.341076 192.489688 
L 169.802568 193.652257 
L 170.346103 194.814826 
L 171.043469 195.977394 
L 171.105001 197.139963 
L 171.156278 198.302532 
L 171.61777 199.465101 
L 172.007474 200.62767 
L 173.217609 201.790239 
L 173.484249 202.952807 
L 173.515015 204.115376 
L 173.812421 205.277945 
L 175.094343 206.440514 
L 177.422315 207.603083 
L 179.791307 208.765651 
L 180.027181 209.92822 
L 180.878377 211.090789 
L 181.719318 212.253358 
L 181.965448 213.415927 
L 182.098768 214.578495 
L 182.44745 215.741064 
L 184.33444 216.903633 
L 185.26768 218.066202 
L 185.472787 219.228771 
L 186.016322 220.391339 
L 186.90854 221.553908 
L 188.190463 222.716477 
L 189.698004 223.879046 
L 191.50295 225.041615 
L 191.728569 226.204183 
L 191.790101 227.366752 
L 192.046486 228.529321 
L 192.579765 229.69189 
L 196.579363 230.854459 
L 197.779243 232.017028 
L 197.912563 233.179596 
L 198.856057 234.342165 
L 199.73802 235.504734 
L 201.143007 236.667303 
L 201.184029 237.829872 
L 202.568505 238.99244 
L 203.93247 240.155009 
L 205.204137 241.317578 
L 205.973291 242.480147 
L 206.055334 243.642716 
L 208.003856 244.805284 
L 208.167942 245.967853 
L 209.296034 247.130422 
L 210.424125 248.292991 
L 211.316343 249.45556 
L 211.336854 250.618128 
L 214.557043 251.780697 
L 214.844194 252.943266 
L 215.264664 254.105835 
L 219.182219 255.268404 
L 220.494908 256.430972 
L 221.940916 257.593541 
L 223.817651 258.75611 
L 225.140595 259.918679 
L 226.586603 261.081248 
L 231.683527 262.243817 
L 233.232089 263.406385 
L 235.744657 264.568954 
L 235.96002 265.731523 
L 235.990786 266.894092 
L 236.298448 268.056661 
L 237.488072 269.219229 
L 238.11365 270.381798 
L 246.779445 271.544367 
L 250.871342 272.706936 
L 257.127123 273.869505 
L 260.747272 275.032073 
L 260.901103 276.194642 
L 261.116466 277.357211 
L 261.598469 278.51978 
L 262.839369 279.682349 
L 264.008483 280.844917 
L 264.111037 282.007486 
L 264.521252 283.170055 
L 267.05433 284.332624 
L 267.638887 285.495193 
L 269.843794 286.657761 
L 270.336052 287.82033 
L 278.519845 288.982899 
L 283.955196 290.145468 
L 284.929457 291.308037 
L 285.83193 292.470606 
L 290.334042 293.633174 
L 301.984153 294.795743 
L 309.829518 295.958312 
L 315.326401 297.120881 
L 319.397787 298.28345 
L 324.258837 299.446018 
L 337.816448 300.608587 
L 346.133561 301.771156 
L 348.564086 302.933725 
L 352.215001 304.096294 
L 382.376072 305.258862 
L 398.487273 306.421431 
L 398.487273 306.421431 
L 398.487273 306.421431 
L 382.376072 305.258862 
L 352.215001 304.096294 
L 348.564086 302.933725 
L 346.133561 301.771156 
L 337.816448 300.608587 
L 324.258837 299.446018 
L 319.397787 298.28345 
L 315.326401 297.120881 
L 309.829518 295.958312 
L 301.984153 294.795743 
L 290.334042 293.633174 
L 285.83193 292.470606 
L 284.929457 291.308037 
L 283.955196 290.145468 
L 278.519845 288.982899 
L 270.336052 287.82033 
L 269.843794 286.657761 
L 267.638887 285.495193 
L 267.05433 284.332624 
L 264.521252 283.170055 
L 264.111037 282.007486 
L 264.008483 280.844917 
L 262.839369 279.682349 
L 261.598469 278.51978 
L 261.116466 277.357211 
L 260.901103 276.194642 
L 260.747272 275.032073 
L 257.127123 273.869505 
L 250.871342 272.706936 
L 246.779445 271.544367 
L 238.11365 270.381798 
L 237.488072 269.219229 
L 236.298448 268.056661 
L 235.990786 266.894092 
L 235.96002 265.731523 
L 235.744657 264.568954 
L 233.232089 263.406385 
L 231.683527 262.243817 
L 226.586603 261.081248 
L 225.140595 259.918679 
L 223.817651 258.75611 
L 221.940916 257.593541 
L 220.494908 256.430972 
L 219.182219 255.268404 
L 215.264664 254.105835 
L 214.844194 252.943266 
L 214.557043 251.780697 
L 211.336854 250.618128 
L 211.316343 249.45556 
L 210.424125 248.292991 
L 209.296034 247.130422 
L 208.167942 245.967853 
L 208.003856 244.805284 
L 206.055334 243.642716 
L 205.973291 242.480147 
L 205.204137 241.317578 
L 203.93247 240.155009 
L 202.568505 238.99244 
L 201.184029 237.829872 
L 201.143007 236.667303 
L 199.73802 235.504734 
L 198.856057 234.342165 
L 197.912563 233.179596 
L 197.779243 232.017028 
L 196.579363 230.854459 
L 192.579765 229.69189 
L 192.046486 228.529321 
L 191.790101 227.366752 
L 191.728569 226.204183 
L 191.50295 225.041615 
L 189.698004 223.879046 
L 188.190463 222.716477 
L 186.90854 221.553908 
L 186.016322 220.391339 
L 185.472787 219.228771 
L 185.26768 218.066202 
L 184.33444 216.903633 
L 182.44745 215.741064 
L 182.098768 214.578495 
L 181.965448 213.415927 
L 181.719318 212.253358 
L 180.878377 211.090789 
L 180.027181 209.92822 
L 179.791307 208.765651 
L 177.422315 207.603083 
L 175.094343 206.440514 
L 173.812421 205.277945 
L 173.515015 204.115376 
L 173.484249 202.952807 
L 173.217609 201.790239 
L 172.007474 200.62767 
L 171.61777 199.465101 
L 171.156278 198.302532 
L 171.105001 197.139963 
L 171.043469 195.977394 
L 170.346103 194.814826 
L 169.802568 193.652257 
L 169.341076 192.489688 
L 168.951371 191.327119 
L 168.694987 190.16455 
L 168.100175 189.001982 
L 167.228467 187.839413 
L 167.02336 186.676844 
L 166.028588 185.514275 
L 165.854247 184.351706 
L 164.900496 183.189138 
L 164.223641 182.026569 
L 164.192875 180.864 
L 162.705845 179.701431 
L 160.695791 178.538862 
L 160.459917 177.376294 
L 160.131745 176.213725 
L 159.74204 175.051156 
L 158.593438 173.888587 
L 157.506368 172.726018 
L 156.357765 171.56345 
L 154.398988 170.400881 
L 154.388732 169.238312 
L 154.204136 168.075743 
L 154.19388 166.913174 
L 153.845197 165.750606 
L 153.50677 164.588037 
L 150.512199 163.425468 
L 150.26607 162.262899 
L 148.625209 161.10033 
L 147.856056 159.937761 
L 147.056136 158.775193 
L 146.697198 157.612624 
L 146.081875 156.450055 
L 145.9383 155.287486 
L 145.887023 154.124917 
L 145.353743 152.962349 
L 144.758931 151.79978 
L 143.866713 150.637211 
L 143.630839 149.474642 
L 143.025772 148.312073 
L 142.113043 147.149505 
L 140.020946 145.986936 
L 139.877371 144.824367 
L 139.4569 143.661798 
L 138.995408 142.499229 
L 138.318553 141.336661 
L 137.96987 140.174092 
L 136.954587 139.011523 
L 136.821268 137.848954 
L 135.723942 136.686385 
L 135.282961 135.523817 
L 134.975299 134.361248 
L 134.452275 133.198679 
L 134.288189 132.03611 
L 133.90874 130.873541 
L 133.344694 129.710972 
L 133.180608 128.548404 
L 132.985756 127.385835 
L 132.637073 126.223266 
L 131.580769 125.060697 
L 130.165526 123.898128 
L 129.652757 122.73556 
L 128.493899 121.572991 
L 127.488872 120.410422 
L 126.330014 119.247853 
L 125.212178 118.085284 
L 125.109624 116.922716 
L 124.812218 115.760147 
L 124.360982 114.597578 
L 123.325188 113.435009 
L 123.017527 112.27244 
L 122.525269 111.109872 
L 120.669045 109.947303 
L 119.30508 108.784734 
L 119.253803 107.622165 
L 118.023157 106.459596 
L 117.941114 105.297028 
L 116.843788 104.134459 
L 115.961826 102.97189 
L 114.618371 101.809321 
L 114.33122 100.646752 
L 113.869728 99.484183 
L 111.20333 98.321615 
L 111.100776 97.159046 
L 110.311112 95.996477 
L 109.962429 94.833908 
L 109.706044 93.671339 
L 108.803571 92.508771 
L 107.552415 91.346202 
L 106.383301 90.183633 
L 106.024363 89.021064 
L 105.173167 87.858495 
L 105.009081 86.695927 
L 104.465546 85.533358 
L 103.655371 84.370789 
L 102.927239 83.20822 
L 100.804375 82.045651 
L 99.983945 80.883083 
L 99.348111 79.720514 
L 95.543365 78.557945 
L 94.907532 77.395376 
L 94.610126 76.232807 
L 92.651348 75.070239 
L 89.554224 73.90767 
L 88.692772 72.745101 
L 88.323578 71.582532 
L 87.092933 70.419963 
L 85.708457 69.257394 
L 84.549599 68.094826 
L 83.954787 66.932257 
L 82.160095 65.769688 
L 81.831923 64.607119 
L 79.791103 63.44455 
L 79.57574 62.281982 
L 78.888629 61.119413 
L 77.924624 59.956844 
L 76.540147 58.794275 
L 76.119677 57.631706 
L 75.391545 56.469138 
L 74.683924 55.306569 
L 73.832727 54.144 
z
" clip-path="url(#p66c1ccdf7b)" style="fill: #ff0000"/>
   </g>
   <g id="matplotlib.axis_1">
    <g id="xtick_1">
     <g id="line2d_1">
      <defs>
       <path id="me3497472a8" d="M 0 0 
L 0 3.5 
" style="stroke: #000000; stroke-width: 0.8"/>
      </defs>
      <g>
       <use xlink:href="#me3497472a8" x="69.597256" y="307.584" style="stroke: #000000; stroke-width: 0.8"/>
      </g>
     </g>
     <g id="text_1">
      <!-- 10 -->
      <g transform="translate(63.234756 322.182437) scale(0.1 -0.1)">
       <defs>
        <path id="DejaVuSans-31" d="M 794 531 
L 1825 531 
L 1825 4091 
L 703 3866 
L 703 4441 
L 1819 4666 
L 2450 4666 
L 2450 531 
L 3481 531 
L 3481 0 
L 794 0 
L 794 531 
z
" transform="scale(0.015625)"/>
        <path id="DejaVuSans-30" d="M 2034 4250 
Q 1547 4250 1301 3770 
Q 1056 3291 1056 2328 
Q 1056 1369 1301 889 
Q 1547 409 2034 409 
Q 2525 409 2770 889 
Q 3016 1369 3016 2328 
Q 3016 3291 2770 3770 
Q 2525 4250 2034 4250 
z
M 2034 4750 
Q 2819 4750 3233 4129 
Q 3647 3509 3647 2328 
Q 3647 1150 3233 529 
Q 2819 -91 2034 -91 
Q 1250 -91 836 529 
Q 422 1150 422 2328 
Q 422 3509 836 4129 
Q 1250 4750 2034 4750 
z
" transform="scale(0.015625)"/>
       </defs>
       <use xlink:href="#DejaVuSans-31"/>
       <use xlink:href="#DejaVuSans-30" x="63.623047"/>
      </g>
     </g>
    </g>
    <g id="xtick_2">
     <g id="line2d_2">
      <g>
       <use xlink:href="#me3497472a8" x="120.874153" y="307.584" style="stroke: #000000; stroke-width: 0.8"/>
      </g>
     </g>
     <g id="text_2">
      <!-- 15 -->
      <g transform="translate(114.511653 322.182437) scale(0.1 -0.1)">
       <defs>
        <path id="DejaVuSans-35" d="M 691 4666 
L 3169 4666 
L 3169 4134 
L 1269 4134 
L 1269 2991 
Q 1406 3038 1543 3061 
Q 1681 3084 1819 3084 
Q 2600 3084 3056 2656 
Q 3513 2228 3513 1497 
Q 3513 744 3044 326 
Q 2575 -91 1722 -91 
Q 1428 -91 1123 -41 
Q 819 9 494 109 
L 494 744 
Q 775 591 1075 516 
Q 1375 441 1709 441 
Q 2250 441 2565 725 
Q 2881 1009 2881 1497 
Q 2881 1984 2565 2268 
Q 2250 2553 1709 2553 
Q 1456 2553 1204 2497 
Q 953 2441 691 2322 
L 691 4666 
z
" transform="scale(0.015625)"/>
       </defs>
       <use xlink:href="#DejaVuSans-31"/>
       <use xlink:href="#DejaVuSans-35" x="63.623047"/>
      </g>
     </g>
    </g>
    <g id="xtick_3">
     <g id="line2d_3">
      <g>
       <use xlink:href="#me3497472a8" x="172.15105" y="307.584" style="stroke: #000000; stroke-width: 0.8"/>
      </g>
     </g>
     <g id="text_3">
      <!-- 20 -->
      <g transform="translate(165.78855 322.182437) scale(0.1 -0.1)">
       <defs>
        <path id="DejaVuSans-32" d="M 1228 531 
L 3431 531 
L 3431 0 
L 469 0 
L 469 531 
Q 828 903 1448 1529 
Q 2069 2156 2228 2338 
Q 2531 2678 2651 2914 
Q 2772 3150 2772 3378 
Q 2772 3750 2511 3984 
Q 2250 4219 1831 4219 
Q 1534 4219 1204 4116 
Q 875 4013 500 3803 
L 500 4441 
Q 881 4594 1212 4672 
Q 1544 4750 1819 4750 
Q 2544 4750 2975 4387 
Q 3406 4025 3406 3419 
Q 3406 3131 3298 2873 
Q 3191 2616 2906 2266 
Q 2828 2175 2409 1742 
Q 1991 1309 1228 531 
z
" transform="scale(0.015625)"/>
       </defs>
       <use xlink:href="#DejaVuSans-32"/>
       <use xlink:href="#DejaVuSans-30" x="63.623047"/>
      </g>
     </g>
    </g>
    <g id="xtick_4">
     <g id="line2d_4">
      <g>
       <use xlink:href="#me3497472a8" x="223.427946" y="307.584" style="stroke: #000000; stroke-width: 0.8"/>
      </g>
     </g>
     <g id="text_4">
      <!-- 25 -->
      <g transform="translate(217.065446 322.182437) scale(0.1 -0.1)">
       <use xlink:href="#DejaVuSans-32"/>
       <use xlink:href="#DejaVuSans-35" x="63.623047"/>
      </g>
     </g>
    </g>
    <g id="xtick_5">
     <g id="line2d_5">
      <g>
       <use xlink:href="#me3497472a8" x="274.704843" y="307.584" style="stroke: #000000; stroke-width: 0.8"/>
      </g>
     </g>
     <g id="text_5">
      <!-- 30 -->
      <g transform="translate(268.342343 322.182437) scale(0.1 -0.1)">
       <defs>
        <path id="DejaVuSans-33" d="M 2597 2516 
Q 3050 2419 3304 2112 
Q 3559 1806 3559 1356 
Q 3559 666 3084 287 
Q 2609 -91 1734 -91 
Q 1441 -91 1130 -33 
Q 819 25 488 141 
L 488 750 
Q 750 597 1062 519 
Q 1375 441 1716 441 
Q 2309 441 2620 675 
Q 2931 909 2931 1356 
Q 2931 1769 2642 2001 
Q 2353 2234 1838 2234 
L 1294 2234 
L 1294 2753 
L 1863 2753 
Q 2328 2753 2575 2939 
Q 2822 3125 2822 3475 
Q 2822 3834 2567 4026 
Q 2313 4219 1838 4219 
Q 1578 4219 1281 4162 
Q 984 4106 628 3988 
L 628 4550 
Q 988 4650 1302 4700 
Q 1616 4750 1894 4750 
Q 2613 4750 3031 4423 
Q 3450 4097 3450 3541 
Q 3450 3153 3228 2886 
Q 3006 2619 2597 2516 
z
" transform="scale(0.015625)"/>
       </defs>
       <use xlink:href="#DejaVuSans-33"/>
       <use xlink:href="#DejaVuSans-30" x="63.623047"/>
      </g>
     </g>
    </g>
    <g id="xtick_6">
     <g id="line2d_6">
      <g>
       <use xlink:href="#me3497472a8" x="325.98174" y="307.584" style="stroke: #000000; stroke-width: 0.8"/>
      </g>
     </g>
     <g id="text_6">
      <!-- 35 -->
      <g transform="translate(319.61924 322.182437) scale(0.1 -0.1)">
       <use xlink:href="#DejaVuSans-33"/>
       <use xlink:href="#DejaVuSans-35" x="63.623047"/>
      </g>
     </g>
    </g>
    <g id="xtick_7">
     <g id="line2d_7">
      <g>
       <use xlink:href="#me3497472a8" x="377.258637" y="307.584" style="stroke: #000000; stroke-width: 0.8"/>
      </g>
     </g>
     <g id="text_7">
      <!-- 40 -->
      <g transform="translate(370.896137 322.182437) scale(0.1 -0.1)">
       <defs>
        <path id="DejaVuSans-34" d="M 2419 4116 
L 825 1625 
L 2419 1625 
L 2419 4116 
z
M 2253 4666 
L 3047 4666 
L 3047 1625 
L 3713 1625 
L 3713 1100 
L 3047 1100 
L 3047 0 
L 2419 0 
L 2419 1100 
L 313 1100 
L 313 1709 
L 2253 4666 
z
" transform="scale(0.015625)"/>
       </defs>
       <use xlink:href="#DejaVuSans-34"/>
       <use xlink:href="#DejaVuSans-30" x="63.623047"/>
      </g>
     </g>
    </g>
    <g id="text_8">
     <!-- Score -->
     <g transform="translate(222.157656 335.860562) scale(0.1 -0.1)">
      <defs>
       <path id="DejaVuSans-53" d="M 3425 4513 
L 3425 3897 
Q 3066 4069 2747 4153 
Q 2428 4238 2131 4238 
Q 1616 4238 1336 4038 
Q 1056 3838 1056 3469 
Q 1056 3159 1242 3001 
Q 1428 2844 1947 2747 
L 2328 2669 
Q 3034 2534 3370 2195 
Q 3706 1856 3706 1288 
Q 3706 609 3251 259 
Q 2797 -91 1919 -91 
Q 1588 -91 1214 -16 
Q 841 59 441 206 
L 441 856 
Q 825 641 1194 531 
Q 1563 422 1919 422 
Q 2459 422 2753 634 
Q 3047 847 3047 1241 
Q 3047 1584 2836 1778 
Q 2625 1972 2144 2069 
L 1759 2144 
Q 1053 2284 737 2584 
Q 422 2884 422 3419 
Q 422 4038 858 4394 
Q 1294 4750 2059 4750 
Q 2388 4750 2728 4690 
Q 3069 4631 3425 4513 
z
" transform="scale(0.015625)"/>
       <path id="DejaVuSans-63" d="M 3122 3366 
L 3122 2828 
Q 2878 2963 2633 3030 
Q 2388 3097 2138 3097 
Q 1578 3097 1268 2742 
Q 959 2388 959 1747 
Q 959 1106 1268 751 
Q 1578 397 2138 397 
Q 2388 397 2633 464 
Q 2878 531 3122 666 
L 3122 134 
Q 2881 22 2623 -34 
Q 2366 -91 2075 -91 
Q 1284 -91 818 406 
Q 353 903 353 1747 
Q 353 2603 823 3093 
Q 1294 3584 2113 3584 
Q 2378 3584 2631 3529 
Q 2884 3475 3122 3366 
z
" transform="scale(0.015625)"/>
       <path id="DejaVuSans-6f" d="M 1959 3097 
Q 1497 3097 1228 2736 
Q 959 2375 959 1747 
Q 959 1119 1226 758 
Q 1494 397 1959 397 
Q 2419 397 2687 759 
Q 2956 1122 2956 1747 
Q 2956 2369 2687 2733 
Q 2419 3097 1959 3097 
z
M 1959 3584 
Q 2709 3584 3137 3096 
Q 3566 2609 3566 1747 
Q 3566 888 3137 398 
Q 2709 -91 1959 -91 
Q 1206 -91 779 398 
Q 353 888 353 1747 
Q 353 2609 779 3096 
Q 1206 3584 1959 3584 
z
" transform="scale(0.015625)"/>
       <path id="DejaVuSans-72" d="M 2631 2963 
Q 2534 3019 2420 3045 
Q 2306 3072 2169 3072 
Q 1681 3072 1420 2755 
Q 1159 2438 1159 1844 
L 1159 0 
L 581 0 
L 581 3500 
L 1159 3500 
L 1159 2956 
Q 1341 3275 1631 3429 
Q 1922 3584 2338 3584 
Q 2397 3584 2469 3576 
Q 2541 3569 2628 3553 
L 2631 2963 
z
" transform="scale(0.015625)"/>
       <path id="DejaVuSans-65" d="M 3597 1894 
L 3597 1613 
L 953 1613 
Q 991 1019 1311 708 
Q 1631 397 2203 397 
Q 2534 397 2845 478 
Q 3156 559 3463 722 
L 3463 178 
Q 3153 47 2828 -22 
Q 2503 -91 2169 -91 
Q 1331 -91 842 396 
Q 353 884 353 1716 
Q 353 2575 817 3079 
Q 1281 3584 2069 3584 
Q 2775 3584 3186 3129 
Q 3597 2675 3597 1894 
z
M 3022 2063 
Q 3016 2534 2758 2815 
Q 2500 3097 2075 3097 
Q 1594 3097 1305 2825 
Q 1016 2553 972 2059 
L 3022 2063 
z
" transform="scale(0.015625)"/>
      </defs>
      <use xlink:href="#DejaVuSans-53"/>
      <use xlink:href="#DejaVuSans-63" x="63.476562"/>
      <use xlink:href="#DejaVuSans-6f" x="118.457031"/>
      <use xlink:href="#DejaVuSans-72" x="179.638672"/>
      <use xlink:href="#DejaVuSans-65" x="218.501953"/>
     </g>
    </g>
   </g>
   <g id="matplotlib.axis_2">
    <g id="ytick_1">
     <g id="line2d_8">
      <defs>
       <path id="m28103862ae" d="M 0 0 
L -3.5 0 
" style="stroke: #000000; stroke-width: 0.8"/>
      </defs>
      <g>
       <use xlink:href="#m28103862ae" x="57.6" y="307.584" style="stroke: #000000; stroke-width: 0.8"/>
      </g>
     </g>
     <g id="text_9">
      <!-- 0 -->
      <g transform="translate(44.2375 311.383219) scale(0.1 -0.1)">
       <use xlink:href="#DejaVuSans-30"/>
      </g>
     </g>
    </g>
    <g id="ytick_2">
     <g id="line2d_9">
      <g>
       <use xlink:href="#m28103862ae" x="57.6" y="249.45556" style="stroke: #000000; stroke-width: 0.8"/>
      </g>
     </g>
     <g id="text_10">
      <!-- 50 -->
      <g transform="translate(37.875 253.254778) scale(0.1 -0.1)">
       <use xlink:href="#DejaVuSans-35"/>
       <use xlink:href="#DejaVuSans-30" x="63.623047"/>
      </g>
     </g>
    </g>
    <g id="ytick_3">
     <g id="line2d_10">
      <g>
       <use xlink:href="#m28103862ae" x="57.6" y="191.327119" style="stroke: #000000; stroke-width: 0.8"/>
      </g>
     </g>
     <g id="text_11">
      <!-- 100 -->
      <g transform="translate(31.5125 195.126338) scale(0.1 -0.1)">
       <use xlink:href="#DejaVuSans-31"/>
       <use xlink:href="#DejaVuSans-30" x="63.623047"/>
       <use xlink:href="#DejaVuSans-30" x="127.246094"/>
      </g>
     </g>
    </g>
    <g id="ytick_4">
     <g id="line2d_11">
      <g>
       <use xlink:href="#m28103862ae" x="57.6" y="133.198679" style="stroke: #000000; stroke-width: 0.8"/>
      </g>
     </g>
     <g id="text_12">
      <!-- 150 -->
      <g transform="translate(31.5125 136.997898) scale(0.1 -0.1)">
       <use xlink:href="#DejaVuSans-31"/>
       <use xlink:href="#DejaVuSans-35" x="63.623047"/>
       <use xlink:href="#DejaVuSans-30" x="127.246094"/>
      </g>
     </g>
    </g>
    <g id="ytick_5">
     <g id="line2d_12">
      <g>
       <use xlink:href="#m28103862ae" x="57.6" y="75.070239" style="stroke: #000000; stroke-width: 0.8"/>
      </g>
     </g>
     <g id="text_13">
      <!-- 200 -->
      <g transform="translate(31.5125 78.869457) scale(0.1 -0.1)">
       <use xlink:href="#DejaVuSans-32"/>
       <use xlink:href="#DejaVuSans-30" x="63.623047"/>
       <use xlink:href="#DejaVuSans-30" x="127.246094"/>
      </g>
     </g>
    </g>
    <g id="text_14">
     <!-- Number of crosslinks -->
     <g transform="translate(25.432812 227.019406) rotate(-90) scale(0.1 -0.1)">
      <defs>
       <path id="DejaVuSans-4e" d="M 628 4666 
L 1478 4666 
L 3547 763 
L 3547 4666 
L 4159 4666 
L 4159 0 
L 3309 0 
L 1241 3903 
L 1241 0 
L 628 0 
L 628 4666 
z
" transform="scale(0.015625)"/>
       <path id="DejaVuSans-75" d="M 544 1381 
L 544 3500 
L 1119 3500 
L 1119 1403 
Q 1119 906 1312 657 
Q 1506 409 1894 409 
Q 2359 409 2629 706 
Q 2900 1003 2900 1516 
L 2900 3500 
L 3475 3500 
L 3475 0 
L 2900 0 
L 2900 538 
Q 2691 219 2414 64 
Q 2138 -91 1772 -91 
Q 1169 -91 856 284 
Q 544 659 544 1381 
z
M 1991 3584 
L 1991 3584 
z
" transform="scale(0.015625)"/>
       <path id="DejaVuSans-6d" d="M 3328 2828 
Q 3544 3216 3844 3400 
Q 4144 3584 4550 3584 
Q 5097 3584 5394 3201 
Q 5691 2819 5691 2113 
L 5691 0 
L 5113 0 
L 5113 2094 
Q 5113 2597 4934 2840 
Q 4756 3084 4391 3084 
Q 3944 3084 3684 2787 
Q 3425 2491 3425 1978 
L 3425 0 
L 2847 0 
L 2847 2094 
Q 2847 2600 2669 2842 
Q 2491 3084 2119 3084 
Q 1678 3084 1418 2786 
Q 1159 2488 1159 1978 
L 1159 0 
L 581 0 
L 581 3500 
L 1159 3500 
L 1159 2956 
Q 1356 3278 1631 3431 
Q 1906 3584 2284 3584 
Q 2666 3584 2933 3390 
Q 3200 3197 3328 2828 
z
" transform="scale(0.015625)"/>
       <path id="DejaVuSans-62" d="M 3116 1747 
Q 3116 2381 2855 2742 
Q 2594 3103 2138 3103 
Q 1681 3103 1420 2742 
Q 1159 2381 1159 1747 
Q 1159 1113 1420 752 
Q 1681 391 2138 391 
Q 2594 391 2855 752 
Q 3116 1113 3116 1747 
z
M 1159 2969 
Q 1341 3281 1617 3432 
Q 1894 3584 2278 3584 
Q 2916 3584 3314 3078 
Q 3713 2572 3713 1747 
Q 3713 922 3314 415 
Q 2916 -91 2278 -91 
Q 1894 -91 1617 61 
Q 1341 213 1159 525 
L 1159 0 
L 581 0 
L 581 4863 
L 1159 4863 
L 1159 2969 
z
" transform="scale(0.015625)"/>
       <path id="DejaVuSans-20" transform="scale(0.015625)"/>
       <path id="DejaVuSans-66" d="M 2375 4863 
L 2375 4384 
L 1825 4384 
Q 1516 4384 1395 4259 
Q 1275 4134 1275 3809 
L 1275 3500 
L 2222 3500 
L 2222 3053 
L 1275 3053 
L 1275 0 
L 697 0 
L 697 3053 
L 147 3053 
L 147 3500 
L 697 3500 
L 697 3744 
Q 697 4328 969 4595 
Q 1241 4863 1831 4863 
L 2375 4863 
z
" transform="scale(0.015625)"/>
       <path id="DejaVuSans-73" d="M 2834 3397 
L 2834 2853 
Q 2591 2978 2328 3040 
Q 2066 3103 1784 3103 
Q 1356 3103 1142 2972 
Q 928 2841 928 2578 
Q 928 2378 1081 2264 
Q 1234 2150 1697 2047 
L 1894 2003 
Q 2506 1872 2764 1633 
Q 3022 1394 3022 966 
Q 3022 478 2636 193 
Q 2250 -91 1575 -91 
Q 1294 -91 989 -36 
Q 684 19 347 128 
L 347 722 
Q 666 556 975 473 
Q 1284 391 1588 391 
Q 1994 391 2212 530 
Q 2431 669 2431 922 
Q 2431 1156 2273 1281 
Q 2116 1406 1581 1522 
L 1381 1569 
Q 847 1681 609 1914 
Q 372 2147 372 2553 
Q 372 3047 722 3315 
Q 1072 3584 1716 3584 
Q 2034 3584 2315 3537 
Q 2597 3491 2834 3397 
z
" transform="scale(0.015625)"/>
       <path id="DejaVuSans-6c" d="M 603 4863 
L 1178 4863 
L 1178 0 
L 603 0 
L 603 4863 
z
" transform="scale(0.015625)"/>
       <path id="DejaVuSans-69" d="M 603 3500 
L 1178 3500 
L 1178 0 
L 603 0 
L 603 3500 
z
M 603 4863 
L 1178 4863 
L 1178 4134 
L 603 4134 
L 603 4863 
z
" transform="scale(0.015625)"/>
       <path id="DejaVuSans-6e" d="M 3513 2113 
L 3513 0 
L 2938 0 
L 2938 2094 
Q 2938 2591 2744 2837 
Q 2550 3084 2163 3084 
Q 1697 3084 1428 2787 
Q 1159 2491 1159 1978 
L 1159 0 
L 581 0 
L 581 3500 
L 1159 3500 
L 1159 2956 
Q 1366 3272 1645 3428 
Q 1925 3584 2291 3584 
Q 2894 3584 3203 3211 
Q 3513 2838 3513 2113 
z
" transform="scale(0.015625)"/>
       <path id="DejaVuSans-6b" d="M 581 4863 
L 1159 4863 
L 1159 1991 
L 2875 3500 
L 3609 3500 
L 1753 1863 
L 3688 0 
L 2938 0 
L 1159 1709 
L 1159 0 
L 581 0 
L 581 4863 
z
" transform="scale(0.015625)"/>
      </defs>
      <use xlink:href="#DejaVuSans-4e"/>
      <use xlink:href="#DejaVuSans-75" x="74.804688"/>
      <use xlink:href="#DejaVuSans-6d" x="138.183594"/>
      <use xlink:href="#DejaVuSans-62" x="235.595703"/>
      <use xlink:href="#DejaVuSans-65" x="299.072266"/>
      <use xlink:href="#DejaVuSans-72" x="360.595703"/>
      <use xlink:href="#DejaVuSans-20" x="401.708984"/>
      <use xlink:href="#DejaVuSans-6f" x="433.496094"/>
      <use xlink:href="#DejaVuSans-66" x="494.677734"/>
      <use xlink:href="#DejaVuSans-20" x="529.882812"/>
      <use xlink:href="#DejaVuSans-63" x="561.669922"/>
      <use xlink:href="#DejaVuSans-72" x="616.650391"/>
      <use xlink:href="#DejaVuSans-6f" x="655.513672"/>
      <use xlink:href="#DejaVuSans-73" x="716.695312"/>
      <use xlink:href="#DejaVuSans-73" x="768.794922"/>
      <use xlink:href="#DejaVuSans-6c" x="820.894531"/>
      <use xlink:href="#DejaVuSans-69" x="848.677734"/>
      <use xlink:href="#DejaVuSans-6e" x="876.460938"/>
      <use xlink:href="#DejaVuSans-6b" x="939.839844"/>
      <use xlink:href="#DejaVuSans-73" x="997.75"/>
     </g>
    </g>
   </g>
   <g id="patch_3">
    <path d="M 57.6 307.584 
L 57.6 41.472 
" style="fill: none; stroke: #000000; stroke-width: 0.8; stroke-linejoin: miter; stroke-linecap: square"/>
   </g>
   <g id="patch_4">
    <path d="M 414.72 307.584 
L 414.72 41.472 
" style="fill: none; stroke: #000000; stroke-width: 0.8; stroke-linejoin: miter; stroke-linecap: square"/>
   </g>
   <g id="patch_5">
    <path d="M 57.6 307.584 
L 414.72 307.584 
" style="fill: none; stroke: #000000; stroke-width: 0.8; stroke-linejoin: miter; stroke-linecap: square"/>
   </g>
   <g id="patch_6">
    <path d="M 57.6 41.472 
L 414.72 41.472 
" style="fill: none; stroke: #000000; stroke-width: 0.8; stroke-linejoin: miter; stroke-linecap: square"/>
   </g>
   <g id="legend_1">
    <g id="patch_7">
     <path d="M 293.087188 93.506375 
L 407.72 93.506375 
Q 409.72 93.506375 409.72 91.506375 
L 409.72 48.472 
Q 409.72 46.472 407.72 46.472 
L 293.087188 46.472 
Q 291.087188 46.472 291.087188 48.472 
L 291.087188 91.506375 
Q 291.087188 93.506375 293.087188 93.506375 
z
" style="fill: #ffffff; opacity: 0.8; stroke: #cccccc; stroke-linejoin: miter"/>
    </g>
    <g id="patch_8">
     <path d="M 295.087188 58.070438 
L 315.087188 58.070438 
L 315.087188 51.070438 
L 295.087188 51.070438 
z
" style="fill: #008000"/>
    </g>
    <g id="text_15">
     <!-- true -->
     <g transform="translate(323.087188 58.070438) scale(0.1 -0.1)">
      <defs>
       <path id="DejaVuSans-74" d="M 1172 4494 
L 1172 3500 
L 2356 3500 
L 2356 3053 
L 1172 3053 
L 1172 1153 
Q 1172 725 1289 603 
Q 1406 481 1766 481 
L 2356 481 
L 2356 0 
L 1766 0 
Q 1100 0 847 248 
Q 594 497 594 1153 
L 594 3053 
L 172 3053 
L 172 3500 
L 594 3500 
L 594 4494 
L 1172 4494 
z
" transform="scale(0.015625)"/>
      </defs>
      <use xlink:href="#DejaVuSans-74"/>
      <use xlink:href="#DejaVuSans-72" x="39.208984"/>
      <use xlink:href="#DejaVuSans-75" x="80.322266"/>
      <use xlink:href="#DejaVuSans-65" x="143.701172"/>
     </g>
    </g>
    <g id="patch_9">
     <path d="M 295.087188 72.748563 
L 315.087188 72.748563 
L 315.087188 65.748563 
L 295.087188 65.748563 
z
" style="fill: #7cfc00"/>
    </g>
    <g id="text_16">
     <!-- true homeotypic -->
     <g transform="translate(323.087188 72.748563) scale(0.1 -0.1)">
      <defs>
       <path id="DejaVuSans-68" d="M 3513 2113 
L 3513 0 
L 2938 0 
L 2938 2094 
Q 2938 2591 2744 2837 
Q 2550 3084 2163 3084 
Q 1697 3084 1428 2787 
Q 1159 2491 1159 1978 
L 1159 0 
L 581 0 
L 581 4863 
L 1159 4863 
L 1159 2956 
Q 1366 3272 1645 3428 
Q 1925 3584 2291 3584 
Q 2894 3584 3203 3211 
Q 3513 2838 3513 2113 
z
" transform="scale(0.015625)"/>
       <path id="DejaVuSans-79" d="M 2059 -325 
Q 1816 -950 1584 -1140 
Q 1353 -1331 966 -1331 
L 506 -1331 
L 506 -850 
L 844 -850 
Q 1081 -850 1212 -737 
Q 1344 -625 1503 -206 
L 1606 56 
L 191 3500 
L 800 3500 
L 1894 763 
L 2988 3500 
L 3597 3500 
L 2059 -325 
z
" transform="scale(0.015625)"/>
       <path id="DejaVuSans-70" d="M 1159 525 
L 1159 -1331 
L 581 -1331 
L 581 3500 
L 1159 3500 
L 1159 2969 
Q 1341 3281 1617 3432 
Q 1894 3584 2278 3584 
Q 2916 3584 3314 3078 
Q 3713 2572 3713 1747 
Q 3713 922 3314 415 
Q 2916 -91 2278 -91 
Q 1894 -91 1617 61 
Q 1341 213 1159 525 
z
M 3116 1747 
Q 3116 2381 2855 2742 
Q 2594 3103 2138 3103 
Q 1681 3103 1420 2742 
Q 1159 2381 1159 1747 
Q 1159 1113 1420 752 
Q 1681 391 2138 391 
Q 2594 391 2855 752 
Q 3116 1113 3116 1747 
z
" transform="scale(0.015625)"/>
      </defs>
      <use xlink:href="#DejaVuSans-74"/>
      <use xlink:href="#DejaVuSans-72" x="39.208984"/>
      <use xlink:href="#DejaVuSans-75" x="80.322266"/>
      <use xlink:href="#DejaVuSans-65" x="143.701172"/>
      <use xlink:href="#DejaVuSans-20" x="205.224609"/>
      <use xlink:href="#DejaVuSans-68" x="237.011719"/>
      <use xlink:href="#DejaVuSans-6f" x="300.390625"/>
      <use xlink:href="#DejaVuSans-6d" x="361.572266"/>
      <use xlink:href="#DejaVuSans-65" x="458.984375"/>
      <use xlink:href="#DejaVuSans-6f" x="520.507812"/>
      <use xlink:href="#DejaVuSans-74" x="581.689453"/>
      <use xlink:href="#DejaVuSans-79" x="620.898438"/>
      <use xlink:href="#DejaVuSans-70" x="680.078125"/>
      <use xlink:href="#DejaVuSans-69" x="743.554688"/>
      <use xlink:href="#DejaVuSans-63" x="771.337891"/>
     </g>
    </g>
    <g id="patch_10">
     <path d="M 295.087188 87.426688 
L 315.087188 87.426688 
L 315.087188 80.426688 
L 295.087188 80.426688 
z
" style="fill: #ff0000"/>
    </g>
    <g id="text_17">
     <!-- false -->
     <g transform="translate(323.087188 87.426688) scale(0.1 -0.1)">
      <defs>
       <path id="DejaVuSans-61" d="M 2194 1759 
Q 1497 1759 1228 1600 
Q 959 1441 959 1056 
Q 959 750 1161 570 
Q 1363 391 1709 391 
Q 2188 391 2477 730 
Q 2766 1069 2766 1631 
L 2766 1759 
L 2194 1759 
z
M 3341 1997 
L 3341 0 
L 2766 0 
L 2766 531 
Q 2569 213 2275 61 
Q 1981 -91 1556 -91 
Q 1019 -91 701 211 
Q 384 513 384 1019 
Q 384 1609 779 1909 
Q 1175 2209 1959 2209 
L 2766 2209 
L 2766 2266 
Q 2766 2663 2505 2880 
Q 2244 3097 1772 3097 
Q 1472 3097 1187 3025 
Q 903 2953 641 2809 
L 641 3341 
Q 956 3463 1253 3523 
Q 1550 3584 1831 3584 
Q 2591 3584 2966 3190 
Q 3341 2797 3341 1997 
z
" transform="scale(0.015625)"/>
      </defs>
      <use xlink:href="#DejaVuSans-66"/>
      <use xlink:href="#DejaVuSans-61" x="35.205078"/>
      <use xlink:href="#DejaVuSans-6c" x="96.484375"/>
      <use xlink:href="#DejaVuSans-73" x="124.267578"/>
      <use xlink:href="#DejaVuSans-65" x="176.367188"/>
     </g>
    </g>
   </g>
  </g>
 </g>
 <defs>
  <clipPath id="p66c1ccdf7b">
   <rect x="57.6" y="41.472" width="357.12" height="266.112"/>
  </clipPath>
 </defs>
</svg>
