<?xml version="1.0" encoding="utf-8" standalone="no"?>
<!DOCTYPE svg PUBLIC "-//W3C//DTD SVG 1.1//EN"
  "http://www.w3.org/Graphics/SVG/1.1/DTD/svg11.dtd">
<svg xmlns:xlink="http://www.w3.org/1999/xlink" width="460.8pt" height="345.6pt" viewBox="0 0 460.8 345.6" xmlns="http://www.w3.org/2000/svg" version="1.1">
 <metadata>
  <rdf:RDF xmlns:dc="http://purl.org/dc/elements/1.1/" xmlns:cc="http://creativecommons.org/ns#" xmlns:rdf="http://www.w3.org/1999/02/22-rdf-syntax-ns#">
   <cc:Work>
    <dc:type rdf:resource="http://purl.org/dc/dcmitype/StillImage"/>
    <dc:date>2024-10-31T14:55:03.544583</dc:date>
    <dc:format>image/svg+xml</dc:format>
    <dc:creator>
     <cc:Agent>
      <dc:title>Matplotlib v3.9.0, https://matplotlib.org/</dc:title>
     </cc:Agent>
    </dc:creator>
   </cc:Work>
  </rdf:RDF>
 </metadata>
 <defs>
  <style type="text/css">*{stroke-linejoin: round; stroke-linecap: butt}</style>
 </defs>
 <g id="figure_1">
  <g id="patch_1">
   <path d="M 0 345.6 
L 460.8 345.6 
L 460.8 0 
L 0 0 
z
" style="fill: #ffffff"/>
  </g>
  <g id="axes_1">
   <g id="patch_2">
    <path d="M 57.6 307.584 
L 414.72 307.584 
L 414.72 41.472 
L 57.6 41.472 
z
" style="fill: #ffffff"/>
   </g>
   <g id="PolyCollection_1">
    <path d="M 73.832727 109.806056 
L 73.832727 307.584 
L 74.657621 307.584 
L 77.704677 307.584 
L 83.54627 307.584 
L 83.588356 307.584 
L 84.244904 307.584 
L 85.861022 307.584 
L 86.222966 307.584 
L 86.879514 307.584 
L 86.904765 307.584 
L 87.089946 307.584 
L 87.317212 307.584 
L 87.914839 307.584 
L 89.455202 307.584 
L 89.833979 307.584 
L 89.842397 307.584 
L 90.431606 307.584 
L 90.894557 307.584 
L 91.340673 307.584 
L 91.433263 307.584 
L 92.89787 307.584 
L 92.956791 307.584 
L 93.217726 307.584 
L 93.36082 307.584 
L 93.604921 307.584 
L 93.966864 307.584 
L 94.244635 307.584 
L 94.295138 307.584 
L 94.480319 307.584 
L 94.699168 307.584 
L 94.749672 307.584 
L 94.825427 307.584 
L 96.121689 307.584 
L 96.45838 307.584 
L 96.576222 307.584 
L 96.710898 307.584 
L 96.896078 307.584 
L 97.081259 307.584 
L 97.308525 307.584 
L 97.628382 307.584 
L 98.00716 307.584 
L 98.360685 307.584 
L 98.646873 307.584 
L 100.776445 307.584 
L 100.810114 307.584 
L 101.449828 307.584 
L 101.626591 307.584 
L 101.719181 307.584 
L 102.299973 307.584 
L 103.714076 307.584 
L 103.840336 307.584 
L 104.387459 307.584 
L 105.212353 307.584 
L 106.491779 307.584 
L 106.719046 307.584 
L 107.072572 307.584 
L 107.82171 307.584 
L 109.084302 307.584 
L 110.119628 307.584 
L 110.170131 307.584 
L 110.186966 307.584 
L 110.355311 307.584 
L 110.489988 307.584 
L 110.986608 307.584 
L 111.634738 307.584 
L 112.787906 307.584 
L 112.956251 307.584 
L 113.511792 307.584 
L 114.395607 307.584 
L 115.582443 307.584 
L 115.742372 307.584 
L 116.095897 307.584 
L 116.626186 307.584 
L 116.887122 307.584 
L 117.089137 307.584 
L 117.72885 307.584 
L 117.947699 307.584 
L 118.057124 307.584 
L 118.141297 307.584 
L 118.149714 307.584 
L 118.200218 307.584 
L 119.109284 307.584 
L 119.782667 307.584 
L 119.86684 307.584 
L 120.245617 307.584 
L 120.885331 307.584 
L 121.238856 307.584 
L 121.634469 307.584 
L 122.147923 307.584 
L 122.737132 307.584 
L 123.30109 307.584 
L 124.07548 307.584 
L 124.858287 307.584 
L 127.5434 307.584 
L 128.199948 307.584 
L 128.2252 307.584 
L 129.571965 307.584 
L 129.832901 307.584 
L 130.842975 307.584 
L 131.061824 307.584 
L 131.390098 307.584 
L 131.718372 307.584 
L 132.164488 307.584 
L 134.512909 307.584 
L 134.916939 307.584 
L 135.236795 307.584 
L 137.256943 307.584 
L 137.374785 307.584 
L 137.442123 307.584 
L 137.980829 307.584 
L 138.300686 307.584 
L 138.519535 307.584 
L 140.043063 307.584 
L 141.078389 307.584 
L 141.751771 307.584 
L 141.852779 307.584 
L 142.290477 307.584 
L 142.68609 307.584 
L 142.736593 307.584 
L 142.846018 307.584 
L 142.879687 307.584 
L 142.938608 307.584 
L 143.856092 307.584 
L 145.042928 307.584 
L 145.951995 307.584 
L 146.675881 307.584 
L 147.366098 307.584 
L 147.702789 307.584 
L 148.039481 307.584 
L 149.554591 307.584 
L 149.975455 307.584 
L 151.078119 307.584 
L 152.155531 307.584 
L 153.864239 307.584 
L 154.478701 307.584 
L 154.773306 307.584 
L 156.162157 307.584 
L 157.736189 307.584 
L 157.938204 307.584 
L 158.577917 307.584 
L 159.015616 307.584 
L 160.892669 307.584 
L 160.943173 307.584 
L 161.094684 307.584 
L 161.944829 307.584 
L 162.635047 307.584 
L 162.794975 307.584 
L 166.296564 307.584 
L 166.751097 307.584 
L 167.129875 307.584 
L 168.594482 307.584 
L 169.301533 307.584 
L 171.085997 307.584 
L 171.44794 307.584 
L 172.53377 307.584 
L 172.62636 307.584 
L 177.499966 307.584 
L 179.225508 307.584 
L 180.243999 307.584 
L 180.757454 307.584 
L 181.935873 307.584 
L 183.131127 307.584 
L 183.30789 307.584 
L 184.08228 307.584 
L 184.191704 307.584 
L 186.363363 307.584 
L 188.114157 307.584 
L 190.268982 307.584 
L 191.598912 307.584 
L 193.543304 307.584 
L 194.991076 307.584 
L 196.842878 307.584 
L 197.263742 307.584 
L 198.113888 307.584 
L 200.765332 307.584 
L 200.933677 307.584 
L 204.367928 307.584 
L 206.884695 307.584 
L 206.909947 307.584 
L 211.093336 307.584 
L 217.498887 307.584 
L 222.01055 307.584 
L 222.717602 307.584 
L 223.003789 307.584 
L 223.180552 307.584 
L 223.382567 307.584 
L 227.58279 307.584 
L 228.070993 307.584 
L 228.365597 307.584 
L 228.937973 307.584 
L 234.594386 307.584 
L 239.493243 307.584 
L 240.629576 307.584 
L 240.68008 307.584 
L 240.966268 307.584 
L 245.301168 307.584 
L 256.681332 307.584 
L 259.913568 307.584 
L 260.022993 307.584 
L 271.268481 307.584 
L 274.450213 307.584 
L 277.968637 307.584 
L 290.981754 307.584 
L 293.877299 307.584 
L 299.558964 307.584 
L 304.314728 307.584 
L 307.412287 307.584 
L 333.808882 307.584 
L 334.406509 307.584 
L 343.716022 307.584 
L 385.112213 307.584 
L 398.487273 307.584 
L 398.487273 307.584 
L 398.487273 307.584 
L 385.112213 307.584 
L 343.716022 307.584 
L 334.406509 307.584 
L 333.808882 306.399701 
L 307.412287 306.399701 
L 304.314728 306.399701 
L 299.558964 306.399701 
L 293.877299 306.399701 
L 290.981754 306.399701 
L 277.968637 305.215402 
L 274.450213 305.215402 
L 271.268481 305.215402 
L 260.022993 304.031103 
L 259.913568 302.846804 
L 256.681332 302.846804 
L 245.301168 302.846804 
L 240.966268 302.846804 
L 240.68008 301.662505 
L 240.629576 300.478206 
L 239.493243 299.293907 
L 234.594386 299.293907 
L 228.937973 298.109607 
L 228.365597 296.925308 
L 228.070993 295.741009 
L 227.58279 295.741009 
L 223.382567 295.741009 
L 223.180552 295.741009 
L 223.003789 295.741009 
L 222.717602 294.55671 
L 222.01055 293.372411 
L 217.498887 292.188112 
L 211.093336 292.188112 
L 206.909947 292.188112 
L 206.884695 292.188112 
L 204.367928 291.003813 
L 200.933677 289.819514 
L 200.765332 289.819514 
L 198.113888 289.819514 
L 197.263742 288.635215 
L 196.842878 287.450916 
L 194.991076 287.450916 
L 193.543304 287.450916 
L 191.598912 286.266617 
L 190.268982 285.082318 
L 188.114157 283.898019 
L 186.363363 283.898019 
L 184.191704 282.71372 
L 184.08228 281.529421 
L 183.30789 280.345121 
L 183.131127 279.160822 
L 181.935873 277.976523 
L 180.757454 276.792224 
L 180.243999 275.607925 
L 179.225508 274.423626 
L 177.499966 273.239327 
L 172.62636 273.239327 
L 172.53377 272.055028 
L 171.44794 270.870729 
L 171.085997 269.68643 
L 169.301533 268.502131 
L 168.594482 267.317832 
L 167.129875 266.133533 
L 166.751097 264.949234 
L 166.296564 263.764935 
L 162.794975 262.580636 
L 162.635047 261.396336 
L 161.944829 261.396336 
L 161.094684 260.212037 
L 160.943173 259.027738 
L 160.892669 257.843439 
L 159.015616 256.65914 
L 158.577917 255.474841 
L 157.938204 254.290542 
L 157.736189 253.106243 
L 156.162157 251.921944 
L 154.773306 250.737645 
L 154.478701 250.737645 
L 153.864239 249.553346 
L 152.155531 249.553346 
L 151.078119 248.369047 
L 149.975455 247.184748 
L 149.554591 246.000449 
L 148.039481 244.81615 
L 147.702789 243.63185 
L 147.366098 242.447551 
L 146.675881 241.263252 
L 145.951995 241.263252 
L 145.042928 240.078953 
L 143.856092 238.894654 
L 142.938608 237.710355 
L 142.879687 236.526056 
L 142.846018 235.341757 
L 142.736593 234.157458 
L 142.68609 232.973159 
L 142.290477 232.973159 
L 141.852779 231.78886 
L 141.751771 230.604561 
L 141.078389 229.420262 
L 140.043063 228.235963 
L 138.519535 227.051664 
L 138.300686 224.683065 
L 137.980829 223.498766 
L 137.442123 222.314467 
L 137.374785 221.130168 
L 137.256943 221.130168 
L 135.236795 219.945869 
L 134.916939 218.76157 
L 134.512909 217.577271 
L 132.164488 216.392972 
L 131.718372 215.208673 
L 131.390098 215.208673 
L 131.061824 214.024374 
L 130.842975 212.840075 
L 129.832901 211.655776 
L 129.571965 210.471477 
L 128.2252 209.287178 
L 128.199948 208.102879 
L 127.5434 208.102879 
L 124.858287 206.918579 
L 124.07548 205.73428 
L 123.30109 204.549981 
L 122.737132 203.365682 
L 122.147923 202.181383 
L 121.634469 200.997084 
L 121.238856 199.812785 
L 120.885331 198.628486 
L 120.245617 197.444187 
L 119.86684 196.259888 
L 119.782667 195.075589 
L 119.109284 193.89129 
L 118.200218 192.706991 
L 118.149714 191.522692 
L 118.141297 190.338393 
L 118.057124 190.338393 
L 117.947699 189.154093 
L 117.72885 187.969794 
L 117.089137 186.785495 
L 116.887122 185.601196 
L 116.626186 184.416897 
L 116.095897 183.232598 
L 115.742372 182.048299 
L 115.582443 182.048299 
L 114.395607 180.864 
L 113.511792 180.864 
L 112.956251 179.679701 
L 112.787906 178.495402 
L 111.634738 178.495402 
L 110.986608 178.495402 
L 110.489988 177.311103 
L 110.355311 176.126804 
L 110.186966 176.126804 
L 110.170131 174.942505 
L 110.119628 173.758206 
L 109.084302 172.573907 
L 107.82171 171.389607 
L 107.072572 170.205308 
L 106.719046 169.021009 
L 106.491779 167.83671 
L 105.212353 166.652411 
L 104.387459 165.468112 
L 103.840336 164.283813 
L 103.714076 163.099514 
L 102.299973 161.915215 
L 101.719181 160.730916 
L 101.626591 160.730916 
L 101.449828 159.546617 
L 100.810114 158.362318 
L 100.776445 158.362318 
L 98.646873 157.178019 
L 98.360685 155.99372 
L 98.00716 155.99372 
L 97.628382 154.809421 
L 97.308525 153.625121 
L 97.081259 152.440822 
L 96.896078 151.256523 
L 96.710898 150.072224 
L 96.576222 148.887925 
L 96.45838 147.703626 
L 96.121689 145.335028 
L 94.825427 145.335028 
L 94.749672 144.150729 
L 94.699168 142.96643 
L 94.480319 141.782131 
L 94.295138 140.597832 
L 94.244635 139.413533 
L 93.966864 138.229234 
L 93.604921 137.044935 
L 93.36082 135.860636 
L 93.217726 134.676336 
L 92.956791 133.492037 
L 92.89787 132.307738 
L 91.433263 131.123439 
L 91.340673 129.93914 
L 90.894557 128.754841 
L 90.431606 127.570542 
L 89.842397 126.386243 
L 89.833979 125.201944 
L 89.455202 124.017645 
L 87.914839 122.833346 
L 87.317212 121.649047 
L 87.089946 120.464748 
L 86.904765 119.280449 
L 86.879514 118.09615 
L 86.222966 118.09615 
L 85.861022 116.91185 
L 84.244904 115.727551 
L 83.588356 114.543252 
L 83.54627 113.358953 
L 77.704677 112.174654 
L 74.657621 110.990355 
L 73.832727 109.806056 
z
" clip-path="url(#p242025d711)" style="fill: #008000"/>
   </g>
   <g id="PolyCollection_2">
    <path d="M 73.832727 54.144 
L 73.832727 109.806056 
L 74.657621 110.990355 
L 77.704677 112.174654 
L 83.54627 113.358953 
L 83.588356 114.543252 
L 84.244904 115.727551 
L 85.861022 116.91185 
L 86.222966 118.09615 
L 86.879514 118.09615 
L 86.904765 119.280449 
L 87.089946 120.464748 
L 87.317212 121.649047 
L 87.914839 122.833346 
L 89.455202 124.017645 
L 89.833979 125.201944 
L 89.842397 126.386243 
L 90.431606 127.570542 
L 90.894557 128.754841 
L 91.340673 129.93914 
L 91.433263 131.123439 
L 92.89787 132.307738 
L 92.956791 133.492037 
L 93.217726 134.676336 
L 93.36082 135.860636 
L 93.604921 137.044935 
L 93.966864 138.229234 
L 94.244635 139.413533 
L 94.295138 140.597832 
L 94.480319 141.782131 
L 94.699168 142.96643 
L 94.749672 144.150729 
L 94.825427 145.335028 
L 96.121689 145.335028 
L 96.45838 147.703626 
L 96.576222 148.887925 
L 96.710898 150.072224 
L 96.896078 151.256523 
L 97.081259 152.440822 
L 97.308525 153.625121 
L 97.628382 154.809421 
L 98.00716 155.99372 
L 98.360685 155.99372 
L 98.646873 157.178019 
L 100.776445 158.362318 
L 100.810114 158.362318 
L 101.449828 159.546617 
L 101.626591 160.730916 
L 101.719181 160.730916 
L 102.299973 161.915215 
L 103.714076 163.099514 
L 103.840336 164.283813 
L 104.387459 165.468112 
L 105.212353 166.652411 
L 106.491779 167.83671 
L 106.719046 169.021009 
L 107.072572 170.205308 
L 107.82171 171.389607 
L 109.084302 172.573907 
L 110.119628 173.758206 
L 110.170131 174.942505 
L 110.186966 176.126804 
L 110.355311 176.126804 
L 110.489988 177.311103 
L 110.986608 178.495402 
L 111.634738 178.495402 
L 112.787906 178.495402 
L 112.956251 179.679701 
L 113.511792 180.864 
L 114.395607 180.864 
L 115.582443 182.048299 
L 115.742372 182.048299 
L 116.095897 183.232598 
L 116.626186 184.416897 
L 116.887122 185.601196 
L 117.089137 186.785495 
L 117.72885 187.969794 
L 117.947699 189.154093 
L 118.057124 190.338393 
L 118.141297 190.338393 
L 118.149714 191.522692 
L 118.200218 192.706991 
L 119.109284 193.89129 
L 119.782667 195.075589 
L 119.86684 196.259888 
L 120.245617 197.444187 
L 120.885331 198.628486 
L 121.238856 199.812785 
L 121.634469 200.997084 
L 122.147923 202.181383 
L 122.737132 203.365682 
L 123.30109 204.549981 
L 124.07548 205.73428 
L 124.858287 206.918579 
L 127.5434 208.102879 
L 128.199948 208.102879 
L 128.2252 209.287178 
L 129.571965 210.471477 
L 129.832901 211.655776 
L 130.842975 212.840075 
L 131.061824 214.024374 
L 131.390098 215.208673 
L 131.718372 215.208673 
L 132.164488 216.392972 
L 134.512909 217.577271 
L 134.916939 218.76157 
L 135.236795 219.945869 
L 137.256943 221.130168 
L 137.374785 221.130168 
L 137.442123 222.314467 
L 137.980829 223.498766 
L 138.300686 224.683065 
L 138.519535 227.051664 
L 140.043063 228.235963 
L 141.078389 229.420262 
L 141.751771 230.604561 
L 141.852779 231.78886 
L 142.290477 232.973159 
L 142.68609 232.973159 
L 142.736593 234.157458 
L 142.846018 235.341757 
L 142.879687 236.526056 
L 142.938608 237.710355 
L 143.856092 238.894654 
L 145.042928 240.078953 
L 145.951995 241.263252 
L 146.675881 241.263252 
L 147.366098 242.447551 
L 147.702789 243.63185 
L 148.039481 244.81615 
L 149.554591 246.000449 
L 149.975455 247.184748 
L 151.078119 248.369047 
L 152.155531 249.553346 
L 153.864239 249.553346 
L 154.478701 250.737645 
L 154.773306 250.737645 
L 156.162157 251.921944 
L 157.736189 253.106243 
L 157.938204 254.290542 
L 158.577917 255.474841 
L 159.015616 256.65914 
L 160.892669 257.843439 
L 160.943173 259.027738 
L 161.094684 260.212037 
L 161.944829 261.396336 
L 162.635047 261.396336 
L 162.794975 262.580636 
L 166.296564 263.764935 
L 166.751097 264.949234 
L 167.129875 266.133533 
L 168.594482 267.317832 
L 169.301533 268.502131 
L 171.085997 269.68643 
L 171.44794 270.870729 
L 172.53377 272.055028 
L 172.62636 273.239327 
L 177.499966 273.239327 
L 179.225508 274.423626 
L 180.243999 275.607925 
L 180.757454 276.792224 
L 181.935873 277.976523 
L 183.131127 279.160822 
L 183.30789 280.345121 
L 184.08228 281.529421 
L 184.191704 282.71372 
L 186.363363 283.898019 
L 188.114157 283.898019 
L 190.268982 285.082318 
L 191.598912 286.266617 
L 193.543304 287.450916 
L 194.991076 287.450916 
L 196.842878 287.450916 
L 197.263742 288.635215 
L 198.113888 289.819514 
L 200.765332 289.819514 
L 200.933677 289.819514 
L 204.367928 291.003813 
L 206.884695 292.188112 
L 206.909947 292.188112 
L 211.093336 292.188112 
L 217.498887 292.188112 
L 222.01055 293.372411 
L 222.717602 294.55671 
L 223.003789 295.741009 
L 223.180552 295.741009 
L 223.382567 295.741009 
L 227.58279 295.741009 
L 228.070993 295.741009 
L 228.365597 296.925308 
L 228.937973 298.109607 
L 234.594386 299.293907 
L 239.493243 299.293907 
L 240.629576 300.478206 
L 240.68008 301.662505 
L 240.966268 302.846804 
L 245.301168 302.846804 
L 256.681332 302.846804 
L 259.913568 302.846804 
L 260.022993 304.031103 
L 271.268481 305.215402 
L 274.450213 305.215402 
L 277.968637 305.215402 
L 290.981754 306.399701 
L 293.877299 306.399701 
L 299.558964 306.399701 
L 304.314728 306.399701 
L 307.412287 306.399701 
L 333.808882 306.399701 
L 334.406509 307.584 
L 343.716022 307.584 
L 385.112213 307.584 
L 398.487273 307.584 
L 398.487273 306.399701 
L 398.487273 306.399701 
L 385.112213 305.215402 
L 343.716022 304.031103 
L 334.406509 302.846804 
L 333.808882 301.662505 
L 307.412287 300.478206 
L 304.314728 299.293907 
L 299.558964 298.109607 
L 293.877299 296.925308 
L 290.981754 295.741009 
L 277.968637 294.55671 
L 274.450213 293.372411 
L 271.268481 292.188112 
L 260.022993 291.003813 
L 259.913568 289.819514 
L 256.681332 288.635215 
L 245.301168 287.450916 
L 240.966268 286.266617 
L 240.68008 285.082318 
L 240.629576 283.898019 
L 239.493243 282.71372 
L 234.594386 281.529421 
L 228.937973 280.345121 
L 228.365597 279.160822 
L 228.070993 277.976523 
L 227.58279 276.792224 
L 223.382567 275.607925 
L 223.180552 274.423626 
L 223.003789 273.239327 
L 222.717602 272.055028 
L 222.01055 270.870729 
L 217.498887 269.68643 
L 211.093336 268.502131 
L 206.909947 267.317832 
L 206.884695 266.133533 
L 204.367928 264.949234 
L 200.933677 263.764935 
L 200.765332 262.580636 
L 198.113888 261.396336 
L 197.263742 260.212037 
L 196.842878 259.027738 
L 194.991076 257.843439 
L 193.543304 256.65914 
L 191.598912 255.474841 
L 190.268982 254.290542 
L 188.114157 253.106243 
L 186.363363 251.921944 
L 184.191704 250.737645 
L 184.08228 249.553346 
L 183.30789 248.369047 
L 183.131127 247.184748 
L 181.935873 246.000449 
L 180.757454 244.81615 
L 180.243999 243.63185 
L 179.225508 242.447551 
L 177.499966 241.263252 
L 172.62636 240.078953 
L 172.53377 238.894654 
L 171.44794 237.710355 
L 171.085997 236.526056 
L 169.301533 235.341757 
L 168.594482 234.157458 
L 167.129875 232.973159 
L 166.751097 231.78886 
L 166.296564 230.604561 
L 162.794975 229.420262 
L 162.635047 228.235963 
L 161.944829 227.051664 
L 161.094684 225.867364 
L 160.943173 224.683065 
L 160.892669 223.498766 
L 159.015616 222.314467 
L 158.577917 221.130168 
L 157.938204 219.945869 
L 157.736189 218.76157 
L 156.162157 217.577271 
L 154.773306 216.392972 
L 154.478701 215.208673 
L 153.864239 214.024374 
L 152.155531 212.840075 
L 151.078119 211.655776 
L 149.975455 210.471477 
L 149.554591 209.287178 
L 148.039481 208.102879 
L 147.702789 206.918579 
L 147.366098 205.73428 
L 146.675881 204.549981 
L 145.951995 203.365682 
L 145.042928 202.181383 
L 143.856092 200.997084 
L 142.938608 199.812785 
L 142.879687 198.628486 
L 142.846018 197.444187 
L 142.736593 196.259888 
L 142.68609 195.075589 
L 142.290477 193.89129 
L 141.852779 192.706991 
L 141.751771 191.522692 
L 141.078389 190.338393 
L 140.043063 189.154093 
L 138.519535 187.969794 
L 138.300686 185.601196 
L 137.980829 184.416897 
L 137.442123 183.232598 
L 137.374785 182.048299 
L 137.256943 180.864 
L 135.236795 179.679701 
L 134.916939 178.495402 
L 134.512909 177.311103 
L 132.164488 176.126804 
L 131.718372 174.942505 
L 131.390098 173.758206 
L 131.061824 172.573907 
L 130.842975 171.389607 
L 129.832901 170.205308 
L 129.571965 169.021009 
L 128.2252 167.83671 
L 128.199948 166.652411 
L 127.5434 165.468112 
L 124.858287 164.283813 
L 124.07548 163.099514 
L 123.30109 161.915215 
L 122.737132 160.730916 
L 122.147923 159.546617 
L 121.634469 158.362318 
L 121.238856 157.178019 
L 120.885331 155.99372 
L 120.245617 154.809421 
L 119.86684 153.625121 
L 119.782667 152.440822 
L 119.109284 151.256523 
L 118.200218 150.072224 
L 118.149714 148.887925 
L 118.141297 147.703626 
L 118.057124 146.519327 
L 117.947699 145.335028 
L 117.72885 144.150729 
L 117.089137 142.96643 
L 116.887122 141.782131 
L 116.626186 140.597832 
L 116.095897 139.413533 
L 115.742372 138.229234 
L 115.582443 137.044935 
L 114.395607 135.860636 
L 113.511792 134.676336 
L 112.956251 133.492037 
L 112.787906 132.307738 
L 111.634738 131.123439 
L 110.986608 129.93914 
L 110.489988 128.754841 
L 110.355311 127.570542 
L 110.186966 126.386243 
L 110.170131 125.201944 
L 110.119628 124.017645 
L 109.084302 122.833346 
L 107.82171 121.649047 
L 107.072572 120.464748 
L 106.719046 119.280449 
L 106.491779 118.09615 
L 105.212353 116.91185 
L 104.387459 115.727551 
L 103.840336 114.543252 
L 103.714076 113.358953 
L 102.299973 112.174654 
L 101.719181 110.990355 
L 101.626591 109.806056 
L 101.449828 108.621757 
L 100.810114 107.437458 
L 100.776445 106.253159 
L 98.646873 105.06886 
L 98.360685 103.884561 
L 98.00716 102.700262 
L 97.628382 101.515963 
L 97.308525 100.331664 
L 97.081259 99.147364 
L 96.896078 97.963065 
L 96.710898 96.778766 
L 96.576222 95.594467 
L 96.45838 94.410168 
L 96.121689 92.04157 
L 94.825427 90.857271 
L 94.749672 89.672972 
L 94.699168 88.488673 
L 94.480319 87.304374 
L 94.295138 86.120075 
L 94.244635 84.935776 
L 93.966864 83.751477 
L 93.604921 82.567178 
L 93.36082 81.382879 
L 93.217726 80.198579 
L 92.956791 79.01428 
L 92.89787 77.829981 
L 91.433263 76.645682 
L 91.340673 75.461383 
L 90.894557 74.277084 
L 90.431606 73.092785 
L 89.842397 71.908486 
L 89.833979 70.724187 
L 89.455202 69.539888 
L 87.914839 68.355589 
L 87.317212 67.17129 
L 87.089946 65.986991 
L 86.904765 64.802692 
L 86.879514 63.618393 
L 86.222966 62.434093 
L 85.861022 61.249794 
L 84.244904 60.065495 
L 83.588356 58.881196 
L 83.54627 57.696897 
L 77.704677 56.512598 
L 74.657621 55.328299 
L 73.832727 54.144 
z
" clip-path="url(#p242025d711)" style="fill: #7cfc00"/>
   </g>
   <g id="PolyCollection_3">
    <path d="M 73.832727 54.144 
L 73.832727 54.144 
L 74.657621 55.328299 
L 77.704677 56.512598 
L 83.54627 57.696897 
L 83.588356 58.881196 
L 84.244904 60.065495 
L 85.861022 61.249794 
L 86.222966 62.434093 
L 86.879514 63.618393 
L 86.904765 64.802692 
L 87.089946 65.986991 
L 87.317212 67.17129 
L 87.914839 68.355589 
L 89.455202 69.539888 
L 89.833979 70.724187 
L 89.842397 71.908486 
L 90.431606 73.092785 
L 90.894557 74.277084 
L 91.340673 75.461383 
L 91.433263 76.645682 
L 92.89787 77.829981 
L 92.956791 79.01428 
L 93.217726 80.198579 
L 93.36082 81.382879 
L 93.604921 82.567178 
L 93.966864 83.751477 
L 94.244635 84.935776 
L 94.295138 86.120075 
L 94.480319 87.304374 
L 94.699168 88.488673 
L 94.749672 89.672972 
L 94.825427 90.857271 
L 96.121689 92.04157 
L 96.45838 94.410168 
L 96.576222 95.594467 
L 96.710898 96.778766 
L 96.896078 97.963065 
L 97.081259 99.147364 
L 97.308525 100.331664 
L 97.628382 101.515963 
L 98.00716 102.700262 
L 98.360685 103.884561 
L 98.646873 105.06886 
L 100.776445 106.253159 
L 100.810114 107.437458 
L 101.449828 108.621757 
L 101.626591 109.806056 
L 101.719181 110.990355 
L 102.299973 112.174654 
L 103.714076 113.358953 
L 103.840336 114.543252 
L 104.387459 115.727551 
L 105.212353 116.91185 
L 106.491779 118.09615 
L 106.719046 119.280449 
L 107.072572 120.464748 
L 107.82171 121.649047 
L 109.084302 122.833346 
L 110.119628 124.017645 
L 110.170131 125.201944 
L 110.186966 126.386243 
L 110.355311 127.570542 
L 110.489988 128.754841 
L 110.986608 129.93914 
L 111.634738 131.123439 
L 112.787906 132.307738 
L 112.956251 133.492037 
L 113.511792 134.676336 
L 114.395607 135.860636 
L 115.582443 137.044935 
L 115.742372 138.229234 
L 116.095897 139.413533 
L 116.626186 140.597832 
L 116.887122 141.782131 
L 117.089137 142.96643 
L 117.72885 144.150729 
L 117.947699 145.335028 
L 118.057124 146.519327 
L 118.141297 147.703626 
L 118.149714 148.887925 
L 118.200218 150.072224 
L 119.109284 151.256523 
L 119.782667 152.440822 
L 119.86684 153.625121 
L 120.245617 154.809421 
L 120.885331 155.99372 
L 121.238856 157.178019 
L 121.634469 158.362318 
L 122.147923 159.546617 
L 122.737132 160.730916 
L 123.30109 161.915215 
L 124.07548 163.099514 
L 124.858287 164.283813 
L 127.5434 165.468112 
L 128.199948 166.652411 
L 128.2252 167.83671 
L 129.571965 169.021009 
L 129.832901 170.205308 
L 130.842975 171.389607 
L 131.061824 172.573907 
L 131.390098 173.758206 
L 131.718372 174.942505 
L 132.164488 176.126804 
L 134.512909 177.311103 
L 134.916939 178.495402 
L 135.236795 179.679701 
L 137.256943 180.864 
L 137.374785 182.048299 
L 137.442123 183.232598 
L 137.980829 184.416897 
L 138.300686 185.601196 
L 138.519535 187.969794 
L 140.043063 189.154093 
L 141.078389 190.338393 
L 141.751771 191.522692 
L 141.852779 192.706991 
L 142.290477 193.89129 
L 142.68609 195.075589 
L 142.736593 196.259888 
L 142.846018 197.444187 
L 142.879687 198.628486 
L 142.938608 199.812785 
L 143.856092 200.997084 
L 145.042928 202.181383 
L 145.951995 203.365682 
L 146.675881 204.549981 
L 147.366098 205.73428 
L 147.702789 206.918579 
L 148.039481 208.102879 
L 149.554591 209.287178 
L 149.975455 210.471477 
L 151.078119 211.655776 
L 152.155531 212.840075 
L 153.864239 214.024374 
L 154.478701 215.208673 
L 154.773306 216.392972 
L 156.162157 217.577271 
L 157.736189 218.76157 
L 157.938204 219.945869 
L 158.577917 221.130168 
L 159.015616 222.314467 
L 160.892669 223.498766 
L 160.943173 224.683065 
L 161.094684 225.867364 
L 161.944829 227.051664 
L 162.635047 228.235963 
L 162.794975 229.420262 
L 166.296564 230.604561 
L 166.751097 231.78886 
L 167.129875 232.973159 
L 168.594482 234.157458 
L 169.301533 235.341757 
L 171.085997 236.526056 
L 171.44794 237.710355 
L 172.53377 238.894654 
L 172.62636 240.078953 
L 177.499966 241.263252 
L 179.225508 242.447551 
L 180.243999 243.63185 
L 180.757454 244.81615 
L 181.935873 246.000449 
L 183.131127 247.184748 
L 183.30789 248.369047 
L 184.08228 249.553346 
L 184.191704 250.737645 
L 186.363363 251.921944 
L 188.114157 253.106243 
L 190.268982 254.290542 
L 191.598912 255.474841 
L 193.543304 256.65914 
L 194.991076 257.843439 
L 196.842878 259.027738 
L 197.263742 260.212037 
L 198.113888 261.396336 
L 200.765332 262.580636 
L 200.933677 263.764935 
L 204.367928 264.949234 
L 206.884695 266.133533 
L 206.909947 267.317832 
L 211.093336 268.502131 
L 217.498887 269.68643 
L 222.01055 270.870729 
L 222.717602 272.055028 
L 223.003789 273.239327 
L 223.180552 274.423626 
L 223.382567 275.607925 
L 227.58279 276.792224 
L 228.070993 277.976523 
L 228.365597 279.160822 
L 228.937973 280.345121 
L 234.594386 281.529421 
L 239.493243 282.71372 
L 240.629576 283.898019 
L 240.68008 285.082318 
L 240.966268 286.266617 
L 245.301168 287.450916 
L 256.681332 288.635215 
L 259.913568 289.819514 
L 260.022993 291.003813 
L 271.268481 292.188112 
L 274.450213 293.372411 
L 277.968637 294.55671 
L 290.981754 295.741009 
L 293.877299 296.925308 
L 299.558964 298.109607 
L 304.314728 299.293907 
L 307.412287 300.478206 
L 333.808882 301.662505 
L 334.406509 302.846804 
L 343.716022 304.031103 
L 385.112213 305.215402 
L 398.487273 306.399701 
L 398.487273 306.399701 
L 398.487273 306.399701 
L 385.112213 305.215402 
L 343.716022 304.031103 
L 334.406509 302.846804 
L 333.808882 301.662505 
L 307.412287 300.478206 
L 304.314728 299.293907 
L 299.558964 298.109607 
L 293.877299 296.925308 
L 290.981754 295.741009 
L 277.968637 294.55671 
L 274.450213 293.372411 
L 271.268481 292.188112 
L 260.022993 291.003813 
L 259.913568 289.819514 
L 256.681332 288.635215 
L 245.301168 287.450916 
L 240.966268 286.266617 
L 240.68008 285.082318 
L 240.629576 283.898019 
L 239.493243 282.71372 
L 234.594386 281.529421 
L 228.937973 280.345121 
L 228.365597 279.160822 
L 228.070993 277.976523 
L 227.58279 276.792224 
L 223.382567 275.607925 
L 223.180552 274.423626 
L 223.003789 273.239327 
L 222.717602 272.055028 
L 222.01055 270.870729 
L 217.498887 269.68643 
L 211.093336 268.502131 
L 206.909947 267.317832 
L 206.884695 266.133533 
L 204.367928 264.949234 
L 200.933677 263.764935 
L 200.765332 262.580636 
L 198.113888 261.396336 
L 197.263742 260.212037 
L 196.842878 259.027738 
L 194.991076 257.843439 
L 193.543304 256.65914 
L 191.598912 255.474841 
L 190.268982 254.290542 
L 188.114157 253.106243 
L 186.363363 251.921944 
L 184.191704 250.737645 
L 184.08228 249.553346 
L 183.30789 248.369047 
L 183.131127 247.184748 
L 181.935873 246.000449 
L 180.757454 244.81615 
L 180.243999 243.63185 
L 179.225508 242.447551 
L 177.499966 241.263252 
L 172.62636 240.078953 
L 172.53377 238.894654 
L 171.44794 237.710355 
L 171.085997 236.526056 
L 169.301533 235.341757 
L 168.594482 234.157458 
L 167.129875 232.973159 
L 166.751097 231.78886 
L 166.296564 230.604561 
L 162.794975 229.420262 
L 162.635047 228.235963 
L 161.944829 227.051664 
L 161.094684 225.867364 
L 160.943173 224.683065 
L 160.892669 223.498766 
L 159.015616 222.314467 
L 158.577917 221.130168 
L 157.938204 219.945869 
L 157.736189 218.76157 
L 156.162157 217.577271 
L 154.773306 216.392972 
L 154.478701 215.208673 
L 153.864239 214.024374 
L 152.155531 212.840075 
L 151.078119 211.655776 
L 149.975455 210.471477 
L 149.554591 209.287178 
L 148.039481 208.102879 
L 147.702789 206.918579 
L 147.366098 205.73428 
L 146.675881 204.549981 
L 145.951995 203.365682 
L 145.042928 202.181383 
L 143.856092 200.997084 
L 142.938608 199.812785 
L 142.879687 198.628486 
L 142.846018 197.444187 
L 142.736593 196.259888 
L 142.68609 195.075589 
L 142.290477 193.89129 
L 141.852779 192.706991 
L 141.751771 191.522692 
L 141.078389 190.338393 
L 140.043063 189.154093 
L 138.519535 187.969794 
L 138.300686 185.601196 
L 137.980829 184.416897 
L 137.442123 183.232598 
L 137.374785 182.048299 
L 137.256943 180.864 
L 135.236795 179.679701 
L 134.916939 178.495402 
L 134.512909 177.311103 
L 132.164488 176.126804 
L 131.718372 174.942505 
L 131.390098 173.758206 
L 131.061824 172.573907 
L 130.842975 171.389607 
L 129.832901 170.205308 
L 129.571965 169.021009 
L 128.2252 167.83671 
L 128.199948 166.652411 
L 127.5434 165.468112 
L 124.858287 164.283813 
L 124.07548 163.099514 
L 123.30109 161.915215 
L 122.737132 160.730916 
L 122.147923 159.546617 
L 121.634469 158.362318 
L 121.238856 157.178019 
L 120.885331 155.99372 
L 120.245617 154.809421 
L 119.86684 153.625121 
L 119.782667 152.440822 
L 119.109284 151.256523 
L 118.200218 150.072224 
L 118.149714 148.887925 
L 118.141297 147.703626 
L 118.057124 146.519327 
L 117.947699 145.335028 
L 117.72885 144.150729 
L 117.089137 142.96643 
L 116.887122 141.782131 
L 116.626186 140.597832 
L 116.095897 139.413533 
L 115.742372 138.229234 
L 115.582443 137.044935 
L 114.395607 135.860636 
L 113.511792 134.676336 
L 112.956251 133.492037 
L 112.787906 132.307738 
L 111.634738 131.123439 
L 110.986608 129.93914 
L 110.489988 128.754841 
L 110.355311 127.570542 
L 110.186966 126.386243 
L 110.170131 125.201944 
L 110.119628 124.017645 
L 109.084302 122.833346 
L 107.82171 121.649047 
L 107.072572 120.464748 
L 106.719046 119.280449 
L 106.491779 118.09615 
L 105.212353 116.91185 
L 104.387459 115.727551 
L 103.840336 114.543252 
L 103.714076 113.358953 
L 102.299973 112.174654 
L 101.719181 110.990355 
L 101.626591 109.806056 
L 101.449828 108.621757 
L 100.810114 107.437458 
L 100.776445 106.253159 
L 98.646873 105.06886 
L 98.360685 103.884561 
L 98.00716 102.700262 
L 97.628382 101.515963 
L 97.308525 100.331664 
L 97.081259 99.147364 
L 96.896078 97.963065 
L 96.710898 96.778766 
L 96.576222 95.594467 
L 96.45838 94.410168 
L 96.121689 92.04157 
L 94.825427 90.857271 
L 94.749672 89.672972 
L 94.699168 88.488673 
L 94.480319 87.304374 
L 94.295138 86.120075 
L 94.244635 84.935776 
L 93.966864 83.751477 
L 93.604921 82.567178 
L 93.36082 81.382879 
L 93.217726 80.198579 
L 92.956791 79.01428 
L 92.89787 77.829981 
L 91.433263 76.645682 
L 91.340673 75.461383 
L 90.894557 74.277084 
L 90.431606 73.092785 
L 89.842397 71.908486 
L 89.833979 70.724187 
L 89.455202 69.539888 
L 87.914839 68.355589 
L 87.317212 67.17129 
L 87.089946 65.986991 
L 86.904765 64.802692 
L 86.879514 63.618393 
L 86.222966 62.434093 
L 85.861022 61.249794 
L 84.244904 60.065495 
L 83.588356 58.881196 
L 83.54627 57.696897 
L 77.704677 56.512598 
L 74.657621 55.328299 
L 73.832727 54.144 
z
" clip-path="url(#p242025d711)" style="fill: #ff0000"/>
   </g>
   <g id="matplotlib.axis_1">
    <g id="xtick_1">
     <g id="line2d_1">
      <defs>
       <path id="m3177ee6839" d="M 0 0 
L 0 3.5 
" style="stroke: #000000; stroke-width: 0.8"/>
      </defs>
      <g>
       <use xlink:href="#m3177ee6839" x="59.279248" y="307.584" style="stroke: #000000; stroke-width: 0.8"/>
      </g>
     </g>
     <g id="text_1">
      <!-- 50 -->
      <g transform="translate(52.916748 322.182437) scale(0.1 -0.1)">
       <defs>
        <path id="DejaVuSans-35" d="M 691 4666 
L 3169 4666 
L 3169 4134 
L 1269 4134 
L 1269 2991 
Q 1406 3038 1543 3061 
Q 1681 3084 1819 3084 
Q 2600 3084 3056 2656 
Q 3513 2228 3513 1497 
Q 3513 744 3044 326 
Q 2575 -91 1722 -91 
Q 1428 -91 1123 -41 
Q 819 9 494 109 
L 494 744 
Q 775 591 1075 516 
Q 1375 441 1709 441 
Q 2250 441 2565 725 
Q 2881 1009 2881 1497 
Q 2881 1984 2565 2268 
Q 2250 2553 1709 2553 
Q 1456 2553 1204 2497 
Q 953 2441 691 2322 
L 691 4666 
z
" transform="scale(0.015625)"/>
        <path id="DejaVuSans-30" d="M 2034 4250 
Q 1547 4250 1301 3770 
Q 1056 3291 1056 2328 
Q 1056 1369 1301 889 
Q 1547 409 2034 409 
Q 2525 409 2770 889 
Q 3016 1369 3016 2328 
Q 3016 3291 2770 3770 
Q 2525 4250 2034 4250 
z
M 2034 4750 
Q 2819 4750 3233 4129 
Q 3647 3509 3647 2328 
Q 3647 1150 3233 529 
Q 2819 -91 2034 -91 
Q 1250 -91 836 529 
Q 422 1150 422 2328 
Q 422 3509 836 4129 
Q 1250 4750 2034 4750 
z
" transform="scale(0.015625)"/>
       </defs>
       <use xlink:href="#DejaVuSans-35"/>
       <use xlink:href="#DejaVuSans-30" x="63.623047"/>
      </g>
     </g>
    </g>
    <g id="xtick_2">
     <g id="line2d_2">
      <g>
       <use xlink:href="#m3177ee6839" x="101.365655" y="307.584" style="stroke: #000000; stroke-width: 0.8"/>
      </g>
     </g>
     <g id="text_2">
      <!-- 100 -->
      <g transform="translate(91.821905 322.182437) scale(0.1 -0.1)">
       <defs>
        <path id="DejaVuSans-31" d="M 794 531 
L 1825 531 
L 1825 4091 
L 703 3866 
L 703 4441 
L 1819 4666 
L 2450 4666 
L 2450 531 
L 3481 531 
L 3481 0 
L 794 0 
L 794 531 
z
" transform="scale(0.015625)"/>
       </defs>
       <use xlink:href="#DejaVuSans-31"/>
       <use xlink:href="#DejaVuSans-30" x="63.623047"/>
       <use xlink:href="#DejaVuSans-30" x="127.246094"/>
      </g>
     </g>
    </g>
    <g id="xtick_3">
     <g id="line2d_3">
      <g>
       <use xlink:href="#m3177ee6839" x="143.452062" y="307.584" style="stroke: #000000; stroke-width: 0.8"/>
      </g>
     </g>
     <g id="text_3">
      <!-- 150 -->
      <g transform="translate(133.908312 322.182437) scale(0.1 -0.1)">
       <use xlink:href="#DejaVuSans-31"/>
       <use xlink:href="#DejaVuSans-35" x="63.623047"/>
       <use xlink:href="#DejaVuSans-30" x="127.246094"/>
      </g>
     </g>
    </g>
    <g id="xtick_4">
     <g id="line2d_4">
      <g>
       <use xlink:href="#m3177ee6839" x="185.538469" y="307.584" style="stroke: #000000; stroke-width: 0.8"/>
      </g>
     </g>
     <g id="text_4">
      <!-- 200 -->
      <g transform="translate(175.994719 322.182437) scale(0.1 -0.1)">
       <defs>
        <path id="DejaVuSans-32" d="M 1228 531 
L 3431 531 
L 3431 0 
L 469 0 
L 469 531 
Q 828 903 1448 1529 
Q 2069 2156 2228 2338 
Q 2531 2678 2651 2914 
Q 2772 3150 2772 3378 
Q 2772 3750 2511 3984 
Q 2250 4219 1831 4219 
Q 1534 4219 1204 4116 
Q 875 4013 500 3803 
L 500 4441 
Q 881 4594 1212 4672 
Q 1544 4750 1819 4750 
Q 2544 4750 2975 4387 
Q 3406 4025 3406 3419 
Q 3406 3131 3298 2873 
Q 3191 2616 2906 2266 
Q 2828 2175 2409 1742 
Q 1991 1309 1228 531 
z
" transform="scale(0.015625)"/>
       </defs>
       <use xlink:href="#DejaVuSans-32"/>
       <use xlink:href="#DejaVuSans-30" x="63.623047"/>
       <use xlink:href="#DejaVuSans-30" x="127.246094"/>
      </g>
     </g>
    </g>
    <g id="xtick_5">
     <g id="line2d_5">
      <g>
       <use xlink:href="#m3177ee6839" x="227.624877" y="307.584" style="stroke: #000000; stroke-width: 0.8"/>
      </g>
     </g>
     <g id="text_5">
      <!-- 250 -->
      <g transform="translate(218.081127 322.182437) scale(0.1 -0.1)">
       <use xlink:href="#DejaVuSans-32"/>
       <use xlink:href="#DejaVuSans-35" x="63.623047"/>
       <use xlink:href="#DejaVuSans-30" x="127.246094"/>
      </g>
     </g>
    </g>
    <g id="xtick_6">
     <g id="line2d_6">
      <g>
       <use xlink:href="#m3177ee6839" x="269.711284" y="307.584" style="stroke: #000000; stroke-width: 0.8"/>
      </g>
     </g>
     <g id="text_6">
      <!-- 300 -->
      <g transform="translate(260.167534 322.182437) scale(0.1 -0.1)">
       <defs>
        <path id="DejaVuSans-33" d="M 2597 2516 
Q 3050 2419 3304 2112 
Q 3559 1806 3559 1356 
Q 3559 666 3084 287 
Q 2609 -91 1734 -91 
Q 1441 -91 1130 -33 
Q 819 25 488 141 
L 488 750 
Q 750 597 1062 519 
Q 1375 441 1716 441 
Q 2309 441 2620 675 
Q 2931 909 2931 1356 
Q 2931 1769 2642 2001 
Q 2353 2234 1838 2234 
L 1294 2234 
L 1294 2753 
L 1863 2753 
Q 2328 2753 2575 2939 
Q 2822 3125 2822 3475 
Q 2822 3834 2567 4026 
Q 2313 4219 1838 4219 
Q 1578 4219 1281 4162 
Q 984 4106 628 3988 
L 628 4550 
Q 988 4650 1302 4700 
Q 1616 4750 1894 4750 
Q 2613 4750 3031 4423 
Q 3450 4097 3450 3541 
Q 3450 3153 3228 2886 
Q 3006 2619 2597 2516 
z
" transform="scale(0.015625)"/>
       </defs>
       <use xlink:href="#DejaVuSans-33"/>
       <use xlink:href="#DejaVuSans-30" x="63.623047"/>
       <use xlink:href="#DejaVuSans-30" x="127.246094"/>
      </g>
     </g>
    </g>
    <g id="xtick_7">
     <g id="line2d_7">
      <g>
       <use xlink:href="#m3177ee6839" x="311.797691" y="307.584" style="stroke: #000000; stroke-width: 0.8"/>
      </g>
     </g>
     <g id="text_7">
      <!-- 350 -->
      <g transform="translate(302.253941 322.182437) scale(0.1 -0.1)">
       <use xlink:href="#DejaVuSans-33"/>
       <use xlink:href="#DejaVuSans-35" x="63.623047"/>
       <use xlink:href="#DejaVuSans-30" x="127.246094"/>
      </g>
     </g>
    </g>
    <g id="xtick_8">
     <g id="line2d_8">
      <g>
       <use xlink:href="#m3177ee6839" x="353.884098" y="307.584" style="stroke: #000000; stroke-width: 0.8"/>
      </g>
     </g>
     <g id="text_8">
      <!-- 400 -->
      <g transform="translate(344.340348 322.182437) scale(0.1 -0.1)">
       <defs>
        <path id="DejaVuSans-34" d="M 2419 4116 
L 825 1625 
L 2419 1625 
L 2419 4116 
z
M 2253 4666 
L 3047 4666 
L 3047 1625 
L 3713 1625 
L 3713 1100 
L 3047 1100 
L 3047 0 
L 2419 0 
L 2419 1100 
L 313 1100 
L 313 1709 
L 2253 4666 
z
" transform="scale(0.015625)"/>
       </defs>
       <use xlink:href="#DejaVuSans-34"/>
       <use xlink:href="#DejaVuSans-30" x="63.623047"/>
       <use xlink:href="#DejaVuSans-30" x="127.246094"/>
      </g>
     </g>
    </g>
    <g id="xtick_9">
     <g id="line2d_9">
      <g>
       <use xlink:href="#m3177ee6839" x="395.970506" y="307.584" style="stroke: #000000; stroke-width: 0.8"/>
      </g>
     </g>
     <g id="text_9">
      <!-- 450 -->
      <g transform="translate(386.426756 322.182437) scale(0.1 -0.1)">
       <use xlink:href="#DejaVuSans-34"/>
       <use xlink:href="#DejaVuSans-35" x="63.623047"/>
       <use xlink:href="#DejaVuSans-30" x="127.246094"/>
      </g>
     </g>
    </g>
    <g id="text_10">
     <!-- Score -->
     <g transform="translate(222.157656 335.860562) scale(0.1 -0.1)">
      <defs>
       <path id="DejaVuSans-53" d="M 3425 4513 
L 3425 3897 
Q 3066 4069 2747 4153 
Q 2428 4238 2131 4238 
Q 1616 4238 1336 4038 
Q 1056 3838 1056 3469 
Q 1056 3159 1242 3001 
Q 1428 2844 1947 2747 
L 2328 2669 
Q 3034 2534 3370 2195 
Q 3706 1856 3706 1288 
Q 3706 609 3251 259 
Q 2797 -91 1919 -91 
Q 1588 -91 1214 -16 
Q 841 59 441 206 
L 441 856 
Q 825 641 1194 531 
Q 1563 422 1919 422 
Q 2459 422 2753 634 
Q 3047 847 3047 1241 
Q 3047 1584 2836 1778 
Q 2625 1972 2144 2069 
L 1759 2144 
Q 1053 2284 737 2584 
Q 422 2884 422 3419 
Q 422 4038 858 4394 
Q 1294 4750 2059 4750 
Q 2388 4750 2728 4690 
Q 3069 4631 3425 4513 
z
" transform="scale(0.015625)"/>
       <path id="DejaVuSans-63" d="M 3122 3366 
L 3122 2828 
Q 2878 2963 2633 3030 
Q 2388 3097 2138 3097 
Q 1578 3097 1268 2742 
Q 959 2388 959 1747 
Q 959 1106 1268 751 
Q 1578 397 2138 397 
Q 2388 397 2633 464 
Q 2878 531 3122 666 
L 3122 134 
Q 2881 22 2623 -34 
Q 2366 -91 2075 -91 
Q 1284 -91 818 406 
Q 353 903 353 1747 
Q 353 2603 823 3093 
Q 1294 3584 2113 3584 
Q 2378 3584 2631 3529 
Q 2884 3475 3122 3366 
z
" transform="scale(0.015625)"/>
       <path id="DejaVuSans-6f" d="M 1959 3097 
Q 1497 3097 1228 2736 
Q 959 2375 959 1747 
Q 959 1119 1226 758 
Q 1494 397 1959 397 
Q 2419 397 2687 759 
Q 2956 1122 2956 1747 
Q 2956 2369 2687 2733 
Q 2419 3097 1959 3097 
z
M 1959 3584 
Q 2709 3584 3137 3096 
Q 3566 2609 3566 1747 
Q 3566 888 3137 398 
Q 2709 -91 1959 -91 
Q 1206 -91 779 398 
Q 353 888 353 1747 
Q 353 2609 779 3096 
Q 1206 3584 1959 3584 
z
" transform="scale(0.015625)"/>
       <path id="DejaVuSans-72" d="M 2631 2963 
Q 2534 3019 2420 3045 
Q 2306 3072 2169 3072 
Q 1681 3072 1420 2755 
Q 1159 2438 1159 1844 
L 1159 0 
L 581 0 
L 581 3500 
L 1159 3500 
L 1159 2956 
Q 1341 3275 1631 3429 
Q 1922 3584 2338 3584 
Q 2397 3584 2469 3576 
Q 2541 3569 2628 3553 
L 2631 2963 
z
" transform="scale(0.015625)"/>
       <path id="DejaVuSans-65" d="M 3597 1894 
L 3597 1613 
L 953 1613 
Q 991 1019 1311 708 
Q 1631 397 2203 397 
Q 2534 397 2845 478 
Q 3156 559 3463 722 
L 3463 178 
Q 3153 47 2828 -22 
Q 2503 -91 2169 -91 
Q 1331 -91 842 396 
Q 353 884 353 1716 
Q 353 2575 817 3079 
Q 1281 3584 2069 3584 
Q 2775 3584 3186 3129 
Q 3597 2675 3597 1894 
z
M 3022 2063 
Q 3016 2534 2758 2815 
Q 2500 3097 2075 3097 
Q 1594 3097 1305 2825 
Q 1016 2553 972 2059 
L 3022 2063 
z
" transform="scale(0.015625)"/>
      </defs>
      <use xlink:href="#DejaVuSans-53"/>
      <use xlink:href="#DejaVuSans-63" x="63.476562"/>
      <use xlink:href="#DejaVuSans-6f" x="118.457031"/>
      <use xlink:href="#DejaVuSans-72" x="179.638672"/>
      <use xlink:href="#DejaVuSans-65" x="218.501953"/>
     </g>
    </g>
   </g>
   <g id="matplotlib.axis_2">
    <g id="ytick_1">
     <g id="line2d_10">
      <defs>
       <path id="m532cf6f578" d="M 0 0 
L -3.5 0 
" style="stroke: #000000; stroke-width: 0.8"/>
      </defs>
      <g>
       <use xlink:href="#m532cf6f578" x="57.6" y="307.584" style="stroke: #000000; stroke-width: 0.8"/>
      </g>
     </g>
     <g id="text_11">
      <!-- 0 -->
      <g transform="translate(44.2375 311.383219) scale(0.1 -0.1)">
       <use xlink:href="#DejaVuSans-30"/>
      </g>
     </g>
    </g>
    <g id="ytick_2">
     <g id="line2d_11">
      <g>
       <use xlink:href="#m532cf6f578" x="57.6" y="277.976523" style="stroke: #000000; stroke-width: 0.8"/>
      </g>
     </g>
     <g id="text_12">
      <!-- 25 -->
      <g transform="translate(37.875 281.775742) scale(0.1 -0.1)">
       <use xlink:href="#DejaVuSans-32"/>
       <use xlink:href="#DejaVuSans-35" x="63.623047"/>
      </g>
     </g>
    </g>
    <g id="ytick_3">
     <g id="line2d_12">
      <g>
       <use xlink:href="#m532cf6f578" x="57.6" y="248.369047" style="stroke: #000000; stroke-width: 0.8"/>
      </g>
     </g>
     <g id="text_13">
      <!-- 50 -->
      <g transform="translate(37.875 252.168265) scale(0.1 -0.1)">
       <use xlink:href="#DejaVuSans-35"/>
       <use xlink:href="#DejaVuSans-30" x="63.623047"/>
      </g>
     </g>
    </g>
    <g id="ytick_4">
     <g id="line2d_13">
      <g>
       <use xlink:href="#m532cf6f578" x="57.6" y="218.76157" style="stroke: #000000; stroke-width: 0.8"/>
      </g>
     </g>
     <g id="text_14">
      <!-- 75 -->
      <g transform="translate(37.875 222.560789) scale(0.1 -0.1)">
       <defs>
        <path id="DejaVuSans-37" d="M 525 4666 
L 3525 4666 
L 3525 4397 
L 1831 0 
L 1172 0 
L 2766 4134 
L 525 4134 
L 525 4666 
z
" transform="scale(0.015625)"/>
       </defs>
       <use xlink:href="#DejaVuSans-37"/>
       <use xlink:href="#DejaVuSans-35" x="63.623047"/>
      </g>
     </g>
    </g>
    <g id="ytick_5">
     <g id="line2d_14">
      <g>
       <use xlink:href="#m532cf6f578" x="57.6" y="189.154093" style="stroke: #000000; stroke-width: 0.8"/>
      </g>
     </g>
     <g id="text_15">
      <!-- 100 -->
      <g transform="translate(31.5125 192.953312) scale(0.1 -0.1)">
       <use xlink:href="#DejaVuSans-31"/>
       <use xlink:href="#DejaVuSans-30" x="63.623047"/>
       <use xlink:href="#DejaVuSans-30" x="127.246094"/>
      </g>
     </g>
    </g>
    <g id="ytick_6">
     <g id="line2d_15">
      <g>
       <use xlink:href="#m532cf6f578" x="57.6" y="159.546617" style="stroke: #000000; stroke-width: 0.8"/>
      </g>
     </g>
     <g id="text_16">
      <!-- 125 -->
      <g transform="translate(31.5125 163.345836) scale(0.1 -0.1)">
       <use xlink:href="#DejaVuSans-31"/>
       <use xlink:href="#DejaVuSans-32" x="63.623047"/>
       <use xlink:href="#DejaVuSans-35" x="127.246094"/>
      </g>
     </g>
    </g>
    <g id="ytick_7">
     <g id="line2d_16">
      <g>
       <use xlink:href="#m532cf6f578" x="57.6" y="129.93914" style="stroke: #000000; stroke-width: 0.8"/>
      </g>
     </g>
     <g id="text_17">
      <!-- 150 -->
      <g transform="translate(31.5125 133.738359) scale(0.1 -0.1)">
       <use xlink:href="#DejaVuSans-31"/>
       <use xlink:href="#DejaVuSans-35" x="63.623047"/>
       <use xlink:href="#DejaVuSans-30" x="127.246094"/>
      </g>
     </g>
    </g>
    <g id="ytick_8">
     <g id="line2d_17">
      <g>
       <use xlink:href="#m532cf6f578" x="57.6" y="100.331664" style="stroke: #000000; stroke-width: 0.8"/>
      </g>
     </g>
     <g id="text_18">
      <!-- 175 -->
      <g transform="translate(31.5125 104.130882) scale(0.1 -0.1)">
       <use xlink:href="#DejaVuSans-31"/>
       <use xlink:href="#DejaVuSans-37" x="63.623047"/>
       <use xlink:href="#DejaVuSans-35" x="127.246094"/>
      </g>
     </g>
    </g>
    <g id="ytick_9">
     <g id="line2d_18">
      <g>
       <use xlink:href="#m532cf6f578" x="57.6" y="70.724187" style="stroke: #000000; stroke-width: 0.8"/>
      </g>
     </g>
     <g id="text_19">
      <!-- 200 -->
      <g transform="translate(31.5125 74.523406) scale(0.1 -0.1)">
       <use xlink:href="#DejaVuSans-32"/>
       <use xlink:href="#DejaVuSans-30" x="63.623047"/>
       <use xlink:href="#DejaVuSans-30" x="127.246094"/>
      </g>
     </g>
    </g>
    <g id="text_20">
     <!-- Number of crosslinks -->
     <g transform="translate(25.432812 227.019406) rotate(-90) scale(0.1 -0.1)">
      <defs>
       <path id="DejaVuSans-4e" d="M 628 4666 
L 1478 4666 
L 3547 763 
L 3547 4666 
L 4159 4666 
L 4159 0 
L 3309 0 
L 1241 3903 
L 1241 0 
L 628 0 
L 628 4666 
z
" transform="scale(0.015625)"/>
       <path id="DejaVuSans-75" d="M 544 1381 
L 544 3500 
L 1119 3500 
L 1119 1403 
Q 1119 906 1312 657 
Q 1506 409 1894 409 
Q 2359 409 2629 706 
Q 2900 1003 2900 1516 
L 2900 3500 
L 3475 3500 
L 3475 0 
L 2900 0 
L 2900 538 
Q 2691 219 2414 64 
Q 2138 -91 1772 -91 
Q 1169 -91 856 284 
Q 544 659 544 1381 
z
M 1991 3584 
L 1991 3584 
z
" transform="scale(0.015625)"/>
       <path id="DejaVuSans-6d" d="M 3328 2828 
Q 3544 3216 3844 3400 
Q 4144 3584 4550 3584 
Q 5097 3584 5394 3201 
Q 5691 2819 5691 2113 
L 5691 0 
L 5113 0 
L 5113 2094 
Q 5113 2597 4934 2840 
Q 4756 3084 4391 3084 
Q 3944 3084 3684 2787 
Q 3425 2491 3425 1978 
L 3425 0 
L 2847 0 
L 2847 2094 
Q 2847 2600 2669 2842 
Q 2491 3084 2119 3084 
Q 1678 3084 1418 2786 
Q 1159 2488 1159 1978 
L 1159 0 
L 581 0 
L 581 3500 
L 1159 3500 
L 1159 2956 
Q 1356 3278 1631 3431 
Q 1906 3584 2284 3584 
Q 2666 3584 2933 3390 
Q 3200 3197 3328 2828 
z
" transform="scale(0.015625)"/>
       <path id="DejaVuSans-62" d="M 3116 1747 
Q 3116 2381 2855 2742 
Q 2594 3103 2138 3103 
Q 1681 3103 1420 2742 
Q 1159 2381 1159 1747 
Q 1159 1113 1420 752 
Q 1681 391 2138 391 
Q 2594 391 2855 752 
Q 3116 1113 3116 1747 
z
M 1159 2969 
Q 1341 3281 1617 3432 
Q 1894 3584 2278 3584 
Q 2916 3584 3314 3078 
Q 3713 2572 3713 1747 
Q 3713 922 3314 415 
Q 2916 -91 2278 -91 
Q 1894 -91 1617 61 
Q 1341 213 1159 525 
L 1159 0 
L 581 0 
L 581 4863 
L 1159 4863 
L 1159 2969 
z
" transform="scale(0.015625)"/>
       <path id="DejaVuSans-20" transform="scale(0.015625)"/>
       <path id="DejaVuSans-66" d="M 2375 4863 
L 2375 4384 
L 1825 4384 
Q 1516 4384 1395 4259 
Q 1275 4134 1275 3809 
L 1275 3500 
L 2222 3500 
L 2222 3053 
L 1275 3053 
L 1275 0 
L 697 0 
L 697 3053 
L 147 3053 
L 147 3500 
L 697 3500 
L 697 3744 
Q 697 4328 969 4595 
Q 1241 4863 1831 4863 
L 2375 4863 
z
" transform="scale(0.015625)"/>
       <path id="DejaVuSans-73" d="M 2834 3397 
L 2834 2853 
Q 2591 2978 2328 3040 
Q 2066 3103 1784 3103 
Q 1356 3103 1142 2972 
Q 928 2841 928 2578 
Q 928 2378 1081 2264 
Q 1234 2150 1697 2047 
L 1894 2003 
Q 2506 1872 2764 1633 
Q 3022 1394 3022 966 
Q 3022 478 2636 193 
Q 2250 -91 1575 -91 
Q 1294 -91 989 -36 
Q 684 19 347 128 
L 347 722 
Q 666 556 975 473 
Q 1284 391 1588 391 
Q 1994 391 2212 530 
Q 2431 669 2431 922 
Q 2431 1156 2273 1281 
Q 2116 1406 1581 1522 
L 1381 1569 
Q 847 1681 609 1914 
Q 372 2147 372 2553 
Q 372 3047 722 3315 
Q 1072 3584 1716 3584 
Q 2034 3584 2315 3537 
Q 2597 3491 2834 3397 
z
" transform="scale(0.015625)"/>
       <path id="DejaVuSans-6c" d="M 603 4863 
L 1178 4863 
L 1178 0 
L 603 0 
L 603 4863 
z
" transform="scale(0.015625)"/>
       <path id="DejaVuSans-69" d="M 603 3500 
L 1178 3500 
L 1178 0 
L 603 0 
L 603 3500 
z
M 603 4863 
L 1178 4863 
L 1178 4134 
L 603 4134 
L 603 4863 
z
" transform="scale(0.015625)"/>
       <path id="DejaVuSans-6e" d="M 3513 2113 
L 3513 0 
L 2938 0 
L 2938 2094 
Q 2938 2591 2744 2837 
Q 2550 3084 2163 3084 
Q 1697 3084 1428 2787 
Q 1159 2491 1159 1978 
L 1159 0 
L 581 0 
L 581 3500 
L 1159 3500 
L 1159 2956 
Q 1366 3272 1645 3428 
Q 1925 3584 2291 3584 
Q 2894 3584 3203 3211 
Q 3513 2838 3513 2113 
z
" transform="scale(0.015625)"/>
       <path id="DejaVuSans-6b" d="M 581 4863 
L 1159 4863 
L 1159 1991 
L 2875 3500 
L 3609 3500 
L 1753 1863 
L 3688 0 
L 2938 0 
L 1159 1709 
L 1159 0 
L 581 0 
L 581 4863 
z
" transform="scale(0.015625)"/>
      </defs>
      <use xlink:href="#DejaVuSans-4e"/>
      <use xlink:href="#DejaVuSans-75" x="74.804688"/>
      <use xlink:href="#DejaVuSans-6d" x="138.183594"/>
      <use xlink:href="#DejaVuSans-62" x="235.595703"/>
      <use xlink:href="#DejaVuSans-65" x="299.072266"/>
      <use xlink:href="#DejaVuSans-72" x="360.595703"/>
      <use xlink:href="#DejaVuSans-20" x="401.708984"/>
      <use xlink:href="#DejaVuSans-6f" x="433.496094"/>
      <use xlink:href="#DejaVuSans-66" x="494.677734"/>
      <use xlink:href="#DejaVuSans-20" x="529.882812"/>
      <use xlink:href="#DejaVuSans-63" x="561.669922"/>
      <use xlink:href="#DejaVuSans-72" x="616.650391"/>
      <use xlink:href="#DejaVuSans-6f" x="655.513672"/>
      <use xlink:href="#DejaVuSans-73" x="716.695312"/>
      <use xlink:href="#DejaVuSans-73" x="768.794922"/>
      <use xlink:href="#DejaVuSans-6c" x="820.894531"/>
      <use xlink:href="#DejaVuSans-69" x="848.677734"/>
      <use xlink:href="#DejaVuSans-6e" x="876.460938"/>
      <use xlink:href="#DejaVuSans-6b" x="939.839844"/>
      <use xlink:href="#DejaVuSans-73" x="997.75"/>
     </g>
    </g>
   </g>
   <g id="patch_3">
    <path d="M 57.6 307.584 
L 57.6 41.472 
" style="fill: none; stroke: #000000; stroke-width: 0.8; stroke-linejoin: miter; stroke-linecap: square"/>
   </g>
   <g id="patch_4">
    <path d="M 414.72 307.584 
L 414.72 41.472 
" style="fill: none; stroke: #000000; stroke-width: 0.8; stroke-linejoin: miter; stroke-linecap: square"/>
   </g>
   <g id="patch_5">
    <path d="M 57.6 307.584 
L 414.72 307.584 
" style="fill: none; stroke: #000000; stroke-width: 0.8; stroke-linejoin: miter; stroke-linecap: square"/>
   </g>
   <g id="patch_6">
    <path d="M 57.6 41.472 
L 414.72 41.472 
" style="fill: none; stroke: #000000; stroke-width: 0.8; stroke-linejoin: miter; stroke-linecap: square"/>
   </g>
   <g id="legend_1">
    <g id="patch_7">
     <path d="M 293.087188 93.506375 
L 407.72 93.506375 
Q 409.72 93.506375 409.72 91.506375 
L 409.72 48.472 
Q 409.72 46.472 407.72 46.472 
L 293.087188 46.472 
Q 291.087188 46.472 291.087188 48.472 
L 291.087188 91.506375 
Q 291.087188 93.506375 293.087188 93.506375 
z
" style="fill: #ffffff; opacity: 0.8; stroke: #cccccc; stroke-linejoin: miter"/>
    </g>
    <g id="patch_8">
     <path d="M 295.087188 58.070438 
L 315.087188 58.070438 
L 315.087188 51.070438 
L 295.087188 51.070438 
z
" style="fill: #008000"/>
    </g>
    <g id="text_21">
     <!-- true -->
     <g transform="translate(323.087188 58.070438) scale(0.1 -0.1)">
      <defs>
       <path id="DejaVuSans-74" d="M 1172 4494 
L 1172 3500 
L 2356 3500 
L 2356 3053 
L 1172 3053 
L 1172 1153 
Q 1172 725 1289 603 
Q 1406 481 1766 481 
L 2356 481 
L 2356 0 
L 1766 0 
Q 1100 0 847 248 
Q 594 497 594 1153 
L 594 3053 
L 172 3053 
L 172 3500 
L 594 3500 
L 594 4494 
L 1172 4494 
z
" transform="scale(0.015625)"/>
      </defs>
      <use xlink:href="#DejaVuSans-74"/>
      <use xlink:href="#DejaVuSans-72" x="39.208984"/>
      <use xlink:href="#DejaVuSans-75" x="80.322266"/>
      <use xlink:href="#DejaVuSans-65" x="143.701172"/>
     </g>
    </g>
    <g id="patch_9">
     <path d="M 295.087188 72.748563 
L 315.087188 72.748563 
L 315.087188 65.748563 
L 295.087188 65.748563 
z
" style="fill: #7cfc00"/>
    </g>
    <g id="text_22">
     <!-- true homeotypic -->
     <g transform="translate(323.087188 72.748563) scale(0.1 -0.1)">
      <defs>
       <path id="DejaVuSans-68" d="M 3513 2113 
L 3513 0 
L 2938 0 
L 2938 2094 
Q 2938 2591 2744 2837 
Q 2550 3084 2163 3084 
Q 1697 3084 1428 2787 
Q 1159 2491 1159 1978 
L 1159 0 
L 581 0 
L 581 4863 
L 1159 4863 
L 1159 2956 
Q 1366 3272 1645 3428 
Q 1925 3584 2291 3584 
Q 2894 3584 3203 3211 
Q 3513 2838 3513 2113 
z
" transform="scale(0.015625)"/>
       <path id="DejaVuSans-79" d="M 2059 -325 
Q 1816 -950 1584 -1140 
Q 1353 -1331 966 -1331 
L 506 -1331 
L 506 -850 
L 844 -850 
Q 1081 -850 1212 -737 
Q 1344 -625 1503 -206 
L 1606 56 
L 191 3500 
L 800 3500 
L 1894 763 
L 2988 3500 
L 3597 3500 
L 2059 -325 
z
" transform="scale(0.015625)"/>
       <path id="DejaVuSans-70" d="M 1159 525 
L 1159 -1331 
L 581 -1331 
L 581 3500 
L 1159 3500 
L 1159 2969 
Q 1341 3281 1617 3432 
Q 1894 3584 2278 3584 
Q 2916 3584 3314 3078 
Q 3713 2572 3713 1747 
Q 3713 922 3314 415 
Q 2916 -91 2278 -91 
Q 1894 -91 1617 61 
Q 1341 213 1159 525 
z
M 3116 1747 
Q 3116 2381 2855 2742 
Q 2594 3103 2138 3103 
Q 1681 3103 1420 2742 
Q 1159 2381 1159 1747 
Q 1159 1113 1420 752 
Q 1681 391 2138 391 
Q 2594 391 2855 752 
Q 3116 1113 3116 1747 
z
" transform="scale(0.015625)"/>
      </defs>
      <use xlink:href="#DejaVuSans-74"/>
      <use xlink:href="#DejaVuSans-72" x="39.208984"/>
      <use xlink:href="#DejaVuSans-75" x="80.322266"/>
      <use xlink:href="#DejaVuSans-65" x="143.701172"/>
      <use xlink:href="#DejaVuSans-20" x="205.224609"/>
      <use xlink:href="#DejaVuSans-68" x="237.011719"/>
      <use xlink:href="#DejaVuSans-6f" x="300.390625"/>
      <use xlink:href="#DejaVuSans-6d" x="361.572266"/>
      <use xlink:href="#DejaVuSans-65" x="458.984375"/>
      <use xlink:href="#DejaVuSans-6f" x="520.507812"/>
      <use xlink:href="#DejaVuSans-74" x="581.689453"/>
      <use xlink:href="#DejaVuSans-79" x="620.898438"/>
      <use xlink:href="#DejaVuSans-70" x="680.078125"/>
      <use xlink:href="#DejaVuSans-69" x="743.554688"/>
      <use xlink:href="#DejaVuSans-63" x="771.337891"/>
     </g>
    </g>
    <g id="patch_10">
     <path d="M 295.087188 87.426688 
L 315.087188 87.426688 
L 315.087188 80.426688 
L 295.087188 80.426688 
z
" style="fill: #ff0000"/>
    </g>
    <g id="text_23">
     <!-- false -->
     <g transform="translate(323.087188 87.426688) scale(0.1 -0.1)">
      <defs>
       <path id="DejaVuSans-61" d="M 2194 1759 
Q 1497 1759 1228 1600 
Q 959 1441 959 1056 
Q 959 750 1161 570 
Q 1363 391 1709 391 
Q 2188 391 2477 730 
Q 2766 1069 2766 1631 
L 2766 1759 
L 2194 1759 
z
M 3341 1997 
L 3341 0 
L 2766 0 
L 2766 531 
Q 2569 213 2275 61 
Q 1981 -91 1556 -91 
Q 1019 -91 701 211 
Q 384 513 384 1019 
Q 384 1609 779 1909 
Q 1175 2209 1959 2209 
L 2766 2209 
L 2766 2266 
Q 2766 2663 2505 2880 
Q 2244 3097 1772 3097 
Q 1472 3097 1187 3025 
Q 903 2953 641 2809 
L 641 3341 
Q 956 3463 1253 3523 
Q 1550 3584 1831 3584 
Q 2591 3584 2966 3190 
Q 3341 2797 3341 1997 
z
" transform="scale(0.015625)"/>
      </defs>
      <use xlink:href="#DejaVuSans-66"/>
      <use xlink:href="#DejaVuSans-61" x="35.205078"/>
      <use xlink:href="#DejaVuSans-6c" x="96.484375"/>
      <use xlink:href="#DejaVuSans-73" x="124.267578"/>
      <use xlink:href="#DejaVuSans-65" x="176.367188"/>
     </g>
    </g>
   </g>
  </g>
 </g>
 <defs>
  <clipPath id="p242025d711">
   <rect x="57.6" y="41.472" width="357.12" height="266.112"/>
  </clipPath>
 </defs>
</svg>
