<?xml version="1.0" encoding="utf-8" standalone="no"?>
<!DOCTYPE svg PUBLIC "-//W3C//DTD SVG 1.1//EN"
  "http://www.w3.org/Graphics/SVG/1.1/DTD/svg11.dtd">
<svg xmlns:xlink="http://www.w3.org/1999/xlink" width="460.8pt" height="345.6pt" viewBox="0 0 460.8 345.6" xmlns="http://www.w3.org/2000/svg" version="1.1">
 <metadata>
  <rdf:RDF xmlns:dc="http://purl.org/dc/elements/1.1/" xmlns:cc="http://creativecommons.org/ns#" xmlns:rdf="http://www.w3.org/1999/02/22-rdf-syntax-ns#">
   <cc:Work>
    <dc:type rdf:resource="http://purl.org/dc/dcmitype/StillImage"/>
    <dc:date>2024-10-31T14:55:15.073883</dc:date>
    <dc:format>image/svg+xml</dc:format>
    <dc:creator>
     <cc:Agent>
      <dc:title>Matplotlib v3.9.0, https://matplotlib.org/</dc:title>
     </cc:Agent>
    </dc:creator>
   </cc:Work>
  </rdf:RDF>
 </metadata>
 <defs>
  <style type="text/css">*{stroke-linejoin: round; stroke-linecap: butt}</style>
 </defs>
 <g id="figure_1">
  <g id="patch_1">
   <path d="M 0 345.6 
L 460.8 345.6 
L 460.8 0 
L 0 0 
z
" style="fill: #ffffff"/>
  </g>
  <g id="axes_1">
   <g id="patch_2">
    <path d="M 57.6 307.584 
L 414.72 307.584 
L 414.72 41.472 
L 57.6 41.472 
z
" style="fill: #ffffff"/>
   </g>
   <g id="PolyCollection_1">
    <path d="M 73.832727 117.804284 
L 73.832727 307.584 
L 74.671843 307.584 
L 75.436185 307.584 
L 77.878759 307.584 
L 78.028304 307.584 
L 79.025273 307.584 
L 81.567543 307.584 
L 82.074335 307.584 
L 82.456506 307.584 
L 82.755597 307.584 
L 82.83037 307.584 
L 83.229157 307.584 
L 84.151353 307.584 
L 84.242742 307.584 
L 85.123398 307.584 
L 85.937589 307.584 
L 86.477613 307.584 
L 87.250264 307.584 
L 87.499506 307.584 
L 87.939834 307.584 
L 88.263849 307.584 
L 88.538015 307.584 
L 88.571248 307.584 
L 89.443595 307.584 
L 89.676221 307.584 
L 90.191322 307.584 
L 90.615034 307.584 
L 90.814427 307.584 
L 90.84766 307.584 
L 91.179982 307.584 
L 91.479073 307.584 
L 91.57877 307.584 
L 91.803088 307.584 
L 92.384653 307.584 
L 92.409577 307.584 
L 92.625587 307.584 
L 92.866521 307.584 
L 93.107455 307.584 
L 93.539475 307.584 
L 94.486595 307.584 
L 94.611216 307.584 
L 94.877075 307.584 
L 95.24263 307.584 
L 95.807579 307.584 
L 95.874043 307.584 
L 96.306063 307.584 
L 100.534872 307.584 
L 101.398912 307.584 
L 101.465376 307.584 
L 102.113406 307.584 
L 103.093758 307.584 
L 103.816561 307.584 
L 103.907949 307.584 
L 103.999338 307.584 
L 104.431358 307.584 
L 104.863378 307.584 
L 106.05974 307.584 
L 106.483452 307.584 
L 106.516684 307.584 
L 107.164714 307.584 
L 107.629966 307.584 
L 107.721355 307.584 
L 107.945673 307.584 
L 108.095218 307.584 
L 108.120142 307.584 
L 109.416201 307.584 
L 109.449434 307.584 
L 109.68206 307.584 
L 111.169205 307.584 
L 112.747738 307.584 
L 112.95544 307.584 
L 113.34592 307.584 
L 114.417661 307.584 
L 114.824757 307.584 
L 115.223544 307.584 
L 115.597407 307.584 
L 116.810386 307.584 
L 118.347379 307.584 
L 119.660055 307.584 
L 119.684979 307.584 
L 119.776368 307.584 
L 119.975761 307.584 
L 120.125307 307.584 
L 120.449322 307.584 
L 120.848109 307.584 
L 123.481768 307.584 
L 124.487045 307.584 
L 124.794443 307.584 
L 125.400933 307.584 
L 125.550478 307.584 
L 125.641867 307.584 
L 125.808028 307.584 
L 126.356361 307.584 
L 127.012699 307.584 
L 128.840475 307.584 
L 129.712822 307.584 
L 130.435625 307.584 
L 130.468857 307.584 
L 130.867644 307.584 
L 131.008882 307.584 
L 131.324588 307.584 
L 131.615371 307.584 
L 131.997542 307.584 
L 132.230168 307.584 
L 132.86989 307.584 
L 134.107793 307.584 
L 135.137994 307.584 
L 135.611554 307.584 
L 136.193119 307.584 
L 136.276199 307.584 
L 138.535995 307.584 
L 138.984631 307.584 
L 139.358494 307.584 
L 140.596397 307.584 
L 140.870564 307.584 
L 141.485361 307.584 
L 142.008769 307.584 
L 142.258012 307.584 
L 143.753465 307.584 
L 144.559348 307.584 
L 145.406771 307.584 
L 145.49816 307.584 
L 145.963412 307.584 
L 146.01326 307.584 
L 146.436972 307.584 
L 147.251163 307.584 
L 147.367476 307.584 
L 149.486035 307.584 
L 149.494343 307.584 
L 150.765478 307.584 
L 151.862143 307.584 
L 152.161234 307.584 
L 152.335703 307.584 
L 152.975425 307.584 
L 156.730674 307.584 
L 156.988224 307.584 
L 157.611329 307.584 
L 157.65287 307.584 
L 158.425521 307.584 
L 158.433829 307.584 
L 159.580343 307.584 
L 160.186832 307.584 
L 161.117336 307.584 
L 161.133952 307.584 
L 161.408119 307.584 
L 161.474583 307.584 
L 162.180769 307.584 
L 162.189077 307.584 
L 162.22231 307.584 
L 162.421703 307.584 
L 163.991929 307.584 
L 164.15809 307.584 
L 165.479074 307.584 
L 166.334805 307.584 
L 166.376346 307.584 
L 168.503212 307.584 
L 168.769071 307.584 
L 168.976772 307.584 
L 169.790964 307.584 
L 174.501641 307.584 
L 175.830932 307.584 
L 177.151916 307.584 
L 177.21838 307.584 
L 180.308983 307.584 
L 181.264412 307.584 
L 181.3558 307.584 
L 182.485698 307.584 
L 183.648828 307.584 
L 184.828575 307.584 
L 186.805896 307.584 
L 189.298318 307.584 
L 190.203897 307.584 
L 190.228822 307.584 
L 191.217482 307.584 
L 192.879097 307.584 
L 195.687225 307.584 
L 196.518033 307.584 
L 197.099598 307.584 
L 202.882016 307.584 
L 203.056485 307.584 
L 205.374438 307.584 
L 212.178749 307.584 
L 212.211981 307.584 
L 215.003494 307.584 
L 215.693064 307.584 
L 217.678693 307.584 
L 218.816899 307.584 
L 222.414294 307.584 
L 228.462571 307.584 
L 242.511521 307.584 
L 243.533414 307.584 
L 247.296971 307.584 
L 247.629294 307.584 
L 256.070296 307.584 
L 280.379715 307.584 
L 281.601002 307.584 
L 281.60931 307.584 
L 282.265648 307.584 
L 290.681725 307.584 
L 297.045709 307.584 
L 297.436188 307.584 
L 299.205807 307.584 
L 299.986766 307.584 
L 304.996534 307.584 
L 322.775809 307.584 
L 326.456285 307.584 
L 327.868657 307.584 
L 332.03931 307.584 
L 345.099599 307.584 
L 370.115205 307.584 
L 398.487273 307.584 
L 398.487273 307.584 
L 398.487273 307.584 
L 370.115205 307.584 
L 345.099599 307.584 
L 332.03931 307.584 
L 327.868657 307.584 
L 326.456285 307.584 
L 322.775809 306.382863 
L 304.996534 305.181725 
L 299.986766 305.181725 
L 299.205807 305.181725 
L 297.436188 305.181725 
L 297.045709 305.181725 
L 290.681725 305.181725 
L 282.265648 305.181725 
L 281.60931 303.980588 
L 281.601002 303.980588 
L 280.379715 303.980588 
L 256.070296 302.77945 
L 247.629294 301.578313 
L 247.296971 300.377175 
L 243.533414 300.377175 
L 242.511521 299.176038 
L 228.462571 297.9749 
L 222.414294 296.773763 
L 218.816899 296.773763 
L 217.678693 296.773763 
L 215.693064 296.773763 
L 215.003494 295.572626 
L 212.211981 294.371488 
L 212.178749 294.371488 
L 205.374438 293.170351 
L 203.056485 291.969213 
L 202.882016 290.768076 
L 197.099598 290.768076 
L 196.518033 289.566938 
L 195.687225 289.566938 
L 192.879097 289.566938 
L 191.217482 288.365801 
L 190.228822 287.164664 
L 190.203897 285.963526 
L 189.298318 285.963526 
L 186.805896 285.963526 
L 184.828575 284.762389 
L 183.648828 284.762389 
L 182.485698 284.762389 
L 181.3558 283.561251 
L 181.264412 282.360114 
L 180.308983 281.158976 
L 177.21838 281.158976 
L 177.151916 279.957839 
L 175.830932 278.756701 
L 174.501641 277.555564 
L 169.790964 276.354427 
L 168.976772 275.153289 
L 168.769071 273.952152 
L 168.503212 272.751014 
L 166.376346 272.751014 
L 166.334805 271.549877 
L 165.479074 270.348739 
L 164.15809 270.348739 
L 163.991929 270.348739 
L 162.421703 270.348739 
L 162.22231 269.147602 
L 162.189077 267.946464 
L 162.180769 266.745327 
L 161.474583 265.54419 
L 161.408119 265.54419 
L 161.133952 264.343052 
L 161.117336 263.141915 
L 160.186832 261.940777 
L 159.580343 260.73964 
L 158.433829 259.538502 
L 158.425521 258.337365 
L 157.65287 257.136227 
L 157.611329 255.93509 
L 156.988224 255.93509 
L 156.730674 254.733953 
L 152.975425 253.532815 
L 152.335703 253.532815 
L 152.161234 253.532815 
L 151.862143 253.532815 
L 150.765478 252.331678 
L 149.494343 251.13054 
L 149.486035 249.929403 
L 147.367476 248.728265 
L 147.251163 247.527128 
L 146.436972 246.325991 
L 146.01326 245.124853 
L 145.963412 243.923716 
L 145.49816 242.722578 
L 145.406771 241.521441 
L 144.559348 240.320303 
L 143.753465 240.320303 
L 142.258012 239.119166 
L 142.008769 237.918028 
L 141.485361 236.716891 
L 140.870564 235.515754 
L 140.596397 234.314616 
L 139.358494 233.113479 
L 138.984631 231.912341 
L 138.535995 230.711204 
L 136.276199 229.510066 
L 136.193119 229.510066 
L 135.611554 228.308929 
L 135.137994 227.107791 
L 134.107793 225.906654 
L 132.86989 225.906654 
L 132.230168 224.705517 
L 131.997542 223.504379 
L 131.615371 222.303242 
L 131.324588 221.102104 
L 131.008882 219.900967 
L 130.867644 219.900967 
L 130.468857 218.699829 
L 130.435625 217.498692 
L 129.712822 216.297555 
L 128.840475 215.096417 
L 127.012699 213.89528 
L 126.356361 212.694142 
L 125.808028 211.493005 
L 125.641867 210.291867 
L 125.550478 209.09073 
L 125.400933 207.889592 
L 124.794443 206.688455 
L 124.487045 205.487318 
L 123.481768 204.28618 
L 120.848109 204.28618 
L 120.449322 204.28618 
L 120.125307 203.085043 
L 119.975761 201.883905 
L 119.776368 200.682768 
L 119.684979 199.48163 
L 119.660055 199.48163 
L 118.347379 198.280493 
L 116.810386 197.079355 
L 115.597407 195.878218 
L 115.223544 195.878218 
L 114.824757 194.677081 
L 114.417661 193.475943 
L 113.34592 192.274806 
L 112.95544 191.073668 
L 112.747738 189.872531 
L 111.169205 189.872531 
L 109.68206 188.671393 
L 109.449434 188.671393 
L 109.416201 187.470256 
L 108.120142 186.269118 
L 108.095218 186.269118 
L 107.945673 185.067981 
L 107.721355 185.067981 
L 107.629966 183.866844 
L 107.164714 183.866844 
L 106.516684 182.665706 
L 106.483452 181.464569 
L 106.05974 180.263431 
L 104.863378 179.062294 
L 104.431358 177.861156 
L 103.999338 176.660019 
L 103.907949 175.458882 
L 103.816561 174.257744 
L 103.093758 173.056607 
L 102.113406 171.855469 
L 101.465376 170.654332 
L 101.398912 169.453194 
L 100.534872 168.252057 
L 96.306063 167.050919 
L 95.874043 165.849782 
L 95.807579 164.648645 
L 95.24263 163.447507 
L 94.877075 162.24637 
L 94.611216 161.045232 
L 94.486595 159.844095 
L 93.539475 158.642957 
L 93.107455 157.44182 
L 92.866521 156.240682 
L 92.625587 155.039545 
L 92.409577 153.838408 
L 92.384653 152.63727 
L 91.803088 151.436133 
L 91.57877 151.436133 
L 91.479073 150.234995 
L 91.179982 150.234995 
L 90.84766 149.033858 
L 90.814427 147.83272 
L 90.615034 146.631583 
L 90.191322 145.430445 
L 89.676221 144.229308 
L 89.443595 143.028171 
L 88.571248 141.827033 
L 88.538015 140.625896 
L 88.263849 139.424758 
L 87.939834 138.223621 
L 87.499506 137.022483 
L 87.250264 137.022483 
L 86.477613 135.821346 
L 85.937589 134.620209 
L 85.123398 133.419071 
L 84.242742 132.217934 
L 84.151353 131.016796 
L 83.229157 129.815659 
L 82.83037 128.614521 
L 82.755597 127.413384 
L 82.456506 126.212246 
L 82.074335 125.011109 
L 81.567543 123.809972 
L 79.025273 122.608834 
L 78.028304 122.608834 
L 77.878759 121.407697 
L 75.436185 120.206559 
L 74.671843 119.005422 
L 73.832727 117.804284 
z
" clip-path="url(#p53b344699c)" style="fill: #008000"/>
   </g>
   <g id="PolyCollection_2">
    <path d="M 73.832727 57.747412 
L 73.832727 117.804284 
L 74.671843 119.005422 
L 75.436185 120.206559 
L 77.878759 121.407697 
L 78.028304 122.608834 
L 79.025273 122.608834 
L 81.567543 123.809972 
L 82.074335 125.011109 
L 82.456506 126.212246 
L 82.755597 127.413384 
L 82.83037 128.614521 
L 83.229157 129.815659 
L 84.151353 131.016796 
L 84.242742 132.217934 
L 85.123398 133.419071 
L 85.937589 134.620209 
L 86.477613 135.821346 
L 87.250264 137.022483 
L 87.499506 137.022483 
L 87.939834 138.223621 
L 88.263849 139.424758 
L 88.538015 140.625896 
L 88.571248 141.827033 
L 89.443595 143.028171 
L 89.676221 144.229308 
L 90.191322 145.430445 
L 90.615034 146.631583 
L 90.814427 147.83272 
L 90.84766 149.033858 
L 91.179982 150.234995 
L 91.479073 150.234995 
L 91.57877 151.436133 
L 91.803088 151.436133 
L 92.384653 152.63727 
L 92.409577 153.838408 
L 92.625587 155.039545 
L 92.866521 156.240682 
L 93.107455 157.44182 
L 93.539475 158.642957 
L 94.486595 159.844095 
L 94.611216 161.045232 
L 94.877075 162.24637 
L 95.24263 163.447507 
L 95.807579 164.648645 
L 95.874043 165.849782 
L 96.306063 167.050919 
L 100.534872 168.252057 
L 101.398912 169.453194 
L 101.465376 170.654332 
L 102.113406 171.855469 
L 103.093758 173.056607 
L 103.816561 174.257744 
L 103.907949 175.458882 
L 103.999338 176.660019 
L 104.431358 177.861156 
L 104.863378 179.062294 
L 106.05974 180.263431 
L 106.483452 181.464569 
L 106.516684 182.665706 
L 107.164714 183.866844 
L 107.629966 183.866844 
L 107.721355 185.067981 
L 107.945673 185.067981 
L 108.095218 186.269118 
L 108.120142 186.269118 
L 109.416201 187.470256 
L 109.449434 188.671393 
L 109.68206 188.671393 
L 111.169205 189.872531 
L 112.747738 189.872531 
L 112.95544 191.073668 
L 113.34592 192.274806 
L 114.417661 193.475943 
L 114.824757 194.677081 
L 115.223544 195.878218 
L 115.597407 195.878218 
L 116.810386 197.079355 
L 118.347379 198.280493 
L 119.660055 199.48163 
L 119.684979 199.48163 
L 119.776368 200.682768 
L 119.975761 201.883905 
L 120.125307 203.085043 
L 120.449322 204.28618 
L 120.848109 204.28618 
L 123.481768 204.28618 
L 124.487045 205.487318 
L 124.794443 206.688455 
L 125.400933 207.889592 
L 125.550478 209.09073 
L 125.641867 210.291867 
L 125.808028 211.493005 
L 126.356361 212.694142 
L 127.012699 213.89528 
L 128.840475 215.096417 
L 129.712822 216.297555 
L 130.435625 217.498692 
L 130.468857 218.699829 
L 130.867644 219.900967 
L 131.008882 219.900967 
L 131.324588 221.102104 
L 131.615371 222.303242 
L 131.997542 223.504379 
L 132.230168 224.705517 
L 132.86989 225.906654 
L 134.107793 225.906654 
L 135.137994 227.107791 
L 135.611554 228.308929 
L 136.193119 229.510066 
L 136.276199 229.510066 
L 138.535995 230.711204 
L 138.984631 231.912341 
L 139.358494 233.113479 
L 140.596397 234.314616 
L 140.870564 235.515754 
L 141.485361 236.716891 
L 142.008769 237.918028 
L 142.258012 239.119166 
L 143.753465 240.320303 
L 144.559348 240.320303 
L 145.406771 241.521441 
L 145.49816 242.722578 
L 145.963412 243.923716 
L 146.01326 245.124853 
L 146.436972 246.325991 
L 147.251163 247.527128 
L 147.367476 248.728265 
L 149.486035 249.929403 
L 149.494343 251.13054 
L 150.765478 252.331678 
L 151.862143 253.532815 
L 152.161234 253.532815 
L 152.335703 253.532815 
L 152.975425 253.532815 
L 156.730674 254.733953 
L 156.988224 255.93509 
L 157.611329 255.93509 
L 157.65287 257.136227 
L 158.425521 258.337365 
L 158.433829 259.538502 
L 159.580343 260.73964 
L 160.186832 261.940777 
L 161.117336 263.141915 
L 161.133952 264.343052 
L 161.408119 265.54419 
L 161.474583 265.54419 
L 162.180769 266.745327 
L 162.189077 267.946464 
L 162.22231 269.147602 
L 162.421703 270.348739 
L 163.991929 270.348739 
L 164.15809 270.348739 
L 165.479074 270.348739 
L 166.334805 271.549877 
L 166.376346 272.751014 
L 168.503212 272.751014 
L 168.769071 273.952152 
L 168.976772 275.153289 
L 169.790964 276.354427 
L 174.501641 277.555564 
L 175.830932 278.756701 
L 177.151916 279.957839 
L 177.21838 281.158976 
L 180.308983 281.158976 
L 181.264412 282.360114 
L 181.3558 283.561251 
L 182.485698 284.762389 
L 183.648828 284.762389 
L 184.828575 284.762389 
L 186.805896 285.963526 
L 189.298318 285.963526 
L 190.203897 285.963526 
L 190.228822 287.164664 
L 191.217482 288.365801 
L 192.879097 289.566938 
L 195.687225 289.566938 
L 196.518033 289.566938 
L 197.099598 290.768076 
L 202.882016 290.768076 
L 203.056485 291.969213 
L 205.374438 293.170351 
L 212.178749 294.371488 
L 212.211981 294.371488 
L 215.003494 295.572626 
L 215.693064 296.773763 
L 217.678693 296.773763 
L 218.816899 296.773763 
L 222.414294 296.773763 
L 228.462571 297.9749 
L 242.511521 299.176038 
L 243.533414 300.377175 
L 247.296971 300.377175 
L 247.629294 301.578313 
L 256.070296 302.77945 
L 280.379715 303.980588 
L 281.601002 303.980588 
L 281.60931 303.980588 
L 282.265648 305.181725 
L 290.681725 305.181725 
L 297.045709 305.181725 
L 297.436188 305.181725 
L 299.205807 305.181725 
L 299.986766 305.181725 
L 304.996534 305.181725 
L 322.775809 306.382863 
L 326.456285 307.584 
L 327.868657 307.584 
L 332.03931 307.584 
L 345.099599 307.584 
L 370.115205 307.584 
L 398.487273 307.584 
L 398.487273 306.382863 
L 398.487273 306.382863 
L 370.115205 305.181725 
L 345.099599 303.980588 
L 332.03931 302.77945 
L 327.868657 301.578313 
L 326.456285 300.377175 
L 322.775809 299.176038 
L 304.996534 297.9749 
L 299.986766 296.773763 
L 299.205807 295.572626 
L 297.436188 294.371488 
L 297.045709 293.170351 
L 290.681725 291.969213 
L 282.265648 290.768076 
L 281.60931 289.566938 
L 281.601002 288.365801 
L 280.379715 287.164664 
L 256.070296 285.963526 
L 247.629294 284.762389 
L 247.296971 283.561251 
L 243.533414 282.360114 
L 242.511521 281.158976 
L 228.462571 279.957839 
L 222.414294 278.756701 
L 218.816899 277.555564 
L 217.678693 276.354427 
L 215.693064 275.153289 
L 215.003494 273.952152 
L 212.211981 272.751014 
L 212.178749 271.549877 
L 205.374438 270.348739 
L 203.056485 269.147602 
L 202.882016 267.946464 
L 197.099598 266.745327 
L 196.518033 265.54419 
L 195.687225 264.343052 
L 192.879097 263.141915 
L 191.217482 261.940777 
L 190.228822 260.73964 
L 190.203897 259.538502 
L 189.298318 258.337365 
L 186.805896 257.136227 
L 184.828575 255.93509 
L 183.648828 254.733953 
L 182.485698 253.532815 
L 181.3558 252.331678 
L 181.264412 251.13054 
L 180.308983 249.929403 
L 177.21838 248.728265 
L 177.151916 247.527128 
L 175.830932 246.325991 
L 174.501641 245.124853 
L 169.790964 243.923716 
L 168.976772 242.722578 
L 168.769071 241.521441 
L 168.503212 240.320303 
L 166.376346 239.119166 
L 166.334805 237.918028 
L 165.479074 236.716891 
L 164.15809 235.515754 
L 163.991929 234.314616 
L 162.421703 233.113479 
L 162.22231 231.912341 
L 162.189077 230.711204 
L 162.180769 229.510066 
L 161.474583 228.308929 
L 161.408119 227.107791 
L 161.133952 225.906654 
L 161.117336 224.705517 
L 160.186832 223.504379 
L 159.580343 222.303242 
L 158.433829 221.102104 
L 158.425521 219.900967 
L 157.65287 218.699829 
L 157.611329 217.498692 
L 156.988224 216.297555 
L 156.730674 215.096417 
L 152.975425 213.89528 
L 152.335703 212.694142 
L 152.161234 211.493005 
L 151.862143 210.291867 
L 150.765478 209.09073 
L 149.494343 207.889592 
L 149.486035 206.688455 
L 147.367476 205.487318 
L 147.251163 204.28618 
L 146.436972 203.085043 
L 146.01326 201.883905 
L 145.963412 200.682768 
L 145.49816 199.48163 
L 145.406771 198.280493 
L 144.559348 197.079355 
L 143.753465 195.878218 
L 142.258012 194.677081 
L 142.008769 193.475943 
L 141.485361 192.274806 
L 140.870564 191.073668 
L 140.596397 189.872531 
L 139.358494 188.671393 
L 138.984631 187.470256 
L 138.535995 186.269118 
L 136.276199 185.067981 
L 136.193119 183.866844 
L 135.611554 182.665706 
L 135.137994 181.464569 
L 134.107793 180.263431 
L 132.86989 180.263431 
L 132.230168 179.062294 
L 131.997542 177.861156 
L 131.615371 176.660019 
L 131.324588 175.458882 
L 131.008882 174.257744 
L 130.867644 173.056607 
L 130.468857 171.855469 
L 130.435625 170.654332 
L 129.712822 169.453194 
L 128.840475 168.252057 
L 127.012699 167.050919 
L 126.356361 165.849782 
L 125.808028 164.648645 
L 125.641867 163.447507 
L 125.550478 162.24637 
L 125.400933 161.045232 
L 124.794443 159.844095 
L 124.487045 158.642957 
L 123.481768 157.44182 
L 120.848109 156.240682 
L 120.449322 155.039545 
L 120.125307 153.838408 
L 119.975761 152.63727 
L 119.776368 151.436133 
L 119.684979 150.234995 
L 119.660055 149.033858 
L 118.347379 147.83272 
L 116.810386 146.631583 
L 115.597407 145.430445 
L 115.223544 144.229308 
L 114.824757 143.028171 
L 114.417661 141.827033 
L 113.34592 140.625896 
L 112.95544 139.424758 
L 112.747738 138.223621 
L 111.169205 137.022483 
L 109.68206 135.821346 
L 109.449434 134.620209 
L 109.416201 133.419071 
L 108.120142 132.217934 
L 108.095218 131.016796 
L 107.945673 129.815659 
L 107.721355 128.614521 
L 107.629966 127.413384 
L 107.164714 126.212246 
L 106.516684 125.011109 
L 106.483452 123.809972 
L 106.05974 122.608834 
L 104.863378 121.407697 
L 104.431358 120.206559 
L 103.999338 119.005422 
L 103.907949 117.804284 
L 103.816561 116.603147 
L 103.093758 115.402009 
L 102.113406 114.200872 
L 101.465376 112.999735 
L 101.398912 111.798597 
L 100.534872 110.59746 
L 96.306063 109.396322 
L 95.874043 108.195185 
L 95.807579 106.994047 
L 95.24263 105.79291 
L 94.877075 104.591773 
L 94.611216 103.390635 
L 94.486595 102.189498 
L 93.539475 100.98836 
L 93.107455 99.787223 
L 92.866521 98.586085 
L 92.625587 97.384948 
L 92.409577 96.18381 
L 92.384653 94.982673 
L 91.803088 93.781536 
L 91.57877 92.580398 
L 91.479073 91.379261 
L 91.179982 90.178123 
L 90.84766 88.976986 
L 90.814427 87.775848 
L 90.615034 86.574711 
L 90.191322 85.373573 
L 89.676221 84.172436 
L 89.443595 82.971299 
L 88.571248 81.770161 
L 88.538015 80.569024 
L 88.263849 79.367886 
L 87.939834 78.166749 
L 87.499506 76.965611 
L 87.250264 76.965611 
L 86.477613 75.764474 
L 85.937589 74.563336 
L 85.123398 73.362199 
L 84.242742 72.161062 
L 84.151353 70.959924 
L 83.229157 69.758787 
L 82.83037 68.557649 
L 82.755597 67.356512 
L 82.456506 66.155374 
L 82.074335 64.954237 
L 81.567543 63.7531 
L 79.025273 62.551962 
L 78.028304 62.551962 
L 77.878759 61.350825 
L 75.436185 60.149687 
L 74.671843 58.94855 
L 73.832727 57.747412 
z
" clip-path="url(#p53b344699c)" style="fill: #7cfc00"/>
   </g>
   <g id="PolyCollection_3">
    <path d="M 73.832727 54.144 
L 73.832727 57.747412 
L 74.671843 58.94855 
L 75.436185 60.149687 
L 77.878759 61.350825 
L 78.028304 62.551962 
L 79.025273 62.551962 
L 81.567543 63.7531 
L 82.074335 64.954237 
L 82.456506 66.155374 
L 82.755597 67.356512 
L 82.83037 68.557649 
L 83.229157 69.758787 
L 84.151353 70.959924 
L 84.242742 72.161062 
L 85.123398 73.362199 
L 85.937589 74.563336 
L 86.477613 75.764474 
L 87.250264 76.965611 
L 87.499506 76.965611 
L 87.939834 78.166749 
L 88.263849 79.367886 
L 88.538015 80.569024 
L 88.571248 81.770161 
L 89.443595 82.971299 
L 89.676221 84.172436 
L 90.191322 85.373573 
L 90.615034 86.574711 
L 90.814427 87.775848 
L 90.84766 88.976986 
L 91.179982 90.178123 
L 91.479073 91.379261 
L 91.57877 92.580398 
L 91.803088 93.781536 
L 92.384653 94.982673 
L 92.409577 96.18381 
L 92.625587 97.384948 
L 92.866521 98.586085 
L 93.107455 99.787223 
L 93.539475 100.98836 
L 94.486595 102.189498 
L 94.611216 103.390635 
L 94.877075 104.591773 
L 95.24263 105.79291 
L 95.807579 106.994047 
L 95.874043 108.195185 
L 96.306063 109.396322 
L 100.534872 110.59746 
L 101.398912 111.798597 
L 101.465376 112.999735 
L 102.113406 114.200872 
L 103.093758 115.402009 
L 103.816561 116.603147 
L 103.907949 117.804284 
L 103.999338 119.005422 
L 104.431358 120.206559 
L 104.863378 121.407697 
L 106.05974 122.608834 
L 106.483452 123.809972 
L 106.516684 125.011109 
L 107.164714 126.212246 
L 107.629966 127.413384 
L 107.721355 128.614521 
L 107.945673 129.815659 
L 108.095218 131.016796 
L 108.120142 132.217934 
L 109.416201 133.419071 
L 109.449434 134.620209 
L 109.68206 135.821346 
L 111.169205 137.022483 
L 112.747738 138.223621 
L 112.95544 139.424758 
L 113.34592 140.625896 
L 114.417661 141.827033 
L 114.824757 143.028171 
L 115.223544 144.229308 
L 115.597407 145.430445 
L 116.810386 146.631583 
L 118.347379 147.83272 
L 119.660055 149.033858 
L 119.684979 150.234995 
L 119.776368 151.436133 
L 119.975761 152.63727 
L 120.125307 153.838408 
L 120.449322 155.039545 
L 120.848109 156.240682 
L 123.481768 157.44182 
L 124.487045 158.642957 
L 124.794443 159.844095 
L 125.400933 161.045232 
L 125.550478 162.24637 
L 125.641867 163.447507 
L 125.808028 164.648645 
L 126.356361 165.849782 
L 127.012699 167.050919 
L 128.840475 168.252057 
L 129.712822 169.453194 
L 130.435625 170.654332 
L 130.468857 171.855469 
L 130.867644 173.056607 
L 131.008882 174.257744 
L 131.324588 175.458882 
L 131.615371 176.660019 
L 131.997542 177.861156 
L 132.230168 179.062294 
L 132.86989 180.263431 
L 134.107793 180.263431 
L 135.137994 181.464569 
L 135.611554 182.665706 
L 136.193119 183.866844 
L 136.276199 185.067981 
L 138.535995 186.269118 
L 138.984631 187.470256 
L 139.358494 188.671393 
L 140.596397 189.872531 
L 140.870564 191.073668 
L 141.485361 192.274806 
L 142.008769 193.475943 
L 142.258012 194.677081 
L 143.753465 195.878218 
L 144.559348 197.079355 
L 145.406771 198.280493 
L 145.49816 199.48163 
L 145.963412 200.682768 
L 146.01326 201.883905 
L 146.436972 203.085043 
L 147.251163 204.28618 
L 147.367476 205.487318 
L 149.486035 206.688455 
L 149.494343 207.889592 
L 150.765478 209.09073 
L 151.862143 210.291867 
L 152.161234 211.493005 
L 152.335703 212.694142 
L 152.975425 213.89528 
L 156.730674 215.096417 
L 156.988224 216.297555 
L 157.611329 217.498692 
L 157.65287 218.699829 
L 158.425521 219.900967 
L 158.433829 221.102104 
L 159.580343 222.303242 
L 160.186832 223.504379 
L 161.117336 224.705517 
L 161.133952 225.906654 
L 161.408119 227.107791 
L 161.474583 228.308929 
L 162.180769 229.510066 
L 162.189077 230.711204 
L 162.22231 231.912341 
L 162.421703 233.113479 
L 163.991929 234.314616 
L 164.15809 235.515754 
L 165.479074 236.716891 
L 166.334805 237.918028 
L 166.376346 239.119166 
L 168.503212 240.320303 
L 168.769071 241.521441 
L 168.976772 242.722578 
L 169.790964 243.923716 
L 174.501641 245.124853 
L 175.830932 246.325991 
L 177.151916 247.527128 
L 177.21838 248.728265 
L 180.308983 249.929403 
L 181.264412 251.13054 
L 181.3558 252.331678 
L 182.485698 253.532815 
L 183.648828 254.733953 
L 184.828575 255.93509 
L 186.805896 257.136227 
L 189.298318 258.337365 
L 190.203897 259.538502 
L 190.228822 260.73964 
L 191.217482 261.940777 
L 192.879097 263.141915 
L 195.687225 264.343052 
L 196.518033 265.54419 
L 197.099598 266.745327 
L 202.882016 267.946464 
L 203.056485 269.147602 
L 205.374438 270.348739 
L 212.178749 271.549877 
L 212.211981 272.751014 
L 215.003494 273.952152 
L 215.693064 275.153289 
L 217.678693 276.354427 
L 218.816899 277.555564 
L 222.414294 278.756701 
L 228.462571 279.957839 
L 242.511521 281.158976 
L 243.533414 282.360114 
L 247.296971 283.561251 
L 247.629294 284.762389 
L 256.070296 285.963526 
L 280.379715 287.164664 
L 281.601002 288.365801 
L 281.60931 289.566938 
L 282.265648 290.768076 
L 290.681725 291.969213 
L 297.045709 293.170351 
L 297.436188 294.371488 
L 299.205807 295.572626 
L 299.986766 296.773763 
L 304.996534 297.9749 
L 322.775809 299.176038 
L 326.456285 300.377175 
L 327.868657 301.578313 
L 332.03931 302.77945 
L 345.099599 303.980588 
L 370.115205 305.181725 
L 398.487273 306.382863 
L 398.487273 306.382863 
L 398.487273 306.382863 
L 370.115205 305.181725 
L 345.099599 303.980588 
L 332.03931 302.77945 
L 327.868657 301.578313 
L 326.456285 300.377175 
L 322.775809 299.176038 
L 304.996534 297.9749 
L 299.986766 296.773763 
L 299.205807 295.572626 
L 297.436188 294.371488 
L 297.045709 293.170351 
L 290.681725 291.969213 
L 282.265648 290.768076 
L 281.60931 289.566938 
L 281.601002 288.365801 
L 280.379715 287.164664 
L 256.070296 285.963526 
L 247.629294 284.762389 
L 247.296971 283.561251 
L 243.533414 282.360114 
L 242.511521 281.158976 
L 228.462571 279.957839 
L 222.414294 278.756701 
L 218.816899 277.555564 
L 217.678693 276.354427 
L 215.693064 275.153289 
L 215.003494 273.952152 
L 212.211981 272.751014 
L 212.178749 271.549877 
L 205.374438 270.348739 
L 203.056485 269.147602 
L 202.882016 267.946464 
L 197.099598 266.745327 
L 196.518033 265.54419 
L 195.687225 264.343052 
L 192.879097 263.141915 
L 191.217482 261.940777 
L 190.228822 260.73964 
L 190.203897 259.538502 
L 189.298318 258.337365 
L 186.805896 257.136227 
L 184.828575 255.93509 
L 183.648828 254.733953 
L 182.485698 253.532815 
L 181.3558 252.331678 
L 181.264412 251.13054 
L 180.308983 249.929403 
L 177.21838 248.728265 
L 177.151916 247.527128 
L 175.830932 246.325991 
L 174.501641 245.124853 
L 169.790964 243.923716 
L 168.976772 242.722578 
L 168.769071 241.521441 
L 168.503212 240.320303 
L 166.376346 239.119166 
L 166.334805 237.918028 
L 165.479074 236.716891 
L 164.15809 235.515754 
L 163.991929 234.314616 
L 162.421703 233.113479 
L 162.22231 231.912341 
L 162.189077 230.711204 
L 162.180769 229.510066 
L 161.474583 228.308929 
L 161.408119 227.107791 
L 161.133952 225.906654 
L 161.117336 224.705517 
L 160.186832 223.504379 
L 159.580343 222.303242 
L 158.433829 221.102104 
L 158.425521 219.900967 
L 157.65287 218.699829 
L 157.611329 217.498692 
L 156.988224 216.297555 
L 156.730674 215.096417 
L 152.975425 213.89528 
L 152.335703 212.694142 
L 152.161234 211.493005 
L 151.862143 210.291867 
L 150.765478 209.09073 
L 149.494343 207.889592 
L 149.486035 206.688455 
L 147.367476 205.487318 
L 147.251163 204.28618 
L 146.436972 203.085043 
L 146.01326 201.883905 
L 145.963412 200.682768 
L 145.49816 199.48163 
L 145.406771 198.280493 
L 144.559348 197.079355 
L 143.753465 195.878218 
L 142.258012 194.677081 
L 142.008769 193.475943 
L 141.485361 192.274806 
L 140.870564 191.073668 
L 140.596397 189.872531 
L 139.358494 188.671393 
L 138.984631 187.470256 
L 138.535995 186.269118 
L 136.276199 185.067981 
L 136.193119 183.866844 
L 135.611554 182.665706 
L 135.137994 181.464569 
L 134.107793 180.263431 
L 132.86989 179.062294 
L 132.230168 177.861156 
L 131.997542 176.660019 
L 131.615371 175.458882 
L 131.324588 174.257744 
L 131.008882 173.056607 
L 130.867644 171.855469 
L 130.468857 170.654332 
L 130.435625 169.453194 
L 129.712822 168.252057 
L 128.840475 167.050919 
L 127.012699 165.849782 
L 126.356361 164.648645 
L 125.808028 163.447507 
L 125.641867 162.24637 
L 125.550478 161.045232 
L 125.400933 159.844095 
L 124.794443 158.642957 
L 124.487045 157.44182 
L 123.481768 156.240682 
L 120.848109 155.039545 
L 120.449322 153.838408 
L 120.125307 152.63727 
L 119.975761 151.436133 
L 119.776368 150.234995 
L 119.684979 149.033858 
L 119.660055 147.83272 
L 118.347379 146.631583 
L 116.810386 145.430445 
L 115.597407 144.229308 
L 115.223544 143.028171 
L 114.824757 141.827033 
L 114.417661 140.625896 
L 113.34592 139.424758 
L 112.95544 138.223621 
L 112.747738 137.022483 
L 111.169205 135.821346 
L 109.68206 134.620209 
L 109.449434 133.419071 
L 109.416201 132.217934 
L 108.120142 131.016796 
L 108.095218 129.815659 
L 107.945673 128.614521 
L 107.721355 127.413384 
L 107.629966 126.212246 
L 107.164714 125.011109 
L 106.516684 123.809972 
L 106.483452 122.608834 
L 106.05974 121.407697 
L 104.863378 120.206559 
L 104.431358 119.005422 
L 103.999338 117.804284 
L 103.907949 116.603147 
L 103.816561 115.402009 
L 103.093758 114.200872 
L 102.113406 112.999735 
L 101.465376 111.798597 
L 101.398912 110.59746 
L 100.534872 109.396322 
L 96.306063 108.195185 
L 95.874043 106.994047 
L 95.807579 105.79291 
L 95.24263 104.591773 
L 94.877075 103.390635 
L 94.611216 102.189498 
L 94.486595 100.98836 
L 93.539475 99.787223 
L 93.107455 98.586085 
L 92.866521 97.384948 
L 92.625587 96.18381 
L 92.409577 94.982673 
L 92.384653 93.781536 
L 91.803088 92.580398 
L 91.57877 91.379261 
L 91.479073 90.178123 
L 91.179982 88.976986 
L 90.84766 87.775848 
L 90.814427 86.574711 
L 90.615034 85.373573 
L 90.191322 84.172436 
L 89.676221 82.971299 
L 89.443595 81.770161 
L 88.571248 80.569024 
L 88.538015 79.367886 
L 88.263849 78.166749 
L 87.939834 76.965611 
L 87.499506 75.764474 
L 87.250264 74.563336 
L 86.477613 73.362199 
L 85.937589 72.161062 
L 85.123398 70.959924 
L 84.242742 69.758787 
L 84.151353 68.557649 
L 83.229157 67.356512 
L 82.83037 66.155374 
L 82.755597 64.954237 
L 82.456506 63.7531 
L 82.074335 62.551962 
L 81.567543 61.350825 
L 79.025273 60.149687 
L 78.028304 58.94855 
L 77.878759 57.747412 
L 75.436185 56.546275 
L 74.671843 55.345137 
L 73.832727 54.144 
z
" clip-path="url(#p53b344699c)" style="fill: #ff0000"/>
   </g>
   <g id="matplotlib.axis_1">
    <g id="xtick_1">
     <g id="line2d_1">
      <defs>
       <path id="mabd5142862" d="M 0 0 
L 0 3.5 
" style="stroke: #000000; stroke-width: 0.8"/>
      </defs>
      <g>
       <use xlink:href="#mabd5142862" x="98.449546" y="307.584" style="stroke: #000000; stroke-width: 0.8"/>
      </g>
     </g>
     <g id="text_1">
      <!-- 100 -->
      <g transform="translate(88.905796 322.182437) scale(0.1 -0.1)">
       <defs>
        <path id="DejaVuSans-31" d="M 794 531 
L 1825 531 
L 1825 4091 
L 703 3866 
L 703 4441 
L 1819 4666 
L 2450 4666 
L 2450 531 
L 3481 531 
L 3481 0 
L 794 0 
L 794 531 
z
" transform="scale(0.015625)"/>
        <path id="DejaVuSans-30" d="M 2034 4250 
Q 1547 4250 1301 3770 
Q 1056 3291 1056 2328 
Q 1056 1369 1301 889 
Q 1547 409 2034 409 
Q 2525 409 2770 889 
Q 3016 1369 3016 2328 
Q 3016 3291 2770 3770 
Q 2525 4250 2034 4250 
z
M 2034 4750 
Q 2819 4750 3233 4129 
Q 3647 3509 3647 2328 
Q 3647 1150 3233 529 
Q 2819 -91 2034 -91 
Q 1250 -91 836 529 
Q 422 1150 422 2328 
Q 422 3509 836 4129 
Q 1250 4750 2034 4750 
z
" transform="scale(0.015625)"/>
       </defs>
       <use xlink:href="#DejaVuSans-31"/>
       <use xlink:href="#DejaVuSans-30" x="63.623047"/>
       <use xlink:href="#DejaVuSans-30" x="127.246094"/>
      </g>
     </g>
    </g>
    <g id="xtick_2">
     <g id="line2d_2">
      <g>
       <use xlink:href="#mabd5142862" x="139.989908" y="307.584" style="stroke: #000000; stroke-width: 0.8"/>
      </g>
     </g>
     <g id="text_2">
      <!-- 150 -->
      <g transform="translate(130.446158 322.182437) scale(0.1 -0.1)">
       <defs>
        <path id="DejaVuSans-35" d="M 691 4666 
L 3169 4666 
L 3169 4134 
L 1269 4134 
L 1269 2991 
Q 1406 3038 1543 3061 
Q 1681 3084 1819 3084 
Q 2600 3084 3056 2656 
Q 3513 2228 3513 1497 
Q 3513 744 3044 326 
Q 2575 -91 1722 -91 
Q 1428 -91 1123 -41 
Q 819 9 494 109 
L 494 744 
Q 775 591 1075 516 
Q 1375 441 1709 441 
Q 2250 441 2565 725 
Q 2881 1009 2881 1497 
Q 2881 1984 2565 2268 
Q 2250 2553 1709 2553 
Q 1456 2553 1204 2497 
Q 953 2441 691 2322 
L 691 4666 
z
" transform="scale(0.015625)"/>
       </defs>
       <use xlink:href="#DejaVuSans-31"/>
       <use xlink:href="#DejaVuSans-35" x="63.623047"/>
       <use xlink:href="#DejaVuSans-30" x="127.246094"/>
      </g>
     </g>
    </g>
    <g id="xtick_3">
     <g id="line2d_3">
      <g>
       <use xlink:href="#mabd5142862" x="181.53027" y="307.584" style="stroke: #000000; stroke-width: 0.8"/>
      </g>
     </g>
     <g id="text_3">
      <!-- 200 -->
      <g transform="translate(171.98652 322.182437) scale(0.1 -0.1)">
       <defs>
        <path id="DejaVuSans-32" d="M 1228 531 
L 3431 531 
L 3431 0 
L 469 0 
L 469 531 
Q 828 903 1448 1529 
Q 2069 2156 2228 2338 
Q 2531 2678 2651 2914 
Q 2772 3150 2772 3378 
Q 2772 3750 2511 3984 
Q 2250 4219 1831 4219 
Q 1534 4219 1204 4116 
Q 875 4013 500 3803 
L 500 4441 
Q 881 4594 1212 4672 
Q 1544 4750 1819 4750 
Q 2544 4750 2975 4387 
Q 3406 4025 3406 3419 
Q 3406 3131 3298 2873 
Q 3191 2616 2906 2266 
Q 2828 2175 2409 1742 
Q 1991 1309 1228 531 
z
" transform="scale(0.015625)"/>
       </defs>
       <use xlink:href="#DejaVuSans-32"/>
       <use xlink:href="#DejaVuSans-30" x="63.623047"/>
       <use xlink:href="#DejaVuSans-30" x="127.246094"/>
      </g>
     </g>
    </g>
    <g id="xtick_4">
     <g id="line2d_4">
      <g>
       <use xlink:href="#mabd5142862" x="223.070632" y="307.584" style="stroke: #000000; stroke-width: 0.8"/>
      </g>
     </g>
     <g id="text_4">
      <!-- 250 -->
      <g transform="translate(213.526882 322.182437) scale(0.1 -0.1)">
       <use xlink:href="#DejaVuSans-32"/>
       <use xlink:href="#DejaVuSans-35" x="63.623047"/>
       <use xlink:href="#DejaVuSans-30" x="127.246094"/>
      </g>
     </g>
    </g>
    <g id="xtick_5">
     <g id="line2d_5">
      <g>
       <use xlink:href="#mabd5142862" x="264.610994" y="307.584" style="stroke: #000000; stroke-width: 0.8"/>
      </g>
     </g>
     <g id="text_5">
      <!-- 300 -->
      <g transform="translate(255.067244 322.182437) scale(0.1 -0.1)">
       <defs>
        <path id="DejaVuSans-33" d="M 2597 2516 
Q 3050 2419 3304 2112 
Q 3559 1806 3559 1356 
Q 3559 666 3084 287 
Q 2609 -91 1734 -91 
Q 1441 -91 1130 -33 
Q 819 25 488 141 
L 488 750 
Q 750 597 1062 519 
Q 1375 441 1716 441 
Q 2309 441 2620 675 
Q 2931 909 2931 1356 
Q 2931 1769 2642 2001 
Q 2353 2234 1838 2234 
L 1294 2234 
L 1294 2753 
L 1863 2753 
Q 2328 2753 2575 2939 
Q 2822 3125 2822 3475 
Q 2822 3834 2567 4026 
Q 2313 4219 1838 4219 
Q 1578 4219 1281 4162 
Q 984 4106 628 3988 
L 628 4550 
Q 988 4650 1302 4700 
Q 1616 4750 1894 4750 
Q 2613 4750 3031 4423 
Q 3450 4097 3450 3541 
Q 3450 3153 3228 2886 
Q 3006 2619 2597 2516 
z
" transform="scale(0.015625)"/>
       </defs>
       <use xlink:href="#DejaVuSans-33"/>
       <use xlink:href="#DejaVuSans-30" x="63.623047"/>
       <use xlink:href="#DejaVuSans-30" x="127.246094"/>
      </g>
     </g>
    </g>
    <g id="xtick_6">
     <g id="line2d_6">
      <g>
       <use xlink:href="#mabd5142862" x="306.151356" y="307.584" style="stroke: #000000; stroke-width: 0.8"/>
      </g>
     </g>
     <g id="text_6">
      <!-- 350 -->
      <g transform="translate(296.607606 322.182437) scale(0.1 -0.1)">
       <use xlink:href="#DejaVuSans-33"/>
       <use xlink:href="#DejaVuSans-35" x="63.623047"/>
       <use xlink:href="#DejaVuSans-30" x="127.246094"/>
      </g>
     </g>
    </g>
    <g id="xtick_7">
     <g id="line2d_7">
      <g>
       <use xlink:href="#mabd5142862" x="347.691718" y="307.584" style="stroke: #000000; stroke-width: 0.8"/>
      </g>
     </g>
     <g id="text_7">
      <!-- 400 -->
      <g transform="translate(338.147968 322.182437) scale(0.1 -0.1)">
       <defs>
        <path id="DejaVuSans-34" d="M 2419 4116 
L 825 1625 
L 2419 1625 
L 2419 4116 
z
M 2253 4666 
L 3047 4666 
L 3047 1625 
L 3713 1625 
L 3713 1100 
L 3047 1100 
L 3047 0 
L 2419 0 
L 2419 1100 
L 313 1100 
L 313 1709 
L 2253 4666 
z
" transform="scale(0.015625)"/>
       </defs>
       <use xlink:href="#DejaVuSans-34"/>
       <use xlink:href="#DejaVuSans-30" x="63.623047"/>
       <use xlink:href="#DejaVuSans-30" x="127.246094"/>
      </g>
     </g>
    </g>
    <g id="xtick_8">
     <g id="line2d_8">
      <g>
       <use xlink:href="#mabd5142862" x="389.23208" y="307.584" style="stroke: #000000; stroke-width: 0.8"/>
      </g>
     </g>
     <g id="text_8">
      <!-- 450 -->
      <g transform="translate(379.68833 322.182437) scale(0.1 -0.1)">
       <use xlink:href="#DejaVuSans-34"/>
       <use xlink:href="#DejaVuSans-35" x="63.623047"/>
       <use xlink:href="#DejaVuSans-30" x="127.246094"/>
      </g>
     </g>
    </g>
    <g id="text_9">
     <!-- Score -->
     <g transform="translate(222.157656 335.860562) scale(0.1 -0.1)">
      <defs>
       <path id="DejaVuSans-53" d="M 3425 4513 
L 3425 3897 
Q 3066 4069 2747 4153 
Q 2428 4238 2131 4238 
Q 1616 4238 1336 4038 
Q 1056 3838 1056 3469 
Q 1056 3159 1242 3001 
Q 1428 2844 1947 2747 
L 2328 2669 
Q 3034 2534 3370 2195 
Q 3706 1856 3706 1288 
Q 3706 609 3251 259 
Q 2797 -91 1919 -91 
Q 1588 -91 1214 -16 
Q 841 59 441 206 
L 441 856 
Q 825 641 1194 531 
Q 1563 422 1919 422 
Q 2459 422 2753 634 
Q 3047 847 3047 1241 
Q 3047 1584 2836 1778 
Q 2625 1972 2144 2069 
L 1759 2144 
Q 1053 2284 737 2584 
Q 422 2884 422 3419 
Q 422 4038 858 4394 
Q 1294 4750 2059 4750 
Q 2388 4750 2728 4690 
Q 3069 4631 3425 4513 
z
" transform="scale(0.015625)"/>
       <path id="DejaVuSans-63" d="M 3122 3366 
L 3122 2828 
Q 2878 2963 2633 3030 
Q 2388 3097 2138 3097 
Q 1578 3097 1268 2742 
Q 959 2388 959 1747 
Q 959 1106 1268 751 
Q 1578 397 2138 397 
Q 2388 397 2633 464 
Q 2878 531 3122 666 
L 3122 134 
Q 2881 22 2623 -34 
Q 2366 -91 2075 -91 
Q 1284 -91 818 406 
Q 353 903 353 1747 
Q 353 2603 823 3093 
Q 1294 3584 2113 3584 
Q 2378 3584 2631 3529 
Q 2884 3475 3122 3366 
z
" transform="scale(0.015625)"/>
       <path id="DejaVuSans-6f" d="M 1959 3097 
Q 1497 3097 1228 2736 
Q 959 2375 959 1747 
Q 959 1119 1226 758 
Q 1494 397 1959 397 
Q 2419 397 2687 759 
Q 2956 1122 2956 1747 
Q 2956 2369 2687 2733 
Q 2419 3097 1959 3097 
z
M 1959 3584 
Q 2709 3584 3137 3096 
Q 3566 2609 3566 1747 
Q 3566 888 3137 398 
Q 2709 -91 1959 -91 
Q 1206 -91 779 398 
Q 353 888 353 1747 
Q 353 2609 779 3096 
Q 1206 3584 1959 3584 
z
" transform="scale(0.015625)"/>
       <path id="DejaVuSans-72" d="M 2631 2963 
Q 2534 3019 2420 3045 
Q 2306 3072 2169 3072 
Q 1681 3072 1420 2755 
Q 1159 2438 1159 1844 
L 1159 0 
L 581 0 
L 581 3500 
L 1159 3500 
L 1159 2956 
Q 1341 3275 1631 3429 
Q 1922 3584 2338 3584 
Q 2397 3584 2469 3576 
Q 2541 3569 2628 3553 
L 2631 2963 
z
" transform="scale(0.015625)"/>
       <path id="DejaVuSans-65" d="M 3597 1894 
L 3597 1613 
L 953 1613 
Q 991 1019 1311 708 
Q 1631 397 2203 397 
Q 2534 397 2845 478 
Q 3156 559 3463 722 
L 3463 178 
Q 3153 47 2828 -22 
Q 2503 -91 2169 -91 
Q 1331 -91 842 396 
Q 353 884 353 1716 
Q 353 2575 817 3079 
Q 1281 3584 2069 3584 
Q 2775 3584 3186 3129 
Q 3597 2675 3597 1894 
z
M 3022 2063 
Q 3016 2534 2758 2815 
Q 2500 3097 2075 3097 
Q 1594 3097 1305 2825 
Q 1016 2553 972 2059 
L 3022 2063 
z
" transform="scale(0.015625)"/>
      </defs>
      <use xlink:href="#DejaVuSans-53"/>
      <use xlink:href="#DejaVuSans-63" x="63.476562"/>
      <use xlink:href="#DejaVuSans-6f" x="118.457031"/>
      <use xlink:href="#DejaVuSans-72" x="179.638672"/>
      <use xlink:href="#DejaVuSans-65" x="218.501953"/>
     </g>
    </g>
   </g>
   <g id="matplotlib.axis_2">
    <g id="ytick_1">
     <g id="line2d_9">
      <defs>
       <path id="m42e3eb5b0b" d="M 0 0 
L -3.5 0 
" style="stroke: #000000; stroke-width: 0.8"/>
      </defs>
      <g>
       <use xlink:href="#m42e3eb5b0b" x="57.6" y="307.584" style="stroke: #000000; stroke-width: 0.8"/>
      </g>
     </g>
     <g id="text_10">
      <!-- 0 -->
      <g transform="translate(44.2375 311.383219) scale(0.1 -0.1)">
       <use xlink:href="#DejaVuSans-30"/>
      </g>
     </g>
    </g>
    <g id="ytick_2">
     <g id="line2d_10">
      <g>
       <use xlink:href="#m42e3eb5b0b" x="57.6" y="277.555564" style="stroke: #000000; stroke-width: 0.8"/>
      </g>
     </g>
     <g id="text_11">
      <!-- 25 -->
      <g transform="translate(37.875 281.354783) scale(0.1 -0.1)">
       <use xlink:href="#DejaVuSans-32"/>
       <use xlink:href="#DejaVuSans-35" x="63.623047"/>
      </g>
     </g>
    </g>
    <g id="ytick_3">
     <g id="line2d_11">
      <g>
       <use xlink:href="#m42e3eb5b0b" x="57.6" y="247.527128" style="stroke: #000000; stroke-width: 0.8"/>
      </g>
     </g>
     <g id="text_12">
      <!-- 50 -->
      <g transform="translate(37.875 251.326347) scale(0.1 -0.1)">
       <use xlink:href="#DejaVuSans-35"/>
       <use xlink:href="#DejaVuSans-30" x="63.623047"/>
      </g>
     </g>
    </g>
    <g id="ytick_4">
     <g id="line2d_12">
      <g>
       <use xlink:href="#m42e3eb5b0b" x="57.6" y="217.498692" style="stroke: #000000; stroke-width: 0.8"/>
      </g>
     </g>
     <g id="text_13">
      <!-- 75 -->
      <g transform="translate(37.875 221.297911) scale(0.1 -0.1)">
       <defs>
        <path id="DejaVuSans-37" d="M 525 4666 
L 3525 4666 
L 3525 4397 
L 1831 0 
L 1172 0 
L 2766 4134 
L 525 4134 
L 525 4666 
z
" transform="scale(0.015625)"/>
       </defs>
       <use xlink:href="#DejaVuSans-37"/>
       <use xlink:href="#DejaVuSans-35" x="63.623047"/>
      </g>
     </g>
    </g>
    <g id="ytick_5">
     <g id="line2d_13">
      <g>
       <use xlink:href="#m42e3eb5b0b" x="57.6" y="187.470256" style="stroke: #000000; stroke-width: 0.8"/>
      </g>
     </g>
     <g id="text_14">
      <!-- 100 -->
      <g transform="translate(31.5125 191.269475) scale(0.1 -0.1)">
       <use xlink:href="#DejaVuSans-31"/>
       <use xlink:href="#DejaVuSans-30" x="63.623047"/>
       <use xlink:href="#DejaVuSans-30" x="127.246094"/>
      </g>
     </g>
    </g>
    <g id="ytick_6">
     <g id="line2d_14">
      <g>
       <use xlink:href="#m42e3eb5b0b" x="57.6" y="157.44182" style="stroke: #000000; stroke-width: 0.8"/>
      </g>
     </g>
     <g id="text_15">
      <!-- 125 -->
      <g transform="translate(31.5125 161.241039) scale(0.1 -0.1)">
       <use xlink:href="#DejaVuSans-31"/>
       <use xlink:href="#DejaVuSans-32" x="63.623047"/>
       <use xlink:href="#DejaVuSans-35" x="127.246094"/>
      </g>
     </g>
    </g>
    <g id="ytick_7">
     <g id="line2d_15">
      <g>
       <use xlink:href="#m42e3eb5b0b" x="57.6" y="127.413384" style="stroke: #000000; stroke-width: 0.8"/>
      </g>
     </g>
     <g id="text_16">
      <!-- 150 -->
      <g transform="translate(31.5125 131.212603) scale(0.1 -0.1)">
       <use xlink:href="#DejaVuSans-31"/>
       <use xlink:href="#DejaVuSans-35" x="63.623047"/>
       <use xlink:href="#DejaVuSans-30" x="127.246094"/>
      </g>
     </g>
    </g>
    <g id="ytick_8">
     <g id="line2d_16">
      <g>
       <use xlink:href="#m42e3eb5b0b" x="57.6" y="97.384948" style="stroke: #000000; stroke-width: 0.8"/>
      </g>
     </g>
     <g id="text_17">
      <!-- 175 -->
      <g transform="translate(31.5125 101.184167) scale(0.1 -0.1)">
       <use xlink:href="#DejaVuSans-31"/>
       <use xlink:href="#DejaVuSans-37" x="63.623047"/>
       <use xlink:href="#DejaVuSans-35" x="127.246094"/>
      </g>
     </g>
    </g>
    <g id="ytick_9">
     <g id="line2d_17">
      <g>
       <use xlink:href="#m42e3eb5b0b" x="57.6" y="67.356512" style="stroke: #000000; stroke-width: 0.8"/>
      </g>
     </g>
     <g id="text_18">
      <!-- 200 -->
      <g transform="translate(31.5125 71.155731) scale(0.1 -0.1)">
       <use xlink:href="#DejaVuSans-32"/>
       <use xlink:href="#DejaVuSans-30" x="63.623047"/>
       <use xlink:href="#DejaVuSans-30" x="127.246094"/>
      </g>
     </g>
    </g>
    <g id="text_19">
     <!-- Number of crosslinks -->
     <g transform="translate(25.432812 227.019406) rotate(-90) scale(0.1 -0.1)">
      <defs>
       <path id="DejaVuSans-4e" d="M 628 4666 
L 1478 4666 
L 3547 763 
L 3547 4666 
L 4159 4666 
L 4159 0 
L 3309 0 
L 1241 3903 
L 1241 0 
L 628 0 
L 628 4666 
z
" transform="scale(0.015625)"/>
       <path id="DejaVuSans-75" d="M 544 1381 
L 544 3500 
L 1119 3500 
L 1119 1403 
Q 1119 906 1312 657 
Q 1506 409 1894 409 
Q 2359 409 2629 706 
Q 2900 1003 2900 1516 
L 2900 3500 
L 3475 3500 
L 3475 0 
L 2900 0 
L 2900 538 
Q 2691 219 2414 64 
Q 2138 -91 1772 -91 
Q 1169 -91 856 284 
Q 544 659 544 1381 
z
M 1991 3584 
L 1991 3584 
z
" transform="scale(0.015625)"/>
       <path id="DejaVuSans-6d" d="M 3328 2828 
Q 3544 3216 3844 3400 
Q 4144 3584 4550 3584 
Q 5097 3584 5394 3201 
Q 5691 2819 5691 2113 
L 5691 0 
L 5113 0 
L 5113 2094 
Q 5113 2597 4934 2840 
Q 4756 3084 4391 3084 
Q 3944 3084 3684 2787 
Q 3425 2491 3425 1978 
L 3425 0 
L 2847 0 
L 2847 2094 
Q 2847 2600 2669 2842 
Q 2491 3084 2119 3084 
Q 1678 3084 1418 2786 
Q 1159 2488 1159 1978 
L 1159 0 
L 581 0 
L 581 3500 
L 1159 3500 
L 1159 2956 
Q 1356 3278 1631 3431 
Q 1906 3584 2284 3584 
Q 2666 3584 2933 3390 
Q 3200 3197 3328 2828 
z
" transform="scale(0.015625)"/>
       <path id="DejaVuSans-62" d="M 3116 1747 
Q 3116 2381 2855 2742 
Q 2594 3103 2138 3103 
Q 1681 3103 1420 2742 
Q 1159 2381 1159 1747 
Q 1159 1113 1420 752 
Q 1681 391 2138 391 
Q 2594 391 2855 752 
Q 3116 1113 3116 1747 
z
M 1159 2969 
Q 1341 3281 1617 3432 
Q 1894 3584 2278 3584 
Q 2916 3584 3314 3078 
Q 3713 2572 3713 1747 
Q 3713 922 3314 415 
Q 2916 -91 2278 -91 
Q 1894 -91 1617 61 
Q 1341 213 1159 525 
L 1159 0 
L 581 0 
L 581 4863 
L 1159 4863 
L 1159 2969 
z
" transform="scale(0.015625)"/>
       <path id="DejaVuSans-20" transform="scale(0.015625)"/>
       <path id="DejaVuSans-66" d="M 2375 4863 
L 2375 4384 
L 1825 4384 
Q 1516 4384 1395 4259 
Q 1275 4134 1275 3809 
L 1275 3500 
L 2222 3500 
L 2222 3053 
L 1275 3053 
L 1275 0 
L 697 0 
L 697 3053 
L 147 3053 
L 147 3500 
L 697 3500 
L 697 3744 
Q 697 4328 969 4595 
Q 1241 4863 1831 4863 
L 2375 4863 
z
" transform="scale(0.015625)"/>
       <path id="DejaVuSans-73" d="M 2834 3397 
L 2834 2853 
Q 2591 2978 2328 3040 
Q 2066 3103 1784 3103 
Q 1356 3103 1142 2972 
Q 928 2841 928 2578 
Q 928 2378 1081 2264 
Q 1234 2150 1697 2047 
L 1894 2003 
Q 2506 1872 2764 1633 
Q 3022 1394 3022 966 
Q 3022 478 2636 193 
Q 2250 -91 1575 -91 
Q 1294 -91 989 -36 
Q 684 19 347 128 
L 347 722 
Q 666 556 975 473 
Q 1284 391 1588 391 
Q 1994 391 2212 530 
Q 2431 669 2431 922 
Q 2431 1156 2273 1281 
Q 2116 1406 1581 1522 
L 1381 1569 
Q 847 1681 609 1914 
Q 372 2147 372 2553 
Q 372 3047 722 3315 
Q 1072 3584 1716 3584 
Q 2034 3584 2315 3537 
Q 2597 3491 2834 3397 
z
" transform="scale(0.015625)"/>
       <path id="DejaVuSans-6c" d="M 603 4863 
L 1178 4863 
L 1178 0 
L 603 0 
L 603 4863 
z
" transform="scale(0.015625)"/>
       <path id="DejaVuSans-69" d="M 603 3500 
L 1178 3500 
L 1178 0 
L 603 0 
L 603 3500 
z
M 603 4863 
L 1178 4863 
L 1178 4134 
L 603 4134 
L 603 4863 
z
" transform="scale(0.015625)"/>
       <path id="DejaVuSans-6e" d="M 3513 2113 
L 3513 0 
L 2938 0 
L 2938 2094 
Q 2938 2591 2744 2837 
Q 2550 3084 2163 3084 
Q 1697 3084 1428 2787 
Q 1159 2491 1159 1978 
L 1159 0 
L 581 0 
L 581 3500 
L 1159 3500 
L 1159 2956 
Q 1366 3272 1645 3428 
Q 1925 3584 2291 3584 
Q 2894 3584 3203 3211 
Q 3513 2838 3513 2113 
z
" transform="scale(0.015625)"/>
       <path id="DejaVuSans-6b" d="M 581 4863 
L 1159 4863 
L 1159 1991 
L 2875 3500 
L 3609 3500 
L 1753 1863 
L 3688 0 
L 2938 0 
L 1159 1709 
L 1159 0 
L 581 0 
L 581 4863 
z
" transform="scale(0.015625)"/>
      </defs>
      <use xlink:href="#DejaVuSans-4e"/>
      <use xlink:href="#DejaVuSans-75" x="74.804688"/>
      <use xlink:href="#DejaVuSans-6d" x="138.183594"/>
      <use xlink:href="#DejaVuSans-62" x="235.595703"/>
      <use xlink:href="#DejaVuSans-65" x="299.072266"/>
      <use xlink:href="#DejaVuSans-72" x="360.595703"/>
      <use xlink:href="#DejaVuSans-20" x="401.708984"/>
      <use xlink:href="#DejaVuSans-6f" x="433.496094"/>
      <use xlink:href="#DejaVuSans-66" x="494.677734"/>
      <use xlink:href="#DejaVuSans-20" x="529.882812"/>
      <use xlink:href="#DejaVuSans-63" x="561.669922"/>
      <use xlink:href="#DejaVuSans-72" x="616.650391"/>
      <use xlink:href="#DejaVuSans-6f" x="655.513672"/>
      <use xlink:href="#DejaVuSans-73" x="716.695312"/>
      <use xlink:href="#DejaVuSans-73" x="768.794922"/>
      <use xlink:href="#DejaVuSans-6c" x="820.894531"/>
      <use xlink:href="#DejaVuSans-69" x="848.677734"/>
      <use xlink:href="#DejaVuSans-6e" x="876.460938"/>
      <use xlink:href="#DejaVuSans-6b" x="939.839844"/>
      <use xlink:href="#DejaVuSans-73" x="997.75"/>
     </g>
    </g>
   </g>
   <g id="patch_3">
    <path d="M 57.6 307.584 
L 57.6 41.472 
" style="fill: none; stroke: #000000; stroke-width: 0.8; stroke-linejoin: miter; stroke-linecap: square"/>
   </g>
   <g id="patch_4">
    <path d="M 414.72 307.584 
L 414.72 41.472 
" style="fill: none; stroke: #000000; stroke-width: 0.8; stroke-linejoin: miter; stroke-linecap: square"/>
   </g>
   <g id="patch_5">
    <path d="M 57.6 307.584 
L 414.72 307.584 
" style="fill: none; stroke: #000000; stroke-width: 0.8; stroke-linejoin: miter; stroke-linecap: square"/>
   </g>
   <g id="patch_6">
    <path d="M 57.6 41.472 
L 414.72 41.472 
" style="fill: none; stroke: #000000; stroke-width: 0.8; stroke-linejoin: miter; stroke-linecap: square"/>
   </g>
   <g id="legend_1">
    <g id="patch_7">
     <path d="M 293.087188 93.506375 
L 407.72 93.506375 
Q 409.72 93.506375 409.72 91.506375 
L 409.72 48.472 
Q 409.72 46.472 407.72 46.472 
L 293.087188 46.472 
Q 291.087188 46.472 291.087188 48.472 
L 291.087188 91.506375 
Q 291.087188 93.506375 293.087188 93.506375 
z
" style="fill: #ffffff; opacity: 0.8; stroke: #cccccc; stroke-linejoin: miter"/>
    </g>
    <g id="patch_8">
     <path d="M 295.087188 58.070438 
L 315.087188 58.070438 
L 315.087188 51.070438 
L 295.087188 51.070438 
z
" style="fill: #008000"/>
    </g>
    <g id="text_20">
     <!-- true -->
     <g transform="translate(323.087188 58.070438) scale(0.1 -0.1)">
      <defs>
       <path id="DejaVuSans-74" d="M 1172 4494 
L 1172 3500 
L 2356 3500 
L 2356 3053 
L 1172 3053 
L 1172 1153 
Q 1172 725 1289 603 
Q 1406 481 1766 481 
L 2356 481 
L 2356 0 
L 1766 0 
Q 1100 0 847 248 
Q 594 497 594 1153 
L 594 3053 
L 172 3053 
L 172 3500 
L 594 3500 
L 594 4494 
L 1172 4494 
z
" transform="scale(0.015625)"/>
      </defs>
      <use xlink:href="#DejaVuSans-74"/>
      <use xlink:href="#DejaVuSans-72" x="39.208984"/>
      <use xlink:href="#DejaVuSans-75" x="80.322266"/>
      <use xlink:href="#DejaVuSans-65" x="143.701172"/>
     </g>
    </g>
    <g id="patch_9">
     <path d="M 295.087188 72.748563 
L 315.087188 72.748563 
L 315.087188 65.748563 
L 295.087188 65.748563 
z
" style="fill: #7cfc00"/>
    </g>
    <g id="text_21">
     <!-- true homeotypic -->
     <g transform="translate(323.087188 72.748563) scale(0.1 -0.1)">
      <defs>
       <path id="DejaVuSans-68" d="M 3513 2113 
L 3513 0 
L 2938 0 
L 2938 2094 
Q 2938 2591 2744 2837 
Q 2550 3084 2163 3084 
Q 1697 3084 1428 2787 
Q 1159 2491 1159 1978 
L 1159 0 
L 581 0 
L 581 4863 
L 1159 4863 
L 1159 2956 
Q 1366 3272 1645 3428 
Q 1925 3584 2291 3584 
Q 2894 3584 3203 3211 
Q 3513 2838 3513 2113 
z
" transform="scale(0.015625)"/>
       <path id="DejaVuSans-79" d="M 2059 -325 
Q 1816 -950 1584 -1140 
Q 1353 -1331 966 -1331 
L 506 -1331 
L 506 -850 
L 844 -850 
Q 1081 -850 1212 -737 
Q 1344 -625 1503 -206 
L 1606 56 
L 191 3500 
L 800 3500 
L 1894 763 
L 2988 3500 
L 3597 3500 
L 2059 -325 
z
" transform="scale(0.015625)"/>
       <path id="DejaVuSans-70" d="M 1159 525 
L 1159 -1331 
L 581 -1331 
L 581 3500 
L 1159 3500 
L 1159 2969 
Q 1341 3281 1617 3432 
Q 1894 3584 2278 3584 
Q 2916 3584 3314 3078 
Q 3713 2572 3713 1747 
Q 3713 922 3314 415 
Q 2916 -91 2278 -91 
Q 1894 -91 1617 61 
Q 1341 213 1159 525 
z
M 3116 1747 
Q 3116 2381 2855 2742 
Q 2594 3103 2138 3103 
Q 1681 3103 1420 2742 
Q 1159 2381 1159 1747 
Q 1159 1113 1420 752 
Q 1681 391 2138 391 
Q 2594 391 2855 752 
Q 3116 1113 3116 1747 
z
" transform="scale(0.015625)"/>
      </defs>
      <use xlink:href="#DejaVuSans-74"/>
      <use xlink:href="#DejaVuSans-72" x="39.208984"/>
      <use xlink:href="#DejaVuSans-75" x="80.322266"/>
      <use xlink:href="#DejaVuSans-65" x="143.701172"/>
      <use xlink:href="#DejaVuSans-20" x="205.224609"/>
      <use xlink:href="#DejaVuSans-68" x="237.011719"/>
      <use xlink:href="#DejaVuSans-6f" x="300.390625"/>
      <use xlink:href="#DejaVuSans-6d" x="361.572266"/>
      <use xlink:href="#DejaVuSans-65" x="458.984375"/>
      <use xlink:href="#DejaVuSans-6f" x="520.507812"/>
      <use xlink:href="#DejaVuSans-74" x="581.689453"/>
      <use xlink:href="#DejaVuSans-79" x="620.898438"/>
      <use xlink:href="#DejaVuSans-70" x="680.078125"/>
      <use xlink:href="#DejaVuSans-69" x="743.554688"/>
      <use xlink:href="#DejaVuSans-63" x="771.337891"/>
     </g>
    </g>
    <g id="patch_10">
     <path d="M 295.087188 87.426688 
L 315.087188 87.426688 
L 315.087188 80.426688 
L 295.087188 80.426688 
z
" style="fill: #ff0000"/>
    </g>
    <g id="text_22">
     <!-- false -->
     <g transform="translate(323.087188 87.426688) scale(0.1 -0.1)">
      <defs>
       <path id="DejaVuSans-61" d="M 2194 1759 
Q 1497 1759 1228 1600 
Q 959 1441 959 1056 
Q 959 750 1161 570 
Q 1363 391 1709 391 
Q 2188 391 2477 730 
Q 2766 1069 2766 1631 
L 2766 1759 
L 2194 1759 
z
M 3341 1997 
L 3341 0 
L 2766 0 
L 2766 531 
Q 2569 213 2275 61 
Q 1981 -91 1556 -91 
Q 1019 -91 701 211 
Q 384 513 384 1019 
Q 384 1609 779 1909 
Q 1175 2209 1959 2209 
L 2766 2209 
L 2766 2266 
Q 2766 2663 2505 2880 
Q 2244 3097 1772 3097 
Q 1472 3097 1187 3025 
Q 903 2953 641 2809 
L 641 3341 
Q 956 3463 1253 3523 
Q 1550 3584 1831 3584 
Q 2591 3584 2966 3190 
Q 3341 2797 3341 1997 
z
" transform="scale(0.015625)"/>
      </defs>
      <use xlink:href="#DejaVuSans-66"/>
      <use xlink:href="#DejaVuSans-61" x="35.205078"/>
      <use xlink:href="#DejaVuSans-6c" x="96.484375"/>
      <use xlink:href="#DejaVuSans-73" x="124.267578"/>
      <use xlink:href="#DejaVuSans-65" x="176.367188"/>
     </g>
    </g>
   </g>
  </g>
 </g>
 <defs>
  <clipPath id="p53b344699c">
   <rect x="57.6" y="41.472" width="357.12" height="266.112"/>
  </clipPath>
 </defs>
</svg>
