<?xml version="1.0" encoding="utf-8" standalone="no"?>
<!DOCTYPE svg PUBLIC "-//W3C//DTD SVG 1.1//EN"
  "http://www.w3.org/Graphics/SVG/1.1/DTD/svg11.dtd">
<svg xmlns:xlink="http://www.w3.org/1999/xlink" width="460.8pt" height="345.6pt" viewBox="0 0 460.8 345.6" xmlns="http://www.w3.org/2000/svg" version="1.1">
 <metadata>
  <rdf:RDF xmlns:dc="http://purl.org/dc/elements/1.1/" xmlns:cc="http://creativecommons.org/ns#" xmlns:rdf="http://www.w3.org/1999/02/22-rdf-syntax-ns#">
   <cc:Work>
    <dc:type rdf:resource="http://purl.org/dc/dcmitype/StillImage"/>
    <dc:date>2024-07-03T14:22:01.910636</dc:date>
    <dc:format>image/svg+xml</dc:format>
    <dc:creator>
     <cc:Agent>
      <dc:title>Matplotlib v3.9.0, https://matplotlib.org/</dc:title>
     </cc:Agent>
    </dc:creator>
   </cc:Work>
  </rdf:RDF>
 </metadata>
 <defs>
  <style type="text/css">*{stroke-linejoin: round; stroke-linecap: butt}</style>
 </defs>
 <g id="figure_1">
  <g id="patch_1">
   <path d="M 0 345.6 
L 460.8 345.6 
L 460.8 0 
L 0 0 
z
" style="fill: #ffffff"/>
  </g>
  <g id="axes_1">
   <g id="patch_2">
    <path d="M 57.6 307.584 
L 414.72 307.584 
L 414.72 41.472 
L 57.6 41.472 
z
" style="fill: #ffffff"/>
   </g>
   <g id="PolyCollection_1">
    <path d="M 73.832727 128.969143 
L 73.832727 307.584 
L 77.127057 307.584 
L 81.608301 307.584 
L 90.613485 307.584 
L 92.416912 307.584 
L 96.590754 307.584 
L 111.726909 307.584 
L 115.54553 307.584 
L 118.710068 307.584 
L 124.706123 307.584 
L 128.661368 307.584 
L 131.322106 307.584 
L 132.251145 307.584 
L 134.819663 307.584 
L 137.36598 307.584 
L 144.588229 307.584 
L 144.813658 307.584 
L 145.551424 307.584 
L 146.856176 307.584 
L 152.978608 307.584 
L 153.615614 307.584 
L 157.041444 307.584 
L 161.394604 307.584 
L 165.94416 307.584 
L 166.102984 307.584 
L 168.072068 307.584 
L 170.811365 307.584 
L 171.108521 307.584 
L 173.936623 307.584 
L 174.638525 307.584 
L 175.012532 307.584 
L 178.030199 307.584 
L 180.771204 307.584 
L 181.278418 307.584 
L 181.860775 307.584 
L 182.590002 307.584 
L 185.810896 307.584 
L 186.661376 307.584 
L 188.097629 307.584 
L 188.345259 307.584 
L 189.837868 307.584 
L 190.698595 307.584 
L 194.288372 307.584 
L 196.303566 307.584 
L 196.735637 307.584 
L 199.174363 307.584 
L 200.967544 307.584 
L 202.040037 307.584 
L 202.244972 307.584 
L 203.320881 307.584 
L 203.474582 307.584 
L 204.191854 307.584 
L 206.565684 307.584 
L 206.821853 307.584 
L 209.110293 307.584 
L 209.844644 307.584 
L 210.032501 307.584 
L 212.884512 307.584 
L 214.609381 307.584 
L 215.992692 307.584 
L 218.759314 307.584 
L 219.698599 307.584 
L 220.381716 307.584 
L 221.952884 307.584 
L 229.75749 307.584 
L 231.226191 307.584 
L 234.727163 307.584 
L 235.341968 307.584 
L 235.888461 307.584 
L 236.195864 307.584 
L 239.474823 307.584 
L 239.713914 307.584 
L 239.799303 307.584 
L 243.488133 307.584 
L 245.400859 307.584 
L 251.9417 307.584 
L 258.636242 307.584 
L 259.216891 307.584 
L 259.968319 307.584 
L 260.087864 307.584 
L 262.290915 307.584 
L 263.076499 307.584 
L 266.987341 307.584 
L 268.268185 307.584 
L 270.385846 307.584 
L 274.108831 307.584 
L 275.8337 307.584 
L 278.480777 307.584 
L 283.979865 307.584 
L 285.568111 307.584 
L 287.395447 307.584 
L 289.974212 307.584 
L 301.109012 307.584 
L 301.177323 307.584 
L 336.562759 307.584 
L 348.107429 307.584 
L 353.589439 307.584 
L 371.487092 307.584 
L 398.487273 307.584 
L 398.487273 305.170286 
L 398.487273 305.170286 
L 371.487092 302.756571 
L 353.589439 300.342857 
L 348.107429 297.929143 
L 336.562759 297.929143 
L 301.177323 295.515429 
L 301.109012 293.101714 
L 289.974212 290.688 
L 287.395447 288.274286 
L 285.568111 285.860571 
L 283.979865 283.446857 
L 278.480777 281.033143 
L 275.8337 278.619429 
L 274.108831 278.619429 
L 270.385846 276.205714 
L 268.268185 273.792 
L 266.987341 271.378286 
L 263.076499 271.378286 
L 262.290915 268.964571 
L 260.087864 268.964571 
L 259.968319 268.964571 
L 259.216891 266.550857 
L 258.636242 264.137143 
L 251.9417 264.137143 
L 245.400859 264.137143 
L 243.488133 264.137143 
L 239.799303 261.723429 
L 239.713914 259.309714 
L 239.474823 256.896 
L 236.195864 254.482286 
L 235.888461 252.068571 
L 235.341968 249.654857 
L 234.727163 247.241143 
L 231.226191 244.827429 
L 229.75749 242.413714 
L 221.952884 240 
L 220.381716 237.586286 
L 219.698599 235.172571 
L 218.759314 232.758857 
L 215.992692 230.345143 
L 214.609381 227.931429 
L 212.884512 227.931429 
L 210.032501 225.517714 
L 209.844644 225.517714 
L 209.110293 223.104 
L 206.821853 223.104 
L 206.565684 220.690286 
L 204.191854 215.862857 
L 203.474582 215.862857 
L 203.320881 213.449143 
L 202.244972 211.035429 
L 202.040037 208.621714 
L 200.967544 206.208 
L 199.174363 203.794286 
L 196.735637 203.794286 
L 196.303566 201.380571 
L 194.288372 198.966857 
L 190.698595 194.139429 
L 189.837868 191.725714 
L 188.345259 189.312 
L 188.097629 186.898286 
L 186.661376 186.898286 
L 185.810896 186.898286 
L 182.590002 184.484571 
L 181.860775 184.484571 
L 181.278418 182.070857 
L 180.771204 179.657143 
L 178.030199 177.243429 
L 175.012532 177.243429 
L 174.638525 174.829714 
L 173.936623 172.416 
L 171.108521 170.002286 
L 170.811365 167.588571 
L 168.072068 165.174857 
L 166.102984 165.174857 
L 165.94416 162.761143 
L 161.394604 162.761143 
L 157.041444 160.347429 
L 153.615614 155.52 
L 152.978608 153.106286 
L 146.856176 150.692571 
L 145.551424 148.278857 
L 144.813658 148.278857 
L 144.588229 145.865143 
L 137.36598 145.865143 
L 134.819663 143.451429 
L 132.251145 141.037714 
L 131.322106 141.037714 
L 128.661368 138.624 
L 124.706123 138.624 
L 118.710068 136.210286 
L 115.54553 133.796571 
L 111.726909 131.382857 
L 96.590754 131.382857 
L 92.416912 131.382857 
L 90.613485 131.382857 
L 81.608301 128.969143 
L 77.127057 128.969143 
L 73.832727 128.969143 
z
" clip-path="url(#p93a9390368)" style="fill: #008000"/>
   </g>
   <g id="PolyCollection_2">
    <path d="M 73.832727 83.108571 
L 73.832727 128.969143 
L 77.127057 128.969143 
L 81.608301 128.969143 
L 90.613485 131.382857 
L 92.416912 131.382857 
L 96.590754 131.382857 
L 111.726909 131.382857 
L 115.54553 133.796571 
L 118.710068 136.210286 
L 124.706123 138.624 
L 128.661368 138.624 
L 131.322106 141.037714 
L 132.251145 141.037714 
L 134.819663 143.451429 
L 137.36598 145.865143 
L 144.588229 145.865143 
L 144.813658 148.278857 
L 145.551424 148.278857 
L 146.856176 150.692571 
L 152.978608 153.106286 
L 153.615614 155.52 
L 157.041444 160.347429 
L 161.394604 162.761143 
L 165.94416 162.761143 
L 166.102984 165.174857 
L 168.072068 165.174857 
L 170.811365 167.588571 
L 171.108521 170.002286 
L 173.936623 172.416 
L 174.638525 174.829714 
L 175.012532 177.243429 
L 178.030199 177.243429 
L 180.771204 179.657143 
L 181.278418 182.070857 
L 181.860775 184.484571 
L 182.590002 184.484571 
L 185.810896 186.898286 
L 186.661376 186.898286 
L 188.097629 186.898286 
L 188.345259 189.312 
L 189.837868 191.725714 
L 190.698595 194.139429 
L 194.288372 198.966857 
L 196.303566 201.380571 
L 196.735637 203.794286 
L 199.174363 203.794286 
L 200.967544 206.208 
L 202.040037 208.621714 
L 202.244972 211.035429 
L 203.320881 213.449143 
L 203.474582 215.862857 
L 204.191854 215.862857 
L 206.565684 220.690286 
L 206.821853 223.104 
L 209.110293 223.104 
L 209.844644 225.517714 
L 210.032501 225.517714 
L 212.884512 227.931429 
L 214.609381 227.931429 
L 215.992692 230.345143 
L 218.759314 232.758857 
L 219.698599 235.172571 
L 220.381716 237.586286 
L 221.952884 240 
L 229.75749 242.413714 
L 231.226191 244.827429 
L 234.727163 247.241143 
L 235.341968 249.654857 
L 235.888461 252.068571 
L 236.195864 254.482286 
L 239.474823 256.896 
L 239.713914 259.309714 
L 239.799303 261.723429 
L 243.488133 264.137143 
L 245.400859 264.137143 
L 251.9417 264.137143 
L 258.636242 264.137143 
L 259.216891 266.550857 
L 259.968319 268.964571 
L 260.087864 268.964571 
L 262.290915 268.964571 
L 263.076499 271.378286 
L 266.987341 271.378286 
L 268.268185 273.792 
L 270.385846 276.205714 
L 274.108831 278.619429 
L 275.8337 278.619429 
L 278.480777 281.033143 
L 283.979865 283.446857 
L 285.568111 285.860571 
L 287.395447 288.274286 
L 289.974212 290.688 
L 301.109012 293.101714 
L 301.177323 295.515429 
L 336.562759 297.929143 
L 348.107429 297.929143 
L 353.589439 300.342857 
L 371.487092 302.756571 
L 398.487273 305.170286 
L 398.487273 305.170286 
L 398.487273 305.170286 
L 371.487092 302.756571 
L 353.589439 300.342857 
L 348.107429 297.929143 
L 336.562759 295.515429 
L 301.177323 293.101714 
L 301.109012 290.688 
L 289.974212 288.274286 
L 287.395447 285.860571 
L 285.568111 283.446857 
L 283.979865 281.033143 
L 278.480777 278.619429 
L 275.8337 276.205714 
L 274.108831 273.792 
L 270.385846 271.378286 
L 268.268185 268.964571 
L 266.987341 266.550857 
L 263.076499 264.137143 
L 262.290915 261.723429 
L 260.087864 261.723429 
L 259.968319 259.309714 
L 259.216891 256.896 
L 258.636242 254.482286 
L 251.9417 254.482286 
L 245.400859 252.068571 
L 243.488133 249.654857 
L 239.799303 247.241143 
L 239.713914 244.827429 
L 239.474823 242.413714 
L 236.195864 240 
L 235.888461 237.586286 
L 235.341968 235.172571 
L 234.727163 232.758857 
L 231.226191 230.345143 
L 229.75749 227.931429 
L 221.952884 225.517714 
L 220.381716 223.104 
L 219.698599 220.690286 
L 218.759314 218.276571 
L 215.992692 215.862857 
L 214.609381 213.449143 
L 212.884512 211.035429 
L 210.032501 208.621714 
L 209.844644 206.208 
L 209.110293 203.794286 
L 206.821853 201.380571 
L 206.565684 198.966857 
L 204.191854 194.139429 
L 203.474582 189.312 
L 203.320881 186.898286 
L 202.244972 184.484571 
L 202.040037 182.070857 
L 200.967544 179.657143 
L 199.174363 177.243429 
L 196.735637 177.243429 
L 196.303566 174.829714 
L 194.288372 172.416 
L 190.698595 167.588571 
L 189.837868 165.174857 
L 188.345259 162.761143 
L 188.097629 160.347429 
L 186.661376 160.347429 
L 185.810896 155.52 
L 182.590002 153.106286 
L 181.860775 150.692571 
L 181.278418 148.278857 
L 180.771204 145.865143 
L 178.030199 143.451429 
L 175.012532 143.451429 
L 174.638525 141.037714 
L 173.936623 138.624 
L 171.108521 136.210286 
L 170.811365 133.796571 
L 168.072068 131.382857 
L 166.102984 131.382857 
L 165.94416 128.969143 
L 161.394604 126.555429 
L 157.041444 124.141714 
L 153.615614 119.314286 
L 152.978608 116.900571 
L 146.856176 114.486857 
L 145.551424 112.073143 
L 144.813658 109.659429 
L 144.588229 107.245714 
L 137.36598 107.245714 
L 134.819663 104.832 
L 132.251145 102.418286 
L 131.322106 100.004571 
L 128.661368 97.590857 
L 124.706123 95.177143 
L 118.710068 92.763429 
L 115.54553 90.349714 
L 111.726909 87.936 
L 96.590754 85.522286 
L 92.416912 85.522286 
L 90.613485 85.522286 
L 81.608301 83.108571 
L 77.127057 83.108571 
L 73.832727 83.108571 
z
" clip-path="url(#p93a9390368)" style="fill: #7cfc00"/>
   </g>
   <g id="PolyCollection_3">
    <path d="M 73.832727 54.144 
L 73.832727 83.108571 
L 77.127057 83.108571 
L 81.608301 83.108571 
L 90.613485 85.522286 
L 92.416912 85.522286 
L 96.590754 85.522286 
L 111.726909 87.936 
L 115.54553 90.349714 
L 118.710068 92.763429 
L 124.706123 95.177143 
L 128.661368 97.590857 
L 131.322106 100.004571 
L 132.251145 102.418286 
L 134.819663 104.832 
L 137.36598 107.245714 
L 144.588229 107.245714 
L 144.813658 109.659429 
L 145.551424 112.073143 
L 146.856176 114.486857 
L 152.978608 116.900571 
L 153.615614 119.314286 
L 157.041444 124.141714 
L 161.394604 126.555429 
L 165.94416 128.969143 
L 166.102984 131.382857 
L 168.072068 131.382857 
L 170.811365 133.796571 
L 171.108521 136.210286 
L 173.936623 138.624 
L 174.638525 141.037714 
L 175.012532 143.451429 
L 178.030199 143.451429 
L 180.771204 145.865143 
L 181.278418 148.278857 
L 181.860775 150.692571 
L 182.590002 153.106286 
L 185.810896 155.52 
L 186.661376 160.347429 
L 188.097629 160.347429 
L 188.345259 162.761143 
L 189.837868 165.174857 
L 190.698595 167.588571 
L 194.288372 172.416 
L 196.303566 174.829714 
L 196.735637 177.243429 
L 199.174363 177.243429 
L 200.967544 179.657143 
L 202.040037 182.070857 
L 202.244972 184.484571 
L 203.320881 186.898286 
L 203.474582 189.312 
L 204.191854 194.139429 
L 206.565684 198.966857 
L 206.821853 201.380571 
L 209.110293 203.794286 
L 209.844644 206.208 
L 210.032501 208.621714 
L 212.884512 211.035429 
L 214.609381 213.449143 
L 215.992692 215.862857 
L 218.759314 218.276571 
L 219.698599 220.690286 
L 220.381716 223.104 
L 221.952884 225.517714 
L 229.75749 227.931429 
L 231.226191 230.345143 
L 234.727163 232.758857 
L 235.341968 235.172571 
L 235.888461 237.586286 
L 236.195864 240 
L 239.474823 242.413714 
L 239.713914 244.827429 
L 239.799303 247.241143 
L 243.488133 249.654857 
L 245.400859 252.068571 
L 251.9417 254.482286 
L 258.636242 254.482286 
L 259.216891 256.896 
L 259.968319 259.309714 
L 260.087864 261.723429 
L 262.290915 261.723429 
L 263.076499 264.137143 
L 266.987341 266.550857 
L 268.268185 268.964571 
L 270.385846 271.378286 
L 274.108831 273.792 
L 275.8337 276.205714 
L 278.480777 278.619429 
L 283.979865 281.033143 
L 285.568111 283.446857 
L 287.395447 285.860571 
L 289.974212 288.274286 
L 301.109012 290.688 
L 301.177323 293.101714 
L 336.562759 295.515429 
L 348.107429 297.929143 
L 353.589439 300.342857 
L 371.487092 302.756571 
L 398.487273 305.170286 
L 398.487273 305.170286 
L 398.487273 305.170286 
L 371.487092 302.756571 
L 353.589439 300.342857 
L 348.107429 297.929143 
L 336.562759 295.515429 
L 301.177323 293.101714 
L 301.109012 290.688 
L 289.974212 288.274286 
L 287.395447 285.860571 
L 285.568111 283.446857 
L 283.979865 281.033143 
L 278.480777 278.619429 
L 275.8337 276.205714 
L 274.108831 273.792 
L 270.385846 271.378286 
L 268.268185 268.964571 
L 266.987341 266.550857 
L 263.076499 264.137143 
L 262.290915 261.723429 
L 260.087864 259.309714 
L 259.968319 256.896 
L 259.216891 254.482286 
L 258.636242 252.068571 
L 251.9417 249.654857 
L 245.400859 247.241143 
L 243.488133 244.827429 
L 239.799303 242.413714 
L 239.713914 240 
L 239.474823 237.586286 
L 236.195864 235.172571 
L 235.888461 232.758857 
L 235.341968 230.345143 
L 234.727163 227.931429 
L 231.226191 225.517714 
L 229.75749 223.104 
L 221.952884 220.690286 
L 220.381716 218.276571 
L 219.698599 215.862857 
L 218.759314 211.035429 
L 215.992692 208.621714 
L 214.609381 206.208 
L 212.884512 203.794286 
L 210.032501 201.380571 
L 209.844644 198.966857 
L 209.110293 196.553143 
L 206.821853 194.139429 
L 206.565684 191.725714 
L 204.191854 186.898286 
L 203.474582 182.070857 
L 203.320881 179.657143 
L 202.244972 177.243429 
L 202.040037 174.829714 
L 200.967544 172.416 
L 199.174363 170.002286 
L 196.735637 167.588571 
L 196.303566 165.174857 
L 194.288372 162.761143 
L 190.698595 157.933714 
L 189.837868 155.52 
L 188.345259 153.106286 
L 188.097629 150.692571 
L 186.661376 148.278857 
L 185.810896 143.451429 
L 182.590002 141.037714 
L 181.860775 138.624 
L 181.278418 136.210286 
L 180.771204 133.796571 
L 178.030199 131.382857 
L 175.012532 128.969143 
L 174.638525 126.555429 
L 173.936623 124.141714 
L 171.108521 121.728 
L 170.811365 119.314286 
L 168.072068 116.900571 
L 166.102984 114.486857 
L 165.94416 112.073143 
L 161.394604 109.659429 
L 157.041444 107.245714 
L 153.615614 102.418286 
L 152.978608 100.004571 
L 146.856176 97.590857 
L 145.551424 95.177143 
L 144.813658 92.763429 
L 144.588229 90.349714 
L 137.36598 87.936 
L 134.819663 85.522286 
L 132.251145 83.108571 
L 131.322106 80.694857 
L 128.661368 78.281143 
L 124.706123 75.867429 
L 118.710068 73.453714 
L 115.54553 71.04 
L 111.726909 68.626286 
L 96.590754 66.212571 
L 92.416912 63.798857 
L 90.613485 61.385143 
L 81.608301 58.971429 
L 77.127057 56.557714 
L 73.832727 54.144 
z
" clip-path="url(#p93a9390368)" style="fill: #ff0000"/>
   </g>
   <g id="matplotlib.axis_1">
    <g id="xtick_1">
     <g id="line2d_1">
      <defs>
       <path id="mae58d9ccd4" d="M 0 0 
L 0 3.5 
" style="stroke: #000000; stroke-width: 0.8"/>
      </defs>
      <g>
       <use xlink:href="#mae58d9ccd4" x="73.836143" y="307.584" style="stroke: #000000; stroke-width: 0.8"/>
      </g>
     </g>
     <g id="text_1">
      <!-- 25 -->
      <g transform="translate(67.473643 322.182437) scale(0.1 -0.1)">
       <defs>
        <path id="DejaVuSans-32" d="M 1228 531 
L 3431 531 
L 3431 0 
L 469 0 
L 469 531 
Q 828 903 1448 1529 
Q 2069 2156 2228 2338 
Q 2531 2678 2651 2914 
Q 2772 3150 2772 3378 
Q 2772 3750 2511 3984 
Q 2250 4219 1831 4219 
Q 1534 4219 1204 4116 
Q 875 4013 500 3803 
L 500 4441 
Q 881 4594 1212 4672 
Q 1544 4750 1819 4750 
Q 2544 4750 2975 4387 
Q 3406 4025 3406 3419 
Q 3406 3131 3298 2873 
Q 3191 2616 2906 2266 
Q 2828 2175 2409 1742 
Q 1991 1309 1228 531 
z
" transform="scale(0.015625)"/>
        <path id="DejaVuSans-35" d="M 691 4666 
L 3169 4666 
L 3169 4134 
L 1269 4134 
L 1269 2991 
Q 1406 3038 1543 3061 
Q 1681 3084 1819 3084 
Q 2600 3084 3056 2656 
Q 3513 2228 3513 1497 
Q 3513 744 3044 326 
Q 2575 -91 1722 -91 
Q 1428 -91 1123 -41 
Q 819 9 494 109 
L 494 744 
Q 775 591 1075 516 
Q 1375 441 1709 441 
Q 2250 441 2565 725 
Q 2881 1009 2881 1497 
Q 2881 1984 2565 2268 
Q 2250 2553 1709 2553 
Q 1456 2553 1204 2497 
Q 953 2441 691 2322 
L 691 4666 
z
" transform="scale(0.015625)"/>
       </defs>
       <use xlink:href="#DejaVuSans-32"/>
       <use xlink:href="#DejaVuSans-35" x="63.623047"/>
      </g>
     </g>
    </g>
    <g id="xtick_2">
     <g id="line2d_2">
      <g>
       <use xlink:href="#mae58d9ccd4" x="116.530926" y="307.584" style="stroke: #000000; stroke-width: 0.8"/>
      </g>
     </g>
     <g id="text_2">
      <!-- 50 -->
      <g transform="translate(110.168426 322.182437) scale(0.1 -0.1)">
       <defs>
        <path id="DejaVuSans-30" d="M 2034 4250 
Q 1547 4250 1301 3770 
Q 1056 3291 1056 2328 
Q 1056 1369 1301 889 
Q 1547 409 2034 409 
Q 2525 409 2770 889 
Q 3016 1369 3016 2328 
Q 3016 3291 2770 3770 
Q 2525 4250 2034 4250 
z
M 2034 4750 
Q 2819 4750 3233 4129 
Q 3647 3509 3647 2328 
Q 3647 1150 3233 529 
Q 2819 -91 2034 -91 
Q 1250 -91 836 529 
Q 422 1150 422 2328 
Q 422 3509 836 4129 
Q 1250 4750 2034 4750 
z
" transform="scale(0.015625)"/>
       </defs>
       <use xlink:href="#DejaVuSans-35"/>
       <use xlink:href="#DejaVuSans-30" x="63.623047"/>
      </g>
     </g>
    </g>
    <g id="xtick_3">
     <g id="line2d_3">
      <g>
       <use xlink:href="#mae58d9ccd4" x="159.225709" y="307.584" style="stroke: #000000; stroke-width: 0.8"/>
      </g>
     </g>
     <g id="text_3">
      <!-- 75 -->
      <g transform="translate(152.863209 322.182437) scale(0.1 -0.1)">
       <defs>
        <path id="DejaVuSans-37" d="M 525 4666 
L 3525 4666 
L 3525 4397 
L 1831 0 
L 1172 0 
L 2766 4134 
L 525 4134 
L 525 4666 
z
" transform="scale(0.015625)"/>
       </defs>
       <use xlink:href="#DejaVuSans-37"/>
       <use xlink:href="#DejaVuSans-35" x="63.623047"/>
      </g>
     </g>
    </g>
    <g id="xtick_4">
     <g id="line2d_4">
      <g>
       <use xlink:href="#mae58d9ccd4" x="201.920492" y="307.584" style="stroke: #000000; stroke-width: 0.8"/>
      </g>
     </g>
     <g id="text_4">
      <!-- 100 -->
      <g transform="translate(192.376742 322.182437) scale(0.1 -0.1)">
       <defs>
        <path id="DejaVuSans-31" d="M 794 531 
L 1825 531 
L 1825 4091 
L 703 3866 
L 703 4441 
L 1819 4666 
L 2450 4666 
L 2450 531 
L 3481 531 
L 3481 0 
L 794 0 
L 794 531 
z
" transform="scale(0.015625)"/>
       </defs>
       <use xlink:href="#DejaVuSans-31"/>
       <use xlink:href="#DejaVuSans-30" x="63.623047"/>
       <use xlink:href="#DejaVuSans-30" x="127.246094"/>
      </g>
     </g>
    </g>
    <g id="xtick_5">
     <g id="line2d_5">
      <g>
       <use xlink:href="#mae58d9ccd4" x="244.615275" y="307.584" style="stroke: #000000; stroke-width: 0.8"/>
      </g>
     </g>
     <g id="text_5">
      <!-- 125 -->
      <g transform="translate(235.071525 322.182437) scale(0.1 -0.1)">
       <use xlink:href="#DejaVuSans-31"/>
       <use xlink:href="#DejaVuSans-32" x="63.623047"/>
       <use xlink:href="#DejaVuSans-35" x="127.246094"/>
      </g>
     </g>
    </g>
    <g id="xtick_6">
     <g id="line2d_6">
      <g>
       <use xlink:href="#mae58d9ccd4" x="287.310058" y="307.584" style="stroke: #000000; stroke-width: 0.8"/>
      </g>
     </g>
     <g id="text_6">
      <!-- 150 -->
      <g transform="translate(277.766308 322.182437) scale(0.1 -0.1)">
       <use xlink:href="#DejaVuSans-31"/>
       <use xlink:href="#DejaVuSans-35" x="63.623047"/>
       <use xlink:href="#DejaVuSans-30" x="127.246094"/>
      </g>
     </g>
    </g>
    <g id="xtick_7">
     <g id="line2d_7">
      <g>
       <use xlink:href="#mae58d9ccd4" x="330.004841" y="307.584" style="stroke: #000000; stroke-width: 0.8"/>
      </g>
     </g>
     <g id="text_7">
      <!-- 175 -->
      <g transform="translate(320.461091 322.182437) scale(0.1 -0.1)">
       <use xlink:href="#DejaVuSans-31"/>
       <use xlink:href="#DejaVuSans-37" x="63.623047"/>
       <use xlink:href="#DejaVuSans-35" x="127.246094"/>
      </g>
     </g>
    </g>
    <g id="xtick_8">
     <g id="line2d_8">
      <g>
       <use xlink:href="#mae58d9ccd4" x="372.699624" y="307.584" style="stroke: #000000; stroke-width: 0.8"/>
      </g>
     </g>
     <g id="text_8">
      <!-- 200 -->
      <g transform="translate(363.155874 322.182437) scale(0.1 -0.1)">
       <use xlink:href="#DejaVuSans-32"/>
       <use xlink:href="#DejaVuSans-30" x="63.623047"/>
       <use xlink:href="#DejaVuSans-30" x="127.246094"/>
      </g>
     </g>
    </g>
    <g id="text_9">
     <!-- Score -->
     <g transform="translate(222.157656 335.860562) scale(0.1 -0.1)">
      <defs>
       <path id="DejaVuSans-53" d="M 3425 4513 
L 3425 3897 
Q 3066 4069 2747 4153 
Q 2428 4238 2131 4238 
Q 1616 4238 1336 4038 
Q 1056 3838 1056 3469 
Q 1056 3159 1242 3001 
Q 1428 2844 1947 2747 
L 2328 2669 
Q 3034 2534 3370 2195 
Q 3706 1856 3706 1288 
Q 3706 609 3251 259 
Q 2797 -91 1919 -91 
Q 1588 -91 1214 -16 
Q 841 59 441 206 
L 441 856 
Q 825 641 1194 531 
Q 1563 422 1919 422 
Q 2459 422 2753 634 
Q 3047 847 3047 1241 
Q 3047 1584 2836 1778 
Q 2625 1972 2144 2069 
L 1759 2144 
Q 1053 2284 737 2584 
Q 422 2884 422 3419 
Q 422 4038 858 4394 
Q 1294 4750 2059 4750 
Q 2388 4750 2728 4690 
Q 3069 4631 3425 4513 
z
" transform="scale(0.015625)"/>
       <path id="DejaVuSans-63" d="M 3122 3366 
L 3122 2828 
Q 2878 2963 2633 3030 
Q 2388 3097 2138 3097 
Q 1578 3097 1268 2742 
Q 959 2388 959 1747 
Q 959 1106 1268 751 
Q 1578 397 2138 397 
Q 2388 397 2633 464 
Q 2878 531 3122 666 
L 3122 134 
Q 2881 22 2623 -34 
Q 2366 -91 2075 -91 
Q 1284 -91 818 406 
Q 353 903 353 1747 
Q 353 2603 823 3093 
Q 1294 3584 2113 3584 
Q 2378 3584 2631 3529 
Q 2884 3475 3122 3366 
z
" transform="scale(0.015625)"/>
       <path id="DejaVuSans-6f" d="M 1959 3097 
Q 1497 3097 1228 2736 
Q 959 2375 959 1747 
Q 959 1119 1226 758 
Q 1494 397 1959 397 
Q 2419 397 2687 759 
Q 2956 1122 2956 1747 
Q 2956 2369 2687 2733 
Q 2419 3097 1959 3097 
z
M 1959 3584 
Q 2709 3584 3137 3096 
Q 3566 2609 3566 1747 
Q 3566 888 3137 398 
Q 2709 -91 1959 -91 
Q 1206 -91 779 398 
Q 353 888 353 1747 
Q 353 2609 779 3096 
Q 1206 3584 1959 3584 
z
" transform="scale(0.015625)"/>
       <path id="DejaVuSans-72" d="M 2631 2963 
Q 2534 3019 2420 3045 
Q 2306 3072 2169 3072 
Q 1681 3072 1420 2755 
Q 1159 2438 1159 1844 
L 1159 0 
L 581 0 
L 581 3500 
L 1159 3500 
L 1159 2956 
Q 1341 3275 1631 3429 
Q 1922 3584 2338 3584 
Q 2397 3584 2469 3576 
Q 2541 3569 2628 3553 
L 2631 2963 
z
" transform="scale(0.015625)"/>
       <path id="DejaVuSans-65" d="M 3597 1894 
L 3597 1613 
L 953 1613 
Q 991 1019 1311 708 
Q 1631 397 2203 397 
Q 2534 397 2845 478 
Q 3156 559 3463 722 
L 3463 178 
Q 3153 47 2828 -22 
Q 2503 -91 2169 -91 
Q 1331 -91 842 396 
Q 353 884 353 1716 
Q 353 2575 817 3079 
Q 1281 3584 2069 3584 
Q 2775 3584 3186 3129 
Q 3597 2675 3597 1894 
z
M 3022 2063 
Q 3016 2534 2758 2815 
Q 2500 3097 2075 3097 
Q 1594 3097 1305 2825 
Q 1016 2553 972 2059 
L 3022 2063 
z
" transform="scale(0.015625)"/>
      </defs>
      <use xlink:href="#DejaVuSans-53"/>
      <use xlink:href="#DejaVuSans-63" x="63.476562"/>
      <use xlink:href="#DejaVuSans-6f" x="118.457031"/>
      <use xlink:href="#DejaVuSans-72" x="179.638672"/>
      <use xlink:href="#DejaVuSans-65" x="218.501953"/>
     </g>
    </g>
   </g>
   <g id="matplotlib.axis_2">
    <g id="ytick_1">
     <g id="line2d_9">
      <defs>
       <path id="mff2c46c7be" d="M 0 0 
L -3.5 0 
" style="stroke: #000000; stroke-width: 0.8"/>
      </defs>
      <g>
       <use xlink:href="#mff2c46c7be" x="57.6" y="307.584" style="stroke: #000000; stroke-width: 0.8"/>
      </g>
     </g>
     <g id="text_10">
      <!-- 0 -->
      <g transform="translate(44.2375 311.383219) scale(0.1 -0.1)">
       <use xlink:href="#DejaVuSans-30"/>
      </g>
     </g>
    </g>
    <g id="ytick_2">
     <g id="line2d_10">
      <g>
       <use xlink:href="#mff2c46c7be" x="57.6" y="259.309714" style="stroke: #000000; stroke-width: 0.8"/>
      </g>
     </g>
     <g id="text_11">
      <!-- 20 -->
      <g transform="translate(37.875 263.108933) scale(0.1 -0.1)">
       <use xlink:href="#DejaVuSans-32"/>
       <use xlink:href="#DejaVuSans-30" x="63.623047"/>
      </g>
     </g>
    </g>
    <g id="ytick_3">
     <g id="line2d_11">
      <g>
       <use xlink:href="#mff2c46c7be" x="57.6" y="211.035429" style="stroke: #000000; stroke-width: 0.8"/>
      </g>
     </g>
     <g id="text_12">
      <!-- 40 -->
      <g transform="translate(37.875 214.834647) scale(0.1 -0.1)">
       <defs>
        <path id="DejaVuSans-34" d="M 2419 4116 
L 825 1625 
L 2419 1625 
L 2419 4116 
z
M 2253 4666 
L 3047 4666 
L 3047 1625 
L 3713 1625 
L 3713 1100 
L 3047 1100 
L 3047 0 
L 2419 0 
L 2419 1100 
L 313 1100 
L 313 1709 
L 2253 4666 
z
" transform="scale(0.015625)"/>
       </defs>
       <use xlink:href="#DejaVuSans-34"/>
       <use xlink:href="#DejaVuSans-30" x="63.623047"/>
      </g>
     </g>
    </g>
    <g id="ytick_4">
     <g id="line2d_12">
      <g>
       <use xlink:href="#mff2c46c7be" x="57.6" y="162.761143" style="stroke: #000000; stroke-width: 0.8"/>
      </g>
     </g>
     <g id="text_13">
      <!-- 60 -->
      <g transform="translate(37.875 166.560362) scale(0.1 -0.1)">
       <defs>
        <path id="DejaVuSans-36" d="M 2113 2584 
Q 1688 2584 1439 2293 
Q 1191 2003 1191 1497 
Q 1191 994 1439 701 
Q 1688 409 2113 409 
Q 2538 409 2786 701 
Q 3034 994 3034 1497 
Q 3034 2003 2786 2293 
Q 2538 2584 2113 2584 
z
M 3366 4563 
L 3366 3988 
Q 3128 4100 2886 4159 
Q 2644 4219 2406 4219 
Q 1781 4219 1451 3797 
Q 1122 3375 1075 2522 
Q 1259 2794 1537 2939 
Q 1816 3084 2150 3084 
Q 2853 3084 3261 2657 
Q 3669 2231 3669 1497 
Q 3669 778 3244 343 
Q 2819 -91 2113 -91 
Q 1303 -91 875 529 
Q 447 1150 447 2328 
Q 447 3434 972 4092 
Q 1497 4750 2381 4750 
Q 2619 4750 2861 4703 
Q 3103 4656 3366 4563 
z
" transform="scale(0.015625)"/>
       </defs>
       <use xlink:href="#DejaVuSans-36"/>
       <use xlink:href="#DejaVuSans-30" x="63.623047"/>
      </g>
     </g>
    </g>
    <g id="ytick_5">
     <g id="line2d_13">
      <g>
       <use xlink:href="#mff2c46c7be" x="57.6" y="114.486857" style="stroke: #000000; stroke-width: 0.8"/>
      </g>
     </g>
     <g id="text_14">
      <!-- 80 -->
      <g transform="translate(37.875 118.286076) scale(0.1 -0.1)">
       <defs>
        <path id="DejaVuSans-38" d="M 2034 2216 
Q 1584 2216 1326 1975 
Q 1069 1734 1069 1313 
Q 1069 891 1326 650 
Q 1584 409 2034 409 
Q 2484 409 2743 651 
Q 3003 894 3003 1313 
Q 3003 1734 2745 1975 
Q 2488 2216 2034 2216 
z
M 1403 2484 
Q 997 2584 770 2862 
Q 544 3141 544 3541 
Q 544 4100 942 4425 
Q 1341 4750 2034 4750 
Q 2731 4750 3128 4425 
Q 3525 4100 3525 3541 
Q 3525 3141 3298 2862 
Q 3072 2584 2669 2484 
Q 3125 2378 3379 2068 
Q 3634 1759 3634 1313 
Q 3634 634 3220 271 
Q 2806 -91 2034 -91 
Q 1263 -91 848 271 
Q 434 634 434 1313 
Q 434 1759 690 2068 
Q 947 2378 1403 2484 
z
M 1172 3481 
Q 1172 3119 1398 2916 
Q 1625 2713 2034 2713 
Q 2441 2713 2670 2916 
Q 2900 3119 2900 3481 
Q 2900 3844 2670 4047 
Q 2441 4250 2034 4250 
Q 1625 4250 1398 4047 
Q 1172 3844 1172 3481 
z
" transform="scale(0.015625)"/>
       </defs>
       <use xlink:href="#DejaVuSans-38"/>
       <use xlink:href="#DejaVuSans-30" x="63.623047"/>
      </g>
     </g>
    </g>
    <g id="ytick_6">
     <g id="line2d_14">
      <g>
       <use xlink:href="#mff2c46c7be" x="57.6" y="66.212571" style="stroke: #000000; stroke-width: 0.8"/>
      </g>
     </g>
     <g id="text_15">
      <!-- 100 -->
      <g transform="translate(31.5125 70.01179) scale(0.1 -0.1)">
       <use xlink:href="#DejaVuSans-31"/>
       <use xlink:href="#DejaVuSans-30" x="63.623047"/>
       <use xlink:href="#DejaVuSans-30" x="127.246094"/>
      </g>
     </g>
    </g>
    <g id="text_16">
     <!-- Number of crosslinks -->
     <g transform="translate(25.432812 227.019406) rotate(-90) scale(0.1 -0.1)">
      <defs>
       <path id="DejaVuSans-4e" d="M 628 4666 
L 1478 4666 
L 3547 763 
L 3547 4666 
L 4159 4666 
L 4159 0 
L 3309 0 
L 1241 3903 
L 1241 0 
L 628 0 
L 628 4666 
z
" transform="scale(0.015625)"/>
       <path id="DejaVuSans-75" d="M 544 1381 
L 544 3500 
L 1119 3500 
L 1119 1403 
Q 1119 906 1312 657 
Q 1506 409 1894 409 
Q 2359 409 2629 706 
Q 2900 1003 2900 1516 
L 2900 3500 
L 3475 3500 
L 3475 0 
L 2900 0 
L 2900 538 
Q 2691 219 2414 64 
Q 2138 -91 1772 -91 
Q 1169 -91 856 284 
Q 544 659 544 1381 
z
M 1991 3584 
L 1991 3584 
z
" transform="scale(0.015625)"/>
       <path id="DejaVuSans-6d" d="M 3328 2828 
Q 3544 3216 3844 3400 
Q 4144 3584 4550 3584 
Q 5097 3584 5394 3201 
Q 5691 2819 5691 2113 
L 5691 0 
L 5113 0 
L 5113 2094 
Q 5113 2597 4934 2840 
Q 4756 3084 4391 3084 
Q 3944 3084 3684 2787 
Q 3425 2491 3425 1978 
L 3425 0 
L 2847 0 
L 2847 2094 
Q 2847 2600 2669 2842 
Q 2491 3084 2119 3084 
Q 1678 3084 1418 2786 
Q 1159 2488 1159 1978 
L 1159 0 
L 581 0 
L 581 3500 
L 1159 3500 
L 1159 2956 
Q 1356 3278 1631 3431 
Q 1906 3584 2284 3584 
Q 2666 3584 2933 3390 
Q 3200 3197 3328 2828 
z
" transform="scale(0.015625)"/>
       <path id="DejaVuSans-62" d="M 3116 1747 
Q 3116 2381 2855 2742 
Q 2594 3103 2138 3103 
Q 1681 3103 1420 2742 
Q 1159 2381 1159 1747 
Q 1159 1113 1420 752 
Q 1681 391 2138 391 
Q 2594 391 2855 752 
Q 3116 1113 3116 1747 
z
M 1159 2969 
Q 1341 3281 1617 3432 
Q 1894 3584 2278 3584 
Q 2916 3584 3314 3078 
Q 3713 2572 3713 1747 
Q 3713 922 3314 415 
Q 2916 -91 2278 -91 
Q 1894 -91 1617 61 
Q 1341 213 1159 525 
L 1159 0 
L 581 0 
L 581 4863 
L 1159 4863 
L 1159 2969 
z
" transform="scale(0.015625)"/>
       <path id="DejaVuSans-20" transform="scale(0.015625)"/>
       <path id="DejaVuSans-66" d="M 2375 4863 
L 2375 4384 
L 1825 4384 
Q 1516 4384 1395 4259 
Q 1275 4134 1275 3809 
L 1275 3500 
L 2222 3500 
L 2222 3053 
L 1275 3053 
L 1275 0 
L 697 0 
L 697 3053 
L 147 3053 
L 147 3500 
L 697 3500 
L 697 3744 
Q 697 4328 969 4595 
Q 1241 4863 1831 4863 
L 2375 4863 
z
" transform="scale(0.015625)"/>
       <path id="DejaVuSans-73" d="M 2834 3397 
L 2834 2853 
Q 2591 2978 2328 3040 
Q 2066 3103 1784 3103 
Q 1356 3103 1142 2972 
Q 928 2841 928 2578 
Q 928 2378 1081 2264 
Q 1234 2150 1697 2047 
L 1894 2003 
Q 2506 1872 2764 1633 
Q 3022 1394 3022 966 
Q 3022 478 2636 193 
Q 2250 -91 1575 -91 
Q 1294 -91 989 -36 
Q 684 19 347 128 
L 347 722 
Q 666 556 975 473 
Q 1284 391 1588 391 
Q 1994 391 2212 530 
Q 2431 669 2431 922 
Q 2431 1156 2273 1281 
Q 2116 1406 1581 1522 
L 1381 1569 
Q 847 1681 609 1914 
Q 372 2147 372 2553 
Q 372 3047 722 3315 
Q 1072 3584 1716 3584 
Q 2034 3584 2315 3537 
Q 2597 3491 2834 3397 
z
" transform="scale(0.015625)"/>
       <path id="DejaVuSans-6c" d="M 603 4863 
L 1178 4863 
L 1178 0 
L 603 0 
L 603 4863 
z
" transform="scale(0.015625)"/>
       <path id="DejaVuSans-69" d="M 603 3500 
L 1178 3500 
L 1178 0 
L 603 0 
L 603 3500 
z
M 603 4863 
L 1178 4863 
L 1178 4134 
L 603 4134 
L 603 4863 
z
" transform="scale(0.015625)"/>
       <path id="DejaVuSans-6e" d="M 3513 2113 
L 3513 0 
L 2938 0 
L 2938 2094 
Q 2938 2591 2744 2837 
Q 2550 3084 2163 3084 
Q 1697 3084 1428 2787 
Q 1159 2491 1159 1978 
L 1159 0 
L 581 0 
L 581 3500 
L 1159 3500 
L 1159 2956 
Q 1366 3272 1645 3428 
Q 1925 3584 2291 3584 
Q 2894 3584 3203 3211 
Q 3513 2838 3513 2113 
z
" transform="scale(0.015625)"/>
       <path id="DejaVuSans-6b" d="M 581 4863 
L 1159 4863 
L 1159 1991 
L 2875 3500 
L 3609 3500 
L 1753 1863 
L 3688 0 
L 2938 0 
L 1159 1709 
L 1159 0 
L 581 0 
L 581 4863 
z
" transform="scale(0.015625)"/>
      </defs>
      <use xlink:href="#DejaVuSans-4e"/>
      <use xlink:href="#DejaVuSans-75" x="74.804688"/>
      <use xlink:href="#DejaVuSans-6d" x="138.183594"/>
      <use xlink:href="#DejaVuSans-62" x="235.595703"/>
      <use xlink:href="#DejaVuSans-65" x="299.072266"/>
      <use xlink:href="#DejaVuSans-72" x="360.595703"/>
      <use xlink:href="#DejaVuSans-20" x="401.708984"/>
      <use xlink:href="#DejaVuSans-6f" x="433.496094"/>
      <use xlink:href="#DejaVuSans-66" x="494.677734"/>
      <use xlink:href="#DejaVuSans-20" x="529.882812"/>
      <use xlink:href="#DejaVuSans-63" x="561.669922"/>
      <use xlink:href="#DejaVuSans-72" x="616.650391"/>
      <use xlink:href="#DejaVuSans-6f" x="655.513672"/>
      <use xlink:href="#DejaVuSans-73" x="716.695312"/>
      <use xlink:href="#DejaVuSans-73" x="768.794922"/>
      <use xlink:href="#DejaVuSans-6c" x="820.894531"/>
      <use xlink:href="#DejaVuSans-69" x="848.677734"/>
      <use xlink:href="#DejaVuSans-6e" x="876.460938"/>
      <use xlink:href="#DejaVuSans-6b" x="939.839844"/>
      <use xlink:href="#DejaVuSans-73" x="997.75"/>
     </g>
    </g>
   </g>
   <g id="patch_3">
    <path d="M 57.6 307.584 
L 57.6 41.472 
" style="fill: none; stroke: #000000; stroke-width: 0.8; stroke-linejoin: miter; stroke-linecap: square"/>
   </g>
   <g id="patch_4">
    <path d="M 414.72 307.584 
L 414.72 41.472 
" style="fill: none; stroke: #000000; stroke-width: 0.8; stroke-linejoin: miter; stroke-linecap: square"/>
   </g>
   <g id="patch_5">
    <path d="M 57.6 307.584 
L 414.72 307.584 
" style="fill: none; stroke: #000000; stroke-width: 0.8; stroke-linejoin: miter; stroke-linecap: square"/>
   </g>
   <g id="patch_6">
    <path d="M 57.6 41.472 
L 414.72 41.472 
" style="fill: none; stroke: #000000; stroke-width: 0.8; stroke-linejoin: miter; stroke-linecap: square"/>
   </g>
   <g id="legend_1">
    <g id="patch_7">
     <path d="M 293.087188 93.506375 
L 407.72 93.506375 
Q 409.72 93.506375 409.72 91.506375 
L 409.72 48.472 
Q 409.72 46.472 407.72 46.472 
L 293.087188 46.472 
Q 291.087188 46.472 291.087188 48.472 
L 291.087188 91.506375 
Q 291.087188 93.506375 293.087188 93.506375 
z
" style="fill: #ffffff; opacity: 0.8; stroke: #cccccc; stroke-linejoin: miter"/>
    </g>
    <g id="patch_8">
     <path d="M 295.087188 58.070438 
L 315.087188 58.070438 
L 315.087188 51.070438 
L 295.087188 51.070438 
z
" style="fill: #008000"/>
    </g>
    <g id="text_17">
     <!-- true -->
     <g transform="translate(323.087188 58.070438) scale(0.1 -0.1)">
      <defs>
       <path id="DejaVuSans-74" d="M 1172 4494 
L 1172 3500 
L 2356 3500 
L 2356 3053 
L 1172 3053 
L 1172 1153 
Q 1172 725 1289 603 
Q 1406 481 1766 481 
L 2356 481 
L 2356 0 
L 1766 0 
Q 1100 0 847 248 
Q 594 497 594 1153 
L 594 3053 
L 172 3053 
L 172 3500 
L 594 3500 
L 594 4494 
L 1172 4494 
z
" transform="scale(0.015625)"/>
      </defs>
      <use xlink:href="#DejaVuSans-74"/>
      <use xlink:href="#DejaVuSans-72" x="39.208984"/>
      <use xlink:href="#DejaVuSans-75" x="80.322266"/>
      <use xlink:href="#DejaVuSans-65" x="143.701172"/>
     </g>
    </g>
    <g id="patch_9">
     <path d="M 295.087188 72.748563 
L 315.087188 72.748563 
L 315.087188 65.748563 
L 295.087188 65.748563 
z
" style="fill: #7cfc00"/>
    </g>
    <g id="text_18">
     <!-- true homeotypic -->
     <g transform="translate(323.087188 72.748563) scale(0.1 -0.1)">
      <defs>
       <path id="DejaVuSans-68" d="M 3513 2113 
L 3513 0 
L 2938 0 
L 2938 2094 
Q 2938 2591 2744 2837 
Q 2550 3084 2163 3084 
Q 1697 3084 1428 2787 
Q 1159 2491 1159 1978 
L 1159 0 
L 581 0 
L 581 4863 
L 1159 4863 
L 1159 2956 
Q 1366 3272 1645 3428 
Q 1925 3584 2291 3584 
Q 2894 3584 3203 3211 
Q 3513 2838 3513 2113 
z
" transform="scale(0.015625)"/>
       <path id="DejaVuSans-79" d="M 2059 -325 
Q 1816 -950 1584 -1140 
Q 1353 -1331 966 -1331 
L 506 -1331 
L 506 -850 
L 844 -850 
Q 1081 -850 1212 -737 
Q 1344 -625 1503 -206 
L 1606 56 
L 191 3500 
L 800 3500 
L 1894 763 
L 2988 3500 
L 3597 3500 
L 2059 -325 
z
" transform="scale(0.015625)"/>
       <path id="DejaVuSans-70" d="M 1159 525 
L 1159 -1331 
L 581 -1331 
L 581 3500 
L 1159 3500 
L 1159 2969 
Q 1341 3281 1617 3432 
Q 1894 3584 2278 3584 
Q 2916 3584 3314 3078 
Q 3713 2572 3713 1747 
Q 3713 922 3314 415 
Q 2916 -91 2278 -91 
Q 1894 -91 1617 61 
Q 1341 213 1159 525 
z
M 3116 1747 
Q 3116 2381 2855 2742 
Q 2594 3103 2138 3103 
Q 1681 3103 1420 2742 
Q 1159 2381 1159 1747 
Q 1159 1113 1420 752 
Q 1681 391 2138 391 
Q 2594 391 2855 752 
Q 3116 1113 3116 1747 
z
" transform="scale(0.015625)"/>
      </defs>
      <use xlink:href="#DejaVuSans-74"/>
      <use xlink:href="#DejaVuSans-72" x="39.208984"/>
      <use xlink:href="#DejaVuSans-75" x="80.322266"/>
      <use xlink:href="#DejaVuSans-65" x="143.701172"/>
      <use xlink:href="#DejaVuSans-20" x="205.224609"/>
      <use xlink:href="#DejaVuSans-68" x="237.011719"/>
      <use xlink:href="#DejaVuSans-6f" x="300.390625"/>
      <use xlink:href="#DejaVuSans-6d" x="361.572266"/>
      <use xlink:href="#DejaVuSans-65" x="458.984375"/>
      <use xlink:href="#DejaVuSans-6f" x="520.507812"/>
      <use xlink:href="#DejaVuSans-74" x="581.689453"/>
      <use xlink:href="#DejaVuSans-79" x="620.898438"/>
      <use xlink:href="#DejaVuSans-70" x="680.078125"/>
      <use xlink:href="#DejaVuSans-69" x="743.554688"/>
      <use xlink:href="#DejaVuSans-63" x="771.337891"/>
     </g>
    </g>
    <g id="patch_10">
     <path d="M 295.087188 87.426688 
L 315.087188 87.426688 
L 315.087188 80.426688 
L 295.087188 80.426688 
z
" style="fill: #ff0000"/>
    </g>
    <g id="text_19">
     <!-- false -->
     <g transform="translate(323.087188 87.426688) scale(0.1 -0.1)">
      <defs>
       <path id="DejaVuSans-61" d="M 2194 1759 
Q 1497 1759 1228 1600 
Q 959 1441 959 1056 
Q 959 750 1161 570 
Q 1363 391 1709 391 
Q 2188 391 2477 730 
Q 2766 1069 2766 1631 
L 2766 1759 
L 2194 1759 
z
M 3341 1997 
L 3341 0 
L 2766 0 
L 2766 531 
Q 2569 213 2275 61 
Q 1981 -91 1556 -91 
Q 1019 -91 701 211 
Q 384 513 384 1019 
Q 384 1609 779 1909 
Q 1175 2209 1959 2209 
L 2766 2209 
L 2766 2266 
Q 2766 2663 2505 2880 
Q 2244 3097 1772 3097 
Q 1472 3097 1187 3025 
Q 903 2953 641 2809 
L 641 3341 
Q 956 3463 1253 3523 
Q 1550 3584 1831 3584 
Q 2591 3584 2966 3190 
Q 3341 2797 3341 1997 
z
" transform="scale(0.015625)"/>
      </defs>
      <use xlink:href="#DejaVuSans-66"/>
      <use xlink:href="#DejaVuSans-61" x="35.205078"/>
      <use xlink:href="#DejaVuSans-6c" x="96.484375"/>
      <use xlink:href="#DejaVuSans-73" x="124.267578"/>
      <use xlink:href="#DejaVuSans-65" x="176.367188"/>
     </g>
    </g>
   </g>
  </g>
 </g>
 <defs>
  <clipPath id="p93a9390368">
   <rect x="57.6" y="41.472" width="357.12" height="266.112"/>
  </clipPath>
 </defs>
</svg>
