<?xml version="1.0" encoding="utf-8" standalone="no"?>
<!DOCTYPE svg PUBLIC "-//W3C//DTD SVG 1.1//EN"
  "http://www.w3.org/Graphics/SVG/1.1/DTD/svg11.dtd">
<svg xmlns:xlink="http://www.w3.org/1999/xlink" width="460.8pt" height="345.6pt" viewBox="0 0 460.8 345.6" xmlns="http://www.w3.org/2000/svg" version="1.1">
 <metadata>
  <rdf:RDF xmlns:dc="http://purl.org/dc/elements/1.1/" xmlns:cc="http://creativecommons.org/ns#" xmlns:rdf="http://www.w3.org/1999/02/22-rdf-syntax-ns#">
   <cc:Work>
    <dc:type rdf:resource="http://purl.org/dc/dcmitype/StillImage"/>
    <dc:date>2024-06-29T19:02:25.549816</dc:date>
    <dc:format>image/svg+xml</dc:format>
    <dc:creator>
     <cc:Agent>
      <dc:title>Matplotlib v3.9.0, https://matplotlib.org/</dc:title>
     </cc:Agent>
    </dc:creator>
   </cc:Work>
  </rdf:RDF>
 </metadata>
 <defs>
  <style type="text/css">*{stroke-linejoin: round; stroke-linecap: butt}</style>
 </defs>
 <g id="figure_1">
  <g id="patch_1">
   <path d="M 0 345.6 
L 460.8 345.6 
L 460.8 0 
L 0 0 
z
" style="fill: #ffffff"/>
  </g>
  <g id="axes_1">
   <g id="patch_2">
    <path d="M 57.6 307.584 
L 414.72 307.584 
L 414.72 41.472 
L 57.6 41.472 
z
" style="fill: #ffffff"/>
   </g>
   <g id="PolyCollection_1">
    <path d="M 73.832727 80.622806 
L 73.832727 307.584 
L 74.232478 307.584 
L 74.308621 307.584 
L 74.860657 307.584 
L 75.298479 307.584 
L 75.336551 307.584 
L 75.622087 307.584 
L 76.174123 307.584 
L 76.745195 307.584 
L 78.249019 307.584 
L 78.953341 307.584 
L 79.867057 307.584 
L 79.962236 307.584 
L 80.476201 307.584 
L 81.980024 307.584 
L 82.113274 307.584 
L 82.570132 307.584 
L 82.855668 307.584 
L 83.731312 307.584 
L 84.549849 307.584 
L 88.661569 307.584 
L 90.317678 307.584 
L 91.478858 307.584 
L 91.612108 307.584 
L 91.669216 307.584 
L 94.619755 307.584 
L 94.810113 307.584 
L 95.476364 307.584 
L 97.132473 307.584 
L 97.418009 307.584 
L 98.160403 307.584 
L 98.331725 307.584 
L 99.550012 307.584 
L 100.121084 307.584 
L 102.881266 307.584 
L 103.071624 307.584 
L 103.471374 307.584 
L 104.499304 307.584 
L 104.956162 307.584 
L 106.231557 307.584 
L 107.449844 307.584 
L 107.564059 307.584 
L 108.36356 307.584 
L 109.619918 307.584 
L 111.161813 307.584 
L 111.180849 307.584 
L 111.237956 307.584 
L 112.418172 307.584 
L 113.122495 307.584 
L 113.160566 307.584 
L 114.378853 307.584 
L 116.339535 307.584 
L 116.701214 307.584 
L 116.777357 307.584 
L 117.310357 307.584 
L 119.099717 307.584 
L 119.252003 307.584 
L 120.146683 307.584 
L 120.984255 307.584 
L 121.517256 307.584 
L 122.031221 307.584 
L 122.887829 307.584 
L 124.505867 307.584 
L 127.266049 307.584 
L 127.589657 307.584 
L 128.541444 307.584 
L 129.055409 307.584 
L 129.626481 307.584 
L 129.664553 307.584 
L 130.368875 307.584 
L 134.613845 307.584 
L 135.070703 307.584 
L 135.089739 307.584 
L 137.526313 307.584 
L 138.230636 307.584 
L 139.125315 307.584 
L 139.905781 307.584 
L 140.058067 307.584 
L 140.66721 307.584 
L 140.781425 307.584 
L 141.923569 307.584 
L 142.742106 307.584 
L 143.141857 307.584 
L 148.62415 307.584 
L 149.899544 307.584 
L 149.975687 307.584 
L 152.564548 307.584 
L 152.678762 307.584 
L 152.907191 307.584 
L 154.049336 307.584 
L 155.115337 307.584 
L 155.876767 307.584 
L 156.181338 307.584 
L 157.856484 307.584 
L 159.988486 307.584 
L 160.807023 307.584 
L 160.940273 307.584 
L 162.272775 307.584 
L 162.444097 307.584 
L 165.013922 307.584 
L 165.851494 307.584 
L 167.469532 307.584 
L 169.125642 307.584 
L 170.343929 307.584 
L 172.723396 307.584 
L 176.778009 307.584 
L 178.757726 307.584 
L 179.081334 307.584 
L 180.870693 307.584 
L 181.594051 307.584 
L 182.069945 307.584 
L 182.088981 307.584 
L 182.127052 307.584 
L 184.525555 307.584 
L 186.295879 307.584 
L 188.12331 307.584 
L 188.789561 307.584 
L 193.738853 307.584 
L 194.347997 307.584 
L 195.58532 307.584 
L 196.080249 307.584 
L 200.325219 307.584 
L 200.344255 307.584 
L 200.705934 307.584 
L 203.275759 307.584 
L 205.217405 307.584 
L 210.166697 307.584 
L 213.497952 307.584 
L 216.124884 307.584 
L 217.857136 307.584 
L 220.826711 307.584 
L 222.178249 307.584 
L 222.71125 307.584 
L 223.777251 307.584 
L 224.329288 307.584 
L 226.708755 307.584 
L 229.107258 307.584 
L 231.658047 307.584 
L 232.476584 307.584 
L 237.521055 307.584 
L 237.863699 307.584 
L 244.96403 307.584 
L 250.23693 307.584 
L 257.927369 307.584 
L 264.608913 307.584 
L 264.913485 307.584 
L 269.976992 307.584 
L 276.944073 307.584 
L 279.571005 307.584 
L 279.609077 307.584 
L 292.382058 307.584 
L 294.456954 307.584 
L 305.916469 307.584 
L 309.304831 307.584 
L 333.651542 307.584 
L 335.060187 307.584 
L 339.171907 307.584 
L 340.694766 307.584 
L 398.487273 307.584 
L 398.487273 306.323104 
L 398.487273 306.323104 
L 340.694766 305.062209 
L 339.171907 303.801313 
L 335.060187 302.540418 
L 333.651542 301.279522 
L 309.304831 300.018627 
L 305.916469 298.757731 
L 294.456954 297.496836 
L 292.382058 296.23594 
L 279.609077 294.975045 
L 279.571005 293.714149 
L 276.944073 292.453254 
L 269.976992 291.192358 
L 264.913485 289.931463 
L 264.608913 288.670567 
L 257.927369 286.148776 
L 250.23693 284.887881 
L 244.96403 283.626985 
L 237.863699 282.36609 
L 237.521055 281.105194 
L 232.476584 279.844299 
L 231.658047 278.583403 
L 229.107258 277.322507 
L 226.708755 276.061612 
L 224.329288 274.800716 
L 223.777251 273.539821 
L 222.71125 272.278925 
L 222.178249 271.01803 
L 220.826711 269.757134 
L 217.857136 267.235343 
L 216.124884 265.974448 
L 213.497952 264.713552 
L 210.166697 263.452657 
L 205.217405 262.191761 
L 203.275759 260.930866 
L 200.705934 259.66997 
L 200.344255 259.66997 
L 200.325219 258.409075 
L 196.080249 255.887284 
L 195.58532 254.626388 
L 194.347997 253.365493 
L 193.738853 252.104597 
L 188.789561 250.843701 
L 188.12331 249.582806 
L 186.295879 248.32191 
L 184.525555 247.061015 
L 182.127052 243.278328 
L 182.088981 242.017433 
L 182.069945 240.756537 
L 181.594051 239.495642 
L 180.870693 238.234746 
L 179.081334 236.973851 
L 178.757726 235.712955 
L 176.778009 234.45206 
L 172.723396 233.191164 
L 170.343929 231.930269 
L 169.125642 230.669373 
L 167.469532 228.147582 
L 165.851494 226.886687 
L 165.013922 225.625791 
L 162.444097 224.364896 
L 162.272775 223.104 
L 160.940273 221.843104 
L 160.807023 219.321313 
L 159.988486 218.060418 
L 157.856484 216.799522 
L 156.181338 214.277731 
L 155.876767 213.016836 
L 155.115337 211.75594 
L 154.049336 210.495045 
L 152.907191 207.973254 
L 152.678762 206.712358 
L 152.564548 205.451463 
L 149.975687 204.190567 
L 149.899544 201.668776 
L 148.62415 200.407881 
L 143.141857 199.146985 
L 142.742106 196.625194 
L 141.923569 194.103403 
L 140.781425 191.581612 
L 140.66721 190.320716 
L 140.058067 189.059821 
L 139.905781 187.798925 
L 139.125315 185.277134 
L 138.230636 184.016239 
L 137.526313 182.755343 
L 135.089739 181.494448 
L 135.070703 180.233552 
L 134.613845 178.972657 
L 130.368875 176.450866 
L 129.664553 175.18997 
L 129.626481 173.929075 
L 129.055409 171.407284 
L 128.541444 168.885493 
L 127.589657 167.624597 
L 127.266049 166.363701 
L 124.505867 162.581015 
L 122.887829 161.320119 
L 122.031221 158.798328 
L 121.517256 157.537433 
L 120.984255 156.276537 
L 120.146683 155.015642 
L 119.252003 153.754746 
L 119.099717 152.493851 
L 117.310357 151.232955 
L 116.777357 149.97206 
L 116.701214 148.711164 
L 116.339535 147.450269 
L 114.378853 146.189373 
L 113.160566 143.667582 
L 113.122495 141.145791 
L 112.418172 139.884896 
L 111.237956 138.624 
L 111.180849 137.363104 
L 111.161813 136.102209 
L 109.619918 134.841313 
L 108.36356 133.580418 
L 107.564059 132.319522 
L 107.449844 131.058627 
L 106.231557 128.536836 
L 104.956162 127.27594 
L 104.499304 126.015045 
L 103.471374 123.493254 
L 103.071624 122.232358 
L 102.881266 120.971463 
L 100.121084 119.710567 
L 99.550012 118.449672 
L 98.331725 117.188776 
L 98.160403 115.927881 
L 97.418009 114.666985 
L 97.132473 112.145194 
L 95.476364 110.884299 
L 94.810113 109.623403 
L 94.619755 108.362507 
L 91.669216 105.840716 
L 91.612108 102.05803 
L 91.478858 100.797134 
L 90.317678 98.275343 
L 88.661569 97.014448 
L 84.549849 93.231761 
L 83.731312 91.970866 
L 82.855668 91.970866 
L 82.570132 91.970866 
L 82.113274 90.70997 
L 81.980024 88.188179 
L 80.476201 88.188179 
L 79.962236 86.927284 
L 79.867057 85.666388 
L 78.953341 85.666388 
L 78.249019 84.405493 
L 76.745195 84.405493 
L 76.174123 84.405493 
L 75.622087 84.405493 
L 75.336551 83.144597 
L 75.298479 81.883701 
L 74.860657 80.622806 
L 74.308621 80.622806 
L 74.232478 80.622806 
L 73.832727 80.622806 
z
" clip-path="url(#pbe772a4d59)" style="fill: #008000"/>
   </g>
   <g id="PolyCollection_2">
    <path d="M 73.832727 80.622806 
L 73.832727 80.622806 
L 74.232478 80.622806 
L 74.308621 80.622806 
L 74.860657 80.622806 
L 75.298479 81.883701 
L 75.336551 83.144597 
L 75.622087 84.405493 
L 76.174123 84.405493 
L 76.745195 84.405493 
L 78.249019 84.405493 
L 78.953341 85.666388 
L 79.867057 85.666388 
L 79.962236 86.927284 
L 80.476201 88.188179 
L 81.980024 88.188179 
L 82.113274 90.70997 
L 82.570132 91.970866 
L 82.855668 91.970866 
L 83.731312 91.970866 
L 84.549849 93.231761 
L 88.661569 97.014448 
L 90.317678 98.275343 
L 91.478858 100.797134 
L 91.612108 102.05803 
L 91.669216 105.840716 
L 94.619755 108.362507 
L 94.810113 109.623403 
L 95.476364 110.884299 
L 97.132473 112.145194 
L 97.418009 114.666985 
L 98.160403 115.927881 
L 98.331725 117.188776 
L 99.550012 118.449672 
L 100.121084 119.710567 
L 102.881266 120.971463 
L 103.071624 122.232358 
L 103.471374 123.493254 
L 104.499304 126.015045 
L 104.956162 127.27594 
L 106.231557 128.536836 
L 107.449844 131.058627 
L 107.564059 132.319522 
L 108.36356 133.580418 
L 109.619918 134.841313 
L 111.161813 136.102209 
L 111.180849 137.363104 
L 111.237956 138.624 
L 112.418172 139.884896 
L 113.122495 141.145791 
L 113.160566 143.667582 
L 114.378853 146.189373 
L 116.339535 147.450269 
L 116.701214 148.711164 
L 116.777357 149.97206 
L 117.310357 151.232955 
L 119.099717 152.493851 
L 119.252003 153.754746 
L 120.146683 155.015642 
L 120.984255 156.276537 
L 121.517256 157.537433 
L 122.031221 158.798328 
L 122.887829 161.320119 
L 124.505867 162.581015 
L 127.266049 166.363701 
L 127.589657 167.624597 
L 128.541444 168.885493 
L 129.055409 171.407284 
L 129.626481 173.929075 
L 129.664553 175.18997 
L 130.368875 176.450866 
L 134.613845 178.972657 
L 135.070703 180.233552 
L 135.089739 181.494448 
L 137.526313 182.755343 
L 138.230636 184.016239 
L 139.125315 185.277134 
L 139.905781 187.798925 
L 140.058067 189.059821 
L 140.66721 190.320716 
L 140.781425 191.581612 
L 141.923569 194.103403 
L 142.742106 196.625194 
L 143.141857 199.146985 
L 148.62415 200.407881 
L 149.899544 201.668776 
L 149.975687 204.190567 
L 152.564548 205.451463 
L 152.678762 206.712358 
L 152.907191 207.973254 
L 154.049336 210.495045 
L 155.115337 211.75594 
L 155.876767 213.016836 
L 156.181338 214.277731 
L 157.856484 216.799522 
L 159.988486 218.060418 
L 160.807023 219.321313 
L 160.940273 221.843104 
L 162.272775 223.104 
L 162.444097 224.364896 
L 165.013922 225.625791 
L 165.851494 226.886687 
L 167.469532 228.147582 
L 169.125642 230.669373 
L 170.343929 231.930269 
L 172.723396 233.191164 
L 176.778009 234.45206 
L 178.757726 235.712955 
L 179.081334 236.973851 
L 180.870693 238.234746 
L 181.594051 239.495642 
L 182.069945 240.756537 
L 182.088981 242.017433 
L 182.127052 243.278328 
L 184.525555 247.061015 
L 186.295879 248.32191 
L 188.12331 249.582806 
L 188.789561 250.843701 
L 193.738853 252.104597 
L 194.347997 253.365493 
L 195.58532 254.626388 
L 196.080249 255.887284 
L 200.325219 258.409075 
L 200.344255 259.66997 
L 200.705934 259.66997 
L 203.275759 260.930866 
L 205.217405 262.191761 
L 210.166697 263.452657 
L 213.497952 264.713552 
L 216.124884 265.974448 
L 217.857136 267.235343 
L 220.826711 269.757134 
L 222.178249 271.01803 
L 222.71125 272.278925 
L 223.777251 273.539821 
L 224.329288 274.800716 
L 226.708755 276.061612 
L 229.107258 277.322507 
L 231.658047 278.583403 
L 232.476584 279.844299 
L 237.521055 281.105194 
L 237.863699 282.36609 
L 244.96403 283.626985 
L 250.23693 284.887881 
L 257.927369 286.148776 
L 264.608913 288.670567 
L 264.913485 289.931463 
L 269.976992 291.192358 
L 276.944073 292.453254 
L 279.571005 293.714149 
L 279.609077 294.975045 
L 292.382058 296.23594 
L 294.456954 297.496836 
L 305.916469 298.757731 
L 309.304831 300.018627 
L 333.651542 301.279522 
L 335.060187 302.540418 
L 339.171907 303.801313 
L 340.694766 305.062209 
L 398.487273 306.323104 
L 398.487273 306.323104 
L 398.487273 306.323104 
L 340.694766 305.062209 
L 339.171907 303.801313 
L 335.060187 302.540418 
L 333.651542 301.279522 
L 309.304831 300.018627 
L 305.916469 298.757731 
L 294.456954 297.496836 
L 292.382058 296.23594 
L 279.609077 294.975045 
L 279.571005 293.714149 
L 276.944073 292.453254 
L 269.976992 291.192358 
L 264.913485 289.931463 
L 264.608913 288.670567 
L 257.927369 286.148776 
L 250.23693 284.887881 
L 244.96403 283.626985 
L 237.863699 282.36609 
L 237.521055 281.105194 
L 232.476584 279.844299 
L 231.658047 278.583403 
L 229.107258 277.322507 
L 226.708755 276.061612 
L 224.329288 274.800716 
L 223.777251 273.539821 
L 222.71125 272.278925 
L 222.178249 271.01803 
L 220.826711 269.757134 
L 217.857136 267.235343 
L 216.124884 265.974448 
L 213.497952 264.713552 
L 210.166697 263.452657 
L 205.217405 262.191761 
L 203.275759 260.930866 
L 200.705934 259.66997 
L 200.344255 259.66997 
L 200.325219 258.409075 
L 196.080249 255.887284 
L 195.58532 254.626388 
L 194.347997 253.365493 
L 193.738853 252.104597 
L 188.789561 250.843701 
L 188.12331 249.582806 
L 186.295879 248.32191 
L 184.525555 247.061015 
L 182.127052 243.278328 
L 182.088981 242.017433 
L 182.069945 240.756537 
L 181.594051 239.495642 
L 180.870693 238.234746 
L 179.081334 236.973851 
L 178.757726 235.712955 
L 176.778009 234.45206 
L 172.723396 233.191164 
L 170.343929 231.930269 
L 169.125642 230.669373 
L 167.469532 228.147582 
L 165.851494 226.886687 
L 165.013922 225.625791 
L 162.444097 224.364896 
L 162.272775 223.104 
L 160.940273 221.843104 
L 160.807023 219.321313 
L 159.988486 218.060418 
L 157.856484 216.799522 
L 156.181338 214.277731 
L 155.876767 213.016836 
L 155.115337 211.75594 
L 154.049336 210.495045 
L 152.907191 207.973254 
L 152.678762 206.712358 
L 152.564548 205.451463 
L 149.975687 204.190567 
L 149.899544 201.668776 
L 148.62415 200.407881 
L 143.141857 199.146985 
L 142.742106 196.625194 
L 141.923569 194.103403 
L 140.781425 191.581612 
L 140.66721 190.320716 
L 140.058067 189.059821 
L 139.905781 187.798925 
L 139.125315 185.277134 
L 138.230636 184.016239 
L 137.526313 182.755343 
L 135.089739 181.494448 
L 135.070703 180.233552 
L 134.613845 178.972657 
L 130.368875 176.450866 
L 129.664553 175.18997 
L 129.626481 173.929075 
L 129.055409 171.407284 
L 128.541444 168.885493 
L 127.589657 167.624597 
L 127.266049 166.363701 
L 124.505867 162.581015 
L 122.887829 161.320119 
L 122.031221 158.798328 
L 121.517256 157.537433 
L 120.984255 156.276537 
L 120.146683 155.015642 
L 119.252003 153.754746 
L 119.099717 152.493851 
L 117.310357 151.232955 
L 116.777357 149.97206 
L 116.701214 148.711164 
L 116.339535 147.450269 
L 114.378853 146.189373 
L 113.160566 143.667582 
L 113.122495 141.145791 
L 112.418172 139.884896 
L 111.237956 138.624 
L 111.180849 137.363104 
L 111.161813 136.102209 
L 109.619918 134.841313 
L 108.36356 133.580418 
L 107.564059 132.319522 
L 107.449844 131.058627 
L 106.231557 128.536836 
L 104.956162 127.27594 
L 104.499304 126.015045 
L 103.471374 123.493254 
L 103.071624 122.232358 
L 102.881266 120.971463 
L 100.121084 119.710567 
L 99.550012 118.449672 
L 98.331725 117.188776 
L 98.160403 115.927881 
L 97.418009 114.666985 
L 97.132473 112.145194 
L 95.476364 110.884299 
L 94.810113 109.623403 
L 94.619755 108.362507 
L 91.669216 105.840716 
L 91.612108 102.05803 
L 91.478858 100.797134 
L 90.317678 98.275343 
L 88.661569 97.014448 
L 84.549849 93.231761 
L 83.731312 91.970866 
L 82.855668 91.970866 
L 82.570132 91.970866 
L 82.113274 90.70997 
L 81.980024 88.188179 
L 80.476201 88.188179 
L 79.962236 86.927284 
L 79.867057 85.666388 
L 78.953341 85.666388 
L 78.249019 84.405493 
L 76.745195 84.405493 
L 76.174123 84.405493 
L 75.622087 84.405493 
L 75.336551 83.144597 
L 75.298479 81.883701 
L 74.860657 80.622806 
L 74.308621 80.622806 
L 74.232478 80.622806 
L 73.832727 80.622806 
z
" clip-path="url(#pbe772a4d59)" style="fill: #7cfc00"/>
   </g>
   <g id="PolyCollection_3">
    <path d="M 73.832727 54.144 
L 73.832727 80.622806 
L 74.232478 80.622806 
L 74.308621 80.622806 
L 74.860657 80.622806 
L 75.298479 81.883701 
L 75.336551 83.144597 
L 75.622087 84.405493 
L 76.174123 84.405493 
L 76.745195 84.405493 
L 78.249019 84.405493 
L 78.953341 85.666388 
L 79.867057 85.666388 
L 79.962236 86.927284 
L 80.476201 88.188179 
L 81.980024 88.188179 
L 82.113274 90.70997 
L 82.570132 91.970866 
L 82.855668 91.970866 
L 83.731312 91.970866 
L 84.549849 93.231761 
L 88.661569 97.014448 
L 90.317678 98.275343 
L 91.478858 100.797134 
L 91.612108 102.05803 
L 91.669216 105.840716 
L 94.619755 108.362507 
L 94.810113 109.623403 
L 95.476364 110.884299 
L 97.132473 112.145194 
L 97.418009 114.666985 
L 98.160403 115.927881 
L 98.331725 117.188776 
L 99.550012 118.449672 
L 100.121084 119.710567 
L 102.881266 120.971463 
L 103.071624 122.232358 
L 103.471374 123.493254 
L 104.499304 126.015045 
L 104.956162 127.27594 
L 106.231557 128.536836 
L 107.449844 131.058627 
L 107.564059 132.319522 
L 108.36356 133.580418 
L 109.619918 134.841313 
L 111.161813 136.102209 
L 111.180849 137.363104 
L 111.237956 138.624 
L 112.418172 139.884896 
L 113.122495 141.145791 
L 113.160566 143.667582 
L 114.378853 146.189373 
L 116.339535 147.450269 
L 116.701214 148.711164 
L 116.777357 149.97206 
L 117.310357 151.232955 
L 119.099717 152.493851 
L 119.252003 153.754746 
L 120.146683 155.015642 
L 120.984255 156.276537 
L 121.517256 157.537433 
L 122.031221 158.798328 
L 122.887829 161.320119 
L 124.505867 162.581015 
L 127.266049 166.363701 
L 127.589657 167.624597 
L 128.541444 168.885493 
L 129.055409 171.407284 
L 129.626481 173.929075 
L 129.664553 175.18997 
L 130.368875 176.450866 
L 134.613845 178.972657 
L 135.070703 180.233552 
L 135.089739 181.494448 
L 137.526313 182.755343 
L 138.230636 184.016239 
L 139.125315 185.277134 
L 139.905781 187.798925 
L 140.058067 189.059821 
L 140.66721 190.320716 
L 140.781425 191.581612 
L 141.923569 194.103403 
L 142.742106 196.625194 
L 143.141857 199.146985 
L 148.62415 200.407881 
L 149.899544 201.668776 
L 149.975687 204.190567 
L 152.564548 205.451463 
L 152.678762 206.712358 
L 152.907191 207.973254 
L 154.049336 210.495045 
L 155.115337 211.75594 
L 155.876767 213.016836 
L 156.181338 214.277731 
L 157.856484 216.799522 
L 159.988486 218.060418 
L 160.807023 219.321313 
L 160.940273 221.843104 
L 162.272775 223.104 
L 162.444097 224.364896 
L 165.013922 225.625791 
L 165.851494 226.886687 
L 167.469532 228.147582 
L 169.125642 230.669373 
L 170.343929 231.930269 
L 172.723396 233.191164 
L 176.778009 234.45206 
L 178.757726 235.712955 
L 179.081334 236.973851 
L 180.870693 238.234746 
L 181.594051 239.495642 
L 182.069945 240.756537 
L 182.088981 242.017433 
L 182.127052 243.278328 
L 184.525555 247.061015 
L 186.295879 248.32191 
L 188.12331 249.582806 
L 188.789561 250.843701 
L 193.738853 252.104597 
L 194.347997 253.365493 
L 195.58532 254.626388 
L 196.080249 255.887284 
L 200.325219 258.409075 
L 200.344255 259.66997 
L 200.705934 259.66997 
L 203.275759 260.930866 
L 205.217405 262.191761 
L 210.166697 263.452657 
L 213.497952 264.713552 
L 216.124884 265.974448 
L 217.857136 267.235343 
L 220.826711 269.757134 
L 222.178249 271.01803 
L 222.71125 272.278925 
L 223.777251 273.539821 
L 224.329288 274.800716 
L 226.708755 276.061612 
L 229.107258 277.322507 
L 231.658047 278.583403 
L 232.476584 279.844299 
L 237.521055 281.105194 
L 237.863699 282.36609 
L 244.96403 283.626985 
L 250.23693 284.887881 
L 257.927369 286.148776 
L 264.608913 288.670567 
L 264.913485 289.931463 
L 269.976992 291.192358 
L 276.944073 292.453254 
L 279.571005 293.714149 
L 279.609077 294.975045 
L 292.382058 296.23594 
L 294.456954 297.496836 
L 305.916469 298.757731 
L 309.304831 300.018627 
L 333.651542 301.279522 
L 335.060187 302.540418 
L 339.171907 303.801313 
L 340.694766 305.062209 
L 398.487273 306.323104 
L 398.487273 306.323104 
L 398.487273 306.323104 
L 340.694766 305.062209 
L 339.171907 303.801313 
L 335.060187 302.540418 
L 333.651542 301.279522 
L 309.304831 300.018627 
L 305.916469 298.757731 
L 294.456954 297.496836 
L 292.382058 296.23594 
L 279.609077 294.975045 
L 279.571005 293.714149 
L 276.944073 292.453254 
L 269.976992 291.192358 
L 264.913485 289.931463 
L 264.608913 288.670567 
L 257.927369 286.148776 
L 250.23693 284.887881 
L 244.96403 283.626985 
L 237.863699 282.36609 
L 237.521055 281.105194 
L 232.476584 279.844299 
L 231.658047 278.583403 
L 229.107258 277.322507 
L 226.708755 276.061612 
L 224.329288 274.800716 
L 223.777251 273.539821 
L 222.71125 272.278925 
L 222.178249 271.01803 
L 220.826711 269.757134 
L 217.857136 267.235343 
L 216.124884 265.974448 
L 213.497952 264.713552 
L 210.166697 263.452657 
L 205.217405 262.191761 
L 203.275759 260.930866 
L 200.705934 259.66997 
L 200.344255 258.409075 
L 200.325219 257.148179 
L 196.080249 254.626388 
L 195.58532 253.365493 
L 194.347997 252.104597 
L 193.738853 250.843701 
L 188.789561 249.582806 
L 188.12331 248.32191 
L 186.295879 247.061015 
L 184.525555 245.800119 
L 182.127052 242.017433 
L 182.088981 240.756537 
L 182.069945 239.495642 
L 181.594051 238.234746 
L 180.870693 236.973851 
L 179.081334 235.712955 
L 178.757726 234.45206 
L 176.778009 233.191164 
L 172.723396 231.930269 
L 170.343929 230.669373 
L 169.125642 229.408478 
L 167.469532 226.886687 
L 165.851494 224.364896 
L 165.013922 223.104 
L 162.444097 221.843104 
L 162.272775 220.582209 
L 160.940273 219.321313 
L 160.807023 216.799522 
L 159.988486 215.538627 
L 157.856484 214.277731 
L 156.181338 211.75594 
L 155.876767 210.495045 
L 155.115337 209.234149 
L 154.049336 207.973254 
L 152.907191 205.451463 
L 152.678762 204.190567 
L 152.564548 202.929672 
L 149.975687 201.668776 
L 149.899544 199.146985 
L 148.62415 197.88609 
L 143.141857 196.625194 
L 142.742106 194.103403 
L 141.923569 191.581612 
L 140.781425 189.059821 
L 140.66721 187.798925 
L 140.058067 186.53803 
L 139.905781 185.277134 
L 139.125315 182.755343 
L 138.230636 181.494448 
L 137.526313 180.233552 
L 135.089739 178.972657 
L 135.070703 177.711761 
L 134.613845 176.450866 
L 130.368875 173.929075 
L 129.664553 171.407284 
L 129.626481 170.146388 
L 129.055409 167.624597 
L 128.541444 165.102806 
L 127.589657 163.84191 
L 127.266049 162.581015 
L 124.505867 158.798328 
L 122.887829 157.537433 
L 122.031221 152.493851 
L 121.517256 151.232955 
L 120.984255 149.97206 
L 120.146683 148.711164 
L 119.252003 146.189373 
L 119.099717 144.928478 
L 117.310357 143.667582 
L 116.777357 142.406687 
L 116.701214 141.145791 
L 116.339535 139.884896 
L 114.378853 138.624 
L 113.160566 136.102209 
L 113.122495 133.580418 
L 112.418172 132.319522 
L 111.237956 131.058627 
L 111.180849 129.797731 
L 111.161813 128.536836 
L 109.619918 127.27594 
L 108.36356 126.015045 
L 107.564059 124.754149 
L 107.449844 123.493254 
L 106.231557 120.971463 
L 104.956162 119.710567 
L 104.499304 118.449672 
L 103.471374 114.666985 
L 103.071624 113.40609 
L 102.881266 112.145194 
L 100.121084 110.884299 
L 99.550012 109.623403 
L 98.331725 108.362507 
L 98.160403 107.101612 
L 97.418009 105.840716 
L 97.132473 103.318925 
L 95.476364 102.05803 
L 94.810113 100.797134 
L 94.619755 99.536239 
L 91.669216 97.014448 
L 91.612108 91.970866 
L 91.478858 90.70997 
L 90.317678 88.188179 
L 88.661569 86.927284 
L 84.549849 83.144597 
L 83.731312 81.883701 
L 82.855668 80.622806 
L 82.570132 79.36191 
L 82.113274 78.101015 
L 81.980024 75.579224 
L 80.476201 74.318328 
L 79.962236 73.057433 
L 79.867057 71.796537 
L 78.953341 70.535642 
L 78.249019 69.274746 
L 76.745195 68.013851 
L 76.174123 65.49206 
L 75.622087 64.231164 
L 75.336551 61.709373 
L 75.298479 60.448478 
L 74.860657 59.187582 
L 74.308621 57.926687 
L 74.232478 55.404896 
L 73.832727 54.144 
z
" clip-path="url(#pbe772a4d59)" style="fill: #ff0000"/>
   </g>
   <g id="matplotlib.axis_1">
    <g id="xtick_1">
     <g id="line2d_1">
      <defs>
       <path id="m103b3cf44b" d="M 0 0 
L 0 3.5 
" style="stroke: #000000; stroke-width: 0.8"/>
      </defs>
      <g>
       <use xlink:href="#m103b3cf44b" x="80.875951" y="307.584" style="stroke: #000000; stroke-width: 0.8"/>
      </g>
     </g>
     <g id="text_1">
      <!-- 25 -->
      <g transform="translate(74.513451 322.182437) scale(0.1 -0.1)">
       <defs>
        <path id="DejaVuSans-32" d="M 1228 531 
L 3431 531 
L 3431 0 
L 469 0 
L 469 531 
Q 828 903 1448 1529 
Q 2069 2156 2228 2338 
Q 2531 2678 2651 2914 
Q 2772 3150 2772 3378 
Q 2772 3750 2511 3984 
Q 2250 4219 1831 4219 
Q 1534 4219 1204 4116 
Q 875 4013 500 3803 
L 500 4441 
Q 881 4594 1212 4672 
Q 1544 4750 1819 4750 
Q 2544 4750 2975 4387 
Q 3406 4025 3406 3419 
Q 3406 3131 3298 2873 
Q 3191 2616 2906 2266 
Q 2828 2175 2409 1742 
Q 1991 1309 1228 531 
z
" transform="scale(0.015625)"/>
        <path id="DejaVuSans-35" d="M 691 4666 
L 3169 4666 
L 3169 4134 
L 1269 4134 
L 1269 2991 
Q 1406 3038 1543 3061 
Q 1681 3084 1819 3084 
Q 2600 3084 3056 2656 
Q 3513 2228 3513 1497 
Q 3513 744 3044 326 
Q 2575 -91 1722 -91 
Q 1428 -91 1123 -41 
Q 819 9 494 109 
L 494 744 
Q 775 591 1075 516 
Q 1375 441 1709 441 
Q 2250 441 2565 725 
Q 2881 1009 2881 1497 
Q 2881 1984 2565 2268 
Q 2250 2553 1709 2553 
Q 1456 2553 1204 2497 
Q 953 2441 691 2322 
L 691 4666 
z
" transform="scale(0.015625)"/>
       </defs>
       <use xlink:href="#DejaVuSans-32"/>
       <use xlink:href="#DejaVuSans-35" x="63.623047"/>
      </g>
     </g>
    </g>
    <g id="xtick_2">
     <g id="line2d_2">
      <g>
       <use xlink:href="#m103b3cf44b" x="128.465301" y="307.584" style="stroke: #000000; stroke-width: 0.8"/>
      </g>
     </g>
     <g id="text_2">
      <!-- 50 -->
      <g transform="translate(122.102801 322.182437) scale(0.1 -0.1)">
       <defs>
        <path id="DejaVuSans-30" d="M 2034 4250 
Q 1547 4250 1301 3770 
Q 1056 3291 1056 2328 
Q 1056 1369 1301 889 
Q 1547 409 2034 409 
Q 2525 409 2770 889 
Q 3016 1369 3016 2328 
Q 3016 3291 2770 3770 
Q 2525 4250 2034 4250 
z
M 2034 4750 
Q 2819 4750 3233 4129 
Q 3647 3509 3647 2328 
Q 3647 1150 3233 529 
Q 2819 -91 2034 -91 
Q 1250 -91 836 529 
Q 422 1150 422 2328 
Q 422 3509 836 4129 
Q 1250 4750 2034 4750 
z
" transform="scale(0.015625)"/>
       </defs>
       <use xlink:href="#DejaVuSans-35"/>
       <use xlink:href="#DejaVuSans-30" x="63.623047"/>
      </g>
     </g>
    </g>
    <g id="xtick_3">
     <g id="line2d_3">
      <g>
       <use xlink:href="#m103b3cf44b" x="176.054651" y="307.584" style="stroke: #000000; stroke-width: 0.8"/>
      </g>
     </g>
     <g id="text_3">
      <!-- 75 -->
      <g transform="translate(169.692151 322.182437) scale(0.1 -0.1)">
       <defs>
        <path id="DejaVuSans-37" d="M 525 4666 
L 3525 4666 
L 3525 4397 
L 1831 0 
L 1172 0 
L 2766 4134 
L 525 4134 
L 525 4666 
z
" transform="scale(0.015625)"/>
       </defs>
       <use xlink:href="#DejaVuSans-37"/>
       <use xlink:href="#DejaVuSans-35" x="63.623047"/>
      </g>
     </g>
    </g>
    <g id="xtick_4">
     <g id="line2d_4">
      <g>
       <use xlink:href="#m103b3cf44b" x="223.644001" y="307.584" style="stroke: #000000; stroke-width: 0.8"/>
      </g>
     </g>
     <g id="text_4">
      <!-- 100 -->
      <g transform="translate(214.100251 322.182437) scale(0.1 -0.1)">
       <defs>
        <path id="DejaVuSans-31" d="M 794 531 
L 1825 531 
L 1825 4091 
L 703 3866 
L 703 4441 
L 1819 4666 
L 2450 4666 
L 2450 531 
L 3481 531 
L 3481 0 
L 794 0 
L 794 531 
z
" transform="scale(0.015625)"/>
       </defs>
       <use xlink:href="#DejaVuSans-31"/>
       <use xlink:href="#DejaVuSans-30" x="63.623047"/>
       <use xlink:href="#DejaVuSans-30" x="127.246094"/>
      </g>
     </g>
    </g>
    <g id="xtick_5">
     <g id="line2d_5">
      <g>
       <use xlink:href="#m103b3cf44b" x="271.233351" y="307.584" style="stroke: #000000; stroke-width: 0.8"/>
      </g>
     </g>
     <g id="text_5">
      <!-- 125 -->
      <g transform="translate(261.689601 322.182437) scale(0.1 -0.1)">
       <use xlink:href="#DejaVuSans-31"/>
       <use xlink:href="#DejaVuSans-32" x="63.623047"/>
       <use xlink:href="#DejaVuSans-35" x="127.246094"/>
      </g>
     </g>
    </g>
    <g id="xtick_6">
     <g id="line2d_6">
      <g>
       <use xlink:href="#m103b3cf44b" x="318.822701" y="307.584" style="stroke: #000000; stroke-width: 0.8"/>
      </g>
     </g>
     <g id="text_6">
      <!-- 150 -->
      <g transform="translate(309.278951 322.182437) scale(0.1 -0.1)">
       <use xlink:href="#DejaVuSans-31"/>
       <use xlink:href="#DejaVuSans-35" x="63.623047"/>
       <use xlink:href="#DejaVuSans-30" x="127.246094"/>
      </g>
     </g>
    </g>
    <g id="xtick_7">
     <g id="line2d_7">
      <g>
       <use xlink:href="#m103b3cf44b" x="366.412051" y="307.584" style="stroke: #000000; stroke-width: 0.8"/>
      </g>
     </g>
     <g id="text_7">
      <!-- 175 -->
      <g transform="translate(356.868301 322.182437) scale(0.1 -0.1)">
       <use xlink:href="#DejaVuSans-31"/>
       <use xlink:href="#DejaVuSans-37" x="63.623047"/>
       <use xlink:href="#DejaVuSans-35" x="127.246094"/>
      </g>
     </g>
    </g>
    <g id="xtick_8">
     <g id="line2d_8">
      <g>
       <use xlink:href="#m103b3cf44b" x="414.001401" y="307.584" style="stroke: #000000; stroke-width: 0.8"/>
      </g>
     </g>
     <g id="text_8">
      <!-- 200 -->
      <g transform="translate(404.457651 322.182437) scale(0.1 -0.1)">
       <use xlink:href="#DejaVuSans-32"/>
       <use xlink:href="#DejaVuSans-30" x="63.623047"/>
       <use xlink:href="#DejaVuSans-30" x="127.246094"/>
      </g>
     </g>
    </g>
    <g id="text_9">
     <!-- Score -->
     <g transform="translate(222.157656 335.860562) scale(0.1 -0.1)">
      <defs>
       <path id="DejaVuSans-53" d="M 3425 4513 
L 3425 3897 
Q 3066 4069 2747 4153 
Q 2428 4238 2131 4238 
Q 1616 4238 1336 4038 
Q 1056 3838 1056 3469 
Q 1056 3159 1242 3001 
Q 1428 2844 1947 2747 
L 2328 2669 
Q 3034 2534 3370 2195 
Q 3706 1856 3706 1288 
Q 3706 609 3251 259 
Q 2797 -91 1919 -91 
Q 1588 -91 1214 -16 
Q 841 59 441 206 
L 441 856 
Q 825 641 1194 531 
Q 1563 422 1919 422 
Q 2459 422 2753 634 
Q 3047 847 3047 1241 
Q 3047 1584 2836 1778 
Q 2625 1972 2144 2069 
L 1759 2144 
Q 1053 2284 737 2584 
Q 422 2884 422 3419 
Q 422 4038 858 4394 
Q 1294 4750 2059 4750 
Q 2388 4750 2728 4690 
Q 3069 4631 3425 4513 
z
" transform="scale(0.015625)"/>
       <path id="DejaVuSans-63" d="M 3122 3366 
L 3122 2828 
Q 2878 2963 2633 3030 
Q 2388 3097 2138 3097 
Q 1578 3097 1268 2742 
Q 959 2388 959 1747 
Q 959 1106 1268 751 
Q 1578 397 2138 397 
Q 2388 397 2633 464 
Q 2878 531 3122 666 
L 3122 134 
Q 2881 22 2623 -34 
Q 2366 -91 2075 -91 
Q 1284 -91 818 406 
Q 353 903 353 1747 
Q 353 2603 823 3093 
Q 1294 3584 2113 3584 
Q 2378 3584 2631 3529 
Q 2884 3475 3122 3366 
z
" transform="scale(0.015625)"/>
       <path id="DejaVuSans-6f" d="M 1959 3097 
Q 1497 3097 1228 2736 
Q 959 2375 959 1747 
Q 959 1119 1226 758 
Q 1494 397 1959 397 
Q 2419 397 2687 759 
Q 2956 1122 2956 1747 
Q 2956 2369 2687 2733 
Q 2419 3097 1959 3097 
z
M 1959 3584 
Q 2709 3584 3137 3096 
Q 3566 2609 3566 1747 
Q 3566 888 3137 398 
Q 2709 -91 1959 -91 
Q 1206 -91 779 398 
Q 353 888 353 1747 
Q 353 2609 779 3096 
Q 1206 3584 1959 3584 
z
" transform="scale(0.015625)"/>
       <path id="DejaVuSans-72" d="M 2631 2963 
Q 2534 3019 2420 3045 
Q 2306 3072 2169 3072 
Q 1681 3072 1420 2755 
Q 1159 2438 1159 1844 
L 1159 0 
L 581 0 
L 581 3500 
L 1159 3500 
L 1159 2956 
Q 1341 3275 1631 3429 
Q 1922 3584 2338 3584 
Q 2397 3584 2469 3576 
Q 2541 3569 2628 3553 
L 2631 2963 
z
" transform="scale(0.015625)"/>
       <path id="DejaVuSans-65" d="M 3597 1894 
L 3597 1613 
L 953 1613 
Q 991 1019 1311 708 
Q 1631 397 2203 397 
Q 2534 397 2845 478 
Q 3156 559 3463 722 
L 3463 178 
Q 3153 47 2828 -22 
Q 2503 -91 2169 -91 
Q 1331 -91 842 396 
Q 353 884 353 1716 
Q 353 2575 817 3079 
Q 1281 3584 2069 3584 
Q 2775 3584 3186 3129 
Q 3597 2675 3597 1894 
z
M 3022 2063 
Q 3016 2534 2758 2815 
Q 2500 3097 2075 3097 
Q 1594 3097 1305 2825 
Q 1016 2553 972 2059 
L 3022 2063 
z
" transform="scale(0.015625)"/>
      </defs>
      <use xlink:href="#DejaVuSans-53"/>
      <use xlink:href="#DejaVuSans-63" x="63.476562"/>
      <use xlink:href="#DejaVuSans-6f" x="118.457031"/>
      <use xlink:href="#DejaVuSans-72" x="179.638672"/>
      <use xlink:href="#DejaVuSans-65" x="218.501953"/>
     </g>
    </g>
   </g>
   <g id="matplotlib.axis_2">
    <g id="ytick_1">
     <g id="line2d_9">
      <defs>
       <path id="m1de70fc5a0" d="M 0 0 
L -3.5 0 
" style="stroke: #000000; stroke-width: 0.8"/>
      </defs>
      <g>
       <use xlink:href="#m1de70fc5a0" x="57.6" y="307.584" style="stroke: #000000; stroke-width: 0.8"/>
      </g>
     </g>
     <g id="text_10">
      <!-- 0 -->
      <g transform="translate(44.2375 311.383219) scale(0.1 -0.1)">
       <use xlink:href="#DejaVuSans-30"/>
      </g>
     </g>
    </g>
    <g id="ytick_2">
     <g id="line2d_10">
      <g>
       <use xlink:href="#m1de70fc5a0" x="57.6" y="276.061612" style="stroke: #000000; stroke-width: 0.8"/>
      </g>
     </g>
     <g id="text_11">
      <!-- 25 -->
      <g transform="translate(37.875 279.860831) scale(0.1 -0.1)">
       <use xlink:href="#DejaVuSans-32"/>
       <use xlink:href="#DejaVuSans-35" x="63.623047"/>
      </g>
     </g>
    </g>
    <g id="ytick_3">
     <g id="line2d_11">
      <g>
       <use xlink:href="#m1de70fc5a0" x="57.6" y="244.539224" style="stroke: #000000; stroke-width: 0.8"/>
      </g>
     </g>
     <g id="text_12">
      <!-- 50 -->
      <g transform="translate(37.875 248.338443) scale(0.1 -0.1)">
       <use xlink:href="#DejaVuSans-35"/>
       <use xlink:href="#DejaVuSans-30" x="63.623047"/>
      </g>
     </g>
    </g>
    <g id="ytick_4">
     <g id="line2d_12">
      <g>
       <use xlink:href="#m1de70fc5a0" x="57.6" y="213.016836" style="stroke: #000000; stroke-width: 0.8"/>
      </g>
     </g>
     <g id="text_13">
      <!-- 75 -->
      <g transform="translate(37.875 216.816055) scale(0.1 -0.1)">
       <use xlink:href="#DejaVuSans-37"/>
       <use xlink:href="#DejaVuSans-35" x="63.623047"/>
      </g>
     </g>
    </g>
    <g id="ytick_5">
     <g id="line2d_13">
      <g>
       <use xlink:href="#m1de70fc5a0" x="57.6" y="181.494448" style="stroke: #000000; stroke-width: 0.8"/>
      </g>
     </g>
     <g id="text_14">
      <!-- 100 -->
      <g transform="translate(31.5125 185.293667) scale(0.1 -0.1)">
       <use xlink:href="#DejaVuSans-31"/>
       <use xlink:href="#DejaVuSans-30" x="63.623047"/>
       <use xlink:href="#DejaVuSans-30" x="127.246094"/>
      </g>
     </g>
    </g>
    <g id="ytick_6">
     <g id="line2d_14">
      <g>
       <use xlink:href="#m1de70fc5a0" x="57.6" y="149.97206" style="stroke: #000000; stroke-width: 0.8"/>
      </g>
     </g>
     <g id="text_15">
      <!-- 125 -->
      <g transform="translate(31.5125 153.771278) scale(0.1 -0.1)">
       <use xlink:href="#DejaVuSans-31"/>
       <use xlink:href="#DejaVuSans-32" x="63.623047"/>
       <use xlink:href="#DejaVuSans-35" x="127.246094"/>
      </g>
     </g>
    </g>
    <g id="ytick_7">
     <g id="line2d_15">
      <g>
       <use xlink:href="#m1de70fc5a0" x="57.6" y="118.449672" style="stroke: #000000; stroke-width: 0.8"/>
      </g>
     </g>
     <g id="text_16">
      <!-- 150 -->
      <g transform="translate(31.5125 122.24889) scale(0.1 -0.1)">
       <use xlink:href="#DejaVuSans-31"/>
       <use xlink:href="#DejaVuSans-35" x="63.623047"/>
       <use xlink:href="#DejaVuSans-30" x="127.246094"/>
      </g>
     </g>
    </g>
    <g id="ytick_8">
     <g id="line2d_16">
      <g>
       <use xlink:href="#m1de70fc5a0" x="57.6" y="86.927284" style="stroke: #000000; stroke-width: 0.8"/>
      </g>
     </g>
     <g id="text_17">
      <!-- 175 -->
      <g transform="translate(31.5125 90.726502) scale(0.1 -0.1)">
       <use xlink:href="#DejaVuSans-31"/>
       <use xlink:href="#DejaVuSans-37" x="63.623047"/>
       <use xlink:href="#DejaVuSans-35" x="127.246094"/>
      </g>
     </g>
    </g>
    <g id="ytick_9">
     <g id="line2d_17">
      <g>
       <use xlink:href="#m1de70fc5a0" x="57.6" y="55.404896" style="stroke: #000000; stroke-width: 0.8"/>
      </g>
     </g>
     <g id="text_18">
      <!-- 200 -->
      <g transform="translate(31.5125 59.204114) scale(0.1 -0.1)">
       <use xlink:href="#DejaVuSans-32"/>
       <use xlink:href="#DejaVuSans-30" x="63.623047"/>
       <use xlink:href="#DejaVuSans-30" x="127.246094"/>
      </g>
     </g>
    </g>
    <g id="text_19">
     <!-- Number of crosslinks -->
     <g transform="translate(25.432812 227.019406) rotate(-90) scale(0.1 -0.1)">
      <defs>
       <path id="DejaVuSans-4e" d="M 628 4666 
L 1478 4666 
L 3547 763 
L 3547 4666 
L 4159 4666 
L 4159 0 
L 3309 0 
L 1241 3903 
L 1241 0 
L 628 0 
L 628 4666 
z
" transform="scale(0.015625)"/>
       <path id="DejaVuSans-75" d="M 544 1381 
L 544 3500 
L 1119 3500 
L 1119 1403 
Q 1119 906 1312 657 
Q 1506 409 1894 409 
Q 2359 409 2629 706 
Q 2900 1003 2900 1516 
L 2900 3500 
L 3475 3500 
L 3475 0 
L 2900 0 
L 2900 538 
Q 2691 219 2414 64 
Q 2138 -91 1772 -91 
Q 1169 -91 856 284 
Q 544 659 544 1381 
z
M 1991 3584 
L 1991 3584 
z
" transform="scale(0.015625)"/>
       <path id="DejaVuSans-6d" d="M 3328 2828 
Q 3544 3216 3844 3400 
Q 4144 3584 4550 3584 
Q 5097 3584 5394 3201 
Q 5691 2819 5691 2113 
L 5691 0 
L 5113 0 
L 5113 2094 
Q 5113 2597 4934 2840 
Q 4756 3084 4391 3084 
Q 3944 3084 3684 2787 
Q 3425 2491 3425 1978 
L 3425 0 
L 2847 0 
L 2847 2094 
Q 2847 2600 2669 2842 
Q 2491 3084 2119 3084 
Q 1678 3084 1418 2786 
Q 1159 2488 1159 1978 
L 1159 0 
L 581 0 
L 581 3500 
L 1159 3500 
L 1159 2956 
Q 1356 3278 1631 3431 
Q 1906 3584 2284 3584 
Q 2666 3584 2933 3390 
Q 3200 3197 3328 2828 
z
" transform="scale(0.015625)"/>
       <path id="DejaVuSans-62" d="M 3116 1747 
Q 3116 2381 2855 2742 
Q 2594 3103 2138 3103 
Q 1681 3103 1420 2742 
Q 1159 2381 1159 1747 
Q 1159 1113 1420 752 
Q 1681 391 2138 391 
Q 2594 391 2855 752 
Q 3116 1113 3116 1747 
z
M 1159 2969 
Q 1341 3281 1617 3432 
Q 1894 3584 2278 3584 
Q 2916 3584 3314 3078 
Q 3713 2572 3713 1747 
Q 3713 922 3314 415 
Q 2916 -91 2278 -91 
Q 1894 -91 1617 61 
Q 1341 213 1159 525 
L 1159 0 
L 581 0 
L 581 4863 
L 1159 4863 
L 1159 2969 
z
" transform="scale(0.015625)"/>
       <path id="DejaVuSans-20" transform="scale(0.015625)"/>
       <path id="DejaVuSans-66" d="M 2375 4863 
L 2375 4384 
L 1825 4384 
Q 1516 4384 1395 4259 
Q 1275 4134 1275 3809 
L 1275 3500 
L 2222 3500 
L 2222 3053 
L 1275 3053 
L 1275 0 
L 697 0 
L 697 3053 
L 147 3053 
L 147 3500 
L 697 3500 
L 697 3744 
Q 697 4328 969 4595 
Q 1241 4863 1831 4863 
L 2375 4863 
z
" transform="scale(0.015625)"/>
       <path id="DejaVuSans-73" d="M 2834 3397 
L 2834 2853 
Q 2591 2978 2328 3040 
Q 2066 3103 1784 3103 
Q 1356 3103 1142 2972 
Q 928 2841 928 2578 
Q 928 2378 1081 2264 
Q 1234 2150 1697 2047 
L 1894 2003 
Q 2506 1872 2764 1633 
Q 3022 1394 3022 966 
Q 3022 478 2636 193 
Q 2250 -91 1575 -91 
Q 1294 -91 989 -36 
Q 684 19 347 128 
L 347 722 
Q 666 556 975 473 
Q 1284 391 1588 391 
Q 1994 391 2212 530 
Q 2431 669 2431 922 
Q 2431 1156 2273 1281 
Q 2116 1406 1581 1522 
L 1381 1569 
Q 847 1681 609 1914 
Q 372 2147 372 2553 
Q 372 3047 722 3315 
Q 1072 3584 1716 3584 
Q 2034 3584 2315 3537 
Q 2597 3491 2834 3397 
z
" transform="scale(0.015625)"/>
       <path id="DejaVuSans-6c" d="M 603 4863 
L 1178 4863 
L 1178 0 
L 603 0 
L 603 4863 
z
" transform="scale(0.015625)"/>
       <path id="DejaVuSans-69" d="M 603 3500 
L 1178 3500 
L 1178 0 
L 603 0 
L 603 3500 
z
M 603 4863 
L 1178 4863 
L 1178 4134 
L 603 4134 
L 603 4863 
z
" transform="scale(0.015625)"/>
       <path id="DejaVuSans-6e" d="M 3513 2113 
L 3513 0 
L 2938 0 
L 2938 2094 
Q 2938 2591 2744 2837 
Q 2550 3084 2163 3084 
Q 1697 3084 1428 2787 
Q 1159 2491 1159 1978 
L 1159 0 
L 581 0 
L 581 3500 
L 1159 3500 
L 1159 2956 
Q 1366 3272 1645 3428 
Q 1925 3584 2291 3584 
Q 2894 3584 3203 3211 
Q 3513 2838 3513 2113 
z
" transform="scale(0.015625)"/>
       <path id="DejaVuSans-6b" d="M 581 4863 
L 1159 4863 
L 1159 1991 
L 2875 3500 
L 3609 3500 
L 1753 1863 
L 3688 0 
L 2938 0 
L 1159 1709 
L 1159 0 
L 581 0 
L 581 4863 
z
" transform="scale(0.015625)"/>
      </defs>
      <use xlink:href="#DejaVuSans-4e"/>
      <use xlink:href="#DejaVuSans-75" x="74.804688"/>
      <use xlink:href="#DejaVuSans-6d" x="138.183594"/>
      <use xlink:href="#DejaVuSans-62" x="235.595703"/>
      <use xlink:href="#DejaVuSans-65" x="299.072266"/>
      <use xlink:href="#DejaVuSans-72" x="360.595703"/>
      <use xlink:href="#DejaVuSans-20" x="401.708984"/>
      <use xlink:href="#DejaVuSans-6f" x="433.496094"/>
      <use xlink:href="#DejaVuSans-66" x="494.677734"/>
      <use xlink:href="#DejaVuSans-20" x="529.882812"/>
      <use xlink:href="#DejaVuSans-63" x="561.669922"/>
      <use xlink:href="#DejaVuSans-72" x="616.650391"/>
      <use xlink:href="#DejaVuSans-6f" x="655.513672"/>
      <use xlink:href="#DejaVuSans-73" x="716.695312"/>
      <use xlink:href="#DejaVuSans-73" x="768.794922"/>
      <use xlink:href="#DejaVuSans-6c" x="820.894531"/>
      <use xlink:href="#DejaVuSans-69" x="848.677734"/>
      <use xlink:href="#DejaVuSans-6e" x="876.460938"/>
      <use xlink:href="#DejaVuSans-6b" x="939.839844"/>
      <use xlink:href="#DejaVuSans-73" x="997.75"/>
     </g>
    </g>
   </g>
   <g id="patch_3">
    <path d="M 57.6 307.584 
L 57.6 41.472 
" style="fill: none; stroke: #000000; stroke-width: 0.8; stroke-linejoin: miter; stroke-linecap: square"/>
   </g>
   <g id="patch_4">
    <path d="M 414.72 307.584 
L 414.72 41.472 
" style="fill: none; stroke: #000000; stroke-width: 0.8; stroke-linejoin: miter; stroke-linecap: square"/>
   </g>
   <g id="patch_5">
    <path d="M 57.6 307.584 
L 414.72 307.584 
" style="fill: none; stroke: #000000; stroke-width: 0.8; stroke-linejoin: miter; stroke-linecap: square"/>
   </g>
   <g id="patch_6">
    <path d="M 57.6 41.472 
L 414.72 41.472 
" style="fill: none; stroke: #000000; stroke-width: 0.8; stroke-linejoin: miter; stroke-linecap: square"/>
   </g>
   <g id="legend_1">
    <g id="patch_7">
     <path d="M 278.598125 93.506375 
L 407.72 93.506375 
Q 409.72 93.506375 409.72 91.506375 
L 409.72 48.472 
Q 409.72 46.472 407.72 46.472 
L 278.598125 46.472 
Q 276.598125 46.472 276.598125 48.472 
L 276.598125 91.506375 
Q 276.598125 93.506375 278.598125 93.506375 
z
" style="fill: #ffffff; opacity: 0.8; stroke: #cccccc; stroke-linejoin: miter"/>
    </g>
    <g id="patch_8">
     <path d="M 280.598125 58.070438 
L 300.598125 58.070438 
L 300.598125 51.070438 
L 280.598125 51.070438 
z
" style="fill: #008000"/>
    </g>
    <g id="text_20">
     <!-- correct -->
     <g transform="translate(308.598125 58.070438) scale(0.1 -0.1)">
      <defs>
       <path id="DejaVuSans-74" d="M 1172 4494 
L 1172 3500 
L 2356 3500 
L 2356 3053 
L 1172 3053 
L 1172 1153 
Q 1172 725 1289 603 
Q 1406 481 1766 481 
L 2356 481 
L 2356 0 
L 1766 0 
Q 1100 0 847 248 
Q 594 497 594 1153 
L 594 3053 
L 172 3053 
L 172 3500 
L 594 3500 
L 594 4494 
L 1172 4494 
z
" transform="scale(0.015625)"/>
      </defs>
      <use xlink:href="#DejaVuSans-63"/>
      <use xlink:href="#DejaVuSans-6f" x="54.980469"/>
      <use xlink:href="#DejaVuSans-72" x="116.162109"/>
      <use xlink:href="#DejaVuSans-72" x="155.525391"/>
      <use xlink:href="#DejaVuSans-65" x="194.388672"/>
      <use xlink:href="#DejaVuSans-63" x="255.912109"/>
      <use xlink:href="#DejaVuSans-74" x="310.892578"/>
     </g>
    </g>
    <g id="patch_9">
     <path d="M 280.598125 72.748563 
L 300.598125 72.748563 
L 300.598125 65.748563 
L 280.598125 65.748563 
z
" style="fill: #7cfc00"/>
    </g>
    <g id="text_21">
     <!-- correct homeotypic -->
     <g transform="translate(308.598125 72.748563) scale(0.1 -0.1)">
      <defs>
       <path id="DejaVuSans-68" d="M 3513 2113 
L 3513 0 
L 2938 0 
L 2938 2094 
Q 2938 2591 2744 2837 
Q 2550 3084 2163 3084 
Q 1697 3084 1428 2787 
Q 1159 2491 1159 1978 
L 1159 0 
L 581 0 
L 581 4863 
L 1159 4863 
L 1159 2956 
Q 1366 3272 1645 3428 
Q 1925 3584 2291 3584 
Q 2894 3584 3203 3211 
Q 3513 2838 3513 2113 
z
" transform="scale(0.015625)"/>
       <path id="DejaVuSans-79" d="M 2059 -325 
Q 1816 -950 1584 -1140 
Q 1353 -1331 966 -1331 
L 506 -1331 
L 506 -850 
L 844 -850 
Q 1081 -850 1212 -737 
Q 1344 -625 1503 -206 
L 1606 56 
L 191 3500 
L 800 3500 
L 1894 763 
L 2988 3500 
L 3597 3500 
L 2059 -325 
z
" transform="scale(0.015625)"/>
       <path id="DejaVuSans-70" d="M 1159 525 
L 1159 -1331 
L 581 -1331 
L 581 3500 
L 1159 3500 
L 1159 2969 
Q 1341 3281 1617 3432 
Q 1894 3584 2278 3584 
Q 2916 3584 3314 3078 
Q 3713 2572 3713 1747 
Q 3713 922 3314 415 
Q 2916 -91 2278 -91 
Q 1894 -91 1617 61 
Q 1341 213 1159 525 
z
M 3116 1747 
Q 3116 2381 2855 2742 
Q 2594 3103 2138 3103 
Q 1681 3103 1420 2742 
Q 1159 2381 1159 1747 
Q 1159 1113 1420 752 
Q 1681 391 2138 391 
Q 2594 391 2855 752 
Q 3116 1113 3116 1747 
z
" transform="scale(0.015625)"/>
      </defs>
      <use xlink:href="#DejaVuSans-63"/>
      <use xlink:href="#DejaVuSans-6f" x="54.980469"/>
      <use xlink:href="#DejaVuSans-72" x="116.162109"/>
      <use xlink:href="#DejaVuSans-72" x="155.525391"/>
      <use xlink:href="#DejaVuSans-65" x="194.388672"/>
      <use xlink:href="#DejaVuSans-63" x="255.912109"/>
      <use xlink:href="#DejaVuSans-74" x="310.892578"/>
      <use xlink:href="#DejaVuSans-20" x="350.101562"/>
      <use xlink:href="#DejaVuSans-68" x="381.888672"/>
      <use xlink:href="#DejaVuSans-6f" x="445.267578"/>
      <use xlink:href="#DejaVuSans-6d" x="506.449219"/>
      <use xlink:href="#DejaVuSans-65" x="603.861328"/>
      <use xlink:href="#DejaVuSans-6f" x="665.384766"/>
      <use xlink:href="#DejaVuSans-74" x="726.566406"/>
      <use xlink:href="#DejaVuSans-79" x="765.775391"/>
      <use xlink:href="#DejaVuSans-70" x="824.955078"/>
      <use xlink:href="#DejaVuSans-69" x="888.431641"/>
      <use xlink:href="#DejaVuSans-63" x="916.214844"/>
     </g>
    </g>
    <g id="patch_10">
     <path d="M 280.598125 87.426688 
L 300.598125 87.426688 
L 300.598125 80.426688 
L 280.598125 80.426688 
z
" style="fill: #ff0000"/>
    </g>
    <g id="text_22">
     <!-- false -->
     <g transform="translate(308.598125 87.426688) scale(0.1 -0.1)">
      <defs>
       <path id="DejaVuSans-61" d="M 2194 1759 
Q 1497 1759 1228 1600 
Q 959 1441 959 1056 
Q 959 750 1161 570 
Q 1363 391 1709 391 
Q 2188 391 2477 730 
Q 2766 1069 2766 1631 
L 2766 1759 
L 2194 1759 
z
M 3341 1997 
L 3341 0 
L 2766 0 
L 2766 531 
Q 2569 213 2275 61 
Q 1981 -91 1556 -91 
Q 1019 -91 701 211 
Q 384 513 384 1019 
Q 384 1609 779 1909 
Q 1175 2209 1959 2209 
L 2766 2209 
L 2766 2266 
Q 2766 2663 2505 2880 
Q 2244 3097 1772 3097 
Q 1472 3097 1187 3025 
Q 903 2953 641 2809 
L 641 3341 
Q 956 3463 1253 3523 
Q 1550 3584 1831 3584 
Q 2591 3584 2966 3190 
Q 3341 2797 3341 1997 
z
" transform="scale(0.015625)"/>
      </defs>
      <use xlink:href="#DejaVuSans-66"/>
      <use xlink:href="#DejaVuSans-61" x="35.205078"/>
      <use xlink:href="#DejaVuSans-6c" x="96.484375"/>
      <use xlink:href="#DejaVuSans-73" x="124.267578"/>
      <use xlink:href="#DejaVuSans-65" x="176.367188"/>
     </g>
    </g>
   </g>
  </g>
 </g>
 <defs>
  <clipPath id="pbe772a4d59">
   <rect x="57.6" y="41.472" width="357.12" height="266.112"/>
  </clipPath>
 </defs>
</svg>
