<?xml version="1.0" encoding="utf-8" standalone="no"?>
<!DOCTYPE svg PUBLIC "-//W3C//DTD SVG 1.1//EN"
  "http://www.w3.org/Graphics/SVG/1.1/DTD/svg11.dtd">
<svg xmlns:xlink="http://www.w3.org/1999/xlink" width="460.8pt" height="345.6pt" viewBox="0 0 460.8 345.6" xmlns="http://www.w3.org/2000/svg" version="1.1">
 <metadata>
  <rdf:RDF xmlns:dc="http://purl.org/dc/elements/1.1/" xmlns:cc="http://creativecommons.org/ns#" xmlns:rdf="http://www.w3.org/1999/02/22-rdf-syntax-ns#">
   <cc:Work>
    <dc:type rdf:resource="http://purl.org/dc/dcmitype/StillImage"/>
    <dc:date>2024-06-29T19:02:30.384764</dc:date>
    <dc:format>image/svg+xml</dc:format>
    <dc:creator>
     <cc:Agent>
      <dc:title>Matplotlib v3.9.0, https://matplotlib.org/</dc:title>
     </cc:Agent>
    </dc:creator>
   </cc:Work>
  </rdf:RDF>
 </metadata>
 <defs>
  <style type="text/css">*{stroke-linejoin: round; stroke-linecap: butt}</style>
 </defs>
 <g id="figure_1">
  <g id="patch_1">
   <path d="M 0 345.6 
L 460.8 345.6 
L 460.8 0 
L 0 0 
z
" style="fill: #ffffff"/>
  </g>
  <g id="axes_1">
   <g id="patch_2">
    <path d="M 57.6 307.584 
L 414.72 307.584 
L 414.72 41.472 
L 57.6 41.472 
z
" style="fill: #ffffff"/>
   </g>
   <g id="PolyCollection_1">
    <path d="M 73.832727 95.973903 
L 73.832727 307.584 
L 73.872339 307.584 
L 74.36748 307.584 
L 75.159707 307.584 
L 75.337958 307.584 
L 75.97174 307.584 
L 76.149991 307.584 
L 76.902606 307.584 
L 78.586088 307.584 
L 78.645505 307.584 
L 80.923157 307.584 
L 81.695578 307.584 
L 81.774801 307.584 
L 82.368971 307.584 
L 83.458283 307.584 
L 84.230704 307.584 
L 84.626818 307.584 
L 85.062542 307.584 
L 85.458656 307.584 
L 89.300956 307.584 
L 89.459401 307.584 
L 89.677263 307.584 
L 89.974348 307.584 
L 90.033765 307.584 
L 90.390268 307.584 
L 90.667547 307.584 
L 90.806187 307.584 
L 92.252001 307.584 
L 93.420535 307.584 
L 93.460146 307.584 
L 94.430624 307.584 
L 95.420908 307.584 
L 96.549831 307.584 
L 103.145119 307.584 
L 104.095791 307.584 
L 104.828601 307.584 
L 105.759468 307.584 
L 106.016941 307.584 
L 106.036747 307.584 
L 107.403338 307.584 
L 108.235176 307.584 
L 109.423517 307.584 
L 109.542351 307.584 
L 110.057298 307.584 
L 110.195938 307.584 
L 111.225833 307.584 
L 112.453784 307.584 
L 113.186594 307.584 
L 113.226205 307.584 
L 116.612975 307.584 
L 117.543841 307.584 
L 119.266935 307.584 
L 119.306546 307.584 
L 119.56402 307.584 
L 121.20789 307.584 
L 121.920894 307.584 
L 122.455648 307.584 
L 123.307291 307.584 
L 123.346903 307.584 
L 124.45602 307.584 
L 124.891745 307.584 
L 125.030385 307.584 
L 125.525526 307.584 
L 127.367454 307.584 
L 127.902207 307.584 
L 128.238903 307.584 
L 129.229187 307.584 
L 131.071114 307.584 
L 132.73479 307.584 
L 134.457884 307.584 
L 135.547196 307.584 
L 136.042337 307.584 
L 137.864459 307.584 
L 138.121933 307.584 
L 139.310273 307.584 
L 140.241139 307.584 
L 140.399585 307.584 
L 141.88501 307.584 
L 142.459374 307.584 
L 142.895099 307.584 
L 142.994128 307.584 
L 143.152573 307.584 
L 144.004217 307.584 
L 146.083812 307.584 
L 149.747861 307.584 
L 150.678728 307.584 
L 150.738145 307.584 
L 151.213481 307.584 
L 151.451149 307.584 
L 151.530371 307.584 
L 153.095019 307.584 
L 154.996364 307.584 
L 156.184704 307.584 
L 157.670129 307.584 
L 157.98702 307.584 
L 159.373417 307.584 
L 162.938437 307.584 
L 163.433579 307.584 
L 164.503085 307.584 
L 165.632009 307.584 
L 165.988511 307.584 
L 169.731782 307.584 
L 170.464592 307.584 
L 171.276625 307.584 
L 172.227297 307.584 
L 172.306519 307.584 
L 173.81175 307.584 
L 177.040075 307.584 
L 177.515411 307.584 
L 178.149192 307.584 
L 179.278115 307.584 
L 180.010925 307.584 
L 181.813241 307.584 
L 183.179832 307.584 
L 183.674974 307.584 
L 184.130504 307.584 
L 184.42759 307.584 
L 184.922731 307.584 
L 184.982148 307.584 
L 191.260546 307.584 
L 191.874521 307.584 
L 198.628255 307.584 
L 199.499705 307.584 
L 200.153292 307.584 
L 203.936175 307.584 
L 210.333406 307.584 
L 212.888338 307.584 
L 217.621893 307.584 
L 218.968678 307.584 
L 219.047901 307.584 
L 219.503431 307.584 
L 222.375254 307.584 
L 222.414865 307.584 
L 226.653278 307.584 
L 228.316955 307.584 
L 228.594234 307.584 
L 231.367028 307.584 
L 231.426445 307.584 
L 233.862542 307.584 
L 241.725393 307.584 
L 242.893928 307.584 
L 248.696989 307.584 
L 251.251921 307.584 
L 253.430544 307.584 
L 253.668212 307.584 
L 257.233233 307.584 
L 264.185023 307.584 
L 267.908489 307.584 
L 268.760133 307.584 
L 276.385316 307.584 
L 280.227616 307.584 
L 283.634191 307.584 
L 292.60616 307.584 
L 292.982468 307.584 
L 301.855408 307.584 
L 302.449578 307.584 
L 305.123344 307.584 
L 310.332235 307.584 
L 311.896883 307.584 
L 313.362502 307.584 
L 323.4832 307.584 
L 329.761597 307.584 
L 336.594553 307.584 
L 348.378927 307.584 
L 350.022798 307.584 
L 367.66965 307.584 
L 382.702154 307.584 
L 398.487273 307.584 
L 398.487273 306.353709 
L 398.487273 306.353709 
L 382.702154 305.123417 
L 367.66965 303.893126 
L 350.022798 302.662835 
L 348.378927 301.432544 
L 336.594553 300.202252 
L 329.761597 298.971961 
L 323.4832 296.511379 
L 313.362502 295.281087 
L 311.896883 294.050796 
L 310.332235 292.820505 
L 305.123344 291.590214 
L 302.449578 290.359922 
L 301.855408 289.129631 
L 292.982468 287.89934 
L 292.60616 286.669049 
L 283.634191 285.438757 
L 280.227616 284.208466 
L 276.385316 282.978175 
L 268.760133 281.747883 
L 267.908489 280.517592 
L 264.185023 278.05701 
L 257.233233 276.826718 
L 253.668212 275.596427 
L 253.430544 274.366136 
L 251.251921 273.135845 
L 248.696989 270.675262 
L 242.893928 269.444971 
L 241.725393 268.21468 
L 233.862542 266.984388 
L 231.426445 265.754097 
L 231.367028 264.523806 
L 228.594234 263.293515 
L 228.316955 262.063223 
L 226.653278 260.832932 
L 222.414865 259.602641 
L 222.375254 258.37235 
L 219.503431 257.142058 
L 219.047901 255.911767 
L 218.968678 253.451184 
L 217.621893 252.220893 
L 212.888338 249.760311 
L 210.333406 248.530019 
L 203.936175 247.299728 
L 200.153292 246.069437 
L 199.499705 244.839146 
L 198.628255 243.608854 
L 191.874521 242.378563 
L 191.260546 241.148272 
L 184.982148 241.148272 
L 184.922731 239.917981 
L 184.42759 238.687689 
L 184.130504 238.687689 
L 183.674974 237.457398 
L 183.179832 234.996816 
L 181.813241 233.766524 
L 180.010925 232.536233 
L 179.278115 231.305942 
L 178.149192 230.07565 
L 177.515411 228.845359 
L 177.040075 227.615068 
L 173.81175 226.384777 
L 172.306519 225.154485 
L 172.227297 223.924194 
L 171.276625 222.693903 
L 170.464592 220.23332 
L 169.731782 219.003029 
L 165.988511 217.772738 
L 165.632009 216.542447 
L 164.503085 215.312155 
L 163.433579 215.312155 
L 162.938437 211.621282 
L 159.373417 210.39099 
L 157.98702 209.160699 
L 157.670129 207.930408 
L 156.184704 205.469825 
L 154.996364 204.239534 
L 153.095019 203.009243 
L 151.530371 200.54866 
L 151.451149 199.318369 
L 151.213481 198.088078 
L 150.738145 196.857786 
L 150.678728 195.627495 
L 149.747861 194.397204 
L 146.083812 191.936621 
L 144.004217 190.70633 
L 143.152573 189.476039 
L 142.994128 189.476039 
L 142.895099 188.245748 
L 142.459374 187.015456 
L 141.88501 185.785165 
L 140.399585 184.554874 
L 140.241139 182.094291 
L 139.310273 179.633709 
L 138.121933 178.403417 
L 137.864459 177.173126 
L 136.042337 174.712544 
L 135.547196 173.482252 
L 134.457884 171.02167 
L 132.73479 169.791379 
L 131.071114 167.330796 
L 129.229187 166.100505 
L 128.238903 164.870214 
L 127.902207 163.639922 
L 127.367454 162.409631 
L 125.525526 161.17934 
L 125.030385 158.718757 
L 124.891745 157.488466 
L 124.45602 156.258175 
L 123.346903 155.027883 
L 123.307291 152.567301 
L 122.455648 150.106718 
L 121.920894 148.876427 
L 121.20789 147.646136 
L 119.56402 146.415845 
L 119.306546 145.185553 
L 119.266935 143.955262 
L 117.543841 142.724971 
L 116.612975 141.49468 
L 113.226205 137.803806 
L 113.186594 135.343223 
L 112.453784 134.112932 
L 111.225833 132.882641 
L 110.195938 131.65235 
L 110.057298 130.422058 
L 109.542351 129.191767 
L 109.423517 127.961476 
L 108.235176 125.500893 
L 107.403338 125.500893 
L 106.036747 124.270602 
L 106.016941 124.270602 
L 105.759468 123.040311 
L 104.828601 123.040311 
L 104.095791 121.810019 
L 103.145119 120.579728 
L 96.549831 118.119146 
L 95.420908 116.888854 
L 94.430624 115.658563 
L 93.460146 114.428272 
L 93.420535 114.428272 
L 92.252001 113.197981 
L 90.806187 110.737398 
L 90.667547 109.507107 
L 90.390268 108.276816 
L 90.033765 108.276816 
L 89.974348 107.046524 
L 89.677263 105.816233 
L 89.459401 105.816233 
L 89.300956 104.585942 
L 85.458656 103.35565 
L 85.062542 103.35565 
L 84.626818 102.125359 
L 84.230704 102.125359 
L 83.458283 100.895068 
L 82.368971 99.664777 
L 81.774801 99.664777 
L 81.695578 99.664777 
L 80.923157 98.434485 
L 78.645505 97.204194 
L 78.586088 97.204194 
L 76.902606 95.973903 
L 76.149991 95.973903 
L 75.97174 95.973903 
L 75.337958 95.973903 
L 75.159707 95.973903 
L 74.36748 95.973903 
L 73.872339 95.973903 
L 73.832727 95.973903 
z
" clip-path="url(#pdd4f5a0de8)" style="fill: #008000"/>
   </g>
   <g id="PolyCollection_2">
    <path d="M 73.832727 95.973903 
L 73.832727 95.973903 
L 73.872339 95.973903 
L 74.36748 95.973903 
L 75.159707 95.973903 
L 75.337958 95.973903 
L 75.97174 95.973903 
L 76.149991 95.973903 
L 76.902606 95.973903 
L 78.586088 97.204194 
L 78.645505 97.204194 
L 80.923157 98.434485 
L 81.695578 99.664777 
L 81.774801 99.664777 
L 82.368971 99.664777 
L 83.458283 100.895068 
L 84.230704 102.125359 
L 84.626818 102.125359 
L 85.062542 103.35565 
L 85.458656 103.35565 
L 89.300956 104.585942 
L 89.459401 105.816233 
L 89.677263 105.816233 
L 89.974348 107.046524 
L 90.033765 108.276816 
L 90.390268 108.276816 
L 90.667547 109.507107 
L 90.806187 110.737398 
L 92.252001 113.197981 
L 93.420535 114.428272 
L 93.460146 114.428272 
L 94.430624 115.658563 
L 95.420908 116.888854 
L 96.549831 118.119146 
L 103.145119 120.579728 
L 104.095791 121.810019 
L 104.828601 123.040311 
L 105.759468 123.040311 
L 106.016941 124.270602 
L 106.036747 124.270602 
L 107.403338 125.500893 
L 108.235176 125.500893 
L 109.423517 127.961476 
L 109.542351 129.191767 
L 110.057298 130.422058 
L 110.195938 131.65235 
L 111.225833 132.882641 
L 112.453784 134.112932 
L 113.186594 135.343223 
L 113.226205 137.803806 
L 116.612975 141.49468 
L 117.543841 142.724971 
L 119.266935 143.955262 
L 119.306546 145.185553 
L 119.56402 146.415845 
L 121.20789 147.646136 
L 121.920894 148.876427 
L 122.455648 150.106718 
L 123.307291 152.567301 
L 123.346903 155.027883 
L 124.45602 156.258175 
L 124.891745 157.488466 
L 125.030385 158.718757 
L 125.525526 161.17934 
L 127.367454 162.409631 
L 127.902207 163.639922 
L 128.238903 164.870214 
L 129.229187 166.100505 
L 131.071114 167.330796 
L 132.73479 169.791379 
L 134.457884 171.02167 
L 135.547196 173.482252 
L 136.042337 174.712544 
L 137.864459 177.173126 
L 138.121933 178.403417 
L 139.310273 179.633709 
L 140.241139 182.094291 
L 140.399585 184.554874 
L 141.88501 185.785165 
L 142.459374 187.015456 
L 142.895099 188.245748 
L 142.994128 189.476039 
L 143.152573 189.476039 
L 144.004217 190.70633 
L 146.083812 191.936621 
L 149.747861 194.397204 
L 150.678728 195.627495 
L 150.738145 196.857786 
L 151.213481 198.088078 
L 151.451149 199.318369 
L 151.530371 200.54866 
L 153.095019 203.009243 
L 154.996364 204.239534 
L 156.184704 205.469825 
L 157.670129 207.930408 
L 157.98702 209.160699 
L 159.373417 210.39099 
L 162.938437 211.621282 
L 163.433579 215.312155 
L 164.503085 215.312155 
L 165.632009 216.542447 
L 165.988511 217.772738 
L 169.731782 219.003029 
L 170.464592 220.23332 
L 171.276625 222.693903 
L 172.227297 223.924194 
L 172.306519 225.154485 
L 173.81175 226.384777 
L 177.040075 227.615068 
L 177.515411 228.845359 
L 178.149192 230.07565 
L 179.278115 231.305942 
L 180.010925 232.536233 
L 181.813241 233.766524 
L 183.179832 234.996816 
L 183.674974 237.457398 
L 184.130504 238.687689 
L 184.42759 238.687689 
L 184.922731 239.917981 
L 184.982148 241.148272 
L 191.260546 241.148272 
L 191.874521 242.378563 
L 198.628255 243.608854 
L 199.499705 244.839146 
L 200.153292 246.069437 
L 203.936175 247.299728 
L 210.333406 248.530019 
L 212.888338 249.760311 
L 217.621893 252.220893 
L 218.968678 253.451184 
L 219.047901 255.911767 
L 219.503431 257.142058 
L 222.375254 258.37235 
L 222.414865 259.602641 
L 226.653278 260.832932 
L 228.316955 262.063223 
L 228.594234 263.293515 
L 231.367028 264.523806 
L 231.426445 265.754097 
L 233.862542 266.984388 
L 241.725393 268.21468 
L 242.893928 269.444971 
L 248.696989 270.675262 
L 251.251921 273.135845 
L 253.430544 274.366136 
L 253.668212 275.596427 
L 257.233233 276.826718 
L 264.185023 278.05701 
L 267.908489 280.517592 
L 268.760133 281.747883 
L 276.385316 282.978175 
L 280.227616 284.208466 
L 283.634191 285.438757 
L 292.60616 286.669049 
L 292.982468 287.89934 
L 301.855408 289.129631 
L 302.449578 290.359922 
L 305.123344 291.590214 
L 310.332235 292.820505 
L 311.896883 294.050796 
L 313.362502 295.281087 
L 323.4832 296.511379 
L 329.761597 298.971961 
L 336.594553 300.202252 
L 348.378927 301.432544 
L 350.022798 302.662835 
L 367.66965 303.893126 
L 382.702154 305.123417 
L 398.487273 306.353709 
L 398.487273 306.353709 
L 398.487273 306.353709 
L 382.702154 305.123417 
L 367.66965 303.893126 
L 350.022798 302.662835 
L 348.378927 301.432544 
L 336.594553 300.202252 
L 329.761597 298.971961 
L 323.4832 296.511379 
L 313.362502 295.281087 
L 311.896883 294.050796 
L 310.332235 292.820505 
L 305.123344 291.590214 
L 302.449578 290.359922 
L 301.855408 289.129631 
L 292.982468 287.89934 
L 292.60616 286.669049 
L 283.634191 285.438757 
L 280.227616 284.208466 
L 276.385316 282.978175 
L 268.760133 281.747883 
L 267.908489 280.517592 
L 264.185023 278.05701 
L 257.233233 276.826718 
L 253.668212 275.596427 
L 253.430544 274.366136 
L 251.251921 273.135845 
L 248.696989 270.675262 
L 242.893928 269.444971 
L 241.725393 268.21468 
L 233.862542 266.984388 
L 231.426445 265.754097 
L 231.367028 264.523806 
L 228.594234 263.293515 
L 228.316955 262.063223 
L 226.653278 260.832932 
L 222.414865 259.602641 
L 222.375254 258.37235 
L 219.503431 257.142058 
L 219.047901 255.911767 
L 218.968678 253.451184 
L 217.621893 252.220893 
L 212.888338 249.760311 
L 210.333406 248.530019 
L 203.936175 247.299728 
L 200.153292 246.069437 
L 199.499705 244.839146 
L 198.628255 243.608854 
L 191.874521 242.378563 
L 191.260546 241.148272 
L 184.982148 241.148272 
L 184.922731 239.917981 
L 184.42759 238.687689 
L 184.130504 238.687689 
L 183.674974 237.457398 
L 183.179832 234.996816 
L 181.813241 233.766524 
L 180.010925 232.536233 
L 179.278115 231.305942 
L 178.149192 230.07565 
L 177.515411 228.845359 
L 177.040075 227.615068 
L 173.81175 226.384777 
L 172.306519 225.154485 
L 172.227297 223.924194 
L 171.276625 222.693903 
L 170.464592 220.23332 
L 169.731782 219.003029 
L 165.988511 217.772738 
L 165.632009 216.542447 
L 164.503085 215.312155 
L 163.433579 215.312155 
L 162.938437 211.621282 
L 159.373417 210.39099 
L 157.98702 209.160699 
L 157.670129 207.930408 
L 156.184704 205.469825 
L 154.996364 204.239534 
L 153.095019 203.009243 
L 151.530371 200.54866 
L 151.451149 199.318369 
L 151.213481 198.088078 
L 150.738145 196.857786 
L 150.678728 195.627495 
L 149.747861 194.397204 
L 146.083812 191.936621 
L 144.004217 190.70633 
L 143.152573 189.476039 
L 142.994128 189.476039 
L 142.895099 188.245748 
L 142.459374 187.015456 
L 141.88501 185.785165 
L 140.399585 184.554874 
L 140.241139 182.094291 
L 139.310273 179.633709 
L 138.121933 178.403417 
L 137.864459 177.173126 
L 136.042337 174.712544 
L 135.547196 173.482252 
L 134.457884 171.02167 
L 132.73479 169.791379 
L 131.071114 167.330796 
L 129.229187 166.100505 
L 128.238903 164.870214 
L 127.902207 163.639922 
L 127.367454 162.409631 
L 125.525526 161.17934 
L 125.030385 158.718757 
L 124.891745 157.488466 
L 124.45602 156.258175 
L 123.346903 155.027883 
L 123.307291 152.567301 
L 122.455648 150.106718 
L 121.920894 148.876427 
L 121.20789 147.646136 
L 119.56402 146.415845 
L 119.306546 145.185553 
L 119.266935 143.955262 
L 117.543841 142.724971 
L 116.612975 141.49468 
L 113.226205 137.803806 
L 113.186594 135.343223 
L 112.453784 134.112932 
L 111.225833 132.882641 
L 110.195938 131.65235 
L 110.057298 130.422058 
L 109.542351 129.191767 
L 109.423517 127.961476 
L 108.235176 125.500893 
L 107.403338 125.500893 
L 106.036747 124.270602 
L 106.016941 124.270602 
L 105.759468 123.040311 
L 104.828601 123.040311 
L 104.095791 121.810019 
L 103.145119 120.579728 
L 96.549831 118.119146 
L 95.420908 116.888854 
L 94.430624 115.658563 
L 93.460146 114.428272 
L 93.420535 114.428272 
L 92.252001 113.197981 
L 90.806187 110.737398 
L 90.667547 109.507107 
L 90.390268 108.276816 
L 90.033765 108.276816 
L 89.974348 107.046524 
L 89.677263 105.816233 
L 89.459401 105.816233 
L 89.300956 104.585942 
L 85.458656 103.35565 
L 85.062542 103.35565 
L 84.626818 102.125359 
L 84.230704 102.125359 
L 83.458283 100.895068 
L 82.368971 99.664777 
L 81.774801 99.664777 
L 81.695578 99.664777 
L 80.923157 98.434485 
L 78.645505 97.204194 
L 78.586088 97.204194 
L 76.902606 95.973903 
L 76.149991 95.973903 
L 75.97174 95.973903 
L 75.337958 95.973903 
L 75.159707 95.973903 
L 74.36748 95.973903 
L 73.872339 95.973903 
L 73.832727 95.973903 
z
" clip-path="url(#pdd4f5a0de8)" style="fill: #7cfc00"/>
   </g>
   <g id="PolyCollection_3">
    <path d="M 73.832727 54.144 
L 73.832727 95.973903 
L 73.872339 95.973903 
L 74.36748 95.973903 
L 75.159707 95.973903 
L 75.337958 95.973903 
L 75.97174 95.973903 
L 76.149991 95.973903 
L 76.902606 95.973903 
L 78.586088 97.204194 
L 78.645505 97.204194 
L 80.923157 98.434485 
L 81.695578 99.664777 
L 81.774801 99.664777 
L 82.368971 99.664777 
L 83.458283 100.895068 
L 84.230704 102.125359 
L 84.626818 102.125359 
L 85.062542 103.35565 
L 85.458656 103.35565 
L 89.300956 104.585942 
L 89.459401 105.816233 
L 89.677263 105.816233 
L 89.974348 107.046524 
L 90.033765 108.276816 
L 90.390268 108.276816 
L 90.667547 109.507107 
L 90.806187 110.737398 
L 92.252001 113.197981 
L 93.420535 114.428272 
L 93.460146 114.428272 
L 94.430624 115.658563 
L 95.420908 116.888854 
L 96.549831 118.119146 
L 103.145119 120.579728 
L 104.095791 121.810019 
L 104.828601 123.040311 
L 105.759468 123.040311 
L 106.016941 124.270602 
L 106.036747 124.270602 
L 107.403338 125.500893 
L 108.235176 125.500893 
L 109.423517 127.961476 
L 109.542351 129.191767 
L 110.057298 130.422058 
L 110.195938 131.65235 
L 111.225833 132.882641 
L 112.453784 134.112932 
L 113.186594 135.343223 
L 113.226205 137.803806 
L 116.612975 141.49468 
L 117.543841 142.724971 
L 119.266935 143.955262 
L 119.306546 145.185553 
L 119.56402 146.415845 
L 121.20789 147.646136 
L 121.920894 148.876427 
L 122.455648 150.106718 
L 123.307291 152.567301 
L 123.346903 155.027883 
L 124.45602 156.258175 
L 124.891745 157.488466 
L 125.030385 158.718757 
L 125.525526 161.17934 
L 127.367454 162.409631 
L 127.902207 163.639922 
L 128.238903 164.870214 
L 129.229187 166.100505 
L 131.071114 167.330796 
L 132.73479 169.791379 
L 134.457884 171.02167 
L 135.547196 173.482252 
L 136.042337 174.712544 
L 137.864459 177.173126 
L 138.121933 178.403417 
L 139.310273 179.633709 
L 140.241139 182.094291 
L 140.399585 184.554874 
L 141.88501 185.785165 
L 142.459374 187.015456 
L 142.895099 188.245748 
L 142.994128 189.476039 
L 143.152573 189.476039 
L 144.004217 190.70633 
L 146.083812 191.936621 
L 149.747861 194.397204 
L 150.678728 195.627495 
L 150.738145 196.857786 
L 151.213481 198.088078 
L 151.451149 199.318369 
L 151.530371 200.54866 
L 153.095019 203.009243 
L 154.996364 204.239534 
L 156.184704 205.469825 
L 157.670129 207.930408 
L 157.98702 209.160699 
L 159.373417 210.39099 
L 162.938437 211.621282 
L 163.433579 215.312155 
L 164.503085 215.312155 
L 165.632009 216.542447 
L 165.988511 217.772738 
L 169.731782 219.003029 
L 170.464592 220.23332 
L 171.276625 222.693903 
L 172.227297 223.924194 
L 172.306519 225.154485 
L 173.81175 226.384777 
L 177.040075 227.615068 
L 177.515411 228.845359 
L 178.149192 230.07565 
L 179.278115 231.305942 
L 180.010925 232.536233 
L 181.813241 233.766524 
L 183.179832 234.996816 
L 183.674974 237.457398 
L 184.130504 238.687689 
L 184.42759 238.687689 
L 184.922731 239.917981 
L 184.982148 241.148272 
L 191.260546 241.148272 
L 191.874521 242.378563 
L 198.628255 243.608854 
L 199.499705 244.839146 
L 200.153292 246.069437 
L 203.936175 247.299728 
L 210.333406 248.530019 
L 212.888338 249.760311 
L 217.621893 252.220893 
L 218.968678 253.451184 
L 219.047901 255.911767 
L 219.503431 257.142058 
L 222.375254 258.37235 
L 222.414865 259.602641 
L 226.653278 260.832932 
L 228.316955 262.063223 
L 228.594234 263.293515 
L 231.367028 264.523806 
L 231.426445 265.754097 
L 233.862542 266.984388 
L 241.725393 268.21468 
L 242.893928 269.444971 
L 248.696989 270.675262 
L 251.251921 273.135845 
L 253.430544 274.366136 
L 253.668212 275.596427 
L 257.233233 276.826718 
L 264.185023 278.05701 
L 267.908489 280.517592 
L 268.760133 281.747883 
L 276.385316 282.978175 
L 280.227616 284.208466 
L 283.634191 285.438757 
L 292.60616 286.669049 
L 292.982468 287.89934 
L 301.855408 289.129631 
L 302.449578 290.359922 
L 305.123344 291.590214 
L 310.332235 292.820505 
L 311.896883 294.050796 
L 313.362502 295.281087 
L 323.4832 296.511379 
L 329.761597 298.971961 
L 336.594553 300.202252 
L 348.378927 301.432544 
L 350.022798 302.662835 
L 367.66965 303.893126 
L 382.702154 305.123417 
L 398.487273 306.353709 
L 398.487273 306.353709 
L 398.487273 306.353709 
L 382.702154 305.123417 
L 367.66965 303.893126 
L 350.022798 302.662835 
L 348.378927 301.432544 
L 336.594553 300.202252 
L 329.761597 298.971961 
L 323.4832 296.511379 
L 313.362502 295.281087 
L 311.896883 294.050796 
L 310.332235 292.820505 
L 305.123344 291.590214 
L 302.449578 290.359922 
L 301.855408 289.129631 
L 292.982468 287.89934 
L 292.60616 286.669049 
L 283.634191 285.438757 
L 280.227616 284.208466 
L 276.385316 282.978175 
L 268.760133 281.747883 
L 267.908489 280.517592 
L 264.185023 278.05701 
L 257.233233 276.826718 
L 253.668212 275.596427 
L 253.430544 274.366136 
L 251.251921 273.135845 
L 248.696989 270.675262 
L 242.893928 269.444971 
L 241.725393 268.21468 
L 233.862542 266.984388 
L 231.426445 265.754097 
L 231.367028 264.523806 
L 228.594234 263.293515 
L 228.316955 262.063223 
L 226.653278 260.832932 
L 222.414865 259.602641 
L 222.375254 258.37235 
L 219.503431 257.142058 
L 219.047901 255.911767 
L 218.968678 253.451184 
L 217.621893 252.220893 
L 212.888338 249.760311 
L 210.333406 248.530019 
L 203.936175 246.069437 
L 200.153292 244.839146 
L 199.499705 243.608854 
L 198.628255 242.378563 
L 191.874521 241.148272 
L 191.260546 239.917981 
L 184.982148 238.687689 
L 184.922731 237.457398 
L 184.42759 236.227107 
L 184.130504 234.996816 
L 183.674974 233.766524 
L 183.179832 231.305942 
L 181.813241 230.07565 
L 180.010925 228.845359 
L 179.278115 227.615068 
L 178.149192 226.384777 
L 177.515411 223.924194 
L 177.040075 222.693903 
L 173.81175 221.463612 
L 172.306519 220.23332 
L 172.227297 219.003029 
L 171.276625 217.772738 
L 170.464592 215.312155 
L 169.731782 214.081864 
L 165.988511 212.851573 
L 165.632009 211.621282 
L 164.503085 210.39099 
L 163.433579 209.160699 
L 162.938437 205.469825 
L 159.373417 204.239534 
L 157.98702 203.009243 
L 157.670129 201.778951 
L 156.184704 199.318369 
L 154.996364 196.857786 
L 153.095019 195.627495 
L 151.530371 193.166913 
L 151.451149 190.70633 
L 151.213481 189.476039 
L 150.738145 188.245748 
L 150.678728 185.785165 
L 149.747861 184.554874 
L 146.083812 182.094291 
L 144.004217 180.864 
L 143.152573 179.633709 
L 142.994128 178.403417 
L 142.895099 177.173126 
L 142.459374 175.942835 
L 141.88501 174.712544 
L 140.399585 173.482252 
L 140.241139 171.02167 
L 139.310273 168.561087 
L 138.121933 167.330796 
L 137.864459 166.100505 
L 136.042337 163.639922 
L 135.547196 162.409631 
L 134.457884 159.949049 
L 132.73479 158.718757 
L 131.071114 156.258175 
L 129.229187 155.027883 
L 128.238903 152.567301 
L 127.902207 151.33701 
L 127.367454 150.106718 
L 125.525526 148.876427 
L 125.030385 146.415845 
L 124.891745 145.185553 
L 124.45602 143.955262 
L 123.346903 142.724971 
L 123.307291 140.264388 
L 122.455648 136.573515 
L 121.920894 135.343223 
L 121.20789 134.112932 
L 119.56402 132.882641 
L 119.306546 131.65235 
L 119.266935 130.422058 
L 117.543841 129.191767 
L 116.612975 127.961476 
L 113.226205 124.270602 
L 113.186594 121.810019 
L 112.453784 120.579728 
L 111.225833 119.349437 
L 110.195938 118.119146 
L 110.057298 116.888854 
L 109.542351 115.658563 
L 109.423517 114.428272 
L 108.235176 111.967689 
L 107.403338 110.737398 
L 106.036747 109.507107 
L 106.016941 108.276816 
L 105.759468 107.046524 
L 104.828601 105.816233 
L 104.095791 104.585942 
L 103.145119 103.35565 
L 96.549831 100.895068 
L 95.420908 99.664777 
L 94.430624 98.434485 
L 93.460146 97.204194 
L 93.420535 94.743612 
L 92.252001 93.51332 
L 90.806187 91.052738 
L 90.667547 89.822447 
L 90.390268 88.592155 
L 90.033765 87.361864 
L 89.974348 86.131573 
L 89.677263 84.901282 
L 89.459401 83.67099 
L 89.300956 82.440699 
L 85.458656 81.210408 
L 85.062542 79.980117 
L 84.626818 78.749825 
L 84.230704 77.519534 
L 83.458283 76.289243 
L 82.368971 75.058951 
L 81.774801 73.82866 
L 81.695578 72.598369 
L 80.923157 71.368078 
L 78.645505 70.137786 
L 78.586088 68.907495 
L 76.902606 67.677204 
L 76.149991 66.446913 
L 75.97174 63.98633 
L 75.337958 62.756039 
L 75.159707 61.525748 
L 74.36748 60.295456 
L 73.872339 56.604583 
L 73.832727 54.144 
z
" clip-path="url(#pdd4f5a0de8)" style="fill: #ff0000"/>
   </g>
   <g id="matplotlib.axis_1">
    <g id="xtick_1">
     <g id="line2d_1">
      <defs>
       <path id="m1a44ab9ea8" d="M 0 0 
L 0 3.5 
" style="stroke: #000000; stroke-width: 0.8"/>
      </defs>
      <g>
       <use xlink:href="#m1a44ab9ea8" x="79.635789" y="307.584" style="stroke: #000000; stroke-width: 0.8"/>
      </g>
     </g>
     <g id="text_1">
      <!-- 25 -->
      <g transform="translate(73.273289 322.182437) scale(0.1 -0.1)">
       <defs>
        <path id="DejaVuSans-32" d="M 1228 531 
L 3431 531 
L 3431 0 
L 469 0 
L 469 531 
Q 828 903 1448 1529 
Q 2069 2156 2228 2338 
Q 2531 2678 2651 2914 
Q 2772 3150 2772 3378 
Q 2772 3750 2511 3984 
Q 2250 4219 1831 4219 
Q 1534 4219 1204 4116 
Q 875 4013 500 3803 
L 500 4441 
Q 881 4594 1212 4672 
Q 1544 4750 1819 4750 
Q 2544 4750 2975 4387 
Q 3406 4025 3406 3419 
Q 3406 3131 3298 2873 
Q 3191 2616 2906 2266 
Q 2828 2175 2409 1742 
Q 1991 1309 1228 531 
z
" transform="scale(0.015625)"/>
        <path id="DejaVuSans-35" d="M 691 4666 
L 3169 4666 
L 3169 4134 
L 1269 4134 
L 1269 2991 
Q 1406 3038 1543 3061 
Q 1681 3084 1819 3084 
Q 2600 3084 3056 2656 
Q 3513 2228 3513 1497 
Q 3513 744 3044 326 
Q 2575 -91 1722 -91 
Q 1428 -91 1123 -41 
Q 819 9 494 109 
L 494 744 
Q 775 591 1075 516 
Q 1375 441 1709 441 
Q 2250 441 2565 725 
Q 2881 1009 2881 1497 
Q 2881 1984 2565 2268 
Q 2250 2553 1709 2553 
Q 1456 2553 1204 2497 
Q 953 2441 691 2322 
L 691 4666 
z
" transform="scale(0.015625)"/>
       </defs>
       <use xlink:href="#DejaVuSans-32"/>
       <use xlink:href="#DejaVuSans-35" x="63.623047"/>
      </g>
     </g>
    </g>
    <g id="xtick_2">
     <g id="line2d_2">
      <g>
       <use xlink:href="#m1a44ab9ea8" x="129.149964" y="307.584" style="stroke: #000000; stroke-width: 0.8"/>
      </g>
     </g>
     <g id="text_2">
      <!-- 50 -->
      <g transform="translate(122.787464 322.182437) scale(0.1 -0.1)">
       <defs>
        <path id="DejaVuSans-30" d="M 2034 4250 
Q 1547 4250 1301 3770 
Q 1056 3291 1056 2328 
Q 1056 1369 1301 889 
Q 1547 409 2034 409 
Q 2525 409 2770 889 
Q 3016 1369 3016 2328 
Q 3016 3291 2770 3770 
Q 2525 4250 2034 4250 
z
M 2034 4750 
Q 2819 4750 3233 4129 
Q 3647 3509 3647 2328 
Q 3647 1150 3233 529 
Q 2819 -91 2034 -91 
Q 1250 -91 836 529 
Q 422 1150 422 2328 
Q 422 3509 836 4129 
Q 1250 4750 2034 4750 
z
" transform="scale(0.015625)"/>
       </defs>
       <use xlink:href="#DejaVuSans-35"/>
       <use xlink:href="#DejaVuSans-30" x="63.623047"/>
      </g>
     </g>
    </g>
    <g id="xtick_3">
     <g id="line2d_3">
      <g>
       <use xlink:href="#m1a44ab9ea8" x="178.664139" y="307.584" style="stroke: #000000; stroke-width: 0.8"/>
      </g>
     </g>
     <g id="text_3">
      <!-- 75 -->
      <g transform="translate(172.301639 322.182437) scale(0.1 -0.1)">
       <defs>
        <path id="DejaVuSans-37" d="M 525 4666 
L 3525 4666 
L 3525 4397 
L 1831 0 
L 1172 0 
L 2766 4134 
L 525 4134 
L 525 4666 
z
" transform="scale(0.015625)"/>
       </defs>
       <use xlink:href="#DejaVuSans-37"/>
       <use xlink:href="#DejaVuSans-35" x="63.623047"/>
      </g>
     </g>
    </g>
    <g id="xtick_4">
     <g id="line2d_4">
      <g>
       <use xlink:href="#m1a44ab9ea8" x="228.178315" y="307.584" style="stroke: #000000; stroke-width: 0.8"/>
      </g>
     </g>
     <g id="text_4">
      <!-- 100 -->
      <g transform="translate(218.634565 322.182437) scale(0.1 -0.1)">
       <defs>
        <path id="DejaVuSans-31" d="M 794 531 
L 1825 531 
L 1825 4091 
L 703 3866 
L 703 4441 
L 1819 4666 
L 2450 4666 
L 2450 531 
L 3481 531 
L 3481 0 
L 794 0 
L 794 531 
z
" transform="scale(0.015625)"/>
       </defs>
       <use xlink:href="#DejaVuSans-31"/>
       <use xlink:href="#DejaVuSans-30" x="63.623047"/>
       <use xlink:href="#DejaVuSans-30" x="127.246094"/>
      </g>
     </g>
    </g>
    <g id="xtick_5">
     <g id="line2d_5">
      <g>
       <use xlink:href="#m1a44ab9ea8" x="277.69249" y="307.584" style="stroke: #000000; stroke-width: 0.8"/>
      </g>
     </g>
     <g id="text_5">
      <!-- 125 -->
      <g transform="translate(268.14874 322.182437) scale(0.1 -0.1)">
       <use xlink:href="#DejaVuSans-31"/>
       <use xlink:href="#DejaVuSans-32" x="63.623047"/>
       <use xlink:href="#DejaVuSans-35" x="127.246094"/>
      </g>
     </g>
    </g>
    <g id="xtick_6">
     <g id="line2d_6">
      <g>
       <use xlink:href="#m1a44ab9ea8" x="327.206666" y="307.584" style="stroke: #000000; stroke-width: 0.8"/>
      </g>
     </g>
     <g id="text_6">
      <!-- 150 -->
      <g transform="translate(317.662916 322.182437) scale(0.1 -0.1)">
       <use xlink:href="#DejaVuSans-31"/>
       <use xlink:href="#DejaVuSans-35" x="63.623047"/>
       <use xlink:href="#DejaVuSans-30" x="127.246094"/>
      </g>
     </g>
    </g>
    <g id="xtick_7">
     <g id="line2d_7">
      <g>
       <use xlink:href="#m1a44ab9ea8" x="376.720841" y="307.584" style="stroke: #000000; stroke-width: 0.8"/>
      </g>
     </g>
     <g id="text_7">
      <!-- 175 -->
      <g transform="translate(367.177091 322.182437) scale(0.1 -0.1)">
       <use xlink:href="#DejaVuSans-31"/>
       <use xlink:href="#DejaVuSans-37" x="63.623047"/>
       <use xlink:href="#DejaVuSans-35" x="127.246094"/>
      </g>
     </g>
    </g>
    <g id="text_8">
     <!-- Score -->
     <g transform="translate(222.157656 335.860562) scale(0.1 -0.1)">
      <defs>
       <path id="DejaVuSans-53" d="M 3425 4513 
L 3425 3897 
Q 3066 4069 2747 4153 
Q 2428 4238 2131 4238 
Q 1616 4238 1336 4038 
Q 1056 3838 1056 3469 
Q 1056 3159 1242 3001 
Q 1428 2844 1947 2747 
L 2328 2669 
Q 3034 2534 3370 2195 
Q 3706 1856 3706 1288 
Q 3706 609 3251 259 
Q 2797 -91 1919 -91 
Q 1588 -91 1214 -16 
Q 841 59 441 206 
L 441 856 
Q 825 641 1194 531 
Q 1563 422 1919 422 
Q 2459 422 2753 634 
Q 3047 847 3047 1241 
Q 3047 1584 2836 1778 
Q 2625 1972 2144 2069 
L 1759 2144 
Q 1053 2284 737 2584 
Q 422 2884 422 3419 
Q 422 4038 858 4394 
Q 1294 4750 2059 4750 
Q 2388 4750 2728 4690 
Q 3069 4631 3425 4513 
z
" transform="scale(0.015625)"/>
       <path id="DejaVuSans-63" d="M 3122 3366 
L 3122 2828 
Q 2878 2963 2633 3030 
Q 2388 3097 2138 3097 
Q 1578 3097 1268 2742 
Q 959 2388 959 1747 
Q 959 1106 1268 751 
Q 1578 397 2138 397 
Q 2388 397 2633 464 
Q 2878 531 3122 666 
L 3122 134 
Q 2881 22 2623 -34 
Q 2366 -91 2075 -91 
Q 1284 -91 818 406 
Q 353 903 353 1747 
Q 353 2603 823 3093 
Q 1294 3584 2113 3584 
Q 2378 3584 2631 3529 
Q 2884 3475 3122 3366 
z
" transform="scale(0.015625)"/>
       <path id="DejaVuSans-6f" d="M 1959 3097 
Q 1497 3097 1228 2736 
Q 959 2375 959 1747 
Q 959 1119 1226 758 
Q 1494 397 1959 397 
Q 2419 397 2687 759 
Q 2956 1122 2956 1747 
Q 2956 2369 2687 2733 
Q 2419 3097 1959 3097 
z
M 1959 3584 
Q 2709 3584 3137 3096 
Q 3566 2609 3566 1747 
Q 3566 888 3137 398 
Q 2709 -91 1959 -91 
Q 1206 -91 779 398 
Q 353 888 353 1747 
Q 353 2609 779 3096 
Q 1206 3584 1959 3584 
z
" transform="scale(0.015625)"/>
       <path id="DejaVuSans-72" d="M 2631 2963 
Q 2534 3019 2420 3045 
Q 2306 3072 2169 3072 
Q 1681 3072 1420 2755 
Q 1159 2438 1159 1844 
L 1159 0 
L 581 0 
L 581 3500 
L 1159 3500 
L 1159 2956 
Q 1341 3275 1631 3429 
Q 1922 3584 2338 3584 
Q 2397 3584 2469 3576 
Q 2541 3569 2628 3553 
L 2631 2963 
z
" transform="scale(0.015625)"/>
       <path id="DejaVuSans-65" d="M 3597 1894 
L 3597 1613 
L 953 1613 
Q 991 1019 1311 708 
Q 1631 397 2203 397 
Q 2534 397 2845 478 
Q 3156 559 3463 722 
L 3463 178 
Q 3153 47 2828 -22 
Q 2503 -91 2169 -91 
Q 1331 -91 842 396 
Q 353 884 353 1716 
Q 353 2575 817 3079 
Q 1281 3584 2069 3584 
Q 2775 3584 3186 3129 
Q 3597 2675 3597 1894 
z
M 3022 2063 
Q 3016 2534 2758 2815 
Q 2500 3097 2075 3097 
Q 1594 3097 1305 2825 
Q 1016 2553 972 2059 
L 3022 2063 
z
" transform="scale(0.015625)"/>
      </defs>
      <use xlink:href="#DejaVuSans-53"/>
      <use xlink:href="#DejaVuSans-63" x="63.476562"/>
      <use xlink:href="#DejaVuSans-6f" x="118.457031"/>
      <use xlink:href="#DejaVuSans-72" x="179.638672"/>
      <use xlink:href="#DejaVuSans-65" x="218.501953"/>
     </g>
    </g>
   </g>
   <g id="matplotlib.axis_2">
    <g id="ytick_1">
     <g id="line2d_8">
      <defs>
       <path id="maa86dc9103" d="M 0 0 
L -3.5 0 
" style="stroke: #000000; stroke-width: 0.8"/>
      </defs>
      <g>
       <use xlink:href="#maa86dc9103" x="57.6" y="307.584" style="stroke: #000000; stroke-width: 0.8"/>
      </g>
     </g>
     <g id="text_9">
      <!-- 0 -->
      <g transform="translate(44.2375 311.383219) scale(0.1 -0.1)">
       <use xlink:href="#DejaVuSans-30"/>
      </g>
     </g>
    </g>
    <g id="ytick_2">
     <g id="line2d_9">
      <g>
       <use xlink:href="#maa86dc9103" x="57.6" y="276.826718" style="stroke: #000000; stroke-width: 0.8"/>
      </g>
     </g>
     <g id="text_10">
      <!-- 25 -->
      <g transform="translate(37.875 280.625937) scale(0.1 -0.1)">
       <use xlink:href="#DejaVuSans-32"/>
       <use xlink:href="#DejaVuSans-35" x="63.623047"/>
      </g>
     </g>
    </g>
    <g id="ytick_3">
     <g id="line2d_10">
      <g>
       <use xlink:href="#maa86dc9103" x="57.6" y="246.069437" style="stroke: #000000; stroke-width: 0.8"/>
      </g>
     </g>
     <g id="text_11">
      <!-- 50 -->
      <g transform="translate(37.875 249.868656) scale(0.1 -0.1)">
       <use xlink:href="#DejaVuSans-35"/>
       <use xlink:href="#DejaVuSans-30" x="63.623047"/>
      </g>
     </g>
    </g>
    <g id="ytick_4">
     <g id="line2d_11">
      <g>
       <use xlink:href="#maa86dc9103" x="57.6" y="215.312155" style="stroke: #000000; stroke-width: 0.8"/>
      </g>
     </g>
     <g id="text_12">
      <!-- 75 -->
      <g transform="translate(37.875 219.111374) scale(0.1 -0.1)">
       <use xlink:href="#DejaVuSans-37"/>
       <use xlink:href="#DejaVuSans-35" x="63.623047"/>
      </g>
     </g>
    </g>
    <g id="ytick_5">
     <g id="line2d_12">
      <g>
       <use xlink:href="#maa86dc9103" x="57.6" y="184.554874" style="stroke: #000000; stroke-width: 0.8"/>
      </g>
     </g>
     <g id="text_13">
      <!-- 100 -->
      <g transform="translate(31.5125 188.354093) scale(0.1 -0.1)">
       <use xlink:href="#DejaVuSans-31"/>
       <use xlink:href="#DejaVuSans-30" x="63.623047"/>
       <use xlink:href="#DejaVuSans-30" x="127.246094"/>
      </g>
     </g>
    </g>
    <g id="ytick_6">
     <g id="line2d_13">
      <g>
       <use xlink:href="#maa86dc9103" x="57.6" y="153.797592" style="stroke: #000000; stroke-width: 0.8"/>
      </g>
     </g>
     <g id="text_14">
      <!-- 125 -->
      <g transform="translate(31.5125 157.596811) scale(0.1 -0.1)">
       <use xlink:href="#DejaVuSans-31"/>
       <use xlink:href="#DejaVuSans-32" x="63.623047"/>
       <use xlink:href="#DejaVuSans-35" x="127.246094"/>
      </g>
     </g>
    </g>
    <g id="ytick_7">
     <g id="line2d_14">
      <g>
       <use xlink:href="#maa86dc9103" x="57.6" y="123.040311" style="stroke: #000000; stroke-width: 0.8"/>
      </g>
     </g>
     <g id="text_15">
      <!-- 150 -->
      <g transform="translate(31.5125 126.839529) scale(0.1 -0.1)">
       <use xlink:href="#DejaVuSans-31"/>
       <use xlink:href="#DejaVuSans-35" x="63.623047"/>
       <use xlink:href="#DejaVuSans-30" x="127.246094"/>
      </g>
     </g>
    </g>
    <g id="ytick_8">
     <g id="line2d_15">
      <g>
       <use xlink:href="#maa86dc9103" x="57.6" y="92.283029" style="stroke: #000000; stroke-width: 0.8"/>
      </g>
     </g>
     <g id="text_16">
      <!-- 175 -->
      <g transform="translate(31.5125 96.082248) scale(0.1 -0.1)">
       <use xlink:href="#DejaVuSans-31"/>
       <use xlink:href="#DejaVuSans-37" x="63.623047"/>
       <use xlink:href="#DejaVuSans-35" x="127.246094"/>
      </g>
     </g>
    </g>
    <g id="ytick_9">
     <g id="line2d_16">
      <g>
       <use xlink:href="#maa86dc9103" x="57.6" y="61.525748" style="stroke: #000000; stroke-width: 0.8"/>
      </g>
     </g>
     <g id="text_17">
      <!-- 200 -->
      <g transform="translate(31.5125 65.324966) scale(0.1 -0.1)">
       <use xlink:href="#DejaVuSans-32"/>
       <use xlink:href="#DejaVuSans-30" x="63.623047"/>
       <use xlink:href="#DejaVuSans-30" x="127.246094"/>
      </g>
     </g>
    </g>
    <g id="text_18">
     <!-- Number of crosslinks -->
     <g transform="translate(25.432812 227.019406) rotate(-90) scale(0.1 -0.1)">
      <defs>
       <path id="DejaVuSans-4e" d="M 628 4666 
L 1478 4666 
L 3547 763 
L 3547 4666 
L 4159 4666 
L 4159 0 
L 3309 0 
L 1241 3903 
L 1241 0 
L 628 0 
L 628 4666 
z
" transform="scale(0.015625)"/>
       <path id="DejaVuSans-75" d="M 544 1381 
L 544 3500 
L 1119 3500 
L 1119 1403 
Q 1119 906 1312 657 
Q 1506 409 1894 409 
Q 2359 409 2629 706 
Q 2900 1003 2900 1516 
L 2900 3500 
L 3475 3500 
L 3475 0 
L 2900 0 
L 2900 538 
Q 2691 219 2414 64 
Q 2138 -91 1772 -91 
Q 1169 -91 856 284 
Q 544 659 544 1381 
z
M 1991 3584 
L 1991 3584 
z
" transform="scale(0.015625)"/>
       <path id="DejaVuSans-6d" d="M 3328 2828 
Q 3544 3216 3844 3400 
Q 4144 3584 4550 3584 
Q 5097 3584 5394 3201 
Q 5691 2819 5691 2113 
L 5691 0 
L 5113 0 
L 5113 2094 
Q 5113 2597 4934 2840 
Q 4756 3084 4391 3084 
Q 3944 3084 3684 2787 
Q 3425 2491 3425 1978 
L 3425 0 
L 2847 0 
L 2847 2094 
Q 2847 2600 2669 2842 
Q 2491 3084 2119 3084 
Q 1678 3084 1418 2786 
Q 1159 2488 1159 1978 
L 1159 0 
L 581 0 
L 581 3500 
L 1159 3500 
L 1159 2956 
Q 1356 3278 1631 3431 
Q 1906 3584 2284 3584 
Q 2666 3584 2933 3390 
Q 3200 3197 3328 2828 
z
" transform="scale(0.015625)"/>
       <path id="DejaVuSans-62" d="M 3116 1747 
Q 3116 2381 2855 2742 
Q 2594 3103 2138 3103 
Q 1681 3103 1420 2742 
Q 1159 2381 1159 1747 
Q 1159 1113 1420 752 
Q 1681 391 2138 391 
Q 2594 391 2855 752 
Q 3116 1113 3116 1747 
z
M 1159 2969 
Q 1341 3281 1617 3432 
Q 1894 3584 2278 3584 
Q 2916 3584 3314 3078 
Q 3713 2572 3713 1747 
Q 3713 922 3314 415 
Q 2916 -91 2278 -91 
Q 1894 -91 1617 61 
Q 1341 213 1159 525 
L 1159 0 
L 581 0 
L 581 4863 
L 1159 4863 
L 1159 2969 
z
" transform="scale(0.015625)"/>
       <path id="DejaVuSans-20" transform="scale(0.015625)"/>
       <path id="DejaVuSans-66" d="M 2375 4863 
L 2375 4384 
L 1825 4384 
Q 1516 4384 1395 4259 
Q 1275 4134 1275 3809 
L 1275 3500 
L 2222 3500 
L 2222 3053 
L 1275 3053 
L 1275 0 
L 697 0 
L 697 3053 
L 147 3053 
L 147 3500 
L 697 3500 
L 697 3744 
Q 697 4328 969 4595 
Q 1241 4863 1831 4863 
L 2375 4863 
z
" transform="scale(0.015625)"/>
       <path id="DejaVuSans-73" d="M 2834 3397 
L 2834 2853 
Q 2591 2978 2328 3040 
Q 2066 3103 1784 3103 
Q 1356 3103 1142 2972 
Q 928 2841 928 2578 
Q 928 2378 1081 2264 
Q 1234 2150 1697 2047 
L 1894 2003 
Q 2506 1872 2764 1633 
Q 3022 1394 3022 966 
Q 3022 478 2636 193 
Q 2250 -91 1575 -91 
Q 1294 -91 989 -36 
Q 684 19 347 128 
L 347 722 
Q 666 556 975 473 
Q 1284 391 1588 391 
Q 1994 391 2212 530 
Q 2431 669 2431 922 
Q 2431 1156 2273 1281 
Q 2116 1406 1581 1522 
L 1381 1569 
Q 847 1681 609 1914 
Q 372 2147 372 2553 
Q 372 3047 722 3315 
Q 1072 3584 1716 3584 
Q 2034 3584 2315 3537 
Q 2597 3491 2834 3397 
z
" transform="scale(0.015625)"/>
       <path id="DejaVuSans-6c" d="M 603 4863 
L 1178 4863 
L 1178 0 
L 603 0 
L 603 4863 
z
" transform="scale(0.015625)"/>
       <path id="DejaVuSans-69" d="M 603 3500 
L 1178 3500 
L 1178 0 
L 603 0 
L 603 3500 
z
M 603 4863 
L 1178 4863 
L 1178 4134 
L 603 4134 
L 603 4863 
z
" transform="scale(0.015625)"/>
       <path id="DejaVuSans-6e" d="M 3513 2113 
L 3513 0 
L 2938 0 
L 2938 2094 
Q 2938 2591 2744 2837 
Q 2550 3084 2163 3084 
Q 1697 3084 1428 2787 
Q 1159 2491 1159 1978 
L 1159 0 
L 581 0 
L 581 3500 
L 1159 3500 
L 1159 2956 
Q 1366 3272 1645 3428 
Q 1925 3584 2291 3584 
Q 2894 3584 3203 3211 
Q 3513 2838 3513 2113 
z
" transform="scale(0.015625)"/>
       <path id="DejaVuSans-6b" d="M 581 4863 
L 1159 4863 
L 1159 1991 
L 2875 3500 
L 3609 3500 
L 1753 1863 
L 3688 0 
L 2938 0 
L 1159 1709 
L 1159 0 
L 581 0 
L 581 4863 
z
" transform="scale(0.015625)"/>
      </defs>
      <use xlink:href="#DejaVuSans-4e"/>
      <use xlink:href="#DejaVuSans-75" x="74.804688"/>
      <use xlink:href="#DejaVuSans-6d" x="138.183594"/>
      <use xlink:href="#DejaVuSans-62" x="235.595703"/>
      <use xlink:href="#DejaVuSans-65" x="299.072266"/>
      <use xlink:href="#DejaVuSans-72" x="360.595703"/>
      <use xlink:href="#DejaVuSans-20" x="401.708984"/>
      <use xlink:href="#DejaVuSans-6f" x="433.496094"/>
      <use xlink:href="#DejaVuSans-66" x="494.677734"/>
      <use xlink:href="#DejaVuSans-20" x="529.882812"/>
      <use xlink:href="#DejaVuSans-63" x="561.669922"/>
      <use xlink:href="#DejaVuSans-72" x="616.650391"/>
      <use xlink:href="#DejaVuSans-6f" x="655.513672"/>
      <use xlink:href="#DejaVuSans-73" x="716.695312"/>
      <use xlink:href="#DejaVuSans-73" x="768.794922"/>
      <use xlink:href="#DejaVuSans-6c" x="820.894531"/>
      <use xlink:href="#DejaVuSans-69" x="848.677734"/>
      <use xlink:href="#DejaVuSans-6e" x="876.460938"/>
      <use xlink:href="#DejaVuSans-6b" x="939.839844"/>
      <use xlink:href="#DejaVuSans-73" x="997.75"/>
     </g>
    </g>
   </g>
   <g id="patch_3">
    <path d="M 57.6 307.584 
L 57.6 41.472 
" style="fill: none; stroke: #000000; stroke-width: 0.8; stroke-linejoin: miter; stroke-linecap: square"/>
   </g>
   <g id="patch_4">
    <path d="M 414.72 307.584 
L 414.72 41.472 
" style="fill: none; stroke: #000000; stroke-width: 0.8; stroke-linejoin: miter; stroke-linecap: square"/>
   </g>
   <g id="patch_5">
    <path d="M 57.6 307.584 
L 414.72 307.584 
" style="fill: none; stroke: #000000; stroke-width: 0.8; stroke-linejoin: miter; stroke-linecap: square"/>
   </g>
   <g id="patch_6">
    <path d="M 57.6 41.472 
L 414.72 41.472 
" style="fill: none; stroke: #000000; stroke-width: 0.8; stroke-linejoin: miter; stroke-linecap: square"/>
   </g>
   <g id="legend_1">
    <g id="patch_7">
     <path d="M 278.598125 93.506375 
L 407.72 93.506375 
Q 409.72 93.506375 409.72 91.506375 
L 409.72 48.472 
Q 409.72 46.472 407.72 46.472 
L 278.598125 46.472 
Q 276.598125 46.472 276.598125 48.472 
L 276.598125 91.506375 
Q 276.598125 93.506375 278.598125 93.506375 
z
" style="fill: #ffffff; opacity: 0.8; stroke: #cccccc; stroke-linejoin: miter"/>
    </g>
    <g id="patch_8">
     <path d="M 280.598125 58.070438 
L 300.598125 58.070438 
L 300.598125 51.070438 
L 280.598125 51.070438 
z
" style="fill: #008000"/>
    </g>
    <g id="text_19">
     <!-- correct -->
     <g transform="translate(308.598125 58.070438) scale(0.1 -0.1)">
      <defs>
       <path id="DejaVuSans-74" d="M 1172 4494 
L 1172 3500 
L 2356 3500 
L 2356 3053 
L 1172 3053 
L 1172 1153 
Q 1172 725 1289 603 
Q 1406 481 1766 481 
L 2356 481 
L 2356 0 
L 1766 0 
Q 1100 0 847 248 
Q 594 497 594 1153 
L 594 3053 
L 172 3053 
L 172 3500 
L 594 3500 
L 594 4494 
L 1172 4494 
z
" transform="scale(0.015625)"/>
      </defs>
      <use xlink:href="#DejaVuSans-63"/>
      <use xlink:href="#DejaVuSans-6f" x="54.980469"/>
      <use xlink:href="#DejaVuSans-72" x="116.162109"/>
      <use xlink:href="#DejaVuSans-72" x="155.525391"/>
      <use xlink:href="#DejaVuSans-65" x="194.388672"/>
      <use xlink:href="#DejaVuSans-63" x="255.912109"/>
      <use xlink:href="#DejaVuSans-74" x="310.892578"/>
     </g>
    </g>
    <g id="patch_9">
     <path d="M 280.598125 72.748563 
L 300.598125 72.748563 
L 300.598125 65.748563 
L 280.598125 65.748563 
z
" style="fill: #7cfc00"/>
    </g>
    <g id="text_20">
     <!-- correct homeotypic -->
     <g transform="translate(308.598125 72.748563) scale(0.1 -0.1)">
      <defs>
       <path id="DejaVuSans-68" d="M 3513 2113 
L 3513 0 
L 2938 0 
L 2938 2094 
Q 2938 2591 2744 2837 
Q 2550 3084 2163 3084 
Q 1697 3084 1428 2787 
Q 1159 2491 1159 1978 
L 1159 0 
L 581 0 
L 581 4863 
L 1159 4863 
L 1159 2956 
Q 1366 3272 1645 3428 
Q 1925 3584 2291 3584 
Q 2894 3584 3203 3211 
Q 3513 2838 3513 2113 
z
" transform="scale(0.015625)"/>
       <path id="DejaVuSans-79" d="M 2059 -325 
Q 1816 -950 1584 -1140 
Q 1353 -1331 966 -1331 
L 506 -1331 
L 506 -850 
L 844 -850 
Q 1081 -850 1212 -737 
Q 1344 -625 1503 -206 
L 1606 56 
L 191 3500 
L 800 3500 
L 1894 763 
L 2988 3500 
L 3597 3500 
L 2059 -325 
z
" transform="scale(0.015625)"/>
       <path id="DejaVuSans-70" d="M 1159 525 
L 1159 -1331 
L 581 -1331 
L 581 3500 
L 1159 3500 
L 1159 2969 
Q 1341 3281 1617 3432 
Q 1894 3584 2278 3584 
Q 2916 3584 3314 3078 
Q 3713 2572 3713 1747 
Q 3713 922 3314 415 
Q 2916 -91 2278 -91 
Q 1894 -91 1617 61 
Q 1341 213 1159 525 
z
M 3116 1747 
Q 3116 2381 2855 2742 
Q 2594 3103 2138 3103 
Q 1681 3103 1420 2742 
Q 1159 2381 1159 1747 
Q 1159 1113 1420 752 
Q 1681 391 2138 391 
Q 2594 391 2855 752 
Q 3116 1113 3116 1747 
z
" transform="scale(0.015625)"/>
      </defs>
      <use xlink:href="#DejaVuSans-63"/>
      <use xlink:href="#DejaVuSans-6f" x="54.980469"/>
      <use xlink:href="#DejaVuSans-72" x="116.162109"/>
      <use xlink:href="#DejaVuSans-72" x="155.525391"/>
      <use xlink:href="#DejaVuSans-65" x="194.388672"/>
      <use xlink:href="#DejaVuSans-63" x="255.912109"/>
      <use xlink:href="#DejaVuSans-74" x="310.892578"/>
      <use xlink:href="#DejaVuSans-20" x="350.101562"/>
      <use xlink:href="#DejaVuSans-68" x="381.888672"/>
      <use xlink:href="#DejaVuSans-6f" x="445.267578"/>
      <use xlink:href="#DejaVuSans-6d" x="506.449219"/>
      <use xlink:href="#DejaVuSans-65" x="603.861328"/>
      <use xlink:href="#DejaVuSans-6f" x="665.384766"/>
      <use xlink:href="#DejaVuSans-74" x="726.566406"/>
      <use xlink:href="#DejaVuSans-79" x="765.775391"/>
      <use xlink:href="#DejaVuSans-70" x="824.955078"/>
      <use xlink:href="#DejaVuSans-69" x="888.431641"/>
      <use xlink:href="#DejaVuSans-63" x="916.214844"/>
     </g>
    </g>
    <g id="patch_10">
     <path d="M 280.598125 87.426688 
L 300.598125 87.426688 
L 300.598125 80.426688 
L 280.598125 80.426688 
z
" style="fill: #ff0000"/>
    </g>
    <g id="text_21">
     <!-- false -->
     <g transform="translate(308.598125 87.426688) scale(0.1 -0.1)">
      <defs>
       <path id="DejaVuSans-61" d="M 2194 1759 
Q 1497 1759 1228 1600 
Q 959 1441 959 1056 
Q 959 750 1161 570 
Q 1363 391 1709 391 
Q 2188 391 2477 730 
Q 2766 1069 2766 1631 
L 2766 1759 
L 2194 1759 
z
M 3341 1997 
L 3341 0 
L 2766 0 
L 2766 531 
Q 2569 213 2275 61 
Q 1981 -91 1556 -91 
Q 1019 -91 701 211 
Q 384 513 384 1019 
Q 384 1609 779 1909 
Q 1175 2209 1959 2209 
L 2766 2209 
L 2766 2266 
Q 2766 2663 2505 2880 
Q 2244 3097 1772 3097 
Q 1472 3097 1187 3025 
Q 903 2953 641 2809 
L 641 3341 
Q 956 3463 1253 3523 
Q 1550 3584 1831 3584 
Q 2591 3584 2966 3190 
Q 3341 2797 3341 1997 
z
" transform="scale(0.015625)"/>
      </defs>
      <use xlink:href="#DejaVuSans-66"/>
      <use xlink:href="#DejaVuSans-61" x="35.205078"/>
      <use xlink:href="#DejaVuSans-6c" x="96.484375"/>
      <use xlink:href="#DejaVuSans-73" x="124.267578"/>
      <use xlink:href="#DejaVuSans-65" x="176.367188"/>
     </g>
    </g>
   </g>
  </g>
 </g>
 <defs>
  <clipPath id="pdd4f5a0de8">
   <rect x="57.6" y="41.472" width="357.12" height="266.112"/>
  </clipPath>
 </defs>
</svg>
