<?xml version="1.0" encoding="utf-8" standalone="no"?>
<!DOCTYPE svg PUBLIC "-//W3C//DTD SVG 1.1//EN"
  "http://www.w3.org/Graphics/SVG/1.1/DTD/svg11.dtd">
<svg xmlns:xlink="http://www.w3.org/1999/xlink" width="460.8pt" height="345.6pt" viewBox="0 0 460.8 345.6" xmlns="http://www.w3.org/2000/svg" version="1.1">
 <metadata>
  <rdf:RDF xmlns:dc="http://purl.org/dc/elements/1.1/" xmlns:cc="http://creativecommons.org/ns#" xmlns:rdf="http://www.w3.org/1999/02/22-rdf-syntax-ns#">
   <cc:Work>
    <dc:type rdf:resource="http://purl.org/dc/dcmitype/StillImage"/>
    <dc:date>2024-06-29T19:02:35.255106</dc:date>
    <dc:format>image/svg+xml</dc:format>
    <dc:creator>
     <cc:Agent>
      <dc:title>Matplotlib v3.9.0, https://matplotlib.org/</dc:title>
     </cc:Agent>
    </dc:creator>
   </cc:Work>
  </rdf:RDF>
 </metadata>
 <defs>
  <style type="text/css">*{stroke-linejoin: round; stroke-linecap: butt}</style>
 </defs>
 <g id="figure_1">
  <g id="patch_1">
   <path d="M 0 345.6 
L 460.8 345.6 
L 460.8 0 
L 0 0 
z
" style="fill: #ffffff"/>
  </g>
  <g id="axes_1">
   <g id="patch_2">
    <path d="M 57.6 307.584 
L 414.72 307.584 
L 414.72 41.472 
L 57.6 41.472 
z
" style="fill: #ffffff"/>
   </g>
   <g id="PolyCollection_1">
    <path d="M 73.832727 101.353412 
L 73.832727 307.584 
L 74.323939 307.584 
L 75.179011 307.584 
L 75.761188 307.584 
L 75.924925 307.584 
L 77.580491 307.584 
L 77.926158 307.584 
L 78.162667 307.584 
L 78.217246 307.584 
L 78.453756 307.584 
L 79.126898 307.584 
L 80.182093 307.584 
L 80.473182 307.584 
L 80.928007 307.584 
L 81.091745 307.584 
L 81.146324 307.584 
L 82.037782 307.584 
L 82.638152 307.584 
L 83.893471 307.584 
L 84.111787 307.584 
L 84.257331 307.584 
L 84.821315 307.584 
L 85.312527 307.584 
L 85.658194 307.584 
L 88.150639 307.584 
L 88.405341 307.584 
L 89.333185 307.584 
L 89.442343 307.584 
L 92.498772 307.584 
L 94.663742 307.584 
L 94.791093 307.584 
L 94.882058 307.584 
L 96.082798 307.584 
L 97.374503 307.584 
L 98.92091 307.584 
L 100.339966 307.584 
L 100.722019 307.584 
L 101.595285 307.584 
L 101.977338 307.584 
L 103.141692 307.584 
L 103.214464 307.584 
L 103.360008 307.584 
L 104.63352 307.584 
L 105.397627 307.584 
L 106.416436 307.584 
L 106.543788 307.584 
L 107.198737 307.584 
L 108.090195 307.584 
L 108.672372 307.584 
L 109.272742 307.584 
L 109.945883 307.584 
L 111.565063 307.584 
L 111.874344 307.584 
L 113.147856 307.584 
L 115.003545 307.584 
L 115.567528 307.584 
L 116.750075 307.584 
L 117.241287 307.584 
L 118.46022 307.584 
L 119.133362 307.584 
L 119.24252 307.584 
L 119.278906 307.584 
L 119.78831 307.584 
L 120.643383 307.584 
L 120.825313 307.584 
L 123.463302 307.584 
L 123.772583 307.584 
L 124.682234 307.584 
L 126.428765 307.584 
L 127.9024 307.584 
L 129.485193 307.584 
L 130.376651 307.584 
L 130.922442 307.584 
L 130.940635 307.584 
L 133.942485 307.584 
L 134.797557 307.584 
L 137.235422 307.584 
L 138.254232 307.584 
L 139.454971 307.584 
L 140.837641 307.584 
L 142.001995 307.584 
L 144.512633 307.584 
L 144.876493 307.584 
L 145.094809 307.584 
L 145.167581 307.584 
L 146.60483 307.584 
L 147.150621 307.584 
L 147.750991 307.584 
L 147.969307 307.584 
L 149.315591 307.584 
L 151.971773 307.584 
L 152.699494 307.584 
L 161.886972 307.584 
L 162.942168 307.584 
L 163.306028 307.584 
L 163.469765 307.584 
L 163.724468 307.584 
L 164.252066 307.584 
L 164.379417 307.584 
L 164.634119 307.584 
L 164.670505 307.584 
L 165.252682 307.584 
L 165.762087 307.584 
L 165.96221 307.584 
L 171.438311 307.584 
L 174.694862 307.584 
L 175.04053 307.584 
L 175.841023 307.584 
L 175.859216 307.584 
L 177.405623 307.584 
L 178.187923 307.584 
L 179.879875 307.584 
L 181.007842 307.584 
L 182.154003 307.584 
L 182.226775 307.584 
L 182.754373 307.584 
L 183.263777 307.584 
L 185.119466 307.584 
L 185.756222 307.584 
L 190.395444 307.584 
L 192.796923 307.584 
L 193.306328 307.584 
L 193.651995 307.584 
L 198.946166 307.584 
L 199.182675 307.584 
L 203.931055 307.584 
L 205.149988 307.584 
L 207.114834 307.584 
L 207.187606 307.584 
L 207.278572 307.584 
L 210.680667 307.584 
L 215.137959 307.584 
L 215.701942 307.584 
L 215.956645 307.584 
L 220.79599 307.584 
L 224.016155 307.584 
L 225.380632 307.584 
L 228.018621 307.584 
L 229.092009 307.584 
L 231.966508 307.584 
L 232.457719 307.584 
L 239.352876 307.584 
L 242.26376 307.584 
L 248.431196 307.584 
L 252.488241 307.584 
L 269.043894 307.584 
L 280.832975 307.584 
L 283.252647 307.584 
L 289.783944 307.584 
L 291.039262 307.584 
L 315.163215 307.584 
L 325.988065 307.584 
L 327.443507 307.584 
L 327.952912 307.584 
L 336.849301 307.584 
L 350.475878 307.584 
L 353.732429 307.584 
L 357.516579 307.584 
L 398.487273 307.584 
L 398.487273 306.341647 
L 398.487273 306.341647 
L 357.516579 305.099294 
L 353.732429 303.856941 
L 350.475878 302.614588 
L 336.849301 301.372235 
L 327.952912 300.129882 
L 327.443507 298.887529 
L 325.988065 297.645176 
L 315.163215 296.402824 
L 291.039262 295.160471 
L 289.783944 293.918118 
L 283.252647 292.675765 
L 280.832975 291.433412 
L 269.043894 290.191059 
L 252.488241 288.948706 
L 248.431196 287.706353 
L 242.26376 286.464 
L 239.352876 286.464 
L 232.457719 285.221647 
L 231.966508 283.979294 
L 229.092009 282.736941 
L 228.018621 281.494588 
L 225.380632 280.252235 
L 224.016155 279.009882 
L 220.79599 277.767529 
L 215.956645 276.525176 
L 215.701942 275.282824 
L 215.137959 272.798118 
L 210.680667 272.798118 
L 207.278572 271.555765 
L 207.187606 270.313412 
L 207.114834 266.586353 
L 205.149988 265.344 
L 203.931055 265.344 
L 199.182675 264.101647 
L 198.946166 262.859294 
L 193.651995 261.616941 
L 193.306328 259.132235 
L 192.796923 257.889882 
L 190.395444 256.647529 
L 185.756222 255.405176 
L 185.119466 254.162824 
L 183.263777 252.920471 
L 182.754373 251.678118 
L 182.226775 250.435765 
L 182.154003 249.193412 
L 181.007842 247.951059 
L 179.879875 246.708706 
L 178.187923 244.224 
L 177.405623 244.224 
L 175.859216 241.739294 
L 175.841023 240.496941 
L 175.04053 239.254588 
L 174.694862 238.012235 
L 171.438311 236.769882 
L 165.96221 235.527529 
L 165.762087 233.042824 
L 165.252682 231.800471 
L 164.670505 230.558118 
L 164.634119 229.315765 
L 164.379417 229.315765 
L 164.252066 228.073412 
L 163.724468 226.831059 
L 163.469765 225.588706 
L 163.306028 225.588706 
L 162.942168 224.346353 
L 161.886972 223.104 
L 152.699494 221.861647 
L 151.971773 220.619294 
L 149.315591 219.376941 
L 147.969307 216.892235 
L 147.750991 214.407529 
L 147.150621 213.165176 
L 146.60483 213.165176 
L 145.167581 209.438118 
L 145.094809 205.711059 
L 144.876493 204.468706 
L 144.512633 203.226353 
L 142.001995 201.984 
L 140.837641 200.741647 
L 139.454971 199.499294 
L 138.254232 198.256941 
L 137.235422 197.014588 
L 134.797557 195.772235 
L 133.942485 194.529882 
L 130.940635 193.287529 
L 130.922442 189.560471 
L 130.376651 188.318118 
L 129.485193 185.833412 
L 127.9024 183.348706 
L 126.428765 182.106353 
L 124.682234 180.864 
L 123.772583 178.379294 
L 123.463302 177.136941 
L 120.825313 175.894588 
L 120.643383 175.894588 
L 119.78831 174.652235 
L 119.278906 173.409882 
L 119.24252 172.167529 
L 119.133362 170.925176 
L 118.46022 164.713412 
L 117.241287 164.713412 
L 116.750075 163.471059 
L 115.567528 162.228706 
L 115.003545 160.986353 
L 113.147856 160.986353 
L 111.874344 159.744 
L 111.565063 158.501647 
L 109.945883 156.016941 
L 109.272742 153.532235 
L 108.672372 152.289882 
L 108.090195 149.805176 
L 107.198737 148.562824 
L 106.543788 147.320471 
L 106.416436 146.078118 
L 105.397627 142.351059 
L 104.63352 141.108706 
L 103.360008 139.866353 
L 103.214464 138.624 
L 103.141692 137.381647 
L 101.977338 136.139294 
L 101.595285 134.896941 
L 100.722019 131.169882 
L 100.339966 129.927529 
L 98.92091 127.442824 
L 97.374503 126.200471 
L 96.082798 124.958118 
L 94.882058 123.715765 
L 94.791093 123.715765 
L 94.663742 119.988706 
L 92.498772 118.746353 
L 89.442343 117.504 
L 89.333185 116.261647 
L 88.405341 115.019294 
L 88.150639 113.776941 
L 85.658194 112.534588 
L 85.312527 112.534588 
L 84.821315 111.292235 
L 84.257331 110.049882 
L 84.111787 110.049882 
L 83.893471 110.049882 
L 82.638152 110.049882 
L 82.037782 110.049882 
L 81.146324 107.565176 
L 81.091745 107.565176 
L 80.928007 106.322824 
L 80.473182 106.322824 
L 80.182093 105.080471 
L 79.126898 105.080471 
L 78.453756 103.838118 
L 78.217246 102.595765 
L 78.162667 101.353412 
L 77.926158 101.353412 
L 77.580491 101.353412 
L 75.924925 101.353412 
L 75.761188 101.353412 
L 75.179011 101.353412 
L 74.323939 101.353412 
L 73.832727 101.353412 
z
" clip-path="url(#p914db9f265)" style="fill: #008000"/>
   </g>
   <g id="PolyCollection_2">
    <path d="M 73.832727 101.353412 
L 73.832727 101.353412 
L 74.323939 101.353412 
L 75.179011 101.353412 
L 75.761188 101.353412 
L 75.924925 101.353412 
L 77.580491 101.353412 
L 77.926158 101.353412 
L 78.162667 101.353412 
L 78.217246 102.595765 
L 78.453756 103.838118 
L 79.126898 105.080471 
L 80.182093 105.080471 
L 80.473182 106.322824 
L 80.928007 106.322824 
L 81.091745 107.565176 
L 81.146324 107.565176 
L 82.037782 110.049882 
L 82.638152 110.049882 
L 83.893471 110.049882 
L 84.111787 110.049882 
L 84.257331 110.049882 
L 84.821315 111.292235 
L 85.312527 112.534588 
L 85.658194 112.534588 
L 88.150639 113.776941 
L 88.405341 115.019294 
L 89.333185 116.261647 
L 89.442343 117.504 
L 92.498772 118.746353 
L 94.663742 119.988706 
L 94.791093 123.715765 
L 94.882058 123.715765 
L 96.082798 124.958118 
L 97.374503 126.200471 
L 98.92091 127.442824 
L 100.339966 129.927529 
L 100.722019 131.169882 
L 101.595285 134.896941 
L 101.977338 136.139294 
L 103.141692 137.381647 
L 103.214464 138.624 
L 103.360008 139.866353 
L 104.63352 141.108706 
L 105.397627 142.351059 
L 106.416436 146.078118 
L 106.543788 147.320471 
L 107.198737 148.562824 
L 108.090195 149.805176 
L 108.672372 152.289882 
L 109.272742 153.532235 
L 109.945883 156.016941 
L 111.565063 158.501647 
L 111.874344 159.744 
L 113.147856 160.986353 
L 115.003545 160.986353 
L 115.567528 162.228706 
L 116.750075 163.471059 
L 117.241287 164.713412 
L 118.46022 164.713412 
L 119.133362 170.925176 
L 119.24252 172.167529 
L 119.278906 173.409882 
L 119.78831 174.652235 
L 120.643383 175.894588 
L 120.825313 175.894588 
L 123.463302 177.136941 
L 123.772583 178.379294 
L 124.682234 180.864 
L 126.428765 182.106353 
L 127.9024 183.348706 
L 129.485193 185.833412 
L 130.376651 188.318118 
L 130.922442 189.560471 
L 130.940635 193.287529 
L 133.942485 194.529882 
L 134.797557 195.772235 
L 137.235422 197.014588 
L 138.254232 198.256941 
L 139.454971 199.499294 
L 140.837641 200.741647 
L 142.001995 201.984 
L 144.512633 203.226353 
L 144.876493 204.468706 
L 145.094809 205.711059 
L 145.167581 209.438118 
L 146.60483 213.165176 
L 147.150621 213.165176 
L 147.750991 214.407529 
L 147.969307 216.892235 
L 149.315591 219.376941 
L 151.971773 220.619294 
L 152.699494 221.861647 
L 161.886972 223.104 
L 162.942168 224.346353 
L 163.306028 225.588706 
L 163.469765 225.588706 
L 163.724468 226.831059 
L 164.252066 228.073412 
L 164.379417 229.315765 
L 164.634119 229.315765 
L 164.670505 230.558118 
L 165.252682 231.800471 
L 165.762087 233.042824 
L 165.96221 235.527529 
L 171.438311 236.769882 
L 174.694862 238.012235 
L 175.04053 239.254588 
L 175.841023 240.496941 
L 175.859216 241.739294 
L 177.405623 244.224 
L 178.187923 244.224 
L 179.879875 246.708706 
L 181.007842 247.951059 
L 182.154003 249.193412 
L 182.226775 250.435765 
L 182.754373 251.678118 
L 183.263777 252.920471 
L 185.119466 254.162824 
L 185.756222 255.405176 
L 190.395444 256.647529 
L 192.796923 257.889882 
L 193.306328 259.132235 
L 193.651995 261.616941 
L 198.946166 262.859294 
L 199.182675 264.101647 
L 203.931055 265.344 
L 205.149988 265.344 
L 207.114834 266.586353 
L 207.187606 270.313412 
L 207.278572 271.555765 
L 210.680667 272.798118 
L 215.137959 272.798118 
L 215.701942 275.282824 
L 215.956645 276.525176 
L 220.79599 277.767529 
L 224.016155 279.009882 
L 225.380632 280.252235 
L 228.018621 281.494588 
L 229.092009 282.736941 
L 231.966508 283.979294 
L 232.457719 285.221647 
L 239.352876 286.464 
L 242.26376 286.464 
L 248.431196 287.706353 
L 252.488241 288.948706 
L 269.043894 290.191059 
L 280.832975 291.433412 
L 283.252647 292.675765 
L 289.783944 293.918118 
L 291.039262 295.160471 
L 315.163215 296.402824 
L 325.988065 297.645176 
L 327.443507 298.887529 
L 327.952912 300.129882 
L 336.849301 301.372235 
L 350.475878 302.614588 
L 353.732429 303.856941 
L 357.516579 305.099294 
L 398.487273 306.341647 
L 398.487273 306.341647 
L 398.487273 306.341647 
L 357.516579 305.099294 
L 353.732429 303.856941 
L 350.475878 302.614588 
L 336.849301 301.372235 
L 327.952912 300.129882 
L 327.443507 298.887529 
L 325.988065 297.645176 
L 315.163215 296.402824 
L 291.039262 295.160471 
L 289.783944 293.918118 
L 283.252647 292.675765 
L 280.832975 291.433412 
L 269.043894 290.191059 
L 252.488241 288.948706 
L 248.431196 287.706353 
L 242.26376 286.464 
L 239.352876 286.464 
L 232.457719 285.221647 
L 231.966508 283.979294 
L 229.092009 282.736941 
L 228.018621 281.494588 
L 225.380632 280.252235 
L 224.016155 279.009882 
L 220.79599 277.767529 
L 215.956645 276.525176 
L 215.701942 275.282824 
L 215.137959 272.798118 
L 210.680667 272.798118 
L 207.278572 271.555765 
L 207.187606 270.313412 
L 207.114834 266.586353 
L 205.149988 265.344 
L 203.931055 265.344 
L 199.182675 264.101647 
L 198.946166 262.859294 
L 193.651995 261.616941 
L 193.306328 259.132235 
L 192.796923 257.889882 
L 190.395444 256.647529 
L 185.756222 255.405176 
L 185.119466 254.162824 
L 183.263777 252.920471 
L 182.754373 251.678118 
L 182.226775 250.435765 
L 182.154003 249.193412 
L 181.007842 247.951059 
L 179.879875 246.708706 
L 178.187923 244.224 
L 177.405623 244.224 
L 175.859216 241.739294 
L 175.841023 240.496941 
L 175.04053 239.254588 
L 174.694862 238.012235 
L 171.438311 236.769882 
L 165.96221 235.527529 
L 165.762087 233.042824 
L 165.252682 231.800471 
L 164.670505 230.558118 
L 164.634119 229.315765 
L 164.379417 229.315765 
L 164.252066 228.073412 
L 163.724468 226.831059 
L 163.469765 225.588706 
L 163.306028 225.588706 
L 162.942168 224.346353 
L 161.886972 223.104 
L 152.699494 221.861647 
L 151.971773 220.619294 
L 149.315591 219.376941 
L 147.969307 216.892235 
L 147.750991 214.407529 
L 147.150621 213.165176 
L 146.60483 213.165176 
L 145.167581 209.438118 
L 145.094809 205.711059 
L 144.876493 204.468706 
L 144.512633 203.226353 
L 142.001995 201.984 
L 140.837641 200.741647 
L 139.454971 199.499294 
L 138.254232 198.256941 
L 137.235422 197.014588 
L 134.797557 195.772235 
L 133.942485 194.529882 
L 130.940635 193.287529 
L 130.922442 189.560471 
L 130.376651 188.318118 
L 129.485193 185.833412 
L 127.9024 183.348706 
L 126.428765 182.106353 
L 124.682234 180.864 
L 123.772583 178.379294 
L 123.463302 177.136941 
L 120.825313 175.894588 
L 120.643383 175.894588 
L 119.78831 174.652235 
L 119.278906 173.409882 
L 119.24252 172.167529 
L 119.133362 170.925176 
L 118.46022 164.713412 
L 117.241287 164.713412 
L 116.750075 163.471059 
L 115.567528 162.228706 
L 115.003545 160.986353 
L 113.147856 160.986353 
L 111.874344 159.744 
L 111.565063 158.501647 
L 109.945883 156.016941 
L 109.272742 153.532235 
L 108.672372 152.289882 
L 108.090195 149.805176 
L 107.198737 148.562824 
L 106.543788 147.320471 
L 106.416436 146.078118 
L 105.397627 142.351059 
L 104.63352 141.108706 
L 103.360008 139.866353 
L 103.214464 138.624 
L 103.141692 137.381647 
L 101.977338 136.139294 
L 101.595285 134.896941 
L 100.722019 131.169882 
L 100.339966 129.927529 
L 98.92091 127.442824 
L 97.374503 126.200471 
L 96.082798 124.958118 
L 94.882058 123.715765 
L 94.791093 123.715765 
L 94.663742 119.988706 
L 92.498772 118.746353 
L 89.442343 117.504 
L 89.333185 116.261647 
L 88.405341 115.019294 
L 88.150639 113.776941 
L 85.658194 112.534588 
L 85.312527 112.534588 
L 84.821315 111.292235 
L 84.257331 110.049882 
L 84.111787 110.049882 
L 83.893471 110.049882 
L 82.638152 110.049882 
L 82.037782 110.049882 
L 81.146324 107.565176 
L 81.091745 107.565176 
L 80.928007 106.322824 
L 80.473182 106.322824 
L 80.182093 105.080471 
L 79.126898 105.080471 
L 78.453756 103.838118 
L 78.217246 102.595765 
L 78.162667 101.353412 
L 77.926158 101.353412 
L 77.580491 101.353412 
L 75.924925 101.353412 
L 75.761188 101.353412 
L 75.179011 101.353412 
L 74.323939 101.353412 
L 73.832727 101.353412 
z
" clip-path="url(#p914db9f265)" style="fill: #7cfc00"/>
   </g>
   <g id="PolyCollection_3">
    <path d="M 73.832727 54.144 
L 73.832727 101.353412 
L 74.323939 101.353412 
L 75.179011 101.353412 
L 75.761188 101.353412 
L 75.924925 101.353412 
L 77.580491 101.353412 
L 77.926158 101.353412 
L 78.162667 101.353412 
L 78.217246 102.595765 
L 78.453756 103.838118 
L 79.126898 105.080471 
L 80.182093 105.080471 
L 80.473182 106.322824 
L 80.928007 106.322824 
L 81.091745 107.565176 
L 81.146324 107.565176 
L 82.037782 110.049882 
L 82.638152 110.049882 
L 83.893471 110.049882 
L 84.111787 110.049882 
L 84.257331 110.049882 
L 84.821315 111.292235 
L 85.312527 112.534588 
L 85.658194 112.534588 
L 88.150639 113.776941 
L 88.405341 115.019294 
L 89.333185 116.261647 
L 89.442343 117.504 
L 92.498772 118.746353 
L 94.663742 119.988706 
L 94.791093 123.715765 
L 94.882058 123.715765 
L 96.082798 124.958118 
L 97.374503 126.200471 
L 98.92091 127.442824 
L 100.339966 129.927529 
L 100.722019 131.169882 
L 101.595285 134.896941 
L 101.977338 136.139294 
L 103.141692 137.381647 
L 103.214464 138.624 
L 103.360008 139.866353 
L 104.63352 141.108706 
L 105.397627 142.351059 
L 106.416436 146.078118 
L 106.543788 147.320471 
L 107.198737 148.562824 
L 108.090195 149.805176 
L 108.672372 152.289882 
L 109.272742 153.532235 
L 109.945883 156.016941 
L 111.565063 158.501647 
L 111.874344 159.744 
L 113.147856 160.986353 
L 115.003545 160.986353 
L 115.567528 162.228706 
L 116.750075 163.471059 
L 117.241287 164.713412 
L 118.46022 164.713412 
L 119.133362 170.925176 
L 119.24252 172.167529 
L 119.278906 173.409882 
L 119.78831 174.652235 
L 120.643383 175.894588 
L 120.825313 175.894588 
L 123.463302 177.136941 
L 123.772583 178.379294 
L 124.682234 180.864 
L 126.428765 182.106353 
L 127.9024 183.348706 
L 129.485193 185.833412 
L 130.376651 188.318118 
L 130.922442 189.560471 
L 130.940635 193.287529 
L 133.942485 194.529882 
L 134.797557 195.772235 
L 137.235422 197.014588 
L 138.254232 198.256941 
L 139.454971 199.499294 
L 140.837641 200.741647 
L 142.001995 201.984 
L 144.512633 203.226353 
L 144.876493 204.468706 
L 145.094809 205.711059 
L 145.167581 209.438118 
L 146.60483 213.165176 
L 147.150621 213.165176 
L 147.750991 214.407529 
L 147.969307 216.892235 
L 149.315591 219.376941 
L 151.971773 220.619294 
L 152.699494 221.861647 
L 161.886972 223.104 
L 162.942168 224.346353 
L 163.306028 225.588706 
L 163.469765 225.588706 
L 163.724468 226.831059 
L 164.252066 228.073412 
L 164.379417 229.315765 
L 164.634119 229.315765 
L 164.670505 230.558118 
L 165.252682 231.800471 
L 165.762087 233.042824 
L 165.96221 235.527529 
L 171.438311 236.769882 
L 174.694862 238.012235 
L 175.04053 239.254588 
L 175.841023 240.496941 
L 175.859216 241.739294 
L 177.405623 244.224 
L 178.187923 244.224 
L 179.879875 246.708706 
L 181.007842 247.951059 
L 182.154003 249.193412 
L 182.226775 250.435765 
L 182.754373 251.678118 
L 183.263777 252.920471 
L 185.119466 254.162824 
L 185.756222 255.405176 
L 190.395444 256.647529 
L 192.796923 257.889882 
L 193.306328 259.132235 
L 193.651995 261.616941 
L 198.946166 262.859294 
L 199.182675 264.101647 
L 203.931055 265.344 
L 205.149988 265.344 
L 207.114834 266.586353 
L 207.187606 270.313412 
L 207.278572 271.555765 
L 210.680667 272.798118 
L 215.137959 272.798118 
L 215.701942 275.282824 
L 215.956645 276.525176 
L 220.79599 277.767529 
L 224.016155 279.009882 
L 225.380632 280.252235 
L 228.018621 281.494588 
L 229.092009 282.736941 
L 231.966508 283.979294 
L 232.457719 285.221647 
L 239.352876 286.464 
L 242.26376 286.464 
L 248.431196 287.706353 
L 252.488241 288.948706 
L 269.043894 290.191059 
L 280.832975 291.433412 
L 283.252647 292.675765 
L 289.783944 293.918118 
L 291.039262 295.160471 
L 315.163215 296.402824 
L 325.988065 297.645176 
L 327.443507 298.887529 
L 327.952912 300.129882 
L 336.849301 301.372235 
L 350.475878 302.614588 
L 353.732429 303.856941 
L 357.516579 305.099294 
L 398.487273 306.341647 
L 398.487273 306.341647 
L 398.487273 306.341647 
L 357.516579 305.099294 
L 353.732429 303.856941 
L 350.475878 302.614588 
L 336.849301 301.372235 
L 327.952912 300.129882 
L 327.443507 298.887529 
L 325.988065 297.645176 
L 315.163215 296.402824 
L 291.039262 295.160471 
L 289.783944 293.918118 
L 283.252647 292.675765 
L 280.832975 291.433412 
L 269.043894 290.191059 
L 252.488241 288.948706 
L 248.431196 287.706353 
L 242.26376 286.464 
L 239.352876 285.221647 
L 232.457719 283.979294 
L 231.966508 282.736941 
L 229.092009 281.494588 
L 228.018621 280.252235 
L 225.380632 279.009882 
L 224.016155 277.767529 
L 220.79599 276.525176 
L 215.956645 275.282824 
L 215.701942 274.040471 
L 215.137959 271.555765 
L 210.680667 270.313412 
L 207.278572 269.071059 
L 207.187606 267.828706 
L 207.114834 264.101647 
L 205.149988 262.859294 
L 203.931055 261.616941 
L 199.182675 260.374588 
L 198.946166 259.132235 
L 193.651995 257.889882 
L 193.306328 255.405176 
L 192.796923 254.162824 
L 190.395444 252.920471 
L 185.756222 251.678118 
L 185.119466 250.435765 
L 183.263777 249.193412 
L 182.754373 247.951059 
L 182.226775 246.708706 
L 182.154003 245.466353 
L 181.007842 244.224 
L 179.879875 242.981647 
L 178.187923 240.496941 
L 177.405623 239.254588 
L 175.859216 236.769882 
L 175.841023 235.527529 
L 175.04053 234.285176 
L 174.694862 233.042824 
L 171.438311 231.800471 
L 165.96221 229.315765 
L 165.762087 226.831059 
L 165.252682 225.588706 
L 164.670505 224.346353 
L 164.634119 223.104 
L 164.379417 221.861647 
L 164.252066 220.619294 
L 163.724468 219.376941 
L 163.469765 218.134588 
L 163.306028 216.892235 
L 162.942168 215.649882 
L 161.886972 214.407529 
L 152.699494 213.165176 
L 151.971773 211.922824 
L 149.315591 210.680471 
L 147.969307 208.195765 
L 147.750991 205.711059 
L 147.150621 204.468706 
L 146.60483 203.226353 
L 145.167581 199.499294 
L 145.094809 194.529882 
L 144.876493 193.287529 
L 144.512633 192.045176 
L 142.001995 190.802824 
L 140.837641 189.560471 
L 139.454971 188.318118 
L 138.254232 187.075765 
L 137.235422 185.833412 
L 134.797557 184.591059 
L 133.942485 182.106353 
L 130.940635 180.864 
L 130.922442 177.136941 
L 130.376651 175.894588 
L 129.485193 173.409882 
L 127.9024 170.925176 
L 126.428765 169.682824 
L 124.682234 168.440471 
L 123.772583 165.955765 
L 123.463302 164.713412 
L 120.825313 163.471059 
L 120.643383 162.228706 
L 119.78831 160.986353 
L 119.278906 159.744 
L 119.24252 158.501647 
L 119.133362 157.259294 
L 118.46022 151.047529 
L 117.241287 149.805176 
L 116.750075 148.562824 
L 115.567528 147.320471 
L 115.003545 146.078118 
L 113.147856 144.835765 
L 111.874344 143.593412 
L 111.565063 142.351059 
L 109.945883 139.866353 
L 109.272742 137.381647 
L 108.672372 136.139294 
L 108.090195 133.654588 
L 107.198737 132.412235 
L 106.543788 131.169882 
L 106.416436 128.685176 
L 105.397627 124.958118 
L 104.63352 123.715765 
L 103.360008 122.473412 
L 103.214464 121.231059 
L 103.141692 119.988706 
L 101.977338 118.746353 
L 101.595285 117.504 
L 100.722019 113.776941 
L 100.339966 112.534588 
L 98.92091 110.049882 
L 97.374503 108.807529 
L 96.082798 107.565176 
L 94.882058 106.322824 
L 94.791093 105.080471 
L 94.663742 100.111059 
L 92.498772 98.868706 
L 89.442343 97.626353 
L 89.333185 96.384 
L 88.405341 95.141647 
L 88.150639 93.899294 
L 85.658194 92.656941 
L 85.312527 91.414588 
L 84.821315 88.929882 
L 84.257331 87.687529 
L 84.111787 86.445176 
L 83.893471 85.202824 
L 82.638152 83.960471 
L 82.037782 82.718118 
L 81.146324 80.233412 
L 81.091745 78.991059 
L 80.928007 77.748706 
L 80.473182 76.506353 
L 80.182093 74.021647 
L 79.126898 72.779294 
L 78.453756 71.536941 
L 78.217246 70.294588 
L 78.162667 69.052235 
L 77.926158 66.567529 
L 77.580491 65.325176 
L 75.924925 64.082824 
L 75.761188 61.598118 
L 75.179011 57.871059 
L 74.323939 56.628706 
L 73.832727 54.144 
z
" clip-path="url(#p914db9f265)" style="fill: #ff0000"/>
   </g>
   <g id="matplotlib.axis_1">
    <g id="xtick_1">
     <g id="line2d_1">
      <defs>
       <path id="md3c293a85b" d="M 0 0 
L 0 3.5 
" style="stroke: #000000; stroke-width: 0.8"/>
      </defs>
      <g>
       <use xlink:href="#md3c293a85b" x="79.126898" y="307.584" style="stroke: #000000; stroke-width: 0.8"/>
      </g>
     </g>
     <g id="text_1">
      <!-- 25 -->
      <g transform="translate(72.764398 322.182437) scale(0.1 -0.1)">
       <defs>
        <path id="DejaVuSans-32" d="M 1228 531 
L 3431 531 
L 3431 0 
L 469 0 
L 469 531 
Q 828 903 1448 1529 
Q 2069 2156 2228 2338 
Q 2531 2678 2651 2914 
Q 2772 3150 2772 3378 
Q 2772 3750 2511 3984 
Q 2250 4219 1831 4219 
Q 1534 4219 1204 4116 
Q 875 4013 500 3803 
L 500 4441 
Q 881 4594 1212 4672 
Q 1544 4750 1819 4750 
Q 2544 4750 2975 4387 
Q 3406 4025 3406 3419 
Q 3406 3131 3298 2873 
Q 3191 2616 2906 2266 
Q 2828 2175 2409 1742 
Q 1991 1309 1228 531 
z
" transform="scale(0.015625)"/>
        <path id="DejaVuSans-35" d="M 691 4666 
L 3169 4666 
L 3169 4134 
L 1269 4134 
L 1269 2991 
Q 1406 3038 1543 3061 
Q 1681 3084 1819 3084 
Q 2600 3084 3056 2656 
Q 3513 2228 3513 1497 
Q 3513 744 3044 326 
Q 2575 -91 1722 -91 
Q 1428 -91 1123 -41 
Q 819 9 494 109 
L 494 744 
Q 775 591 1075 516 
Q 1375 441 1709 441 
Q 2250 441 2565 725 
Q 2881 1009 2881 1497 
Q 2881 1984 2565 2268 
Q 2250 2553 1709 2553 
Q 1456 2553 1204 2497 
Q 953 2441 691 2322 
L 691 4666 
z
" transform="scale(0.015625)"/>
       </defs>
       <use xlink:href="#DejaVuSans-32"/>
       <use xlink:href="#DejaVuSans-35" x="63.623047"/>
      </g>
     </g>
    </g>
    <g id="xtick_2">
     <g id="line2d_2">
      <g>
       <use xlink:href="#md3c293a85b" x="124.609462" y="307.584" style="stroke: #000000; stroke-width: 0.8"/>
      </g>
     </g>
     <g id="text_2">
      <!-- 50 -->
      <g transform="translate(118.246962 322.182437) scale(0.1 -0.1)">
       <defs>
        <path id="DejaVuSans-30" d="M 2034 4250 
Q 1547 4250 1301 3770 
Q 1056 3291 1056 2328 
Q 1056 1369 1301 889 
Q 1547 409 2034 409 
Q 2525 409 2770 889 
Q 3016 1369 3016 2328 
Q 3016 3291 2770 3770 
Q 2525 4250 2034 4250 
z
M 2034 4750 
Q 2819 4750 3233 4129 
Q 3647 3509 3647 2328 
Q 3647 1150 3233 529 
Q 2819 -91 2034 -91 
Q 1250 -91 836 529 
Q 422 1150 422 2328 
Q 422 3509 836 4129 
Q 1250 4750 2034 4750 
z
" transform="scale(0.015625)"/>
       </defs>
       <use xlink:href="#DejaVuSans-35"/>
       <use xlink:href="#DejaVuSans-30" x="63.623047"/>
      </g>
     </g>
    </g>
    <g id="xtick_3">
     <g id="line2d_3">
      <g>
       <use xlink:href="#md3c293a85b" x="170.092027" y="307.584" style="stroke: #000000; stroke-width: 0.8"/>
      </g>
     </g>
     <g id="text_3">
      <!-- 75 -->
      <g transform="translate(163.729527 322.182437) scale(0.1 -0.1)">
       <defs>
        <path id="DejaVuSans-37" d="M 525 4666 
L 3525 4666 
L 3525 4397 
L 1831 0 
L 1172 0 
L 2766 4134 
L 525 4134 
L 525 4666 
z
" transform="scale(0.015625)"/>
       </defs>
       <use xlink:href="#DejaVuSans-37"/>
       <use xlink:href="#DejaVuSans-35" x="63.623047"/>
      </g>
     </g>
    </g>
    <g id="xtick_4">
     <g id="line2d_4">
      <g>
       <use xlink:href="#md3c293a85b" x="215.574591" y="307.584" style="stroke: #000000; stroke-width: 0.8"/>
      </g>
     </g>
     <g id="text_4">
      <!-- 100 -->
      <g transform="translate(206.030841 322.182437) scale(0.1 -0.1)">
       <defs>
        <path id="DejaVuSans-31" d="M 794 531 
L 1825 531 
L 1825 4091 
L 703 3866 
L 703 4441 
L 1819 4666 
L 2450 4666 
L 2450 531 
L 3481 531 
L 3481 0 
L 794 0 
L 794 531 
z
" transform="scale(0.015625)"/>
       </defs>
       <use xlink:href="#DejaVuSans-31"/>
       <use xlink:href="#DejaVuSans-30" x="63.623047"/>
       <use xlink:href="#DejaVuSans-30" x="127.246094"/>
      </g>
     </g>
    </g>
    <g id="xtick_5">
     <g id="line2d_5">
      <g>
       <use xlink:href="#md3c293a85b" x="261.057156" y="307.584" style="stroke: #000000; stroke-width: 0.8"/>
      </g>
     </g>
     <g id="text_5">
      <!-- 125 -->
      <g transform="translate(251.513406 322.182437) scale(0.1 -0.1)">
       <use xlink:href="#DejaVuSans-31"/>
       <use xlink:href="#DejaVuSans-32" x="63.623047"/>
       <use xlink:href="#DejaVuSans-35" x="127.246094"/>
      </g>
     </g>
    </g>
    <g id="xtick_6">
     <g id="line2d_6">
      <g>
       <use xlink:href="#md3c293a85b" x="306.53972" y="307.584" style="stroke: #000000; stroke-width: 0.8"/>
      </g>
     </g>
     <g id="text_6">
      <!-- 150 -->
      <g transform="translate(296.99597 322.182437) scale(0.1 -0.1)">
       <use xlink:href="#DejaVuSans-31"/>
       <use xlink:href="#DejaVuSans-35" x="63.623047"/>
       <use xlink:href="#DejaVuSans-30" x="127.246094"/>
      </g>
     </g>
    </g>
    <g id="xtick_7">
     <g id="line2d_7">
      <g>
       <use xlink:href="#md3c293a85b" x="352.022285" y="307.584" style="stroke: #000000; stroke-width: 0.8"/>
      </g>
     </g>
     <g id="text_7">
      <!-- 175 -->
      <g transform="translate(342.478535 322.182437) scale(0.1 -0.1)">
       <use xlink:href="#DejaVuSans-31"/>
       <use xlink:href="#DejaVuSans-37" x="63.623047"/>
       <use xlink:href="#DejaVuSans-35" x="127.246094"/>
      </g>
     </g>
    </g>
    <g id="xtick_8">
     <g id="line2d_8">
      <g>
       <use xlink:href="#md3c293a85b" x="397.504849" y="307.584" style="stroke: #000000; stroke-width: 0.8"/>
      </g>
     </g>
     <g id="text_8">
      <!-- 200 -->
      <g transform="translate(387.961099 322.182437) scale(0.1 -0.1)">
       <use xlink:href="#DejaVuSans-32"/>
       <use xlink:href="#DejaVuSans-30" x="63.623047"/>
       <use xlink:href="#DejaVuSans-30" x="127.246094"/>
      </g>
     </g>
    </g>
    <g id="text_9">
     <!-- Score -->
     <g transform="translate(222.157656 335.860562) scale(0.1 -0.1)">
      <defs>
       <path id="DejaVuSans-53" d="M 3425 4513 
L 3425 3897 
Q 3066 4069 2747 4153 
Q 2428 4238 2131 4238 
Q 1616 4238 1336 4038 
Q 1056 3838 1056 3469 
Q 1056 3159 1242 3001 
Q 1428 2844 1947 2747 
L 2328 2669 
Q 3034 2534 3370 2195 
Q 3706 1856 3706 1288 
Q 3706 609 3251 259 
Q 2797 -91 1919 -91 
Q 1588 -91 1214 -16 
Q 841 59 441 206 
L 441 856 
Q 825 641 1194 531 
Q 1563 422 1919 422 
Q 2459 422 2753 634 
Q 3047 847 3047 1241 
Q 3047 1584 2836 1778 
Q 2625 1972 2144 2069 
L 1759 2144 
Q 1053 2284 737 2584 
Q 422 2884 422 3419 
Q 422 4038 858 4394 
Q 1294 4750 2059 4750 
Q 2388 4750 2728 4690 
Q 3069 4631 3425 4513 
z
" transform="scale(0.015625)"/>
       <path id="DejaVuSans-63" d="M 3122 3366 
L 3122 2828 
Q 2878 2963 2633 3030 
Q 2388 3097 2138 3097 
Q 1578 3097 1268 2742 
Q 959 2388 959 1747 
Q 959 1106 1268 751 
Q 1578 397 2138 397 
Q 2388 397 2633 464 
Q 2878 531 3122 666 
L 3122 134 
Q 2881 22 2623 -34 
Q 2366 -91 2075 -91 
Q 1284 -91 818 406 
Q 353 903 353 1747 
Q 353 2603 823 3093 
Q 1294 3584 2113 3584 
Q 2378 3584 2631 3529 
Q 2884 3475 3122 3366 
z
" transform="scale(0.015625)"/>
       <path id="DejaVuSans-6f" d="M 1959 3097 
Q 1497 3097 1228 2736 
Q 959 2375 959 1747 
Q 959 1119 1226 758 
Q 1494 397 1959 397 
Q 2419 397 2687 759 
Q 2956 1122 2956 1747 
Q 2956 2369 2687 2733 
Q 2419 3097 1959 3097 
z
M 1959 3584 
Q 2709 3584 3137 3096 
Q 3566 2609 3566 1747 
Q 3566 888 3137 398 
Q 2709 -91 1959 -91 
Q 1206 -91 779 398 
Q 353 888 353 1747 
Q 353 2609 779 3096 
Q 1206 3584 1959 3584 
z
" transform="scale(0.015625)"/>
       <path id="DejaVuSans-72" d="M 2631 2963 
Q 2534 3019 2420 3045 
Q 2306 3072 2169 3072 
Q 1681 3072 1420 2755 
Q 1159 2438 1159 1844 
L 1159 0 
L 581 0 
L 581 3500 
L 1159 3500 
L 1159 2956 
Q 1341 3275 1631 3429 
Q 1922 3584 2338 3584 
Q 2397 3584 2469 3576 
Q 2541 3569 2628 3553 
L 2631 2963 
z
" transform="scale(0.015625)"/>
       <path id="DejaVuSans-65" d="M 3597 1894 
L 3597 1613 
L 953 1613 
Q 991 1019 1311 708 
Q 1631 397 2203 397 
Q 2534 397 2845 478 
Q 3156 559 3463 722 
L 3463 178 
Q 3153 47 2828 -22 
Q 2503 -91 2169 -91 
Q 1331 -91 842 396 
Q 353 884 353 1716 
Q 353 2575 817 3079 
Q 1281 3584 2069 3584 
Q 2775 3584 3186 3129 
Q 3597 2675 3597 1894 
z
M 3022 2063 
Q 3016 2534 2758 2815 
Q 2500 3097 2075 3097 
Q 1594 3097 1305 2825 
Q 1016 2553 972 2059 
L 3022 2063 
z
" transform="scale(0.015625)"/>
      </defs>
      <use xlink:href="#DejaVuSans-53"/>
      <use xlink:href="#DejaVuSans-63" x="63.476562"/>
      <use xlink:href="#DejaVuSans-6f" x="118.457031"/>
      <use xlink:href="#DejaVuSans-72" x="179.638672"/>
      <use xlink:href="#DejaVuSans-65" x="218.501953"/>
     </g>
    </g>
   </g>
   <g id="matplotlib.axis_2">
    <g id="ytick_1">
     <g id="line2d_9">
      <defs>
       <path id="mcb6e0aee79" d="M 0 0 
L -3.5 0 
" style="stroke: #000000; stroke-width: 0.8"/>
      </defs>
      <g>
       <use xlink:href="#mcb6e0aee79" x="57.6" y="307.584" style="stroke: #000000; stroke-width: 0.8"/>
      </g>
     </g>
     <g id="text_10">
      <!-- 0 -->
      <g transform="translate(44.2375 311.383219) scale(0.1 -0.1)">
       <use xlink:href="#DejaVuSans-30"/>
      </g>
     </g>
    </g>
    <g id="ytick_2">
     <g id="line2d_10">
      <g>
       <use xlink:href="#mcb6e0aee79" x="57.6" y="276.525176" style="stroke: #000000; stroke-width: 0.8"/>
      </g>
     </g>
     <g id="text_11">
      <!-- 25 -->
      <g transform="translate(37.875 280.324395) scale(0.1 -0.1)">
       <use xlink:href="#DejaVuSans-32"/>
       <use xlink:href="#DejaVuSans-35" x="63.623047"/>
      </g>
     </g>
    </g>
    <g id="ytick_3">
     <g id="line2d_11">
      <g>
       <use xlink:href="#mcb6e0aee79" x="57.6" y="245.466353" style="stroke: #000000; stroke-width: 0.8"/>
      </g>
     </g>
     <g id="text_12">
      <!-- 50 -->
      <g transform="translate(37.875 249.265572) scale(0.1 -0.1)">
       <use xlink:href="#DejaVuSans-35"/>
       <use xlink:href="#DejaVuSans-30" x="63.623047"/>
      </g>
     </g>
    </g>
    <g id="ytick_4">
     <g id="line2d_12">
      <g>
       <use xlink:href="#mcb6e0aee79" x="57.6" y="214.407529" style="stroke: #000000; stroke-width: 0.8"/>
      </g>
     </g>
     <g id="text_13">
      <!-- 75 -->
      <g transform="translate(37.875 218.206748) scale(0.1 -0.1)">
       <use xlink:href="#DejaVuSans-37"/>
       <use xlink:href="#DejaVuSans-35" x="63.623047"/>
      </g>
     </g>
    </g>
    <g id="ytick_5">
     <g id="line2d_13">
      <g>
       <use xlink:href="#mcb6e0aee79" x="57.6" y="183.348706" style="stroke: #000000; stroke-width: 0.8"/>
      </g>
     </g>
     <g id="text_14">
      <!-- 100 -->
      <g transform="translate(31.5125 187.147925) scale(0.1 -0.1)">
       <use xlink:href="#DejaVuSans-31"/>
       <use xlink:href="#DejaVuSans-30" x="63.623047"/>
       <use xlink:href="#DejaVuSans-30" x="127.246094"/>
      </g>
     </g>
    </g>
    <g id="ytick_6">
     <g id="line2d_14">
      <g>
       <use xlink:href="#mcb6e0aee79" x="57.6" y="152.289882" style="stroke: #000000; stroke-width: 0.8"/>
      </g>
     </g>
     <g id="text_15">
      <!-- 125 -->
      <g transform="translate(31.5125 156.089101) scale(0.1 -0.1)">
       <use xlink:href="#DejaVuSans-31"/>
       <use xlink:href="#DejaVuSans-32" x="63.623047"/>
       <use xlink:href="#DejaVuSans-35" x="127.246094"/>
      </g>
     </g>
    </g>
    <g id="ytick_7">
     <g id="line2d_15">
      <g>
       <use xlink:href="#mcb6e0aee79" x="57.6" y="121.231059" style="stroke: #000000; stroke-width: 0.8"/>
      </g>
     </g>
     <g id="text_16">
      <!-- 150 -->
      <g transform="translate(31.5125 125.030278) scale(0.1 -0.1)">
       <use xlink:href="#DejaVuSans-31"/>
       <use xlink:href="#DejaVuSans-35" x="63.623047"/>
       <use xlink:href="#DejaVuSans-30" x="127.246094"/>
      </g>
     </g>
    </g>
    <g id="ytick_8">
     <g id="line2d_16">
      <g>
       <use xlink:href="#mcb6e0aee79" x="57.6" y="90.172235" style="stroke: #000000; stroke-width: 0.8"/>
      </g>
     </g>
     <g id="text_17">
      <!-- 175 -->
      <g transform="translate(31.5125 93.971454) scale(0.1 -0.1)">
       <use xlink:href="#DejaVuSans-31"/>
       <use xlink:href="#DejaVuSans-37" x="63.623047"/>
       <use xlink:href="#DejaVuSans-35" x="127.246094"/>
      </g>
     </g>
    </g>
    <g id="ytick_9">
     <g id="line2d_17">
      <g>
       <use xlink:href="#mcb6e0aee79" x="57.6" y="59.113412" style="stroke: #000000; stroke-width: 0.8"/>
      </g>
     </g>
     <g id="text_18">
      <!-- 200 -->
      <g transform="translate(31.5125 62.912631) scale(0.1 -0.1)">
       <use xlink:href="#DejaVuSans-32"/>
       <use xlink:href="#DejaVuSans-30" x="63.623047"/>
       <use xlink:href="#DejaVuSans-30" x="127.246094"/>
      </g>
     </g>
    </g>
    <g id="text_19">
     <!-- Number of crosslinks -->
     <g transform="translate(25.432812 227.019406) rotate(-90) scale(0.1 -0.1)">
      <defs>
       <path id="DejaVuSans-4e" d="M 628 4666 
L 1478 4666 
L 3547 763 
L 3547 4666 
L 4159 4666 
L 4159 0 
L 3309 0 
L 1241 3903 
L 1241 0 
L 628 0 
L 628 4666 
z
" transform="scale(0.015625)"/>
       <path id="DejaVuSans-75" d="M 544 1381 
L 544 3500 
L 1119 3500 
L 1119 1403 
Q 1119 906 1312 657 
Q 1506 409 1894 409 
Q 2359 409 2629 706 
Q 2900 1003 2900 1516 
L 2900 3500 
L 3475 3500 
L 3475 0 
L 2900 0 
L 2900 538 
Q 2691 219 2414 64 
Q 2138 -91 1772 -91 
Q 1169 -91 856 284 
Q 544 659 544 1381 
z
M 1991 3584 
L 1991 3584 
z
" transform="scale(0.015625)"/>
       <path id="DejaVuSans-6d" d="M 3328 2828 
Q 3544 3216 3844 3400 
Q 4144 3584 4550 3584 
Q 5097 3584 5394 3201 
Q 5691 2819 5691 2113 
L 5691 0 
L 5113 0 
L 5113 2094 
Q 5113 2597 4934 2840 
Q 4756 3084 4391 3084 
Q 3944 3084 3684 2787 
Q 3425 2491 3425 1978 
L 3425 0 
L 2847 0 
L 2847 2094 
Q 2847 2600 2669 2842 
Q 2491 3084 2119 3084 
Q 1678 3084 1418 2786 
Q 1159 2488 1159 1978 
L 1159 0 
L 581 0 
L 581 3500 
L 1159 3500 
L 1159 2956 
Q 1356 3278 1631 3431 
Q 1906 3584 2284 3584 
Q 2666 3584 2933 3390 
Q 3200 3197 3328 2828 
z
" transform="scale(0.015625)"/>
       <path id="DejaVuSans-62" d="M 3116 1747 
Q 3116 2381 2855 2742 
Q 2594 3103 2138 3103 
Q 1681 3103 1420 2742 
Q 1159 2381 1159 1747 
Q 1159 1113 1420 752 
Q 1681 391 2138 391 
Q 2594 391 2855 752 
Q 3116 1113 3116 1747 
z
M 1159 2969 
Q 1341 3281 1617 3432 
Q 1894 3584 2278 3584 
Q 2916 3584 3314 3078 
Q 3713 2572 3713 1747 
Q 3713 922 3314 415 
Q 2916 -91 2278 -91 
Q 1894 -91 1617 61 
Q 1341 213 1159 525 
L 1159 0 
L 581 0 
L 581 4863 
L 1159 4863 
L 1159 2969 
z
" transform="scale(0.015625)"/>
       <path id="DejaVuSans-20" transform="scale(0.015625)"/>
       <path id="DejaVuSans-66" d="M 2375 4863 
L 2375 4384 
L 1825 4384 
Q 1516 4384 1395 4259 
Q 1275 4134 1275 3809 
L 1275 3500 
L 2222 3500 
L 2222 3053 
L 1275 3053 
L 1275 0 
L 697 0 
L 697 3053 
L 147 3053 
L 147 3500 
L 697 3500 
L 697 3744 
Q 697 4328 969 4595 
Q 1241 4863 1831 4863 
L 2375 4863 
z
" transform="scale(0.015625)"/>
       <path id="DejaVuSans-73" d="M 2834 3397 
L 2834 2853 
Q 2591 2978 2328 3040 
Q 2066 3103 1784 3103 
Q 1356 3103 1142 2972 
Q 928 2841 928 2578 
Q 928 2378 1081 2264 
Q 1234 2150 1697 2047 
L 1894 2003 
Q 2506 1872 2764 1633 
Q 3022 1394 3022 966 
Q 3022 478 2636 193 
Q 2250 -91 1575 -91 
Q 1294 -91 989 -36 
Q 684 19 347 128 
L 347 722 
Q 666 556 975 473 
Q 1284 391 1588 391 
Q 1994 391 2212 530 
Q 2431 669 2431 922 
Q 2431 1156 2273 1281 
Q 2116 1406 1581 1522 
L 1381 1569 
Q 847 1681 609 1914 
Q 372 2147 372 2553 
Q 372 3047 722 3315 
Q 1072 3584 1716 3584 
Q 2034 3584 2315 3537 
Q 2597 3491 2834 3397 
z
" transform="scale(0.015625)"/>
       <path id="DejaVuSans-6c" d="M 603 4863 
L 1178 4863 
L 1178 0 
L 603 0 
L 603 4863 
z
" transform="scale(0.015625)"/>
       <path id="DejaVuSans-69" d="M 603 3500 
L 1178 3500 
L 1178 0 
L 603 0 
L 603 3500 
z
M 603 4863 
L 1178 4863 
L 1178 4134 
L 603 4134 
L 603 4863 
z
" transform="scale(0.015625)"/>
       <path id="DejaVuSans-6e" d="M 3513 2113 
L 3513 0 
L 2938 0 
L 2938 2094 
Q 2938 2591 2744 2837 
Q 2550 3084 2163 3084 
Q 1697 3084 1428 2787 
Q 1159 2491 1159 1978 
L 1159 0 
L 581 0 
L 581 3500 
L 1159 3500 
L 1159 2956 
Q 1366 3272 1645 3428 
Q 1925 3584 2291 3584 
Q 2894 3584 3203 3211 
Q 3513 2838 3513 2113 
z
" transform="scale(0.015625)"/>
       <path id="DejaVuSans-6b" d="M 581 4863 
L 1159 4863 
L 1159 1991 
L 2875 3500 
L 3609 3500 
L 1753 1863 
L 3688 0 
L 2938 0 
L 1159 1709 
L 1159 0 
L 581 0 
L 581 4863 
z
" transform="scale(0.015625)"/>
      </defs>
      <use xlink:href="#DejaVuSans-4e"/>
      <use xlink:href="#DejaVuSans-75" x="74.804688"/>
      <use xlink:href="#DejaVuSans-6d" x="138.183594"/>
      <use xlink:href="#DejaVuSans-62" x="235.595703"/>
      <use xlink:href="#DejaVuSans-65" x="299.072266"/>
      <use xlink:href="#DejaVuSans-72" x="360.595703"/>
      <use xlink:href="#DejaVuSans-20" x="401.708984"/>
      <use xlink:href="#DejaVuSans-6f" x="433.496094"/>
      <use xlink:href="#DejaVuSans-66" x="494.677734"/>
      <use xlink:href="#DejaVuSans-20" x="529.882812"/>
      <use xlink:href="#DejaVuSans-63" x="561.669922"/>
      <use xlink:href="#DejaVuSans-72" x="616.650391"/>
      <use xlink:href="#DejaVuSans-6f" x="655.513672"/>
      <use xlink:href="#DejaVuSans-73" x="716.695312"/>
      <use xlink:href="#DejaVuSans-73" x="768.794922"/>
      <use xlink:href="#DejaVuSans-6c" x="820.894531"/>
      <use xlink:href="#DejaVuSans-69" x="848.677734"/>
      <use xlink:href="#DejaVuSans-6e" x="876.460938"/>
      <use xlink:href="#DejaVuSans-6b" x="939.839844"/>
      <use xlink:href="#DejaVuSans-73" x="997.75"/>
     </g>
    </g>
   </g>
   <g id="patch_3">
    <path d="M 57.6 307.584 
L 57.6 41.472 
" style="fill: none; stroke: #000000; stroke-width: 0.8; stroke-linejoin: miter; stroke-linecap: square"/>
   </g>
   <g id="patch_4">
    <path d="M 414.72 307.584 
L 414.72 41.472 
" style="fill: none; stroke: #000000; stroke-width: 0.8; stroke-linejoin: miter; stroke-linecap: square"/>
   </g>
   <g id="patch_5">
    <path d="M 57.6 307.584 
L 414.72 307.584 
" style="fill: none; stroke: #000000; stroke-width: 0.8; stroke-linejoin: miter; stroke-linecap: square"/>
   </g>
   <g id="patch_6">
    <path d="M 57.6 41.472 
L 414.72 41.472 
" style="fill: none; stroke: #000000; stroke-width: 0.8; stroke-linejoin: miter; stroke-linecap: square"/>
   </g>
   <g id="legend_1">
    <g id="patch_7">
     <path d="M 278.598125 93.506375 
L 407.72 93.506375 
Q 409.72 93.506375 409.72 91.506375 
L 409.72 48.472 
Q 409.72 46.472 407.72 46.472 
L 278.598125 46.472 
Q 276.598125 46.472 276.598125 48.472 
L 276.598125 91.506375 
Q 276.598125 93.506375 278.598125 93.506375 
z
" style="fill: #ffffff; opacity: 0.8; stroke: #cccccc; stroke-linejoin: miter"/>
    </g>
    <g id="patch_8">
     <path d="M 280.598125 58.070438 
L 300.598125 58.070438 
L 300.598125 51.070438 
L 280.598125 51.070438 
z
" style="fill: #008000"/>
    </g>
    <g id="text_20">
     <!-- correct -->
     <g transform="translate(308.598125 58.070438) scale(0.1 -0.1)">
      <defs>
       <path id="DejaVuSans-74" d="M 1172 4494 
L 1172 3500 
L 2356 3500 
L 2356 3053 
L 1172 3053 
L 1172 1153 
Q 1172 725 1289 603 
Q 1406 481 1766 481 
L 2356 481 
L 2356 0 
L 1766 0 
Q 1100 0 847 248 
Q 594 497 594 1153 
L 594 3053 
L 172 3053 
L 172 3500 
L 594 3500 
L 594 4494 
L 1172 4494 
z
" transform="scale(0.015625)"/>
      </defs>
      <use xlink:href="#DejaVuSans-63"/>
      <use xlink:href="#DejaVuSans-6f" x="54.980469"/>
      <use xlink:href="#DejaVuSans-72" x="116.162109"/>
      <use xlink:href="#DejaVuSans-72" x="155.525391"/>
      <use xlink:href="#DejaVuSans-65" x="194.388672"/>
      <use xlink:href="#DejaVuSans-63" x="255.912109"/>
      <use xlink:href="#DejaVuSans-74" x="310.892578"/>
     </g>
    </g>
    <g id="patch_9">
     <path d="M 280.598125 72.748563 
L 300.598125 72.748563 
L 300.598125 65.748563 
L 280.598125 65.748563 
z
" style="fill: #7cfc00"/>
    </g>
    <g id="text_21">
     <!-- correct homeotypic -->
     <g transform="translate(308.598125 72.748563) scale(0.1 -0.1)">
      <defs>
       <path id="DejaVuSans-68" d="M 3513 2113 
L 3513 0 
L 2938 0 
L 2938 2094 
Q 2938 2591 2744 2837 
Q 2550 3084 2163 3084 
Q 1697 3084 1428 2787 
Q 1159 2491 1159 1978 
L 1159 0 
L 581 0 
L 581 4863 
L 1159 4863 
L 1159 2956 
Q 1366 3272 1645 3428 
Q 1925 3584 2291 3584 
Q 2894 3584 3203 3211 
Q 3513 2838 3513 2113 
z
" transform="scale(0.015625)"/>
       <path id="DejaVuSans-79" d="M 2059 -325 
Q 1816 -950 1584 -1140 
Q 1353 -1331 966 -1331 
L 506 -1331 
L 506 -850 
L 844 -850 
Q 1081 -850 1212 -737 
Q 1344 -625 1503 -206 
L 1606 56 
L 191 3500 
L 800 3500 
L 1894 763 
L 2988 3500 
L 3597 3500 
L 2059 -325 
z
" transform="scale(0.015625)"/>
       <path id="DejaVuSans-70" d="M 1159 525 
L 1159 -1331 
L 581 -1331 
L 581 3500 
L 1159 3500 
L 1159 2969 
Q 1341 3281 1617 3432 
Q 1894 3584 2278 3584 
Q 2916 3584 3314 3078 
Q 3713 2572 3713 1747 
Q 3713 922 3314 415 
Q 2916 -91 2278 -91 
Q 1894 -91 1617 61 
Q 1341 213 1159 525 
z
M 3116 1747 
Q 3116 2381 2855 2742 
Q 2594 3103 2138 3103 
Q 1681 3103 1420 2742 
Q 1159 2381 1159 1747 
Q 1159 1113 1420 752 
Q 1681 391 2138 391 
Q 2594 391 2855 752 
Q 3116 1113 3116 1747 
z
" transform="scale(0.015625)"/>
      </defs>
      <use xlink:href="#DejaVuSans-63"/>
      <use xlink:href="#DejaVuSans-6f" x="54.980469"/>
      <use xlink:href="#DejaVuSans-72" x="116.162109"/>
      <use xlink:href="#DejaVuSans-72" x="155.525391"/>
      <use xlink:href="#DejaVuSans-65" x="194.388672"/>
      <use xlink:href="#DejaVuSans-63" x="255.912109"/>
      <use xlink:href="#DejaVuSans-74" x="310.892578"/>
      <use xlink:href="#DejaVuSans-20" x="350.101562"/>
      <use xlink:href="#DejaVuSans-68" x="381.888672"/>
      <use xlink:href="#DejaVuSans-6f" x="445.267578"/>
      <use xlink:href="#DejaVuSans-6d" x="506.449219"/>
      <use xlink:href="#DejaVuSans-65" x="603.861328"/>
      <use xlink:href="#DejaVuSans-6f" x="665.384766"/>
      <use xlink:href="#DejaVuSans-74" x="726.566406"/>
      <use xlink:href="#DejaVuSans-79" x="765.775391"/>
      <use xlink:href="#DejaVuSans-70" x="824.955078"/>
      <use xlink:href="#DejaVuSans-69" x="888.431641"/>
      <use xlink:href="#DejaVuSans-63" x="916.214844"/>
     </g>
    </g>
    <g id="patch_10">
     <path d="M 280.598125 87.426688 
L 300.598125 87.426688 
L 300.598125 80.426688 
L 280.598125 80.426688 
z
" style="fill: #ff0000"/>
    </g>
    <g id="text_22">
     <!-- false -->
     <g transform="translate(308.598125 87.426688) scale(0.1 -0.1)">
      <defs>
       <path id="DejaVuSans-61" d="M 2194 1759 
Q 1497 1759 1228 1600 
Q 959 1441 959 1056 
Q 959 750 1161 570 
Q 1363 391 1709 391 
Q 2188 391 2477 730 
Q 2766 1069 2766 1631 
L 2766 1759 
L 2194 1759 
z
M 3341 1997 
L 3341 0 
L 2766 0 
L 2766 531 
Q 2569 213 2275 61 
Q 1981 -91 1556 -91 
Q 1019 -91 701 211 
Q 384 513 384 1019 
Q 384 1609 779 1909 
Q 1175 2209 1959 2209 
L 2766 2209 
L 2766 2266 
Q 2766 2663 2505 2880 
Q 2244 3097 1772 3097 
Q 1472 3097 1187 3025 
Q 903 2953 641 2809 
L 641 3341 
Q 956 3463 1253 3523 
Q 1550 3584 1831 3584 
Q 2591 3584 2966 3190 
Q 3341 2797 3341 1997 
z
" transform="scale(0.015625)"/>
      </defs>
      <use xlink:href="#DejaVuSans-66"/>
      <use xlink:href="#DejaVuSans-61" x="35.205078"/>
      <use xlink:href="#DejaVuSans-6c" x="96.484375"/>
      <use xlink:href="#DejaVuSans-73" x="124.267578"/>
      <use xlink:href="#DejaVuSans-65" x="176.367188"/>
     </g>
    </g>
   </g>
  </g>
 </g>
 <defs>
  <clipPath id="p914db9f265">
   <rect x="57.6" y="41.472" width="357.12" height="266.112"/>
  </clipPath>
 </defs>
</svg>
