<?xml version="1.0" encoding="utf-8" standalone="no"?>
<!DOCTYPE svg PUBLIC "-//W3C//DTD SVG 1.1//EN"
  "http://www.w3.org/Graphics/SVG/1.1/DTD/svg11.dtd">
<svg xmlns:xlink="http://www.w3.org/1999/xlink" width="460.8pt" height="345.6pt" viewBox="0 0 460.8 345.6" xmlns="http://www.w3.org/2000/svg" version="1.1">
 <metadata>
  <rdf:RDF xmlns:dc="http://purl.org/dc/elements/1.1/" xmlns:cc="http://creativecommons.org/ns#" xmlns:rdf="http://www.w3.org/1999/02/22-rdf-syntax-ns#">
   <cc:Work>
    <dc:type rdf:resource="http://purl.org/dc/dcmitype/StillImage"/>
    <dc:date>2024-06-27T12:52:41.564839</dc:date>
    <dc:format>image/svg+xml</dc:format>
    <dc:creator>
     <cc:Agent>
      <dc:title>Matplotlib v3.9.0, https://matplotlib.org/</dc:title>
     </cc:Agent>
    </dc:creator>
   </cc:Work>
  </rdf:RDF>
 </metadata>
 <defs>
  <style type="text/css">*{stroke-linejoin: round; stroke-linecap: butt}</style>
 </defs>
 <g id="figure_1">
  <g id="patch_1">
   <path d="M 0 345.6 
L 460.8 345.6 
L 460.8 0 
L 0 0 
z
" style="fill: #ffffff"/>
  </g>
  <g id="axes_1">
   <g id="patch_2">
    <path d="M 57.6 307.584 
L 414.72 307.584 
L 414.72 41.472 
L 57.6 41.472 
z
" style="fill: #ffffff"/>
   </g>
   <g id="PolyCollection_1">
    <path d="M 73.832727 132.442537 
L 73.832727 307.584 
L 73.832728 307.584 
L 73.832734 307.584 
L 73.83275 307.584 
L 73.832758 307.584 
L 73.832786 307.584 
L 73.832791 307.584 
L 73.83284 307.584 
L 73.832876 307.584 
L 73.832893 307.584 
L 73.832954 307.584 
L 73.83329 307.584 
L 73.834182 307.584 
L 73.838367 307.584 
L 73.84218 307.584 
L 73.842273 307.584 
L 73.844628 307.584 
L 73.846031 307.584 
L 73.854343 307.584 
L 73.861931 307.584 
L 73.863147 307.584 
L 73.87397 307.584 
L 74.004268 307.584 
L 74.076902 307.584 
L 74.083132 307.584 
L 74.101243 307.584 
L 74.311876 307.584 
L 74.416892 307.584 
L 74.449008 307.584 
L 74.510762 307.584 
L 74.739056 307.584 
L 75.109186 307.584 
L 75.162574 307.584 
L 75.965476 307.584 
L 77.02263 307.584 
L 77.542063 307.584 
L 78.289318 307.584 
L 79.405879 307.584 
L 81.304659 307.584 
L 81.393455 307.584 
L 82.273059 307.584 
L 82.507954 307.584 
L 83.068634 307.584 
L 83.577957 307.584 
L 84.338531 307.584 
L 84.80241 307.584 
L 86.529801 307.584 
L 87.418763 307.584 
L 89.865687 307.584 
L 89.968445 307.584 
L 95.170474 307.584 
L 96.539476 307.584 
L 100.597341 307.584 
L 101.438825 307.584 
L 102.267391 307.584 
L 107.239617 307.584 
L 110.645242 307.584 
L 111.698104 307.584 
L 121.015988 307.584 
L 123.830519 307.584 
L 130.378589 307.584 
L 130.418752 307.584 
L 132.878212 307.584 
L 140.703996 307.584 
L 142.232211 307.584 
L 149.944775 307.584 
L 156.137314 307.584 
L 167.522828 307.584 
L 168.549167 307.584 
L 169.824351 307.584 
L 172.27783 307.584 
L 173.080306 307.584 
L 185.543594 307.584 
L 187.531358 307.584 
L 195.949372 307.584 
L 200.289219 307.584 
L 204.561622 307.584 
L 205.676982 307.584 
L 208.402631 307.584 
L 211.836811 307.584 
L 221.070275 307.584 
L 223.405106 307.584 
L 223.446603 307.584 
L 227.578413 307.584 
L 229.50867 307.584 
L 233.602893 307.584 
L 238.816019 307.584 
L 242.755479 307.584 
L 249.863576 307.584 
L 250.339918 307.584 
L 250.428479 307.584 
L 259.730813 307.584 
L 264.825842 307.584 
L 275.092592 307.584 
L 279.560289 307.584 
L 298.592349 307.584 
L 311.769138 307.584 
L 316.517008 307.584 
L 319.79546 307.584 
L 321.030389 307.584 
L 322.299039 307.584 
L 326.970311 307.584 
L 328.441892 307.584 
L 329.195464 307.584 
L 333.057911 307.584 
L 334.053979 307.584 
L 334.659735 307.584 
L 338.247712 307.584 
L 344.34755 307.584 
L 348.199645 307.584 
L 353.501424 307.584 
L 353.757215 307.584 
L 357.369897 307.584 
L 360.300547 307.584 
L 361.902738 307.584 
L 370.392567 307.584 
L 375.154746 307.584 
L 387.642554 307.584 
L 388.391664 307.584 
L 389.058469 307.584 
L 397.858008 307.584 
L 398.016129 307.584 
L 398.487273 307.584 
L 398.487273 305.523512 
L 398.487273 305.523512 
L 398.016129 303.463024 
L 397.858008 301.402537 
L 389.058469 299.342049 
L 388.391664 299.342049 
L 387.642554 297.281561 
L 375.154746 297.281561 
L 370.392567 295.221073 
L 361.902738 293.160585 
L 360.300547 291.100098 
L 357.369897 291.100098 
L 353.757215 291.100098 
L 353.501424 289.03961 
L 348.199645 289.03961 
L 344.34755 286.979122 
L 338.247712 286.979122 
L 334.659735 286.979122 
L 334.053979 286.979122 
L 333.057911 284.918634 
L 329.195464 284.918634 
L 328.441892 284.918634 
L 326.970311 282.858146 
L 322.299039 280.797659 
L 321.030389 280.797659 
L 319.79546 280.797659 
L 316.517008 278.737171 
L 311.769138 276.676683 
L 298.592349 274.616195 
L 279.560289 272.555707 
L 275.092592 270.49522 
L 264.825842 268.434732 
L 259.730813 268.434732 
L 250.428479 266.374244 
L 250.339918 266.374244 
L 249.863576 264.313756 
L 242.755479 262.253268 
L 238.816019 262.253268 
L 233.602893 262.253268 
L 229.50867 262.253268 
L 227.578413 262.253268 
L 223.446603 262.253268 
L 223.405106 262.253268 
L 221.070275 260.19278 
L 211.836811 258.132293 
L 208.402631 256.071805 
L 205.676982 254.011317 
L 204.561622 251.950829 
L 200.289219 251.950829 
L 195.949372 249.890341 
L 187.531358 249.890341 
L 185.543594 249.890341 
L 173.080306 249.890341 
L 172.27783 249.890341 
L 169.824351 247.829854 
L 168.549167 245.769366 
L 167.522828 243.708878 
L 156.137314 241.64839 
L 149.944775 239.587902 
L 142.232211 237.527415 
L 140.703996 235.466927 
L 132.878212 235.466927 
L 130.418752 233.406439 
L 130.378589 231.345951 
L 123.830519 231.345951 
L 121.015988 229.285463 
L 111.698104 227.224976 
L 110.645242 227.224976 
L 107.239617 225.164488 
L 102.267391 223.104 
L 101.438825 223.104 
L 100.597341 221.043512 
L 96.539476 218.983024 
L 95.170474 216.922537 
L 89.968445 214.862049 
L 89.865687 212.801561 
L 87.418763 212.801561 
L 86.529801 212.801561 
L 84.80241 210.741073 
L 84.338531 210.741073 
L 83.577957 208.680585 
L 83.068634 206.620098 
L 82.507954 204.55961 
L 82.273059 202.499122 
L 81.393455 202.499122 
L 81.304659 200.438634 
L 79.405879 198.378146 
L 78.289318 196.317659 
L 77.542063 194.257171 
L 77.02263 194.257171 
L 75.965476 192.196683 
L 75.162574 190.136195 
L 75.109186 188.075707 
L 74.739056 188.075707 
L 74.510762 188.075707 
L 74.449008 186.01522 
L 74.416892 183.954732 
L 74.311876 181.894244 
L 74.101243 179.833756 
L 74.083132 179.833756 
L 74.076902 177.773268 
L 74.004268 175.71278 
L 73.87397 173.652293 
L 73.863147 171.591805 
L 73.861931 169.531317 
L 73.854343 167.470829 
L 73.846031 165.410341 
L 73.844628 165.410341 
L 73.842273 163.349854 
L 73.84218 161.289366 
L 73.838367 159.228878 
L 73.834182 157.16839 
L 73.83329 155.107902 
L 73.832954 153.047415 
L 73.832893 150.986927 
L 73.832876 148.926439 
L 73.83284 146.865951 
L 73.832791 144.805463 
L 73.832786 142.744976 
L 73.832758 140.684488 
L 73.83275 138.624 
L 73.832734 136.563512 
L 73.832728 134.503024 
L 73.832727 132.442537 
z
" clip-path="url(#p34272c0011)" style="fill: #008000"/>
   </g>
   <g id="PolyCollection_2">
    <path d="M 73.832727 95.353756 
L 73.832727 132.442537 
L 73.832728 134.503024 
L 73.832734 136.563512 
L 73.83275 138.624 
L 73.832758 140.684488 
L 73.832786 142.744976 
L 73.832791 144.805463 
L 73.83284 146.865951 
L 73.832876 148.926439 
L 73.832893 150.986927 
L 73.832954 153.047415 
L 73.83329 155.107902 
L 73.834182 157.16839 
L 73.838367 159.228878 
L 73.84218 161.289366 
L 73.842273 163.349854 
L 73.844628 165.410341 
L 73.846031 165.410341 
L 73.854343 167.470829 
L 73.861931 169.531317 
L 73.863147 171.591805 
L 73.87397 173.652293 
L 74.004268 175.71278 
L 74.076902 177.773268 
L 74.083132 179.833756 
L 74.101243 179.833756 
L 74.311876 181.894244 
L 74.416892 183.954732 
L 74.449008 186.01522 
L 74.510762 188.075707 
L 74.739056 188.075707 
L 75.109186 188.075707 
L 75.162574 190.136195 
L 75.965476 192.196683 
L 77.02263 194.257171 
L 77.542063 194.257171 
L 78.289318 196.317659 
L 79.405879 198.378146 
L 81.304659 200.438634 
L 81.393455 202.499122 
L 82.273059 202.499122 
L 82.507954 204.55961 
L 83.068634 206.620098 
L 83.577957 208.680585 
L 84.338531 210.741073 
L 84.80241 210.741073 
L 86.529801 212.801561 
L 87.418763 212.801561 
L 89.865687 212.801561 
L 89.968445 214.862049 
L 95.170474 216.922537 
L 96.539476 218.983024 
L 100.597341 221.043512 
L 101.438825 223.104 
L 102.267391 223.104 
L 107.239617 225.164488 
L 110.645242 227.224976 
L 111.698104 227.224976 
L 121.015988 229.285463 
L 123.830519 231.345951 
L 130.378589 231.345951 
L 130.418752 233.406439 
L 132.878212 235.466927 
L 140.703996 235.466927 
L 142.232211 237.527415 
L 149.944775 239.587902 
L 156.137314 241.64839 
L 167.522828 243.708878 
L 168.549167 245.769366 
L 169.824351 247.829854 
L 172.27783 249.890341 
L 173.080306 249.890341 
L 185.543594 249.890341 
L 187.531358 249.890341 
L 195.949372 249.890341 
L 200.289219 251.950829 
L 204.561622 251.950829 
L 205.676982 254.011317 
L 208.402631 256.071805 
L 211.836811 258.132293 
L 221.070275 260.19278 
L 223.405106 262.253268 
L 223.446603 262.253268 
L 227.578413 262.253268 
L 229.50867 262.253268 
L 233.602893 262.253268 
L 238.816019 262.253268 
L 242.755479 262.253268 
L 249.863576 264.313756 
L 250.339918 266.374244 
L 250.428479 266.374244 
L 259.730813 268.434732 
L 264.825842 268.434732 
L 275.092592 270.49522 
L 279.560289 272.555707 
L 298.592349 274.616195 
L 311.769138 276.676683 
L 316.517008 278.737171 
L 319.79546 280.797659 
L 321.030389 280.797659 
L 322.299039 280.797659 
L 326.970311 282.858146 
L 328.441892 284.918634 
L 329.195464 284.918634 
L 333.057911 284.918634 
L 334.053979 286.979122 
L 334.659735 286.979122 
L 338.247712 286.979122 
L 344.34755 286.979122 
L 348.199645 289.03961 
L 353.501424 289.03961 
L 353.757215 291.100098 
L 357.369897 291.100098 
L 360.300547 291.100098 
L 361.902738 293.160585 
L 370.392567 295.221073 
L 375.154746 297.281561 
L 387.642554 297.281561 
L 388.391664 299.342049 
L 389.058469 299.342049 
L 397.858008 301.402537 
L 398.016129 303.463024 
L 398.487273 305.523512 
L 398.487273 305.523512 
L 398.487273 305.523512 
L 398.016129 303.463024 
L 397.858008 301.402537 
L 389.058469 299.342049 
L 388.391664 297.281561 
L 387.642554 295.221073 
L 375.154746 295.221073 
L 370.392567 293.160585 
L 361.902738 291.100098 
L 360.300547 289.03961 
L 357.369897 286.979122 
L 353.757215 286.979122 
L 353.501424 284.918634 
L 348.199645 284.918634 
L 344.34755 282.858146 
L 338.247712 282.858146 
L 334.659735 282.858146 
L 334.053979 280.797659 
L 333.057911 278.737171 
L 329.195464 276.676683 
L 328.441892 274.616195 
L 326.970311 272.555707 
L 322.299039 270.49522 
L 321.030389 268.434732 
L 319.79546 266.374244 
L 316.517008 264.313756 
L 311.769138 262.253268 
L 298.592349 260.19278 
L 279.560289 258.132293 
L 275.092592 256.071805 
L 264.825842 254.011317 
L 259.730813 254.011317 
L 250.428479 251.950829 
L 250.339918 251.950829 
L 249.863576 249.890341 
L 242.755479 247.829854 
L 238.816019 247.829854 
L 233.602893 247.829854 
L 229.50867 247.829854 
L 227.578413 247.829854 
L 223.446603 247.829854 
L 223.405106 247.829854 
L 221.070275 245.769366 
L 211.836811 243.708878 
L 208.402631 241.64839 
L 205.676982 239.587902 
L 204.561622 237.527415 
L 200.289219 237.527415 
L 195.949372 235.466927 
L 187.531358 235.466927 
L 185.543594 233.406439 
L 173.080306 231.345951 
L 172.27783 229.285463 
L 169.824351 227.224976 
L 168.549167 225.164488 
L 167.522828 223.104 
L 156.137314 221.043512 
L 149.944775 218.983024 
L 142.232211 216.922537 
L 140.703996 214.862049 
L 132.878212 214.862049 
L 130.418752 212.801561 
L 130.378589 210.741073 
L 123.830519 208.680585 
L 121.015988 206.620098 
L 111.698104 204.55961 
L 110.645242 202.499122 
L 107.239617 200.438634 
L 102.267391 198.378146 
L 101.438825 198.378146 
L 100.597341 196.317659 
L 96.539476 194.257171 
L 95.170474 192.196683 
L 89.968445 190.136195 
L 89.865687 188.075707 
L 87.418763 188.075707 
L 86.529801 188.075707 
L 84.80241 186.01522 
L 84.338531 186.01522 
L 83.577957 183.954732 
L 83.068634 181.894244 
L 82.507954 179.833756 
L 82.273059 177.773268 
L 81.393455 175.71278 
L 81.304659 173.652293 
L 79.405879 171.591805 
L 78.289318 169.531317 
L 77.542063 167.470829 
L 77.02263 165.410341 
L 75.965476 163.349854 
L 75.162574 161.289366 
L 75.109186 159.228878 
L 74.739056 157.16839 
L 74.510762 155.107902 
L 74.449008 153.047415 
L 74.416892 150.986927 
L 74.311876 148.926439 
L 74.101243 146.865951 
L 74.083132 144.805463 
L 74.076902 142.744976 
L 74.004268 140.684488 
L 73.87397 138.624 
L 73.863147 136.563512 
L 73.861931 134.503024 
L 73.854343 132.442537 
L 73.846031 130.382049 
L 73.844628 128.321561 
L 73.842273 126.261073 
L 73.84218 124.200585 
L 73.838367 122.140098 
L 73.834182 120.07961 
L 73.83329 118.019122 
L 73.832954 115.958634 
L 73.832893 113.898146 
L 73.832876 111.837659 
L 73.83284 109.777171 
L 73.832791 107.716683 
L 73.832786 105.656195 
L 73.832758 103.595707 
L 73.83275 101.53522 
L 73.832734 99.474732 
L 73.832728 97.414244 
L 73.832727 95.353756 
z
" clip-path="url(#p34272c0011)" style="fill: #7cfc00"/>
   </g>
   <g id="PolyCollection_3">
    <path d="M 73.832727 54.144 
L 73.832727 95.353756 
L 73.832728 97.414244 
L 73.832734 99.474732 
L 73.83275 101.53522 
L 73.832758 103.595707 
L 73.832786 105.656195 
L 73.832791 107.716683 
L 73.83284 109.777171 
L 73.832876 111.837659 
L 73.832893 113.898146 
L 73.832954 115.958634 
L 73.83329 118.019122 
L 73.834182 120.07961 
L 73.838367 122.140098 
L 73.84218 124.200585 
L 73.842273 126.261073 
L 73.844628 128.321561 
L 73.846031 130.382049 
L 73.854343 132.442537 
L 73.861931 134.503024 
L 73.863147 136.563512 
L 73.87397 138.624 
L 74.004268 140.684488 
L 74.076902 142.744976 
L 74.083132 144.805463 
L 74.101243 146.865951 
L 74.311876 148.926439 
L 74.416892 150.986927 
L 74.449008 153.047415 
L 74.510762 155.107902 
L 74.739056 157.16839 
L 75.109186 159.228878 
L 75.162574 161.289366 
L 75.965476 163.349854 
L 77.02263 165.410341 
L 77.542063 167.470829 
L 78.289318 169.531317 
L 79.405879 171.591805 
L 81.304659 173.652293 
L 81.393455 175.71278 
L 82.273059 177.773268 
L 82.507954 179.833756 
L 83.068634 181.894244 
L 83.577957 183.954732 
L 84.338531 186.01522 
L 84.80241 186.01522 
L 86.529801 188.075707 
L 87.418763 188.075707 
L 89.865687 188.075707 
L 89.968445 190.136195 
L 95.170474 192.196683 
L 96.539476 194.257171 
L 100.597341 196.317659 
L 101.438825 198.378146 
L 102.267391 198.378146 
L 107.239617 200.438634 
L 110.645242 202.499122 
L 111.698104 204.55961 
L 121.015988 206.620098 
L 123.830519 208.680585 
L 130.378589 210.741073 
L 130.418752 212.801561 
L 132.878212 214.862049 
L 140.703996 214.862049 
L 142.232211 216.922537 
L 149.944775 218.983024 
L 156.137314 221.043512 
L 167.522828 223.104 
L 168.549167 225.164488 
L 169.824351 227.224976 
L 172.27783 229.285463 
L 173.080306 231.345951 
L 185.543594 233.406439 
L 187.531358 235.466927 
L 195.949372 235.466927 
L 200.289219 237.527415 
L 204.561622 237.527415 
L 205.676982 239.587902 
L 208.402631 241.64839 
L 211.836811 243.708878 
L 221.070275 245.769366 
L 223.405106 247.829854 
L 223.446603 247.829854 
L 227.578413 247.829854 
L 229.50867 247.829854 
L 233.602893 247.829854 
L 238.816019 247.829854 
L 242.755479 247.829854 
L 249.863576 249.890341 
L 250.339918 251.950829 
L 250.428479 251.950829 
L 259.730813 254.011317 
L 264.825842 254.011317 
L 275.092592 256.071805 
L 279.560289 258.132293 
L 298.592349 260.19278 
L 311.769138 262.253268 
L 316.517008 264.313756 
L 319.79546 266.374244 
L 321.030389 268.434732 
L 322.299039 270.49522 
L 326.970311 272.555707 
L 328.441892 274.616195 
L 329.195464 276.676683 
L 333.057911 278.737171 
L 334.053979 280.797659 
L 334.659735 282.858146 
L 338.247712 282.858146 
L 344.34755 282.858146 
L 348.199645 284.918634 
L 353.501424 284.918634 
L 353.757215 286.979122 
L 357.369897 286.979122 
L 360.300547 289.03961 
L 361.902738 291.100098 
L 370.392567 293.160585 
L 375.154746 295.221073 
L 387.642554 295.221073 
L 388.391664 297.281561 
L 389.058469 299.342049 
L 397.858008 301.402537 
L 398.016129 303.463024 
L 398.487273 305.523512 
L 398.487273 305.523512 
L 398.487273 305.523512 
L 398.016129 303.463024 
L 397.858008 301.402537 
L 389.058469 299.342049 
L 388.391664 297.281561 
L 387.642554 295.221073 
L 375.154746 293.160585 
L 370.392567 291.100098 
L 361.902738 289.03961 
L 360.300547 286.979122 
L 357.369897 284.918634 
L 353.757215 282.858146 
L 353.501424 280.797659 
L 348.199645 278.737171 
L 344.34755 276.676683 
L 338.247712 274.616195 
L 334.659735 272.555707 
L 334.053979 270.49522 
L 333.057911 268.434732 
L 329.195464 266.374244 
L 328.441892 264.313756 
L 326.970311 262.253268 
L 322.299039 260.19278 
L 321.030389 258.132293 
L 319.79546 256.071805 
L 316.517008 254.011317 
L 311.769138 251.950829 
L 298.592349 249.890341 
L 279.560289 247.829854 
L 275.092592 245.769366 
L 264.825842 243.708878 
L 259.730813 241.64839 
L 250.428479 239.587902 
L 250.339918 237.527415 
L 249.863576 235.466927 
L 242.755479 233.406439 
L 238.816019 231.345951 
L 233.602893 229.285463 
L 229.50867 227.224976 
L 227.578413 225.164488 
L 223.446603 223.104 
L 223.405106 221.043512 
L 221.070275 218.983024 
L 211.836811 216.922537 
L 208.402631 214.862049 
L 205.676982 212.801561 
L 204.561622 210.741073 
L 200.289219 208.680585 
L 195.949372 206.620098 
L 187.531358 204.55961 
L 185.543594 202.499122 
L 173.080306 200.438634 
L 172.27783 198.378146 
L 169.824351 196.317659 
L 168.549167 194.257171 
L 167.522828 192.196683 
L 156.137314 190.136195 
L 149.944775 188.075707 
L 142.232211 186.01522 
L 140.703996 183.954732 
L 132.878212 181.894244 
L 130.418752 179.833756 
L 130.378589 177.773268 
L 123.830519 175.71278 
L 121.015988 173.652293 
L 111.698104 171.591805 
L 110.645242 169.531317 
L 107.239617 167.470829 
L 102.267391 165.410341 
L 101.438825 163.349854 
L 100.597341 161.289366 
L 96.539476 159.228878 
L 95.170474 157.16839 
L 89.968445 155.107902 
L 89.865687 153.047415 
L 87.418763 150.986927 
L 86.529801 148.926439 
L 84.80241 146.865951 
L 84.338531 144.805463 
L 83.577957 142.744976 
L 83.068634 140.684488 
L 82.507954 138.624 
L 82.273059 136.563512 
L 81.393455 134.503024 
L 81.304659 132.442537 
L 79.405879 130.382049 
L 78.289318 128.321561 
L 77.542063 126.261073 
L 77.02263 124.200585 
L 75.965476 122.140098 
L 75.162574 120.07961 
L 75.109186 118.019122 
L 74.739056 115.958634 
L 74.510762 113.898146 
L 74.449008 111.837659 
L 74.416892 109.777171 
L 74.311876 107.716683 
L 74.101243 105.656195 
L 74.083132 103.595707 
L 74.076902 101.53522 
L 74.004268 99.474732 
L 73.87397 97.414244 
L 73.863147 95.353756 
L 73.861931 93.293268 
L 73.854343 91.23278 
L 73.846031 89.172293 
L 73.844628 87.111805 
L 73.842273 85.051317 
L 73.84218 82.990829 
L 73.838367 80.930341 
L 73.834182 78.869854 
L 73.83329 76.809366 
L 73.832954 74.748878 
L 73.832893 72.68839 
L 73.832876 70.627902 
L 73.83284 68.567415 
L 73.832791 66.506927 
L 73.832786 64.446439 
L 73.832758 62.385951 
L 73.83275 60.325463 
L 73.832734 58.264976 
L 73.832728 56.204488 
L 73.832727 54.144 
z
" clip-path="url(#p34272c0011)" style="fill: #ff0000"/>
   </g>
   <g id="matplotlib.axis_1">
    <g id="xtick_1">
     <g id="line2d_1">
      <defs>
       <path id="m7e326259f4" d="M 0 0 
L 0 3.5 
" style="stroke: #000000; stroke-width: 0.8"/>
      </defs>
      <g>
       <use xlink:href="#m7e326259f4" x="73.832727" y="307.584" style="stroke: #000000; stroke-width: 0.8"/>
      </g>
     </g>
     <g id="text_1">
      <!-- 0.0 -->
      <g transform="translate(65.881165 322.182437) scale(0.1 -0.1)">
       <defs>
        <path id="DejaVuSans-30" d="M 2034 4250 
Q 1547 4250 1301 3770 
Q 1056 3291 1056 2328 
Q 1056 1369 1301 889 
Q 1547 409 2034 409 
Q 2525 409 2770 889 
Q 3016 1369 3016 2328 
Q 3016 3291 2770 3770 
Q 2525 4250 2034 4250 
z
M 2034 4750 
Q 2819 4750 3233 4129 
Q 3647 3509 3647 2328 
Q 3647 1150 3233 529 
Q 2819 -91 2034 -91 
Q 1250 -91 836 529 
Q 422 1150 422 2328 
Q 422 3509 836 4129 
Q 1250 4750 2034 4750 
z
" transform="scale(0.015625)"/>
        <path id="DejaVuSans-2e" d="M 684 794 
L 1344 794 
L 1344 0 
L 684 0 
L 684 794 
z
" transform="scale(0.015625)"/>
       </defs>
       <use xlink:href="#DejaVuSans-30"/>
       <use xlink:href="#DejaVuSans-2e" x="63.623047"/>
       <use xlink:href="#DejaVuSans-30" x="95.410156"/>
      </g>
     </g>
    </g>
    <g id="xtick_2">
     <g id="line2d_2">
      <g>
       <use xlink:href="#m7e326259f4" x="119.838336" y="307.584" style="stroke: #000000; stroke-width: 0.8"/>
      </g>
     </g>
     <g id="text_2">
      <!-- 0.1 -->
      <g transform="translate(111.886774 322.182437) scale(0.1 -0.1)">
       <defs>
        <path id="DejaVuSans-31" d="M 794 531 
L 1825 531 
L 1825 4091 
L 703 3866 
L 703 4441 
L 1819 4666 
L 2450 4666 
L 2450 531 
L 3481 531 
L 3481 0 
L 794 0 
L 794 531 
z
" transform="scale(0.015625)"/>
       </defs>
       <use xlink:href="#DejaVuSans-30"/>
       <use xlink:href="#DejaVuSans-2e" x="63.623047"/>
       <use xlink:href="#DejaVuSans-31" x="95.410156"/>
      </g>
     </g>
    </g>
    <g id="xtick_3">
     <g id="line2d_3">
      <g>
       <use xlink:href="#m7e326259f4" x="165.843946" y="307.584" style="stroke: #000000; stroke-width: 0.8"/>
      </g>
     </g>
     <g id="text_3">
      <!-- 0.2 -->
      <g transform="translate(157.892383 322.182437) scale(0.1 -0.1)">
       <defs>
        <path id="DejaVuSans-32" d="M 1228 531 
L 3431 531 
L 3431 0 
L 469 0 
L 469 531 
Q 828 903 1448 1529 
Q 2069 2156 2228 2338 
Q 2531 2678 2651 2914 
Q 2772 3150 2772 3378 
Q 2772 3750 2511 3984 
Q 2250 4219 1831 4219 
Q 1534 4219 1204 4116 
Q 875 4013 500 3803 
L 500 4441 
Q 881 4594 1212 4672 
Q 1544 4750 1819 4750 
Q 2544 4750 2975 4387 
Q 3406 4025 3406 3419 
Q 3406 3131 3298 2873 
Q 3191 2616 2906 2266 
Q 2828 2175 2409 1742 
Q 1991 1309 1228 531 
z
" transform="scale(0.015625)"/>
       </defs>
       <use xlink:href="#DejaVuSans-30"/>
       <use xlink:href="#DejaVuSans-2e" x="63.623047"/>
       <use xlink:href="#DejaVuSans-32" x="95.410156"/>
      </g>
     </g>
    </g>
    <g id="xtick_4">
     <g id="line2d_4">
      <g>
       <use xlink:href="#m7e326259f4" x="211.849555" y="307.584" style="stroke: #000000; stroke-width: 0.8"/>
      </g>
     </g>
     <g id="text_4">
      <!-- 0.3 -->
      <g transform="translate(203.897992 322.182437) scale(0.1 -0.1)">
       <defs>
        <path id="DejaVuSans-33" d="M 2597 2516 
Q 3050 2419 3304 2112 
Q 3559 1806 3559 1356 
Q 3559 666 3084 287 
Q 2609 -91 1734 -91 
Q 1441 -91 1130 -33 
Q 819 25 488 141 
L 488 750 
Q 750 597 1062 519 
Q 1375 441 1716 441 
Q 2309 441 2620 675 
Q 2931 909 2931 1356 
Q 2931 1769 2642 2001 
Q 2353 2234 1838 2234 
L 1294 2234 
L 1294 2753 
L 1863 2753 
Q 2328 2753 2575 2939 
Q 2822 3125 2822 3475 
Q 2822 3834 2567 4026 
Q 2313 4219 1838 4219 
Q 1578 4219 1281 4162 
Q 984 4106 628 3988 
L 628 4550 
Q 988 4650 1302 4700 
Q 1616 4750 1894 4750 
Q 2613 4750 3031 4423 
Q 3450 4097 3450 3541 
Q 3450 3153 3228 2886 
Q 3006 2619 2597 2516 
z
" transform="scale(0.015625)"/>
       </defs>
       <use xlink:href="#DejaVuSans-30"/>
       <use xlink:href="#DejaVuSans-2e" x="63.623047"/>
       <use xlink:href="#DejaVuSans-33" x="95.410156"/>
      </g>
     </g>
    </g>
    <g id="xtick_5">
     <g id="line2d_5">
      <g>
       <use xlink:href="#m7e326259f4" x="257.855164" y="307.584" style="stroke: #000000; stroke-width: 0.8"/>
      </g>
     </g>
     <g id="text_5">
      <!-- 0.4 -->
      <g transform="translate(249.903602 322.182437) scale(0.1 -0.1)">
       <defs>
        <path id="DejaVuSans-34" d="M 2419 4116 
L 825 1625 
L 2419 1625 
L 2419 4116 
z
M 2253 4666 
L 3047 4666 
L 3047 1625 
L 3713 1625 
L 3713 1100 
L 3047 1100 
L 3047 0 
L 2419 0 
L 2419 1100 
L 313 1100 
L 313 1709 
L 2253 4666 
z
" transform="scale(0.015625)"/>
       </defs>
       <use xlink:href="#DejaVuSans-30"/>
       <use xlink:href="#DejaVuSans-2e" x="63.623047"/>
       <use xlink:href="#DejaVuSans-34" x="95.410156"/>
      </g>
     </g>
    </g>
    <g id="xtick_6">
     <g id="line2d_6">
      <g>
       <use xlink:href="#m7e326259f4" x="303.860773" y="307.584" style="stroke: #000000; stroke-width: 0.8"/>
      </g>
     </g>
     <g id="text_6">
      <!-- 0.5 -->
      <g transform="translate(295.909211 322.182437) scale(0.1 -0.1)">
       <defs>
        <path id="DejaVuSans-35" d="M 691 4666 
L 3169 4666 
L 3169 4134 
L 1269 4134 
L 1269 2991 
Q 1406 3038 1543 3061 
Q 1681 3084 1819 3084 
Q 2600 3084 3056 2656 
Q 3513 2228 3513 1497 
Q 3513 744 3044 326 
Q 2575 -91 1722 -91 
Q 1428 -91 1123 -41 
Q 819 9 494 109 
L 494 744 
Q 775 591 1075 516 
Q 1375 441 1709 441 
Q 2250 441 2565 725 
Q 2881 1009 2881 1497 
Q 2881 1984 2565 2268 
Q 2250 2553 1709 2553 
Q 1456 2553 1204 2497 
Q 953 2441 691 2322 
L 691 4666 
z
" transform="scale(0.015625)"/>
       </defs>
       <use xlink:href="#DejaVuSans-30"/>
       <use xlink:href="#DejaVuSans-2e" x="63.623047"/>
       <use xlink:href="#DejaVuSans-35" x="95.410156"/>
      </g>
     </g>
    </g>
    <g id="xtick_7">
     <g id="line2d_7">
      <g>
       <use xlink:href="#m7e326259f4" x="349.866383" y="307.584" style="stroke: #000000; stroke-width: 0.8"/>
      </g>
     </g>
     <g id="text_7">
      <!-- 0.6 -->
      <g transform="translate(341.91482 322.182437) scale(0.1 -0.1)">
       <defs>
        <path id="DejaVuSans-36" d="M 2113 2584 
Q 1688 2584 1439 2293 
Q 1191 2003 1191 1497 
Q 1191 994 1439 701 
Q 1688 409 2113 409 
Q 2538 409 2786 701 
Q 3034 994 3034 1497 
Q 3034 2003 2786 2293 
Q 2538 2584 2113 2584 
z
M 3366 4563 
L 3366 3988 
Q 3128 4100 2886 4159 
Q 2644 4219 2406 4219 
Q 1781 4219 1451 3797 
Q 1122 3375 1075 2522 
Q 1259 2794 1537 2939 
Q 1816 3084 2150 3084 
Q 2853 3084 3261 2657 
Q 3669 2231 3669 1497 
Q 3669 778 3244 343 
Q 2819 -91 2113 -91 
Q 1303 -91 875 529 
Q 447 1150 447 2328 
Q 447 3434 972 4092 
Q 1497 4750 2381 4750 
Q 2619 4750 2861 4703 
Q 3103 4656 3366 4563 
z
" transform="scale(0.015625)"/>
       </defs>
       <use xlink:href="#DejaVuSans-30"/>
       <use xlink:href="#DejaVuSans-2e" x="63.623047"/>
       <use xlink:href="#DejaVuSans-36" x="95.410156"/>
      </g>
     </g>
    </g>
    <g id="xtick_8">
     <g id="line2d_8">
      <g>
       <use xlink:href="#m7e326259f4" x="395.871992" y="307.584" style="stroke: #000000; stroke-width: 0.8"/>
      </g>
     </g>
     <g id="text_8">
      <!-- 0.7 -->
      <g transform="translate(387.920429 322.182437) scale(0.1 -0.1)">
       <defs>
        <path id="DejaVuSans-37" d="M 525 4666 
L 3525 4666 
L 3525 4397 
L 1831 0 
L 1172 0 
L 2766 4134 
L 525 4134 
L 525 4666 
z
" transform="scale(0.015625)"/>
       </defs>
       <use xlink:href="#DejaVuSans-30"/>
       <use xlink:href="#DejaVuSans-2e" x="63.623047"/>
       <use xlink:href="#DejaVuSans-37" x="95.410156"/>
      </g>
     </g>
    </g>
    <g id="text_9">
     <!-- Score -->
     <g transform="translate(222.157656 335.860562) scale(0.1 -0.1)">
      <defs>
       <path id="DejaVuSans-53" d="M 3425 4513 
L 3425 3897 
Q 3066 4069 2747 4153 
Q 2428 4238 2131 4238 
Q 1616 4238 1336 4038 
Q 1056 3838 1056 3469 
Q 1056 3159 1242 3001 
Q 1428 2844 1947 2747 
L 2328 2669 
Q 3034 2534 3370 2195 
Q 3706 1856 3706 1288 
Q 3706 609 3251 259 
Q 2797 -91 1919 -91 
Q 1588 -91 1214 -16 
Q 841 59 441 206 
L 441 856 
Q 825 641 1194 531 
Q 1563 422 1919 422 
Q 2459 422 2753 634 
Q 3047 847 3047 1241 
Q 3047 1584 2836 1778 
Q 2625 1972 2144 2069 
L 1759 2144 
Q 1053 2284 737 2584 
Q 422 2884 422 3419 
Q 422 4038 858 4394 
Q 1294 4750 2059 4750 
Q 2388 4750 2728 4690 
Q 3069 4631 3425 4513 
z
" transform="scale(0.015625)"/>
       <path id="DejaVuSans-63" d="M 3122 3366 
L 3122 2828 
Q 2878 2963 2633 3030 
Q 2388 3097 2138 3097 
Q 1578 3097 1268 2742 
Q 959 2388 959 1747 
Q 959 1106 1268 751 
Q 1578 397 2138 397 
Q 2388 397 2633 464 
Q 2878 531 3122 666 
L 3122 134 
Q 2881 22 2623 -34 
Q 2366 -91 2075 -91 
Q 1284 -91 818 406 
Q 353 903 353 1747 
Q 353 2603 823 3093 
Q 1294 3584 2113 3584 
Q 2378 3584 2631 3529 
Q 2884 3475 3122 3366 
z
" transform="scale(0.015625)"/>
       <path id="DejaVuSans-6f" d="M 1959 3097 
Q 1497 3097 1228 2736 
Q 959 2375 959 1747 
Q 959 1119 1226 758 
Q 1494 397 1959 397 
Q 2419 397 2687 759 
Q 2956 1122 2956 1747 
Q 2956 2369 2687 2733 
Q 2419 3097 1959 3097 
z
M 1959 3584 
Q 2709 3584 3137 3096 
Q 3566 2609 3566 1747 
Q 3566 888 3137 398 
Q 2709 -91 1959 -91 
Q 1206 -91 779 398 
Q 353 888 353 1747 
Q 353 2609 779 3096 
Q 1206 3584 1959 3584 
z
" transform="scale(0.015625)"/>
       <path id="DejaVuSans-72" d="M 2631 2963 
Q 2534 3019 2420 3045 
Q 2306 3072 2169 3072 
Q 1681 3072 1420 2755 
Q 1159 2438 1159 1844 
L 1159 0 
L 581 0 
L 581 3500 
L 1159 3500 
L 1159 2956 
Q 1341 3275 1631 3429 
Q 1922 3584 2338 3584 
Q 2397 3584 2469 3576 
Q 2541 3569 2628 3553 
L 2631 2963 
z
" transform="scale(0.015625)"/>
       <path id="DejaVuSans-65" d="M 3597 1894 
L 3597 1613 
L 953 1613 
Q 991 1019 1311 708 
Q 1631 397 2203 397 
Q 2534 397 2845 478 
Q 3156 559 3463 722 
L 3463 178 
Q 3153 47 2828 -22 
Q 2503 -91 2169 -91 
Q 1331 -91 842 396 
Q 353 884 353 1716 
Q 353 2575 817 3079 
Q 1281 3584 2069 3584 
Q 2775 3584 3186 3129 
Q 3597 2675 3597 1894 
z
M 3022 2063 
Q 3016 2534 2758 2815 
Q 2500 3097 2075 3097 
Q 1594 3097 1305 2825 
Q 1016 2553 972 2059 
L 3022 2063 
z
" transform="scale(0.015625)"/>
      </defs>
      <use xlink:href="#DejaVuSans-53"/>
      <use xlink:href="#DejaVuSans-63" x="63.476562"/>
      <use xlink:href="#DejaVuSans-6f" x="118.457031"/>
      <use xlink:href="#DejaVuSans-72" x="179.638672"/>
      <use xlink:href="#DejaVuSans-65" x="218.501953"/>
     </g>
    </g>
   </g>
   <g id="matplotlib.axis_2">
    <g id="ytick_1">
     <g id="line2d_9">
      <defs>
       <path id="m39b1304ff3" d="M 0 0 
L -3.5 0 
" style="stroke: #000000; stroke-width: 0.8"/>
      </defs>
      <g>
       <use xlink:href="#m39b1304ff3" x="57.6" y="307.584" style="stroke: #000000; stroke-width: 0.8"/>
      </g>
     </g>
     <g id="text_10">
      <!-- 0 -->
      <g transform="translate(44.2375 311.383219) scale(0.1 -0.1)">
       <use xlink:href="#DejaVuSans-30"/>
      </g>
     </g>
    </g>
    <g id="ytick_2">
     <g id="line2d_10">
      <g>
       <use xlink:href="#m39b1304ff3" x="57.6" y="266.374244" style="stroke: #000000; stroke-width: 0.8"/>
      </g>
     </g>
     <g id="text_11">
      <!-- 20 -->
      <g transform="translate(37.875 270.173463) scale(0.1 -0.1)">
       <use xlink:href="#DejaVuSans-32"/>
       <use xlink:href="#DejaVuSans-30" x="63.623047"/>
      </g>
     </g>
    </g>
    <g id="ytick_3">
     <g id="line2d_11">
      <g>
       <use xlink:href="#m39b1304ff3" x="57.6" y="225.164488" style="stroke: #000000; stroke-width: 0.8"/>
      </g>
     </g>
     <g id="text_12">
      <!-- 40 -->
      <g transform="translate(37.875 228.963707) scale(0.1 -0.1)">
       <use xlink:href="#DejaVuSans-34"/>
       <use xlink:href="#DejaVuSans-30" x="63.623047"/>
      </g>
     </g>
    </g>
    <g id="ytick_4">
     <g id="line2d_12">
      <g>
       <use xlink:href="#m39b1304ff3" x="57.6" y="183.954732" style="stroke: #000000; stroke-width: 0.8"/>
      </g>
     </g>
     <g id="text_13">
      <!-- 60 -->
      <g transform="translate(37.875 187.75395) scale(0.1 -0.1)">
       <use xlink:href="#DejaVuSans-36"/>
       <use xlink:href="#DejaVuSans-30" x="63.623047"/>
      </g>
     </g>
    </g>
    <g id="ytick_5">
     <g id="line2d_13">
      <g>
       <use xlink:href="#m39b1304ff3" x="57.6" y="142.744976" style="stroke: #000000; stroke-width: 0.8"/>
      </g>
     </g>
     <g id="text_14">
      <!-- 80 -->
      <g transform="translate(37.875 146.544194) scale(0.1 -0.1)">
       <defs>
        <path id="DejaVuSans-38" d="M 2034 2216 
Q 1584 2216 1326 1975 
Q 1069 1734 1069 1313 
Q 1069 891 1326 650 
Q 1584 409 2034 409 
Q 2484 409 2743 651 
Q 3003 894 3003 1313 
Q 3003 1734 2745 1975 
Q 2488 2216 2034 2216 
z
M 1403 2484 
Q 997 2584 770 2862 
Q 544 3141 544 3541 
Q 544 4100 942 4425 
Q 1341 4750 2034 4750 
Q 2731 4750 3128 4425 
Q 3525 4100 3525 3541 
Q 3525 3141 3298 2862 
Q 3072 2584 2669 2484 
Q 3125 2378 3379 2068 
Q 3634 1759 3634 1313 
Q 3634 634 3220 271 
Q 2806 -91 2034 -91 
Q 1263 -91 848 271 
Q 434 634 434 1313 
Q 434 1759 690 2068 
Q 947 2378 1403 2484 
z
M 1172 3481 
Q 1172 3119 1398 2916 
Q 1625 2713 2034 2713 
Q 2441 2713 2670 2916 
Q 2900 3119 2900 3481 
Q 2900 3844 2670 4047 
Q 2441 4250 2034 4250 
Q 1625 4250 1398 4047 
Q 1172 3844 1172 3481 
z
" transform="scale(0.015625)"/>
       </defs>
       <use xlink:href="#DejaVuSans-38"/>
       <use xlink:href="#DejaVuSans-30" x="63.623047"/>
      </g>
     </g>
    </g>
    <g id="ytick_6">
     <g id="line2d_14">
      <g>
       <use xlink:href="#m39b1304ff3" x="57.6" y="101.53522" style="stroke: #000000; stroke-width: 0.8"/>
      </g>
     </g>
     <g id="text_15">
      <!-- 100 -->
      <g transform="translate(31.5125 105.334438) scale(0.1 -0.1)">
       <use xlink:href="#DejaVuSans-31"/>
       <use xlink:href="#DejaVuSans-30" x="63.623047"/>
       <use xlink:href="#DejaVuSans-30" x="127.246094"/>
      </g>
     </g>
    </g>
    <g id="ytick_7">
     <g id="line2d_15">
      <g>
       <use xlink:href="#m39b1304ff3" x="57.6" y="60.325463" style="stroke: #000000; stroke-width: 0.8"/>
      </g>
     </g>
     <g id="text_16">
      <!-- 120 -->
      <g transform="translate(31.5125 64.124682) scale(0.1 -0.1)">
       <use xlink:href="#DejaVuSans-31"/>
       <use xlink:href="#DejaVuSans-32" x="63.623047"/>
       <use xlink:href="#DejaVuSans-30" x="127.246094"/>
      </g>
     </g>
    </g>
    <g id="text_17">
     <!-- Number of crosslinks -->
     <g transform="translate(25.432812 227.019406) rotate(-90) scale(0.1 -0.1)">
      <defs>
       <path id="DejaVuSans-4e" d="M 628 4666 
L 1478 4666 
L 3547 763 
L 3547 4666 
L 4159 4666 
L 4159 0 
L 3309 0 
L 1241 3903 
L 1241 0 
L 628 0 
L 628 4666 
z
" transform="scale(0.015625)"/>
       <path id="DejaVuSans-75" d="M 544 1381 
L 544 3500 
L 1119 3500 
L 1119 1403 
Q 1119 906 1312 657 
Q 1506 409 1894 409 
Q 2359 409 2629 706 
Q 2900 1003 2900 1516 
L 2900 3500 
L 3475 3500 
L 3475 0 
L 2900 0 
L 2900 538 
Q 2691 219 2414 64 
Q 2138 -91 1772 -91 
Q 1169 -91 856 284 
Q 544 659 544 1381 
z
M 1991 3584 
L 1991 3584 
z
" transform="scale(0.015625)"/>
       <path id="DejaVuSans-6d" d="M 3328 2828 
Q 3544 3216 3844 3400 
Q 4144 3584 4550 3584 
Q 5097 3584 5394 3201 
Q 5691 2819 5691 2113 
L 5691 0 
L 5113 0 
L 5113 2094 
Q 5113 2597 4934 2840 
Q 4756 3084 4391 3084 
Q 3944 3084 3684 2787 
Q 3425 2491 3425 1978 
L 3425 0 
L 2847 0 
L 2847 2094 
Q 2847 2600 2669 2842 
Q 2491 3084 2119 3084 
Q 1678 3084 1418 2786 
Q 1159 2488 1159 1978 
L 1159 0 
L 581 0 
L 581 3500 
L 1159 3500 
L 1159 2956 
Q 1356 3278 1631 3431 
Q 1906 3584 2284 3584 
Q 2666 3584 2933 3390 
Q 3200 3197 3328 2828 
z
" transform="scale(0.015625)"/>
       <path id="DejaVuSans-62" d="M 3116 1747 
Q 3116 2381 2855 2742 
Q 2594 3103 2138 3103 
Q 1681 3103 1420 2742 
Q 1159 2381 1159 1747 
Q 1159 1113 1420 752 
Q 1681 391 2138 391 
Q 2594 391 2855 752 
Q 3116 1113 3116 1747 
z
M 1159 2969 
Q 1341 3281 1617 3432 
Q 1894 3584 2278 3584 
Q 2916 3584 3314 3078 
Q 3713 2572 3713 1747 
Q 3713 922 3314 415 
Q 2916 -91 2278 -91 
Q 1894 -91 1617 61 
Q 1341 213 1159 525 
L 1159 0 
L 581 0 
L 581 4863 
L 1159 4863 
L 1159 2969 
z
" transform="scale(0.015625)"/>
       <path id="DejaVuSans-20" transform="scale(0.015625)"/>
       <path id="DejaVuSans-66" d="M 2375 4863 
L 2375 4384 
L 1825 4384 
Q 1516 4384 1395 4259 
Q 1275 4134 1275 3809 
L 1275 3500 
L 2222 3500 
L 2222 3053 
L 1275 3053 
L 1275 0 
L 697 0 
L 697 3053 
L 147 3053 
L 147 3500 
L 697 3500 
L 697 3744 
Q 697 4328 969 4595 
Q 1241 4863 1831 4863 
L 2375 4863 
z
" transform="scale(0.015625)"/>
       <path id="DejaVuSans-73" d="M 2834 3397 
L 2834 2853 
Q 2591 2978 2328 3040 
Q 2066 3103 1784 3103 
Q 1356 3103 1142 2972 
Q 928 2841 928 2578 
Q 928 2378 1081 2264 
Q 1234 2150 1697 2047 
L 1894 2003 
Q 2506 1872 2764 1633 
Q 3022 1394 3022 966 
Q 3022 478 2636 193 
Q 2250 -91 1575 -91 
Q 1294 -91 989 -36 
Q 684 19 347 128 
L 347 722 
Q 666 556 975 473 
Q 1284 391 1588 391 
Q 1994 391 2212 530 
Q 2431 669 2431 922 
Q 2431 1156 2273 1281 
Q 2116 1406 1581 1522 
L 1381 1569 
Q 847 1681 609 1914 
Q 372 2147 372 2553 
Q 372 3047 722 3315 
Q 1072 3584 1716 3584 
Q 2034 3584 2315 3537 
Q 2597 3491 2834 3397 
z
" transform="scale(0.015625)"/>
       <path id="DejaVuSans-6c" d="M 603 4863 
L 1178 4863 
L 1178 0 
L 603 0 
L 603 4863 
z
" transform="scale(0.015625)"/>
       <path id="DejaVuSans-69" d="M 603 3500 
L 1178 3500 
L 1178 0 
L 603 0 
L 603 3500 
z
M 603 4863 
L 1178 4863 
L 1178 4134 
L 603 4134 
L 603 4863 
z
" transform="scale(0.015625)"/>
       <path id="DejaVuSans-6e" d="M 3513 2113 
L 3513 0 
L 2938 0 
L 2938 2094 
Q 2938 2591 2744 2837 
Q 2550 3084 2163 3084 
Q 1697 3084 1428 2787 
Q 1159 2491 1159 1978 
L 1159 0 
L 581 0 
L 581 3500 
L 1159 3500 
L 1159 2956 
Q 1366 3272 1645 3428 
Q 1925 3584 2291 3584 
Q 2894 3584 3203 3211 
Q 3513 2838 3513 2113 
z
" transform="scale(0.015625)"/>
       <path id="DejaVuSans-6b" d="M 581 4863 
L 1159 4863 
L 1159 1991 
L 2875 3500 
L 3609 3500 
L 1753 1863 
L 3688 0 
L 2938 0 
L 1159 1709 
L 1159 0 
L 581 0 
L 581 4863 
z
" transform="scale(0.015625)"/>
      </defs>
      <use xlink:href="#DejaVuSans-4e"/>
      <use xlink:href="#DejaVuSans-75" x="74.804688"/>
      <use xlink:href="#DejaVuSans-6d" x="138.183594"/>
      <use xlink:href="#DejaVuSans-62" x="235.595703"/>
      <use xlink:href="#DejaVuSans-65" x="299.072266"/>
      <use xlink:href="#DejaVuSans-72" x="360.595703"/>
      <use xlink:href="#DejaVuSans-20" x="401.708984"/>
      <use xlink:href="#DejaVuSans-6f" x="433.496094"/>
      <use xlink:href="#DejaVuSans-66" x="494.677734"/>
      <use xlink:href="#DejaVuSans-20" x="529.882812"/>
      <use xlink:href="#DejaVuSans-63" x="561.669922"/>
      <use xlink:href="#DejaVuSans-72" x="616.650391"/>
      <use xlink:href="#DejaVuSans-6f" x="655.513672"/>
      <use xlink:href="#DejaVuSans-73" x="716.695312"/>
      <use xlink:href="#DejaVuSans-73" x="768.794922"/>
      <use xlink:href="#DejaVuSans-6c" x="820.894531"/>
      <use xlink:href="#DejaVuSans-69" x="848.677734"/>
      <use xlink:href="#DejaVuSans-6e" x="876.460938"/>
      <use xlink:href="#DejaVuSans-6b" x="939.839844"/>
      <use xlink:href="#DejaVuSans-73" x="997.75"/>
     </g>
    </g>
   </g>
   <g id="patch_3">
    <path d="M 57.6 307.584 
L 57.6 41.472 
" style="fill: none; stroke: #000000; stroke-width: 0.8; stroke-linejoin: miter; stroke-linecap: square"/>
   </g>
   <g id="patch_4">
    <path d="M 414.72 307.584 
L 414.72 41.472 
" style="fill: none; stroke: #000000; stroke-width: 0.8; stroke-linejoin: miter; stroke-linecap: square"/>
   </g>
   <g id="patch_5">
    <path d="M 57.6 307.584 
L 414.72 307.584 
" style="fill: none; stroke: #000000; stroke-width: 0.8; stroke-linejoin: miter; stroke-linecap: square"/>
   </g>
   <g id="patch_6">
    <path d="M 57.6 41.472 
L 414.72 41.472 
" style="fill: none; stroke: #000000; stroke-width: 0.8; stroke-linejoin: miter; stroke-linecap: square"/>
   </g>
   <g id="legend_1">
    <g id="patch_7">
     <path d="M 293.087188 93.506375 
L 407.72 93.506375 
Q 409.72 93.506375 409.72 91.506375 
L 409.72 48.472 
Q 409.72 46.472 407.72 46.472 
L 293.087188 46.472 
Q 291.087188 46.472 291.087188 48.472 
L 291.087188 91.506375 
Q 291.087188 93.506375 293.087188 93.506375 
z
" style="fill: #ffffff; opacity: 0.8; stroke: #cccccc; stroke-linejoin: miter"/>
    </g>
    <g id="patch_8">
     <path d="M 295.087188 58.070438 
L 315.087188 58.070438 
L 315.087188 51.070438 
L 295.087188 51.070438 
z
" style="fill: #008000"/>
    </g>
    <g id="text_18">
     <!-- true -->
     <g transform="translate(323.087188 58.070438) scale(0.1 -0.1)">
      <defs>
       <path id="DejaVuSans-74" d="M 1172 4494 
L 1172 3500 
L 2356 3500 
L 2356 3053 
L 1172 3053 
L 1172 1153 
Q 1172 725 1289 603 
Q 1406 481 1766 481 
L 2356 481 
L 2356 0 
L 1766 0 
Q 1100 0 847 248 
Q 594 497 594 1153 
L 594 3053 
L 172 3053 
L 172 3500 
L 594 3500 
L 594 4494 
L 1172 4494 
z
" transform="scale(0.015625)"/>
      </defs>
      <use xlink:href="#DejaVuSans-74"/>
      <use xlink:href="#DejaVuSans-72" x="39.208984"/>
      <use xlink:href="#DejaVuSans-75" x="80.322266"/>
      <use xlink:href="#DejaVuSans-65" x="143.701172"/>
     </g>
    </g>
    <g id="patch_9">
     <path d="M 295.087188 72.748563 
L 315.087188 72.748563 
L 315.087188 65.748563 
L 295.087188 65.748563 
z
" style="fill: #7cfc00"/>
    </g>
    <g id="text_19">
     <!-- true homeotypic -->
     <g transform="translate(323.087188 72.748563) scale(0.1 -0.1)">
      <defs>
       <path id="DejaVuSans-68" d="M 3513 2113 
L 3513 0 
L 2938 0 
L 2938 2094 
Q 2938 2591 2744 2837 
Q 2550 3084 2163 3084 
Q 1697 3084 1428 2787 
Q 1159 2491 1159 1978 
L 1159 0 
L 581 0 
L 581 4863 
L 1159 4863 
L 1159 2956 
Q 1366 3272 1645 3428 
Q 1925 3584 2291 3584 
Q 2894 3584 3203 3211 
Q 3513 2838 3513 2113 
z
" transform="scale(0.015625)"/>
       <path id="DejaVuSans-79" d="M 2059 -325 
Q 1816 -950 1584 -1140 
Q 1353 -1331 966 -1331 
L 506 -1331 
L 506 -850 
L 844 -850 
Q 1081 -850 1212 -737 
Q 1344 -625 1503 -206 
L 1606 56 
L 191 3500 
L 800 3500 
L 1894 763 
L 2988 3500 
L 3597 3500 
L 2059 -325 
z
" transform="scale(0.015625)"/>
       <path id="DejaVuSans-70" d="M 1159 525 
L 1159 -1331 
L 581 -1331 
L 581 3500 
L 1159 3500 
L 1159 2969 
Q 1341 3281 1617 3432 
Q 1894 3584 2278 3584 
Q 2916 3584 3314 3078 
Q 3713 2572 3713 1747 
Q 3713 922 3314 415 
Q 2916 -91 2278 -91 
Q 1894 -91 1617 61 
Q 1341 213 1159 525 
z
M 3116 1747 
Q 3116 2381 2855 2742 
Q 2594 3103 2138 3103 
Q 1681 3103 1420 2742 
Q 1159 2381 1159 1747 
Q 1159 1113 1420 752 
Q 1681 391 2138 391 
Q 2594 391 2855 752 
Q 3116 1113 3116 1747 
z
" transform="scale(0.015625)"/>
      </defs>
      <use xlink:href="#DejaVuSans-74"/>
      <use xlink:href="#DejaVuSans-72" x="39.208984"/>
      <use xlink:href="#DejaVuSans-75" x="80.322266"/>
      <use xlink:href="#DejaVuSans-65" x="143.701172"/>
      <use xlink:href="#DejaVuSans-20" x="205.224609"/>
      <use xlink:href="#DejaVuSans-68" x="237.011719"/>
      <use xlink:href="#DejaVuSans-6f" x="300.390625"/>
      <use xlink:href="#DejaVuSans-6d" x="361.572266"/>
      <use xlink:href="#DejaVuSans-65" x="458.984375"/>
      <use xlink:href="#DejaVuSans-6f" x="520.507812"/>
      <use xlink:href="#DejaVuSans-74" x="581.689453"/>
      <use xlink:href="#DejaVuSans-79" x="620.898438"/>
      <use xlink:href="#DejaVuSans-70" x="680.078125"/>
      <use xlink:href="#DejaVuSans-69" x="743.554688"/>
      <use xlink:href="#DejaVuSans-63" x="771.337891"/>
     </g>
    </g>
    <g id="patch_10">
     <path d="M 295.087188 87.426688 
L 315.087188 87.426688 
L 315.087188 80.426688 
L 295.087188 80.426688 
z
" style="fill: #ff0000"/>
    </g>
    <g id="text_20">
     <!-- false -->
     <g transform="translate(323.087188 87.426688) scale(0.1 -0.1)">
      <defs>
       <path id="DejaVuSans-61" d="M 2194 1759 
Q 1497 1759 1228 1600 
Q 959 1441 959 1056 
Q 959 750 1161 570 
Q 1363 391 1709 391 
Q 2188 391 2477 730 
Q 2766 1069 2766 1631 
L 2766 1759 
L 2194 1759 
z
M 3341 1997 
L 3341 0 
L 2766 0 
L 2766 531 
Q 2569 213 2275 61 
Q 1981 -91 1556 -91 
Q 1019 -91 701 211 
Q 384 513 384 1019 
Q 384 1609 779 1909 
Q 1175 2209 1959 2209 
L 2766 2209 
L 2766 2266 
Q 2766 2663 2505 2880 
Q 2244 3097 1772 3097 
Q 1472 3097 1187 3025 
Q 903 2953 641 2809 
L 641 3341 
Q 956 3463 1253 3523 
Q 1550 3584 1831 3584 
Q 2591 3584 2966 3190 
Q 3341 2797 3341 1997 
z
" transform="scale(0.015625)"/>
      </defs>
      <use xlink:href="#DejaVuSans-66"/>
      <use xlink:href="#DejaVuSans-61" x="35.205078"/>
      <use xlink:href="#DejaVuSans-6c" x="96.484375"/>
      <use xlink:href="#DejaVuSans-73" x="124.267578"/>
      <use xlink:href="#DejaVuSans-65" x="176.367188"/>
     </g>
    </g>
   </g>
  </g>
 </g>
 <defs>
  <clipPath id="p34272c0011">
   <rect x="57.6" y="41.472" width="357.12" height="266.112"/>
  </clipPath>
 </defs>
</svg>
