<?xml version="1.0" encoding="utf-8" standalone="no"?>
<!DOCTYPE svg PUBLIC "-//W3C//DTD SVG 1.1//EN"
  "http://www.w3.org/Graphics/SVG/1.1/DTD/svg11.dtd">
<svg xmlns:xlink="http://www.w3.org/1999/xlink" width="296.909916pt" height="280.512pt" viewBox="0 0 296.909916 280.512" xmlns="http://www.w3.org/2000/svg" version="1.1">
 <metadata>
  <rdf:RDF xmlns:dc="http://purl.org/dc/elements/1.1/" xmlns:cc="http://creativecommons.org/ns#" xmlns:rdf="http://www.w3.org/1999/02/22-rdf-syntax-ns#">
   <cc:Work>
    <dc:type rdf:resource="http://purl.org/dc/dcmitype/StillImage"/>
    <dc:date>2024-07-08T13:59:37.870946</dc:date>
    <dc:format>image/svg+xml</dc:format>
    <dc:creator>
     <cc:Agent>
      <dc:title>Matplotlib v3.9.0, https://matplotlib.org/</dc:title>
     </cc:Agent>
    </dc:creator>
   </cc:Work>
  </rdf:RDF>
 </metadata>
 <defs>
  <style type="text/css">*{stroke-linejoin: round; stroke-linecap: butt}</style>
 </defs>
 <g id="figure_1">
  <g id="patch_1">
   <path d="M 0 280.512 
L 296.909916 280.512 
L 296.909916 0 
L 0 0 
L 0 280.512 
z
" style="fill: none"/>
  </g>
  <g id="axes_1">
   <g id="patch_2">
    <path d="M 166.385956 35.366258 
C 153.404985 29.924395 139.421005 27.281127 125.349342 27.60947 
C 111.27768 27.937813 97.432206 31.230445 84.719182 37.271843 
C 72.006157 43.313241 60.709147 51.968653 51.567603 62.671533 
C 42.426059 73.374414 35.643884 85.886036 31.665007 99.387444 
C 27.68613 112.888852 26.599302 127.078897 28.47566 141.028763 
C 30.352019 154.97863 35.149712 168.377164 42.554704 180.347359 
C 49.959697 192.317554 59.80682 202.592414 71.451525 210.499393 
C 83.096231 218.406372 96.278783 223.769104 110.136311 226.23657 
C 101.806736 217.221631 95.577974 206.471485 91.899399 194.761701 
C 88.220824 183.051918 87.183081 170.671037 88.861036 158.512278 
C 84.216224 145.313589 82.613874 131.234234 84.174072 117.329362 
C 85.734269 103.42449 90.417039 90.050358 97.871442 78.209262 
C 105.325844 66.368166 115.36089 56.363487 127.224524 48.945005 
C 139.088157 41.526523 152.47642 36.884307 166.385956 35.366258 
" clip-path="url(#p91c2712056)" style="fill: #00b4d8; opacity: 0.6"/>
   </g>
   <g id="patch_3">
    <path d="M 166.385956 35.366258 
C 181.349571 41.639282 194.56606 51.457376 204.893059 63.971915 
C 215.220058 76.486454 222.351201 91.326177 225.670109 107.208413 
C 235.831994 116.051402 243.691782 127.235114 248.569378 139.791841 
C 253.446974 152.348569 255.197517 165.905385 253.669535 179.289242 
C 263.490731 164.595312 268.916075 147.398604 269.305178 129.728968 
C 269.69428 112.059332 265.031202 94.640467 255.866362 79.528448 
C 246.701522 64.416428 233.410285 52.2302 217.561511 44.408191 
C 201.712738 36.586182 183.95555 33.44876 166.385956 35.366258 
" clip-path="url(#p91c2712056)" style="fill: #caf0f8; opacity: 0.6"/>
   </g>
   <g id="patch_4">
    <path d="M 166.385956 35.366258 
C 152.47642 36.884307 139.088157 41.526523 127.224524 48.945005 
C 115.36089 56.363487 105.325844 66.368166 97.871442 78.209262 
C 90.417039 90.050358 85.734269 103.42449 84.174072 117.329362 
C 82.613874 131.234234 84.216224 145.313589 88.861036 158.512278 
C 90.907468 143.683474 96.924978 129.680038 106.274374 117.98944 
C 115.62377 106.298842 127.961866 97.350208 141.978085 92.094078 
C 155.994304 86.837949 171.174154 85.46726 185.905205 88.12761 
C 200.636255 90.787959 214.377773 97.381693 225.670109 107.208413 
C 222.351201 91.326177 215.220058 76.486454 204.893059 63.971915 
C 194.56606 51.457376 181.349571 41.639282 166.385956 35.366258 
" clip-path="url(#p91c2712056)" style="fill: #8dffff; opacity: 0.6"/>
   </g>
   <g id="patch_5">
    <path d="M 110.136311 226.23657 
C 120.928035 237.916244 134.850179 246.254788 150.240486 250.256606 
C 165.630793 254.258424 181.851355 253.757646 196.965491 248.814064 
C 212.079626 243.870482 225.460874 234.689 235.511558 222.365858 
C 245.562242 210.042715 251.865775 195.088689 253.669535 179.289242 
C 244.234309 193.405704 231.105842 204.667811 215.718172 211.845389 
C 200.330502 219.022966 183.265071 221.844801 166.385956 220.00266 
C 157.551793 223.706104 148.231604 226.122403 138.710857 227.177547 
C 129.190111 228.232691 119.567013 227.915797 110.136311 226.23657 
" clip-path="url(#p91c2712056)" style="fill: #03045e; opacity: 0.6"/>
   </g>
   <g id="patch_6">
    <path d="M 110.136311 226.23657 
C 119.567013 227.915797 129.190111 228.232691 138.710857 227.177547 
C 148.231604 226.122403 157.551793 223.706104 166.385956 220.00266 
C 148.983252 218.103376 132.467204 211.321429 118.751703 200.442715 
C 105.036202 189.564002 94.672321 175.025616 88.861036 158.512278 
C 87.183081 170.671037 88.220824 183.051918 91.899399 194.761701 
C 95.577974 206.471485 101.806736 217.221631 110.136311 226.23657 
" clip-path="url(#p91c2712056)" style="fill: #0281d9; opacity: 0.6"/>
   </g>
   <g id="patch_7">
    <path d="M 225.670109 107.208413 
C 230.425227 129.963458 227.108435 153.679309 216.293034 174.256731 
C 205.477633 194.834153 187.824859 211.015075 166.385956 220.00266 
C 183.265071 221.844801 200.330502 219.022966 215.718172 211.845389 
C 231.105842 204.667811 244.234309 193.405704 253.669535 179.289242 
C 255.197517 165.905385 253.446974 152.348569 248.569378 139.791841 
C 243.691782 127.235114 235.831994 116.051402 225.670109 107.208413 
" clip-path="url(#p91c2712056)" style="fill: #8fabef; opacity: 0.6"/>
   </g>
   <g id="patch_8">
    <path d="M 88.861036 158.512278 
C 94.672321 175.025616 105.036202 189.564002 118.751703 200.442715 
C 132.467204 211.321429 148.983252 218.103376 166.385956 220.00266 
C 187.824859 211.015075 205.477633 194.834153 216.293034 174.256731 
C 227.108435 153.679309 230.425227 129.963458 225.670109 107.208413 
C 214.377773 97.381693 200.636255 90.787959 185.905205 88.12761 
C 171.174154 85.46726 155.994304 86.837949 141.978085 92.094078 
C 127.961866 97.350208 115.62377 106.298842 106.274374 117.98944 
C 96.924978 129.680038 90.907468 143.683474 88.861036 158.512278 
" clip-path="url(#p91c2712056)" style="fill: #52aadf; opacity: 0.6"/>
   </g>
   <g id="text_1">
    <!-- 37 -->
    <g transform="translate(53.816609 109.770024) scale(0.1 -0.1)">
     <defs>
      <path id="DejaVuSans-33" d="M 2597 2516 
Q 3050 2419 3304 2112 
Q 3559 1806 3559 1356 
Q 3559 666 3084 287 
Q 2609 -91 1734 -91 
Q 1441 -91 1130 -33 
Q 819 25 488 141 
L 488 750 
Q 750 597 1062 519 
Q 1375 441 1716 441 
Q 2309 441 2620 675 
Q 2931 909 2931 1356 
Q 2931 1769 2642 2001 
Q 2353 2234 1838 2234 
L 1294 2234 
L 1294 2753 
L 1863 2753 
Q 2328 2753 2575 2939 
Q 2822 3125 2822 3475 
Q 2822 3834 2567 4026 
Q 2313 4219 1838 4219 
Q 1578 4219 1281 4162 
Q 984 4106 628 3988 
L 628 4550 
Q 988 4650 1302 4700 
Q 1616 4750 1894 4750 
Q 2613 4750 3031 4423 
Q 3450 4097 3450 3541 
Q 3450 3153 3228 2886 
Q 3006 2619 2597 2516 
z
" transform="scale(0.015625)"/>
      <path id="DejaVuSans-37" d="M 525 4666 
L 3525 4666 
L 3525 4397 
L 1831 0 
L 1172 0 
L 2766 4134 
L 525 4134 
L 525 4666 
z
" transform="scale(0.015625)"/>
     </defs>
     <use xlink:href="#DejaVuSans-33"/>
     <use xlink:href="#DejaVuSans-37" x="63.623047"/>
    </g>
   </g>
   <g id="text_2">
    <!-- 14 -->
    <g transform="translate(236.091005 92.58551) scale(0.1 -0.1)">
     <defs>
      <path id="DejaVuSans-31" d="M 794 531 
L 1825 531 
L 1825 4091 
L 703 3866 
L 703 4441 
L 1819 4666 
L 2450 4666 
L 2450 531 
L 3481 531 
L 3481 0 
L 794 0 
L 794 531 
z
" transform="scale(0.015625)"/>
      <path id="DejaVuSans-34" d="M 2419 4116 
L 825 1625 
L 2419 1625 
L 2419 4116 
z
M 2253 4666 
L 3047 4666 
L 3047 1625 
L 3713 1625 
L 3713 1100 
L 3047 1100 
L 3047 0 
L 2419 0 
L 2419 1100 
L 313 1100 
L 313 1709 
L 2253 4666 
z
" transform="scale(0.015625)"/>
     </defs>
     <use xlink:href="#DejaVuSans-31"/>
     <use xlink:href="#DejaVuSans-34" x="63.623047"/>
    </g>
   </g>
   <g id="text_3">
    <!-- 26 -->
    <g transform="translate(131.849513 84.236155) scale(0.1 -0.1)">
     <defs>
      <path id="DejaVuSans-32" d="M 1228 531 
L 3431 531 
L 3431 0 
L 469 0 
L 469 531 
Q 828 903 1448 1529 
Q 2069 2156 2228 2338 
Q 2531 2678 2651 2914 
Q 2772 3150 2772 3378 
Q 2772 3750 2511 3984 
Q 2250 4219 1831 4219 
Q 1534 4219 1204 4116 
Q 875 4013 500 3803 
L 500 4441 
Q 881 4594 1212 4672 
Q 1544 4750 1819 4750 
Q 2544 4750 2975 4387 
Q 3406 4025 3406 3419 
Q 3406 3131 3298 2873 
Q 3191 2616 2906 2266 
Q 2828 2175 2409 1742 
Q 1991 1309 1228 531 
z
" transform="scale(0.015625)"/>
      <path id="DejaVuSans-36" d="M 2113 2584 
Q 1688 2584 1439 2293 
Q 1191 2003 1191 1497 
Q 1191 994 1439 701 
Q 1688 409 2113 409 
Q 2538 409 2786 701 
Q 3034 994 3034 1497 
Q 3034 2003 2786 2293 
Q 2538 2584 2113 2584 
z
M 3366 4563 
L 3366 3988 
Q 3128 4100 2886 4159 
Q 2644 4219 2406 4219 
Q 1781 4219 1451 3797 
Q 1122 3375 1075 2522 
Q 1259 2794 1537 2939 
Q 1816 3084 2150 3084 
Q 2853 3084 3261 2657 
Q 3669 2231 3669 1497 
Q 3669 778 3244 343 
Q 2819 -91 2113 -91 
Q 1303 -91 875 529 
Q 447 1150 447 2328 
Q 447 3434 972 4092 
Q 1497 4750 2381 4750 
Q 2619 4750 2861 4703 
Q 3103 4656 3366 4563 
z
" transform="scale(0.015625)"/>
     </defs>
     <use xlink:href="#DejaVuSans-32"/>
     <use xlink:href="#DejaVuSans-36" x="63.623047"/>
    </g>
   </g>
   <g id="text_4">
    <!-- 11 -->
    <g transform="translate(187.322321 238.214195) scale(0.1 -0.1)">
     <use xlink:href="#DejaVuSans-31"/>
     <use xlink:href="#DejaVuSans-31" x="63.623047"/>
    </g>
   </g>
   <g id="text_5">
    <!-- 8 -->
    <g transform="translate(110.81389 207.197241) scale(0.1 -0.1)">
     <defs>
      <path id="DejaVuSans-38" d="M 2034 2216 
Q 1584 2216 1326 1975 
Q 1069 1734 1069 1313 
Q 1069 891 1326 650 
Q 1584 409 2034 409 
Q 2484 409 2743 651 
Q 3003 894 3003 1313 
Q 3003 1734 2745 1975 
Q 2488 2216 2034 2216 
z
M 1403 2484 
Q 997 2584 770 2862 
Q 544 3141 544 3541 
Q 544 4100 942 4425 
Q 1341 4750 2034 4750 
Q 2731 4750 3128 4425 
Q 3525 4100 3525 3541 
Q 3525 3141 3298 2862 
Q 3072 2584 2669 2484 
Q 3125 2378 3379 2068 
Q 3634 1759 3634 1313 
Q 3634 634 3220 271 
Q 2806 -91 2034 -91 
Q 1263 -91 848 271 
Q 434 634 434 1313 
Q 434 1759 690 2068 
Q 947 2378 1403 2484 
z
M 1172 3481 
Q 1172 3119 1398 2916 
Q 1625 2713 2034 2713 
Q 2441 2713 2670 2916 
Q 2900 3119 2900 3481 
Q 2900 3844 2670 4047 
Q 2441 4250 2034 4250 
Q 1625 4250 1398 4047 
Q 1172 3844 1172 3481 
z
" transform="scale(0.015625)"/>
     </defs>
     <use xlink:href="#DejaVuSans-38"/>
    </g>
   </g>
   <g id="text_6">
    <!-- 14 -->
    <g transform="translate(218.83797 179.228984) scale(0.1 -0.1)">
     <use xlink:href="#DejaVuSans-31"/>
     <use xlink:href="#DejaVuSans-34" x="63.623047"/>
    </g>
   </g>
   <g id="text_7">
    <!-- 51 -->
    <g transform="translate(152.043194 145.381611) scale(0.1 -0.1)">
     <defs>
      <path id="DejaVuSans-35" d="M 691 4666 
L 3169 4666 
L 3169 4134 
L 1269 4134 
L 1269 2991 
Q 1406 3038 1543 3061 
Q 1681 3084 1819 3084 
Q 2600 3084 3056 2656 
Q 3513 2228 3513 1497 
Q 3513 744 3044 326 
Q 2575 -91 1722 -91 
Q 1428 -91 1123 -41 
Q 819 9 494 109 
L 494 744 
Q 775 591 1075 516 
Q 1375 441 1709 441 
Q 2250 441 2565 725 
Q 2881 1009 2881 1497 
Q 2881 1984 2565 2268 
Q 2250 2553 1709 2553 
Q 1456 2553 1204 2497 
Q 953 2441 691 2322 
L 691 4666 
z
" transform="scale(0.015625)"/>
     </defs>
     <use xlink:href="#DejaVuSans-35"/>
     <use xlink:href="#DejaVuSans-31" x="63.623047"/>
    </g>
   </g>
   <g id="text_8">
    <!-- pLink -->
    <g transform="translate(45.44147 27.58223) scale(0.12 -0.12)">
     <defs>
      <path id="DejaVuSans-70" d="M 1159 525 
L 1159 -1331 
L 581 -1331 
L 581 3500 
L 1159 3500 
L 1159 2969 
Q 1341 3281 1617 3432 
Q 1894 3584 2278 3584 
Q 2916 3584 3314 3078 
Q 3713 2572 3713 1747 
Q 3713 922 3314 415 
Q 2916 -91 2278 -91 
Q 1894 -91 1617 61 
Q 1341 213 1159 525 
z
M 3116 1747 
Q 3116 2381 2855 2742 
Q 2594 3103 2138 3103 
Q 1681 3103 1420 2742 
Q 1159 2381 1159 1747 
Q 1159 1113 1420 752 
Q 1681 391 2138 391 
Q 2594 391 2855 752 
Q 3116 1113 3116 1747 
z
" transform="scale(0.015625)"/>
      <path id="DejaVuSans-4c" d="M 628 4666 
L 1259 4666 
L 1259 531 
L 3531 531 
L 3531 0 
L 628 0 
L 628 4666 
z
" transform="scale(0.015625)"/>
      <path id="DejaVuSans-69" d="M 603 3500 
L 1178 3500 
L 1178 0 
L 603 0 
L 603 3500 
z
M 603 4863 
L 1178 4863 
L 1178 4134 
L 603 4134 
L 603 4863 
z
" transform="scale(0.015625)"/>
      <path id="DejaVuSans-6e" d="M 3513 2113 
L 3513 0 
L 2938 0 
L 2938 2094 
Q 2938 2591 2744 2837 
Q 2550 3084 2163 3084 
Q 1697 3084 1428 2787 
Q 1159 2491 1159 1978 
L 1159 0 
L 581 0 
L 581 3500 
L 1159 3500 
L 1159 2956 
Q 1366 3272 1645 3428 
Q 1925 3584 2291 3584 
Q 2894 3584 3203 3211 
Q 3513 2838 3513 2113 
z
" transform="scale(0.015625)"/>
      <path id="DejaVuSans-6b" d="M 581 4863 
L 1159 4863 
L 1159 1991 
L 2875 3500 
L 3609 3500 
L 1753 1863 
L 3688 0 
L 2938 0 
L 1159 1709 
L 1159 0 
L 581 0 
L 581 4863 
z
" transform="scale(0.015625)"/>
     </defs>
     <use xlink:href="#DejaVuSans-70"/>
     <use xlink:href="#DejaVuSans-4c" x="63.476562"/>
     <use xlink:href="#DejaVuSans-69" x="119.189453"/>
     <use xlink:href="#DejaVuSans-6e" x="146.972656"/>
     <use xlink:href="#DejaVuSans-6b" x="210.351562"/>
    </g>
   </g>
   <g id="text_9">
    <!-- MaxLynx -->
    <g transform="translate(222.8945 34.818087) scale(0.12 -0.12)">
     <defs>
      <path id="DejaVuSans-4d" d="M 628 4666 
L 1569 4666 
L 2759 1491 
L 3956 4666 
L 4897 4666 
L 4897 0 
L 4281 0 
L 4281 4097 
L 3078 897 
L 2444 897 
L 1241 4097 
L 1241 0 
L 628 0 
L 628 4666 
z
" transform="scale(0.015625)"/>
      <path id="DejaVuSans-61" d="M 2194 1759 
Q 1497 1759 1228 1600 
Q 959 1441 959 1056 
Q 959 750 1161 570 
Q 1363 391 1709 391 
Q 2188 391 2477 730 
Q 2766 1069 2766 1631 
L 2766 1759 
L 2194 1759 
z
M 3341 1997 
L 3341 0 
L 2766 0 
L 2766 531 
Q 2569 213 2275 61 
Q 1981 -91 1556 -91 
Q 1019 -91 701 211 
Q 384 513 384 1019 
Q 384 1609 779 1909 
Q 1175 2209 1959 2209 
L 2766 2209 
L 2766 2266 
Q 2766 2663 2505 2880 
Q 2244 3097 1772 3097 
Q 1472 3097 1187 3025 
Q 903 2953 641 2809 
L 641 3341 
Q 956 3463 1253 3523 
Q 1550 3584 1831 3584 
Q 2591 3584 2966 3190 
Q 3341 2797 3341 1997 
z
" transform="scale(0.015625)"/>
      <path id="DejaVuSans-78" d="M 3513 3500 
L 2247 1797 
L 3578 0 
L 2900 0 
L 1881 1375 
L 863 0 
L 184 0 
L 1544 1831 
L 300 3500 
L 978 3500 
L 1906 2253 
L 2834 3500 
L 3513 3500 
z
" transform="scale(0.015625)"/>
      <path id="DejaVuSans-79" d="M 2059 -325 
Q 1816 -950 1584 -1140 
Q 1353 -1331 966 -1331 
L 506 -1331 
L 506 -850 
L 844 -850 
Q 1081 -850 1212 -737 
Q 1344 -625 1503 -206 
L 1606 56 
L 191 3500 
L 800 3500 
L 1894 763 
L 2988 3500 
L 3597 3500 
L 2059 -325 
z
" transform="scale(0.015625)"/>
     </defs>
     <use xlink:href="#DejaVuSans-4d"/>
     <use xlink:href="#DejaVuSans-61" x="86.279297"/>
     <use xlink:href="#DejaVuSans-78" x="147.558594"/>
     <use xlink:href="#DejaVuSans-4c" x="206.738281"/>
     <use xlink:href="#DejaVuSans-79" x="253.326172"/>
     <use xlink:href="#DejaVuSans-6e" x="312.505859"/>
     <use xlink:href="#DejaVuSans-78" x="375.884766"/>
    </g>
   </g>
   <g id="text_10">
    <!-- MS Annika -->
    <g transform="translate(139.828091 270.354116) scale(0.12 -0.12)">
     <defs>
      <path id="DejaVuSans-53" d="M 3425 4513 
L 3425 3897 
Q 3066 4069 2747 4153 
Q 2428 4238 2131 4238 
Q 1616 4238 1336 4038 
Q 1056 3838 1056 3469 
Q 1056 3159 1242 3001 
Q 1428 2844 1947 2747 
L 2328 2669 
Q 3034 2534 3370 2195 
Q 3706 1856 3706 1288 
Q 3706 609 3251 259 
Q 2797 -91 1919 -91 
Q 1588 -91 1214 -16 
Q 841 59 441 206 
L 441 856 
Q 825 641 1194 531 
Q 1563 422 1919 422 
Q 2459 422 2753 634 
Q 3047 847 3047 1241 
Q 3047 1584 2836 1778 
Q 2625 1972 2144 2069 
L 1759 2144 
Q 1053 2284 737 2584 
Q 422 2884 422 3419 
Q 422 4038 858 4394 
Q 1294 4750 2059 4750 
Q 2388 4750 2728 4690 
Q 3069 4631 3425 4513 
z
" transform="scale(0.015625)"/>
      <path id="DejaVuSans-20" transform="scale(0.015625)"/>
      <path id="DejaVuSans-41" d="M 2188 4044 
L 1331 1722 
L 3047 1722 
L 2188 4044 
z
M 1831 4666 
L 2547 4666 
L 4325 0 
L 3669 0 
L 3244 1197 
L 1141 1197 
L 716 0 
L 50 0 
L 1831 4666 
z
" transform="scale(0.015625)"/>
     </defs>
     <use xlink:href="#DejaVuSans-4d"/>
     <use xlink:href="#DejaVuSans-53" x="86.279297"/>
     <use xlink:href="#DejaVuSans-20" x="149.755859"/>
     <use xlink:href="#DejaVuSans-41" x="181.542969"/>
     <use xlink:href="#DejaVuSans-6e" x="249.951172"/>
     <use xlink:href="#DejaVuSans-6e" x="313.330078"/>
     <use xlink:href="#DejaVuSans-69" x="376.708984"/>
     <use xlink:href="#DejaVuSans-6b" x="404.492188"/>
     <use xlink:href="#DejaVuSans-61" x="460.652344"/>
    </g>
   </g>
  </g>
 </g>
 <defs>
  <clipPath id="p91c2712056">
   <rect x="7.2" y="7.2" width="282.509916" height="266.112"/>
  </clipPath>
 </defs>
</svg>
