<?xml version="1.0" encoding="utf-8" standalone="no"?>
<!DOCTYPE svg PUBLIC "-//W3C//DTD SVG 1.1//EN"
  "http://www.w3.org/Graphics/SVG/1.1/DTD/svg11.dtd">
<svg xmlns:xlink="http://www.w3.org/1999/xlink" width="316.930361pt" height="280.512pt" viewBox="0 0 316.930361 280.512" xmlns="http://www.w3.org/2000/svg" version="1.1">
 <metadata>
  <rdf:RDF xmlns:dc="http://purl.org/dc/elements/1.1/" xmlns:cc="http://creativecommons.org/ns#" xmlns:rdf="http://www.w3.org/1999/02/22-rdf-syntax-ns#">
   <cc:Work>
    <dc:type rdf:resource="http://purl.org/dc/dcmitype/StillImage"/>
    <dc:date>2024-11-02T23:24:16.749932</dc:date>
    <dc:format>image/svg+xml</dc:format>
    <dc:creator>
     <cc:Agent>
      <dc:title>Matplotlib v3.9.0, https://matplotlib.org/</dc:title>
     </cc:Agent>
    </dc:creator>
   </cc:Work>
  </rdf:RDF>
 </metadata>
 <defs>
  <style type="text/css">*{stroke-linejoin: round; stroke-linecap: butt}</style>
 </defs>
 <g id="figure_1">
  <g id="patch_1">
   <path d="M 0 280.512 
L 316.930361 280.512 
L 316.930361 0 
L 0 0 
L 0 280.512 
z
" style="fill: none"/>
  </g>
  <g id="axes_1">
   <g id="patch_2">
    <path d="M 137.13677 43.697436 
C 126.038332 40.673421 114.446012 39.901448 103.044594 41.42712 
C 91.643177 42.952792 80.661672 46.745464 70.74878 52.581095 
C 60.835888 58.416725 52.190723 66.178099 45.32397 75.406735 
C 38.457218 84.635371 33.506807 95.145901 30.765168 106.317446 
C 28.023528 117.488991 27.54573 129.097157 29.359997 140.456225 
C 31.174265 151.815294 35.244156 162.697104 41.329254 172.458845 
C 47.414352 182.220586 55.392431 190.666181 64.792208 197.296731 
C 74.191985 203.927281 84.824655 208.609604 96.062123 211.067105 
C 88.888288 199.177088 84.73059 185.710804 83.952673 171.846055 
C 83.174757 157.981306 85.799983 144.134449 91.598741 131.516572 
C 90.778467 114.165515 94.558625 96.902019 102.554836 81.481493 
C 110.551048 66.060966 122.482778 53.024415 137.13677 43.697436 
" clip-path="url(#pee3ca0f41f)" style="fill: #00b4d8; opacity: 0.6"/>
   </g>
   <g id="patch_3">
    <path d="M 137.13677 43.697436 
C 148.124002 46.69115 158.40982 51.832772 167.398531 58.824529 
C 176.387241 65.816286 183.901904 74.520547 189.507315 84.433213 
C 202.393131 87.634804 214.353323 93.806241 224.429455 102.452974 
C 234.505587 111.099708 242.421121 121.984429 247.541741 134.234885 
C 252.662362 146.485342 254.847535 159.765321 253.922149 173.010626 
C 252.996764 186.255931 248.986218 199.103045 242.211898 210.522459 
C 253.231473 203.654359 262.786278 194.676253 270.326232 184.10502 
C 277.866185 173.533788 283.243761 161.576264 286.149367 148.920858 
C 289.054973 136.265452 289.431759 123.159777 287.258031 110.358341 
C 285.084303 97.556905 280.402593 85.31018 273.482433 74.323222 
C 266.562272 63.336265 257.53906 53.824045 246.932272 46.334192 
C 236.325484 38.844338 224.342652 33.523397 211.67364 30.6777 
C 199.004628 27.832002 185.897317 27.517228 173.106309 29.751499 
C 160.315301 31.98577 148.090863 36.72537 137.13677 43.697436 
" clip-path="url(#pee3ca0f41f)" style="fill: #caf0f8; opacity: 0.6"/>
   </g>
   <g id="patch_4">
    <path d="M 137.13677 43.697436 
C 122.482778 53.024415 110.551048 66.060966 102.554836 81.481493 
C 94.558625 96.902019 90.778467 114.165515 91.598741 131.516572 
C 99.879178 113.498656 114.19867 98.926898 132.069246 90.333097 
C 149.939823 81.739297 170.262869 79.651768 189.507315 84.433213 
C 183.901904 74.520547 176.387241 65.816286 167.398531 58.824529 
C 158.40982 51.832772 148.124002 46.69115 137.13677 43.697436 
" clip-path="url(#pee3ca0f41f)" style="fill: #8dffff; opacity: 0.6"/>
   </g>
   <g id="patch_5">
    <path d="M 96.062123 211.067105 
C 103.667709 223.672714 114.413918 234.09311 127.247642 241.307114 
C 140.081365 248.521119 154.56922 252.285121 169.291425 252.230257 
C 184.013629 252.175393 198.473028 248.303515 211.252628 240.994059 
C 224.032228 233.684603 234.700474 223.184404 242.211898 210.522459 
C 226.434699 220.355813 208.193086 225.528451 189.602575 225.440493 
C 171.012065 225.352535 152.820214 220.007517 137.13677 210.025313 
C 130.457414 211.845251 123.583062 212.853896 116.662429 213.029426 
C 109.741796 213.204957 102.825151 212.546099 96.062123 211.067105 
" clip-path="url(#pee3ca0f41f)" style="fill: #03045e; opacity: 0.6"/>
   </g>
   <g id="patch_6">
    <path d="M 96.062123 211.067105 
C 102.825151 212.546099 109.741796 213.204957 116.662429 213.029426 
C 123.583062 212.853896 130.457414 211.845251 137.13677 210.025313 
C 123.812774 201.54485 112.719884 189.985249 104.795415 176.32326 
C 96.870947 162.661272 92.344567 147.292847 91.598741 131.516572 
C 85.799983 144.134449 83.174757 157.981306 83.952673 171.846055 
C 84.73059 185.710804 88.888288 199.177088 96.062123 211.067105 
" clip-path="url(#pee3ca0f41f)" style="fill: #0281d9; opacity: 0.6"/>
   </g>
   <g id="patch_7">
    <path d="M 189.507315 84.433213 
C 195.967843 95.858078 199.734342 108.609064 200.518646 121.710622 
C 201.30295 134.812179 199.084534 147.921443 194.033124 160.035451 
C 188.981713 172.14946 181.229504 182.951191 171.369599 191.614229 
C 161.509694 200.277267 149.800127 206.574901 137.13677 210.025313 
C 152.820214 220.007517 171.012065 225.352535 189.602575 225.440493 
C 208.193086 225.528451 226.434699 220.355813 242.211898 210.522459 
C 248.986218 199.103045 252.996764 186.255931 253.922149 173.010626 
C 254.847535 159.765321 252.662362 146.485342 247.541741 134.234885 
C 242.421121 121.984429 234.505587 111.099708 224.429455 102.452974 
C 214.353323 93.806241 202.393131 87.634804 189.507315 84.433213 
" clip-path="url(#pee3ca0f41f)" style="fill: #8fabef; opacity: 0.6"/>
   </g>
   <g id="patch_8">
    <path d="M 91.598741 131.516572 
C 92.344567 147.292847 96.870947 162.661272 104.795415 176.32326 
C 112.719884 189.985249 123.812774 201.54485 137.13677 210.025313 
C 149.800127 206.574901 161.509694 200.277267 171.369599 191.614229 
C 181.229504 182.951191 188.981713 172.14946 194.033124 160.035451 
C 199.084534 147.921443 201.30295 134.812179 200.518646 121.710622 
C 199.734342 108.609064 195.967843 95.858078 189.507315 84.433213 
C 170.262869 79.651768 149.939823 81.739297 132.069246 90.333097 
C 114.19867 98.926898 99.879178 113.498656 91.598741 131.516572 
" clip-path="url(#pee3ca0f41f)" style="fill: #52aadf; opacity: 0.6"/>
   </g>
   <g id="text_1">
    <!-- 98 -->
    <g transform="translate(48.793863 116.301861) scale(0.1 -0.1)">
     <defs>
      <path id="DejaVuSans-39" d="M 703 97 
L 703 672 
Q 941 559 1184 500 
Q 1428 441 1663 441 
Q 2288 441 2617 861 
Q 2947 1281 2994 2138 
Q 2813 1869 2534 1725 
Q 2256 1581 1919 1581 
Q 1219 1581 811 2004 
Q 403 2428 403 3163 
Q 403 3881 828 4315 
Q 1253 4750 1959 4750 
Q 2769 4750 3195 4129 
Q 3622 3509 3622 2328 
Q 3622 1225 3098 567 
Q 2575 -91 1691 -91 
Q 1453 -91 1209 -44 
Q 966 3 703 97 
z
M 1959 2075 
Q 2384 2075 2632 2365 
Q 2881 2656 2881 3163 
Q 2881 3666 2632 3958 
Q 2384 4250 1959 4250 
Q 1534 4250 1286 3958 
Q 1038 3666 1038 3163 
Q 1038 2656 1286 2365 
Q 1534 2075 1959 2075 
z
" transform="scale(0.015625)"/>
      <path id="DejaVuSans-38" d="M 2034 2216 
Q 1584 2216 1326 1975 
Q 1069 1734 1069 1313 
Q 1069 891 1326 650 
Q 1584 409 2034 409 
Q 2484 409 2743 651 
Q 3003 894 3003 1313 
Q 3003 1734 2745 1975 
Q 2488 2216 2034 2216 
z
M 1403 2484 
Q 997 2584 770 2862 
Q 544 3141 544 3541 
Q 544 4100 942 4425 
Q 1341 4750 2034 4750 
Q 2731 4750 3128 4425 
Q 3525 4100 3525 3541 
Q 3525 3141 3298 2862 
Q 3072 2584 2669 2484 
Q 3125 2378 3379 2068 
Q 3634 1759 3634 1313 
Q 3634 634 3220 271 
Q 2806 -91 2034 -91 
Q 1263 -91 848 271 
Q 434 634 434 1313 
Q 434 1759 690 2068 
Q 947 2378 1403 2484 
z
M 1172 3481 
Q 1172 3119 1398 2916 
Q 1625 2713 2034 2713 
Q 2441 2713 2670 2916 
Q 2900 3119 2900 3481 
Q 2900 3844 2670 4047 
Q 2441 4250 2034 4250 
Q 1625 4250 1398 4047 
Q 1172 3844 1172 3481 
z
" transform="scale(0.015625)"/>
     </defs>
     <use xlink:href="#DejaVuSans-39"/>
     <use xlink:href="#DejaVuSans-38" x="63.623047"/>
    </g>
   </g>
   <g id="text_2">
    <!-- 108 -->
    <g transform="translate(241.171188 94.200644) scale(0.1 -0.1)">
     <defs>
      <path id="DejaVuSans-31" d="M 794 531 
L 1825 531 
L 1825 4091 
L 703 3866 
L 703 4441 
L 1819 4666 
L 2450 4666 
L 2450 531 
L 3481 531 
L 3481 0 
L 794 0 
L 794 531 
z
" transform="scale(0.015625)"/>
      <path id="DejaVuSans-30" d="M 2034 4250 
Q 1547 4250 1301 3770 
Q 1056 3291 1056 2328 
Q 1056 1369 1301 889 
Q 1547 409 2034 409 
Q 2525 409 2770 889 
Q 3016 1369 3016 2328 
Q 3016 3291 2770 3770 
Q 2525 4250 2034 4250 
z
M 2034 4750 
Q 2819 4750 3233 4129 
Q 3647 3509 3647 2328 
Q 3647 1150 3233 529 
Q 2819 -91 2034 -91 
Q 1250 -91 836 529 
Q 422 1150 422 2328 
Q 422 3509 836 4129 
Q 1250 4750 2034 4750 
z
" transform="scale(0.015625)"/>
     </defs>
     <use xlink:href="#DejaVuSans-31"/>
     <use xlink:href="#DejaVuSans-30" x="63.623047"/>
     <use xlink:href="#DejaVuSans-38" x="127.246094"/>
    </g>
   </g>
   <g id="text_3">
    <!-- 26 -->
    <g transform="translate(124.74192 82.487195) scale(0.1 -0.1)">
     <defs>
      <path id="DejaVuSans-32" d="M 1228 531 
L 3431 531 
L 3431 0 
L 469 0 
L 469 531 
Q 828 903 1448 1529 
Q 2069 2156 2228 2338 
Q 2531 2678 2651 2914 
Q 2772 3150 2772 3378 
Q 2772 3750 2511 3984 
Q 2250 4219 1831 4219 
Q 1534 4219 1204 4116 
Q 875 4013 500 3803 
L 500 4441 
Q 881 4594 1212 4672 
Q 1544 4750 1819 4750 
Q 2544 4750 2975 4387 
Q 3406 4025 3406 3419 
Q 3406 3131 3298 2873 
Q 3191 2616 2906 2266 
Q 2828 2175 2409 1742 
Q 1991 1309 1228 531 
z
" transform="scale(0.015625)"/>
      <path id="DejaVuSans-36" d="M 2113 2584 
Q 1688 2584 1439 2293 
Q 1191 2003 1191 1497 
Q 1191 994 1439 701 
Q 1688 409 2113 409 
Q 2538 409 2786 701 
Q 3034 994 3034 1497 
Q 3034 2003 2786 2293 
Q 2538 2584 2113 2584 
z
M 3366 4563 
L 3366 3988 
Q 3128 4100 2886 4159 
Q 2644 4219 2406 4219 
Q 1781 4219 1451 3797 
Q 1122 3375 1075 2522 
Q 1259 2794 1537 2939 
Q 1816 3084 2150 3084 
Q 2853 3084 3261 2657 
Q 3669 2231 3669 1497 
Q 3669 778 3244 343 
Q 2819 -91 2113 -91 
Q 1303 -91 875 529 
Q 447 1150 447 2328 
Q 447 3434 972 4092 
Q 1497 4750 2381 4750 
Q 2619 4750 2861 4703 
Q 3103 4656 3366 4563 
z
" transform="scale(0.015625)"/>
     </defs>
     <use xlink:href="#DejaVuSans-32"/>
     <use xlink:href="#DejaVuSans-36" x="63.623047"/>
    </g>
   </g>
   <g id="text_4">
    <!-- 40 -->
    <g transform="translate(162.24804 241.63802) scale(0.1 -0.1)">
     <defs>
      <path id="DejaVuSans-34" d="M 2419 4116 
L 825 1625 
L 2419 1625 
L 2419 4116 
z
M 2253 4666 
L 3047 4666 
L 3047 1625 
L 3713 1625 
L 3713 1100 
L 3047 1100 
L 3047 0 
L 2419 0 
L 2419 1100 
L 313 1100 
L 313 1709 
L 2253 4666 
z
" transform="scale(0.015625)"/>
     </defs>
     <use xlink:href="#DejaVuSans-34"/>
     <use xlink:href="#DejaVuSans-30" x="63.623047"/>
    </g>
   </g>
   <g id="text_5">
    <!-- 11 -->
    <g transform="translate(92.386605 184.600649) scale(0.1 -0.1)">
     <use xlink:href="#DejaVuSans-31"/>
     <use xlink:href="#DejaVuSans-31" x="63.623047"/>
    </g>
   </g>
   <g id="text_6">
    <!-- 78 -->
    <g transform="translate(207.371804 168.093571) scale(0.1 -0.1)">
     <defs>
      <path id="DejaVuSans-37" d="M 525 4666 
L 3525 4666 
L 3525 4397 
L 1831 0 
L 1172 0 
L 2766 4134 
L 525 4134 
L 525 4666 
z
" transform="scale(0.015625)"/>
     </defs>
     <use xlink:href="#DejaVuSans-37"/>
     <use xlink:href="#DejaVuSans-38" x="63.623047"/>
    </g>
   </g>
   <g id="text_7">
    <!-- 115 -->
    <g transform="translate(143.355026 143.357716) scale(0.1 -0.1)">
     <defs>
      <path id="DejaVuSans-35" d="M 691 4666 
L 3169 4666 
L 3169 4134 
L 1269 4134 
L 1269 2991 
Q 1406 3038 1543 3061 
Q 1681 3084 1819 3084 
Q 2600 3084 3056 2656 
Q 3513 2228 3513 1497 
Q 3513 744 3044 326 
Q 2575 -91 1722 -91 
Q 1428 -91 1123 -41 
Q 819 9 494 109 
L 494 744 
Q 775 591 1075 516 
Q 1375 441 1709 441 
Q 2250 441 2565 725 
Q 2881 1009 2881 1497 
Q 2881 1984 2565 2268 
Q 2250 2553 1709 2553 
Q 1456 2553 1204 2497 
Q 953 2441 691 2322 
L 691 4666 
z
" transform="scale(0.015625)"/>
     </defs>
     <use xlink:href="#DejaVuSans-31"/>
     <use xlink:href="#DejaVuSans-31" x="63.623047"/>
     <use xlink:href="#DejaVuSans-35" x="127.246094"/>
    </g>
   </g>
   <g id="text_8">
    <!-- R1 -->
    <g transform="translate(55.405908 40.66561) scale(0.12 -0.12)">
     <defs>
      <path id="DejaVuSans-52" d="M 2841 2188 
Q 3044 2119 3236 1894 
Q 3428 1669 3622 1275 
L 4263 0 
L 3584 0 
L 2988 1197 
Q 2756 1666 2539 1819 
Q 2322 1972 1947 1972 
L 1259 1972 
L 1259 0 
L 628 0 
L 628 4666 
L 2053 4666 
Q 2853 4666 3247 4331 
Q 3641 3997 3641 3322 
Q 3641 2881 3436 2590 
Q 3231 2300 2841 2188 
z
M 1259 4147 
L 1259 2491 
L 2053 2491 
Q 2509 2491 2742 2702 
Q 2975 2913 2975 3322 
Q 2975 3731 2742 3939 
Q 2509 4147 2053 4147 
L 1259 4147 
z
" transform="scale(0.015625)"/>
     </defs>
     <use xlink:href="#DejaVuSans-52"/>
     <use xlink:href="#DejaVuSans-31" x="69.482422"/>
    </g>
   </g>
   <g id="text_9">
    <!-- R2 -->
    <g transform="translate(239.359099 28.281152) scale(0.12 -0.12)">
     <use xlink:href="#DejaVuSans-52"/>
     <use xlink:href="#DejaVuSans-32" x="69.482422"/>
    </g>
   </g>
   <g id="text_10">
    <!-- R3 -->
    <g transform="translate(160.987523 269.864487) scale(0.12 -0.12)">
     <defs>
      <path id="DejaVuSans-33" d="M 2597 2516 
Q 3050 2419 3304 2112 
Q 3559 1806 3559 1356 
Q 3559 666 3084 287 
Q 2609 -91 1734 -91 
Q 1441 -91 1130 -33 
Q 819 25 488 141 
L 488 750 
Q 750 597 1062 519 
Q 1375 441 1716 441 
Q 2309 441 2620 675 
Q 2931 909 2931 1356 
Q 2931 1769 2642 2001 
Q 2353 2234 1838 2234 
L 1294 2234 
L 1294 2753 
L 1863 2753 
Q 2328 2753 2575 2939 
Q 2822 3125 2822 3475 
Q 2822 3834 2567 4026 
Q 2313 4219 1838 4219 
Q 1578 4219 1281 4162 
Q 984 4106 628 3988 
L 628 4550 
Q 988 4650 1302 4700 
Q 1616 4750 1894 4750 
Q 2613 4750 3031 4423 
Q 3450 4097 3450 3541 
Q 3450 3153 3228 2886 
Q 3006 2619 2597 2516 
z
" transform="scale(0.015625)"/>
     </defs>
     <use xlink:href="#DejaVuSans-52"/>
     <use xlink:href="#DejaVuSans-33" x="69.482422"/>
    </g>
   </g>
  </g>
 </g>
 <defs>
  <clipPath id="pee3ca0f41f">
   <rect x="7.2" y="7.2" width="302.530361" height="266.112"/>
  </clipPath>
 </defs>
</svg>
