<?xml version="1.0" encoding="utf-8" standalone="no"?>
<!DOCTYPE svg PUBLIC "-//W3C//DTD SVG 1.1//EN"
  "http://www.w3.org/Graphics/SVG/1.1/DTD/svg11.dtd">
<svg xmlns:xlink="http://www.w3.org/1999/xlink" width="314.254951pt" height="280.512pt" viewBox="0 0 314.254951 280.512" xmlns="http://www.w3.org/2000/svg" version="1.1">
 <metadata>
  <rdf:RDF xmlns:dc="http://purl.org/dc/elements/1.1/" xmlns:cc="http://creativecommons.org/ns#" xmlns:rdf="http://www.w3.org/1999/02/22-rdf-syntax-ns#">
   <cc:Work>
    <dc:type rdf:resource="http://purl.org/dc/dcmitype/StillImage"/>
    <dc:date>2024-11-02T23:24:26.951997</dc:date>
    <dc:format>image/svg+xml</dc:format>
    <dc:creator>
     <cc:Agent>
      <dc:title>Matplotlib v3.9.0, https://matplotlib.org/</dc:title>
     </cc:Agent>
    </dc:creator>
   </cc:Work>
  </rdf:RDF>
 </metadata>
 <defs>
  <style type="text/css">*{stroke-linejoin: round; stroke-linecap: butt}</style>
 </defs>
 <g id="figure_1">
  <g id="patch_1">
   <path d="M 0 280.512 
L 314.254951 280.512 
L 314.254951 0 
L 0 0 
L 0 280.512 
z
" style="fill: none"/>
  </g>
  <g id="axes_1">
   <g id="patch_2">
    <path d="M 129.395886 47.816687 
C 108.970855 42.426174 87.224511 45.260669 68.863668 55.70667 
C 50.502824 66.152671 36.955168 83.397927 31.152975 103.709846 
C 25.350782 124.021766 27.745215 145.820952 37.818018 164.389155 
C 47.890822 182.957357 64.858763 196.850766 85.049275 203.062268 
C 79.858029 191.006351 77.646969 177.875315 78.603841 164.784151 
C 79.560712 151.692987 83.657644 139.023022 90.546754 127.850093 
C 90.236597 112.389667 93.596069 97.073713 100.348741 83.16248 
C 107.101412 69.251247 117.05685 57.13705 129.395886 47.816687 
" clip-path="url(#p4859491629)" style="fill: #00b4d8; opacity: 0.6"/>
   </g>
   <g id="patch_3">
    <path d="M 129.395886 47.816687 
C 140.893447 50.851089 151.579992 56.388237 160.689619 64.031285 
C 169.799247 71.674333 177.109003 81.236222 182.095 92.031653 
C 194.417926 95.47376 205.762007 101.762182 215.210892 110.388953 
C 224.659778 119.015723 231.952007 129.742131 236.498529 141.701718 
C 241.045051 153.661306 242.720059 166.52314 241.388249 179.248268 
C 240.056439 191.973397 235.754663 204.209701 228.830411 214.96876 
C 241.355474 209.279522 252.540982 201.012136 261.654866 190.707683 
C 270.768749 180.40323 277.607747 168.291527 281.724261 155.165258 
C 285.840775 142.038989 287.142996 128.190903 285.545697 114.527329 
C 283.948398 100.863755 279.487202 87.689424 272.454086 75.866569 
C 265.420969 64.043714 255.972789 53.836014 244.727907 45.911542 
C 233.483025 37.98707 220.692232 32.522561 207.192657 29.875656 
C 193.693082 27.22875 179.785801 27.458482 166.381015 30.549814 
C 152.976229 33.641147 140.372899 39.525136 129.395886 47.816687 
" clip-path="url(#p4859491629)" style="fill: #caf0f8; opacity: 0.6"/>
   </g>
   <g id="patch_4">
    <path d="M 129.395886 47.816687 
C 117.05685 57.13705 107.101412 69.251247 100.348741 83.16248 
C 93.596069 97.073713 90.236597 112.389667 90.546754 127.850093 
C 99.852366 112.758022 113.821434 101.0966 130.332979 94.636423 
C 146.844525 88.176247 165.018331 87.261704 182.095 92.031653 
C 177.109003 81.236222 169.799247 71.674333 160.689619 64.031285 
C 151.579992 56.388237 140.893447 50.851089 129.395886 47.816687 
" clip-path="url(#p4859491629)" style="fill: #8dffff; opacity: 0.6"/>
   </g>
   <g id="patch_5">
    <path d="M 85.049275 203.062268 
C 90.910725 216.67464 100.366203 228.439518 112.399039 237.091924 
C 124.431875 245.74433 138.594776 250.96263 153.364924 252.185743 
C 168.135071 253.408857 182.963419 250.591318 196.255598 244.036072 
C 209.547777 237.480826 220.809681 227.431551 228.830411 214.96876 
C 212.800539 222.24998 195.098631 225.071178 177.599529 223.133556 
C 160.100427 221.195933 143.444526 214.570399 129.395886 203.958676 
C 122.143286 205.872761 114.659216 206.76692 107.15982 206.615329 
C 99.660424 206.463739 92.2186 205.267873 85.049275 203.062268 
" clip-path="url(#p4859491629)" style="fill: #03045e; opacity: 0.6"/>
   </g>
   <g id="patch_6">
    <path d="M 85.049275 203.062268 
C 92.2186 205.267873 99.660424 206.463739 107.15982 206.615329 
C 114.659216 206.76692 122.143286 205.872761 129.395886 203.958676 
C 117.585756 195.037825 107.952384 183.552325 101.2234 170.369704 
C 94.494416 157.187082 90.843617 142.647816 90.546754 127.850093 
C 83.657644 139.023022 79.560712 151.692987 78.603841 164.784151 
C 77.646969 177.875315 79.858029 191.006351 85.049275 203.062268 
" clip-path="url(#p4859491629)" style="fill: #0281d9; opacity: 0.6"/>
   </g>
   <g id="patch_7">
    <path d="M 182.095 92.031653 
C 187.038915 102.735971 189.578661 114.394427 189.535212 126.185222 
C 189.491763 137.976016 186.866164 149.615438 181.843494 160.283029 
C 176.820823 170.95062 169.521935 180.389697 160.461327 187.934901 
C 151.40072 195.480105 140.796407 200.949884 129.395886 203.958676 
C 143.444526 214.570399 160.100427 221.195933 177.599529 223.133556 
C 195.098631 225.071178 212.800539 222.24998 228.830411 214.96876 
C 235.754663 204.209701 240.056439 191.973397 241.388249 179.248268 
C 242.720059 166.52314 241.045051 153.661306 236.498529 141.701718 
C 231.952007 129.742131 224.659778 119.015723 215.210892 110.388953 
C 205.762007 101.762182 194.417926 95.47376 182.095 92.031653 
" clip-path="url(#p4859491629)" style="fill: #8fabef; opacity: 0.6"/>
   </g>
   <g id="patch_8">
    <path d="M 90.546754 127.850093 
C 90.843617 142.647816 94.494416 157.187082 101.2234 170.369704 
C 107.952384 183.552325 117.585756 195.037825 129.395886 203.958676 
C 140.796407 200.949884 151.40072 195.480105 160.461327 187.934901 
C 169.521935 180.389697 176.820823 170.95062 181.843494 160.283029 
C 186.866164 149.615438 189.491763 137.976016 189.535212 126.185222 
C 189.578661 114.394427 187.038915 102.735971 182.095 92.031653 
C 165.018331 87.261704 146.844525 88.176247 130.332979 94.636423 
C 113.821434 101.0966 99.852366 112.758022 90.546754 127.850093 
" clip-path="url(#p4859491629)" style="fill: #52aadf; opacity: 0.6"/>
   </g>
   <g id="text_1">
    <!-- 81 -->
    <g transform="translate(46.937285 114.299157) scale(0.1 -0.1)">
     <defs>
      <path id="DejaVuSans-38" d="M 2034 2216 
Q 1584 2216 1326 1975 
Q 1069 1734 1069 1313 
Q 1069 891 1326 650 
Q 1584 409 2034 409 
Q 2484 409 2743 651 
Q 3003 894 3003 1313 
Q 3003 1734 2745 1975 
Q 2488 2216 2034 2216 
z
M 1403 2484 
Q 997 2584 770 2862 
Q 544 3141 544 3541 
Q 544 4100 942 4425 
Q 1341 4750 2034 4750 
Q 2731 4750 3128 4425 
Q 3525 4100 3525 3541 
Q 3525 3141 3298 2862 
Q 3072 2584 2669 2484 
Q 3125 2378 3379 2068 
Q 3634 1759 3634 1313 
Q 3634 634 3220 271 
Q 2806 -91 2034 -91 
Q 1263 -91 848 271 
Q 434 634 434 1313 
Q 434 1759 690 2068 
Q 947 2378 1403 2484 
z
M 1172 3481 
Q 1172 3119 1398 2916 
Q 1625 2713 2034 2713 
Q 2441 2713 2670 2916 
Q 2900 3119 2900 3481 
Q 2900 3844 2670 4047 
Q 2441 4250 2034 4250 
Q 1625 4250 1398 4047 
Q 1172 3844 1172 3481 
z
" transform="scale(0.015625)"/>
      <path id="DejaVuSans-31" d="M 794 531 
L 1825 531 
L 1825 4091 
L 703 3866 
L 703 4441 
L 1819 4666 
L 2450 4666 
L 2450 531 
L 3481 531 
L 3481 0 
L 794 0 
L 794 531 
z
" transform="scale(0.015625)"/>
     </defs>
     <use xlink:href="#DejaVuSans-38"/>
     <use xlink:href="#DejaVuSans-31" x="63.623047"/>
    </g>
   </g>
   <g id="text_2">
    <!-- 120 -->
    <g transform="translate(235.81685 97.065651) scale(0.1 -0.1)">
     <defs>
      <path id="DejaVuSans-32" d="M 1228 531 
L 3431 531 
L 3431 0 
L 469 0 
L 469 531 
Q 828 903 1448 1529 
Q 2069 2156 2228 2338 
Q 2531 2678 2651 2914 
Q 2772 3150 2772 3378 
Q 2772 3750 2511 3984 
Q 2250 4219 1831 4219 
Q 1534 4219 1204 4116 
Q 875 4013 500 3803 
L 500 4441 
Q 881 4594 1212 4672 
Q 1544 4750 1819 4750 
Q 2544 4750 2975 4387 
Q 3406 4025 3406 3419 
Q 3406 3131 3298 2873 
Q 3191 2616 2906 2266 
Q 2828 2175 2409 1742 
Q 1991 1309 1228 531 
z
" transform="scale(0.015625)"/>
      <path id="DejaVuSans-30" d="M 2034 4250 
Q 1547 4250 1301 3770 
Q 1056 3291 1056 2328 
Q 1056 1369 1301 889 
Q 1547 409 2034 409 
Q 2525 409 2770 889 
Q 3016 1369 3016 2328 
Q 3016 3291 2770 3770 
Q 2525 4250 2034 4250 
z
M 2034 4750 
Q 2819 4750 3233 4129 
Q 3647 3509 3647 2328 
Q 3647 1150 3233 529 
Q 2819 -91 2034 -91 
Q 1250 -91 836 529 
Q 422 1150 422 2328 
Q 422 3509 836 4129 
Q 1250 4750 2034 4750 
z
" transform="scale(0.015625)"/>
     </defs>
     <use xlink:href="#DejaVuSans-31"/>
     <use xlink:href="#DejaVuSans-32" x="63.623047"/>
     <use xlink:href="#DejaVuSans-30" x="127.246094"/>
    </g>
   </g>
   <g id="text_3">
    <!-- 24 -->
    <g transform="translate(123.461071 85.270651) scale(0.1 -0.1)">
     <defs>
      <path id="DejaVuSans-34" d="M 2419 4116 
L 825 1625 
L 2419 1625 
L 2419 4116 
z
M 2253 4666 
L 3047 4666 
L 3047 1625 
L 3713 1625 
L 3713 1100 
L 3047 1100 
L 3047 0 
L 2419 0 
L 2419 1100 
L 313 1100 
L 313 1709 
L 2253 4666 
z
" transform="scale(0.015625)"/>
     </defs>
     <use xlink:href="#DejaVuSans-32"/>
     <use xlink:href="#DejaVuSans-34" x="63.623047"/>
    </g>
   </g>
   <g id="text_4">
    <!-- 41 -->
    <g transform="translate(147.080991 240.038212) scale(0.1 -0.1)">
     <use xlink:href="#DejaVuSans-34"/>
     <use xlink:href="#DejaVuSans-31" x="63.623047"/>
    </g>
   </g>
   <g id="text_5">
    <!-- 12 -->
    <g transform="translate(87.259315 179.251584) scale(0.1 -0.1)">
     <use xlink:href="#DejaVuSans-31"/>
     <use xlink:href="#DejaVuSans-32" x="63.623047"/>
    </g>
   </g>
   <g id="text_6">
    <!-- 69 -->
    <g transform="translate(196.309412 170.017197) scale(0.1 -0.1)">
     <defs>
      <path id="DejaVuSans-36" d="M 2113 2584 
Q 1688 2584 1439 2293 
Q 1191 2003 1191 1497 
Q 1191 994 1439 701 
Q 1688 409 2113 409 
Q 2538 409 2786 701 
Q 3034 994 3034 1497 
Q 3034 2003 2786 2293 
Q 2538 2584 2113 2584 
z
M 3366 4563 
L 3366 3988 
Q 3128 4100 2886 4159 
Q 2644 4219 2406 4219 
Q 1781 4219 1451 3797 
Q 1122 3375 1075 2522 
Q 1259 2794 1537 2939 
Q 1816 3084 2150 3084 
Q 2853 3084 3261 2657 
Q 3669 2231 3669 1497 
Q 3669 778 3244 343 
Q 2819 -91 2113 -91 
Q 1303 -91 875 529 
Q 447 1150 447 2328 
Q 447 3434 972 4092 
Q 1497 4750 2381 4750 
Q 2619 4750 2861 4703 
Q 3103 4656 3366 4563 
z
" transform="scale(0.015625)"/>
      <path id="DejaVuSans-39" d="M 703 97 
L 703 672 
Q 941 559 1184 500 
Q 1428 441 1663 441 
Q 2288 441 2617 861 
Q 2947 1281 2994 2138 
Q 2813 1869 2534 1725 
Q 2256 1581 1919 1581 
Q 1219 1581 811 2004 
Q 403 2428 403 3163 
Q 403 3881 828 4315 
Q 1253 4750 1959 4750 
Q 2769 4750 3195 4129 
Q 3622 3509 3622 2328 
Q 3622 1225 3098 567 
Q 2575 -91 1691 -91 
Q 1453 -91 1209 -44 
Q 966 3 703 97 
z
M 1959 2075 
Q 2384 2075 2632 2365 
Q 2881 2656 2881 3163 
Q 2881 3666 2632 3958 
Q 2384 4250 1959 4250 
Q 1534 4250 1286 3958 
Q 1038 3666 1038 3163 
Q 1038 2656 1286 2365 
Q 1534 2075 1959 2075 
z
" transform="scale(0.015625)"/>
     </defs>
     <use xlink:href="#DejaVuSans-36"/>
     <use xlink:href="#DejaVuSans-39" x="63.623047"/>
    </g>
   </g>
   <g id="text_7">
    <!-- 88 -->
    <g transform="translate(140.112645 143.851502) scale(0.1 -0.1)">
     <use xlink:href="#DejaVuSans-38"/>
     <use xlink:href="#DejaVuSans-38" x="63.623047"/>
    </g>
   </g>
   <g id="text_8">
    <!-- R1 -->
    <g transform="translate(52.446428 45.143543) scale(0.12 -0.12)">
     <defs>
      <path id="DejaVuSans-52" d="M 2841 2188 
Q 3044 2119 3236 1894 
Q 3428 1669 3622 1275 
L 4263 0 
L 3584 0 
L 2988 1197 
Q 2756 1666 2539 1819 
Q 2322 1972 1947 1972 
L 1259 1972 
L 1259 0 
L 628 0 
L 628 4666 
L 2053 4666 
Q 2853 4666 3247 4331 
Q 3641 3997 3641 3322 
Q 3641 2881 3436 2590 
Q 3231 2300 2841 2188 
z
M 1259 4147 
L 1259 2491 
L 2053 2491 
Q 2509 2491 2742 2702 
Q 2975 2913 2975 3322 
Q 2975 3731 2742 3939 
Q 2509 4147 2053 4147 
L 1259 4147 
z
" transform="scale(0.015625)"/>
     </defs>
     <use xlink:href="#DejaVuSans-52"/>
     <use xlink:href="#DejaVuSans-31" x="69.482422"/>
    </g>
   </g>
   <g id="text_9">
    <!-- R2 -->
    <g transform="translate(237.287369 28.047484) scale(0.12 -0.12)">
     <use xlink:href="#DejaVuSans-52"/>
     <use xlink:href="#DejaVuSans-32" x="69.482422"/>
    </g>
   </g>
   <g id="text_10">
    <!-- R3 -->
    <g transform="translate(152.122735 269.754931) scale(0.12 -0.12)">
     <defs>
      <path id="DejaVuSans-33" d="M 2597 2516 
Q 3050 2419 3304 2112 
Q 3559 1806 3559 1356 
Q 3559 666 3084 287 
Q 2609 -91 1734 -91 
Q 1441 -91 1130 -33 
Q 819 25 488 141 
L 488 750 
Q 750 597 1062 519 
Q 1375 441 1716 441 
Q 2309 441 2620 675 
Q 2931 909 2931 1356 
Q 2931 1769 2642 2001 
Q 2353 2234 1838 2234 
L 1294 2234 
L 1294 2753 
L 1863 2753 
Q 2328 2753 2575 2939 
Q 2822 3125 2822 3475 
Q 2822 3834 2567 4026 
Q 2313 4219 1838 4219 
Q 1578 4219 1281 4162 
Q 984 4106 628 3988 
L 628 4550 
Q 988 4650 1302 4700 
Q 1616 4750 1894 4750 
Q 2613 4750 3031 4423 
Q 3450 4097 3450 3541 
Q 3450 3153 3228 2886 
Q 3006 2619 2597 2516 
z
" transform="scale(0.015625)"/>
     </defs>
     <use xlink:href="#DejaVuSans-52"/>
     <use xlink:href="#DejaVuSans-33" x="69.482422"/>
    </g>
   </g>
  </g>
 </g>
 <defs>
  <clipPath id="p4859491629">
   <rect x="7.2" y="7.2" width="299.854951" height="266.112"/>
  </clipPath>
 </defs>
</svg>
