<?xml version="1.0" encoding="utf-8" standalone="no"?>
<!DOCTYPE svg PUBLIC "-//W3C//DTD SVG 1.1//EN"
  "http://www.w3.org/Graphics/SVG/1.1/DTD/svg11.dtd">
<svg xmlns:xlink="http://www.w3.org/1999/xlink" width="308.158045pt" height="281.749693pt" viewBox="0 0 308.158045 281.749693" xmlns="http://www.w3.org/2000/svg" version="1.1">
 <metadata>
  <rdf:RDF xmlns:dc="http://purl.org/dc/elements/1.1/" xmlns:cc="http://creativecommons.org/ns#" xmlns:rdf="http://www.w3.org/1999/02/22-rdf-syntax-ns#">
   <cc:Work>
    <dc:type rdf:resource="http://purl.org/dc/dcmitype/StillImage"/>
    <dc:date>2024-11-02T23:24:32.190044</dc:date>
    <dc:format>image/svg+xml</dc:format>
    <dc:creator>
     <cc:Agent>
      <dc:title>Matplotlib v3.9.0, https://matplotlib.org/</dc:title>
     </cc:Agent>
    </dc:creator>
   </cc:Work>
  </rdf:RDF>
 </metadata>
 <defs>
  <style type="text/css">*{stroke-linejoin: round; stroke-linecap: butt}</style>
 </defs>
 <g id="figure_1">
  <g id="patch_1">
   <path d="M 0 281.749693 
L 308.158045 281.749693 
L 308.158045 0 
L 0 0 
L 0 281.749693 
z
" style="fill: none"/>
  </g>
  <g id="axes_1">
   <g id="patch_2">
    <path d="M 188.906987 241.146571 
C 174.783677 242.605858 160.510056 241.083406 147.012284 236.678003 
C 133.514512 232.2726 121.090982 225.081634 110.547806 215.571698 
C 100.00463 206.061763 91.574885 194.443092 85.805544 181.469576 
C 80.036203 168.49606 77.054806 154.454501 77.054806 140.256 
C 77.054806 126.057499 80.036203 112.01594 85.805544 99.042424 
C 91.574885 86.068908 100.00463 74.450237 110.547806 64.940302 
C 121.090982 55.430366 133.514512 48.2394 147.012284 43.833997 
C 160.510056 39.428594 174.783677 37.906142 188.906987 39.365429 
C 171.833044 31.132111 152.94526 27.366161 134.01927 28.421618 
C 115.09328 29.477074 96.741347 35.319791 80.688732 45.400497 
C 64.636117 55.481202 51.402128 69.473782 42.230887 86.062798 
C 33.059647 102.651813 28.247849 121.300603 28.247849 140.256 
C 28.247849 159.211397 33.059647 177.860187 42.230887 194.449202 
C 51.402128 211.038218 64.636117 225.030798 80.688732 235.111503 
C 96.741347 245.192209 115.09328 251.034926 134.01927 252.090382 
C 152.94526 253.145839 171.833044 249.379889 188.906987 241.146571 
" clip-path="url(#pa9fabdfa99)" style="fill: #00b4d8; opacity: 0.6"/>
   </g>
   <g id="patch_3">
    <path d="M 188.906987 39.365429 
C 207.887381 48.518067 223.905201 62.843707 235.111503 80.688732 
C 246.317805 98.533758 252.264151 119.184072 252.264151 140.256 
C 252.264151 161.327928 246.317805 181.978242 235.111503 199.823268 
C 223.905201 217.668293 207.887381 231.993933 188.906987 241.146571 
C 213.862286 238.568073 236.994542 226.820045 253.798199 208.190695 
C 270.601857 189.561345 279.910196 165.344156 279.910196 140.256 
C 279.910196 115.167844 270.601857 90.950655 253.798199 72.321305 
C 236.994542 53.691955 213.862286 41.943927 188.906987 39.365429 
" clip-path="url(#pa9fabdfa99)" style="fill: #03045e; opacity: 0.6"/>
   </g>
   <g id="patch_4">
    <path d="M 188.906987 241.146571 
C 207.887381 231.993933 223.905201 217.668293 235.111503 199.823268 
C 246.317805 181.978242 252.264151 161.327928 252.264151 140.256 
C 252.264151 119.184072 246.317805 98.533758 235.111503 80.688732 
C 223.905201 62.843707 207.887381 48.518067 188.906987 39.365429 
C 174.783677 37.906142 160.510056 39.428594 147.012284 43.833997 
C 133.514512 48.2394 121.090982 55.430366 110.547806 64.940302 
C 100.00463 74.450237 91.574885 86.068908 85.805544 99.042424 
C 80.036203 112.01594 77.054806 126.057499 77.054806 140.256 
C 77.054806 154.454501 80.036203 168.49606 85.805544 181.469576 
C 91.574885 194.443092 100.00463 206.061763 110.547806 215.571698 
C 121.090982 225.081634 133.514512 232.2726 147.012284 236.678003 
C 160.510056 241.083406 174.783677 242.605858 188.906987 241.146571 
" clip-path="url(#pa9fabdfa99)" style="fill: #0281d9; opacity: 0.6"/>
   </g>
   <g id="text_1">
    <!-- 76 -->
    <g transform="translate(46.288828 143.015375) scale(0.1 -0.1)">
     <defs>
      <path id="DejaVuSans-37" d="M 525 4666 
L 3525 4666 
L 3525 4397 
L 1831 0 
L 1172 0 
L 2766 4134 
L 525 4134 
L 525 4666 
z
" transform="scale(0.015625)"/>
      <path id="DejaVuSans-36" d="M 2113 2584 
Q 1688 2584 1439 2293 
Q 1191 2003 1191 1497 
Q 1191 994 1439 701 
Q 1688 409 2113 409 
Q 2538 409 2786 701 
Q 3034 994 3034 1497 
Q 3034 2003 2786 2293 
Q 2538 2584 2113 2584 
z
M 3366 4563 
L 3366 3988 
Q 3128 4100 2886 4159 
Q 2644 4219 2406 4219 
Q 1781 4219 1451 3797 
Q 1122 3375 1075 2522 
Q 1259 2794 1537 2939 
Q 1816 3084 2150 3084 
Q 2853 3084 3261 2657 
Q 3669 2231 3669 1497 
Q 3669 778 3244 343 
Q 2819 -91 2113 -91 
Q 1303 -91 875 529 
Q 447 1150 447 2328 
Q 447 3434 972 4092 
Q 1497 4750 2381 4750 
Q 2619 4750 2861 4703 
Q 3103 4656 3366 4563 
z
" transform="scale(0.015625)"/>
     </defs>
     <use xlink:href="#DejaVuSans-37"/>
     <use xlink:href="#DejaVuSans-36" x="63.623047"/>
    </g>
   </g>
   <g id="text_2">
    <!-- 31 -->
    <g transform="translate(259.724673 143.015375) scale(0.1 -0.1)">
     <defs>
      <path id="DejaVuSans-33" d="M 2597 2516 
Q 3050 2419 3304 2112 
Q 3559 1806 3559 1356 
Q 3559 666 3084 287 
Q 2609 -91 1734 -91 
Q 1441 -91 1130 -33 
Q 819 25 488 141 
L 488 750 
Q 750 597 1062 519 
Q 1375 441 1716 441 
Q 2309 441 2620 675 
Q 2931 909 2931 1356 
Q 2931 1769 2642 2001 
Q 2353 2234 1838 2234 
L 1294 2234 
L 1294 2753 
L 1863 2753 
Q 2328 2753 2575 2939 
Q 2822 3125 2822 3475 
Q 2822 3834 2567 4026 
Q 2313 4219 1838 4219 
Q 1578 4219 1281 4162 
Q 984 4106 628 3988 
L 628 4550 
Q 988 4650 1302 4700 
Q 1616 4750 1894 4750 
Q 2613 4750 3031 4423 
Q 3450 4097 3450 3541 
Q 3450 3153 3228 2886 
Q 3006 2619 2597 2516 
z
" transform="scale(0.015625)"/>
      <path id="DejaVuSans-31" d="M 794 531 
L 1825 531 
L 1825 4091 
L 703 3866 
L 703 4441 
L 1819 4666 
L 2450 4666 
L 2450 531 
L 3481 531 
L 3481 0 
L 794 0 
L 794 531 
z
" transform="scale(0.015625)"/>
     </defs>
     <use xlink:href="#DejaVuSans-33"/>
     <use xlink:href="#DejaVuSans-31" x="63.623047"/>
    </g>
   </g>
   <g id="text_3">
    <!-- 174 -->
    <g transform="translate(155.115729 143.015375) scale(0.1 -0.1)">
     <defs>
      <path id="DejaVuSans-34" d="M 2419 4116 
L 825 1625 
L 2419 1625 
L 2419 4116 
z
M 2253 4666 
L 3047 4666 
L 3047 1625 
L 3713 1625 
L 3713 1100 
L 3047 1100 
L 3047 0 
L 2419 0 
L 2419 1100 
L 313 1100 
L 313 1709 
L 2253 4666 
z
" transform="scale(0.015625)"/>
     </defs>
     <use xlink:href="#DejaVuSans-31"/>
     <use xlink:href="#DejaVuSans-37" x="63.623047"/>
     <use xlink:href="#DejaVuSans-34" x="127.246094"/>
    </g>
   </g>
   <g id="text_4">
    <!-- Filtered Proteome -->
    <g transform="translate(34.455375 272.054068) scale(0.12 -0.12)">
     <defs>
      <path id="DejaVuSans-46" d="M 628 4666 
L 3309 4666 
L 3309 4134 
L 1259 4134 
L 1259 2759 
L 3109 2759 
L 3109 2228 
L 1259 2228 
L 1259 0 
L 628 0 
L 628 4666 
z
" transform="scale(0.015625)"/>
      <path id="DejaVuSans-69" d="M 603 3500 
L 1178 3500 
L 1178 0 
L 603 0 
L 603 3500 
z
M 603 4863 
L 1178 4863 
L 1178 4134 
L 603 4134 
L 603 4863 
z
" transform="scale(0.015625)"/>
      <path id="DejaVuSans-6c" d="M 603 4863 
L 1178 4863 
L 1178 0 
L 603 0 
L 603 4863 
z
" transform="scale(0.015625)"/>
      <path id="DejaVuSans-74" d="M 1172 4494 
L 1172 3500 
L 2356 3500 
L 2356 3053 
L 1172 3053 
L 1172 1153 
Q 1172 725 1289 603 
Q 1406 481 1766 481 
L 2356 481 
L 2356 0 
L 1766 0 
Q 1100 0 847 248 
Q 594 497 594 1153 
L 594 3053 
L 172 3053 
L 172 3500 
L 594 3500 
L 594 4494 
L 1172 4494 
z
" transform="scale(0.015625)"/>
      <path id="DejaVuSans-65" d="M 3597 1894 
L 3597 1613 
L 953 1613 
Q 991 1019 1311 708 
Q 1631 397 2203 397 
Q 2534 397 2845 478 
Q 3156 559 3463 722 
L 3463 178 
Q 3153 47 2828 -22 
Q 2503 -91 2169 -91 
Q 1331 -91 842 396 
Q 353 884 353 1716 
Q 353 2575 817 3079 
Q 1281 3584 2069 3584 
Q 2775 3584 3186 3129 
Q 3597 2675 3597 1894 
z
M 3022 2063 
Q 3016 2534 2758 2815 
Q 2500 3097 2075 3097 
Q 1594 3097 1305 2825 
Q 1016 2553 972 2059 
L 3022 2063 
z
" transform="scale(0.015625)"/>
      <path id="DejaVuSans-72" d="M 2631 2963 
Q 2534 3019 2420 3045 
Q 2306 3072 2169 3072 
Q 1681 3072 1420 2755 
Q 1159 2438 1159 1844 
L 1159 0 
L 581 0 
L 581 3500 
L 1159 3500 
L 1159 2956 
Q 1341 3275 1631 3429 
Q 1922 3584 2338 3584 
Q 2397 3584 2469 3576 
Q 2541 3569 2628 3553 
L 2631 2963 
z
" transform="scale(0.015625)"/>
      <path id="DejaVuSans-64" d="M 2906 2969 
L 2906 4863 
L 3481 4863 
L 3481 0 
L 2906 0 
L 2906 525 
Q 2725 213 2448 61 
Q 2172 -91 1784 -91 
Q 1150 -91 751 415 
Q 353 922 353 1747 
Q 353 2572 751 3078 
Q 1150 3584 1784 3584 
Q 2172 3584 2448 3432 
Q 2725 3281 2906 2969 
z
M 947 1747 
Q 947 1113 1208 752 
Q 1469 391 1925 391 
Q 2381 391 2643 752 
Q 2906 1113 2906 1747 
Q 2906 2381 2643 2742 
Q 2381 3103 1925 3103 
Q 1469 3103 1208 2742 
Q 947 2381 947 1747 
z
" transform="scale(0.015625)"/>
      <path id="DejaVuSans-20" transform="scale(0.015625)"/>
      <path id="DejaVuSans-50" d="M 1259 4147 
L 1259 2394 
L 2053 2394 
Q 2494 2394 2734 2622 
Q 2975 2850 2975 3272 
Q 2975 3691 2734 3919 
Q 2494 4147 2053 4147 
L 1259 4147 
z
M 628 4666 
L 2053 4666 
Q 2838 4666 3239 4311 
Q 3641 3956 3641 3272 
Q 3641 2581 3239 2228 
Q 2838 1875 2053 1875 
L 1259 1875 
L 1259 0 
L 628 0 
L 628 4666 
z
" transform="scale(0.015625)"/>
      <path id="DejaVuSans-6f" d="M 1959 3097 
Q 1497 3097 1228 2736 
Q 959 2375 959 1747 
Q 959 1119 1226 758 
Q 1494 397 1959 397 
Q 2419 397 2687 759 
Q 2956 1122 2956 1747 
Q 2956 2369 2687 2733 
Q 2419 3097 1959 3097 
z
M 1959 3584 
Q 2709 3584 3137 3096 
Q 3566 2609 3566 1747 
Q 3566 888 3137 398 
Q 2709 -91 1959 -91 
Q 1206 -91 779 398 
Q 353 888 353 1747 
Q 353 2609 779 3096 
Q 1206 3584 1959 3584 
z
" transform="scale(0.015625)"/>
      <path id="DejaVuSans-6d" d="M 3328 2828 
Q 3544 3216 3844 3400 
Q 4144 3584 4550 3584 
Q 5097 3584 5394 3201 
Q 5691 2819 5691 2113 
L 5691 0 
L 5113 0 
L 5113 2094 
Q 5113 2597 4934 2840 
Q 4756 3084 4391 3084 
Q 3944 3084 3684 2787 
Q 3425 2491 3425 1978 
L 3425 0 
L 2847 0 
L 2847 2094 
Q 2847 2600 2669 2842 
Q 2491 3084 2119 3084 
Q 1678 3084 1418 2786 
Q 1159 2488 1159 1978 
L 1159 0 
L 581 0 
L 581 3500 
L 1159 3500 
L 1159 2956 
Q 1356 3278 1631 3431 
Q 1906 3584 2284 3584 
Q 2666 3584 2933 3390 
Q 3200 3197 3328 2828 
z
" transform="scale(0.015625)"/>
     </defs>
     <use xlink:href="#DejaVuSans-46"/>
     <use xlink:href="#DejaVuSans-69" x="50.269531"/>
     <use xlink:href="#DejaVuSans-6c" x="78.052734"/>
     <use xlink:href="#DejaVuSans-74" x="105.835938"/>
     <use xlink:href="#DejaVuSans-65" x="145.044922"/>
     <use xlink:href="#DejaVuSans-72" x="206.568359"/>
     <use xlink:href="#DejaVuSans-65" x="245.431641"/>
     <use xlink:href="#DejaVuSans-64" x="306.955078"/>
     <use xlink:href="#DejaVuSans-20" x="370.431641"/>
     <use xlink:href="#DejaVuSans-50" x="402.21875"/>
     <use xlink:href="#DejaVuSans-72" x="460.771484"/>
     <use xlink:href="#DejaVuSans-6f" x="499.634766"/>
     <use xlink:href="#DejaVuSans-74" x="560.816406"/>
     <use xlink:href="#DejaVuSans-65" x="600.025391"/>
     <use xlink:href="#DejaVuSans-6f" x="661.548828"/>
     <use xlink:href="#DejaVuSans-6d" x="722.730469"/>
     <use xlink:href="#DejaVuSans-65" x="820.142578"/>
    </g>
   </g>
   <g id="text_5">
    <!-- Full Proteome -->
    <g transform="translate(178.482501 261.473612) scale(0.12 -0.12)">
     <defs>
      <path id="DejaVuSans-75" d="M 544 1381 
L 544 3500 
L 1119 3500 
L 1119 1403 
Q 1119 906 1312 657 
Q 1506 409 1894 409 
Q 2359 409 2629 706 
Q 2900 1003 2900 1516 
L 2900 3500 
L 3475 3500 
L 3475 0 
L 2900 0 
L 2900 538 
Q 2691 219 2414 64 
Q 2138 -91 1772 -91 
Q 1169 -91 856 284 
Q 544 659 544 1381 
z
M 1991 3584 
L 1991 3584 
z
" transform="scale(0.015625)"/>
     </defs>
     <use xlink:href="#DejaVuSans-46"/>
     <use xlink:href="#DejaVuSans-75" x="52.019531"/>
     <use xlink:href="#DejaVuSans-6c" x="115.398438"/>
     <use xlink:href="#DejaVuSans-6c" x="143.181641"/>
     <use xlink:href="#DejaVuSans-20" x="170.964844"/>
     <use xlink:href="#DejaVuSans-50" x="202.751953"/>
     <use xlink:href="#DejaVuSans-72" x="261.304688"/>
     <use xlink:href="#DejaVuSans-6f" x="300.167969"/>
     <use xlink:href="#DejaVuSans-74" x="361.349609"/>
     <use xlink:href="#DejaVuSans-65" x="400.558594"/>
     <use xlink:href="#DejaVuSans-6f" x="462.082031"/>
     <use xlink:href="#DejaVuSans-6d" x="523.263672"/>
     <use xlink:href="#DejaVuSans-65" x="620.675781"/>
    </g>
   </g>
  </g>
 </g>
 <defs>
  <clipPath id="pa9fabdfa99">
   <rect x="7.2" y="7.2" width="293.758045" height="266.112"/>
  </clipPath>
 </defs>
</svg>
