<?xml version="1.0" encoding="utf-8" standalone="no"?>
<!DOCTYPE svg PUBLIC "-//W3C//DTD SVG 1.1//EN"
  "http://www.w3.org/Graphics/SVG/1.1/DTD/svg11.dtd">
<svg xmlns:xlink="http://www.w3.org/1999/xlink" width="312.556392pt" height="281.699662pt" viewBox="0 0 312.556392 281.699662" xmlns="http://www.w3.org/2000/svg" version="1.1">
 <metadata>
  <rdf:RDF xmlns:dc="http://purl.org/dc/elements/1.1/" xmlns:cc="http://creativecommons.org/ns#" xmlns:rdf="http://www.w3.org/1999/02/22-rdf-syntax-ns#">
   <cc:Work>
    <dc:type rdf:resource="http://purl.org/dc/dcmitype/StillImage"/>
    <dc:date>2024-11-02T23:24:33.697077</dc:date>
    <dc:format>image/svg+xml</dc:format>
    <dc:creator>
     <cc:Agent>
      <dc:title>Matplotlib v3.9.0, https://matplotlib.org/</dc:title>
     </cc:Agent>
    </dc:creator>
   </cc:Work>
  </rdf:RDF>
 </metadata>
 <defs>
  <style type="text/css">*{stroke-linejoin: round; stroke-linecap: butt}</style>
 </defs>
 <g id="figure_1">
  <g id="patch_1">
   <path d="M 0 281.699662 
L 312.556392 281.699662 
L 312.556392 0 
L 0 0 
L 0 281.699662 
z
" style="fill: none"/>
  </g>
  <g id="axes_1">
   <g id="patch_2">
    <path d="M 172.102531 247.307159 
C 144.538319 246.089249 118.482228 234.271078 99.407827 214.335274 
C 80.333426 194.39947 69.676927 167.847105 69.676927 140.256 
C 69.676927 112.664895 80.333426 86.11253 99.407827 66.176726 
C 118.482228 46.240922 144.538319 34.422751 172.102531 33.204841 
C 155.435691 28.246641 137.838962 27.248578 120.718371 30.290399 
C 103.597781 33.332221 87.421799 40.330694 73.482933 50.726621 
C 59.544066 61.122548 48.223723 74.631465 40.426431 90.173972 
C 32.629139 105.71648 28.568256 122.867288 28.568256 140.256 
C 28.568256 157.644712 32.629139 174.79552 40.426431 190.338028 
C 48.223723 205.880535 59.544066 219.389452 73.482933 229.785379 
C 87.421799 240.181306 103.597781 247.179779 120.718371 250.221601 
C 137.838962 253.263422 155.435691 252.265359 172.102531 247.307159 
" clip-path="url(#pc77d1e21e6)" style="fill: #00b4d8; opacity: 0.6"/>
   </g>
   <g id="patch_3">
    <path d="M 172.102531 33.204841 
C 195.163242 40.065146 215.401281 54.196722 229.785379 73.482933 
C 244.169478 92.769143 251.943744 116.196486 251.943744 140.256 
C 251.943744 164.315514 244.169478 187.742857 229.785379 207.029067 
C 215.401281 226.315278 195.163242 240.446854 172.102531 247.307159 
C 186.558152 247.945874 200.994495 245.650004 214.538793 240.558351 
C 228.08309 235.466697 240.456784 227.683977 250.911805 217.680705 
C 261.366827 207.677432 269.688154 195.65934 275.372709 182.352997 
C 281.057264 169.046654 283.988137 154.725725 283.988137 140.256 
C 283.988137 125.786275 281.057264 111.465346 275.372709 98.159003 
C 269.688154 84.85266 261.366827 72.834568 250.911805 62.831295 
C 240.456784 52.828023 228.08309 45.045303 214.538793 39.953649 
C 200.994495 34.861996 186.558152 32.566126 172.102531 33.204841 
" clip-path="url(#pc77d1e21e6)" style="fill: #03045e; opacity: 0.6"/>
   </g>
   <g id="patch_4">
    <path d="M 172.102531 247.307159 
C 195.163242 240.446854 215.401281 226.315278 229.785379 207.029067 
C 244.169478 187.742857 251.943744 164.315514 251.943744 140.256 
C 251.943744 116.196486 244.169478 92.769143 229.785379 73.482933 
C 215.401281 54.196722 195.163242 40.065146 172.102531 33.204841 
C 144.538319 34.422751 118.482228 46.240922 99.407827 66.176726 
C 80.333426 86.11253 69.676927 112.664895 69.676927 140.256 
C 69.676927 167.847105 80.333426 194.39947 99.407827 214.335274 
C 118.482228 234.271078 144.538319 246.089249 172.102531 247.307159 
" clip-path="url(#pc77d1e21e6)" style="fill: #0281d9; opacity: 0.6"/>
   </g>
   <g id="text_1">
    <!-- 80 -->
    <g transform="translate(42.760091 143.015375) scale(0.1 -0.1)">
     <defs>
      <path id="DejaVuSans-38" d="M 2034 2216 
Q 1584 2216 1326 1975 
Q 1069 1734 1069 1313 
Q 1069 891 1326 650 
Q 1584 409 2034 409 
Q 2484 409 2743 651 
Q 3003 894 3003 1313 
Q 3003 1734 2745 1975 
Q 2488 2216 2034 2216 
z
M 1403 2484 
Q 997 2584 770 2862 
Q 544 3141 544 3541 
Q 544 4100 942 4425 
Q 1341 4750 2034 4750 
Q 2731 4750 3128 4425 
Q 3525 4100 3525 3541 
Q 3525 3141 3298 2862 
Q 3072 2584 2669 2484 
Q 3125 2378 3379 2068 
Q 3634 1759 3634 1313 
Q 3634 634 3220 271 
Q 2806 -91 2034 -91 
Q 1263 -91 848 271 
Q 434 634 434 1313 
Q 434 1759 690 2068 
Q 947 2378 1403 2484 
z
M 1172 3481 
Q 1172 3119 1398 2916 
Q 1625 2713 2034 2713 
Q 2441 2713 2670 2916 
Q 2900 3119 2900 3481 
Q 2900 3844 2670 4047 
Q 2441 4250 2034 4250 
Q 1625 4250 1398 4047 
Q 1172 3844 1172 3481 
z
" transform="scale(0.015625)"/>
      <path id="DejaVuSans-30" d="M 2034 4250 
Q 1547 4250 1301 3770 
Q 1056 3291 1056 2328 
Q 1056 1369 1301 889 
Q 1547 409 2034 409 
Q 2525 409 2770 889 
Q 3016 1369 3016 2328 
Q 3016 3291 2770 3770 
Q 2525 4250 2034 4250 
z
M 2034 4750 
Q 2819 4750 3233 4129 
Q 3647 3509 3647 2328 
Q 3647 1150 3233 529 
Q 2819 -91 2034 -91 
Q 1250 -91 836 529 
Q 422 1150 422 2328 
Q 422 3509 836 4129 
Q 1250 4750 2034 4750 
z
" transform="scale(0.015625)"/>
     </defs>
     <use xlink:href="#DejaVuSans-38"/>
     <use xlink:href="#DejaVuSans-30" x="63.623047"/>
    </g>
   </g>
   <g id="text_2">
    <!-- 54 -->
    <g transform="translate(261.603441 143.015375) scale(0.1 -0.1)">
     <defs>
      <path id="DejaVuSans-35" d="M 691 4666 
L 3169 4666 
L 3169 4134 
L 1269 4134 
L 1269 2991 
Q 1406 3038 1543 3061 
Q 1681 3084 1819 3084 
Q 2600 3084 3056 2656 
Q 3513 2228 3513 1497 
Q 3513 744 3044 326 
Q 2575 -91 1722 -91 
Q 1428 -91 1123 -41 
Q 819 9 494 109 
L 494 744 
Q 775 591 1075 516 
Q 1375 441 1709 441 
Q 2250 441 2565 725 
Q 2881 1009 2881 1497 
Q 2881 1984 2565 2268 
Q 2250 2553 1709 2553 
Q 1456 2553 1204 2497 
Q 953 2441 691 2322 
L 691 4666 
z
" transform="scale(0.015625)"/>
      <path id="DejaVuSans-34" d="M 2419 4116 
L 825 1625 
L 2419 1625 
L 2419 4116 
z
M 2253 4666 
L 3047 4666 
L 3047 1625 
L 3713 1625 
L 3713 1100 
L 3047 1100 
L 3047 0 
L 2419 0 
L 2419 1100 
L 313 1100 
L 313 1709 
L 2253 4666 
z
" transform="scale(0.015625)"/>
     </defs>
     <use xlink:href="#DejaVuSans-35"/>
     <use xlink:href="#DejaVuSans-34" x="63.623047"/>
    </g>
   </g>
   <g id="text_3">
    <!-- 247 -->
    <g transform="translate(151.266586 143.015375) scale(0.1 -0.1)">
     <defs>
      <path id="DejaVuSans-32" d="M 1228 531 
L 3431 531 
L 3431 0 
L 469 0 
L 469 531 
Q 828 903 1448 1529 
Q 2069 2156 2228 2338 
Q 2531 2678 2651 2914 
Q 2772 3150 2772 3378 
Q 2772 3750 2511 3984 
Q 2250 4219 1831 4219 
Q 1534 4219 1204 4116 
Q 875 4013 500 3803 
L 500 4441 
Q 881 4594 1212 4672 
Q 1544 4750 1819 4750 
Q 2544 4750 2975 4387 
Q 3406 4025 3406 3419 
Q 3406 3131 3298 2873 
Q 3191 2616 2906 2266 
Q 2828 2175 2409 1742 
Q 1991 1309 1228 531 
z
" transform="scale(0.015625)"/>
      <path id="DejaVuSans-37" d="M 525 4666 
L 3525 4666 
L 3525 4397 
L 1831 0 
L 1172 0 
L 2766 4134 
L 525 4134 
L 525 4666 
z
" transform="scale(0.015625)"/>
     </defs>
     <use xlink:href="#DejaVuSans-32"/>
     <use xlink:href="#DejaVuSans-34" x="63.623047"/>
     <use xlink:href="#DejaVuSans-37" x="127.246094"/>
    </g>
   </g>
   <g id="text_4">
    <!-- Filtered Proteome -->
    <g transform="translate(34.455375 272.004037) scale(0.12 -0.12)">
     <defs>
      <path id="DejaVuSans-46" d="M 628 4666 
L 3309 4666 
L 3309 4134 
L 1259 4134 
L 1259 2759 
L 3109 2759 
L 3109 2228 
L 1259 2228 
L 1259 0 
L 628 0 
L 628 4666 
z
" transform="scale(0.015625)"/>
      <path id="DejaVuSans-69" d="M 603 3500 
L 1178 3500 
L 1178 0 
L 603 0 
L 603 3500 
z
M 603 4863 
L 1178 4863 
L 1178 4134 
L 603 4134 
L 603 4863 
z
" transform="scale(0.015625)"/>
      <path id="DejaVuSans-6c" d="M 603 4863 
L 1178 4863 
L 1178 0 
L 603 0 
L 603 4863 
z
" transform="scale(0.015625)"/>
      <path id="DejaVuSans-74" d="M 1172 4494 
L 1172 3500 
L 2356 3500 
L 2356 3053 
L 1172 3053 
L 1172 1153 
Q 1172 725 1289 603 
Q 1406 481 1766 481 
L 2356 481 
L 2356 0 
L 1766 0 
Q 1100 0 847 248 
Q 594 497 594 1153 
L 594 3053 
L 172 3053 
L 172 3500 
L 594 3500 
L 594 4494 
L 1172 4494 
z
" transform="scale(0.015625)"/>
      <path id="DejaVuSans-65" d="M 3597 1894 
L 3597 1613 
L 953 1613 
Q 991 1019 1311 708 
Q 1631 397 2203 397 
Q 2534 397 2845 478 
Q 3156 559 3463 722 
L 3463 178 
Q 3153 47 2828 -22 
Q 2503 -91 2169 -91 
Q 1331 -91 842 396 
Q 353 884 353 1716 
Q 353 2575 817 3079 
Q 1281 3584 2069 3584 
Q 2775 3584 3186 3129 
Q 3597 2675 3597 1894 
z
M 3022 2063 
Q 3016 2534 2758 2815 
Q 2500 3097 2075 3097 
Q 1594 3097 1305 2825 
Q 1016 2553 972 2059 
L 3022 2063 
z
" transform="scale(0.015625)"/>
      <path id="DejaVuSans-72" d="M 2631 2963 
Q 2534 3019 2420 3045 
Q 2306 3072 2169 3072 
Q 1681 3072 1420 2755 
Q 1159 2438 1159 1844 
L 1159 0 
L 581 0 
L 581 3500 
L 1159 3500 
L 1159 2956 
Q 1341 3275 1631 3429 
Q 1922 3584 2338 3584 
Q 2397 3584 2469 3576 
Q 2541 3569 2628 3553 
L 2631 2963 
z
" transform="scale(0.015625)"/>
      <path id="DejaVuSans-64" d="M 2906 2969 
L 2906 4863 
L 3481 4863 
L 3481 0 
L 2906 0 
L 2906 525 
Q 2725 213 2448 61 
Q 2172 -91 1784 -91 
Q 1150 -91 751 415 
Q 353 922 353 1747 
Q 353 2572 751 3078 
Q 1150 3584 1784 3584 
Q 2172 3584 2448 3432 
Q 2725 3281 2906 2969 
z
M 947 1747 
Q 947 1113 1208 752 
Q 1469 391 1925 391 
Q 2381 391 2643 752 
Q 2906 1113 2906 1747 
Q 2906 2381 2643 2742 
Q 2381 3103 1925 3103 
Q 1469 3103 1208 2742 
Q 947 2381 947 1747 
z
" transform="scale(0.015625)"/>
      <path id="DejaVuSans-20" transform="scale(0.015625)"/>
      <path id="DejaVuSans-50" d="M 1259 4147 
L 1259 2394 
L 2053 2394 
Q 2494 2394 2734 2622 
Q 2975 2850 2975 3272 
Q 2975 3691 2734 3919 
Q 2494 4147 2053 4147 
L 1259 4147 
z
M 628 4666 
L 2053 4666 
Q 2838 4666 3239 4311 
Q 3641 3956 3641 3272 
Q 3641 2581 3239 2228 
Q 2838 1875 2053 1875 
L 1259 1875 
L 1259 0 
L 628 0 
L 628 4666 
z
" transform="scale(0.015625)"/>
      <path id="DejaVuSans-6f" d="M 1959 3097 
Q 1497 3097 1228 2736 
Q 959 2375 959 1747 
Q 959 1119 1226 758 
Q 1494 397 1959 397 
Q 2419 397 2687 759 
Q 2956 1122 2956 1747 
Q 2956 2369 2687 2733 
Q 2419 3097 1959 3097 
z
M 1959 3584 
Q 2709 3584 3137 3096 
Q 3566 2609 3566 1747 
Q 3566 888 3137 398 
Q 2709 -91 1959 -91 
Q 1206 -91 779 398 
Q 353 888 353 1747 
Q 353 2609 779 3096 
Q 1206 3584 1959 3584 
z
" transform="scale(0.015625)"/>
      <path id="DejaVuSans-6d" d="M 3328 2828 
Q 3544 3216 3844 3400 
Q 4144 3584 4550 3584 
Q 5097 3584 5394 3201 
Q 5691 2819 5691 2113 
L 5691 0 
L 5113 0 
L 5113 2094 
Q 5113 2597 4934 2840 
Q 4756 3084 4391 3084 
Q 3944 3084 3684 2787 
Q 3425 2491 3425 1978 
L 3425 0 
L 2847 0 
L 2847 2094 
Q 2847 2600 2669 2842 
Q 2491 3084 2119 3084 
Q 1678 3084 1418 2786 
Q 1159 2488 1159 1978 
L 1159 0 
L 581 0 
L 581 3500 
L 1159 3500 
L 1159 2956 
Q 1356 3278 1631 3431 
Q 1906 3584 2284 3584 
Q 2666 3584 2933 3390 
Q 3200 3197 3328 2828 
z
" transform="scale(0.015625)"/>
     </defs>
     <use xlink:href="#DejaVuSans-46"/>
     <use xlink:href="#DejaVuSans-69" x="50.269531"/>
     <use xlink:href="#DejaVuSans-6c" x="78.052734"/>
     <use xlink:href="#DejaVuSans-74" x="105.835938"/>
     <use xlink:href="#DejaVuSans-65" x="145.044922"/>
     <use xlink:href="#DejaVuSans-72" x="206.568359"/>
     <use xlink:href="#DejaVuSans-65" x="245.431641"/>
     <use xlink:href="#DejaVuSans-64" x="306.955078"/>
     <use xlink:href="#DejaVuSans-20" x="370.431641"/>
     <use xlink:href="#DejaVuSans-50" x="402.21875"/>
     <use xlink:href="#DejaVuSans-72" x="460.771484"/>
     <use xlink:href="#DejaVuSans-6f" x="499.634766"/>
     <use xlink:href="#DejaVuSans-74" x="560.816406"/>
     <use xlink:href="#DejaVuSans-65" x="600.025391"/>
     <use xlink:href="#DejaVuSans-6f" x="661.548828"/>
     <use xlink:href="#DejaVuSans-6d" x="722.730469"/>
     <use xlink:href="#DejaVuSans-65" x="820.142578"/>
    </g>
   </g>
   <g id="text_5">
    <!-- Full Proteome -->
    <g transform="translate(176.832532 267.471897) scale(0.12 -0.12)">
     <defs>
      <path id="DejaVuSans-75" d="M 544 1381 
L 544 3500 
L 1119 3500 
L 1119 1403 
Q 1119 906 1312 657 
Q 1506 409 1894 409 
Q 2359 409 2629 706 
Q 2900 1003 2900 1516 
L 2900 3500 
L 3475 3500 
L 3475 0 
L 2900 0 
L 2900 538 
Q 2691 219 2414 64 
Q 2138 -91 1772 -91 
Q 1169 -91 856 284 
Q 544 659 544 1381 
z
M 1991 3584 
L 1991 3584 
z
" transform="scale(0.015625)"/>
     </defs>
     <use xlink:href="#DejaVuSans-46"/>
     <use xlink:href="#DejaVuSans-75" x="52.019531"/>
     <use xlink:href="#DejaVuSans-6c" x="115.398438"/>
     <use xlink:href="#DejaVuSans-6c" x="143.181641"/>
     <use xlink:href="#DejaVuSans-20" x="170.964844"/>
     <use xlink:href="#DejaVuSans-50" x="202.751953"/>
     <use xlink:href="#DejaVuSans-72" x="261.304688"/>
     <use xlink:href="#DejaVuSans-6f" x="300.167969"/>
     <use xlink:href="#DejaVuSans-74" x="361.349609"/>
     <use xlink:href="#DejaVuSans-65" x="400.558594"/>
     <use xlink:href="#DejaVuSans-6f" x="462.082031"/>
     <use xlink:href="#DejaVuSans-6d" x="523.263672"/>
     <use xlink:href="#DejaVuSans-65" x="620.675781"/>
    </g>
   </g>
  </g>
 </g>
 <defs>
  <clipPath id="pc77d1e21e6">
   <rect x="7.2" y="7.2" width="298.156392" height="266.112"/>
  </clipPath>
 </defs>
</svg>
