<?xml version="1.0" encoding="utf-8" standalone="no"?>
<!DOCTYPE svg PUBLIC "-//W3C//DTD SVG 1.1//EN"
  "http://www.w3.org/Graphics/SVG/1.1/DTD/svg11.dtd">
<svg xmlns:xlink="http://www.w3.org/1999/xlink" width="460.8pt" height="345.6pt" viewBox="0 0 460.8 345.6" xmlns="http://www.w3.org/2000/svg" version="1.1">
 <metadata>
  <rdf:RDF xmlns:dc="http://purl.org/dc/elements/1.1/" xmlns:cc="http://creativecommons.org/ns#" xmlns:rdf="http://www.w3.org/1999/02/22-rdf-syntax-ns#">
   <cc:Work>
    <dc:type rdf:resource="http://purl.org/dc/dcmitype/StillImage"/>
    <dc:date>2024-06-29T19:24:09.085870</dc:date>
    <dc:format>image/svg+xml</dc:format>
    <dc:creator>
     <cc:Agent>
      <dc:title>Matplotlib v3.9.0, https://matplotlib.org/</dc:title>
     </cc:Agent>
    </dc:creator>
   </cc:Work>
  </rdf:RDF>
 </metadata>
 <defs>
  <style type="text/css">*{stroke-linejoin: round; stroke-linecap: butt}</style>
 </defs>
 <g id="figure_1">
  <g id="patch_1">
   <path d="M 0 345.6 
L 460.8 345.6 
L 460.8 0 
L 0 0 
z
" style="fill: #ffffff"/>
  </g>
  <g id="axes_1">
   <g id="patch_2">
    <path d="M 57.6 307.584 
L 414.72 307.584 
L 414.72 41.472 
L 57.6 41.472 
z
" style="fill: #ffffff"/>
   </g>
   <g id="PolyCollection_1">
    <path d="M 73.832727 116.922716 
L 73.832727 307.584 
L 75.661043 307.584 
L 76.103838 307.584 
L 76.718038 307.584 
L 77.532209 307.584 
L 78.760609 307.584 
L 79.389092 307.584 
L 80.117562 307.584 
L 80.80318 307.584 
L 81.245975 307.584 
L 83.231411 307.584 
L 84.68835 307.584 
L 84.731201 307.584 
L 84.788336 307.584 
L 85.588224 307.584 
L 87.91647 307.584 
L 88.973465 307.584 
L 89.087734 307.584 
L 89.102018 307.584 
L 89.530529 307.584 
L 89.573381 307.584 
L 90.216148 307.584 
L 90.530389 307.584 
L 90.616092 307.584 
L 91.873059 307.584 
L 93.872779 307.584 
L 94.287006 307.584 
L 94.80122 307.584 
L 94.944057 307.584 
L 96.52955 307.584 
L 96.872359 307.584 
L 98.772093 307.584 
L 99.057767 307.584 
L 100.100478 307.584 
L 101.52885 307.584 
L 101.600268 307.584 
L 102.128766 307.584 
L 103.428584 307.584 
L 103.91423 307.584 
L 103.985648 307.584 
L 105.885382 307.584 
L 106.742405 307.584 
L 108.670707 307.584 
L 111.041803 307.584 
L 112.241635 307.584 
L 112.341621 307.584 
L 113.941397 307.584 
L 114.369909 307.584 
L 115.269783 307.584 
L 115.755429 307.584 
L 115.826848 307.584 
L 117.212368 307.584 
L 118.255079 307.584 
L 119.969125 307.584 
L 121.154673 307.584 
L 122.868719 307.584 
L 128.496502 307.584 
L 129.424944 307.584 
L 129.624916 307.584 
L 130.053427 307.584 
L 130.539074 307.584 
L 130.981869 307.584 
L 131.79604 307.584 
L 132.495942 307.584 
L 133.981449 307.584 
L 134.209988 307.584 
L 136.423964 307.584 
L 137.13815 307.584 
L 138.295131 307.584 
L 139.6378 307.584 
L 141.209008 307.584 
L 143.765793 307.584 
L 147.550977 307.584 
L 152.393157 307.584 
L 154.435728 307.584 
L 154.921374 307.584 
L 155.149914 307.584 
L 157.592429 307.584 
L 162.591729 307.584 
L 162.648864 307.584 
L 162.691715 307.584 
L 163.263063 307.584 
L 171.819008 307.584 
L 174.618616 307.584 
L 175.63276 307.584 
L 181.174841 307.584 
L 181.589069 307.584 
L 189.645084 307.584 
L 190.644944 307.584 
L 192.544678 307.584 
L 195.330002 307.584 
L 195.615677 307.584 
L 197.229736 307.584 
L 200.543558 307.584 
L 207.014081 307.584 
L 207.571146 307.584 
L 223.211813 307.584 
L 230.053712 307.584 
L 230.339386 307.584 
L 232.996157 307.584 
L 242.037748 307.584 
L 253.393301 307.584 
L 256.921379 307.584 
L 257.949806 307.584 
L 260.592294 307.584 
L 280.603777 307.584 
L 309.614001 307.584 
L 380.304104 307.584 
L 398.487273 307.584 
L 398.487273 307.584 
L 398.487273 307.584 
L 380.304104 307.584 
L 309.614001 307.584 
L 280.603777 307.584 
L 260.592294 305.258862 
L 257.949806 305.258862 
L 256.921379 305.258862 
L 253.393301 305.258862 
L 242.037748 305.258862 
L 232.996157 302.933725 
L 230.339386 300.608587 
L 230.053712 298.28345 
L 223.211813 298.28345 
L 207.571146 295.958312 
L 207.014081 295.958312 
L 200.543558 295.958312 
L 197.229736 293.633174 
L 195.615677 291.308037 
L 195.330002 288.982899 
L 192.544678 286.657761 
L 190.644944 284.332624 
L 189.645084 282.007486 
L 181.589069 279.682349 
L 181.174841 277.357211 
L 175.63276 277.357211 
L 174.618616 275.032073 
L 171.819008 272.706936 
L 163.263063 270.381798 
L 162.691715 268.056661 
L 162.648864 265.731523 
L 162.591729 263.406385 
L 157.592429 261.081248 
L 155.149914 261.081248 
L 154.921374 258.75611 
L 154.435728 258.75611 
L 152.393157 258.75611 
L 147.550977 256.430972 
L 143.765793 254.105835 
L 141.209008 254.105835 
L 139.6378 251.780697 
L 138.295131 249.45556 
L 137.13815 247.130422 
L 136.423964 244.805284 
L 134.209988 242.480147 
L 133.981449 240.155009 
L 132.495942 237.829872 
L 131.79604 235.504734 
L 130.981869 233.179596 
L 130.539074 230.854459 
L 130.053427 230.854459 
L 129.624916 230.854459 
L 129.424944 230.854459 
L 128.496502 230.854459 
L 122.868719 228.529321 
L 121.154673 226.204183 
L 119.969125 223.879046 
L 118.255079 221.553908 
L 117.212368 221.553908 
L 115.826848 219.228771 
L 115.755429 216.903633 
L 115.269783 214.578495 
L 114.369909 212.253358 
L 113.941397 212.253358 
L 112.341621 209.92822 
L 112.241635 207.603083 
L 111.041803 205.277945 
L 108.670707 202.952807 
L 106.742405 200.62767 
L 105.885382 200.62767 
L 103.985648 198.302532 
L 103.91423 195.977394 
L 103.428584 193.652257 
L 102.128766 191.327119 
L 101.600268 191.327119 
L 101.52885 189.001982 
L 100.100478 186.676844 
L 99.057767 184.351706 
L 98.772093 182.026569 
L 96.872359 179.701431 
L 96.52955 177.376294 
L 94.944057 175.051156 
L 94.80122 172.726018 
L 94.287006 170.400881 
L 93.872779 170.400881 
L 91.873059 168.075743 
L 90.616092 165.750606 
L 90.530389 163.425468 
L 90.216148 161.10033 
L 89.573381 158.775193 
L 89.530529 156.450055 
L 89.102018 154.124917 
L 89.087734 151.79978 
L 88.973465 149.474642 
L 87.91647 147.149505 
L 85.588224 144.824367 
L 84.788336 142.499229 
L 84.731201 140.174092 
L 84.68835 137.848954 
L 83.231411 135.523817 
L 81.245975 133.198679 
L 80.80318 130.873541 
L 80.117562 130.873541 
L 79.389092 128.548404 
L 78.760609 126.223266 
L 77.532209 126.223266 
L 76.718038 123.898128 
L 76.103838 121.572991 
L 75.661043 119.247853 
L 73.832727 116.922716 
z
" clip-path="url(#pa2f059e94f)" style="fill: #008000"/>
   </g>
   <g id="PolyCollection_2">
    <path d="M 73.832727 63.44455 
L 73.832727 116.922716 
L 75.661043 119.247853 
L 76.103838 121.572991 
L 76.718038 123.898128 
L 77.532209 126.223266 
L 78.760609 126.223266 
L 79.389092 128.548404 
L 80.117562 130.873541 
L 80.80318 130.873541 
L 81.245975 133.198679 
L 83.231411 135.523817 
L 84.68835 137.848954 
L 84.731201 140.174092 
L 84.788336 142.499229 
L 85.588224 144.824367 
L 87.91647 147.149505 
L 88.973465 149.474642 
L 89.087734 151.79978 
L 89.102018 154.124917 
L 89.530529 156.450055 
L 89.573381 158.775193 
L 90.216148 161.10033 
L 90.530389 163.425468 
L 90.616092 165.750606 
L 91.873059 168.075743 
L 93.872779 170.400881 
L 94.287006 170.400881 
L 94.80122 172.726018 
L 94.944057 175.051156 
L 96.52955 177.376294 
L 96.872359 179.701431 
L 98.772093 182.026569 
L 99.057767 184.351706 
L 100.100478 186.676844 
L 101.52885 189.001982 
L 101.600268 191.327119 
L 102.128766 191.327119 
L 103.428584 193.652257 
L 103.91423 195.977394 
L 103.985648 198.302532 
L 105.885382 200.62767 
L 106.742405 200.62767 
L 108.670707 202.952807 
L 111.041803 205.277945 
L 112.241635 207.603083 
L 112.341621 209.92822 
L 113.941397 212.253358 
L 114.369909 212.253358 
L 115.269783 214.578495 
L 115.755429 216.903633 
L 115.826848 219.228771 
L 117.212368 221.553908 
L 118.255079 221.553908 
L 119.969125 223.879046 
L 121.154673 226.204183 
L 122.868719 228.529321 
L 128.496502 230.854459 
L 129.424944 230.854459 
L 129.624916 230.854459 
L 130.053427 230.854459 
L 130.539074 230.854459 
L 130.981869 233.179596 
L 131.79604 235.504734 
L 132.495942 237.829872 
L 133.981449 240.155009 
L 134.209988 242.480147 
L 136.423964 244.805284 
L 137.13815 247.130422 
L 138.295131 249.45556 
L 139.6378 251.780697 
L 141.209008 254.105835 
L 143.765793 254.105835 
L 147.550977 256.430972 
L 152.393157 258.75611 
L 154.435728 258.75611 
L 154.921374 258.75611 
L 155.149914 261.081248 
L 157.592429 261.081248 
L 162.591729 263.406385 
L 162.648864 265.731523 
L 162.691715 268.056661 
L 163.263063 270.381798 
L 171.819008 272.706936 
L 174.618616 275.032073 
L 175.63276 277.357211 
L 181.174841 277.357211 
L 181.589069 279.682349 
L 189.645084 282.007486 
L 190.644944 284.332624 
L 192.544678 286.657761 
L 195.330002 288.982899 
L 195.615677 291.308037 
L 197.229736 293.633174 
L 200.543558 295.958312 
L 207.014081 295.958312 
L 207.571146 295.958312 
L 223.211813 298.28345 
L 230.053712 298.28345 
L 230.339386 300.608587 
L 232.996157 302.933725 
L 242.037748 305.258862 
L 253.393301 305.258862 
L 256.921379 305.258862 
L 257.949806 305.258862 
L 260.592294 305.258862 
L 280.603777 307.584 
L 309.614001 307.584 
L 380.304104 307.584 
L 398.487273 307.584 
L 398.487273 305.258862 
L 398.487273 305.258862 
L 380.304104 302.933725 
L 309.614001 300.608587 
L 280.603777 298.28345 
L 260.592294 295.958312 
L 257.949806 293.633174 
L 256.921379 291.308037 
L 253.393301 288.982899 
L 242.037748 286.657761 
L 232.996157 284.332624 
L 230.339386 282.007486 
L 230.053712 279.682349 
L 223.211813 277.357211 
L 207.571146 275.032073 
L 207.014081 272.706936 
L 200.543558 270.381798 
L 197.229736 268.056661 
L 195.615677 265.731523 
L 195.330002 263.406385 
L 192.544678 261.081248 
L 190.644944 258.75611 
L 189.645084 256.430972 
L 181.589069 254.105835 
L 181.174841 251.780697 
L 175.63276 249.45556 
L 174.618616 247.130422 
L 171.819008 244.805284 
L 163.263063 242.480147 
L 162.691715 240.155009 
L 162.648864 237.829872 
L 162.591729 235.504734 
L 157.592429 233.179596 
L 155.149914 230.854459 
L 154.921374 228.529321 
L 154.435728 228.529321 
L 152.393157 226.204183 
L 147.550977 223.879046 
L 143.765793 221.553908 
L 141.209008 219.228771 
L 139.6378 216.903633 
L 138.295131 214.578495 
L 137.13815 212.253358 
L 136.423964 209.92822 
L 134.209988 207.603083 
L 133.981449 205.277945 
L 132.495942 202.952807 
L 131.79604 200.62767 
L 130.981869 198.302532 
L 130.539074 195.977394 
L 130.053427 193.652257 
L 129.624916 191.327119 
L 129.424944 189.001982 
L 128.496502 186.676844 
L 122.868719 184.351706 
L 121.154673 182.026569 
L 119.969125 179.701431 
L 118.255079 177.376294 
L 117.212368 175.051156 
L 115.826848 172.726018 
L 115.755429 170.400881 
L 115.269783 168.075743 
L 114.369909 165.750606 
L 113.941397 165.750606 
L 112.341621 163.425468 
L 112.241635 161.10033 
L 111.041803 158.775193 
L 108.670707 156.450055 
L 106.742405 154.124917 
L 105.885382 151.79978 
L 103.985648 149.474642 
L 103.91423 147.149505 
L 103.428584 144.824367 
L 102.128766 142.499229 
L 101.600268 140.174092 
L 101.52885 137.848954 
L 100.100478 135.523817 
L 99.057767 133.198679 
L 98.772093 130.873541 
L 96.872359 128.548404 
L 96.52955 126.223266 
L 94.944057 123.898128 
L 94.80122 121.572991 
L 94.287006 119.247853 
L 93.872779 116.922716 
L 91.873059 114.597578 
L 90.616092 112.27244 
L 90.530389 109.947303 
L 90.216148 107.622165 
L 89.573381 105.297028 
L 89.530529 102.97189 
L 89.102018 100.646752 
L 89.087734 98.321615 
L 88.973465 95.996477 
L 87.91647 93.671339 
L 85.588224 91.346202 
L 84.788336 89.021064 
L 84.731201 86.695927 
L 84.68835 84.370789 
L 83.231411 82.045651 
L 81.245975 79.720514 
L 80.80318 77.395376 
L 80.117562 77.395376 
L 79.389092 75.070239 
L 78.760609 72.745101 
L 77.532209 72.745101 
L 76.718038 70.419963 
L 76.103838 68.094826 
L 75.661043 65.769688 
L 73.832727 63.44455 
z
" clip-path="url(#pa2f059e94f)" style="fill: #7cfc00"/>
   </g>
   <g id="PolyCollection_3">
    <path d="M 73.832727 54.144 
L 73.832727 63.44455 
L 75.661043 65.769688 
L 76.103838 68.094826 
L 76.718038 70.419963 
L 77.532209 72.745101 
L 78.760609 72.745101 
L 79.389092 75.070239 
L 80.117562 77.395376 
L 80.80318 77.395376 
L 81.245975 79.720514 
L 83.231411 82.045651 
L 84.68835 84.370789 
L 84.731201 86.695927 
L 84.788336 89.021064 
L 85.588224 91.346202 
L 87.91647 93.671339 
L 88.973465 95.996477 
L 89.087734 98.321615 
L 89.102018 100.646752 
L 89.530529 102.97189 
L 89.573381 105.297028 
L 90.216148 107.622165 
L 90.530389 109.947303 
L 90.616092 112.27244 
L 91.873059 114.597578 
L 93.872779 116.922716 
L 94.287006 119.247853 
L 94.80122 121.572991 
L 94.944057 123.898128 
L 96.52955 126.223266 
L 96.872359 128.548404 
L 98.772093 130.873541 
L 99.057767 133.198679 
L 100.100478 135.523817 
L 101.52885 137.848954 
L 101.600268 140.174092 
L 102.128766 142.499229 
L 103.428584 144.824367 
L 103.91423 147.149505 
L 103.985648 149.474642 
L 105.885382 151.79978 
L 106.742405 154.124917 
L 108.670707 156.450055 
L 111.041803 158.775193 
L 112.241635 161.10033 
L 112.341621 163.425468 
L 113.941397 165.750606 
L 114.369909 165.750606 
L 115.269783 168.075743 
L 115.755429 170.400881 
L 115.826848 172.726018 
L 117.212368 175.051156 
L 118.255079 177.376294 
L 119.969125 179.701431 
L 121.154673 182.026569 
L 122.868719 184.351706 
L 128.496502 186.676844 
L 129.424944 189.001982 
L 129.624916 191.327119 
L 130.053427 193.652257 
L 130.539074 195.977394 
L 130.981869 198.302532 
L 131.79604 200.62767 
L 132.495942 202.952807 
L 133.981449 205.277945 
L 134.209988 207.603083 
L 136.423964 209.92822 
L 137.13815 212.253358 
L 138.295131 214.578495 
L 139.6378 216.903633 
L 141.209008 219.228771 
L 143.765793 221.553908 
L 147.550977 223.879046 
L 152.393157 226.204183 
L 154.435728 228.529321 
L 154.921374 228.529321 
L 155.149914 230.854459 
L 157.592429 233.179596 
L 162.591729 235.504734 
L 162.648864 237.829872 
L 162.691715 240.155009 
L 163.263063 242.480147 
L 171.819008 244.805284 
L 174.618616 247.130422 
L 175.63276 249.45556 
L 181.174841 251.780697 
L 181.589069 254.105835 
L 189.645084 256.430972 
L 190.644944 258.75611 
L 192.544678 261.081248 
L 195.330002 263.406385 
L 195.615677 265.731523 
L 197.229736 268.056661 
L 200.543558 270.381798 
L 207.014081 272.706936 
L 207.571146 275.032073 
L 223.211813 277.357211 
L 230.053712 279.682349 
L 230.339386 282.007486 
L 232.996157 284.332624 
L 242.037748 286.657761 
L 253.393301 288.982899 
L 256.921379 291.308037 
L 257.949806 293.633174 
L 260.592294 295.958312 
L 280.603777 298.28345 
L 309.614001 300.608587 
L 380.304104 302.933725 
L 398.487273 305.258862 
L 398.487273 305.258862 
L 398.487273 305.258862 
L 380.304104 302.933725 
L 309.614001 300.608587 
L 280.603777 298.28345 
L 260.592294 295.958312 
L 257.949806 293.633174 
L 256.921379 291.308037 
L 253.393301 288.982899 
L 242.037748 286.657761 
L 232.996157 284.332624 
L 230.339386 282.007486 
L 230.053712 279.682349 
L 223.211813 277.357211 
L 207.571146 275.032073 
L 207.014081 272.706936 
L 200.543558 270.381798 
L 197.229736 268.056661 
L 195.615677 265.731523 
L 195.330002 263.406385 
L 192.544678 261.081248 
L 190.644944 258.75611 
L 189.645084 256.430972 
L 181.589069 254.105835 
L 181.174841 251.780697 
L 175.63276 249.45556 
L 174.618616 247.130422 
L 171.819008 244.805284 
L 163.263063 242.480147 
L 162.691715 240.155009 
L 162.648864 237.829872 
L 162.591729 235.504734 
L 157.592429 233.179596 
L 155.149914 230.854459 
L 154.921374 228.529321 
L 154.435728 226.204183 
L 152.393157 223.879046 
L 147.550977 221.553908 
L 143.765793 219.228771 
L 141.209008 216.903633 
L 139.6378 214.578495 
L 138.295131 212.253358 
L 137.13815 209.92822 
L 136.423964 207.603083 
L 134.209988 205.277945 
L 133.981449 202.952807 
L 132.495942 200.62767 
L 131.79604 198.302532 
L 130.981869 195.977394 
L 130.539074 193.652257 
L 130.053427 191.327119 
L 129.624916 189.001982 
L 129.424944 186.676844 
L 128.496502 184.351706 
L 122.868719 182.026569 
L 121.154673 179.701431 
L 119.969125 177.376294 
L 118.255079 175.051156 
L 117.212368 172.726018 
L 115.826848 170.400881 
L 115.755429 168.075743 
L 115.269783 165.750606 
L 114.369909 163.425468 
L 113.941397 161.10033 
L 112.341621 158.775193 
L 112.241635 156.450055 
L 111.041803 154.124917 
L 108.670707 151.79978 
L 106.742405 149.474642 
L 105.885382 147.149505 
L 103.985648 144.824367 
L 103.91423 142.499229 
L 103.428584 140.174092 
L 102.128766 137.848954 
L 101.600268 135.523817 
L 101.52885 133.198679 
L 100.100478 130.873541 
L 99.057767 128.548404 
L 98.772093 126.223266 
L 96.872359 123.898128 
L 96.52955 121.572991 
L 94.944057 119.247853 
L 94.80122 116.922716 
L 94.287006 114.597578 
L 93.872779 112.27244 
L 91.873059 109.947303 
L 90.616092 107.622165 
L 90.530389 105.297028 
L 90.216148 102.97189 
L 89.573381 100.646752 
L 89.530529 98.321615 
L 89.102018 95.996477 
L 89.087734 93.671339 
L 88.973465 91.346202 
L 87.91647 89.021064 
L 85.588224 86.695927 
L 84.788336 84.370789 
L 84.731201 82.045651 
L 84.68835 79.720514 
L 83.231411 77.395376 
L 81.245975 75.070239 
L 80.80318 72.745101 
L 80.117562 70.419963 
L 79.389092 68.094826 
L 78.760609 65.769688 
L 77.532209 63.44455 
L 76.718038 61.119413 
L 76.103838 58.794275 
L 75.661043 56.469138 
L 73.832727 54.144 
z
" clip-path="url(#pa2f059e94f)" style="fill: #ff0000"/>
   </g>
   <g id="matplotlib.axis_1">
    <g id="xtick_1">
     <g id="line2d_1">
      <defs>
       <path id="md22b30c412" d="M 0 0 
L 0 3.5 
" style="stroke: #000000; stroke-width: 0.8"/>
      </defs>
      <g>
       <use xlink:href="#md22b30c412" x="79.346241" y="307.584" style="stroke: #000000; stroke-width: 0.8"/>
      </g>
     </g>
     <g id="text_1">
      <!-- 100 -->
      <g transform="translate(69.802491 322.182437) scale(0.1 -0.1)">
       <defs>
        <path id="DejaVuSans-31" d="M 794 531 
L 1825 531 
L 1825 4091 
L 703 3866 
L 703 4441 
L 1819 4666 
L 2450 4666 
L 2450 531 
L 3481 531 
L 3481 0 
L 794 0 
L 794 531 
z
" transform="scale(0.015625)"/>
        <path id="DejaVuSans-30" d="M 2034 4250 
Q 1547 4250 1301 3770 
Q 1056 3291 1056 2328 
Q 1056 1369 1301 889 
Q 1547 409 2034 409 
Q 2525 409 2770 889 
Q 3016 1369 3016 2328 
Q 3016 3291 2770 3770 
Q 2525 4250 2034 4250 
z
M 2034 4750 
Q 2819 4750 3233 4129 
Q 3647 3509 3647 2328 
Q 3647 1150 3233 529 
Q 2819 -91 2034 -91 
Q 1250 -91 836 529 
Q 422 1150 422 2328 
Q 422 3509 836 4129 
Q 1250 4750 2034 4750 
z
" transform="scale(0.015625)"/>
       </defs>
       <use xlink:href="#DejaVuSans-31"/>
       <use xlink:href="#DejaVuSans-30" x="63.623047"/>
       <use xlink:href="#DejaVuSans-30" x="127.246094"/>
      </g>
     </g>
    </g>
    <g id="xtick_2">
     <g id="line2d_2">
      <g>
       <use xlink:href="#md22b30c412" x="150.764813" y="307.584" style="stroke: #000000; stroke-width: 0.8"/>
      </g>
     </g>
     <g id="text_2">
      <!-- 150 -->
      <g transform="translate(141.221063 322.182437) scale(0.1 -0.1)">
       <defs>
        <path id="DejaVuSans-35" d="M 691 4666 
L 3169 4666 
L 3169 4134 
L 1269 4134 
L 1269 2991 
Q 1406 3038 1543 3061 
Q 1681 3084 1819 3084 
Q 2600 3084 3056 2656 
Q 3513 2228 3513 1497 
Q 3513 744 3044 326 
Q 2575 -91 1722 -91 
Q 1428 -91 1123 -41 
Q 819 9 494 109 
L 494 744 
Q 775 591 1075 516 
Q 1375 441 1709 441 
Q 2250 441 2565 725 
Q 2881 1009 2881 1497 
Q 2881 1984 2565 2268 
Q 2250 2553 1709 2553 
Q 1456 2553 1204 2497 
Q 953 2441 691 2322 
L 691 4666 
z
" transform="scale(0.015625)"/>
       </defs>
       <use xlink:href="#DejaVuSans-31"/>
       <use xlink:href="#DejaVuSans-35" x="63.623047"/>
       <use xlink:href="#DejaVuSans-30" x="127.246094"/>
      </g>
     </g>
    </g>
    <g id="xtick_3">
     <g id="line2d_3">
      <g>
       <use xlink:href="#md22b30c412" x="222.183385" y="307.584" style="stroke: #000000; stroke-width: 0.8"/>
      </g>
     </g>
     <g id="text_3">
      <!-- 200 -->
      <g transform="translate(212.639635 322.182437) scale(0.1 -0.1)">
       <defs>
        <path id="DejaVuSans-32" d="M 1228 531 
L 3431 531 
L 3431 0 
L 469 0 
L 469 531 
Q 828 903 1448 1529 
Q 2069 2156 2228 2338 
Q 2531 2678 2651 2914 
Q 2772 3150 2772 3378 
Q 2772 3750 2511 3984 
Q 2250 4219 1831 4219 
Q 1534 4219 1204 4116 
Q 875 4013 500 3803 
L 500 4441 
Q 881 4594 1212 4672 
Q 1544 4750 1819 4750 
Q 2544 4750 2975 4387 
Q 3406 4025 3406 3419 
Q 3406 3131 3298 2873 
Q 3191 2616 2906 2266 
Q 2828 2175 2409 1742 
Q 1991 1309 1228 531 
z
" transform="scale(0.015625)"/>
       </defs>
       <use xlink:href="#DejaVuSans-32"/>
       <use xlink:href="#DejaVuSans-30" x="63.623047"/>
       <use xlink:href="#DejaVuSans-30" x="127.246094"/>
      </g>
     </g>
    </g>
    <g id="xtick_4">
     <g id="line2d_4">
      <g>
       <use xlink:href="#md22b30c412" x="293.601958" y="307.584" style="stroke: #000000; stroke-width: 0.8"/>
      </g>
     </g>
     <g id="text_4">
      <!-- 250 -->
      <g transform="translate(284.058208 322.182437) scale(0.1 -0.1)">
       <use xlink:href="#DejaVuSans-32"/>
       <use xlink:href="#DejaVuSans-35" x="63.623047"/>
       <use xlink:href="#DejaVuSans-30" x="127.246094"/>
      </g>
     </g>
    </g>
    <g id="xtick_5">
     <g id="line2d_5">
      <g>
       <use xlink:href="#md22b30c412" x="365.02053" y="307.584" style="stroke: #000000; stroke-width: 0.8"/>
      </g>
     </g>
     <g id="text_5">
      <!-- 300 -->
      <g transform="translate(355.47678 322.182437) scale(0.1 -0.1)">
       <defs>
        <path id="DejaVuSans-33" d="M 2597 2516 
Q 3050 2419 3304 2112 
Q 3559 1806 3559 1356 
Q 3559 666 3084 287 
Q 2609 -91 1734 -91 
Q 1441 -91 1130 -33 
Q 819 25 488 141 
L 488 750 
Q 750 597 1062 519 
Q 1375 441 1716 441 
Q 2309 441 2620 675 
Q 2931 909 2931 1356 
Q 2931 1769 2642 2001 
Q 2353 2234 1838 2234 
L 1294 2234 
L 1294 2753 
L 1863 2753 
Q 2328 2753 2575 2939 
Q 2822 3125 2822 3475 
Q 2822 3834 2567 4026 
Q 2313 4219 1838 4219 
Q 1578 4219 1281 4162 
Q 984 4106 628 3988 
L 628 4550 
Q 988 4650 1302 4700 
Q 1616 4750 1894 4750 
Q 2613 4750 3031 4423 
Q 3450 4097 3450 3541 
Q 3450 3153 3228 2886 
Q 3006 2619 2597 2516 
z
" transform="scale(0.015625)"/>
       </defs>
       <use xlink:href="#DejaVuSans-33"/>
       <use xlink:href="#DejaVuSans-30" x="63.623047"/>
       <use xlink:href="#DejaVuSans-30" x="127.246094"/>
      </g>
     </g>
    </g>
    <g id="text_6">
     <!-- Score -->
     <g transform="translate(222.157656 335.860562) scale(0.1 -0.1)">
      <defs>
       <path id="DejaVuSans-53" d="M 3425 4513 
L 3425 3897 
Q 3066 4069 2747 4153 
Q 2428 4238 2131 4238 
Q 1616 4238 1336 4038 
Q 1056 3838 1056 3469 
Q 1056 3159 1242 3001 
Q 1428 2844 1947 2747 
L 2328 2669 
Q 3034 2534 3370 2195 
Q 3706 1856 3706 1288 
Q 3706 609 3251 259 
Q 2797 -91 1919 -91 
Q 1588 -91 1214 -16 
Q 841 59 441 206 
L 441 856 
Q 825 641 1194 531 
Q 1563 422 1919 422 
Q 2459 422 2753 634 
Q 3047 847 3047 1241 
Q 3047 1584 2836 1778 
Q 2625 1972 2144 2069 
L 1759 2144 
Q 1053 2284 737 2584 
Q 422 2884 422 3419 
Q 422 4038 858 4394 
Q 1294 4750 2059 4750 
Q 2388 4750 2728 4690 
Q 3069 4631 3425 4513 
z
" transform="scale(0.015625)"/>
       <path id="DejaVuSans-63" d="M 3122 3366 
L 3122 2828 
Q 2878 2963 2633 3030 
Q 2388 3097 2138 3097 
Q 1578 3097 1268 2742 
Q 959 2388 959 1747 
Q 959 1106 1268 751 
Q 1578 397 2138 397 
Q 2388 397 2633 464 
Q 2878 531 3122 666 
L 3122 134 
Q 2881 22 2623 -34 
Q 2366 -91 2075 -91 
Q 1284 -91 818 406 
Q 353 903 353 1747 
Q 353 2603 823 3093 
Q 1294 3584 2113 3584 
Q 2378 3584 2631 3529 
Q 2884 3475 3122 3366 
z
" transform="scale(0.015625)"/>
       <path id="DejaVuSans-6f" d="M 1959 3097 
Q 1497 3097 1228 2736 
Q 959 2375 959 1747 
Q 959 1119 1226 758 
Q 1494 397 1959 397 
Q 2419 397 2687 759 
Q 2956 1122 2956 1747 
Q 2956 2369 2687 2733 
Q 2419 3097 1959 3097 
z
M 1959 3584 
Q 2709 3584 3137 3096 
Q 3566 2609 3566 1747 
Q 3566 888 3137 398 
Q 2709 -91 1959 -91 
Q 1206 -91 779 398 
Q 353 888 353 1747 
Q 353 2609 779 3096 
Q 1206 3584 1959 3584 
z
" transform="scale(0.015625)"/>
       <path id="DejaVuSans-72" d="M 2631 2963 
Q 2534 3019 2420 3045 
Q 2306 3072 2169 3072 
Q 1681 3072 1420 2755 
Q 1159 2438 1159 1844 
L 1159 0 
L 581 0 
L 581 3500 
L 1159 3500 
L 1159 2956 
Q 1341 3275 1631 3429 
Q 1922 3584 2338 3584 
Q 2397 3584 2469 3576 
Q 2541 3569 2628 3553 
L 2631 2963 
z
" transform="scale(0.015625)"/>
       <path id="DejaVuSans-65" d="M 3597 1894 
L 3597 1613 
L 953 1613 
Q 991 1019 1311 708 
Q 1631 397 2203 397 
Q 2534 397 2845 478 
Q 3156 559 3463 722 
L 3463 178 
Q 3153 47 2828 -22 
Q 2503 -91 2169 -91 
Q 1331 -91 842 396 
Q 353 884 353 1716 
Q 353 2575 817 3079 
Q 1281 3584 2069 3584 
Q 2775 3584 3186 3129 
Q 3597 2675 3597 1894 
z
M 3022 2063 
Q 3016 2534 2758 2815 
Q 2500 3097 2075 3097 
Q 1594 3097 1305 2825 
Q 1016 2553 972 2059 
L 3022 2063 
z
" transform="scale(0.015625)"/>
      </defs>
      <use xlink:href="#DejaVuSans-53"/>
      <use xlink:href="#DejaVuSans-63" x="63.476562"/>
      <use xlink:href="#DejaVuSans-6f" x="118.457031"/>
      <use xlink:href="#DejaVuSans-72" x="179.638672"/>
      <use xlink:href="#DejaVuSans-65" x="218.501953"/>
     </g>
    </g>
   </g>
   <g id="matplotlib.axis_2">
    <g id="ytick_1">
     <g id="line2d_6">
      <defs>
       <path id="me44cdf7338" d="M 0 0 
L -3.5 0 
" style="stroke: #000000; stroke-width: 0.8"/>
      </defs>
      <g>
       <use xlink:href="#me44cdf7338" x="57.6" y="307.584" style="stroke: #000000; stroke-width: 0.8"/>
      </g>
     </g>
     <g id="text_7">
      <!-- 0 -->
      <g transform="translate(44.2375 311.383219) scale(0.1 -0.1)">
       <use xlink:href="#DejaVuSans-30"/>
      </g>
     </g>
    </g>
    <g id="ytick_2">
     <g id="line2d_7">
      <g>
       <use xlink:href="#me44cdf7338" x="57.6" y="261.081248" style="stroke: #000000; stroke-width: 0.8"/>
      </g>
     </g>
     <g id="text_8">
      <!-- 20 -->
      <g transform="translate(37.875 264.880466) scale(0.1 -0.1)">
       <use xlink:href="#DejaVuSans-32"/>
       <use xlink:href="#DejaVuSans-30" x="63.623047"/>
      </g>
     </g>
    </g>
    <g id="ytick_3">
     <g id="line2d_8">
      <g>
       <use xlink:href="#me44cdf7338" x="57.6" y="214.578495" style="stroke: #000000; stroke-width: 0.8"/>
      </g>
     </g>
     <g id="text_9">
      <!-- 40 -->
      <g transform="translate(37.875 218.377714) scale(0.1 -0.1)">
       <defs>
        <path id="DejaVuSans-34" d="M 2419 4116 
L 825 1625 
L 2419 1625 
L 2419 4116 
z
M 2253 4666 
L 3047 4666 
L 3047 1625 
L 3713 1625 
L 3713 1100 
L 3047 1100 
L 3047 0 
L 2419 0 
L 2419 1100 
L 313 1100 
L 313 1709 
L 2253 4666 
z
" transform="scale(0.015625)"/>
       </defs>
       <use xlink:href="#DejaVuSans-34"/>
       <use xlink:href="#DejaVuSans-30" x="63.623047"/>
      </g>
     </g>
    </g>
    <g id="ytick_4">
     <g id="line2d_9">
      <g>
       <use xlink:href="#me44cdf7338" x="57.6" y="168.075743" style="stroke: #000000; stroke-width: 0.8"/>
      </g>
     </g>
     <g id="text_10">
      <!-- 60 -->
      <g transform="translate(37.875 171.874962) scale(0.1 -0.1)">
       <defs>
        <path id="DejaVuSans-36" d="M 2113 2584 
Q 1688 2584 1439 2293 
Q 1191 2003 1191 1497 
Q 1191 994 1439 701 
Q 1688 409 2113 409 
Q 2538 409 2786 701 
Q 3034 994 3034 1497 
Q 3034 2003 2786 2293 
Q 2538 2584 2113 2584 
z
M 3366 4563 
L 3366 3988 
Q 3128 4100 2886 4159 
Q 2644 4219 2406 4219 
Q 1781 4219 1451 3797 
Q 1122 3375 1075 2522 
Q 1259 2794 1537 2939 
Q 1816 3084 2150 3084 
Q 2853 3084 3261 2657 
Q 3669 2231 3669 1497 
Q 3669 778 3244 343 
Q 2819 -91 2113 -91 
Q 1303 -91 875 529 
Q 447 1150 447 2328 
Q 447 3434 972 4092 
Q 1497 4750 2381 4750 
Q 2619 4750 2861 4703 
Q 3103 4656 3366 4563 
z
" transform="scale(0.015625)"/>
       </defs>
       <use xlink:href="#DejaVuSans-36"/>
       <use xlink:href="#DejaVuSans-30" x="63.623047"/>
      </g>
     </g>
    </g>
    <g id="ytick_5">
     <g id="line2d_10">
      <g>
       <use xlink:href="#me44cdf7338" x="57.6" y="121.572991" style="stroke: #000000; stroke-width: 0.8"/>
      </g>
     </g>
     <g id="text_11">
      <!-- 80 -->
      <g transform="translate(37.875 125.37221) scale(0.1 -0.1)">
       <defs>
        <path id="DejaVuSans-38" d="M 2034 2216 
Q 1584 2216 1326 1975 
Q 1069 1734 1069 1313 
Q 1069 891 1326 650 
Q 1584 409 2034 409 
Q 2484 409 2743 651 
Q 3003 894 3003 1313 
Q 3003 1734 2745 1975 
Q 2488 2216 2034 2216 
z
M 1403 2484 
Q 997 2584 770 2862 
Q 544 3141 544 3541 
Q 544 4100 942 4425 
Q 1341 4750 2034 4750 
Q 2731 4750 3128 4425 
Q 3525 4100 3525 3541 
Q 3525 3141 3298 2862 
Q 3072 2584 2669 2484 
Q 3125 2378 3379 2068 
Q 3634 1759 3634 1313 
Q 3634 634 3220 271 
Q 2806 -91 2034 -91 
Q 1263 -91 848 271 
Q 434 634 434 1313 
Q 434 1759 690 2068 
Q 947 2378 1403 2484 
z
M 1172 3481 
Q 1172 3119 1398 2916 
Q 1625 2713 2034 2713 
Q 2441 2713 2670 2916 
Q 2900 3119 2900 3481 
Q 2900 3844 2670 4047 
Q 2441 4250 2034 4250 
Q 1625 4250 1398 4047 
Q 1172 3844 1172 3481 
z
" transform="scale(0.015625)"/>
       </defs>
       <use xlink:href="#DejaVuSans-38"/>
       <use xlink:href="#DejaVuSans-30" x="63.623047"/>
      </g>
     </g>
    </g>
    <g id="ytick_6">
     <g id="line2d_11">
      <g>
       <use xlink:href="#me44cdf7338" x="57.6" y="75.070239" style="stroke: #000000; stroke-width: 0.8"/>
      </g>
     </g>
     <g id="text_12">
      <!-- 100 -->
      <g transform="translate(31.5125 78.869457) scale(0.1 -0.1)">
       <use xlink:href="#DejaVuSans-31"/>
       <use xlink:href="#DejaVuSans-30" x="63.623047"/>
       <use xlink:href="#DejaVuSans-30" x="127.246094"/>
      </g>
     </g>
    </g>
    <g id="text_13">
     <!-- Number of crosslinks -->
     <g transform="translate(25.432812 227.019406) rotate(-90) scale(0.1 -0.1)">
      <defs>
       <path id="DejaVuSans-4e" d="M 628 4666 
L 1478 4666 
L 3547 763 
L 3547 4666 
L 4159 4666 
L 4159 0 
L 3309 0 
L 1241 3903 
L 1241 0 
L 628 0 
L 628 4666 
z
" transform="scale(0.015625)"/>
       <path id="DejaVuSans-75" d="M 544 1381 
L 544 3500 
L 1119 3500 
L 1119 1403 
Q 1119 906 1312 657 
Q 1506 409 1894 409 
Q 2359 409 2629 706 
Q 2900 1003 2900 1516 
L 2900 3500 
L 3475 3500 
L 3475 0 
L 2900 0 
L 2900 538 
Q 2691 219 2414 64 
Q 2138 -91 1772 -91 
Q 1169 -91 856 284 
Q 544 659 544 1381 
z
M 1991 3584 
L 1991 3584 
z
" transform="scale(0.015625)"/>
       <path id="DejaVuSans-6d" d="M 3328 2828 
Q 3544 3216 3844 3400 
Q 4144 3584 4550 3584 
Q 5097 3584 5394 3201 
Q 5691 2819 5691 2113 
L 5691 0 
L 5113 0 
L 5113 2094 
Q 5113 2597 4934 2840 
Q 4756 3084 4391 3084 
Q 3944 3084 3684 2787 
Q 3425 2491 3425 1978 
L 3425 0 
L 2847 0 
L 2847 2094 
Q 2847 2600 2669 2842 
Q 2491 3084 2119 3084 
Q 1678 3084 1418 2786 
Q 1159 2488 1159 1978 
L 1159 0 
L 581 0 
L 581 3500 
L 1159 3500 
L 1159 2956 
Q 1356 3278 1631 3431 
Q 1906 3584 2284 3584 
Q 2666 3584 2933 3390 
Q 3200 3197 3328 2828 
z
" transform="scale(0.015625)"/>
       <path id="DejaVuSans-62" d="M 3116 1747 
Q 3116 2381 2855 2742 
Q 2594 3103 2138 3103 
Q 1681 3103 1420 2742 
Q 1159 2381 1159 1747 
Q 1159 1113 1420 752 
Q 1681 391 2138 391 
Q 2594 391 2855 752 
Q 3116 1113 3116 1747 
z
M 1159 2969 
Q 1341 3281 1617 3432 
Q 1894 3584 2278 3584 
Q 2916 3584 3314 3078 
Q 3713 2572 3713 1747 
Q 3713 922 3314 415 
Q 2916 -91 2278 -91 
Q 1894 -91 1617 61 
Q 1341 213 1159 525 
L 1159 0 
L 581 0 
L 581 4863 
L 1159 4863 
L 1159 2969 
z
" transform="scale(0.015625)"/>
       <path id="DejaVuSans-20" transform="scale(0.015625)"/>
       <path id="DejaVuSans-66" d="M 2375 4863 
L 2375 4384 
L 1825 4384 
Q 1516 4384 1395 4259 
Q 1275 4134 1275 3809 
L 1275 3500 
L 2222 3500 
L 2222 3053 
L 1275 3053 
L 1275 0 
L 697 0 
L 697 3053 
L 147 3053 
L 147 3500 
L 697 3500 
L 697 3744 
Q 697 4328 969 4595 
Q 1241 4863 1831 4863 
L 2375 4863 
z
" transform="scale(0.015625)"/>
       <path id="DejaVuSans-73" d="M 2834 3397 
L 2834 2853 
Q 2591 2978 2328 3040 
Q 2066 3103 1784 3103 
Q 1356 3103 1142 2972 
Q 928 2841 928 2578 
Q 928 2378 1081 2264 
Q 1234 2150 1697 2047 
L 1894 2003 
Q 2506 1872 2764 1633 
Q 3022 1394 3022 966 
Q 3022 478 2636 193 
Q 2250 -91 1575 -91 
Q 1294 -91 989 -36 
Q 684 19 347 128 
L 347 722 
Q 666 556 975 473 
Q 1284 391 1588 391 
Q 1994 391 2212 530 
Q 2431 669 2431 922 
Q 2431 1156 2273 1281 
Q 2116 1406 1581 1522 
L 1381 1569 
Q 847 1681 609 1914 
Q 372 2147 372 2553 
Q 372 3047 722 3315 
Q 1072 3584 1716 3584 
Q 2034 3584 2315 3537 
Q 2597 3491 2834 3397 
z
" transform="scale(0.015625)"/>
       <path id="DejaVuSans-6c" d="M 603 4863 
L 1178 4863 
L 1178 0 
L 603 0 
L 603 4863 
z
" transform="scale(0.015625)"/>
       <path id="DejaVuSans-69" d="M 603 3500 
L 1178 3500 
L 1178 0 
L 603 0 
L 603 3500 
z
M 603 4863 
L 1178 4863 
L 1178 4134 
L 603 4134 
L 603 4863 
z
" transform="scale(0.015625)"/>
       <path id="DejaVuSans-6e" d="M 3513 2113 
L 3513 0 
L 2938 0 
L 2938 2094 
Q 2938 2591 2744 2837 
Q 2550 3084 2163 3084 
Q 1697 3084 1428 2787 
Q 1159 2491 1159 1978 
L 1159 0 
L 581 0 
L 581 3500 
L 1159 3500 
L 1159 2956 
Q 1366 3272 1645 3428 
Q 1925 3584 2291 3584 
Q 2894 3584 3203 3211 
Q 3513 2838 3513 2113 
z
" transform="scale(0.015625)"/>
       <path id="DejaVuSans-6b" d="M 581 4863 
L 1159 4863 
L 1159 1991 
L 2875 3500 
L 3609 3500 
L 1753 1863 
L 3688 0 
L 2938 0 
L 1159 1709 
L 1159 0 
L 581 0 
L 581 4863 
z
" transform="scale(0.015625)"/>
      </defs>
      <use xlink:href="#DejaVuSans-4e"/>
      <use xlink:href="#DejaVuSans-75" x="74.804688"/>
      <use xlink:href="#DejaVuSans-6d" x="138.183594"/>
      <use xlink:href="#DejaVuSans-62" x="235.595703"/>
      <use xlink:href="#DejaVuSans-65" x="299.072266"/>
      <use xlink:href="#DejaVuSans-72" x="360.595703"/>
      <use xlink:href="#DejaVuSans-20" x="401.708984"/>
      <use xlink:href="#DejaVuSans-6f" x="433.496094"/>
      <use xlink:href="#DejaVuSans-66" x="494.677734"/>
      <use xlink:href="#DejaVuSans-20" x="529.882812"/>
      <use xlink:href="#DejaVuSans-63" x="561.669922"/>
      <use xlink:href="#DejaVuSans-72" x="616.650391"/>
      <use xlink:href="#DejaVuSans-6f" x="655.513672"/>
      <use xlink:href="#DejaVuSans-73" x="716.695312"/>
      <use xlink:href="#DejaVuSans-73" x="768.794922"/>
      <use xlink:href="#DejaVuSans-6c" x="820.894531"/>
      <use xlink:href="#DejaVuSans-69" x="848.677734"/>
      <use xlink:href="#DejaVuSans-6e" x="876.460938"/>
      <use xlink:href="#DejaVuSans-6b" x="939.839844"/>
      <use xlink:href="#DejaVuSans-73" x="997.75"/>
     </g>
    </g>
   </g>
   <g id="patch_3">
    <path d="M 57.6 307.584 
L 57.6 41.472 
" style="fill: none; stroke: #000000; stroke-width: 0.8; stroke-linejoin: miter; stroke-linecap: square"/>
   </g>
   <g id="patch_4">
    <path d="M 414.72 307.584 
L 414.72 41.472 
" style="fill: none; stroke: #000000; stroke-width: 0.8; stroke-linejoin: miter; stroke-linecap: square"/>
   </g>
   <g id="patch_5">
    <path d="M 57.6 307.584 
L 414.72 307.584 
" style="fill: none; stroke: #000000; stroke-width: 0.8; stroke-linejoin: miter; stroke-linecap: square"/>
   </g>
   <g id="patch_6">
    <path d="M 57.6 41.472 
L 414.72 41.472 
" style="fill: none; stroke: #000000; stroke-width: 0.8; stroke-linejoin: miter; stroke-linecap: square"/>
   </g>
   <g id="legend_1">
    <g id="patch_7">
     <path d="M 293.087188 93.506375 
L 407.72 93.506375 
Q 409.72 93.506375 409.72 91.506375 
L 409.72 48.472 
Q 409.72 46.472 407.72 46.472 
L 293.087188 46.472 
Q 291.087188 46.472 291.087188 48.472 
L 291.087188 91.506375 
Q 291.087188 93.506375 293.087188 93.506375 
z
" style="fill: #ffffff; opacity: 0.8; stroke: #cccccc; stroke-linejoin: miter"/>
    </g>
    <g id="patch_8">
     <path d="M 295.087188 58.070438 
L 315.087188 58.070438 
L 315.087188 51.070438 
L 295.087188 51.070438 
z
" style="fill: #008000"/>
    </g>
    <g id="text_14">
     <!-- true -->
     <g transform="translate(323.087188 58.070438) scale(0.1 -0.1)">
      <defs>
       <path id="DejaVuSans-74" d="M 1172 4494 
L 1172 3500 
L 2356 3500 
L 2356 3053 
L 1172 3053 
L 1172 1153 
Q 1172 725 1289 603 
Q 1406 481 1766 481 
L 2356 481 
L 2356 0 
L 1766 0 
Q 1100 0 847 248 
Q 594 497 594 1153 
L 594 3053 
L 172 3053 
L 172 3500 
L 594 3500 
L 594 4494 
L 1172 4494 
z
" transform="scale(0.015625)"/>
      </defs>
      <use xlink:href="#DejaVuSans-74"/>
      <use xlink:href="#DejaVuSans-72" x="39.208984"/>
      <use xlink:href="#DejaVuSans-75" x="80.322266"/>
      <use xlink:href="#DejaVuSans-65" x="143.701172"/>
     </g>
    </g>
    <g id="patch_9">
     <path d="M 295.087188 72.748563 
L 315.087188 72.748563 
L 315.087188 65.748563 
L 295.087188 65.748563 
z
" style="fill: #7cfc00"/>
    </g>
    <g id="text_15">
     <!-- true homeotypic -->
     <g transform="translate(323.087188 72.748563) scale(0.1 -0.1)">
      <defs>
       <path id="DejaVuSans-68" d="M 3513 2113 
L 3513 0 
L 2938 0 
L 2938 2094 
Q 2938 2591 2744 2837 
Q 2550 3084 2163 3084 
Q 1697 3084 1428 2787 
Q 1159 2491 1159 1978 
L 1159 0 
L 581 0 
L 581 4863 
L 1159 4863 
L 1159 2956 
Q 1366 3272 1645 3428 
Q 1925 3584 2291 3584 
Q 2894 3584 3203 3211 
Q 3513 2838 3513 2113 
z
" transform="scale(0.015625)"/>
       <path id="DejaVuSans-79" d="M 2059 -325 
Q 1816 -950 1584 -1140 
Q 1353 -1331 966 -1331 
L 506 -1331 
L 506 -850 
L 844 -850 
Q 1081 -850 1212 -737 
Q 1344 -625 1503 -206 
L 1606 56 
L 191 3500 
L 800 3500 
L 1894 763 
L 2988 3500 
L 3597 3500 
L 2059 -325 
z
" transform="scale(0.015625)"/>
       <path id="DejaVuSans-70" d="M 1159 525 
L 1159 -1331 
L 581 -1331 
L 581 3500 
L 1159 3500 
L 1159 2969 
Q 1341 3281 1617 3432 
Q 1894 3584 2278 3584 
Q 2916 3584 3314 3078 
Q 3713 2572 3713 1747 
Q 3713 922 3314 415 
Q 2916 -91 2278 -91 
Q 1894 -91 1617 61 
Q 1341 213 1159 525 
z
M 3116 1747 
Q 3116 2381 2855 2742 
Q 2594 3103 2138 3103 
Q 1681 3103 1420 2742 
Q 1159 2381 1159 1747 
Q 1159 1113 1420 752 
Q 1681 391 2138 391 
Q 2594 391 2855 752 
Q 3116 1113 3116 1747 
z
" transform="scale(0.015625)"/>
      </defs>
      <use xlink:href="#DejaVuSans-74"/>
      <use xlink:href="#DejaVuSans-72" x="39.208984"/>
      <use xlink:href="#DejaVuSans-75" x="80.322266"/>
      <use xlink:href="#DejaVuSans-65" x="143.701172"/>
      <use xlink:href="#DejaVuSans-20" x="205.224609"/>
      <use xlink:href="#DejaVuSans-68" x="237.011719"/>
      <use xlink:href="#DejaVuSans-6f" x="300.390625"/>
      <use xlink:href="#DejaVuSans-6d" x="361.572266"/>
      <use xlink:href="#DejaVuSans-65" x="458.984375"/>
      <use xlink:href="#DejaVuSans-6f" x="520.507812"/>
      <use xlink:href="#DejaVuSans-74" x="581.689453"/>
      <use xlink:href="#DejaVuSans-79" x="620.898438"/>
      <use xlink:href="#DejaVuSans-70" x="680.078125"/>
      <use xlink:href="#DejaVuSans-69" x="743.554688"/>
      <use xlink:href="#DejaVuSans-63" x="771.337891"/>
     </g>
    </g>
    <g id="patch_10">
     <path d="M 295.087188 87.426688 
L 315.087188 87.426688 
L 315.087188 80.426688 
L 295.087188 80.426688 
z
" style="fill: #ff0000"/>
    </g>
    <g id="text_16">
     <!-- false -->
     <g transform="translate(323.087188 87.426688) scale(0.1 -0.1)">
      <defs>
       <path id="DejaVuSans-61" d="M 2194 1759 
Q 1497 1759 1228 1600 
Q 959 1441 959 1056 
Q 959 750 1161 570 
Q 1363 391 1709 391 
Q 2188 391 2477 730 
Q 2766 1069 2766 1631 
L 2766 1759 
L 2194 1759 
z
M 3341 1997 
L 3341 0 
L 2766 0 
L 2766 531 
Q 2569 213 2275 61 
Q 1981 -91 1556 -91 
Q 1019 -91 701 211 
Q 384 513 384 1019 
Q 384 1609 779 1909 
Q 1175 2209 1959 2209 
L 2766 2209 
L 2766 2266 
Q 2766 2663 2505 2880 
Q 2244 3097 1772 3097 
Q 1472 3097 1187 3025 
Q 903 2953 641 2809 
L 641 3341 
Q 956 3463 1253 3523 
Q 1550 3584 1831 3584 
Q 2591 3584 2966 3190 
Q 3341 2797 3341 1997 
z
" transform="scale(0.015625)"/>
      </defs>
      <use xlink:href="#DejaVuSans-66"/>
      <use xlink:href="#DejaVuSans-61" x="35.205078"/>
      <use xlink:href="#DejaVuSans-6c" x="96.484375"/>
      <use xlink:href="#DejaVuSans-73" x="124.267578"/>
      <use xlink:href="#DejaVuSans-65" x="176.367188"/>
     </g>
    </g>
   </g>
  </g>
 </g>
 <defs>
  <clipPath id="pa2f059e94f">
   <rect x="57.6" y="41.472" width="357.12" height="266.112"/>
  </clipPath>
 </defs>
</svg>
