<?xml version="1.0" encoding="utf-8" standalone="no"?>
<!DOCTYPE svg PUBLIC "-//W3C//DTD SVG 1.1//EN"
  "http://www.w3.org/Graphics/SVG/1.1/DTD/svg11.dtd">
<svg xmlns:xlink="http://www.w3.org/1999/xlink" width="460.8pt" height="345.6pt" viewBox="0 0 460.8 345.6" xmlns="http://www.w3.org/2000/svg" version="1.1">
 <metadata>
  <rdf:RDF xmlns:dc="http://purl.org/dc/elements/1.1/" xmlns:cc="http://creativecommons.org/ns#" xmlns:rdf="http://www.w3.org/1999/02/22-rdf-syntax-ns#">
   <cc:Work>
    <dc:type rdf:resource="http://purl.org/dc/dcmitype/StillImage"/>
    <dc:date>2024-06-29T19:24:16.255692</dc:date>
    <dc:format>image/svg+xml</dc:format>
    <dc:creator>
     <cc:Agent>
      <dc:title>Matplotlib v3.9.0, https://matplotlib.org/</dc:title>
     </cc:Agent>
    </dc:creator>
   </cc:Work>
  </rdf:RDF>
 </metadata>
 <defs>
  <style type="text/css">*{stroke-linejoin: round; stroke-linecap: butt}</style>
 </defs>
 <g id="figure_1">
  <g id="patch_1">
   <path d="M 0 345.6 
L 460.8 345.6 
L 460.8 0 
L 0 0 
z
" style="fill: #ffffff"/>
  </g>
  <g id="axes_1">
   <g id="patch_2">
    <path d="M 57.6 307.584 
L 414.72 307.584 
L 414.72 41.472 
L 57.6 41.472 
z
" style="fill: #ffffff"/>
   </g>
   <g id="PolyCollection_1">
    <path d="M 73.832727 124.058483 
L 73.832727 307.584 
L 74.088777 307.584 
L 75.095908 307.584 
L 77.29794 307.584 
L 78.06609 307.584 
L 79.141501 307.584 
L 81.087482 307.584 
L 82.811553 307.584 
L 82.828623 307.584 
L 84.945305 307.584 
L 85.781735 307.584 
L 89.690768 307.584 
L 91.175859 307.584 
L 93.53152 307.584 
L 94.589861 307.584 
L 97.235713 307.584 
L 97.269853 307.584 
L 97.816093 307.584 
L 98.686664 307.584 
L 98.976854 307.584 
L 99.591374 307.584 
L 101.264235 307.584 
L 106.590079 307.584 
L 109.287141 307.584 
L 110.277201 307.584 
L 110.721022 307.584 
L 116.968646 307.584 
L 118.522017 307.584 
L 119.136537 307.584 
L 120.126598 307.584 
L 123.43818 307.584 
L 123.83079 307.584 
L 124.837921 307.584 
L 126.766832 307.584 
L 127.005813 307.584 
L 127.125303 307.584 
L 128.166573 307.584 
L 129.429754 307.584 
L 131.768346 307.584 
L 134.414197 307.584 
L 134.567828 307.584 
L 136.121199 307.584 
L 137.418519 307.584 
L 139.483991 307.584 
L 139.876601 307.584 
L 141.071502 307.584 
L 142.061563 307.584 
L 142.573663 307.584 
L 144.451364 307.584 
L 147.387406 307.584 
L 153.14 307.584 
L 157.117313 307.584 
L 159.080364 307.584 
L 159.285204 307.584 
L 163.552707 307.584 
L 166.147349 307.584 
L 166.710659 307.584 
L 176.901456 307.584 
L 184.08793 307.584 
L 187.280023 307.584 
L 198.78521 307.584 
L 199.826481 307.584 
L 205.732705 307.584 
L 215.257771 307.584 
L 215.872292 307.584 
L 217.869483 307.584 
L 220.139794 307.584 
L 221.795585 307.584 
L 230.842691 307.584 
L 235.093124 307.584 
L 238.831457 307.584 
L 239.616677 307.584 
L 240.401898 307.584 
L 242.262529 307.584 
L 245.249781 307.584 
L 255.884398 307.584 
L 260.203111 307.584 
L 265.255834 307.584 
L 266.962835 307.584 
L 273.26167 307.584 
L 277.870573 307.584 
L 281.745465 307.584 
L 283.093996 307.584 
L 311.208305 307.584 
L 331.094868 307.584 
L 372.301875 307.584 
L 398.487273 307.584 
L 398.487273 307.584 
L 398.487273 307.584 
L 372.301875 307.584 
L 331.094868 307.584 
L 311.208305 307.584 
L 283.093996 307.584 
L 281.745465 304.670897 
L 277.870573 301.757793 
L 273.26167 298.84469 
L 266.962835 295.931586 
L 265.255834 295.931586 
L 260.203111 293.018483 
L 255.884398 293.018483 
L 245.249781 293.018483 
L 242.262529 290.105379 
L 240.401898 287.192276 
L 239.616677 284.279172 
L 238.831457 281.366069 
L 235.093124 281.366069 
L 230.842691 278.452966 
L 221.795585 275.539862 
L 220.139794 272.626759 
L 217.869483 272.626759 
L 215.872292 272.626759 
L 215.257771 269.713655 
L 205.732705 266.800552 
L 199.826481 263.887448 
L 198.78521 263.887448 
L 187.280023 263.887448 
L 184.08793 263.887448 
L 176.901456 263.887448 
L 166.710659 260.974345 
L 166.147349 260.974345 
L 163.552707 258.061241 
L 159.285204 255.148138 
L 159.080364 252.235034 
L 157.117313 249.321931 
L 153.14 249.321931 
L 147.387406 246.408828 
L 144.451364 243.495724 
L 142.573663 240.582621 
L 142.061563 237.669517 
L 141.071502 237.669517 
L 139.876601 234.756414 
L 139.483991 231.84331 
L 137.418519 228.930207 
L 136.121199 228.930207 
L 134.567828 226.017103 
L 134.414197 223.104 
L 131.768346 220.190897 
L 129.429754 217.277793 
L 128.166573 214.36469 
L 127.125303 211.451586 
L 127.005813 208.538483 
L 126.766832 205.625379 
L 124.837921 202.712276 
L 123.83079 199.799172 
L 123.43818 196.886069 
L 120.126598 193.972966 
L 119.136537 191.059862 
L 118.522017 188.146759 
L 116.968646 185.233655 
L 110.721022 182.320552 
L 110.277201 182.320552 
L 109.287141 179.407448 
L 106.590079 179.407448 
L 101.264235 176.494345 
L 99.591374 173.581241 
L 98.976854 170.668138 
L 98.686664 167.755034 
L 97.816093 167.755034 
L 97.269853 164.841931 
L 97.235713 161.928828 
L 94.589861 159.015724 
L 93.53152 156.102621 
L 91.175859 153.189517 
L 89.690768 150.276414 
L 85.781735 147.36331 
L 84.945305 144.450207 
L 82.828623 141.537103 
L 82.811553 138.624 
L 81.087482 135.710897 
L 79.141501 135.710897 
L 78.06609 132.797793 
L 77.29794 132.797793 
L 75.095908 129.88469 
L 74.088777 126.971586 
L 73.832727 124.058483 
z
" clip-path="url(#p10af3d803d)" style="fill: #008000"/>
   </g>
   <g id="PolyCollection_2">
    <path d="M 73.832727 68.709517 
L 73.832727 124.058483 
L 74.088777 126.971586 
L 75.095908 129.88469 
L 77.29794 132.797793 
L 78.06609 132.797793 
L 79.141501 135.710897 
L 81.087482 135.710897 
L 82.811553 138.624 
L 82.828623 141.537103 
L 84.945305 144.450207 
L 85.781735 147.36331 
L 89.690768 150.276414 
L 91.175859 153.189517 
L 93.53152 156.102621 
L 94.589861 159.015724 
L 97.235713 161.928828 
L 97.269853 164.841931 
L 97.816093 167.755034 
L 98.686664 167.755034 
L 98.976854 170.668138 
L 99.591374 173.581241 
L 101.264235 176.494345 
L 106.590079 179.407448 
L 109.287141 179.407448 
L 110.277201 182.320552 
L 110.721022 182.320552 
L 116.968646 185.233655 
L 118.522017 188.146759 
L 119.136537 191.059862 
L 120.126598 193.972966 
L 123.43818 196.886069 
L 123.83079 199.799172 
L 124.837921 202.712276 
L 126.766832 205.625379 
L 127.005813 208.538483 
L 127.125303 211.451586 
L 128.166573 214.36469 
L 129.429754 217.277793 
L 131.768346 220.190897 
L 134.414197 223.104 
L 134.567828 226.017103 
L 136.121199 228.930207 
L 137.418519 228.930207 
L 139.483991 231.84331 
L 139.876601 234.756414 
L 141.071502 237.669517 
L 142.061563 237.669517 
L 142.573663 240.582621 
L 144.451364 243.495724 
L 147.387406 246.408828 
L 153.14 249.321931 
L 157.117313 249.321931 
L 159.080364 252.235034 
L 159.285204 255.148138 
L 163.552707 258.061241 
L 166.147349 260.974345 
L 166.710659 260.974345 
L 176.901456 263.887448 
L 184.08793 263.887448 
L 187.280023 263.887448 
L 198.78521 263.887448 
L 199.826481 263.887448 
L 205.732705 266.800552 
L 215.257771 269.713655 
L 215.872292 272.626759 
L 217.869483 272.626759 
L 220.139794 272.626759 
L 221.795585 275.539862 
L 230.842691 278.452966 
L 235.093124 281.366069 
L 238.831457 281.366069 
L 239.616677 284.279172 
L 240.401898 287.192276 
L 242.262529 290.105379 
L 245.249781 293.018483 
L 255.884398 293.018483 
L 260.203111 293.018483 
L 265.255834 295.931586 
L 266.962835 295.931586 
L 273.26167 298.84469 
L 277.870573 301.757793 
L 281.745465 304.670897 
L 283.093996 307.584 
L 311.208305 307.584 
L 331.094868 307.584 
L 372.301875 307.584 
L 398.487273 307.584 
L 398.487273 304.670897 
L 398.487273 304.670897 
L 372.301875 301.757793 
L 331.094868 298.84469 
L 311.208305 295.931586 
L 283.093996 293.018483 
L 281.745465 290.105379 
L 277.870573 287.192276 
L 273.26167 284.279172 
L 266.962835 281.366069 
L 265.255834 278.452966 
L 260.203111 275.539862 
L 255.884398 272.626759 
L 245.249781 269.713655 
L 242.262529 266.800552 
L 240.401898 263.887448 
L 239.616677 260.974345 
L 238.831457 258.061241 
L 235.093124 255.148138 
L 230.842691 252.235034 
L 221.795585 249.321931 
L 220.139794 246.408828 
L 217.869483 243.495724 
L 215.872292 240.582621 
L 215.257771 237.669517 
L 205.732705 234.756414 
L 199.826481 231.84331 
L 198.78521 228.930207 
L 187.280023 226.017103 
L 184.08793 223.104 
L 176.901456 223.104 
L 166.710659 220.190897 
L 166.147349 220.190897 
L 163.552707 217.277793 
L 159.285204 214.36469 
L 159.080364 211.451586 
L 157.117313 208.538483 
L 153.14 205.625379 
L 147.387406 202.712276 
L 144.451364 199.799172 
L 142.573663 196.886069 
L 142.061563 193.972966 
L 141.071502 191.059862 
L 139.876601 188.146759 
L 139.483991 185.233655 
L 137.418519 182.320552 
L 136.121199 179.407448 
L 134.567828 176.494345 
L 134.414197 173.581241 
L 131.768346 170.668138 
L 129.429754 167.755034 
L 128.166573 164.841931 
L 127.125303 161.928828 
L 127.005813 159.015724 
L 126.766832 156.102621 
L 124.837921 153.189517 
L 123.83079 150.276414 
L 123.43818 147.36331 
L 120.126598 144.450207 
L 119.136537 141.537103 
L 118.522017 138.624 
L 116.968646 135.710897 
L 110.721022 132.797793 
L 110.277201 129.88469 
L 109.287141 126.971586 
L 106.590079 126.971586 
L 101.264235 124.058483 
L 99.591374 121.145379 
L 98.976854 118.232276 
L 98.686664 115.319172 
L 97.816093 112.406069 
L 97.269853 109.492966 
L 97.235713 106.579862 
L 94.589861 103.666759 
L 93.53152 100.753655 
L 91.175859 97.840552 
L 89.690768 94.927448 
L 85.781735 92.014345 
L 84.945305 89.101241 
L 82.828623 86.188138 
L 82.811553 83.275034 
L 81.087482 80.361931 
L 79.141501 80.361931 
L 78.06609 77.448828 
L 77.29794 77.448828 
L 75.095908 74.535724 
L 74.088777 71.622621 
L 73.832727 68.709517 
z
" clip-path="url(#p10af3d803d)" style="fill: #7cfc00"/>
   </g>
   <g id="PolyCollection_3">
    <path d="M 73.832727 54.144 
L 73.832727 68.709517 
L 74.088777 71.622621 
L 75.095908 74.535724 
L 77.29794 77.448828 
L 78.06609 77.448828 
L 79.141501 80.361931 
L 81.087482 80.361931 
L 82.811553 83.275034 
L 82.828623 86.188138 
L 84.945305 89.101241 
L 85.781735 92.014345 
L 89.690768 94.927448 
L 91.175859 97.840552 
L 93.53152 100.753655 
L 94.589861 103.666759 
L 97.235713 106.579862 
L 97.269853 109.492966 
L 97.816093 112.406069 
L 98.686664 115.319172 
L 98.976854 118.232276 
L 99.591374 121.145379 
L 101.264235 124.058483 
L 106.590079 126.971586 
L 109.287141 126.971586 
L 110.277201 129.88469 
L 110.721022 132.797793 
L 116.968646 135.710897 
L 118.522017 138.624 
L 119.136537 141.537103 
L 120.126598 144.450207 
L 123.43818 147.36331 
L 123.83079 150.276414 
L 124.837921 153.189517 
L 126.766832 156.102621 
L 127.005813 159.015724 
L 127.125303 161.928828 
L 128.166573 164.841931 
L 129.429754 167.755034 
L 131.768346 170.668138 
L 134.414197 173.581241 
L 134.567828 176.494345 
L 136.121199 179.407448 
L 137.418519 182.320552 
L 139.483991 185.233655 
L 139.876601 188.146759 
L 141.071502 191.059862 
L 142.061563 193.972966 
L 142.573663 196.886069 
L 144.451364 199.799172 
L 147.387406 202.712276 
L 153.14 205.625379 
L 157.117313 208.538483 
L 159.080364 211.451586 
L 159.285204 214.36469 
L 163.552707 217.277793 
L 166.147349 220.190897 
L 166.710659 220.190897 
L 176.901456 223.104 
L 184.08793 223.104 
L 187.280023 226.017103 
L 198.78521 228.930207 
L 199.826481 231.84331 
L 205.732705 234.756414 
L 215.257771 237.669517 
L 215.872292 240.582621 
L 217.869483 243.495724 
L 220.139794 246.408828 
L 221.795585 249.321931 
L 230.842691 252.235034 
L 235.093124 255.148138 
L 238.831457 258.061241 
L 239.616677 260.974345 
L 240.401898 263.887448 
L 242.262529 266.800552 
L 245.249781 269.713655 
L 255.884398 272.626759 
L 260.203111 275.539862 
L 265.255834 278.452966 
L 266.962835 281.366069 
L 273.26167 284.279172 
L 277.870573 287.192276 
L 281.745465 290.105379 
L 283.093996 293.018483 
L 311.208305 295.931586 
L 331.094868 298.84469 
L 372.301875 301.757793 
L 398.487273 304.670897 
L 398.487273 304.670897 
L 398.487273 304.670897 
L 372.301875 301.757793 
L 331.094868 298.84469 
L 311.208305 295.931586 
L 283.093996 293.018483 
L 281.745465 290.105379 
L 277.870573 287.192276 
L 273.26167 284.279172 
L 266.962835 281.366069 
L 265.255834 278.452966 
L 260.203111 275.539862 
L 255.884398 272.626759 
L 245.249781 269.713655 
L 242.262529 266.800552 
L 240.401898 263.887448 
L 239.616677 260.974345 
L 238.831457 258.061241 
L 235.093124 255.148138 
L 230.842691 252.235034 
L 221.795585 249.321931 
L 220.139794 246.408828 
L 217.869483 243.495724 
L 215.872292 240.582621 
L 215.257771 237.669517 
L 205.732705 234.756414 
L 199.826481 231.84331 
L 198.78521 228.930207 
L 187.280023 226.017103 
L 184.08793 223.104 
L 176.901456 220.190897 
L 166.710659 217.277793 
L 166.147349 214.36469 
L 163.552707 211.451586 
L 159.285204 208.538483 
L 159.080364 205.625379 
L 157.117313 202.712276 
L 153.14 199.799172 
L 147.387406 196.886069 
L 144.451364 193.972966 
L 142.573663 191.059862 
L 142.061563 188.146759 
L 141.071502 185.233655 
L 139.876601 182.320552 
L 139.483991 179.407448 
L 137.418519 176.494345 
L 136.121199 173.581241 
L 134.567828 170.668138 
L 134.414197 167.755034 
L 131.768346 164.841931 
L 129.429754 161.928828 
L 128.166573 159.015724 
L 127.125303 156.102621 
L 127.005813 153.189517 
L 126.766832 150.276414 
L 124.837921 147.36331 
L 123.83079 144.450207 
L 123.43818 141.537103 
L 120.126598 138.624 
L 119.136537 135.710897 
L 118.522017 132.797793 
L 116.968646 129.88469 
L 110.721022 126.971586 
L 110.277201 124.058483 
L 109.287141 121.145379 
L 106.590079 118.232276 
L 101.264235 115.319172 
L 99.591374 112.406069 
L 98.976854 109.492966 
L 98.686664 106.579862 
L 97.816093 103.666759 
L 97.269853 100.753655 
L 97.235713 97.840552 
L 94.589861 94.927448 
L 93.53152 92.014345 
L 91.175859 89.101241 
L 89.690768 86.188138 
L 85.781735 83.275034 
L 84.945305 80.361931 
L 82.828623 77.448828 
L 82.811553 74.535724 
L 81.087482 71.622621 
L 79.141501 68.709517 
L 78.06609 65.796414 
L 77.29794 62.88331 
L 75.095908 59.970207 
L 74.088777 57.057103 
L 73.832727 54.144 
z
" clip-path="url(#p10af3d803d)" style="fill: #ff0000"/>
   </g>
   <g id="matplotlib.axis_1">
    <g id="xtick_1">
     <g id="line2d_1">
      <defs>
       <path id="md1e6eeccee" d="M 0 0 
L 0 3.5 
" style="stroke: #000000; stroke-width: 0.8"/>
      </defs>
      <g>
       <use xlink:href="#md1e6eeccee" x="65.724472" y="307.584" style="stroke: #000000; stroke-width: 0.8"/>
      </g>
     </g>
     <g id="text_1">
      <!-- 100 -->
      <g transform="translate(56.180722 322.182437) scale(0.1 -0.1)">
       <defs>
        <path id="DejaVuSans-31" d="M 794 531 
L 1825 531 
L 1825 4091 
L 703 3866 
L 703 4441 
L 1819 4666 
L 2450 4666 
L 2450 531 
L 3481 531 
L 3481 0 
L 794 0 
L 794 531 
z
" transform="scale(0.015625)"/>
        <path id="DejaVuSans-30" d="M 2034 4250 
Q 1547 4250 1301 3770 
Q 1056 3291 1056 2328 
Q 1056 1369 1301 889 
Q 1547 409 2034 409 
Q 2525 409 2770 889 
Q 3016 1369 3016 2328 
Q 3016 3291 2770 3770 
Q 2525 4250 2034 4250 
z
M 2034 4750 
Q 2819 4750 3233 4129 
Q 3647 3509 3647 2328 
Q 3647 1150 3233 529 
Q 2819 -91 2034 -91 
Q 1250 -91 836 529 
Q 422 1150 422 2328 
Q 422 3509 836 4129 
Q 1250 4750 2034 4750 
z
" transform="scale(0.015625)"/>
       </defs>
       <use xlink:href="#DejaVuSans-31"/>
       <use xlink:href="#DejaVuSans-30" x="63.623047"/>
       <use xlink:href="#DejaVuSans-30" x="127.246094"/>
      </g>
     </g>
    </g>
    <g id="xtick_2">
     <g id="line2d_2">
      <g>
       <use xlink:href="#md1e6eeccee" x="108.3995" y="307.584" style="stroke: #000000; stroke-width: 0.8"/>
      </g>
     </g>
     <g id="text_2">
      <!-- 125 -->
      <g transform="translate(98.85575 322.182437) scale(0.1 -0.1)">
       <defs>
        <path id="DejaVuSans-32" d="M 1228 531 
L 3431 531 
L 3431 0 
L 469 0 
L 469 531 
Q 828 903 1448 1529 
Q 2069 2156 2228 2338 
Q 2531 2678 2651 2914 
Q 2772 3150 2772 3378 
Q 2772 3750 2511 3984 
Q 2250 4219 1831 4219 
Q 1534 4219 1204 4116 
Q 875 4013 500 3803 
L 500 4441 
Q 881 4594 1212 4672 
Q 1544 4750 1819 4750 
Q 2544 4750 2975 4387 
Q 3406 4025 3406 3419 
Q 3406 3131 3298 2873 
Q 3191 2616 2906 2266 
Q 2828 2175 2409 1742 
Q 1991 1309 1228 531 
z
" transform="scale(0.015625)"/>
        <path id="DejaVuSans-35" d="M 691 4666 
L 3169 4666 
L 3169 4134 
L 1269 4134 
L 1269 2991 
Q 1406 3038 1543 3061 
Q 1681 3084 1819 3084 
Q 2600 3084 3056 2656 
Q 3513 2228 3513 1497 
Q 3513 744 3044 326 
Q 2575 -91 1722 -91 
Q 1428 -91 1123 -41 
Q 819 9 494 109 
L 494 744 
Q 775 591 1075 516 
Q 1375 441 1709 441 
Q 2250 441 2565 725 
Q 2881 1009 2881 1497 
Q 2881 1984 2565 2268 
Q 2250 2553 1709 2553 
Q 1456 2553 1204 2497 
Q 953 2441 691 2322 
L 691 4666 
z
" transform="scale(0.015625)"/>
       </defs>
       <use xlink:href="#DejaVuSans-31"/>
       <use xlink:href="#DejaVuSans-32" x="63.623047"/>
       <use xlink:href="#DejaVuSans-35" x="127.246094"/>
      </g>
     </g>
    </g>
    <g id="xtick_3">
     <g id="line2d_3">
      <g>
       <use xlink:href="#md1e6eeccee" x="151.074529" y="307.584" style="stroke: #000000; stroke-width: 0.8"/>
      </g>
     </g>
     <g id="text_3">
      <!-- 150 -->
      <g transform="translate(141.530779 322.182437) scale(0.1 -0.1)">
       <use xlink:href="#DejaVuSans-31"/>
       <use xlink:href="#DejaVuSans-35" x="63.623047"/>
       <use xlink:href="#DejaVuSans-30" x="127.246094"/>
      </g>
     </g>
    </g>
    <g id="xtick_4">
     <g id="line2d_4">
      <g>
       <use xlink:href="#md1e6eeccee" x="193.749557" y="307.584" style="stroke: #000000; stroke-width: 0.8"/>
      </g>
     </g>
     <g id="text_4">
      <!-- 175 -->
      <g transform="translate(184.205807 322.182437) scale(0.1 -0.1)">
       <defs>
        <path id="DejaVuSans-37" d="M 525 4666 
L 3525 4666 
L 3525 4397 
L 1831 0 
L 1172 0 
L 2766 4134 
L 525 4134 
L 525 4666 
z
" transform="scale(0.015625)"/>
       </defs>
       <use xlink:href="#DejaVuSans-31"/>
       <use xlink:href="#DejaVuSans-37" x="63.623047"/>
       <use xlink:href="#DejaVuSans-35" x="127.246094"/>
      </g>
     </g>
    </g>
    <g id="xtick_5">
     <g id="line2d_5">
      <g>
       <use xlink:href="#md1e6eeccee" x="236.424585" y="307.584" style="stroke: #000000; stroke-width: 0.8"/>
      </g>
     </g>
     <g id="text_5">
      <!-- 200 -->
      <g transform="translate(226.880835 322.182437) scale(0.1 -0.1)">
       <use xlink:href="#DejaVuSans-32"/>
       <use xlink:href="#DejaVuSans-30" x="63.623047"/>
       <use xlink:href="#DejaVuSans-30" x="127.246094"/>
      </g>
     </g>
    </g>
    <g id="xtick_6">
     <g id="line2d_6">
      <g>
       <use xlink:href="#md1e6eeccee" x="279.099613" y="307.584" style="stroke: #000000; stroke-width: 0.8"/>
      </g>
     </g>
     <g id="text_6">
      <!-- 225 -->
      <g transform="translate(269.555863 322.182437) scale(0.1 -0.1)">
       <use xlink:href="#DejaVuSans-32"/>
       <use xlink:href="#DejaVuSans-32" x="63.623047"/>
       <use xlink:href="#DejaVuSans-35" x="127.246094"/>
      </g>
     </g>
    </g>
    <g id="xtick_7">
     <g id="line2d_7">
      <g>
       <use xlink:href="#md1e6eeccee" x="321.774642" y="307.584" style="stroke: #000000; stroke-width: 0.8"/>
      </g>
     </g>
     <g id="text_7">
      <!-- 250 -->
      <g transform="translate(312.230892 322.182437) scale(0.1 -0.1)">
       <use xlink:href="#DejaVuSans-32"/>
       <use xlink:href="#DejaVuSans-35" x="63.623047"/>
       <use xlink:href="#DejaVuSans-30" x="127.246094"/>
      </g>
     </g>
    </g>
    <g id="xtick_8">
     <g id="line2d_8">
      <g>
       <use xlink:href="#md1e6eeccee" x="364.44967" y="307.584" style="stroke: #000000; stroke-width: 0.8"/>
      </g>
     </g>
     <g id="text_8">
      <!-- 275 -->
      <g transform="translate(354.90592 322.182437) scale(0.1 -0.1)">
       <use xlink:href="#DejaVuSans-32"/>
       <use xlink:href="#DejaVuSans-37" x="63.623047"/>
       <use xlink:href="#DejaVuSans-35" x="127.246094"/>
      </g>
     </g>
    </g>
    <g id="xtick_9">
     <g id="line2d_9">
      <g>
       <use xlink:href="#md1e6eeccee" x="407.124698" y="307.584" style="stroke: #000000; stroke-width: 0.8"/>
      </g>
     </g>
     <g id="text_9">
      <!-- 300 -->
      <g transform="translate(397.580948 322.182437) scale(0.1 -0.1)">
       <defs>
        <path id="DejaVuSans-33" d="M 2597 2516 
Q 3050 2419 3304 2112 
Q 3559 1806 3559 1356 
Q 3559 666 3084 287 
Q 2609 -91 1734 -91 
Q 1441 -91 1130 -33 
Q 819 25 488 141 
L 488 750 
Q 750 597 1062 519 
Q 1375 441 1716 441 
Q 2309 441 2620 675 
Q 2931 909 2931 1356 
Q 2931 1769 2642 2001 
Q 2353 2234 1838 2234 
L 1294 2234 
L 1294 2753 
L 1863 2753 
Q 2328 2753 2575 2939 
Q 2822 3125 2822 3475 
Q 2822 3834 2567 4026 
Q 2313 4219 1838 4219 
Q 1578 4219 1281 4162 
Q 984 4106 628 3988 
L 628 4550 
Q 988 4650 1302 4700 
Q 1616 4750 1894 4750 
Q 2613 4750 3031 4423 
Q 3450 4097 3450 3541 
Q 3450 3153 3228 2886 
Q 3006 2619 2597 2516 
z
" transform="scale(0.015625)"/>
       </defs>
       <use xlink:href="#DejaVuSans-33"/>
       <use xlink:href="#DejaVuSans-30" x="63.623047"/>
       <use xlink:href="#DejaVuSans-30" x="127.246094"/>
      </g>
     </g>
    </g>
    <g id="text_10">
     <!-- Score -->
     <g transform="translate(222.157656 335.860562) scale(0.1 -0.1)">
      <defs>
       <path id="DejaVuSans-53" d="M 3425 4513 
L 3425 3897 
Q 3066 4069 2747 4153 
Q 2428 4238 2131 4238 
Q 1616 4238 1336 4038 
Q 1056 3838 1056 3469 
Q 1056 3159 1242 3001 
Q 1428 2844 1947 2747 
L 2328 2669 
Q 3034 2534 3370 2195 
Q 3706 1856 3706 1288 
Q 3706 609 3251 259 
Q 2797 -91 1919 -91 
Q 1588 -91 1214 -16 
Q 841 59 441 206 
L 441 856 
Q 825 641 1194 531 
Q 1563 422 1919 422 
Q 2459 422 2753 634 
Q 3047 847 3047 1241 
Q 3047 1584 2836 1778 
Q 2625 1972 2144 2069 
L 1759 2144 
Q 1053 2284 737 2584 
Q 422 2884 422 3419 
Q 422 4038 858 4394 
Q 1294 4750 2059 4750 
Q 2388 4750 2728 4690 
Q 3069 4631 3425 4513 
z
" transform="scale(0.015625)"/>
       <path id="DejaVuSans-63" d="M 3122 3366 
L 3122 2828 
Q 2878 2963 2633 3030 
Q 2388 3097 2138 3097 
Q 1578 3097 1268 2742 
Q 959 2388 959 1747 
Q 959 1106 1268 751 
Q 1578 397 2138 397 
Q 2388 397 2633 464 
Q 2878 531 3122 666 
L 3122 134 
Q 2881 22 2623 -34 
Q 2366 -91 2075 -91 
Q 1284 -91 818 406 
Q 353 903 353 1747 
Q 353 2603 823 3093 
Q 1294 3584 2113 3584 
Q 2378 3584 2631 3529 
Q 2884 3475 3122 3366 
z
" transform="scale(0.015625)"/>
       <path id="DejaVuSans-6f" d="M 1959 3097 
Q 1497 3097 1228 2736 
Q 959 2375 959 1747 
Q 959 1119 1226 758 
Q 1494 397 1959 397 
Q 2419 397 2687 759 
Q 2956 1122 2956 1747 
Q 2956 2369 2687 2733 
Q 2419 3097 1959 3097 
z
M 1959 3584 
Q 2709 3584 3137 3096 
Q 3566 2609 3566 1747 
Q 3566 888 3137 398 
Q 2709 -91 1959 -91 
Q 1206 -91 779 398 
Q 353 888 353 1747 
Q 353 2609 779 3096 
Q 1206 3584 1959 3584 
z
" transform="scale(0.015625)"/>
       <path id="DejaVuSans-72" d="M 2631 2963 
Q 2534 3019 2420 3045 
Q 2306 3072 2169 3072 
Q 1681 3072 1420 2755 
Q 1159 2438 1159 1844 
L 1159 0 
L 581 0 
L 581 3500 
L 1159 3500 
L 1159 2956 
Q 1341 3275 1631 3429 
Q 1922 3584 2338 3584 
Q 2397 3584 2469 3576 
Q 2541 3569 2628 3553 
L 2631 2963 
z
" transform="scale(0.015625)"/>
       <path id="DejaVuSans-65" d="M 3597 1894 
L 3597 1613 
L 953 1613 
Q 991 1019 1311 708 
Q 1631 397 2203 397 
Q 2534 397 2845 478 
Q 3156 559 3463 722 
L 3463 178 
Q 3153 47 2828 -22 
Q 2503 -91 2169 -91 
Q 1331 -91 842 396 
Q 353 884 353 1716 
Q 353 2575 817 3079 
Q 1281 3584 2069 3584 
Q 2775 3584 3186 3129 
Q 3597 2675 3597 1894 
z
M 3022 2063 
Q 3016 2534 2758 2815 
Q 2500 3097 2075 3097 
Q 1594 3097 1305 2825 
Q 1016 2553 972 2059 
L 3022 2063 
z
" transform="scale(0.015625)"/>
      </defs>
      <use xlink:href="#DejaVuSans-53"/>
      <use xlink:href="#DejaVuSans-63" x="63.476562"/>
      <use xlink:href="#DejaVuSans-6f" x="118.457031"/>
      <use xlink:href="#DejaVuSans-72" x="179.638672"/>
      <use xlink:href="#DejaVuSans-65" x="218.501953"/>
     </g>
    </g>
   </g>
   <g id="matplotlib.axis_2">
    <g id="ytick_1">
     <g id="line2d_10">
      <defs>
       <path id="m33f5fcd94e" d="M 0 0 
L -3.5 0 
" style="stroke: #000000; stroke-width: 0.8"/>
      </defs>
      <g>
       <use xlink:href="#m33f5fcd94e" x="57.6" y="307.584" style="stroke: #000000; stroke-width: 0.8"/>
      </g>
     </g>
     <g id="text_11">
      <!-- 0 -->
      <g transform="translate(44.2375 311.383219) scale(0.1 -0.1)">
       <use xlink:href="#DejaVuSans-30"/>
      </g>
     </g>
    </g>
    <g id="ytick_2">
     <g id="line2d_11">
      <g>
       <use xlink:href="#m33f5fcd94e" x="57.6" y="249.321931" style="stroke: #000000; stroke-width: 0.8"/>
      </g>
     </g>
     <g id="text_12">
      <!-- 20 -->
      <g transform="translate(37.875 253.12115) scale(0.1 -0.1)">
       <use xlink:href="#DejaVuSans-32"/>
       <use xlink:href="#DejaVuSans-30" x="63.623047"/>
      </g>
     </g>
    </g>
    <g id="ytick_3">
     <g id="line2d_12">
      <g>
       <use xlink:href="#m33f5fcd94e" x="57.6" y="191.059862" style="stroke: #000000; stroke-width: 0.8"/>
      </g>
     </g>
     <g id="text_13">
      <!-- 40 -->
      <g transform="translate(37.875 194.859081) scale(0.1 -0.1)">
       <defs>
        <path id="DejaVuSans-34" d="M 2419 4116 
L 825 1625 
L 2419 1625 
L 2419 4116 
z
M 2253 4666 
L 3047 4666 
L 3047 1625 
L 3713 1625 
L 3713 1100 
L 3047 1100 
L 3047 0 
L 2419 0 
L 2419 1100 
L 313 1100 
L 313 1709 
L 2253 4666 
z
" transform="scale(0.015625)"/>
       </defs>
       <use xlink:href="#DejaVuSans-34"/>
       <use xlink:href="#DejaVuSans-30" x="63.623047"/>
      </g>
     </g>
    </g>
    <g id="ytick_4">
     <g id="line2d_13">
      <g>
       <use xlink:href="#m33f5fcd94e" x="57.6" y="132.797793" style="stroke: #000000; stroke-width: 0.8"/>
      </g>
     </g>
     <g id="text_14">
      <!-- 60 -->
      <g transform="translate(37.875 136.597012) scale(0.1 -0.1)">
       <defs>
        <path id="DejaVuSans-36" d="M 2113 2584 
Q 1688 2584 1439 2293 
Q 1191 2003 1191 1497 
Q 1191 994 1439 701 
Q 1688 409 2113 409 
Q 2538 409 2786 701 
Q 3034 994 3034 1497 
Q 3034 2003 2786 2293 
Q 2538 2584 2113 2584 
z
M 3366 4563 
L 3366 3988 
Q 3128 4100 2886 4159 
Q 2644 4219 2406 4219 
Q 1781 4219 1451 3797 
Q 1122 3375 1075 2522 
Q 1259 2794 1537 2939 
Q 1816 3084 2150 3084 
Q 2853 3084 3261 2657 
Q 3669 2231 3669 1497 
Q 3669 778 3244 343 
Q 2819 -91 2113 -91 
Q 1303 -91 875 529 
Q 447 1150 447 2328 
Q 447 3434 972 4092 
Q 1497 4750 2381 4750 
Q 2619 4750 2861 4703 
Q 3103 4656 3366 4563 
z
" transform="scale(0.015625)"/>
       </defs>
       <use xlink:href="#DejaVuSans-36"/>
       <use xlink:href="#DejaVuSans-30" x="63.623047"/>
      </g>
     </g>
    </g>
    <g id="ytick_5">
     <g id="line2d_14">
      <g>
       <use xlink:href="#m33f5fcd94e" x="57.6" y="74.535724" style="stroke: #000000; stroke-width: 0.8"/>
      </g>
     </g>
     <g id="text_15">
      <!-- 80 -->
      <g transform="translate(37.875 78.334943) scale(0.1 -0.1)">
       <defs>
        <path id="DejaVuSans-38" d="M 2034 2216 
Q 1584 2216 1326 1975 
Q 1069 1734 1069 1313 
Q 1069 891 1326 650 
Q 1584 409 2034 409 
Q 2484 409 2743 651 
Q 3003 894 3003 1313 
Q 3003 1734 2745 1975 
Q 2488 2216 2034 2216 
z
M 1403 2484 
Q 997 2584 770 2862 
Q 544 3141 544 3541 
Q 544 4100 942 4425 
Q 1341 4750 2034 4750 
Q 2731 4750 3128 4425 
Q 3525 4100 3525 3541 
Q 3525 3141 3298 2862 
Q 3072 2584 2669 2484 
Q 3125 2378 3379 2068 
Q 3634 1759 3634 1313 
Q 3634 634 3220 271 
Q 2806 -91 2034 -91 
Q 1263 -91 848 271 
Q 434 634 434 1313 
Q 434 1759 690 2068 
Q 947 2378 1403 2484 
z
M 1172 3481 
Q 1172 3119 1398 2916 
Q 1625 2713 2034 2713 
Q 2441 2713 2670 2916 
Q 2900 3119 2900 3481 
Q 2900 3844 2670 4047 
Q 2441 4250 2034 4250 
Q 1625 4250 1398 4047 
Q 1172 3844 1172 3481 
z
" transform="scale(0.015625)"/>
       </defs>
       <use xlink:href="#DejaVuSans-38"/>
       <use xlink:href="#DejaVuSans-30" x="63.623047"/>
      </g>
     </g>
    </g>
    <g id="text_16">
     <!-- Number of crosslinks -->
     <g transform="translate(31.795312 227.019406) rotate(-90) scale(0.1 -0.1)">
      <defs>
       <path id="DejaVuSans-4e" d="M 628 4666 
L 1478 4666 
L 3547 763 
L 3547 4666 
L 4159 4666 
L 4159 0 
L 3309 0 
L 1241 3903 
L 1241 0 
L 628 0 
L 628 4666 
z
" transform="scale(0.015625)"/>
       <path id="DejaVuSans-75" d="M 544 1381 
L 544 3500 
L 1119 3500 
L 1119 1403 
Q 1119 906 1312 657 
Q 1506 409 1894 409 
Q 2359 409 2629 706 
Q 2900 1003 2900 1516 
L 2900 3500 
L 3475 3500 
L 3475 0 
L 2900 0 
L 2900 538 
Q 2691 219 2414 64 
Q 2138 -91 1772 -91 
Q 1169 -91 856 284 
Q 544 659 544 1381 
z
M 1991 3584 
L 1991 3584 
z
" transform="scale(0.015625)"/>
       <path id="DejaVuSans-6d" d="M 3328 2828 
Q 3544 3216 3844 3400 
Q 4144 3584 4550 3584 
Q 5097 3584 5394 3201 
Q 5691 2819 5691 2113 
L 5691 0 
L 5113 0 
L 5113 2094 
Q 5113 2597 4934 2840 
Q 4756 3084 4391 3084 
Q 3944 3084 3684 2787 
Q 3425 2491 3425 1978 
L 3425 0 
L 2847 0 
L 2847 2094 
Q 2847 2600 2669 2842 
Q 2491 3084 2119 3084 
Q 1678 3084 1418 2786 
Q 1159 2488 1159 1978 
L 1159 0 
L 581 0 
L 581 3500 
L 1159 3500 
L 1159 2956 
Q 1356 3278 1631 3431 
Q 1906 3584 2284 3584 
Q 2666 3584 2933 3390 
Q 3200 3197 3328 2828 
z
" transform="scale(0.015625)"/>
       <path id="DejaVuSans-62" d="M 3116 1747 
Q 3116 2381 2855 2742 
Q 2594 3103 2138 3103 
Q 1681 3103 1420 2742 
Q 1159 2381 1159 1747 
Q 1159 1113 1420 752 
Q 1681 391 2138 391 
Q 2594 391 2855 752 
Q 3116 1113 3116 1747 
z
M 1159 2969 
Q 1341 3281 1617 3432 
Q 1894 3584 2278 3584 
Q 2916 3584 3314 3078 
Q 3713 2572 3713 1747 
Q 3713 922 3314 415 
Q 2916 -91 2278 -91 
Q 1894 -91 1617 61 
Q 1341 213 1159 525 
L 1159 0 
L 581 0 
L 581 4863 
L 1159 4863 
L 1159 2969 
z
" transform="scale(0.015625)"/>
       <path id="DejaVuSans-20" transform="scale(0.015625)"/>
       <path id="DejaVuSans-66" d="M 2375 4863 
L 2375 4384 
L 1825 4384 
Q 1516 4384 1395 4259 
Q 1275 4134 1275 3809 
L 1275 3500 
L 2222 3500 
L 2222 3053 
L 1275 3053 
L 1275 0 
L 697 0 
L 697 3053 
L 147 3053 
L 147 3500 
L 697 3500 
L 697 3744 
Q 697 4328 969 4595 
Q 1241 4863 1831 4863 
L 2375 4863 
z
" transform="scale(0.015625)"/>
       <path id="DejaVuSans-73" d="M 2834 3397 
L 2834 2853 
Q 2591 2978 2328 3040 
Q 2066 3103 1784 3103 
Q 1356 3103 1142 2972 
Q 928 2841 928 2578 
Q 928 2378 1081 2264 
Q 1234 2150 1697 2047 
L 1894 2003 
Q 2506 1872 2764 1633 
Q 3022 1394 3022 966 
Q 3022 478 2636 193 
Q 2250 -91 1575 -91 
Q 1294 -91 989 -36 
Q 684 19 347 128 
L 347 722 
Q 666 556 975 473 
Q 1284 391 1588 391 
Q 1994 391 2212 530 
Q 2431 669 2431 922 
Q 2431 1156 2273 1281 
Q 2116 1406 1581 1522 
L 1381 1569 
Q 847 1681 609 1914 
Q 372 2147 372 2553 
Q 372 3047 722 3315 
Q 1072 3584 1716 3584 
Q 2034 3584 2315 3537 
Q 2597 3491 2834 3397 
z
" transform="scale(0.015625)"/>
       <path id="DejaVuSans-6c" d="M 603 4863 
L 1178 4863 
L 1178 0 
L 603 0 
L 603 4863 
z
" transform="scale(0.015625)"/>
       <path id="DejaVuSans-69" d="M 603 3500 
L 1178 3500 
L 1178 0 
L 603 0 
L 603 3500 
z
M 603 4863 
L 1178 4863 
L 1178 4134 
L 603 4134 
L 603 4863 
z
" transform="scale(0.015625)"/>
       <path id="DejaVuSans-6e" d="M 3513 2113 
L 3513 0 
L 2938 0 
L 2938 2094 
Q 2938 2591 2744 2837 
Q 2550 3084 2163 3084 
Q 1697 3084 1428 2787 
Q 1159 2491 1159 1978 
L 1159 0 
L 581 0 
L 581 3500 
L 1159 3500 
L 1159 2956 
Q 1366 3272 1645 3428 
Q 1925 3584 2291 3584 
Q 2894 3584 3203 3211 
Q 3513 2838 3513 2113 
z
" transform="scale(0.015625)"/>
       <path id="DejaVuSans-6b" d="M 581 4863 
L 1159 4863 
L 1159 1991 
L 2875 3500 
L 3609 3500 
L 1753 1863 
L 3688 0 
L 2938 0 
L 1159 1709 
L 1159 0 
L 581 0 
L 581 4863 
z
" transform="scale(0.015625)"/>
      </defs>
      <use xlink:href="#DejaVuSans-4e"/>
      <use xlink:href="#DejaVuSans-75" x="74.804688"/>
      <use xlink:href="#DejaVuSans-6d" x="138.183594"/>
      <use xlink:href="#DejaVuSans-62" x="235.595703"/>
      <use xlink:href="#DejaVuSans-65" x="299.072266"/>
      <use xlink:href="#DejaVuSans-72" x="360.595703"/>
      <use xlink:href="#DejaVuSans-20" x="401.708984"/>
      <use xlink:href="#DejaVuSans-6f" x="433.496094"/>
      <use xlink:href="#DejaVuSans-66" x="494.677734"/>
      <use xlink:href="#DejaVuSans-20" x="529.882812"/>
      <use xlink:href="#DejaVuSans-63" x="561.669922"/>
      <use xlink:href="#DejaVuSans-72" x="616.650391"/>
      <use xlink:href="#DejaVuSans-6f" x="655.513672"/>
      <use xlink:href="#DejaVuSans-73" x="716.695312"/>
      <use xlink:href="#DejaVuSans-73" x="768.794922"/>
      <use xlink:href="#DejaVuSans-6c" x="820.894531"/>
      <use xlink:href="#DejaVuSans-69" x="848.677734"/>
      <use xlink:href="#DejaVuSans-6e" x="876.460938"/>
      <use xlink:href="#DejaVuSans-6b" x="939.839844"/>
      <use xlink:href="#DejaVuSans-73" x="997.75"/>
     </g>
    </g>
   </g>
   <g id="patch_3">
    <path d="M 57.6 307.584 
L 57.6 41.472 
" style="fill: none; stroke: #000000; stroke-width: 0.8; stroke-linejoin: miter; stroke-linecap: square"/>
   </g>
   <g id="patch_4">
    <path d="M 414.72 307.584 
L 414.72 41.472 
" style="fill: none; stroke: #000000; stroke-width: 0.8; stroke-linejoin: miter; stroke-linecap: square"/>
   </g>
   <g id="patch_5">
    <path d="M 57.6 307.584 
L 414.72 307.584 
" style="fill: none; stroke: #000000; stroke-width: 0.8; stroke-linejoin: miter; stroke-linecap: square"/>
   </g>
   <g id="patch_6">
    <path d="M 57.6 41.472 
L 414.72 41.472 
" style="fill: none; stroke: #000000; stroke-width: 0.8; stroke-linejoin: miter; stroke-linecap: square"/>
   </g>
   <g id="legend_1">
    <g id="patch_7">
     <path d="M 293.087188 93.506375 
L 407.72 93.506375 
Q 409.72 93.506375 409.72 91.506375 
L 409.72 48.472 
Q 409.72 46.472 407.72 46.472 
L 293.087188 46.472 
Q 291.087188 46.472 291.087188 48.472 
L 291.087188 91.506375 
Q 291.087188 93.506375 293.087188 93.506375 
z
" style="fill: #ffffff; opacity: 0.8; stroke: #cccccc; stroke-linejoin: miter"/>
    </g>
    <g id="patch_8">
     <path d="M 295.087188 58.070438 
L 315.087188 58.070438 
L 315.087188 51.070438 
L 295.087188 51.070438 
z
" style="fill: #008000"/>
    </g>
    <g id="text_17">
     <!-- true -->
     <g transform="translate(323.087188 58.070438) scale(0.1 -0.1)">
      <defs>
       <path id="DejaVuSans-74" d="M 1172 4494 
L 1172 3500 
L 2356 3500 
L 2356 3053 
L 1172 3053 
L 1172 1153 
Q 1172 725 1289 603 
Q 1406 481 1766 481 
L 2356 481 
L 2356 0 
L 1766 0 
Q 1100 0 847 248 
Q 594 497 594 1153 
L 594 3053 
L 172 3053 
L 172 3500 
L 594 3500 
L 594 4494 
L 1172 4494 
z
" transform="scale(0.015625)"/>
      </defs>
      <use xlink:href="#DejaVuSans-74"/>
      <use xlink:href="#DejaVuSans-72" x="39.208984"/>
      <use xlink:href="#DejaVuSans-75" x="80.322266"/>
      <use xlink:href="#DejaVuSans-65" x="143.701172"/>
     </g>
    </g>
    <g id="patch_9">
     <path d="M 295.087188 72.748563 
L 315.087188 72.748563 
L 315.087188 65.748563 
L 295.087188 65.748563 
z
" style="fill: #7cfc00"/>
    </g>
    <g id="text_18">
     <!-- true homeotypic -->
     <g transform="translate(323.087188 72.748563) scale(0.1 -0.1)">
      <defs>
       <path id="DejaVuSans-68" d="M 3513 2113 
L 3513 0 
L 2938 0 
L 2938 2094 
Q 2938 2591 2744 2837 
Q 2550 3084 2163 3084 
Q 1697 3084 1428 2787 
Q 1159 2491 1159 1978 
L 1159 0 
L 581 0 
L 581 4863 
L 1159 4863 
L 1159 2956 
Q 1366 3272 1645 3428 
Q 1925 3584 2291 3584 
Q 2894 3584 3203 3211 
Q 3513 2838 3513 2113 
z
" transform="scale(0.015625)"/>
       <path id="DejaVuSans-79" d="M 2059 -325 
Q 1816 -950 1584 -1140 
Q 1353 -1331 966 -1331 
L 506 -1331 
L 506 -850 
L 844 -850 
Q 1081 -850 1212 -737 
Q 1344 -625 1503 -206 
L 1606 56 
L 191 3500 
L 800 3500 
L 1894 763 
L 2988 3500 
L 3597 3500 
L 2059 -325 
z
" transform="scale(0.015625)"/>
       <path id="DejaVuSans-70" d="M 1159 525 
L 1159 -1331 
L 581 -1331 
L 581 3500 
L 1159 3500 
L 1159 2969 
Q 1341 3281 1617 3432 
Q 1894 3584 2278 3584 
Q 2916 3584 3314 3078 
Q 3713 2572 3713 1747 
Q 3713 922 3314 415 
Q 2916 -91 2278 -91 
Q 1894 -91 1617 61 
Q 1341 213 1159 525 
z
M 3116 1747 
Q 3116 2381 2855 2742 
Q 2594 3103 2138 3103 
Q 1681 3103 1420 2742 
Q 1159 2381 1159 1747 
Q 1159 1113 1420 752 
Q 1681 391 2138 391 
Q 2594 391 2855 752 
Q 3116 1113 3116 1747 
z
" transform="scale(0.015625)"/>
      </defs>
      <use xlink:href="#DejaVuSans-74"/>
      <use xlink:href="#DejaVuSans-72" x="39.208984"/>
      <use xlink:href="#DejaVuSans-75" x="80.322266"/>
      <use xlink:href="#DejaVuSans-65" x="143.701172"/>
      <use xlink:href="#DejaVuSans-20" x="205.224609"/>
      <use xlink:href="#DejaVuSans-68" x="237.011719"/>
      <use xlink:href="#DejaVuSans-6f" x="300.390625"/>
      <use xlink:href="#DejaVuSans-6d" x="361.572266"/>
      <use xlink:href="#DejaVuSans-65" x="458.984375"/>
      <use xlink:href="#DejaVuSans-6f" x="520.507812"/>
      <use xlink:href="#DejaVuSans-74" x="581.689453"/>
      <use xlink:href="#DejaVuSans-79" x="620.898438"/>
      <use xlink:href="#DejaVuSans-70" x="680.078125"/>
      <use xlink:href="#DejaVuSans-69" x="743.554688"/>
      <use xlink:href="#DejaVuSans-63" x="771.337891"/>
     </g>
    </g>
    <g id="patch_10">
     <path d="M 295.087188 87.426688 
L 315.087188 87.426688 
L 315.087188 80.426688 
L 295.087188 80.426688 
z
" style="fill: #ff0000"/>
    </g>
    <g id="text_19">
     <!-- false -->
     <g transform="translate(323.087188 87.426688) scale(0.1 -0.1)">
      <defs>
       <path id="DejaVuSans-61" d="M 2194 1759 
Q 1497 1759 1228 1600 
Q 959 1441 959 1056 
Q 959 750 1161 570 
Q 1363 391 1709 391 
Q 2188 391 2477 730 
Q 2766 1069 2766 1631 
L 2766 1759 
L 2194 1759 
z
M 3341 1997 
L 3341 0 
L 2766 0 
L 2766 531 
Q 2569 213 2275 61 
Q 1981 -91 1556 -91 
Q 1019 -91 701 211 
Q 384 513 384 1019 
Q 384 1609 779 1909 
Q 1175 2209 1959 2209 
L 2766 2209 
L 2766 2266 
Q 2766 2663 2505 2880 
Q 2244 3097 1772 3097 
Q 1472 3097 1187 3025 
Q 903 2953 641 2809 
L 641 3341 
Q 956 3463 1253 3523 
Q 1550 3584 1831 3584 
Q 2591 3584 2966 3190 
Q 3341 2797 3341 1997 
z
" transform="scale(0.015625)"/>
      </defs>
      <use xlink:href="#DejaVuSans-66"/>
      <use xlink:href="#DejaVuSans-61" x="35.205078"/>
      <use xlink:href="#DejaVuSans-6c" x="96.484375"/>
      <use xlink:href="#DejaVuSans-73" x="124.267578"/>
      <use xlink:href="#DejaVuSans-65" x="176.367188"/>
     </g>
    </g>
   </g>
  </g>
 </g>
 <defs>
  <clipPath id="p10af3d803d">
   <rect x="57.6" y="41.472" width="357.12" height="266.112"/>
  </clipPath>
 </defs>
</svg>
