<?xml version="1.0" encoding="utf-8" standalone="no"?>
<!DOCTYPE svg PUBLIC "-//W3C//DTD SVG 1.1//EN"
  "http://www.w3.org/Graphics/SVG/1.1/DTD/svg11.dtd">
<svg xmlns:xlink="http://www.w3.org/1999/xlink" width="460.8pt" height="345.6pt" viewBox="0 0 460.8 345.6" xmlns="http://www.w3.org/2000/svg" version="1.1">
 <metadata>
  <rdf:RDF xmlns:dc="http://purl.org/dc/elements/1.1/" xmlns:cc="http://creativecommons.org/ns#" xmlns:rdf="http://www.w3.org/1999/02/22-rdf-syntax-ns#">
   <cc:Work>
    <dc:type rdf:resource="http://purl.org/dc/dcmitype/StillImage"/>
    <dc:date>2024-06-29T19:24:21.879211</dc:date>
    <dc:format>image/svg+xml</dc:format>
    <dc:creator>
     <cc:Agent>
      <dc:title>Matplotlib v3.9.0, https://matplotlib.org/</dc:title>
     </cc:Agent>
    </dc:creator>
   </cc:Work>
  </rdf:RDF>
 </metadata>
 <defs>
  <style type="text/css">*{stroke-linejoin: round; stroke-linecap: butt}</style>
 </defs>
 <g id="figure_1">
  <g id="patch_1">
   <path d="M 0 345.6 
L 460.8 345.6 
L 460.8 0 
L 0 0 
z
" style="fill: #ffffff"/>
  </g>
  <g id="axes_1">
   <g id="patch_2">
    <path d="M 57.6 307.584 
L 414.72 307.584 
L 414.72 41.472 
L 57.6 41.472 
z
" style="fill: #ffffff"/>
   </g>
   <g id="PolyCollection_1">
    <path d="M 73.832727 121.728 
L 73.832727 307.584 
L 74.202896 307.584 
L 74.287025 307.584 
L 76.40708 307.584 
L 76.709946 307.584 
L 77.349327 307.584 
L 77.399805 307.584 
L 77.551237 307.584 
L 77.955058 307.584 
L 78.880479 307.584 
L 80.20972 307.584 
L 80.596714 307.584 
L 80.61354 307.584 
L 82.178343 307.584 
L 82.464382 307.584 
L 83.053287 307.584 
L 84.163792 307.584 
L 84.281573 307.584 
L 85.42573 307.584 
L 86.250196 307.584 
L 88.353426 307.584 
L 89.329324 307.584 
L 89.379802 307.584 
L 90.305223 307.584 
L 90.860475 307.584 
L 93.8723 307.584 
L 94.124688 307.584 
L 95.16789 307.584 
L 95.874575 307.584 
L 98.751793 307.584 
L 98.785445 307.584 
L 99.391175 307.584 
L 102.756343 307.584 
L 106.104685 307.584 
L 106.575808 307.584 
L 108.342521 307.584 
L 109.570807 307.584 
L 111.404824 307.584 
L 112.380722 307.584 
L 112.818194 307.584 
L 114.568081 307.584 
L 122.627658 307.584 
L 125.067404 307.584 
L 126.58173 307.584 
L 128.550353 307.584 
L 130.939622 307.584 
L 132.672683 307.584 
L 132.857767 307.584 
L 133.41302 307.584 
L 136.441671 307.584 
L 138.107429 307.584 
L 140.412568 307.584 
L 142.902793 307.584 
L 144.787286 307.584 
L 147.395291 307.584 
L 149.077875 307.584 
L 151.955093 307.584 
L 152.426217 307.584 
L 155.20248 307.584 
L 158.096524 307.584 
L 159.240681 307.584 
L 160.300709 307.584 
L 160.721355 307.584 
L 161.764557 307.584 
L 163.548096 307.584 
L 164.153826 307.584 
L 165.163376 307.584 
L 167.73773 307.584 
L 167.922814 307.584 
L 168.494892 307.584 
L 173.206127 307.584 
L 174.787756 307.584 
L 179.229777 307.584 
L 184.950562 307.584 
L 187.861432 307.584 
L 188.416684 307.584 
L 196.392132 307.584 
L 196.661345 307.584 
L 199.303002 307.584 
L 205.023787 307.584 
L 207.143842 307.584 
L 213.554487 307.584 
L 214.732295 307.584 
L 221.900102 307.584 
L 222.489007 307.584 
L 224.289371 307.584 
L 230.599061 307.584 
L 231.002881 307.584 
L 234.670913 307.584 
L 240.694563 307.584 
L 251.328493 307.584 
L 252.47265 307.584 
L 255.265739 307.584 
L 255.619082 307.584 
L 280.386715 307.584 
L 285.552248 307.584 
L 294.655026 307.584 
L 303.57272 307.584 
L 305.861034 307.584 
L 342.288974 307.584 
L 346.495433 307.584 
L 376.832419 307.584 
L 398.487273 307.584 
L 398.487273 307.584 
L 398.487273 307.584 
L 376.832419 307.584 
L 346.495433 305.170286 
L 342.288974 305.170286 
L 305.861034 305.170286 
L 303.57272 305.170286 
L 294.655026 302.756571 
L 285.552248 302.756571 
L 280.386715 300.342857 
L 255.619082 300.342857 
L 255.265739 300.342857 
L 252.47265 300.342857 
L 251.328493 300.342857 
L 240.694563 297.929143 
L 234.670913 297.929143 
L 231.002881 295.515429 
L 230.599061 290.688 
L 224.289371 290.688 
L 222.489007 288.274286 
L 221.900102 285.860571 
L 214.732295 283.446857 
L 213.554487 283.446857 
L 207.143842 281.033143 
L 205.023787 278.619429 
L 199.303002 278.619429 
L 196.661345 276.205714 
L 196.392132 273.792 
L 188.416684 271.378286 
L 187.861432 271.378286 
L 184.950562 271.378286 
L 179.229777 271.378286 
L 174.787756 271.378286 
L 173.206127 268.964571 
L 168.494892 266.550857 
L 167.922814 264.137143 
L 167.73773 261.723429 
L 165.163376 259.309714 
L 164.153826 259.309714 
L 163.548096 259.309714 
L 161.764557 256.896 
L 160.721355 254.482286 
L 160.300709 252.068571 
L 159.240681 249.654857 
L 158.096524 247.241143 
L 155.20248 247.241143 
L 152.426217 244.827429 
L 151.955093 242.413714 
L 149.077875 240 
L 147.395291 237.586286 
L 144.787286 235.172571 
L 142.902793 232.758857 
L 140.412568 230.345143 
L 138.107429 227.931429 
L 136.441671 225.517714 
L 133.41302 223.104 
L 132.857767 220.690286 
L 132.672683 218.276571 
L 130.939622 215.862857 
L 128.550353 213.449143 
L 126.58173 211.035429 
L 125.067404 208.621714 
L 122.627658 206.208 
L 114.568081 203.794286 
L 112.818194 201.380571 
L 112.380722 198.966857 
L 111.404824 196.553143 
L 109.570807 194.139429 
L 108.342521 191.725714 
L 106.575808 189.312 
L 106.104685 186.898286 
L 102.756343 184.484571 
L 99.391175 184.484571 
L 98.785445 182.070857 
L 98.751793 179.657143 
L 95.874575 177.243429 
L 95.16789 174.829714 
L 94.124688 172.416 
L 93.8723 170.002286 
L 90.860475 167.588571 
L 90.305223 162.761143 
L 89.379802 160.347429 
L 89.329324 157.933714 
L 88.353426 155.52 
L 86.250196 155.52 
L 85.42573 155.52 
L 84.281573 153.106286 
L 84.163792 150.692571 
L 83.053287 148.278857 
L 82.464382 148.278857 
L 82.178343 145.865143 
L 80.61354 145.865143 
L 80.596714 145.865143 
L 80.20972 143.451429 
L 78.880479 141.037714 
L 77.955058 138.624 
L 77.551237 136.210286 
L 77.399805 133.796571 
L 77.349327 131.382857 
L 76.709946 131.382857 
L 76.40708 128.969143 
L 74.287025 126.555429 
L 74.202896 124.141714 
L 73.832727 121.728 
z
" clip-path="url(#p007ad40b3f)" style="fill: #008000"/>
   </g>
   <g id="PolyCollection_2">
    <path d="M 73.832727 68.626286 
L 73.832727 121.728 
L 74.202896 124.141714 
L 74.287025 126.555429 
L 76.40708 128.969143 
L 76.709946 131.382857 
L 77.349327 131.382857 
L 77.399805 133.796571 
L 77.551237 136.210286 
L 77.955058 138.624 
L 78.880479 141.037714 
L 80.20972 143.451429 
L 80.596714 145.865143 
L 80.61354 145.865143 
L 82.178343 145.865143 
L 82.464382 148.278857 
L 83.053287 148.278857 
L 84.163792 150.692571 
L 84.281573 153.106286 
L 85.42573 155.52 
L 86.250196 155.52 
L 88.353426 155.52 
L 89.329324 157.933714 
L 89.379802 160.347429 
L 90.305223 162.761143 
L 90.860475 167.588571 
L 93.8723 170.002286 
L 94.124688 172.416 
L 95.16789 174.829714 
L 95.874575 177.243429 
L 98.751793 179.657143 
L 98.785445 182.070857 
L 99.391175 184.484571 
L 102.756343 184.484571 
L 106.104685 186.898286 
L 106.575808 189.312 
L 108.342521 191.725714 
L 109.570807 194.139429 
L 111.404824 196.553143 
L 112.380722 198.966857 
L 112.818194 201.380571 
L 114.568081 203.794286 
L 122.627658 206.208 
L 125.067404 208.621714 
L 126.58173 211.035429 
L 128.550353 213.449143 
L 130.939622 215.862857 
L 132.672683 218.276571 
L 132.857767 220.690286 
L 133.41302 223.104 
L 136.441671 225.517714 
L 138.107429 227.931429 
L 140.412568 230.345143 
L 142.902793 232.758857 
L 144.787286 235.172571 
L 147.395291 237.586286 
L 149.077875 240 
L 151.955093 242.413714 
L 152.426217 244.827429 
L 155.20248 247.241143 
L 158.096524 247.241143 
L 159.240681 249.654857 
L 160.300709 252.068571 
L 160.721355 254.482286 
L 161.764557 256.896 
L 163.548096 259.309714 
L 164.153826 259.309714 
L 165.163376 259.309714 
L 167.73773 261.723429 
L 167.922814 264.137143 
L 168.494892 266.550857 
L 173.206127 268.964571 
L 174.787756 271.378286 
L 179.229777 271.378286 
L 184.950562 271.378286 
L 187.861432 271.378286 
L 188.416684 271.378286 
L 196.392132 273.792 
L 196.661345 276.205714 
L 199.303002 278.619429 
L 205.023787 278.619429 
L 207.143842 281.033143 
L 213.554487 283.446857 
L 214.732295 283.446857 
L 221.900102 285.860571 
L 222.489007 288.274286 
L 224.289371 290.688 
L 230.599061 290.688 
L 231.002881 295.515429 
L 234.670913 297.929143 
L 240.694563 297.929143 
L 251.328493 300.342857 
L 252.47265 300.342857 
L 255.265739 300.342857 
L 255.619082 300.342857 
L 280.386715 300.342857 
L 285.552248 302.756571 
L 294.655026 302.756571 
L 303.57272 305.170286 
L 305.861034 305.170286 
L 342.288974 305.170286 
L 346.495433 305.170286 
L 376.832419 307.584 
L 398.487273 307.584 
L 398.487273 305.170286 
L 398.487273 305.170286 
L 376.832419 302.756571 
L 346.495433 300.342857 
L 342.288974 297.929143 
L 305.861034 295.515429 
L 303.57272 293.101714 
L 294.655026 290.688 
L 285.552248 288.274286 
L 280.386715 285.860571 
L 255.619082 283.446857 
L 255.265739 281.033143 
L 252.47265 278.619429 
L 251.328493 276.205714 
L 240.694563 273.792 
L 234.670913 271.378286 
L 231.002881 268.964571 
L 230.599061 264.137143 
L 224.289371 261.723429 
L 222.489007 259.309714 
L 221.900102 256.896 
L 214.732295 254.482286 
L 213.554487 252.068571 
L 207.143842 249.654857 
L 205.023787 247.241143 
L 199.303002 244.827429 
L 196.661345 242.413714 
L 196.392132 240 
L 188.416684 237.586286 
L 187.861432 237.586286 
L 184.950562 235.172571 
L 179.229777 235.172571 
L 174.787756 232.758857 
L 173.206127 230.345143 
L 168.494892 227.931429 
L 167.922814 225.517714 
L 167.73773 223.104 
L 165.163376 220.690286 
L 164.153826 218.276571 
L 163.548096 215.862857 
L 161.764557 213.449143 
L 160.721355 211.035429 
L 160.300709 208.621714 
L 159.240681 206.208 
L 158.096524 203.794286 
L 155.20248 201.380571 
L 152.426217 198.966857 
L 151.955093 196.553143 
L 149.077875 194.139429 
L 147.395291 191.725714 
L 144.787286 189.312 
L 142.902793 186.898286 
L 140.412568 184.484571 
L 138.107429 182.070857 
L 136.441671 179.657143 
L 133.41302 177.243429 
L 132.857767 174.829714 
L 132.672683 172.416 
L 130.939622 170.002286 
L 128.550353 167.588571 
L 126.58173 165.174857 
L 125.067404 162.761143 
L 122.627658 160.347429 
L 114.568081 157.933714 
L 112.818194 155.52 
L 112.380722 153.106286 
L 111.404824 150.692571 
L 109.570807 148.278857 
L 108.342521 145.865143 
L 106.575808 143.451429 
L 106.104685 141.037714 
L 102.756343 138.624 
L 99.391175 138.624 
L 98.785445 136.210286 
L 98.751793 133.796571 
L 95.874575 131.382857 
L 95.16789 128.969143 
L 94.124688 126.555429 
L 93.8723 124.141714 
L 90.860475 121.728 
L 90.305223 116.900571 
L 89.379802 114.486857 
L 89.329324 112.073143 
L 88.353426 109.659429 
L 86.250196 107.245714 
L 85.42573 104.832 
L 84.281573 102.418286 
L 84.163792 100.004571 
L 83.053287 97.590857 
L 82.464382 97.590857 
L 82.178343 95.177143 
L 80.61354 95.177143 
L 80.596714 95.177143 
L 80.20972 92.763429 
L 78.880479 90.349714 
L 77.955058 87.936 
L 77.551237 85.522286 
L 77.399805 83.108571 
L 77.349327 80.694857 
L 76.709946 78.281143 
L 76.40708 75.867429 
L 74.287025 73.453714 
L 74.202896 71.04 
L 73.832727 68.626286 
z
" clip-path="url(#p007ad40b3f)" style="fill: #7cfc00"/>
   </g>
   <g id="PolyCollection_3">
    <path d="M 73.832727 54.144 
L 73.832727 68.626286 
L 74.202896 71.04 
L 74.287025 73.453714 
L 76.40708 75.867429 
L 76.709946 78.281143 
L 77.349327 80.694857 
L 77.399805 83.108571 
L 77.551237 85.522286 
L 77.955058 87.936 
L 78.880479 90.349714 
L 80.20972 92.763429 
L 80.596714 95.177143 
L 80.61354 95.177143 
L 82.178343 95.177143 
L 82.464382 97.590857 
L 83.053287 97.590857 
L 84.163792 100.004571 
L 84.281573 102.418286 
L 85.42573 104.832 
L 86.250196 107.245714 
L 88.353426 109.659429 
L 89.329324 112.073143 
L 89.379802 114.486857 
L 90.305223 116.900571 
L 90.860475 121.728 
L 93.8723 124.141714 
L 94.124688 126.555429 
L 95.16789 128.969143 
L 95.874575 131.382857 
L 98.751793 133.796571 
L 98.785445 136.210286 
L 99.391175 138.624 
L 102.756343 138.624 
L 106.104685 141.037714 
L 106.575808 143.451429 
L 108.342521 145.865143 
L 109.570807 148.278857 
L 111.404824 150.692571 
L 112.380722 153.106286 
L 112.818194 155.52 
L 114.568081 157.933714 
L 122.627658 160.347429 
L 125.067404 162.761143 
L 126.58173 165.174857 
L 128.550353 167.588571 
L 130.939622 170.002286 
L 132.672683 172.416 
L 132.857767 174.829714 
L 133.41302 177.243429 
L 136.441671 179.657143 
L 138.107429 182.070857 
L 140.412568 184.484571 
L 142.902793 186.898286 
L 144.787286 189.312 
L 147.395291 191.725714 
L 149.077875 194.139429 
L 151.955093 196.553143 
L 152.426217 198.966857 
L 155.20248 201.380571 
L 158.096524 203.794286 
L 159.240681 206.208 
L 160.300709 208.621714 
L 160.721355 211.035429 
L 161.764557 213.449143 
L 163.548096 215.862857 
L 164.153826 218.276571 
L 165.163376 220.690286 
L 167.73773 223.104 
L 167.922814 225.517714 
L 168.494892 227.931429 
L 173.206127 230.345143 
L 174.787756 232.758857 
L 179.229777 235.172571 
L 184.950562 235.172571 
L 187.861432 237.586286 
L 188.416684 237.586286 
L 196.392132 240 
L 196.661345 242.413714 
L 199.303002 244.827429 
L 205.023787 247.241143 
L 207.143842 249.654857 
L 213.554487 252.068571 
L 214.732295 254.482286 
L 221.900102 256.896 
L 222.489007 259.309714 
L 224.289371 261.723429 
L 230.599061 264.137143 
L 231.002881 268.964571 
L 234.670913 271.378286 
L 240.694563 273.792 
L 251.328493 276.205714 
L 252.47265 278.619429 
L 255.265739 281.033143 
L 255.619082 283.446857 
L 280.386715 285.860571 
L 285.552248 288.274286 
L 294.655026 290.688 
L 303.57272 293.101714 
L 305.861034 295.515429 
L 342.288974 297.929143 
L 346.495433 300.342857 
L 376.832419 302.756571 
L 398.487273 305.170286 
L 398.487273 305.170286 
L 398.487273 305.170286 
L 376.832419 302.756571 
L 346.495433 300.342857 
L 342.288974 297.929143 
L 305.861034 295.515429 
L 303.57272 293.101714 
L 294.655026 290.688 
L 285.552248 288.274286 
L 280.386715 285.860571 
L 255.619082 283.446857 
L 255.265739 281.033143 
L 252.47265 278.619429 
L 251.328493 276.205714 
L 240.694563 273.792 
L 234.670913 271.378286 
L 231.002881 268.964571 
L 230.599061 264.137143 
L 224.289371 261.723429 
L 222.489007 259.309714 
L 221.900102 256.896 
L 214.732295 254.482286 
L 213.554487 252.068571 
L 207.143842 249.654857 
L 205.023787 247.241143 
L 199.303002 244.827429 
L 196.661345 242.413714 
L 196.392132 240 
L 188.416684 237.586286 
L 187.861432 235.172571 
L 184.950562 232.758857 
L 179.229777 230.345143 
L 174.787756 227.931429 
L 173.206127 225.517714 
L 168.494892 223.104 
L 167.922814 220.690286 
L 167.73773 218.276571 
L 165.163376 215.862857 
L 164.153826 213.449143 
L 163.548096 211.035429 
L 161.764557 208.621714 
L 160.721355 206.208 
L 160.300709 203.794286 
L 159.240681 201.380571 
L 158.096524 198.966857 
L 155.20248 196.553143 
L 152.426217 194.139429 
L 151.955093 191.725714 
L 149.077875 189.312 
L 147.395291 186.898286 
L 144.787286 184.484571 
L 142.902793 182.070857 
L 140.412568 179.657143 
L 138.107429 177.243429 
L 136.441671 174.829714 
L 133.41302 172.416 
L 132.857767 170.002286 
L 132.672683 167.588571 
L 130.939622 165.174857 
L 128.550353 162.761143 
L 126.58173 160.347429 
L 125.067404 157.933714 
L 122.627658 155.52 
L 114.568081 153.106286 
L 112.818194 150.692571 
L 112.380722 148.278857 
L 111.404824 145.865143 
L 109.570807 143.451429 
L 108.342521 141.037714 
L 106.575808 138.624 
L 106.104685 136.210286 
L 102.756343 133.796571 
L 99.391175 131.382857 
L 98.785445 128.969143 
L 98.751793 126.555429 
L 95.874575 124.141714 
L 95.16789 121.728 
L 94.124688 119.314286 
L 93.8723 116.900571 
L 90.860475 114.486857 
L 90.305223 109.659429 
L 89.379802 107.245714 
L 89.329324 104.832 
L 88.353426 102.418286 
L 86.250196 100.004571 
L 85.42573 97.590857 
L 84.281573 95.177143 
L 84.163792 92.763429 
L 83.053287 90.349714 
L 82.464382 87.936 
L 82.178343 85.522286 
L 80.61354 83.108571 
L 80.596714 80.694857 
L 80.20972 78.281143 
L 78.880479 75.867429 
L 77.955058 73.453714 
L 77.551237 71.04 
L 77.399805 68.626286 
L 77.349327 66.212571 
L 76.709946 63.798857 
L 76.40708 61.385143 
L 74.287025 58.971429 
L 74.202896 56.557714 
L 73.832727 54.144 
z
" clip-path="url(#p007ad40b3f)" style="fill: #ff0000"/>
   </g>
   <g id="matplotlib.axis_1">
    <g id="xtick_1">
     <g id="line2d_1">
      <defs>
       <path id="m085ec5bcaf" d="M 0 0 
L 0 3.5 
" style="stroke: #000000; stroke-width: 0.8"/>
      </defs>
      <g>
       <use xlink:href="#m085ec5bcaf" x="82.901854" y="307.584" style="stroke: #000000; stroke-width: 0.8"/>
      </g>
     </g>
     <g id="text_1">
      <!-- 100 -->
      <g transform="translate(73.358104 322.182437) scale(0.1 -0.1)">
       <defs>
        <path id="DejaVuSans-31" d="M 794 531 
L 1825 531 
L 1825 4091 
L 703 3866 
L 703 4441 
L 1819 4666 
L 2450 4666 
L 2450 531 
L 3481 531 
L 3481 0 
L 794 0 
L 794 531 
z
" transform="scale(0.015625)"/>
        <path id="DejaVuSans-30" d="M 2034 4250 
Q 1547 4250 1301 3770 
Q 1056 3291 1056 2328 
Q 1056 1369 1301 889 
Q 1547 409 2034 409 
Q 2525 409 2770 889 
Q 3016 1369 3016 2328 
Q 3016 3291 2770 3770 
Q 2525 4250 2034 4250 
z
M 2034 4750 
Q 2819 4750 3233 4129 
Q 3647 3509 3647 2328 
Q 3647 1150 3233 529 
Q 2819 -91 2034 -91 
Q 1250 -91 836 529 
Q 422 1150 422 2328 
Q 422 3509 836 4129 
Q 1250 4750 2034 4750 
z
" transform="scale(0.015625)"/>
       </defs>
       <use xlink:href="#DejaVuSans-31"/>
       <use xlink:href="#DejaVuSans-30" x="63.623047"/>
       <use xlink:href="#DejaVuSans-30" x="127.246094"/>
      </g>
     </g>
    </g>
    <g id="xtick_2">
     <g id="line2d_2">
      <g>
       <use xlink:href="#m085ec5bcaf" x="124.966449" y="307.584" style="stroke: #000000; stroke-width: 0.8"/>
      </g>
     </g>
     <g id="text_2">
      <!-- 125 -->
      <g transform="translate(115.422699 322.182437) scale(0.1 -0.1)">
       <defs>
        <path id="DejaVuSans-32" d="M 1228 531 
L 3431 531 
L 3431 0 
L 469 0 
L 469 531 
Q 828 903 1448 1529 
Q 2069 2156 2228 2338 
Q 2531 2678 2651 2914 
Q 2772 3150 2772 3378 
Q 2772 3750 2511 3984 
Q 2250 4219 1831 4219 
Q 1534 4219 1204 4116 
Q 875 4013 500 3803 
L 500 4441 
Q 881 4594 1212 4672 
Q 1544 4750 1819 4750 
Q 2544 4750 2975 4387 
Q 3406 4025 3406 3419 
Q 3406 3131 3298 2873 
Q 3191 2616 2906 2266 
Q 2828 2175 2409 1742 
Q 1991 1309 1228 531 
z
" transform="scale(0.015625)"/>
        <path id="DejaVuSans-35" d="M 691 4666 
L 3169 4666 
L 3169 4134 
L 1269 4134 
L 1269 2991 
Q 1406 3038 1543 3061 
Q 1681 3084 1819 3084 
Q 2600 3084 3056 2656 
Q 3513 2228 3513 1497 
Q 3513 744 3044 326 
Q 2575 -91 1722 -91 
Q 1428 -91 1123 -41 
Q 819 9 494 109 
L 494 744 
Q 775 591 1075 516 
Q 1375 441 1709 441 
Q 2250 441 2565 725 
Q 2881 1009 2881 1497 
Q 2881 1984 2565 2268 
Q 2250 2553 1709 2553 
Q 1456 2553 1204 2497 
Q 953 2441 691 2322 
L 691 4666 
z
" transform="scale(0.015625)"/>
       </defs>
       <use xlink:href="#DejaVuSans-31"/>
       <use xlink:href="#DejaVuSans-32" x="63.623047"/>
       <use xlink:href="#DejaVuSans-35" x="127.246094"/>
      </g>
     </g>
    </g>
    <g id="xtick_3">
     <g id="line2d_3">
      <g>
       <use xlink:href="#m085ec5bcaf" x="167.031044" y="307.584" style="stroke: #000000; stroke-width: 0.8"/>
      </g>
     </g>
     <g id="text_3">
      <!-- 150 -->
      <g transform="translate(157.487294 322.182437) scale(0.1 -0.1)">
       <use xlink:href="#DejaVuSans-31"/>
       <use xlink:href="#DejaVuSans-35" x="63.623047"/>
       <use xlink:href="#DejaVuSans-30" x="127.246094"/>
      </g>
     </g>
    </g>
    <g id="xtick_4">
     <g id="line2d_4">
      <g>
       <use xlink:href="#m085ec5bcaf" x="209.095639" y="307.584" style="stroke: #000000; stroke-width: 0.8"/>
      </g>
     </g>
     <g id="text_4">
      <!-- 175 -->
      <g transform="translate(199.551889 322.182437) scale(0.1 -0.1)">
       <defs>
        <path id="DejaVuSans-37" d="M 525 4666 
L 3525 4666 
L 3525 4397 
L 1831 0 
L 1172 0 
L 2766 4134 
L 525 4134 
L 525 4666 
z
" transform="scale(0.015625)"/>
       </defs>
       <use xlink:href="#DejaVuSans-31"/>
       <use xlink:href="#DejaVuSans-37" x="63.623047"/>
       <use xlink:href="#DejaVuSans-35" x="127.246094"/>
      </g>
     </g>
    </g>
    <g id="xtick_5">
     <g id="line2d_5">
      <g>
       <use xlink:href="#m085ec5bcaf" x="251.160235" y="307.584" style="stroke: #000000; stroke-width: 0.8"/>
      </g>
     </g>
     <g id="text_5">
      <!-- 200 -->
      <g transform="translate(241.616485 322.182437) scale(0.1 -0.1)">
       <use xlink:href="#DejaVuSans-32"/>
       <use xlink:href="#DejaVuSans-30" x="63.623047"/>
       <use xlink:href="#DejaVuSans-30" x="127.246094"/>
      </g>
     </g>
    </g>
    <g id="xtick_6">
     <g id="line2d_6">
      <g>
       <use xlink:href="#m085ec5bcaf" x="293.22483" y="307.584" style="stroke: #000000; stroke-width: 0.8"/>
      </g>
     </g>
     <g id="text_6">
      <!-- 225 -->
      <g transform="translate(283.68108 322.182437) scale(0.1 -0.1)">
       <use xlink:href="#DejaVuSans-32"/>
       <use xlink:href="#DejaVuSans-32" x="63.623047"/>
       <use xlink:href="#DejaVuSans-35" x="127.246094"/>
      </g>
     </g>
    </g>
    <g id="xtick_7">
     <g id="line2d_7">
      <g>
       <use xlink:href="#m085ec5bcaf" x="335.289425" y="307.584" style="stroke: #000000; stroke-width: 0.8"/>
      </g>
     </g>
     <g id="text_7">
      <!-- 250 -->
      <g transform="translate(325.745675 322.182437) scale(0.1 -0.1)">
       <use xlink:href="#DejaVuSans-32"/>
       <use xlink:href="#DejaVuSans-35" x="63.623047"/>
       <use xlink:href="#DejaVuSans-30" x="127.246094"/>
      </g>
     </g>
    </g>
    <g id="xtick_8">
     <g id="line2d_8">
      <g>
       <use xlink:href="#m085ec5bcaf" x="377.35402" y="307.584" style="stroke: #000000; stroke-width: 0.8"/>
      </g>
     </g>
     <g id="text_8">
      <!-- 275 -->
      <g transform="translate(367.81027 322.182437) scale(0.1 -0.1)">
       <use xlink:href="#DejaVuSans-32"/>
       <use xlink:href="#DejaVuSans-37" x="63.623047"/>
       <use xlink:href="#DejaVuSans-35" x="127.246094"/>
      </g>
     </g>
    </g>
    <g id="text_9">
     <!-- Score -->
     <g transform="translate(222.157656 335.860562) scale(0.1 -0.1)">
      <defs>
       <path id="DejaVuSans-53" d="M 3425 4513 
L 3425 3897 
Q 3066 4069 2747 4153 
Q 2428 4238 2131 4238 
Q 1616 4238 1336 4038 
Q 1056 3838 1056 3469 
Q 1056 3159 1242 3001 
Q 1428 2844 1947 2747 
L 2328 2669 
Q 3034 2534 3370 2195 
Q 3706 1856 3706 1288 
Q 3706 609 3251 259 
Q 2797 -91 1919 -91 
Q 1588 -91 1214 -16 
Q 841 59 441 206 
L 441 856 
Q 825 641 1194 531 
Q 1563 422 1919 422 
Q 2459 422 2753 634 
Q 3047 847 3047 1241 
Q 3047 1584 2836 1778 
Q 2625 1972 2144 2069 
L 1759 2144 
Q 1053 2284 737 2584 
Q 422 2884 422 3419 
Q 422 4038 858 4394 
Q 1294 4750 2059 4750 
Q 2388 4750 2728 4690 
Q 3069 4631 3425 4513 
z
" transform="scale(0.015625)"/>
       <path id="DejaVuSans-63" d="M 3122 3366 
L 3122 2828 
Q 2878 2963 2633 3030 
Q 2388 3097 2138 3097 
Q 1578 3097 1268 2742 
Q 959 2388 959 1747 
Q 959 1106 1268 751 
Q 1578 397 2138 397 
Q 2388 397 2633 464 
Q 2878 531 3122 666 
L 3122 134 
Q 2881 22 2623 -34 
Q 2366 -91 2075 -91 
Q 1284 -91 818 406 
Q 353 903 353 1747 
Q 353 2603 823 3093 
Q 1294 3584 2113 3584 
Q 2378 3584 2631 3529 
Q 2884 3475 3122 3366 
z
" transform="scale(0.015625)"/>
       <path id="DejaVuSans-6f" d="M 1959 3097 
Q 1497 3097 1228 2736 
Q 959 2375 959 1747 
Q 959 1119 1226 758 
Q 1494 397 1959 397 
Q 2419 397 2687 759 
Q 2956 1122 2956 1747 
Q 2956 2369 2687 2733 
Q 2419 3097 1959 3097 
z
M 1959 3584 
Q 2709 3584 3137 3096 
Q 3566 2609 3566 1747 
Q 3566 888 3137 398 
Q 2709 -91 1959 -91 
Q 1206 -91 779 398 
Q 353 888 353 1747 
Q 353 2609 779 3096 
Q 1206 3584 1959 3584 
z
" transform="scale(0.015625)"/>
       <path id="DejaVuSans-72" d="M 2631 2963 
Q 2534 3019 2420 3045 
Q 2306 3072 2169 3072 
Q 1681 3072 1420 2755 
Q 1159 2438 1159 1844 
L 1159 0 
L 581 0 
L 581 3500 
L 1159 3500 
L 1159 2956 
Q 1341 3275 1631 3429 
Q 1922 3584 2338 3584 
Q 2397 3584 2469 3576 
Q 2541 3569 2628 3553 
L 2631 2963 
z
" transform="scale(0.015625)"/>
       <path id="DejaVuSans-65" d="M 3597 1894 
L 3597 1613 
L 953 1613 
Q 991 1019 1311 708 
Q 1631 397 2203 397 
Q 2534 397 2845 478 
Q 3156 559 3463 722 
L 3463 178 
Q 3153 47 2828 -22 
Q 2503 -91 2169 -91 
Q 1331 -91 842 396 
Q 353 884 353 1716 
Q 353 2575 817 3079 
Q 1281 3584 2069 3584 
Q 2775 3584 3186 3129 
Q 3597 2675 3597 1894 
z
M 3022 2063 
Q 3016 2534 2758 2815 
Q 2500 3097 2075 3097 
Q 1594 3097 1305 2825 
Q 1016 2553 972 2059 
L 3022 2063 
z
" transform="scale(0.015625)"/>
      </defs>
      <use xlink:href="#DejaVuSans-53"/>
      <use xlink:href="#DejaVuSans-63" x="63.476562"/>
      <use xlink:href="#DejaVuSans-6f" x="118.457031"/>
      <use xlink:href="#DejaVuSans-72" x="179.638672"/>
      <use xlink:href="#DejaVuSans-65" x="218.501953"/>
     </g>
    </g>
   </g>
   <g id="matplotlib.axis_2">
    <g id="ytick_1">
     <g id="line2d_9">
      <defs>
       <path id="m6be018d97b" d="M 0 0 
L -3.5 0 
" style="stroke: #000000; stroke-width: 0.8"/>
      </defs>
      <g>
       <use xlink:href="#m6be018d97b" x="57.6" y="307.584" style="stroke: #000000; stroke-width: 0.8"/>
      </g>
     </g>
     <g id="text_10">
      <!-- 0 -->
      <g transform="translate(44.2375 311.383219) scale(0.1 -0.1)">
       <use xlink:href="#DejaVuSans-30"/>
      </g>
     </g>
    </g>
    <g id="ytick_2">
     <g id="line2d_10">
      <g>
       <use xlink:href="#m6be018d97b" x="57.6" y="259.309714" style="stroke: #000000; stroke-width: 0.8"/>
      </g>
     </g>
     <g id="text_11">
      <!-- 20 -->
      <g transform="translate(37.875 263.108933) scale(0.1 -0.1)">
       <use xlink:href="#DejaVuSans-32"/>
       <use xlink:href="#DejaVuSans-30" x="63.623047"/>
      </g>
     </g>
    </g>
    <g id="ytick_3">
     <g id="line2d_11">
      <g>
       <use xlink:href="#m6be018d97b" x="57.6" y="211.035429" style="stroke: #000000; stroke-width: 0.8"/>
      </g>
     </g>
     <g id="text_12">
      <!-- 40 -->
      <g transform="translate(37.875 214.834647) scale(0.1 -0.1)">
       <defs>
        <path id="DejaVuSans-34" d="M 2419 4116 
L 825 1625 
L 2419 1625 
L 2419 4116 
z
M 2253 4666 
L 3047 4666 
L 3047 1625 
L 3713 1625 
L 3713 1100 
L 3047 1100 
L 3047 0 
L 2419 0 
L 2419 1100 
L 313 1100 
L 313 1709 
L 2253 4666 
z
" transform="scale(0.015625)"/>
       </defs>
       <use xlink:href="#DejaVuSans-34"/>
       <use xlink:href="#DejaVuSans-30" x="63.623047"/>
      </g>
     </g>
    </g>
    <g id="ytick_4">
     <g id="line2d_12">
      <g>
       <use xlink:href="#m6be018d97b" x="57.6" y="162.761143" style="stroke: #000000; stroke-width: 0.8"/>
      </g>
     </g>
     <g id="text_13">
      <!-- 60 -->
      <g transform="translate(37.875 166.560362) scale(0.1 -0.1)">
       <defs>
        <path id="DejaVuSans-36" d="M 2113 2584 
Q 1688 2584 1439 2293 
Q 1191 2003 1191 1497 
Q 1191 994 1439 701 
Q 1688 409 2113 409 
Q 2538 409 2786 701 
Q 3034 994 3034 1497 
Q 3034 2003 2786 2293 
Q 2538 2584 2113 2584 
z
M 3366 4563 
L 3366 3988 
Q 3128 4100 2886 4159 
Q 2644 4219 2406 4219 
Q 1781 4219 1451 3797 
Q 1122 3375 1075 2522 
Q 1259 2794 1537 2939 
Q 1816 3084 2150 3084 
Q 2853 3084 3261 2657 
Q 3669 2231 3669 1497 
Q 3669 778 3244 343 
Q 2819 -91 2113 -91 
Q 1303 -91 875 529 
Q 447 1150 447 2328 
Q 447 3434 972 4092 
Q 1497 4750 2381 4750 
Q 2619 4750 2861 4703 
Q 3103 4656 3366 4563 
z
" transform="scale(0.015625)"/>
       </defs>
       <use xlink:href="#DejaVuSans-36"/>
       <use xlink:href="#DejaVuSans-30" x="63.623047"/>
      </g>
     </g>
    </g>
    <g id="ytick_5">
     <g id="line2d_13">
      <g>
       <use xlink:href="#m6be018d97b" x="57.6" y="114.486857" style="stroke: #000000; stroke-width: 0.8"/>
      </g>
     </g>
     <g id="text_14">
      <!-- 80 -->
      <g transform="translate(37.875 118.286076) scale(0.1 -0.1)">
       <defs>
        <path id="DejaVuSans-38" d="M 2034 2216 
Q 1584 2216 1326 1975 
Q 1069 1734 1069 1313 
Q 1069 891 1326 650 
Q 1584 409 2034 409 
Q 2484 409 2743 651 
Q 3003 894 3003 1313 
Q 3003 1734 2745 1975 
Q 2488 2216 2034 2216 
z
M 1403 2484 
Q 997 2584 770 2862 
Q 544 3141 544 3541 
Q 544 4100 942 4425 
Q 1341 4750 2034 4750 
Q 2731 4750 3128 4425 
Q 3525 4100 3525 3541 
Q 3525 3141 3298 2862 
Q 3072 2584 2669 2484 
Q 3125 2378 3379 2068 
Q 3634 1759 3634 1313 
Q 3634 634 3220 271 
Q 2806 -91 2034 -91 
Q 1263 -91 848 271 
Q 434 634 434 1313 
Q 434 1759 690 2068 
Q 947 2378 1403 2484 
z
M 1172 3481 
Q 1172 3119 1398 2916 
Q 1625 2713 2034 2713 
Q 2441 2713 2670 2916 
Q 2900 3119 2900 3481 
Q 2900 3844 2670 4047 
Q 2441 4250 2034 4250 
Q 1625 4250 1398 4047 
Q 1172 3844 1172 3481 
z
" transform="scale(0.015625)"/>
       </defs>
       <use xlink:href="#DejaVuSans-38"/>
       <use xlink:href="#DejaVuSans-30" x="63.623047"/>
      </g>
     </g>
    </g>
    <g id="ytick_6">
     <g id="line2d_14">
      <g>
       <use xlink:href="#m6be018d97b" x="57.6" y="66.212571" style="stroke: #000000; stroke-width: 0.8"/>
      </g>
     </g>
     <g id="text_15">
      <!-- 100 -->
      <g transform="translate(31.5125 70.01179) scale(0.1 -0.1)">
       <use xlink:href="#DejaVuSans-31"/>
       <use xlink:href="#DejaVuSans-30" x="63.623047"/>
       <use xlink:href="#DejaVuSans-30" x="127.246094"/>
      </g>
     </g>
    </g>
    <g id="text_16">
     <!-- Number of crosslinks -->
     <g transform="translate(25.432812 227.019406) rotate(-90) scale(0.1 -0.1)">
      <defs>
       <path id="DejaVuSans-4e" d="M 628 4666 
L 1478 4666 
L 3547 763 
L 3547 4666 
L 4159 4666 
L 4159 0 
L 3309 0 
L 1241 3903 
L 1241 0 
L 628 0 
L 628 4666 
z
" transform="scale(0.015625)"/>
       <path id="DejaVuSans-75" d="M 544 1381 
L 544 3500 
L 1119 3500 
L 1119 1403 
Q 1119 906 1312 657 
Q 1506 409 1894 409 
Q 2359 409 2629 706 
Q 2900 1003 2900 1516 
L 2900 3500 
L 3475 3500 
L 3475 0 
L 2900 0 
L 2900 538 
Q 2691 219 2414 64 
Q 2138 -91 1772 -91 
Q 1169 -91 856 284 
Q 544 659 544 1381 
z
M 1991 3584 
L 1991 3584 
z
" transform="scale(0.015625)"/>
       <path id="DejaVuSans-6d" d="M 3328 2828 
Q 3544 3216 3844 3400 
Q 4144 3584 4550 3584 
Q 5097 3584 5394 3201 
Q 5691 2819 5691 2113 
L 5691 0 
L 5113 0 
L 5113 2094 
Q 5113 2597 4934 2840 
Q 4756 3084 4391 3084 
Q 3944 3084 3684 2787 
Q 3425 2491 3425 1978 
L 3425 0 
L 2847 0 
L 2847 2094 
Q 2847 2600 2669 2842 
Q 2491 3084 2119 3084 
Q 1678 3084 1418 2786 
Q 1159 2488 1159 1978 
L 1159 0 
L 581 0 
L 581 3500 
L 1159 3500 
L 1159 2956 
Q 1356 3278 1631 3431 
Q 1906 3584 2284 3584 
Q 2666 3584 2933 3390 
Q 3200 3197 3328 2828 
z
" transform="scale(0.015625)"/>
       <path id="DejaVuSans-62" d="M 3116 1747 
Q 3116 2381 2855 2742 
Q 2594 3103 2138 3103 
Q 1681 3103 1420 2742 
Q 1159 2381 1159 1747 
Q 1159 1113 1420 752 
Q 1681 391 2138 391 
Q 2594 391 2855 752 
Q 3116 1113 3116 1747 
z
M 1159 2969 
Q 1341 3281 1617 3432 
Q 1894 3584 2278 3584 
Q 2916 3584 3314 3078 
Q 3713 2572 3713 1747 
Q 3713 922 3314 415 
Q 2916 -91 2278 -91 
Q 1894 -91 1617 61 
Q 1341 213 1159 525 
L 1159 0 
L 581 0 
L 581 4863 
L 1159 4863 
L 1159 2969 
z
" transform="scale(0.015625)"/>
       <path id="DejaVuSans-20" transform="scale(0.015625)"/>
       <path id="DejaVuSans-66" d="M 2375 4863 
L 2375 4384 
L 1825 4384 
Q 1516 4384 1395 4259 
Q 1275 4134 1275 3809 
L 1275 3500 
L 2222 3500 
L 2222 3053 
L 1275 3053 
L 1275 0 
L 697 0 
L 697 3053 
L 147 3053 
L 147 3500 
L 697 3500 
L 697 3744 
Q 697 4328 969 4595 
Q 1241 4863 1831 4863 
L 2375 4863 
z
" transform="scale(0.015625)"/>
       <path id="DejaVuSans-73" d="M 2834 3397 
L 2834 2853 
Q 2591 2978 2328 3040 
Q 2066 3103 1784 3103 
Q 1356 3103 1142 2972 
Q 928 2841 928 2578 
Q 928 2378 1081 2264 
Q 1234 2150 1697 2047 
L 1894 2003 
Q 2506 1872 2764 1633 
Q 3022 1394 3022 966 
Q 3022 478 2636 193 
Q 2250 -91 1575 -91 
Q 1294 -91 989 -36 
Q 684 19 347 128 
L 347 722 
Q 666 556 975 473 
Q 1284 391 1588 391 
Q 1994 391 2212 530 
Q 2431 669 2431 922 
Q 2431 1156 2273 1281 
Q 2116 1406 1581 1522 
L 1381 1569 
Q 847 1681 609 1914 
Q 372 2147 372 2553 
Q 372 3047 722 3315 
Q 1072 3584 1716 3584 
Q 2034 3584 2315 3537 
Q 2597 3491 2834 3397 
z
" transform="scale(0.015625)"/>
       <path id="DejaVuSans-6c" d="M 603 4863 
L 1178 4863 
L 1178 0 
L 603 0 
L 603 4863 
z
" transform="scale(0.015625)"/>
       <path id="DejaVuSans-69" d="M 603 3500 
L 1178 3500 
L 1178 0 
L 603 0 
L 603 3500 
z
M 603 4863 
L 1178 4863 
L 1178 4134 
L 603 4134 
L 603 4863 
z
" transform="scale(0.015625)"/>
       <path id="DejaVuSans-6e" d="M 3513 2113 
L 3513 0 
L 2938 0 
L 2938 2094 
Q 2938 2591 2744 2837 
Q 2550 3084 2163 3084 
Q 1697 3084 1428 2787 
Q 1159 2491 1159 1978 
L 1159 0 
L 581 0 
L 581 3500 
L 1159 3500 
L 1159 2956 
Q 1366 3272 1645 3428 
Q 1925 3584 2291 3584 
Q 2894 3584 3203 3211 
Q 3513 2838 3513 2113 
z
" transform="scale(0.015625)"/>
       <path id="DejaVuSans-6b" d="M 581 4863 
L 1159 4863 
L 1159 1991 
L 2875 3500 
L 3609 3500 
L 1753 1863 
L 3688 0 
L 2938 0 
L 1159 1709 
L 1159 0 
L 581 0 
L 581 4863 
z
" transform="scale(0.015625)"/>
      </defs>
      <use xlink:href="#DejaVuSans-4e"/>
      <use xlink:href="#DejaVuSans-75" x="74.804688"/>
      <use xlink:href="#DejaVuSans-6d" x="138.183594"/>
      <use xlink:href="#DejaVuSans-62" x="235.595703"/>
      <use xlink:href="#DejaVuSans-65" x="299.072266"/>
      <use xlink:href="#DejaVuSans-72" x="360.595703"/>
      <use xlink:href="#DejaVuSans-20" x="401.708984"/>
      <use xlink:href="#DejaVuSans-6f" x="433.496094"/>
      <use xlink:href="#DejaVuSans-66" x="494.677734"/>
      <use xlink:href="#DejaVuSans-20" x="529.882812"/>
      <use xlink:href="#DejaVuSans-63" x="561.669922"/>
      <use xlink:href="#DejaVuSans-72" x="616.650391"/>
      <use xlink:href="#DejaVuSans-6f" x="655.513672"/>
      <use xlink:href="#DejaVuSans-73" x="716.695312"/>
      <use xlink:href="#DejaVuSans-73" x="768.794922"/>
      <use xlink:href="#DejaVuSans-6c" x="820.894531"/>
      <use xlink:href="#DejaVuSans-69" x="848.677734"/>
      <use xlink:href="#DejaVuSans-6e" x="876.460938"/>
      <use xlink:href="#DejaVuSans-6b" x="939.839844"/>
      <use xlink:href="#DejaVuSans-73" x="997.75"/>
     </g>
    </g>
   </g>
   <g id="patch_3">
    <path d="M 57.6 307.584 
L 57.6 41.472 
" style="fill: none; stroke: #000000; stroke-width: 0.8; stroke-linejoin: miter; stroke-linecap: square"/>
   </g>
   <g id="patch_4">
    <path d="M 414.72 307.584 
L 414.72 41.472 
" style="fill: none; stroke: #000000; stroke-width: 0.8; stroke-linejoin: miter; stroke-linecap: square"/>
   </g>
   <g id="patch_5">
    <path d="M 57.6 307.584 
L 414.72 307.584 
" style="fill: none; stroke: #000000; stroke-width: 0.8; stroke-linejoin: miter; stroke-linecap: square"/>
   </g>
   <g id="patch_6">
    <path d="M 57.6 41.472 
L 414.72 41.472 
" style="fill: none; stroke: #000000; stroke-width: 0.8; stroke-linejoin: miter; stroke-linecap: square"/>
   </g>
   <g id="legend_1">
    <g id="patch_7">
     <path d="M 293.087188 93.506375 
L 407.72 93.506375 
Q 409.72 93.506375 409.72 91.506375 
L 409.72 48.472 
Q 409.72 46.472 407.72 46.472 
L 293.087188 46.472 
Q 291.087188 46.472 291.087188 48.472 
L 291.087188 91.506375 
Q 291.087188 93.506375 293.087188 93.506375 
z
" style="fill: #ffffff; opacity: 0.8; stroke: #cccccc; stroke-linejoin: miter"/>
    </g>
    <g id="patch_8">
     <path d="M 295.087188 58.070438 
L 315.087188 58.070438 
L 315.087188 51.070438 
L 295.087188 51.070438 
z
" style="fill: #008000"/>
    </g>
    <g id="text_17">
     <!-- true -->
     <g transform="translate(323.087188 58.070438) scale(0.1 -0.1)">
      <defs>
       <path id="DejaVuSans-74" d="M 1172 4494 
L 1172 3500 
L 2356 3500 
L 2356 3053 
L 1172 3053 
L 1172 1153 
Q 1172 725 1289 603 
Q 1406 481 1766 481 
L 2356 481 
L 2356 0 
L 1766 0 
Q 1100 0 847 248 
Q 594 497 594 1153 
L 594 3053 
L 172 3053 
L 172 3500 
L 594 3500 
L 594 4494 
L 1172 4494 
z
" transform="scale(0.015625)"/>
      </defs>
      <use xlink:href="#DejaVuSans-74"/>
      <use xlink:href="#DejaVuSans-72" x="39.208984"/>
      <use xlink:href="#DejaVuSans-75" x="80.322266"/>
      <use xlink:href="#DejaVuSans-65" x="143.701172"/>
     </g>
    </g>
    <g id="patch_9">
     <path d="M 295.087188 72.748563 
L 315.087188 72.748563 
L 315.087188 65.748563 
L 295.087188 65.748563 
z
" style="fill: #7cfc00"/>
    </g>
    <g id="text_18">
     <!-- true homeotypic -->
     <g transform="translate(323.087188 72.748563) scale(0.1 -0.1)">
      <defs>
       <path id="DejaVuSans-68" d="M 3513 2113 
L 3513 0 
L 2938 0 
L 2938 2094 
Q 2938 2591 2744 2837 
Q 2550 3084 2163 3084 
Q 1697 3084 1428 2787 
Q 1159 2491 1159 1978 
L 1159 0 
L 581 0 
L 581 4863 
L 1159 4863 
L 1159 2956 
Q 1366 3272 1645 3428 
Q 1925 3584 2291 3584 
Q 2894 3584 3203 3211 
Q 3513 2838 3513 2113 
z
" transform="scale(0.015625)"/>
       <path id="DejaVuSans-79" d="M 2059 -325 
Q 1816 -950 1584 -1140 
Q 1353 -1331 966 -1331 
L 506 -1331 
L 506 -850 
L 844 -850 
Q 1081 -850 1212 -737 
Q 1344 -625 1503 -206 
L 1606 56 
L 191 3500 
L 800 3500 
L 1894 763 
L 2988 3500 
L 3597 3500 
L 2059 -325 
z
" transform="scale(0.015625)"/>
       <path id="DejaVuSans-70" d="M 1159 525 
L 1159 -1331 
L 581 -1331 
L 581 3500 
L 1159 3500 
L 1159 2969 
Q 1341 3281 1617 3432 
Q 1894 3584 2278 3584 
Q 2916 3584 3314 3078 
Q 3713 2572 3713 1747 
Q 3713 922 3314 415 
Q 2916 -91 2278 -91 
Q 1894 -91 1617 61 
Q 1341 213 1159 525 
z
M 3116 1747 
Q 3116 2381 2855 2742 
Q 2594 3103 2138 3103 
Q 1681 3103 1420 2742 
Q 1159 2381 1159 1747 
Q 1159 1113 1420 752 
Q 1681 391 2138 391 
Q 2594 391 2855 752 
Q 3116 1113 3116 1747 
z
" transform="scale(0.015625)"/>
      </defs>
      <use xlink:href="#DejaVuSans-74"/>
      <use xlink:href="#DejaVuSans-72" x="39.208984"/>
      <use xlink:href="#DejaVuSans-75" x="80.322266"/>
      <use xlink:href="#DejaVuSans-65" x="143.701172"/>
      <use xlink:href="#DejaVuSans-20" x="205.224609"/>
      <use xlink:href="#DejaVuSans-68" x="237.011719"/>
      <use xlink:href="#DejaVuSans-6f" x="300.390625"/>
      <use xlink:href="#DejaVuSans-6d" x="361.572266"/>
      <use xlink:href="#DejaVuSans-65" x="458.984375"/>
      <use xlink:href="#DejaVuSans-6f" x="520.507812"/>
      <use xlink:href="#DejaVuSans-74" x="581.689453"/>
      <use xlink:href="#DejaVuSans-79" x="620.898438"/>
      <use xlink:href="#DejaVuSans-70" x="680.078125"/>
      <use xlink:href="#DejaVuSans-69" x="743.554688"/>
      <use xlink:href="#DejaVuSans-63" x="771.337891"/>
     </g>
    </g>
    <g id="patch_10">
     <path d="M 295.087188 87.426688 
L 315.087188 87.426688 
L 315.087188 80.426688 
L 295.087188 80.426688 
z
" style="fill: #ff0000"/>
    </g>
    <g id="text_19">
     <!-- false -->
     <g transform="translate(323.087188 87.426688) scale(0.1 -0.1)">
      <defs>
       <path id="DejaVuSans-61" d="M 2194 1759 
Q 1497 1759 1228 1600 
Q 959 1441 959 1056 
Q 959 750 1161 570 
Q 1363 391 1709 391 
Q 2188 391 2477 730 
Q 2766 1069 2766 1631 
L 2766 1759 
L 2194 1759 
z
M 3341 1997 
L 3341 0 
L 2766 0 
L 2766 531 
Q 2569 213 2275 61 
Q 1981 -91 1556 -91 
Q 1019 -91 701 211 
Q 384 513 384 1019 
Q 384 1609 779 1909 
Q 1175 2209 1959 2209 
L 2766 2209 
L 2766 2266 
Q 2766 2663 2505 2880 
Q 2244 3097 1772 3097 
Q 1472 3097 1187 3025 
Q 903 2953 641 2809 
L 641 3341 
Q 956 3463 1253 3523 
Q 1550 3584 1831 3584 
Q 2591 3584 2966 3190 
Q 3341 2797 3341 1997 
z
" transform="scale(0.015625)"/>
      </defs>
      <use xlink:href="#DejaVuSans-66"/>
      <use xlink:href="#DejaVuSans-61" x="35.205078"/>
      <use xlink:href="#DejaVuSans-6c" x="96.484375"/>
      <use xlink:href="#DejaVuSans-73" x="124.267578"/>
      <use xlink:href="#DejaVuSans-65" x="176.367188"/>
     </g>
    </g>
   </g>
  </g>
 </g>
 <defs>
  <clipPath id="p007ad40b3f">
   <rect x="57.6" y="41.472" width="357.12" height="266.112"/>
  </clipPath>
 </defs>
</svg>
