<?xml version="1.0" encoding="utf-8" standalone="no"?>
<!DOCTYPE svg PUBLIC "-//W3C//DTD SVG 1.1//EN"
  "http://www.w3.org/Graphics/SVG/1.1/DTD/svg11.dtd">
<svg xmlns:xlink="http://www.w3.org/1999/xlink" width="460.8pt" height="345.6pt" viewBox="0 0 460.8 345.6" xmlns="http://www.w3.org/2000/svg" version="1.1">
 <metadata>
  <rdf:RDF xmlns:dc="http://purl.org/dc/elements/1.1/" xmlns:cc="http://creativecommons.org/ns#" xmlns:rdf="http://www.w3.org/1999/02/22-rdf-syntax-ns#">
   <cc:Work>
    <dc:type rdf:resource="http://purl.org/dc/dcmitype/StillImage"/>
    <dc:date>2024-06-20T14:56:04.715139</dc:date>
    <dc:format>image/svg+xml</dc:format>
    <dc:creator>
     <cc:Agent>
      <dc:title>Matplotlib v3.9.0, https://matplotlib.org/</dc:title>
     </cc:Agent>
    </dc:creator>
   </cc:Work>
  </rdf:RDF>
 </metadata>
 <defs>
  <style type="text/css">*{stroke-linejoin: round; stroke-linecap: butt}</style>
 </defs>
 <g id="figure_1">
  <g id="patch_1">
   <path d="M 0 345.6 
L 460.8 345.6 
L 460.8 0 
L 0 0 
z
" style="fill: #ffffff"/>
  </g>
  <g id="axes_1">
   <g id="patch_2">
    <path d="M 57.6 307.584 
L 414.72 307.584 
L 414.72 41.472 
L 57.6 41.472 
z
" style="fill: #ffffff"/>
   </g>
   <g id="PolyCollection_1">
    <path d="M 73.832727 111.469714 
L 73.832727 307.584 
L 73.862648 307.584 
L 73.876301 307.584 
L 73.976745 307.584 
L 73.996374 307.584 
L 73.997277 307.584 
L 74.068793 307.584 
L 74.084663 307.584 
L 74.087263 307.584 
L 74.155046 307.584 
L 74.17838 307.584 
L 74.324303 307.584 
L 74.343229 307.584 
L 74.459317 307.584 
L 74.487258 307.584 
L 74.542145 307.584 
L 74.583248 307.584 
L 74.630202 307.584 
L 74.669306 307.584 
L 74.802227 307.584 
L 75.091077 307.584 
L 75.212929 307.584 
L 75.33549 307.584 
L 75.689679 307.584 
L 75.712603 307.584 
L 76.082405 307.584 
L 76.563126 307.584 
L 76.628729 307.584 
L 76.6877 307.584 
L 76.752046 307.584 
L 77.058878 307.584 
L 77.794848 307.584 
L 78.350789 307.584 
L 78.585276 307.584 
L 80.085353 307.584 
L 80.531324 307.584 
L 80.5698 307.584 
L 80.636768 307.584 
L 80.811673 307.584 
L 80.964049 307.584 
L 81.025267 307.584 
L 81.160403 307.584 
L 81.397633 307.584 
L 81.602244 307.584 
L 82.887138 307.584 
L 83.174809 307.584 
L 83.253415 307.584 
L 83.676588 307.584 
L 84.314203 307.584 
L 84.871846 307.584 
L 86.112468 307.584 
L 86.465673 307.584 
L 87.257158 307.584 
L 87.457453 307.584 
L 87.863386 307.584 
L 88.027567 307.584 
L 88.738692 307.584 
L 89.704355 307.584 
L 90.322236 307.584 
L 90.329652 307.584 
L 91.08839 307.584 
L 95.486475 307.584 
L 96.94424 307.584 
L 97.308602 307.584 
L 97.513667 307.584 
L 97.677107 307.584 
L 97.893622 307.584 
L 99.077462 307.584 
L 99.452582 307.584 
L 100.373914 307.584 
L 100.469793 307.584 
L 101.596108 307.584 
L 102.239986 307.584 
L 102.471027 307.584 
L 102.696113 307.584 
L 104.329463 307.584 
L 105.941018 307.584 
L 106.426124 307.584 
L 108.285013 307.584 
L 108.636704 307.584 
L 108.762082 307.584 
L 109.05619 307.584 
L 110.516902 307.584 
L 111.026538 307.584 
L 111.900203 307.584 
L 113.038017 307.584 
L 114.780145 307.584 
L 116.257085 307.584 
L 117.290529 307.584 
L 118.011698 307.584 
L 119.79447 307.584 
L 120.154264 307.584 
L 120.735696 307.584 
L 120.879482 307.584 
L 122.250331 307.584 
L 123.389558 307.584 
L 123.899728 307.584 
L 124.920867 307.584 
L 125.181127 307.584 
L 126.573131 307.584 
L 126.664582 307.584 
L 127.578184 307.584 
L 128.364186 307.584 
L 130.310718 307.584 
L 130.444847 307.584 
L 131.596893 307.584 
L 131.954259 307.584 
L 132.986049 307.584 
L 133.401093 307.584 
L 134.83148 307.584 
L 135.088726 307.584 
L 140.996877 307.584 
L 141.341552 307.584 
L 141.545835 307.584 
L 142.300678 307.584 
L 142.521703 307.584 
L 142.532774 307.584 
L 144.176382 307.584 
L 145.212407 307.584 
L 148.421924 307.584 
L 149.790152 307.584 
L 150.884468 307.584 
L 151.75189 307.584 
L 152.036674 307.584 
L 152.078824 307.584 
L 153.994877 307.584 
L 154.167215 307.584 
L 154.375967 307.584 
L 155.350967 307.584 
L 156.917877 307.584 
L 158.994729 307.584 
L 159.656067 307.584 
L 161.937003 307.584 
L 162.995704 307.584 
L 167.601794 307.584 
L 172.027544 307.584 
L 173.19509 307.584 
L 175.206248 307.584 
L 175.325831 307.584 
L 175.587805 307.584 
L 181.357306 307.584 
L 183.646578 307.584 
L 185.968331 307.584 
L 186.507752 307.584 
L 189.10902 307.584 
L 189.813642 307.584 
L 190.898688 307.584 
L 191.732296 307.584 
L 193.640346 307.584 
L 194.070523 307.584 
L 196.39681 307.584 
L 196.996323 307.584 
L 198.940654 307.584 
L 200.507697 307.584 
L 200.598068 307.584 
L 200.731589 307.584 
L 201.087602 307.584 
L 202.001644 307.584 
L 205.074038 307.584 
L 205.610458 307.584 
L 208.620693 307.584 
L 210.132981 307.584 
L 213.123674 307.584 
L 213.646822 307.584 
L 214.013039 307.584 
L 217.402497 307.584 
L 218.838753 307.584 
L 221.265215 307.584 
L 222.579955 307.584 
L 222.731484 307.584 
L 223.149455 307.584 
L 232.193767 307.584 
L 234.434219 307.584 
L 235.453438 307.584 
L 236.226355 307.584 
L 238.126068 307.584 
L 240.86826 307.584 
L 244.517024 307.584 
L 246.714859 307.584 
L 248.972318 307.584 
L 250.008877 307.584 
L 252.54225 307.584 
L 254.221272 307.584 
L 254.531266 307.584 
L 254.909221 307.584 
L 258.004692 307.584 
L 258.778876 307.584 
L 262.680477 307.584 
L 264.22411 307.584 
L 267.235013 307.584 
L 267.383073 307.584 
L 267.815918 307.584 
L 269.014343 307.584 
L 269.440851 307.584 
L 273.098485 307.584 
L 273.218401 307.584 
L 273.365061 307.584 
L 275.678611 307.584 
L 276.9526 307.584 
L 276.96914 307.584 
L 279.230869 307.584 
L 280.636912 307.584 
L 283.675159 307.584 
L 283.706038 307.584 
L 290.190899 307.584 
L 295.368424 307.584 
L 295.566839 307.584 
L 296.954275 307.584 
L 298.894071 307.584 
L 303.567855 307.584 
L 303.590798 307.584 
L 307.188208 307.584 
L 307.242563 307.584 
L 308.661279 307.584 
L 310.626752 307.584 
L 312.03613 307.584 
L 313.75617 307.584 
L 315.412849 307.584 
L 321.755852 307.584 
L 324.32624 307.584 
L 329.65356 307.584 
L 330.769418 307.584 
L 330.996911 307.584 
L 333.601446 307.584 
L 335.400118 307.584 
L 341.286467 307.584 
L 341.318346 307.584 
L 342.83797 307.584 
L 345.593501 307.584 
L 345.744429 307.584 
L 345.984861 307.584 
L 346.63873 307.584 
L 352.403829 307.584 
L 353.522021 307.584 
L 356.133759 307.584 
L 356.331707 307.584 
L 356.546395 307.584 
L 358.364141 307.584 
L 358.41036 307.584 
L 360.836156 307.584 
L 362.437279 307.584 
L 364.342528 307.584 
L 365.198412 307.584 
L 365.970663 307.584 
L 368.972695 307.584 
L 370.170319 307.584 
L 373.861634 307.584 
L 377.769638 307.584 
L 378.822403 307.584 
L 380.118068 307.584 
L 385.847219 307.584 
L 398.487273 307.584 
L 398.487273 307.584 
L 398.487273 307.584 
L 385.847219 307.584 
L 380.118068 307.584 
L 378.822403 306.578286 
L 377.769638 305.572571 
L 373.861634 304.566857 
L 370.170319 303.561143 
L 368.972695 302.555429 
L 365.970663 301.549714 
L 365.198412 300.544 
L 364.342528 299.538286 
L 362.437279 298.532571 
L 360.836156 297.526857 
L 358.41036 296.521143 
L 358.364141 295.515429 
L 356.546395 294.509714 
L 356.331707 293.504 
L 356.133759 292.498286 
L 353.522021 291.492571 
L 352.403829 290.486857 
L 346.63873 290.486857 
L 345.984861 289.481143 
L 345.744429 289.481143 
L 345.593501 289.481143 
L 342.83797 288.475429 
L 341.318346 287.469714 
L 341.286467 286.464 
L 335.400118 285.458286 
L 333.601446 284.452571 
L 330.996911 283.446857 
L 330.769418 282.441143 
L 329.65356 281.435429 
L 324.32624 281.435429 
L 321.755852 280.429714 
L 315.412849 279.424 
L 313.75617 278.418286 
L 312.03613 278.418286 
L 310.626752 277.412571 
L 308.661279 276.406857 
L 307.242563 276.406857 
L 307.188208 275.401143 
L 303.590798 275.401143 
L 303.567855 274.395429 
L 298.894071 273.389714 
L 296.954275 272.384 
L 295.566839 272.384 
L 295.368424 271.378286 
L 290.190899 270.372571 
L 283.706038 269.366857 
L 283.675159 268.361143 
L 280.636912 267.355429 
L 279.230869 266.349714 
L 276.96914 266.349714 
L 276.9526 265.344 
L 275.678611 264.338286 
L 273.365061 263.332571 
L 273.218401 263.332571 
L 273.098485 262.326857 
L 269.440851 261.321143 
L 269.014343 260.315429 
L 267.815918 259.309714 
L 267.383073 258.304 
L 267.235013 258.304 
L 264.22411 258.304 
L 262.680477 257.298286 
L 258.778876 256.292571 
L 258.004692 255.286857 
L 254.909221 254.281143 
L 254.531266 254.281143 
L 254.221272 253.275429 
L 252.54225 252.269714 
L 250.008877 251.264 
L 248.972318 250.258286 
L 246.714859 249.252571 
L 244.517024 248.246857 
L 240.86826 247.241143 
L 238.126068 246.235429 
L 236.226355 246.235429 
L 235.453438 246.235429 
L 234.434219 245.229714 
L 232.193767 244.224 
L 223.149455 243.218286 
L 222.731484 242.212571 
L 222.579955 241.206857 
L 221.265215 240.201143 
L 218.838753 240.201143 
L 217.402497 239.195429 
L 214.013039 238.189714 
L 213.646822 237.184 
L 213.123674 236.178286 
L 210.132981 235.172571 
L 208.620693 234.166857 
L 205.610458 234.166857 
L 205.074038 233.161143 
L 202.001644 232.155429 
L 201.087602 231.149714 
L 200.731589 231.149714 
L 200.598068 230.144 
L 200.507697 230.144 
L 198.940654 229.138286 
L 196.996323 229.138286 
L 196.39681 228.132571 
L 194.070523 227.126857 
L 193.640346 226.121143 
L 191.732296 225.115429 
L 190.898688 224.109714 
L 189.813642 223.104 
L 189.10902 222.098286 
L 186.507752 221.092571 
L 185.968331 220.086857 
L 183.646578 219.081143 
L 181.357306 219.081143 
L 175.587805 218.075429 
L 175.325831 217.069714 
L 175.206248 216.064 
L 173.19509 215.058286 
L 172.027544 215.058286 
L 167.601794 214.052571 
L 162.995704 213.046857 
L 161.937003 213.046857 
L 159.656067 212.041143 
L 158.994729 211.035429 
L 156.917877 210.029714 
L 155.350967 210.029714 
L 154.375967 209.024 
L 154.167215 208.018286 
L 153.994877 207.012571 
L 152.078824 206.006857 
L 152.036674 205.001143 
L 151.75189 205.001143 
L 150.884468 203.995429 
L 149.790152 203.995429 
L 148.421924 202.989714 
L 145.212407 201.984 
L 144.176382 200.978286 
L 142.532774 199.972571 
L 142.521703 199.972571 
L 142.300678 198.966857 
L 141.545835 197.961143 
L 141.341552 196.955429 
L 140.996877 195.949714 
L 135.088726 194.944 
L 134.83148 193.938286 
L 133.401093 193.938286 
L 132.986049 193.938286 
L 131.954259 192.932571 
L 131.596893 192.932571 
L 130.444847 191.926857 
L 130.310718 191.926857 
L 128.364186 190.921143 
L 127.578184 189.915429 
L 126.664582 188.909714 
L 126.573131 187.904 
L 125.181127 186.898286 
L 124.920867 186.898286 
L 123.899728 185.892571 
L 123.389558 184.886857 
L 122.250331 183.881143 
L 120.879482 182.875429 
L 120.735696 181.869714 
L 120.154264 181.869714 
L 119.79447 180.864 
L 118.011698 179.858286 
L 117.290529 178.852571 
L 116.257085 177.846857 
L 114.780145 176.841143 
L 113.038017 176.841143 
L 111.900203 175.835429 
L 111.026538 174.829714 
L 110.516902 173.824 
L 109.05619 172.818286 
L 108.762082 171.812571 
L 108.636704 170.806857 
L 108.285013 170.806857 
L 106.426124 169.801143 
L 105.941018 168.795429 
L 104.329463 168.795429 
L 102.696113 168.795429 
L 102.471027 168.795429 
L 102.239986 167.789714 
L 101.596108 167.789714 
L 100.469793 167.789714 
L 100.373914 166.784 
L 99.452582 165.778286 
L 99.077462 164.772571 
L 97.893622 163.766857 
L 97.677107 163.766857 
L 97.513667 162.761143 
L 97.308602 161.755429 
L 96.94424 160.749714 
L 95.486475 159.744 
L 91.08839 159.744 
L 90.329652 159.744 
L 90.322236 158.738286 
L 89.704355 157.732571 
L 88.738692 157.732571 
L 88.027567 157.732571 
L 87.863386 156.726857 
L 87.457453 155.721143 
L 87.257158 154.715429 
L 86.465673 154.715429 
L 86.112468 153.709714 
L 84.871846 152.704 
L 84.314203 151.698286 
L 83.676588 151.698286 
L 83.253415 150.692571 
L 83.174809 149.686857 
L 82.887138 149.686857 
L 81.602244 148.681143 
L 81.397633 147.675429 
L 81.160403 146.669714 
L 81.025267 145.664 
L 80.964049 144.658286 
L 80.811673 143.652571 
L 80.636768 142.646857 
L 80.5698 141.641143 
L 80.531324 141.641143 
L 80.085353 141.641143 
L 78.585276 140.635429 
L 78.350789 139.629714 
L 77.794848 138.624 
L 77.058878 137.618286 
L 76.752046 136.612571 
L 76.6877 135.606857 
L 76.628729 134.601143 
L 76.563126 133.595429 
L 76.082405 132.589714 
L 75.712603 131.584 
L 75.689679 130.578286 
L 75.33549 129.572571 
L 75.212929 129.572571 
L 75.091077 128.566857 
L 74.802227 128.566857 
L 74.669306 128.566857 
L 74.630202 127.561143 
L 74.583248 126.555429 
L 74.542145 125.549714 
L 74.487258 124.544 
L 74.459317 123.538286 
L 74.343229 122.532571 
L 74.324303 122.532571 
L 74.17838 121.526857 
L 74.155046 120.521143 
L 74.087263 119.515429 
L 74.084663 118.509714 
L 74.068793 117.504 
L 73.997277 116.498286 
L 73.996374 115.492571 
L 73.976745 114.486857 
L 73.876301 113.481143 
L 73.862648 112.475429 
L 73.832727 111.469714 
z
" clip-path="url(#pbfcd2f08a1)" style="fill: #008000"/>
   </g>
   <g id="PolyCollection_2">
    <path d="M 73.832727 62.189714 
L 73.832727 111.469714 
L 73.862648 112.475429 
L 73.876301 113.481143 
L 73.976745 114.486857 
L 73.996374 115.492571 
L 73.997277 116.498286 
L 74.068793 117.504 
L 74.084663 118.509714 
L 74.087263 119.515429 
L 74.155046 120.521143 
L 74.17838 121.526857 
L 74.324303 122.532571 
L 74.343229 122.532571 
L 74.459317 123.538286 
L 74.487258 124.544 
L 74.542145 125.549714 
L 74.583248 126.555429 
L 74.630202 127.561143 
L 74.669306 128.566857 
L 74.802227 128.566857 
L 75.091077 128.566857 
L 75.212929 129.572571 
L 75.33549 129.572571 
L 75.689679 130.578286 
L 75.712603 131.584 
L 76.082405 132.589714 
L 76.563126 133.595429 
L 76.628729 134.601143 
L 76.6877 135.606857 
L 76.752046 136.612571 
L 77.058878 137.618286 
L 77.794848 138.624 
L 78.350789 139.629714 
L 78.585276 140.635429 
L 80.085353 141.641143 
L 80.531324 141.641143 
L 80.5698 141.641143 
L 80.636768 142.646857 
L 80.811673 143.652571 
L 80.964049 144.658286 
L 81.025267 145.664 
L 81.160403 146.669714 
L 81.397633 147.675429 
L 81.602244 148.681143 
L 82.887138 149.686857 
L 83.174809 149.686857 
L 83.253415 150.692571 
L 83.676588 151.698286 
L 84.314203 151.698286 
L 84.871846 152.704 
L 86.112468 153.709714 
L 86.465673 154.715429 
L 87.257158 154.715429 
L 87.457453 155.721143 
L 87.863386 156.726857 
L 88.027567 157.732571 
L 88.738692 157.732571 
L 89.704355 157.732571 
L 90.322236 158.738286 
L 90.329652 159.744 
L 91.08839 159.744 
L 95.486475 159.744 
L 96.94424 160.749714 
L 97.308602 161.755429 
L 97.513667 162.761143 
L 97.677107 163.766857 
L 97.893622 163.766857 
L 99.077462 164.772571 
L 99.452582 165.778286 
L 100.373914 166.784 
L 100.469793 167.789714 
L 101.596108 167.789714 
L 102.239986 167.789714 
L 102.471027 168.795429 
L 102.696113 168.795429 
L 104.329463 168.795429 
L 105.941018 168.795429 
L 106.426124 169.801143 
L 108.285013 170.806857 
L 108.636704 170.806857 
L 108.762082 171.812571 
L 109.05619 172.818286 
L 110.516902 173.824 
L 111.026538 174.829714 
L 111.900203 175.835429 
L 113.038017 176.841143 
L 114.780145 176.841143 
L 116.257085 177.846857 
L 117.290529 178.852571 
L 118.011698 179.858286 
L 119.79447 180.864 
L 120.154264 181.869714 
L 120.735696 181.869714 
L 120.879482 182.875429 
L 122.250331 183.881143 
L 123.389558 184.886857 
L 123.899728 185.892571 
L 124.920867 186.898286 
L 125.181127 186.898286 
L 126.573131 187.904 
L 126.664582 188.909714 
L 127.578184 189.915429 
L 128.364186 190.921143 
L 130.310718 191.926857 
L 130.444847 191.926857 
L 131.596893 192.932571 
L 131.954259 192.932571 
L 132.986049 193.938286 
L 133.401093 193.938286 
L 134.83148 193.938286 
L 135.088726 194.944 
L 140.996877 195.949714 
L 141.341552 196.955429 
L 141.545835 197.961143 
L 142.300678 198.966857 
L 142.521703 199.972571 
L 142.532774 199.972571 
L 144.176382 200.978286 
L 145.212407 201.984 
L 148.421924 202.989714 
L 149.790152 203.995429 
L 150.884468 203.995429 
L 151.75189 205.001143 
L 152.036674 205.001143 
L 152.078824 206.006857 
L 153.994877 207.012571 
L 154.167215 208.018286 
L 154.375967 209.024 
L 155.350967 210.029714 
L 156.917877 210.029714 
L 158.994729 211.035429 
L 159.656067 212.041143 
L 161.937003 213.046857 
L 162.995704 213.046857 
L 167.601794 214.052571 
L 172.027544 215.058286 
L 173.19509 215.058286 
L 175.206248 216.064 
L 175.325831 217.069714 
L 175.587805 218.075429 
L 181.357306 219.081143 
L 183.646578 219.081143 
L 185.968331 220.086857 
L 186.507752 221.092571 
L 189.10902 222.098286 
L 189.813642 223.104 
L 190.898688 224.109714 
L 191.732296 225.115429 
L 193.640346 226.121143 
L 194.070523 227.126857 
L 196.39681 228.132571 
L 196.996323 229.138286 
L 198.940654 229.138286 
L 200.507697 230.144 
L 200.598068 230.144 
L 200.731589 231.149714 
L 201.087602 231.149714 
L 202.001644 232.155429 
L 205.074038 233.161143 
L 205.610458 234.166857 
L 208.620693 234.166857 
L 210.132981 235.172571 
L 213.123674 236.178286 
L 213.646822 237.184 
L 214.013039 238.189714 
L 217.402497 239.195429 
L 218.838753 240.201143 
L 221.265215 240.201143 
L 222.579955 241.206857 
L 222.731484 242.212571 
L 223.149455 243.218286 
L 232.193767 244.224 
L 234.434219 245.229714 
L 235.453438 246.235429 
L 236.226355 246.235429 
L 238.126068 246.235429 
L 240.86826 247.241143 
L 244.517024 248.246857 
L 246.714859 249.252571 
L 248.972318 250.258286 
L 250.008877 251.264 
L 252.54225 252.269714 
L 254.221272 253.275429 
L 254.531266 254.281143 
L 254.909221 254.281143 
L 258.004692 255.286857 
L 258.778876 256.292571 
L 262.680477 257.298286 
L 264.22411 258.304 
L 267.235013 258.304 
L 267.383073 258.304 
L 267.815918 259.309714 
L 269.014343 260.315429 
L 269.440851 261.321143 
L 273.098485 262.326857 
L 273.218401 263.332571 
L 273.365061 263.332571 
L 275.678611 264.338286 
L 276.9526 265.344 
L 276.96914 266.349714 
L 279.230869 266.349714 
L 280.636912 267.355429 
L 283.675159 268.361143 
L 283.706038 269.366857 
L 290.190899 270.372571 
L 295.368424 271.378286 
L 295.566839 272.384 
L 296.954275 272.384 
L 298.894071 273.389714 
L 303.567855 274.395429 
L 303.590798 275.401143 
L 307.188208 275.401143 
L 307.242563 276.406857 
L 308.661279 276.406857 
L 310.626752 277.412571 
L 312.03613 278.418286 
L 313.75617 278.418286 
L 315.412849 279.424 
L 321.755852 280.429714 
L 324.32624 281.435429 
L 329.65356 281.435429 
L 330.769418 282.441143 
L 330.996911 283.446857 
L 333.601446 284.452571 
L 335.400118 285.458286 
L 341.286467 286.464 
L 341.318346 287.469714 
L 342.83797 288.475429 
L 345.593501 289.481143 
L 345.744429 289.481143 
L 345.984861 289.481143 
L 346.63873 290.486857 
L 352.403829 290.486857 
L 353.522021 291.492571 
L 356.133759 292.498286 
L 356.331707 293.504 
L 356.546395 294.509714 
L 358.364141 295.515429 
L 358.41036 296.521143 
L 360.836156 297.526857 
L 362.437279 298.532571 
L 364.342528 299.538286 
L 365.198412 300.544 
L 365.970663 301.549714 
L 368.972695 302.555429 
L 370.170319 303.561143 
L 373.861634 304.566857 
L 377.769638 305.572571 
L 378.822403 306.578286 
L 380.118068 307.584 
L 385.847219 307.584 
L 398.487273 307.584 
L 398.487273 307.584 
L 398.487273 307.584 
L 385.847219 307.584 
L 380.118068 307.584 
L 378.822403 306.578286 
L 377.769638 305.572571 
L 373.861634 304.566857 
L 370.170319 303.561143 
L 368.972695 302.555429 
L 365.970663 301.549714 
L 365.198412 300.544 
L 364.342528 299.538286 
L 362.437279 298.532571 
L 360.836156 297.526857 
L 358.41036 296.521143 
L 358.364141 295.515429 
L 356.546395 294.509714 
L 356.331707 293.504 
L 356.133759 292.498286 
L 353.522021 291.492571 
L 352.403829 290.486857 
L 346.63873 289.481143 
L 345.984861 288.475429 
L 345.744429 287.469714 
L 345.593501 286.464 
L 342.83797 285.458286 
L 341.318346 284.452571 
L 341.286467 283.446857 
L 335.400118 282.441143 
L 333.601446 281.435429 
L 330.996911 280.429714 
L 330.769418 279.424 
L 329.65356 278.418286 
L 324.32624 278.418286 
L 321.755852 277.412571 
L 315.412849 276.406857 
L 313.75617 275.401143 
L 312.03613 274.395429 
L 310.626752 273.389714 
L 308.661279 272.384 
L 307.242563 272.384 
L 307.188208 271.378286 
L 303.590798 270.372571 
L 303.567855 269.366857 
L 298.894071 268.361143 
L 296.954275 267.355429 
L 295.566839 266.349714 
L 295.368424 265.344 
L 290.190899 264.338286 
L 283.706038 263.332571 
L 283.675159 262.326857 
L 280.636912 261.321143 
L 279.230869 260.315429 
L 276.96914 260.315429 
L 276.9526 259.309714 
L 275.678611 258.304 
L 273.365061 257.298286 
L 273.218401 256.292571 
L 273.098485 255.286857 
L 269.440851 254.281143 
L 269.014343 253.275429 
L 267.815918 252.269714 
L 267.383073 251.264 
L 267.235013 250.258286 
L 264.22411 249.252571 
L 262.680477 248.246857 
L 258.778876 247.241143 
L 258.004692 246.235429 
L 254.909221 245.229714 
L 254.531266 244.224 
L 254.221272 243.218286 
L 252.54225 242.212571 
L 250.008877 241.206857 
L 248.972318 240.201143 
L 246.714859 239.195429 
L 244.517024 238.189714 
L 240.86826 237.184 
L 238.126068 236.178286 
L 236.226355 235.172571 
L 235.453438 235.172571 
L 234.434219 234.166857 
L 232.193767 233.161143 
L 223.149455 232.155429 
L 222.731484 231.149714 
L 222.579955 230.144 
L 221.265215 229.138286 
L 218.838753 228.132571 
L 217.402497 227.126857 
L 214.013039 226.121143 
L 213.646822 225.115429 
L 213.123674 224.109714 
L 210.132981 223.104 
L 208.620693 222.098286 
L 205.610458 221.092571 
L 205.074038 220.086857 
L 202.001644 219.081143 
L 201.087602 218.075429 
L 200.731589 217.069714 
L 200.598068 216.064 
L 200.507697 215.058286 
L 198.940654 214.052571 
L 196.996323 213.046857 
L 196.39681 212.041143 
L 194.070523 211.035429 
L 193.640346 210.029714 
L 191.732296 209.024 
L 190.898688 208.018286 
L 189.813642 207.012571 
L 189.10902 206.006857 
L 186.507752 205.001143 
L 185.968331 203.995429 
L 183.646578 202.989714 
L 181.357306 201.984 
L 175.587805 200.978286 
L 175.325831 199.972571 
L 175.206248 198.966857 
L 173.19509 197.961143 
L 172.027544 196.955429 
L 167.601794 195.949714 
L 162.995704 194.944 
L 161.937003 193.938286 
L 159.656067 192.932571 
L 158.994729 191.926857 
L 156.917877 190.921143 
L 155.350967 189.915429 
L 154.375967 188.909714 
L 154.167215 187.904 
L 153.994877 186.898286 
L 152.078824 185.892571 
L 152.036674 184.886857 
L 151.75189 183.881143 
L 150.884468 182.875429 
L 149.790152 182.875429 
L 148.421924 181.869714 
L 145.212407 180.864 
L 144.176382 179.858286 
L 142.532774 178.852571 
L 142.521703 177.846857 
L 142.300678 176.841143 
L 141.545835 175.835429 
L 141.341552 174.829714 
L 140.996877 173.824 
L 135.088726 172.818286 
L 134.83148 171.812571 
L 133.401093 170.806857 
L 132.986049 169.801143 
L 131.954259 168.795429 
L 131.596893 167.789714 
L 130.444847 166.784 
L 130.310718 165.778286 
L 128.364186 164.772571 
L 127.578184 163.766857 
L 126.664582 162.761143 
L 126.573131 161.755429 
L 125.181127 160.749714 
L 124.920867 159.744 
L 123.899728 158.738286 
L 123.389558 157.732571 
L 122.250331 156.726857 
L 120.879482 155.721143 
L 120.735696 154.715429 
L 120.154264 153.709714 
L 119.79447 152.704 
L 118.011698 151.698286 
L 117.290529 150.692571 
L 116.257085 149.686857 
L 114.780145 148.681143 
L 113.038017 147.675429 
L 111.900203 146.669714 
L 111.026538 145.664 
L 110.516902 144.658286 
L 109.05619 143.652571 
L 108.762082 142.646857 
L 108.636704 141.641143 
L 108.285013 140.635429 
L 106.426124 139.629714 
L 105.941018 138.624 
L 104.329463 137.618286 
L 102.696113 136.612571 
L 102.471027 135.606857 
L 102.239986 134.601143 
L 101.596108 133.595429 
L 100.469793 132.589714 
L 100.373914 131.584 
L 99.452582 130.578286 
L 99.077462 129.572571 
L 97.893622 128.566857 
L 97.677107 127.561143 
L 97.513667 126.555429 
L 97.308602 125.549714 
L 96.94424 124.544 
L 95.486475 123.538286 
L 91.08839 122.532571 
L 90.329652 121.526857 
L 90.322236 120.521143 
L 89.704355 119.515429 
L 88.738692 118.509714 
L 88.027567 117.504 
L 87.863386 116.498286 
L 87.457453 115.492571 
L 87.257158 114.486857 
L 86.465673 113.481143 
L 86.112468 112.475429 
L 84.871846 111.469714 
L 84.314203 110.464 
L 83.676588 109.458286 
L 83.253415 108.452571 
L 83.174809 107.446857 
L 82.887138 106.441143 
L 81.602244 105.435429 
L 81.397633 104.429714 
L 81.160403 103.424 
L 81.025267 102.418286 
L 80.964049 101.412571 
L 80.811673 100.406857 
L 80.636768 99.401143 
L 80.5698 98.395429 
L 80.531324 97.389714 
L 80.085353 96.384 
L 78.585276 95.378286 
L 78.350789 94.372571 
L 77.794848 93.366857 
L 77.058878 92.361143 
L 76.752046 91.355429 
L 76.6877 90.349714 
L 76.628729 89.344 
L 76.563126 88.338286 
L 76.082405 87.332571 
L 75.712603 86.326857 
L 75.689679 85.321143 
L 75.33549 84.315429 
L 75.212929 83.309714 
L 75.091077 82.304 
L 74.802227 81.298286 
L 74.669306 80.292571 
L 74.630202 79.286857 
L 74.583248 78.281143 
L 74.542145 77.275429 
L 74.487258 76.269714 
L 74.459317 75.264 
L 74.343229 74.258286 
L 74.324303 73.252571 
L 74.17838 72.246857 
L 74.155046 71.241143 
L 74.087263 70.235429 
L 74.084663 69.229714 
L 74.068793 68.224 
L 73.997277 67.218286 
L 73.996374 66.212571 
L 73.976745 65.206857 
L 73.876301 64.201143 
L 73.862648 63.195429 
L 73.832727 62.189714 
z
" clip-path="url(#pbfcd2f08a1)" style="fill: #7cfc00"/>
   </g>
   <g id="PolyCollection_3">
    <path d="M 73.832727 54.144 
L 73.832727 62.189714 
L 73.862648 63.195429 
L 73.876301 64.201143 
L 73.976745 65.206857 
L 73.996374 66.212571 
L 73.997277 67.218286 
L 74.068793 68.224 
L 74.084663 69.229714 
L 74.087263 70.235429 
L 74.155046 71.241143 
L 74.17838 72.246857 
L 74.324303 73.252571 
L 74.343229 74.258286 
L 74.459317 75.264 
L 74.487258 76.269714 
L 74.542145 77.275429 
L 74.583248 78.281143 
L 74.630202 79.286857 
L 74.669306 80.292571 
L 74.802227 81.298286 
L 75.091077 82.304 
L 75.212929 83.309714 
L 75.33549 84.315429 
L 75.689679 85.321143 
L 75.712603 86.326857 
L 76.082405 87.332571 
L 76.563126 88.338286 
L 76.628729 89.344 
L 76.6877 90.349714 
L 76.752046 91.355429 
L 77.058878 92.361143 
L 77.794848 93.366857 
L 78.350789 94.372571 
L 78.585276 95.378286 
L 80.085353 96.384 
L 80.531324 97.389714 
L 80.5698 98.395429 
L 80.636768 99.401143 
L 80.811673 100.406857 
L 80.964049 101.412571 
L 81.025267 102.418286 
L 81.160403 103.424 
L 81.397633 104.429714 
L 81.602244 105.435429 
L 82.887138 106.441143 
L 83.174809 107.446857 
L 83.253415 108.452571 
L 83.676588 109.458286 
L 84.314203 110.464 
L 84.871846 111.469714 
L 86.112468 112.475429 
L 86.465673 113.481143 
L 87.257158 114.486857 
L 87.457453 115.492571 
L 87.863386 116.498286 
L 88.027567 117.504 
L 88.738692 118.509714 
L 89.704355 119.515429 
L 90.322236 120.521143 
L 90.329652 121.526857 
L 91.08839 122.532571 
L 95.486475 123.538286 
L 96.94424 124.544 
L 97.308602 125.549714 
L 97.513667 126.555429 
L 97.677107 127.561143 
L 97.893622 128.566857 
L 99.077462 129.572571 
L 99.452582 130.578286 
L 100.373914 131.584 
L 100.469793 132.589714 
L 101.596108 133.595429 
L 102.239986 134.601143 
L 102.471027 135.606857 
L 102.696113 136.612571 
L 104.329463 137.618286 
L 105.941018 138.624 
L 106.426124 139.629714 
L 108.285013 140.635429 
L 108.636704 141.641143 
L 108.762082 142.646857 
L 109.05619 143.652571 
L 110.516902 144.658286 
L 111.026538 145.664 
L 111.900203 146.669714 
L 113.038017 147.675429 
L 114.780145 148.681143 
L 116.257085 149.686857 
L 117.290529 150.692571 
L 118.011698 151.698286 
L 119.79447 152.704 
L 120.154264 153.709714 
L 120.735696 154.715429 
L 120.879482 155.721143 
L 122.250331 156.726857 
L 123.389558 157.732571 
L 123.899728 158.738286 
L 124.920867 159.744 
L 125.181127 160.749714 
L 126.573131 161.755429 
L 126.664582 162.761143 
L 127.578184 163.766857 
L 128.364186 164.772571 
L 130.310718 165.778286 
L 130.444847 166.784 
L 131.596893 167.789714 
L 131.954259 168.795429 
L 132.986049 169.801143 
L 133.401093 170.806857 
L 134.83148 171.812571 
L 135.088726 172.818286 
L 140.996877 173.824 
L 141.341552 174.829714 
L 141.545835 175.835429 
L 142.300678 176.841143 
L 142.521703 177.846857 
L 142.532774 178.852571 
L 144.176382 179.858286 
L 145.212407 180.864 
L 148.421924 181.869714 
L 149.790152 182.875429 
L 150.884468 182.875429 
L 151.75189 183.881143 
L 152.036674 184.886857 
L 152.078824 185.892571 
L 153.994877 186.898286 
L 154.167215 187.904 
L 154.375967 188.909714 
L 155.350967 189.915429 
L 156.917877 190.921143 
L 158.994729 191.926857 
L 159.656067 192.932571 
L 161.937003 193.938286 
L 162.995704 194.944 
L 167.601794 195.949714 
L 172.027544 196.955429 
L 173.19509 197.961143 
L 175.206248 198.966857 
L 175.325831 199.972571 
L 175.587805 200.978286 
L 181.357306 201.984 
L 183.646578 202.989714 
L 185.968331 203.995429 
L 186.507752 205.001143 
L 189.10902 206.006857 
L 189.813642 207.012571 
L 190.898688 208.018286 
L 191.732296 209.024 
L 193.640346 210.029714 
L 194.070523 211.035429 
L 196.39681 212.041143 
L 196.996323 213.046857 
L 198.940654 214.052571 
L 200.507697 215.058286 
L 200.598068 216.064 
L 200.731589 217.069714 
L 201.087602 218.075429 
L 202.001644 219.081143 
L 205.074038 220.086857 
L 205.610458 221.092571 
L 208.620693 222.098286 
L 210.132981 223.104 
L 213.123674 224.109714 
L 213.646822 225.115429 
L 214.013039 226.121143 
L 217.402497 227.126857 
L 218.838753 228.132571 
L 221.265215 229.138286 
L 222.579955 230.144 
L 222.731484 231.149714 
L 223.149455 232.155429 
L 232.193767 233.161143 
L 234.434219 234.166857 
L 235.453438 235.172571 
L 236.226355 235.172571 
L 238.126068 236.178286 
L 240.86826 237.184 
L 244.517024 238.189714 
L 246.714859 239.195429 
L 248.972318 240.201143 
L 250.008877 241.206857 
L 252.54225 242.212571 
L 254.221272 243.218286 
L 254.531266 244.224 
L 254.909221 245.229714 
L 258.004692 246.235429 
L 258.778876 247.241143 
L 262.680477 248.246857 
L 264.22411 249.252571 
L 267.235013 250.258286 
L 267.383073 251.264 
L 267.815918 252.269714 
L 269.014343 253.275429 
L 269.440851 254.281143 
L 273.098485 255.286857 
L 273.218401 256.292571 
L 273.365061 257.298286 
L 275.678611 258.304 
L 276.9526 259.309714 
L 276.96914 260.315429 
L 279.230869 260.315429 
L 280.636912 261.321143 
L 283.675159 262.326857 
L 283.706038 263.332571 
L 290.190899 264.338286 
L 295.368424 265.344 
L 295.566839 266.349714 
L 296.954275 267.355429 
L 298.894071 268.361143 
L 303.567855 269.366857 
L 303.590798 270.372571 
L 307.188208 271.378286 
L 307.242563 272.384 
L 308.661279 272.384 
L 310.626752 273.389714 
L 312.03613 274.395429 
L 313.75617 275.401143 
L 315.412849 276.406857 
L 321.755852 277.412571 
L 324.32624 278.418286 
L 329.65356 278.418286 
L 330.769418 279.424 
L 330.996911 280.429714 
L 333.601446 281.435429 
L 335.400118 282.441143 
L 341.286467 283.446857 
L 341.318346 284.452571 
L 342.83797 285.458286 
L 345.593501 286.464 
L 345.744429 287.469714 
L 345.984861 288.475429 
L 346.63873 289.481143 
L 352.403829 290.486857 
L 353.522021 291.492571 
L 356.133759 292.498286 
L 356.331707 293.504 
L 356.546395 294.509714 
L 358.364141 295.515429 
L 358.41036 296.521143 
L 360.836156 297.526857 
L 362.437279 298.532571 
L 364.342528 299.538286 
L 365.198412 300.544 
L 365.970663 301.549714 
L 368.972695 302.555429 
L 370.170319 303.561143 
L 373.861634 304.566857 
L 377.769638 305.572571 
L 378.822403 306.578286 
L 380.118068 307.584 
L 385.847219 307.584 
L 398.487273 307.584 
L 398.487273 306.578286 
L 398.487273 306.578286 
L 385.847219 305.572571 
L 380.118068 304.566857 
L 378.822403 303.561143 
L 377.769638 302.555429 
L 373.861634 301.549714 
L 370.170319 300.544 
L 368.972695 299.538286 
L 365.970663 298.532571 
L 365.198412 297.526857 
L 364.342528 296.521143 
L 362.437279 295.515429 
L 360.836156 294.509714 
L 358.41036 293.504 
L 358.364141 292.498286 
L 356.546395 291.492571 
L 356.331707 290.486857 
L 356.133759 289.481143 
L 353.522021 288.475429 
L 352.403829 287.469714 
L 346.63873 286.464 
L 345.984861 285.458286 
L 345.744429 284.452571 
L 345.593501 283.446857 
L 342.83797 282.441143 
L 341.318346 281.435429 
L 341.286467 280.429714 
L 335.400118 279.424 
L 333.601446 278.418286 
L 330.996911 277.412571 
L 330.769418 276.406857 
L 329.65356 275.401143 
L 324.32624 274.395429 
L 321.755852 273.389714 
L 315.412849 272.384 
L 313.75617 271.378286 
L 312.03613 270.372571 
L 310.626752 269.366857 
L 308.661279 268.361143 
L 307.242563 267.355429 
L 307.188208 266.349714 
L 303.590798 265.344 
L 303.567855 264.338286 
L 298.894071 263.332571 
L 296.954275 262.326857 
L 295.566839 261.321143 
L 295.368424 260.315429 
L 290.190899 259.309714 
L 283.706038 258.304 
L 283.675159 257.298286 
L 280.636912 256.292571 
L 279.230869 255.286857 
L 276.96914 254.281143 
L 276.9526 253.275429 
L 275.678611 252.269714 
L 273.365061 251.264 
L 273.218401 250.258286 
L 273.098485 249.252571 
L 269.440851 248.246857 
L 269.014343 247.241143 
L 267.815918 246.235429 
L 267.383073 245.229714 
L 267.235013 244.224 
L 264.22411 243.218286 
L 262.680477 242.212571 
L 258.778876 241.206857 
L 258.004692 240.201143 
L 254.909221 239.195429 
L 254.531266 238.189714 
L 254.221272 237.184 
L 252.54225 236.178286 
L 250.008877 235.172571 
L 248.972318 234.166857 
L 246.714859 233.161143 
L 244.517024 232.155429 
L 240.86826 231.149714 
L 238.126068 230.144 
L 236.226355 229.138286 
L 235.453438 228.132571 
L 234.434219 227.126857 
L 232.193767 226.121143 
L 223.149455 225.115429 
L 222.731484 224.109714 
L 222.579955 223.104 
L 221.265215 222.098286 
L 218.838753 221.092571 
L 217.402497 220.086857 
L 214.013039 219.081143 
L 213.646822 218.075429 
L 213.123674 217.069714 
L 210.132981 216.064 
L 208.620693 215.058286 
L 205.610458 214.052571 
L 205.074038 213.046857 
L 202.001644 212.041143 
L 201.087602 211.035429 
L 200.731589 210.029714 
L 200.598068 209.024 
L 200.507697 208.018286 
L 198.940654 207.012571 
L 196.996323 206.006857 
L 196.39681 205.001143 
L 194.070523 203.995429 
L 193.640346 202.989714 
L 191.732296 201.984 
L 190.898688 200.978286 
L 189.813642 199.972571 
L 189.10902 198.966857 
L 186.507752 197.961143 
L 185.968331 196.955429 
L 183.646578 195.949714 
L 181.357306 194.944 
L 175.587805 193.938286 
L 175.325831 192.932571 
L 175.206248 191.926857 
L 173.19509 190.921143 
L 172.027544 189.915429 
L 167.601794 188.909714 
L 162.995704 187.904 
L 161.937003 186.898286 
L 159.656067 185.892571 
L 158.994729 184.886857 
L 156.917877 183.881143 
L 155.350967 182.875429 
L 154.375967 181.869714 
L 154.167215 180.864 
L 153.994877 179.858286 
L 152.078824 178.852571 
L 152.036674 177.846857 
L 151.75189 176.841143 
L 150.884468 175.835429 
L 149.790152 174.829714 
L 148.421924 173.824 
L 145.212407 172.818286 
L 144.176382 171.812571 
L 142.532774 170.806857 
L 142.521703 169.801143 
L 142.300678 168.795429 
L 141.545835 167.789714 
L 141.341552 166.784 
L 140.996877 165.778286 
L 135.088726 164.772571 
L 134.83148 163.766857 
L 133.401093 162.761143 
L 132.986049 161.755429 
L 131.954259 160.749714 
L 131.596893 159.744 
L 130.444847 158.738286 
L 130.310718 157.732571 
L 128.364186 156.726857 
L 127.578184 155.721143 
L 126.664582 154.715429 
L 126.573131 153.709714 
L 125.181127 152.704 
L 124.920867 151.698286 
L 123.899728 150.692571 
L 123.389558 149.686857 
L 122.250331 148.681143 
L 120.879482 147.675429 
L 120.735696 146.669714 
L 120.154264 145.664 
L 119.79447 144.658286 
L 118.011698 143.652571 
L 117.290529 142.646857 
L 116.257085 141.641143 
L 114.780145 140.635429 
L 113.038017 139.629714 
L 111.900203 138.624 
L 111.026538 137.618286 
L 110.516902 136.612571 
L 109.05619 135.606857 
L 108.762082 134.601143 
L 108.636704 133.595429 
L 108.285013 132.589714 
L 106.426124 131.584 
L 105.941018 130.578286 
L 104.329463 129.572571 
L 102.696113 128.566857 
L 102.471027 127.561143 
L 102.239986 126.555429 
L 101.596108 125.549714 
L 100.469793 124.544 
L 100.373914 123.538286 
L 99.452582 122.532571 
L 99.077462 121.526857 
L 97.893622 120.521143 
L 97.677107 119.515429 
L 97.513667 118.509714 
L 97.308602 117.504 
L 96.94424 116.498286 
L 95.486475 115.492571 
L 91.08839 114.486857 
L 90.329652 113.481143 
L 90.322236 112.475429 
L 89.704355 111.469714 
L 88.738692 110.464 
L 88.027567 109.458286 
L 87.863386 108.452571 
L 87.457453 107.446857 
L 87.257158 106.441143 
L 86.465673 105.435429 
L 86.112468 104.429714 
L 84.871846 103.424 
L 84.314203 102.418286 
L 83.676588 101.412571 
L 83.253415 100.406857 
L 83.174809 99.401143 
L 82.887138 98.395429 
L 81.602244 97.389714 
L 81.397633 96.384 
L 81.160403 95.378286 
L 81.025267 94.372571 
L 80.964049 93.366857 
L 80.811673 92.361143 
L 80.636768 91.355429 
L 80.5698 90.349714 
L 80.531324 89.344 
L 80.085353 88.338286 
L 78.585276 87.332571 
L 78.350789 86.326857 
L 77.794848 85.321143 
L 77.058878 84.315429 
L 76.752046 83.309714 
L 76.6877 82.304 
L 76.628729 81.298286 
L 76.563126 80.292571 
L 76.082405 79.286857 
L 75.712603 78.281143 
L 75.689679 77.275429 
L 75.33549 76.269714 
L 75.212929 75.264 
L 75.091077 74.258286 
L 74.802227 73.252571 
L 74.669306 72.246857 
L 74.630202 71.241143 
L 74.583248 70.235429 
L 74.542145 69.229714 
L 74.487258 68.224 
L 74.459317 67.218286 
L 74.343229 66.212571 
L 74.324303 65.206857 
L 74.17838 64.201143 
L 74.155046 63.195429 
L 74.087263 62.189714 
L 74.084663 61.184 
L 74.068793 60.178286 
L 73.997277 59.172571 
L 73.996374 58.166857 
L 73.976745 57.161143 
L 73.876301 56.155429 
L 73.862648 55.149714 
L 73.832727 54.144 
z
" clip-path="url(#pbfcd2f08a1)" style="fill: #ff0000"/>
   </g>
   <g id="matplotlib.axis_1">
    <g id="xtick_1">
     <g id="line2d_1">
      <defs>
       <path id="m01688769c9" d="M 0 0 
L 0 3.5 
" style="stroke: #000000; stroke-width: 0.8"/>
      </defs>
      <g>
       <use xlink:href="#m01688769c9" x="73.790031" y="307.584" style="stroke: #000000; stroke-width: 0.8"/>
      </g>
     </g>
     <g id="text_1">
      <!-- 0.0 -->
      <g transform="translate(65.838469 322.182437) scale(0.1 -0.1)">
       <defs>
        <path id="DejaVuSans-30" d="M 2034 4250 
Q 1547 4250 1301 3770 
Q 1056 3291 1056 2328 
Q 1056 1369 1301 889 
Q 1547 409 2034 409 
Q 2525 409 2770 889 
Q 3016 1369 3016 2328 
Q 3016 3291 2770 3770 
Q 2525 4250 2034 4250 
z
M 2034 4750 
Q 2819 4750 3233 4129 
Q 3647 3509 3647 2328 
Q 3647 1150 3233 529 
Q 2819 -91 2034 -91 
Q 1250 -91 836 529 
Q 422 1150 422 2328 
Q 422 3509 836 4129 
Q 1250 4750 2034 4750 
z
" transform="scale(0.015625)"/>
        <path id="DejaVuSans-2e" d="M 684 794 
L 1344 794 
L 1344 0 
L 684 0 
L 684 794 
z
" transform="scale(0.015625)"/>
       </defs>
       <use xlink:href="#DejaVuSans-30"/>
       <use xlink:href="#DejaVuSans-2e" x="63.623047"/>
       <use xlink:href="#DejaVuSans-30" x="95.410156"/>
      </g>
     </g>
    </g>
    <g id="xtick_2">
     <g id="line2d_2">
      <g>
       <use xlink:href="#m01688769c9" x="140.484066" y="307.584" style="stroke: #000000; stroke-width: 0.8"/>
      </g>
     </g>
     <g id="text_2">
      <!-- 0.1 -->
      <g transform="translate(132.532504 322.182437) scale(0.1 -0.1)">
       <defs>
        <path id="DejaVuSans-31" d="M 794 531 
L 1825 531 
L 1825 4091 
L 703 3866 
L 703 4441 
L 1819 4666 
L 2450 4666 
L 2450 531 
L 3481 531 
L 3481 0 
L 794 0 
L 794 531 
z
" transform="scale(0.015625)"/>
       </defs>
       <use xlink:href="#DejaVuSans-30"/>
       <use xlink:href="#DejaVuSans-2e" x="63.623047"/>
       <use xlink:href="#DejaVuSans-31" x="95.410156"/>
      </g>
     </g>
    </g>
    <g id="xtick_3">
     <g id="line2d_3">
      <g>
       <use xlink:href="#m01688769c9" x="207.178101" y="307.584" style="stroke: #000000; stroke-width: 0.8"/>
      </g>
     </g>
     <g id="text_3">
      <!-- 0.2 -->
      <g transform="translate(199.226539 322.182437) scale(0.1 -0.1)">
       <defs>
        <path id="DejaVuSans-32" d="M 1228 531 
L 3431 531 
L 3431 0 
L 469 0 
L 469 531 
Q 828 903 1448 1529 
Q 2069 2156 2228 2338 
Q 2531 2678 2651 2914 
Q 2772 3150 2772 3378 
Q 2772 3750 2511 3984 
Q 2250 4219 1831 4219 
Q 1534 4219 1204 4116 
Q 875 4013 500 3803 
L 500 4441 
Q 881 4594 1212 4672 
Q 1544 4750 1819 4750 
Q 2544 4750 2975 4387 
Q 3406 4025 3406 3419 
Q 3406 3131 3298 2873 
Q 3191 2616 2906 2266 
Q 2828 2175 2409 1742 
Q 1991 1309 1228 531 
z
" transform="scale(0.015625)"/>
       </defs>
       <use xlink:href="#DejaVuSans-30"/>
       <use xlink:href="#DejaVuSans-2e" x="63.623047"/>
       <use xlink:href="#DejaVuSans-32" x="95.410156"/>
      </g>
     </g>
    </g>
    <g id="xtick_4">
     <g id="line2d_4">
      <g>
       <use xlink:href="#m01688769c9" x="273.872136" y="307.584" style="stroke: #000000; stroke-width: 0.8"/>
      </g>
     </g>
     <g id="text_4">
      <!-- 0.3 -->
      <g transform="translate(265.920574 322.182437) scale(0.1 -0.1)">
       <defs>
        <path id="DejaVuSans-33" d="M 2597 2516 
Q 3050 2419 3304 2112 
Q 3559 1806 3559 1356 
Q 3559 666 3084 287 
Q 2609 -91 1734 -91 
Q 1441 -91 1130 -33 
Q 819 25 488 141 
L 488 750 
Q 750 597 1062 519 
Q 1375 441 1716 441 
Q 2309 441 2620 675 
Q 2931 909 2931 1356 
Q 2931 1769 2642 2001 
Q 2353 2234 1838 2234 
L 1294 2234 
L 1294 2753 
L 1863 2753 
Q 2328 2753 2575 2939 
Q 2822 3125 2822 3475 
Q 2822 3834 2567 4026 
Q 2313 4219 1838 4219 
Q 1578 4219 1281 4162 
Q 984 4106 628 3988 
L 628 4550 
Q 988 4650 1302 4700 
Q 1616 4750 1894 4750 
Q 2613 4750 3031 4423 
Q 3450 4097 3450 3541 
Q 3450 3153 3228 2886 
Q 3006 2619 2597 2516 
z
" transform="scale(0.015625)"/>
       </defs>
       <use xlink:href="#DejaVuSans-30"/>
       <use xlink:href="#DejaVuSans-2e" x="63.623047"/>
       <use xlink:href="#DejaVuSans-33" x="95.410156"/>
      </g>
     </g>
    </g>
    <g id="xtick_5">
     <g id="line2d_5">
      <g>
       <use xlink:href="#m01688769c9" x="340.566171" y="307.584" style="stroke: #000000; stroke-width: 0.8"/>
      </g>
     </g>
     <g id="text_5">
      <!-- 0.4 -->
      <g transform="translate(332.614609 322.182437) scale(0.1 -0.1)">
       <defs>
        <path id="DejaVuSans-34" d="M 2419 4116 
L 825 1625 
L 2419 1625 
L 2419 4116 
z
M 2253 4666 
L 3047 4666 
L 3047 1625 
L 3713 1625 
L 3713 1100 
L 3047 1100 
L 3047 0 
L 2419 0 
L 2419 1100 
L 313 1100 
L 313 1709 
L 2253 4666 
z
" transform="scale(0.015625)"/>
       </defs>
       <use xlink:href="#DejaVuSans-30"/>
       <use xlink:href="#DejaVuSans-2e" x="63.623047"/>
       <use xlink:href="#DejaVuSans-34" x="95.410156"/>
      </g>
     </g>
    </g>
    <g id="xtick_6">
     <g id="line2d_6">
      <g>
       <use xlink:href="#m01688769c9" x="407.260206" y="307.584" style="stroke: #000000; stroke-width: 0.8"/>
      </g>
     </g>
     <g id="text_6">
      <!-- 0.5 -->
      <g transform="translate(399.308644 322.182437) scale(0.1 -0.1)">
       <defs>
        <path id="DejaVuSans-35" d="M 691 4666 
L 3169 4666 
L 3169 4134 
L 1269 4134 
L 1269 2991 
Q 1406 3038 1543 3061 
Q 1681 3084 1819 3084 
Q 2600 3084 3056 2656 
Q 3513 2228 3513 1497 
Q 3513 744 3044 326 
Q 2575 -91 1722 -91 
Q 1428 -91 1123 -41 
Q 819 9 494 109 
L 494 744 
Q 775 591 1075 516 
Q 1375 441 1709 441 
Q 2250 441 2565 725 
Q 2881 1009 2881 1497 
Q 2881 1984 2565 2268 
Q 2250 2553 1709 2553 
Q 1456 2553 1204 2497 
Q 953 2441 691 2322 
L 691 4666 
z
" transform="scale(0.015625)"/>
       </defs>
       <use xlink:href="#DejaVuSans-30"/>
       <use xlink:href="#DejaVuSans-2e" x="63.623047"/>
       <use xlink:href="#DejaVuSans-35" x="95.410156"/>
      </g>
     </g>
    </g>
    <g id="text_7">
     <!-- Score -->
     <g transform="translate(222.157656 335.860562) scale(0.1 -0.1)">
      <defs>
       <path id="DejaVuSans-53" d="M 3425 4513 
L 3425 3897 
Q 3066 4069 2747 4153 
Q 2428 4238 2131 4238 
Q 1616 4238 1336 4038 
Q 1056 3838 1056 3469 
Q 1056 3159 1242 3001 
Q 1428 2844 1947 2747 
L 2328 2669 
Q 3034 2534 3370 2195 
Q 3706 1856 3706 1288 
Q 3706 609 3251 259 
Q 2797 -91 1919 -91 
Q 1588 -91 1214 -16 
Q 841 59 441 206 
L 441 856 
Q 825 641 1194 531 
Q 1563 422 1919 422 
Q 2459 422 2753 634 
Q 3047 847 3047 1241 
Q 3047 1584 2836 1778 
Q 2625 1972 2144 2069 
L 1759 2144 
Q 1053 2284 737 2584 
Q 422 2884 422 3419 
Q 422 4038 858 4394 
Q 1294 4750 2059 4750 
Q 2388 4750 2728 4690 
Q 3069 4631 3425 4513 
z
" transform="scale(0.015625)"/>
       <path id="DejaVuSans-63" d="M 3122 3366 
L 3122 2828 
Q 2878 2963 2633 3030 
Q 2388 3097 2138 3097 
Q 1578 3097 1268 2742 
Q 959 2388 959 1747 
Q 959 1106 1268 751 
Q 1578 397 2138 397 
Q 2388 397 2633 464 
Q 2878 531 3122 666 
L 3122 134 
Q 2881 22 2623 -34 
Q 2366 -91 2075 -91 
Q 1284 -91 818 406 
Q 353 903 353 1747 
Q 353 2603 823 3093 
Q 1294 3584 2113 3584 
Q 2378 3584 2631 3529 
Q 2884 3475 3122 3366 
z
" transform="scale(0.015625)"/>
       <path id="DejaVuSans-6f" d="M 1959 3097 
Q 1497 3097 1228 2736 
Q 959 2375 959 1747 
Q 959 1119 1226 758 
Q 1494 397 1959 397 
Q 2419 397 2687 759 
Q 2956 1122 2956 1747 
Q 2956 2369 2687 2733 
Q 2419 3097 1959 3097 
z
M 1959 3584 
Q 2709 3584 3137 3096 
Q 3566 2609 3566 1747 
Q 3566 888 3137 398 
Q 2709 -91 1959 -91 
Q 1206 -91 779 398 
Q 353 888 353 1747 
Q 353 2609 779 3096 
Q 1206 3584 1959 3584 
z
" transform="scale(0.015625)"/>
       <path id="DejaVuSans-72" d="M 2631 2963 
Q 2534 3019 2420 3045 
Q 2306 3072 2169 3072 
Q 1681 3072 1420 2755 
Q 1159 2438 1159 1844 
L 1159 0 
L 581 0 
L 581 3500 
L 1159 3500 
L 1159 2956 
Q 1341 3275 1631 3429 
Q 1922 3584 2338 3584 
Q 2397 3584 2469 3576 
Q 2541 3569 2628 3553 
L 2631 2963 
z
" transform="scale(0.015625)"/>
       <path id="DejaVuSans-65" d="M 3597 1894 
L 3597 1613 
L 953 1613 
Q 991 1019 1311 708 
Q 1631 397 2203 397 
Q 2534 397 2845 478 
Q 3156 559 3463 722 
L 3463 178 
Q 3153 47 2828 -22 
Q 2503 -91 2169 -91 
Q 1331 -91 842 396 
Q 353 884 353 1716 
Q 353 2575 817 3079 
Q 1281 3584 2069 3584 
Q 2775 3584 3186 3129 
Q 3597 2675 3597 1894 
z
M 3022 2063 
Q 3016 2534 2758 2815 
Q 2500 3097 2075 3097 
Q 1594 3097 1305 2825 
Q 1016 2553 972 2059 
L 3022 2063 
z
" transform="scale(0.015625)"/>
      </defs>
      <use xlink:href="#DejaVuSans-53"/>
      <use xlink:href="#DejaVuSans-63" x="63.476562"/>
      <use xlink:href="#DejaVuSans-6f" x="118.457031"/>
      <use xlink:href="#DejaVuSans-72" x="179.638672"/>
      <use xlink:href="#DejaVuSans-65" x="218.501953"/>
     </g>
    </g>
   </g>
   <g id="matplotlib.axis_2">
    <g id="ytick_1">
     <g id="line2d_7">
      <defs>
       <path id="mbcce63a7b5" d="M 0 0 
L -3.5 0 
" style="stroke: #000000; stroke-width: 0.8"/>
      </defs>
      <g>
       <use xlink:href="#mbcce63a7b5" x="57.6" y="307.584" style="stroke: #000000; stroke-width: 0.8"/>
      </g>
     </g>
     <g id="text_8">
      <!-- 0 -->
      <g transform="translate(44.2375 311.383219) scale(0.1 -0.1)">
       <use xlink:href="#DejaVuSans-30"/>
      </g>
     </g>
    </g>
    <g id="ytick_2">
     <g id="line2d_8">
      <g>
       <use xlink:href="#mbcce63a7b5" x="57.6" y="257.298286" style="stroke: #000000; stroke-width: 0.8"/>
      </g>
     </g>
     <g id="text_9">
      <!-- 50 -->
      <g transform="translate(37.875 261.097504) scale(0.1 -0.1)">
       <use xlink:href="#DejaVuSans-35"/>
       <use xlink:href="#DejaVuSans-30" x="63.623047"/>
      </g>
     </g>
    </g>
    <g id="ytick_3">
     <g id="line2d_9">
      <g>
       <use xlink:href="#mbcce63a7b5" x="57.6" y="207.012571" style="stroke: #000000; stroke-width: 0.8"/>
      </g>
     </g>
     <g id="text_10">
      <!-- 100 -->
      <g transform="translate(31.5125 210.81179) scale(0.1 -0.1)">
       <use xlink:href="#DejaVuSans-31"/>
       <use xlink:href="#DejaVuSans-30" x="63.623047"/>
       <use xlink:href="#DejaVuSans-30" x="127.246094"/>
      </g>
     </g>
    </g>
    <g id="ytick_4">
     <g id="line2d_10">
      <g>
       <use xlink:href="#mbcce63a7b5" x="57.6" y="156.726857" style="stroke: #000000; stroke-width: 0.8"/>
      </g>
     </g>
     <g id="text_11">
      <!-- 150 -->
      <g transform="translate(31.5125 160.526076) scale(0.1 -0.1)">
       <use xlink:href="#DejaVuSans-31"/>
       <use xlink:href="#DejaVuSans-35" x="63.623047"/>
       <use xlink:href="#DejaVuSans-30" x="127.246094"/>
      </g>
     </g>
    </g>
    <g id="ytick_5">
     <g id="line2d_11">
      <g>
       <use xlink:href="#mbcce63a7b5" x="57.6" y="106.441143" style="stroke: #000000; stroke-width: 0.8"/>
      </g>
     </g>
     <g id="text_12">
      <!-- 200 -->
      <g transform="translate(31.5125 110.240362) scale(0.1 -0.1)">
       <use xlink:href="#DejaVuSans-32"/>
       <use xlink:href="#DejaVuSans-30" x="63.623047"/>
       <use xlink:href="#DejaVuSans-30" x="127.246094"/>
      </g>
     </g>
    </g>
    <g id="ytick_6">
     <g id="line2d_12">
      <g>
       <use xlink:href="#mbcce63a7b5" x="57.6" y="56.155429" style="stroke: #000000; stroke-width: 0.8"/>
      </g>
     </g>
     <g id="text_13">
      <!-- 250 -->
      <g transform="translate(31.5125 59.954647) scale(0.1 -0.1)">
       <use xlink:href="#DejaVuSans-32"/>
       <use xlink:href="#DejaVuSans-35" x="63.623047"/>
       <use xlink:href="#DejaVuSans-30" x="127.246094"/>
      </g>
     </g>
    </g>
    <g id="text_14">
     <!-- Number of crosslinks -->
     <g transform="translate(25.432812 227.019406) rotate(-90) scale(0.1 -0.1)">
      <defs>
       <path id="DejaVuSans-4e" d="M 628 4666 
L 1478 4666 
L 3547 763 
L 3547 4666 
L 4159 4666 
L 4159 0 
L 3309 0 
L 1241 3903 
L 1241 0 
L 628 0 
L 628 4666 
z
" transform="scale(0.015625)"/>
       <path id="DejaVuSans-75" d="M 544 1381 
L 544 3500 
L 1119 3500 
L 1119 1403 
Q 1119 906 1312 657 
Q 1506 409 1894 409 
Q 2359 409 2629 706 
Q 2900 1003 2900 1516 
L 2900 3500 
L 3475 3500 
L 3475 0 
L 2900 0 
L 2900 538 
Q 2691 219 2414 64 
Q 2138 -91 1772 -91 
Q 1169 -91 856 284 
Q 544 659 544 1381 
z
M 1991 3584 
L 1991 3584 
z
" transform="scale(0.015625)"/>
       <path id="DejaVuSans-6d" d="M 3328 2828 
Q 3544 3216 3844 3400 
Q 4144 3584 4550 3584 
Q 5097 3584 5394 3201 
Q 5691 2819 5691 2113 
L 5691 0 
L 5113 0 
L 5113 2094 
Q 5113 2597 4934 2840 
Q 4756 3084 4391 3084 
Q 3944 3084 3684 2787 
Q 3425 2491 3425 1978 
L 3425 0 
L 2847 0 
L 2847 2094 
Q 2847 2600 2669 2842 
Q 2491 3084 2119 3084 
Q 1678 3084 1418 2786 
Q 1159 2488 1159 1978 
L 1159 0 
L 581 0 
L 581 3500 
L 1159 3500 
L 1159 2956 
Q 1356 3278 1631 3431 
Q 1906 3584 2284 3584 
Q 2666 3584 2933 3390 
Q 3200 3197 3328 2828 
z
" transform="scale(0.015625)"/>
       <path id="DejaVuSans-62" d="M 3116 1747 
Q 3116 2381 2855 2742 
Q 2594 3103 2138 3103 
Q 1681 3103 1420 2742 
Q 1159 2381 1159 1747 
Q 1159 1113 1420 752 
Q 1681 391 2138 391 
Q 2594 391 2855 752 
Q 3116 1113 3116 1747 
z
M 1159 2969 
Q 1341 3281 1617 3432 
Q 1894 3584 2278 3584 
Q 2916 3584 3314 3078 
Q 3713 2572 3713 1747 
Q 3713 922 3314 415 
Q 2916 -91 2278 -91 
Q 1894 -91 1617 61 
Q 1341 213 1159 525 
L 1159 0 
L 581 0 
L 581 4863 
L 1159 4863 
L 1159 2969 
z
" transform="scale(0.015625)"/>
       <path id="DejaVuSans-20" transform="scale(0.015625)"/>
       <path id="DejaVuSans-66" d="M 2375 4863 
L 2375 4384 
L 1825 4384 
Q 1516 4384 1395 4259 
Q 1275 4134 1275 3809 
L 1275 3500 
L 2222 3500 
L 2222 3053 
L 1275 3053 
L 1275 0 
L 697 0 
L 697 3053 
L 147 3053 
L 147 3500 
L 697 3500 
L 697 3744 
Q 697 4328 969 4595 
Q 1241 4863 1831 4863 
L 2375 4863 
z
" transform="scale(0.015625)"/>
       <path id="DejaVuSans-73" d="M 2834 3397 
L 2834 2853 
Q 2591 2978 2328 3040 
Q 2066 3103 1784 3103 
Q 1356 3103 1142 2972 
Q 928 2841 928 2578 
Q 928 2378 1081 2264 
Q 1234 2150 1697 2047 
L 1894 2003 
Q 2506 1872 2764 1633 
Q 3022 1394 3022 966 
Q 3022 478 2636 193 
Q 2250 -91 1575 -91 
Q 1294 -91 989 -36 
Q 684 19 347 128 
L 347 722 
Q 666 556 975 473 
Q 1284 391 1588 391 
Q 1994 391 2212 530 
Q 2431 669 2431 922 
Q 2431 1156 2273 1281 
Q 2116 1406 1581 1522 
L 1381 1569 
Q 847 1681 609 1914 
Q 372 2147 372 2553 
Q 372 3047 722 3315 
Q 1072 3584 1716 3584 
Q 2034 3584 2315 3537 
Q 2597 3491 2834 3397 
z
" transform="scale(0.015625)"/>
       <path id="DejaVuSans-6c" d="M 603 4863 
L 1178 4863 
L 1178 0 
L 603 0 
L 603 4863 
z
" transform="scale(0.015625)"/>
       <path id="DejaVuSans-69" d="M 603 3500 
L 1178 3500 
L 1178 0 
L 603 0 
L 603 3500 
z
M 603 4863 
L 1178 4863 
L 1178 4134 
L 603 4134 
L 603 4863 
z
" transform="scale(0.015625)"/>
       <path id="DejaVuSans-6e" d="M 3513 2113 
L 3513 0 
L 2938 0 
L 2938 2094 
Q 2938 2591 2744 2837 
Q 2550 3084 2163 3084 
Q 1697 3084 1428 2787 
Q 1159 2491 1159 1978 
L 1159 0 
L 581 0 
L 581 3500 
L 1159 3500 
L 1159 2956 
Q 1366 3272 1645 3428 
Q 1925 3584 2291 3584 
Q 2894 3584 3203 3211 
Q 3513 2838 3513 2113 
z
" transform="scale(0.015625)"/>
       <path id="DejaVuSans-6b" d="M 581 4863 
L 1159 4863 
L 1159 1991 
L 2875 3500 
L 3609 3500 
L 1753 1863 
L 3688 0 
L 2938 0 
L 1159 1709 
L 1159 0 
L 581 0 
L 581 4863 
z
" transform="scale(0.015625)"/>
      </defs>
      <use xlink:href="#DejaVuSans-4e"/>
      <use xlink:href="#DejaVuSans-75" x="74.804688"/>
      <use xlink:href="#DejaVuSans-6d" x="138.183594"/>
      <use xlink:href="#DejaVuSans-62" x="235.595703"/>
      <use xlink:href="#DejaVuSans-65" x="299.072266"/>
      <use xlink:href="#DejaVuSans-72" x="360.595703"/>
      <use xlink:href="#DejaVuSans-20" x="401.708984"/>
      <use xlink:href="#DejaVuSans-6f" x="433.496094"/>
      <use xlink:href="#DejaVuSans-66" x="494.677734"/>
      <use xlink:href="#DejaVuSans-20" x="529.882812"/>
      <use xlink:href="#DejaVuSans-63" x="561.669922"/>
      <use xlink:href="#DejaVuSans-72" x="616.650391"/>
      <use xlink:href="#DejaVuSans-6f" x="655.513672"/>
      <use xlink:href="#DejaVuSans-73" x="716.695312"/>
      <use xlink:href="#DejaVuSans-73" x="768.794922"/>
      <use xlink:href="#DejaVuSans-6c" x="820.894531"/>
      <use xlink:href="#DejaVuSans-69" x="848.677734"/>
      <use xlink:href="#DejaVuSans-6e" x="876.460938"/>
      <use xlink:href="#DejaVuSans-6b" x="939.839844"/>
      <use xlink:href="#DejaVuSans-73" x="997.75"/>
     </g>
    </g>
   </g>
   <g id="patch_3">
    <path d="M 57.6 307.584 
L 57.6 41.472 
" style="fill: none; stroke: #000000; stroke-width: 0.8; stroke-linejoin: miter; stroke-linecap: square"/>
   </g>
   <g id="patch_4">
    <path d="M 414.72 307.584 
L 414.72 41.472 
" style="fill: none; stroke: #000000; stroke-width: 0.8; stroke-linejoin: miter; stroke-linecap: square"/>
   </g>
   <g id="patch_5">
    <path d="M 57.6 307.584 
L 414.72 307.584 
" style="fill: none; stroke: #000000; stroke-width: 0.8; stroke-linejoin: miter; stroke-linecap: square"/>
   </g>
   <g id="patch_6">
    <path d="M 57.6 41.472 
L 414.72 41.472 
" style="fill: none; stroke: #000000; stroke-width: 0.8; stroke-linejoin: miter; stroke-linecap: square"/>
   </g>
   <g id="legend_1">
    <g id="patch_7">
     <path d="M 293.087188 93.506375 
L 407.72 93.506375 
Q 409.72 93.506375 409.72 91.506375 
L 409.72 48.472 
Q 409.72 46.472 407.72 46.472 
L 293.087188 46.472 
Q 291.087188 46.472 291.087188 48.472 
L 291.087188 91.506375 
Q 291.087188 93.506375 293.087188 93.506375 
z
" style="fill: #ffffff; opacity: 0.8; stroke: #cccccc; stroke-linejoin: miter"/>
    </g>
    <g id="patch_8">
     <path d="M 295.087188 58.070438 
L 315.087188 58.070438 
L 315.087188 51.070438 
L 295.087188 51.070438 
z
" style="fill: #008000"/>
    </g>
    <g id="text_15">
     <!-- true -->
     <g transform="translate(323.087188 58.070438) scale(0.1 -0.1)">
      <defs>
       <path id="DejaVuSans-74" d="M 1172 4494 
L 1172 3500 
L 2356 3500 
L 2356 3053 
L 1172 3053 
L 1172 1153 
Q 1172 725 1289 603 
Q 1406 481 1766 481 
L 2356 481 
L 2356 0 
L 1766 0 
Q 1100 0 847 248 
Q 594 497 594 1153 
L 594 3053 
L 172 3053 
L 172 3500 
L 594 3500 
L 594 4494 
L 1172 4494 
z
" transform="scale(0.015625)"/>
      </defs>
      <use xlink:href="#DejaVuSans-74"/>
      <use xlink:href="#DejaVuSans-72" x="39.208984"/>
      <use xlink:href="#DejaVuSans-75" x="80.322266"/>
      <use xlink:href="#DejaVuSans-65" x="143.701172"/>
     </g>
    </g>
    <g id="patch_9">
     <path d="M 295.087188 72.748563 
L 315.087188 72.748563 
L 315.087188 65.748563 
L 295.087188 65.748563 
z
" style="fill: #7cfc00"/>
    </g>
    <g id="text_16">
     <!-- true homeotypic -->
     <g transform="translate(323.087188 72.748563) scale(0.1 -0.1)">
      <defs>
       <path id="DejaVuSans-68" d="M 3513 2113 
L 3513 0 
L 2938 0 
L 2938 2094 
Q 2938 2591 2744 2837 
Q 2550 3084 2163 3084 
Q 1697 3084 1428 2787 
Q 1159 2491 1159 1978 
L 1159 0 
L 581 0 
L 581 4863 
L 1159 4863 
L 1159 2956 
Q 1366 3272 1645 3428 
Q 1925 3584 2291 3584 
Q 2894 3584 3203 3211 
Q 3513 2838 3513 2113 
z
" transform="scale(0.015625)"/>
       <path id="DejaVuSans-79" d="M 2059 -325 
Q 1816 -950 1584 -1140 
Q 1353 -1331 966 -1331 
L 506 -1331 
L 506 -850 
L 844 -850 
Q 1081 -850 1212 -737 
Q 1344 -625 1503 -206 
L 1606 56 
L 191 3500 
L 800 3500 
L 1894 763 
L 2988 3500 
L 3597 3500 
L 2059 -325 
z
" transform="scale(0.015625)"/>
       <path id="DejaVuSans-70" d="M 1159 525 
L 1159 -1331 
L 581 -1331 
L 581 3500 
L 1159 3500 
L 1159 2969 
Q 1341 3281 1617 3432 
Q 1894 3584 2278 3584 
Q 2916 3584 3314 3078 
Q 3713 2572 3713 1747 
Q 3713 922 3314 415 
Q 2916 -91 2278 -91 
Q 1894 -91 1617 61 
Q 1341 213 1159 525 
z
M 3116 1747 
Q 3116 2381 2855 2742 
Q 2594 3103 2138 3103 
Q 1681 3103 1420 2742 
Q 1159 2381 1159 1747 
Q 1159 1113 1420 752 
Q 1681 391 2138 391 
Q 2594 391 2855 752 
Q 3116 1113 3116 1747 
z
" transform="scale(0.015625)"/>
      </defs>
      <use xlink:href="#DejaVuSans-74"/>
      <use xlink:href="#DejaVuSans-72" x="39.208984"/>
      <use xlink:href="#DejaVuSans-75" x="80.322266"/>
      <use xlink:href="#DejaVuSans-65" x="143.701172"/>
      <use xlink:href="#DejaVuSans-20" x="205.224609"/>
      <use xlink:href="#DejaVuSans-68" x="237.011719"/>
      <use xlink:href="#DejaVuSans-6f" x="300.390625"/>
      <use xlink:href="#DejaVuSans-6d" x="361.572266"/>
      <use xlink:href="#DejaVuSans-65" x="458.984375"/>
      <use xlink:href="#DejaVuSans-6f" x="520.507812"/>
      <use xlink:href="#DejaVuSans-74" x="581.689453"/>
      <use xlink:href="#DejaVuSans-79" x="620.898438"/>
      <use xlink:href="#DejaVuSans-70" x="680.078125"/>
      <use xlink:href="#DejaVuSans-69" x="743.554688"/>
      <use xlink:href="#DejaVuSans-63" x="771.337891"/>
     </g>
    </g>
    <g id="patch_10">
     <path d="M 295.087188 87.426688 
L 315.087188 87.426688 
L 315.087188 80.426688 
L 295.087188 80.426688 
z
" style="fill: #ff0000"/>
    </g>
    <g id="text_17">
     <!-- false -->
     <g transform="translate(323.087188 87.426688) scale(0.1 -0.1)">
      <defs>
       <path id="DejaVuSans-61" d="M 2194 1759 
Q 1497 1759 1228 1600 
Q 959 1441 959 1056 
Q 959 750 1161 570 
Q 1363 391 1709 391 
Q 2188 391 2477 730 
Q 2766 1069 2766 1631 
L 2766 1759 
L 2194 1759 
z
M 3341 1997 
L 3341 0 
L 2766 0 
L 2766 531 
Q 2569 213 2275 61 
Q 1981 -91 1556 -91 
Q 1019 -91 701 211 
Q 384 513 384 1019 
Q 384 1609 779 1909 
Q 1175 2209 1959 2209 
L 2766 2209 
L 2766 2266 
Q 2766 2663 2505 2880 
Q 2244 3097 1772 3097 
Q 1472 3097 1187 3025 
Q 903 2953 641 2809 
L 641 3341 
Q 956 3463 1253 3523 
Q 1550 3584 1831 3584 
Q 2591 3584 2966 3190 
Q 3341 2797 3341 1997 
z
" transform="scale(0.015625)"/>
      </defs>
      <use xlink:href="#DejaVuSans-66"/>
      <use xlink:href="#DejaVuSans-61" x="35.205078"/>
      <use xlink:href="#DejaVuSans-6c" x="96.484375"/>
      <use xlink:href="#DejaVuSans-73" x="124.267578"/>
      <use xlink:href="#DejaVuSans-65" x="176.367188"/>
     </g>
    </g>
   </g>
  </g>
 </g>
 <defs>
  <clipPath id="pbfcd2f08a1">
   <rect x="57.6" y="41.472" width="357.12" height="266.112"/>
  </clipPath>
 </defs>
</svg>
