<?xml version="1.0" encoding="utf-8" standalone="no"?>
<!DOCTYPE svg PUBLIC "-//W3C//DTD SVG 1.1//EN"
  "http://www.w3.org/Graphics/SVG/1.1/DTD/svg11.dtd">
<svg xmlns:xlink="http://www.w3.org/1999/xlink" width="323.706161pt" height="280.512pt" viewBox="0 0 323.706161 280.512" xmlns="http://www.w3.org/2000/svg" version="1.1">
 <metadata>
  <rdf:RDF xmlns:dc="http://purl.org/dc/elements/1.1/" xmlns:cc="http://creativecommons.org/ns#" xmlns:rdf="http://www.w3.org/1999/02/22-rdf-syntax-ns#">
   <cc:Work>
    <dc:type rdf:resource="http://purl.org/dc/dcmitype/StillImage"/>
    <dc:date>2024-11-02T23:17:46.010919</dc:date>
    <dc:format>image/svg+xml</dc:format>
    <dc:creator>
     <cc:Agent>
      <dc:title>Matplotlib v3.9.0, https://matplotlib.org/</dc:title>
     </cc:Agent>
    </dc:creator>
   </cc:Work>
  </rdf:RDF>
 </metadata>
 <defs>
  <style type="text/css">*{stroke-linejoin: round; stroke-linecap: butt}</style>
 </defs>
 <g id="figure_1">
  <g id="patch_1">
   <path d="M 0 280.512 
L 323.706161 280.512 
L 323.706161 0 
L 0 0 
L 0 280.512 
z
" style="fill: none"/>
  </g>
  <g id="axes_1">
   <g id="patch_2">
    <path d="M 156.03662 38.830351 
C 143.770278 33.877321 130.584186 31.608421 117.367805 32.176699 
C 104.151423 32.744976 91.208756 36.13736 79.412841 42.12502 
C 67.616926 48.112679 57.239093 56.557885 48.979373 66.890973 
C 40.719652 77.22406 34.768035 89.207347 31.525982 102.032508 
C 28.283929 114.85767 27.826015 128.229702 30.183128 141.246602 
C 32.540241 154.263502 37.658162 166.625856 45.191666 177.49977 
C 52.72517 188.373683 62.500971 197.509034 73.859649 204.289603 
C 85.218327 211.070172 97.898609 215.339992 111.045155 216.811047 
C 101.518509 203.986366 95.719339 188.774695 94.290694 172.862801 
C 92.862048 156.950907 95.858759 140.9495 102.948532 126.632919 
C 102.590317 108.477395 107.388671 90.587245 116.78428 75.047815 
C 126.17989 59.508385 139.792933 46.947862 156.03662 38.830351 
" clip-path="url(#p7eef891825)" style="fill: #00b4d8; opacity: 0.6"/>
   </g>
   <g id="patch_3">
    <path d="M 156.03662 38.830351 
C 166.088684 42.889278 175.350784 48.681165 183.400629 55.941942 
C 191.450473 63.202718 198.163834 71.820332 203.234623 81.401875 
C 215.134159 84.613078 226.213306 90.32506 235.731166 98.155841 
C 245.249025 105.986622 252.988595 115.757666 258.432305 126.81555 
C 263.876015 137.873434 266.899752 149.966046 267.301309 162.284712 
C 267.702865 174.603378 265.473086 186.86724 260.761083 198.256174 
C 278.758368 183.129047 290.589049 161.907566 293.99343 138.645098 
C 297.397811 115.38263 292.144404 91.660952 279.236627 72.010977 
C 266.328849 52.361002 246.64439 38.118869 223.943042 32.004868 
C 201.241693 25.890867 177.067077 28.320732 156.03662 38.830351 
" clip-path="url(#p7eef891825)" style="fill: #caf0f8; opacity: 0.6"/>
   </g>
   <g id="patch_4">
    <path d="M 156.03662 38.830351 
C 139.792933 46.947862 126.17989 59.508385 116.78428 75.047815 
C 107.388671 90.587245 102.590317 108.477395 102.948532 126.632919 
C 111.849084 108.659782 126.71611 94.320134 144.998857 86.074248 
C 163.281603 77.828361 183.871045 76.176429 203.234623 81.401875 
C 198.163834 71.820332 191.450473 63.202718 183.400629 55.941942 
C 175.350784 48.681165 166.088684 42.889278 156.03662 38.830351 
" clip-path="url(#p7eef891825)" style="fill: #8dffff; opacity: 0.6"/>
   </g>
   <g id="patch_5">
    <path d="M 111.045155 216.811047 
C 120.19014 229.121941 132.439802 238.788867 146.539292 244.82155 
C 160.638781 250.854234 176.08963 253.039398 191.309062 251.153195 
C 206.528494 249.266992 220.978447 243.376106 233.178676 234.083997 
C 245.378905 224.791888 254.898087 212.427065 260.761083 198.256174 
C 246.418779 210.311207 228.857519 217.909789 210.251615 220.111118 
C 191.645712 222.312447 172.796105 219.021761 156.03662 210.646489 
C 148.937258 213.513143 141.509848 215.488747 133.924437 216.528071 
C 126.339027 217.567395 118.65395 217.662445 111.045155 216.811047 
" clip-path="url(#p7eef891825)" style="fill: #03045e; opacity: 0.6"/>
   </g>
   <g id="patch_6">
    <path d="M 111.045155 216.811047 
C 118.65395 217.662445 126.339027 217.567395 133.924437 216.528071 
C 141.509848 215.488747 148.937258 213.513143 156.03662 210.646489 
C 140.368558 202.816637 127.137069 190.847625 117.780497 176.040554 
C 108.423925 161.233484 103.294054 144.145068 102.948532 126.632919 
C 95.858759 140.9495 92.862048 156.950907 94.290694 172.862801 
C 95.719339 188.774695 101.518509 203.986366 111.045155 216.811047 
" clip-path="url(#p7eef891825)" style="fill: #0281d9; opacity: 0.6"/>
   </g>
   <g id="patch_7">
    <path d="M 203.234623 81.401875 
C 209.301239 92.865089 212.89372 105.475477 213.778958 118.414777 
C 214.664195 131.354077 212.822618 144.336234 208.373722 156.518863 
C 203.924827 168.701492 196.966967 179.815267 187.951623 189.139037 
C 178.93628 198.462808 168.062759 205.790451 156.03662 210.646489 
C 172.796105 219.021761 191.645712 222.312447 210.251615 220.111118 
C 228.857519 217.909789 246.418779 210.311207 260.761083 198.256174 
C 265.473086 186.86724 267.702865 174.603378 267.301309 162.284712 
C 266.899752 149.966046 263.876015 137.873434 258.432305 126.81555 
C 252.988595 115.757666 245.249025 105.986622 235.731166 98.155841 
C 226.213306 90.32506 215.134159 84.613078 203.234623 81.401875 
" clip-path="url(#p7eef891825)" style="fill: #8fabef; opacity: 0.6"/>
   </g>
   <g id="patch_8">
    <path d="M 102.948532 126.632919 
C 103.294054 144.145068 108.423925 161.233484 117.780497 176.040554 
C 127.137069 190.847625 140.368558 202.816637 156.03662 210.646489 
C 168.062759 205.790451 178.93628 198.462808 187.951623 189.139037 
C 196.966967 179.815267 203.924827 168.701492 208.373722 156.518863 
C 212.822618 144.336234 214.664195 131.354077 213.778958 118.414777 
C 212.89372 105.475477 209.301239 92.865089 203.234623 81.401875 
C 183.871045 76.176429 163.281603 77.828361 144.998857 86.074248 
C 126.71611 94.320134 111.849084 108.659782 102.948532 126.632919 
" clip-path="url(#p7eef891825)" style="fill: #52aadf; opacity: 0.6"/>
   </g>
   <g id="text_1">
    <!-- 70 -->
    <g transform="translate(54.429794 113.197948) scale(0.1 -0.1)">
     <defs>
      <path id="DejaVuSans-37" d="M 525 4666 
L 3525 4666 
L 3525 4397 
L 1831 0 
L 1172 0 
L 2766 4134 
L 525 4134 
L 525 4666 
z
" transform="scale(0.015625)"/>
      <path id="DejaVuSans-30" d="M 2034 4250 
Q 1547 4250 1301 3770 
Q 1056 3291 1056 2328 
Q 1056 1369 1301 889 
Q 1547 409 2034 409 
Q 2525 409 2770 889 
Q 3016 1369 3016 2328 
Q 3016 3291 2770 3770 
Q 2525 4250 2034 4250 
z
M 2034 4750 
Q 2819 4750 3233 4129 
Q 3647 3509 3647 2328 
Q 3647 1150 3233 529 
Q 2819 -91 2034 -91 
Q 1250 -91 836 529 
Q 422 1150 422 2328 
Q 422 3509 836 4129 
Q 1250 4750 2034 4750 
z
" transform="scale(0.015625)"/>
     </defs>
     <use xlink:href="#DejaVuSans-37"/>
     <use xlink:href="#DejaVuSans-30" x="63.623047"/>
    </g>
   </g>
   <g id="text_2">
    <!-- 50 -->
    <g transform="translate(253.561731 90.203908) scale(0.1 -0.1)">
     <defs>
      <path id="DejaVuSans-35" d="M 691 4666 
L 3169 4666 
L 3169 4134 
L 1269 4134 
L 1269 2991 
Q 1406 3038 1543 3061 
Q 1681 3084 1819 3084 
Q 2600 3084 3056 2656 
Q 3513 2228 3513 1497 
Q 3513 744 3044 326 
Q 2575 -91 1722 -91 
Q 1428 -91 1123 -41 
Q 819 9 494 109 
L 494 744 
Q 775 591 1075 516 
Q 1375 441 1709 441 
Q 2250 441 2565 725 
Q 2881 1009 2881 1497 
Q 2881 1984 2565 2268 
Q 2250 2553 1709 2553 
Q 1456 2553 1204 2497 
Q 953 2441 691 2322 
L 691 4666 
z
" transform="scale(0.015625)"/>
     </defs>
     <use xlink:href="#DejaVuSans-35"/>
     <use xlink:href="#DejaVuSans-30" x="63.623047"/>
    </g>
   </g>
   <g id="text_3">
    <!-- 15 -->
    <g transform="translate(137.103337 78.362236) scale(0.1 -0.1)">
     <defs>
      <path id="DejaVuSans-31" d="M 794 531 
L 1825 531 
L 1825 4091 
L 703 3866 
L 703 4441 
L 1819 4666 
L 2450 4666 
L 2450 531 
L 3481 531 
L 3481 0 
L 794 0 
L 794 531 
z
" transform="scale(0.015625)"/>
     </defs>
     <use xlink:href="#DejaVuSans-31"/>
     <use xlink:href="#DejaVuSans-35" x="63.623047"/>
    </g>
   </g>
   <g id="text_4">
    <!-- 24 -->
    <g transform="translate(183.24853 239.785787) scale(0.1 -0.1)">
     <defs>
      <path id="DejaVuSans-32" d="M 1228 531 
L 3431 531 
L 3431 0 
L 469 0 
L 469 531 
Q 828 903 1448 1529 
Q 2069 2156 2228 2338 
Q 2531 2678 2651 2914 
Q 2772 3150 2772 3378 
Q 2772 3750 2511 3984 
Q 2250 4219 1831 4219 
Q 1534 4219 1204 4116 
Q 875 4013 500 3803 
L 500 4441 
Q 881 4594 1212 4672 
Q 1544 4750 1819 4750 
Q 2544 4750 2975 4387 
Q 3406 4025 3406 3419 
Q 3406 3131 3298 2873 
Q 3191 2616 2906 2266 
Q 2828 2175 2409 1742 
Q 1991 1309 1228 531 
z
" transform="scale(0.015625)"/>
      <path id="DejaVuSans-34" d="M 2419 4116 
L 825 1625 
L 2419 1625 
L 2419 4116 
z
M 2253 4666 
L 3047 4666 
L 3047 1625 
L 3713 1625 
L 3713 1100 
L 3047 1100 
L 3047 0 
L 2419 0 
L 2419 1100 
L 313 1100 
L 313 1709 
L 2253 4666 
z
" transform="scale(0.015625)"/>
     </defs>
     <use xlink:href="#DejaVuSans-32"/>
     <use xlink:href="#DejaVuSans-34" x="63.623047"/>
    </g>
   </g>
   <g id="text_5">
    <!-- 9 -->
    <g transform="translate(107.956067 184.974752) scale(0.1 -0.1)">
     <defs>
      <path id="DejaVuSans-39" d="M 703 97 
L 703 672 
Q 941 559 1184 500 
Q 1428 441 1663 441 
Q 2288 441 2617 861 
Q 2947 1281 2994 2138 
Q 2813 1869 2534 1725 
Q 2256 1581 1919 1581 
Q 1219 1581 811 2004 
Q 403 2428 403 3163 
Q 403 3881 828 4315 
Q 1253 4750 1959 4750 
Q 2769 4750 3195 4129 
Q 3622 3509 3622 2328 
Q 3622 1225 3098 567 
Q 2575 -91 1691 -91 
Q 1453 -91 1209 -44 
Q 966 3 703 97 
z
M 1959 2075 
Q 2384 2075 2632 2365 
Q 2881 2656 2881 3163 
Q 2881 3666 2632 3958 
Q 2384 4250 1959 4250 
Q 1534 4250 1286 3958 
Q 1038 3666 1038 3163 
Q 1038 2656 1286 2365 
Q 1534 2075 1959 2075 
z
" transform="scale(0.015625)"/>
     </defs>
     <use xlink:href="#DejaVuSans-39"/>
    </g>
   </g>
   <g id="text_6">
    <!-- 41 -->
    <g transform="translate(221.249266 164.445858) scale(0.1 -0.1)">
     <use xlink:href="#DejaVuSans-34"/>
     <use xlink:href="#DejaVuSans-31" x="63.623047"/>
    </g>
   </g>
   <g id="text_7">
    <!-- 67 -->
    <g transform="translate(157.125797 141.000032) scale(0.1 -0.1)">
     <defs>
      <path id="DejaVuSans-36" d="M 2113 2584 
Q 1688 2584 1439 2293 
Q 1191 2003 1191 1497 
Q 1191 994 1439 701 
Q 1688 409 2113 409 
Q 2538 409 2786 701 
Q 3034 994 3034 1497 
Q 3034 2003 2786 2293 
Q 2538 2584 2113 2584 
z
M 3366 4563 
L 3366 3988 
Q 3128 4100 2886 4159 
Q 2644 4219 2406 4219 
Q 1781 4219 1451 3797 
Q 1122 3375 1075 2522 
Q 1259 2794 1537 2939 
Q 1816 3084 2150 3084 
Q 2853 3084 3261 2657 
Q 3669 2231 3669 1497 
Q 3669 778 3244 343 
Q 2819 -91 2113 -91 
Q 1303 -91 875 529 
Q 447 1150 447 2328 
Q 447 3434 972 4092 
Q 1497 4750 2381 4750 
Q 2619 4750 2861 4703 
Q 3103 4656 3366 4563 
z
" transform="scale(0.015625)"/>
     </defs>
     <use xlink:href="#DejaVuSans-36"/>
     <use xlink:href="#DejaVuSans-37" x="63.623047"/>
    </g>
   </g>
   <g id="text_8">
    <!-- R1 -->
    <g transform="translate(59.051024 32.091173) scale(0.12 -0.12)">
     <defs>
      <path id="DejaVuSans-52" d="M 2841 2188 
Q 3044 2119 3236 1894 
Q 3428 1669 3622 1275 
L 4263 0 
L 3584 0 
L 2988 1197 
Q 2756 1666 2539 1819 
Q 2322 1972 1947 1972 
L 1259 1972 
L 1259 0 
L 628 0 
L 628 4666 
L 2053 4666 
Q 2853 4666 3247 4331 
Q 3641 3997 3641 3322 
Q 3641 2881 3436 2590 
Q 3231 2300 2841 2188 
z
M 1259 4147 
L 1259 2491 
L 2053 2491 
Q 2509 2491 2742 2702 
Q 2975 2913 2975 3322 
Q 2975 3731 2742 3939 
Q 2509 4147 2053 4147 
L 1259 4147 
z
" transform="scale(0.015625)"/>
     </defs>
     <use xlink:href="#DejaVuSans-52"/>
     <use xlink:href="#DejaVuSans-31" x="69.482422"/>
    </g>
   </g>
   <g id="text_9">
    <!-- R2 -->
    <g transform="translate(246.986688 28.700525) scale(0.12 -0.12)">
     <use xlink:href="#DejaVuSans-52"/>
     <use xlink:href="#DejaVuSans-32" x="69.482422"/>
    </g>
   </g>
   <g id="text_10">
    <!-- R3 -->
    <g transform="translate(172.658769 269.599801) scale(0.12 -0.12)">
     <defs>
      <path id="DejaVuSans-33" d="M 2597 2516 
Q 3050 2419 3304 2112 
Q 3559 1806 3559 1356 
Q 3559 666 3084 287 
Q 2609 -91 1734 -91 
Q 1441 -91 1130 -33 
Q 819 25 488 141 
L 488 750 
Q 750 597 1062 519 
Q 1375 441 1716 441 
Q 2309 441 2620 675 
Q 2931 909 2931 1356 
Q 2931 1769 2642 2001 
Q 2353 2234 1838 2234 
L 1294 2234 
L 1294 2753 
L 1863 2753 
Q 2328 2753 2575 2939 
Q 2822 3125 2822 3475 
Q 2822 3834 2567 4026 
Q 2313 4219 1838 4219 
Q 1578 4219 1281 4162 
Q 984 4106 628 3988 
L 628 4550 
Q 988 4650 1302 4700 
Q 1616 4750 1894 4750 
Q 2613 4750 3031 4423 
Q 3450 4097 3450 3541 
Q 3450 3153 3228 2886 
Q 3006 2619 2597 2516 
z
" transform="scale(0.015625)"/>
     </defs>
     <use xlink:href="#DejaVuSans-52"/>
     <use xlink:href="#DejaVuSans-33" x="69.482422"/>
    </g>
   </g>
  </g>
 </g>
 <defs>
  <clipPath id="p7eef891825">
   <rect x="7.2" y="7.2" width="309.306161" height="266.112"/>
  </clipPath>
 </defs>
</svg>
