<?xml version="1.0" encoding="utf-8" standalone="no"?>
<!DOCTYPE svg PUBLIC "-//W3C//DTD SVG 1.1//EN"
  "http://www.w3.org/Graphics/SVG/1.1/DTD/svg11.dtd">
<svg xmlns:xlink="http://www.w3.org/1999/xlink" width="290.214597pt" height="281.118347pt" viewBox="0 0 290.214597 281.118347" xmlns="http://www.w3.org/2000/svg" version="1.1">
 <metadata>
  <rdf:RDF xmlns:dc="http://purl.org/dc/elements/1.1/" xmlns:cc="http://creativecommons.org/ns#" xmlns:rdf="http://www.w3.org/1999/02/22-rdf-syntax-ns#">
   <cc:Work>
    <dc:type rdf:resource="http://purl.org/dc/dcmitype/StillImage"/>
    <dc:date>2024-11-02T23:17:55.790594</dc:date>
    <dc:format>image/svg+xml</dc:format>
    <dc:creator>
     <cc:Agent>
      <dc:title>Matplotlib v3.9.0, https://matplotlib.org/</dc:title>
     </cc:Agent>
    </dc:creator>
   </cc:Work>
  </rdf:RDF>
 </metadata>
 <defs>
  <style type="text/css">*{stroke-linejoin: round; stroke-linecap: butt}</style>
 </defs>
 <g id="figure_1">
  <g id="patch_1">
   <path d="M 0 281.118347 
L 290.214597 281.118347 
L 290.214597 0 
L 0 0 
L 0 281.118347 
z
" style="fill: none"/>
  </g>
  <g id="axes_1">
   <g id="patch_2">
    <path d="M 114.125501 48.244291 
C 97.304096 44.547198 79.700407 47.050305 64.576291 55.289802 
C 49.452175 63.529298 37.803262 76.962773 31.788025 93.101084 
C 25.772787 109.239396 25.787212 127.020149 31.828626 143.14868 
C 37.870041 159.27721 49.540734 172.691766 64.678199 180.906713 
C 61.991793 167.975056 62.159496 154.611576 65.169572 141.751407 
C 68.179648 128.891238 73.960208 116.841514 82.106748 106.445438 
C 83.562358 95.171642 87.122533 84.27088 92.601752 74.31119 
C 98.080972 64.3515 105.38238 55.508938 114.125501 48.244291 
" clip-path="url(#p006eb21f4a)" style="fill: #00b4d8; opacity: 0.6"/>
   </g>
   <g id="patch_3">
    <path d="M 114.125501 48.244291 
C 121.682307 49.905163 128.919628 52.781805 135.554643 56.761803 
C 142.189657 60.741801 148.134797 65.772626 153.157736 71.657683 
C 166.095186 71.599621 178.896831 74.307768 190.702414 79.600139 
C 202.507997 84.89251 213.04702 92.647841 221.611272 102.344984 
C 230.175524 112.042127 236.568773 123.458892 240.361401 135.828087 
C 244.154029 148.197281 245.259135 161.23549 243.602459 174.066562 
C 257.419791 156.433794 264.233284 134.295948 262.721858 111.94536 
C 261.210432 89.594772 251.478523 68.575784 235.413062 52.963796 
C 219.347602 37.351808 198.058653 28.225549 175.67396 27.354523 
C 153.289267 26.483496 131.355526 33.927887 114.125501 48.244291 
" clip-path="url(#p006eb21f4a)" style="fill: #caf0f8; opacity: 0.6"/>
   </g>
   <g id="patch_4">
    <path d="M 114.125501 48.244291 
C 105.38238 55.508938 98.080972 64.3515 92.601752 74.31119 
C 87.122533 84.27088 83.562358 95.171642 82.106748 106.445438 
C 90.556898 95.661914 101.339407 86.92974 113.643718 80.905344 
C 125.948028 74.880947 139.457895 71.719166 153.157736 71.657683 
C 148.134797 65.772626 142.189657 60.741801 135.554643 56.761803 
C 128.919628 52.781805 121.682307 49.905163 114.125501 48.244291 
" clip-path="url(#p006eb21f4a)" style="fill: #8dffff; opacity: 0.6"/>
   </g>
   <g id="patch_5">
    <path d="M 64.678199 180.906713 
C 69.043499 201.920129 80.722021 220.719698 97.625687 233.944129 
C 114.529354 247.16856 135.586882 253.979742 157.033264 253.159861 
C 178.479646 252.339981 198.9557 243.940999 214.800384 229.464622 
C 230.645068 214.988244 240.854212 195.351925 243.602459 174.066562 
C 236.114236 183.622538 226.78468 191.58007 216.167143 197.467182 
C 205.549607 203.354294 193.858239 207.052247 181.786476 208.341708 
C 169.714713 209.631169 157.506035 208.486131 145.884561 204.974508 
C 134.263086 201.462885 123.463213 195.655504 114.125501 187.896812 
C 105.799354 189.726774 97.212621 190.052845 88.771671 188.859593 
C 80.33072 187.666342 72.170841 184.972892 64.678199 180.906713 
" clip-path="url(#p006eb21f4a)" style="fill: #03045e; opacity: 0.6"/>
   </g>
   <g id="patch_6">
    <path d="M 64.678199 180.906713 
C 72.170841 184.972892 80.33072 187.666342 88.771671 188.859593 
C 97.212621 190.052845 105.799354 189.726774 114.125501 187.896812 
C 102.357781 178.119029 93.250573 165.52329 87.653131 151.284156 
C 82.055689 137.045022 80.147584 121.619296 82.106748 106.445438 
C 73.960208 116.841514 68.179648 128.891238 65.169572 141.751407 
C 62.159496 154.611576 61.991793 167.975056 64.678199 180.906713 
" clip-path="url(#p006eb21f4a)" style="fill: #0281d9; opacity: 0.6"/>
   </g>
   <g id="patch_7">
    <path d="M 153.157736 71.657683 
C 161.172883 81.04852 166.620417 92.357388 168.967664 104.478479 
C 171.31491 116.599569 170.482786 129.124492 166.552657 140.828529 
C 162.622529 152.532567 155.726812 163.021381 146.539787 171.269348 
C 137.352762 179.517316 126.183962 185.246543 114.125501 187.896812 
C 123.463213 195.655504 134.263086 201.462885 145.884561 204.974508 
C 157.506035 208.486131 169.714713 209.631169 181.786476 208.341708 
C 193.858239 207.052247 205.549607 203.354294 216.167143 197.467182 
C 226.78468 191.58007 236.114236 183.622538 243.602459 174.066562 
C 245.259135 161.23549 244.154029 148.197281 240.361401 135.828087 
C 236.568773 123.458892 230.175524 112.042127 221.611272 102.344984 
C 213.04702 92.647841 202.507997 84.89251 190.702414 79.600139 
C 178.896831 74.307768 166.095186 71.599621 153.157736 71.657683 
" clip-path="url(#p006eb21f4a)" style="fill: #8fabef; opacity: 0.6"/>
   </g>
   <g id="patch_8">
    <path d="M 82.106748 106.445438 
C 80.147584 121.619296 82.055689 137.045022 87.653131 151.284156 
C 93.250573 165.52329 102.357781 178.119029 114.125501 187.896812 
C 126.183962 185.246543 137.352762 179.517316 146.539787 171.269348 
C 155.726812 163.021381 162.622529 152.532567 166.552657 140.828529 
C 170.482786 129.124492 171.31491 116.599569 168.967664 104.478479 
C 166.620417 92.357388 161.172883 81.04852 153.157736 71.657683 
C 139.457895 71.719166 125.948028 74.880947 113.643718 80.905344 
C 101.339407 86.92974 90.556898 95.661914 82.106748 106.445438 
" clip-path="url(#p006eb21f4a)" style="fill: #52aadf; opacity: 0.6"/>
   </g>
   <g id="text_1">
    <!-- 29 -->
    <g transform="translate(42.075453 102.161852) scale(0.1 -0.1)">
     <defs>
      <path id="DejaVuSans-32" d="M 1228 531 
L 3431 531 
L 3431 0 
L 469 0 
L 469 531 
Q 828 903 1448 1529 
Q 2069 2156 2228 2338 
Q 2531 2678 2651 2914 
Q 2772 3150 2772 3378 
Q 2772 3750 2511 3984 
Q 2250 4219 1831 4219 
Q 1534 4219 1204 4116 
Q 875 4013 500 3803 
L 500 4441 
Q 881 4594 1212 4672 
Q 1544 4750 1819 4750 
Q 2544 4750 2975 4387 
Q 3406 4025 3406 3419 
Q 3406 3131 3298 2873 
Q 3191 2616 2906 2266 
Q 2828 2175 2409 1742 
Q 1991 1309 1228 531 
z
" transform="scale(0.015625)"/>
      <path id="DejaVuSans-39" d="M 703 97 
L 703 672 
Q 941 559 1184 500 
Q 1428 441 1663 441 
Q 2288 441 2617 861 
Q 2947 1281 2994 2138 
Q 2813 1869 2534 1725 
Q 2256 1581 1919 1581 
Q 1219 1581 811 2004 
Q 403 2428 403 3163 
Q 403 3881 828 4315 
Q 1253 4750 1959 4750 
Q 2769 4750 3195 4129 
Q 3622 3509 3622 2328 
Q 3622 1225 3098 567 
Q 2575 -91 1691 -91 
Q 1453 -91 1209 -44 
Q 966 3 703 97 
z
M 1959 2075 
Q 2384 2075 2632 2365 
Q 2881 2656 2881 3163 
Q 2881 3666 2632 3958 
Q 2384 4250 1959 4250 
Q 1534 4250 1286 3958 
Q 1038 3666 1038 3163 
Q 1038 2656 1286 2365 
Q 1534 2075 1959 2075 
z
" transform="scale(0.015625)"/>
     </defs>
     <use xlink:href="#DejaVuSans-32"/>
     <use xlink:href="#DejaVuSans-39" x="63.623047"/>
    </g>
   </g>
   <g id="text_2">
    <!-- 39 -->
    <g transform="translate(212.344442 72.121797) scale(0.1 -0.1)">
     <defs>
      <path id="DejaVuSans-33" d="M 2597 2516 
Q 3050 2419 3304 2112 
Q 3559 1806 3559 1356 
Q 3559 666 3084 287 
Q 2609 -91 1734 -91 
Q 1441 -91 1130 -33 
Q 819 25 488 141 
L 488 750 
Q 750 597 1062 519 
Q 1375 441 1716 441 
Q 2309 441 2620 675 
Q 2931 909 2931 1356 
Q 2931 1769 2642 2001 
Q 2353 2234 1838 2234 
L 1294 2234 
L 1294 2753 
L 1863 2753 
Q 2328 2753 2575 2939 
Q 2822 3125 2822 3475 
Q 2822 3834 2567 4026 
Q 2313 4219 1838 4219 
Q 1578 4219 1281 4162 
Q 984 4106 628 3988 
L 628 4550 
Q 988 4650 1302 4700 
Q 1616 4750 1894 4750 
Q 2613 4750 3031 4423 
Q 3450 4097 3450 3541 
Q 3450 3153 3228 2886 
Q 3006 2619 2597 2516 
z
" transform="scale(0.015625)"/>
     </defs>
     <use xlink:href="#DejaVuSans-33"/>
     <use xlink:href="#DejaVuSans-39" x="63.623047"/>
    </g>
   </g>
   <g id="text_3">
    <!-- 4 -->
    <g transform="translate(109.781305 74.710427) scale(0.1 -0.1)">
     <defs>
      <path id="DejaVuSans-34" d="M 2419 4116 
L 825 1625 
L 2419 1625 
L 2419 4116 
z
M 2253 4666 
L 3047 4666 
L 3047 1625 
L 3713 1625 
L 3713 1100 
L 3047 1100 
L 3047 0 
L 2419 0 
L 2419 1100 
L 313 1100 
L 313 1709 
L 2253 4666 
z
" transform="scale(0.015625)"/>
     </defs>
     <use xlink:href="#DejaVuSans-34"/>
    </g>
   </g>
   <g id="text_4">
    <!-- 37 -->
    <g transform="translate(148.890423 232.963305) scale(0.1 -0.1)">
     <defs>
      <path id="DejaVuSans-37" d="M 525 4666 
L 3525 4666 
L 3525 4397 
L 1831 0 
L 1172 0 
L 2766 4134 
L 525 4134 
L 525 4666 
z
" transform="scale(0.015625)"/>
     </defs>
     <use xlink:href="#DejaVuSans-33"/>
     <use xlink:href="#DejaVuSans-37" x="63.623047"/>
    </g>
   </g>
   <g id="text_5">
    <!-- 6 -->
    <g transform="translate(77.229103 161.198379) scale(0.1 -0.1)">
     <defs>
      <path id="DejaVuSans-36" d="M 2113 2584 
Q 1688 2584 1439 2293 
Q 1191 2003 1191 1497 
Q 1191 994 1439 701 
Q 1688 409 2113 409 
Q 2538 409 2786 701 
Q 3034 994 3034 1497 
Q 3034 2003 2786 2293 
Q 2538 2584 2113 2584 
z
M 3366 4563 
L 3366 3988 
Q 3128 4100 2886 4159 
Q 2644 4219 2406 4219 
Q 1781 4219 1451 3797 
Q 1122 3375 1075 2522 
Q 1259 2794 1537 2939 
Q 1816 3084 2150 3084 
Q 2853 3084 3261 2657 
Q 3669 2231 3669 1497 
Q 3669 778 3244 343 
Q 2819 -91 2113 -91 
Q 1303 -91 875 529 
Q 447 1150 447 2328 
Q 447 3434 972 4092 
Q 1497 4750 2381 4750 
Q 2619 4750 2861 4703 
Q 3103 4656 3366 4563 
z
" transform="scale(0.015625)"/>
     </defs>
     <use xlink:href="#DejaVuSans-36"/>
    </g>
   </g>
   <g id="text_6">
    <!-- 45 -->
    <g transform="translate(182.219624 151.495731) scale(0.1 -0.1)">
     <defs>
      <path id="DejaVuSans-35" d="M 691 4666 
L 3169 4666 
L 3169 4134 
L 1269 4134 
L 1269 2991 
Q 1406 3038 1543 3061 
Q 1681 3084 1819 3084 
Q 2600 3084 3056 2656 
Q 3513 2228 3513 1497 
Q 3513 744 3044 326 
Q 2575 -91 1722 -91 
Q 1428 -91 1123 -41 
Q 819 9 494 109 
L 494 744 
Q 775 591 1075 516 
Q 1375 441 1709 441 
Q 2250 441 2565 725 
Q 2881 1009 2881 1497 
Q 2881 1984 2565 2268 
Q 2250 2553 1709 2553 
Q 1456 2553 1204 2497 
Q 953 2441 691 2322 
L 691 4666 
z
" transform="scale(0.015625)"/>
     </defs>
     <use xlink:href="#DejaVuSans-34"/>
     <use xlink:href="#DejaVuSans-35" x="63.623047"/>
    </g>
   </g>
   <g id="text_7">
    <!-- 41 -->
    <g transform="translate(128.170689 132.623688) scale(0.1 -0.1)">
     <defs>
      <path id="DejaVuSans-31" d="M 794 531 
L 1825 531 
L 1825 4091 
L 703 3866 
L 703 4441 
L 1819 4666 
L 2450 4666 
L 2450 531 
L 3481 531 
L 3481 0 
L 794 0 
L 794 531 
z
" transform="scale(0.015625)"/>
     </defs>
     <use xlink:href="#DejaVuSans-34"/>
     <use xlink:href="#DejaVuSans-31" x="63.623047"/>
    </g>
   </g>
   <g id="text_8">
    <!-- R1 -->
    <g transform="translate(47.059179 46.577686) scale(0.12 -0.12)">
     <defs>
      <path id="DejaVuSans-52" d="M 2841 2188 
Q 3044 2119 3236 1894 
Q 3428 1669 3622 1275 
L 4263 0 
L 3584 0 
L 2988 1197 
Q 2756 1666 2539 1819 
Q 2322 1972 1947 1972 
L 1259 1972 
L 1259 0 
L 628 0 
L 628 4666 
L 2053 4666 
Q 2853 4666 3247 4331 
Q 3641 3997 3641 3322 
Q 3641 2881 3436 2590 
Q 3231 2300 2841 2188 
z
M 1259 4147 
L 1259 2491 
L 2053 2491 
Q 2509 2491 2742 2702 
Q 2975 2913 2975 3322 
Q 2975 3731 2742 3939 
Q 2509 4147 2053 4147 
L 1259 4147 
z
" transform="scale(0.015625)"/>
     </defs>
     <use xlink:href="#DejaVuSans-52"/>
     <use xlink:href="#DejaVuSans-31" x="69.482422"/>
    </g>
   </g>
   <g id="text_9">
    <!-- R2 -->
    <g transform="translate(217.536385 27.285871) scale(0.12 -0.12)">
     <use xlink:href="#DejaVuSans-52"/>
     <use xlink:href="#DejaVuSans-32" x="69.482422"/>
    </g>
   </g>
   <g id="text_10">
    <!-- R3 -->
    <g transform="translate(145.578599 271.422722) scale(0.12 -0.12)">
     <use xlink:href="#DejaVuSans-52"/>
     <use xlink:href="#DejaVuSans-33" x="69.482422"/>
    </g>
   </g>
  </g>
 </g>
 <defs>
  <clipPath id="p006eb21f4a">
   <rect x="7.2" y="7.2" width="275.814597" height="266.112"/>
  </clipPath>
 </defs>
</svg>
