<?xml version="1.0" encoding="utf-8" standalone="no"?>
<!DOCTYPE svg PUBLIC "-//W3C//DTD SVG 1.1//EN"
  "http://www.w3.org/Graphics/SVG/1.1/DTD/svg11.dtd">
<svg xmlns:xlink="http://www.w3.org/1999/xlink" width="295.528546pt" height="282.501697pt" viewBox="0 0 295.528546 282.501697" xmlns="http://www.w3.org/2000/svg" version="1.1">
 <metadata>
  <rdf:RDF xmlns:dc="http://purl.org/dc/elements/1.1/" xmlns:cc="http://creativecommons.org/ns#" xmlns:rdf="http://www.w3.org/1999/02/22-rdf-syntax-ns#">
   <cc:Work>
    <dc:type rdf:resource="http://purl.org/dc/dcmitype/StillImage"/>
    <dc:date>2024-11-02T23:18:04.376820</dc:date>
    <dc:format>image/svg+xml</dc:format>
    <dc:creator>
     <cc:Agent>
      <dc:title>Matplotlib v3.9.0, https://matplotlib.org/</dc:title>
     </cc:Agent>
    </dc:creator>
   </cc:Work>
  </rdf:RDF>
 </metadata>
 <defs>
  <style type="text/css">*{stroke-linejoin: round; stroke-linecap: butt}</style>
 </defs>
 <g id="figure_1">
  <g id="patch_1">
   <path d="M 0 282.501697 
L 295.528546 282.501697 
L 295.528546 0 
L 0 0 
L 0 282.501697 
z
" style="fill: none"/>
  </g>
  <g id="axes_1">
   <g id="patch_2">
    <path d="M 177.231094 246.435375 
C 161.862573 248.905785 146.139342 248.010312 131.150677 243.810991 
C 116.162012 239.611671 102.262224 232.207769 90.414265 222.112214 
C 78.566305 212.01666 69.050242 199.468098 62.525332 185.335868 
C 56.000422 171.203638 52.620903 155.821808 52.620903 140.256 
C 52.620903 124.690192 56.000422 109.308362 62.525332 95.176132 
C 69.050242 81.043902 78.566305 68.49534 90.414265 58.399786 
C 102.262224 48.304231 116.162012 40.900329 131.150677 36.701009 
C 146.139342 32.501688 161.862573 31.606215 177.231094 34.076625 
C 160.28784 28.176436 142.175883 26.416563 124.413694 28.944551 
C 106.651505 31.47254 89.749736 38.21571 75.125399 48.60873 
C 60.501062 59.001749 48.574598 72.745824 40.345898 88.688678 
C 32.117198 104.631531 27.822832 122.314816 27.822832 140.256 
C 27.822832 158.197184 32.117198 175.880469 40.345898 191.823322 
C 48.574598 207.766176 60.501062 221.510251 75.125399 231.90327 
C 89.749736 242.29629 106.651505 249.03946 124.413694 251.567449 
C 142.175883 254.095437 160.28784 252.335564 177.231094 246.435375 
" clip-path="url(#pf4b9b5c079)" style="fill: #00b4d8; opacity: 0.6"/>
   </g>
   <g id="patch_3">
    <path d="M 177.231094 34.076625 
C 199.271071 41.751658 218.383912 56.101895 231.90327 75.125399 
C 245.422628 94.148903 252.689168 116.917904 252.689168 140.256 
C 252.689168 163.594096 245.422628 186.363097 231.90327 205.386601 
C 218.383912 224.410105 199.271071 238.760342 177.231094 246.435375 
C 202.464432 242.379247 225.443788 229.458027 242.019523 210.005044 
C 258.595259 190.552061 267.705714 165.81326 267.705714 140.256 
C 267.705714 114.69874 258.595259 89.959939 242.019523 70.506956 
C 225.443788 51.053973 202.464432 38.132753 177.231094 34.076625 
" clip-path="url(#pf4b9b5c079)" style="fill: #03045e; opacity: 0.6"/>
   </g>
   <g id="patch_4">
    <path d="M 177.231094 246.435375 
C 199.271071 238.760342 218.383912 224.410105 231.90327 205.386601 
C 245.422628 186.363097 252.689168 163.594096 252.689168 140.256 
C 252.689168 116.917904 245.422628 94.148903 231.90327 75.125399 
C 218.383912 56.101895 199.271071 41.751658 177.231094 34.076625 
C 161.862573 31.606215 146.139342 32.501688 131.150677 36.701009 
C 116.162012 40.900329 102.262224 48.304231 90.414265 58.399786 
C 78.566305 68.49534 69.050242 81.043902 62.525332 95.176132 
C 56.000422 109.308362 52.620903 124.690192 52.620903 140.256 
C 52.620903 155.821808 56.000422 171.203638 62.525332 185.335868 
C 69.050242 199.468098 78.566305 212.01666 90.414265 222.112214 
C 102.262224 232.207769 116.162012 239.611671 131.150677 243.810991 
C 146.139342 248.010312 161.862573 248.905785 177.231094 246.435375 
" clip-path="url(#pf4b9b5c079)" style="fill: #0281d9; opacity: 0.6"/>
   </g>
   <g id="text_1">
    <!-- 22 -->
    <g transform="translate(33.859368 143.015375) scale(0.1 -0.1)">
     <defs>
      <path id="DejaVuSans-32" d="M 1228 531 
L 3431 531 
L 3431 0 
L 469 0 
L 469 531 
Q 828 903 1448 1529 
Q 2069 2156 2228 2338 
Q 2531 2678 2651 2914 
Q 2772 3150 2772 3378 
Q 2772 3750 2511 3984 
Q 2250 4219 1831 4219 
Q 1534 4219 1204 4116 
Q 875 4013 500 3803 
L 500 4441 
Q 881 4594 1212 4672 
Q 1544 4750 1819 4750 
Q 2544 4750 2975 4387 
Q 3406 4025 3406 3419 
Q 3406 3131 3298 2873 
Q 3191 2616 2906 2266 
Q 2828 2175 2409 1742 
Q 1991 1309 1228 531 
z
" transform="scale(0.015625)"/>
     </defs>
     <use xlink:href="#DejaVuSans-32"/>
     <use xlink:href="#DejaVuSans-32" x="63.623047"/>
    </g>
   </g>
   <g id="text_2">
    <!-- 10 -->
    <g transform="translate(253.834941 143.015375) scale(0.1 -0.1)">
     <defs>
      <path id="DejaVuSans-31" d="M 794 531 
L 1825 531 
L 1825 4091 
L 703 3866 
L 703 4441 
L 1819 4666 
L 2450 4666 
L 2450 531 
L 3481 531 
L 3481 0 
L 794 0 
L 794 531 
z
" transform="scale(0.015625)"/>
      <path id="DejaVuSans-30" d="M 2034 4250 
Q 1547 4250 1301 3770 
Q 1056 3291 1056 2328 
Q 1056 1369 1301 889 
Q 1547 409 2034 409 
Q 2525 409 2770 889 
Q 3016 1369 3016 2328 
Q 3016 3291 2770 3770 
Q 2525 4250 2034 4250 
z
M 2034 4750 
Q 2819 4750 3233 4129 
Q 3647 3509 3647 2328 
Q 3647 1150 3233 529 
Q 2819 -91 2034 -91 
Q 1250 -91 836 529 
Q 422 1150 422 2328 
Q 422 3509 836 4129 
Q 1250 4750 2034 4750 
z
" transform="scale(0.015625)"/>
     </defs>
     <use xlink:href="#DejaVuSans-31"/>
     <use xlink:href="#DejaVuSans-30" x="63.623047"/>
    </g>
   </g>
   <g id="text_3">
    <!-- 119 -->
    <g transform="translate(143.111286 143.015375) scale(0.1 -0.1)">
     <defs>
      <path id="DejaVuSans-39" d="M 703 97 
L 703 672 
Q 941 559 1184 500 
Q 1428 441 1663 441 
Q 2288 441 2617 861 
Q 2947 1281 2994 2138 
Q 2813 1869 2534 1725 
Q 2256 1581 1919 1581 
Q 1219 1581 811 2004 
Q 403 2428 403 3163 
Q 403 3881 828 4315 
Q 1253 4750 1959 4750 
Q 2769 4750 3195 4129 
Q 3622 3509 3622 2328 
Q 3622 1225 3098 567 
Q 2575 -91 1691 -91 
Q 1453 -91 1209 -44 
Q 966 3 703 97 
z
M 1959 2075 
Q 2384 2075 2632 2365 
Q 2881 2656 2881 3163 
Q 2881 3666 2632 3958 
Q 2384 4250 1959 4250 
Q 1534 4250 1286 3958 
Q 1038 3666 1038 3163 
Q 1038 2656 1286 2365 
Q 1534 2075 1959 2075 
z
" transform="scale(0.015625)"/>
     </defs>
     <use xlink:href="#DejaVuSans-31"/>
     <use xlink:href="#DejaVuSans-31" x="63.623047"/>
     <use xlink:href="#DejaVuSans-39" x="127.246094"/>
    </g>
   </g>
   <g id="text_4">
    <!-- Filtered Proteome -->
    <g transform="translate(34.455375 272.806072) scale(0.12 -0.12)">
     <defs>
      <path id="DejaVuSans-46" d="M 628 4666 
L 3309 4666 
L 3309 4134 
L 1259 4134 
L 1259 2759 
L 3109 2759 
L 3109 2228 
L 1259 2228 
L 1259 0 
L 628 0 
L 628 4666 
z
" transform="scale(0.015625)"/>
      <path id="DejaVuSans-69" d="M 603 3500 
L 1178 3500 
L 1178 0 
L 603 0 
L 603 3500 
z
M 603 4863 
L 1178 4863 
L 1178 4134 
L 603 4134 
L 603 4863 
z
" transform="scale(0.015625)"/>
      <path id="DejaVuSans-6c" d="M 603 4863 
L 1178 4863 
L 1178 0 
L 603 0 
L 603 4863 
z
" transform="scale(0.015625)"/>
      <path id="DejaVuSans-74" d="M 1172 4494 
L 1172 3500 
L 2356 3500 
L 2356 3053 
L 1172 3053 
L 1172 1153 
Q 1172 725 1289 603 
Q 1406 481 1766 481 
L 2356 481 
L 2356 0 
L 1766 0 
Q 1100 0 847 248 
Q 594 497 594 1153 
L 594 3053 
L 172 3053 
L 172 3500 
L 594 3500 
L 594 4494 
L 1172 4494 
z
" transform="scale(0.015625)"/>
      <path id="DejaVuSans-65" d="M 3597 1894 
L 3597 1613 
L 953 1613 
Q 991 1019 1311 708 
Q 1631 397 2203 397 
Q 2534 397 2845 478 
Q 3156 559 3463 722 
L 3463 178 
Q 3153 47 2828 -22 
Q 2503 -91 2169 -91 
Q 1331 -91 842 396 
Q 353 884 353 1716 
Q 353 2575 817 3079 
Q 1281 3584 2069 3584 
Q 2775 3584 3186 3129 
Q 3597 2675 3597 1894 
z
M 3022 2063 
Q 3016 2534 2758 2815 
Q 2500 3097 2075 3097 
Q 1594 3097 1305 2825 
Q 1016 2553 972 2059 
L 3022 2063 
z
" transform="scale(0.015625)"/>
      <path id="DejaVuSans-72" d="M 2631 2963 
Q 2534 3019 2420 3045 
Q 2306 3072 2169 3072 
Q 1681 3072 1420 2755 
Q 1159 2438 1159 1844 
L 1159 0 
L 581 0 
L 581 3500 
L 1159 3500 
L 1159 2956 
Q 1341 3275 1631 3429 
Q 1922 3584 2338 3584 
Q 2397 3584 2469 3576 
Q 2541 3569 2628 3553 
L 2631 2963 
z
" transform="scale(0.015625)"/>
      <path id="DejaVuSans-64" d="M 2906 2969 
L 2906 4863 
L 3481 4863 
L 3481 0 
L 2906 0 
L 2906 525 
Q 2725 213 2448 61 
Q 2172 -91 1784 -91 
Q 1150 -91 751 415 
Q 353 922 353 1747 
Q 353 2572 751 3078 
Q 1150 3584 1784 3584 
Q 2172 3584 2448 3432 
Q 2725 3281 2906 2969 
z
M 947 1747 
Q 947 1113 1208 752 
Q 1469 391 1925 391 
Q 2381 391 2643 752 
Q 2906 1113 2906 1747 
Q 2906 2381 2643 2742 
Q 2381 3103 1925 3103 
Q 1469 3103 1208 2742 
Q 947 2381 947 1747 
z
" transform="scale(0.015625)"/>
      <path id="DejaVuSans-20" transform="scale(0.015625)"/>
      <path id="DejaVuSans-50" d="M 1259 4147 
L 1259 2394 
L 2053 2394 
Q 2494 2394 2734 2622 
Q 2975 2850 2975 3272 
Q 2975 3691 2734 3919 
Q 2494 4147 2053 4147 
L 1259 4147 
z
M 628 4666 
L 2053 4666 
Q 2838 4666 3239 4311 
Q 3641 3956 3641 3272 
Q 3641 2581 3239 2228 
Q 2838 1875 2053 1875 
L 1259 1875 
L 1259 0 
L 628 0 
L 628 4666 
z
" transform="scale(0.015625)"/>
      <path id="DejaVuSans-6f" d="M 1959 3097 
Q 1497 3097 1228 2736 
Q 959 2375 959 1747 
Q 959 1119 1226 758 
Q 1494 397 1959 397 
Q 2419 397 2687 759 
Q 2956 1122 2956 1747 
Q 2956 2369 2687 2733 
Q 2419 3097 1959 3097 
z
M 1959 3584 
Q 2709 3584 3137 3096 
Q 3566 2609 3566 1747 
Q 3566 888 3137 398 
Q 2709 -91 1959 -91 
Q 1206 -91 779 398 
Q 353 888 353 1747 
Q 353 2609 779 3096 
Q 1206 3584 1959 3584 
z
" transform="scale(0.015625)"/>
      <path id="DejaVuSans-6d" d="M 3328 2828 
Q 3544 3216 3844 3400 
Q 4144 3584 4550 3584 
Q 5097 3584 5394 3201 
Q 5691 2819 5691 2113 
L 5691 0 
L 5113 0 
L 5113 2094 
Q 5113 2597 4934 2840 
Q 4756 3084 4391 3084 
Q 3944 3084 3684 2787 
Q 3425 2491 3425 1978 
L 3425 0 
L 2847 0 
L 2847 2094 
Q 2847 2600 2669 2842 
Q 2491 3084 2119 3084 
Q 1678 3084 1418 2786 
Q 1159 2488 1159 1978 
L 1159 0 
L 581 0 
L 581 3500 
L 1159 3500 
L 1159 2956 
Q 1356 3278 1631 3431 
Q 1906 3584 2284 3584 
Q 2666 3584 2933 3390 
Q 3200 3197 3328 2828 
z
" transform="scale(0.015625)"/>
     </defs>
     <use xlink:href="#DejaVuSans-46"/>
     <use xlink:href="#DejaVuSans-69" x="50.269531"/>
     <use xlink:href="#DejaVuSans-6c" x="78.052734"/>
     <use xlink:href="#DejaVuSans-74" x="105.835938"/>
     <use xlink:href="#DejaVuSans-65" x="145.044922"/>
     <use xlink:href="#DejaVuSans-72" x="206.568359"/>
     <use xlink:href="#DejaVuSans-65" x="245.431641"/>
     <use xlink:href="#DejaVuSans-64" x="306.955078"/>
     <use xlink:href="#DejaVuSans-20" x="370.431641"/>
     <use xlink:href="#DejaVuSans-50" x="402.21875"/>
     <use xlink:href="#DejaVuSans-72" x="460.771484"/>
     <use xlink:href="#DejaVuSans-6f" x="499.634766"/>
     <use xlink:href="#DejaVuSans-74" x="560.816406"/>
     <use xlink:href="#DejaVuSans-65" x="600.025391"/>
     <use xlink:href="#DejaVuSans-6f" x="661.548828"/>
     <use xlink:href="#DejaVuSans-6d" x="722.730469"/>
     <use xlink:href="#DejaVuSans-65" x="820.142578"/>
    </g>
   </g>
   <g id="text_5">
    <!-- Full Proteome -->
    <g transform="translate(160.163309 267.915309) scale(0.12 -0.12)">
     <defs>
      <path id="DejaVuSans-75" d="M 544 1381 
L 544 3500 
L 1119 3500 
L 1119 1403 
Q 1119 906 1312 657 
Q 1506 409 1894 409 
Q 2359 409 2629 706 
Q 2900 1003 2900 1516 
L 2900 3500 
L 3475 3500 
L 3475 0 
L 2900 0 
L 2900 538 
Q 2691 219 2414 64 
Q 2138 -91 1772 -91 
Q 1169 -91 856 284 
Q 544 659 544 1381 
z
M 1991 3584 
L 1991 3584 
z
" transform="scale(0.015625)"/>
     </defs>
     <use xlink:href="#DejaVuSans-46"/>
     <use xlink:href="#DejaVuSans-75" x="52.019531"/>
     <use xlink:href="#DejaVuSans-6c" x="115.398438"/>
     <use xlink:href="#DejaVuSans-6c" x="143.181641"/>
     <use xlink:href="#DejaVuSans-20" x="170.964844"/>
     <use xlink:href="#DejaVuSans-50" x="202.751953"/>
     <use xlink:href="#DejaVuSans-72" x="261.304688"/>
     <use xlink:href="#DejaVuSans-6f" x="300.167969"/>
     <use xlink:href="#DejaVuSans-74" x="361.349609"/>
     <use xlink:href="#DejaVuSans-65" x="400.558594"/>
     <use xlink:href="#DejaVuSans-6f" x="462.082031"/>
     <use xlink:href="#DejaVuSans-6d" x="523.263672"/>
     <use xlink:href="#DejaVuSans-65" x="620.675781"/>
    </g>
   </g>
  </g>
 </g>
 <defs>
  <clipPath id="pf4b9b5c079">
   <rect x="7.2" y="7.2" width="281.128546" height="266.112"/>
  </clipPath>
 </defs>
</svg>
