<?xml version="1.0" encoding="utf-8" standalone="no"?>
<!DOCTYPE svg PUBLIC "-//W3C//DTD SVG 1.1//EN"
  "http://www.w3.org/Graphics/SVG/1.1/DTD/svg11.dtd">
<svg xmlns:xlink="http://www.w3.org/1999/xlink" width="460.8pt" height="345.6pt" viewBox="0 0 460.8 345.6" xmlns="http://www.w3.org/2000/svg" version="1.1">
 <metadata>
  <rdf:RDF xmlns:dc="http://purl.org/dc/elements/1.1/" xmlns:cc="http://creativecommons.org/ns#" xmlns:rdf="http://www.w3.org/1999/02/22-rdf-syntax-ns#">
   <cc:Work>
    <dc:type rdf:resource="http://purl.org/dc/dcmitype/StillImage"/>
    <dc:date>2024-07-04T15:47:35.492822</dc:date>
    <dc:format>image/svg+xml</dc:format>
    <dc:creator>
     <cc:Agent>
      <dc:title>Matplotlib v3.9.0, https://matplotlib.org/</dc:title>
     </cc:Agent>
    </dc:creator>
   </cc:Work>
  </rdf:RDF>
 </metadata>
 <defs>
  <style type="text/css">*{stroke-linejoin: round; stroke-linecap: butt}</style>
 </defs>
 <g id="figure_1">
  <g id="patch_1">
   <path d="M 0 345.6 
L 460.8 345.6 
L 460.8 0 
L 0 0 
z
" style="fill: #ffffff"/>
  </g>
  <g id="axes_1">
   <g id="patch_2">
    <path d="M 57.6 307.584 
L 414.72 307.584 
L 414.72 41.472 
L 57.6 41.472 
z
" style="fill: #ffffff"/>
   </g>
   <g id="PolyCollection_1">
    <path d="M 73.832727 121.344 
L 73.832727 307.584 
L 74.463601 307.584 
L 74.638843 307.584 
L 74.779038 307.584 
L 75.970688 307.584 
L 78.879716 307.584 
L 79.826026 307.584 
L 80.632142 307.584 
L 80.737288 307.584 
L 82.384569 307.584 
L 82.735054 307.584 
L 85.188451 307.584 
L 87.256315 307.584 
L 88.167577 307.584 
L 90.796216 307.584 
L 92.163109 307.584 
L 93.214565 307.584 
L 93.319711 307.584 
L 94.686603 307.584 
L 97.034855 307.584 
L 97.245146 307.584 
L 98.612039 307.584 
L 102.116892 307.584 
L 103.378639 307.584 
L 106.147473 307.584 
L 107.198929 307.584 
L 109.266792 307.584 
L 110.703782 307.584 
L 116.697081 307.584 
L 118.659799 307.584 
L 118.764944 307.584 
L 120.937953 307.584 
L 122.234749 307.584 
L 122.865623 307.584 
L 125.949893 307.584 
L 126.195233 307.584 
L 129.875329 307.584 
L 132.258629 307.584 
L 133.064745 307.584 
L 136.04387 307.584 
L 138.462219 307.584 
L 140.144548 307.584 
L 147.715031 307.584 
L 148.871633 307.584 
L 149.817943 307.584 
L 151.57037 307.584 
L 156.827649 307.584 
L 158.895513 307.584 
L 159.526386 307.584 
L 159.561435 307.584 
L 162.645706 307.584 
L 166.36085 307.584 
L 173.160265 307.584 
L 175.263177 307.584 
L 176.770264 307.584 
L 181.747155 307.584 
L 181.957446 307.584 
L 183.043951 307.584 
L 186.794144 307.584 
L 195.065597 307.584 
L 196.222199 307.584 
L 198.079771 307.584 
L 200.95375 307.584 
L 210.03132 307.584 
L 210.27666 307.584 
L 212.730057 307.584 
L 229.763643 307.584 
L 237.193932 307.584 
L 249.285675 307.584 
L 273.434113 307.584 
L 274.064987 307.584 
L 274.240229 307.584 
L 277.850228 307.584 
L 307.045655 307.584 
L 317.455068 307.584 
L 344.61768 307.584 
L 380.822813 307.584 
L 398.487273 307.584 
L 398.487273 305.664 
L 398.487273 305.664 
L 380.822813 303.744 
L 344.61768 301.824 
L 317.455068 299.904 
L 307.045655 297.984 
L 277.850228 296.064 
L 274.240229 294.144 
L 274.064987 292.224 
L 273.434113 290.304 
L 249.285675 288.384 
L 237.193932 286.464 
L 229.763643 282.624 
L 212.730057 278.784 
L 210.27666 276.864 
L 210.03132 273.024 
L 200.95375 273.024 
L 198.079771 271.104 
L 196.222199 267.264 
L 195.065597 265.344 
L 186.794144 263.424 
L 183.043951 261.504 
L 181.957446 259.584 
L 181.747155 257.664 
L 176.770264 255.744 
L 175.263177 253.824 
L 173.160265 253.824 
L 166.36085 251.904 
L 162.645706 242.304 
L 159.561435 240.384 
L 159.526386 238.464 
L 158.895513 236.544 
L 156.827649 236.544 
L 151.57037 232.704 
L 149.817943 230.784 
L 148.871633 226.944 
L 147.715031 225.024 
L 140.144548 223.104 
L 138.462219 221.184 
L 136.04387 219.264 
L 133.064745 217.344 
L 132.258629 213.504 
L 129.875329 207.744 
L 126.195233 205.824 
L 125.949893 203.904 
L 122.865623 201.984 
L 122.234749 196.224 
L 120.937953 196.224 
L 118.764944 194.304 
L 118.659799 192.384 
L 116.697081 188.544 
L 110.703782 184.704 
L 109.266792 180.864 
L 107.198929 178.944 
L 106.147473 171.264 
L 103.378639 169.344 
L 102.116892 169.344 
L 98.612039 167.424 
L 97.245146 163.584 
L 97.034855 157.824 
L 94.686603 155.904 
L 93.319711 153.984 
L 93.214565 150.144 
L 92.163109 148.224 
L 90.796216 146.304 
L 88.167577 146.304 
L 87.256315 144.384 
L 85.188451 144.384 
L 82.735054 144.384 
L 82.384569 140.544 
L 80.737288 138.624 
L 80.632142 132.864 
L 79.826026 130.944 
L 78.879716 130.944 
L 75.970688 130.944 
L 74.779038 129.024 
L 74.638843 127.104 
L 74.463601 125.184 
L 73.832727 121.344 
z
" clip-path="url(#p1ad4b67ae3)" style="fill: #008000"/>
   </g>
   <g id="PolyCollection_2">
    <path d="M 73.832727 121.344 
L 73.832727 121.344 
L 74.463601 125.184 
L 74.638843 127.104 
L 74.779038 129.024 
L 75.970688 130.944 
L 78.879716 130.944 
L 79.826026 130.944 
L 80.632142 132.864 
L 80.737288 138.624 
L 82.384569 140.544 
L 82.735054 144.384 
L 85.188451 144.384 
L 87.256315 144.384 
L 88.167577 146.304 
L 90.796216 146.304 
L 92.163109 148.224 
L 93.214565 150.144 
L 93.319711 153.984 
L 94.686603 155.904 
L 97.034855 157.824 
L 97.245146 163.584 
L 98.612039 167.424 
L 102.116892 169.344 
L 103.378639 169.344 
L 106.147473 171.264 
L 107.198929 178.944 
L 109.266792 180.864 
L 110.703782 184.704 
L 116.697081 188.544 
L 118.659799 192.384 
L 118.764944 194.304 
L 120.937953 196.224 
L 122.234749 196.224 
L 122.865623 201.984 
L 125.949893 203.904 
L 126.195233 205.824 
L 129.875329 207.744 
L 132.258629 213.504 
L 133.064745 217.344 
L 136.04387 219.264 
L 138.462219 221.184 
L 140.144548 223.104 
L 147.715031 225.024 
L 148.871633 226.944 
L 149.817943 230.784 
L 151.57037 232.704 
L 156.827649 236.544 
L 158.895513 236.544 
L 159.526386 238.464 
L 159.561435 240.384 
L 162.645706 242.304 
L 166.36085 251.904 
L 173.160265 253.824 
L 175.263177 253.824 
L 176.770264 255.744 
L 181.747155 257.664 
L 181.957446 259.584 
L 183.043951 261.504 
L 186.794144 263.424 
L 195.065597 265.344 
L 196.222199 267.264 
L 198.079771 271.104 
L 200.95375 273.024 
L 210.03132 273.024 
L 210.27666 276.864 
L 212.730057 278.784 
L 229.763643 282.624 
L 237.193932 286.464 
L 249.285675 288.384 
L 273.434113 290.304 
L 274.064987 292.224 
L 274.240229 294.144 
L 277.850228 296.064 
L 307.045655 297.984 
L 317.455068 299.904 
L 344.61768 301.824 
L 380.822813 303.744 
L 398.487273 305.664 
L 398.487273 305.664 
L 398.487273 305.664 
L 380.822813 303.744 
L 344.61768 301.824 
L 317.455068 299.904 
L 307.045655 297.984 
L 277.850228 296.064 
L 274.240229 294.144 
L 274.064987 292.224 
L 273.434113 290.304 
L 249.285675 288.384 
L 237.193932 286.464 
L 229.763643 282.624 
L 212.730057 278.784 
L 210.27666 276.864 
L 210.03132 273.024 
L 200.95375 273.024 
L 198.079771 271.104 
L 196.222199 267.264 
L 195.065597 265.344 
L 186.794144 263.424 
L 183.043951 261.504 
L 181.957446 259.584 
L 181.747155 257.664 
L 176.770264 255.744 
L 175.263177 253.824 
L 173.160265 253.824 
L 166.36085 251.904 
L 162.645706 242.304 
L 159.561435 240.384 
L 159.526386 238.464 
L 158.895513 236.544 
L 156.827649 236.544 
L 151.57037 232.704 
L 149.817943 230.784 
L 148.871633 226.944 
L 147.715031 225.024 
L 140.144548 223.104 
L 138.462219 221.184 
L 136.04387 219.264 
L 133.064745 217.344 
L 132.258629 213.504 
L 129.875329 207.744 
L 126.195233 205.824 
L 125.949893 203.904 
L 122.865623 201.984 
L 122.234749 196.224 
L 120.937953 196.224 
L 118.764944 194.304 
L 118.659799 192.384 
L 116.697081 188.544 
L 110.703782 184.704 
L 109.266792 180.864 
L 107.198929 178.944 
L 106.147473 171.264 
L 103.378639 169.344 
L 102.116892 169.344 
L 98.612039 167.424 
L 97.245146 163.584 
L 97.034855 157.824 
L 94.686603 155.904 
L 93.319711 153.984 
L 93.214565 150.144 
L 92.163109 148.224 
L 90.796216 146.304 
L 88.167577 146.304 
L 87.256315 144.384 
L 85.188451 144.384 
L 82.735054 144.384 
L 82.384569 140.544 
L 80.737288 138.624 
L 80.632142 132.864 
L 79.826026 130.944 
L 78.879716 130.944 
L 75.970688 130.944 
L 74.779038 129.024 
L 74.638843 127.104 
L 74.463601 125.184 
L 73.832727 121.344 
z
" clip-path="url(#p1ad4b67ae3)" style="fill: #7cfc00"/>
   </g>
   <g id="PolyCollection_3">
    <path d="M 73.832727 54.144 
L 73.832727 121.344 
L 74.463601 125.184 
L 74.638843 127.104 
L 74.779038 129.024 
L 75.970688 130.944 
L 78.879716 130.944 
L 79.826026 130.944 
L 80.632142 132.864 
L 80.737288 138.624 
L 82.384569 140.544 
L 82.735054 144.384 
L 85.188451 144.384 
L 87.256315 144.384 
L 88.167577 146.304 
L 90.796216 146.304 
L 92.163109 148.224 
L 93.214565 150.144 
L 93.319711 153.984 
L 94.686603 155.904 
L 97.034855 157.824 
L 97.245146 163.584 
L 98.612039 167.424 
L 102.116892 169.344 
L 103.378639 169.344 
L 106.147473 171.264 
L 107.198929 178.944 
L 109.266792 180.864 
L 110.703782 184.704 
L 116.697081 188.544 
L 118.659799 192.384 
L 118.764944 194.304 
L 120.937953 196.224 
L 122.234749 196.224 
L 122.865623 201.984 
L 125.949893 203.904 
L 126.195233 205.824 
L 129.875329 207.744 
L 132.258629 213.504 
L 133.064745 217.344 
L 136.04387 219.264 
L 138.462219 221.184 
L 140.144548 223.104 
L 147.715031 225.024 
L 148.871633 226.944 
L 149.817943 230.784 
L 151.57037 232.704 
L 156.827649 236.544 
L 158.895513 236.544 
L 159.526386 238.464 
L 159.561435 240.384 
L 162.645706 242.304 
L 166.36085 251.904 
L 173.160265 253.824 
L 175.263177 253.824 
L 176.770264 255.744 
L 181.747155 257.664 
L 181.957446 259.584 
L 183.043951 261.504 
L 186.794144 263.424 
L 195.065597 265.344 
L 196.222199 267.264 
L 198.079771 271.104 
L 200.95375 273.024 
L 210.03132 273.024 
L 210.27666 276.864 
L 212.730057 278.784 
L 229.763643 282.624 
L 237.193932 286.464 
L 249.285675 288.384 
L 273.434113 290.304 
L 274.064987 292.224 
L 274.240229 294.144 
L 277.850228 296.064 
L 307.045655 297.984 
L 317.455068 299.904 
L 344.61768 301.824 
L 380.822813 303.744 
L 398.487273 305.664 
L 398.487273 305.664 
L 398.487273 305.664 
L 380.822813 303.744 
L 344.61768 301.824 
L 317.455068 299.904 
L 307.045655 297.984 
L 277.850228 296.064 
L 274.240229 294.144 
L 274.064987 292.224 
L 273.434113 290.304 
L 249.285675 288.384 
L 237.193932 286.464 
L 229.763643 282.624 
L 212.730057 278.784 
L 210.27666 276.864 
L 210.03132 273.024 
L 200.95375 271.104 
L 198.079771 269.184 
L 196.222199 265.344 
L 195.065597 263.424 
L 186.794144 261.504 
L 183.043951 259.584 
L 181.957446 257.664 
L 181.747155 255.744 
L 176.770264 253.824 
L 175.263177 251.904 
L 173.160265 249.984 
L 166.36085 248.064 
L 162.645706 238.464 
L 159.561435 232.704 
L 159.526386 230.784 
L 158.895513 228.864 
L 156.827649 226.944 
L 151.57037 223.104 
L 149.817943 221.184 
L 148.871633 217.344 
L 147.715031 215.424 
L 140.144548 213.504 
L 138.462219 211.584 
L 136.04387 209.664 
L 133.064745 207.744 
L 132.258629 203.904 
L 129.875329 198.144 
L 126.195233 194.304 
L 125.949893 192.384 
L 122.865623 190.464 
L 122.234749 180.864 
L 120.937953 178.944 
L 118.764944 177.024 
L 118.659799 175.104 
L 116.697081 171.264 
L 110.703782 167.424 
L 109.266792 163.584 
L 107.198929 161.664 
L 106.147473 153.984 
L 103.378639 152.064 
L 102.116892 146.304 
L 98.612039 144.384 
L 97.245146 140.544 
L 97.034855 134.784 
L 94.686603 132.864 
L 93.319711 130.944 
L 93.214565 123.264 
L 92.163109 121.344 
L 90.796216 119.424 
L 88.167577 117.504 
L 87.256315 115.584 
L 85.188451 109.824 
L 82.735054 107.904 
L 82.384569 104.064 
L 80.737288 96.384 
L 80.632142 90.624 
L 79.826026 88.704 
L 78.879716 84.864 
L 75.970688 82.944 
L 74.779038 81.024 
L 74.638843 79.104 
L 74.463601 75.264 
L 73.832727 54.144 
z
" clip-path="url(#p1ad4b67ae3)" style="fill: #ff0000"/>
   </g>
   <g id="matplotlib.axis_1">
    <g id="xtick_1">
     <g id="line2d_1">
      <defs>
       <path id="mb3394e6a6f" d="M 0 0 
L 0 3.5 
" style="stroke: #000000; stroke-width: 0.8"/>
      </defs>
      <g>
       <use xlink:href="#mb3394e6a6f" x="115.435334" y="307.584" style="stroke: #000000; stroke-width: 0.8"/>
      </g>
     </g>
     <g id="text_1">
      <!-- 40 -->
      <g transform="translate(109.072834 322.182437) scale(0.1 -0.1)">
       <defs>
        <path id="DejaVuSans-34" d="M 2419 4116 
L 825 1625 
L 2419 1625 
L 2419 4116 
z
M 2253 4666 
L 3047 4666 
L 3047 1625 
L 3713 1625 
L 3713 1100 
L 3047 1100 
L 3047 0 
L 2419 0 
L 2419 1100 
L 313 1100 
L 313 1709 
L 2253 4666 
z
" transform="scale(0.015625)"/>
        <path id="DejaVuSans-30" d="M 2034 4250 
Q 1547 4250 1301 3770 
Q 1056 3291 1056 2328 
Q 1056 1369 1301 889 
Q 1547 409 2034 409 
Q 2525 409 2770 889 
Q 3016 1369 3016 2328 
Q 3016 3291 2770 3770 
Q 2525 4250 2034 4250 
z
M 2034 4750 
Q 2819 4750 3233 4129 
Q 3647 3509 3647 2328 
Q 3647 1150 3233 529 
Q 2819 -91 2034 -91 
Q 1250 -91 836 529 
Q 422 1150 422 2328 
Q 422 3509 836 4129 
Q 1250 4750 2034 4750 
z
" transform="scale(0.015625)"/>
       </defs>
       <use xlink:href="#DejaVuSans-34"/>
       <use xlink:href="#DejaVuSans-30" x="63.623047"/>
      </g>
     </g>
    </g>
    <g id="xtick_2">
     <g id="line2d_2">
      <g>
       <use xlink:href="#mb3394e6a6f" x="185.532397" y="307.584" style="stroke: #000000; stroke-width: 0.8"/>
      </g>
     </g>
     <g id="text_2">
      <!-- 60 -->
      <g transform="translate(179.169897 322.182437) scale(0.1 -0.1)">
       <defs>
        <path id="DejaVuSans-36" d="M 2113 2584 
Q 1688 2584 1439 2293 
Q 1191 2003 1191 1497 
Q 1191 994 1439 701 
Q 1688 409 2113 409 
Q 2538 409 2786 701 
Q 3034 994 3034 1497 
Q 3034 2003 2786 2293 
Q 2538 2584 2113 2584 
z
M 3366 4563 
L 3366 3988 
Q 3128 4100 2886 4159 
Q 2644 4219 2406 4219 
Q 1781 4219 1451 3797 
Q 1122 3375 1075 2522 
Q 1259 2794 1537 2939 
Q 1816 3084 2150 3084 
Q 2853 3084 3261 2657 
Q 3669 2231 3669 1497 
Q 3669 778 3244 343 
Q 2819 -91 2113 -91 
Q 1303 -91 875 529 
Q 447 1150 447 2328 
Q 447 3434 972 4092 
Q 1497 4750 2381 4750 
Q 2619 4750 2861 4703 
Q 3103 4656 3366 4563 
z
" transform="scale(0.015625)"/>
       </defs>
       <use xlink:href="#DejaVuSans-36"/>
       <use xlink:href="#DejaVuSans-30" x="63.623047"/>
      </g>
     </g>
    </g>
    <g id="xtick_3">
     <g id="line2d_3">
      <g>
       <use xlink:href="#mb3394e6a6f" x="255.629459" y="307.584" style="stroke: #000000; stroke-width: 0.8"/>
      </g>
     </g>
     <g id="text_3">
      <!-- 80 -->
      <g transform="translate(249.266959 322.182437) scale(0.1 -0.1)">
       <defs>
        <path id="DejaVuSans-38" d="M 2034 2216 
Q 1584 2216 1326 1975 
Q 1069 1734 1069 1313 
Q 1069 891 1326 650 
Q 1584 409 2034 409 
Q 2484 409 2743 651 
Q 3003 894 3003 1313 
Q 3003 1734 2745 1975 
Q 2488 2216 2034 2216 
z
M 1403 2484 
Q 997 2584 770 2862 
Q 544 3141 544 3541 
Q 544 4100 942 4425 
Q 1341 4750 2034 4750 
Q 2731 4750 3128 4425 
Q 3525 4100 3525 3541 
Q 3525 3141 3298 2862 
Q 3072 2584 2669 2484 
Q 3125 2378 3379 2068 
Q 3634 1759 3634 1313 
Q 3634 634 3220 271 
Q 2806 -91 2034 -91 
Q 1263 -91 848 271 
Q 434 634 434 1313 
Q 434 1759 690 2068 
Q 947 2378 1403 2484 
z
M 1172 3481 
Q 1172 3119 1398 2916 
Q 1625 2713 2034 2713 
Q 2441 2713 2670 2916 
Q 2900 3119 2900 3481 
Q 2900 3844 2670 4047 
Q 2441 4250 2034 4250 
Q 1625 4250 1398 4047 
Q 1172 3844 1172 3481 
z
" transform="scale(0.015625)"/>
       </defs>
       <use xlink:href="#DejaVuSans-38"/>
       <use xlink:href="#DejaVuSans-30" x="63.623047"/>
      </g>
     </g>
    </g>
    <g id="xtick_4">
     <g id="line2d_4">
      <g>
       <use xlink:href="#mb3394e6a6f" x="325.726522" y="307.584" style="stroke: #000000; stroke-width: 0.8"/>
      </g>
     </g>
     <g id="text_4">
      <!-- 100 -->
      <g transform="translate(316.182772 322.182437) scale(0.1 -0.1)">
       <defs>
        <path id="DejaVuSans-31" d="M 794 531 
L 1825 531 
L 1825 4091 
L 703 3866 
L 703 4441 
L 1819 4666 
L 2450 4666 
L 2450 531 
L 3481 531 
L 3481 0 
L 794 0 
L 794 531 
z
" transform="scale(0.015625)"/>
       </defs>
       <use xlink:href="#DejaVuSans-31"/>
       <use xlink:href="#DejaVuSans-30" x="63.623047"/>
       <use xlink:href="#DejaVuSans-30" x="127.246094"/>
      </g>
     </g>
    </g>
    <g id="xtick_5">
     <g id="line2d_5">
      <g>
       <use xlink:href="#mb3394e6a6f" x="395.823584" y="307.584" style="stroke: #000000; stroke-width: 0.8"/>
      </g>
     </g>
     <g id="text_5">
      <!-- 120 -->
      <g transform="translate(386.279834 322.182437) scale(0.1 -0.1)">
       <defs>
        <path id="DejaVuSans-32" d="M 1228 531 
L 3431 531 
L 3431 0 
L 469 0 
L 469 531 
Q 828 903 1448 1529 
Q 2069 2156 2228 2338 
Q 2531 2678 2651 2914 
Q 2772 3150 2772 3378 
Q 2772 3750 2511 3984 
Q 2250 4219 1831 4219 
Q 1534 4219 1204 4116 
Q 875 4013 500 3803 
L 500 4441 
Q 881 4594 1212 4672 
Q 1544 4750 1819 4750 
Q 2544 4750 2975 4387 
Q 3406 4025 3406 3419 
Q 3406 3131 3298 2873 
Q 3191 2616 2906 2266 
Q 2828 2175 2409 1742 
Q 1991 1309 1228 531 
z
" transform="scale(0.015625)"/>
       </defs>
       <use xlink:href="#DejaVuSans-31"/>
       <use xlink:href="#DejaVuSans-32" x="63.623047"/>
       <use xlink:href="#DejaVuSans-30" x="127.246094"/>
      </g>
     </g>
    </g>
    <g id="text_6">
     <!-- Score -->
     <g transform="translate(222.157656 335.860562) scale(0.1 -0.1)">
      <defs>
       <path id="DejaVuSans-53" d="M 3425 4513 
L 3425 3897 
Q 3066 4069 2747 4153 
Q 2428 4238 2131 4238 
Q 1616 4238 1336 4038 
Q 1056 3838 1056 3469 
Q 1056 3159 1242 3001 
Q 1428 2844 1947 2747 
L 2328 2669 
Q 3034 2534 3370 2195 
Q 3706 1856 3706 1288 
Q 3706 609 3251 259 
Q 2797 -91 1919 -91 
Q 1588 -91 1214 -16 
Q 841 59 441 206 
L 441 856 
Q 825 641 1194 531 
Q 1563 422 1919 422 
Q 2459 422 2753 634 
Q 3047 847 3047 1241 
Q 3047 1584 2836 1778 
Q 2625 1972 2144 2069 
L 1759 2144 
Q 1053 2284 737 2584 
Q 422 2884 422 3419 
Q 422 4038 858 4394 
Q 1294 4750 2059 4750 
Q 2388 4750 2728 4690 
Q 3069 4631 3425 4513 
z
" transform="scale(0.015625)"/>
       <path id="DejaVuSans-63" d="M 3122 3366 
L 3122 2828 
Q 2878 2963 2633 3030 
Q 2388 3097 2138 3097 
Q 1578 3097 1268 2742 
Q 959 2388 959 1747 
Q 959 1106 1268 751 
Q 1578 397 2138 397 
Q 2388 397 2633 464 
Q 2878 531 3122 666 
L 3122 134 
Q 2881 22 2623 -34 
Q 2366 -91 2075 -91 
Q 1284 -91 818 406 
Q 353 903 353 1747 
Q 353 2603 823 3093 
Q 1294 3584 2113 3584 
Q 2378 3584 2631 3529 
Q 2884 3475 3122 3366 
z
" transform="scale(0.015625)"/>
       <path id="DejaVuSans-6f" d="M 1959 3097 
Q 1497 3097 1228 2736 
Q 959 2375 959 1747 
Q 959 1119 1226 758 
Q 1494 397 1959 397 
Q 2419 397 2687 759 
Q 2956 1122 2956 1747 
Q 2956 2369 2687 2733 
Q 2419 3097 1959 3097 
z
M 1959 3584 
Q 2709 3584 3137 3096 
Q 3566 2609 3566 1747 
Q 3566 888 3137 398 
Q 2709 -91 1959 -91 
Q 1206 -91 779 398 
Q 353 888 353 1747 
Q 353 2609 779 3096 
Q 1206 3584 1959 3584 
z
" transform="scale(0.015625)"/>
       <path id="DejaVuSans-72" d="M 2631 2963 
Q 2534 3019 2420 3045 
Q 2306 3072 2169 3072 
Q 1681 3072 1420 2755 
Q 1159 2438 1159 1844 
L 1159 0 
L 581 0 
L 581 3500 
L 1159 3500 
L 1159 2956 
Q 1341 3275 1631 3429 
Q 1922 3584 2338 3584 
Q 2397 3584 2469 3576 
Q 2541 3569 2628 3553 
L 2631 2963 
z
" transform="scale(0.015625)"/>
       <path id="DejaVuSans-65" d="M 3597 1894 
L 3597 1613 
L 953 1613 
Q 991 1019 1311 708 
Q 1631 397 2203 397 
Q 2534 397 2845 478 
Q 3156 559 3463 722 
L 3463 178 
Q 3153 47 2828 -22 
Q 2503 -91 2169 -91 
Q 1331 -91 842 396 
Q 353 884 353 1716 
Q 353 2575 817 3079 
Q 1281 3584 2069 3584 
Q 2775 3584 3186 3129 
Q 3597 2675 3597 1894 
z
M 3022 2063 
Q 3016 2534 2758 2815 
Q 2500 3097 2075 3097 
Q 1594 3097 1305 2825 
Q 1016 2553 972 2059 
L 3022 2063 
z
" transform="scale(0.015625)"/>
      </defs>
      <use xlink:href="#DejaVuSans-53"/>
      <use xlink:href="#DejaVuSans-63" x="63.476562"/>
      <use xlink:href="#DejaVuSans-6f" x="118.457031"/>
      <use xlink:href="#DejaVuSans-72" x="179.638672"/>
      <use xlink:href="#DejaVuSans-65" x="218.501953"/>
     </g>
    </g>
   </g>
   <g id="matplotlib.axis_2">
    <g id="ytick_1">
     <g id="line2d_6">
      <defs>
       <path id="m240f9ba48a" d="M 0 0 
L -3.5 0 
" style="stroke: #000000; stroke-width: 0.8"/>
      </defs>
      <g>
       <use xlink:href="#m240f9ba48a" x="57.6" y="307.584" style="stroke: #000000; stroke-width: 0.8"/>
      </g>
     </g>
     <g id="text_7">
      <!-- 0 -->
      <g transform="translate(44.2375 311.383219) scale(0.1 -0.1)">
       <use xlink:href="#DejaVuSans-30"/>
      </g>
     </g>
    </g>
    <g id="ytick_2">
     <g id="line2d_7">
      <g>
       <use xlink:href="#m240f9ba48a" x="57.6" y="269.184" style="stroke: #000000; stroke-width: 0.8"/>
      </g>
     </g>
     <g id="text_8">
      <!-- 20 -->
      <g transform="translate(37.875 272.983219) scale(0.1 -0.1)">
       <use xlink:href="#DejaVuSans-32"/>
       <use xlink:href="#DejaVuSans-30" x="63.623047"/>
      </g>
     </g>
    </g>
    <g id="ytick_3">
     <g id="line2d_8">
      <g>
       <use xlink:href="#m240f9ba48a" x="57.6" y="230.784" style="stroke: #000000; stroke-width: 0.8"/>
      </g>
     </g>
     <g id="text_9">
      <!-- 40 -->
      <g transform="translate(37.875 234.583219) scale(0.1 -0.1)">
       <use xlink:href="#DejaVuSans-34"/>
       <use xlink:href="#DejaVuSans-30" x="63.623047"/>
      </g>
     </g>
    </g>
    <g id="ytick_4">
     <g id="line2d_9">
      <g>
       <use xlink:href="#m240f9ba48a" x="57.6" y="192.384" style="stroke: #000000; stroke-width: 0.8"/>
      </g>
     </g>
     <g id="text_10">
      <!-- 60 -->
      <g transform="translate(37.875 196.183219) scale(0.1 -0.1)">
       <use xlink:href="#DejaVuSans-36"/>
       <use xlink:href="#DejaVuSans-30" x="63.623047"/>
      </g>
     </g>
    </g>
    <g id="ytick_5">
     <g id="line2d_10">
      <g>
       <use xlink:href="#m240f9ba48a" x="57.6" y="153.984" style="stroke: #000000; stroke-width: 0.8"/>
      </g>
     </g>
     <g id="text_11">
      <!-- 80 -->
      <g transform="translate(37.875 157.783219) scale(0.1 -0.1)">
       <use xlink:href="#DejaVuSans-38"/>
       <use xlink:href="#DejaVuSans-30" x="63.623047"/>
      </g>
     </g>
    </g>
    <g id="ytick_6">
     <g id="line2d_11">
      <g>
       <use xlink:href="#m240f9ba48a" x="57.6" y="115.584" style="stroke: #000000; stroke-width: 0.8"/>
      </g>
     </g>
     <g id="text_12">
      <!-- 100 -->
      <g transform="translate(31.5125 119.383219) scale(0.1 -0.1)">
       <use xlink:href="#DejaVuSans-31"/>
       <use xlink:href="#DejaVuSans-30" x="63.623047"/>
       <use xlink:href="#DejaVuSans-30" x="127.246094"/>
      </g>
     </g>
    </g>
    <g id="ytick_7">
     <g id="line2d_12">
      <g>
       <use xlink:href="#m240f9ba48a" x="57.6" y="77.184" style="stroke: #000000; stroke-width: 0.8"/>
      </g>
     </g>
     <g id="text_13">
      <!-- 120 -->
      <g transform="translate(31.5125 80.983219) scale(0.1 -0.1)">
       <use xlink:href="#DejaVuSans-31"/>
       <use xlink:href="#DejaVuSans-32" x="63.623047"/>
       <use xlink:href="#DejaVuSans-30" x="127.246094"/>
      </g>
     </g>
    </g>
    <g id="text_14">
     <!-- Number of crosslinks -->
     <g transform="translate(25.432812 227.019406) rotate(-90) scale(0.1 -0.1)">
      <defs>
       <path id="DejaVuSans-4e" d="M 628 4666 
L 1478 4666 
L 3547 763 
L 3547 4666 
L 4159 4666 
L 4159 0 
L 3309 0 
L 1241 3903 
L 1241 0 
L 628 0 
L 628 4666 
z
" transform="scale(0.015625)"/>
       <path id="DejaVuSans-75" d="M 544 1381 
L 544 3500 
L 1119 3500 
L 1119 1403 
Q 1119 906 1312 657 
Q 1506 409 1894 409 
Q 2359 409 2629 706 
Q 2900 1003 2900 1516 
L 2900 3500 
L 3475 3500 
L 3475 0 
L 2900 0 
L 2900 538 
Q 2691 219 2414 64 
Q 2138 -91 1772 -91 
Q 1169 -91 856 284 
Q 544 659 544 1381 
z
M 1991 3584 
L 1991 3584 
z
" transform="scale(0.015625)"/>
       <path id="DejaVuSans-6d" d="M 3328 2828 
Q 3544 3216 3844 3400 
Q 4144 3584 4550 3584 
Q 5097 3584 5394 3201 
Q 5691 2819 5691 2113 
L 5691 0 
L 5113 0 
L 5113 2094 
Q 5113 2597 4934 2840 
Q 4756 3084 4391 3084 
Q 3944 3084 3684 2787 
Q 3425 2491 3425 1978 
L 3425 0 
L 2847 0 
L 2847 2094 
Q 2847 2600 2669 2842 
Q 2491 3084 2119 3084 
Q 1678 3084 1418 2786 
Q 1159 2488 1159 1978 
L 1159 0 
L 581 0 
L 581 3500 
L 1159 3500 
L 1159 2956 
Q 1356 3278 1631 3431 
Q 1906 3584 2284 3584 
Q 2666 3584 2933 3390 
Q 3200 3197 3328 2828 
z
" transform="scale(0.015625)"/>
       <path id="DejaVuSans-62" d="M 3116 1747 
Q 3116 2381 2855 2742 
Q 2594 3103 2138 3103 
Q 1681 3103 1420 2742 
Q 1159 2381 1159 1747 
Q 1159 1113 1420 752 
Q 1681 391 2138 391 
Q 2594 391 2855 752 
Q 3116 1113 3116 1747 
z
M 1159 2969 
Q 1341 3281 1617 3432 
Q 1894 3584 2278 3584 
Q 2916 3584 3314 3078 
Q 3713 2572 3713 1747 
Q 3713 922 3314 415 
Q 2916 -91 2278 -91 
Q 1894 -91 1617 61 
Q 1341 213 1159 525 
L 1159 0 
L 581 0 
L 581 4863 
L 1159 4863 
L 1159 2969 
z
" transform="scale(0.015625)"/>
       <path id="DejaVuSans-20" transform="scale(0.015625)"/>
       <path id="DejaVuSans-66" d="M 2375 4863 
L 2375 4384 
L 1825 4384 
Q 1516 4384 1395 4259 
Q 1275 4134 1275 3809 
L 1275 3500 
L 2222 3500 
L 2222 3053 
L 1275 3053 
L 1275 0 
L 697 0 
L 697 3053 
L 147 3053 
L 147 3500 
L 697 3500 
L 697 3744 
Q 697 4328 969 4595 
Q 1241 4863 1831 4863 
L 2375 4863 
z
" transform="scale(0.015625)"/>
       <path id="DejaVuSans-73" d="M 2834 3397 
L 2834 2853 
Q 2591 2978 2328 3040 
Q 2066 3103 1784 3103 
Q 1356 3103 1142 2972 
Q 928 2841 928 2578 
Q 928 2378 1081 2264 
Q 1234 2150 1697 2047 
L 1894 2003 
Q 2506 1872 2764 1633 
Q 3022 1394 3022 966 
Q 3022 478 2636 193 
Q 2250 -91 1575 -91 
Q 1294 -91 989 -36 
Q 684 19 347 128 
L 347 722 
Q 666 556 975 473 
Q 1284 391 1588 391 
Q 1994 391 2212 530 
Q 2431 669 2431 922 
Q 2431 1156 2273 1281 
Q 2116 1406 1581 1522 
L 1381 1569 
Q 847 1681 609 1914 
Q 372 2147 372 2553 
Q 372 3047 722 3315 
Q 1072 3584 1716 3584 
Q 2034 3584 2315 3537 
Q 2597 3491 2834 3397 
z
" transform="scale(0.015625)"/>
       <path id="DejaVuSans-6c" d="M 603 4863 
L 1178 4863 
L 1178 0 
L 603 0 
L 603 4863 
z
" transform="scale(0.015625)"/>
       <path id="DejaVuSans-69" d="M 603 3500 
L 1178 3500 
L 1178 0 
L 603 0 
L 603 3500 
z
M 603 4863 
L 1178 4863 
L 1178 4134 
L 603 4134 
L 603 4863 
z
" transform="scale(0.015625)"/>
       <path id="DejaVuSans-6e" d="M 3513 2113 
L 3513 0 
L 2938 0 
L 2938 2094 
Q 2938 2591 2744 2837 
Q 2550 3084 2163 3084 
Q 1697 3084 1428 2787 
Q 1159 2491 1159 1978 
L 1159 0 
L 581 0 
L 581 3500 
L 1159 3500 
L 1159 2956 
Q 1366 3272 1645 3428 
Q 1925 3584 2291 3584 
Q 2894 3584 3203 3211 
Q 3513 2838 3513 2113 
z
" transform="scale(0.015625)"/>
       <path id="DejaVuSans-6b" d="M 581 4863 
L 1159 4863 
L 1159 1991 
L 2875 3500 
L 3609 3500 
L 1753 1863 
L 3688 0 
L 2938 0 
L 1159 1709 
L 1159 0 
L 581 0 
L 581 4863 
z
" transform="scale(0.015625)"/>
      </defs>
      <use xlink:href="#DejaVuSans-4e"/>
      <use xlink:href="#DejaVuSans-75" x="74.804688"/>
      <use xlink:href="#DejaVuSans-6d" x="138.183594"/>
      <use xlink:href="#DejaVuSans-62" x="235.595703"/>
      <use xlink:href="#DejaVuSans-65" x="299.072266"/>
      <use xlink:href="#DejaVuSans-72" x="360.595703"/>
      <use xlink:href="#DejaVuSans-20" x="401.708984"/>
      <use xlink:href="#DejaVuSans-6f" x="433.496094"/>
      <use xlink:href="#DejaVuSans-66" x="494.677734"/>
      <use xlink:href="#DejaVuSans-20" x="529.882812"/>
      <use xlink:href="#DejaVuSans-63" x="561.669922"/>
      <use xlink:href="#DejaVuSans-72" x="616.650391"/>
      <use xlink:href="#DejaVuSans-6f" x="655.513672"/>
      <use xlink:href="#DejaVuSans-73" x="716.695312"/>
      <use xlink:href="#DejaVuSans-73" x="768.794922"/>
      <use xlink:href="#DejaVuSans-6c" x="820.894531"/>
      <use xlink:href="#DejaVuSans-69" x="848.677734"/>
      <use xlink:href="#DejaVuSans-6e" x="876.460938"/>
      <use xlink:href="#DejaVuSans-6b" x="939.839844"/>
      <use xlink:href="#DejaVuSans-73" x="997.75"/>
     </g>
    </g>
   </g>
   <g id="patch_3">
    <path d="M 57.6 307.584 
L 57.6 41.472 
" style="fill: none; stroke: #000000; stroke-width: 0.8; stroke-linejoin: miter; stroke-linecap: square"/>
   </g>
   <g id="patch_4">
    <path d="M 414.72 307.584 
L 414.72 41.472 
" style="fill: none; stroke: #000000; stroke-width: 0.8; stroke-linejoin: miter; stroke-linecap: square"/>
   </g>
   <g id="patch_5">
    <path d="M 57.6 307.584 
L 414.72 307.584 
" style="fill: none; stroke: #000000; stroke-width: 0.8; stroke-linejoin: miter; stroke-linecap: square"/>
   </g>
   <g id="patch_6">
    <path d="M 57.6 41.472 
L 414.72 41.472 
" style="fill: none; stroke: #000000; stroke-width: 0.8; stroke-linejoin: miter; stroke-linecap: square"/>
   </g>
   <g id="legend_1">
    <g id="patch_7">
     <path d="M 278.598125 93.506375 
L 407.72 93.506375 
Q 409.72 93.506375 409.72 91.506375 
L 409.72 48.472 
Q 409.72 46.472 407.72 46.472 
L 278.598125 46.472 
Q 276.598125 46.472 276.598125 48.472 
L 276.598125 91.506375 
Q 276.598125 93.506375 278.598125 93.506375 
z
" style="fill: #ffffff; opacity: 0.8; stroke: #cccccc; stroke-linejoin: miter"/>
    </g>
    <g id="patch_8">
     <path d="M 280.598125 58.070438 
L 300.598125 58.070438 
L 300.598125 51.070438 
L 280.598125 51.070438 
z
" style="fill: #008000"/>
    </g>
    <g id="text_15">
     <!-- correct -->
     <g transform="translate(308.598125 58.070438) scale(0.1 -0.1)">
      <defs>
       <path id="DejaVuSans-74" d="M 1172 4494 
L 1172 3500 
L 2356 3500 
L 2356 3053 
L 1172 3053 
L 1172 1153 
Q 1172 725 1289 603 
Q 1406 481 1766 481 
L 2356 481 
L 2356 0 
L 1766 0 
Q 1100 0 847 248 
Q 594 497 594 1153 
L 594 3053 
L 172 3053 
L 172 3500 
L 594 3500 
L 594 4494 
L 1172 4494 
z
" transform="scale(0.015625)"/>
      </defs>
      <use xlink:href="#DejaVuSans-63"/>
      <use xlink:href="#DejaVuSans-6f" x="54.980469"/>
      <use xlink:href="#DejaVuSans-72" x="116.162109"/>
      <use xlink:href="#DejaVuSans-72" x="155.525391"/>
      <use xlink:href="#DejaVuSans-65" x="194.388672"/>
      <use xlink:href="#DejaVuSans-63" x="255.912109"/>
      <use xlink:href="#DejaVuSans-74" x="310.892578"/>
     </g>
    </g>
    <g id="patch_9">
     <path d="M 280.598125 72.748563 
L 300.598125 72.748563 
L 300.598125 65.748563 
L 280.598125 65.748563 
z
" style="fill: #7cfc00"/>
    </g>
    <g id="text_16">
     <!-- correct homeotypic -->
     <g transform="translate(308.598125 72.748563) scale(0.1 -0.1)">
      <defs>
       <path id="DejaVuSans-68" d="M 3513 2113 
L 3513 0 
L 2938 0 
L 2938 2094 
Q 2938 2591 2744 2837 
Q 2550 3084 2163 3084 
Q 1697 3084 1428 2787 
Q 1159 2491 1159 1978 
L 1159 0 
L 581 0 
L 581 4863 
L 1159 4863 
L 1159 2956 
Q 1366 3272 1645 3428 
Q 1925 3584 2291 3584 
Q 2894 3584 3203 3211 
Q 3513 2838 3513 2113 
z
" transform="scale(0.015625)"/>
       <path id="DejaVuSans-79" d="M 2059 -325 
Q 1816 -950 1584 -1140 
Q 1353 -1331 966 -1331 
L 506 -1331 
L 506 -850 
L 844 -850 
Q 1081 -850 1212 -737 
Q 1344 -625 1503 -206 
L 1606 56 
L 191 3500 
L 800 3500 
L 1894 763 
L 2988 3500 
L 3597 3500 
L 2059 -325 
z
" transform="scale(0.015625)"/>
       <path id="DejaVuSans-70" d="M 1159 525 
L 1159 -1331 
L 581 -1331 
L 581 3500 
L 1159 3500 
L 1159 2969 
Q 1341 3281 1617 3432 
Q 1894 3584 2278 3584 
Q 2916 3584 3314 3078 
Q 3713 2572 3713 1747 
Q 3713 922 3314 415 
Q 2916 -91 2278 -91 
Q 1894 -91 1617 61 
Q 1341 213 1159 525 
z
M 3116 1747 
Q 3116 2381 2855 2742 
Q 2594 3103 2138 3103 
Q 1681 3103 1420 2742 
Q 1159 2381 1159 1747 
Q 1159 1113 1420 752 
Q 1681 391 2138 391 
Q 2594 391 2855 752 
Q 3116 1113 3116 1747 
z
" transform="scale(0.015625)"/>
      </defs>
      <use xlink:href="#DejaVuSans-63"/>
      <use xlink:href="#DejaVuSans-6f" x="54.980469"/>
      <use xlink:href="#DejaVuSans-72" x="116.162109"/>
      <use xlink:href="#DejaVuSans-72" x="155.525391"/>
      <use xlink:href="#DejaVuSans-65" x="194.388672"/>
      <use xlink:href="#DejaVuSans-63" x="255.912109"/>
      <use xlink:href="#DejaVuSans-74" x="310.892578"/>
      <use xlink:href="#DejaVuSans-20" x="350.101562"/>
      <use xlink:href="#DejaVuSans-68" x="381.888672"/>
      <use xlink:href="#DejaVuSans-6f" x="445.267578"/>
      <use xlink:href="#DejaVuSans-6d" x="506.449219"/>
      <use xlink:href="#DejaVuSans-65" x="603.861328"/>
      <use xlink:href="#DejaVuSans-6f" x="665.384766"/>
      <use xlink:href="#DejaVuSans-74" x="726.566406"/>
      <use xlink:href="#DejaVuSans-79" x="765.775391"/>
      <use xlink:href="#DejaVuSans-70" x="824.955078"/>
      <use xlink:href="#DejaVuSans-69" x="888.431641"/>
      <use xlink:href="#DejaVuSans-63" x="916.214844"/>
     </g>
    </g>
    <g id="patch_10">
     <path d="M 280.598125 87.426688 
L 300.598125 87.426688 
L 300.598125 80.426688 
L 280.598125 80.426688 
z
" style="fill: #ff0000"/>
    </g>
    <g id="text_17">
     <!-- false -->
     <g transform="translate(308.598125 87.426688) scale(0.1 -0.1)">
      <defs>
       <path id="DejaVuSans-61" d="M 2194 1759 
Q 1497 1759 1228 1600 
Q 959 1441 959 1056 
Q 959 750 1161 570 
Q 1363 391 1709 391 
Q 2188 391 2477 730 
Q 2766 1069 2766 1631 
L 2766 1759 
L 2194 1759 
z
M 3341 1997 
L 3341 0 
L 2766 0 
L 2766 531 
Q 2569 213 2275 61 
Q 1981 -91 1556 -91 
Q 1019 -91 701 211 
Q 384 513 384 1019 
Q 384 1609 779 1909 
Q 1175 2209 1959 2209 
L 2766 2209 
L 2766 2266 
Q 2766 2663 2505 2880 
Q 2244 3097 1772 3097 
Q 1472 3097 1187 3025 
Q 903 2953 641 2809 
L 641 3341 
Q 956 3463 1253 3523 
Q 1550 3584 1831 3584 
Q 2591 3584 2966 3190 
Q 3341 2797 3341 1997 
z
" transform="scale(0.015625)"/>
      </defs>
      <use xlink:href="#DejaVuSans-66"/>
      <use xlink:href="#DejaVuSans-61" x="35.205078"/>
      <use xlink:href="#DejaVuSans-6c" x="96.484375"/>
      <use xlink:href="#DejaVuSans-73" x="124.267578"/>
      <use xlink:href="#DejaVuSans-65" x="176.367188"/>
     </g>
    </g>
   </g>
  </g>
 </g>
 <defs>
  <clipPath id="p1ad4b67ae3">
   <rect x="57.6" y="41.472" width="357.12" height="266.112"/>
  </clipPath>
 </defs>
</svg>
