<?xml version="1.0" encoding="utf-8" standalone="no"?>
<!DOCTYPE svg PUBLIC "-//W3C//DTD SVG 1.1//EN"
  "http://www.w3.org/Graphics/SVG/1.1/DTD/svg11.dtd">
<svg xmlns:xlink="http://www.w3.org/1999/xlink" width="460.8pt" height="345.6pt" viewBox="0 0 460.8 345.6" xmlns="http://www.w3.org/2000/svg" version="1.1">
 <metadata>
  <rdf:RDF xmlns:dc="http://purl.org/dc/elements/1.1/" xmlns:cc="http://creativecommons.org/ns#" xmlns:rdf="http://www.w3.org/1999/02/22-rdf-syntax-ns#">
   <cc:Work>
    <dc:type rdf:resource="http://purl.org/dc/dcmitype/StillImage"/>
    <dc:date>2024-06-20T14:54:32.120242</dc:date>
    <dc:format>image/svg+xml</dc:format>
    <dc:creator>
     <cc:Agent>
      <dc:title>Matplotlib v3.9.0, https://matplotlib.org/</dc:title>
     </cc:Agent>
    </dc:creator>
   </cc:Work>
  </rdf:RDF>
 </metadata>
 <defs>
  <style type="text/css">*{stroke-linejoin: round; stroke-linecap: butt}</style>
 </defs>
 <g id="figure_1">
  <g id="patch_1">
   <path d="M 0 345.6 
L 460.8 345.6 
L 460.8 0 
L 0 0 
z
" style="fill: #ffffff"/>
  </g>
  <g id="axes_1">
   <g id="patch_2">
    <path d="M 57.6 307.584 
L 414.72 307.584 
L 414.72 41.472 
L 57.6 41.472 
z
" style="fill: #ffffff"/>
   </g>
   <g id="PolyCollection_1">
    <path d="M 73.832727 127.08983 
L 73.832727 307.584 
L 73.835914 307.584 
L 73.83757 307.584 
L 73.844672 307.584 
L 73.844754 307.584 
L 73.916939 307.584 
L 73.931937 307.584 
L 73.976986 307.584 
L 73.977366 307.584 
L 73.985574 307.584 
L 73.990695 307.584 
L 74.015959 307.584 
L 74.078999 307.584 
L 74.128004 307.584 
L 74.181387 307.584 
L 74.214444 307.584 
L 74.274362 307.584 
L 74.311189 307.584 
L 74.346528 307.584 
L 74.425782 307.584 
L 74.444712 307.584 
L 74.461494 307.584 
L 74.516136 307.584 
L 74.562268 307.584 
L 74.765251 307.584 
L 74.821134 307.584 
L 74.946683 307.584 
L 75.071867 307.584 
L 75.09763 307.584 
L 75.922191 307.584 
L 76.085502 307.584 
L 76.63274 307.584 
L 76.636597 307.584 
L 76.678836 307.584 
L 77.925343 307.584 
L 78.14522 307.584 
L 78.157013 307.584 
L 78.291429 307.584 
L 78.39792 307.584 
L 78.720715 307.584 
L 78.845617 307.584 
L 79.145266 307.584 
L 79.342058 307.584 
L 79.377296 307.584 
L 79.451662 307.584 
L 80.074452 307.584 
L 80.106551 307.584 
L 80.462778 307.584 
L 81.217974 307.584 
L 81.278409 307.584 
L 82.203202 307.584 
L 83.232797 307.584 
L 83.245347 307.584 
L 83.568093 307.584 
L 83.902242 307.584 
L 83.927623 307.584 
L 84.819781 307.584 
L 85.37381 307.584 
L 85.495437 307.584 
L 85.641101 307.584 
L 85.95891 307.584 
L 87.52383 307.584 
L 87.574065 307.584 
L 87.65747 307.584 
L 88.096168 307.584 
L 88.495644 307.584 
L 88.584317 307.584 
L 88.658988 307.584 
L 88.831212 307.584 
L 90.58357 307.584 
L 91.233178 307.584 
L 91.80741 307.584 
L 91.919481 307.584 
L 92.440175 307.584 
L 92.756874 307.584 
L 93.189093 307.584 
L 93.555563 307.584 
L 94.38503 307.584 
L 96.232962 307.584 
L 96.848432 307.584 
L 96.929808 307.584 
L 98.980527 307.584 
L 99.78654 307.584 
L 100.050994 307.584 
L 101.412986 307.584 
L 102.291941 307.584 
L 103.308761 307.584 
L 104.131769 307.584 
L 104.899415 307.584 
L 107.485623 307.584 
L 107.771116 307.584 
L 108.124604 307.584 
L 110.874499 307.584 
L 112.688213 307.584 
L 114.067533 307.584 
L 114.398097 307.584 
L 114.936236 307.584 
L 116.109964 307.584 
L 116.199327 307.584 
L 116.809709 307.584 
L 116.926623 307.584 
L 120.145418 307.584 
L 121.296194 307.584 
L 121.762979 307.584 
L 122.762607 307.584 
L 127.848706 307.584 
L 129.69536 307.584 
L 130.29276 307.584 
L 130.423093 307.584 
L 130.962421 307.584 
L 131.502641 307.584 
L 132.892612 307.584 
L 135.683877 307.584 
L 136.906397 307.584 
L 137.093393 307.584 
L 139.263766 307.584 
L 139.783643 307.584 
L 141.132033 307.584 
L 146.876422 307.584 
L 148.378168 307.584 
L 150.796615 307.584 
L 151.403506 307.584 
L 151.668777 307.584 
L 152.672165 307.584 
L 156.057259 307.584 
L 157.410535 307.584 
L 161.232955 307.584 
L 163.921513 307.584 
L 164.685706 307.584 
L 166.307495 307.584 
L 167.184872 307.584 
L 167.93901 307.584 
L 170.101584 307.584 
L 173.273371 307.584 
L 173.71314 307.584 
L 173.804383 307.584 
L 175.731097 307.584 
L 175.961929 307.584 
L 176.457562 307.584 
L 178.673227 307.584 
L 179.018136 307.584 
L 184.664517 307.584 
L 186.361339 307.584 
L 186.38018 307.584 
L 188.233271 307.584 
L 190.620521 307.584 
L 192.100278 307.584 
L 193.923769 307.584 
L 194.764311 307.584 
L 198.572729 307.584 
L 202.714311 307.584 
L 204.426027 307.584 
L 206.321498 307.584 
L 207.201365 307.584 
L 207.700662 307.584 
L 208.071647 307.584 
L 209.050979 307.584 
L 209.729802 307.584 
L 210.885088 307.584 
L 211.332469 307.584 
L 212.777833 307.584 
L 213.682273 307.584 
L 214.921989 307.584 
L 214.972638 307.584 
L 215.023522 307.584 
L 215.974146 307.584 
L 216.573989 307.584 
L 217.993983 307.584 
L 218.084333 307.584 
L 220.727833 307.584 
L 220.93865 307.584 
L 221.855634 307.584 
L 229.316955 307.584 
L 230.485914 307.584 
L 230.740707 307.584 
L 230.815741 307.584 
L 231.835009 307.584 
L 233.496969 307.584 
L 236.044294 307.584 
L 237.065441 307.584 
L 237.128635 307.584 
L 238.458137 307.584 
L 239.961621 307.584 
L 240.641807 307.584 
L 241.662484 307.584 
L 242.577589 307.584 
L 245.570791 307.584 
L 245.701829 307.584 
L 245.980302 307.584 
L 246.986227 307.584 
L 247.343586 307.584 
L 248.806899 307.584 
L 249.01546 307.584 
L 256.301954 307.584 
L 257.713162 307.584 
L 259.37578 307.584 
L 260.51777 307.584 
L 261.055171 307.584 
L 263.472069 307.584 
L 264.041466 307.584 
L 264.522346 307.584 
L 264.889431 307.584 
L 267.416741 307.584 
L 272.264725 307.584 
L 273.708586 307.584 
L 273.825059 307.584 
L 273.920953 307.584 
L 276.639722 307.584 
L 276.809099 307.584 
L 278.454192 307.584 
L 278.806336 307.584 
L 279.431456 307.584 
L 281.909057 307.584 
L 282.011999 307.584 
L 282.260496 307.584 
L 282.396186 307.584 
L 282.989639 307.584 
L 283.263978 307.584 
L 285.267793 307.584 
L 287.196951 307.584 
L 287.295805 307.584 
L 288.588942 307.584 
L 291.179727 307.584 
L 291.674796 307.584 
L 291.771301 307.584 
L 296.093958 307.584 
L 297.321693 307.584 
L 298.410451 307.584 
L 298.799336 307.584 
L 299.560616 307.584 
L 299.826028 307.584 
L 301.829138 307.584 
L 301.947444 307.584 
L 303.286484 307.584 
L 304.203468 307.584 
L 304.516146 307.584 
L 305.217991 307.584 
L 306.266859 307.584 
L 306.380325 307.584 
L 307.15974 307.584 
L 310.079741 307.584 
L 311.667185 307.584 
L 311.737661 307.584 
L 314.532778 307.584 
L 315.139481 307.584 
L 318.742674 307.584 
L 319.554838 307.584 
L 322.505754 307.584 
L 323.873313 307.584 
L 324.624115 307.584 
L 325.437688 307.584 
L 325.67538 307.584 
L 326.015261 307.584 
L 326.844855 307.584 
L 326.974343 307.584 
L 329.930615 307.584 
L 329.985022 307.584 
L 332.582901 307.584 
L 335.96668 307.584 
L 338.901433 307.584 
L 355.708739 307.584 
L 360.250388 307.584 
L 362.820406 307.584 
L 367.774057 307.584 
L 376.600823 307.584 
L 379.58848 307.584 
L 384.760747 307.584 
L 387.901149 307.584 
L 392.664796 307.584 
L 397.8209 307.584 
L 398.487273 307.584 
L 398.487273 307.584 
L 398.487273 307.584 
L 397.8209 307.584 
L 392.664796 307.584 
L 387.901149 307.584 
L 384.760747 307.584 
L 379.58848 307.584 
L 376.600823 307.584 
L 367.774057 307.584 
L 362.820406 307.584 
L 360.250388 307.584 
L 355.708739 307.584 
L 338.901433 307.584 
L 335.96668 307.584 
L 332.582901 306.648797 
L 329.985022 306.648797 
L 329.930615 305.713594 
L 326.974343 304.778391 
L 326.844855 303.843188 
L 326.015261 302.907985 
L 325.67538 301.972782 
L 325.437688 301.037579 
L 324.624115 300.102376 
L 323.873313 300.102376 
L 322.505754 299.167173 
L 319.554838 299.167173 
L 318.742674 298.23197 
L 315.139481 297.296768 
L 314.532778 297.296768 
L 311.737661 296.361565 
L 311.667185 295.426362 
L 310.079741 295.426362 
L 307.15974 294.491159 
L 306.380325 293.555956 
L 306.266859 292.620753 
L 305.217991 291.68555 
L 304.516146 290.750347 
L 304.203468 289.815144 
L 303.286484 288.879941 
L 301.947444 287.944738 
L 301.829138 287.009535 
L 299.826028 286.074332 
L 299.560616 285.139129 
L 298.799336 284.203926 
L 298.410451 283.268723 
L 297.321693 282.33352 
L 296.093958 282.33352 
L 291.771301 282.33352 
L 291.674796 281.398317 
L 291.179727 281.398317 
L 288.588942 280.463114 
L 287.295805 279.527911 
L 287.196951 278.592708 
L 285.267793 277.657506 
L 283.263978 277.657506 
L 282.989639 276.722303 
L 282.396186 275.7871 
L 282.260496 274.851897 
L 282.011999 273.916694 
L 281.909057 273.916694 
L 279.431456 272.981491 
L 278.806336 272.046288 
L 278.454192 272.046288 
L 276.809099 271.111085 
L 276.639722 270.175882 
L 273.920953 269.240679 
L 273.825059 269.240679 
L 273.708586 269.240679 
L 272.264725 268.305476 
L 267.416741 268.305476 
L 264.889431 268.305476 
L 264.522346 268.305476 
L 264.041466 267.370273 
L 263.472069 266.43507 
L 261.055171 265.499867 
L 260.51777 265.499867 
L 259.37578 264.564664 
L 257.713162 263.629461 
L 256.301954 262.694258 
L 249.01546 261.759055 
L 248.806899 261.759055 
L 247.343586 261.759055 
L 246.986227 260.823852 
L 245.980302 260.823852 
L 245.701829 259.888649 
L 245.570791 258.953446 
L 242.577589 258.953446 
L 241.662484 258.018244 
L 240.641807 257.083041 
L 239.961621 257.083041 
L 238.458137 256.147838 
L 237.128635 255.212635 
L 237.065441 254.277432 
L 236.044294 253.342229 
L 233.496969 252.407026 
L 231.835009 251.471823 
L 230.815741 250.53662 
L 230.740707 249.601417 
L 230.485914 248.666214 
L 229.316955 247.731011 
L 221.855634 246.795808 
L 220.93865 245.860605 
L 220.727833 245.860605 
L 218.084333 244.925402 
L 217.993983 243.990199 
L 216.573989 243.054996 
L 215.974146 242.119793 
L 215.023522 241.18459 
L 214.972638 240.249387 
L 214.921989 239.314185 
L 213.682273 238.378982 
L 212.777833 237.443779 
L 211.332469 237.443779 
L 210.885088 237.443779 
L 209.729802 236.508576 
L 209.050979 235.573373 
L 208.071647 234.63817 
L 207.700662 233.702967 
L 207.201365 232.767764 
L 206.321498 232.767764 
L 204.426027 231.832561 
L 202.714311 230.897358 
L 198.572729 229.962155 
L 194.764311 229.962155 
L 193.923769 229.962155 
L 192.100278 229.026952 
L 190.620521 228.091749 
L 188.233271 227.156546 
L 186.38018 226.221343 
L 186.361339 225.28614 
L 184.664517 224.350937 
L 179.018136 223.415734 
L 178.673227 223.415734 
L 176.457562 223.415734 
L 175.961929 222.480531 
L 175.731097 221.545328 
L 173.804383 220.610125 
L 173.71314 220.610125 
L 173.273371 219.674923 
L 170.101584 219.674923 
L 167.93901 219.674923 
L 167.184872 218.73972 
L 166.307495 217.804517 
L 164.685706 216.869314 
L 163.921513 215.934111 
L 161.232955 214.998908 
L 157.410535 214.063705 
L 156.057259 213.128502 
L 152.672165 212.193299 
L 151.668777 211.258096 
L 151.403506 210.322893 
L 150.796615 209.38769 
L 148.378168 208.452487 
L 146.876422 207.517284 
L 141.132033 206.582081 
L 139.783643 205.646878 
L 139.263766 204.711675 
L 137.093393 203.776472 
L 136.906397 203.776472 
L 135.683877 203.776472 
L 132.892612 202.841269 
L 131.502641 201.906066 
L 130.962421 200.970863 
L 130.423093 200.035661 
L 130.29276 199.100458 
L 129.69536 198.165255 
L 127.848706 197.230052 
L 122.762607 196.294849 
L 121.762979 196.294849 
L 121.296194 195.359646 
L 120.145418 194.424443 
L 116.926623 193.48924 
L 116.809709 192.554037 
L 116.199327 191.618834 
L 116.109964 190.683631 
L 114.936236 189.748428 
L 114.398097 188.813225 
L 114.067533 187.878022 
L 112.688213 187.878022 
L 110.874499 186.942819 
L 108.124604 186.942819 
L 107.771116 186.007616 
L 107.485623 185.072413 
L 104.899415 185.072413 
L 104.131769 185.072413 
L 103.308761 185.072413 
L 102.291941 184.13721 
L 101.412986 184.13721 
L 100.050994 184.13721 
L 99.78654 184.13721 
L 98.980527 184.13721 
L 96.929808 183.202007 
L 96.848432 183.202007 
L 96.232962 182.266804 
L 94.38503 181.331601 
L 93.555563 180.396399 
L 93.189093 179.461196 
L 92.756874 179.461196 
L 92.440175 179.461196 
L 91.919481 178.525993 
L 91.80741 178.525993 
L 91.233178 178.525993 
L 90.58357 177.59079 
L 88.831212 176.655587 
L 88.658988 176.655587 
L 88.584317 175.720384 
L 88.495644 174.785181 
L 88.096168 173.849978 
L 87.65747 172.914775 
L 87.574065 171.979572 
L 87.52383 171.044369 
L 85.95891 171.044369 
L 85.641101 170.109166 
L 85.495437 169.173963 
L 85.37381 168.23876 
L 84.819781 168.23876 
L 83.927623 167.303557 
L 83.902242 166.368354 
L 83.568093 166.368354 
L 83.245347 165.433151 
L 83.232797 164.497948 
L 82.203202 163.562745 
L 81.278409 163.562745 
L 81.217974 162.627542 
L 80.462778 162.627542 
L 80.106551 162.627542 
L 80.074452 161.692339 
L 79.451662 160.757137 
L 79.377296 159.821934 
L 79.342058 159.821934 
L 79.145266 158.886731 
L 78.845617 157.951528 
L 78.720715 157.951528 
L 78.39792 157.016325 
L 78.291429 156.081122 
L 78.157013 155.145919 
L 78.14522 154.210716 
L 77.925343 153.275513 
L 76.678836 152.34031 
L 76.636597 151.405107 
L 76.63274 151.405107 
L 76.085502 150.469904 
L 75.922191 150.469904 
L 75.09763 149.534701 
L 75.071867 148.599498 
L 74.946683 147.664295 
L 74.821134 147.664295 
L 74.765251 146.729092 
L 74.562268 145.793889 
L 74.516136 145.793889 
L 74.461494 144.858686 
L 74.444712 143.923483 
L 74.425782 142.98828 
L 74.346528 142.053077 
L 74.311189 141.117875 
L 74.274362 140.182672 
L 74.214444 139.247469 
L 74.181387 139.247469 
L 74.128004 138.312266 
L 74.078999 137.377063 
L 74.015959 136.44186 
L 73.990695 135.506657 
L 73.985574 134.571454 
L 73.977366 133.636251 
L 73.976986 132.701048 
L 73.931937 131.765845 
L 73.916939 130.830642 
L 73.844754 129.895439 
L 73.844672 129.895439 
L 73.83757 128.960236 
L 73.835914 128.025033 
L 73.832727 127.08983 
z
" clip-path="url(#p9a2b89d005)" style="fill: #008000"/>
   </g>
   <g id="PolyCollection_2">
    <path d="M 73.832727 75.653668 
L 73.832727 127.08983 
L 73.835914 128.025033 
L 73.83757 128.960236 
L 73.844672 129.895439 
L 73.844754 129.895439 
L 73.916939 130.830642 
L 73.931937 131.765845 
L 73.976986 132.701048 
L 73.977366 133.636251 
L 73.985574 134.571454 
L 73.990695 135.506657 
L 74.015959 136.44186 
L 74.078999 137.377063 
L 74.128004 138.312266 
L 74.181387 139.247469 
L 74.214444 139.247469 
L 74.274362 140.182672 
L 74.311189 141.117875 
L 74.346528 142.053077 
L 74.425782 142.98828 
L 74.444712 143.923483 
L 74.461494 144.858686 
L 74.516136 145.793889 
L 74.562268 145.793889 
L 74.765251 146.729092 
L 74.821134 147.664295 
L 74.946683 147.664295 
L 75.071867 148.599498 
L 75.09763 149.534701 
L 75.922191 150.469904 
L 76.085502 150.469904 
L 76.63274 151.405107 
L 76.636597 151.405107 
L 76.678836 152.34031 
L 77.925343 153.275513 
L 78.14522 154.210716 
L 78.157013 155.145919 
L 78.291429 156.081122 
L 78.39792 157.016325 
L 78.720715 157.951528 
L 78.845617 157.951528 
L 79.145266 158.886731 
L 79.342058 159.821934 
L 79.377296 159.821934 
L 79.451662 160.757137 
L 80.074452 161.692339 
L 80.106551 162.627542 
L 80.462778 162.627542 
L 81.217974 162.627542 
L 81.278409 163.562745 
L 82.203202 163.562745 
L 83.232797 164.497948 
L 83.245347 165.433151 
L 83.568093 166.368354 
L 83.902242 166.368354 
L 83.927623 167.303557 
L 84.819781 168.23876 
L 85.37381 168.23876 
L 85.495437 169.173963 
L 85.641101 170.109166 
L 85.95891 171.044369 
L 87.52383 171.044369 
L 87.574065 171.979572 
L 87.65747 172.914775 
L 88.096168 173.849978 
L 88.495644 174.785181 
L 88.584317 175.720384 
L 88.658988 176.655587 
L 88.831212 176.655587 
L 90.58357 177.59079 
L 91.233178 178.525993 
L 91.80741 178.525993 
L 91.919481 178.525993 
L 92.440175 179.461196 
L 92.756874 179.461196 
L 93.189093 179.461196 
L 93.555563 180.396399 
L 94.38503 181.331601 
L 96.232962 182.266804 
L 96.848432 183.202007 
L 96.929808 183.202007 
L 98.980527 184.13721 
L 99.78654 184.13721 
L 100.050994 184.13721 
L 101.412986 184.13721 
L 102.291941 184.13721 
L 103.308761 185.072413 
L 104.131769 185.072413 
L 104.899415 185.072413 
L 107.485623 185.072413 
L 107.771116 186.007616 
L 108.124604 186.942819 
L 110.874499 186.942819 
L 112.688213 187.878022 
L 114.067533 187.878022 
L 114.398097 188.813225 
L 114.936236 189.748428 
L 116.109964 190.683631 
L 116.199327 191.618834 
L 116.809709 192.554037 
L 116.926623 193.48924 
L 120.145418 194.424443 
L 121.296194 195.359646 
L 121.762979 196.294849 
L 122.762607 196.294849 
L 127.848706 197.230052 
L 129.69536 198.165255 
L 130.29276 199.100458 
L 130.423093 200.035661 
L 130.962421 200.970863 
L 131.502641 201.906066 
L 132.892612 202.841269 
L 135.683877 203.776472 
L 136.906397 203.776472 
L 137.093393 203.776472 
L 139.263766 204.711675 
L 139.783643 205.646878 
L 141.132033 206.582081 
L 146.876422 207.517284 
L 148.378168 208.452487 
L 150.796615 209.38769 
L 151.403506 210.322893 
L 151.668777 211.258096 
L 152.672165 212.193299 
L 156.057259 213.128502 
L 157.410535 214.063705 
L 161.232955 214.998908 
L 163.921513 215.934111 
L 164.685706 216.869314 
L 166.307495 217.804517 
L 167.184872 218.73972 
L 167.93901 219.674923 
L 170.101584 219.674923 
L 173.273371 219.674923 
L 173.71314 220.610125 
L 173.804383 220.610125 
L 175.731097 221.545328 
L 175.961929 222.480531 
L 176.457562 223.415734 
L 178.673227 223.415734 
L 179.018136 223.415734 
L 184.664517 224.350937 
L 186.361339 225.28614 
L 186.38018 226.221343 
L 188.233271 227.156546 
L 190.620521 228.091749 
L 192.100278 229.026952 
L 193.923769 229.962155 
L 194.764311 229.962155 
L 198.572729 229.962155 
L 202.714311 230.897358 
L 204.426027 231.832561 
L 206.321498 232.767764 
L 207.201365 232.767764 
L 207.700662 233.702967 
L 208.071647 234.63817 
L 209.050979 235.573373 
L 209.729802 236.508576 
L 210.885088 237.443779 
L 211.332469 237.443779 
L 212.777833 237.443779 
L 213.682273 238.378982 
L 214.921989 239.314185 
L 214.972638 240.249387 
L 215.023522 241.18459 
L 215.974146 242.119793 
L 216.573989 243.054996 
L 217.993983 243.990199 
L 218.084333 244.925402 
L 220.727833 245.860605 
L 220.93865 245.860605 
L 221.855634 246.795808 
L 229.316955 247.731011 
L 230.485914 248.666214 
L 230.740707 249.601417 
L 230.815741 250.53662 
L 231.835009 251.471823 
L 233.496969 252.407026 
L 236.044294 253.342229 
L 237.065441 254.277432 
L 237.128635 255.212635 
L 238.458137 256.147838 
L 239.961621 257.083041 
L 240.641807 257.083041 
L 241.662484 258.018244 
L 242.577589 258.953446 
L 245.570791 258.953446 
L 245.701829 259.888649 
L 245.980302 260.823852 
L 246.986227 260.823852 
L 247.343586 261.759055 
L 248.806899 261.759055 
L 249.01546 261.759055 
L 256.301954 262.694258 
L 257.713162 263.629461 
L 259.37578 264.564664 
L 260.51777 265.499867 
L 261.055171 265.499867 
L 263.472069 266.43507 
L 264.041466 267.370273 
L 264.522346 268.305476 
L 264.889431 268.305476 
L 267.416741 268.305476 
L 272.264725 268.305476 
L 273.708586 269.240679 
L 273.825059 269.240679 
L 273.920953 269.240679 
L 276.639722 270.175882 
L 276.809099 271.111085 
L 278.454192 272.046288 
L 278.806336 272.046288 
L 279.431456 272.981491 
L 281.909057 273.916694 
L 282.011999 273.916694 
L 282.260496 274.851897 
L 282.396186 275.7871 
L 282.989639 276.722303 
L 283.263978 277.657506 
L 285.267793 277.657506 
L 287.196951 278.592708 
L 287.295805 279.527911 
L 288.588942 280.463114 
L 291.179727 281.398317 
L 291.674796 281.398317 
L 291.771301 282.33352 
L 296.093958 282.33352 
L 297.321693 282.33352 
L 298.410451 283.268723 
L 298.799336 284.203926 
L 299.560616 285.139129 
L 299.826028 286.074332 
L 301.829138 287.009535 
L 301.947444 287.944738 
L 303.286484 288.879941 
L 304.203468 289.815144 
L 304.516146 290.750347 
L 305.217991 291.68555 
L 306.266859 292.620753 
L 306.380325 293.555956 
L 307.15974 294.491159 
L 310.079741 295.426362 
L 311.667185 295.426362 
L 311.737661 296.361565 
L 314.532778 297.296768 
L 315.139481 297.296768 
L 318.742674 298.23197 
L 319.554838 299.167173 
L 322.505754 299.167173 
L 323.873313 300.102376 
L 324.624115 300.102376 
L 325.437688 301.037579 
L 325.67538 301.972782 
L 326.015261 302.907985 
L 326.844855 303.843188 
L 326.974343 304.778391 
L 329.930615 305.713594 
L 329.985022 306.648797 
L 332.582901 306.648797 
L 335.96668 307.584 
L 338.901433 307.584 
L 355.708739 307.584 
L 360.250388 307.584 
L 362.820406 307.584 
L 367.774057 307.584 
L 376.600823 307.584 
L 379.58848 307.584 
L 384.760747 307.584 
L 387.901149 307.584 
L 392.664796 307.584 
L 397.8209 307.584 
L 398.487273 307.584 
L 398.487273 307.584 
L 398.487273 307.584 
L 397.8209 307.584 
L 392.664796 307.584 
L 387.901149 306.648797 
L 384.760747 306.648797 
L 379.58848 306.648797 
L 376.600823 306.648797 
L 367.774057 305.713594 
L 362.820406 305.713594 
L 360.250388 304.778391 
L 355.708739 304.778391 
L 338.901433 304.778391 
L 335.96668 304.778391 
L 332.582901 303.843188 
L 329.985022 302.907985 
L 329.930615 301.972782 
L 326.974343 301.037579 
L 326.844855 300.102376 
L 326.015261 299.167173 
L 325.67538 298.23197 
L 325.437688 297.296768 
L 324.624115 296.361565 
L 323.873313 295.426362 
L 322.505754 294.491159 
L 319.554838 294.491159 
L 318.742674 293.555956 
L 315.139481 292.620753 
L 314.532778 291.68555 
L 311.737661 290.750347 
L 311.667185 289.815144 
L 310.079741 289.815144 
L 307.15974 288.879941 
L 306.380325 287.944738 
L 306.266859 287.009535 
L 305.217991 286.074332 
L 304.516146 285.139129 
L 304.203468 284.203926 
L 303.286484 283.268723 
L 301.947444 282.33352 
L 301.829138 281.398317 
L 299.826028 280.463114 
L 299.560616 279.527911 
L 298.799336 278.592708 
L 298.410451 277.657506 
L 297.321693 276.722303 
L 296.093958 275.7871 
L 291.771301 275.7871 
L 291.674796 274.851897 
L 291.179727 274.851897 
L 288.588942 273.916694 
L 287.295805 272.981491 
L 287.196951 272.046288 
L 285.267793 271.111085 
L 283.263978 271.111085 
L 282.989639 270.175882 
L 282.396186 269.240679 
L 282.260496 268.305476 
L 282.011999 267.370273 
L 281.909057 266.43507 
L 279.431456 265.499867 
L 278.806336 264.564664 
L 278.454192 263.629461 
L 276.809099 262.694258 
L 276.639722 261.759055 
L 273.920953 260.823852 
L 273.825059 259.888649 
L 273.708586 259.888649 
L 272.264725 258.953446 
L 267.416741 258.018244 
L 264.889431 258.018244 
L 264.522346 258.018244 
L 264.041466 257.083041 
L 263.472069 256.147838 
L 261.055171 255.212635 
L 260.51777 254.277432 
L 259.37578 253.342229 
L 257.713162 252.407026 
L 256.301954 251.471823 
L 249.01546 250.53662 
L 248.806899 249.601417 
L 247.343586 249.601417 
L 246.986227 248.666214 
L 245.980302 247.731011 
L 245.701829 246.795808 
L 245.570791 245.860605 
L 242.577589 244.925402 
L 241.662484 243.990199 
L 240.641807 243.054996 
L 239.961621 242.119793 
L 238.458137 241.18459 
L 237.128635 240.249387 
L 237.065441 239.314185 
L 236.044294 238.378982 
L 233.496969 237.443779 
L 231.835009 236.508576 
L 230.815741 235.573373 
L 230.740707 234.63817 
L 230.485914 233.702967 
L 229.316955 232.767764 
L 221.855634 231.832561 
L 220.93865 230.897358 
L 220.727833 229.962155 
L 218.084333 229.026952 
L 217.993983 228.091749 
L 216.573989 227.156546 
L 215.974146 226.221343 
L 215.023522 225.28614 
L 214.972638 224.350937 
L 214.921989 223.415734 
L 213.682273 222.480531 
L 212.777833 221.545328 
L 211.332469 220.610125 
L 210.885088 220.610125 
L 209.729802 219.674923 
L 209.050979 218.73972 
L 208.071647 217.804517 
L 207.700662 216.869314 
L 207.201365 215.934111 
L 206.321498 214.998908 
L 204.426027 214.063705 
L 202.714311 213.128502 
L 198.572729 212.193299 
L 194.764311 211.258096 
L 193.923769 210.322893 
L 192.100278 209.38769 
L 190.620521 208.452487 
L 188.233271 207.517284 
L 186.38018 206.582081 
L 186.361339 205.646878 
L 184.664517 204.711675 
L 179.018136 203.776472 
L 178.673227 202.841269 
L 176.457562 201.906066 
L 175.961929 200.970863 
L 175.731097 200.035661 
L 173.804383 199.100458 
L 173.71314 198.165255 
L 173.273371 197.230052 
L 170.101584 197.230052 
L 167.93901 196.294849 
L 167.184872 195.359646 
L 166.307495 194.424443 
L 164.685706 193.48924 
L 163.921513 192.554037 
L 161.232955 191.618834 
L 157.410535 190.683631 
L 156.057259 189.748428 
L 152.672165 188.813225 
L 151.668777 187.878022 
L 151.403506 186.942819 
L 150.796615 186.007616 
L 148.378168 185.072413 
L 146.876422 184.13721 
L 141.132033 183.202007 
L 139.783643 182.266804 
L 139.263766 181.331601 
L 137.093393 180.396399 
L 136.906397 180.396399 
L 135.683877 179.461196 
L 132.892612 178.525993 
L 131.502641 177.59079 
L 130.962421 176.655587 
L 130.423093 175.720384 
L 130.29276 174.785181 
L 129.69536 173.849978 
L 127.848706 172.914775 
L 122.762607 171.979572 
L 121.762979 171.044369 
L 121.296194 170.109166 
L 120.145418 169.173963 
L 116.926623 168.23876 
L 116.809709 167.303557 
L 116.199327 166.368354 
L 116.109964 165.433151 
L 114.936236 164.497948 
L 114.398097 163.562745 
L 114.067533 162.627542 
L 112.688213 161.692339 
L 110.874499 160.757137 
L 108.124604 159.821934 
L 107.771116 158.886731 
L 107.485623 157.951528 
L 104.899415 157.016325 
L 104.131769 156.081122 
L 103.308761 155.145919 
L 102.291941 154.210716 
L 101.412986 153.275513 
L 100.050994 152.34031 
L 99.78654 151.405107 
L 98.980527 150.469904 
L 96.929808 149.534701 
L 96.848432 148.599498 
L 96.232962 147.664295 
L 94.38503 146.729092 
L 93.555563 145.793889 
L 93.189093 144.858686 
L 92.756874 143.923483 
L 92.440175 142.98828 
L 91.919481 142.053077 
L 91.80741 142.053077 
L 91.233178 141.117875 
L 90.58357 140.182672 
L 88.831212 139.247469 
L 88.658988 138.312266 
L 88.584317 137.377063 
L 88.495644 136.44186 
L 88.096168 135.506657 
L 87.65747 134.571454 
L 87.574065 133.636251 
L 87.52383 132.701048 
L 85.95891 131.765845 
L 85.641101 130.830642 
L 85.495437 129.895439 
L 85.37381 128.960236 
L 84.819781 128.025033 
L 83.927623 127.08983 
L 83.902242 126.154627 
L 83.568093 125.219424 
L 83.245347 124.284221 
L 83.232797 123.349018 
L 82.203202 122.413815 
L 81.278409 121.478613 
L 81.217974 120.54341 
L 80.462778 119.608207 
L 80.106551 118.673004 
L 80.074452 117.737801 
L 79.451662 116.802598 
L 79.377296 115.867395 
L 79.342058 114.932192 
L 79.145266 113.996989 
L 78.845617 113.061786 
L 78.720715 112.126583 
L 78.39792 111.19138 
L 78.291429 110.256177 
L 78.157013 109.320974 
L 78.14522 108.385771 
L 77.925343 107.450568 
L 76.678836 106.515365 
L 76.636597 105.580162 
L 76.63274 104.644959 
L 76.085502 103.709756 
L 75.922191 102.774554 
L 75.09763 101.839351 
L 75.071867 100.904148 
L 74.946683 99.968945 
L 74.821134 99.033742 
L 74.765251 98.098539 
L 74.562268 97.163336 
L 74.516136 96.228133 
L 74.461494 95.29293 
L 74.444712 94.357727 
L 74.425782 93.422524 
L 74.346528 92.487321 
L 74.311189 91.552118 
L 74.274362 90.616915 
L 74.214444 89.681712 
L 74.181387 88.746509 
L 74.128004 87.811306 
L 74.078999 86.876103 
L 74.015959 85.9409 
L 73.990695 85.005697 
L 73.985574 84.070494 
L 73.977366 83.135292 
L 73.976986 82.200089 
L 73.931937 81.264886 
L 73.916939 80.329683 
L 73.844754 79.39448 
L 73.844672 78.459277 
L 73.83757 77.524074 
L 73.835914 76.588871 
L 73.832727 75.653668 
z
" clip-path="url(#p9a2b89d005)" style="fill: #7cfc00"/>
   </g>
   <g id="PolyCollection_3">
    <path d="M 73.832727 54.144 
L 73.832727 75.653668 
L 73.835914 76.588871 
L 73.83757 77.524074 
L 73.844672 78.459277 
L 73.844754 79.39448 
L 73.916939 80.329683 
L 73.931937 81.264886 
L 73.976986 82.200089 
L 73.977366 83.135292 
L 73.985574 84.070494 
L 73.990695 85.005697 
L 74.015959 85.9409 
L 74.078999 86.876103 
L 74.128004 87.811306 
L 74.181387 88.746509 
L 74.214444 89.681712 
L 74.274362 90.616915 
L 74.311189 91.552118 
L 74.346528 92.487321 
L 74.425782 93.422524 
L 74.444712 94.357727 
L 74.461494 95.29293 
L 74.516136 96.228133 
L 74.562268 97.163336 
L 74.765251 98.098539 
L 74.821134 99.033742 
L 74.946683 99.968945 
L 75.071867 100.904148 
L 75.09763 101.839351 
L 75.922191 102.774554 
L 76.085502 103.709756 
L 76.63274 104.644959 
L 76.636597 105.580162 
L 76.678836 106.515365 
L 77.925343 107.450568 
L 78.14522 108.385771 
L 78.157013 109.320974 
L 78.291429 110.256177 
L 78.39792 111.19138 
L 78.720715 112.126583 
L 78.845617 113.061786 
L 79.145266 113.996989 
L 79.342058 114.932192 
L 79.377296 115.867395 
L 79.451662 116.802598 
L 80.074452 117.737801 
L 80.106551 118.673004 
L 80.462778 119.608207 
L 81.217974 120.54341 
L 81.278409 121.478613 
L 82.203202 122.413815 
L 83.232797 123.349018 
L 83.245347 124.284221 
L 83.568093 125.219424 
L 83.902242 126.154627 
L 83.927623 127.08983 
L 84.819781 128.025033 
L 85.37381 128.960236 
L 85.495437 129.895439 
L 85.641101 130.830642 
L 85.95891 131.765845 
L 87.52383 132.701048 
L 87.574065 133.636251 
L 87.65747 134.571454 
L 88.096168 135.506657 
L 88.495644 136.44186 
L 88.584317 137.377063 
L 88.658988 138.312266 
L 88.831212 139.247469 
L 90.58357 140.182672 
L 91.233178 141.117875 
L 91.80741 142.053077 
L 91.919481 142.053077 
L 92.440175 142.98828 
L 92.756874 143.923483 
L 93.189093 144.858686 
L 93.555563 145.793889 
L 94.38503 146.729092 
L 96.232962 147.664295 
L 96.848432 148.599498 
L 96.929808 149.534701 
L 98.980527 150.469904 
L 99.78654 151.405107 
L 100.050994 152.34031 
L 101.412986 153.275513 
L 102.291941 154.210716 
L 103.308761 155.145919 
L 104.131769 156.081122 
L 104.899415 157.016325 
L 107.485623 157.951528 
L 107.771116 158.886731 
L 108.124604 159.821934 
L 110.874499 160.757137 
L 112.688213 161.692339 
L 114.067533 162.627542 
L 114.398097 163.562745 
L 114.936236 164.497948 
L 116.109964 165.433151 
L 116.199327 166.368354 
L 116.809709 167.303557 
L 116.926623 168.23876 
L 120.145418 169.173963 
L 121.296194 170.109166 
L 121.762979 171.044369 
L 122.762607 171.979572 
L 127.848706 172.914775 
L 129.69536 173.849978 
L 130.29276 174.785181 
L 130.423093 175.720384 
L 130.962421 176.655587 
L 131.502641 177.59079 
L 132.892612 178.525993 
L 135.683877 179.461196 
L 136.906397 180.396399 
L 137.093393 180.396399 
L 139.263766 181.331601 
L 139.783643 182.266804 
L 141.132033 183.202007 
L 146.876422 184.13721 
L 148.378168 185.072413 
L 150.796615 186.007616 
L 151.403506 186.942819 
L 151.668777 187.878022 
L 152.672165 188.813225 
L 156.057259 189.748428 
L 157.410535 190.683631 
L 161.232955 191.618834 
L 163.921513 192.554037 
L 164.685706 193.48924 
L 166.307495 194.424443 
L 167.184872 195.359646 
L 167.93901 196.294849 
L 170.101584 197.230052 
L 173.273371 197.230052 
L 173.71314 198.165255 
L 173.804383 199.100458 
L 175.731097 200.035661 
L 175.961929 200.970863 
L 176.457562 201.906066 
L 178.673227 202.841269 
L 179.018136 203.776472 
L 184.664517 204.711675 
L 186.361339 205.646878 
L 186.38018 206.582081 
L 188.233271 207.517284 
L 190.620521 208.452487 
L 192.100278 209.38769 
L 193.923769 210.322893 
L 194.764311 211.258096 
L 198.572729 212.193299 
L 202.714311 213.128502 
L 204.426027 214.063705 
L 206.321498 214.998908 
L 207.201365 215.934111 
L 207.700662 216.869314 
L 208.071647 217.804517 
L 209.050979 218.73972 
L 209.729802 219.674923 
L 210.885088 220.610125 
L 211.332469 220.610125 
L 212.777833 221.545328 
L 213.682273 222.480531 
L 214.921989 223.415734 
L 214.972638 224.350937 
L 215.023522 225.28614 
L 215.974146 226.221343 
L 216.573989 227.156546 
L 217.993983 228.091749 
L 218.084333 229.026952 
L 220.727833 229.962155 
L 220.93865 230.897358 
L 221.855634 231.832561 
L 229.316955 232.767764 
L 230.485914 233.702967 
L 230.740707 234.63817 
L 230.815741 235.573373 
L 231.835009 236.508576 
L 233.496969 237.443779 
L 236.044294 238.378982 
L 237.065441 239.314185 
L 237.128635 240.249387 
L 238.458137 241.18459 
L 239.961621 242.119793 
L 240.641807 243.054996 
L 241.662484 243.990199 
L 242.577589 244.925402 
L 245.570791 245.860605 
L 245.701829 246.795808 
L 245.980302 247.731011 
L 246.986227 248.666214 
L 247.343586 249.601417 
L 248.806899 249.601417 
L 249.01546 250.53662 
L 256.301954 251.471823 
L 257.713162 252.407026 
L 259.37578 253.342229 
L 260.51777 254.277432 
L 261.055171 255.212635 
L 263.472069 256.147838 
L 264.041466 257.083041 
L 264.522346 258.018244 
L 264.889431 258.018244 
L 267.416741 258.018244 
L 272.264725 258.953446 
L 273.708586 259.888649 
L 273.825059 259.888649 
L 273.920953 260.823852 
L 276.639722 261.759055 
L 276.809099 262.694258 
L 278.454192 263.629461 
L 278.806336 264.564664 
L 279.431456 265.499867 
L 281.909057 266.43507 
L 282.011999 267.370273 
L 282.260496 268.305476 
L 282.396186 269.240679 
L 282.989639 270.175882 
L 283.263978 271.111085 
L 285.267793 271.111085 
L 287.196951 272.046288 
L 287.295805 272.981491 
L 288.588942 273.916694 
L 291.179727 274.851897 
L 291.674796 274.851897 
L 291.771301 275.7871 
L 296.093958 275.7871 
L 297.321693 276.722303 
L 298.410451 277.657506 
L 298.799336 278.592708 
L 299.560616 279.527911 
L 299.826028 280.463114 
L 301.829138 281.398317 
L 301.947444 282.33352 
L 303.286484 283.268723 
L 304.203468 284.203926 
L 304.516146 285.139129 
L 305.217991 286.074332 
L 306.266859 287.009535 
L 306.380325 287.944738 
L 307.15974 288.879941 
L 310.079741 289.815144 
L 311.667185 289.815144 
L 311.737661 290.750347 
L 314.532778 291.68555 
L 315.139481 292.620753 
L 318.742674 293.555956 
L 319.554838 294.491159 
L 322.505754 294.491159 
L 323.873313 295.426362 
L 324.624115 296.361565 
L 325.437688 297.296768 
L 325.67538 298.23197 
L 326.015261 299.167173 
L 326.844855 300.102376 
L 326.974343 301.037579 
L 329.930615 301.972782 
L 329.985022 302.907985 
L 332.582901 303.843188 
L 335.96668 304.778391 
L 338.901433 304.778391 
L 355.708739 304.778391 
L 360.250388 304.778391 
L 362.820406 305.713594 
L 367.774057 305.713594 
L 376.600823 306.648797 
L 379.58848 306.648797 
L 384.760747 306.648797 
L 387.901149 306.648797 
L 392.664796 307.584 
L 397.8209 307.584 
L 398.487273 307.584 
L 398.487273 306.648797 
L 398.487273 306.648797 
L 397.8209 305.713594 
L 392.664796 304.778391 
L 387.901149 303.843188 
L 384.760747 302.907985 
L 379.58848 301.972782 
L 376.600823 301.037579 
L 367.774057 300.102376 
L 362.820406 299.167173 
L 360.250388 298.23197 
L 355.708739 297.296768 
L 338.901433 296.361565 
L 335.96668 295.426362 
L 332.582901 294.491159 
L 329.985022 293.555956 
L 329.930615 292.620753 
L 326.974343 291.68555 
L 326.844855 290.750347 
L 326.015261 289.815144 
L 325.67538 288.879941 
L 325.437688 287.944738 
L 324.624115 287.009535 
L 323.873313 286.074332 
L 322.505754 285.139129 
L 319.554838 284.203926 
L 318.742674 283.268723 
L 315.139481 282.33352 
L 314.532778 281.398317 
L 311.737661 280.463114 
L 311.667185 279.527911 
L 310.079741 278.592708 
L 307.15974 277.657506 
L 306.380325 276.722303 
L 306.266859 275.7871 
L 305.217991 274.851897 
L 304.516146 273.916694 
L 304.203468 272.981491 
L 303.286484 272.046288 
L 301.947444 271.111085 
L 301.829138 270.175882 
L 299.826028 269.240679 
L 299.560616 268.305476 
L 298.799336 267.370273 
L 298.410451 266.43507 
L 297.321693 265.499867 
L 296.093958 264.564664 
L 291.771301 263.629461 
L 291.674796 262.694258 
L 291.179727 261.759055 
L 288.588942 260.823852 
L 287.295805 259.888649 
L 287.196951 258.953446 
L 285.267793 258.018244 
L 283.263978 257.083041 
L 282.989639 256.147838 
L 282.396186 255.212635 
L 282.260496 254.277432 
L 282.011999 253.342229 
L 281.909057 252.407026 
L 279.431456 251.471823 
L 278.806336 250.53662 
L 278.454192 249.601417 
L 276.809099 248.666214 
L 276.639722 247.731011 
L 273.920953 246.795808 
L 273.825059 245.860605 
L 273.708586 244.925402 
L 272.264725 243.990199 
L 267.416741 243.054996 
L 264.889431 242.119793 
L 264.522346 241.18459 
L 264.041466 240.249387 
L 263.472069 239.314185 
L 261.055171 238.378982 
L 260.51777 237.443779 
L 259.37578 236.508576 
L 257.713162 235.573373 
L 256.301954 234.63817 
L 249.01546 233.702967 
L 248.806899 232.767764 
L 247.343586 231.832561 
L 246.986227 230.897358 
L 245.980302 229.962155 
L 245.701829 229.026952 
L 245.570791 228.091749 
L 242.577589 227.156546 
L 241.662484 226.221343 
L 240.641807 225.28614 
L 239.961621 224.350937 
L 238.458137 223.415734 
L 237.128635 222.480531 
L 237.065441 221.545328 
L 236.044294 220.610125 
L 233.496969 219.674923 
L 231.835009 218.73972 
L 230.815741 217.804517 
L 230.740707 216.869314 
L 230.485914 215.934111 
L 229.316955 214.998908 
L 221.855634 214.063705 
L 220.93865 213.128502 
L 220.727833 212.193299 
L 218.084333 211.258096 
L 217.993983 210.322893 
L 216.573989 209.38769 
L 215.974146 208.452487 
L 215.023522 207.517284 
L 214.972638 206.582081 
L 214.921989 205.646878 
L 213.682273 204.711675 
L 212.777833 203.776472 
L 211.332469 202.841269 
L 210.885088 201.906066 
L 209.729802 200.970863 
L 209.050979 200.035661 
L 208.071647 199.100458 
L 207.700662 198.165255 
L 207.201365 197.230052 
L 206.321498 196.294849 
L 204.426027 195.359646 
L 202.714311 194.424443 
L 198.572729 193.48924 
L 194.764311 192.554037 
L 193.923769 191.618834 
L 192.100278 190.683631 
L 190.620521 189.748428 
L 188.233271 188.813225 
L 186.38018 187.878022 
L 186.361339 186.942819 
L 184.664517 186.007616 
L 179.018136 185.072413 
L 178.673227 184.13721 
L 176.457562 183.202007 
L 175.961929 182.266804 
L 175.731097 181.331601 
L 173.804383 180.396399 
L 173.71314 179.461196 
L 173.273371 178.525993 
L 170.101584 177.59079 
L 167.93901 176.655587 
L 167.184872 175.720384 
L 166.307495 174.785181 
L 164.685706 173.849978 
L 163.921513 172.914775 
L 161.232955 171.979572 
L 157.410535 171.044369 
L 156.057259 170.109166 
L 152.672165 169.173963 
L 151.668777 168.23876 
L 151.403506 167.303557 
L 150.796615 166.368354 
L 148.378168 165.433151 
L 146.876422 164.497948 
L 141.132033 163.562745 
L 139.783643 162.627542 
L 139.263766 161.692339 
L 137.093393 160.757137 
L 136.906397 159.821934 
L 135.683877 158.886731 
L 132.892612 157.951528 
L 131.502641 157.016325 
L 130.962421 156.081122 
L 130.423093 155.145919 
L 130.29276 154.210716 
L 129.69536 153.275513 
L 127.848706 152.34031 
L 122.762607 151.405107 
L 121.762979 150.469904 
L 121.296194 149.534701 
L 120.145418 148.599498 
L 116.926623 147.664295 
L 116.809709 146.729092 
L 116.199327 145.793889 
L 116.109964 144.858686 
L 114.936236 143.923483 
L 114.398097 142.98828 
L 114.067533 142.053077 
L 112.688213 141.117875 
L 110.874499 140.182672 
L 108.124604 139.247469 
L 107.771116 138.312266 
L 107.485623 137.377063 
L 104.899415 136.44186 
L 104.131769 135.506657 
L 103.308761 134.571454 
L 102.291941 133.636251 
L 101.412986 132.701048 
L 100.050994 131.765845 
L 99.78654 130.830642 
L 98.980527 129.895439 
L 96.929808 128.960236 
L 96.848432 128.025033 
L 96.232962 127.08983 
L 94.38503 126.154627 
L 93.555563 125.219424 
L 93.189093 124.284221 
L 92.756874 123.349018 
L 92.440175 122.413815 
L 91.919481 121.478613 
L 91.80741 120.54341 
L 91.233178 119.608207 
L 90.58357 118.673004 
L 88.831212 117.737801 
L 88.658988 116.802598 
L 88.584317 115.867395 
L 88.495644 114.932192 
L 88.096168 113.996989 
L 87.65747 113.061786 
L 87.574065 112.126583 
L 87.52383 111.19138 
L 85.95891 110.256177 
L 85.641101 109.320974 
L 85.495437 108.385771 
L 85.37381 107.450568 
L 84.819781 106.515365 
L 83.927623 105.580162 
L 83.902242 104.644959 
L 83.568093 103.709756 
L 83.245347 102.774554 
L 83.232797 101.839351 
L 82.203202 100.904148 
L 81.278409 99.968945 
L 81.217974 99.033742 
L 80.462778 98.098539 
L 80.106551 97.163336 
L 80.074452 96.228133 
L 79.451662 95.29293 
L 79.377296 94.357727 
L 79.342058 93.422524 
L 79.145266 92.487321 
L 78.845617 91.552118 
L 78.720715 90.616915 
L 78.39792 89.681712 
L 78.291429 88.746509 
L 78.157013 87.811306 
L 78.14522 86.876103 
L 77.925343 85.9409 
L 76.678836 85.005697 
L 76.636597 84.070494 
L 76.63274 83.135292 
L 76.085502 82.200089 
L 75.922191 81.264886 
L 75.09763 80.329683 
L 75.071867 79.39448 
L 74.946683 78.459277 
L 74.821134 77.524074 
L 74.765251 76.588871 
L 74.562268 75.653668 
L 74.516136 74.718465 
L 74.461494 73.783262 
L 74.444712 72.848059 
L 74.425782 71.912856 
L 74.346528 70.977653 
L 74.311189 70.04245 
L 74.274362 69.107247 
L 74.214444 68.172044 
L 74.181387 67.236841 
L 74.128004 66.301638 
L 74.078999 65.366435 
L 74.015959 64.431232 
L 73.990695 63.49603 
L 73.985574 62.560827 
L 73.977366 61.625624 
L 73.976986 60.690421 
L 73.931937 59.755218 
L 73.916939 58.820015 
L 73.844754 57.884812 
L 73.844672 56.949609 
L 73.83757 56.014406 
L 73.835914 55.079203 
L 73.832727 54.144 
z
" clip-path="url(#p9a2b89d005)" style="fill: #ff0000"/>
   </g>
   <g id="matplotlib.axis_1">
    <g id="xtick_1">
     <g id="line2d_1">
      <defs>
       <path id="m41a8fa5e60" d="M 0 0 
L 0 3.5 
" style="stroke: #000000; stroke-width: 0.8"/>
      </defs>
      <g>
       <use xlink:href="#m41a8fa5e60" x="73.82275" y="307.584" style="stroke: #000000; stroke-width: 0.8"/>
      </g>
     </g>
     <g id="text_1">
      <!-- 0.0 -->
      <g transform="translate(65.871187 322.182437) scale(0.1 -0.1)">
       <defs>
        <path id="DejaVuSans-30" d="M 2034 4250 
Q 1547 4250 1301 3770 
Q 1056 3291 1056 2328 
Q 1056 1369 1301 889 
Q 1547 409 2034 409 
Q 2525 409 2770 889 
Q 3016 1369 3016 2328 
Q 3016 3291 2770 3770 
Q 2525 4250 2034 4250 
z
M 2034 4750 
Q 2819 4750 3233 4129 
Q 3647 3509 3647 2328 
Q 3647 1150 3233 529 
Q 2819 -91 2034 -91 
Q 1250 -91 836 529 
Q 422 1150 422 2328 
Q 422 3509 836 4129 
Q 1250 4750 2034 4750 
z
" transform="scale(0.015625)"/>
        <path id="DejaVuSans-2e" d="M 684 794 
L 1344 794 
L 1344 0 
L 684 0 
L 684 794 
z
" transform="scale(0.015625)"/>
       </defs>
       <use xlink:href="#DejaVuSans-30"/>
       <use xlink:href="#DejaVuSans-2e" x="63.623047"/>
       <use xlink:href="#DejaVuSans-30" x="95.410156"/>
      </g>
     </g>
    </g>
    <g id="xtick_2">
     <g id="line2d_2">
      <g>
       <use xlink:href="#m41a8fa5e60" x="120.806622" y="307.584" style="stroke: #000000; stroke-width: 0.8"/>
      </g>
     </g>
     <g id="text_2">
      <!-- 0.1 -->
      <g transform="translate(112.855059 322.182437) scale(0.1 -0.1)">
       <defs>
        <path id="DejaVuSans-31" d="M 794 531 
L 1825 531 
L 1825 4091 
L 703 3866 
L 703 4441 
L 1819 4666 
L 2450 4666 
L 2450 531 
L 3481 531 
L 3481 0 
L 794 0 
L 794 531 
z
" transform="scale(0.015625)"/>
       </defs>
       <use xlink:href="#DejaVuSans-30"/>
       <use xlink:href="#DejaVuSans-2e" x="63.623047"/>
       <use xlink:href="#DejaVuSans-31" x="95.410156"/>
      </g>
     </g>
    </g>
    <g id="xtick_3">
     <g id="line2d_3">
      <g>
       <use xlink:href="#m41a8fa5e60" x="167.790494" y="307.584" style="stroke: #000000; stroke-width: 0.8"/>
      </g>
     </g>
     <g id="text_3">
      <!-- 0.2 -->
      <g transform="translate(159.838931 322.182437) scale(0.1 -0.1)">
       <defs>
        <path id="DejaVuSans-32" d="M 1228 531 
L 3431 531 
L 3431 0 
L 469 0 
L 469 531 
Q 828 903 1448 1529 
Q 2069 2156 2228 2338 
Q 2531 2678 2651 2914 
Q 2772 3150 2772 3378 
Q 2772 3750 2511 3984 
Q 2250 4219 1831 4219 
Q 1534 4219 1204 4116 
Q 875 4013 500 3803 
L 500 4441 
Q 881 4594 1212 4672 
Q 1544 4750 1819 4750 
Q 2544 4750 2975 4387 
Q 3406 4025 3406 3419 
Q 3406 3131 3298 2873 
Q 3191 2616 2906 2266 
Q 2828 2175 2409 1742 
Q 1991 1309 1228 531 
z
" transform="scale(0.015625)"/>
       </defs>
       <use xlink:href="#DejaVuSans-30"/>
       <use xlink:href="#DejaVuSans-2e" x="63.623047"/>
       <use xlink:href="#DejaVuSans-32" x="95.410156"/>
      </g>
     </g>
    </g>
    <g id="xtick_4">
     <g id="line2d_4">
      <g>
       <use xlink:href="#m41a8fa5e60" x="214.774366" y="307.584" style="stroke: #000000; stroke-width: 0.8"/>
      </g>
     </g>
     <g id="text_4">
      <!-- 0.3 -->
      <g transform="translate(206.822804 322.182437) scale(0.1 -0.1)">
       <defs>
        <path id="DejaVuSans-33" d="M 2597 2516 
Q 3050 2419 3304 2112 
Q 3559 1806 3559 1356 
Q 3559 666 3084 287 
Q 2609 -91 1734 -91 
Q 1441 -91 1130 -33 
Q 819 25 488 141 
L 488 750 
Q 750 597 1062 519 
Q 1375 441 1716 441 
Q 2309 441 2620 675 
Q 2931 909 2931 1356 
Q 2931 1769 2642 2001 
Q 2353 2234 1838 2234 
L 1294 2234 
L 1294 2753 
L 1863 2753 
Q 2328 2753 2575 2939 
Q 2822 3125 2822 3475 
Q 2822 3834 2567 4026 
Q 2313 4219 1838 4219 
Q 1578 4219 1281 4162 
Q 984 4106 628 3988 
L 628 4550 
Q 988 4650 1302 4700 
Q 1616 4750 1894 4750 
Q 2613 4750 3031 4423 
Q 3450 4097 3450 3541 
Q 3450 3153 3228 2886 
Q 3006 2619 2597 2516 
z
" transform="scale(0.015625)"/>
       </defs>
       <use xlink:href="#DejaVuSans-30"/>
       <use xlink:href="#DejaVuSans-2e" x="63.623047"/>
       <use xlink:href="#DejaVuSans-33" x="95.410156"/>
      </g>
     </g>
    </g>
    <g id="xtick_5">
     <g id="line2d_5">
      <g>
       <use xlink:href="#m41a8fa5e60" x="261.758238" y="307.584" style="stroke: #000000; stroke-width: 0.8"/>
      </g>
     </g>
     <g id="text_5">
      <!-- 0.4 -->
      <g transform="translate(253.806676 322.182437) scale(0.1 -0.1)">
       <defs>
        <path id="DejaVuSans-34" d="M 2419 4116 
L 825 1625 
L 2419 1625 
L 2419 4116 
z
M 2253 4666 
L 3047 4666 
L 3047 1625 
L 3713 1625 
L 3713 1100 
L 3047 1100 
L 3047 0 
L 2419 0 
L 2419 1100 
L 313 1100 
L 313 1709 
L 2253 4666 
z
" transform="scale(0.015625)"/>
       </defs>
       <use xlink:href="#DejaVuSans-30"/>
       <use xlink:href="#DejaVuSans-2e" x="63.623047"/>
       <use xlink:href="#DejaVuSans-34" x="95.410156"/>
      </g>
     </g>
    </g>
    <g id="xtick_6">
     <g id="line2d_6">
      <g>
       <use xlink:href="#m41a8fa5e60" x="308.74211" y="307.584" style="stroke: #000000; stroke-width: 0.8"/>
      </g>
     </g>
     <g id="text_6">
      <!-- 0.5 -->
      <g transform="translate(300.790548 322.182437) scale(0.1 -0.1)">
       <defs>
        <path id="DejaVuSans-35" d="M 691 4666 
L 3169 4666 
L 3169 4134 
L 1269 4134 
L 1269 2991 
Q 1406 3038 1543 3061 
Q 1681 3084 1819 3084 
Q 2600 3084 3056 2656 
Q 3513 2228 3513 1497 
Q 3513 744 3044 326 
Q 2575 -91 1722 -91 
Q 1428 -91 1123 -41 
Q 819 9 494 109 
L 494 744 
Q 775 591 1075 516 
Q 1375 441 1709 441 
Q 2250 441 2565 725 
Q 2881 1009 2881 1497 
Q 2881 1984 2565 2268 
Q 2250 2553 1709 2553 
Q 1456 2553 1204 2497 
Q 953 2441 691 2322 
L 691 4666 
z
" transform="scale(0.015625)"/>
       </defs>
       <use xlink:href="#DejaVuSans-30"/>
       <use xlink:href="#DejaVuSans-2e" x="63.623047"/>
       <use xlink:href="#DejaVuSans-35" x="95.410156"/>
      </g>
     </g>
    </g>
    <g id="xtick_7">
     <g id="line2d_7">
      <g>
       <use xlink:href="#m41a8fa5e60" x="355.725982" y="307.584" style="stroke: #000000; stroke-width: 0.8"/>
      </g>
     </g>
     <g id="text_7">
      <!-- 0.6 -->
      <g transform="translate(347.77442 322.182437) scale(0.1 -0.1)">
       <defs>
        <path id="DejaVuSans-36" d="M 2113 2584 
Q 1688 2584 1439 2293 
Q 1191 2003 1191 1497 
Q 1191 994 1439 701 
Q 1688 409 2113 409 
Q 2538 409 2786 701 
Q 3034 994 3034 1497 
Q 3034 2003 2786 2293 
Q 2538 2584 2113 2584 
z
M 3366 4563 
L 3366 3988 
Q 3128 4100 2886 4159 
Q 2644 4219 2406 4219 
Q 1781 4219 1451 3797 
Q 1122 3375 1075 2522 
Q 1259 2794 1537 2939 
Q 1816 3084 2150 3084 
Q 2853 3084 3261 2657 
Q 3669 2231 3669 1497 
Q 3669 778 3244 343 
Q 2819 -91 2113 -91 
Q 1303 -91 875 529 
Q 447 1150 447 2328 
Q 447 3434 972 4092 
Q 1497 4750 2381 4750 
Q 2619 4750 2861 4703 
Q 3103 4656 3366 4563 
z
" transform="scale(0.015625)"/>
       </defs>
       <use xlink:href="#DejaVuSans-30"/>
       <use xlink:href="#DejaVuSans-2e" x="63.623047"/>
       <use xlink:href="#DejaVuSans-36" x="95.410156"/>
      </g>
     </g>
    </g>
    <g id="xtick_8">
     <g id="line2d_8">
      <g>
       <use xlink:href="#m41a8fa5e60" x="402.709854" y="307.584" style="stroke: #000000; stroke-width: 0.8"/>
      </g>
     </g>
     <g id="text_8">
      <!-- 0.7 -->
      <g transform="translate(394.758292 322.182437) scale(0.1 -0.1)">
       <defs>
        <path id="DejaVuSans-37" d="M 525 4666 
L 3525 4666 
L 3525 4397 
L 1831 0 
L 1172 0 
L 2766 4134 
L 525 4134 
L 525 4666 
z
" transform="scale(0.015625)"/>
       </defs>
       <use xlink:href="#DejaVuSans-30"/>
       <use xlink:href="#DejaVuSans-2e" x="63.623047"/>
       <use xlink:href="#DejaVuSans-37" x="95.410156"/>
      </g>
     </g>
    </g>
    <g id="text_9">
     <!-- Score -->
     <g transform="translate(222.157656 335.860562) scale(0.1 -0.1)">
      <defs>
       <path id="DejaVuSans-53" d="M 3425 4513 
L 3425 3897 
Q 3066 4069 2747 4153 
Q 2428 4238 2131 4238 
Q 1616 4238 1336 4038 
Q 1056 3838 1056 3469 
Q 1056 3159 1242 3001 
Q 1428 2844 1947 2747 
L 2328 2669 
Q 3034 2534 3370 2195 
Q 3706 1856 3706 1288 
Q 3706 609 3251 259 
Q 2797 -91 1919 -91 
Q 1588 -91 1214 -16 
Q 841 59 441 206 
L 441 856 
Q 825 641 1194 531 
Q 1563 422 1919 422 
Q 2459 422 2753 634 
Q 3047 847 3047 1241 
Q 3047 1584 2836 1778 
Q 2625 1972 2144 2069 
L 1759 2144 
Q 1053 2284 737 2584 
Q 422 2884 422 3419 
Q 422 4038 858 4394 
Q 1294 4750 2059 4750 
Q 2388 4750 2728 4690 
Q 3069 4631 3425 4513 
z
" transform="scale(0.015625)"/>
       <path id="DejaVuSans-63" d="M 3122 3366 
L 3122 2828 
Q 2878 2963 2633 3030 
Q 2388 3097 2138 3097 
Q 1578 3097 1268 2742 
Q 959 2388 959 1747 
Q 959 1106 1268 751 
Q 1578 397 2138 397 
Q 2388 397 2633 464 
Q 2878 531 3122 666 
L 3122 134 
Q 2881 22 2623 -34 
Q 2366 -91 2075 -91 
Q 1284 -91 818 406 
Q 353 903 353 1747 
Q 353 2603 823 3093 
Q 1294 3584 2113 3584 
Q 2378 3584 2631 3529 
Q 2884 3475 3122 3366 
z
" transform="scale(0.015625)"/>
       <path id="DejaVuSans-6f" d="M 1959 3097 
Q 1497 3097 1228 2736 
Q 959 2375 959 1747 
Q 959 1119 1226 758 
Q 1494 397 1959 397 
Q 2419 397 2687 759 
Q 2956 1122 2956 1747 
Q 2956 2369 2687 2733 
Q 2419 3097 1959 3097 
z
M 1959 3584 
Q 2709 3584 3137 3096 
Q 3566 2609 3566 1747 
Q 3566 888 3137 398 
Q 2709 -91 1959 -91 
Q 1206 -91 779 398 
Q 353 888 353 1747 
Q 353 2609 779 3096 
Q 1206 3584 1959 3584 
z
" transform="scale(0.015625)"/>
       <path id="DejaVuSans-72" d="M 2631 2963 
Q 2534 3019 2420 3045 
Q 2306 3072 2169 3072 
Q 1681 3072 1420 2755 
Q 1159 2438 1159 1844 
L 1159 0 
L 581 0 
L 581 3500 
L 1159 3500 
L 1159 2956 
Q 1341 3275 1631 3429 
Q 1922 3584 2338 3584 
Q 2397 3584 2469 3576 
Q 2541 3569 2628 3553 
L 2631 2963 
z
" transform="scale(0.015625)"/>
       <path id="DejaVuSans-65" d="M 3597 1894 
L 3597 1613 
L 953 1613 
Q 991 1019 1311 708 
Q 1631 397 2203 397 
Q 2534 397 2845 478 
Q 3156 559 3463 722 
L 3463 178 
Q 3153 47 2828 -22 
Q 2503 -91 2169 -91 
Q 1331 -91 842 396 
Q 353 884 353 1716 
Q 353 2575 817 3079 
Q 1281 3584 2069 3584 
Q 2775 3584 3186 3129 
Q 3597 2675 3597 1894 
z
M 3022 2063 
Q 3016 2534 2758 2815 
Q 2500 3097 2075 3097 
Q 1594 3097 1305 2825 
Q 1016 2553 972 2059 
L 3022 2063 
z
" transform="scale(0.015625)"/>
      </defs>
      <use xlink:href="#DejaVuSans-53"/>
      <use xlink:href="#DejaVuSans-63" x="63.476562"/>
      <use xlink:href="#DejaVuSans-6f" x="118.457031"/>
      <use xlink:href="#DejaVuSans-72" x="179.638672"/>
      <use xlink:href="#DejaVuSans-65" x="218.501953"/>
     </g>
    </g>
   </g>
   <g id="matplotlib.axis_2">
    <g id="ytick_1">
     <g id="line2d_9">
      <defs>
       <path id="m02dc2b2795" d="M 0 0 
L -3.5 0 
" style="stroke: #000000; stroke-width: 0.8"/>
      </defs>
      <g>
       <use xlink:href="#m02dc2b2795" x="57.6" y="307.584" style="stroke: #000000; stroke-width: 0.8"/>
      </g>
     </g>
     <g id="text_10">
      <!-- 0 -->
      <g transform="translate(44.2375 311.383219) scale(0.1 -0.1)">
       <use xlink:href="#DejaVuSans-30"/>
      </g>
     </g>
    </g>
    <g id="ytick_2">
     <g id="line2d_10">
      <g>
       <use xlink:href="#m02dc2b2795" x="57.6" y="260.823852" style="stroke: #000000; stroke-width: 0.8"/>
      </g>
     </g>
     <g id="text_11">
      <!-- 50 -->
      <g transform="translate(37.875 264.623071) scale(0.1 -0.1)">
       <use xlink:href="#DejaVuSans-35"/>
       <use xlink:href="#DejaVuSans-30" x="63.623047"/>
      </g>
     </g>
    </g>
    <g id="ytick_3">
     <g id="line2d_11">
      <g>
       <use xlink:href="#m02dc2b2795" x="57.6" y="214.063705" style="stroke: #000000; stroke-width: 0.8"/>
      </g>
     </g>
     <g id="text_12">
      <!-- 100 -->
      <g transform="translate(31.5125 217.862924) scale(0.1 -0.1)">
       <use xlink:href="#DejaVuSans-31"/>
       <use xlink:href="#DejaVuSans-30" x="63.623047"/>
       <use xlink:href="#DejaVuSans-30" x="127.246094"/>
      </g>
     </g>
    </g>
    <g id="ytick_4">
     <g id="line2d_12">
      <g>
       <use xlink:href="#m02dc2b2795" x="57.6" y="167.303557" style="stroke: #000000; stroke-width: 0.8"/>
      </g>
     </g>
     <g id="text_13">
      <!-- 150 -->
      <g transform="translate(31.5125 171.102776) scale(0.1 -0.1)">
       <use xlink:href="#DejaVuSans-31"/>
       <use xlink:href="#DejaVuSans-35" x="63.623047"/>
       <use xlink:href="#DejaVuSans-30" x="127.246094"/>
      </g>
     </g>
    </g>
    <g id="ytick_5">
     <g id="line2d_13">
      <g>
       <use xlink:href="#m02dc2b2795" x="57.6" y="120.54341" style="stroke: #000000; stroke-width: 0.8"/>
      </g>
     </g>
     <g id="text_14">
      <!-- 200 -->
      <g transform="translate(31.5125 124.342628) scale(0.1 -0.1)">
       <use xlink:href="#DejaVuSans-32"/>
       <use xlink:href="#DejaVuSans-30" x="63.623047"/>
       <use xlink:href="#DejaVuSans-30" x="127.246094"/>
      </g>
     </g>
    </g>
    <g id="ytick_6">
     <g id="line2d_14">
      <g>
       <use xlink:href="#m02dc2b2795" x="57.6" y="73.783262" style="stroke: #000000; stroke-width: 0.8"/>
      </g>
     </g>
     <g id="text_15">
      <!-- 250 -->
      <g transform="translate(31.5125 77.582481) scale(0.1 -0.1)">
       <use xlink:href="#DejaVuSans-32"/>
       <use xlink:href="#DejaVuSans-35" x="63.623047"/>
       <use xlink:href="#DejaVuSans-30" x="127.246094"/>
      </g>
     </g>
    </g>
    <g id="text_16">
     <!-- Number of crosslinks -->
     <g transform="translate(25.432812 227.019406) rotate(-90) scale(0.1 -0.1)">
      <defs>
       <path id="DejaVuSans-4e" d="M 628 4666 
L 1478 4666 
L 3547 763 
L 3547 4666 
L 4159 4666 
L 4159 0 
L 3309 0 
L 1241 3903 
L 1241 0 
L 628 0 
L 628 4666 
z
" transform="scale(0.015625)"/>
       <path id="DejaVuSans-75" d="M 544 1381 
L 544 3500 
L 1119 3500 
L 1119 1403 
Q 1119 906 1312 657 
Q 1506 409 1894 409 
Q 2359 409 2629 706 
Q 2900 1003 2900 1516 
L 2900 3500 
L 3475 3500 
L 3475 0 
L 2900 0 
L 2900 538 
Q 2691 219 2414 64 
Q 2138 -91 1772 -91 
Q 1169 -91 856 284 
Q 544 659 544 1381 
z
M 1991 3584 
L 1991 3584 
z
" transform="scale(0.015625)"/>
       <path id="DejaVuSans-6d" d="M 3328 2828 
Q 3544 3216 3844 3400 
Q 4144 3584 4550 3584 
Q 5097 3584 5394 3201 
Q 5691 2819 5691 2113 
L 5691 0 
L 5113 0 
L 5113 2094 
Q 5113 2597 4934 2840 
Q 4756 3084 4391 3084 
Q 3944 3084 3684 2787 
Q 3425 2491 3425 1978 
L 3425 0 
L 2847 0 
L 2847 2094 
Q 2847 2600 2669 2842 
Q 2491 3084 2119 3084 
Q 1678 3084 1418 2786 
Q 1159 2488 1159 1978 
L 1159 0 
L 581 0 
L 581 3500 
L 1159 3500 
L 1159 2956 
Q 1356 3278 1631 3431 
Q 1906 3584 2284 3584 
Q 2666 3584 2933 3390 
Q 3200 3197 3328 2828 
z
" transform="scale(0.015625)"/>
       <path id="DejaVuSans-62" d="M 3116 1747 
Q 3116 2381 2855 2742 
Q 2594 3103 2138 3103 
Q 1681 3103 1420 2742 
Q 1159 2381 1159 1747 
Q 1159 1113 1420 752 
Q 1681 391 2138 391 
Q 2594 391 2855 752 
Q 3116 1113 3116 1747 
z
M 1159 2969 
Q 1341 3281 1617 3432 
Q 1894 3584 2278 3584 
Q 2916 3584 3314 3078 
Q 3713 2572 3713 1747 
Q 3713 922 3314 415 
Q 2916 -91 2278 -91 
Q 1894 -91 1617 61 
Q 1341 213 1159 525 
L 1159 0 
L 581 0 
L 581 4863 
L 1159 4863 
L 1159 2969 
z
" transform="scale(0.015625)"/>
       <path id="DejaVuSans-20" transform="scale(0.015625)"/>
       <path id="DejaVuSans-66" d="M 2375 4863 
L 2375 4384 
L 1825 4384 
Q 1516 4384 1395 4259 
Q 1275 4134 1275 3809 
L 1275 3500 
L 2222 3500 
L 2222 3053 
L 1275 3053 
L 1275 0 
L 697 0 
L 697 3053 
L 147 3053 
L 147 3500 
L 697 3500 
L 697 3744 
Q 697 4328 969 4595 
Q 1241 4863 1831 4863 
L 2375 4863 
z
" transform="scale(0.015625)"/>
       <path id="DejaVuSans-73" d="M 2834 3397 
L 2834 2853 
Q 2591 2978 2328 3040 
Q 2066 3103 1784 3103 
Q 1356 3103 1142 2972 
Q 928 2841 928 2578 
Q 928 2378 1081 2264 
Q 1234 2150 1697 2047 
L 1894 2003 
Q 2506 1872 2764 1633 
Q 3022 1394 3022 966 
Q 3022 478 2636 193 
Q 2250 -91 1575 -91 
Q 1294 -91 989 -36 
Q 684 19 347 128 
L 347 722 
Q 666 556 975 473 
Q 1284 391 1588 391 
Q 1994 391 2212 530 
Q 2431 669 2431 922 
Q 2431 1156 2273 1281 
Q 2116 1406 1581 1522 
L 1381 1569 
Q 847 1681 609 1914 
Q 372 2147 372 2553 
Q 372 3047 722 3315 
Q 1072 3584 1716 3584 
Q 2034 3584 2315 3537 
Q 2597 3491 2834 3397 
z
" transform="scale(0.015625)"/>
       <path id="DejaVuSans-6c" d="M 603 4863 
L 1178 4863 
L 1178 0 
L 603 0 
L 603 4863 
z
" transform="scale(0.015625)"/>
       <path id="DejaVuSans-69" d="M 603 3500 
L 1178 3500 
L 1178 0 
L 603 0 
L 603 3500 
z
M 603 4863 
L 1178 4863 
L 1178 4134 
L 603 4134 
L 603 4863 
z
" transform="scale(0.015625)"/>
       <path id="DejaVuSans-6e" d="M 3513 2113 
L 3513 0 
L 2938 0 
L 2938 2094 
Q 2938 2591 2744 2837 
Q 2550 3084 2163 3084 
Q 1697 3084 1428 2787 
Q 1159 2491 1159 1978 
L 1159 0 
L 581 0 
L 581 3500 
L 1159 3500 
L 1159 2956 
Q 1366 3272 1645 3428 
Q 1925 3584 2291 3584 
Q 2894 3584 3203 3211 
Q 3513 2838 3513 2113 
z
" transform="scale(0.015625)"/>
       <path id="DejaVuSans-6b" d="M 581 4863 
L 1159 4863 
L 1159 1991 
L 2875 3500 
L 3609 3500 
L 1753 1863 
L 3688 0 
L 2938 0 
L 1159 1709 
L 1159 0 
L 581 0 
L 581 4863 
z
" transform="scale(0.015625)"/>
      </defs>
      <use xlink:href="#DejaVuSans-4e"/>
      <use xlink:href="#DejaVuSans-75" x="74.804688"/>
      <use xlink:href="#DejaVuSans-6d" x="138.183594"/>
      <use xlink:href="#DejaVuSans-62" x="235.595703"/>
      <use xlink:href="#DejaVuSans-65" x="299.072266"/>
      <use xlink:href="#DejaVuSans-72" x="360.595703"/>
      <use xlink:href="#DejaVuSans-20" x="401.708984"/>
      <use xlink:href="#DejaVuSans-6f" x="433.496094"/>
      <use xlink:href="#DejaVuSans-66" x="494.677734"/>
      <use xlink:href="#DejaVuSans-20" x="529.882812"/>
      <use xlink:href="#DejaVuSans-63" x="561.669922"/>
      <use xlink:href="#DejaVuSans-72" x="616.650391"/>
      <use xlink:href="#DejaVuSans-6f" x="655.513672"/>
      <use xlink:href="#DejaVuSans-73" x="716.695312"/>
      <use xlink:href="#DejaVuSans-73" x="768.794922"/>
      <use xlink:href="#DejaVuSans-6c" x="820.894531"/>
      <use xlink:href="#DejaVuSans-69" x="848.677734"/>
      <use xlink:href="#DejaVuSans-6e" x="876.460938"/>
      <use xlink:href="#DejaVuSans-6b" x="939.839844"/>
      <use xlink:href="#DejaVuSans-73" x="997.75"/>
     </g>
    </g>
   </g>
   <g id="patch_3">
    <path d="M 57.6 307.584 
L 57.6 41.472 
" style="fill: none; stroke: #000000; stroke-width: 0.8; stroke-linejoin: miter; stroke-linecap: square"/>
   </g>
   <g id="patch_4">
    <path d="M 414.72 307.584 
L 414.72 41.472 
" style="fill: none; stroke: #000000; stroke-width: 0.8; stroke-linejoin: miter; stroke-linecap: square"/>
   </g>
   <g id="patch_5">
    <path d="M 57.6 307.584 
L 414.72 307.584 
" style="fill: none; stroke: #000000; stroke-width: 0.8; stroke-linejoin: miter; stroke-linecap: square"/>
   </g>
   <g id="patch_6">
    <path d="M 57.6 41.472 
L 414.72 41.472 
" style="fill: none; stroke: #000000; stroke-width: 0.8; stroke-linejoin: miter; stroke-linecap: square"/>
   </g>
   <g id="legend_1">
    <g id="patch_7">
     <path d="M 293.087188 93.506375 
L 407.72 93.506375 
Q 409.72 93.506375 409.72 91.506375 
L 409.72 48.472 
Q 409.72 46.472 407.72 46.472 
L 293.087188 46.472 
Q 291.087188 46.472 291.087188 48.472 
L 291.087188 91.506375 
Q 291.087188 93.506375 293.087188 93.506375 
z
" style="fill: #ffffff; opacity: 0.8; stroke: #cccccc; stroke-linejoin: miter"/>
    </g>
    <g id="patch_8">
     <path d="M 295.087188 58.070438 
L 315.087188 58.070438 
L 315.087188 51.070438 
L 295.087188 51.070438 
z
" style="fill: #008000"/>
    </g>
    <g id="text_17">
     <!-- true -->
     <g transform="translate(323.087188 58.070438) scale(0.1 -0.1)">
      <defs>
       <path id="DejaVuSans-74" d="M 1172 4494 
L 1172 3500 
L 2356 3500 
L 2356 3053 
L 1172 3053 
L 1172 1153 
Q 1172 725 1289 603 
Q 1406 481 1766 481 
L 2356 481 
L 2356 0 
L 1766 0 
Q 1100 0 847 248 
Q 594 497 594 1153 
L 594 3053 
L 172 3053 
L 172 3500 
L 594 3500 
L 594 4494 
L 1172 4494 
z
" transform="scale(0.015625)"/>
      </defs>
      <use xlink:href="#DejaVuSans-74"/>
      <use xlink:href="#DejaVuSans-72" x="39.208984"/>
      <use xlink:href="#DejaVuSans-75" x="80.322266"/>
      <use xlink:href="#DejaVuSans-65" x="143.701172"/>
     </g>
    </g>
    <g id="patch_9">
     <path d="M 295.087188 72.748563 
L 315.087188 72.748563 
L 315.087188 65.748563 
L 295.087188 65.748563 
z
" style="fill: #7cfc00"/>
    </g>
    <g id="text_18">
     <!-- true homeotypic -->
     <g transform="translate(323.087188 72.748563) scale(0.1 -0.1)">
      <defs>
       <path id="DejaVuSans-68" d="M 3513 2113 
L 3513 0 
L 2938 0 
L 2938 2094 
Q 2938 2591 2744 2837 
Q 2550 3084 2163 3084 
Q 1697 3084 1428 2787 
Q 1159 2491 1159 1978 
L 1159 0 
L 581 0 
L 581 4863 
L 1159 4863 
L 1159 2956 
Q 1366 3272 1645 3428 
Q 1925 3584 2291 3584 
Q 2894 3584 3203 3211 
Q 3513 2838 3513 2113 
z
" transform="scale(0.015625)"/>
       <path id="DejaVuSans-79" d="M 2059 -325 
Q 1816 -950 1584 -1140 
Q 1353 -1331 966 -1331 
L 506 -1331 
L 506 -850 
L 844 -850 
Q 1081 -850 1212 -737 
Q 1344 -625 1503 -206 
L 1606 56 
L 191 3500 
L 800 3500 
L 1894 763 
L 2988 3500 
L 3597 3500 
L 2059 -325 
z
" transform="scale(0.015625)"/>
       <path id="DejaVuSans-70" d="M 1159 525 
L 1159 -1331 
L 581 -1331 
L 581 3500 
L 1159 3500 
L 1159 2969 
Q 1341 3281 1617 3432 
Q 1894 3584 2278 3584 
Q 2916 3584 3314 3078 
Q 3713 2572 3713 1747 
Q 3713 922 3314 415 
Q 2916 -91 2278 -91 
Q 1894 -91 1617 61 
Q 1341 213 1159 525 
z
M 3116 1747 
Q 3116 2381 2855 2742 
Q 2594 3103 2138 3103 
Q 1681 3103 1420 2742 
Q 1159 2381 1159 1747 
Q 1159 1113 1420 752 
Q 1681 391 2138 391 
Q 2594 391 2855 752 
Q 3116 1113 3116 1747 
z
" transform="scale(0.015625)"/>
      </defs>
      <use xlink:href="#DejaVuSans-74"/>
      <use xlink:href="#DejaVuSans-72" x="39.208984"/>
      <use xlink:href="#DejaVuSans-75" x="80.322266"/>
      <use xlink:href="#DejaVuSans-65" x="143.701172"/>
      <use xlink:href="#DejaVuSans-20" x="205.224609"/>
      <use xlink:href="#DejaVuSans-68" x="237.011719"/>
      <use xlink:href="#DejaVuSans-6f" x="300.390625"/>
      <use xlink:href="#DejaVuSans-6d" x="361.572266"/>
      <use xlink:href="#DejaVuSans-65" x="458.984375"/>
      <use xlink:href="#DejaVuSans-6f" x="520.507812"/>
      <use xlink:href="#DejaVuSans-74" x="581.689453"/>
      <use xlink:href="#DejaVuSans-79" x="620.898438"/>
      <use xlink:href="#DejaVuSans-70" x="680.078125"/>
      <use xlink:href="#DejaVuSans-69" x="743.554688"/>
      <use xlink:href="#DejaVuSans-63" x="771.337891"/>
     </g>
    </g>
    <g id="patch_10">
     <path d="M 295.087188 87.426688 
L 315.087188 87.426688 
L 315.087188 80.426688 
L 295.087188 80.426688 
z
" style="fill: #ff0000"/>
    </g>
    <g id="text_19">
     <!-- false -->
     <g transform="translate(323.087188 87.426688) scale(0.1 -0.1)">
      <defs>
       <path id="DejaVuSans-61" d="M 2194 1759 
Q 1497 1759 1228 1600 
Q 959 1441 959 1056 
Q 959 750 1161 570 
Q 1363 391 1709 391 
Q 2188 391 2477 730 
Q 2766 1069 2766 1631 
L 2766 1759 
L 2194 1759 
z
M 3341 1997 
L 3341 0 
L 2766 0 
L 2766 531 
Q 2569 213 2275 61 
Q 1981 -91 1556 -91 
Q 1019 -91 701 211 
Q 384 513 384 1019 
Q 384 1609 779 1909 
Q 1175 2209 1959 2209 
L 2766 2209 
L 2766 2266 
Q 2766 2663 2505 2880 
Q 2244 3097 1772 3097 
Q 1472 3097 1187 3025 
Q 903 2953 641 2809 
L 641 3341 
Q 956 3463 1253 3523 
Q 1550 3584 1831 3584 
Q 2591 3584 2966 3190 
Q 3341 2797 3341 1997 
z
" transform="scale(0.015625)"/>
      </defs>
      <use xlink:href="#DejaVuSans-66"/>
      <use xlink:href="#DejaVuSans-61" x="35.205078"/>
      <use xlink:href="#DejaVuSans-6c" x="96.484375"/>
      <use xlink:href="#DejaVuSans-73" x="124.267578"/>
      <use xlink:href="#DejaVuSans-65" x="176.367188"/>
     </g>
    </g>
   </g>
  </g>
 </g>
 <defs>
  <clipPath id="p9a2b89d005">
   <rect x="57.6" y="41.472" width="357.12" height="266.112"/>
  </clipPath>
 </defs>
</svg>
