<?xml version="1.0" encoding="utf-8" standalone="no"?>
<!DOCTYPE svg PUBLIC "-//W3C//DTD SVG 1.1//EN"
  "http://www.w3.org/Graphics/SVG/1.1/DTD/svg11.dtd">
<svg xmlns:xlink="http://www.w3.org/1999/xlink" width="283.811309pt" height="297.672362pt" viewBox="0 0 283.811309 297.672362" xmlns="http://www.w3.org/2000/svg" version="1.1">
 <metadata>
  <rdf:RDF xmlns:dc="http://purl.org/dc/elements/1.1/" xmlns:cc="http://creativecommons.org/ns#" xmlns:rdf="http://www.w3.org/1999/02/22-rdf-syntax-ns#">
   <cc:Work>
    <dc:type rdf:resource="http://purl.org/dc/dcmitype/StillImage"/>
    <dc:date>2024-07-02T15:19:19.487795</dc:date>
    <dc:format>image/svg+xml</dc:format>
    <dc:creator>
     <cc:Agent>
      <dc:title>Matplotlib v3.9.0, https://matplotlib.org/</dc:title>
     </cc:Agent>
    </dc:creator>
   </cc:Work>
  </rdf:RDF>
 </metadata>
 <defs>
  <style type="text/css">*{stroke-linejoin: round; stroke-linecap: butt}</style>
 </defs>
 <g id="figure_1">
  <g id="patch_1">
   <path d="M 0 297.672362 
L 283.811309 297.672362 
L 283.811309 0 
L 0 0 
L 0 297.672362 
z
" style="fill: none"/>
  </g>
  <g id="axes_1">
   <g id="patch_2">
    <path d="M 194.394554 57.492639 
C 171.410882 44.09692 144.36512 39.386465 118.205977 44.223172 
C 92.046835 49.059878 68.473439 63.129585 51.799143 83.857881 
C 35.124846 104.586178 26.432701 130.62669 27.313157 157.214643 
C 28.193614 183.802596 38.589482 209.211011 56.598575 228.790772 
C 47.765812 217.679845 41.281536 204.88952 37.540015 191.1975 
C 33.798494 177.50548 32.877131 163.195017 34.831948 149.136245 
C 36.786766 135.077472 41.577323 121.56123 48.912337 109.409359 
C 56.24735 97.257488 65.975076 86.721378 77.504031 78.441669 
C 92.615107 63.594813 111.861445 53.649268 132.713494 49.91218 
C 153.565542 46.175092 175.067916 48.817683 194.394554 57.492639 
" clip-path="url(#pf58906c2bd)" style="fill: #00b4d8; opacity: 0.6"/>
   </g>
   <g id="patch_3">
    <path d="M 194.394554 57.492639 
C 208.393427 65.651691 220.440654 76.773589 229.690112 90.077201 
C 238.93957 103.380814 245.169528 118.547221 247.942433 134.511231 
C 250.715338 150.47524 249.964716 166.854155 245.743287 182.497624 
C 241.521858 198.141093 233.93082 212.674104 223.503318 225.075951 
C 221.198898 228.25549 218.717607 231.303009 216.071185 234.204089 
C 213.424762 237.105169 210.617388 239.855228 207.662344 242.441255 
C 223.720873 232.25811 236.724356 217.911872 245.285509 200.933077 
C 253.846662 183.954283 257.649809 164.968994 256.289208 146.002667 
C 254.928607 127.03634 248.454428 108.788322 237.557373 93.205415 
C 226.660318 77.622508 211.742196 65.279302 194.394554 57.492639 
" clip-path="url(#pf58906c2bd)" style="fill: #caf0f8; opacity: 0.6"/>
   </g>
   <g id="patch_4">
    <path d="M 194.394554 57.492639 
C 175.067916 48.817683 153.565542 46.175092 132.713494 49.91218 
C 111.861445 53.649268 92.615107 63.594813 77.504031 78.441669 
C 97.719639 63.923495 122.46029 57.070488 147.264607 59.118423 
C 172.068924 61.166357 195.350601 71.984261 212.911351 89.621388 
C 230.4721 107.258514 241.188864 130.586921 243.129132 155.399891 
C 245.0694 180.212862 238.109087 204.92354 223.503318 225.075951 
C 233.93082 212.674104 241.521858 198.141093 245.743287 182.497624 
C 249.964716 166.854155 250.715338 150.47524 247.942433 134.511231 
C 245.169528 118.547221 238.93957 103.380814 229.690112 90.077201 
C 220.440654 76.773589 208.393427 65.651691 194.394554 57.492639 
" clip-path="url(#pf58906c2bd)" style="fill: #8dffff; opacity: 0.6"/>
   </g>
   <g id="patch_5">
    <path d="M 56.598575 228.790772 
C 65.422507 239.890591 76.407961 249.085087 88.88829 255.816295 
C 101.368618 262.547504 115.086153 266.676452 129.20845 267.952577 
C 143.330747 269.228701 157.566239 267.625655 171.051048 263.240719 
C 184.535858 258.855783 196.991581 251.779487 207.662344 242.441255 
C 205.539787 243.787226 203.369709 245.056754 201.156283 246.247397 
C 198.942856 247.438041 196.687501 248.549037 194.394554 249.57825 
C 172.501939 262.338061 146.891099 267.236657 121.834927 263.45676 
C 96.778755 259.676862 73.752758 247.441063 56.598575 228.790772 
" clip-path="url(#pf58906c2bd)" style="fill: #03045e; opacity: 0.6"/>
   </g>
   <g id="patch_6">
    <path d="M 56.598575 228.790772 
C 73.752758 247.441063 96.778755 259.676862 121.834927 263.45676 
C 146.891099 267.236657 172.501939 262.338061 194.394554 249.57825 
C 171.866224 259.690317 146.482697 261.560409 122.715666 254.859081 
C 98.948635 248.157753 78.280809 233.303068 64.353139 212.911905 
C 50.42547 192.520741 44.106835 167.865203 46.510359 143.288738 
C 48.913883 118.712273 59.889621 95.748087 77.504031 78.441669 
C 65.975076 86.721378 56.24735 97.257488 48.912337 109.409359 
C 41.577323 121.56123 36.786766 135.077472 34.831948 149.136245 
C 32.877131 163.195017 33.798494 177.50548 37.540015 191.1975 
C 41.281536 204.88952 47.765812 217.679845 56.598575 228.790772 
" clip-path="url(#pf58906c2bd)" style="fill: #0281d9; opacity: 0.6"/>
   </g>
   <g id="patch_7">
    <path d="M 223.503318 225.075951 
C 219.399581 229.95669 214.883487 234.475291 210.005025 238.581735 
C 205.126563 242.68818 199.903802 246.36726 194.394554 249.57825 
C 196.687501 248.549037 198.942856 247.438041 201.156283 246.247397 
C 203.369709 245.056754 205.539787 243.787226 207.662344 242.441255 
C 210.617388 239.855228 213.424762 237.105169 216.071185 234.204089 
C 218.717607 231.303009 221.198898 228.25549 223.503318 225.075951 
" clip-path="url(#pf58906c2bd)" style="fill: #8fabef; opacity: 0.6"/>
   </g>
   <g id="patch_8">
    <path d="M 77.504031 78.441669 
C 59.889621 95.748087 48.913883 118.712273 46.510359 143.288738 
C 44.106835 167.865203 50.42547 192.520741 64.353139 212.911905 
C 78.280809 233.303068 98.948635 248.157753 122.715666 254.859081 
C 146.482697 261.560409 171.866224 259.690317 194.394554 249.57825 
C 199.903802 246.36726 205.126563 242.68818 210.005025 238.581735 
C 214.883487 234.475291 219.399581 229.95669 223.503318 225.075951 
C 238.109087 204.92354 245.0694 180.212862 243.129132 155.399891 
C 241.188864 130.586921 230.4721 107.258514 212.911351 89.621388 
C 195.350601 71.984261 172.068924 61.166357 147.264607 59.118423 
C 122.46029 57.070488 97.719639 63.923495 77.504031 78.441669 
" clip-path="url(#pf58906c2bd)" style="fill: #52aadf; opacity: 0.6"/>
   </g>
   <g id="text_1">
    <!-- 14 -->
    <g transform="translate(57.714121 98.108639) scale(0.1 -0.1)">
     <defs>
      <path id="DejaVuSans-31" d="M 794 531 
L 1825 531 
L 1825 4091 
L 703 3866 
L 703 4441 
L 1819 4666 
L 2450 4666 
L 2450 531 
L 3481 531 
L 3481 0 
L 794 0 
L 794 531 
z
" transform="scale(0.015625)"/>
      <path id="DejaVuSans-34" d="M 2419 4116 
L 825 1625 
L 2419 1625 
L 2419 4116 
z
M 2253 4666 
L 3047 4666 
L 3047 1625 
L 3713 1625 
L 3713 1100 
L 3047 1100 
L 3047 0 
L 2419 0 
L 2419 1100 
L 313 1100 
L 313 1709 
L 2253 4666 
z
" transform="scale(0.015625)"/>
     </defs>
     <use xlink:href="#DejaVuSans-31"/>
     <use xlink:href="#DejaVuSans-34" x="63.623047"/>
    </g>
   </g>
   <g id="text_2">
    <!-- 6 -->
    <g transform="translate(247.38661 148.713986) scale(0.1 -0.1)">
     <defs>
      <path id="DejaVuSans-36" d="M 2113 2584 
Q 1688 2584 1439 2293 
Q 1191 2003 1191 1497 
Q 1191 994 1439 701 
Q 1688 409 2113 409 
Q 2538 409 2786 701 
Q 3034 994 3034 1497 
Q 3034 2003 2786 2293 
Q 2538 2584 2113 2584 
z
M 3366 4563 
L 3366 3988 
Q 3128 4100 2886 4159 
Q 2644 4219 2406 4219 
Q 1781 4219 1451 3797 
Q 1122 3375 1075 2522 
Q 1259 2794 1537 2939 
Q 1816 3084 2150 3084 
Q 2853 3084 3261 2657 
Q 3669 2231 3669 1497 
Q 3669 778 3244 343 
Q 2819 -91 2113 -91 
Q 1303 -91 875 529 
Q 447 1150 447 2328 
Q 447 3434 972 4092 
Q 1497 4750 2381 4750 
Q 2619 4750 2861 4703 
Q 3103 4656 3366 4563 
z
" transform="scale(0.015625)"/>
     </defs>
     <use xlink:href="#DejaVuSans-36"/>
    </g>
   </g>
   <g id="text_3">
    <!-- 17 -->
    <g transform="translate(200.45945 97.694899) scale(0.1 -0.1)">
     <defs>
      <path id="DejaVuSans-37" d="M 525 4666 
L 3525 4666 
L 3525 4397 
L 1831 0 
L 1172 0 
L 2766 4134 
L 525 4134 
L 525 4666 
z
" transform="scale(0.015625)"/>
     </defs>
     <use xlink:href="#DejaVuSans-31"/>
     <use xlink:href="#DejaVuSans-37" x="63.623047"/>
    </g>
   </g>
   <g id="text_4">
    <!-- 2 -->
    <g transform="translate(126.128281 267.759553) scale(0.1 -0.1)">
     <defs>
      <path id="DejaVuSans-32" d="M 1228 531 
L 3431 531 
L 3431 0 
L 469 0 
L 469 531 
Q 828 903 1448 1529 
Q 2069 2156 2228 2338 
Q 2531 2678 2651 2914 
Q 2772 3150 2772 3378 
Q 2772 3750 2511 3984 
Q 2250 4219 1831 4219 
Q 1534 4219 1204 4116 
Q 875 4013 500 3803 
L 500 4441 
Q 881 4594 1212 4672 
Q 1544 4750 1819 4750 
Q 2544 4750 2975 4387 
Q 3406 4025 3406 3419 
Q 3406 3131 3298 2873 
Q 3191 2616 2906 2266 
Q 2828 2175 2409 1742 
Q 1991 1309 1228 531 
z
" transform="scale(0.015625)"/>
     </defs>
     <use xlink:href="#DejaVuSans-32"/>
    </g>
   </g>
   <g id="text_5">
    <!-- 19 -->
    <g transform="translate(63.209165 209.628945) scale(0.1 -0.1)">
     <defs>
      <path id="DejaVuSans-39" d="M 703 97 
L 703 672 
Q 941 559 1184 500 
Q 1428 441 1663 441 
Q 2288 441 2617 861 
Q 2947 1281 2994 2138 
Q 2813 1869 2534 1725 
Q 2256 1581 1919 1581 
Q 1219 1581 811 2004 
Q 403 2428 403 3163 
Q 403 3881 828 4315 
Q 1253 4750 1959 4750 
Q 2769 4750 3195 4129 
Q 3622 3509 3622 2328 
Q 3622 1225 3098 567 
Q 2575 -91 1691 -91 
Q 1453 -91 1209 -44 
Q 966 3 703 97 
z
M 1959 2075 
Q 2384 2075 2632 2365 
Q 2881 2656 2881 3163 
Q 2881 3666 2632 3958 
Q 2384 4250 1959 4250 
Q 1534 4250 1286 3958 
Q 1038 3666 1038 3163 
Q 1038 2656 1286 2365 
Q 1534 2075 1959 2075 
z
" transform="scale(0.015625)"/>
     </defs>
     <use xlink:href="#DejaVuSans-31"/>
     <use xlink:href="#DejaVuSans-39" x="63.623047"/>
    </g>
   </g>
   <g id="text_6">
    <!-- 1 -->
    <g transform="translate(206.958501 241.501394) scale(0.1 -0.1)">
     <use xlink:href="#DejaVuSans-31"/>
    </g>
   </g>
   <g id="text_7">
    <!-- 202 -->
    <g transform="translate(133.635741 158.721647) scale(0.1 -0.1)">
     <defs>
      <path id="DejaVuSans-30" d="M 2034 4250 
Q 1547 4250 1301 3770 
Q 1056 3291 1056 2328 
Q 1056 1369 1301 889 
Q 1547 409 2034 409 
Q 2525 409 2770 889 
Q 3016 1369 3016 2328 
Q 3016 3291 2770 3770 
Q 2525 4250 2034 4250 
z
M 2034 4750 
Q 2819 4750 3233 4129 
Q 3647 3509 3647 2328 
Q 3647 1150 3233 529 
Q 2819 -91 2034 -91 
Q 1250 -91 836 529 
Q 422 1150 422 2328 
Q 422 3509 836 4129 
Q 1250 4750 2034 4750 
z
" transform="scale(0.015625)"/>
     </defs>
     <use xlink:href="#DejaVuSans-32"/>
     <use xlink:href="#DejaVuSans-30" x="63.623047"/>
     <use xlink:href="#DejaVuSans-32" x="127.246094"/>
    </g>
   </g>
   <g id="text_8">
    <!-- pLink -->
    <g transform="translate(50.642913 42.370381) scale(0.12 -0.12)">
     <defs>
      <path id="DejaVuSans-70" d="M 1159 525 
L 1159 -1331 
L 581 -1331 
L 581 3500 
L 1159 3500 
L 1159 2969 
Q 1341 3281 1617 3432 
Q 1894 3584 2278 3584 
Q 2916 3584 3314 3078 
Q 3713 2572 3713 1747 
Q 3713 922 3314 415 
Q 2916 -91 2278 -91 
Q 1894 -91 1617 61 
Q 1341 213 1159 525 
z
M 3116 1747 
Q 3116 2381 2855 2742 
Q 2594 3103 2138 3103 
Q 1681 3103 1420 2742 
Q 1159 2381 1159 1747 
Q 1159 1113 1420 752 
Q 1681 391 2138 391 
Q 2594 391 2855 752 
Q 3116 1113 3116 1747 
z
" transform="scale(0.015625)"/>
      <path id="DejaVuSans-4c" d="M 628 4666 
L 1259 4666 
L 1259 531 
L 3531 531 
L 3531 0 
L 628 0 
L 628 4666 
z
" transform="scale(0.015625)"/>
      <path id="DejaVuSans-69" d="M 603 3500 
L 1178 3500 
L 1178 0 
L 603 0 
L 603 3500 
z
M 603 4863 
L 1178 4863 
L 1178 4134 
L 603 4134 
L 603 4863 
z
" transform="scale(0.015625)"/>
      <path id="DejaVuSans-6e" d="M 3513 2113 
L 3513 0 
L 2938 0 
L 2938 2094 
Q 2938 2591 2744 2837 
Q 2550 3084 2163 3084 
Q 1697 3084 1428 2787 
Q 1159 2491 1159 1978 
L 1159 0 
L 581 0 
L 581 3500 
L 1159 3500 
L 1159 2956 
Q 1366 3272 1645 3428 
Q 1925 3584 2291 3584 
Q 2894 3584 3203 3211 
Q 3513 2838 3513 2113 
z
" transform="scale(0.015625)"/>
      <path id="DejaVuSans-6b" d="M 581 4863 
L 1159 4863 
L 1159 1991 
L 2875 3500 
L 3609 3500 
L 1753 1863 
L 3688 0 
L 2938 0 
L 1159 1709 
L 1159 0 
L 581 0 
L 581 4863 
z
" transform="scale(0.015625)"/>
     </defs>
     <use xlink:href="#DejaVuSans-70"/>
     <use xlink:href="#DejaVuSans-4c" x="63.476562"/>
     <use xlink:href="#DejaVuSans-69" x="119.189453"/>
     <use xlink:href="#DejaVuSans-6e" x="146.972656"/>
     <use xlink:href="#DejaVuSans-6b" x="210.351562"/>
    </g>
   </g>
   <g id="text_9">
    <!-- MaxLynx -->
    <g transform="translate(203.921914 48.261167) scale(0.12 -0.12)">
     <defs>
      <path id="DejaVuSans-4d" d="M 628 4666 
L 1569 4666 
L 2759 1491 
L 3956 4666 
L 4897 4666 
L 4897 0 
L 4281 0 
L 4281 4097 
L 3078 897 
L 2444 897 
L 1241 4097 
L 1241 0 
L 628 0 
L 628 4666 
z
" transform="scale(0.015625)"/>
      <path id="DejaVuSans-61" d="M 2194 1759 
Q 1497 1759 1228 1600 
Q 959 1441 959 1056 
Q 959 750 1161 570 
Q 1363 391 1709 391 
Q 2188 391 2477 730 
Q 2766 1069 2766 1631 
L 2766 1759 
L 2194 1759 
z
M 3341 1997 
L 3341 0 
L 2766 0 
L 2766 531 
Q 2569 213 2275 61 
Q 1981 -91 1556 -91 
Q 1019 -91 701 211 
Q 384 513 384 1019 
Q 384 1609 779 1909 
Q 1175 2209 1959 2209 
L 2766 2209 
L 2766 2266 
Q 2766 2663 2505 2880 
Q 2244 3097 1772 3097 
Q 1472 3097 1187 3025 
Q 903 2953 641 2809 
L 641 3341 
Q 956 3463 1253 3523 
Q 1550 3584 1831 3584 
Q 2591 3584 2966 3190 
Q 3341 2797 3341 1997 
z
" transform="scale(0.015625)"/>
      <path id="DejaVuSans-78" d="M 3513 3500 
L 2247 1797 
L 3578 0 
L 2900 0 
L 1881 1375 
L 863 0 
L 184 0 
L 1544 1831 
L 300 3500 
L 978 3500 
L 1906 2253 
L 2834 3500 
L 3513 3500 
z
" transform="scale(0.015625)"/>
      <path id="DejaVuSans-79" d="M 2059 -325 
Q 1816 -950 1584 -1140 
Q 1353 -1331 966 -1331 
L 506 -1331 
L 506 -850 
L 844 -850 
Q 1081 -850 1212 -737 
Q 1344 -625 1503 -206 
L 1606 56 
L 191 3500 
L 800 3500 
L 1894 763 
L 2988 3500 
L 3597 3500 
L 2059 -325 
z
" transform="scale(0.015625)"/>
     </defs>
     <use xlink:href="#DejaVuSans-4d"/>
     <use xlink:href="#DejaVuSans-61" x="86.279297"/>
     <use xlink:href="#DejaVuSans-78" x="147.558594"/>
     <use xlink:href="#DejaVuSans-4c" x="206.738281"/>
     <use xlink:href="#DejaVuSans-79" x="253.326172"/>
     <use xlink:href="#DejaVuSans-6e" x="312.505859"/>
     <use xlink:href="#DejaVuSans-78" x="375.884766"/>
    </g>
   </g>
   <g id="text_10">
    <!-- MS Annika -->
    <g transform="translate(107.325357 287.976737) scale(0.12 -0.12)">
     <defs>
      <path id="DejaVuSans-53" d="M 3425 4513 
L 3425 3897 
Q 3066 4069 2747 4153 
Q 2428 4238 2131 4238 
Q 1616 4238 1336 4038 
Q 1056 3838 1056 3469 
Q 1056 3159 1242 3001 
Q 1428 2844 1947 2747 
L 2328 2669 
Q 3034 2534 3370 2195 
Q 3706 1856 3706 1288 
Q 3706 609 3251 259 
Q 2797 -91 1919 -91 
Q 1588 -91 1214 -16 
Q 841 59 441 206 
L 441 856 
Q 825 641 1194 531 
Q 1563 422 1919 422 
Q 2459 422 2753 634 
Q 3047 847 3047 1241 
Q 3047 1584 2836 1778 
Q 2625 1972 2144 2069 
L 1759 2144 
Q 1053 2284 737 2584 
Q 422 2884 422 3419 
Q 422 4038 858 4394 
Q 1294 4750 2059 4750 
Q 2388 4750 2728 4690 
Q 3069 4631 3425 4513 
z
" transform="scale(0.015625)"/>
      <path id="DejaVuSans-20" transform="scale(0.015625)"/>
      <path id="DejaVuSans-41" d="M 2188 4044 
L 1331 1722 
L 3047 1722 
L 2188 4044 
z
M 1831 4666 
L 2547 4666 
L 4325 0 
L 3669 0 
L 3244 1197 
L 1141 1197 
L 716 0 
L 50 0 
L 1831 4666 
z
" transform="scale(0.015625)"/>
     </defs>
     <use xlink:href="#DejaVuSans-4d"/>
     <use xlink:href="#DejaVuSans-53" x="86.279297"/>
     <use xlink:href="#DejaVuSans-20" x="149.755859"/>
     <use xlink:href="#DejaVuSans-41" x="181.542969"/>
     <use xlink:href="#DejaVuSans-6e" x="249.951172"/>
     <use xlink:href="#DejaVuSans-6e" x="313.330078"/>
     <use xlink:href="#DejaVuSans-69" x="376.708984"/>
     <use xlink:href="#DejaVuSans-6b" x="404.492188"/>
     <use xlink:href="#DejaVuSans-61" x="460.652344"/>
    </g>
   </g>
   <g id="text_11">
    <!-- Venn Diagram of R1 -->
    <g transform="translate(81.718154 16.318125) scale(0.12 -0.12)">
     <defs>
      <path id="DejaVuSans-56" d="M 1831 0 
L 50 4666 
L 709 4666 
L 2188 738 
L 3669 4666 
L 4325 4666 
L 2547 0 
L 1831 0 
z
" transform="scale(0.015625)"/>
      <path id="DejaVuSans-65" d="M 3597 1894 
L 3597 1613 
L 953 1613 
Q 991 1019 1311 708 
Q 1631 397 2203 397 
Q 2534 397 2845 478 
Q 3156 559 3463 722 
L 3463 178 
Q 3153 47 2828 -22 
Q 2503 -91 2169 -91 
Q 1331 -91 842 396 
Q 353 884 353 1716 
Q 353 2575 817 3079 
Q 1281 3584 2069 3584 
Q 2775 3584 3186 3129 
Q 3597 2675 3597 1894 
z
M 3022 2063 
Q 3016 2534 2758 2815 
Q 2500 3097 2075 3097 
Q 1594 3097 1305 2825 
Q 1016 2553 972 2059 
L 3022 2063 
z
" transform="scale(0.015625)"/>
      <path id="DejaVuSans-44" d="M 1259 4147 
L 1259 519 
L 2022 519 
Q 2988 519 3436 956 
Q 3884 1394 3884 2338 
Q 3884 3275 3436 3711 
Q 2988 4147 2022 4147 
L 1259 4147 
z
M 628 4666 
L 1925 4666 
Q 3281 4666 3915 4102 
Q 4550 3538 4550 2338 
Q 4550 1131 3912 565 
Q 3275 0 1925 0 
L 628 0 
L 628 4666 
z
" transform="scale(0.015625)"/>
      <path id="DejaVuSans-67" d="M 2906 1791 
Q 2906 2416 2648 2759 
Q 2391 3103 1925 3103 
Q 1463 3103 1205 2759 
Q 947 2416 947 1791 
Q 947 1169 1205 825 
Q 1463 481 1925 481 
Q 2391 481 2648 825 
Q 2906 1169 2906 1791 
z
M 3481 434 
Q 3481 -459 3084 -895 
Q 2688 -1331 1869 -1331 
Q 1566 -1331 1297 -1286 
Q 1028 -1241 775 -1147 
L 775 -588 
Q 1028 -725 1275 -790 
Q 1522 -856 1778 -856 
Q 2344 -856 2625 -561 
Q 2906 -266 2906 331 
L 2906 616 
Q 2728 306 2450 153 
Q 2172 0 1784 0 
Q 1141 0 747 490 
Q 353 981 353 1791 
Q 353 2603 747 3093 
Q 1141 3584 1784 3584 
Q 2172 3584 2450 3431 
Q 2728 3278 2906 2969 
L 2906 3500 
L 3481 3500 
L 3481 434 
z
" transform="scale(0.015625)"/>
      <path id="DejaVuSans-72" d="M 2631 2963 
Q 2534 3019 2420 3045 
Q 2306 3072 2169 3072 
Q 1681 3072 1420 2755 
Q 1159 2438 1159 1844 
L 1159 0 
L 581 0 
L 581 3500 
L 1159 3500 
L 1159 2956 
Q 1341 3275 1631 3429 
Q 1922 3584 2338 3584 
Q 2397 3584 2469 3576 
Q 2541 3569 2628 3553 
L 2631 2963 
z
" transform="scale(0.015625)"/>
      <path id="DejaVuSans-6d" d="M 3328 2828 
Q 3544 3216 3844 3400 
Q 4144 3584 4550 3584 
Q 5097 3584 5394 3201 
Q 5691 2819 5691 2113 
L 5691 0 
L 5113 0 
L 5113 2094 
Q 5113 2597 4934 2840 
Q 4756 3084 4391 3084 
Q 3944 3084 3684 2787 
Q 3425 2491 3425 1978 
L 3425 0 
L 2847 0 
L 2847 2094 
Q 2847 2600 2669 2842 
Q 2491 3084 2119 3084 
Q 1678 3084 1418 2786 
Q 1159 2488 1159 1978 
L 1159 0 
L 581 0 
L 581 3500 
L 1159 3500 
L 1159 2956 
Q 1356 3278 1631 3431 
Q 1906 3584 2284 3584 
Q 2666 3584 2933 3390 
Q 3200 3197 3328 2828 
z
" transform="scale(0.015625)"/>
      <path id="DejaVuSans-6f" d="M 1959 3097 
Q 1497 3097 1228 2736 
Q 959 2375 959 1747 
Q 959 1119 1226 758 
Q 1494 397 1959 397 
Q 2419 397 2687 759 
Q 2956 1122 2956 1747 
Q 2956 2369 2687 2733 
Q 2419 3097 1959 3097 
z
M 1959 3584 
Q 2709 3584 3137 3096 
Q 3566 2609 3566 1747 
Q 3566 888 3137 398 
Q 2709 -91 1959 -91 
Q 1206 -91 779 398 
Q 353 888 353 1747 
Q 353 2609 779 3096 
Q 1206 3584 1959 3584 
z
" transform="scale(0.015625)"/>
      <path id="DejaVuSans-66" d="M 2375 4863 
L 2375 4384 
L 1825 4384 
Q 1516 4384 1395 4259 
Q 1275 4134 1275 3809 
L 1275 3500 
L 2222 3500 
L 2222 3053 
L 1275 3053 
L 1275 0 
L 697 0 
L 697 3053 
L 147 3053 
L 147 3500 
L 697 3500 
L 697 3744 
Q 697 4328 969 4595 
Q 1241 4863 1831 4863 
L 2375 4863 
z
" transform="scale(0.015625)"/>
      <path id="DejaVuSans-52" d="M 2841 2188 
Q 3044 2119 3236 1894 
Q 3428 1669 3622 1275 
L 4263 0 
L 3584 0 
L 2988 1197 
Q 2756 1666 2539 1819 
Q 2322 1972 1947 1972 
L 1259 1972 
L 1259 0 
L 628 0 
L 628 4666 
L 2053 4666 
Q 2853 4666 3247 4331 
Q 3641 3997 3641 3322 
Q 3641 2881 3436 2590 
Q 3231 2300 2841 2188 
z
M 1259 4147 
L 1259 2491 
L 2053 2491 
Q 2509 2491 2742 2702 
Q 2975 2913 2975 3322 
Q 2975 3731 2742 3939 
Q 2509 4147 2053 4147 
L 1259 4147 
z
" transform="scale(0.015625)"/>
     </defs>
     <use xlink:href="#DejaVuSans-56"/>
     <use xlink:href="#DejaVuSans-65" x="60.658203"/>
     <use xlink:href="#DejaVuSans-6e" x="122.181641"/>
     <use xlink:href="#DejaVuSans-6e" x="185.560547"/>
     <use xlink:href="#DejaVuSans-20" x="248.939453"/>
     <use xlink:href="#DejaVuSans-44" x="280.726562"/>
     <use xlink:href="#DejaVuSans-69" x="357.728516"/>
     <use xlink:href="#DejaVuSans-61" x="385.511719"/>
     <use xlink:href="#DejaVuSans-67" x="446.791016"/>
     <use xlink:href="#DejaVuSans-72" x="510.267578"/>
     <use xlink:href="#DejaVuSans-61" x="551.380859"/>
     <use xlink:href="#DejaVuSans-6d" x="612.660156"/>
     <use xlink:href="#DejaVuSans-20" x="710.072266"/>
     <use xlink:href="#DejaVuSans-6f" x="741.859375"/>
     <use xlink:href="#DejaVuSans-66" x="803.041016"/>
     <use xlink:href="#DejaVuSans-20" x="838.246094"/>
     <use xlink:href="#DejaVuSans-52" x="870.033203"/>
     <use xlink:href="#DejaVuSans-31" x="939.515625"/>
    </g>
   </g>
  </g>
 </g>
 <defs>
  <clipPath id="pf58906c2bd">
   <rect x="7.2" y="22.318125" width="269.411309" height="266.112"/>
  </clipPath>
 </defs>
</svg>
