<?xml version="1.0" encoding="utf-8" standalone="no"?>
<!DOCTYPE svg PUBLIC "-//W3C//DTD SVG 1.1//EN"
  "http://www.w3.org/Graphics/SVG/1.1/DTD/svg11.dtd">
<svg xmlns:xlink="http://www.w3.org/1999/xlink" width="288.013965pt" height="281.845663pt" viewBox="0 0 288.013965 281.845663" xmlns="http://www.w3.org/2000/svg" version="1.1">
 <metadata>
  <rdf:RDF xmlns:dc="http://purl.org/dc/elements/1.1/" xmlns:cc="http://creativecommons.org/ns#" xmlns:rdf="http://www.w3.org/1999/02/22-rdf-syntax-ns#">
   <cc:Work>
    <dc:type rdf:resource="http://purl.org/dc/dcmitype/StillImage"/>
    <dc:date>2024-07-02T15:19:19.904213</dc:date>
    <dc:format>image/svg+xml</dc:format>
    <dc:creator>
     <cc:Agent>
      <dc:title>Matplotlib v3.9.0, https://matplotlib.org/</dc:title>
     </cc:Agent>
    </dc:creator>
   </cc:Work>
  </rdf:RDF>
 </metadata>
 <defs>
  <style type="text/css">*{stroke-linejoin: round; stroke-linecap: butt}</style>
 </defs>
 <g id="figure_1">
  <g id="patch_1">
   <path d="M 0 281.845663 
L 288.013965 281.845663 
L 288.013965 0 
L 0 0 
L 0 281.845663 
z
" style="fill: none"/>
  </g>
  <g id="axes_1">
   <g id="patch_2">
    <path d="M 166.789553 31.867934 
C 141.636455 24.439055 114.624356 26.367161 90.781432 37.293345 
C 66.938507 48.219529 47.842041 67.420989 37.046751 91.323463 
C 26.251461 115.225937 24.47149 142.248202 32.038171 167.360189 
C 39.604852 192.472176 56.017626 214.012649 78.22133 227.971949 
C 62.352115 213.860558 51.41515 195.02833 47.022836 174.251638 
C 42.630522 153.474947 45.009862 131.827573 53.810079 112.50092 
C 59.551876 87.59323 74.218274 65.629281 95.023863 50.780418 
C 115.829451 35.931555 141.368096 29.20133 166.789553 31.867934 
" clip-path="url(#p3b6e056272)" style="fill: #00b4d8; opacity: 0.6"/>
   </g>
   <g id="patch_3">
    <path d="M 166.789553 31.867934 
C 191.690743 39.222413 213.147487 55.268198 227.241084 77.074806 
C 241.334682 98.881414 247.15153 125.035255 243.629282 150.759784 
C 244.003608 163.441883 241.94633 176.079157 237.568789 187.987679 
C 233.191248 199.896201 226.573865 210.857193 218.074773 220.277447 
C 235.057744 207.737174 247.858573 190.35013 254.78926 170.409084 
C 261.719948 150.468038 262.461846 128.889806 256.917123 108.519833 
C 251.3724 88.14986 239.795982 69.924683 223.714411 56.247592 
C 207.63284 42.570501 187.785487 34.070319 166.789553 31.867934 
" clip-path="url(#p3b6e056272)" style="fill: #caf0f8; opacity: 0.6"/>
   </g>
   <g id="patch_4">
    <path d="M 166.789553 31.867934 
C 141.368096 29.20133 115.829451 35.931555 95.023863 50.780418 
C 74.218274 65.629281 59.551876 87.59323 53.810079 112.50092 
C 63.111574 92.073384 79.063489 75.38659 99.05168 65.175113 
C 119.039872 54.963637 141.909384 51.817515 163.912441 56.252325 
C 185.915498 60.687134 205.780722 72.446622 220.252668 89.603685 
C 234.724615 106.760749 242.967068 128.32402 243.629282 150.759784 
C 247.15153 125.035255 241.334682 98.881414 227.241084 77.074806 
C 213.147487 55.268198 191.690743 39.222413 166.789553 31.867934 
" clip-path="url(#p3b6e056272)" style="fill: #8dffff; opacity: 0.6"/>
   </g>
   <g id="patch_5">
    <path d="M 78.22133 227.971949 
C 97.821415 245.400942 123.544652 254.382722 149.733523 252.941854 
C 175.922395 251.500987 200.505031 239.751462 218.074773 220.277447 
C 210.600255 225.796652 202.424391 230.296714 193.762695 233.659013 
C 185.100998 237.021312 176.03025 239.216043 166.789553 240.185353 
C 152.005955 244.551637 136.460775 245.720873 121.19038 243.615112 
C 105.919985 241.509351 91.271438 236.176452 78.22133 227.971949 
" clip-path="url(#p3b6e056272)" style="fill: #03045e; opacity: 0.6"/>
   </g>
   <g id="patch_6">
    <path d="M 78.22133 227.971949 
C 91.271438 236.176452 105.919985 241.509351 121.19038 243.615112 
C 136.460775 245.720873 152.005955 244.551637 166.789553 240.185353 
C 150.204128 241.925094 133.440562 239.678532 117.898446 233.633233 
C 102.35633 227.587933 88.480584 217.916953 77.429694 205.427724 
C 66.378805 192.938495 58.469123 177.988541 54.361027 161.826036 
C 50.252932 145.663531 50.064026 128.751154 53.810079 112.50092 
C 45.009862 131.827573 42.630522 153.474947 47.022836 174.251638 
C 51.41515 195.02833 62.352115 213.860558 78.22133 227.971949 
" clip-path="url(#p3b6e056272)" style="fill: #0281d9; opacity: 0.6"/>
   </g>
   <g id="patch_7">
    <path d="M 243.629282 150.759784 
C 240.792293 171.47957 232.030135 190.945502 218.400725 206.807319 
C 204.771316 222.669136 186.846182 234.261698 166.789553 240.185353 
C 176.03025 239.216043 185.100998 237.021312 193.762695 233.659013 
C 202.424391 230.296714 210.600255 225.796652 218.074773 220.277447 
C 226.573865 210.857193 233.191248 199.896201 237.568789 187.987679 
C 241.94633 176.079157 244.003608 163.441883 243.629282 150.759784 
" clip-path="url(#p3b6e056272)" style="fill: #8fabef; opacity: 0.6"/>
   </g>
   <g id="patch_8">
    <path d="M 53.810079 112.50092 
C 50.064026 128.751154 50.252932 145.663531 54.361027 161.826036 
C 58.469123 177.988541 66.378805 192.938495 77.429694 205.427724 
C 88.480584 217.916953 102.35633 227.587933 117.898446 233.633233 
C 133.440562 239.678532 150.204128 241.925094 166.789553 240.185353 
C 186.846182 234.261698 204.771316 222.669136 218.400725 206.807319 
C 232.030135 190.945502 240.792293 171.47957 243.629282 150.759784 
C 242.967068 128.32402 234.724615 106.760749 220.252668 89.603685 
C 205.780722 72.446622 185.915498 60.687134 163.912441 56.252325 
C 141.909384 51.817515 119.039872 54.963637 99.05168 65.175113 
C 79.063489 75.38659 63.111574 92.073384 53.810079 112.50092 
" clip-path="url(#p3b6e056272)" style="fill: #52aadf; opacity: 0.6"/>
   </g>
   <g id="text_1">
    <!-- 27 -->
    <g transform="translate(47.986408 102.438227) scale(0.1 -0.1)">
     <defs>
      <path id="DejaVuSans-32" d="M 1228 531 
L 3431 531 
L 3431 0 
L 469 0 
L 469 531 
Q 828 903 1448 1529 
Q 2069 2156 2228 2338 
Q 2531 2678 2651 2914 
Q 2772 3150 2772 3378 
Q 2772 3750 2511 3984 
Q 2250 4219 1831 4219 
Q 1534 4219 1204 4116 
Q 875 4013 500 3803 
L 500 4441 
Q 881 4594 1212 4672 
Q 1544 4750 1819 4750 
Q 2544 4750 2975 4387 
Q 3406 4025 3406 3419 
Q 3406 3131 3298 2873 
Q 3191 2616 2906 2266 
Q 2828 2175 2409 1742 
Q 1991 1309 1228 531 
z
" transform="scale(0.015625)"/>
      <path id="DejaVuSans-37" d="M 525 4666 
L 3525 4666 
L 3525 4397 
L 1831 0 
L 1172 0 
L 2766 4134 
L 525 4134 
L 525 4666 
z
" transform="scale(0.015625)"/>
     </defs>
     <use xlink:href="#DejaVuSans-32"/>
     <use xlink:href="#DejaVuSans-37" x="63.623047"/>
    </g>
   </g>
   <g id="text_2">
    <!-- 17 -->
    <g transform="translate(238.141739 114.77705) scale(0.1 -0.1)">
     <defs>
      <path id="DejaVuSans-31" d="M 794 531 
L 1825 531 
L 1825 4091 
L 703 3866 
L 703 4441 
L 1819 4666 
L 2450 4666 
L 2450 531 
L 3481 531 
L 3481 0 
L 794 0 
L 794 531 
z
" transform="scale(0.015625)"/>
     </defs>
     <use xlink:href="#DejaVuSans-31"/>
     <use xlink:href="#DejaVuSans-37" x="63.623047"/>
    </g>
   </g>
   <g id="text_3">
    <!-- 28 -->
    <g transform="translate(155.768108 62.907461) scale(0.1 -0.1)">
     <defs>
      <path id="DejaVuSans-38" d="M 2034 2216 
Q 1584 2216 1326 1975 
Q 1069 1734 1069 1313 
Q 1069 891 1326 650 
Q 1584 409 2034 409 
Q 2484 409 2743 651 
Q 3003 894 3003 1313 
Q 3003 1734 2745 1975 
Q 2488 2216 2034 2216 
z
M 1403 2484 
Q 997 2584 770 2862 
Q 544 3141 544 3541 
Q 544 4100 942 4425 
Q 1341 4750 2034 4750 
Q 2731 4750 3128 4425 
Q 3525 4100 3525 3541 
Q 3525 3141 3298 2862 
Q 3072 2584 2669 2484 
Q 3125 2378 3379 2068 
Q 3634 1759 3634 1313 
Q 3634 634 3220 271 
Q 2806 -91 2034 -91 
Q 1263 -91 848 271 
Q 434 634 434 1313 
Q 434 1759 690 2068 
Q 947 2378 1403 2484 
z
M 1172 3481 
Q 1172 3119 1398 2916 
Q 1625 2713 2034 2713 
Q 2441 2713 2670 2916 
Q 2900 3119 2900 3481 
Q 2900 3844 2670 4047 
Q 2441 4250 2034 4250 
Q 1625 4250 1398 4047 
Q 1172 3844 1172 3481 
z
" transform="scale(0.015625)"/>
     </defs>
     <use xlink:href="#DejaVuSans-32"/>
     <use xlink:href="#DejaVuSans-38" x="63.623047"/>
    </g>
   </g>
   <g id="text_4">
    <!-- 6 -->
    <g transform="translate(146.275613 249.530989) scale(0.1 -0.1)">
     <defs>
      <path id="DejaVuSans-36" d="M 2113 2584 
Q 1688 2584 1439 2293 
Q 1191 2003 1191 1497 
Q 1191 994 1439 701 
Q 1688 409 2113 409 
Q 2538 409 2786 701 
Q 3034 994 3034 1497 
Q 3034 2003 2786 2293 
Q 2538 2584 2113 2584 
z
M 3366 4563 
L 3366 3988 
Q 3128 4100 2886 4159 
Q 2644 4219 2406 4219 
Q 1781 4219 1451 3797 
Q 1122 3375 1075 2522 
Q 1259 2794 1537 2939 
Q 1816 3084 2150 3084 
Q 2853 3084 3261 2657 
Q 3669 2231 3669 1497 
Q 3669 778 3244 343 
Q 2819 -91 2113 -91 
Q 1303 -91 875 529 
Q 447 1150 447 2328 
Q 447 3434 972 4092 
Q 1497 4750 2381 4750 
Q 2619 4750 2861 4703 
Q 3103 4656 3366 4563 
z
" transform="scale(0.015625)"/>
     </defs>
     <use xlink:href="#DejaVuSans-36"/>
    </g>
   </g>
   <g id="text_5">
    <!-- 14 -->
    <g transform="translate(70.687556 206.388496) scale(0.1 -0.1)">
     <defs>
      <path id="DejaVuSans-34" d="M 2419 4116 
L 825 1625 
L 2419 1625 
L 2419 4116 
z
M 2253 4666 
L 3047 4666 
L 3047 1625 
L 3713 1625 
L 3713 1100 
L 3047 1100 
L 3047 0 
L 2419 0 
L 2419 1100 
L 313 1100 
L 313 1709 
L 2253 4666 
z
" transform="scale(0.015625)"/>
     </defs>
     <use xlink:href="#DejaVuSans-31"/>
     <use xlink:href="#DejaVuSans-34" x="63.623047"/>
    </g>
   </g>
   <g id="text_6">
    <!-- 5 -->
    <g transform="translate(215.849938 209.526851) scale(0.1 -0.1)">
     <defs>
      <path id="DejaVuSans-35" d="M 691 4666 
L 3169 4666 
L 3169 4134 
L 1269 4134 
L 1269 2991 
Q 1406 3038 1543 3061 
Q 1681 3084 1819 3084 
Q 2600 3084 3056 2656 
Q 3513 2228 3513 1497 
Q 3513 744 3044 326 
Q 2575 -91 1722 -91 
Q 1428 -91 1123 -41 
Q 819 9 494 109 
L 494 744 
Q 775 591 1075 516 
Q 1375 441 1709 441 
Q 2250 441 2565 725 
Q 2881 1009 2881 1497 
Q 2881 1984 2565 2268 
Q 2250 2553 1709 2553 
Q 1456 2553 1204 2497 
Q 953 2441 691 2322 
L 691 4666 
z
" transform="scale(0.015625)"/>
     </defs>
     <use xlink:href="#DejaVuSans-35"/>
    </g>
   </g>
   <g id="text_7">
    <!-- 202 -->
    <g transform="translate(136.589098 138.618212) scale(0.1 -0.1)">
     <defs>
      <path id="DejaVuSans-30" d="M 2034 4250 
Q 1547 4250 1301 3770 
Q 1056 3291 1056 2328 
Q 1056 1369 1301 889 
Q 1547 409 2034 409 
Q 2525 409 2770 889 
Q 3016 1369 3016 2328 
Q 3016 3291 2770 3770 
Q 2525 4250 2034 4250 
z
M 2034 4750 
Q 2819 4750 3233 4129 
Q 3647 3509 3647 2328 
Q 3647 1150 3233 529 
Q 2819 -91 2034 -91 
Q 1250 -91 836 529 
Q 422 1150 422 2328 
Q 422 3509 836 4129 
Q 1250 4750 2034 4750 
z
" transform="scale(0.015625)"/>
     </defs>
     <use xlink:href="#DejaVuSans-32"/>
     <use xlink:href="#DejaVuSans-30" x="63.623047"/>
     <use xlink:href="#DejaVuSans-32" x="127.246094"/>
    </g>
   </g>
   <g id="text_8">
    <!-- pLink -->
    <g transform="translate(49.531469 27.420044) scale(0.12 -0.12)">
     <defs>
      <path id="DejaVuSans-70" d="M 1159 525 
L 1159 -1331 
L 581 -1331 
L 581 3500 
L 1159 3500 
L 1159 2969 
Q 1341 3281 1617 3432 
Q 1894 3584 2278 3584 
Q 2916 3584 3314 3078 
Q 3713 2572 3713 1747 
Q 3713 922 3314 415 
Q 2916 -91 2278 -91 
Q 1894 -91 1617 61 
Q 1341 213 1159 525 
z
M 3116 1747 
Q 3116 2381 2855 2742 
Q 2594 3103 2138 3103 
Q 1681 3103 1420 2742 
Q 1159 2381 1159 1747 
Q 1159 1113 1420 752 
Q 1681 391 2138 391 
Q 2594 391 2855 752 
Q 3116 1113 3116 1747 
z
" transform="scale(0.015625)"/>
      <path id="DejaVuSans-4c" d="M 628 4666 
L 1259 4666 
L 1259 531 
L 3531 531 
L 3531 0 
L 628 0 
L 628 4666 
z
" transform="scale(0.015625)"/>
      <path id="DejaVuSans-69" d="M 603 3500 
L 1178 3500 
L 1178 0 
L 603 0 
L 603 3500 
z
M 603 4863 
L 1178 4863 
L 1178 4134 
L 603 4134 
L 603 4863 
z
" transform="scale(0.015625)"/>
      <path id="DejaVuSans-6e" d="M 3513 2113 
L 3513 0 
L 2938 0 
L 2938 2094 
Q 2938 2591 2744 2837 
Q 2550 3084 2163 3084 
Q 1697 3084 1428 2787 
Q 1159 2491 1159 1978 
L 1159 0 
L 581 0 
L 581 3500 
L 1159 3500 
L 1159 2956 
Q 1366 3272 1645 3428 
Q 1925 3584 2291 3584 
Q 2894 3584 3203 3211 
Q 3513 2838 3513 2113 
z
" transform="scale(0.015625)"/>
      <path id="DejaVuSans-6b" d="M 581 4863 
L 1159 4863 
L 1159 1991 
L 2875 3500 
L 3609 3500 
L 1753 1863 
L 3688 0 
L 2938 0 
L 1159 1709 
L 1159 0 
L 581 0 
L 581 4863 
z
" transform="scale(0.015625)"/>
     </defs>
     <use xlink:href="#DejaVuSans-70"/>
     <use xlink:href="#DejaVuSans-4c" x="63.476562"/>
     <use xlink:href="#DejaVuSans-69" x="119.189453"/>
     <use xlink:href="#DejaVuSans-6e" x="146.972656"/>
     <use xlink:href="#DejaVuSans-6b" x="210.351562"/>
    </g>
   </g>
   <g id="text_9">
    <!-- MaxLynx -->
    <g transform="translate(208.228832 31.296466) scale(0.12 -0.12)">
     <defs>
      <path id="DejaVuSans-4d" d="M 628 4666 
L 1569 4666 
L 2759 1491 
L 3956 4666 
L 4897 4666 
L 4897 0 
L 4281 0 
L 4281 4097 
L 3078 897 
L 2444 897 
L 1241 4097 
L 1241 0 
L 628 0 
L 628 4666 
z
" transform="scale(0.015625)"/>
      <path id="DejaVuSans-61" d="M 2194 1759 
Q 1497 1759 1228 1600 
Q 959 1441 959 1056 
Q 959 750 1161 570 
Q 1363 391 1709 391 
Q 2188 391 2477 730 
Q 2766 1069 2766 1631 
L 2766 1759 
L 2194 1759 
z
M 3341 1997 
L 3341 0 
L 2766 0 
L 2766 531 
Q 2569 213 2275 61 
Q 1981 -91 1556 -91 
Q 1019 -91 701 211 
Q 384 513 384 1019 
Q 384 1609 779 1909 
Q 1175 2209 1959 2209 
L 2766 2209 
L 2766 2266 
Q 2766 2663 2505 2880 
Q 2244 3097 1772 3097 
Q 1472 3097 1187 3025 
Q 903 2953 641 2809 
L 641 3341 
Q 956 3463 1253 3523 
Q 1550 3584 1831 3584 
Q 2591 3584 2966 3190 
Q 3341 2797 3341 1997 
z
" transform="scale(0.015625)"/>
      <path id="DejaVuSans-78" d="M 3513 3500 
L 2247 1797 
L 3578 0 
L 2900 0 
L 1881 1375 
L 863 0 
L 184 0 
L 1544 1831 
L 300 3500 
L 978 3500 
L 1906 2253 
L 2834 3500 
L 3513 3500 
z
" transform="scale(0.015625)"/>
      <path id="DejaVuSans-79" d="M 2059 -325 
Q 1816 -950 1584 -1140 
Q 1353 -1331 966 -1331 
L 506 -1331 
L 506 -850 
L 844 -850 
Q 1081 -850 1212 -737 
Q 1344 -625 1503 -206 
L 1606 56 
L 191 3500 
L 800 3500 
L 1894 763 
L 2988 3500 
L 3597 3500 
L 2059 -325 
z
" transform="scale(0.015625)"/>
     </defs>
     <use xlink:href="#DejaVuSans-4d"/>
     <use xlink:href="#DejaVuSans-61" x="86.279297"/>
     <use xlink:href="#DejaVuSans-78" x="147.558594"/>
     <use xlink:href="#DejaVuSans-4c" x="206.738281"/>
     <use xlink:href="#DejaVuSans-79" x="253.326172"/>
     <use xlink:href="#DejaVuSans-6e" x="312.505859"/>
     <use xlink:href="#DejaVuSans-78" x="375.884766"/>
    </g>
   </g>
   <g id="text_10">
    <!-- MS Annika -->
    <g transform="translate(112.957672 272.150038) scale(0.12 -0.12)">
     <defs>
      <path id="DejaVuSans-53" d="M 3425 4513 
L 3425 3897 
Q 3066 4069 2747 4153 
Q 2428 4238 2131 4238 
Q 1616 4238 1336 4038 
Q 1056 3838 1056 3469 
Q 1056 3159 1242 3001 
Q 1428 2844 1947 2747 
L 2328 2669 
Q 3034 2534 3370 2195 
Q 3706 1856 3706 1288 
Q 3706 609 3251 259 
Q 2797 -91 1919 -91 
Q 1588 -91 1214 -16 
Q 841 59 441 206 
L 441 856 
Q 825 641 1194 531 
Q 1563 422 1919 422 
Q 2459 422 2753 634 
Q 3047 847 3047 1241 
Q 3047 1584 2836 1778 
Q 2625 1972 2144 2069 
L 1759 2144 
Q 1053 2284 737 2584 
Q 422 2884 422 3419 
Q 422 4038 858 4394 
Q 1294 4750 2059 4750 
Q 2388 4750 2728 4690 
Q 3069 4631 3425 4513 
z
" transform="scale(0.015625)"/>
      <path id="DejaVuSans-20" transform="scale(0.015625)"/>
      <path id="DejaVuSans-41" d="M 2188 4044 
L 1331 1722 
L 3047 1722 
L 2188 4044 
z
M 1831 4666 
L 2547 4666 
L 4325 0 
L 3669 0 
L 3244 1197 
L 1141 1197 
L 716 0 
L 50 0 
L 1831 4666 
z
" transform="scale(0.015625)"/>
     </defs>
     <use xlink:href="#DejaVuSans-4d"/>
     <use xlink:href="#DejaVuSans-53" x="86.279297"/>
     <use xlink:href="#DejaVuSans-20" x="149.755859"/>
     <use xlink:href="#DejaVuSans-41" x="181.542969"/>
     <use xlink:href="#DejaVuSans-6e" x="249.951172"/>
     <use xlink:href="#DejaVuSans-6e" x="313.330078"/>
     <use xlink:href="#DejaVuSans-69" x="376.708984"/>
     <use xlink:href="#DejaVuSans-6b" x="404.492188"/>
     <use xlink:href="#DejaVuSans-61" x="460.652344"/>
    </g>
   </g>
  </g>
 </g>
 <defs>
  <clipPath id="p3b6e056272">
   <rect x="7.2" y="7.2" width="273.613965" height="266.112"/>
  </clipPath>
 </defs>
</svg>
