<?xml version="1.0" encoding="utf-8" standalone="no"?>
<!DOCTYPE svg PUBLIC "-//W3C//DTD SVG 1.1//EN"
  "http://www.w3.org/Graphics/SVG/1.1/DTD/svg11.dtd">
<svg xmlns:xlink="http://www.w3.org/1999/xlink" width="288.267961pt" height="281.987003pt" viewBox="0 0 288.267961 281.987003" xmlns="http://www.w3.org/2000/svg" version="1.1">
 <metadata>
  <rdf:RDF xmlns:dc="http://purl.org/dc/elements/1.1/" xmlns:cc="http://creativecommons.org/ns#" xmlns:rdf="http://www.w3.org/1999/02/22-rdf-syntax-ns#">
   <cc:Work>
    <dc:type rdf:resource="http://purl.org/dc/dcmitype/StillImage"/>
    <dc:date>2024-07-02T15:19:20.405215</dc:date>
    <dc:format>image/svg+xml</dc:format>
    <dc:creator>
     <cc:Agent>
      <dc:title>Matplotlib v3.9.0, https://matplotlib.org/</dc:title>
     </cc:Agent>
    </dc:creator>
   </cc:Work>
  </rdf:RDF>
 </metadata>
 <defs>
  <style type="text/css">*{stroke-linejoin: round; stroke-linecap: butt}</style>
 </defs>
 <g id="figure_1">
  <g id="patch_1">
   <path d="M 0 281.987003 
L 288.267961 281.987003 
L 288.267961 0 
L 0 0 
L 0 281.987003 
z
" style="fill: none"/>
  </g>
  <g id="axes_1">
   <g id="patch_2">
    <path d="M 172.150543 33.334362 
C 147.53566 24.810717 120.66408 25.376717 96.429938 34.929275 
C 72.195796 44.481833 52.165444 62.403528 39.98702 85.430273 
C 27.808596 108.457018 24.269242 135.1005 30.013581 160.508128 
C 35.757921 185.915756 50.414675 208.445331 71.3144 223.99353 
C 54.417798 207.12789 44.1151 184.750977 42.286996 160.947553 
C 40.458892 137.144129 47.223826 113.456422 61.346902 94.208469 
C 70.597461 73.330083 86.455779 56.05793 106.470164 45.062283 
C 126.484548 34.066635 149.567551 29.944923 172.150543 33.334362 
" clip-path="url(#p4a51371500)" style="fill: #00b4d8; opacity: 0.6"/>
   </g>
   <g id="patch_3">
    <path d="M 172.150543 33.334362 
C 199.023367 42.639887 221.221654 62.09183 233.975162 87.510121 
C 246.72867 112.928411 249.053371 142.351834 240.449703 169.457522 
C 238.707785 180.083456 235.259048 190.358146 230.237225 199.883167 
C 225.215401 209.408188 218.686252 218.058809 210.90296 225.499583 
C 229.192768 214.362307 243.614991 197.856374 252.19829 178.23794 
C 260.781588 158.619506 263.116218 136.825107 258.883063 115.833766 
C 254.649908 94.842426 244.051049 75.656219 228.535218 60.897663 
C 213.019388 46.139107 193.327274 36.512738 172.150543 33.334362 
" clip-path="url(#p4a51371500)" style="fill: #caf0f8; opacity: 0.6"/>
   </g>
   <g id="patch_4">
    <path d="M 172.150543 33.334362 
C 149.567551 29.944923 126.484548 34.066635 106.470164 45.062283 
C 86.455779 56.05793 70.597461 73.330083 61.346902 94.208469 
C 74.620667 76.11802 93.610576 63.017379 115.235437 57.032179 
C 136.860298 51.04698 159.883662 52.51944 180.569893 61.210646 
C 201.256124 69.901851 218.422442 85.314865 229.283539 104.94886 
C 240.144637 124.582855 244.079508 147.315216 240.449703 169.457522 
C 249.053371 142.351834 246.72867 112.928411 233.975162 87.510121 
C 221.221654 62.09183 199.023367 42.639887 172.150543 33.334362 
" clip-path="url(#p4a51371500)" style="fill: #8dffff; opacity: 0.6"/>
   </g>
   <g id="patch_5">
    <path d="M 71.3144 223.99353 
C 89.770539 242.41585 114.726415 252.897522 140.801917 253.178857 
C 166.87742 253.460192 192.053638 243.519406 210.90296 225.499583 
C 204.991028 229.099556 198.735279 232.101898 192.228361 234.462145 
C 185.721442 236.822392 178.995634 238.528835 172.150543 239.556202 
C 155.347898 245.374624 137.374953 246.998645 119.801485 244.286422 
C 102.228017 241.574199 85.580999 234.607062 71.3144 223.99353 
" clip-path="url(#p4a51371500)" style="fill: #03045e; opacity: 0.6"/>
   </g>
   <g id="patch_6">
    <path d="M 71.3144 223.99353 
C 85.580999 234.607062 102.228017 241.574199 119.801485 244.286422 
C 137.374953 246.998645 155.347898 245.374624 172.150543 239.556202 
C 153.68106 242.328252 134.801622 240.087596 117.494063 233.069442 
C 100.186505 226.051289 85.078394 214.510114 73.755677 199.657432 
C 62.43296 184.804751 55.306197 167.179117 53.123506 148.63075 
C 50.940815 130.082382 53.78134 111.283842 61.346902 94.208469 
C 47.223826 113.456422 40.458892 137.144129 42.286996 160.947553 
C 44.1151 184.750977 54.417798 207.12789 71.3144 223.99353 
" clip-path="url(#p4a51371500)" style="fill: #0281d9; opacity: 0.6"/>
   </g>
   <g id="patch_7">
    <path d="M 240.449703 169.457522 
C 235.309389 185.65198 226.456978 200.424227 214.599969 212.59364 
C 202.742959 224.763054 188.205875 233.99656 172.150543 239.556202 
C 178.995634 238.528835 185.721442 236.822392 192.228361 234.462145 
C 198.735279 232.101898 204.991028 229.099556 210.90296 225.499583 
C 218.686252 218.058809 225.215401 209.408188 230.237225 199.883167 
C 235.259048 190.358146 238.707785 180.083456 240.449703 169.457522 
" clip-path="url(#p4a51371500)" style="fill: #8fabef; opacity: 0.6"/>
   </g>
   <g id="patch_8">
    <path d="M 61.346902 94.208469 
C 53.78134 111.283842 50.940815 130.082382 53.123506 148.63075 
C 55.306197 167.179117 62.43296 184.804751 73.755677 199.657432 
C 85.078394 214.510114 100.186505 226.051289 117.494063 233.069442 
C 134.801622 240.087596 153.68106 242.328252 172.150543 239.556202 
C 188.205875 233.99656 202.742959 224.763054 214.599969 212.59364 
C 226.456978 200.424227 235.309389 185.65198 240.449703 169.457522 
C 244.079508 147.315216 240.144637 124.582855 229.283539 104.94886 
C 218.422442 85.314865 201.256124 69.901851 180.569893 61.210646 
C 159.883662 52.51944 136.860298 51.04698 115.235437 57.032179 
C 93.610576 63.017379 74.620667 76.11802 61.346902 94.208469 
" clip-path="url(#p4a51371500)" style="fill: #52aadf; opacity: 0.6"/>
   </g>
   <g id="text_1">
    <!-- 21 -->
    <g transform="translate(49.796186 98.013864) scale(0.1 -0.1)">
     <defs>
      <path id="DejaVuSans-32" d="M 1228 531 
L 3431 531 
L 3431 0 
L 469 0 
L 469 531 
Q 828 903 1448 1529 
Q 2069 2156 2228 2338 
Q 2531 2678 2651 2914 
Q 2772 3150 2772 3378 
Q 2772 3750 2511 3984 
Q 2250 4219 1831 4219 
Q 1534 4219 1204 4116 
Q 875 4013 500 3803 
L 500 4441 
Q 881 4594 1212 4672 
Q 1544 4750 1819 4750 
Q 2544 4750 2975 4387 
Q 3406 4025 3406 3419 
Q 3406 3131 3298 2873 
Q 3191 2616 2906 2266 
Q 2828 2175 2409 1742 
Q 1991 1309 1228 531 
z
" transform="scale(0.015625)"/>
      <path id="DejaVuSans-31" d="M 794 531 
L 1825 531 
L 1825 4091 
L 703 3866 
L 703 4441 
L 1819 4666 
L 2450 4666 
L 2450 531 
L 3481 531 
L 3481 0 
L 794 0 
L 794 531 
z
" transform="scale(0.015625)"/>
     </defs>
     <use xlink:href="#DejaVuSans-32"/>
     <use xlink:href="#DejaVuSans-31" x="63.623047"/>
    </g>
   </g>
   <g id="text_2">
    <!-- 13 -->
    <g transform="translate(240.232476 120.856356) scale(0.1 -0.1)">
     <defs>
      <path id="DejaVuSans-33" d="M 2597 2516 
Q 3050 2419 3304 2112 
Q 3559 1806 3559 1356 
Q 3559 666 3084 287 
Q 2609 -91 1734 -91 
Q 1441 -91 1130 -33 
Q 819 25 488 141 
L 488 750 
Q 750 597 1062 519 
Q 1375 441 1716 441 
Q 2309 441 2620 675 
Q 2931 909 2931 1356 
Q 2931 1769 2642 2001 
Q 2353 2234 1838 2234 
L 1294 2234 
L 1294 2753 
L 1863 2753 
Q 2328 2753 2575 2939 
Q 2822 3125 2822 3475 
Q 2822 3834 2567 4026 
Q 2313 4219 1838 4219 
Q 1578 4219 1281 4162 
Q 984 4106 628 3988 
L 628 4550 
Q 988 4650 1302 4700 
Q 1616 4750 1894 4750 
Q 2613 4750 3031 4423 
Q 3450 4097 3450 3541 
Q 3450 3153 3228 2886 
Q 3006 2619 2597 2516 
z
" transform="scale(0.015625)"/>
     </defs>
     <use xlink:href="#DejaVuSans-31"/>
     <use xlink:href="#DejaVuSans-33" x="63.623047"/>
    </g>
   </g>
   <g id="text_3">
    <!-- 28 -->
    <g transform="translate(171.665157 67.520011) scale(0.1 -0.1)">
     <defs>
      <path id="DejaVuSans-38" d="M 2034 2216 
Q 1584 2216 1326 1975 
Q 1069 1734 1069 1313 
Q 1069 891 1326 650 
Q 1584 409 2034 409 
Q 2484 409 2743 651 
Q 3003 894 3003 1313 
Q 3003 1734 2745 1975 
Q 2488 2216 2034 2216 
z
M 1403 2484 
Q 997 2584 770 2862 
Q 544 3141 544 3541 
Q 544 4100 942 4425 
Q 1341 4750 2034 4750 
Q 2731 4750 3128 4425 
Q 3525 4100 3525 3541 
Q 3525 3141 3298 2862 
Q 3072 2584 2669 2484 
Q 3125 2378 3379 2068 
Q 3634 1759 3634 1313 
Q 3634 634 3220 271 
Q 2806 -91 2034 -91 
Q 1263 -91 848 271 
Q 434 634 434 1313 
Q 434 1759 690 2068 
Q 947 2378 1403 2484 
z
M 1172 3481 
Q 1172 3119 1398 2916 
Q 1625 2713 2034 2713 
Q 2441 2713 2670 2916 
Q 2900 3119 2900 3481 
Q 2900 3844 2670 4047 
Q 2441 4250 2034 4250 
Q 1625 4250 1398 4047 
Q 1172 3844 1172 3481 
z
" transform="scale(0.015625)"/>
     </defs>
     <use xlink:href="#DejaVuSans-32"/>
     <use xlink:href="#DejaVuSans-38" x="63.623047"/>
    </g>
   </g>
   <g id="text_4">
    <!-- 2 -->
    <g transform="translate(137.632393 250.421033) scale(0.1 -0.1)">
     <use xlink:href="#DejaVuSans-32"/>
    </g>
   </g>
   <g id="text_5">
    <!-- 20 -->
    <g transform="translate(67.423363 199.873402) scale(0.1 -0.1)">
     <defs>
      <path id="DejaVuSans-30" d="M 2034 4250 
Q 1547 4250 1301 3770 
Q 1056 3291 1056 2328 
Q 1056 1369 1301 889 
Q 1547 409 2034 409 
Q 2525 409 2770 889 
Q 3016 1369 3016 2328 
Q 3016 3291 2770 3770 
Q 2525 4250 2034 4250 
z
M 2034 4750 
Q 2819 4750 3233 4129 
Q 3647 3509 3647 2328 
Q 3647 1150 3233 529 
Q 2819 -91 2034 -91 
Q 1250 -91 836 529 
Q 422 1150 422 2328 
Q 422 3509 836 4129 
Q 1250 4750 2034 4750 
z
" transform="scale(0.015625)"/>
     </defs>
     <use xlink:href="#DejaVuSans-32"/>
     <use xlink:href="#DejaVuSans-30" x="63.623047"/>
    </g>
   </g>
   <g id="text_6">
    <!-- 6 -->
    <g transform="translate(212.021111 215.60634) scale(0.1 -0.1)">
     <defs>
      <path id="DejaVuSans-36" d="M 2113 2584 
Q 1688 2584 1439 2293 
Q 1191 2003 1191 1497 
Q 1191 994 1439 701 
Q 1688 409 2113 409 
Q 2538 409 2786 701 
Q 3034 994 3034 1497 
Q 3034 2003 2786 2293 
Q 2538 2584 2113 2584 
z
M 3366 4563 
L 3366 3988 
Q 3128 4100 2886 4159 
Q 2644 4219 2406 4219 
Q 1781 4219 1451 3797 
Q 1122 3375 1075 2522 
Q 1259 2794 1537 2939 
Q 1816 3084 2150 3084 
Q 2853 3084 3261 2657 
Q 3669 2231 3669 1497 
Q 3669 778 3244 343 
Q 2819 -91 2113 -91 
Q 1303 -91 875 529 
Q 447 1150 447 2328 
Q 447 3434 972 4092 
Q 1497 4750 2381 4750 
Q 2619 4750 2861 4703 
Q 3103 4656 3366 4563 
z
" transform="scale(0.015625)"/>
     </defs>
     <use xlink:href="#DejaVuSans-36"/>
    </g>
   </g>
   <g id="text_7">
    <!-- 184 -->
    <g transform="translate(136.764214 140.066079) scale(0.1 -0.1)">
     <defs>
      <path id="DejaVuSans-34" d="M 2419 4116 
L 825 1625 
L 2419 1625 
L 2419 4116 
z
M 2253 4666 
L 3047 4666 
L 3047 1625 
L 3713 1625 
L 3713 1100 
L 3047 1100 
L 3047 0 
L 2419 0 
L 2419 1100 
L 313 1100 
L 313 1709 
L 2253 4666 
z
" transform="scale(0.015625)"/>
     </defs>
     <use xlink:href="#DejaVuSans-31"/>
     <use xlink:href="#DejaVuSans-38" x="63.623047"/>
     <use xlink:href="#DejaVuSans-34" x="127.246094"/>
    </g>
   </g>
   <g id="text_8">
    <!-- pLink -->
    <g transform="translate(49.694431 27.32733) scale(0.12 -0.12)">
     <defs>
      <path id="DejaVuSans-70" d="M 1159 525 
L 1159 -1331 
L 581 -1331 
L 581 3500 
L 1159 3500 
L 1159 2969 
Q 1341 3281 1617 3432 
Q 1894 3584 2278 3584 
Q 2916 3584 3314 3078 
Q 3713 2572 3713 1747 
Q 3713 922 3314 415 
Q 2916 -91 2278 -91 
Q 1894 -91 1617 61 
Q 1341 213 1159 525 
z
M 3116 1747 
Q 3116 2381 2855 2742 
Q 2594 3103 2138 3103 
Q 1681 3103 1420 2742 
Q 1159 2381 1159 1747 
Q 1159 1113 1420 752 
Q 1681 391 2138 391 
Q 2594 391 2855 752 
Q 3116 1113 3116 1747 
z
" transform="scale(0.015625)"/>
      <path id="DejaVuSans-4c" d="M 628 4666 
L 1259 4666 
L 1259 531 
L 3531 531 
L 3531 0 
L 628 0 
L 628 4666 
z
" transform="scale(0.015625)"/>
      <path id="DejaVuSans-69" d="M 603 3500 
L 1178 3500 
L 1178 0 
L 603 0 
L 603 3500 
z
M 603 4863 
L 1178 4863 
L 1178 4134 
L 603 4134 
L 603 4863 
z
" transform="scale(0.015625)"/>
      <path id="DejaVuSans-6e" d="M 3513 2113 
L 3513 0 
L 2938 0 
L 2938 2094 
Q 2938 2591 2744 2837 
Q 2550 3084 2163 3084 
Q 1697 3084 1428 2787 
Q 1159 2491 1159 1978 
L 1159 0 
L 581 0 
L 581 3500 
L 1159 3500 
L 1159 2956 
Q 1366 3272 1645 3428 
Q 1925 3584 2291 3584 
Q 2894 3584 3203 3211 
Q 3513 2838 3513 2113 
z
" transform="scale(0.015625)"/>
      <path id="DejaVuSans-6b" d="M 581 4863 
L 1159 4863 
L 1159 1991 
L 2875 3500 
L 3609 3500 
L 1753 1863 
L 3688 0 
L 2938 0 
L 1159 1709 
L 1159 0 
L 581 0 
L 581 4863 
z
" transform="scale(0.015625)"/>
     </defs>
     <use xlink:href="#DejaVuSans-70"/>
     <use xlink:href="#DejaVuSans-4c" x="63.476562"/>
     <use xlink:href="#DejaVuSans-69" x="119.189453"/>
     <use xlink:href="#DejaVuSans-6e" x="146.972656"/>
     <use xlink:href="#DejaVuSans-6b" x="210.351562"/>
    </g>
   </g>
   <g id="text_9">
    <!-- MaxLynx -->
    <g transform="translate(208.807725 32.179468) scale(0.12 -0.12)">
     <defs>
      <path id="DejaVuSans-4d" d="M 628 4666 
L 1569 4666 
L 2759 1491 
L 3956 4666 
L 4897 4666 
L 4897 0 
L 4281 0 
L 4281 4097 
L 3078 897 
L 2444 897 
L 1241 4097 
L 1241 0 
L 628 0 
L 628 4666 
z
" transform="scale(0.015625)"/>
      <path id="DejaVuSans-61" d="M 2194 1759 
Q 1497 1759 1228 1600 
Q 959 1441 959 1056 
Q 959 750 1161 570 
Q 1363 391 1709 391 
Q 2188 391 2477 730 
Q 2766 1069 2766 1631 
L 2766 1759 
L 2194 1759 
z
M 3341 1997 
L 3341 0 
L 2766 0 
L 2766 531 
Q 2569 213 2275 61 
Q 1981 -91 1556 -91 
Q 1019 -91 701 211 
Q 384 513 384 1019 
Q 384 1609 779 1909 
Q 1175 2209 1959 2209 
L 2766 2209 
L 2766 2266 
Q 2766 2663 2505 2880 
Q 2244 3097 1772 3097 
Q 1472 3097 1187 3025 
Q 903 2953 641 2809 
L 641 3341 
Q 956 3463 1253 3523 
Q 1550 3584 1831 3584 
Q 2591 3584 2966 3190 
Q 3341 2797 3341 1997 
z
" transform="scale(0.015625)"/>
      <path id="DejaVuSans-78" d="M 3513 3500 
L 2247 1797 
L 3578 0 
L 2900 0 
L 1881 1375 
L 863 0 
L 184 0 
L 1544 1831 
L 300 3500 
L 978 3500 
L 1906 2253 
L 2834 3500 
L 3513 3500 
z
" transform="scale(0.015625)"/>
      <path id="DejaVuSans-79" d="M 2059 -325 
Q 1816 -950 1584 -1140 
Q 1353 -1331 966 -1331 
L 506 -1331 
L 506 -850 
L 844 -850 
Q 1081 -850 1212 -737 
Q 1344 -625 1503 -206 
L 1606 56 
L 191 3500 
L 800 3500 
L 1894 763 
L 2988 3500 
L 3597 3500 
L 2059 -325 
z
" transform="scale(0.015625)"/>
     </defs>
     <use xlink:href="#DejaVuSans-4d"/>
     <use xlink:href="#DejaVuSans-61" x="86.279297"/>
     <use xlink:href="#DejaVuSans-78" x="147.558594"/>
     <use xlink:href="#DejaVuSans-4c" x="206.738281"/>
     <use xlink:href="#DejaVuSans-79" x="253.326172"/>
     <use xlink:href="#DejaVuSans-6e" x="312.505859"/>
     <use xlink:href="#DejaVuSans-78" x="375.884766"/>
    </g>
   </g>
   <g id="text_10">
    <!-- MS Annika -->
    <g transform="translate(110.564233 272.291378) scale(0.12 -0.12)">
     <defs>
      <path id="DejaVuSans-53" d="M 3425 4513 
L 3425 3897 
Q 3066 4069 2747 4153 
Q 2428 4238 2131 4238 
Q 1616 4238 1336 4038 
Q 1056 3838 1056 3469 
Q 1056 3159 1242 3001 
Q 1428 2844 1947 2747 
L 2328 2669 
Q 3034 2534 3370 2195 
Q 3706 1856 3706 1288 
Q 3706 609 3251 259 
Q 2797 -91 1919 -91 
Q 1588 -91 1214 -16 
Q 841 59 441 206 
L 441 856 
Q 825 641 1194 531 
Q 1563 422 1919 422 
Q 2459 422 2753 634 
Q 3047 847 3047 1241 
Q 3047 1584 2836 1778 
Q 2625 1972 2144 2069 
L 1759 2144 
Q 1053 2284 737 2584 
Q 422 2884 422 3419 
Q 422 4038 858 4394 
Q 1294 4750 2059 4750 
Q 2388 4750 2728 4690 
Q 3069 4631 3425 4513 
z
" transform="scale(0.015625)"/>
      <path id="DejaVuSans-20" transform="scale(0.015625)"/>
      <path id="DejaVuSans-41" d="M 2188 4044 
L 1331 1722 
L 3047 1722 
L 2188 4044 
z
M 1831 4666 
L 2547 4666 
L 4325 0 
L 3669 0 
L 3244 1197 
L 1141 1197 
L 716 0 
L 50 0 
L 1831 4666 
z
" transform="scale(0.015625)"/>
     </defs>
     <use xlink:href="#DejaVuSans-4d"/>
     <use xlink:href="#DejaVuSans-53" x="86.279297"/>
     <use xlink:href="#DejaVuSans-20" x="149.755859"/>
     <use xlink:href="#DejaVuSans-41" x="181.542969"/>
     <use xlink:href="#DejaVuSans-6e" x="249.951172"/>
     <use xlink:href="#DejaVuSans-6e" x="313.330078"/>
     <use xlink:href="#DejaVuSans-69" x="376.708984"/>
     <use xlink:href="#DejaVuSans-6b" x="404.492188"/>
     <use xlink:href="#DejaVuSans-61" x="460.652344"/>
    </g>
   </g>
  </g>
 </g>
 <defs>
  <clipPath id="p4a51371500">
   <rect x="7.2" y="7.2" width="273.867961" height="266.112"/>
  </clipPath>
 </defs>
</svg>
