<?xml version="1.0" encoding="utf-8" standalone="no"?>
<!DOCTYPE svg PUBLIC "-//W3C//DTD SVG 1.1//EN"
  "http://www.w3.org/Graphics/SVG/1.1/DTD/svg11.dtd">
<svg xmlns:xlink="http://www.w3.org/1999/xlink" width="460.8pt" height="345.6pt" viewBox="0 0 460.8 345.6" xmlns="http://www.w3.org/2000/svg" version="1.1">
 <metadata>
  <rdf:RDF xmlns:dc="http://purl.org/dc/elements/1.1/" xmlns:cc="http://creativecommons.org/ns#" xmlns:rdf="http://www.w3.org/1999/02/22-rdf-syntax-ns#">
   <cc:Work>
    <dc:type rdf:resource="http://purl.org/dc/dcmitype/StillImage"/>
    <dc:date>2024-06-24T12:59:02.266125</dc:date>
    <dc:format>image/svg+xml</dc:format>
    <dc:creator>
     <cc:Agent>
      <dc:title>Matplotlib v3.9.0, https://matplotlib.org/</dc:title>
     </cc:Agent>
    </dc:creator>
   </cc:Work>
  </rdf:RDF>
 </metadata>
 <defs>
  <style type="text/css">*{stroke-linejoin: round; stroke-linecap: butt}</style>
 </defs>
 <g id="figure_1">
  <g id="patch_1">
   <path d="M 0 345.6 
L 460.8 345.6 
L 460.8 0 
L 0 0 
z
" style="fill: #ffffff"/>
  </g>
  <g id="axes_1">
   <g id="patch_2">
    <path d="M 57.6 307.584 
L 414.72 307.584 
L 414.72 41.472 
L 57.6 41.472 
z
" style="fill: #ffffff"/>
   </g>
   <g id="PolyCollection_1">
    <path d="M 73.832727 108.877521 
L 73.832727 307.584 
L 76.706292 307.584 
L 77.23103 307.584 
L 78.047289 307.584 
L 81.06245 307.584 
L 83.369632 307.584 
L 86.842897 307.584 
L 86.884543 307.584 
L 87.534219 307.584 
L 89.491574 307.584 
L 90.14125 307.584 
L 90.166238 307.584 
L 90.349479 307.584 
L 91.165738 307.584 
L 92.689977 307.584 
L 93.06479 307.584 
L 93.073119 307.584 
L 93.656161 307.584 
L 94.114266 307.584 
L 94.555712 307.584 
L 94.647333 307.584 
L 95.446934 307.584 
L 96.096609 307.584 
L 96.154914 307.584 
L 96.413118 307.584 
L 96.538056 307.584 
L 96.554714 307.584 
L 96.79626 307.584 
L 97.154415 307.584 
L 97.429277 307.584 
L 97.662494 307.584 
L 97.879053 307.584 
L 97.929028 307.584 
L 98.00399 307.584 
L 99.286683 307.584 
L 99.61985 307.584 
L 99.736459 307.584 
L 99.869725 307.584 
L 100.052967 307.584 
L 100.236209 307.584 
L 100.461097 307.584 
L 100.777605 307.584 
L 101.152418 307.584 
L 101.502243 307.584 
L 101.785435 307.584 
L 103.892716 307.584 
L 103.926033 307.584 
L 104.55905 307.584 
L 104.733963 307.584 
L 104.825584 307.584 
L 105.400297 307.584 
L 106.799598 307.584 
L 106.924536 307.584 
L 107.465932 307.584 
L 108.282191 307.584 
L 109.548226 307.584 
L 109.773113 307.584 
L 110.122939 307.584 
L 110.864235 307.584 
L 112.113611 307.584 
L 113.1381 307.584 
L 113.188075 307.584 
L 113.371316 307.584 
L 113.504583 307.584 
L 115.778448 307.584 
L 115.945031 307.584 
L 116.494757 307.584 
L 117.36932 307.584 
L 118.543733 307.584 
L 118.701988 307.584 
L 119.051813 307.584 
L 119.576551 307.584 
L 119.834755 307.584 
L 120.034656 307.584 
L 120.667673 307.584 
L 120.884231 307.584 
L 120.992511 307.584 
L 121.075802 307.584 
L 121.084132 307.584 
L 121.134107 307.584 
L 122.033657 307.584 
L 122.699991 307.584 
L 122.783283 307.584 
L 123.158096 307.584 
L 123.791113 307.584 
L 124.140938 307.584 
L 124.53241 307.584 
L 125.040489 307.584 
L 125.623531 307.584 
L 126.181586 307.584 
L 126.94787 307.584 
L 127.722483 307.584 
L 130.37949 307.584 
L 131.029165 307.584 
L 131.054153 307.584 
L 132.386821 307.584 
L 132.645025 307.584 
L 133.644526 307.584 
L 133.861085 307.584 
L 134.185922 307.584 
L 134.51076 307.584 
L 134.952206 307.584 
L 137.276046 307.584 
L 137.675846 307.584 
L 137.992355 307.584 
L 139.991357 307.584 
L 140.107965 307.584 
L 140.174598 307.584 
L 140.707666 307.584 
L 141.024174 307.584 
L 141.240733 307.584 
L 142.748313 307.584 
L 143.772802 307.584 
L 144.439136 307.584 
L 144.539086 307.584 
L 144.972203 307.584 
L 145.363674 307.584 
L 145.413649 307.584 
L 145.521928 307.584 
L 145.555245 307.584 
L 145.613549 307.584 
L 146.521429 307.584 
L 147.695843 307.584 
L 148.595393 307.584 
L 149.311702 307.584 
L 149.994695 307.584 
L 150.327862 307.584 
L 150.661029 307.584 
L 152.16028 307.584 
L 152.576739 307.584 
L 153.66786 307.584 
L 154.733995 307.584 
L 156.424817 307.584 
L 157.032847 307.584 
L 157.324368 307.584 
L 158.698681 307.584 
L 160.256237 307.584 
L 160.456137 307.584 
L 161.089154 307.584 
L 161.522271 307.584 
L 163.379677 307.584 
L 163.429652 307.584 
L 163.579577 307.584 
L 164.420824 307.584 
L 165.103816 307.584 
L 165.262071 307.584 
L 168.727007 307.584 
L 169.176782 307.584 
L 169.551595 307.584 
L 171.000872 307.584 
L 171.700522 307.584 
L 173.466307 307.584 
L 173.824462 307.584 
L 174.898925 307.584 
L 174.990546 307.584 
L 179.813138 307.584 
L 181.520618 307.584 
L 182.528448 307.584 
L 183.036528 307.584 
L 184.202612 307.584 
L 185.385355 307.584 
L 185.560268 307.584 
L 186.326552 307.584 
L 186.434831 307.584 
L 188.583758 307.584 
L 190.316226 307.584 
L 192.448495 307.584 
L 193.764504 307.584 
L 195.688543 307.584 
L 197.121161 307.584 
L 198.95358 307.584 
L 199.370038 307.584 
L 200.211285 307.584 
L 202.834975 307.584 
L 203.001558 307.584 
L 206.399861 307.584 
L 208.890284 307.584 
L 208.915272 307.584 
L 213.054871 307.584 
L 219.393373 307.584 
L 223.85781 307.584 
L 224.557461 307.584 
L 224.840652 307.584 
L 225.015565 307.584 
L 225.215465 307.584 
L 229.371723 307.584 
L 229.854815 307.584 
L 230.146336 307.584 
L 230.71272 307.584 
L 236.309925 307.584 
L 241.157504 307.584 
L 242.281943 307.584 
L 242.331918 307.584 
L 242.61511 307.584 
L 246.904635 307.584 
L 258.165678 307.584 
L 261.364081 307.584 
L 261.47236 307.584 
L 272.600136 307.584 
L 275.748564 307.584 
L 279.230159 307.584 
L 292.107062 307.584 
L 294.972298 307.584 
L 300.59449 307.584 
L 305.300474 307.584 
L 308.36561 307.584 
L 334.485899 307.584 
L 335.077271 307.584 
L 344.289337 307.584 
L 385.252215 307.584 
L 398.487273 307.584 
L 398.487273 307.584 
L 398.487273 307.584 
L 385.252215 307.584 
L 344.289337 307.584 
L 335.077271 307.584 
L 334.485899 306.394141 
L 308.36561 306.394141 
L 305.300474 306.394141 
L 300.59449 306.394141 
L 294.972298 306.394141 
L 292.107062 306.394141 
L 279.230159 305.204282 
L 275.748564 305.204282 
L 272.600136 305.204282 
L 261.47236 304.014423 
L 261.364081 302.824563 
L 258.165678 302.824563 
L 246.904635 302.824563 
L 242.61511 302.824563 
L 242.331918 301.634704 
L 242.281943 300.444845 
L 241.157504 299.254986 
L 236.309925 299.254986 
L 230.71272 298.065127 
L 230.146336 296.875268 
L 229.854815 295.685408 
L 229.371723 295.685408 
L 225.215465 295.685408 
L 225.015565 295.685408 
L 224.840652 295.685408 
L 224.557461 294.495549 
L 223.85781 293.30569 
L 219.393373 292.115831 
L 213.054871 292.115831 
L 208.915272 292.115831 
L 208.890284 292.115831 
L 206.399861 290.925972 
L 203.001558 289.736113 
L 202.834975 289.736113 
L 200.211285 289.736113 
L 199.370038 288.546254 
L 198.95358 287.356394 
L 197.121161 287.356394 
L 195.688543 287.356394 
L 193.764504 286.166535 
L 192.448495 284.976676 
L 190.316226 283.786817 
L 188.583758 283.786817 
L 186.434831 282.596958 
L 186.326552 281.407099 
L 185.560268 280.217239 
L 185.385355 279.02738 
L 184.202612 277.837521 
L 183.036528 276.647662 
L 182.528448 275.457803 
L 181.520618 274.267944 
L 179.813138 273.078085 
L 174.990546 273.078085 
L 174.898925 271.888225 
L 173.824462 270.698366 
L 173.466307 269.508507 
L 171.700522 268.318648 
L 171.000872 267.128789 
L 169.551595 265.93893 
L 169.176782 264.74907 
L 168.727007 263.559211 
L 165.262071 262.369352 
L 165.103816 261.179493 
L 164.420824 261.179493 
L 163.579577 259.989634 
L 163.429652 258.799775 
L 163.379677 257.609915 
L 161.522271 256.420056 
L 161.089154 255.230197 
L 160.456137 254.040338 
L 160.256237 252.850479 
L 158.698681 251.66062 
L 157.324368 250.470761 
L 157.032847 250.470761 
L 156.424817 249.280901 
L 154.733995 249.280901 
L 153.66786 248.091042 
L 152.576739 246.901183 
L 152.16028 245.711324 
L 150.661029 244.521465 
L 150.327862 243.331606 
L 149.994695 242.141746 
L 149.311702 240.951887 
L 148.595393 240.951887 
L 147.695843 239.762028 
L 146.521429 238.572169 
L 145.613549 237.38231 
L 145.555245 236.192451 
L 145.521928 235.002592 
L 145.413649 233.812732 
L 145.363674 232.622873 
L 144.972203 232.622873 
L 144.539086 231.433014 
L 144.439136 230.243155 
L 143.772802 229.053296 
L 142.748313 227.863437 
L 141.240733 226.673577 
L 141.024174 224.293859 
L 140.707666 223.104 
L 140.174598 221.914141 
L 140.107965 220.724282 
L 139.991357 220.724282 
L 137.992355 219.534423 
L 137.675846 218.344563 
L 137.276046 217.154704 
L 134.952206 215.964845 
L 134.51076 214.774986 
L 134.185922 214.774986 
L 133.861085 213.585127 
L 133.644526 212.395268 
L 132.645025 211.205408 
L 132.386821 210.015549 
L 131.054153 208.82569 
L 131.029165 207.635831 
L 130.37949 207.635831 
L 127.722483 206.445972 
L 126.94787 205.256113 
L 126.181586 204.066254 
L 125.623531 202.876394 
L 125.040489 201.686535 
L 124.53241 200.496676 
L 124.140938 199.306817 
L 123.791113 198.116958 
L 123.158096 196.927099 
L 122.783283 195.737239 
L 122.699991 194.54738 
L 122.033657 193.357521 
L 121.134107 192.167662 
L 121.084132 190.977803 
L 121.075802 189.787944 
L 120.992511 189.787944 
L 120.884231 188.598085 
L 120.667673 187.408225 
L 120.034656 186.218366 
L 119.834755 185.028507 
L 119.576551 183.838648 
L 119.051813 182.648789 
L 118.701988 181.45893 
L 118.543733 181.45893 
L 117.36932 180.26907 
L 116.494757 180.26907 
L 115.945031 179.079211 
L 115.778448 177.889352 
L 113.504583 176.699493 
L 113.371316 175.509634 
L 113.188075 174.319775 
L 113.1381 173.129915 
L 112.113611 171.940056 
L 110.864235 170.750197 
L 110.122939 169.560338 
L 109.773113 168.370479 
L 109.548226 167.18062 
L 108.282191 165.990761 
L 107.465932 164.800901 
L 106.924536 163.611042 
L 106.799598 162.421183 
L 105.400297 161.231324 
L 104.825584 160.041465 
L 104.733963 160.041465 
L 104.55905 158.851606 
L 103.926033 157.661746 
L 103.892716 157.661746 
L 101.785435 156.471887 
L 101.502243 155.282028 
L 101.152418 155.282028 
L 100.777605 154.092169 
L 100.461097 152.90231 
L 100.236209 151.712451 
L 100.052967 150.522592 
L 99.869725 149.332732 
L 99.736459 148.142873 
L 99.61985 146.953014 
L 99.286683 144.573296 
L 98.00399 144.573296 
L 97.929028 143.383437 
L 97.879053 142.193577 
L 97.662494 141.003718 
L 97.429277 139.813859 
L 97.154415 138.624 
L 96.79626 137.434141 
L 96.554714 136.244282 
L 96.538056 135.054423 
L 96.413118 133.864563 
L 96.154914 132.674704 
L 96.096609 131.484845 
L 95.446934 131.484845 
L 94.647333 130.294986 
L 94.555712 129.105127 
L 94.114266 127.915268 
L 93.656161 126.725408 
L 93.073119 125.535549 
L 93.06479 124.34569 
L 92.689977 123.155831 
L 91.165738 121.965972 
L 90.349479 120.776113 
L 90.166238 119.586254 
L 90.14125 118.396394 
L 89.491574 118.396394 
L 87.534219 117.206535 
L 86.884543 116.016676 
L 86.842897 114.826817 
L 83.369632 113.636958 
L 81.06245 112.447099 
L 78.047289 111.257239 
L 77.23103 110.06738 
L 76.706292 108.877521 
L 73.832727 108.877521 
z
" clip-path="url(#p3dafb99a3f)" style="fill: #008000"/>
   </g>
   <g id="PolyCollection_2">
    <path d="M 73.832727 55.333859 
L 73.832727 108.877521 
L 76.706292 108.877521 
L 77.23103 110.06738 
L 78.047289 111.257239 
L 81.06245 112.447099 
L 83.369632 113.636958 
L 86.842897 114.826817 
L 86.884543 116.016676 
L 87.534219 117.206535 
L 89.491574 118.396394 
L 90.14125 118.396394 
L 90.166238 119.586254 
L 90.349479 120.776113 
L 91.165738 121.965972 
L 92.689977 123.155831 
L 93.06479 124.34569 
L 93.073119 125.535549 
L 93.656161 126.725408 
L 94.114266 127.915268 
L 94.555712 129.105127 
L 94.647333 130.294986 
L 95.446934 131.484845 
L 96.096609 131.484845 
L 96.154914 132.674704 
L 96.413118 133.864563 
L 96.538056 135.054423 
L 96.554714 136.244282 
L 96.79626 137.434141 
L 97.154415 138.624 
L 97.429277 139.813859 
L 97.662494 141.003718 
L 97.879053 142.193577 
L 97.929028 143.383437 
L 98.00399 144.573296 
L 99.286683 144.573296 
L 99.61985 146.953014 
L 99.736459 148.142873 
L 99.869725 149.332732 
L 100.052967 150.522592 
L 100.236209 151.712451 
L 100.461097 152.90231 
L 100.777605 154.092169 
L 101.152418 155.282028 
L 101.502243 155.282028 
L 101.785435 156.471887 
L 103.892716 157.661746 
L 103.926033 157.661746 
L 104.55905 158.851606 
L 104.733963 160.041465 
L 104.825584 160.041465 
L 105.400297 161.231324 
L 106.799598 162.421183 
L 106.924536 163.611042 
L 107.465932 164.800901 
L 108.282191 165.990761 
L 109.548226 167.18062 
L 109.773113 168.370479 
L 110.122939 169.560338 
L 110.864235 170.750197 
L 112.113611 171.940056 
L 113.1381 173.129915 
L 113.188075 174.319775 
L 113.371316 175.509634 
L 113.504583 176.699493 
L 115.778448 177.889352 
L 115.945031 179.079211 
L 116.494757 180.26907 
L 117.36932 180.26907 
L 118.543733 181.45893 
L 118.701988 181.45893 
L 119.051813 182.648789 
L 119.576551 183.838648 
L 119.834755 185.028507 
L 120.034656 186.218366 
L 120.667673 187.408225 
L 120.884231 188.598085 
L 120.992511 189.787944 
L 121.075802 189.787944 
L 121.084132 190.977803 
L 121.134107 192.167662 
L 122.033657 193.357521 
L 122.699991 194.54738 
L 122.783283 195.737239 
L 123.158096 196.927099 
L 123.791113 198.116958 
L 124.140938 199.306817 
L 124.53241 200.496676 
L 125.040489 201.686535 
L 125.623531 202.876394 
L 126.181586 204.066254 
L 126.94787 205.256113 
L 127.722483 206.445972 
L 130.37949 207.635831 
L 131.029165 207.635831 
L 131.054153 208.82569 
L 132.386821 210.015549 
L 132.645025 211.205408 
L 133.644526 212.395268 
L 133.861085 213.585127 
L 134.185922 214.774986 
L 134.51076 214.774986 
L 134.952206 215.964845 
L 137.276046 217.154704 
L 137.675846 218.344563 
L 137.992355 219.534423 
L 139.991357 220.724282 
L 140.107965 220.724282 
L 140.174598 221.914141 
L 140.707666 223.104 
L 141.024174 224.293859 
L 141.240733 226.673577 
L 142.748313 227.863437 
L 143.772802 229.053296 
L 144.439136 230.243155 
L 144.539086 231.433014 
L 144.972203 232.622873 
L 145.363674 232.622873 
L 145.413649 233.812732 
L 145.521928 235.002592 
L 145.555245 236.192451 
L 145.613549 237.38231 
L 146.521429 238.572169 
L 147.695843 239.762028 
L 148.595393 240.951887 
L 149.311702 240.951887 
L 149.994695 242.141746 
L 150.327862 243.331606 
L 150.661029 244.521465 
L 152.16028 245.711324 
L 152.576739 246.901183 
L 153.66786 248.091042 
L 154.733995 249.280901 
L 156.424817 249.280901 
L 157.032847 250.470761 
L 157.324368 250.470761 
L 158.698681 251.66062 
L 160.256237 252.850479 
L 160.456137 254.040338 
L 161.089154 255.230197 
L 161.522271 256.420056 
L 163.379677 257.609915 
L 163.429652 258.799775 
L 163.579577 259.989634 
L 164.420824 261.179493 
L 165.103816 261.179493 
L 165.262071 262.369352 
L 168.727007 263.559211 
L 169.176782 264.74907 
L 169.551595 265.93893 
L 171.000872 267.128789 
L 171.700522 268.318648 
L 173.466307 269.508507 
L 173.824462 270.698366 
L 174.898925 271.888225 
L 174.990546 273.078085 
L 179.813138 273.078085 
L 181.520618 274.267944 
L 182.528448 275.457803 
L 183.036528 276.647662 
L 184.202612 277.837521 
L 185.385355 279.02738 
L 185.560268 280.217239 
L 186.326552 281.407099 
L 186.434831 282.596958 
L 188.583758 283.786817 
L 190.316226 283.786817 
L 192.448495 284.976676 
L 193.764504 286.166535 
L 195.688543 287.356394 
L 197.121161 287.356394 
L 198.95358 287.356394 
L 199.370038 288.546254 
L 200.211285 289.736113 
L 202.834975 289.736113 
L 203.001558 289.736113 
L 206.399861 290.925972 
L 208.890284 292.115831 
L 208.915272 292.115831 
L 213.054871 292.115831 
L 219.393373 292.115831 
L 223.85781 293.30569 
L 224.557461 294.495549 
L 224.840652 295.685408 
L 225.015565 295.685408 
L 225.215465 295.685408 
L 229.371723 295.685408 
L 229.854815 295.685408 
L 230.146336 296.875268 
L 230.71272 298.065127 
L 236.309925 299.254986 
L 241.157504 299.254986 
L 242.281943 300.444845 
L 242.331918 301.634704 
L 242.61511 302.824563 
L 246.904635 302.824563 
L 258.165678 302.824563 
L 261.364081 302.824563 
L 261.47236 304.014423 
L 272.600136 305.204282 
L 275.748564 305.204282 
L 279.230159 305.204282 
L 292.107062 306.394141 
L 294.972298 306.394141 
L 300.59449 306.394141 
L 305.300474 306.394141 
L 308.36561 306.394141 
L 334.485899 306.394141 
L 335.077271 307.584 
L 344.289337 307.584 
L 385.252215 307.584 
L 398.487273 307.584 
L 398.487273 306.394141 
L 398.487273 306.394141 
L 385.252215 305.204282 
L 344.289337 304.014423 
L 335.077271 302.824563 
L 334.485899 301.634704 
L 308.36561 300.444845 
L 305.300474 299.254986 
L 300.59449 298.065127 
L 294.972298 296.875268 
L 292.107062 295.685408 
L 279.230159 294.495549 
L 275.748564 293.30569 
L 272.600136 292.115831 
L 261.47236 290.925972 
L 261.364081 289.736113 
L 258.165678 288.546254 
L 246.904635 287.356394 
L 242.61511 286.166535 
L 242.331918 284.976676 
L 242.281943 283.786817 
L 241.157504 282.596958 
L 236.309925 281.407099 
L 230.71272 280.217239 
L 230.146336 279.02738 
L 229.854815 277.837521 
L 229.371723 276.647662 
L 225.215465 275.457803 
L 225.015565 274.267944 
L 224.840652 273.078085 
L 224.557461 271.888225 
L 223.85781 270.698366 
L 219.393373 269.508507 
L 213.054871 268.318648 
L 208.915272 267.128789 
L 208.890284 265.93893 
L 206.399861 264.74907 
L 203.001558 263.559211 
L 202.834975 262.369352 
L 200.211285 261.179493 
L 199.370038 259.989634 
L 198.95358 258.799775 
L 197.121161 257.609915 
L 195.688543 256.420056 
L 193.764504 255.230197 
L 192.448495 254.040338 
L 190.316226 252.850479 
L 188.583758 251.66062 
L 186.434831 250.470761 
L 186.326552 249.280901 
L 185.560268 248.091042 
L 185.385355 246.901183 
L 184.202612 245.711324 
L 183.036528 244.521465 
L 182.528448 243.331606 
L 181.520618 242.141746 
L 179.813138 240.951887 
L 174.990546 239.762028 
L 174.898925 238.572169 
L 173.824462 237.38231 
L 173.466307 236.192451 
L 171.700522 235.002592 
L 171.000872 233.812732 
L 169.551595 232.622873 
L 169.176782 231.433014 
L 168.727007 230.243155 
L 165.262071 229.053296 
L 165.103816 227.863437 
L 164.420824 226.673577 
L 163.579577 225.483718 
L 163.429652 224.293859 
L 163.379677 223.104 
L 161.522271 221.914141 
L 161.089154 220.724282 
L 160.456137 219.534423 
L 160.256237 218.344563 
L 158.698681 217.154704 
L 157.324368 215.964845 
L 157.032847 214.774986 
L 156.424817 213.585127 
L 154.733995 212.395268 
L 153.66786 211.205408 
L 152.576739 210.015549 
L 152.16028 208.82569 
L 150.661029 207.635831 
L 150.327862 206.445972 
L 149.994695 205.256113 
L 149.311702 204.066254 
L 148.595393 202.876394 
L 147.695843 201.686535 
L 146.521429 200.496676 
L 145.613549 199.306817 
L 145.555245 198.116958 
L 145.521928 196.927099 
L 145.413649 195.737239 
L 145.363674 194.54738 
L 144.972203 193.357521 
L 144.539086 192.167662 
L 144.439136 190.977803 
L 143.772802 189.787944 
L 142.748313 188.598085 
L 141.240733 187.408225 
L 141.024174 185.028507 
L 140.707666 183.838648 
L 140.174598 182.648789 
L 140.107965 181.45893 
L 139.991357 180.26907 
L 137.992355 179.079211 
L 137.675846 177.889352 
L 137.276046 176.699493 
L 134.952206 175.509634 
L 134.51076 174.319775 
L 134.185922 173.129915 
L 133.861085 171.940056 
L 133.644526 170.750197 
L 132.645025 169.560338 
L 132.386821 168.370479 
L 131.054153 167.18062 
L 131.029165 165.990761 
L 130.37949 164.800901 
L 127.722483 163.611042 
L 126.94787 162.421183 
L 126.181586 161.231324 
L 125.623531 160.041465 
L 125.040489 158.851606 
L 124.53241 157.661746 
L 124.140938 156.471887 
L 123.791113 155.282028 
L 123.158096 154.092169 
L 122.783283 152.90231 
L 122.699991 151.712451 
L 122.033657 150.522592 
L 121.134107 149.332732 
L 121.084132 148.142873 
L 121.075802 146.953014 
L 120.992511 145.763155 
L 120.884231 144.573296 
L 120.667673 143.383437 
L 120.034656 142.193577 
L 119.834755 141.003718 
L 119.576551 139.813859 
L 119.051813 138.624 
L 118.701988 137.434141 
L 118.543733 136.244282 
L 117.36932 135.054423 
L 116.494757 133.864563 
L 115.945031 132.674704 
L 115.778448 131.484845 
L 113.504583 130.294986 
L 113.371316 129.105127 
L 113.188075 127.915268 
L 113.1381 126.725408 
L 112.113611 125.535549 
L 110.864235 124.34569 
L 110.122939 123.155831 
L 109.773113 121.965972 
L 109.548226 120.776113 
L 108.282191 119.586254 
L 107.465932 118.396394 
L 106.924536 117.206535 
L 106.799598 116.016676 
L 105.400297 114.826817 
L 104.825584 113.636958 
L 104.733963 112.447099 
L 104.55905 111.257239 
L 103.926033 110.06738 
L 103.892716 108.877521 
L 101.785435 107.687662 
L 101.502243 106.497803 
L 101.152418 105.307944 
L 100.777605 104.118085 
L 100.461097 102.928225 
L 100.236209 101.738366 
L 100.052967 100.548507 
L 99.869725 99.358648 
L 99.736459 98.168789 
L 99.61985 96.97893 
L 99.286683 94.599211 
L 98.00399 93.409352 
L 97.929028 92.219493 
L 97.879053 91.029634 
L 97.662494 89.839775 
L 97.429277 88.649915 
L 97.154415 87.460056 
L 96.79626 86.270197 
L 96.554714 85.080338 
L 96.538056 83.890479 
L 96.413118 82.70062 
L 96.154914 81.510761 
L 96.096609 80.320901 
L 95.446934 79.131042 
L 94.647333 77.941183 
L 94.555712 76.751324 
L 94.114266 75.561465 
L 93.656161 74.371606 
L 93.073119 73.181746 
L 93.06479 71.991887 
L 92.689977 70.802028 
L 91.165738 69.612169 
L 90.349479 68.42231 
L 90.166238 67.232451 
L 90.14125 66.042592 
L 89.491574 64.852732 
L 87.534219 63.662873 
L 86.884543 62.473014 
L 86.842897 61.283155 
L 83.369632 60.093296 
L 81.06245 58.903437 
L 78.047289 57.713577 
L 77.23103 56.523718 
L 76.706292 55.333859 
L 73.832727 55.333859 
z
" clip-path="url(#p3dafb99a3f)" style="fill: #7cfc00"/>
   </g>
   <g id="PolyCollection_3">
    <path d="M 73.832727 54.144 
L 73.832727 55.333859 
L 76.706292 55.333859 
L 77.23103 56.523718 
L 78.047289 57.713577 
L 81.06245 58.903437 
L 83.369632 60.093296 
L 86.842897 61.283155 
L 86.884543 62.473014 
L 87.534219 63.662873 
L 89.491574 64.852732 
L 90.14125 66.042592 
L 90.166238 67.232451 
L 90.349479 68.42231 
L 91.165738 69.612169 
L 92.689977 70.802028 
L 93.06479 71.991887 
L 93.073119 73.181746 
L 93.656161 74.371606 
L 94.114266 75.561465 
L 94.555712 76.751324 
L 94.647333 77.941183 
L 95.446934 79.131042 
L 96.096609 80.320901 
L 96.154914 81.510761 
L 96.413118 82.70062 
L 96.538056 83.890479 
L 96.554714 85.080338 
L 96.79626 86.270197 
L 97.154415 87.460056 
L 97.429277 88.649915 
L 97.662494 89.839775 
L 97.879053 91.029634 
L 97.929028 92.219493 
L 98.00399 93.409352 
L 99.286683 94.599211 
L 99.61985 96.97893 
L 99.736459 98.168789 
L 99.869725 99.358648 
L 100.052967 100.548507 
L 100.236209 101.738366 
L 100.461097 102.928225 
L 100.777605 104.118085 
L 101.152418 105.307944 
L 101.502243 106.497803 
L 101.785435 107.687662 
L 103.892716 108.877521 
L 103.926033 110.06738 
L 104.55905 111.257239 
L 104.733963 112.447099 
L 104.825584 113.636958 
L 105.400297 114.826817 
L 106.799598 116.016676 
L 106.924536 117.206535 
L 107.465932 118.396394 
L 108.282191 119.586254 
L 109.548226 120.776113 
L 109.773113 121.965972 
L 110.122939 123.155831 
L 110.864235 124.34569 
L 112.113611 125.535549 
L 113.1381 126.725408 
L 113.188075 127.915268 
L 113.371316 129.105127 
L 113.504583 130.294986 
L 115.778448 131.484845 
L 115.945031 132.674704 
L 116.494757 133.864563 
L 117.36932 135.054423 
L 118.543733 136.244282 
L 118.701988 137.434141 
L 119.051813 138.624 
L 119.576551 139.813859 
L 119.834755 141.003718 
L 120.034656 142.193577 
L 120.667673 143.383437 
L 120.884231 144.573296 
L 120.992511 145.763155 
L 121.075802 146.953014 
L 121.084132 148.142873 
L 121.134107 149.332732 
L 122.033657 150.522592 
L 122.699991 151.712451 
L 122.783283 152.90231 
L 123.158096 154.092169 
L 123.791113 155.282028 
L 124.140938 156.471887 
L 124.53241 157.661746 
L 125.040489 158.851606 
L 125.623531 160.041465 
L 126.181586 161.231324 
L 126.94787 162.421183 
L 127.722483 163.611042 
L 130.37949 164.800901 
L 131.029165 165.990761 
L 131.054153 167.18062 
L 132.386821 168.370479 
L 132.645025 169.560338 
L 133.644526 170.750197 
L 133.861085 171.940056 
L 134.185922 173.129915 
L 134.51076 174.319775 
L 134.952206 175.509634 
L 137.276046 176.699493 
L 137.675846 177.889352 
L 137.992355 179.079211 
L 139.991357 180.26907 
L 140.107965 181.45893 
L 140.174598 182.648789 
L 140.707666 183.838648 
L 141.024174 185.028507 
L 141.240733 187.408225 
L 142.748313 188.598085 
L 143.772802 189.787944 
L 144.439136 190.977803 
L 144.539086 192.167662 
L 144.972203 193.357521 
L 145.363674 194.54738 
L 145.413649 195.737239 
L 145.521928 196.927099 
L 145.555245 198.116958 
L 145.613549 199.306817 
L 146.521429 200.496676 
L 147.695843 201.686535 
L 148.595393 202.876394 
L 149.311702 204.066254 
L 149.994695 205.256113 
L 150.327862 206.445972 
L 150.661029 207.635831 
L 152.16028 208.82569 
L 152.576739 210.015549 
L 153.66786 211.205408 
L 154.733995 212.395268 
L 156.424817 213.585127 
L 157.032847 214.774986 
L 157.324368 215.964845 
L 158.698681 217.154704 
L 160.256237 218.344563 
L 160.456137 219.534423 
L 161.089154 220.724282 
L 161.522271 221.914141 
L 163.379677 223.104 
L 163.429652 224.293859 
L 163.579577 225.483718 
L 164.420824 226.673577 
L 165.103816 227.863437 
L 165.262071 229.053296 
L 168.727007 230.243155 
L 169.176782 231.433014 
L 169.551595 232.622873 
L 171.000872 233.812732 
L 171.700522 235.002592 
L 173.466307 236.192451 
L 173.824462 237.38231 
L 174.898925 238.572169 
L 174.990546 239.762028 
L 179.813138 240.951887 
L 181.520618 242.141746 
L 182.528448 243.331606 
L 183.036528 244.521465 
L 184.202612 245.711324 
L 185.385355 246.901183 
L 185.560268 248.091042 
L 186.326552 249.280901 
L 186.434831 250.470761 
L 188.583758 251.66062 
L 190.316226 252.850479 
L 192.448495 254.040338 
L 193.764504 255.230197 
L 195.688543 256.420056 
L 197.121161 257.609915 
L 198.95358 258.799775 
L 199.370038 259.989634 
L 200.211285 261.179493 
L 202.834975 262.369352 
L 203.001558 263.559211 
L 206.399861 264.74907 
L 208.890284 265.93893 
L 208.915272 267.128789 
L 213.054871 268.318648 
L 219.393373 269.508507 
L 223.85781 270.698366 
L 224.557461 271.888225 
L 224.840652 273.078085 
L 225.015565 274.267944 
L 225.215465 275.457803 
L 229.371723 276.647662 
L 229.854815 277.837521 
L 230.146336 279.02738 
L 230.71272 280.217239 
L 236.309925 281.407099 
L 241.157504 282.596958 
L 242.281943 283.786817 
L 242.331918 284.976676 
L 242.61511 286.166535 
L 246.904635 287.356394 
L 258.165678 288.546254 
L 261.364081 289.736113 
L 261.47236 290.925972 
L 272.600136 292.115831 
L 275.748564 293.30569 
L 279.230159 294.495549 
L 292.107062 295.685408 
L 294.972298 296.875268 
L 300.59449 298.065127 
L 305.300474 299.254986 
L 308.36561 300.444845 
L 334.485899 301.634704 
L 335.077271 302.824563 
L 344.289337 304.014423 
L 385.252215 305.204282 
L 398.487273 306.394141 
L 398.487273 306.394141 
L 398.487273 306.394141 
L 385.252215 305.204282 
L 344.289337 304.014423 
L 335.077271 302.824563 
L 334.485899 301.634704 
L 308.36561 300.444845 
L 305.300474 299.254986 
L 300.59449 298.065127 
L 294.972298 296.875268 
L 292.107062 295.685408 
L 279.230159 294.495549 
L 275.748564 293.30569 
L 272.600136 292.115831 
L 261.47236 290.925972 
L 261.364081 289.736113 
L 258.165678 288.546254 
L 246.904635 287.356394 
L 242.61511 286.166535 
L 242.331918 284.976676 
L 242.281943 283.786817 
L 241.157504 282.596958 
L 236.309925 281.407099 
L 230.71272 280.217239 
L 230.146336 279.02738 
L 229.854815 277.837521 
L 229.371723 276.647662 
L 225.215465 275.457803 
L 225.015565 274.267944 
L 224.840652 273.078085 
L 224.557461 271.888225 
L 223.85781 270.698366 
L 219.393373 269.508507 
L 213.054871 268.318648 
L 208.915272 267.128789 
L 208.890284 265.93893 
L 206.399861 264.74907 
L 203.001558 263.559211 
L 202.834975 262.369352 
L 200.211285 261.179493 
L 199.370038 259.989634 
L 198.95358 258.799775 
L 197.121161 257.609915 
L 195.688543 256.420056 
L 193.764504 255.230197 
L 192.448495 254.040338 
L 190.316226 252.850479 
L 188.583758 251.66062 
L 186.434831 250.470761 
L 186.326552 249.280901 
L 185.560268 248.091042 
L 185.385355 246.901183 
L 184.202612 245.711324 
L 183.036528 244.521465 
L 182.528448 243.331606 
L 181.520618 242.141746 
L 179.813138 240.951887 
L 174.990546 239.762028 
L 174.898925 238.572169 
L 173.824462 237.38231 
L 173.466307 236.192451 
L 171.700522 235.002592 
L 171.000872 233.812732 
L 169.551595 232.622873 
L 169.176782 231.433014 
L 168.727007 230.243155 
L 165.262071 229.053296 
L 165.103816 227.863437 
L 164.420824 226.673577 
L 163.579577 225.483718 
L 163.429652 224.293859 
L 163.379677 223.104 
L 161.522271 221.914141 
L 161.089154 220.724282 
L 160.456137 219.534423 
L 160.256237 218.344563 
L 158.698681 217.154704 
L 157.324368 215.964845 
L 157.032847 214.774986 
L 156.424817 213.585127 
L 154.733995 212.395268 
L 153.66786 211.205408 
L 152.576739 210.015549 
L 152.16028 208.82569 
L 150.661029 207.635831 
L 150.327862 206.445972 
L 149.994695 205.256113 
L 149.311702 204.066254 
L 148.595393 202.876394 
L 147.695843 201.686535 
L 146.521429 200.496676 
L 145.613549 199.306817 
L 145.555245 198.116958 
L 145.521928 196.927099 
L 145.413649 195.737239 
L 145.363674 194.54738 
L 144.972203 193.357521 
L 144.539086 192.167662 
L 144.439136 190.977803 
L 143.772802 189.787944 
L 142.748313 188.598085 
L 141.240733 187.408225 
L 141.024174 185.028507 
L 140.707666 183.838648 
L 140.174598 182.648789 
L 140.107965 181.45893 
L 139.991357 180.26907 
L 137.992355 179.079211 
L 137.675846 177.889352 
L 137.276046 176.699493 
L 134.952206 175.509634 
L 134.51076 174.319775 
L 134.185922 173.129915 
L 133.861085 171.940056 
L 133.644526 170.750197 
L 132.645025 169.560338 
L 132.386821 168.370479 
L 131.054153 167.18062 
L 131.029165 165.990761 
L 130.37949 164.800901 
L 127.722483 163.611042 
L 126.94787 162.421183 
L 126.181586 161.231324 
L 125.623531 160.041465 
L 125.040489 158.851606 
L 124.53241 157.661746 
L 124.140938 156.471887 
L 123.791113 155.282028 
L 123.158096 154.092169 
L 122.783283 152.90231 
L 122.699991 151.712451 
L 122.033657 150.522592 
L 121.134107 149.332732 
L 121.084132 148.142873 
L 121.075802 146.953014 
L 120.992511 145.763155 
L 120.884231 144.573296 
L 120.667673 143.383437 
L 120.034656 142.193577 
L 119.834755 141.003718 
L 119.576551 139.813859 
L 119.051813 138.624 
L 118.701988 137.434141 
L 118.543733 136.244282 
L 117.36932 135.054423 
L 116.494757 133.864563 
L 115.945031 132.674704 
L 115.778448 131.484845 
L 113.504583 130.294986 
L 113.371316 129.105127 
L 113.188075 127.915268 
L 113.1381 126.725408 
L 112.113611 125.535549 
L 110.864235 124.34569 
L 110.122939 123.155831 
L 109.773113 121.965972 
L 109.548226 120.776113 
L 108.282191 119.586254 
L 107.465932 118.396394 
L 106.924536 117.206535 
L 106.799598 116.016676 
L 105.400297 114.826817 
L 104.825584 113.636958 
L 104.733963 112.447099 
L 104.55905 111.257239 
L 103.926033 110.06738 
L 103.892716 108.877521 
L 101.785435 107.687662 
L 101.502243 106.497803 
L 101.152418 105.307944 
L 100.777605 104.118085 
L 100.461097 102.928225 
L 100.236209 101.738366 
L 100.052967 100.548507 
L 99.869725 99.358648 
L 99.736459 98.168789 
L 99.61985 96.97893 
L 99.286683 94.599211 
L 98.00399 93.409352 
L 97.929028 92.219493 
L 97.879053 91.029634 
L 97.662494 89.839775 
L 97.429277 88.649915 
L 97.154415 87.460056 
L 96.79626 86.270197 
L 96.554714 85.080338 
L 96.538056 83.890479 
L 96.413118 82.70062 
L 96.154914 81.510761 
L 96.096609 80.320901 
L 95.446934 79.131042 
L 94.647333 77.941183 
L 94.555712 76.751324 
L 94.114266 75.561465 
L 93.656161 74.371606 
L 93.073119 73.181746 
L 93.06479 71.991887 
L 92.689977 70.802028 
L 91.165738 69.612169 
L 90.349479 68.42231 
L 90.166238 67.232451 
L 90.14125 66.042592 
L 89.491574 64.852732 
L 87.534219 63.662873 
L 86.884543 62.473014 
L 86.842897 61.283155 
L 83.369632 60.093296 
L 81.06245 58.903437 
L 78.047289 57.713577 
L 77.23103 56.523718 
L 76.706292 55.333859 
L 73.832727 54.144 
z
" clip-path="url(#p3dafb99a3f)" style="fill: #ff0000"/>
   </g>
   <g id="matplotlib.axis_1">
    <g id="xtick_1">
     <g id="line2d_1">
      <defs>
       <path id="mea49c8405b" d="M 0 0 
L 0 3.5 
" style="stroke: #000000; stroke-width: 0.8"/>
      </defs>
      <g>
       <use xlink:href="#mea49c8405b" x="62.829888" y="307.584" style="stroke: #000000; stroke-width: 0.8"/>
      </g>
     </g>
     <g id="text_1">
      <!-- 50 -->
      <g transform="translate(56.467388 322.182437) scale(0.1 -0.1)">
       <defs>
        <path id="DejaVuSans-35" d="M 691 4666 
L 3169 4666 
L 3169 4134 
L 1269 4134 
L 1269 2991 
Q 1406 3038 1543 3061 
Q 1681 3084 1819 3084 
Q 2600 3084 3056 2656 
Q 3513 2228 3513 1497 
Q 3513 744 3044 326 
Q 2575 -91 1722 -91 
Q 1428 -91 1123 -41 
Q 819 9 494 109 
L 494 744 
Q 775 591 1075 516 
Q 1375 441 1709 441 
Q 2250 441 2565 725 
Q 2881 1009 2881 1497 
Q 2881 1984 2565 2268 
Q 2250 2553 1709 2553 
Q 1456 2553 1204 2497 
Q 953 2441 691 2322 
L 691 4666 
z
" transform="scale(0.015625)"/>
        <path id="DejaVuSans-30" d="M 2034 4250 
Q 1547 4250 1301 3770 
Q 1056 3291 1056 2328 
Q 1056 1369 1301 889 
Q 1547 409 2034 409 
Q 2525 409 2770 889 
Q 3016 1369 3016 2328 
Q 3016 3291 2770 3770 
Q 2525 4250 2034 4250 
z
M 2034 4750 
Q 2819 4750 3233 4129 
Q 3647 3509 3647 2328 
Q 3647 1150 3233 529 
Q 2819 -91 2034 -91 
Q 1250 -91 836 529 
Q 422 1150 422 2328 
Q 422 3509 836 4129 
Q 1250 4750 2034 4750 
z
" transform="scale(0.015625)"/>
       </defs>
       <use xlink:href="#DejaVuSans-35"/>
       <use xlink:href="#DejaVuSans-30" x="63.623047"/>
      </g>
     </g>
    </g>
    <g id="xtick_2">
     <g id="line2d_2">
      <g>
       <use xlink:href="#mea49c8405b" x="104.475759" y="307.584" style="stroke: #000000; stroke-width: 0.8"/>
      </g>
     </g>
     <g id="text_2">
      <!-- 100 -->
      <g transform="translate(94.932009 322.182437) scale(0.1 -0.1)">
       <defs>
        <path id="DejaVuSans-31" d="M 794 531 
L 1825 531 
L 1825 4091 
L 703 3866 
L 703 4441 
L 1819 4666 
L 2450 4666 
L 2450 531 
L 3481 531 
L 3481 0 
L 794 0 
L 794 531 
z
" transform="scale(0.015625)"/>
       </defs>
       <use xlink:href="#DejaVuSans-31"/>
       <use xlink:href="#DejaVuSans-30" x="63.623047"/>
       <use xlink:href="#DejaVuSans-30" x="127.246094"/>
      </g>
     </g>
    </g>
    <g id="xtick_3">
     <g id="line2d_3">
      <g>
       <use xlink:href="#mea49c8405b" x="146.121629" y="307.584" style="stroke: #000000; stroke-width: 0.8"/>
      </g>
     </g>
     <g id="text_3">
      <!-- 150 -->
      <g transform="translate(136.577879 322.182437) scale(0.1 -0.1)">
       <use xlink:href="#DejaVuSans-31"/>
       <use xlink:href="#DejaVuSans-35" x="63.623047"/>
       <use xlink:href="#DejaVuSans-30" x="127.246094"/>
      </g>
     </g>
    </g>
    <g id="xtick_4">
     <g id="line2d_4">
      <g>
       <use xlink:href="#mea49c8405b" x="187.767499" y="307.584" style="stroke: #000000; stroke-width: 0.8"/>
      </g>
     </g>
     <g id="text_4">
      <!-- 200 -->
      <g transform="translate(178.223749 322.182437) scale(0.1 -0.1)">
       <defs>
        <path id="DejaVuSans-32" d="M 1228 531 
L 3431 531 
L 3431 0 
L 469 0 
L 469 531 
Q 828 903 1448 1529 
Q 2069 2156 2228 2338 
Q 2531 2678 2651 2914 
Q 2772 3150 2772 3378 
Q 2772 3750 2511 3984 
Q 2250 4219 1831 4219 
Q 1534 4219 1204 4116 
Q 875 4013 500 3803 
L 500 4441 
Q 881 4594 1212 4672 
Q 1544 4750 1819 4750 
Q 2544 4750 2975 4387 
Q 3406 4025 3406 3419 
Q 3406 3131 3298 2873 
Q 3191 2616 2906 2266 
Q 2828 2175 2409 1742 
Q 1991 1309 1228 531 
z
" transform="scale(0.015625)"/>
       </defs>
       <use xlink:href="#DejaVuSans-32"/>
       <use xlink:href="#DejaVuSans-30" x="63.623047"/>
       <use xlink:href="#DejaVuSans-30" x="127.246094"/>
      </g>
     </g>
    </g>
    <g id="xtick_5">
     <g id="line2d_5">
      <g>
       <use xlink:href="#mea49c8405b" x="229.413369" y="307.584" style="stroke: #000000; stroke-width: 0.8"/>
      </g>
     </g>
     <g id="text_5">
      <!-- 250 -->
      <g transform="translate(219.869619 322.182437) scale(0.1 -0.1)">
       <use xlink:href="#DejaVuSans-32"/>
       <use xlink:href="#DejaVuSans-35" x="63.623047"/>
       <use xlink:href="#DejaVuSans-30" x="127.246094"/>
      </g>
     </g>
    </g>
    <g id="xtick_6">
     <g id="line2d_6">
      <g>
       <use xlink:href="#mea49c8405b" x="271.059239" y="307.584" style="stroke: #000000; stroke-width: 0.8"/>
      </g>
     </g>
     <g id="text_6">
      <!-- 300 -->
      <g transform="translate(261.515489 322.182437) scale(0.1 -0.1)">
       <defs>
        <path id="DejaVuSans-33" d="M 2597 2516 
Q 3050 2419 3304 2112 
Q 3559 1806 3559 1356 
Q 3559 666 3084 287 
Q 2609 -91 1734 -91 
Q 1441 -91 1130 -33 
Q 819 25 488 141 
L 488 750 
Q 750 597 1062 519 
Q 1375 441 1716 441 
Q 2309 441 2620 675 
Q 2931 909 2931 1356 
Q 2931 1769 2642 2001 
Q 2353 2234 1838 2234 
L 1294 2234 
L 1294 2753 
L 1863 2753 
Q 2328 2753 2575 2939 
Q 2822 3125 2822 3475 
Q 2822 3834 2567 4026 
Q 2313 4219 1838 4219 
Q 1578 4219 1281 4162 
Q 984 4106 628 3988 
L 628 4550 
Q 988 4650 1302 4700 
Q 1616 4750 1894 4750 
Q 2613 4750 3031 4423 
Q 3450 4097 3450 3541 
Q 3450 3153 3228 2886 
Q 3006 2619 2597 2516 
z
" transform="scale(0.015625)"/>
       </defs>
       <use xlink:href="#DejaVuSans-33"/>
       <use xlink:href="#DejaVuSans-30" x="63.623047"/>
       <use xlink:href="#DejaVuSans-30" x="127.246094"/>
      </g>
     </g>
    </g>
    <g id="xtick_7">
     <g id="line2d_7">
      <g>
       <use xlink:href="#mea49c8405b" x="312.705109" y="307.584" style="stroke: #000000; stroke-width: 0.8"/>
      </g>
     </g>
     <g id="text_7">
      <!-- 350 -->
      <g transform="translate(303.161359 322.182437) scale(0.1 -0.1)">
       <use xlink:href="#DejaVuSans-33"/>
       <use xlink:href="#DejaVuSans-35" x="63.623047"/>
       <use xlink:href="#DejaVuSans-30" x="127.246094"/>
      </g>
     </g>
    </g>
    <g id="xtick_8">
     <g id="line2d_8">
      <g>
       <use xlink:href="#mea49c8405b" x="354.35098" y="307.584" style="stroke: #000000; stroke-width: 0.8"/>
      </g>
     </g>
     <g id="text_8">
      <!-- 400 -->
      <g transform="translate(344.80723 322.182437) scale(0.1 -0.1)">
       <defs>
        <path id="DejaVuSans-34" d="M 2419 4116 
L 825 1625 
L 2419 1625 
L 2419 4116 
z
M 2253 4666 
L 3047 4666 
L 3047 1625 
L 3713 1625 
L 3713 1100 
L 3047 1100 
L 3047 0 
L 2419 0 
L 2419 1100 
L 313 1100 
L 313 1709 
L 2253 4666 
z
" transform="scale(0.015625)"/>
       </defs>
       <use xlink:href="#DejaVuSans-34"/>
       <use xlink:href="#DejaVuSans-30" x="63.623047"/>
       <use xlink:href="#DejaVuSans-30" x="127.246094"/>
      </g>
     </g>
    </g>
    <g id="xtick_9">
     <g id="line2d_9">
      <g>
       <use xlink:href="#mea49c8405b" x="395.99685" y="307.584" style="stroke: #000000; stroke-width: 0.8"/>
      </g>
     </g>
     <g id="text_9">
      <!-- 450 -->
      <g transform="translate(386.4531 322.182437) scale(0.1 -0.1)">
       <use xlink:href="#DejaVuSans-34"/>
       <use xlink:href="#DejaVuSans-35" x="63.623047"/>
       <use xlink:href="#DejaVuSans-30" x="127.246094"/>
      </g>
     </g>
    </g>
    <g id="text_10">
     <!-- Score -->
     <g transform="translate(222.157656 335.860562) scale(0.1 -0.1)">
      <defs>
       <path id="DejaVuSans-53" d="M 3425 4513 
L 3425 3897 
Q 3066 4069 2747 4153 
Q 2428 4238 2131 4238 
Q 1616 4238 1336 4038 
Q 1056 3838 1056 3469 
Q 1056 3159 1242 3001 
Q 1428 2844 1947 2747 
L 2328 2669 
Q 3034 2534 3370 2195 
Q 3706 1856 3706 1288 
Q 3706 609 3251 259 
Q 2797 -91 1919 -91 
Q 1588 -91 1214 -16 
Q 841 59 441 206 
L 441 856 
Q 825 641 1194 531 
Q 1563 422 1919 422 
Q 2459 422 2753 634 
Q 3047 847 3047 1241 
Q 3047 1584 2836 1778 
Q 2625 1972 2144 2069 
L 1759 2144 
Q 1053 2284 737 2584 
Q 422 2884 422 3419 
Q 422 4038 858 4394 
Q 1294 4750 2059 4750 
Q 2388 4750 2728 4690 
Q 3069 4631 3425 4513 
z
" transform="scale(0.015625)"/>
       <path id="DejaVuSans-63" d="M 3122 3366 
L 3122 2828 
Q 2878 2963 2633 3030 
Q 2388 3097 2138 3097 
Q 1578 3097 1268 2742 
Q 959 2388 959 1747 
Q 959 1106 1268 751 
Q 1578 397 2138 397 
Q 2388 397 2633 464 
Q 2878 531 3122 666 
L 3122 134 
Q 2881 22 2623 -34 
Q 2366 -91 2075 -91 
Q 1284 -91 818 406 
Q 353 903 353 1747 
Q 353 2603 823 3093 
Q 1294 3584 2113 3584 
Q 2378 3584 2631 3529 
Q 2884 3475 3122 3366 
z
" transform="scale(0.015625)"/>
       <path id="DejaVuSans-6f" d="M 1959 3097 
Q 1497 3097 1228 2736 
Q 959 2375 959 1747 
Q 959 1119 1226 758 
Q 1494 397 1959 397 
Q 2419 397 2687 759 
Q 2956 1122 2956 1747 
Q 2956 2369 2687 2733 
Q 2419 3097 1959 3097 
z
M 1959 3584 
Q 2709 3584 3137 3096 
Q 3566 2609 3566 1747 
Q 3566 888 3137 398 
Q 2709 -91 1959 -91 
Q 1206 -91 779 398 
Q 353 888 353 1747 
Q 353 2609 779 3096 
Q 1206 3584 1959 3584 
z
" transform="scale(0.015625)"/>
       <path id="DejaVuSans-72" d="M 2631 2963 
Q 2534 3019 2420 3045 
Q 2306 3072 2169 3072 
Q 1681 3072 1420 2755 
Q 1159 2438 1159 1844 
L 1159 0 
L 581 0 
L 581 3500 
L 1159 3500 
L 1159 2956 
Q 1341 3275 1631 3429 
Q 1922 3584 2338 3584 
Q 2397 3584 2469 3576 
Q 2541 3569 2628 3553 
L 2631 2963 
z
" transform="scale(0.015625)"/>
       <path id="DejaVuSans-65" d="M 3597 1894 
L 3597 1613 
L 953 1613 
Q 991 1019 1311 708 
Q 1631 397 2203 397 
Q 2534 397 2845 478 
Q 3156 559 3463 722 
L 3463 178 
Q 3153 47 2828 -22 
Q 2503 -91 2169 -91 
Q 1331 -91 842 396 
Q 353 884 353 1716 
Q 353 2575 817 3079 
Q 1281 3584 2069 3584 
Q 2775 3584 3186 3129 
Q 3597 2675 3597 1894 
z
M 3022 2063 
Q 3016 2534 2758 2815 
Q 2500 3097 2075 3097 
Q 1594 3097 1305 2825 
Q 1016 2553 972 2059 
L 3022 2063 
z
" transform="scale(0.015625)"/>
      </defs>
      <use xlink:href="#DejaVuSans-53"/>
      <use xlink:href="#DejaVuSans-63" x="63.476562"/>
      <use xlink:href="#DejaVuSans-6f" x="118.457031"/>
      <use xlink:href="#DejaVuSans-72" x="179.638672"/>
      <use xlink:href="#DejaVuSans-65" x="218.501953"/>
     </g>
    </g>
   </g>
   <g id="matplotlib.axis_2">
    <g id="ytick_1">
     <g id="line2d_10">
      <defs>
       <path id="mec67bf2d3c" d="M 0 0 
L -3.5 0 
" style="stroke: #000000; stroke-width: 0.8"/>
      </defs>
      <g>
       <use xlink:href="#mec67bf2d3c" x="57.6" y="307.584" style="stroke: #000000; stroke-width: 0.8"/>
      </g>
     </g>
     <g id="text_11">
      <!-- 0 -->
      <g transform="translate(44.2375 311.383219) scale(0.1 -0.1)">
       <use xlink:href="#DejaVuSans-30"/>
      </g>
     </g>
    </g>
    <g id="ytick_2">
     <g id="line2d_11">
      <g>
       <use xlink:href="#mec67bf2d3c" x="57.6" y="277.837521" style="stroke: #000000; stroke-width: 0.8"/>
      </g>
     </g>
     <g id="text_12">
      <!-- 25 -->
      <g transform="translate(37.875 281.63674) scale(0.1 -0.1)">
       <use xlink:href="#DejaVuSans-32"/>
       <use xlink:href="#DejaVuSans-35" x="63.623047"/>
      </g>
     </g>
    </g>
    <g id="ytick_3">
     <g id="line2d_12">
      <g>
       <use xlink:href="#mec67bf2d3c" x="57.6" y="248.091042" style="stroke: #000000; stroke-width: 0.8"/>
      </g>
     </g>
     <g id="text_13">
      <!-- 50 -->
      <g transform="translate(37.875 251.890261) scale(0.1 -0.1)">
       <use xlink:href="#DejaVuSans-35"/>
       <use xlink:href="#DejaVuSans-30" x="63.623047"/>
      </g>
     </g>
    </g>
    <g id="ytick_4">
     <g id="line2d_13">
      <g>
       <use xlink:href="#mec67bf2d3c" x="57.6" y="218.344563" style="stroke: #000000; stroke-width: 0.8"/>
      </g>
     </g>
     <g id="text_14">
      <!-- 75 -->
      <g transform="translate(37.875 222.143782) scale(0.1 -0.1)">
       <defs>
        <path id="DejaVuSans-37" d="M 525 4666 
L 3525 4666 
L 3525 4397 
L 1831 0 
L 1172 0 
L 2766 4134 
L 525 4134 
L 525 4666 
z
" transform="scale(0.015625)"/>
       </defs>
       <use xlink:href="#DejaVuSans-37"/>
       <use xlink:href="#DejaVuSans-35" x="63.623047"/>
      </g>
     </g>
    </g>
    <g id="ytick_5">
     <g id="line2d_14">
      <g>
       <use xlink:href="#mec67bf2d3c" x="57.6" y="188.598085" style="stroke: #000000; stroke-width: 0.8"/>
      </g>
     </g>
     <g id="text_15">
      <!-- 100 -->
      <g transform="translate(31.5125 192.397303) scale(0.1 -0.1)">
       <use xlink:href="#DejaVuSans-31"/>
       <use xlink:href="#DejaVuSans-30" x="63.623047"/>
       <use xlink:href="#DejaVuSans-30" x="127.246094"/>
      </g>
     </g>
    </g>
    <g id="ytick_6">
     <g id="line2d_15">
      <g>
       <use xlink:href="#mec67bf2d3c" x="57.6" y="158.851606" style="stroke: #000000; stroke-width: 0.8"/>
      </g>
     </g>
     <g id="text_16">
      <!-- 125 -->
      <g transform="translate(31.5125 162.650824) scale(0.1 -0.1)">
       <use xlink:href="#DejaVuSans-31"/>
       <use xlink:href="#DejaVuSans-32" x="63.623047"/>
       <use xlink:href="#DejaVuSans-35" x="127.246094"/>
      </g>
     </g>
    </g>
    <g id="ytick_7">
     <g id="line2d_16">
      <g>
       <use xlink:href="#mec67bf2d3c" x="57.6" y="129.105127" style="stroke: #000000; stroke-width: 0.8"/>
      </g>
     </g>
     <g id="text_17">
      <!-- 150 -->
      <g transform="translate(31.5125 132.904346) scale(0.1 -0.1)">
       <use xlink:href="#DejaVuSans-31"/>
       <use xlink:href="#DejaVuSans-35" x="63.623047"/>
       <use xlink:href="#DejaVuSans-30" x="127.246094"/>
      </g>
     </g>
    </g>
    <g id="ytick_8">
     <g id="line2d_17">
      <g>
       <use xlink:href="#mec67bf2d3c" x="57.6" y="99.358648" style="stroke: #000000; stroke-width: 0.8"/>
      </g>
     </g>
     <g id="text_18">
      <!-- 175 -->
      <g transform="translate(31.5125 103.157867) scale(0.1 -0.1)">
       <use xlink:href="#DejaVuSans-31"/>
       <use xlink:href="#DejaVuSans-37" x="63.623047"/>
       <use xlink:href="#DejaVuSans-35" x="127.246094"/>
      </g>
     </g>
    </g>
    <g id="ytick_9">
     <g id="line2d_18">
      <g>
       <use xlink:href="#mec67bf2d3c" x="57.6" y="69.612169" style="stroke: #000000; stroke-width: 0.8"/>
      </g>
     </g>
     <g id="text_19">
      <!-- 200 -->
      <g transform="translate(31.5125 73.411388) scale(0.1 -0.1)">
       <use xlink:href="#DejaVuSans-32"/>
       <use xlink:href="#DejaVuSans-30" x="63.623047"/>
       <use xlink:href="#DejaVuSans-30" x="127.246094"/>
      </g>
     </g>
    </g>
    <g id="text_20">
     <!-- Number of crosslinks -->
     <g transform="translate(25.432812 227.019406) rotate(-90) scale(0.1 -0.1)">
      <defs>
       <path id="DejaVuSans-4e" d="M 628 4666 
L 1478 4666 
L 3547 763 
L 3547 4666 
L 4159 4666 
L 4159 0 
L 3309 0 
L 1241 3903 
L 1241 0 
L 628 0 
L 628 4666 
z
" transform="scale(0.015625)"/>
       <path id="DejaVuSans-75" d="M 544 1381 
L 544 3500 
L 1119 3500 
L 1119 1403 
Q 1119 906 1312 657 
Q 1506 409 1894 409 
Q 2359 409 2629 706 
Q 2900 1003 2900 1516 
L 2900 3500 
L 3475 3500 
L 3475 0 
L 2900 0 
L 2900 538 
Q 2691 219 2414 64 
Q 2138 -91 1772 -91 
Q 1169 -91 856 284 
Q 544 659 544 1381 
z
M 1991 3584 
L 1991 3584 
z
" transform="scale(0.015625)"/>
       <path id="DejaVuSans-6d" d="M 3328 2828 
Q 3544 3216 3844 3400 
Q 4144 3584 4550 3584 
Q 5097 3584 5394 3201 
Q 5691 2819 5691 2113 
L 5691 0 
L 5113 0 
L 5113 2094 
Q 5113 2597 4934 2840 
Q 4756 3084 4391 3084 
Q 3944 3084 3684 2787 
Q 3425 2491 3425 1978 
L 3425 0 
L 2847 0 
L 2847 2094 
Q 2847 2600 2669 2842 
Q 2491 3084 2119 3084 
Q 1678 3084 1418 2786 
Q 1159 2488 1159 1978 
L 1159 0 
L 581 0 
L 581 3500 
L 1159 3500 
L 1159 2956 
Q 1356 3278 1631 3431 
Q 1906 3584 2284 3584 
Q 2666 3584 2933 3390 
Q 3200 3197 3328 2828 
z
" transform="scale(0.015625)"/>
       <path id="DejaVuSans-62" d="M 3116 1747 
Q 3116 2381 2855 2742 
Q 2594 3103 2138 3103 
Q 1681 3103 1420 2742 
Q 1159 2381 1159 1747 
Q 1159 1113 1420 752 
Q 1681 391 2138 391 
Q 2594 391 2855 752 
Q 3116 1113 3116 1747 
z
M 1159 2969 
Q 1341 3281 1617 3432 
Q 1894 3584 2278 3584 
Q 2916 3584 3314 3078 
Q 3713 2572 3713 1747 
Q 3713 922 3314 415 
Q 2916 -91 2278 -91 
Q 1894 -91 1617 61 
Q 1341 213 1159 525 
L 1159 0 
L 581 0 
L 581 4863 
L 1159 4863 
L 1159 2969 
z
" transform="scale(0.015625)"/>
       <path id="DejaVuSans-20" transform="scale(0.015625)"/>
       <path id="DejaVuSans-66" d="M 2375 4863 
L 2375 4384 
L 1825 4384 
Q 1516 4384 1395 4259 
Q 1275 4134 1275 3809 
L 1275 3500 
L 2222 3500 
L 2222 3053 
L 1275 3053 
L 1275 0 
L 697 0 
L 697 3053 
L 147 3053 
L 147 3500 
L 697 3500 
L 697 3744 
Q 697 4328 969 4595 
Q 1241 4863 1831 4863 
L 2375 4863 
z
" transform="scale(0.015625)"/>
       <path id="DejaVuSans-73" d="M 2834 3397 
L 2834 2853 
Q 2591 2978 2328 3040 
Q 2066 3103 1784 3103 
Q 1356 3103 1142 2972 
Q 928 2841 928 2578 
Q 928 2378 1081 2264 
Q 1234 2150 1697 2047 
L 1894 2003 
Q 2506 1872 2764 1633 
Q 3022 1394 3022 966 
Q 3022 478 2636 193 
Q 2250 -91 1575 -91 
Q 1294 -91 989 -36 
Q 684 19 347 128 
L 347 722 
Q 666 556 975 473 
Q 1284 391 1588 391 
Q 1994 391 2212 530 
Q 2431 669 2431 922 
Q 2431 1156 2273 1281 
Q 2116 1406 1581 1522 
L 1381 1569 
Q 847 1681 609 1914 
Q 372 2147 372 2553 
Q 372 3047 722 3315 
Q 1072 3584 1716 3584 
Q 2034 3584 2315 3537 
Q 2597 3491 2834 3397 
z
" transform="scale(0.015625)"/>
       <path id="DejaVuSans-6c" d="M 603 4863 
L 1178 4863 
L 1178 0 
L 603 0 
L 603 4863 
z
" transform="scale(0.015625)"/>
       <path id="DejaVuSans-69" d="M 603 3500 
L 1178 3500 
L 1178 0 
L 603 0 
L 603 3500 
z
M 603 4863 
L 1178 4863 
L 1178 4134 
L 603 4134 
L 603 4863 
z
" transform="scale(0.015625)"/>
       <path id="DejaVuSans-6e" d="M 3513 2113 
L 3513 0 
L 2938 0 
L 2938 2094 
Q 2938 2591 2744 2837 
Q 2550 3084 2163 3084 
Q 1697 3084 1428 2787 
Q 1159 2491 1159 1978 
L 1159 0 
L 581 0 
L 581 3500 
L 1159 3500 
L 1159 2956 
Q 1366 3272 1645 3428 
Q 1925 3584 2291 3584 
Q 2894 3584 3203 3211 
Q 3513 2838 3513 2113 
z
" transform="scale(0.015625)"/>
       <path id="DejaVuSans-6b" d="M 581 4863 
L 1159 4863 
L 1159 1991 
L 2875 3500 
L 3609 3500 
L 1753 1863 
L 3688 0 
L 2938 0 
L 1159 1709 
L 1159 0 
L 581 0 
L 581 4863 
z
" transform="scale(0.015625)"/>
      </defs>
      <use xlink:href="#DejaVuSans-4e"/>
      <use xlink:href="#DejaVuSans-75" x="74.804688"/>
      <use xlink:href="#DejaVuSans-6d" x="138.183594"/>
      <use xlink:href="#DejaVuSans-62" x="235.595703"/>
      <use xlink:href="#DejaVuSans-65" x="299.072266"/>
      <use xlink:href="#DejaVuSans-72" x="360.595703"/>
      <use xlink:href="#DejaVuSans-20" x="401.708984"/>
      <use xlink:href="#DejaVuSans-6f" x="433.496094"/>
      <use xlink:href="#DejaVuSans-66" x="494.677734"/>
      <use xlink:href="#DejaVuSans-20" x="529.882812"/>
      <use xlink:href="#DejaVuSans-63" x="561.669922"/>
      <use xlink:href="#DejaVuSans-72" x="616.650391"/>
      <use xlink:href="#DejaVuSans-6f" x="655.513672"/>
      <use xlink:href="#DejaVuSans-73" x="716.695312"/>
      <use xlink:href="#DejaVuSans-73" x="768.794922"/>
      <use xlink:href="#DejaVuSans-6c" x="820.894531"/>
      <use xlink:href="#DejaVuSans-69" x="848.677734"/>
      <use xlink:href="#DejaVuSans-6e" x="876.460938"/>
      <use xlink:href="#DejaVuSans-6b" x="939.839844"/>
      <use xlink:href="#DejaVuSans-73" x="997.75"/>
     </g>
    </g>
   </g>
   <g id="patch_3">
    <path d="M 57.6 307.584 
L 57.6 41.472 
" style="fill: none; stroke: #000000; stroke-width: 0.8; stroke-linejoin: miter; stroke-linecap: square"/>
   </g>
   <g id="patch_4">
    <path d="M 414.72 307.584 
L 414.72 41.472 
" style="fill: none; stroke: #000000; stroke-width: 0.8; stroke-linejoin: miter; stroke-linecap: square"/>
   </g>
   <g id="patch_5">
    <path d="M 57.6 307.584 
L 414.72 307.584 
" style="fill: none; stroke: #000000; stroke-width: 0.8; stroke-linejoin: miter; stroke-linecap: square"/>
   </g>
   <g id="patch_6">
    <path d="M 57.6 41.472 
L 414.72 41.472 
" style="fill: none; stroke: #000000; stroke-width: 0.8; stroke-linejoin: miter; stroke-linecap: square"/>
   </g>
   <g id="legend_1">
    <g id="patch_7">
     <path d="M 293.087188 93.506375 
L 407.72 93.506375 
Q 409.72 93.506375 409.72 91.506375 
L 409.72 48.472 
Q 409.72 46.472 407.72 46.472 
L 293.087188 46.472 
Q 291.087188 46.472 291.087188 48.472 
L 291.087188 91.506375 
Q 291.087188 93.506375 293.087188 93.506375 
z
" style="fill: #ffffff; opacity: 0.8; stroke: #cccccc; stroke-linejoin: miter"/>
    </g>
    <g id="patch_8">
     <path d="M 295.087188 58.070438 
L 315.087188 58.070438 
L 315.087188 51.070438 
L 295.087188 51.070438 
z
" style="fill: #008000"/>
    </g>
    <g id="text_21">
     <!-- true -->
     <g transform="translate(323.087188 58.070438) scale(0.1 -0.1)">
      <defs>
       <path id="DejaVuSans-74" d="M 1172 4494 
L 1172 3500 
L 2356 3500 
L 2356 3053 
L 1172 3053 
L 1172 1153 
Q 1172 725 1289 603 
Q 1406 481 1766 481 
L 2356 481 
L 2356 0 
L 1766 0 
Q 1100 0 847 248 
Q 594 497 594 1153 
L 594 3053 
L 172 3053 
L 172 3500 
L 594 3500 
L 594 4494 
L 1172 4494 
z
" transform="scale(0.015625)"/>
      </defs>
      <use xlink:href="#DejaVuSans-74"/>
      <use xlink:href="#DejaVuSans-72" x="39.208984"/>
      <use xlink:href="#DejaVuSans-75" x="80.322266"/>
      <use xlink:href="#DejaVuSans-65" x="143.701172"/>
     </g>
    </g>
    <g id="patch_9">
     <path d="M 295.087188 72.748563 
L 315.087188 72.748563 
L 315.087188 65.748563 
L 295.087188 65.748563 
z
" style="fill: #7cfc00"/>
    </g>
    <g id="text_22">
     <!-- true homeotypic -->
     <g transform="translate(323.087188 72.748563) scale(0.1 -0.1)">
      <defs>
       <path id="DejaVuSans-68" d="M 3513 2113 
L 3513 0 
L 2938 0 
L 2938 2094 
Q 2938 2591 2744 2837 
Q 2550 3084 2163 3084 
Q 1697 3084 1428 2787 
Q 1159 2491 1159 1978 
L 1159 0 
L 581 0 
L 581 4863 
L 1159 4863 
L 1159 2956 
Q 1366 3272 1645 3428 
Q 1925 3584 2291 3584 
Q 2894 3584 3203 3211 
Q 3513 2838 3513 2113 
z
" transform="scale(0.015625)"/>
       <path id="DejaVuSans-79" d="M 2059 -325 
Q 1816 -950 1584 -1140 
Q 1353 -1331 966 -1331 
L 506 -1331 
L 506 -850 
L 844 -850 
Q 1081 -850 1212 -737 
Q 1344 -625 1503 -206 
L 1606 56 
L 191 3500 
L 800 3500 
L 1894 763 
L 2988 3500 
L 3597 3500 
L 2059 -325 
z
" transform="scale(0.015625)"/>
       <path id="DejaVuSans-70" d="M 1159 525 
L 1159 -1331 
L 581 -1331 
L 581 3500 
L 1159 3500 
L 1159 2969 
Q 1341 3281 1617 3432 
Q 1894 3584 2278 3584 
Q 2916 3584 3314 3078 
Q 3713 2572 3713 1747 
Q 3713 922 3314 415 
Q 2916 -91 2278 -91 
Q 1894 -91 1617 61 
Q 1341 213 1159 525 
z
M 3116 1747 
Q 3116 2381 2855 2742 
Q 2594 3103 2138 3103 
Q 1681 3103 1420 2742 
Q 1159 2381 1159 1747 
Q 1159 1113 1420 752 
Q 1681 391 2138 391 
Q 2594 391 2855 752 
Q 3116 1113 3116 1747 
z
" transform="scale(0.015625)"/>
      </defs>
      <use xlink:href="#DejaVuSans-74"/>
      <use xlink:href="#DejaVuSans-72" x="39.208984"/>
      <use xlink:href="#DejaVuSans-75" x="80.322266"/>
      <use xlink:href="#DejaVuSans-65" x="143.701172"/>
      <use xlink:href="#DejaVuSans-20" x="205.224609"/>
      <use xlink:href="#DejaVuSans-68" x="237.011719"/>
      <use xlink:href="#DejaVuSans-6f" x="300.390625"/>
      <use xlink:href="#DejaVuSans-6d" x="361.572266"/>
      <use xlink:href="#DejaVuSans-65" x="458.984375"/>
      <use xlink:href="#DejaVuSans-6f" x="520.507812"/>
      <use xlink:href="#DejaVuSans-74" x="581.689453"/>
      <use xlink:href="#DejaVuSans-79" x="620.898438"/>
      <use xlink:href="#DejaVuSans-70" x="680.078125"/>
      <use xlink:href="#DejaVuSans-69" x="743.554688"/>
      <use xlink:href="#DejaVuSans-63" x="771.337891"/>
     </g>
    </g>
    <g id="patch_10">
     <path d="M 295.087188 87.426688 
L 315.087188 87.426688 
L 315.087188 80.426688 
L 295.087188 80.426688 
z
" style="fill: #ff0000"/>
    </g>
    <g id="text_23">
     <!-- false -->
     <g transform="translate(323.087188 87.426688) scale(0.1 -0.1)">
      <defs>
       <path id="DejaVuSans-61" d="M 2194 1759 
Q 1497 1759 1228 1600 
Q 959 1441 959 1056 
Q 959 750 1161 570 
Q 1363 391 1709 391 
Q 2188 391 2477 730 
Q 2766 1069 2766 1631 
L 2766 1759 
L 2194 1759 
z
M 3341 1997 
L 3341 0 
L 2766 0 
L 2766 531 
Q 2569 213 2275 61 
Q 1981 -91 1556 -91 
Q 1019 -91 701 211 
Q 384 513 384 1019 
Q 384 1609 779 1909 
Q 1175 2209 1959 2209 
L 2766 2209 
L 2766 2266 
Q 2766 2663 2505 2880 
Q 2244 3097 1772 3097 
Q 1472 3097 1187 3025 
Q 903 2953 641 2809 
L 641 3341 
Q 956 3463 1253 3523 
Q 1550 3584 1831 3584 
Q 2591 3584 2966 3190 
Q 3341 2797 3341 1997 
z
" transform="scale(0.015625)"/>
      </defs>
      <use xlink:href="#DejaVuSans-66"/>
      <use xlink:href="#DejaVuSans-61" x="35.205078"/>
      <use xlink:href="#DejaVuSans-6c" x="96.484375"/>
      <use xlink:href="#DejaVuSans-73" x="124.267578"/>
      <use xlink:href="#DejaVuSans-65" x="176.367188"/>
     </g>
    </g>
   </g>
  </g>
 </g>
 <defs>
  <clipPath id="p3dafb99a3f">
   <rect x="57.6" y="41.472" width="357.12" height="266.112"/>
  </clipPath>
 </defs>
</svg>
