<?xml version="1.0" encoding="utf-8" standalone="no"?>
<!DOCTYPE svg PUBLIC "-//W3C//DTD SVG 1.1//EN"
  "http://www.w3.org/Graphics/SVG/1.1/DTD/svg11.dtd">
<svg xmlns:xlink="http://www.w3.org/1999/xlink" width="460.8pt" height="345.6pt" viewBox="0 0 460.8 345.6" xmlns="http://www.w3.org/2000/svg" version="1.1">
 <metadata>
  <rdf:RDF xmlns:dc="http://purl.org/dc/elements/1.1/" xmlns:cc="http://creativecommons.org/ns#" xmlns:rdf="http://www.w3.org/1999/02/22-rdf-syntax-ns#">
   <cc:Work>
    <dc:type rdf:resource="http://purl.org/dc/dcmitype/StillImage"/>
    <dc:date>2024-06-24T12:59:09.310591</dc:date>
    <dc:format>image/svg+xml</dc:format>
    <dc:creator>
     <cc:Agent>
      <dc:title>Matplotlib v3.9.0, https://matplotlib.org/</dc:title>
     </cc:Agent>
    </dc:creator>
   </cc:Work>
  </rdf:RDF>
 </metadata>
 <defs>
  <style type="text/css">*{stroke-linejoin: round; stroke-linecap: butt}</style>
 </defs>
 <g id="figure_1">
  <g id="patch_1">
   <path d="M 0 345.6 
L 460.8 345.6 
L 460.8 0 
L 0 0 
z
" style="fill: #ffffff"/>
  </g>
  <g id="axes_1">
   <g id="patch_2">
    <path d="M 57.6 307.584 
L 414.72 307.584 
L 414.72 41.472 
L 57.6 41.472 
z
" style="fill: #ffffff"/>
   </g>
   <g id="PolyCollection_1">
    <path d="M 73.832727 124.173474 
L 73.832727 307.584 
L 74.400153 307.584 
L 74.898099 307.584 
L 74.973369 307.584 
L 75.535005 307.584 
L 76.484575 307.584 
L 76.536686 307.584 
L 77.196753 307.584 
L 78.690589 307.584 
L 78.719539 307.584 
L 78.991672 307.584 
L 79.941242 307.584 
L 80.62447 307.584 
L 80.954503 307.584 
L 81.770902 307.584 
L 82.129886 307.584 
L 82.367278 307.584 
L 82.622041 307.584 
L 82.801533 307.584 
L 83.247367 307.584 
L 83.282108 307.584 
L 83.924805 307.584 
L 84.862795 307.584 
L 85.517072 307.584 
L 85.690773 307.584 
L 85.916586 307.584 
L 85.933956 307.584 
L 85.968696 307.584 
L 86.061337 307.584 
L 86.31031 307.584 
L 86.547703 307.584 
L 86.814045 307.584 
L 87.21935 307.584 
L 87.2483 307.584 
L 87.856257 307.584 
L 88.093649 307.584 
L 88.122599 307.584 
L 88.406312 307.584 
L 89.07796 307.584 
L 89.407993 307.584 
L 89.604855 307.584 
L 90.09701 307.584 
L 90.594956 307.584 
L 91.359244 307.584 
L 91.712438 307.584 
L 92.210383 307.584 
L 93.524727 307.584 
L 93.565257 307.584 
L 93.576837 307.584 
L 94.207954 307.584 
L 95.638099 307.584 
L 96.159205 307.584 
L 96.211315 307.584 
L 96.275006 307.584 
L 96.703471 307.584 
L 96.772951 307.584 
L 96.859802 307.584 
L 96.882963 307.584 
L 97.062455 307.584 
L 97.369328 307.584 
L 97.896223 307.584 
L 98.272577 307.584 
L 98.5505 307.584 
L 98.666302 307.584 
L 98.961595 307.584 
L 99.4827 307.584 
L 100.42069 307.584 
L 100.43227 307.584 
L 100.744934 307.584 
L 100.953376 307.584 
L 101.132868 307.584 
L 101.32394 307.584 
L 101.584493 307.584 
L 101.873996 307.584 
L 101.920316 307.584 
L 102.632494 307.584 
L 103.032008 307.584 
L 103.101489 307.584 
L 103.142019 307.584 
L 103.18255 307.584 
L 103.21729 307.584 
L 103.541533 307.584 
L 103.576274 307.584 
L 103.935258 307.584 
L 104.271081 307.584 
L 105.012209 307.584 
L 105.266972 307.584 
L 105.475414 307.584 
L 106.04284 307.584 
L 106.228122 307.584 
L 106.442354 307.584 
L 106.731857 307.584 
L 106.807128 307.584 
L 107.652477 307.584 
L 107.994091 307.584 
L 108.063572 307.584 
L 108.532567 307.584 
L 109.586358 307.584 
L 109.684789 307.584 
L 110.506978 307.584 
L 110.71542 307.584 
L 110.819641 307.584 
L 111.358117 307.584 
L 112.469809 307.584 
L 113.031444 307.584 
L 113.303577 307.584 
L 113.847843 307.584 
L 114.947955 307.584 
L 115.017436 307.584 
L 115.376419 307.584 
L 115.880155 307.584 
L 116.221768 307.584 
L 116.841305 307.584 
L 117.402941 307.584 
L 117.970367 307.584 
L 118.20776 307.584 
L 118.838876 307.584 
L 119.018368 307.584 
L 119.991099 307.584 
L 120.054789 307.584 
L 120.390613 307.584 
L 120.639585 307.584 
L 120.784337 307.584 
L 120.975409 307.584 
L 121.473354 307.584 
L 121.820758 307.584 
L 122.996141 307.584 
L 123.077201 307.584 
L 123.488296 307.584 
L 123.737268 307.584 
L 125.78116 307.584 
L 125.833271 307.584 
L 126.099614 307.584 
L 126.331216 307.584 
L 127.784522 307.584 
L 128.427218 307.584 
L 128.838313 307.584 
L 129.961585 307.584 
L 130.691132 307.584 
L 130.801144 307.584 
L 131.090647 307.584 
L 131.779664 307.584 
L 132.132858 307.584 
L 132.150228 307.584 
L 132.526582 307.584 
L 132.653963 307.584 
L 132.804505 307.584 
L 132.914516 307.584 
L 133.869876 307.584 
L 134.703645 307.584 
L 135.207381 307.584 
L 135.583735 307.584 
L 136.301702 307.584 
L 137.332333 307.584 
L 137.338123 307.584 
L 137.679737 307.584 
L 137.726057 307.584 
L 138.252953 307.584 
L 139.063562 307.584 
L 139.115672 307.584 
L 139.445706 307.584 
L 140.018922 307.584 
L 141.501178 307.584 
L 142.207565 307.584 
L 143.012384 307.584 
L 144.396208 307.584 
L 144.5178 307.584 
L 144.784142 307.584 
L 145.218397 307.584 
L 146.220078 307.584 
L 146.312719 307.584 
L 146.330089 307.584 
L 147.100167 307.584 
L 147.835505 307.584 
L 147.881825 307.584 
L 149.045628 307.584 
L 151.929078 307.584 
L 153.00024 307.584 
L 153.058141 307.584 
L 153.891909 307.584 
L 154.615667 307.584 
L 155.542077 307.584 
L 155.976332 307.584 
L 158.471848 307.584 
L 159.647231 307.584 
L 159.699341 307.584 
L 160.174126 307.584 
L 160.996315 307.584 
L 162.310659 307.584 
L 163.30076 307.584 
L 164.835126 307.584 
L 165.460453 307.584 
L 166.247901 307.584 
L 174.892463 307.584 
L 175.071955 307.584 
L 177.034786 307.584 
L 178.39545 307.584 
L 179.761905 307.584 
L 182.824847 307.584 
L 183.948119 307.584 
L 186.85473 307.584 
L 188.632279 307.584 
L 188.875462 307.584 
L 192.945875 307.584 
L 193.611732 307.584 
L 194.457081 307.584 
L 198.718566 307.584 
L 199.778148 307.584 
L 202.516847 307.584 
L 204.103324 307.584 
L 207.067835 307.584 
L 212.20941 307.584 
L 218.485837 307.584 
L 219.944932 307.584 
L 221.050834 307.584 
L 227.593604 307.584 
L 233.291024 307.584 
L 236.197635 307.584 
L 238.47892 307.584 
L 239.775893 307.584 
L 240.215938 307.584 
L 243.713135 307.584 
L 262.328184 307.584 
L 267.018133 307.584 
L 274.151489 307.584 
L 278.853019 307.584 
L 398.487273 307.584 
L 398.487273 307.584 
L 398.487273 307.584 
L 278.853019 307.584 
L 274.151489 307.584 
L 267.018133 307.584 
L 262.328184 307.584 
L 243.713135 307.584 
L 240.215938 306.472421 
L 239.775893 306.472421 
L 238.47892 306.472421 
L 236.197635 306.472421 
L 233.291024 306.472421 
L 227.593604 306.472421 
L 221.050834 306.472421 
L 219.944932 306.472421 
L 218.485837 305.360842 
L 212.20941 305.360842 
L 207.067835 305.360842 
L 204.103324 305.360842 
L 202.516847 305.360842 
L 199.778148 304.249263 
L 198.718566 303.137684 
L 194.457081 302.026105 
L 193.611732 302.026105 
L 192.945875 300.914526 
L 188.875462 300.914526 
L 188.632279 300.914526 
L 186.85473 300.914526 
L 183.948119 300.914526 
L 182.824847 299.802947 
L 179.761905 298.691368 
L 178.39545 297.579789 
L 177.034786 296.468211 
L 175.071955 295.356632 
L 174.892463 295.356632 
L 166.247901 295.356632 
L 165.460453 294.245053 
L 164.835126 294.245053 
L 163.30076 293.133474 
L 162.310659 292.021895 
L 160.996315 290.910316 
L 160.174126 289.798737 
L 159.699341 289.798737 
L 159.647231 288.687158 
L 158.471848 287.575579 
L 155.976332 286.464 
L 155.542077 286.464 
L 154.615667 285.352421 
L 153.891909 284.240842 
L 153.058141 283.129263 
L 153.00024 282.017684 
L 151.929078 280.906105 
L 149.045628 279.794526 
L 147.881825 278.682947 
L 147.835505 278.682947 
L 147.100167 278.682947 
L 146.330089 277.571368 
L 146.312719 276.459789 
L 146.220078 275.348211 
L 145.218397 274.236632 
L 144.784142 273.125053 
L 144.5178 272.013474 
L 144.396208 270.901895 
L 143.012384 269.790316 
L 142.207565 269.790316 
L 141.501178 268.678737 
L 140.018922 267.567158 
L 139.445706 266.455579 
L 139.115672 265.344 
L 139.063562 265.344 
L 138.252953 264.232421 
L 137.726057 263.120842 
L 137.679737 262.009263 
L 137.338123 262.009263 
L 137.332333 260.897684 
L 136.301702 259.786105 
L 135.583735 258.674526 
L 135.207381 257.562947 
L 134.703645 256.451368 
L 133.869876 255.339789 
L 132.914516 254.228211 
L 132.804505 253.116632 
L 132.653963 252.005053 
L 132.526582 252.005053 
L 132.150228 250.893474 
L 132.132858 249.781895 
L 131.779664 248.670316 
L 131.090647 247.558737 
L 130.801144 247.558737 
L 130.691132 246.447158 
L 129.961585 245.335579 
L 128.838313 244.224 
L 128.427218 243.112421 
L 127.784522 242.000842 
L 126.331216 240.889263 
L 126.099614 239.777684 
L 125.833271 238.666105 
L 125.78116 237.554526 
L 123.737268 236.442947 
L 123.488296 235.331368 
L 123.077201 234.219789 
L 122.996141 234.219789 
L 121.820758 234.219789 
L 121.473354 233.108211 
L 120.975409 231.996632 
L 120.784337 230.885053 
L 120.639585 229.773474 
L 120.390613 228.661895 
L 120.054789 227.550316 
L 119.991099 226.438737 
L 119.018368 225.327158 
L 118.838876 225.327158 
L 118.20776 224.215579 
L 117.970367 223.104 
L 117.402941 223.104 
L 116.841305 221.992421 
L 116.221768 220.880842 
L 115.880155 219.769263 
L 115.376419 219.769263 
L 115.017436 219.769263 
L 114.947955 218.657684 
L 113.847843 217.546105 
L 113.303577 216.434526 
L 113.031444 216.434526 
L 112.469809 216.434526 
L 111.358117 215.322947 
L 110.819641 215.322947 
L 110.71542 215.322947 
L 110.506978 214.211368 
L 109.684789 213.099789 
L 109.586358 213.099789 
L 108.532567 211.988211 
L 108.063572 210.876632 
L 107.994091 210.876632 
L 107.652477 209.765053 
L 106.807128 209.765053 
L 106.731857 208.653474 
L 106.442354 207.541895 
L 106.228122 206.430316 
L 106.04284 206.430316 
L 105.475414 205.318737 
L 105.266972 204.207158 
L 105.012209 203.095579 
L 104.271081 201.984 
L 103.935258 200.872421 
L 103.576274 199.760842 
L 103.541533 198.649263 
L 103.21729 197.537684 
L 103.18255 195.314526 
L 103.142019 194.202947 
L 103.101489 194.202947 
L 103.032008 193.091368 
L 102.632494 191.979789 
L 101.920316 190.868211 
L 101.873996 189.756632 
L 101.584493 188.645053 
L 101.32394 187.533474 
L 101.132868 186.421895 
L 100.953376 185.310316 
L 100.744934 184.198737 
L 100.43227 183.087158 
L 100.42069 181.975579 
L 99.4827 180.864 
L 98.961595 180.864 
L 98.666302 179.752421 
L 98.5505 179.752421 
L 98.272577 179.752421 
L 97.896223 178.640842 
L 97.369328 177.529263 
L 97.062455 176.417684 
L 96.882963 175.306105 
L 96.859802 174.194526 
L 96.772951 173.082947 
L 96.703471 171.971368 
L 96.275006 170.859789 
L 96.211315 169.748211 
L 96.159205 168.636632 
L 95.638099 167.525053 
L 94.207954 166.413474 
L 93.576837 165.301895 
L 93.565257 164.190316 
L 93.524727 164.190316 
L 92.210383 163.078737 
L 91.712438 163.078737 
L 91.359244 163.078737 
L 90.594956 161.967158 
L 90.09701 160.855579 
L 89.604855 159.744 
L 89.407993 158.632421 
L 89.07796 157.520842 
L 88.406312 156.409263 
L 88.122599 155.297684 
L 88.093649 154.186105 
L 87.856257 153.074526 
L 87.2483 151.962947 
L 87.21935 150.851368 
L 86.814045 149.739789 
L 86.547703 148.628211 
L 86.31031 147.516632 
L 86.061337 146.405053 
L 85.968696 145.293474 
L 85.933956 144.181895 
L 85.916586 144.181895 
L 85.690773 143.070316 
L 85.517072 141.958737 
L 84.862795 140.847158 
L 83.924805 140.847158 
L 83.282108 139.735579 
L 83.247367 138.624 
L 82.801533 137.512421 
L 82.622041 136.400842 
L 82.367278 135.289263 
L 82.129886 135.289263 
L 81.770902 135.289263 
L 80.954503 134.177684 
L 80.62447 133.066105 
L 79.941242 131.954526 
L 78.991672 130.842947 
L 78.719539 129.731368 
L 78.690589 128.619789 
L 77.196753 127.508211 
L 76.536686 127.508211 
L 76.484575 126.396632 
L 75.535005 125.285053 
L 74.973369 125.285053 
L 74.898099 125.285053 
L 74.400153 124.173474 
L 73.832727 124.173474 
z
" clip-path="url(#pa2e7eabb06)" style="fill: #008000"/>
   </g>
   <g id="PolyCollection_2">
    <path d="M 73.832727 64.148211 
L 73.832727 124.173474 
L 74.400153 124.173474 
L 74.898099 125.285053 
L 74.973369 125.285053 
L 75.535005 125.285053 
L 76.484575 126.396632 
L 76.536686 127.508211 
L 77.196753 127.508211 
L 78.690589 128.619789 
L 78.719539 129.731368 
L 78.991672 130.842947 
L 79.941242 131.954526 
L 80.62447 133.066105 
L 80.954503 134.177684 
L 81.770902 135.289263 
L 82.129886 135.289263 
L 82.367278 135.289263 
L 82.622041 136.400842 
L 82.801533 137.512421 
L 83.247367 138.624 
L 83.282108 139.735579 
L 83.924805 140.847158 
L 84.862795 140.847158 
L 85.517072 141.958737 
L 85.690773 143.070316 
L 85.916586 144.181895 
L 85.933956 144.181895 
L 85.968696 145.293474 
L 86.061337 146.405053 
L 86.31031 147.516632 
L 86.547703 148.628211 
L 86.814045 149.739789 
L 87.21935 150.851368 
L 87.2483 151.962947 
L 87.856257 153.074526 
L 88.093649 154.186105 
L 88.122599 155.297684 
L 88.406312 156.409263 
L 89.07796 157.520842 
L 89.407993 158.632421 
L 89.604855 159.744 
L 90.09701 160.855579 
L 90.594956 161.967158 
L 91.359244 163.078737 
L 91.712438 163.078737 
L 92.210383 163.078737 
L 93.524727 164.190316 
L 93.565257 164.190316 
L 93.576837 165.301895 
L 94.207954 166.413474 
L 95.638099 167.525053 
L 96.159205 168.636632 
L 96.211315 169.748211 
L 96.275006 170.859789 
L 96.703471 171.971368 
L 96.772951 173.082947 
L 96.859802 174.194526 
L 96.882963 175.306105 
L 97.062455 176.417684 
L 97.369328 177.529263 
L 97.896223 178.640842 
L 98.272577 179.752421 
L 98.5505 179.752421 
L 98.666302 179.752421 
L 98.961595 180.864 
L 99.4827 180.864 
L 100.42069 181.975579 
L 100.43227 183.087158 
L 100.744934 184.198737 
L 100.953376 185.310316 
L 101.132868 186.421895 
L 101.32394 187.533474 
L 101.584493 188.645053 
L 101.873996 189.756632 
L 101.920316 190.868211 
L 102.632494 191.979789 
L 103.032008 193.091368 
L 103.101489 194.202947 
L 103.142019 194.202947 
L 103.18255 195.314526 
L 103.21729 197.537684 
L 103.541533 198.649263 
L 103.576274 199.760842 
L 103.935258 200.872421 
L 104.271081 201.984 
L 105.012209 203.095579 
L 105.266972 204.207158 
L 105.475414 205.318737 
L 106.04284 206.430316 
L 106.228122 206.430316 
L 106.442354 207.541895 
L 106.731857 208.653474 
L 106.807128 209.765053 
L 107.652477 209.765053 
L 107.994091 210.876632 
L 108.063572 210.876632 
L 108.532567 211.988211 
L 109.586358 213.099789 
L 109.684789 213.099789 
L 110.506978 214.211368 
L 110.71542 215.322947 
L 110.819641 215.322947 
L 111.358117 215.322947 
L 112.469809 216.434526 
L 113.031444 216.434526 
L 113.303577 216.434526 
L 113.847843 217.546105 
L 114.947955 218.657684 
L 115.017436 219.769263 
L 115.376419 219.769263 
L 115.880155 219.769263 
L 116.221768 220.880842 
L 116.841305 221.992421 
L 117.402941 223.104 
L 117.970367 223.104 
L 118.20776 224.215579 
L 118.838876 225.327158 
L 119.018368 225.327158 
L 119.991099 226.438737 
L 120.054789 227.550316 
L 120.390613 228.661895 
L 120.639585 229.773474 
L 120.784337 230.885053 
L 120.975409 231.996632 
L 121.473354 233.108211 
L 121.820758 234.219789 
L 122.996141 234.219789 
L 123.077201 234.219789 
L 123.488296 235.331368 
L 123.737268 236.442947 
L 125.78116 237.554526 
L 125.833271 238.666105 
L 126.099614 239.777684 
L 126.331216 240.889263 
L 127.784522 242.000842 
L 128.427218 243.112421 
L 128.838313 244.224 
L 129.961585 245.335579 
L 130.691132 246.447158 
L 130.801144 247.558737 
L 131.090647 247.558737 
L 131.779664 248.670316 
L 132.132858 249.781895 
L 132.150228 250.893474 
L 132.526582 252.005053 
L 132.653963 252.005053 
L 132.804505 253.116632 
L 132.914516 254.228211 
L 133.869876 255.339789 
L 134.703645 256.451368 
L 135.207381 257.562947 
L 135.583735 258.674526 
L 136.301702 259.786105 
L 137.332333 260.897684 
L 137.338123 262.009263 
L 137.679737 262.009263 
L 137.726057 263.120842 
L 138.252953 264.232421 
L 139.063562 265.344 
L 139.115672 265.344 
L 139.445706 266.455579 
L 140.018922 267.567158 
L 141.501178 268.678737 
L 142.207565 269.790316 
L 143.012384 269.790316 
L 144.396208 270.901895 
L 144.5178 272.013474 
L 144.784142 273.125053 
L 145.218397 274.236632 
L 146.220078 275.348211 
L 146.312719 276.459789 
L 146.330089 277.571368 
L 147.100167 278.682947 
L 147.835505 278.682947 
L 147.881825 278.682947 
L 149.045628 279.794526 
L 151.929078 280.906105 
L 153.00024 282.017684 
L 153.058141 283.129263 
L 153.891909 284.240842 
L 154.615667 285.352421 
L 155.542077 286.464 
L 155.976332 286.464 
L 158.471848 287.575579 
L 159.647231 288.687158 
L 159.699341 289.798737 
L 160.174126 289.798737 
L 160.996315 290.910316 
L 162.310659 292.021895 
L 163.30076 293.133474 
L 164.835126 294.245053 
L 165.460453 294.245053 
L 166.247901 295.356632 
L 174.892463 295.356632 
L 175.071955 295.356632 
L 177.034786 296.468211 
L 178.39545 297.579789 
L 179.761905 298.691368 
L 182.824847 299.802947 
L 183.948119 300.914526 
L 186.85473 300.914526 
L 188.632279 300.914526 
L 188.875462 300.914526 
L 192.945875 300.914526 
L 193.611732 302.026105 
L 194.457081 302.026105 
L 198.718566 303.137684 
L 199.778148 304.249263 
L 202.516847 305.360842 
L 204.103324 305.360842 
L 207.067835 305.360842 
L 212.20941 305.360842 
L 218.485837 305.360842 
L 219.944932 306.472421 
L 221.050834 306.472421 
L 227.593604 306.472421 
L 233.291024 306.472421 
L 236.197635 306.472421 
L 238.47892 306.472421 
L 239.775893 306.472421 
L 240.215938 306.472421 
L 243.713135 307.584 
L 262.328184 307.584 
L 267.018133 307.584 
L 274.151489 307.584 
L 278.853019 307.584 
L 398.487273 307.584 
L 398.487273 306.472421 
L 398.487273 306.472421 
L 278.853019 305.360842 
L 274.151489 304.249263 
L 267.018133 303.137684 
L 262.328184 302.026105 
L 243.713135 300.914526 
L 240.215938 299.802947 
L 239.775893 298.691368 
L 238.47892 297.579789 
L 236.197635 296.468211 
L 233.291024 295.356632 
L 227.593604 294.245053 
L 221.050834 293.133474 
L 219.944932 292.021895 
L 218.485837 290.910316 
L 212.20941 289.798737 
L 207.067835 288.687158 
L 204.103324 287.575579 
L 202.516847 286.464 
L 199.778148 285.352421 
L 198.718566 284.240842 
L 194.457081 283.129263 
L 193.611732 282.017684 
L 192.945875 280.906105 
L 188.875462 279.794526 
L 188.632279 278.682947 
L 186.85473 277.571368 
L 183.948119 276.459789 
L 182.824847 275.348211 
L 179.761905 274.236632 
L 178.39545 273.125053 
L 177.034786 272.013474 
L 175.071955 270.901895 
L 174.892463 269.790316 
L 166.247901 268.678737 
L 165.460453 267.567158 
L 164.835126 266.455579 
L 163.30076 265.344 
L 162.310659 264.232421 
L 160.996315 263.120842 
L 160.174126 262.009263 
L 159.699341 260.897684 
L 159.647231 259.786105 
L 158.471848 258.674526 
L 155.976332 257.562947 
L 155.542077 256.451368 
L 154.615667 255.339789 
L 153.891909 254.228211 
L 153.058141 253.116632 
L 153.00024 252.005053 
L 151.929078 250.893474 
L 149.045628 249.781895 
L 147.881825 248.670316 
L 147.835505 247.558737 
L 147.100167 246.447158 
L 146.330089 245.335579 
L 146.312719 244.224 
L 146.220078 243.112421 
L 145.218397 242.000842 
L 144.784142 240.889263 
L 144.5178 239.777684 
L 144.396208 238.666105 
L 143.012384 237.554526 
L 142.207565 236.442947 
L 141.501178 235.331368 
L 140.018922 234.219789 
L 139.445706 233.108211 
L 139.115672 231.996632 
L 139.063562 230.885053 
L 138.252953 229.773474 
L 137.726057 228.661895 
L 137.679737 227.550316 
L 137.338123 226.438737 
L 137.332333 225.327158 
L 136.301702 224.215579 
L 135.583735 223.104 
L 135.207381 221.992421 
L 134.703645 220.880842 
L 133.869876 219.769263 
L 132.914516 218.657684 
L 132.804505 217.546105 
L 132.653963 216.434526 
L 132.526582 215.322947 
L 132.150228 214.211368 
L 132.132858 213.099789 
L 131.779664 211.988211 
L 131.090647 210.876632 
L 130.801144 209.765053 
L 130.691132 208.653474 
L 129.961585 207.541895 
L 128.838313 206.430316 
L 128.427218 205.318737 
L 127.784522 204.207158 
L 126.331216 203.095579 
L 126.099614 201.984 
L 125.833271 200.872421 
L 125.78116 199.760842 
L 123.737268 198.649263 
L 123.488296 197.537684 
L 123.077201 196.426105 
L 122.996141 195.314526 
L 121.820758 194.202947 
L 121.473354 193.091368 
L 120.975409 191.979789 
L 120.784337 190.868211 
L 120.639585 189.756632 
L 120.390613 188.645053 
L 120.054789 187.533474 
L 119.991099 186.421895 
L 119.018368 185.310316 
L 118.838876 185.310316 
L 118.20776 184.198737 
L 117.970367 183.087158 
L 117.402941 181.975579 
L 116.841305 180.864 
L 116.221768 179.752421 
L 115.880155 178.640842 
L 115.376419 177.529263 
L 115.017436 176.417684 
L 114.947955 175.306105 
L 113.847843 174.194526 
L 113.303577 173.082947 
L 113.031444 171.971368 
L 112.469809 170.859789 
L 111.358117 169.748211 
L 110.819641 168.636632 
L 110.71542 168.636632 
L 110.506978 167.525053 
L 109.684789 166.413474 
L 109.586358 165.301895 
L 108.532567 164.190316 
L 108.063572 163.078737 
L 107.994091 163.078737 
L 107.652477 161.967158 
L 106.807128 160.855579 
L 106.731857 159.744 
L 106.442354 158.632421 
L 106.228122 157.520842 
L 106.04284 156.409263 
L 105.475414 155.297684 
L 105.266972 154.186105 
L 105.012209 153.074526 
L 104.271081 151.962947 
L 103.935258 150.851368 
L 103.576274 149.739789 
L 103.541533 148.628211 
L 103.21729 147.516632 
L 103.18255 145.293474 
L 103.142019 144.181895 
L 103.101489 143.070316 
L 103.032008 141.958737 
L 102.632494 140.847158 
L 101.920316 139.735579 
L 101.873996 138.624 
L 101.584493 137.512421 
L 101.32394 136.400842 
L 101.132868 135.289263 
L 100.953376 134.177684 
L 100.744934 133.066105 
L 100.43227 131.954526 
L 100.42069 130.842947 
L 99.4827 129.731368 
L 98.961595 128.619789 
L 98.666302 127.508211 
L 98.5505 126.396632 
L 98.272577 125.285053 
L 97.896223 124.173474 
L 97.369328 123.061895 
L 97.062455 121.950316 
L 96.882963 120.838737 
L 96.859802 119.727158 
L 96.772951 118.615579 
L 96.703471 117.504 
L 96.275006 116.392421 
L 96.211315 115.280842 
L 96.159205 114.169263 
L 95.638099 113.057684 
L 94.207954 111.946105 
L 93.576837 110.834526 
L 93.565257 109.722947 
L 93.524727 108.611368 
L 92.210383 107.499789 
L 91.712438 106.388211 
L 91.359244 105.276632 
L 90.594956 104.165053 
L 90.09701 103.053474 
L 89.604855 101.941895 
L 89.407993 100.830316 
L 89.07796 99.718737 
L 88.406312 98.607158 
L 88.122599 97.495579 
L 88.093649 96.384 
L 87.856257 95.272421 
L 87.2483 94.160842 
L 87.21935 93.049263 
L 86.814045 91.937684 
L 86.547703 90.826105 
L 86.31031 89.714526 
L 86.061337 88.602947 
L 85.968696 87.491368 
L 85.933956 86.379789 
L 85.916586 85.268211 
L 85.690773 84.156632 
L 85.517072 83.045053 
L 84.862795 81.933474 
L 83.924805 81.933474 
L 83.282108 80.821895 
L 83.247367 79.710316 
L 82.801533 78.598737 
L 82.622041 77.487158 
L 82.367278 76.375579 
L 82.129886 76.375579 
L 81.770902 75.264 
L 80.954503 74.152421 
L 80.62447 73.040842 
L 79.941242 71.929263 
L 78.991672 70.817684 
L 78.719539 69.706105 
L 78.690589 68.594526 
L 77.196753 67.482947 
L 76.536686 67.482947 
L 76.484575 66.371368 
L 75.535005 65.259789 
L 74.973369 65.259789 
L 74.898099 65.259789 
L 74.400153 64.148211 
L 73.832727 64.148211 
z
" clip-path="url(#pa2e7eabb06)" style="fill: #7cfc00"/>
   </g>
   <g id="PolyCollection_3">
    <path d="M 73.832727 54.144 
L 73.832727 64.148211 
L 74.400153 64.148211 
L 74.898099 65.259789 
L 74.973369 65.259789 
L 75.535005 65.259789 
L 76.484575 66.371368 
L 76.536686 67.482947 
L 77.196753 67.482947 
L 78.690589 68.594526 
L 78.719539 69.706105 
L 78.991672 70.817684 
L 79.941242 71.929263 
L 80.62447 73.040842 
L 80.954503 74.152421 
L 81.770902 75.264 
L 82.129886 76.375579 
L 82.367278 76.375579 
L 82.622041 77.487158 
L 82.801533 78.598737 
L 83.247367 79.710316 
L 83.282108 80.821895 
L 83.924805 81.933474 
L 84.862795 81.933474 
L 85.517072 83.045053 
L 85.690773 84.156632 
L 85.916586 85.268211 
L 85.933956 86.379789 
L 85.968696 87.491368 
L 86.061337 88.602947 
L 86.31031 89.714526 
L 86.547703 90.826105 
L 86.814045 91.937684 
L 87.21935 93.049263 
L 87.2483 94.160842 
L 87.856257 95.272421 
L 88.093649 96.384 
L 88.122599 97.495579 
L 88.406312 98.607158 
L 89.07796 99.718737 
L 89.407993 100.830316 
L 89.604855 101.941895 
L 90.09701 103.053474 
L 90.594956 104.165053 
L 91.359244 105.276632 
L 91.712438 106.388211 
L 92.210383 107.499789 
L 93.524727 108.611368 
L 93.565257 109.722947 
L 93.576837 110.834526 
L 94.207954 111.946105 
L 95.638099 113.057684 
L 96.159205 114.169263 
L 96.211315 115.280842 
L 96.275006 116.392421 
L 96.703471 117.504 
L 96.772951 118.615579 
L 96.859802 119.727158 
L 96.882963 120.838737 
L 97.062455 121.950316 
L 97.369328 123.061895 
L 97.896223 124.173474 
L 98.272577 125.285053 
L 98.5505 126.396632 
L 98.666302 127.508211 
L 98.961595 128.619789 
L 99.4827 129.731368 
L 100.42069 130.842947 
L 100.43227 131.954526 
L 100.744934 133.066105 
L 100.953376 134.177684 
L 101.132868 135.289263 
L 101.32394 136.400842 
L 101.584493 137.512421 
L 101.873996 138.624 
L 101.920316 139.735579 
L 102.632494 140.847158 
L 103.032008 141.958737 
L 103.101489 143.070316 
L 103.142019 144.181895 
L 103.18255 145.293474 
L 103.21729 147.516632 
L 103.541533 148.628211 
L 103.576274 149.739789 
L 103.935258 150.851368 
L 104.271081 151.962947 
L 105.012209 153.074526 
L 105.266972 154.186105 
L 105.475414 155.297684 
L 106.04284 156.409263 
L 106.228122 157.520842 
L 106.442354 158.632421 
L 106.731857 159.744 
L 106.807128 160.855579 
L 107.652477 161.967158 
L 107.994091 163.078737 
L 108.063572 163.078737 
L 108.532567 164.190316 
L 109.586358 165.301895 
L 109.684789 166.413474 
L 110.506978 167.525053 
L 110.71542 168.636632 
L 110.819641 168.636632 
L 111.358117 169.748211 
L 112.469809 170.859789 
L 113.031444 171.971368 
L 113.303577 173.082947 
L 113.847843 174.194526 
L 114.947955 175.306105 
L 115.017436 176.417684 
L 115.376419 177.529263 
L 115.880155 178.640842 
L 116.221768 179.752421 
L 116.841305 180.864 
L 117.402941 181.975579 
L 117.970367 183.087158 
L 118.20776 184.198737 
L 118.838876 185.310316 
L 119.018368 185.310316 
L 119.991099 186.421895 
L 120.054789 187.533474 
L 120.390613 188.645053 
L 120.639585 189.756632 
L 120.784337 190.868211 
L 120.975409 191.979789 
L 121.473354 193.091368 
L 121.820758 194.202947 
L 122.996141 195.314526 
L 123.077201 196.426105 
L 123.488296 197.537684 
L 123.737268 198.649263 
L 125.78116 199.760842 
L 125.833271 200.872421 
L 126.099614 201.984 
L 126.331216 203.095579 
L 127.784522 204.207158 
L 128.427218 205.318737 
L 128.838313 206.430316 
L 129.961585 207.541895 
L 130.691132 208.653474 
L 130.801144 209.765053 
L 131.090647 210.876632 
L 131.779664 211.988211 
L 132.132858 213.099789 
L 132.150228 214.211368 
L 132.526582 215.322947 
L 132.653963 216.434526 
L 132.804505 217.546105 
L 132.914516 218.657684 
L 133.869876 219.769263 
L 134.703645 220.880842 
L 135.207381 221.992421 
L 135.583735 223.104 
L 136.301702 224.215579 
L 137.332333 225.327158 
L 137.338123 226.438737 
L 137.679737 227.550316 
L 137.726057 228.661895 
L 138.252953 229.773474 
L 139.063562 230.885053 
L 139.115672 231.996632 
L 139.445706 233.108211 
L 140.018922 234.219789 
L 141.501178 235.331368 
L 142.207565 236.442947 
L 143.012384 237.554526 
L 144.396208 238.666105 
L 144.5178 239.777684 
L 144.784142 240.889263 
L 145.218397 242.000842 
L 146.220078 243.112421 
L 146.312719 244.224 
L 146.330089 245.335579 
L 147.100167 246.447158 
L 147.835505 247.558737 
L 147.881825 248.670316 
L 149.045628 249.781895 
L 151.929078 250.893474 
L 153.00024 252.005053 
L 153.058141 253.116632 
L 153.891909 254.228211 
L 154.615667 255.339789 
L 155.542077 256.451368 
L 155.976332 257.562947 
L 158.471848 258.674526 
L 159.647231 259.786105 
L 159.699341 260.897684 
L 160.174126 262.009263 
L 160.996315 263.120842 
L 162.310659 264.232421 
L 163.30076 265.344 
L 164.835126 266.455579 
L 165.460453 267.567158 
L 166.247901 268.678737 
L 174.892463 269.790316 
L 175.071955 270.901895 
L 177.034786 272.013474 
L 178.39545 273.125053 
L 179.761905 274.236632 
L 182.824847 275.348211 
L 183.948119 276.459789 
L 186.85473 277.571368 
L 188.632279 278.682947 
L 188.875462 279.794526 
L 192.945875 280.906105 
L 193.611732 282.017684 
L 194.457081 283.129263 
L 198.718566 284.240842 
L 199.778148 285.352421 
L 202.516847 286.464 
L 204.103324 287.575579 
L 207.067835 288.687158 
L 212.20941 289.798737 
L 218.485837 290.910316 
L 219.944932 292.021895 
L 221.050834 293.133474 
L 227.593604 294.245053 
L 233.291024 295.356632 
L 236.197635 296.468211 
L 238.47892 297.579789 
L 239.775893 298.691368 
L 240.215938 299.802947 
L 243.713135 300.914526 
L 262.328184 302.026105 
L 267.018133 303.137684 
L 274.151489 304.249263 
L 278.853019 305.360842 
L 398.487273 306.472421 
L 398.487273 306.472421 
L 398.487273 306.472421 
L 278.853019 305.360842 
L 274.151489 304.249263 
L 267.018133 303.137684 
L 262.328184 302.026105 
L 243.713135 300.914526 
L 240.215938 299.802947 
L 239.775893 298.691368 
L 238.47892 297.579789 
L 236.197635 296.468211 
L 233.291024 295.356632 
L 227.593604 294.245053 
L 221.050834 293.133474 
L 219.944932 292.021895 
L 218.485837 290.910316 
L 212.20941 289.798737 
L 207.067835 288.687158 
L 204.103324 287.575579 
L 202.516847 286.464 
L 199.778148 285.352421 
L 198.718566 284.240842 
L 194.457081 283.129263 
L 193.611732 282.017684 
L 192.945875 280.906105 
L 188.875462 279.794526 
L 188.632279 278.682947 
L 186.85473 277.571368 
L 183.948119 276.459789 
L 182.824847 275.348211 
L 179.761905 274.236632 
L 178.39545 273.125053 
L 177.034786 272.013474 
L 175.071955 270.901895 
L 174.892463 269.790316 
L 166.247901 268.678737 
L 165.460453 267.567158 
L 164.835126 266.455579 
L 163.30076 265.344 
L 162.310659 264.232421 
L 160.996315 263.120842 
L 160.174126 262.009263 
L 159.699341 260.897684 
L 159.647231 259.786105 
L 158.471848 258.674526 
L 155.976332 257.562947 
L 155.542077 256.451368 
L 154.615667 255.339789 
L 153.891909 254.228211 
L 153.058141 253.116632 
L 153.00024 252.005053 
L 151.929078 250.893474 
L 149.045628 249.781895 
L 147.881825 248.670316 
L 147.835505 247.558737 
L 147.100167 246.447158 
L 146.330089 245.335579 
L 146.312719 244.224 
L 146.220078 243.112421 
L 145.218397 242.000842 
L 144.784142 240.889263 
L 144.5178 239.777684 
L 144.396208 238.666105 
L 143.012384 237.554526 
L 142.207565 236.442947 
L 141.501178 235.331368 
L 140.018922 234.219789 
L 139.445706 233.108211 
L 139.115672 231.996632 
L 139.063562 230.885053 
L 138.252953 229.773474 
L 137.726057 228.661895 
L 137.679737 227.550316 
L 137.338123 226.438737 
L 137.332333 225.327158 
L 136.301702 224.215579 
L 135.583735 223.104 
L 135.207381 221.992421 
L 134.703645 220.880842 
L 133.869876 219.769263 
L 132.914516 218.657684 
L 132.804505 217.546105 
L 132.653963 216.434526 
L 132.526582 215.322947 
L 132.150228 214.211368 
L 132.132858 213.099789 
L 131.779664 211.988211 
L 131.090647 210.876632 
L 130.801144 209.765053 
L 130.691132 208.653474 
L 129.961585 207.541895 
L 128.838313 206.430316 
L 128.427218 205.318737 
L 127.784522 204.207158 
L 126.331216 203.095579 
L 126.099614 201.984 
L 125.833271 200.872421 
L 125.78116 199.760842 
L 123.737268 198.649263 
L 123.488296 197.537684 
L 123.077201 196.426105 
L 122.996141 195.314526 
L 121.820758 194.202947 
L 121.473354 193.091368 
L 120.975409 191.979789 
L 120.784337 190.868211 
L 120.639585 189.756632 
L 120.390613 188.645053 
L 120.054789 187.533474 
L 119.991099 186.421895 
L 119.018368 185.310316 
L 118.838876 184.198737 
L 118.20776 183.087158 
L 117.970367 181.975579 
L 117.402941 180.864 
L 116.841305 179.752421 
L 116.221768 178.640842 
L 115.880155 177.529263 
L 115.376419 176.417684 
L 115.017436 175.306105 
L 114.947955 174.194526 
L 113.847843 173.082947 
L 113.303577 171.971368 
L 113.031444 170.859789 
L 112.469809 169.748211 
L 111.358117 168.636632 
L 110.819641 167.525053 
L 110.71542 166.413474 
L 110.506978 165.301895 
L 109.684789 164.190316 
L 109.586358 163.078737 
L 108.532567 161.967158 
L 108.063572 160.855579 
L 107.994091 159.744 
L 107.652477 158.632421 
L 106.807128 157.520842 
L 106.731857 156.409263 
L 106.442354 155.297684 
L 106.228122 154.186105 
L 106.04284 153.074526 
L 105.475414 151.962947 
L 105.266972 150.851368 
L 105.012209 149.739789 
L 104.271081 148.628211 
L 103.935258 147.516632 
L 103.576274 146.405053 
L 103.541533 145.293474 
L 103.21729 144.181895 
L 103.18255 141.958737 
L 103.142019 140.847158 
L 103.101489 139.735579 
L 103.032008 138.624 
L 102.632494 137.512421 
L 101.920316 136.400842 
L 101.873996 135.289263 
L 101.584493 134.177684 
L 101.32394 133.066105 
L 101.132868 131.954526 
L 100.953376 130.842947 
L 100.744934 129.731368 
L 100.43227 128.619789 
L 100.42069 127.508211 
L 99.4827 126.396632 
L 98.961595 125.285053 
L 98.666302 124.173474 
L 98.5505 123.061895 
L 98.272577 121.950316 
L 97.896223 120.838737 
L 97.369328 119.727158 
L 97.062455 118.615579 
L 96.882963 117.504 
L 96.859802 116.392421 
L 96.772951 115.280842 
L 96.703471 114.169263 
L 96.275006 113.057684 
L 96.211315 111.946105 
L 96.159205 110.834526 
L 95.638099 109.722947 
L 94.207954 108.611368 
L 93.576837 107.499789 
L 93.565257 106.388211 
L 93.524727 105.276632 
L 92.210383 104.165053 
L 91.712438 103.053474 
L 91.359244 101.941895 
L 90.594956 100.830316 
L 90.09701 99.718737 
L 89.604855 98.607158 
L 89.407993 97.495579 
L 89.07796 96.384 
L 88.406312 95.272421 
L 88.122599 94.160842 
L 88.093649 93.049263 
L 87.856257 91.937684 
L 87.2483 90.826105 
L 87.21935 89.714526 
L 86.814045 88.602947 
L 86.547703 87.491368 
L 86.31031 86.379789 
L 86.061337 85.268211 
L 85.968696 84.156632 
L 85.933956 83.045053 
L 85.916586 81.933474 
L 85.690773 80.821895 
L 85.517072 79.710316 
L 84.862795 78.598737 
L 83.924805 77.487158 
L 83.282108 76.375579 
L 83.247367 75.264 
L 82.801533 74.152421 
L 82.622041 73.040842 
L 82.367278 71.929263 
L 82.129886 70.817684 
L 81.770902 69.706105 
L 80.954503 68.594526 
L 80.62447 67.482947 
L 79.941242 66.371368 
L 78.991672 65.259789 
L 78.719539 64.148211 
L 78.690589 63.036632 
L 77.196753 61.925053 
L 76.536686 60.813474 
L 76.484575 59.701895 
L 75.535005 58.590316 
L 74.973369 57.478737 
L 74.898099 56.367158 
L 74.400153 55.255579 
L 73.832727 54.144 
z
" clip-path="url(#pa2e7eabb06)" style="fill: #ff0000"/>
   </g>
   <g id="matplotlib.axis_1">
    <g id="xtick_1">
     <g id="line2d_1">
      <defs>
       <path id="mc2b76e5eea" d="M 0 0 
L 0 3.5 
" style="stroke: #000000; stroke-width: 0.8"/>
      </defs>
      <g>
       <use xlink:href="#mc2b76e5eea" x="91.075531" y="307.584" style="stroke: #000000; stroke-width: 0.8"/>
      </g>
     </g>
     <g id="text_1">
      <!-- 100 -->
      <g transform="translate(81.531781 322.182437) scale(0.1 -0.1)">
       <defs>
        <path id="DejaVuSans-31" d="M 794 531 
L 1825 531 
L 1825 4091 
L 703 3866 
L 703 4441 
L 1819 4666 
L 2450 4666 
L 2450 531 
L 3481 531 
L 3481 0 
L 794 0 
L 794 531 
z
" transform="scale(0.015625)"/>
        <path id="DejaVuSans-30" d="M 2034 4250 
Q 1547 4250 1301 3770 
Q 1056 3291 1056 2328 
Q 1056 1369 1301 889 
Q 1547 409 2034 409 
Q 2525 409 2770 889 
Q 3016 1369 3016 2328 
Q 3016 3291 2770 3770 
Q 2525 4250 2034 4250 
z
M 2034 4750 
Q 2819 4750 3233 4129 
Q 3647 3509 3647 2328 
Q 3647 1150 3233 529 
Q 2819 -91 2034 -91 
Q 1250 -91 836 529 
Q 422 1150 422 2328 
Q 422 3509 836 4129 
Q 1250 4750 2034 4750 
z
" transform="scale(0.015625)"/>
       </defs>
       <use xlink:href="#DejaVuSans-31"/>
       <use xlink:href="#DejaVuSans-30" x="63.623047"/>
       <use xlink:href="#DejaVuSans-30" x="127.246094"/>
      </g>
     </g>
    </g>
    <g id="xtick_2">
     <g id="line2d_2">
      <g>
       <use xlink:href="#mc2b76e5eea" x="148.976147" y="307.584" style="stroke: #000000; stroke-width: 0.8"/>
      </g>
     </g>
     <g id="text_2">
      <!-- 200 -->
      <g transform="translate(139.432397 322.182437) scale(0.1 -0.1)">
       <defs>
        <path id="DejaVuSans-32" d="M 1228 531 
L 3431 531 
L 3431 0 
L 469 0 
L 469 531 
Q 828 903 1448 1529 
Q 2069 2156 2228 2338 
Q 2531 2678 2651 2914 
Q 2772 3150 2772 3378 
Q 2772 3750 2511 3984 
Q 2250 4219 1831 4219 
Q 1534 4219 1204 4116 
Q 875 4013 500 3803 
L 500 4441 
Q 881 4594 1212 4672 
Q 1544 4750 1819 4750 
Q 2544 4750 2975 4387 
Q 3406 4025 3406 3419 
Q 3406 3131 3298 2873 
Q 3191 2616 2906 2266 
Q 2828 2175 2409 1742 
Q 1991 1309 1228 531 
z
" transform="scale(0.015625)"/>
       </defs>
       <use xlink:href="#DejaVuSans-32"/>
       <use xlink:href="#DejaVuSans-30" x="63.623047"/>
       <use xlink:href="#DejaVuSans-30" x="127.246094"/>
      </g>
     </g>
    </g>
    <g id="xtick_3">
     <g id="line2d_3">
      <g>
       <use xlink:href="#mc2b76e5eea" x="206.876763" y="307.584" style="stroke: #000000; stroke-width: 0.8"/>
      </g>
     </g>
     <g id="text_3">
      <!-- 300 -->
      <g transform="translate(197.333013 322.182437) scale(0.1 -0.1)">
       <defs>
        <path id="DejaVuSans-33" d="M 2597 2516 
Q 3050 2419 3304 2112 
Q 3559 1806 3559 1356 
Q 3559 666 3084 287 
Q 2609 -91 1734 -91 
Q 1441 -91 1130 -33 
Q 819 25 488 141 
L 488 750 
Q 750 597 1062 519 
Q 1375 441 1716 441 
Q 2309 441 2620 675 
Q 2931 909 2931 1356 
Q 2931 1769 2642 2001 
Q 2353 2234 1838 2234 
L 1294 2234 
L 1294 2753 
L 1863 2753 
Q 2328 2753 2575 2939 
Q 2822 3125 2822 3475 
Q 2822 3834 2567 4026 
Q 2313 4219 1838 4219 
Q 1578 4219 1281 4162 
Q 984 4106 628 3988 
L 628 4550 
Q 988 4650 1302 4700 
Q 1616 4750 1894 4750 
Q 2613 4750 3031 4423 
Q 3450 4097 3450 3541 
Q 3450 3153 3228 2886 
Q 3006 2619 2597 2516 
z
" transform="scale(0.015625)"/>
       </defs>
       <use xlink:href="#DejaVuSans-33"/>
       <use xlink:href="#DejaVuSans-30" x="63.623047"/>
       <use xlink:href="#DejaVuSans-30" x="127.246094"/>
      </g>
     </g>
    </g>
    <g id="xtick_4">
     <g id="line2d_4">
      <g>
       <use xlink:href="#mc2b76e5eea" x="264.77738" y="307.584" style="stroke: #000000; stroke-width: 0.8"/>
      </g>
     </g>
     <g id="text_4">
      <!-- 400 -->
      <g transform="translate(255.23363 322.182437) scale(0.1 -0.1)">
       <defs>
        <path id="DejaVuSans-34" d="M 2419 4116 
L 825 1625 
L 2419 1625 
L 2419 4116 
z
M 2253 4666 
L 3047 4666 
L 3047 1625 
L 3713 1625 
L 3713 1100 
L 3047 1100 
L 3047 0 
L 2419 0 
L 2419 1100 
L 313 1100 
L 313 1709 
L 2253 4666 
z
" transform="scale(0.015625)"/>
       </defs>
       <use xlink:href="#DejaVuSans-34"/>
       <use xlink:href="#DejaVuSans-30" x="63.623047"/>
       <use xlink:href="#DejaVuSans-30" x="127.246094"/>
      </g>
     </g>
    </g>
    <g id="xtick_5">
     <g id="line2d_5">
      <g>
       <use xlink:href="#mc2b76e5eea" x="322.677996" y="307.584" style="stroke: #000000; stroke-width: 0.8"/>
      </g>
     </g>
     <g id="text_5">
      <!-- 500 -->
      <g transform="translate(313.134246 322.182437) scale(0.1 -0.1)">
       <defs>
        <path id="DejaVuSans-35" d="M 691 4666 
L 3169 4666 
L 3169 4134 
L 1269 4134 
L 1269 2991 
Q 1406 3038 1543 3061 
Q 1681 3084 1819 3084 
Q 2600 3084 3056 2656 
Q 3513 2228 3513 1497 
Q 3513 744 3044 326 
Q 2575 -91 1722 -91 
Q 1428 -91 1123 -41 
Q 819 9 494 109 
L 494 744 
Q 775 591 1075 516 
Q 1375 441 1709 441 
Q 2250 441 2565 725 
Q 2881 1009 2881 1497 
Q 2881 1984 2565 2268 
Q 2250 2553 1709 2553 
Q 1456 2553 1204 2497 
Q 953 2441 691 2322 
L 691 4666 
z
" transform="scale(0.015625)"/>
       </defs>
       <use xlink:href="#DejaVuSans-35"/>
       <use xlink:href="#DejaVuSans-30" x="63.623047"/>
       <use xlink:href="#DejaVuSans-30" x="127.246094"/>
      </g>
     </g>
    </g>
    <g id="xtick_6">
     <g id="line2d_6">
      <g>
       <use xlink:href="#mc2b76e5eea" x="380.578612" y="307.584" style="stroke: #000000; stroke-width: 0.8"/>
      </g>
     </g>
     <g id="text_6">
      <!-- 600 -->
      <g transform="translate(371.034862 322.182437) scale(0.1 -0.1)">
       <defs>
        <path id="DejaVuSans-36" d="M 2113 2584 
Q 1688 2584 1439 2293 
Q 1191 2003 1191 1497 
Q 1191 994 1439 701 
Q 1688 409 2113 409 
Q 2538 409 2786 701 
Q 3034 994 3034 1497 
Q 3034 2003 2786 2293 
Q 2538 2584 2113 2584 
z
M 3366 4563 
L 3366 3988 
Q 3128 4100 2886 4159 
Q 2644 4219 2406 4219 
Q 1781 4219 1451 3797 
Q 1122 3375 1075 2522 
Q 1259 2794 1537 2939 
Q 1816 3084 2150 3084 
Q 2853 3084 3261 2657 
Q 3669 2231 3669 1497 
Q 3669 778 3244 343 
Q 2819 -91 2113 -91 
Q 1303 -91 875 529 
Q 447 1150 447 2328 
Q 447 3434 972 4092 
Q 1497 4750 2381 4750 
Q 2619 4750 2861 4703 
Q 3103 4656 3366 4563 
z
" transform="scale(0.015625)"/>
       </defs>
       <use xlink:href="#DejaVuSans-36"/>
       <use xlink:href="#DejaVuSans-30" x="63.623047"/>
       <use xlink:href="#DejaVuSans-30" x="127.246094"/>
      </g>
     </g>
    </g>
    <g id="text_7">
     <!-- Score -->
     <g transform="translate(222.157656 335.860562) scale(0.1 -0.1)">
      <defs>
       <path id="DejaVuSans-53" d="M 3425 4513 
L 3425 3897 
Q 3066 4069 2747 4153 
Q 2428 4238 2131 4238 
Q 1616 4238 1336 4038 
Q 1056 3838 1056 3469 
Q 1056 3159 1242 3001 
Q 1428 2844 1947 2747 
L 2328 2669 
Q 3034 2534 3370 2195 
Q 3706 1856 3706 1288 
Q 3706 609 3251 259 
Q 2797 -91 1919 -91 
Q 1588 -91 1214 -16 
Q 841 59 441 206 
L 441 856 
Q 825 641 1194 531 
Q 1563 422 1919 422 
Q 2459 422 2753 634 
Q 3047 847 3047 1241 
Q 3047 1584 2836 1778 
Q 2625 1972 2144 2069 
L 1759 2144 
Q 1053 2284 737 2584 
Q 422 2884 422 3419 
Q 422 4038 858 4394 
Q 1294 4750 2059 4750 
Q 2388 4750 2728 4690 
Q 3069 4631 3425 4513 
z
" transform="scale(0.015625)"/>
       <path id="DejaVuSans-63" d="M 3122 3366 
L 3122 2828 
Q 2878 2963 2633 3030 
Q 2388 3097 2138 3097 
Q 1578 3097 1268 2742 
Q 959 2388 959 1747 
Q 959 1106 1268 751 
Q 1578 397 2138 397 
Q 2388 397 2633 464 
Q 2878 531 3122 666 
L 3122 134 
Q 2881 22 2623 -34 
Q 2366 -91 2075 -91 
Q 1284 -91 818 406 
Q 353 903 353 1747 
Q 353 2603 823 3093 
Q 1294 3584 2113 3584 
Q 2378 3584 2631 3529 
Q 2884 3475 3122 3366 
z
" transform="scale(0.015625)"/>
       <path id="DejaVuSans-6f" d="M 1959 3097 
Q 1497 3097 1228 2736 
Q 959 2375 959 1747 
Q 959 1119 1226 758 
Q 1494 397 1959 397 
Q 2419 397 2687 759 
Q 2956 1122 2956 1747 
Q 2956 2369 2687 2733 
Q 2419 3097 1959 3097 
z
M 1959 3584 
Q 2709 3584 3137 3096 
Q 3566 2609 3566 1747 
Q 3566 888 3137 398 
Q 2709 -91 1959 -91 
Q 1206 -91 779 398 
Q 353 888 353 1747 
Q 353 2609 779 3096 
Q 1206 3584 1959 3584 
z
" transform="scale(0.015625)"/>
       <path id="DejaVuSans-72" d="M 2631 2963 
Q 2534 3019 2420 3045 
Q 2306 3072 2169 3072 
Q 1681 3072 1420 2755 
Q 1159 2438 1159 1844 
L 1159 0 
L 581 0 
L 581 3500 
L 1159 3500 
L 1159 2956 
Q 1341 3275 1631 3429 
Q 1922 3584 2338 3584 
Q 2397 3584 2469 3576 
Q 2541 3569 2628 3553 
L 2631 2963 
z
" transform="scale(0.015625)"/>
       <path id="DejaVuSans-65" d="M 3597 1894 
L 3597 1613 
L 953 1613 
Q 991 1019 1311 708 
Q 1631 397 2203 397 
Q 2534 397 2845 478 
Q 3156 559 3463 722 
L 3463 178 
Q 3153 47 2828 -22 
Q 2503 -91 2169 -91 
Q 1331 -91 842 396 
Q 353 884 353 1716 
Q 353 2575 817 3079 
Q 1281 3584 2069 3584 
Q 2775 3584 3186 3129 
Q 3597 2675 3597 1894 
z
M 3022 2063 
Q 3016 2534 2758 2815 
Q 2500 3097 2075 3097 
Q 1594 3097 1305 2825 
Q 1016 2553 972 2059 
L 3022 2063 
z
" transform="scale(0.015625)"/>
      </defs>
      <use xlink:href="#DejaVuSans-53"/>
      <use xlink:href="#DejaVuSans-63" x="63.476562"/>
      <use xlink:href="#DejaVuSans-6f" x="118.457031"/>
      <use xlink:href="#DejaVuSans-72" x="179.638672"/>
      <use xlink:href="#DejaVuSans-65" x="218.501953"/>
     </g>
    </g>
   </g>
   <g id="matplotlib.axis_2">
    <g id="ytick_1">
     <g id="line2d_7">
      <defs>
       <path id="mc3eb19db20" d="M 0 0 
L -3.5 0 
" style="stroke: #000000; stroke-width: 0.8"/>
      </defs>
      <g>
       <use xlink:href="#mc3eb19db20" x="57.6" y="307.584" style="stroke: #000000; stroke-width: 0.8"/>
      </g>
     </g>
     <g id="text_8">
      <!-- 0 -->
      <g transform="translate(44.2375 311.383219) scale(0.1 -0.1)">
       <use xlink:href="#DejaVuSans-30"/>
      </g>
     </g>
    </g>
    <g id="ytick_2">
     <g id="line2d_8">
      <g>
       <use xlink:href="#mc3eb19db20" x="57.6" y="252.005053" style="stroke: #000000; stroke-width: 0.8"/>
      </g>
     </g>
     <g id="text_9">
      <!-- 50 -->
      <g transform="translate(37.875 255.804271) scale(0.1 -0.1)">
       <use xlink:href="#DejaVuSans-35"/>
       <use xlink:href="#DejaVuSans-30" x="63.623047"/>
      </g>
     </g>
    </g>
    <g id="ytick_3">
     <g id="line2d_9">
      <g>
       <use xlink:href="#mc3eb19db20" x="57.6" y="196.426105" style="stroke: #000000; stroke-width: 0.8"/>
      </g>
     </g>
     <g id="text_10">
      <!-- 100 -->
      <g transform="translate(31.5125 200.225324) scale(0.1 -0.1)">
       <use xlink:href="#DejaVuSans-31"/>
       <use xlink:href="#DejaVuSans-30" x="63.623047"/>
       <use xlink:href="#DejaVuSans-30" x="127.246094"/>
      </g>
     </g>
    </g>
    <g id="ytick_4">
     <g id="line2d_10">
      <g>
       <use xlink:href="#mc3eb19db20" x="57.6" y="140.847158" style="stroke: #000000; stroke-width: 0.8"/>
      </g>
     </g>
     <g id="text_11">
      <!-- 150 -->
      <g transform="translate(31.5125 144.646377) scale(0.1 -0.1)">
       <use xlink:href="#DejaVuSans-31"/>
       <use xlink:href="#DejaVuSans-35" x="63.623047"/>
       <use xlink:href="#DejaVuSans-30" x="127.246094"/>
      </g>
     </g>
    </g>
    <g id="ytick_5">
     <g id="line2d_11">
      <g>
       <use xlink:href="#mc3eb19db20" x="57.6" y="85.268211" style="stroke: #000000; stroke-width: 0.8"/>
      </g>
     </g>
     <g id="text_12">
      <!-- 200 -->
      <g transform="translate(31.5125 89.067429) scale(0.1 -0.1)">
       <use xlink:href="#DejaVuSans-32"/>
       <use xlink:href="#DejaVuSans-30" x="63.623047"/>
       <use xlink:href="#DejaVuSans-30" x="127.246094"/>
      </g>
     </g>
    </g>
    <g id="text_13">
     <!-- Number of crosslinks -->
     <g transform="translate(25.432812 227.019406) rotate(-90) scale(0.1 -0.1)">
      <defs>
       <path id="DejaVuSans-4e" d="M 628 4666 
L 1478 4666 
L 3547 763 
L 3547 4666 
L 4159 4666 
L 4159 0 
L 3309 0 
L 1241 3903 
L 1241 0 
L 628 0 
L 628 4666 
z
" transform="scale(0.015625)"/>
       <path id="DejaVuSans-75" d="M 544 1381 
L 544 3500 
L 1119 3500 
L 1119 1403 
Q 1119 906 1312 657 
Q 1506 409 1894 409 
Q 2359 409 2629 706 
Q 2900 1003 2900 1516 
L 2900 3500 
L 3475 3500 
L 3475 0 
L 2900 0 
L 2900 538 
Q 2691 219 2414 64 
Q 2138 -91 1772 -91 
Q 1169 -91 856 284 
Q 544 659 544 1381 
z
M 1991 3584 
L 1991 3584 
z
" transform="scale(0.015625)"/>
       <path id="DejaVuSans-6d" d="M 3328 2828 
Q 3544 3216 3844 3400 
Q 4144 3584 4550 3584 
Q 5097 3584 5394 3201 
Q 5691 2819 5691 2113 
L 5691 0 
L 5113 0 
L 5113 2094 
Q 5113 2597 4934 2840 
Q 4756 3084 4391 3084 
Q 3944 3084 3684 2787 
Q 3425 2491 3425 1978 
L 3425 0 
L 2847 0 
L 2847 2094 
Q 2847 2600 2669 2842 
Q 2491 3084 2119 3084 
Q 1678 3084 1418 2786 
Q 1159 2488 1159 1978 
L 1159 0 
L 581 0 
L 581 3500 
L 1159 3500 
L 1159 2956 
Q 1356 3278 1631 3431 
Q 1906 3584 2284 3584 
Q 2666 3584 2933 3390 
Q 3200 3197 3328 2828 
z
" transform="scale(0.015625)"/>
       <path id="DejaVuSans-62" d="M 3116 1747 
Q 3116 2381 2855 2742 
Q 2594 3103 2138 3103 
Q 1681 3103 1420 2742 
Q 1159 2381 1159 1747 
Q 1159 1113 1420 752 
Q 1681 391 2138 391 
Q 2594 391 2855 752 
Q 3116 1113 3116 1747 
z
M 1159 2969 
Q 1341 3281 1617 3432 
Q 1894 3584 2278 3584 
Q 2916 3584 3314 3078 
Q 3713 2572 3713 1747 
Q 3713 922 3314 415 
Q 2916 -91 2278 -91 
Q 1894 -91 1617 61 
Q 1341 213 1159 525 
L 1159 0 
L 581 0 
L 581 4863 
L 1159 4863 
L 1159 2969 
z
" transform="scale(0.015625)"/>
       <path id="DejaVuSans-20" transform="scale(0.015625)"/>
       <path id="DejaVuSans-66" d="M 2375 4863 
L 2375 4384 
L 1825 4384 
Q 1516 4384 1395 4259 
Q 1275 4134 1275 3809 
L 1275 3500 
L 2222 3500 
L 2222 3053 
L 1275 3053 
L 1275 0 
L 697 0 
L 697 3053 
L 147 3053 
L 147 3500 
L 697 3500 
L 697 3744 
Q 697 4328 969 4595 
Q 1241 4863 1831 4863 
L 2375 4863 
z
" transform="scale(0.015625)"/>
       <path id="DejaVuSans-73" d="M 2834 3397 
L 2834 2853 
Q 2591 2978 2328 3040 
Q 2066 3103 1784 3103 
Q 1356 3103 1142 2972 
Q 928 2841 928 2578 
Q 928 2378 1081 2264 
Q 1234 2150 1697 2047 
L 1894 2003 
Q 2506 1872 2764 1633 
Q 3022 1394 3022 966 
Q 3022 478 2636 193 
Q 2250 -91 1575 -91 
Q 1294 -91 989 -36 
Q 684 19 347 128 
L 347 722 
Q 666 556 975 473 
Q 1284 391 1588 391 
Q 1994 391 2212 530 
Q 2431 669 2431 922 
Q 2431 1156 2273 1281 
Q 2116 1406 1581 1522 
L 1381 1569 
Q 847 1681 609 1914 
Q 372 2147 372 2553 
Q 372 3047 722 3315 
Q 1072 3584 1716 3584 
Q 2034 3584 2315 3537 
Q 2597 3491 2834 3397 
z
" transform="scale(0.015625)"/>
       <path id="DejaVuSans-6c" d="M 603 4863 
L 1178 4863 
L 1178 0 
L 603 0 
L 603 4863 
z
" transform="scale(0.015625)"/>
       <path id="DejaVuSans-69" d="M 603 3500 
L 1178 3500 
L 1178 0 
L 603 0 
L 603 3500 
z
M 603 4863 
L 1178 4863 
L 1178 4134 
L 603 4134 
L 603 4863 
z
" transform="scale(0.015625)"/>
       <path id="DejaVuSans-6e" d="M 3513 2113 
L 3513 0 
L 2938 0 
L 2938 2094 
Q 2938 2591 2744 2837 
Q 2550 3084 2163 3084 
Q 1697 3084 1428 2787 
Q 1159 2491 1159 1978 
L 1159 0 
L 581 0 
L 581 3500 
L 1159 3500 
L 1159 2956 
Q 1366 3272 1645 3428 
Q 1925 3584 2291 3584 
Q 2894 3584 3203 3211 
Q 3513 2838 3513 2113 
z
" transform="scale(0.015625)"/>
       <path id="DejaVuSans-6b" d="M 581 4863 
L 1159 4863 
L 1159 1991 
L 2875 3500 
L 3609 3500 
L 1753 1863 
L 3688 0 
L 2938 0 
L 1159 1709 
L 1159 0 
L 581 0 
L 581 4863 
z
" transform="scale(0.015625)"/>
      </defs>
      <use xlink:href="#DejaVuSans-4e"/>
      <use xlink:href="#DejaVuSans-75" x="74.804688"/>
      <use xlink:href="#DejaVuSans-6d" x="138.183594"/>
      <use xlink:href="#DejaVuSans-62" x="235.595703"/>
      <use xlink:href="#DejaVuSans-65" x="299.072266"/>
      <use xlink:href="#DejaVuSans-72" x="360.595703"/>
      <use xlink:href="#DejaVuSans-20" x="401.708984"/>
      <use xlink:href="#DejaVuSans-6f" x="433.496094"/>
      <use xlink:href="#DejaVuSans-66" x="494.677734"/>
      <use xlink:href="#DejaVuSans-20" x="529.882812"/>
      <use xlink:href="#DejaVuSans-63" x="561.669922"/>
      <use xlink:href="#DejaVuSans-72" x="616.650391"/>
      <use xlink:href="#DejaVuSans-6f" x="655.513672"/>
      <use xlink:href="#DejaVuSans-73" x="716.695312"/>
      <use xlink:href="#DejaVuSans-73" x="768.794922"/>
      <use xlink:href="#DejaVuSans-6c" x="820.894531"/>
      <use xlink:href="#DejaVuSans-69" x="848.677734"/>
      <use xlink:href="#DejaVuSans-6e" x="876.460938"/>
      <use xlink:href="#DejaVuSans-6b" x="939.839844"/>
      <use xlink:href="#DejaVuSans-73" x="997.75"/>
     </g>
    </g>
   </g>
   <g id="patch_3">
    <path d="M 57.6 307.584 
L 57.6 41.472 
" style="fill: none; stroke: #000000; stroke-width: 0.8; stroke-linejoin: miter; stroke-linecap: square"/>
   </g>
   <g id="patch_4">
    <path d="M 414.72 307.584 
L 414.72 41.472 
" style="fill: none; stroke: #000000; stroke-width: 0.8; stroke-linejoin: miter; stroke-linecap: square"/>
   </g>
   <g id="patch_5">
    <path d="M 57.6 307.584 
L 414.72 307.584 
" style="fill: none; stroke: #000000; stroke-width: 0.8; stroke-linejoin: miter; stroke-linecap: square"/>
   </g>
   <g id="patch_6">
    <path d="M 57.6 41.472 
L 414.72 41.472 
" style="fill: none; stroke: #000000; stroke-width: 0.8; stroke-linejoin: miter; stroke-linecap: square"/>
   </g>
   <g id="legend_1">
    <g id="patch_7">
     <path d="M 293.087188 93.506375 
L 407.72 93.506375 
Q 409.72 93.506375 409.72 91.506375 
L 409.72 48.472 
Q 409.72 46.472 407.72 46.472 
L 293.087188 46.472 
Q 291.087188 46.472 291.087188 48.472 
L 291.087188 91.506375 
Q 291.087188 93.506375 293.087188 93.506375 
z
" style="fill: #ffffff; opacity: 0.8; stroke: #cccccc; stroke-linejoin: miter"/>
    </g>
    <g id="patch_8">
     <path d="M 295.087188 58.070438 
L 315.087188 58.070438 
L 315.087188 51.070438 
L 295.087188 51.070438 
z
" style="fill: #008000"/>
    </g>
    <g id="text_14">
     <!-- true -->
     <g transform="translate(323.087188 58.070438) scale(0.1 -0.1)">
      <defs>
       <path id="DejaVuSans-74" d="M 1172 4494 
L 1172 3500 
L 2356 3500 
L 2356 3053 
L 1172 3053 
L 1172 1153 
Q 1172 725 1289 603 
Q 1406 481 1766 481 
L 2356 481 
L 2356 0 
L 1766 0 
Q 1100 0 847 248 
Q 594 497 594 1153 
L 594 3053 
L 172 3053 
L 172 3500 
L 594 3500 
L 594 4494 
L 1172 4494 
z
" transform="scale(0.015625)"/>
      </defs>
      <use xlink:href="#DejaVuSans-74"/>
      <use xlink:href="#DejaVuSans-72" x="39.208984"/>
      <use xlink:href="#DejaVuSans-75" x="80.322266"/>
      <use xlink:href="#DejaVuSans-65" x="143.701172"/>
     </g>
    </g>
    <g id="patch_9">
     <path d="M 295.087188 72.748563 
L 315.087188 72.748563 
L 315.087188 65.748563 
L 295.087188 65.748563 
z
" style="fill: #7cfc00"/>
    </g>
    <g id="text_15">
     <!-- true homeotypic -->
     <g transform="translate(323.087188 72.748563) scale(0.1 -0.1)">
      <defs>
       <path id="DejaVuSans-68" d="M 3513 2113 
L 3513 0 
L 2938 0 
L 2938 2094 
Q 2938 2591 2744 2837 
Q 2550 3084 2163 3084 
Q 1697 3084 1428 2787 
Q 1159 2491 1159 1978 
L 1159 0 
L 581 0 
L 581 4863 
L 1159 4863 
L 1159 2956 
Q 1366 3272 1645 3428 
Q 1925 3584 2291 3584 
Q 2894 3584 3203 3211 
Q 3513 2838 3513 2113 
z
" transform="scale(0.015625)"/>
       <path id="DejaVuSans-79" d="M 2059 -325 
Q 1816 -950 1584 -1140 
Q 1353 -1331 966 -1331 
L 506 -1331 
L 506 -850 
L 844 -850 
Q 1081 -850 1212 -737 
Q 1344 -625 1503 -206 
L 1606 56 
L 191 3500 
L 800 3500 
L 1894 763 
L 2988 3500 
L 3597 3500 
L 2059 -325 
z
" transform="scale(0.015625)"/>
       <path id="DejaVuSans-70" d="M 1159 525 
L 1159 -1331 
L 581 -1331 
L 581 3500 
L 1159 3500 
L 1159 2969 
Q 1341 3281 1617 3432 
Q 1894 3584 2278 3584 
Q 2916 3584 3314 3078 
Q 3713 2572 3713 1747 
Q 3713 922 3314 415 
Q 2916 -91 2278 -91 
Q 1894 -91 1617 61 
Q 1341 213 1159 525 
z
M 3116 1747 
Q 3116 2381 2855 2742 
Q 2594 3103 2138 3103 
Q 1681 3103 1420 2742 
Q 1159 2381 1159 1747 
Q 1159 1113 1420 752 
Q 1681 391 2138 391 
Q 2594 391 2855 752 
Q 3116 1113 3116 1747 
z
" transform="scale(0.015625)"/>
      </defs>
      <use xlink:href="#DejaVuSans-74"/>
      <use xlink:href="#DejaVuSans-72" x="39.208984"/>
      <use xlink:href="#DejaVuSans-75" x="80.322266"/>
      <use xlink:href="#DejaVuSans-65" x="143.701172"/>
      <use xlink:href="#DejaVuSans-20" x="205.224609"/>
      <use xlink:href="#DejaVuSans-68" x="237.011719"/>
      <use xlink:href="#DejaVuSans-6f" x="300.390625"/>
      <use xlink:href="#DejaVuSans-6d" x="361.572266"/>
      <use xlink:href="#DejaVuSans-65" x="458.984375"/>
      <use xlink:href="#DejaVuSans-6f" x="520.507812"/>
      <use xlink:href="#DejaVuSans-74" x="581.689453"/>
      <use xlink:href="#DejaVuSans-79" x="620.898438"/>
      <use xlink:href="#DejaVuSans-70" x="680.078125"/>
      <use xlink:href="#DejaVuSans-69" x="743.554688"/>
      <use xlink:href="#DejaVuSans-63" x="771.337891"/>
     </g>
    </g>
    <g id="patch_10">
     <path d="M 295.087188 87.426688 
L 315.087188 87.426688 
L 315.087188 80.426688 
L 295.087188 80.426688 
z
" style="fill: #ff0000"/>
    </g>
    <g id="text_16">
     <!-- false -->
     <g transform="translate(323.087188 87.426688) scale(0.1 -0.1)">
      <defs>
       <path id="DejaVuSans-61" d="M 2194 1759 
Q 1497 1759 1228 1600 
Q 959 1441 959 1056 
Q 959 750 1161 570 
Q 1363 391 1709 391 
Q 2188 391 2477 730 
Q 2766 1069 2766 1631 
L 2766 1759 
L 2194 1759 
z
M 3341 1997 
L 3341 0 
L 2766 0 
L 2766 531 
Q 2569 213 2275 61 
Q 1981 -91 1556 -91 
Q 1019 -91 701 211 
Q 384 513 384 1019 
Q 384 1609 779 1909 
Q 1175 2209 1959 2209 
L 2766 2209 
L 2766 2266 
Q 2766 2663 2505 2880 
Q 2244 3097 1772 3097 
Q 1472 3097 1187 3025 
Q 903 2953 641 2809 
L 641 3341 
Q 956 3463 1253 3523 
Q 1550 3584 1831 3584 
Q 2591 3584 2966 3190 
Q 3341 2797 3341 1997 
z
" transform="scale(0.015625)"/>
      </defs>
      <use xlink:href="#DejaVuSans-66"/>
      <use xlink:href="#DejaVuSans-61" x="35.205078"/>
      <use xlink:href="#DejaVuSans-6c" x="96.484375"/>
      <use xlink:href="#DejaVuSans-73" x="124.267578"/>
      <use xlink:href="#DejaVuSans-65" x="176.367188"/>
     </g>
    </g>
   </g>
  </g>
 </g>
 <defs>
  <clipPath id="pa2e7eabb06">
   <rect x="57.6" y="41.472" width="357.12" height="266.112"/>
  </clipPath>
 </defs>
</svg>
