<?xml version="1.0" encoding="utf-8" standalone="no"?>
<!DOCTYPE svg PUBLIC "-//W3C//DTD SVG 1.1//EN"
  "http://www.w3.org/Graphics/SVG/1.1/DTD/svg11.dtd">
<svg xmlns:xlink="http://www.w3.org/1999/xlink" width="460.8pt" height="345.6pt" viewBox="0 0 460.8 345.6" xmlns="http://www.w3.org/2000/svg" version="1.1">
 <metadata>
  <rdf:RDF xmlns:dc="http://purl.org/dc/elements/1.1/" xmlns:cc="http://creativecommons.org/ns#" xmlns:rdf="http://www.w3.org/1999/02/22-rdf-syntax-ns#">
   <cc:Work>
    <dc:type rdf:resource="http://purl.org/dc/dcmitype/StillImage"/>
    <dc:date>2024-06-24T12:59:15.418144</dc:date>
    <dc:format>image/svg+xml</dc:format>
    <dc:creator>
     <cc:Agent>
      <dc:title>Matplotlib v3.9.0, https://matplotlib.org/</dc:title>
     </cc:Agent>
    </dc:creator>
   </cc:Work>
  </rdf:RDF>
 </metadata>
 <defs>
  <style type="text/css">*{stroke-linejoin: round; stroke-linecap: butt}</style>
 </defs>
 <g id="figure_1">
  <g id="patch_1">
   <path d="M 0 345.6 
L 460.8 345.6 
L 460.8 0 
L 0 0 
z
" style="fill: #ffffff"/>
  </g>
  <g id="axes_1">
   <g id="patch_2">
    <path d="M 57.6 307.584 
L 414.72 307.584 
L 414.72 41.472 
L 57.6 41.472 
z
" style="fill: #ffffff"/>
   </g>
   <g id="PolyCollection_1">
    <path d="M 73.832727 119.38598 
L 73.832727 307.584 
L 74.351889 307.584 
L 74.743387 307.584 
L 75.049778 307.584 
L 76.479599 307.584 
L 76.573218 307.584 
L 77.475367 307.584 
L 78.30943 307.584 
L 78.862634 307.584 
L 79.654143 307.584 
L 79.909468 307.584 
L 80.360542 307.584 
L 80.692465 307.584 
L 80.973323 307.584 
L 81.007366 307.584 
L 81.901005 307.584 
L 82.139308 307.584 
L 82.66698 307.584 
L 83.101033 307.584 
L 83.305293 307.584 
L 83.339337 307.584 
L 83.986161 307.584 
L 84.088291 307.584 
L 84.318084 307.584 
L 84.913842 307.584 
L 84.939375 307.584 
L 85.160657 307.584 
L 85.407471 307.584 
L 85.654286 307.584 
L 86.096849 307.584 
L 87.067085 307.584 
L 87.194748 307.584 
L 87.467095 307.584 
L 87.841572 307.584 
L 88.420309 307.584 
L 88.488396 307.584 
L 88.930959 307.584 
L 90.028858 307.584 
L 93.262978 307.584 
L 94.148105 307.584 
L 94.216192 307.584 
L 94.880037 307.584 
L 95.884317 307.584 
L 96.165174 307.584 
L 96.62476 307.584 
L 96.718379 307.584 
L 96.811998 307.584 
L 97.254562 307.584 
L 97.697126 307.584 
L 98.922687 307.584 
L 99.35674 307.584 
L 99.390783 307.584 
L 100.054629 307.584 
L 100.531236 307.584 
L 100.624855 307.584 
L 100.854648 307.584 
L 101.007843 307.584 
L 101.033375 307.584 
L 102.361067 307.584 
L 102.39511 307.584 
L 102.633414 307.584 
L 104.156854 307.584 
L 105.773914 307.584 
L 105.986685 307.584 
L 106.386695 307.584 
L 107.484593 307.584 
L 107.901624 307.584 
L 108.310145 307.584 
L 108.693133 307.584 
L 109.935715 307.584 
L 112.854934 307.584 
L 112.880466 307.584 
L 112.974086 307.584 
L 113.178346 307.584 
L 113.331541 307.584 
L 113.663464 307.584 
L 116.769921 307.584 
L 117.799733 307.584 
L 118.114634 307.584 
L 118.735925 307.584 
L 118.88912 307.584 
L 118.982739 307.584 
L 119.152956 307.584 
L 119.714672 307.584 
L 120.387028 307.584 
L 122.259413 307.584 
L 123.153052 307.584 
L 123.893495 307.584 
L 123.927538 307.584 
L 124.336058 307.584 
L 124.480743 307.584 
L 124.804155 307.584 
L 125.102034 307.584 
L 125.493533 307.584 
L 125.731836 307.584 
L 126.387171 307.584 
L 127.655287 307.584 
L 128.710631 307.584 
L 129.195749 307.584 
L 129.791508 307.584 
L 129.876616 307.584 
L 132.191565 307.584 
L 132.65115 307.584 
L 133.034138 307.584 
L 134.302253 307.584 
L 134.583111 307.584 
L 135.212913 307.584 
L 135.749096 307.584 
L 136.004422 307.584 
L 137.536373 307.584 
L 138.361925 307.584 
L 139.23003 307.584 
L 139.32365 307.584 
L 139.800257 307.584 
L 139.851322 307.584 
L 140.285375 307.584 
L 141.119437 307.584 
L 141.238589 307.584 
L 143.408853 307.584 
L 143.417364 307.584 
L 144.719523 307.584 
L 145.842954 307.584 
L 146.149344 307.584 
L 146.328072 307.584 
L 146.983407 307.584 
L 150.830307 307.584 
L 151.094143 307.584 
L 151.732456 307.584 
L 151.77501 307.584 
L 152.566518 307.584 
L 152.575029 307.584 
L 153.749525 307.584 
L 154.370817 307.584 
L 155.324031 307.584 
L 155.341053 307.584 
L 155.62191 307.584 
L 155.689997 307.584 
L 156.413419 307.584 
L 156.42193 307.584 
L 156.455973 307.584 
L 156.660233 307.584 
L 158.268782 307.584 
L 158.438999 307.584 
L 159.792223 307.584 
L 160.668839 307.584 
L 160.711393 307.584 
L 162.890169 307.584 
L 163.162516 307.584 
L 163.375287 307.584 
L 164.209349 307.584 
L 169.034996 307.584 
L 170.396731 307.584 
L 171.749954 307.584 
L 171.818041 307.584 
L 174.984074 307.584 
L 175.962821 307.584 
L 176.05644 307.584 
L 177.213914 307.584 
L 178.405432 307.584 
L 179.613972 307.584 
L 181.639552 307.584 
L 184.192804 307.584 
L 185.120486 307.584 
L 185.146018 307.584 
L 186.158808 307.584 
L 187.860977 307.584 
L 190.737641 307.584 
L 191.588725 307.584 
L 192.184484 307.584 
L 198.108029 307.584 
L 198.286757 307.584 
L 200.661282 307.584 
L 207.631661 307.584 
L 207.665704 307.584 
L 210.525347 307.584 
L 211.231746 307.584 
L 213.265837 307.584 
L 214.431823 307.584 
L 218.117017 307.584 
L 224.312909 307.584 
L 238.704741 307.584 
L 239.751575 307.584 
L 243.606986 307.584 
L 243.94742 307.584 
L 252.594434 307.584 
L 277.497155 307.584 
L 278.748249 307.584 
L 278.75676 307.584 
L 279.429116 307.584 
L 288.050598 307.584 
L 294.569903 307.584 
L 294.969912 307.584 
L 296.782721 307.584 
L 297.58274 307.584 
L 302.714778 307.584 
L 320.927978 307.584 
L 324.69828 307.584 
L 326.145123 307.584 
L 330.417565 307.584 
L 343.796608 307.584 
L 369.42275 307.584 
L 398.487273 307.584 
L 398.487273 307.584 
L 398.487273 307.584 
L 369.42275 307.584 
L 343.796608 307.584 
L 330.417565 307.584 
L 326.145123 307.584 
L 324.69828 307.584 
L 320.927978 306.329347 
L 302.714778 305.074693 
L 297.58274 305.074693 
L 296.782721 305.074693 
L 294.969912 305.074693 
L 294.569903 305.074693 
L 288.050598 305.074693 
L 279.429116 305.074693 
L 278.75676 303.82004 
L 278.748249 303.82004 
L 277.497155 303.82004 
L 252.594434 302.565386 
L 243.94742 301.310733 
L 243.606986 300.056079 
L 239.751575 300.056079 
L 238.704741 298.801426 
L 224.312909 297.546772 
L 218.117017 296.292119 
L 214.431823 296.292119 
L 213.265837 296.292119 
L 211.231746 296.292119 
L 210.525347 295.037465 
L 207.665704 293.782812 
L 207.631661 293.782812 
L 200.661282 292.528158 
L 198.286757 291.273505 
L 198.108029 290.018851 
L 192.184484 290.018851 
L 191.588725 288.764198 
L 190.737641 288.764198 
L 187.860977 288.764198 
L 186.158808 287.509545 
L 185.146018 286.254891 
L 185.120486 285.000238 
L 184.192804 285.000238 
L 181.639552 285.000238 
L 179.613972 283.745584 
L 178.405432 283.745584 
L 177.213914 283.745584 
L 176.05644 282.490931 
L 175.962821 281.236277 
L 174.984074 279.981624 
L 171.818041 279.981624 
L 171.749954 278.72697 
L 170.396731 277.472317 
L 169.034996 276.217663 
L 164.209349 274.96301 
L 163.375287 273.708356 
L 163.162516 272.453703 
L 162.890169 271.19905 
L 160.711393 271.19905 
L 160.668839 269.944396 
L 159.792223 268.689743 
L 158.438999 268.689743 
L 158.268782 268.689743 
L 156.660233 268.689743 
L 156.455973 267.435089 
L 156.42193 266.180436 
L 156.413419 264.925782 
L 155.689997 263.671129 
L 155.62191 263.671129 
L 155.341053 262.416475 
L 155.324031 261.161822 
L 154.370817 259.907168 
L 153.749525 258.652515 
L 152.575029 257.397861 
L 152.566518 256.143208 
L 151.77501 254.888554 
L 151.732456 253.633901 
L 151.094143 253.633901 
L 150.830307 252.379248 
L 146.983407 251.124594 
L 146.328072 251.124594 
L 146.149344 251.124594 
L 145.842954 251.124594 
L 144.719523 249.869941 
L 143.417364 248.615287 
L 143.408853 247.360634 
L 141.238589 246.10598 
L 141.119437 244.851327 
L 140.285375 243.596673 
L 139.851322 242.34202 
L 139.800257 241.087366 
L 139.32365 239.832713 
L 139.23003 238.578059 
L 138.361925 237.323406 
L 137.536373 237.323406 
L 136.004422 236.068752 
L 135.749096 234.814099 
L 135.212913 233.559446 
L 134.583111 232.304792 
L 134.302253 231.050139 
L 133.034138 229.795485 
L 132.65115 228.540832 
L 132.191565 227.286178 
L 129.876616 226.031525 
L 129.791508 226.031525 
L 129.195749 224.776871 
L 128.710631 223.522218 
L 127.655287 222.267564 
L 126.387171 222.267564 
L 125.731836 221.012911 
L 125.493533 219.758257 
L 125.102034 218.503604 
L 124.804155 217.24895 
L 124.480743 215.994297 
L 124.336058 215.994297 
L 123.927538 214.739644 
L 123.893495 213.48499 
L 123.153052 212.230337 
L 122.259413 210.975683 
L 120.387028 209.72103 
L 119.714672 208.466376 
L 119.152956 207.211723 
L 118.982739 205.957069 
L 118.88912 204.702416 
L 118.735925 203.447762 
L 118.114634 202.193109 
L 117.799733 200.938455 
L 116.769921 199.683802 
L 113.663464 199.683802 
L 113.331541 198.429149 
L 113.178346 197.174495 
L 112.974086 195.919842 
L 112.880466 194.665188 
L 112.854934 194.665188 
L 109.935715 193.410535 
L 108.693133 192.155881 
L 108.310145 192.155881 
L 107.901624 190.901228 
L 107.484593 189.646574 
L 106.386695 188.391921 
L 105.986685 187.137267 
L 105.773914 185.882614 
L 104.156854 185.882614 
L 102.633414 184.62796 
L 102.39511 184.62796 
L 102.361067 183.373307 
L 101.033375 182.118653 
L 101.007843 182.118653 
L 100.854648 180.864 
L 100.624855 180.864 
L 100.531236 179.609347 
L 100.054629 179.609347 
L 99.390783 178.354693 
L 99.35674 177.10004 
L 98.922687 175.845386 
L 97.697126 174.590733 
L 97.254562 173.336079 
L 96.811998 172.081426 
L 96.718379 170.826772 
L 96.62476 169.572119 
L 96.165174 169.572119 
L 95.884317 168.317465 
L 94.880037 167.062812 
L 94.216192 165.808158 
L 94.148105 164.553505 
L 93.262978 163.298851 
L 90.028858 163.298851 
L 88.930959 162.044198 
L 88.488396 160.789545 
L 88.420309 159.534891 
L 87.841572 158.280238 
L 87.467095 157.025584 
L 87.194748 155.770931 
L 87.067085 154.516277 
L 86.096849 153.261624 
L 85.654286 152.00697 
L 85.407471 150.752317 
L 85.160657 149.497663 
L 84.939375 148.24301 
L 84.913842 146.988356 
L 84.318084 145.733703 
L 84.088291 145.733703 
L 83.986161 144.47905 
L 83.339337 143.224396 
L 83.305293 141.969743 
L 83.101033 140.715089 
L 82.66698 139.460436 
L 82.139308 138.205782 
L 81.901005 136.951129 
L 81.007366 135.696475 
L 80.973323 134.441822 
L 80.692465 133.187168 
L 80.360542 131.932515 
L 79.909468 130.677861 
L 79.654143 130.677861 
L 78.862634 129.423208 
L 78.30943 128.168554 
L 77.475367 126.913901 
L 76.573218 125.659248 
L 76.479599 124.404594 
L 75.049778 123.149941 
L 74.743387 121.895287 
L 74.351889 120.640634 
L 73.832727 119.38598 
z
" clip-path="url(#p0d9a797092)" style="fill: #008000"/>
   </g>
   <g id="PolyCollection_2">
    <path d="M 73.832727 57.90796 
L 73.832727 119.38598 
L 74.351889 120.640634 
L 74.743387 121.895287 
L 75.049778 123.149941 
L 76.479599 124.404594 
L 76.573218 125.659248 
L 77.475367 126.913901 
L 78.30943 128.168554 
L 78.862634 129.423208 
L 79.654143 130.677861 
L 79.909468 130.677861 
L 80.360542 131.932515 
L 80.692465 133.187168 
L 80.973323 134.441822 
L 81.007366 135.696475 
L 81.901005 136.951129 
L 82.139308 138.205782 
L 82.66698 139.460436 
L 83.101033 140.715089 
L 83.305293 141.969743 
L 83.339337 143.224396 
L 83.986161 144.47905 
L 84.088291 145.733703 
L 84.318084 145.733703 
L 84.913842 146.988356 
L 84.939375 148.24301 
L 85.160657 149.497663 
L 85.407471 150.752317 
L 85.654286 152.00697 
L 86.096849 153.261624 
L 87.067085 154.516277 
L 87.194748 155.770931 
L 87.467095 157.025584 
L 87.841572 158.280238 
L 88.420309 159.534891 
L 88.488396 160.789545 
L 88.930959 162.044198 
L 90.028858 163.298851 
L 93.262978 163.298851 
L 94.148105 164.553505 
L 94.216192 165.808158 
L 94.880037 167.062812 
L 95.884317 168.317465 
L 96.165174 169.572119 
L 96.62476 169.572119 
L 96.718379 170.826772 
L 96.811998 172.081426 
L 97.254562 173.336079 
L 97.697126 174.590733 
L 98.922687 175.845386 
L 99.35674 177.10004 
L 99.390783 178.354693 
L 100.054629 179.609347 
L 100.531236 179.609347 
L 100.624855 180.864 
L 100.854648 180.864 
L 101.007843 182.118653 
L 101.033375 182.118653 
L 102.361067 183.373307 
L 102.39511 184.62796 
L 102.633414 184.62796 
L 104.156854 185.882614 
L 105.773914 185.882614 
L 105.986685 187.137267 
L 106.386695 188.391921 
L 107.484593 189.646574 
L 107.901624 190.901228 
L 108.310145 192.155881 
L 108.693133 192.155881 
L 109.935715 193.410535 
L 112.854934 194.665188 
L 112.880466 194.665188 
L 112.974086 195.919842 
L 113.178346 197.174495 
L 113.331541 198.429149 
L 113.663464 199.683802 
L 116.769921 199.683802 
L 117.799733 200.938455 
L 118.114634 202.193109 
L 118.735925 203.447762 
L 118.88912 204.702416 
L 118.982739 205.957069 
L 119.152956 207.211723 
L 119.714672 208.466376 
L 120.387028 209.72103 
L 122.259413 210.975683 
L 123.153052 212.230337 
L 123.893495 213.48499 
L 123.927538 214.739644 
L 124.336058 215.994297 
L 124.480743 215.994297 
L 124.804155 217.24895 
L 125.102034 218.503604 
L 125.493533 219.758257 
L 125.731836 221.012911 
L 126.387171 222.267564 
L 127.655287 222.267564 
L 128.710631 223.522218 
L 129.195749 224.776871 
L 129.791508 226.031525 
L 129.876616 226.031525 
L 132.191565 227.286178 
L 132.65115 228.540832 
L 133.034138 229.795485 
L 134.302253 231.050139 
L 134.583111 232.304792 
L 135.212913 233.559446 
L 135.749096 234.814099 
L 136.004422 236.068752 
L 137.536373 237.323406 
L 138.361925 237.323406 
L 139.23003 238.578059 
L 139.32365 239.832713 
L 139.800257 241.087366 
L 139.851322 242.34202 
L 140.285375 243.596673 
L 141.119437 244.851327 
L 141.238589 246.10598 
L 143.408853 247.360634 
L 143.417364 248.615287 
L 144.719523 249.869941 
L 145.842954 251.124594 
L 146.149344 251.124594 
L 146.328072 251.124594 
L 146.983407 251.124594 
L 150.830307 252.379248 
L 151.094143 253.633901 
L 151.732456 253.633901 
L 151.77501 254.888554 
L 152.566518 256.143208 
L 152.575029 257.397861 
L 153.749525 258.652515 
L 154.370817 259.907168 
L 155.324031 261.161822 
L 155.341053 262.416475 
L 155.62191 263.671129 
L 155.689997 263.671129 
L 156.413419 264.925782 
L 156.42193 266.180436 
L 156.455973 267.435089 
L 156.660233 268.689743 
L 158.268782 268.689743 
L 158.438999 268.689743 
L 159.792223 268.689743 
L 160.668839 269.944396 
L 160.711393 271.19905 
L 162.890169 271.19905 
L 163.162516 272.453703 
L 163.375287 273.708356 
L 164.209349 274.96301 
L 169.034996 276.217663 
L 170.396731 277.472317 
L 171.749954 278.72697 
L 171.818041 279.981624 
L 174.984074 279.981624 
L 175.962821 281.236277 
L 176.05644 282.490931 
L 177.213914 283.745584 
L 178.405432 283.745584 
L 179.613972 283.745584 
L 181.639552 285.000238 
L 184.192804 285.000238 
L 185.120486 285.000238 
L 185.146018 286.254891 
L 186.158808 287.509545 
L 187.860977 288.764198 
L 190.737641 288.764198 
L 191.588725 288.764198 
L 192.184484 290.018851 
L 198.108029 290.018851 
L 198.286757 291.273505 
L 200.661282 292.528158 
L 207.631661 293.782812 
L 207.665704 293.782812 
L 210.525347 295.037465 
L 211.231746 296.292119 
L 213.265837 296.292119 
L 214.431823 296.292119 
L 218.117017 296.292119 
L 224.312909 297.546772 
L 238.704741 298.801426 
L 239.751575 300.056079 
L 243.606986 300.056079 
L 243.94742 301.310733 
L 252.594434 302.565386 
L 277.497155 303.82004 
L 278.748249 303.82004 
L 278.75676 303.82004 
L 279.429116 305.074693 
L 288.050598 305.074693 
L 294.569903 305.074693 
L 294.969912 305.074693 
L 296.782721 305.074693 
L 297.58274 305.074693 
L 302.714778 305.074693 
L 320.927978 306.329347 
L 324.69828 307.584 
L 326.145123 307.584 
L 330.417565 307.584 
L 343.796608 307.584 
L 369.42275 307.584 
L 398.487273 307.584 
L 398.487273 306.329347 
L 398.487273 306.329347 
L 369.42275 305.074693 
L 343.796608 303.82004 
L 330.417565 302.565386 
L 326.145123 301.310733 
L 324.69828 300.056079 
L 320.927978 298.801426 
L 302.714778 297.546772 
L 297.58274 296.292119 
L 296.782721 295.037465 
L 294.969912 293.782812 
L 294.569903 292.528158 
L 288.050598 291.273505 
L 279.429116 290.018851 
L 278.75676 288.764198 
L 278.748249 287.509545 
L 277.497155 286.254891 
L 252.594434 285.000238 
L 243.94742 283.745584 
L 243.606986 282.490931 
L 239.751575 281.236277 
L 238.704741 279.981624 
L 224.312909 278.72697 
L 218.117017 277.472317 
L 214.431823 276.217663 
L 213.265837 274.96301 
L 211.231746 273.708356 
L 210.525347 272.453703 
L 207.665704 271.19905 
L 207.631661 269.944396 
L 200.661282 268.689743 
L 198.286757 267.435089 
L 198.108029 266.180436 
L 192.184484 264.925782 
L 191.588725 263.671129 
L 190.737641 262.416475 
L 187.860977 261.161822 
L 186.158808 259.907168 
L 185.146018 258.652515 
L 185.120486 257.397861 
L 184.192804 256.143208 
L 181.639552 254.888554 
L 179.613972 253.633901 
L 178.405432 252.379248 
L 177.213914 251.124594 
L 176.05644 249.869941 
L 175.962821 248.615287 
L 174.984074 247.360634 
L 171.818041 246.10598 
L 171.749954 244.851327 
L 170.396731 243.596673 
L 169.034996 242.34202 
L 164.209349 241.087366 
L 163.375287 239.832713 
L 163.162516 238.578059 
L 162.890169 237.323406 
L 160.711393 236.068752 
L 160.668839 234.814099 
L 159.792223 233.559446 
L 158.438999 232.304792 
L 158.268782 231.050139 
L 156.660233 229.795485 
L 156.455973 228.540832 
L 156.42193 227.286178 
L 156.413419 226.031525 
L 155.689997 224.776871 
L 155.62191 223.522218 
L 155.341053 222.267564 
L 155.324031 221.012911 
L 154.370817 219.758257 
L 153.749525 218.503604 
L 152.575029 217.24895 
L 152.566518 215.994297 
L 151.77501 214.739644 
L 151.732456 213.48499 
L 151.094143 212.230337 
L 150.830307 210.975683 
L 146.983407 209.72103 
L 146.328072 208.466376 
L 146.149344 207.211723 
L 145.842954 205.957069 
L 144.719523 204.702416 
L 143.417364 203.447762 
L 143.408853 202.193109 
L 141.238589 200.938455 
L 141.119437 199.683802 
L 140.285375 198.429149 
L 139.851322 197.174495 
L 139.800257 195.919842 
L 139.32365 194.665188 
L 139.23003 193.410535 
L 138.361925 192.155881 
L 137.536373 190.901228 
L 136.004422 189.646574 
L 135.749096 188.391921 
L 135.212913 187.137267 
L 134.583111 185.882614 
L 134.302253 184.62796 
L 133.034138 183.373307 
L 132.65115 182.118653 
L 132.191565 180.864 
L 129.876616 179.609347 
L 129.791508 178.354693 
L 129.195749 177.10004 
L 128.710631 175.845386 
L 127.655287 174.590733 
L 126.387171 174.590733 
L 125.731836 173.336079 
L 125.493533 172.081426 
L 125.102034 170.826772 
L 124.804155 169.572119 
L 124.480743 168.317465 
L 124.336058 167.062812 
L 123.927538 165.808158 
L 123.893495 164.553505 
L 123.153052 163.298851 
L 122.259413 162.044198 
L 120.387028 160.789545 
L 119.714672 159.534891 
L 119.152956 158.280238 
L 118.982739 157.025584 
L 118.88912 155.770931 
L 118.735925 154.516277 
L 118.114634 153.261624 
L 117.799733 152.00697 
L 116.769921 150.752317 
L 113.663464 149.497663 
L 113.331541 148.24301 
L 113.178346 146.988356 
L 112.974086 145.733703 
L 112.880466 144.47905 
L 112.854934 143.224396 
L 109.935715 141.969743 
L 108.693133 140.715089 
L 108.310145 139.460436 
L 107.901624 138.205782 
L 107.484593 136.951129 
L 106.386695 135.696475 
L 105.986685 134.441822 
L 105.773914 133.187168 
L 104.156854 131.932515 
L 102.633414 130.677861 
L 102.39511 129.423208 
L 102.361067 128.168554 
L 101.033375 126.913901 
L 101.007843 125.659248 
L 100.854648 124.404594 
L 100.624855 123.149941 
L 100.531236 121.895287 
L 100.054629 120.640634 
L 99.390783 119.38598 
L 99.35674 118.131327 
L 98.922687 116.876673 
L 97.697126 115.62202 
L 97.254562 114.367366 
L 96.811998 113.112713 
L 96.718379 111.858059 
L 96.62476 110.603406 
L 96.165174 110.603406 
L 95.884317 109.348752 
L 94.880037 108.094099 
L 94.216192 106.839446 
L 94.148105 105.584792 
L 93.262978 104.330139 
L 90.028858 103.075485 
L 88.930959 101.820832 
L 88.488396 100.566178 
L 88.420309 99.311525 
L 87.841572 98.056871 
L 87.467095 96.802218 
L 87.194748 95.547564 
L 87.067085 94.292911 
L 86.096849 93.038257 
L 85.654286 91.783604 
L 85.407471 90.52895 
L 85.160657 89.274297 
L 84.939375 88.019644 
L 84.913842 86.76499 
L 84.318084 85.510337 
L 84.088291 84.255683 
L 83.986161 83.00103 
L 83.339337 81.746376 
L 83.305293 80.491723 
L 83.101033 79.237069 
L 82.66698 77.982416 
L 82.139308 76.727762 
L 81.901005 75.473109 
L 81.007366 74.218455 
L 80.973323 72.963802 
L 80.692465 71.709149 
L 80.360542 70.454495 
L 79.909468 69.199842 
L 79.654143 69.199842 
L 78.862634 67.945188 
L 78.30943 66.690535 
L 77.475367 65.435881 
L 76.573218 64.181228 
L 76.479599 62.926574 
L 75.049778 61.671921 
L 74.743387 60.417267 
L 74.351889 59.162614 
L 73.832727 57.90796 
z
" clip-path="url(#p0d9a797092)" style="fill: #7cfc00"/>
   </g>
   <g id="PolyCollection_3">
    <path d="M 73.832727 54.144 
L 73.832727 57.90796 
L 74.351889 59.162614 
L 74.743387 60.417267 
L 75.049778 61.671921 
L 76.479599 62.926574 
L 76.573218 64.181228 
L 77.475367 65.435881 
L 78.30943 66.690535 
L 78.862634 67.945188 
L 79.654143 69.199842 
L 79.909468 69.199842 
L 80.360542 70.454495 
L 80.692465 71.709149 
L 80.973323 72.963802 
L 81.007366 74.218455 
L 81.901005 75.473109 
L 82.139308 76.727762 
L 82.66698 77.982416 
L 83.101033 79.237069 
L 83.305293 80.491723 
L 83.339337 81.746376 
L 83.986161 83.00103 
L 84.088291 84.255683 
L 84.318084 85.510337 
L 84.913842 86.76499 
L 84.939375 88.019644 
L 85.160657 89.274297 
L 85.407471 90.52895 
L 85.654286 91.783604 
L 86.096849 93.038257 
L 87.067085 94.292911 
L 87.194748 95.547564 
L 87.467095 96.802218 
L 87.841572 98.056871 
L 88.420309 99.311525 
L 88.488396 100.566178 
L 88.930959 101.820832 
L 90.028858 103.075485 
L 93.262978 104.330139 
L 94.148105 105.584792 
L 94.216192 106.839446 
L 94.880037 108.094099 
L 95.884317 109.348752 
L 96.165174 110.603406 
L 96.62476 110.603406 
L 96.718379 111.858059 
L 96.811998 113.112713 
L 97.254562 114.367366 
L 97.697126 115.62202 
L 98.922687 116.876673 
L 99.35674 118.131327 
L 99.390783 119.38598 
L 100.054629 120.640634 
L 100.531236 121.895287 
L 100.624855 123.149941 
L 100.854648 124.404594 
L 101.007843 125.659248 
L 101.033375 126.913901 
L 102.361067 128.168554 
L 102.39511 129.423208 
L 102.633414 130.677861 
L 104.156854 131.932515 
L 105.773914 133.187168 
L 105.986685 134.441822 
L 106.386695 135.696475 
L 107.484593 136.951129 
L 107.901624 138.205782 
L 108.310145 139.460436 
L 108.693133 140.715089 
L 109.935715 141.969743 
L 112.854934 143.224396 
L 112.880466 144.47905 
L 112.974086 145.733703 
L 113.178346 146.988356 
L 113.331541 148.24301 
L 113.663464 149.497663 
L 116.769921 150.752317 
L 117.799733 152.00697 
L 118.114634 153.261624 
L 118.735925 154.516277 
L 118.88912 155.770931 
L 118.982739 157.025584 
L 119.152956 158.280238 
L 119.714672 159.534891 
L 120.387028 160.789545 
L 122.259413 162.044198 
L 123.153052 163.298851 
L 123.893495 164.553505 
L 123.927538 165.808158 
L 124.336058 167.062812 
L 124.480743 168.317465 
L 124.804155 169.572119 
L 125.102034 170.826772 
L 125.493533 172.081426 
L 125.731836 173.336079 
L 126.387171 174.590733 
L 127.655287 174.590733 
L 128.710631 175.845386 
L 129.195749 177.10004 
L 129.791508 178.354693 
L 129.876616 179.609347 
L 132.191565 180.864 
L 132.65115 182.118653 
L 133.034138 183.373307 
L 134.302253 184.62796 
L 134.583111 185.882614 
L 135.212913 187.137267 
L 135.749096 188.391921 
L 136.004422 189.646574 
L 137.536373 190.901228 
L 138.361925 192.155881 
L 139.23003 193.410535 
L 139.32365 194.665188 
L 139.800257 195.919842 
L 139.851322 197.174495 
L 140.285375 198.429149 
L 141.119437 199.683802 
L 141.238589 200.938455 
L 143.408853 202.193109 
L 143.417364 203.447762 
L 144.719523 204.702416 
L 145.842954 205.957069 
L 146.149344 207.211723 
L 146.328072 208.466376 
L 146.983407 209.72103 
L 150.830307 210.975683 
L 151.094143 212.230337 
L 151.732456 213.48499 
L 151.77501 214.739644 
L 152.566518 215.994297 
L 152.575029 217.24895 
L 153.749525 218.503604 
L 154.370817 219.758257 
L 155.324031 221.012911 
L 155.341053 222.267564 
L 155.62191 223.522218 
L 155.689997 224.776871 
L 156.413419 226.031525 
L 156.42193 227.286178 
L 156.455973 228.540832 
L 156.660233 229.795485 
L 158.268782 231.050139 
L 158.438999 232.304792 
L 159.792223 233.559446 
L 160.668839 234.814099 
L 160.711393 236.068752 
L 162.890169 237.323406 
L 163.162516 238.578059 
L 163.375287 239.832713 
L 164.209349 241.087366 
L 169.034996 242.34202 
L 170.396731 243.596673 
L 171.749954 244.851327 
L 171.818041 246.10598 
L 174.984074 247.360634 
L 175.962821 248.615287 
L 176.05644 249.869941 
L 177.213914 251.124594 
L 178.405432 252.379248 
L 179.613972 253.633901 
L 181.639552 254.888554 
L 184.192804 256.143208 
L 185.120486 257.397861 
L 185.146018 258.652515 
L 186.158808 259.907168 
L 187.860977 261.161822 
L 190.737641 262.416475 
L 191.588725 263.671129 
L 192.184484 264.925782 
L 198.108029 266.180436 
L 198.286757 267.435089 
L 200.661282 268.689743 
L 207.631661 269.944396 
L 207.665704 271.19905 
L 210.525347 272.453703 
L 211.231746 273.708356 
L 213.265837 274.96301 
L 214.431823 276.217663 
L 218.117017 277.472317 
L 224.312909 278.72697 
L 238.704741 279.981624 
L 239.751575 281.236277 
L 243.606986 282.490931 
L 243.94742 283.745584 
L 252.594434 285.000238 
L 277.497155 286.254891 
L 278.748249 287.509545 
L 278.75676 288.764198 
L 279.429116 290.018851 
L 288.050598 291.273505 
L 294.569903 292.528158 
L 294.969912 293.782812 
L 296.782721 295.037465 
L 297.58274 296.292119 
L 302.714778 297.546772 
L 320.927978 298.801426 
L 324.69828 300.056079 
L 326.145123 301.310733 
L 330.417565 302.565386 
L 343.796608 303.82004 
L 369.42275 305.074693 
L 398.487273 306.329347 
L 398.487273 306.329347 
L 398.487273 306.329347 
L 369.42275 305.074693 
L 343.796608 303.82004 
L 330.417565 302.565386 
L 326.145123 301.310733 
L 324.69828 300.056079 
L 320.927978 298.801426 
L 302.714778 297.546772 
L 297.58274 296.292119 
L 296.782721 295.037465 
L 294.969912 293.782812 
L 294.569903 292.528158 
L 288.050598 291.273505 
L 279.429116 290.018851 
L 278.75676 288.764198 
L 278.748249 287.509545 
L 277.497155 286.254891 
L 252.594434 285.000238 
L 243.94742 283.745584 
L 243.606986 282.490931 
L 239.751575 281.236277 
L 238.704741 279.981624 
L 224.312909 278.72697 
L 218.117017 277.472317 
L 214.431823 276.217663 
L 213.265837 274.96301 
L 211.231746 273.708356 
L 210.525347 272.453703 
L 207.665704 271.19905 
L 207.631661 269.944396 
L 200.661282 268.689743 
L 198.286757 267.435089 
L 198.108029 266.180436 
L 192.184484 264.925782 
L 191.588725 263.671129 
L 190.737641 262.416475 
L 187.860977 261.161822 
L 186.158808 259.907168 
L 185.146018 258.652515 
L 185.120486 257.397861 
L 184.192804 256.143208 
L 181.639552 254.888554 
L 179.613972 253.633901 
L 178.405432 252.379248 
L 177.213914 251.124594 
L 176.05644 249.869941 
L 175.962821 248.615287 
L 174.984074 247.360634 
L 171.818041 246.10598 
L 171.749954 244.851327 
L 170.396731 243.596673 
L 169.034996 242.34202 
L 164.209349 241.087366 
L 163.375287 239.832713 
L 163.162516 238.578059 
L 162.890169 237.323406 
L 160.711393 236.068752 
L 160.668839 234.814099 
L 159.792223 233.559446 
L 158.438999 232.304792 
L 158.268782 231.050139 
L 156.660233 229.795485 
L 156.455973 228.540832 
L 156.42193 227.286178 
L 156.413419 226.031525 
L 155.689997 224.776871 
L 155.62191 223.522218 
L 155.341053 222.267564 
L 155.324031 221.012911 
L 154.370817 219.758257 
L 153.749525 218.503604 
L 152.575029 217.24895 
L 152.566518 215.994297 
L 151.77501 214.739644 
L 151.732456 213.48499 
L 151.094143 212.230337 
L 150.830307 210.975683 
L 146.983407 209.72103 
L 146.328072 208.466376 
L 146.149344 207.211723 
L 145.842954 205.957069 
L 144.719523 204.702416 
L 143.417364 203.447762 
L 143.408853 202.193109 
L 141.238589 200.938455 
L 141.119437 199.683802 
L 140.285375 198.429149 
L 139.851322 197.174495 
L 139.800257 195.919842 
L 139.32365 194.665188 
L 139.23003 193.410535 
L 138.361925 192.155881 
L 137.536373 190.901228 
L 136.004422 189.646574 
L 135.749096 188.391921 
L 135.212913 187.137267 
L 134.583111 185.882614 
L 134.302253 184.62796 
L 133.034138 183.373307 
L 132.65115 182.118653 
L 132.191565 180.864 
L 129.876616 179.609347 
L 129.791508 178.354693 
L 129.195749 177.10004 
L 128.710631 175.845386 
L 127.655287 174.590733 
L 126.387171 173.336079 
L 125.731836 172.081426 
L 125.493533 170.826772 
L 125.102034 169.572119 
L 124.804155 168.317465 
L 124.480743 167.062812 
L 124.336058 165.808158 
L 123.927538 164.553505 
L 123.893495 163.298851 
L 123.153052 162.044198 
L 122.259413 160.789545 
L 120.387028 159.534891 
L 119.714672 158.280238 
L 119.152956 157.025584 
L 118.982739 155.770931 
L 118.88912 154.516277 
L 118.735925 153.261624 
L 118.114634 152.00697 
L 117.799733 150.752317 
L 116.769921 149.497663 
L 113.663464 148.24301 
L 113.331541 146.988356 
L 113.178346 145.733703 
L 112.974086 144.47905 
L 112.880466 143.224396 
L 112.854934 141.969743 
L 109.935715 140.715089 
L 108.693133 139.460436 
L 108.310145 138.205782 
L 107.901624 136.951129 
L 107.484593 135.696475 
L 106.386695 134.441822 
L 105.986685 133.187168 
L 105.773914 131.932515 
L 104.156854 130.677861 
L 102.633414 129.423208 
L 102.39511 128.168554 
L 102.361067 126.913901 
L 101.033375 125.659248 
L 101.007843 124.404594 
L 100.854648 123.149941 
L 100.624855 121.895287 
L 100.531236 120.640634 
L 100.054629 119.38598 
L 99.390783 118.131327 
L 99.35674 116.876673 
L 98.922687 115.62202 
L 97.697126 114.367366 
L 97.254562 113.112713 
L 96.811998 111.858059 
L 96.718379 110.603406 
L 96.62476 109.348752 
L 96.165174 108.094099 
L 95.884317 106.839446 
L 94.880037 105.584792 
L 94.216192 104.330139 
L 94.148105 103.075485 
L 93.262978 101.820832 
L 90.028858 100.566178 
L 88.930959 99.311525 
L 88.488396 98.056871 
L 88.420309 96.802218 
L 87.841572 95.547564 
L 87.467095 94.292911 
L 87.194748 93.038257 
L 87.067085 91.783604 
L 86.096849 90.52895 
L 85.654286 89.274297 
L 85.407471 88.019644 
L 85.160657 86.76499 
L 84.939375 85.510337 
L 84.913842 84.255683 
L 84.318084 83.00103 
L 84.088291 81.746376 
L 83.986161 80.491723 
L 83.339337 79.237069 
L 83.305293 77.982416 
L 83.101033 76.727762 
L 82.66698 75.473109 
L 82.139308 74.218455 
L 81.901005 72.963802 
L 81.007366 71.709149 
L 80.973323 70.454495 
L 80.692465 69.199842 
L 80.360542 67.945188 
L 79.909468 66.690535 
L 79.654143 65.435881 
L 78.862634 64.181228 
L 78.30943 62.926574 
L 77.475367 61.671921 
L 76.573218 60.417267 
L 76.479599 59.162614 
L 75.049778 57.90796 
L 74.743387 56.653307 
L 74.351889 55.398653 
L 73.832727 54.144 
z
" clip-path="url(#p0d9a797092)" style="fill: #ff0000"/>
   </g>
   <g id="matplotlib.axis_1">
    <g id="xtick_1">
     <g id="line2d_1">
      <defs>
       <path id="m80345c513d" d="M 0 0 
L 0 3.5 
" style="stroke: #000000; stroke-width: 0.8"/>
      </defs>
      <g>
       <use xlink:href="#m80345c513d" x="91.126756" y="307.584" style="stroke: #000000; stroke-width: 0.8"/>
      </g>
     </g>
     <g id="text_1">
      <!-- 100 -->
      <g transform="translate(81.583006 322.182437) scale(0.1 -0.1)">
       <defs>
        <path id="DejaVuSans-31" d="M 794 531 
L 1825 531 
L 1825 4091 
L 703 3866 
L 703 4441 
L 1819 4666 
L 2450 4666 
L 2450 531 
L 3481 531 
L 3481 0 
L 794 0 
L 794 531 
z
" transform="scale(0.015625)"/>
        <path id="DejaVuSans-30" d="M 2034 4250 
Q 1547 4250 1301 3770 
Q 1056 3291 1056 2328 
Q 1056 1369 1301 889 
Q 1547 409 2034 409 
Q 2525 409 2770 889 
Q 3016 1369 3016 2328 
Q 3016 3291 2770 3770 
Q 2525 4250 2034 4250 
z
M 2034 4750 
Q 2819 4750 3233 4129 
Q 3647 3509 3647 2328 
Q 3647 1150 3233 529 
Q 2819 -91 2034 -91 
Q 1250 -91 836 529 
Q 422 1150 422 2328 
Q 422 3509 836 4129 
Q 1250 4750 2034 4750 
z
" transform="scale(0.015625)"/>
       </defs>
       <use xlink:href="#DejaVuSans-31"/>
       <use xlink:href="#DejaVuSans-30" x="63.623047"/>
       <use xlink:href="#DejaVuSans-30" x="127.246094"/>
      </g>
     </g>
    </g>
    <g id="xtick_2">
     <g id="line2d_2">
      <g>
       <use xlink:href="#m80345c513d" x="133.680962" y="307.584" style="stroke: #000000; stroke-width: 0.8"/>
      </g>
     </g>
     <g id="text_2">
      <!-- 150 -->
      <g transform="translate(124.137212 322.182437) scale(0.1 -0.1)">
       <defs>
        <path id="DejaVuSans-35" d="M 691 4666 
L 3169 4666 
L 3169 4134 
L 1269 4134 
L 1269 2991 
Q 1406 3038 1543 3061 
Q 1681 3084 1819 3084 
Q 2600 3084 3056 2656 
Q 3513 2228 3513 1497 
Q 3513 744 3044 326 
Q 2575 -91 1722 -91 
Q 1428 -91 1123 -41 
Q 819 9 494 109 
L 494 744 
Q 775 591 1075 516 
Q 1375 441 1709 441 
Q 2250 441 2565 725 
Q 2881 1009 2881 1497 
Q 2881 1984 2565 2268 
Q 2250 2553 1709 2553 
Q 1456 2553 1204 2497 
Q 953 2441 691 2322 
L 691 4666 
z
" transform="scale(0.015625)"/>
       </defs>
       <use xlink:href="#DejaVuSans-31"/>
       <use xlink:href="#DejaVuSans-35" x="63.623047"/>
       <use xlink:href="#DejaVuSans-30" x="127.246094"/>
      </g>
     </g>
    </g>
    <g id="xtick_3">
     <g id="line2d_3">
      <g>
       <use xlink:href="#m80345c513d" x="176.235168" y="307.584" style="stroke: #000000; stroke-width: 0.8"/>
      </g>
     </g>
     <g id="text_3">
      <!-- 200 -->
      <g transform="translate(166.691418 322.182437) scale(0.1 -0.1)">
       <defs>
        <path id="DejaVuSans-32" d="M 1228 531 
L 3431 531 
L 3431 0 
L 469 0 
L 469 531 
Q 828 903 1448 1529 
Q 2069 2156 2228 2338 
Q 2531 2678 2651 2914 
Q 2772 3150 2772 3378 
Q 2772 3750 2511 3984 
Q 2250 4219 1831 4219 
Q 1534 4219 1204 4116 
Q 875 4013 500 3803 
L 500 4441 
Q 881 4594 1212 4672 
Q 1544 4750 1819 4750 
Q 2544 4750 2975 4387 
Q 3406 4025 3406 3419 
Q 3406 3131 3298 2873 
Q 3191 2616 2906 2266 
Q 2828 2175 2409 1742 
Q 1991 1309 1228 531 
z
" transform="scale(0.015625)"/>
       </defs>
       <use xlink:href="#DejaVuSans-32"/>
       <use xlink:href="#DejaVuSans-30" x="63.623047"/>
       <use xlink:href="#DejaVuSans-30" x="127.246094"/>
      </g>
     </g>
    </g>
    <g id="xtick_4">
     <g id="line2d_4">
      <g>
       <use xlink:href="#m80345c513d" x="218.789373" y="307.584" style="stroke: #000000; stroke-width: 0.8"/>
      </g>
     </g>
     <g id="text_4">
      <!-- 250 -->
      <g transform="translate(209.245623 322.182437) scale(0.1 -0.1)">
       <use xlink:href="#DejaVuSans-32"/>
       <use xlink:href="#DejaVuSans-35" x="63.623047"/>
       <use xlink:href="#DejaVuSans-30" x="127.246094"/>
      </g>
     </g>
    </g>
    <g id="xtick_5">
     <g id="line2d_5">
      <g>
       <use xlink:href="#m80345c513d" x="261.343579" y="307.584" style="stroke: #000000; stroke-width: 0.8"/>
      </g>
     </g>
     <g id="text_5">
      <!-- 300 -->
      <g transform="translate(251.799829 322.182437) scale(0.1 -0.1)">
       <defs>
        <path id="DejaVuSans-33" d="M 2597 2516 
Q 3050 2419 3304 2112 
Q 3559 1806 3559 1356 
Q 3559 666 3084 287 
Q 2609 -91 1734 -91 
Q 1441 -91 1130 -33 
Q 819 25 488 141 
L 488 750 
Q 750 597 1062 519 
Q 1375 441 1716 441 
Q 2309 441 2620 675 
Q 2931 909 2931 1356 
Q 2931 1769 2642 2001 
Q 2353 2234 1838 2234 
L 1294 2234 
L 1294 2753 
L 1863 2753 
Q 2328 2753 2575 2939 
Q 2822 3125 2822 3475 
Q 2822 3834 2567 4026 
Q 2313 4219 1838 4219 
Q 1578 4219 1281 4162 
Q 984 4106 628 3988 
L 628 4550 
Q 988 4650 1302 4700 
Q 1616 4750 1894 4750 
Q 2613 4750 3031 4423 
Q 3450 4097 3450 3541 
Q 3450 3153 3228 2886 
Q 3006 2619 2597 2516 
z
" transform="scale(0.015625)"/>
       </defs>
       <use xlink:href="#DejaVuSans-33"/>
       <use xlink:href="#DejaVuSans-30" x="63.623047"/>
       <use xlink:href="#DejaVuSans-30" x="127.246094"/>
      </g>
     </g>
    </g>
    <g id="xtick_6">
     <g id="line2d_6">
      <g>
       <use xlink:href="#m80345c513d" x="303.897784" y="307.584" style="stroke: #000000; stroke-width: 0.8"/>
      </g>
     </g>
     <g id="text_6">
      <!-- 350 -->
      <g transform="translate(294.354034 322.182437) scale(0.1 -0.1)">
       <use xlink:href="#DejaVuSans-33"/>
       <use xlink:href="#DejaVuSans-35" x="63.623047"/>
       <use xlink:href="#DejaVuSans-30" x="127.246094"/>
      </g>
     </g>
    </g>
    <g id="xtick_7">
     <g id="line2d_7">
      <g>
       <use xlink:href="#m80345c513d" x="346.45199" y="307.584" style="stroke: #000000; stroke-width: 0.8"/>
      </g>
     </g>
     <g id="text_7">
      <!-- 400 -->
      <g transform="translate(336.90824 322.182437) scale(0.1 -0.1)">
       <defs>
        <path id="DejaVuSans-34" d="M 2419 4116 
L 825 1625 
L 2419 1625 
L 2419 4116 
z
M 2253 4666 
L 3047 4666 
L 3047 1625 
L 3713 1625 
L 3713 1100 
L 3047 1100 
L 3047 0 
L 2419 0 
L 2419 1100 
L 313 1100 
L 313 1709 
L 2253 4666 
z
" transform="scale(0.015625)"/>
       </defs>
       <use xlink:href="#DejaVuSans-34"/>
       <use xlink:href="#DejaVuSans-30" x="63.623047"/>
       <use xlink:href="#DejaVuSans-30" x="127.246094"/>
      </g>
     </g>
    </g>
    <g id="xtick_8">
     <g id="line2d_8">
      <g>
       <use xlink:href="#m80345c513d" x="389.006196" y="307.584" style="stroke: #000000; stroke-width: 0.8"/>
      </g>
     </g>
     <g id="text_8">
      <!-- 450 -->
      <g transform="translate(379.462446 322.182437) scale(0.1 -0.1)">
       <use xlink:href="#DejaVuSans-34"/>
       <use xlink:href="#DejaVuSans-35" x="63.623047"/>
       <use xlink:href="#DejaVuSans-30" x="127.246094"/>
      </g>
     </g>
    </g>
    <g id="text_9">
     <!-- Score -->
     <g transform="translate(222.157656 335.860562) scale(0.1 -0.1)">
      <defs>
       <path id="DejaVuSans-53" d="M 3425 4513 
L 3425 3897 
Q 3066 4069 2747 4153 
Q 2428 4238 2131 4238 
Q 1616 4238 1336 4038 
Q 1056 3838 1056 3469 
Q 1056 3159 1242 3001 
Q 1428 2844 1947 2747 
L 2328 2669 
Q 3034 2534 3370 2195 
Q 3706 1856 3706 1288 
Q 3706 609 3251 259 
Q 2797 -91 1919 -91 
Q 1588 -91 1214 -16 
Q 841 59 441 206 
L 441 856 
Q 825 641 1194 531 
Q 1563 422 1919 422 
Q 2459 422 2753 634 
Q 3047 847 3047 1241 
Q 3047 1584 2836 1778 
Q 2625 1972 2144 2069 
L 1759 2144 
Q 1053 2284 737 2584 
Q 422 2884 422 3419 
Q 422 4038 858 4394 
Q 1294 4750 2059 4750 
Q 2388 4750 2728 4690 
Q 3069 4631 3425 4513 
z
" transform="scale(0.015625)"/>
       <path id="DejaVuSans-63" d="M 3122 3366 
L 3122 2828 
Q 2878 2963 2633 3030 
Q 2388 3097 2138 3097 
Q 1578 3097 1268 2742 
Q 959 2388 959 1747 
Q 959 1106 1268 751 
Q 1578 397 2138 397 
Q 2388 397 2633 464 
Q 2878 531 3122 666 
L 3122 134 
Q 2881 22 2623 -34 
Q 2366 -91 2075 -91 
Q 1284 -91 818 406 
Q 353 903 353 1747 
Q 353 2603 823 3093 
Q 1294 3584 2113 3584 
Q 2378 3584 2631 3529 
Q 2884 3475 3122 3366 
z
" transform="scale(0.015625)"/>
       <path id="DejaVuSans-6f" d="M 1959 3097 
Q 1497 3097 1228 2736 
Q 959 2375 959 1747 
Q 959 1119 1226 758 
Q 1494 397 1959 397 
Q 2419 397 2687 759 
Q 2956 1122 2956 1747 
Q 2956 2369 2687 2733 
Q 2419 3097 1959 3097 
z
M 1959 3584 
Q 2709 3584 3137 3096 
Q 3566 2609 3566 1747 
Q 3566 888 3137 398 
Q 2709 -91 1959 -91 
Q 1206 -91 779 398 
Q 353 888 353 1747 
Q 353 2609 779 3096 
Q 1206 3584 1959 3584 
z
" transform="scale(0.015625)"/>
       <path id="DejaVuSans-72" d="M 2631 2963 
Q 2534 3019 2420 3045 
Q 2306 3072 2169 3072 
Q 1681 3072 1420 2755 
Q 1159 2438 1159 1844 
L 1159 0 
L 581 0 
L 581 3500 
L 1159 3500 
L 1159 2956 
Q 1341 3275 1631 3429 
Q 1922 3584 2338 3584 
Q 2397 3584 2469 3576 
Q 2541 3569 2628 3553 
L 2631 2963 
z
" transform="scale(0.015625)"/>
       <path id="DejaVuSans-65" d="M 3597 1894 
L 3597 1613 
L 953 1613 
Q 991 1019 1311 708 
Q 1631 397 2203 397 
Q 2534 397 2845 478 
Q 3156 559 3463 722 
L 3463 178 
Q 3153 47 2828 -22 
Q 2503 -91 2169 -91 
Q 1331 -91 842 396 
Q 353 884 353 1716 
Q 353 2575 817 3079 
Q 1281 3584 2069 3584 
Q 2775 3584 3186 3129 
Q 3597 2675 3597 1894 
z
M 3022 2063 
Q 3016 2534 2758 2815 
Q 2500 3097 2075 3097 
Q 1594 3097 1305 2825 
Q 1016 2553 972 2059 
L 3022 2063 
z
" transform="scale(0.015625)"/>
      </defs>
      <use xlink:href="#DejaVuSans-53"/>
      <use xlink:href="#DejaVuSans-63" x="63.476562"/>
      <use xlink:href="#DejaVuSans-6f" x="118.457031"/>
      <use xlink:href="#DejaVuSans-72" x="179.638672"/>
      <use xlink:href="#DejaVuSans-65" x="218.501953"/>
     </g>
    </g>
   </g>
   <g id="matplotlib.axis_2">
    <g id="ytick_1">
     <g id="line2d_9">
      <defs>
       <path id="mb076dee0a9" d="M 0 0 
L -3.5 0 
" style="stroke: #000000; stroke-width: 0.8"/>
      </defs>
      <g>
       <use xlink:href="#mb076dee0a9" x="57.6" y="307.584" style="stroke: #000000; stroke-width: 0.8"/>
      </g>
     </g>
     <g id="text_10">
      <!-- 0 -->
      <g transform="translate(44.2375 311.383219) scale(0.1 -0.1)">
       <use xlink:href="#DejaVuSans-30"/>
      </g>
     </g>
    </g>
    <g id="ytick_2">
     <g id="line2d_10">
      <g>
       <use xlink:href="#mb076dee0a9" x="57.6" y="276.217663" style="stroke: #000000; stroke-width: 0.8"/>
      </g>
     </g>
     <g id="text_11">
      <!-- 25 -->
      <g transform="translate(37.875 280.016882) scale(0.1 -0.1)">
       <use xlink:href="#DejaVuSans-32"/>
       <use xlink:href="#DejaVuSans-35" x="63.623047"/>
      </g>
     </g>
    </g>
    <g id="ytick_3">
     <g id="line2d_11">
      <g>
       <use xlink:href="#mb076dee0a9" x="57.6" y="244.851327" style="stroke: #000000; stroke-width: 0.8"/>
      </g>
     </g>
     <g id="text_12">
      <!-- 50 -->
      <g transform="translate(37.875 248.650545) scale(0.1 -0.1)">
       <use xlink:href="#DejaVuSans-35"/>
       <use xlink:href="#DejaVuSans-30" x="63.623047"/>
      </g>
     </g>
    </g>
    <g id="ytick_4">
     <g id="line2d_12">
      <g>
       <use xlink:href="#mb076dee0a9" x="57.6" y="213.48499" style="stroke: #000000; stroke-width: 0.8"/>
      </g>
     </g>
     <g id="text_13">
      <!-- 75 -->
      <g transform="translate(37.875 217.284209) scale(0.1 -0.1)">
       <defs>
        <path id="DejaVuSans-37" d="M 525 4666 
L 3525 4666 
L 3525 4397 
L 1831 0 
L 1172 0 
L 2766 4134 
L 525 4134 
L 525 4666 
z
" transform="scale(0.015625)"/>
       </defs>
       <use xlink:href="#DejaVuSans-37"/>
       <use xlink:href="#DejaVuSans-35" x="63.623047"/>
      </g>
     </g>
    </g>
    <g id="ytick_5">
     <g id="line2d_13">
      <g>
       <use xlink:href="#mb076dee0a9" x="57.6" y="182.118653" style="stroke: #000000; stroke-width: 0.8"/>
      </g>
     </g>
     <g id="text_14">
      <!-- 100 -->
      <g transform="translate(31.5125 185.917872) scale(0.1 -0.1)">
       <use xlink:href="#DejaVuSans-31"/>
       <use xlink:href="#DejaVuSans-30" x="63.623047"/>
       <use xlink:href="#DejaVuSans-30" x="127.246094"/>
      </g>
     </g>
    </g>
    <g id="ytick_6">
     <g id="line2d_14">
      <g>
       <use xlink:href="#mb076dee0a9" x="57.6" y="150.752317" style="stroke: #000000; stroke-width: 0.8"/>
      </g>
     </g>
     <g id="text_15">
      <!-- 125 -->
      <g transform="translate(31.5125 154.551536) scale(0.1 -0.1)">
       <use xlink:href="#DejaVuSans-31"/>
       <use xlink:href="#DejaVuSans-32" x="63.623047"/>
       <use xlink:href="#DejaVuSans-35" x="127.246094"/>
      </g>
     </g>
    </g>
    <g id="ytick_7">
     <g id="line2d_15">
      <g>
       <use xlink:href="#mb076dee0a9" x="57.6" y="119.38598" style="stroke: #000000; stroke-width: 0.8"/>
      </g>
     </g>
     <g id="text_16">
      <!-- 150 -->
      <g transform="translate(31.5125 123.185199) scale(0.1 -0.1)">
       <use xlink:href="#DejaVuSans-31"/>
       <use xlink:href="#DejaVuSans-35" x="63.623047"/>
       <use xlink:href="#DejaVuSans-30" x="127.246094"/>
      </g>
     </g>
    </g>
    <g id="ytick_8">
     <g id="line2d_16">
      <g>
       <use xlink:href="#mb076dee0a9" x="57.6" y="88.019644" style="stroke: #000000; stroke-width: 0.8"/>
      </g>
     </g>
     <g id="text_17">
      <!-- 175 -->
      <g transform="translate(31.5125 91.818862) scale(0.1 -0.1)">
       <use xlink:href="#DejaVuSans-31"/>
       <use xlink:href="#DejaVuSans-37" x="63.623047"/>
       <use xlink:href="#DejaVuSans-35" x="127.246094"/>
      </g>
     </g>
    </g>
    <g id="ytick_9">
     <g id="line2d_17">
      <g>
       <use xlink:href="#mb076dee0a9" x="57.6" y="56.653307" style="stroke: #000000; stroke-width: 0.8"/>
      </g>
     </g>
     <g id="text_18">
      <!-- 200 -->
      <g transform="translate(31.5125 60.452526) scale(0.1 -0.1)">
       <use xlink:href="#DejaVuSans-32"/>
       <use xlink:href="#DejaVuSans-30" x="63.623047"/>
       <use xlink:href="#DejaVuSans-30" x="127.246094"/>
      </g>
     </g>
    </g>
    <g id="text_19">
     <!-- Number of crosslinks -->
     <g transform="translate(25.432812 227.019406) rotate(-90) scale(0.1 -0.1)">
      <defs>
       <path id="DejaVuSans-4e" d="M 628 4666 
L 1478 4666 
L 3547 763 
L 3547 4666 
L 4159 4666 
L 4159 0 
L 3309 0 
L 1241 3903 
L 1241 0 
L 628 0 
L 628 4666 
z
" transform="scale(0.015625)"/>
       <path id="DejaVuSans-75" d="M 544 1381 
L 544 3500 
L 1119 3500 
L 1119 1403 
Q 1119 906 1312 657 
Q 1506 409 1894 409 
Q 2359 409 2629 706 
Q 2900 1003 2900 1516 
L 2900 3500 
L 3475 3500 
L 3475 0 
L 2900 0 
L 2900 538 
Q 2691 219 2414 64 
Q 2138 -91 1772 -91 
Q 1169 -91 856 284 
Q 544 659 544 1381 
z
M 1991 3584 
L 1991 3584 
z
" transform="scale(0.015625)"/>
       <path id="DejaVuSans-6d" d="M 3328 2828 
Q 3544 3216 3844 3400 
Q 4144 3584 4550 3584 
Q 5097 3584 5394 3201 
Q 5691 2819 5691 2113 
L 5691 0 
L 5113 0 
L 5113 2094 
Q 5113 2597 4934 2840 
Q 4756 3084 4391 3084 
Q 3944 3084 3684 2787 
Q 3425 2491 3425 1978 
L 3425 0 
L 2847 0 
L 2847 2094 
Q 2847 2600 2669 2842 
Q 2491 3084 2119 3084 
Q 1678 3084 1418 2786 
Q 1159 2488 1159 1978 
L 1159 0 
L 581 0 
L 581 3500 
L 1159 3500 
L 1159 2956 
Q 1356 3278 1631 3431 
Q 1906 3584 2284 3584 
Q 2666 3584 2933 3390 
Q 3200 3197 3328 2828 
z
" transform="scale(0.015625)"/>
       <path id="DejaVuSans-62" d="M 3116 1747 
Q 3116 2381 2855 2742 
Q 2594 3103 2138 3103 
Q 1681 3103 1420 2742 
Q 1159 2381 1159 1747 
Q 1159 1113 1420 752 
Q 1681 391 2138 391 
Q 2594 391 2855 752 
Q 3116 1113 3116 1747 
z
M 1159 2969 
Q 1341 3281 1617 3432 
Q 1894 3584 2278 3584 
Q 2916 3584 3314 3078 
Q 3713 2572 3713 1747 
Q 3713 922 3314 415 
Q 2916 -91 2278 -91 
Q 1894 -91 1617 61 
Q 1341 213 1159 525 
L 1159 0 
L 581 0 
L 581 4863 
L 1159 4863 
L 1159 2969 
z
" transform="scale(0.015625)"/>
       <path id="DejaVuSans-20" transform="scale(0.015625)"/>
       <path id="DejaVuSans-66" d="M 2375 4863 
L 2375 4384 
L 1825 4384 
Q 1516 4384 1395 4259 
Q 1275 4134 1275 3809 
L 1275 3500 
L 2222 3500 
L 2222 3053 
L 1275 3053 
L 1275 0 
L 697 0 
L 697 3053 
L 147 3053 
L 147 3500 
L 697 3500 
L 697 3744 
Q 697 4328 969 4595 
Q 1241 4863 1831 4863 
L 2375 4863 
z
" transform="scale(0.015625)"/>
       <path id="DejaVuSans-73" d="M 2834 3397 
L 2834 2853 
Q 2591 2978 2328 3040 
Q 2066 3103 1784 3103 
Q 1356 3103 1142 2972 
Q 928 2841 928 2578 
Q 928 2378 1081 2264 
Q 1234 2150 1697 2047 
L 1894 2003 
Q 2506 1872 2764 1633 
Q 3022 1394 3022 966 
Q 3022 478 2636 193 
Q 2250 -91 1575 -91 
Q 1294 -91 989 -36 
Q 684 19 347 128 
L 347 722 
Q 666 556 975 473 
Q 1284 391 1588 391 
Q 1994 391 2212 530 
Q 2431 669 2431 922 
Q 2431 1156 2273 1281 
Q 2116 1406 1581 1522 
L 1381 1569 
Q 847 1681 609 1914 
Q 372 2147 372 2553 
Q 372 3047 722 3315 
Q 1072 3584 1716 3584 
Q 2034 3584 2315 3537 
Q 2597 3491 2834 3397 
z
" transform="scale(0.015625)"/>
       <path id="DejaVuSans-6c" d="M 603 4863 
L 1178 4863 
L 1178 0 
L 603 0 
L 603 4863 
z
" transform="scale(0.015625)"/>
       <path id="DejaVuSans-69" d="M 603 3500 
L 1178 3500 
L 1178 0 
L 603 0 
L 603 3500 
z
M 603 4863 
L 1178 4863 
L 1178 4134 
L 603 4134 
L 603 4863 
z
" transform="scale(0.015625)"/>
       <path id="DejaVuSans-6e" d="M 3513 2113 
L 3513 0 
L 2938 0 
L 2938 2094 
Q 2938 2591 2744 2837 
Q 2550 3084 2163 3084 
Q 1697 3084 1428 2787 
Q 1159 2491 1159 1978 
L 1159 0 
L 581 0 
L 581 3500 
L 1159 3500 
L 1159 2956 
Q 1366 3272 1645 3428 
Q 1925 3584 2291 3584 
Q 2894 3584 3203 3211 
Q 3513 2838 3513 2113 
z
" transform="scale(0.015625)"/>
       <path id="DejaVuSans-6b" d="M 581 4863 
L 1159 4863 
L 1159 1991 
L 2875 3500 
L 3609 3500 
L 1753 1863 
L 3688 0 
L 2938 0 
L 1159 1709 
L 1159 0 
L 581 0 
L 581 4863 
z
" transform="scale(0.015625)"/>
      </defs>
      <use xlink:href="#DejaVuSans-4e"/>
      <use xlink:href="#DejaVuSans-75" x="74.804688"/>
      <use xlink:href="#DejaVuSans-6d" x="138.183594"/>
      <use xlink:href="#DejaVuSans-62" x="235.595703"/>
      <use xlink:href="#DejaVuSans-65" x="299.072266"/>
      <use xlink:href="#DejaVuSans-72" x="360.595703"/>
      <use xlink:href="#DejaVuSans-20" x="401.708984"/>
      <use xlink:href="#DejaVuSans-6f" x="433.496094"/>
      <use xlink:href="#DejaVuSans-66" x="494.677734"/>
      <use xlink:href="#DejaVuSans-20" x="529.882812"/>
      <use xlink:href="#DejaVuSans-63" x="561.669922"/>
      <use xlink:href="#DejaVuSans-72" x="616.650391"/>
      <use xlink:href="#DejaVuSans-6f" x="655.513672"/>
      <use xlink:href="#DejaVuSans-73" x="716.695312"/>
      <use xlink:href="#DejaVuSans-73" x="768.794922"/>
      <use xlink:href="#DejaVuSans-6c" x="820.894531"/>
      <use xlink:href="#DejaVuSans-69" x="848.677734"/>
      <use xlink:href="#DejaVuSans-6e" x="876.460938"/>
      <use xlink:href="#DejaVuSans-6b" x="939.839844"/>
      <use xlink:href="#DejaVuSans-73" x="997.75"/>
     </g>
    </g>
   </g>
   <g id="patch_3">
    <path d="M 57.6 307.584 
L 57.6 41.472 
" style="fill: none; stroke: #000000; stroke-width: 0.8; stroke-linejoin: miter; stroke-linecap: square"/>
   </g>
   <g id="patch_4">
    <path d="M 414.72 307.584 
L 414.72 41.472 
" style="fill: none; stroke: #000000; stroke-width: 0.8; stroke-linejoin: miter; stroke-linecap: square"/>
   </g>
   <g id="patch_5">
    <path d="M 57.6 307.584 
L 414.72 307.584 
" style="fill: none; stroke: #000000; stroke-width: 0.8; stroke-linejoin: miter; stroke-linecap: square"/>
   </g>
   <g id="patch_6">
    <path d="M 57.6 41.472 
L 414.72 41.472 
" style="fill: none; stroke: #000000; stroke-width: 0.8; stroke-linejoin: miter; stroke-linecap: square"/>
   </g>
   <g id="legend_1">
    <g id="patch_7">
     <path d="M 293.087188 93.506375 
L 407.72 93.506375 
Q 409.72 93.506375 409.72 91.506375 
L 409.72 48.472 
Q 409.72 46.472 407.72 46.472 
L 293.087188 46.472 
Q 291.087188 46.472 291.087188 48.472 
L 291.087188 91.506375 
Q 291.087188 93.506375 293.087188 93.506375 
z
" style="fill: #ffffff; opacity: 0.8; stroke: #cccccc; stroke-linejoin: miter"/>
    </g>
    <g id="patch_8">
     <path d="M 295.087188 58.070438 
L 315.087188 58.070438 
L 315.087188 51.070438 
L 295.087188 51.070438 
z
" style="fill: #008000"/>
    </g>
    <g id="text_20">
     <!-- true -->
     <g transform="translate(323.087188 58.070438) scale(0.1 -0.1)">
      <defs>
       <path id="DejaVuSans-74" d="M 1172 4494 
L 1172 3500 
L 2356 3500 
L 2356 3053 
L 1172 3053 
L 1172 1153 
Q 1172 725 1289 603 
Q 1406 481 1766 481 
L 2356 481 
L 2356 0 
L 1766 0 
Q 1100 0 847 248 
Q 594 497 594 1153 
L 594 3053 
L 172 3053 
L 172 3500 
L 594 3500 
L 594 4494 
L 1172 4494 
z
" transform="scale(0.015625)"/>
      </defs>
      <use xlink:href="#DejaVuSans-74"/>
      <use xlink:href="#DejaVuSans-72" x="39.208984"/>
      <use xlink:href="#DejaVuSans-75" x="80.322266"/>
      <use xlink:href="#DejaVuSans-65" x="143.701172"/>
     </g>
    </g>
    <g id="patch_9">
     <path d="M 295.087188 72.748563 
L 315.087188 72.748563 
L 315.087188 65.748563 
L 295.087188 65.748563 
z
" style="fill: #7cfc00"/>
    </g>
    <g id="text_21">
     <!-- true homeotypic -->
     <g transform="translate(323.087188 72.748563) scale(0.1 -0.1)">
      <defs>
       <path id="DejaVuSans-68" d="M 3513 2113 
L 3513 0 
L 2938 0 
L 2938 2094 
Q 2938 2591 2744 2837 
Q 2550 3084 2163 3084 
Q 1697 3084 1428 2787 
Q 1159 2491 1159 1978 
L 1159 0 
L 581 0 
L 581 4863 
L 1159 4863 
L 1159 2956 
Q 1366 3272 1645 3428 
Q 1925 3584 2291 3584 
Q 2894 3584 3203 3211 
Q 3513 2838 3513 2113 
z
" transform="scale(0.015625)"/>
       <path id="DejaVuSans-79" d="M 2059 -325 
Q 1816 -950 1584 -1140 
Q 1353 -1331 966 -1331 
L 506 -1331 
L 506 -850 
L 844 -850 
Q 1081 -850 1212 -737 
Q 1344 -625 1503 -206 
L 1606 56 
L 191 3500 
L 800 3500 
L 1894 763 
L 2988 3500 
L 3597 3500 
L 2059 -325 
z
" transform="scale(0.015625)"/>
       <path id="DejaVuSans-70" d="M 1159 525 
L 1159 -1331 
L 581 -1331 
L 581 3500 
L 1159 3500 
L 1159 2969 
Q 1341 3281 1617 3432 
Q 1894 3584 2278 3584 
Q 2916 3584 3314 3078 
Q 3713 2572 3713 1747 
Q 3713 922 3314 415 
Q 2916 -91 2278 -91 
Q 1894 -91 1617 61 
Q 1341 213 1159 525 
z
M 3116 1747 
Q 3116 2381 2855 2742 
Q 2594 3103 2138 3103 
Q 1681 3103 1420 2742 
Q 1159 2381 1159 1747 
Q 1159 1113 1420 752 
Q 1681 391 2138 391 
Q 2594 391 2855 752 
Q 3116 1113 3116 1747 
z
" transform="scale(0.015625)"/>
      </defs>
      <use xlink:href="#DejaVuSans-74"/>
      <use xlink:href="#DejaVuSans-72" x="39.208984"/>
      <use xlink:href="#DejaVuSans-75" x="80.322266"/>
      <use xlink:href="#DejaVuSans-65" x="143.701172"/>
      <use xlink:href="#DejaVuSans-20" x="205.224609"/>
      <use xlink:href="#DejaVuSans-68" x="237.011719"/>
      <use xlink:href="#DejaVuSans-6f" x="300.390625"/>
      <use xlink:href="#DejaVuSans-6d" x="361.572266"/>
      <use xlink:href="#DejaVuSans-65" x="458.984375"/>
      <use xlink:href="#DejaVuSans-6f" x="520.507812"/>
      <use xlink:href="#DejaVuSans-74" x="581.689453"/>
      <use xlink:href="#DejaVuSans-79" x="620.898438"/>
      <use xlink:href="#DejaVuSans-70" x="680.078125"/>
      <use xlink:href="#DejaVuSans-69" x="743.554688"/>
      <use xlink:href="#DejaVuSans-63" x="771.337891"/>
     </g>
    </g>
    <g id="patch_10">
     <path d="M 295.087188 87.426688 
L 315.087188 87.426688 
L 315.087188 80.426688 
L 295.087188 80.426688 
z
" style="fill: #ff0000"/>
    </g>
    <g id="text_22">
     <!-- false -->
     <g transform="translate(323.087188 87.426688) scale(0.1 -0.1)">
      <defs>
       <path id="DejaVuSans-61" d="M 2194 1759 
Q 1497 1759 1228 1600 
Q 959 1441 959 1056 
Q 959 750 1161 570 
Q 1363 391 1709 391 
Q 2188 391 2477 730 
Q 2766 1069 2766 1631 
L 2766 1759 
L 2194 1759 
z
M 3341 1997 
L 3341 0 
L 2766 0 
L 2766 531 
Q 2569 213 2275 61 
Q 1981 -91 1556 -91 
Q 1019 -91 701 211 
Q 384 513 384 1019 
Q 384 1609 779 1909 
Q 1175 2209 1959 2209 
L 2766 2209 
L 2766 2266 
Q 2766 2663 2505 2880 
Q 2244 3097 1772 3097 
Q 1472 3097 1187 3025 
Q 903 2953 641 2809 
L 641 3341 
Q 956 3463 1253 3523 
Q 1550 3584 1831 3584 
Q 2591 3584 2966 3190 
Q 3341 2797 3341 1997 
z
" transform="scale(0.015625)"/>
      </defs>
      <use xlink:href="#DejaVuSans-66"/>
      <use xlink:href="#DejaVuSans-61" x="35.205078"/>
      <use xlink:href="#DejaVuSans-6c" x="96.484375"/>
      <use xlink:href="#DejaVuSans-73" x="124.267578"/>
      <use xlink:href="#DejaVuSans-65" x="176.367188"/>
     </g>
    </g>
   </g>
  </g>
 </g>
 <defs>
  <clipPath id="p0d9a797092">
   <rect x="57.6" y="41.472" width="357.12" height="266.112"/>
  </clipPath>
 </defs>
</svg>
