<?xml version="1.0" encoding="utf-8" standalone="no"?>
<!DOCTYPE svg PUBLIC "-//W3C//DTD SVG 1.1//EN"
  "http://www.w3.org/Graphics/SVG/1.1/DTD/svg11.dtd">
<svg xmlns:xlink="http://www.w3.org/1999/xlink" width="460.8pt" height="345.6pt" viewBox="0 0 460.8 345.6" xmlns="http://www.w3.org/2000/svg" version="1.1">
 <metadata>
  <rdf:RDF xmlns:dc="http://purl.org/dc/elements/1.1/" xmlns:cc="http://creativecommons.org/ns#" xmlns:rdf="http://www.w3.org/1999/02/22-rdf-syntax-ns#">
   <cc:Work>
    <dc:type rdf:resource="http://purl.org/dc/dcmitype/StillImage"/>
    <dc:date>2024-06-20T14:51:35.488745</dc:date>
    <dc:format>image/svg+xml</dc:format>
    <dc:creator>
     <cc:Agent>
      <dc:title>Matplotlib v3.9.0, https://matplotlib.org/</dc:title>
     </cc:Agent>
    </dc:creator>
   </cc:Work>
  </rdf:RDF>
 </metadata>
 <defs>
  <style type="text/css">*{stroke-linejoin: round; stroke-linecap: butt}</style>
 </defs>
 <g id="figure_1">
  <g id="patch_1">
   <path d="M 0 345.6 
L 460.8 345.6 
L 460.8 0 
L 0 0 
z
" style="fill: #ffffff"/>
  </g>
  <g id="axes_1">
   <g id="patch_2">
    <path d="M 57.6 307.584 
L 414.72 307.584 
L 414.72 41.472 
L 57.6 41.472 
z
" style="fill: #ffffff"/>
   </g>
   <g id="PolyCollection_1">
    <path d="M 73.832727 122.262261 
L 73.832727 307.584 
L 73.919141 307.584 
L 73.951588 307.584 
L 73.972458 307.584 
L 74.086848 307.584 
L 74.127878 307.584 
L 74.191808 307.584 
L 74.410607 307.584 
L 74.525856 307.584 
L 74.633056 307.584 
L 74.694499 307.584 
L 74.806022 307.584 
L 75.023104 307.584 
L 75.066661 307.584 
L 75.092865 307.584 
L 75.105067 307.584 
L 75.181096 307.584 
L 75.661681 307.584 
L 75.994934 307.584 
L 76.197371 307.584 
L 76.250081 307.584 
L 76.394066 307.584 
L 76.728297 307.584 
L 76.812083 307.584 
L 77.879786 307.584 
L 77.959587 307.584 
L 78.335319 307.584 
L 79.456858 307.584 
L 79.900597 307.584 
L 80.224226 307.584 
L 80.230482 307.584 
L 80.382357 307.584 
L 80.529777 307.584 
L 80.628547 307.584 
L 80.933954 307.584 
L 80.962872 307.584 
L 81.126367 307.584 
L 81.64291 307.584 
L 81.73777 307.584 
L 81.960111 307.584 
L 82.209987 307.584 
L 82.874761 307.584 
L 83.08881 307.584 
L 83.258671 307.584 
L 83.301962 307.584 
L 84.363436 307.584 
L 84.496073 307.584 
L 84.641223 307.584 
L 84.785415 307.584 
L 85.553259 307.584 
L 85.578228 307.584 
L 86.35305 307.584 
L 86.457785 307.584 
L 87.384362 307.584 
L 88.026894 307.584 
L 88.951124 307.584 
L 90.066394 307.584 
L 90.072827 307.584 
L 90.455698 307.584 
L 90.753437 307.584 
L 90.92029 307.584 
L 91.414811 307.584 
L 91.884454 307.584 
L 92.002293 307.584 
L 92.17567 307.584 
L 93.240029 307.584 
L 94.119247 307.584 
L 94.353915 307.584 
L 94.580248 307.584 
L 95.823506 307.584 
L 97.495233 307.584 
L 97.679939 307.584 
L 97.853454 307.584 
L 97.870574 307.584 
L 100.104809 307.584 
L 101.536359 307.584 
L 104.11337 307.584 
L 104.828282 307.584 
L 105.309756 307.584 
L 105.344181 307.584 
L 106.37389 307.584 
L 106.946256 307.584 
L 108.907701 307.584 
L 109.611307 307.584 
L 111.057878 307.584 
L 111.612232 307.584 
L 114.871828 307.584 
L 116.235314 307.584 
L 116.304528 307.584 
L 118.612831 307.584 
L 121.008258 307.584 
L 122.540982 307.584 
L 122.869546 307.584 
L 123.52596 307.584 
L 123.714611 307.584 
L 124.446991 307.584 
L 124.89401 307.584 
L 126.111798 307.584 
L 126.355336 307.584 
L 127.031779 307.584 
L 127.509653 307.584 
L 127.585952 307.584 
L 128.878656 307.584 
L 129.380278 307.584 
L 132.305982 307.584 
L 132.367069 307.584 
L 132.828777 307.584 
L 134.079373 307.584 
L 136.594586 307.584 
L 144.575084 307.584 
L 145.353482 307.584 
L 147.90098 307.584 
L 148.511852 307.584 
L 149.219435 307.584 
L 150.038033 307.584 
L 151.225587 307.584 
L 151.530165 307.584 
L 152.690299 307.584 
L 154.048955 307.584 
L 156.171607 307.584 
L 158.568842 307.584 
L 160.201174 307.584 
L 163.003511 307.584 
L 164.898076 307.584 
L 167.662263 307.584 
L 168.10852 307.584 
L 168.849722 307.584 
L 172.619823 307.584 
L 173.109475 307.584 
L 174.083105 307.584 
L 175.437373 307.584 
L 177.036086 307.584 
L 177.185776 307.584 
L 177.210097 307.584 
L 177.324307 307.584 
L 178.041666 307.584 
L 178.375953 307.584 
L 179.666464 307.584 
L 183.141953 307.584 
L 183.147008 307.584 
L 183.840332 307.584 
L 185.254973 307.584 
L 185.806713 307.584 
L 185.985063 307.584 
L 186.281249 307.584 
L 186.706332 307.584 
L 186.823547 307.584 
L 187.346914 307.584 
L 190.674431 307.584 
L 190.818303 307.584 
L 192.182442 307.584 
L 195.195653 307.584 
L 196.871667 307.584 
L 196.939239 307.584 
L 200.90152 307.584 
L 201.357839 307.584 
L 202.124839 307.584 
L 202.606623 307.584 
L 202.846633 307.584 
L 205.455074 307.584 
L 206.408818 307.584 
L 206.551975 307.584 
L 207.12074 307.584 
L 207.535427 307.584 
L 209.347445 307.584 
L 209.778871 307.584 
L 211.328085 307.584 
L 212.403431 307.584 
L 217.509822 307.584 
L 219.960992 307.584 
L 221.437864 307.584 
L 222.769624 307.584 
L 223.233906 307.584 
L 224.100144 307.584 
L 225.667049 307.584 
L 226.927374 307.584 
L 227.500813 307.584 
L 227.982262 307.584 
L 229.036149 307.584 
L 229.51531 307.584 
L 230.180642 307.584 
L 230.513117 307.584 
L 230.646116 307.584 
L 231.957132 307.584 
L 232.060947 307.584 
L 233.958659 307.584 
L 235.79514 307.584 
L 237.019127 307.584 
L 238.998813 307.584 
L 240.570154 307.584 
L 241.486654 307.584 
L 242.862381 307.584 
L 243.223326 307.584 
L 244.156373 307.584 
L 244.412978 307.584 
L 244.450794 307.584 
L 245.245167 307.584 
L 245.835439 307.584 
L 246.597909 307.584 
L 247.65666 307.584 
L 248.27068 307.584 
L 248.503394 307.584 
L 249.271539 307.584 
L 250.075211 307.584 
L 251.841354 307.584 
L 252.346361 307.584 
L 252.709356 307.584 
L 257.107784 307.584 
L 257.226763 307.584 
L 257.381413 307.584 
L 258.578361 307.584 
L 261.20397 307.584 
L 262.1518 307.584 
L 265.477076 307.584 
L 265.671496 307.584 
L 266.813223 307.584 
L 267.237639 307.584 
L 268.805355 307.584 
L 270.070782 307.584 
L 270.131154 307.584 
L 270.427482 307.584 
L 271.338975 307.584 
L 272.813845 307.584 
L 273.008218 307.584 
L 273.939882 307.584 
L 275.378175 307.584 
L 277.635448 307.584 
L 277.642935 307.584 
L 278.942793 307.584 
L 279.12491 307.584 
L 279.90946 307.584 
L 279.981896 307.584 
L 280.673361 307.584 
L 280.997157 307.584 
L 281.161534 307.584 
L 281.299827 307.584 
L 281.308411 307.584 
L 287.301069 307.584 
L 292.791152 307.584 
L 298.744229 307.584 
L 299.269503 307.584 
L 302.944517 307.584 
L 314.98782 307.584 
L 330.499317 307.584 
L 336.56713 307.584 
L 352.73652 307.584 
L 364.622217 307.584 
L 365.794941 307.584 
L 380.558464 307.584 
L 392.167958 307.584 
L 392.98379 307.584 
L 394.251172 307.584 
L 398.487273 307.584 
L 398.487273 307.584 
L 398.487273 307.584 
L 394.251172 307.584 
L 392.98379 307.584 
L 392.167958 307.584 
L 380.558464 307.584 
L 365.794941 307.584 
L 364.622217 307.584 
L 352.73652 307.584 
L 336.56713 307.584 
L 330.499317 307.584 
L 314.98782 307.584 
L 302.944517 307.584 
L 299.269503 307.584 
L 298.744229 307.584 
L 292.791152 307.584 
L 287.301069 307.584 
L 281.308411 307.584 
L 281.299827 306.582261 
L 281.161534 305.580522 
L 280.997157 304.578783 
L 280.673361 304.578783 
L 279.981896 303.577043 
L 279.90946 303.577043 
L 279.12491 302.575304 
L 278.942793 301.573565 
L 277.642935 300.571826 
L 277.635448 299.570087 
L 275.378175 298.568348 
L 273.939882 297.566609 
L 273.008218 296.56487 
L 272.813845 295.56313 
L 271.338975 294.561391 
L 270.427482 293.559652 
L 270.131154 292.557913 
L 270.070782 291.556174 
L 268.805355 290.554435 
L 267.237639 289.552696 
L 266.813223 288.550957 
L 265.671496 287.549217 
L 265.477076 286.547478 
L 262.1518 285.545739 
L 261.20397 285.545739 
L 258.578361 284.544 
L 257.381413 283.542261 
L 257.226763 282.540522 
L 257.107784 281.538783 
L 252.709356 280.537043 
L 252.346361 279.535304 
L 251.841354 278.533565 
L 250.075211 277.531826 
L 249.271539 276.530087 
L 248.503394 275.528348 
L 248.27068 274.526609 
L 247.65666 273.52487 
L 246.597909 272.52313 
L 245.835439 271.521391 
L 245.245167 270.519652 
L 244.450794 270.519652 
L 244.412978 269.517913 
L 244.156373 268.516174 
L 243.223326 267.514435 
L 242.862381 267.514435 
L 241.486654 266.512696 
L 240.570154 266.512696 
L 238.998813 266.512696 
L 237.019127 265.510957 
L 235.79514 265.510957 
L 233.958659 264.509217 
L 232.060947 263.507478 
L 231.957132 262.505739 
L 230.646116 261.504 
L 230.513117 260.502261 
L 230.180642 259.500522 
L 229.51531 259.500522 
L 229.036149 258.498783 
L 227.982262 257.497043 
L 227.500813 256.495304 
L 226.927374 256.495304 
L 225.667049 255.493565 
L 224.100144 254.491826 
L 223.233906 254.491826 
L 222.769624 253.490087 
L 221.437864 253.490087 
L 219.960992 252.488348 
L 217.509822 251.486609 
L 212.403431 251.486609 
L 211.328085 250.48487 
L 209.778871 249.48313 
L 209.347445 248.481391 
L 207.535427 248.481391 
L 207.12074 247.479652 
L 206.551975 246.477913 
L 206.408818 245.476174 
L 205.455074 244.474435 
L 202.846633 244.474435 
L 202.606623 243.472696 
L 202.124839 242.470957 
L 201.357839 241.469217 
L 200.90152 240.467478 
L 196.939239 239.465739 
L 196.871667 238.464 
L 195.195653 237.462261 
L 192.182442 237.462261 
L 190.818303 236.460522 
L 190.674431 235.458783 
L 187.346914 234.457043 
L 186.823547 233.455304 
L 186.706332 232.453565 
L 186.281249 232.453565 
L 185.985063 231.451826 
L 185.806713 230.450087 
L 185.254973 229.448348 
L 183.840332 228.446609 
L 183.147008 227.44487 
L 183.141953 227.44487 
L 179.666464 226.44313 
L 178.375953 225.441391 
L 178.041666 225.441391 
L 177.324307 225.441391 
L 177.210097 224.439652 
L 177.185776 223.437913 
L 177.036086 222.436174 
L 175.437373 221.434435 
L 174.083105 220.432696 
L 173.109475 219.430957 
L 172.619823 218.429217 
L 168.849722 218.429217 
L 168.10852 217.427478 
L 167.662263 216.425739 
L 164.898076 215.424 
L 163.003511 214.422261 
L 160.201174 213.420522 
L 158.568842 212.418783 
L 156.171607 211.417043 
L 154.048955 210.415304 
L 152.690299 209.413565 
L 151.530165 209.413565 
L 151.225587 208.411826 
L 150.038033 207.410087 
L 149.219435 206.408348 
L 148.511852 205.406609 
L 147.90098 204.40487 
L 145.353482 203.40313 
L 144.575084 202.401391 
L 136.594586 201.399652 
L 134.079373 200.397913 
L 132.828777 199.396174 
L 132.367069 198.394435 
L 132.305982 197.392696 
L 129.380278 196.390957 
L 128.878656 195.389217 
L 127.585952 195.389217 
L 127.509653 194.387478 
L 127.031779 193.385739 
L 126.355336 192.384 
L 126.111798 191.382261 
L 124.89401 190.380522 
L 124.446991 189.378783 
L 123.714611 188.377043 
L 123.52596 188.377043 
L 122.869546 188.377043 
L 122.540982 187.375304 
L 121.008258 186.373565 
L 118.612831 185.371826 
L 116.304528 185.371826 
L 116.235314 184.370087 
L 114.871828 183.368348 
L 111.612232 182.366609 
L 111.057878 181.36487 
L 109.611307 180.36313 
L 108.907701 179.361391 
L 106.946256 179.361391 
L 106.37389 178.359652 
L 105.344181 177.357913 
L 105.309756 177.357913 
L 104.828282 176.356174 
L 104.11337 175.354435 
L 101.536359 175.354435 
L 100.104809 174.352696 
L 97.870574 174.352696 
L 97.853454 174.352696 
L 97.679939 173.350957 
L 97.495233 173.350957 
L 95.823506 172.349217 
L 94.580248 171.347478 
L 94.353915 170.345739 
L 94.119247 170.345739 
L 93.240029 169.344 
L 92.17567 169.344 
L 92.002293 168.342261 
L 91.884454 168.342261 
L 91.414811 168.342261 
L 90.92029 167.340522 
L 90.753437 166.338783 
L 90.455698 165.337043 
L 90.072827 164.335304 
L 90.066394 163.333565 
L 88.951124 162.331826 
L 88.026894 161.330087 
L 87.384362 160.328348 
L 86.457785 160.328348 
L 86.35305 159.326609 
L 85.578228 159.326609 
L 85.553259 159.326609 
L 84.785415 159.326609 
L 84.641223 159.326609 
L 84.496073 158.32487 
L 84.363436 157.32313 
L 83.301962 157.32313 
L 83.258671 156.321391 
L 83.08881 155.319652 
L 82.874761 154.317913 
L 82.209987 154.317913 
L 81.960111 153.316174 
L 81.73777 152.314435 
L 81.64291 152.314435 
L 81.126367 151.312696 
L 80.962872 150.310957 
L 80.933954 150.310957 
L 80.628547 149.309217 
L 80.529777 148.307478 
L 80.382357 147.305739 
L 80.230482 146.304 
L 80.224226 145.302261 
L 79.900597 144.300522 
L 79.456858 144.300522 
L 78.335319 143.298783 
L 77.959587 142.297043 
L 77.879786 141.295304 
L 76.812083 140.293565 
L 76.728297 139.291826 
L 76.394066 138.290087 
L 76.250081 137.288348 
L 76.197371 136.286609 
L 75.994934 135.28487 
L 75.661681 134.28313 
L 75.181096 134.28313 
L 75.105067 133.281391 
L 75.092865 132.279652 
L 75.066661 131.277913 
L 75.023104 130.276174 
L 74.806022 129.274435 
L 74.694499 129.274435 
L 74.633056 128.272696 
L 74.525856 127.270957 
L 74.410607 127.270957 
L 74.191808 127.270957 
L 74.127878 126.269217 
L 74.086848 125.267478 
L 73.972458 124.265739 
L 73.951588 124.265739 
L 73.919141 123.264 
L 73.832727 122.262261 
z
" clip-path="url(#pa15d91f83c)" style="fill: #008000"/>
   </g>
   <g id="PolyCollection_2">
    <path d="M 73.832727 74.178783 
L 73.832727 122.262261 
L 73.919141 123.264 
L 73.951588 124.265739 
L 73.972458 124.265739 
L 74.086848 125.267478 
L 74.127878 126.269217 
L 74.191808 127.270957 
L 74.410607 127.270957 
L 74.525856 127.270957 
L 74.633056 128.272696 
L 74.694499 129.274435 
L 74.806022 129.274435 
L 75.023104 130.276174 
L 75.066661 131.277913 
L 75.092865 132.279652 
L 75.105067 133.281391 
L 75.181096 134.28313 
L 75.661681 134.28313 
L 75.994934 135.28487 
L 76.197371 136.286609 
L 76.250081 137.288348 
L 76.394066 138.290087 
L 76.728297 139.291826 
L 76.812083 140.293565 
L 77.879786 141.295304 
L 77.959587 142.297043 
L 78.335319 143.298783 
L 79.456858 144.300522 
L 79.900597 144.300522 
L 80.224226 145.302261 
L 80.230482 146.304 
L 80.382357 147.305739 
L 80.529777 148.307478 
L 80.628547 149.309217 
L 80.933954 150.310957 
L 80.962872 150.310957 
L 81.126367 151.312696 
L 81.64291 152.314435 
L 81.73777 152.314435 
L 81.960111 153.316174 
L 82.209987 154.317913 
L 82.874761 154.317913 
L 83.08881 155.319652 
L 83.258671 156.321391 
L 83.301962 157.32313 
L 84.363436 157.32313 
L 84.496073 158.32487 
L 84.641223 159.326609 
L 84.785415 159.326609 
L 85.553259 159.326609 
L 85.578228 159.326609 
L 86.35305 159.326609 
L 86.457785 160.328348 
L 87.384362 160.328348 
L 88.026894 161.330087 
L 88.951124 162.331826 
L 90.066394 163.333565 
L 90.072827 164.335304 
L 90.455698 165.337043 
L 90.753437 166.338783 
L 90.92029 167.340522 
L 91.414811 168.342261 
L 91.884454 168.342261 
L 92.002293 168.342261 
L 92.17567 169.344 
L 93.240029 169.344 
L 94.119247 170.345739 
L 94.353915 170.345739 
L 94.580248 171.347478 
L 95.823506 172.349217 
L 97.495233 173.350957 
L 97.679939 173.350957 
L 97.853454 174.352696 
L 97.870574 174.352696 
L 100.104809 174.352696 
L 101.536359 175.354435 
L 104.11337 175.354435 
L 104.828282 176.356174 
L 105.309756 177.357913 
L 105.344181 177.357913 
L 106.37389 178.359652 
L 106.946256 179.361391 
L 108.907701 179.361391 
L 109.611307 180.36313 
L 111.057878 181.36487 
L 111.612232 182.366609 
L 114.871828 183.368348 
L 116.235314 184.370087 
L 116.304528 185.371826 
L 118.612831 185.371826 
L 121.008258 186.373565 
L 122.540982 187.375304 
L 122.869546 188.377043 
L 123.52596 188.377043 
L 123.714611 188.377043 
L 124.446991 189.378783 
L 124.89401 190.380522 
L 126.111798 191.382261 
L 126.355336 192.384 
L 127.031779 193.385739 
L 127.509653 194.387478 
L 127.585952 195.389217 
L 128.878656 195.389217 
L 129.380278 196.390957 
L 132.305982 197.392696 
L 132.367069 198.394435 
L 132.828777 199.396174 
L 134.079373 200.397913 
L 136.594586 201.399652 
L 144.575084 202.401391 
L 145.353482 203.40313 
L 147.90098 204.40487 
L 148.511852 205.406609 
L 149.219435 206.408348 
L 150.038033 207.410087 
L 151.225587 208.411826 
L 151.530165 209.413565 
L 152.690299 209.413565 
L 154.048955 210.415304 
L 156.171607 211.417043 
L 158.568842 212.418783 
L 160.201174 213.420522 
L 163.003511 214.422261 
L 164.898076 215.424 
L 167.662263 216.425739 
L 168.10852 217.427478 
L 168.849722 218.429217 
L 172.619823 218.429217 
L 173.109475 219.430957 
L 174.083105 220.432696 
L 175.437373 221.434435 
L 177.036086 222.436174 
L 177.185776 223.437913 
L 177.210097 224.439652 
L 177.324307 225.441391 
L 178.041666 225.441391 
L 178.375953 225.441391 
L 179.666464 226.44313 
L 183.141953 227.44487 
L 183.147008 227.44487 
L 183.840332 228.446609 
L 185.254973 229.448348 
L 185.806713 230.450087 
L 185.985063 231.451826 
L 186.281249 232.453565 
L 186.706332 232.453565 
L 186.823547 233.455304 
L 187.346914 234.457043 
L 190.674431 235.458783 
L 190.818303 236.460522 
L 192.182442 237.462261 
L 195.195653 237.462261 
L 196.871667 238.464 
L 196.939239 239.465739 
L 200.90152 240.467478 
L 201.357839 241.469217 
L 202.124839 242.470957 
L 202.606623 243.472696 
L 202.846633 244.474435 
L 205.455074 244.474435 
L 206.408818 245.476174 
L 206.551975 246.477913 
L 207.12074 247.479652 
L 207.535427 248.481391 
L 209.347445 248.481391 
L 209.778871 249.48313 
L 211.328085 250.48487 
L 212.403431 251.486609 
L 217.509822 251.486609 
L 219.960992 252.488348 
L 221.437864 253.490087 
L 222.769624 253.490087 
L 223.233906 254.491826 
L 224.100144 254.491826 
L 225.667049 255.493565 
L 226.927374 256.495304 
L 227.500813 256.495304 
L 227.982262 257.497043 
L 229.036149 258.498783 
L 229.51531 259.500522 
L 230.180642 259.500522 
L 230.513117 260.502261 
L 230.646116 261.504 
L 231.957132 262.505739 
L 232.060947 263.507478 
L 233.958659 264.509217 
L 235.79514 265.510957 
L 237.019127 265.510957 
L 238.998813 266.512696 
L 240.570154 266.512696 
L 241.486654 266.512696 
L 242.862381 267.514435 
L 243.223326 267.514435 
L 244.156373 268.516174 
L 244.412978 269.517913 
L 244.450794 270.519652 
L 245.245167 270.519652 
L 245.835439 271.521391 
L 246.597909 272.52313 
L 247.65666 273.52487 
L 248.27068 274.526609 
L 248.503394 275.528348 
L 249.271539 276.530087 
L 250.075211 277.531826 
L 251.841354 278.533565 
L 252.346361 279.535304 
L 252.709356 280.537043 
L 257.107784 281.538783 
L 257.226763 282.540522 
L 257.381413 283.542261 
L 258.578361 284.544 
L 261.20397 285.545739 
L 262.1518 285.545739 
L 265.477076 286.547478 
L 265.671496 287.549217 
L 266.813223 288.550957 
L 267.237639 289.552696 
L 268.805355 290.554435 
L 270.070782 291.556174 
L 270.131154 292.557913 
L 270.427482 293.559652 
L 271.338975 294.561391 
L 272.813845 295.56313 
L 273.008218 296.56487 
L 273.939882 297.566609 
L 275.378175 298.568348 
L 277.635448 299.570087 
L 277.642935 300.571826 
L 278.942793 301.573565 
L 279.12491 302.575304 
L 279.90946 303.577043 
L 279.981896 303.577043 
L 280.673361 304.578783 
L 280.997157 304.578783 
L 281.161534 305.580522 
L 281.299827 306.582261 
L 281.308411 307.584 
L 287.301069 307.584 
L 292.791152 307.584 
L 298.744229 307.584 
L 299.269503 307.584 
L 302.944517 307.584 
L 314.98782 307.584 
L 330.499317 307.584 
L 336.56713 307.584 
L 352.73652 307.584 
L 364.622217 307.584 
L 365.794941 307.584 
L 380.558464 307.584 
L 392.167958 307.584 
L 392.98379 307.584 
L 394.251172 307.584 
L 398.487273 307.584 
L 398.487273 306.582261 
L 398.487273 306.582261 
L 394.251172 306.582261 
L 392.98379 306.582261 
L 392.167958 306.582261 
L 380.558464 306.582261 
L 365.794941 306.582261 
L 364.622217 306.582261 
L 352.73652 306.582261 
L 336.56713 306.582261 
L 330.499317 305.580522 
L 314.98782 304.578783 
L 302.944517 303.577043 
L 299.269503 303.577043 
L 298.744229 302.575304 
L 292.791152 302.575304 
L 287.301069 301.573565 
L 281.308411 300.571826 
L 281.299827 299.570087 
L 281.161534 298.568348 
L 280.997157 297.566609 
L 280.673361 296.56487 
L 279.981896 295.56313 
L 279.90946 295.56313 
L 279.12491 294.561391 
L 278.942793 293.559652 
L 277.642935 292.557913 
L 277.635448 291.556174 
L 275.378175 290.554435 
L 273.939882 289.552696 
L 273.008218 288.550957 
L 272.813845 287.549217 
L 271.338975 286.547478 
L 270.427482 285.545739 
L 270.131154 284.544 
L 270.070782 283.542261 
L 268.805355 282.540522 
L 267.237639 281.538783 
L 266.813223 280.537043 
L 265.671496 279.535304 
L 265.477076 278.533565 
L 262.1518 277.531826 
L 261.20397 277.531826 
L 258.578361 276.530087 
L 257.381413 275.528348 
L 257.226763 274.526609 
L 257.107784 273.52487 
L 252.709356 272.52313 
L 252.346361 271.521391 
L 251.841354 270.519652 
L 250.075211 269.517913 
L 249.271539 268.516174 
L 248.503394 267.514435 
L 248.27068 266.512696 
L 247.65666 265.510957 
L 246.597909 264.509217 
L 245.835439 263.507478 
L 245.245167 262.505739 
L 244.450794 262.505739 
L 244.412978 261.504 
L 244.156373 260.502261 
L 243.223326 259.500522 
L 242.862381 259.500522 
L 241.486654 258.498783 
L 240.570154 257.497043 
L 238.998813 256.495304 
L 237.019127 255.493565 
L 235.79514 254.491826 
L 233.958659 253.490087 
L 232.060947 252.488348 
L 231.957132 251.486609 
L 230.646116 250.48487 
L 230.513117 249.48313 
L 230.180642 248.481391 
L 229.51531 248.481391 
L 229.036149 247.479652 
L 227.982262 246.477913 
L 227.500813 245.476174 
L 226.927374 244.474435 
L 225.667049 243.472696 
L 224.100144 242.470957 
L 223.233906 241.469217 
L 222.769624 240.467478 
L 221.437864 239.465739 
L 219.960992 238.464 
L 217.509822 237.462261 
L 212.403431 236.460522 
L 211.328085 235.458783 
L 209.778871 234.457043 
L 209.347445 233.455304 
L 207.535427 232.453565 
L 207.12074 231.451826 
L 206.551975 230.450087 
L 206.408818 229.448348 
L 205.455074 228.446609 
L 202.846633 227.44487 
L 202.606623 226.44313 
L 202.124839 225.441391 
L 201.357839 224.439652 
L 200.90152 223.437913 
L 196.939239 222.436174 
L 196.871667 221.434435 
L 195.195653 220.432696 
L 192.182442 219.430957 
L 190.818303 218.429217 
L 190.674431 217.427478 
L 187.346914 216.425739 
L 186.823547 215.424 
L 186.706332 214.422261 
L 186.281249 213.420522 
L 185.985063 212.418783 
L 185.806713 211.417043 
L 185.254973 210.415304 
L 183.840332 209.413565 
L 183.147008 208.411826 
L 183.141953 208.411826 
L 179.666464 207.410087 
L 178.375953 206.408348 
L 178.041666 206.408348 
L 177.324307 205.406609 
L 177.210097 204.40487 
L 177.185776 203.40313 
L 177.036086 202.401391 
L 175.437373 201.399652 
L 174.083105 200.397913 
L 173.109475 199.396174 
L 172.619823 198.394435 
L 168.849722 198.394435 
L 168.10852 197.392696 
L 167.662263 196.390957 
L 164.898076 195.389217 
L 163.003511 194.387478 
L 160.201174 193.385739 
L 158.568842 192.384 
L 156.171607 191.382261 
L 154.048955 190.380522 
L 152.690299 189.378783 
L 151.530165 189.378783 
L 151.225587 188.377043 
L 150.038033 187.375304 
L 149.219435 186.373565 
L 148.511852 185.371826 
L 147.90098 184.370087 
L 145.353482 183.368348 
L 144.575084 182.366609 
L 136.594586 181.36487 
L 134.079373 180.36313 
L 132.828777 179.361391 
L 132.367069 178.359652 
L 132.305982 177.357913 
L 129.380278 176.356174 
L 128.878656 175.354435 
L 127.585952 174.352696 
L 127.509653 173.350957 
L 127.031779 172.349217 
L 126.355336 171.347478 
L 126.111798 170.345739 
L 124.89401 169.344 
L 124.446991 168.342261 
L 123.714611 167.340522 
L 123.52596 166.338783 
L 122.869546 165.337043 
L 122.540982 164.335304 
L 121.008258 163.333565 
L 118.612831 162.331826 
L 116.304528 161.330087 
L 116.235314 160.328348 
L 114.871828 159.326609 
L 111.612232 158.32487 
L 111.057878 157.32313 
L 109.611307 156.321391 
L 108.907701 155.319652 
L 106.946256 154.317913 
L 106.37389 153.316174 
L 105.344181 152.314435 
L 105.309756 151.312696 
L 104.828282 150.310957 
L 104.11337 149.309217 
L 101.536359 148.307478 
L 100.104809 147.305739 
L 97.870574 146.304 
L 97.853454 145.302261 
L 97.679939 144.300522 
L 97.495233 143.298783 
L 95.823506 142.297043 
L 94.580248 141.295304 
L 94.353915 140.293565 
L 94.119247 140.293565 
L 93.240029 139.291826 
L 92.17567 138.290087 
L 92.002293 137.288348 
L 91.884454 136.286609 
L 91.414811 135.28487 
L 90.92029 134.28313 
L 90.753437 133.281391 
L 90.455698 132.279652 
L 90.072827 131.277913 
L 90.066394 130.276174 
L 88.951124 129.274435 
L 88.026894 128.272696 
L 87.384362 127.270957 
L 86.457785 126.269217 
L 86.35305 125.267478 
L 85.578228 124.265739 
L 85.553259 123.264 
L 84.785415 122.262261 
L 84.641223 121.260522 
L 84.496073 120.258783 
L 84.363436 119.257043 
L 83.301962 118.255304 
L 83.258671 117.253565 
L 83.08881 116.251826 
L 82.874761 115.250087 
L 82.209987 114.248348 
L 81.960111 113.246609 
L 81.73777 112.24487 
L 81.64291 111.24313 
L 81.126367 110.241391 
L 80.962872 109.239652 
L 80.933954 108.237913 
L 80.628547 107.236174 
L 80.529777 106.234435 
L 80.382357 105.232696 
L 80.230482 104.230957 
L 80.224226 103.229217 
L 79.900597 102.227478 
L 79.456858 101.225739 
L 78.335319 100.224 
L 77.959587 99.222261 
L 77.879786 98.220522 
L 76.812083 97.218783 
L 76.728297 96.217043 
L 76.394066 95.215304 
L 76.250081 94.213565 
L 76.197371 93.211826 
L 75.994934 92.210087 
L 75.661681 91.208348 
L 75.181096 90.206609 
L 75.105067 89.20487 
L 75.092865 88.20313 
L 75.066661 87.201391 
L 75.023104 86.199652 
L 74.806022 85.197913 
L 74.694499 84.196174 
L 74.633056 83.194435 
L 74.525856 82.192696 
L 74.410607 81.190957 
L 74.191808 80.189217 
L 74.127878 79.187478 
L 74.086848 78.185739 
L 73.972458 77.184 
L 73.951588 76.182261 
L 73.919141 75.180522 
L 73.832727 74.178783 
z
" clip-path="url(#pa15d91f83c)" style="fill: #7cfc00"/>
   </g>
   <g id="PolyCollection_3">
    <path d="M 73.832727 54.144 
L 73.832727 74.178783 
L 73.919141 75.180522 
L 73.951588 76.182261 
L 73.972458 77.184 
L 74.086848 78.185739 
L 74.127878 79.187478 
L 74.191808 80.189217 
L 74.410607 81.190957 
L 74.525856 82.192696 
L 74.633056 83.194435 
L 74.694499 84.196174 
L 74.806022 85.197913 
L 75.023104 86.199652 
L 75.066661 87.201391 
L 75.092865 88.20313 
L 75.105067 89.20487 
L 75.181096 90.206609 
L 75.661681 91.208348 
L 75.994934 92.210087 
L 76.197371 93.211826 
L 76.250081 94.213565 
L 76.394066 95.215304 
L 76.728297 96.217043 
L 76.812083 97.218783 
L 77.879786 98.220522 
L 77.959587 99.222261 
L 78.335319 100.224 
L 79.456858 101.225739 
L 79.900597 102.227478 
L 80.224226 103.229217 
L 80.230482 104.230957 
L 80.382357 105.232696 
L 80.529777 106.234435 
L 80.628547 107.236174 
L 80.933954 108.237913 
L 80.962872 109.239652 
L 81.126367 110.241391 
L 81.64291 111.24313 
L 81.73777 112.24487 
L 81.960111 113.246609 
L 82.209987 114.248348 
L 82.874761 115.250087 
L 83.08881 116.251826 
L 83.258671 117.253565 
L 83.301962 118.255304 
L 84.363436 119.257043 
L 84.496073 120.258783 
L 84.641223 121.260522 
L 84.785415 122.262261 
L 85.553259 123.264 
L 85.578228 124.265739 
L 86.35305 125.267478 
L 86.457785 126.269217 
L 87.384362 127.270957 
L 88.026894 128.272696 
L 88.951124 129.274435 
L 90.066394 130.276174 
L 90.072827 131.277913 
L 90.455698 132.279652 
L 90.753437 133.281391 
L 90.92029 134.28313 
L 91.414811 135.28487 
L 91.884454 136.286609 
L 92.002293 137.288348 
L 92.17567 138.290087 
L 93.240029 139.291826 
L 94.119247 140.293565 
L 94.353915 140.293565 
L 94.580248 141.295304 
L 95.823506 142.297043 
L 97.495233 143.298783 
L 97.679939 144.300522 
L 97.853454 145.302261 
L 97.870574 146.304 
L 100.104809 147.305739 
L 101.536359 148.307478 
L 104.11337 149.309217 
L 104.828282 150.310957 
L 105.309756 151.312696 
L 105.344181 152.314435 
L 106.37389 153.316174 
L 106.946256 154.317913 
L 108.907701 155.319652 
L 109.611307 156.321391 
L 111.057878 157.32313 
L 111.612232 158.32487 
L 114.871828 159.326609 
L 116.235314 160.328348 
L 116.304528 161.330087 
L 118.612831 162.331826 
L 121.008258 163.333565 
L 122.540982 164.335304 
L 122.869546 165.337043 
L 123.52596 166.338783 
L 123.714611 167.340522 
L 124.446991 168.342261 
L 124.89401 169.344 
L 126.111798 170.345739 
L 126.355336 171.347478 
L 127.031779 172.349217 
L 127.509653 173.350957 
L 127.585952 174.352696 
L 128.878656 175.354435 
L 129.380278 176.356174 
L 132.305982 177.357913 
L 132.367069 178.359652 
L 132.828777 179.361391 
L 134.079373 180.36313 
L 136.594586 181.36487 
L 144.575084 182.366609 
L 145.353482 183.368348 
L 147.90098 184.370087 
L 148.511852 185.371826 
L 149.219435 186.373565 
L 150.038033 187.375304 
L 151.225587 188.377043 
L 151.530165 189.378783 
L 152.690299 189.378783 
L 154.048955 190.380522 
L 156.171607 191.382261 
L 158.568842 192.384 
L 160.201174 193.385739 
L 163.003511 194.387478 
L 164.898076 195.389217 
L 167.662263 196.390957 
L 168.10852 197.392696 
L 168.849722 198.394435 
L 172.619823 198.394435 
L 173.109475 199.396174 
L 174.083105 200.397913 
L 175.437373 201.399652 
L 177.036086 202.401391 
L 177.185776 203.40313 
L 177.210097 204.40487 
L 177.324307 205.406609 
L 178.041666 206.408348 
L 178.375953 206.408348 
L 179.666464 207.410087 
L 183.141953 208.411826 
L 183.147008 208.411826 
L 183.840332 209.413565 
L 185.254973 210.415304 
L 185.806713 211.417043 
L 185.985063 212.418783 
L 186.281249 213.420522 
L 186.706332 214.422261 
L 186.823547 215.424 
L 187.346914 216.425739 
L 190.674431 217.427478 
L 190.818303 218.429217 
L 192.182442 219.430957 
L 195.195653 220.432696 
L 196.871667 221.434435 
L 196.939239 222.436174 
L 200.90152 223.437913 
L 201.357839 224.439652 
L 202.124839 225.441391 
L 202.606623 226.44313 
L 202.846633 227.44487 
L 205.455074 228.446609 
L 206.408818 229.448348 
L 206.551975 230.450087 
L 207.12074 231.451826 
L 207.535427 232.453565 
L 209.347445 233.455304 
L 209.778871 234.457043 
L 211.328085 235.458783 
L 212.403431 236.460522 
L 217.509822 237.462261 
L 219.960992 238.464 
L 221.437864 239.465739 
L 222.769624 240.467478 
L 223.233906 241.469217 
L 224.100144 242.470957 
L 225.667049 243.472696 
L 226.927374 244.474435 
L 227.500813 245.476174 
L 227.982262 246.477913 
L 229.036149 247.479652 
L 229.51531 248.481391 
L 230.180642 248.481391 
L 230.513117 249.48313 
L 230.646116 250.48487 
L 231.957132 251.486609 
L 232.060947 252.488348 
L 233.958659 253.490087 
L 235.79514 254.491826 
L 237.019127 255.493565 
L 238.998813 256.495304 
L 240.570154 257.497043 
L 241.486654 258.498783 
L 242.862381 259.500522 
L 243.223326 259.500522 
L 244.156373 260.502261 
L 244.412978 261.504 
L 244.450794 262.505739 
L 245.245167 262.505739 
L 245.835439 263.507478 
L 246.597909 264.509217 
L 247.65666 265.510957 
L 248.27068 266.512696 
L 248.503394 267.514435 
L 249.271539 268.516174 
L 250.075211 269.517913 
L 251.841354 270.519652 
L 252.346361 271.521391 
L 252.709356 272.52313 
L 257.107784 273.52487 
L 257.226763 274.526609 
L 257.381413 275.528348 
L 258.578361 276.530087 
L 261.20397 277.531826 
L 262.1518 277.531826 
L 265.477076 278.533565 
L 265.671496 279.535304 
L 266.813223 280.537043 
L 267.237639 281.538783 
L 268.805355 282.540522 
L 270.070782 283.542261 
L 270.131154 284.544 
L 270.427482 285.545739 
L 271.338975 286.547478 
L 272.813845 287.549217 
L 273.008218 288.550957 
L 273.939882 289.552696 
L 275.378175 290.554435 
L 277.635448 291.556174 
L 277.642935 292.557913 
L 278.942793 293.559652 
L 279.12491 294.561391 
L 279.90946 295.56313 
L 279.981896 295.56313 
L 280.673361 296.56487 
L 280.997157 297.566609 
L 281.161534 298.568348 
L 281.299827 299.570087 
L 281.308411 300.571826 
L 287.301069 301.573565 
L 292.791152 302.575304 
L 298.744229 302.575304 
L 299.269503 303.577043 
L 302.944517 303.577043 
L 314.98782 304.578783 
L 330.499317 305.580522 
L 336.56713 306.582261 
L 352.73652 306.582261 
L 364.622217 306.582261 
L 365.794941 306.582261 
L 380.558464 306.582261 
L 392.167958 306.582261 
L 392.98379 306.582261 
L 394.251172 306.582261 
L 398.487273 306.582261 
L 398.487273 306.582261 
L 398.487273 306.582261 
L 394.251172 305.580522 
L 392.98379 304.578783 
L 392.167958 303.577043 
L 380.558464 302.575304 
L 365.794941 301.573565 
L 364.622217 300.571826 
L 352.73652 299.570087 
L 336.56713 298.568348 
L 330.499317 297.566609 
L 314.98782 296.56487 
L 302.944517 295.56313 
L 299.269503 294.561391 
L 298.744229 293.559652 
L 292.791152 292.557913 
L 287.301069 291.556174 
L 281.308411 290.554435 
L 281.299827 289.552696 
L 281.161534 288.550957 
L 280.997157 287.549217 
L 280.673361 286.547478 
L 279.981896 285.545739 
L 279.90946 284.544 
L 279.12491 283.542261 
L 278.942793 282.540522 
L 277.642935 281.538783 
L 277.635448 280.537043 
L 275.378175 279.535304 
L 273.939882 278.533565 
L 273.008218 277.531826 
L 272.813845 276.530087 
L 271.338975 275.528348 
L 270.427482 274.526609 
L 270.131154 273.52487 
L 270.070782 272.52313 
L 268.805355 271.521391 
L 267.237639 270.519652 
L 266.813223 269.517913 
L 265.671496 268.516174 
L 265.477076 267.514435 
L 262.1518 266.512696 
L 261.20397 265.510957 
L 258.578361 264.509217 
L 257.381413 263.507478 
L 257.226763 262.505739 
L 257.107784 261.504 
L 252.709356 260.502261 
L 252.346361 259.500522 
L 251.841354 258.498783 
L 250.075211 257.497043 
L 249.271539 256.495304 
L 248.503394 255.493565 
L 248.27068 254.491826 
L 247.65666 253.490087 
L 246.597909 252.488348 
L 245.835439 251.486609 
L 245.245167 250.48487 
L 244.450794 249.48313 
L 244.412978 248.481391 
L 244.156373 247.479652 
L 243.223326 246.477913 
L 242.862381 245.476174 
L 241.486654 244.474435 
L 240.570154 243.472696 
L 238.998813 242.470957 
L 237.019127 241.469217 
L 235.79514 240.467478 
L 233.958659 239.465739 
L 232.060947 238.464 
L 231.957132 237.462261 
L 230.646116 236.460522 
L 230.513117 235.458783 
L 230.180642 234.457043 
L 229.51531 233.455304 
L 229.036149 232.453565 
L 227.982262 231.451826 
L 227.500813 230.450087 
L 226.927374 229.448348 
L 225.667049 228.446609 
L 224.100144 227.44487 
L 223.233906 226.44313 
L 222.769624 225.441391 
L 221.437864 224.439652 
L 219.960992 223.437913 
L 217.509822 222.436174 
L 212.403431 221.434435 
L 211.328085 220.432696 
L 209.778871 219.430957 
L 209.347445 218.429217 
L 207.535427 217.427478 
L 207.12074 216.425739 
L 206.551975 215.424 
L 206.408818 214.422261 
L 205.455074 213.420522 
L 202.846633 212.418783 
L 202.606623 211.417043 
L 202.124839 210.415304 
L 201.357839 209.413565 
L 200.90152 208.411826 
L 196.939239 207.410087 
L 196.871667 206.408348 
L 195.195653 205.406609 
L 192.182442 204.40487 
L 190.818303 203.40313 
L 190.674431 202.401391 
L 187.346914 201.399652 
L 186.823547 200.397913 
L 186.706332 199.396174 
L 186.281249 198.394435 
L 185.985063 197.392696 
L 185.806713 196.390957 
L 185.254973 195.389217 
L 183.840332 194.387478 
L 183.147008 193.385739 
L 183.141953 192.384 
L 179.666464 191.382261 
L 178.375953 190.380522 
L 178.041666 189.378783 
L 177.324307 188.377043 
L 177.210097 187.375304 
L 177.185776 186.373565 
L 177.036086 185.371826 
L 175.437373 184.370087 
L 174.083105 183.368348 
L 173.109475 182.366609 
L 172.619823 181.36487 
L 168.849722 180.36313 
L 168.10852 179.361391 
L 167.662263 178.359652 
L 164.898076 177.357913 
L 163.003511 176.356174 
L 160.201174 175.354435 
L 158.568842 174.352696 
L 156.171607 173.350957 
L 154.048955 172.349217 
L 152.690299 171.347478 
L 151.530165 170.345739 
L 151.225587 169.344 
L 150.038033 168.342261 
L 149.219435 167.340522 
L 148.511852 166.338783 
L 147.90098 165.337043 
L 145.353482 164.335304 
L 144.575084 163.333565 
L 136.594586 162.331826 
L 134.079373 161.330087 
L 132.828777 160.328348 
L 132.367069 159.326609 
L 132.305982 158.32487 
L 129.380278 157.32313 
L 128.878656 156.321391 
L 127.585952 155.319652 
L 127.509653 154.317913 
L 127.031779 153.316174 
L 126.355336 152.314435 
L 126.111798 151.312696 
L 124.89401 150.310957 
L 124.446991 149.309217 
L 123.714611 148.307478 
L 123.52596 147.305739 
L 122.869546 146.304 
L 122.540982 145.302261 
L 121.008258 144.300522 
L 118.612831 143.298783 
L 116.304528 142.297043 
L 116.235314 141.295304 
L 114.871828 140.293565 
L 111.612232 139.291826 
L 111.057878 138.290087 
L 109.611307 137.288348 
L 108.907701 136.286609 
L 106.946256 135.28487 
L 106.37389 134.28313 
L 105.344181 133.281391 
L 105.309756 132.279652 
L 104.828282 131.277913 
L 104.11337 130.276174 
L 101.536359 129.274435 
L 100.104809 128.272696 
L 97.870574 127.270957 
L 97.853454 126.269217 
L 97.679939 125.267478 
L 97.495233 124.265739 
L 95.823506 123.264 
L 94.580248 122.262261 
L 94.353915 121.260522 
L 94.119247 120.258783 
L 93.240029 119.257043 
L 92.17567 118.255304 
L 92.002293 117.253565 
L 91.884454 116.251826 
L 91.414811 115.250087 
L 90.92029 114.248348 
L 90.753437 113.246609 
L 90.455698 112.24487 
L 90.072827 111.24313 
L 90.066394 110.241391 
L 88.951124 109.239652 
L 88.026894 108.237913 
L 87.384362 107.236174 
L 86.457785 106.234435 
L 86.35305 105.232696 
L 85.578228 104.230957 
L 85.553259 103.229217 
L 84.785415 102.227478 
L 84.641223 101.225739 
L 84.496073 100.224 
L 84.363436 99.222261 
L 83.301962 98.220522 
L 83.258671 97.218783 
L 83.08881 96.217043 
L 82.874761 95.215304 
L 82.209987 94.213565 
L 81.960111 93.211826 
L 81.73777 92.210087 
L 81.64291 91.208348 
L 81.126367 90.206609 
L 80.962872 89.20487 
L 80.933954 88.20313 
L 80.628547 87.201391 
L 80.529777 86.199652 
L 80.382357 85.197913 
L 80.230482 84.196174 
L 80.224226 83.194435 
L 79.900597 82.192696 
L 79.456858 81.190957 
L 78.335319 80.189217 
L 77.959587 79.187478 
L 77.879786 78.185739 
L 76.812083 77.184 
L 76.728297 76.182261 
L 76.394066 75.180522 
L 76.250081 74.178783 
L 76.197371 73.177043 
L 75.994934 72.175304 
L 75.661681 71.173565 
L 75.181096 70.171826 
L 75.105067 69.170087 
L 75.092865 68.168348 
L 75.066661 67.166609 
L 75.023104 66.16487 
L 74.806022 65.16313 
L 74.694499 64.161391 
L 74.633056 63.159652 
L 74.525856 62.157913 
L 74.410607 61.156174 
L 74.191808 60.154435 
L 74.127878 59.152696 
L 74.086848 58.150957 
L 73.972458 57.149217 
L 73.951588 56.147478 
L 73.919141 55.145739 
L 73.832727 54.144 
z
" clip-path="url(#pa15d91f83c)" style="fill: #ff0000"/>
   </g>
   <g id="matplotlib.axis_1">
    <g id="xtick_1">
     <g id="line2d_1">
      <defs>
       <path id="m59c8b65d76" d="M 0 0 
L 0 3.5 
" style="stroke: #000000; stroke-width: 0.8"/>
      </defs>
      <g>
       <use xlink:href="#m59c8b65d76" x="73.823227" y="307.584" style="stroke: #000000; stroke-width: 0.8"/>
      </g>
     </g>
     <g id="text_1">
      <!-- 0.0 -->
      <g transform="translate(65.871665 322.182437) scale(0.1 -0.1)">
       <defs>
        <path id="DejaVuSans-30" d="M 2034 4250 
Q 1547 4250 1301 3770 
Q 1056 3291 1056 2328 
Q 1056 1369 1301 889 
Q 1547 409 2034 409 
Q 2525 409 2770 889 
Q 3016 1369 3016 2328 
Q 3016 3291 2770 3770 
Q 2525 4250 2034 4250 
z
M 2034 4750 
Q 2819 4750 3233 4129 
Q 3647 3509 3647 2328 
Q 3647 1150 3233 529 
Q 2819 -91 2034 -91 
Q 1250 -91 836 529 
Q 422 1150 422 2328 
Q 422 3509 836 4129 
Q 1250 4750 2034 4750 
z
" transform="scale(0.015625)"/>
        <path id="DejaVuSans-2e" d="M 684 794 
L 1344 794 
L 1344 0 
L 684 0 
L 684 794 
z
" transform="scale(0.015625)"/>
       </defs>
       <use xlink:href="#DejaVuSans-30"/>
       <use xlink:href="#DejaVuSans-2e" x="63.623047"/>
       <use xlink:href="#DejaVuSans-30" x="95.410156"/>
      </g>
     </g>
    </g>
    <g id="xtick_2">
     <g id="line2d_2">
      <g>
       <use xlink:href="#m59c8b65d76" x="121.510414" y="307.584" style="stroke: #000000; stroke-width: 0.8"/>
      </g>
     </g>
     <g id="text_2">
      <!-- 0.1 -->
      <g transform="translate(113.558851 322.182437) scale(0.1 -0.1)">
       <defs>
        <path id="DejaVuSans-31" d="M 794 531 
L 1825 531 
L 1825 4091 
L 703 3866 
L 703 4441 
L 1819 4666 
L 2450 4666 
L 2450 531 
L 3481 531 
L 3481 0 
L 794 0 
L 794 531 
z
" transform="scale(0.015625)"/>
       </defs>
       <use xlink:href="#DejaVuSans-30"/>
       <use xlink:href="#DejaVuSans-2e" x="63.623047"/>
       <use xlink:href="#DejaVuSans-31" x="95.410156"/>
      </g>
     </g>
    </g>
    <g id="xtick_3">
     <g id="line2d_3">
      <g>
       <use xlink:href="#m59c8b65d76" x="169.1976" y="307.584" style="stroke: #000000; stroke-width: 0.8"/>
      </g>
     </g>
     <g id="text_3">
      <!-- 0.2 -->
      <g transform="translate(161.246038 322.182437) scale(0.1 -0.1)">
       <defs>
        <path id="DejaVuSans-32" d="M 1228 531 
L 3431 531 
L 3431 0 
L 469 0 
L 469 531 
Q 828 903 1448 1529 
Q 2069 2156 2228 2338 
Q 2531 2678 2651 2914 
Q 2772 3150 2772 3378 
Q 2772 3750 2511 3984 
Q 2250 4219 1831 4219 
Q 1534 4219 1204 4116 
Q 875 4013 500 3803 
L 500 4441 
Q 881 4594 1212 4672 
Q 1544 4750 1819 4750 
Q 2544 4750 2975 4387 
Q 3406 4025 3406 3419 
Q 3406 3131 3298 2873 
Q 3191 2616 2906 2266 
Q 2828 2175 2409 1742 
Q 1991 1309 1228 531 
z
" transform="scale(0.015625)"/>
       </defs>
       <use xlink:href="#DejaVuSans-30"/>
       <use xlink:href="#DejaVuSans-2e" x="63.623047"/>
       <use xlink:href="#DejaVuSans-32" x="95.410156"/>
      </g>
     </g>
    </g>
    <g id="xtick_4">
     <g id="line2d_4">
      <g>
       <use xlink:href="#m59c8b65d76" x="216.884786" y="307.584" style="stroke: #000000; stroke-width: 0.8"/>
      </g>
     </g>
     <g id="text_4">
      <!-- 0.3 -->
      <g transform="translate(208.933224 322.182437) scale(0.1 -0.1)">
       <defs>
        <path id="DejaVuSans-33" d="M 2597 2516 
Q 3050 2419 3304 2112 
Q 3559 1806 3559 1356 
Q 3559 666 3084 287 
Q 2609 -91 1734 -91 
Q 1441 -91 1130 -33 
Q 819 25 488 141 
L 488 750 
Q 750 597 1062 519 
Q 1375 441 1716 441 
Q 2309 441 2620 675 
Q 2931 909 2931 1356 
Q 2931 1769 2642 2001 
Q 2353 2234 1838 2234 
L 1294 2234 
L 1294 2753 
L 1863 2753 
Q 2328 2753 2575 2939 
Q 2822 3125 2822 3475 
Q 2822 3834 2567 4026 
Q 2313 4219 1838 4219 
Q 1578 4219 1281 4162 
Q 984 4106 628 3988 
L 628 4550 
Q 988 4650 1302 4700 
Q 1616 4750 1894 4750 
Q 2613 4750 3031 4423 
Q 3450 4097 3450 3541 
Q 3450 3153 3228 2886 
Q 3006 2619 2597 2516 
z
" transform="scale(0.015625)"/>
       </defs>
       <use xlink:href="#DejaVuSans-30"/>
       <use xlink:href="#DejaVuSans-2e" x="63.623047"/>
       <use xlink:href="#DejaVuSans-33" x="95.410156"/>
      </g>
     </g>
    </g>
    <g id="xtick_5">
     <g id="line2d_5">
      <g>
       <use xlink:href="#m59c8b65d76" x="264.571973" y="307.584" style="stroke: #000000; stroke-width: 0.8"/>
      </g>
     </g>
     <g id="text_5">
      <!-- 0.4 -->
      <g transform="translate(256.62041 322.182437) scale(0.1 -0.1)">
       <defs>
        <path id="DejaVuSans-34" d="M 2419 4116 
L 825 1625 
L 2419 1625 
L 2419 4116 
z
M 2253 4666 
L 3047 4666 
L 3047 1625 
L 3713 1625 
L 3713 1100 
L 3047 1100 
L 3047 0 
L 2419 0 
L 2419 1100 
L 313 1100 
L 313 1709 
L 2253 4666 
z
" transform="scale(0.015625)"/>
       </defs>
       <use xlink:href="#DejaVuSans-30"/>
       <use xlink:href="#DejaVuSans-2e" x="63.623047"/>
       <use xlink:href="#DejaVuSans-34" x="95.410156"/>
      </g>
     </g>
    </g>
    <g id="xtick_6">
     <g id="line2d_6">
      <g>
       <use xlink:href="#m59c8b65d76" x="312.259159" y="307.584" style="stroke: #000000; stroke-width: 0.8"/>
      </g>
     </g>
     <g id="text_6">
      <!-- 0.5 -->
      <g transform="translate(304.307597 322.182437) scale(0.1 -0.1)">
       <defs>
        <path id="DejaVuSans-35" d="M 691 4666 
L 3169 4666 
L 3169 4134 
L 1269 4134 
L 1269 2991 
Q 1406 3038 1543 3061 
Q 1681 3084 1819 3084 
Q 2600 3084 3056 2656 
Q 3513 2228 3513 1497 
Q 3513 744 3044 326 
Q 2575 -91 1722 -91 
Q 1428 -91 1123 -41 
Q 819 9 494 109 
L 494 744 
Q 775 591 1075 516 
Q 1375 441 1709 441 
Q 2250 441 2565 725 
Q 2881 1009 2881 1497 
Q 2881 1984 2565 2268 
Q 2250 2553 1709 2553 
Q 1456 2553 1204 2497 
Q 953 2441 691 2322 
L 691 4666 
z
" transform="scale(0.015625)"/>
       </defs>
       <use xlink:href="#DejaVuSans-30"/>
       <use xlink:href="#DejaVuSans-2e" x="63.623047"/>
       <use xlink:href="#DejaVuSans-35" x="95.410156"/>
      </g>
     </g>
    </g>
    <g id="xtick_7">
     <g id="line2d_7">
      <g>
       <use xlink:href="#m59c8b65d76" x="359.946346" y="307.584" style="stroke: #000000; stroke-width: 0.8"/>
      </g>
     </g>
     <g id="text_7">
      <!-- 0.6 -->
      <g transform="translate(351.994783 322.182437) scale(0.1 -0.1)">
       <defs>
        <path id="DejaVuSans-36" d="M 2113 2584 
Q 1688 2584 1439 2293 
Q 1191 2003 1191 1497 
Q 1191 994 1439 701 
Q 1688 409 2113 409 
Q 2538 409 2786 701 
Q 3034 994 3034 1497 
Q 3034 2003 2786 2293 
Q 2538 2584 2113 2584 
z
M 3366 4563 
L 3366 3988 
Q 3128 4100 2886 4159 
Q 2644 4219 2406 4219 
Q 1781 4219 1451 3797 
Q 1122 3375 1075 2522 
Q 1259 2794 1537 2939 
Q 1816 3084 2150 3084 
Q 2853 3084 3261 2657 
Q 3669 2231 3669 1497 
Q 3669 778 3244 343 
Q 2819 -91 2113 -91 
Q 1303 -91 875 529 
Q 447 1150 447 2328 
Q 447 3434 972 4092 
Q 1497 4750 2381 4750 
Q 2619 4750 2861 4703 
Q 3103 4656 3366 4563 
z
" transform="scale(0.015625)"/>
       </defs>
       <use xlink:href="#DejaVuSans-30"/>
       <use xlink:href="#DejaVuSans-2e" x="63.623047"/>
       <use xlink:href="#DejaVuSans-36" x="95.410156"/>
      </g>
     </g>
    </g>
    <g id="xtick_8">
     <g id="line2d_8">
      <g>
       <use xlink:href="#m59c8b65d76" x="407.633532" y="307.584" style="stroke: #000000; stroke-width: 0.8"/>
      </g>
     </g>
     <g id="text_8">
      <!-- 0.7 -->
      <g transform="translate(399.68197 322.182437) scale(0.1 -0.1)">
       <defs>
        <path id="DejaVuSans-37" d="M 525 4666 
L 3525 4666 
L 3525 4397 
L 1831 0 
L 1172 0 
L 2766 4134 
L 525 4134 
L 525 4666 
z
" transform="scale(0.015625)"/>
       </defs>
       <use xlink:href="#DejaVuSans-30"/>
       <use xlink:href="#DejaVuSans-2e" x="63.623047"/>
       <use xlink:href="#DejaVuSans-37" x="95.410156"/>
      </g>
     </g>
    </g>
    <g id="text_9">
     <!-- Score -->
     <g transform="translate(222.157656 335.860562) scale(0.1 -0.1)">
      <defs>
       <path id="DejaVuSans-53" d="M 3425 4513 
L 3425 3897 
Q 3066 4069 2747 4153 
Q 2428 4238 2131 4238 
Q 1616 4238 1336 4038 
Q 1056 3838 1056 3469 
Q 1056 3159 1242 3001 
Q 1428 2844 1947 2747 
L 2328 2669 
Q 3034 2534 3370 2195 
Q 3706 1856 3706 1288 
Q 3706 609 3251 259 
Q 2797 -91 1919 -91 
Q 1588 -91 1214 -16 
Q 841 59 441 206 
L 441 856 
Q 825 641 1194 531 
Q 1563 422 1919 422 
Q 2459 422 2753 634 
Q 3047 847 3047 1241 
Q 3047 1584 2836 1778 
Q 2625 1972 2144 2069 
L 1759 2144 
Q 1053 2284 737 2584 
Q 422 2884 422 3419 
Q 422 4038 858 4394 
Q 1294 4750 2059 4750 
Q 2388 4750 2728 4690 
Q 3069 4631 3425 4513 
z
" transform="scale(0.015625)"/>
       <path id="DejaVuSans-63" d="M 3122 3366 
L 3122 2828 
Q 2878 2963 2633 3030 
Q 2388 3097 2138 3097 
Q 1578 3097 1268 2742 
Q 959 2388 959 1747 
Q 959 1106 1268 751 
Q 1578 397 2138 397 
Q 2388 397 2633 464 
Q 2878 531 3122 666 
L 3122 134 
Q 2881 22 2623 -34 
Q 2366 -91 2075 -91 
Q 1284 -91 818 406 
Q 353 903 353 1747 
Q 353 2603 823 3093 
Q 1294 3584 2113 3584 
Q 2378 3584 2631 3529 
Q 2884 3475 3122 3366 
z
" transform="scale(0.015625)"/>
       <path id="DejaVuSans-6f" d="M 1959 3097 
Q 1497 3097 1228 2736 
Q 959 2375 959 1747 
Q 959 1119 1226 758 
Q 1494 397 1959 397 
Q 2419 397 2687 759 
Q 2956 1122 2956 1747 
Q 2956 2369 2687 2733 
Q 2419 3097 1959 3097 
z
M 1959 3584 
Q 2709 3584 3137 3096 
Q 3566 2609 3566 1747 
Q 3566 888 3137 398 
Q 2709 -91 1959 -91 
Q 1206 -91 779 398 
Q 353 888 353 1747 
Q 353 2609 779 3096 
Q 1206 3584 1959 3584 
z
" transform="scale(0.015625)"/>
       <path id="DejaVuSans-72" d="M 2631 2963 
Q 2534 3019 2420 3045 
Q 2306 3072 2169 3072 
Q 1681 3072 1420 2755 
Q 1159 2438 1159 1844 
L 1159 0 
L 581 0 
L 581 3500 
L 1159 3500 
L 1159 2956 
Q 1341 3275 1631 3429 
Q 1922 3584 2338 3584 
Q 2397 3584 2469 3576 
Q 2541 3569 2628 3553 
L 2631 2963 
z
" transform="scale(0.015625)"/>
       <path id="DejaVuSans-65" d="M 3597 1894 
L 3597 1613 
L 953 1613 
Q 991 1019 1311 708 
Q 1631 397 2203 397 
Q 2534 397 2845 478 
Q 3156 559 3463 722 
L 3463 178 
Q 3153 47 2828 -22 
Q 2503 -91 2169 -91 
Q 1331 -91 842 396 
Q 353 884 353 1716 
Q 353 2575 817 3079 
Q 1281 3584 2069 3584 
Q 2775 3584 3186 3129 
Q 3597 2675 3597 1894 
z
M 3022 2063 
Q 3016 2534 2758 2815 
Q 2500 3097 2075 3097 
Q 1594 3097 1305 2825 
Q 1016 2553 972 2059 
L 3022 2063 
z
" transform="scale(0.015625)"/>
      </defs>
      <use xlink:href="#DejaVuSans-53"/>
      <use xlink:href="#DejaVuSans-63" x="63.476562"/>
      <use xlink:href="#DejaVuSans-6f" x="118.457031"/>
      <use xlink:href="#DejaVuSans-72" x="179.638672"/>
      <use xlink:href="#DejaVuSans-65" x="218.501953"/>
     </g>
    </g>
   </g>
   <g id="matplotlib.axis_2">
    <g id="ytick_1">
     <g id="line2d_9">
      <defs>
       <path id="m9cb05604ca" d="M 0 0 
L -3.5 0 
" style="stroke: #000000; stroke-width: 0.8"/>
      </defs>
      <g>
       <use xlink:href="#m9cb05604ca" x="57.6" y="307.584" style="stroke: #000000; stroke-width: 0.8"/>
      </g>
     </g>
     <g id="text_10">
      <!-- 0 -->
      <g transform="translate(44.2375 311.383219) scale(0.1 -0.1)">
       <use xlink:href="#DejaVuSans-30"/>
      </g>
     </g>
    </g>
    <g id="ytick_2">
     <g id="line2d_10">
      <g>
       <use xlink:href="#m9cb05604ca" x="57.6" y="257.497043" style="stroke: #000000; stroke-width: 0.8"/>
      </g>
     </g>
     <g id="text_11">
      <!-- 50 -->
      <g transform="translate(37.875 261.296262) scale(0.1 -0.1)">
       <use xlink:href="#DejaVuSans-35"/>
       <use xlink:href="#DejaVuSans-30" x="63.623047"/>
      </g>
     </g>
    </g>
    <g id="ytick_3">
     <g id="line2d_11">
      <g>
       <use xlink:href="#m9cb05604ca" x="57.6" y="207.410087" style="stroke: #000000; stroke-width: 0.8"/>
      </g>
     </g>
     <g id="text_12">
      <!-- 100 -->
      <g transform="translate(31.5125 211.209306) scale(0.1 -0.1)">
       <use xlink:href="#DejaVuSans-31"/>
       <use xlink:href="#DejaVuSans-30" x="63.623047"/>
       <use xlink:href="#DejaVuSans-30" x="127.246094"/>
      </g>
     </g>
    </g>
    <g id="ytick_4">
     <g id="line2d_12">
      <g>
       <use xlink:href="#m9cb05604ca" x="57.6" y="157.32313" style="stroke: #000000; stroke-width: 0.8"/>
      </g>
     </g>
     <g id="text_13">
      <!-- 150 -->
      <g transform="translate(31.5125 161.122349) scale(0.1 -0.1)">
       <use xlink:href="#DejaVuSans-31"/>
       <use xlink:href="#DejaVuSans-35" x="63.623047"/>
       <use xlink:href="#DejaVuSans-30" x="127.246094"/>
      </g>
     </g>
    </g>
    <g id="ytick_5">
     <g id="line2d_13">
      <g>
       <use xlink:href="#m9cb05604ca" x="57.6" y="107.236174" style="stroke: #000000; stroke-width: 0.8"/>
      </g>
     </g>
     <g id="text_14">
      <!-- 200 -->
      <g transform="translate(31.5125 111.035393) scale(0.1 -0.1)">
       <use xlink:href="#DejaVuSans-32"/>
       <use xlink:href="#DejaVuSans-30" x="63.623047"/>
       <use xlink:href="#DejaVuSans-30" x="127.246094"/>
      </g>
     </g>
    </g>
    <g id="ytick_6">
     <g id="line2d_14">
      <g>
       <use xlink:href="#m9cb05604ca" x="57.6" y="57.149217" style="stroke: #000000; stroke-width: 0.8"/>
      </g>
     </g>
     <g id="text_15">
      <!-- 250 -->
      <g transform="translate(31.5125 60.948436) scale(0.1 -0.1)">
       <use xlink:href="#DejaVuSans-32"/>
       <use xlink:href="#DejaVuSans-35" x="63.623047"/>
       <use xlink:href="#DejaVuSans-30" x="127.246094"/>
      </g>
     </g>
    </g>
    <g id="text_16">
     <!-- Number of crosslinks -->
     <g transform="translate(25.432812 227.019406) rotate(-90) scale(0.1 -0.1)">
      <defs>
       <path id="DejaVuSans-4e" d="M 628 4666 
L 1478 4666 
L 3547 763 
L 3547 4666 
L 4159 4666 
L 4159 0 
L 3309 0 
L 1241 3903 
L 1241 0 
L 628 0 
L 628 4666 
z
" transform="scale(0.015625)"/>
       <path id="DejaVuSans-75" d="M 544 1381 
L 544 3500 
L 1119 3500 
L 1119 1403 
Q 1119 906 1312 657 
Q 1506 409 1894 409 
Q 2359 409 2629 706 
Q 2900 1003 2900 1516 
L 2900 3500 
L 3475 3500 
L 3475 0 
L 2900 0 
L 2900 538 
Q 2691 219 2414 64 
Q 2138 -91 1772 -91 
Q 1169 -91 856 284 
Q 544 659 544 1381 
z
M 1991 3584 
L 1991 3584 
z
" transform="scale(0.015625)"/>
       <path id="DejaVuSans-6d" d="M 3328 2828 
Q 3544 3216 3844 3400 
Q 4144 3584 4550 3584 
Q 5097 3584 5394 3201 
Q 5691 2819 5691 2113 
L 5691 0 
L 5113 0 
L 5113 2094 
Q 5113 2597 4934 2840 
Q 4756 3084 4391 3084 
Q 3944 3084 3684 2787 
Q 3425 2491 3425 1978 
L 3425 0 
L 2847 0 
L 2847 2094 
Q 2847 2600 2669 2842 
Q 2491 3084 2119 3084 
Q 1678 3084 1418 2786 
Q 1159 2488 1159 1978 
L 1159 0 
L 581 0 
L 581 3500 
L 1159 3500 
L 1159 2956 
Q 1356 3278 1631 3431 
Q 1906 3584 2284 3584 
Q 2666 3584 2933 3390 
Q 3200 3197 3328 2828 
z
" transform="scale(0.015625)"/>
       <path id="DejaVuSans-62" d="M 3116 1747 
Q 3116 2381 2855 2742 
Q 2594 3103 2138 3103 
Q 1681 3103 1420 2742 
Q 1159 2381 1159 1747 
Q 1159 1113 1420 752 
Q 1681 391 2138 391 
Q 2594 391 2855 752 
Q 3116 1113 3116 1747 
z
M 1159 2969 
Q 1341 3281 1617 3432 
Q 1894 3584 2278 3584 
Q 2916 3584 3314 3078 
Q 3713 2572 3713 1747 
Q 3713 922 3314 415 
Q 2916 -91 2278 -91 
Q 1894 -91 1617 61 
Q 1341 213 1159 525 
L 1159 0 
L 581 0 
L 581 4863 
L 1159 4863 
L 1159 2969 
z
" transform="scale(0.015625)"/>
       <path id="DejaVuSans-20" transform="scale(0.015625)"/>
       <path id="DejaVuSans-66" d="M 2375 4863 
L 2375 4384 
L 1825 4384 
Q 1516 4384 1395 4259 
Q 1275 4134 1275 3809 
L 1275 3500 
L 2222 3500 
L 2222 3053 
L 1275 3053 
L 1275 0 
L 697 0 
L 697 3053 
L 147 3053 
L 147 3500 
L 697 3500 
L 697 3744 
Q 697 4328 969 4595 
Q 1241 4863 1831 4863 
L 2375 4863 
z
" transform="scale(0.015625)"/>
       <path id="DejaVuSans-73" d="M 2834 3397 
L 2834 2853 
Q 2591 2978 2328 3040 
Q 2066 3103 1784 3103 
Q 1356 3103 1142 2972 
Q 928 2841 928 2578 
Q 928 2378 1081 2264 
Q 1234 2150 1697 2047 
L 1894 2003 
Q 2506 1872 2764 1633 
Q 3022 1394 3022 966 
Q 3022 478 2636 193 
Q 2250 -91 1575 -91 
Q 1294 -91 989 -36 
Q 684 19 347 128 
L 347 722 
Q 666 556 975 473 
Q 1284 391 1588 391 
Q 1994 391 2212 530 
Q 2431 669 2431 922 
Q 2431 1156 2273 1281 
Q 2116 1406 1581 1522 
L 1381 1569 
Q 847 1681 609 1914 
Q 372 2147 372 2553 
Q 372 3047 722 3315 
Q 1072 3584 1716 3584 
Q 2034 3584 2315 3537 
Q 2597 3491 2834 3397 
z
" transform="scale(0.015625)"/>
       <path id="DejaVuSans-6c" d="M 603 4863 
L 1178 4863 
L 1178 0 
L 603 0 
L 603 4863 
z
" transform="scale(0.015625)"/>
       <path id="DejaVuSans-69" d="M 603 3500 
L 1178 3500 
L 1178 0 
L 603 0 
L 603 3500 
z
M 603 4863 
L 1178 4863 
L 1178 4134 
L 603 4134 
L 603 4863 
z
" transform="scale(0.015625)"/>
       <path id="DejaVuSans-6e" d="M 3513 2113 
L 3513 0 
L 2938 0 
L 2938 2094 
Q 2938 2591 2744 2837 
Q 2550 3084 2163 3084 
Q 1697 3084 1428 2787 
Q 1159 2491 1159 1978 
L 1159 0 
L 581 0 
L 581 3500 
L 1159 3500 
L 1159 2956 
Q 1366 3272 1645 3428 
Q 1925 3584 2291 3584 
Q 2894 3584 3203 3211 
Q 3513 2838 3513 2113 
z
" transform="scale(0.015625)"/>
       <path id="DejaVuSans-6b" d="M 581 4863 
L 1159 4863 
L 1159 1991 
L 2875 3500 
L 3609 3500 
L 1753 1863 
L 3688 0 
L 2938 0 
L 1159 1709 
L 1159 0 
L 581 0 
L 581 4863 
z
" transform="scale(0.015625)"/>
      </defs>
      <use xlink:href="#DejaVuSans-4e"/>
      <use xlink:href="#DejaVuSans-75" x="74.804688"/>
      <use xlink:href="#DejaVuSans-6d" x="138.183594"/>
      <use xlink:href="#DejaVuSans-62" x="235.595703"/>
      <use xlink:href="#DejaVuSans-65" x="299.072266"/>
      <use xlink:href="#DejaVuSans-72" x="360.595703"/>
      <use xlink:href="#DejaVuSans-20" x="401.708984"/>
      <use xlink:href="#DejaVuSans-6f" x="433.496094"/>
      <use xlink:href="#DejaVuSans-66" x="494.677734"/>
      <use xlink:href="#DejaVuSans-20" x="529.882812"/>
      <use xlink:href="#DejaVuSans-63" x="561.669922"/>
      <use xlink:href="#DejaVuSans-72" x="616.650391"/>
      <use xlink:href="#DejaVuSans-6f" x="655.513672"/>
      <use xlink:href="#DejaVuSans-73" x="716.695312"/>
      <use xlink:href="#DejaVuSans-73" x="768.794922"/>
      <use xlink:href="#DejaVuSans-6c" x="820.894531"/>
      <use xlink:href="#DejaVuSans-69" x="848.677734"/>
      <use xlink:href="#DejaVuSans-6e" x="876.460938"/>
      <use xlink:href="#DejaVuSans-6b" x="939.839844"/>
      <use xlink:href="#DejaVuSans-73" x="997.75"/>
     </g>
    </g>
   </g>
   <g id="patch_3">
    <path d="M 57.6 307.584 
L 57.6 41.472 
" style="fill: none; stroke: #000000; stroke-width: 0.8; stroke-linejoin: miter; stroke-linecap: square"/>
   </g>
   <g id="patch_4">
    <path d="M 414.72 307.584 
L 414.72 41.472 
" style="fill: none; stroke: #000000; stroke-width: 0.8; stroke-linejoin: miter; stroke-linecap: square"/>
   </g>
   <g id="patch_5">
    <path d="M 57.6 307.584 
L 414.72 307.584 
" style="fill: none; stroke: #000000; stroke-width: 0.8; stroke-linejoin: miter; stroke-linecap: square"/>
   </g>
   <g id="patch_6">
    <path d="M 57.6 41.472 
L 414.72 41.472 
" style="fill: none; stroke: #000000; stroke-width: 0.8; stroke-linejoin: miter; stroke-linecap: square"/>
   </g>
   <g id="legend_1">
    <g id="patch_7">
     <path d="M 293.087188 93.506375 
L 407.72 93.506375 
Q 409.72 93.506375 409.72 91.506375 
L 409.72 48.472 
Q 409.72 46.472 407.72 46.472 
L 293.087188 46.472 
Q 291.087188 46.472 291.087188 48.472 
L 291.087188 91.506375 
Q 291.087188 93.506375 293.087188 93.506375 
z
" style="fill: #ffffff; opacity: 0.8; stroke: #cccccc; stroke-linejoin: miter"/>
    </g>
    <g id="patch_8">
     <path d="M 295.087188 58.070438 
L 315.087188 58.070438 
L 315.087188 51.070438 
L 295.087188 51.070438 
z
" style="fill: #008000"/>
    </g>
    <g id="text_17">
     <!-- true -->
     <g transform="translate(323.087188 58.070438) scale(0.1 -0.1)">
      <defs>
       <path id="DejaVuSans-74" d="M 1172 4494 
L 1172 3500 
L 2356 3500 
L 2356 3053 
L 1172 3053 
L 1172 1153 
Q 1172 725 1289 603 
Q 1406 481 1766 481 
L 2356 481 
L 2356 0 
L 1766 0 
Q 1100 0 847 248 
Q 594 497 594 1153 
L 594 3053 
L 172 3053 
L 172 3500 
L 594 3500 
L 594 4494 
L 1172 4494 
z
" transform="scale(0.015625)"/>
      </defs>
      <use xlink:href="#DejaVuSans-74"/>
      <use xlink:href="#DejaVuSans-72" x="39.208984"/>
      <use xlink:href="#DejaVuSans-75" x="80.322266"/>
      <use xlink:href="#DejaVuSans-65" x="143.701172"/>
     </g>
    </g>
    <g id="patch_9">
     <path d="M 295.087188 72.748563 
L 315.087188 72.748563 
L 315.087188 65.748563 
L 295.087188 65.748563 
z
" style="fill: #7cfc00"/>
    </g>
    <g id="text_18">
     <!-- true homeotypic -->
     <g transform="translate(323.087188 72.748563) scale(0.1 -0.1)">
      <defs>
       <path id="DejaVuSans-68" d="M 3513 2113 
L 3513 0 
L 2938 0 
L 2938 2094 
Q 2938 2591 2744 2837 
Q 2550 3084 2163 3084 
Q 1697 3084 1428 2787 
Q 1159 2491 1159 1978 
L 1159 0 
L 581 0 
L 581 4863 
L 1159 4863 
L 1159 2956 
Q 1366 3272 1645 3428 
Q 1925 3584 2291 3584 
Q 2894 3584 3203 3211 
Q 3513 2838 3513 2113 
z
" transform="scale(0.015625)"/>
       <path id="DejaVuSans-79" d="M 2059 -325 
Q 1816 -950 1584 -1140 
Q 1353 -1331 966 -1331 
L 506 -1331 
L 506 -850 
L 844 -850 
Q 1081 -850 1212 -737 
Q 1344 -625 1503 -206 
L 1606 56 
L 191 3500 
L 800 3500 
L 1894 763 
L 2988 3500 
L 3597 3500 
L 2059 -325 
z
" transform="scale(0.015625)"/>
       <path id="DejaVuSans-70" d="M 1159 525 
L 1159 -1331 
L 581 -1331 
L 581 3500 
L 1159 3500 
L 1159 2969 
Q 1341 3281 1617 3432 
Q 1894 3584 2278 3584 
Q 2916 3584 3314 3078 
Q 3713 2572 3713 1747 
Q 3713 922 3314 415 
Q 2916 -91 2278 -91 
Q 1894 -91 1617 61 
Q 1341 213 1159 525 
z
M 3116 1747 
Q 3116 2381 2855 2742 
Q 2594 3103 2138 3103 
Q 1681 3103 1420 2742 
Q 1159 2381 1159 1747 
Q 1159 1113 1420 752 
Q 1681 391 2138 391 
Q 2594 391 2855 752 
Q 3116 1113 3116 1747 
z
" transform="scale(0.015625)"/>
      </defs>
      <use xlink:href="#DejaVuSans-74"/>
      <use xlink:href="#DejaVuSans-72" x="39.208984"/>
      <use xlink:href="#DejaVuSans-75" x="80.322266"/>
      <use xlink:href="#DejaVuSans-65" x="143.701172"/>
      <use xlink:href="#DejaVuSans-20" x="205.224609"/>
      <use xlink:href="#DejaVuSans-68" x="237.011719"/>
      <use xlink:href="#DejaVuSans-6f" x="300.390625"/>
      <use xlink:href="#DejaVuSans-6d" x="361.572266"/>
      <use xlink:href="#DejaVuSans-65" x="458.984375"/>
      <use xlink:href="#DejaVuSans-6f" x="520.507812"/>
      <use xlink:href="#DejaVuSans-74" x="581.689453"/>
      <use xlink:href="#DejaVuSans-79" x="620.898438"/>
      <use xlink:href="#DejaVuSans-70" x="680.078125"/>
      <use xlink:href="#DejaVuSans-69" x="743.554688"/>
      <use xlink:href="#DejaVuSans-63" x="771.337891"/>
     </g>
    </g>
    <g id="patch_10">
     <path d="M 295.087188 87.426688 
L 315.087188 87.426688 
L 315.087188 80.426688 
L 295.087188 80.426688 
z
" style="fill: #ff0000"/>
    </g>
    <g id="text_19">
     <!-- false -->
     <g transform="translate(323.087188 87.426688) scale(0.1 -0.1)">
      <defs>
       <path id="DejaVuSans-61" d="M 2194 1759 
Q 1497 1759 1228 1600 
Q 959 1441 959 1056 
Q 959 750 1161 570 
Q 1363 391 1709 391 
Q 2188 391 2477 730 
Q 2766 1069 2766 1631 
L 2766 1759 
L 2194 1759 
z
M 3341 1997 
L 3341 0 
L 2766 0 
L 2766 531 
Q 2569 213 2275 61 
Q 1981 -91 1556 -91 
Q 1019 -91 701 211 
Q 384 513 384 1019 
Q 384 1609 779 1909 
Q 1175 2209 1959 2209 
L 2766 2209 
L 2766 2266 
Q 2766 2663 2505 2880 
Q 2244 3097 1772 3097 
Q 1472 3097 1187 3025 
Q 903 2953 641 2809 
L 641 3341 
Q 956 3463 1253 3523 
Q 1550 3584 1831 3584 
Q 2591 3584 2966 3190 
Q 3341 2797 3341 1997 
z
" transform="scale(0.015625)"/>
      </defs>
      <use xlink:href="#DejaVuSans-66"/>
      <use xlink:href="#DejaVuSans-61" x="35.205078"/>
      <use xlink:href="#DejaVuSans-6c" x="96.484375"/>
      <use xlink:href="#DejaVuSans-73" x="124.267578"/>
      <use xlink:href="#DejaVuSans-65" x="176.367188"/>
     </g>
    </g>
   </g>
  </g>
 </g>
 <defs>
  <clipPath id="pa15d91f83c">
   <rect x="57.6" y="41.472" width="357.12" height="266.112"/>
  </clipPath>
 </defs>
</svg>
