<?xml version="1.0" encoding="utf-8" standalone="no"?>
<!DOCTYPE svg PUBLIC "-//W3C//DTD SVG 1.1//EN"
  "http://www.w3.org/Graphics/SVG/1.1/DTD/svg11.dtd">
<svg xmlns:xlink="http://www.w3.org/1999/xlink" width="460.8pt" height="345.6pt" viewBox="0 0 460.8 345.6" xmlns="http://www.w3.org/2000/svg" version="1.1">
 <metadata>
  <rdf:RDF xmlns:dc="http://purl.org/dc/elements/1.1/" xmlns:cc="http://creativecommons.org/ns#" xmlns:rdf="http://www.w3.org/1999/02/22-rdf-syntax-ns#">
   <cc:Work>
    <dc:type rdf:resource="http://purl.org/dc/dcmitype/StillImage"/>
    <dc:date>2024-10-30T17:51:11.451243</dc:date>
    <dc:format>image/svg+xml</dc:format>
    <dc:creator>
     <cc:Agent>
      <dc:title>Matplotlib v3.9.0, https://matplotlib.org/</dc:title>
     </cc:Agent>
    </dc:creator>
   </cc:Work>
  </rdf:RDF>
 </metadata>
 <defs>
  <style type="text/css">*{stroke-linejoin: round; stroke-linecap: butt}</style>
 </defs>
 <g id="figure_1">
  <g id="patch_1">
   <path d="M 0 345.6 
L 460.8 345.6 
L 460.8 0 
L 0 0 
z
" style="fill: #ffffff"/>
  </g>
  <g id="axes_1">
   <g id="patch_2">
    <path d="M 57.6 307.584 
L 414.72 307.584 
L 414.72 41.472 
L 57.6 41.472 
z
" style="fill: #ffffff"/>
   </g>
   <g id="PolyCollection_1">
    <path d="M 73.832727 105.74943 
L 73.832727 307.584 
L 76.551465 307.584 
L 76.789274 307.584 
L 76.822821 307.584 
L 77.123563 307.584 
L 77.669585 307.584 
L 78.604507 307.584 
L 79.409795 307.584 
L 79.847969 307.584 
L 79.852653 307.584 
L 79.986972 307.584 
L 80.780237 307.584 
L 80.901419 307.584 
L 81.125207 307.584 
L 81.204815 307.584 
L 81.660286 307.584 
L 82.173022 307.584 
L 83.172188 307.584 
L 83.830774 307.584 
L 84.35311 307.584 
L 84.760291 307.584 
L 86.124115 307.584 
L 86.99201 307.584 
L 87.920904 307.584 
L 90.509189 307.584 
L 90.642393 307.584 
L 90.904675 307.584 
L 91.240897 307.584 
L 91.539608 307.584 
L 92.460575 307.584 
L 92.556072 307.584 
L 93.048726 307.584 
L 93.338559 307.584 
L 93.458627 307.584 
L 93.675535 307.584 
L 94.135756 307.584 
L 95.166208 307.584 
L 95.60081 307.584 
L 95.814508 307.584 
L 96.421496 307.584 
L 100.722801 307.584 
L 101.301353 307.584 
L 101.504141 307.584 
L 101.540833 307.584 
L 101.854352 307.584 
L 102.512841 307.584 
L 102.847982 307.584 
L 103.079927 307.584 
L 103.772814 307.584 
L 104.451941 307.584 
L 105.389877 307.584 
L 105.750572 307.584 
L 106.570898 307.584 
L 107.222178 307.584 
L 107.723416 307.584 
L 108.189272 307.584 
L 109.167831 307.584 
L 109.466936 307.584 
L 110.069076 307.584 
L 110.279726 307.584 
L 110.655491 307.584 
L 114.430496 307.584 
L 114.647043 307.584 
L 115.959106 307.584 
L 116.257555 307.584 
L 116.441342 307.584 
L 116.527175 307.584 
L 116.852815 307.584 
L 120.851576 307.584 
L 122.663565 307.584 
L 123.203132 307.584 
L 123.749907 307.584 
L 124.685878 307.584 
L 124.955825 307.584 
L 127.413526 307.584 
L 127.759478 307.584 
L 128.604047 307.584 
L 129.457788 307.584 
L 130.388845 307.584 
L 130.435365 307.584 
L 130.535612 307.584 
L 130.738728 307.584 
L 130.944792 307.584 
L 131.020469 307.584 
L 131.624247 307.584 
L 131.822121 307.584 
L 132.592651 307.584 
L 133.800207 307.584 
L 134.013806 307.584 
L 135.638077 307.584 
L 136.915414 307.584 
L 136.986832 307.584 
L 137.564729 307.584 
L 138.087916 307.584 
L 138.335259 307.584 
L 139.341009 307.584 
L 139.989669 307.584 
L 140.425386 307.584 
L 142.242289 307.584 
L 142.797909 307.584 
L 142.981041 307.584 
L 142.990869 307.584 
L 143.320441 307.584 
L 143.386617 307.584 
L 144.702611 307.584 
L 145.338822 307.584 
L 145.502298 307.584 
L 146.170942 307.584 
L 147.535093 307.584 
L 148.964111 307.584 
L 149.339876 307.584 
L 150.160529 307.584 
L 151.986605 307.584 
L 152.670319 307.584 
L 152.692269 307.584 
L 154.170755 307.584 
L 154.175997 307.584 
L 155.026462 307.584 
L 155.254149 307.584 
L 155.543097 307.584 
L 156.65401 307.584 
L 157.964762 307.584 
L 158.904008 307.584 
L 158.928906 307.584 
L 159.416057 307.584 
L 159.93564 307.584 
L 160.383478 307.584 
L 160.43655 307.584 
L 160.622958 307.584 
L 161.098314 307.584 
L 162.840851 307.584 
L 162.849696 307.584 
L 163.111454 307.584 
L 163.149784 307.584 
L 163.24741 307.584 
L 163.499339 307.584 
L 164.044804 307.584 
L 164.963739 307.584 
L 165.105265 307.584 
L 165.291017 307.584 
L 166.59489 307.584 
L 167.225204 307.584 
L 169.155459 307.584 
L 170.312891 307.584 
L 171.353696 307.584 
L 171.708493 307.584 
L 171.917178 307.584 
L 172.504576 307.584 
L 173.39632 307.584 
L 173.712132 307.584 
L 173.768481 307.584 
L 174.55408 307.584 
L 174.777507 307.584 
L 175.32461 307.584 
L 177.602455 307.584 
L 177.70991 307.584 
L 178.342189 307.584 
L 180.699315 307.584 
L 180.760578 307.584 
L 181.544539 307.584 
L 182.874948 307.584 
L 183.625821 307.584 
L 185.217659 307.584 
L 186.400317 307.584 
L 186.830464 307.584 
L 188.36235 307.584 
L 188.987423 307.584 
L 191.370757 307.584 
L 192.141287 307.584 
L 194.001762 307.584 
L 194.916766 307.584 
L 195.26108 307.584 
L 195.61686 307.584 
L 196.757912 307.584 
L 199.116348 307.584 
L 200.561091 307.584 
L 200.576816 307.584 
L 201.935727 307.584 
L 202.503468 307.584 
L 202.58799 307.584 
L 202.862852 307.584 
L 206.63196 307.584 
L 208.166795 307.584 
L 208.527817 307.584 
L 210.872166 307.584 
L 211.780945 307.584 
L 212.675965 307.584 
L 213.246655 307.584 
L 214.542665 307.584 
L 215.653577 307.584 
L 216.721901 307.584 
L 217.726996 307.584 
L 221.955081 307.584 
L 222.760337 307.584 
L 222.844859 307.584 
L 226.266705 307.584 
L 228.154371 307.584 
L 230.429268 307.584 
L 231.765901 307.584 
L 233.957258 307.584 
L 238.750463 307.584 
L 239.124262 307.584 
L 239.588152 307.584 
L 241.994092 307.584 
L 242.980514 307.584 
L 243.623932 307.584 
L 248.906581 307.584 
L 251.397697 307.584 
L 252.1145 307.584 
L 261.611801 307.584 
L 266.64809 307.584 
L 266.827618 307.584 
L 271.621806 307.584 
L 273.889823 307.584 
L 282.924872 307.584 
L 284.291644 307.584 
L 299.797569 307.584 
L 314.328866 307.584 
L 323.489388 307.584 
L 384.14697 307.584 
L 398.487273 307.584 
L 398.487273 306.437213 
L 398.487273 306.437213 
L 384.14697 305.290425 
L 323.489388 304.143638 
L 314.328866 302.996851 
L 299.797569 301.850063 
L 284.291644 300.703276 
L 282.924872 299.556489 
L 273.889823 298.409701 
L 271.621806 297.262914 
L 266.827618 296.116127 
L 266.64809 294.969339 
L 261.611801 293.822552 
L 252.1145 292.675765 
L 251.397697 291.528977 
L 248.906581 290.38219 
L 243.623932 289.235403 
L 242.980514 288.088615 
L 241.994092 286.941828 
L 239.588152 285.795041 
L 239.124262 284.648253 
L 238.750463 283.501466 
L 233.957258 282.354679 
L 231.765901 281.207891 
L 230.429268 280.061104 
L 228.154371 278.914317 
L 226.266705 277.767529 
L 222.844859 276.620742 
L 222.760337 275.473955 
L 221.955081 274.327167 
L 217.726996 273.18038 
L 216.721901 272.033593 
L 215.653577 270.886805 
L 214.542665 269.740018 
L 213.246655 268.593231 
L 212.675965 267.446443 
L 211.780945 266.299656 
L 210.872166 265.152869 
L 208.527817 264.006081 
L 208.166795 262.859294 
L 206.63196 261.712507 
L 202.862852 260.565719 
L 202.58799 259.418932 
L 202.503468 258.272145 
L 201.935727 257.125357 
L 200.576816 255.97857 
L 200.561091 254.831783 
L 199.116348 253.684995 
L 196.757912 252.538208 
L 195.61686 251.391421 
L 195.26108 250.244633 
L 194.916766 249.097846 
L 194.001762 247.951059 
L 192.141287 246.804271 
L 191.370757 245.657484 
L 188.987423 244.510697 
L 188.36235 243.36391 
L 186.830464 242.217122 
L 186.400317 241.070335 
L 185.217659 239.923548 
L 183.625821 238.77676 
L 182.874948 237.629973 
L 181.544539 237.629973 
L 180.760578 236.483186 
L 180.699315 235.336398 
L 178.342189 234.189611 
L 177.70991 233.042824 
L 177.602455 231.896036 
L 175.32461 231.896036 
L 174.777507 231.896036 
L 174.55408 230.749249 
L 173.768481 229.602462 
L 173.712132 228.455674 
L 173.39632 227.308887 
L 172.504576 226.1621 
L 171.917178 225.015312 
L 171.708493 223.868525 
L 171.353696 222.721738 
L 170.312891 222.721738 
L 169.155459 221.57495 
L 167.225204 220.428163 
L 166.59489 219.281376 
L 165.291017 218.134588 
L 165.105265 216.987801 
L 164.963739 215.841014 
L 164.044804 214.694226 
L 163.499339 213.547439 
L 163.24741 212.400652 
L 163.149784 211.253864 
L 163.111454 210.107077 
L 162.849696 208.96029 
L 162.840851 207.813502 
L 161.098314 206.666715 
L 160.622958 205.519928 
L 160.43655 205.519928 
L 160.383478 204.37314 
L 159.93564 203.226353 
L 159.416057 202.079566 
L 158.928906 200.932778 
L 158.904008 199.785991 
L 157.964762 198.639204 
L 156.65401 197.492416 
L 155.543097 196.345629 
L 155.254149 195.198842 
L 155.026462 194.052054 
L 154.175997 192.905267 
L 154.170755 191.75848 
L 152.692269 190.611692 
L 152.670319 189.464905 
L 151.986605 188.318118 
L 150.160529 187.17133 
L 149.339876 186.024543 
L 148.964111 184.877756 
L 147.535093 183.730968 
L 146.170942 182.584181 
L 145.502298 181.437394 
L 145.338822 180.290606 
L 144.702611 179.143819 
L 143.386617 177.997032 
L 143.320441 176.850244 
L 142.990869 175.703457 
L 142.981041 174.55667 
L 142.797909 173.409882 
L 142.242289 172.263095 
L 140.425386 171.116308 
L 139.989669 171.116308 
L 139.341009 169.96952 
L 138.335259 168.822733 
L 138.087916 168.822733 
L 137.564729 167.675946 
L 136.986832 166.529158 
L 136.915414 165.382371 
L 135.638077 164.235584 
L 134.013806 163.088796 
L 133.800207 161.942009 
L 132.592651 160.795222 
L 131.822121 159.648434 
L 131.624247 158.501647 
L 131.020469 157.35486 
L 130.944792 156.208072 
L 130.738728 155.061285 
L 130.535612 153.914498 
L 130.435365 153.914498 
L 130.388845 152.76771 
L 129.457788 151.620923 
L 128.604047 150.474136 
L 127.759478 149.327348 
L 127.413526 149.327348 
L 124.955825 148.180561 
L 124.685878 147.033774 
L 123.749907 145.886986 
L 123.203132 144.740199 
L 122.663565 143.593412 
L 120.851576 142.446624 
L 116.852815 141.299837 
L 116.527175 141.299837 
L 116.441342 141.299837 
L 116.257555 140.15305 
L 115.959106 139.006262 
L 114.647043 137.859475 
L 114.430496 136.712688 
L 110.655491 135.5659 
L 110.279726 134.419113 
L 110.069076 133.272326 
L 109.466936 133.272326 
L 109.167831 133.272326 
L 108.189272 133.272326 
L 107.723416 132.125538 
L 107.222178 130.978751 
L 106.570898 130.978751 
L 105.750572 130.978751 
L 105.389877 130.978751 
L 104.451941 129.831964 
L 103.772814 129.831964 
L 103.079927 129.831964 
L 102.847982 128.685176 
L 102.512841 127.538389 
L 101.854352 126.391602 
L 101.540833 125.244814 
L 101.504141 125.244814 
L 101.301353 125.244814 
L 100.722801 125.244814 
L 96.421496 124.098027 
L 95.814508 122.95124 
L 95.60081 122.95124 
L 95.166208 121.804452 
L 94.135756 120.657665 
L 93.675535 120.657665 
L 93.458627 120.657665 
L 93.338559 120.657665 
L 93.048726 119.510878 
L 92.556072 119.510878 
L 92.460575 118.36409 
L 91.539608 117.217303 
L 91.240897 117.217303 
L 90.904675 117.217303 
L 90.642393 117.217303 
L 90.509189 116.070516 
L 87.920904 116.070516 
L 86.99201 116.070516 
L 86.124115 114.923729 
L 84.760291 114.923729 
L 84.35311 114.923729 
L 83.830774 113.776941 
L 83.172188 113.776941 
L 82.173022 112.630154 
L 81.660286 112.630154 
L 81.204815 112.630154 
L 81.125207 112.630154 
L 80.901419 111.483367 
L 80.780237 111.483367 
L 79.986972 111.483367 
L 79.852653 110.336579 
L 79.847969 110.336579 
L 79.409795 110.336579 
L 78.604507 109.189792 
L 77.669585 109.189792 
L 77.123563 108.043005 
L 76.822821 106.896217 
L 76.789274 105.74943 
L 76.551465 105.74943 
L 73.832727 105.74943 
z
" clip-path="url(#pe7dabcaf59)" style="fill: #008000"/>
   </g>
   <g id="PolyCollection_2">
    <path d="M 73.832727 98.868706 
L 73.832727 105.74943 
L 76.551465 105.74943 
L 76.789274 105.74943 
L 76.822821 106.896217 
L 77.123563 108.043005 
L 77.669585 109.189792 
L 78.604507 109.189792 
L 79.409795 110.336579 
L 79.847969 110.336579 
L 79.852653 110.336579 
L 79.986972 111.483367 
L 80.780237 111.483367 
L 80.901419 111.483367 
L 81.125207 112.630154 
L 81.204815 112.630154 
L 81.660286 112.630154 
L 82.173022 112.630154 
L 83.172188 113.776941 
L 83.830774 113.776941 
L 84.35311 114.923729 
L 84.760291 114.923729 
L 86.124115 114.923729 
L 86.99201 116.070516 
L 87.920904 116.070516 
L 90.509189 116.070516 
L 90.642393 117.217303 
L 90.904675 117.217303 
L 91.240897 117.217303 
L 91.539608 117.217303 
L 92.460575 118.36409 
L 92.556072 119.510878 
L 93.048726 119.510878 
L 93.338559 120.657665 
L 93.458627 120.657665 
L 93.675535 120.657665 
L 94.135756 120.657665 
L 95.166208 121.804452 
L 95.60081 122.95124 
L 95.814508 122.95124 
L 96.421496 124.098027 
L 100.722801 125.244814 
L 101.301353 125.244814 
L 101.504141 125.244814 
L 101.540833 125.244814 
L 101.854352 126.391602 
L 102.512841 127.538389 
L 102.847982 128.685176 
L 103.079927 129.831964 
L 103.772814 129.831964 
L 104.451941 129.831964 
L 105.389877 130.978751 
L 105.750572 130.978751 
L 106.570898 130.978751 
L 107.222178 130.978751 
L 107.723416 132.125538 
L 108.189272 133.272326 
L 109.167831 133.272326 
L 109.466936 133.272326 
L 110.069076 133.272326 
L 110.279726 134.419113 
L 110.655491 135.5659 
L 114.430496 136.712688 
L 114.647043 137.859475 
L 115.959106 139.006262 
L 116.257555 140.15305 
L 116.441342 141.299837 
L 116.527175 141.299837 
L 116.852815 141.299837 
L 120.851576 142.446624 
L 122.663565 143.593412 
L 123.203132 144.740199 
L 123.749907 145.886986 
L 124.685878 147.033774 
L 124.955825 148.180561 
L 127.413526 149.327348 
L 127.759478 149.327348 
L 128.604047 150.474136 
L 129.457788 151.620923 
L 130.388845 152.76771 
L 130.435365 153.914498 
L 130.535612 153.914498 
L 130.738728 155.061285 
L 130.944792 156.208072 
L 131.020469 157.35486 
L 131.624247 158.501647 
L 131.822121 159.648434 
L 132.592651 160.795222 
L 133.800207 161.942009 
L 134.013806 163.088796 
L 135.638077 164.235584 
L 136.915414 165.382371 
L 136.986832 166.529158 
L 137.564729 167.675946 
L 138.087916 168.822733 
L 138.335259 168.822733 
L 139.341009 169.96952 
L 139.989669 171.116308 
L 140.425386 171.116308 
L 142.242289 172.263095 
L 142.797909 173.409882 
L 142.981041 174.55667 
L 142.990869 175.703457 
L 143.320441 176.850244 
L 143.386617 177.997032 
L 144.702611 179.143819 
L 145.338822 180.290606 
L 145.502298 181.437394 
L 146.170942 182.584181 
L 147.535093 183.730968 
L 148.964111 184.877756 
L 149.339876 186.024543 
L 150.160529 187.17133 
L 151.986605 188.318118 
L 152.670319 189.464905 
L 152.692269 190.611692 
L 154.170755 191.75848 
L 154.175997 192.905267 
L 155.026462 194.052054 
L 155.254149 195.198842 
L 155.543097 196.345629 
L 156.65401 197.492416 
L 157.964762 198.639204 
L 158.904008 199.785991 
L 158.928906 200.932778 
L 159.416057 202.079566 
L 159.93564 203.226353 
L 160.383478 204.37314 
L 160.43655 205.519928 
L 160.622958 205.519928 
L 161.098314 206.666715 
L 162.840851 207.813502 
L 162.849696 208.96029 
L 163.111454 210.107077 
L 163.149784 211.253864 
L 163.24741 212.400652 
L 163.499339 213.547439 
L 164.044804 214.694226 
L 164.963739 215.841014 
L 165.105265 216.987801 
L 165.291017 218.134588 
L 166.59489 219.281376 
L 167.225204 220.428163 
L 169.155459 221.57495 
L 170.312891 222.721738 
L 171.353696 222.721738 
L 171.708493 223.868525 
L 171.917178 225.015312 
L 172.504576 226.1621 
L 173.39632 227.308887 
L 173.712132 228.455674 
L 173.768481 229.602462 
L 174.55408 230.749249 
L 174.777507 231.896036 
L 175.32461 231.896036 
L 177.602455 231.896036 
L 177.70991 233.042824 
L 178.342189 234.189611 
L 180.699315 235.336398 
L 180.760578 236.483186 
L 181.544539 237.629973 
L 182.874948 237.629973 
L 183.625821 238.77676 
L 185.217659 239.923548 
L 186.400317 241.070335 
L 186.830464 242.217122 
L 188.36235 243.36391 
L 188.987423 244.510697 
L 191.370757 245.657484 
L 192.141287 246.804271 
L 194.001762 247.951059 
L 194.916766 249.097846 
L 195.26108 250.244633 
L 195.61686 251.391421 
L 196.757912 252.538208 
L 199.116348 253.684995 
L 200.561091 254.831783 
L 200.576816 255.97857 
L 201.935727 257.125357 
L 202.503468 258.272145 
L 202.58799 259.418932 
L 202.862852 260.565719 
L 206.63196 261.712507 
L 208.166795 262.859294 
L 208.527817 264.006081 
L 210.872166 265.152869 
L 211.780945 266.299656 
L 212.675965 267.446443 
L 213.246655 268.593231 
L 214.542665 269.740018 
L 215.653577 270.886805 
L 216.721901 272.033593 
L 217.726996 273.18038 
L 221.955081 274.327167 
L 222.760337 275.473955 
L 222.844859 276.620742 
L 226.266705 277.767529 
L 228.154371 278.914317 
L 230.429268 280.061104 
L 231.765901 281.207891 
L 233.957258 282.354679 
L 238.750463 283.501466 
L 239.124262 284.648253 
L 239.588152 285.795041 
L 241.994092 286.941828 
L 242.980514 288.088615 
L 243.623932 289.235403 
L 248.906581 290.38219 
L 251.397697 291.528977 
L 252.1145 292.675765 
L 261.611801 293.822552 
L 266.64809 294.969339 
L 266.827618 296.116127 
L 271.621806 297.262914 
L 273.889823 298.409701 
L 282.924872 299.556489 
L 284.291644 300.703276 
L 299.797569 301.850063 
L 314.328866 302.996851 
L 323.489388 304.143638 
L 384.14697 305.290425 
L 398.487273 306.437213 
L 398.487273 306.437213 
L 398.487273 306.437213 
L 384.14697 305.290425 
L 323.489388 304.143638 
L 314.328866 302.996851 
L 299.797569 301.850063 
L 284.291644 300.703276 
L 282.924872 299.556489 
L 273.889823 298.409701 
L 271.621806 297.262914 
L 266.827618 296.116127 
L 266.64809 294.969339 
L 261.611801 293.822552 
L 252.1145 292.675765 
L 251.397697 291.528977 
L 248.906581 290.38219 
L 243.623932 289.235403 
L 242.980514 288.088615 
L 241.994092 286.941828 
L 239.588152 285.795041 
L 239.124262 284.648253 
L 238.750463 283.501466 
L 233.957258 282.354679 
L 231.765901 281.207891 
L 230.429268 280.061104 
L 228.154371 278.914317 
L 226.266705 277.767529 
L 222.844859 276.620742 
L 222.760337 275.473955 
L 221.955081 274.327167 
L 217.726996 273.18038 
L 216.721901 272.033593 
L 215.653577 270.886805 
L 214.542665 269.740018 
L 213.246655 268.593231 
L 212.675965 267.446443 
L 211.780945 266.299656 
L 210.872166 265.152869 
L 208.527817 264.006081 
L 208.166795 262.859294 
L 206.63196 261.712507 
L 202.862852 260.565719 
L 202.58799 259.418932 
L 202.503468 258.272145 
L 201.935727 257.125357 
L 200.576816 255.97857 
L 200.561091 254.831783 
L 199.116348 253.684995 
L 196.757912 252.538208 
L 195.61686 251.391421 
L 195.26108 250.244633 
L 194.916766 249.097846 
L 194.001762 247.951059 
L 192.141287 246.804271 
L 191.370757 245.657484 
L 188.987423 244.510697 
L 188.36235 243.36391 
L 186.830464 242.217122 
L 186.400317 241.070335 
L 185.217659 239.923548 
L 183.625821 238.77676 
L 182.874948 237.629973 
L 181.544539 236.483186 
L 180.760578 235.336398 
L 180.699315 234.189611 
L 178.342189 233.042824 
L 177.70991 231.896036 
L 177.602455 230.749249 
L 175.32461 230.749249 
L 174.777507 229.602462 
L 174.55408 228.455674 
L 173.768481 227.308887 
L 173.712132 226.1621 
L 173.39632 225.015312 
L 172.504576 223.868525 
L 171.917178 222.721738 
L 171.708493 221.57495 
L 171.353696 220.428163 
L 170.312891 219.281376 
L 169.155459 218.134588 
L 167.225204 216.987801 
L 166.59489 215.841014 
L 165.291017 214.694226 
L 165.105265 213.547439 
L 164.963739 212.400652 
L 164.044804 211.253864 
L 163.499339 210.107077 
L 163.24741 208.96029 
L 163.149784 207.813502 
L 163.111454 206.666715 
L 162.849696 205.519928 
L 162.840851 204.37314 
L 161.098314 203.226353 
L 160.622958 202.079566 
L 160.43655 202.079566 
L 160.383478 200.932778 
L 159.93564 199.785991 
L 159.416057 198.639204 
L 158.928906 197.492416 
L 158.904008 196.345629 
L 157.964762 195.198842 
L 156.65401 194.052054 
L 155.543097 192.905267 
L 155.254149 191.75848 
L 155.026462 190.611692 
L 154.175997 189.464905 
L 154.170755 188.318118 
L 152.692269 187.17133 
L 152.670319 186.024543 
L 151.986605 184.877756 
L 150.160529 183.730968 
L 149.339876 182.584181 
L 148.964111 181.437394 
L 147.535093 180.290606 
L 146.170942 179.143819 
L 145.502298 177.997032 
L 145.338822 176.850244 
L 144.702611 175.703457 
L 143.386617 174.55667 
L 143.320441 173.409882 
L 142.990869 172.263095 
L 142.981041 171.116308 
L 142.797909 169.96952 
L 142.242289 168.822733 
L 140.425386 167.675946 
L 139.989669 166.529158 
L 139.341009 165.382371 
L 138.335259 164.235584 
L 138.087916 164.235584 
L 137.564729 163.088796 
L 136.986832 161.942009 
L 136.915414 160.795222 
L 135.638077 159.648434 
L 134.013806 158.501647 
L 133.800207 157.35486 
L 132.592651 156.208072 
L 131.822121 155.061285 
L 131.624247 153.914498 
L 131.020469 152.76771 
L 130.944792 151.620923 
L 130.738728 150.474136 
L 130.535612 149.327348 
L 130.435365 149.327348 
L 130.388845 148.180561 
L 129.457788 147.033774 
L 128.604047 145.886986 
L 127.759478 144.740199 
L 127.413526 144.740199 
L 124.955825 143.593412 
L 124.685878 142.446624 
L 123.749907 141.299837 
L 123.203132 140.15305 
L 122.663565 139.006262 
L 120.851576 137.859475 
L 116.852815 136.712688 
L 116.527175 136.712688 
L 116.441342 136.712688 
L 116.257555 135.5659 
L 115.959106 134.419113 
L 114.647043 133.272326 
L 114.430496 132.125538 
L 110.655491 130.978751 
L 110.279726 129.831964 
L 110.069076 128.685176 
L 109.466936 128.685176 
L 109.167831 128.685176 
L 108.189272 128.685176 
L 107.723416 127.538389 
L 107.222178 126.391602 
L 106.570898 126.391602 
L 105.750572 126.391602 
L 105.389877 126.391602 
L 104.451941 125.244814 
L 103.772814 125.244814 
L 103.079927 125.244814 
L 102.847982 124.098027 
L 102.512841 122.95124 
L 101.854352 121.804452 
L 101.540833 120.657665 
L 101.504141 120.657665 
L 101.301353 120.657665 
L 100.722801 119.510878 
L 96.421496 118.36409 
L 95.814508 117.217303 
L 95.60081 117.217303 
L 95.166208 116.070516 
L 94.135756 114.923729 
L 93.675535 114.923729 
L 93.458627 114.923729 
L 93.338559 114.923729 
L 93.048726 113.776941 
L 92.556072 113.776941 
L 92.460575 112.630154 
L 91.539608 111.483367 
L 91.240897 111.483367 
L 90.904675 111.483367 
L 90.642393 111.483367 
L 90.509189 110.336579 
L 87.920904 110.336579 
L 86.99201 110.336579 
L 86.124115 109.189792 
L 84.760291 109.189792 
L 84.35311 109.189792 
L 83.830774 108.043005 
L 83.172188 108.043005 
L 82.173022 106.896217 
L 81.660286 106.896217 
L 81.204815 106.896217 
L 81.125207 105.74943 
L 80.901419 104.602643 
L 80.780237 104.602643 
L 79.986972 104.602643 
L 79.852653 103.455855 
L 79.847969 103.455855 
L 79.409795 103.455855 
L 78.604507 102.309068 
L 77.669585 102.309068 
L 77.123563 101.162281 
L 76.822821 100.015493 
L 76.789274 98.868706 
L 76.551465 98.868706 
L 73.832727 98.868706 
z
" clip-path="url(#pe7dabcaf59)" style="fill: #7cfc00"/>
   </g>
   <g id="PolyCollection_3">
    <path d="M 73.832727 54.144 
L 73.832727 98.868706 
L 76.551465 98.868706 
L 76.789274 98.868706 
L 76.822821 100.015493 
L 77.123563 101.162281 
L 77.669585 102.309068 
L 78.604507 102.309068 
L 79.409795 103.455855 
L 79.847969 103.455855 
L 79.852653 103.455855 
L 79.986972 104.602643 
L 80.780237 104.602643 
L 80.901419 104.602643 
L 81.125207 105.74943 
L 81.204815 106.896217 
L 81.660286 106.896217 
L 82.173022 106.896217 
L 83.172188 108.043005 
L 83.830774 108.043005 
L 84.35311 109.189792 
L 84.760291 109.189792 
L 86.124115 109.189792 
L 86.99201 110.336579 
L 87.920904 110.336579 
L 90.509189 110.336579 
L 90.642393 111.483367 
L 90.904675 111.483367 
L 91.240897 111.483367 
L 91.539608 111.483367 
L 92.460575 112.630154 
L 92.556072 113.776941 
L 93.048726 113.776941 
L 93.338559 114.923729 
L 93.458627 114.923729 
L 93.675535 114.923729 
L 94.135756 114.923729 
L 95.166208 116.070516 
L 95.60081 117.217303 
L 95.814508 117.217303 
L 96.421496 118.36409 
L 100.722801 119.510878 
L 101.301353 120.657665 
L 101.504141 120.657665 
L 101.540833 120.657665 
L 101.854352 121.804452 
L 102.512841 122.95124 
L 102.847982 124.098027 
L 103.079927 125.244814 
L 103.772814 125.244814 
L 104.451941 125.244814 
L 105.389877 126.391602 
L 105.750572 126.391602 
L 106.570898 126.391602 
L 107.222178 126.391602 
L 107.723416 127.538389 
L 108.189272 128.685176 
L 109.167831 128.685176 
L 109.466936 128.685176 
L 110.069076 128.685176 
L 110.279726 129.831964 
L 110.655491 130.978751 
L 114.430496 132.125538 
L 114.647043 133.272326 
L 115.959106 134.419113 
L 116.257555 135.5659 
L 116.441342 136.712688 
L 116.527175 136.712688 
L 116.852815 136.712688 
L 120.851576 137.859475 
L 122.663565 139.006262 
L 123.203132 140.15305 
L 123.749907 141.299837 
L 124.685878 142.446624 
L 124.955825 143.593412 
L 127.413526 144.740199 
L 127.759478 144.740199 
L 128.604047 145.886986 
L 129.457788 147.033774 
L 130.388845 148.180561 
L 130.435365 149.327348 
L 130.535612 149.327348 
L 130.738728 150.474136 
L 130.944792 151.620923 
L 131.020469 152.76771 
L 131.624247 153.914498 
L 131.822121 155.061285 
L 132.592651 156.208072 
L 133.800207 157.35486 
L 134.013806 158.501647 
L 135.638077 159.648434 
L 136.915414 160.795222 
L 136.986832 161.942009 
L 137.564729 163.088796 
L 138.087916 164.235584 
L 138.335259 164.235584 
L 139.341009 165.382371 
L 139.989669 166.529158 
L 140.425386 167.675946 
L 142.242289 168.822733 
L 142.797909 169.96952 
L 142.981041 171.116308 
L 142.990869 172.263095 
L 143.320441 173.409882 
L 143.386617 174.55667 
L 144.702611 175.703457 
L 145.338822 176.850244 
L 145.502298 177.997032 
L 146.170942 179.143819 
L 147.535093 180.290606 
L 148.964111 181.437394 
L 149.339876 182.584181 
L 150.160529 183.730968 
L 151.986605 184.877756 
L 152.670319 186.024543 
L 152.692269 187.17133 
L 154.170755 188.318118 
L 154.175997 189.464905 
L 155.026462 190.611692 
L 155.254149 191.75848 
L 155.543097 192.905267 
L 156.65401 194.052054 
L 157.964762 195.198842 
L 158.904008 196.345629 
L 158.928906 197.492416 
L 159.416057 198.639204 
L 159.93564 199.785991 
L 160.383478 200.932778 
L 160.43655 202.079566 
L 160.622958 202.079566 
L 161.098314 203.226353 
L 162.840851 204.37314 
L 162.849696 205.519928 
L 163.111454 206.666715 
L 163.149784 207.813502 
L 163.24741 208.96029 
L 163.499339 210.107077 
L 164.044804 211.253864 
L 164.963739 212.400652 
L 165.105265 213.547439 
L 165.291017 214.694226 
L 166.59489 215.841014 
L 167.225204 216.987801 
L 169.155459 218.134588 
L 170.312891 219.281376 
L 171.353696 220.428163 
L 171.708493 221.57495 
L 171.917178 222.721738 
L 172.504576 223.868525 
L 173.39632 225.015312 
L 173.712132 226.1621 
L 173.768481 227.308887 
L 174.55408 228.455674 
L 174.777507 229.602462 
L 175.32461 230.749249 
L 177.602455 230.749249 
L 177.70991 231.896036 
L 178.342189 233.042824 
L 180.699315 234.189611 
L 180.760578 235.336398 
L 181.544539 236.483186 
L 182.874948 237.629973 
L 183.625821 238.77676 
L 185.217659 239.923548 
L 186.400317 241.070335 
L 186.830464 242.217122 
L 188.36235 243.36391 
L 188.987423 244.510697 
L 191.370757 245.657484 
L 192.141287 246.804271 
L 194.001762 247.951059 
L 194.916766 249.097846 
L 195.26108 250.244633 
L 195.61686 251.391421 
L 196.757912 252.538208 
L 199.116348 253.684995 
L 200.561091 254.831783 
L 200.576816 255.97857 
L 201.935727 257.125357 
L 202.503468 258.272145 
L 202.58799 259.418932 
L 202.862852 260.565719 
L 206.63196 261.712507 
L 208.166795 262.859294 
L 208.527817 264.006081 
L 210.872166 265.152869 
L 211.780945 266.299656 
L 212.675965 267.446443 
L 213.246655 268.593231 
L 214.542665 269.740018 
L 215.653577 270.886805 
L 216.721901 272.033593 
L 217.726996 273.18038 
L 221.955081 274.327167 
L 222.760337 275.473955 
L 222.844859 276.620742 
L 226.266705 277.767529 
L 228.154371 278.914317 
L 230.429268 280.061104 
L 231.765901 281.207891 
L 233.957258 282.354679 
L 238.750463 283.501466 
L 239.124262 284.648253 
L 239.588152 285.795041 
L 241.994092 286.941828 
L 242.980514 288.088615 
L 243.623932 289.235403 
L 248.906581 290.38219 
L 251.397697 291.528977 
L 252.1145 292.675765 
L 261.611801 293.822552 
L 266.64809 294.969339 
L 266.827618 296.116127 
L 271.621806 297.262914 
L 273.889823 298.409701 
L 282.924872 299.556489 
L 284.291644 300.703276 
L 299.797569 301.850063 
L 314.328866 302.996851 
L 323.489388 304.143638 
L 384.14697 305.290425 
L 398.487273 306.437213 
L 398.487273 306.437213 
L 398.487273 306.437213 
L 384.14697 305.290425 
L 323.489388 304.143638 
L 314.328866 302.996851 
L 299.797569 301.850063 
L 284.291644 300.703276 
L 282.924872 299.556489 
L 273.889823 298.409701 
L 271.621806 297.262914 
L 266.827618 296.116127 
L 266.64809 294.969339 
L 261.611801 293.822552 
L 252.1145 292.675765 
L 251.397697 291.528977 
L 248.906581 290.38219 
L 243.623932 289.235403 
L 242.980514 288.088615 
L 241.994092 286.941828 
L 239.588152 285.795041 
L 239.124262 284.648253 
L 238.750463 283.501466 
L 233.957258 282.354679 
L 231.765901 281.207891 
L 230.429268 280.061104 
L 228.154371 278.914317 
L 226.266705 277.767529 
L 222.844859 276.620742 
L 222.760337 275.473955 
L 221.955081 274.327167 
L 217.726996 273.18038 
L 216.721901 272.033593 
L 215.653577 270.886805 
L 214.542665 269.740018 
L 213.246655 268.593231 
L 212.675965 267.446443 
L 211.780945 266.299656 
L 210.872166 265.152869 
L 208.527817 264.006081 
L 208.166795 262.859294 
L 206.63196 261.712507 
L 202.862852 260.565719 
L 202.58799 259.418932 
L 202.503468 258.272145 
L 201.935727 257.125357 
L 200.576816 255.97857 
L 200.561091 254.831783 
L 199.116348 253.684995 
L 196.757912 252.538208 
L 195.61686 251.391421 
L 195.26108 250.244633 
L 194.916766 249.097846 
L 194.001762 247.951059 
L 192.141287 246.804271 
L 191.370757 245.657484 
L 188.987423 244.510697 
L 188.36235 243.36391 
L 186.830464 242.217122 
L 186.400317 241.070335 
L 185.217659 239.923548 
L 183.625821 238.77676 
L 182.874948 237.629973 
L 181.544539 236.483186 
L 180.760578 235.336398 
L 180.699315 234.189611 
L 178.342189 233.042824 
L 177.70991 231.896036 
L 177.602455 230.749249 
L 175.32461 229.602462 
L 174.777507 228.455674 
L 174.55408 227.308887 
L 173.768481 226.1621 
L 173.712132 225.015312 
L 173.39632 223.868525 
L 172.504576 222.721738 
L 171.917178 221.57495 
L 171.708493 220.428163 
L 171.353696 219.281376 
L 170.312891 218.134588 
L 169.155459 216.987801 
L 167.225204 215.841014 
L 166.59489 214.694226 
L 165.291017 213.547439 
L 165.105265 212.400652 
L 164.963739 211.253864 
L 164.044804 210.107077 
L 163.499339 208.96029 
L 163.24741 207.813502 
L 163.149784 206.666715 
L 163.111454 205.519928 
L 162.849696 204.37314 
L 162.840851 203.226353 
L 161.098314 202.079566 
L 160.622958 200.932778 
L 160.43655 199.785991 
L 160.383478 198.639204 
L 159.93564 197.492416 
L 159.416057 196.345629 
L 158.928906 195.198842 
L 158.904008 194.052054 
L 157.964762 192.905267 
L 156.65401 191.75848 
L 155.543097 190.611692 
L 155.254149 189.464905 
L 155.026462 188.318118 
L 154.175997 187.17133 
L 154.170755 186.024543 
L 152.692269 184.877756 
L 152.670319 183.730968 
L 151.986605 182.584181 
L 150.160529 181.437394 
L 149.339876 180.290606 
L 148.964111 179.143819 
L 147.535093 177.997032 
L 146.170942 176.850244 
L 145.502298 175.703457 
L 145.338822 174.55667 
L 144.702611 173.409882 
L 143.386617 172.263095 
L 143.320441 171.116308 
L 142.990869 169.96952 
L 142.981041 168.822733 
L 142.797909 167.675946 
L 142.242289 166.529158 
L 140.425386 165.382371 
L 139.989669 164.235584 
L 139.341009 163.088796 
L 138.335259 161.942009 
L 138.087916 160.795222 
L 137.564729 159.648434 
L 136.986832 158.501647 
L 136.915414 157.35486 
L 135.638077 156.208072 
L 134.013806 155.061285 
L 133.800207 153.914498 
L 132.592651 152.76771 
L 131.822121 151.620923 
L 131.624247 150.474136 
L 131.020469 149.327348 
L 130.944792 148.180561 
L 130.738728 147.033774 
L 130.535612 145.886986 
L 130.435365 144.740199 
L 130.388845 143.593412 
L 129.457788 142.446624 
L 128.604047 141.299837 
L 127.759478 140.15305 
L 127.413526 139.006262 
L 124.955825 137.859475 
L 124.685878 136.712688 
L 123.749907 135.5659 
L 123.203132 134.419113 
L 122.663565 133.272326 
L 120.851576 132.125538 
L 116.852815 130.978751 
L 116.527175 129.831964 
L 116.441342 128.685176 
L 116.257555 127.538389 
L 115.959106 126.391602 
L 114.647043 125.244814 
L 114.430496 124.098027 
L 110.655491 122.95124 
L 110.279726 121.804452 
L 110.069076 120.657665 
L 109.466936 119.510878 
L 109.167831 118.36409 
L 108.189272 117.217303 
L 107.723416 116.070516 
L 107.222178 114.923729 
L 106.570898 113.776941 
L 105.750572 112.630154 
L 105.389877 111.483367 
L 104.451941 110.336579 
L 103.772814 109.189792 
L 103.079927 108.043005 
L 102.847982 106.896217 
L 102.512841 105.74943 
L 101.854352 104.602643 
L 101.540833 103.455855 
L 101.504141 102.309068 
L 101.301353 101.162281 
L 100.722801 100.015493 
L 96.421496 98.868706 
L 95.814508 97.721919 
L 95.60081 96.575131 
L 95.166208 95.428344 
L 94.135756 94.281557 
L 93.675535 93.134769 
L 93.458627 91.987982 
L 93.338559 90.841195 
L 93.048726 89.694407 
L 92.556072 88.54762 
L 92.460575 87.400833 
L 91.539608 86.254045 
L 91.240897 85.107258 
L 90.904675 83.960471 
L 90.642393 82.813683 
L 90.509189 81.666896 
L 87.920904 80.520109 
L 86.99201 79.373321 
L 86.124115 78.226534 
L 84.760291 77.079747 
L 84.35311 75.932959 
L 83.830774 74.786172 
L 83.172188 73.639385 
L 82.173022 72.492597 
L 81.660286 71.34581 
L 81.204815 70.199023 
L 81.125207 69.052235 
L 80.901419 67.905448 
L 80.780237 66.758661 
L 79.986972 65.611873 
L 79.852653 64.465086 
L 79.847969 63.318299 
L 79.409795 62.171511 
L 78.604507 61.024724 
L 77.669585 59.877937 
L 77.123563 58.731149 
L 76.822821 57.584362 
L 76.789274 56.437575 
L 76.551465 55.290787 
L 73.832727 54.144 
z
" clip-path="url(#pe7dabcaf59)" style="fill: #ff0000"/>
   </g>
   <g id="matplotlib.axis_1">
    <g id="xtick_1">
     <g id="line2d_1">
      <defs>
       <path id="mb49ee74bc5" d="M 0 0 
L 0 3.5 
" style="stroke: #000000; stroke-width: 0.8"/>
      </defs>
      <g>
       <use xlink:href="#mb49ee74bc5" x="63.762279" y="307.584" style="stroke: #000000; stroke-width: 0.8"/>
      </g>
     </g>
     <g id="text_1">
      <!-- 0 -->
      <g transform="translate(60.581029 322.182437) scale(0.1 -0.1)">
       <defs>
        <path id="DejaVuSans-30" d="M 2034 4250 
Q 1547 4250 1301 3770 
Q 1056 3291 1056 2328 
Q 1056 1369 1301 889 
Q 1547 409 2034 409 
Q 2525 409 2770 889 
Q 3016 1369 3016 2328 
Q 3016 3291 2770 3770 
Q 2525 4250 2034 4250 
z
M 2034 4750 
Q 2819 4750 3233 4129 
Q 3647 3509 3647 2328 
Q 3647 1150 3233 529 
Q 2819 -91 2034 -91 
Q 1250 -91 836 529 
Q 422 1150 422 2328 
Q 422 3509 836 4129 
Q 1250 4750 2034 4750 
z
" transform="scale(0.015625)"/>
       </defs>
       <use xlink:href="#DejaVuSans-30"/>
      </g>
     </g>
    </g>
    <g id="xtick_2">
     <g id="line2d_2">
      <g>
       <use xlink:href="#mb49ee74bc5" x="129.283502" y="307.584" style="stroke: #000000; stroke-width: 0.8"/>
      </g>
     </g>
     <g id="text_2">
      <!-- 2 -->
      <g transform="translate(126.102252 322.182437) scale(0.1 -0.1)">
       <defs>
        <path id="DejaVuSans-32" d="M 1228 531 
L 3431 531 
L 3431 0 
L 469 0 
L 469 531 
Q 828 903 1448 1529 
Q 2069 2156 2228 2338 
Q 2531 2678 2651 2914 
Q 2772 3150 2772 3378 
Q 2772 3750 2511 3984 
Q 2250 4219 1831 4219 
Q 1534 4219 1204 4116 
Q 875 4013 500 3803 
L 500 4441 
Q 881 4594 1212 4672 
Q 1544 4750 1819 4750 
Q 2544 4750 2975 4387 
Q 3406 4025 3406 3419 
Q 3406 3131 3298 2873 
Q 3191 2616 2906 2266 
Q 2828 2175 2409 1742 
Q 1991 1309 1228 531 
z
" transform="scale(0.015625)"/>
       </defs>
       <use xlink:href="#DejaVuSans-32"/>
      </g>
     </g>
    </g>
    <g id="xtick_3">
     <g id="line2d_3">
      <g>
       <use xlink:href="#mb49ee74bc5" x="194.804724" y="307.584" style="stroke: #000000; stroke-width: 0.8"/>
      </g>
     </g>
     <g id="text_3">
      <!-- 4 -->
      <g transform="translate(191.623474 322.182437) scale(0.1 -0.1)">
       <defs>
        <path id="DejaVuSans-34" d="M 2419 4116 
L 825 1625 
L 2419 1625 
L 2419 4116 
z
M 2253 4666 
L 3047 4666 
L 3047 1625 
L 3713 1625 
L 3713 1100 
L 3047 1100 
L 3047 0 
L 2419 0 
L 2419 1100 
L 313 1100 
L 313 1709 
L 2253 4666 
z
" transform="scale(0.015625)"/>
       </defs>
       <use xlink:href="#DejaVuSans-34"/>
      </g>
     </g>
    </g>
    <g id="xtick_4">
     <g id="line2d_4">
      <g>
       <use xlink:href="#mb49ee74bc5" x="260.325947" y="307.584" style="stroke: #000000; stroke-width: 0.8"/>
      </g>
     </g>
     <g id="text_4">
      <!-- 6 -->
      <g transform="translate(257.144697 322.182437) scale(0.1 -0.1)">
       <defs>
        <path id="DejaVuSans-36" d="M 2113 2584 
Q 1688 2584 1439 2293 
Q 1191 2003 1191 1497 
Q 1191 994 1439 701 
Q 1688 409 2113 409 
Q 2538 409 2786 701 
Q 3034 994 3034 1497 
Q 3034 2003 2786 2293 
Q 2538 2584 2113 2584 
z
M 3366 4563 
L 3366 3988 
Q 3128 4100 2886 4159 
Q 2644 4219 2406 4219 
Q 1781 4219 1451 3797 
Q 1122 3375 1075 2522 
Q 1259 2794 1537 2939 
Q 1816 3084 2150 3084 
Q 2853 3084 3261 2657 
Q 3669 2231 3669 1497 
Q 3669 778 3244 343 
Q 2819 -91 2113 -91 
Q 1303 -91 875 529 
Q 447 1150 447 2328 
Q 447 3434 972 4092 
Q 1497 4750 2381 4750 
Q 2619 4750 2861 4703 
Q 3103 4656 3366 4563 
z
" transform="scale(0.015625)"/>
       </defs>
       <use xlink:href="#DejaVuSans-36"/>
      </g>
     </g>
    </g>
    <g id="xtick_5">
     <g id="line2d_5">
      <g>
       <use xlink:href="#mb49ee74bc5" x="325.847169" y="307.584" style="stroke: #000000; stroke-width: 0.8"/>
      </g>
     </g>
     <g id="text_5">
      <!-- 8 -->
      <g transform="translate(322.665919 322.182437) scale(0.1 -0.1)">
       <defs>
        <path id="DejaVuSans-38" d="M 2034 2216 
Q 1584 2216 1326 1975 
Q 1069 1734 1069 1313 
Q 1069 891 1326 650 
Q 1584 409 2034 409 
Q 2484 409 2743 651 
Q 3003 894 3003 1313 
Q 3003 1734 2745 1975 
Q 2488 2216 2034 2216 
z
M 1403 2484 
Q 997 2584 770 2862 
Q 544 3141 544 3541 
Q 544 4100 942 4425 
Q 1341 4750 2034 4750 
Q 2731 4750 3128 4425 
Q 3525 4100 3525 3541 
Q 3525 3141 3298 2862 
Q 3072 2584 2669 2484 
Q 3125 2378 3379 2068 
Q 3634 1759 3634 1313 
Q 3634 634 3220 271 
Q 2806 -91 2034 -91 
Q 1263 -91 848 271 
Q 434 634 434 1313 
Q 434 1759 690 2068 
Q 947 2378 1403 2484 
z
M 1172 3481 
Q 1172 3119 1398 2916 
Q 1625 2713 2034 2713 
Q 2441 2713 2670 2916 
Q 2900 3119 2900 3481 
Q 2900 3844 2670 4047 
Q 2441 4250 2034 4250 
Q 1625 4250 1398 4047 
Q 1172 3844 1172 3481 
z
" transform="scale(0.015625)"/>
       </defs>
       <use xlink:href="#DejaVuSans-38"/>
      </g>
     </g>
    </g>
    <g id="xtick_6">
     <g id="line2d_6">
      <g>
       <use xlink:href="#mb49ee74bc5" x="391.368392" y="307.584" style="stroke: #000000; stroke-width: 0.8"/>
      </g>
     </g>
     <g id="text_6">
      <!-- 10 -->
      <g transform="translate(385.005892 322.182437) scale(0.1 -0.1)">
       <defs>
        <path id="DejaVuSans-31" d="M 794 531 
L 1825 531 
L 1825 4091 
L 703 3866 
L 703 4441 
L 1819 4666 
L 2450 4666 
L 2450 531 
L 3481 531 
L 3481 0 
L 794 0 
L 794 531 
z
" transform="scale(0.015625)"/>
       </defs>
       <use xlink:href="#DejaVuSans-31"/>
       <use xlink:href="#DejaVuSans-30" x="63.623047"/>
      </g>
     </g>
    </g>
    <g id="text_7">
     <!-- Score -->
     <g transform="translate(222.157656 335.860562) scale(0.1 -0.1)">
      <defs>
       <path id="DejaVuSans-53" d="M 3425 4513 
L 3425 3897 
Q 3066 4069 2747 4153 
Q 2428 4238 2131 4238 
Q 1616 4238 1336 4038 
Q 1056 3838 1056 3469 
Q 1056 3159 1242 3001 
Q 1428 2844 1947 2747 
L 2328 2669 
Q 3034 2534 3370 2195 
Q 3706 1856 3706 1288 
Q 3706 609 3251 259 
Q 2797 -91 1919 -91 
Q 1588 -91 1214 -16 
Q 841 59 441 206 
L 441 856 
Q 825 641 1194 531 
Q 1563 422 1919 422 
Q 2459 422 2753 634 
Q 3047 847 3047 1241 
Q 3047 1584 2836 1778 
Q 2625 1972 2144 2069 
L 1759 2144 
Q 1053 2284 737 2584 
Q 422 2884 422 3419 
Q 422 4038 858 4394 
Q 1294 4750 2059 4750 
Q 2388 4750 2728 4690 
Q 3069 4631 3425 4513 
z
" transform="scale(0.015625)"/>
       <path id="DejaVuSans-63" d="M 3122 3366 
L 3122 2828 
Q 2878 2963 2633 3030 
Q 2388 3097 2138 3097 
Q 1578 3097 1268 2742 
Q 959 2388 959 1747 
Q 959 1106 1268 751 
Q 1578 397 2138 397 
Q 2388 397 2633 464 
Q 2878 531 3122 666 
L 3122 134 
Q 2881 22 2623 -34 
Q 2366 -91 2075 -91 
Q 1284 -91 818 406 
Q 353 903 353 1747 
Q 353 2603 823 3093 
Q 1294 3584 2113 3584 
Q 2378 3584 2631 3529 
Q 2884 3475 3122 3366 
z
" transform="scale(0.015625)"/>
       <path id="DejaVuSans-6f" d="M 1959 3097 
Q 1497 3097 1228 2736 
Q 959 2375 959 1747 
Q 959 1119 1226 758 
Q 1494 397 1959 397 
Q 2419 397 2687 759 
Q 2956 1122 2956 1747 
Q 2956 2369 2687 2733 
Q 2419 3097 1959 3097 
z
M 1959 3584 
Q 2709 3584 3137 3096 
Q 3566 2609 3566 1747 
Q 3566 888 3137 398 
Q 2709 -91 1959 -91 
Q 1206 -91 779 398 
Q 353 888 353 1747 
Q 353 2609 779 3096 
Q 1206 3584 1959 3584 
z
" transform="scale(0.015625)"/>
       <path id="DejaVuSans-72" d="M 2631 2963 
Q 2534 3019 2420 3045 
Q 2306 3072 2169 3072 
Q 1681 3072 1420 2755 
Q 1159 2438 1159 1844 
L 1159 0 
L 581 0 
L 581 3500 
L 1159 3500 
L 1159 2956 
Q 1341 3275 1631 3429 
Q 1922 3584 2338 3584 
Q 2397 3584 2469 3576 
Q 2541 3569 2628 3553 
L 2631 2963 
z
" transform="scale(0.015625)"/>
       <path id="DejaVuSans-65" d="M 3597 1894 
L 3597 1613 
L 953 1613 
Q 991 1019 1311 708 
Q 1631 397 2203 397 
Q 2534 397 2845 478 
Q 3156 559 3463 722 
L 3463 178 
Q 3153 47 2828 -22 
Q 2503 -91 2169 -91 
Q 1331 -91 842 396 
Q 353 884 353 1716 
Q 353 2575 817 3079 
Q 1281 3584 2069 3584 
Q 2775 3584 3186 3129 
Q 3597 2675 3597 1894 
z
M 3022 2063 
Q 3016 2534 2758 2815 
Q 2500 3097 2075 3097 
Q 1594 3097 1305 2825 
Q 1016 2553 972 2059 
L 3022 2063 
z
" transform="scale(0.015625)"/>
      </defs>
      <use xlink:href="#DejaVuSans-53"/>
      <use xlink:href="#DejaVuSans-63" x="63.476562"/>
      <use xlink:href="#DejaVuSans-6f" x="118.457031"/>
      <use xlink:href="#DejaVuSans-72" x="179.638672"/>
      <use xlink:href="#DejaVuSans-65" x="218.501953"/>
     </g>
    </g>
   </g>
   <g id="matplotlib.axis_2">
    <g id="ytick_1">
     <g id="line2d_7">
      <defs>
       <path id="m51c03becb1" d="M 0 0 
L -3.5 0 
" style="stroke: #000000; stroke-width: 0.8"/>
      </defs>
      <g>
       <use xlink:href="#m51c03becb1" x="57.6" y="307.584" style="stroke: #000000; stroke-width: 0.8"/>
      </g>
     </g>
     <g id="text_8">
      <!-- 0 -->
      <g transform="translate(44.2375 311.383219) scale(0.1 -0.1)">
       <use xlink:href="#DejaVuSans-30"/>
      </g>
     </g>
    </g>
    <g id="ytick_2">
     <g id="line2d_8">
      <g>
       <use xlink:href="#m51c03becb1" x="57.6" y="250.244633" style="stroke: #000000; stroke-width: 0.8"/>
      </g>
     </g>
     <g id="text_9">
      <!-- 50 -->
      <g transform="translate(37.875 254.043852) scale(0.1 -0.1)">
       <defs>
        <path id="DejaVuSans-35" d="M 691 4666 
L 3169 4666 
L 3169 4134 
L 1269 4134 
L 1269 2991 
Q 1406 3038 1543 3061 
Q 1681 3084 1819 3084 
Q 2600 3084 3056 2656 
Q 3513 2228 3513 1497 
Q 3513 744 3044 326 
Q 2575 -91 1722 -91 
Q 1428 -91 1123 -41 
Q 819 9 494 109 
L 494 744 
Q 775 591 1075 516 
Q 1375 441 1709 441 
Q 2250 441 2565 725 
Q 2881 1009 2881 1497 
Q 2881 1984 2565 2268 
Q 2250 2553 1709 2553 
Q 1456 2553 1204 2497 
Q 953 2441 691 2322 
L 691 4666 
z
" transform="scale(0.015625)"/>
       </defs>
       <use xlink:href="#DejaVuSans-35"/>
       <use xlink:href="#DejaVuSans-30" x="63.623047"/>
      </g>
     </g>
    </g>
    <g id="ytick_3">
     <g id="line2d_9">
      <g>
       <use xlink:href="#m51c03becb1" x="57.6" y="192.905267" style="stroke: #000000; stroke-width: 0.8"/>
      </g>
     </g>
     <g id="text_10">
      <!-- 100 -->
      <g transform="translate(31.5125 196.704486) scale(0.1 -0.1)">
       <use xlink:href="#DejaVuSans-31"/>
       <use xlink:href="#DejaVuSans-30" x="63.623047"/>
       <use xlink:href="#DejaVuSans-30" x="127.246094"/>
      </g>
     </g>
    </g>
    <g id="ytick_4">
     <g id="line2d_10">
      <g>
       <use xlink:href="#m51c03becb1" x="57.6" y="135.5659" style="stroke: #000000; stroke-width: 0.8"/>
      </g>
     </g>
     <g id="text_11">
      <!-- 150 -->
      <g transform="translate(31.5125 139.365119) scale(0.1 -0.1)">
       <use xlink:href="#DejaVuSans-31"/>
       <use xlink:href="#DejaVuSans-35" x="63.623047"/>
       <use xlink:href="#DejaVuSans-30" x="127.246094"/>
      </g>
     </g>
    </g>
    <g id="ytick_5">
     <g id="line2d_11">
      <g>
       <use xlink:href="#m51c03becb1" x="57.6" y="78.226534" style="stroke: #000000; stroke-width: 0.8"/>
      </g>
     </g>
     <g id="text_12">
      <!-- 200 -->
      <g transform="translate(31.5125 82.025753) scale(0.1 -0.1)">
       <use xlink:href="#DejaVuSans-32"/>
       <use xlink:href="#DejaVuSans-30" x="63.623047"/>
       <use xlink:href="#DejaVuSans-30" x="127.246094"/>
      </g>
     </g>
    </g>
    <g id="text_13">
     <!-- Number of crosslinks -->
     <g transform="translate(25.432812 227.019406) rotate(-90) scale(0.1 -0.1)">
      <defs>
       <path id="DejaVuSans-4e" d="M 628 4666 
L 1478 4666 
L 3547 763 
L 3547 4666 
L 4159 4666 
L 4159 0 
L 3309 0 
L 1241 3903 
L 1241 0 
L 628 0 
L 628 4666 
z
" transform="scale(0.015625)"/>
       <path id="DejaVuSans-75" d="M 544 1381 
L 544 3500 
L 1119 3500 
L 1119 1403 
Q 1119 906 1312 657 
Q 1506 409 1894 409 
Q 2359 409 2629 706 
Q 2900 1003 2900 1516 
L 2900 3500 
L 3475 3500 
L 3475 0 
L 2900 0 
L 2900 538 
Q 2691 219 2414 64 
Q 2138 -91 1772 -91 
Q 1169 -91 856 284 
Q 544 659 544 1381 
z
M 1991 3584 
L 1991 3584 
z
" transform="scale(0.015625)"/>
       <path id="DejaVuSans-6d" d="M 3328 2828 
Q 3544 3216 3844 3400 
Q 4144 3584 4550 3584 
Q 5097 3584 5394 3201 
Q 5691 2819 5691 2113 
L 5691 0 
L 5113 0 
L 5113 2094 
Q 5113 2597 4934 2840 
Q 4756 3084 4391 3084 
Q 3944 3084 3684 2787 
Q 3425 2491 3425 1978 
L 3425 0 
L 2847 0 
L 2847 2094 
Q 2847 2600 2669 2842 
Q 2491 3084 2119 3084 
Q 1678 3084 1418 2786 
Q 1159 2488 1159 1978 
L 1159 0 
L 581 0 
L 581 3500 
L 1159 3500 
L 1159 2956 
Q 1356 3278 1631 3431 
Q 1906 3584 2284 3584 
Q 2666 3584 2933 3390 
Q 3200 3197 3328 2828 
z
" transform="scale(0.015625)"/>
       <path id="DejaVuSans-62" d="M 3116 1747 
Q 3116 2381 2855 2742 
Q 2594 3103 2138 3103 
Q 1681 3103 1420 2742 
Q 1159 2381 1159 1747 
Q 1159 1113 1420 752 
Q 1681 391 2138 391 
Q 2594 391 2855 752 
Q 3116 1113 3116 1747 
z
M 1159 2969 
Q 1341 3281 1617 3432 
Q 1894 3584 2278 3584 
Q 2916 3584 3314 3078 
Q 3713 2572 3713 1747 
Q 3713 922 3314 415 
Q 2916 -91 2278 -91 
Q 1894 -91 1617 61 
Q 1341 213 1159 525 
L 1159 0 
L 581 0 
L 581 4863 
L 1159 4863 
L 1159 2969 
z
" transform="scale(0.015625)"/>
       <path id="DejaVuSans-20" transform="scale(0.015625)"/>
       <path id="DejaVuSans-66" d="M 2375 4863 
L 2375 4384 
L 1825 4384 
Q 1516 4384 1395 4259 
Q 1275 4134 1275 3809 
L 1275 3500 
L 2222 3500 
L 2222 3053 
L 1275 3053 
L 1275 0 
L 697 0 
L 697 3053 
L 147 3053 
L 147 3500 
L 697 3500 
L 697 3744 
Q 697 4328 969 4595 
Q 1241 4863 1831 4863 
L 2375 4863 
z
" transform="scale(0.015625)"/>
       <path id="DejaVuSans-73" d="M 2834 3397 
L 2834 2853 
Q 2591 2978 2328 3040 
Q 2066 3103 1784 3103 
Q 1356 3103 1142 2972 
Q 928 2841 928 2578 
Q 928 2378 1081 2264 
Q 1234 2150 1697 2047 
L 1894 2003 
Q 2506 1872 2764 1633 
Q 3022 1394 3022 966 
Q 3022 478 2636 193 
Q 2250 -91 1575 -91 
Q 1294 -91 989 -36 
Q 684 19 347 128 
L 347 722 
Q 666 556 975 473 
Q 1284 391 1588 391 
Q 1994 391 2212 530 
Q 2431 669 2431 922 
Q 2431 1156 2273 1281 
Q 2116 1406 1581 1522 
L 1381 1569 
Q 847 1681 609 1914 
Q 372 2147 372 2553 
Q 372 3047 722 3315 
Q 1072 3584 1716 3584 
Q 2034 3584 2315 3537 
Q 2597 3491 2834 3397 
z
" transform="scale(0.015625)"/>
       <path id="DejaVuSans-6c" d="M 603 4863 
L 1178 4863 
L 1178 0 
L 603 0 
L 603 4863 
z
" transform="scale(0.015625)"/>
       <path id="DejaVuSans-69" d="M 603 3500 
L 1178 3500 
L 1178 0 
L 603 0 
L 603 3500 
z
M 603 4863 
L 1178 4863 
L 1178 4134 
L 603 4134 
L 603 4863 
z
" transform="scale(0.015625)"/>
       <path id="DejaVuSans-6e" d="M 3513 2113 
L 3513 0 
L 2938 0 
L 2938 2094 
Q 2938 2591 2744 2837 
Q 2550 3084 2163 3084 
Q 1697 3084 1428 2787 
Q 1159 2491 1159 1978 
L 1159 0 
L 581 0 
L 581 3500 
L 1159 3500 
L 1159 2956 
Q 1366 3272 1645 3428 
Q 1925 3584 2291 3584 
Q 2894 3584 3203 3211 
Q 3513 2838 3513 2113 
z
" transform="scale(0.015625)"/>
       <path id="DejaVuSans-6b" d="M 581 4863 
L 1159 4863 
L 1159 1991 
L 2875 3500 
L 3609 3500 
L 1753 1863 
L 3688 0 
L 2938 0 
L 1159 1709 
L 1159 0 
L 581 0 
L 581 4863 
z
" transform="scale(0.015625)"/>
      </defs>
      <use xlink:href="#DejaVuSans-4e"/>
      <use xlink:href="#DejaVuSans-75" x="74.804688"/>
      <use xlink:href="#DejaVuSans-6d" x="138.183594"/>
      <use xlink:href="#DejaVuSans-62" x="235.595703"/>
      <use xlink:href="#DejaVuSans-65" x="299.072266"/>
      <use xlink:href="#DejaVuSans-72" x="360.595703"/>
      <use xlink:href="#DejaVuSans-20" x="401.708984"/>
      <use xlink:href="#DejaVuSans-6f" x="433.496094"/>
      <use xlink:href="#DejaVuSans-66" x="494.677734"/>
      <use xlink:href="#DejaVuSans-20" x="529.882812"/>
      <use xlink:href="#DejaVuSans-63" x="561.669922"/>
      <use xlink:href="#DejaVuSans-72" x="616.650391"/>
      <use xlink:href="#DejaVuSans-6f" x="655.513672"/>
      <use xlink:href="#DejaVuSans-73" x="716.695312"/>
      <use xlink:href="#DejaVuSans-73" x="768.794922"/>
      <use xlink:href="#DejaVuSans-6c" x="820.894531"/>
      <use xlink:href="#DejaVuSans-69" x="848.677734"/>
      <use xlink:href="#DejaVuSans-6e" x="876.460938"/>
      <use xlink:href="#DejaVuSans-6b" x="939.839844"/>
      <use xlink:href="#DejaVuSans-73" x="997.75"/>
     </g>
    </g>
   </g>
   <g id="patch_3">
    <path d="M 57.6 307.584 
L 57.6 41.472 
" style="fill: none; stroke: #000000; stroke-width: 0.8; stroke-linejoin: miter; stroke-linecap: square"/>
   </g>
   <g id="patch_4">
    <path d="M 414.72 307.584 
L 414.72 41.472 
" style="fill: none; stroke: #000000; stroke-width: 0.8; stroke-linejoin: miter; stroke-linecap: square"/>
   </g>
   <g id="patch_5">
    <path d="M 57.6 307.584 
L 414.72 307.584 
" style="fill: none; stroke: #000000; stroke-width: 0.8; stroke-linejoin: miter; stroke-linecap: square"/>
   </g>
   <g id="patch_6">
    <path d="M 57.6 41.472 
L 414.72 41.472 
" style="fill: none; stroke: #000000; stroke-width: 0.8; stroke-linejoin: miter; stroke-linecap: square"/>
   </g>
   <g id="legend_1">
    <g id="patch_7">
     <path d="M 293.087188 93.506375 
L 407.72 93.506375 
Q 409.72 93.506375 409.72 91.506375 
L 409.72 48.472 
Q 409.72 46.472 407.72 46.472 
L 293.087188 46.472 
Q 291.087188 46.472 291.087188 48.472 
L 291.087188 91.506375 
Q 291.087188 93.506375 293.087188 93.506375 
z
" style="fill: #ffffff; opacity: 0.8; stroke: #cccccc; stroke-linejoin: miter"/>
    </g>
    <g id="patch_8">
     <path d="M 295.087188 58.070438 
L 315.087188 58.070438 
L 315.087188 51.070438 
L 295.087188 51.070438 
z
" style="fill: #008000"/>
    </g>
    <g id="text_14">
     <!-- true -->
     <g transform="translate(323.087188 58.070438) scale(0.1 -0.1)">
      <defs>
       <path id="DejaVuSans-74" d="M 1172 4494 
L 1172 3500 
L 2356 3500 
L 2356 3053 
L 1172 3053 
L 1172 1153 
Q 1172 725 1289 603 
Q 1406 481 1766 481 
L 2356 481 
L 2356 0 
L 1766 0 
Q 1100 0 847 248 
Q 594 497 594 1153 
L 594 3053 
L 172 3053 
L 172 3500 
L 594 3500 
L 594 4494 
L 1172 4494 
z
" transform="scale(0.015625)"/>
      </defs>
      <use xlink:href="#DejaVuSans-74"/>
      <use xlink:href="#DejaVuSans-72" x="39.208984"/>
      <use xlink:href="#DejaVuSans-75" x="80.322266"/>
      <use xlink:href="#DejaVuSans-65" x="143.701172"/>
     </g>
    </g>
    <g id="patch_9">
     <path d="M 295.087188 72.748563 
L 315.087188 72.748563 
L 315.087188 65.748563 
L 295.087188 65.748563 
z
" style="fill: #7cfc00"/>
    </g>
    <g id="text_15">
     <!-- true homeotypic -->
     <g transform="translate(323.087188 72.748563) scale(0.1 -0.1)">
      <defs>
       <path id="DejaVuSans-68" d="M 3513 2113 
L 3513 0 
L 2938 0 
L 2938 2094 
Q 2938 2591 2744 2837 
Q 2550 3084 2163 3084 
Q 1697 3084 1428 2787 
Q 1159 2491 1159 1978 
L 1159 0 
L 581 0 
L 581 4863 
L 1159 4863 
L 1159 2956 
Q 1366 3272 1645 3428 
Q 1925 3584 2291 3584 
Q 2894 3584 3203 3211 
Q 3513 2838 3513 2113 
z
" transform="scale(0.015625)"/>
       <path id="DejaVuSans-79" d="M 2059 -325 
Q 1816 -950 1584 -1140 
Q 1353 -1331 966 -1331 
L 506 -1331 
L 506 -850 
L 844 -850 
Q 1081 -850 1212 -737 
Q 1344 -625 1503 -206 
L 1606 56 
L 191 3500 
L 800 3500 
L 1894 763 
L 2988 3500 
L 3597 3500 
L 2059 -325 
z
" transform="scale(0.015625)"/>
       <path id="DejaVuSans-70" d="M 1159 525 
L 1159 -1331 
L 581 -1331 
L 581 3500 
L 1159 3500 
L 1159 2969 
Q 1341 3281 1617 3432 
Q 1894 3584 2278 3584 
Q 2916 3584 3314 3078 
Q 3713 2572 3713 1747 
Q 3713 922 3314 415 
Q 2916 -91 2278 -91 
Q 1894 -91 1617 61 
Q 1341 213 1159 525 
z
M 3116 1747 
Q 3116 2381 2855 2742 
Q 2594 3103 2138 3103 
Q 1681 3103 1420 2742 
Q 1159 2381 1159 1747 
Q 1159 1113 1420 752 
Q 1681 391 2138 391 
Q 2594 391 2855 752 
Q 3116 1113 3116 1747 
z
" transform="scale(0.015625)"/>
      </defs>
      <use xlink:href="#DejaVuSans-74"/>
      <use xlink:href="#DejaVuSans-72" x="39.208984"/>
      <use xlink:href="#DejaVuSans-75" x="80.322266"/>
      <use xlink:href="#DejaVuSans-65" x="143.701172"/>
      <use xlink:href="#DejaVuSans-20" x="205.224609"/>
      <use xlink:href="#DejaVuSans-68" x="237.011719"/>
      <use xlink:href="#DejaVuSans-6f" x="300.390625"/>
      <use xlink:href="#DejaVuSans-6d" x="361.572266"/>
      <use xlink:href="#DejaVuSans-65" x="458.984375"/>
      <use xlink:href="#DejaVuSans-6f" x="520.507812"/>
      <use xlink:href="#DejaVuSans-74" x="581.689453"/>
      <use xlink:href="#DejaVuSans-79" x="620.898438"/>
      <use xlink:href="#DejaVuSans-70" x="680.078125"/>
      <use xlink:href="#DejaVuSans-69" x="743.554688"/>
      <use xlink:href="#DejaVuSans-63" x="771.337891"/>
     </g>
    </g>
    <g id="patch_10">
     <path d="M 295.087188 87.426688 
L 315.087188 87.426688 
L 315.087188 80.426688 
L 295.087188 80.426688 
z
" style="fill: #ff0000"/>
    </g>
    <g id="text_16">
     <!-- false -->
     <g transform="translate(323.087188 87.426688) scale(0.1 -0.1)">
      <defs>
       <path id="DejaVuSans-61" d="M 2194 1759 
Q 1497 1759 1228 1600 
Q 959 1441 959 1056 
Q 959 750 1161 570 
Q 1363 391 1709 391 
Q 2188 391 2477 730 
Q 2766 1069 2766 1631 
L 2766 1759 
L 2194 1759 
z
M 3341 1997 
L 3341 0 
L 2766 0 
L 2766 531 
Q 2569 213 2275 61 
Q 1981 -91 1556 -91 
Q 1019 -91 701 211 
Q 384 513 384 1019 
Q 384 1609 779 1909 
Q 1175 2209 1959 2209 
L 2766 2209 
L 2766 2266 
Q 2766 2663 2505 2880 
Q 2244 3097 1772 3097 
Q 1472 3097 1187 3025 
Q 903 2953 641 2809 
L 641 3341 
Q 956 3463 1253 3523 
Q 1550 3584 1831 3584 
Q 2591 3584 2966 3190 
Q 3341 2797 3341 1997 
z
" transform="scale(0.015625)"/>
      </defs>
      <use xlink:href="#DejaVuSans-66"/>
      <use xlink:href="#DejaVuSans-61" x="35.205078"/>
      <use xlink:href="#DejaVuSans-6c" x="96.484375"/>
      <use xlink:href="#DejaVuSans-73" x="124.267578"/>
      <use xlink:href="#DejaVuSans-65" x="176.367188"/>
     </g>
    </g>
   </g>
  </g>
 </g>
 <defs>
  <clipPath id="pe7dabcaf59">
   <rect x="57.6" y="41.472" width="357.12" height="266.112"/>
  </clipPath>
 </defs>
</svg>
